<?xml version="1.0" encoding="UTF-8" standalone="no"?>
<!-- Created with Inkscape (http://www.inkscape.org/) -->
<svg
   xmlns:svg="http://www.w3.org/2000/svg"
   xmlns="http://www.w3.org/2000/svg"
   version="1.0"
   width="391.74301"
   height="561.659"
   viewBox="0 0 391.743 561.659"
   id="Layer_1"
   xml:space="preserve"><defs
   id="defs226" />

<metadata>
<rdf:RDF
      xmlns="http://web.resource.org/cc/"
      xmlns:dc="http://purl.org/dc/elements/1.1/"
      xmlns:rdf="http://www.w3.org/1999/02/22-rdf-syntax-ns#">
      <Work rdf:about="">
         <dc:title>Clarinet</dc:title>
         <dc:description>Clarinet</dc:description>
         <dc:subject>
          <rdf:Bag>
            <rdf:li>music</rdf:li>
            <rdf:li>instrument</rdf:li>
	    <rdf:li>clarinet</rdf:li>
          </rdf:Bag>
         </dc:subject>
         <dc:publisher><Agent rdf:about="http://www.openclipart.org/"><dc:title>Open Clip Art Project</dc:title></Agent></dc:publisher>
         <dc:creator><Agent rdf:about=""><dc:title>Gerald G.</dc:title></Agent></dc:creator>
         <dc:rights><Agent rdf:about="http://web.resource.org/cc/PublicDomain"><dc:title>Public Domain</dc:title></Agent></dc:rights>
         <dc:date>2006/10/02</dc:date>
         <dc:format>image/svg+xml</dc:format>
         <dc:type>http://purl.org/dc/dcmitype/StillImage</dc:type>
         <license rdf:resource="http://web.resource.org/cc/PublicDomain" />
      </Work>
      <License rdf:about="http://web.resource.org/cc/PublicDomain">
         <permits rdf:resource="http://web.resource.org/cc/Reproduction" />
         <permits rdf:resource="http://web.resource.org/cc/Distribution" />
         <permits rdf:resource="http://web.resource.org/cc/DerivativeWorks" />
      </License>
   </rdf:RDF>
</metadata>

<g
   id="g5">
	<path
   d="M 28.562,76.308 L 37.49,90.6 L 46.166,103.488 L 46.058,105.036 L 49.37,109.5 L 50.63,109.644 L 65.966,132.36 L 65.966,132.36 C 65.066,133.404 64.814,134.376 65.066,135.564 C 65.282,136.644 66.146,137.796 67.514,139.02 L 67.514,139.02 C 67.19,139.596 67.622,140.784 68.666,142.728 C 69.71,144.492 71.69,147.048 73.778,150.396 C 75.758,153.744 78.098,157.884 80.798,162.96 L 80.798,162.96 C 80.798,163.932 81.05,164.868 81.554,165.768 C 82.022,166.668 82.742,167.388 83.714,168.216 L 83.714,168.216 L 89.222,177.54 L 89.222,177.54 C 88.754,179.7 88.718,181.14 88.97,182.256 C 89.186,183.3 89.834,183.768 90.77,183.804 L 90.77,183.804 C 90.77,184.74 90.806,185.64 91.274,186.36 C 91.562,187.044 92.282,187.548 93.038,188.016 L 93.038,188.016 L 101.858,200.904 L 101.858,200.904 C 101.462,202.164 101.462,203.316 101.858,203.964 C 102.182,204.72 103.046,204.972 104.162,205.116 L 104.162,205.116 L 110.822,213.936 L 110.822,213.936 C 110.786,215.736 111.038,216.924 111.578,217.788 C 112.118,218.544 112.838,218.832 113.882,218.652 L 113.882,218.652 L 118.85,224.556 L 118.85,224.556 C 118.598,226.356 118.778,227.544 119.246,228.516 C 119.714,229.38 120.614,229.848 121.802,229.92 L 121.802,229.92 L 126.914,237.408 L 126.914,237.408 C 126.806,239.1 127.022,240.756 127.166,242.52 C 127.274,244.356 127.706,246.192 128.066,247.884 C 128.39,249.396 128.858,250.296 129.47,251.7 C 129.938,253.032 130.946,254.58 131.234,255.804 C 131.45,256.92 131.414,257.676 130.982,258.216 L 130.982,258.216 C 129.83,258.54 129.146,259.008 129.218,259.764 C 129.182,260.376 130.046,261.744 130.982,262.464 C 131.81,263.04 133.43,263.832 134.186,263.724 C 134.834,263.508 135.086,262.5 135.086,261.816 C 135.05,261.168 134.618,260.34 133.934,259.62 L 133.934,259.62 C 134.006,258.144 133.79,256.74 133.43,255.408 C 132.89,253.968 132.026,253.068 131.378,251.592 C 130.586,250.008 130.082,248.244 129.722,246.588 C 129.398,244.896 129.398,243.24 129.578,241.62 L 129.578,241.62 L 131.63,244.428 L 131.63,244.428 C 131.558,245.58 131.774,246.948 132.134,248.136 C 132.494,249.252 132.998,250.44 133.79,251.844 C 134.546,253.284 135.77,255.084 136.49,256.56 C 137.03,257.856 137.138,258.648 137.246,259.908 C 137.21,261.024 136.994,262.212 136.598,263.472 L 136.598,263.472 C 135.806,263.256 135.302,263.292 135.086,263.976 C 134.834,264.48 134.69,266.1 135.338,267.036 C 135.914,268.008 137.894,269.052 138.794,269.34 C 139.586,269.448 140.09,268.476 140.306,267.936 C 140.414,267.324 140.162,266.424 139.55,265.524 L 139.55,265.524 C 140.126,265.416 140.414,264.948 140.558,264.12 C 140.63,263.22 140.414,262.068 140.054,260.52 L 140.054,260.52 C 141.134,261.636 142.034,263.004 142.754,264.624 C 143.438,266.28 143.942,267.972 144.266,270.096 L 144.266,270.096 C 142.538,269.376 141.566,269.34 141.206,269.988 C 140.846,270.528 141.242,272.724 142.106,273.804 C 142.826,274.812 144.014,275.532 145.67,276.108 L 145.67,276.108 C 145.238,277.836 145.418,279.204 146.066,280.068 C 146.714,280.86 147.866,280.967 149.522,281.219 C 151.178,281.364 153.085,281.508 155.642,281.364 L 155.642,281.364 L 161.654,289.932 L 161.654,289.932 C 161.258,290.868 161.258,291.623 161.799,292.344 C 162.267,292.992 163.238,293.459 164.715,293.891 L 164.715,293.891 C 165.506,295.26 166.874,297.42 168.819,300.371 C 170.727,303.359 173.139,306.924 176.199,311.459 L 176.199,311.459 C 175.803,312.936 175.803,313.908 176.199,314.664 C 176.523,315.348 177.387,315.635 178.503,315.672 L 178.503,315.672 L 187.972,329.496 L 187.972,329.496 C 187.287,330.756 187.251,331.512 187.576,332.051 C 187.972,332.447 188.728,332.627 190.132,332.303 L 190.132,332.303 C 191.284,334.283 192.401,335.688 193.336,336.371 C 194.236,337.055 195.137,336.73 195.748,336.371 C 196.288,335.867 196.685,335.146 196.793,333.814 L 196.793,333.814 C 196.612,333.996 196.864,334.248 197.152,334.714 C 197.548,335.146 197.98,335.652 198.844,336.37 L 198.844,336.37 L 198.448,337.774 L 198.448,337.774 C 196.217,338.313 194.38,339.178 192.94,339.969 C 191.284,340.762 190.276,341.553 189.627,342.778 C 189.016,343.93 188.98,345.442 189.52,346.739 C 189.879,347.782 191.14,349.259 192.328,349.655 C 193.48,350.05 194.885,349.835 196.54,349.151 L 196.54,349.151 C 196.072,349.797 196.072,350.446 196.54,350.805 C 196.936,351.166 197.872,351.381 199.204,351.453 L 199.204,351.453 C 197.728,353.685 196.828,355.557 196.9,357.07 C 196.864,358.582 197.872,359.59 199.096,360.381 C 200.248,361.137 201.867,361.389 203.955,361.426 L 203.955,361.426 C 205.792,363.01 207.483,363.91 209.176,363.981 C 210.832,363.981 212.451,363.297 214.035,361.786 L 214.035,361.786 C 215.655,363.874 217.023,365.243 217.995,366.286 C 218.932,367.294 219.615,367.583 219.903,367.546 L 219.903,367.546 C 218.679,368.771 217.743,369.886 217.095,370.751 C 216.303,371.614 215.727,372.335 215.943,372.911 C 216.124,373.487 217.023,373.774 218.5,374.061 L 218.5,374.061 C 218.283,376.041 218.716,377.374 219.399,377.915 C 220.084,378.454 221.235,378.274 222.855,377.374 L 222.855,377.374 C 226.168,379.571 228.759,381.442 230.631,383.53 C 232.503,385.473 230.847,384.827 233.835,389.218 C 236.606,393.646 243.375,403.152 247.767,409.81 C 252.195,416.328 256.227,422.447 260.151,428.314 L 260.151,428.314 C 259.611,428.459 259.395,428.675 259.107,429.107 C 258.819,429.466 258.567,429.97 258.748,430.763 C 258.892,431.484 259.395,432.454 260.26,433.679 L 260.26,433.679 C 259.827,434.363 259.575,435.046 259.648,435.587 C 259.648,436.091 259.756,436.702 260.404,437.026 C 260.908,437.385 261.808,437.458 262.961,437.53 L 262.961,437.53 C 264.437,439.762 265.625,441.382 266.921,442.389 C 268.217,443.254 269.225,443.541 270.233,443.397 C 270.989,443.254 271.637,442.606 271.889,441.598 L 271.889,441.598 L 275.993,449.159 L 275.741,450.309 L 278.802,456.034 L 280.098,456.286 L 280.098,456.286 C 286.326,468.671 291.51,478.679 295.794,486.85 C 299.97,494.842 301.949,497.469 305.621,504.598 C 309.222,511.655 314.657,522.743 317.502,529.403 C 320.166,535.954 321.245,540.202 322.109,544.091 C 322.901,547.943 323.117,550.534 322.613,552.263 L 322.613,552.263 C 321.389,553.775 320.453,555.214 319.805,556.726 C 319.085,558.167 318.797,559.572 318.653,560.939 L 318.653,560.939 C 322.721,561.875 326.933,561.875 331.433,560.939 C 335.788,559.931 339.785,557.878 345.221,555.072 C 350.62,552.119 359.153,546.898 363.868,543.84 C 368.513,540.744 371.572,538.512 373.192,536.856 L 373.192,536.856 C 377.045,534.157 380.284,531.563 383.056,528.792 C 385.684,526.021 387.988,522.708 389.428,520.368 C 390.832,517.884 391.228,515.796 391.588,514.249 C 391.84,512.7 391.768,511.62 391.228,511.153 L 391.228,511.153 C 386.728,511.44 383.2,511.405 380.356,510.899 C 377.476,510.36 376.54,509.749 374.236,508.237 C 371.968,506.653 369.412,504.383 366.568,501.577 C 363.58,498.731 360.917,496.249 356.344,491.352 C 351.556,486.204 344.716,478.715 338.596,471.803 C 332.367,464.783 324.951,456.035 319.948,450.131 C 314.908,444.264 311.381,440.016 308.932,436.992 L 308.932,436.992 L 308.824,435.588 L 304.864,430.223 L 303.461,429.936 L 303.461,429.936 C 297.881,422.231 292.732,414.959 287.477,407.581 C 282.293,400.2 277.181,393.143 272.285,386.124 L 272.285,386.124 C 271.997,384.792 271.565,383.784 270.989,382.811 C 270.342,381.84 269.586,381.047 268.577,380.436 L 268.577,380.436 C 263.178,372.623 258.21,365.315 253.386,358.368 C 248.526,351.348 244.062,344.833 239.85,338.677 L 239.85,338.677 C 240.282,337.812 240.318,336.697 240.102,335.472 C 239.886,334.105 239.202,332.341 238.194,331.154 C 237.006,329.929 235.386,328.994 233.19,328.345 L 233.19,328.345 C 231.211,325.429 228.87,322.044 226.314,318.193 C 223.65,314.269 220.554,309.552 217.602,305.162 C 214.614,300.697 211.59,296.449 208.53,291.984 L 208.53,291.984 C 210.078,291.445 211.158,290.761 211.627,290.078 C 211.986,289.285 211.843,288.098 211.339,287.629 C 210.763,287.018 209.322,286.766 208.53,286.873 C 207.666,286.98 206.946,287.232 206.37,288.025 L 206.37,288.025 L 204.822,286.369 L 204.822,286.369 C 206.946,284.965 208.135,283.994 208.53,283.056 C 208.746,282.085 207.919,281.22 207.018,281.005 C 206.081,280.681 204.894,280.86 203.31,281.4 L 203.31,281.4 C 206.406,279.745 208.35,278.305 209.43,276.793 C 210.438,275.317 209.789,273.733 209.43,272.581 C 208.926,271.249 208.026,269.593 206.873,269.269 C 205.541,268.873 203.922,269.485 202.157,270.277 C 200.429,270.961 198.557,271.933 196.541,273.337 L 196.541,273.337 C 190.781,265.309 186.102,258.937 182.213,253.537 C 178.289,248.209 175.445,244.213 173.394,241.549 L 173.394,241.549 C 175.337,237.373 176.49,234.349 176.85,232.333 C 177.102,230.281 176.49,229.777 175.589,229.273 C 174.69,228.589 172.997,228.553 171.629,228.877 C 170.262,229.273 168.858,230.029 167.417,231.433 L 167.417,231.433 C 165.329,228.157 163.241,225.097 161.009,221.857 C 158.741,218.617 156.581,215.593 154.241,212.389 L 154.241,212.389 C 154.565,210.481 154.529,208.861 154.133,207.529 C 153.665,206.089 152.802,204.937 151.829,204.217 C 150.713,203.425 149.489,202.993 147.869,202.921 L 147.869,202.921 L 134.441,182.869 L 134.441,182.869 C 134.369,180.205 134.081,178.081 133.433,176.209 C 132.821,174.265 131.921,172.825 130.733,171.889 C 129.293,170.917 127.637,170.701 125.369,170.845 L 125.369,170.845 L 123.965,168.685 L 123.965,168.685 C 124.325,167.353 124.289,165.913 123.857,164.221 C 123.281,162.457 122.813,160.801 121.049,158.713 C 119.141,156.553 116.585,154.177 112.985,151.441 L 112.985,151.441 L 107.513,142.153 L 107.513,142.153 C 108.917,141.721 110.069,141.253 110.825,140.605 C 111.473,139.813 112.049,139.093 111.977,138.301 C 111.797,137.545 111.113,136.357 110.321,136.141 C 109.385,135.745 107.945,136.141 107.117,136.645 C 106.289,137.113 105.641,138.013 105.317,139.201 L 105.317,139.201 C 104.453,138.229 102.365,135.421 99.053,130.381 C 95.561,125.233 89.441,115.441 85.409,109.321 C 81.377,103.093 77.921,98.089 75.041,93.733 L 75.041,93.733 L 75.041,92.437 L 71.585,87.469 L 70.433,86.821 L 65.069,79.045 L 65.069,79.045 C 61.253,73.501 57.725,68.605 54.341,63.925 C 50.885,59.209 47.753,54.997 44.657,51.145 L 44.657,51.145 L 44.657,49.993 L 43.865,48.697 L 43.865,48.697 C 44.441,48.265 44.873,47.761 45.017,47.185 C 45.125,46.537 45.089,45.529 44.765,44.989 C 44.225,44.377 43.361,43.765 42.605,43.585 C 41.813,43.333 41.093,43.333 40.301,43.585 L 40.301,43.585 L 38.249,39.877 L 36.845,39.373 L 33.785,35.161 L 33.785,35.161 C 34.613,34.153 35.045,33.217 35.081,32.353 C 35.117,31.489 34.685,30.085 33.929,29.797 C 33.101,29.365 31.769,29.401 30.077,29.905 L 30.077,29.905 L 26.873,26.845 L 25.361,26.341 L 25.361,26.341 C 19.637,18.421 15.209,12.337 11.681,7.945 C 8.153,3.517 5.813,0.925 4.517,0.025 L 4.517,0.025 L 0.449,3.985 L 0.449,3.985 C 0.122,5.675 -0.059,8.52 0.05,12.66 C 0.086,16.8 0.302,21.948 0.698,28.5 L 0.698,28.5 L 6.71,39.768 L 6.458,41.28 L 6.458,41.28 C 7.43,43.548 8.834,46.068 10.274,48.84 C 11.75,51.576 14.054,55.896 15.386,57.768 C 16.718,59.532 17.438,60.036 17.942,59.424 L 17.942,59.424 L 19.49,61.224 L 18.95,62.232 L 20.498,64.788 L 21.65,65.184 L 21.65,65.184 C 23.954,68.892 26.258,72.6 28.562,76.308 L 28.562,76.308 z M 147.218,255.047 L 149.522,258.611 L 151.034,259.367 L 155.786,267.575 L 155.786,267.575 C 156.219,268.403 156.434,269.159 156.29,269.987 C 156.183,270.779 155.715,271.499 155.03,272.291 L 155.03,272.291 L 145.814,255.947 L 145.814,255.947 C 146.281,255.66 146.749,255.372 147.218,255.047 L 147.218,255.047 z M 166.262,290.543 C 166.262,289.859 166.514,289.428 167.018,289.643 C 167.486,289.715 167.414,288.852 169.178,291.336 C 170.869,293.82 173.461,298.104 177.098,304.332 L 177.098,304.332 L 176.917,306.887 L 176.917,306.887 C 174.686,303.576 172.705,300.516 170.978,297.852 C 169.105,295.115 167.665,292.631 166.262,290.543 L 166.262,290.543 z M 182.102,310.955 C 181.994,310.883 181.742,310.848 181.346,310.848 C 180.806,310.776 179.726,310.452 179.654,310.848 C 179.51,311.207 180.446,312.432 181.058,313.26 C 181.562,313.979 182.209,314.916 183.001,315.672 L 183.001,315.672 C 183.758,315.42 184.01,314.988 184.153,314.52 C 184.189,313.944 183.649,313.043 183.361,312.504 C 183.037,311.855 182.569,311.387 182.102,310.955 L 182.102,310.955 z M 186.421,319.92 L 188.869,322.979 L 188.977,324.887 L 188.977,324.887 C 188.077,323.772 187.357,322.692 186.96,321.936 C 186.493,321.035 186.313,320.459 186.421,319.92 L 186.421,319.92 z M 193.333,329.496 L 195.386,332.303 L 195.386,332.303 C 195.421,333.276 195.205,333.528 194.738,333.203 C 194.27,332.807 193.406,331.691 192.434,330 L 192.434,330 C 192.722,329.855 193.01,329.676 193.333,329.496 L 193.333,329.496 z "
   style="fill-rule:evenodd;stroke:black;stroke-width:0.036;stroke-miterlimit:10"
   id="path7" />
	<path
   d="M 147.974,253.932 C 148.478,255.66 148.91,256.812 149.413,257.388 C 149.809,257.892 149.917,257.892 150.709,257.388 C 151.394,256.884 152.365,255.804 153.625,254.292 L 153.625,254.292 C 155.317,256.56 156.974,258.324 158.594,259.584 C 160.214,260.772 161.798,260.844 163.346,261.6 C 164.714,262.248 165.541,261.348 167.377,263.616 C 169.142,265.776 170.438,269.052 174.325,274.812 C 178.105,280.608 184.405,288.997 190.453,297.887 C 196.43,306.707 202.981,316.139 210.254,327.012 L 210.254,327.012 C 207.661,328.524 205.573,330.252 203.846,332.051 C 201.938,333.924 199.85,337.307 199.814,337.92 C 199.85,338.315 202.046,336.408 204.026,334.967 C 205.934,333.42 208.562,330.719 210.795,329.1 C 212.811,327.409 214.647,326.112 216.303,325.069 L 216.303,325.069 C 213.171,319.993 210.219,315.493 207.303,310.993 C 204.351,306.456 201.543,302.497 198.879,298.536 L 198.879,298.536 L 200.355,297.6 L 200.355,297.6 C 202.155,300.084 204.711,303.684 207.879,308.399 C 211.118,313.116 214.826,318.731 219.399,325.643 L 219.399,325.643 C 217.203,326.653 215.367,327.623 213.891,328.559 C 212.271,329.459 211.335,329.856 210.255,331.116 C 209.103,332.231 207.194,335.329 207.303,335.688 C 207.375,335.905 208.671,334.356 210.615,333.131 C 212.523,331.836 216.124,329.279 218.5,328.379 C 220.731,327.479 222.567,327.191 224.151,327.66 L 224.151,327.66 C 222.279,324.31 219.759,320.027 216.303,314.806 C 212.883,309.515 208.671,303.286 203.667,296.122 L 203.667,296.122 L 208.238,290.831 L 208.238,290.831 C 209.318,290.722 210.003,290.362 210.434,289.893 C 210.722,289.354 210.902,288.166 210.434,287.877 C 209.93,287.518 208.31,287.518 207.662,287.877 C 207.015,288.094 206.547,288.742 206.402,289.533 L 206.402,289.533 L 200.894,293.025 L 198.518,289.712 L 198.518,289.712 C 200.642,287.985 202.37,286.689 203.846,285.681 C 205.358,284.601 206.258,284.204 206.942,283.665 C 207.338,282.944 207.23,282.405 206.762,282.044 C 206.077,281.612 204.458,281.433 203.846,281.649 C 203.198,281.864 203.054,282.368 203.27,283.303 L 203.27,283.303 L 197.042,286.975 L 180.373,267.176 L 180.373,267.176 C 180.085,261.704 179.401,257.42 178.718,253.928 C 177.818,250.472 176.846,248.528 175.802,246.584 C 174.686,244.532 173.678,242.948 172.489,241.832 L 172.489,241.832 C 173.785,239.456 174.577,237.44 175.261,235.784 C 175.908,234.056 176.16,232.76 176.16,231.752 C 175.908,230.672 175.297,229.556 174.324,229.376 C 173.208,229.124 171.48,229.52 170.112,230.276 C 168.708,230.924 167.232,232.4 166.08,233.588 C 164.82,234.74 163.74,235.208 162.984,237.08 C 162.192,238.844 161.76,241.22 161.688,244.208 L 161.688,244.208 C 160.212,243.596 158.916,243.236 157.656,243.272 C 156.252,243.164 154.992,243.092 154.02,244.028 C 153.012,244.928 152.436,246.404 152.003,248.6 L 152.003,248.6 C 150.564,249.788 149.52,250.832 148.871,251.732 C 148.226,252.563 147.829,253.392 147.974,253.932 L 147.974,253.932 z M 181.489,277.907 L 188.798,290.363 L 190.094,289.463 L 181.489,277.907 L 181.489,277.907 z M 191.749,294.035 L 193.766,296.951 L 195.026,296.051 L 193.01,293.135 L 191.749,294.035 L 191.749,294.035 z M 181.489,273.875 L 191.749,288.527 L 193.01,287.447 L 181.489,273.875 L 181.489,273.875 z M 195.025,292.379 L 197.221,295.332 L 198.517,294.936 L 196.321,291.479 L 195.025,292.379 L 195.025,292.379 z M 195.781,300.443 L 197.617,299.722 L 213.889,324.454 L 212.809,325.175 L 195.781,300.443 L 195.781,300.443 z "
   style="fill:silver;fill-rule:evenodd;stroke:black;stroke-width:0.036;stroke-miterlimit:10"
   id="path9" />
	<path
   d="M 85.406,160.583 L 92.282,155.579 L 88.466,149.603 L 88.466,149.603 C 87.206,149.603 86.486,149.207 85.91,148.703 C 85.226,147.983 85.01,147.083 85.262,146.147 C 85.514,145.103 86.234,143.195 87.422,143.051 C 88.394,142.979 89.762,143.699 91.382,145.499 L 91.382,145.499 C 92.03,145.247 92.714,145.499 93.578,146.399 C 94.226,147.191 95.018,148.919 96.242,150.611 C 97.466,152.267 99.41,155.003 101.246,156.479 C 103.046,157.811 104.99,157.883 107.222,159.035 C 109.382,160.151 112.19,161.231 114.278,163.247 C 116.258,165.227 117.914,168.215 119.102,170.663 C 120.182,172.859 120.83,174.839 120.902,177.035 C 121.01,179.195 121.01,183.083 119.642,183.695 C 118.058,184.163 113.918,182.471 112.082,180.131 C 110.246,177.647 109.202,172.211 108.374,169.511 C 107.474,166.739 107.078,165.047 106.358,163.895 C 105.386,162.671 104.27,162.167 103.154,162.239 C 102.002,162.203 101.066,162.527 99.95,163.499 L 99.95,163.499 C 102.074,163.607 103.478,164.075 104.306,165.047 C 105.062,165.983 105.098,168.143 104.558,169.007 C 103.946,169.691 101.786,170.051 100.85,169.655 C 99.734,169.151 98.87,167.387 98.546,166.451 C 98.114,165.407 98.33,164.687 98.798,163.895 L 98.798,163.895 L 94.082,157.883 L 88.574,161.987 L 91.274,167.351 L 93.83,165.803 L 93.83,165.803 C 93.29,164.579 93.11,163.643 93.434,163.139 C 93.722,162.563 94.73,162.203 95.486,162.492 C 96.026,162.672 97.142,163.536 97.286,164.4 C 97.358,165.084 97.25,166.02 96.386,167.208 C 95.45,168.324 94.046,169.692 92.03,171.312 L 92.03,171.312 L 92.93,173.976 L 92.93,173.976 C 95.306,174.552 97.394,175.272 99.194,176.532 C 100.958,177.72 103.154,179.16 103.55,180.996 C 103.73,182.832 103.046,184.776 100.958,187.26 L 100.958,187.26 L 103.262,190.212 L 103.262,190.212 C 103.046,188.664 103.478,187.512 104.414,186.9 C 105.35,186.108 107.546,185.892 108.914,186.252 C 110.21,186.576 111.398,187.656 112.082,189.204 C 112.73,190.644 112.946,193.38 112.586,195.072 C 112.118,196.692 111.11,198.096 109.418,199.14 L 109.418,199.14 C 110.282,200.004 110.57,200.616 110.426,201.12 C 110.102,201.624 108.914,202.02 108.266,201.876 C 107.654,201.588 107.186,200.688 106.862,199.32 L 106.862,199.32 L 104.306,201.228 L 104.306,201.228 C 104.522,202.128 104.738,202.848 104.558,203.388 C 104.414,203.82 103.802,204.252 103.55,204.288 C 103.118,204.252 102.722,204.216 102.506,203.784 C 102.218,203.316 102.002,202.524 102.002,201.984 C 102.038,201.444 102.11,200.976 102.506,200.58 L 102.506,200.58 L 93.578,187.188 L 93.578,187.188 C 92.786,187.26 92.282,186.828 91.922,186.288 C 91.562,185.64 91.382,184.704 91.382,183.48 L 91.382,183.48 C 90.698,183.408 90.194,183.156 89.87,182.724 C 89.402,182.256 89.186,181.392 89.222,180.528 C 89.186,179.556 89.402,178.404 89.87,177.072 L 89.87,177.072 L 84.254,167.64 L 84.254,167.64 C 83.642,167.676 83.138,167.244 82.598,166.344 C 82.058,165.444 81.626,164.04 81.158,162.276 L 81.158,162.276 C 78.998,158.28 77.126,154.86 75.542,152.16 C 73.778,149.352 72.698,147.552 71.474,145.788 C 70.214,143.952 68.918,142.548 68.414,141.432 C 67.838,140.244 67.802,139.308 68.162,138.768 L 68.162,138.768 C 67.262,138.156 66.614,137.508 66.218,136.824 C 65.714,136.068 65.318,135.348 65.462,134.664 C 65.498,133.908 65.966,133.188 66.722,132.504 L 66.722,132.504 C 67.91,133.368 68.774,134.16 69.17,135.168 C 69.566,136.032 69.566,137.112 69.17,138.12 L 69.17,138.12 C 69.062,138.876 69.494,140.028 70.322,141.576 C 71.15,142.98 72.518,144.708 74.282,147.192 C 75.974,149.604 78.062,152.628 80.546,156.264 L 80.546,156.264 C 80.258,154.248 80.51,152.988 81.158,152.052 C 81.734,151.152 83.534,150.72 84.614,150.9 C 85.622,150.936 86.882,151.62 87.422,152.664 C 87.854,153.672 87.818,155.868 87.314,157.02 C 86.774,158.028 85.658,158.712 84.11,158.928 L 84.11,158.928 C 84.542,159.467 84.974,160.007 85.406,160.583 L 85.406,160.583 z M 86.917,163.679 C 86.197,163.895 85.513,164.147 85.261,164.579 C 84.829,164.903 84.829,165.371 84.865,165.983 L 84.865,165.983 C 85.765,167.459 86.485,168.467 87.169,169.151 C 87.817,169.871 88.465,170.087 88.717,169.943 C 88.861,169.619 88.465,168.395 88.213,167.387 C 87.854,166.308 87.421,165.12 86.917,163.679 L 86.917,163.679 z M 94.729,186.792 C 94.837,186.792 94.909,186.612 95.089,186.396 C 95.197,186.108 95.377,185.64 95.629,185.136 L 95.629,185.136 C 96.997,186.648 98.437,188.376 99.949,190.752 C 101.461,192.984 102.901,195.72 104.557,198.816 L 104.557,198.816 L 103.153,199.68 L 103.153,199.68 C 101.821,197.664 100.453,195.756 99.049,193.56 C 97.646,191.328 96.206,189.204 94.729,186.792 L 94.729,186.792 z M 106.609,189.204 C 106.141,189.348 105.385,189.6 105.313,190.5 C 105.097,191.328 105.133,192.696 105.709,194.064 C 106.249,195.324 107.653,197.664 108.517,198.024 C 109.165,198.276 109.813,196.728 110.029,195.72 C 110.101,194.532 109.885,192.84 109.525,191.76 C 109.129,190.644 108.301,189.888 107.869,189.492 C 107.33,188.987 107.006,189.023 106.609,189.204 L 106.609,189.204 z "
   style="fill:silver;fill-rule:evenodd;stroke:black;stroke-width:0.036;stroke-miterlimit:10"
   id="path11" />
	<path
   d="M 0.806,4.127 L 0.554,12.803 L 0.806,22.127 L 1.202,28.139 L 1.202,28.139 C 1.202,28.139 3.794,25.871 5.162,23.135 C 6.53,20.435 6.422,20.435 6.71,17.267 C 6.962,14.099 6.962,14.351 6.17,10.499 C 5.414,6.683 3.65,1.931 3.65,1.931 L 3.65,1.931 L 0.806,4.127 L 0.806,4.127 z "
   style="fill:#616161;fill-rule:evenodd"
   id="path13" />
	<path
   d="M 6.961,41.027 C 6.997,40.055 7.465,38.903 8.221,37.571 C 9.049,36.131 9.985,34.187 11.569,32.855 C 12.937,31.379 14.737,30.191 16.681,29.291 C 18.589,28.319 21.181,27.779 22.909,27.383 C 24.565,26.951 25.753,26.951 26.617,27.095 L 26.617,27.095 L 29.965,30.551 L 29.965,30.551 C 27.661,30.443 25.573,30.479 23.557,30.947 C 21.541,31.343 19.705,32.027 18.049,32.999 L 18.049,32.999 C 19.777,33.503 20.965,34.043 22.045,35.015 C 22.981,35.879 23.665,36.995 23.953,38.363 C 24.205,39.587 24.205,40.991 23.809,42.575 L 23.809,42.575 C 25.537,41.531 27.193,40.631 28.921,40.271 C 30.685,39.803 32.305,39.767 33.925,39.875 C 35.437,39.839 36.661,40.019 37.885,40.271 L 37.885,40.271 L 39.901,43.979 L 39.901,43.979 C 37.525,43.439 35.113,43.619 32.521,44.375 C 29.821,45.131 26.581,46.859 24.457,48.443 C 22.333,49.919 20.857,51.719 19.741,53.555 C 18.553,55.319 17.653,57.155 17.185,59.063 L 17.185,59.063 C 16.897,58.955 16.393,58.271 15.529,57.011 C 14.593,55.643 13.333,53.447 12.181,51.395 C 10.993,49.127 9.301,46.139 8.473,44.375 C 7.574,42.647 7.07,41.531 6.961,41.027 L 6.961,41.027 z M 11.822,39.12 C 11.246,39.624 10.994,39.984 10.922,41.028 C 10.742,41.892 10.814,43.44 11.282,44.988 C 11.642,46.536 12.686,49.02 13.586,50.352 C 14.414,51.612 15.314,52.584 16.286,52.296 C 17.186,51.792 18.626,49.272 19.346,47.796 C 19.994,46.248 20.606,44.628 20.354,43.08 C 19.994,41.388 18.554,39.12 17.546,38.22 C 16.466,37.32 15.17,37.608 14.234,37.824 C 13.262,38.003 12.326,38.436 11.822,39.12 L 11.822,39.12 z "
   style="fill:silver;fill-rule:evenodd;stroke:black;stroke-width:0.036;stroke-miterlimit:10"
   id="path15" />
	<path
   d="M 19.49,62.375 C 19.886,60.719 20.57,59.279 21.398,57.767 C 22.226,56.183 22.874,54.959 24.458,53.411 C 25.97,51.719 28.022,49.919 30.218,48.695 C 32.306,47.615 34.754,46.931 36.734,46.643 C 38.57,46.247 40.01,46.031 41.198,46.139 L 41.198,46.139 L 44.114,49.992 L 44.114,51 L 44.114,51 C 42.53,50.676 40.838,50.856 38.642,51.396 C 36.374,51.864 33.674,52.656 31.226,54.204 C 28.742,55.608 25.754,58.668 24.206,60.468 C 22.514,62.196 21.794,63.636 21.65,64.788 L 21.65,64.788 C 21.434,64.932 21.038,64.86 20.75,64.428 C 20.317,63.996 19.994,63.312 19.49,62.375 L 19.49,62.375 z "
   style="fill:silver;fill-rule:evenodd;stroke:black;stroke-width:0.036;stroke-miterlimit:10"
   id="path17" />
	<path
   d="M 24.602,55.967 C 25.682,54.419 26.906,53.015 28.67,51.899 C 30.398,50.567 32.594,49.631 34.682,48.947 C 36.626,48.299 38.498,48.047 40.442,48.191 L 40.442,48.191 C 37.994,48.479 35.87,49.091 33.926,49.739 C 31.874,50.351 30.398,51.251 28.814,52.295 C 27.229,53.375 25.826,54.456 24.602,55.967 L 24.602,55.967 z "
   style="fill-rule:evenodd;stroke:black;stroke-width:0.036;stroke-miterlimit:10"
   id="path19" />
	<path
   d="M 30.578,30.803 L 33.278,34.259 L 33.278,34.259 C 33.746,33.179 33.962,32.279 33.926,31.703 C 33.818,31.091 33.422,30.659 32.882,30.551 C 32.377,30.407 31.478,30.443 30.578,30.803 L 30.578,30.803 z "
   style="fill:silver;fill-rule:evenodd;stroke:black;stroke-width:0.036;stroke-miterlimit:10"
   id="path21" />
	<path
   d="M 41.306,44.627 L 43.358,47.795 L 43.358,47.795 C 43.718,47.075 43.934,46.391 43.862,45.887 C 43.61,45.167 43.322,44.699 42.854,44.483 C 42.386,44.303 41.917,44.303 41.306,44.627 L 41.306,44.627 z "
   style="fill:silver;fill-rule:evenodd;stroke:black;stroke-width:0.036;stroke-miterlimit:10"
   id="path23" />
	<path
   d="M 3.253,2.436 L 4.513,1.428 L 4.513,1.428 C 6.385,4.344 7.789,7.332 8.869,10.248 C 9.877,13.164 11.821,16.008 10.669,18.924 C 9.445,21.696 6.457,24.468 1.705,27.096 L 1.705,27.096 C 4.261,24.576 5.881,21.948 6.565,18.924 C 7.249,15.792 5.989,11.868 5.557,9.096 C 5.054,6.251 4.154,4.164 3.253,2.436 L 3.253,2.436 z "
   style="fill:#212121;fill-rule:evenodd"
   id="path25" />
	<path
   d="M 49.622,109.104 L 46.562,104.892 L 46.562,104.892 C 46.814,103.164 47.462,101.544 48.362,99.888 C 49.262,98.196 50.27,96.576 51.926,95.028 C 53.546,93.3 55.598,91.716 57.794,90.564 C 59.738,89.376 61.826,88.836 64.058,88.404 C 66.218,87.9 68.522,87.684 70.97,87.756 L 70.97,87.756 L 74.534,92.472 L 74.282,93.372 L 74.282,93.372 C 72.482,93.048 70.394,93.264 68.018,93.876 C 65.498,94.38 61.898,95.82 59.702,97.08 C 57.506,98.34 55.85,99.924 54.59,101.436 C 53.15,102.876 52.358,104.136 51.674,105.504 C 50.99,106.728 50.558,107.88 50.522,108.96 L 50.522,108.96 C 50.233,108.996 49.946,109.031 49.622,109.104 L 49.622,109.104 z "
   style="fill:silver;fill-rule:evenodd;stroke:black;stroke-width:0.036;stroke-miterlimit:10"
   id="path27" />
	<path
   d="M 53.33,98.412 C 54.338,96.756 55.706,95.532 57.434,94.308 C 59.198,92.976 61.286,92.04 63.41,91.356 C 65.354,90.708 67.226,90.456 69.17,90.6 L 69.17,90.6 C 66.722,90.888 64.598,91.5 62.654,92.148 C 60.602,92.76 59.126,93.66 57.542,94.704 C 55.958,95.748 54.554,96.936 53.33,98.412 L 53.33,98.412 z "
   style="fill-rule:evenodd;stroke:black;stroke-width:0.036;stroke-miterlimit:10"
   id="path29" />
	<path
   d="M 105.709,139.847 C 105.925,138.947 106.357,138.227 106.861,137.687 C 107.293,137.075 108.157,136.463 108.913,136.535 C 109.597,136.571 110.821,137.039 111.181,137.795 C 111.325,138.407 111.253,139.631 110.569,140.351 C 109.849,140.927 108.913,141.359 107.365,141.503 L 107.365,141.503 C 106.826,140.963 106.286,140.423 105.709,139.847 L 105.709,139.847 z "
   style="fill:silver;fill-rule:evenodd;stroke:black;stroke-width:0.036;stroke-miterlimit:10"
   id="path31" />
	<path
   d="M 114.782,153.815 C 116.402,154.895 117.626,155.903 118.85,157.127 C 119.93,158.243 120.83,159.755 121.55,160.835 C 122.162,161.879 122.486,162.491 122.81,163.499 C 123.062,164.471 123.242,165.587 123.35,166.847 L 123.35,166.847 C 120.506,162.527 117.662,158.171 114.782,153.815 L 114.782,153.815 z "
   style="fill:#404040;fill-rule:evenodd;stroke:black;stroke-width:0.036;stroke-miterlimit:10"
   id="path33" />
	<path
   d="M 125.762,171.312 C 127.346,171.168 128.714,171.384 129.722,171.96 C 130.73,172.572 131.306,173.508 131.882,174.48 C 132.278,175.272 132.53,175.992 132.782,176.928 C 133.07,177.828 133.466,178.764 133.682,179.736 C 133.79,180.492 133.79,181.176 133.538,181.788 L 133.538,181.788 C 130.946,178.295 128.354,174.803 125.762,171.312 L 125.762,171.312 z "
   style="fill:silver;fill-rule:evenodd"
   id="path35" />
	<path
   d="M 126.662,172.967 C 127.742,172.967 128.678,173.003 129.326,173.363 C 129.938,173.543 130.226,173.831 130.622,174.767 C 130.91,175.667 131.126,177.071 131.27,178.979 L 131.27,178.979 C 129.758,177 128.209,174.983 126.662,172.967 L 126.662,172.967 z "
   style="fill:#212121;fill-rule:evenodd"
   id="path37" />
	<path
   d="M 109.669,165.443 C 109.597,166.235 111.685,171.275 112.729,173.759 C 113.629,176.207 114.349,178.439 115.285,180.023 C 116.221,181.463 117.589,182.867 117.985,182.435 C 118.165,181.823 117.769,179.159 116.941,176.819 C 116.005,174.479 114.493,170.195 113.233,168.395 C 111.901,166.416 109.742,164.507 109.669,165.443 L 109.669,165.443 z "
   style="fill:white;fill-rule:evenodd"
   id="path39" />
	<path
   d="M 106.97,160.332 C 108.518,160.944 112.478,162.456 114.278,164.184 C 115.97,165.732 116.942,168.756 117.59,170.196 C 118.202,171.636 118.598,173.184 118.238,172.752 C 117.626,172.176 116.186,168.504 114.89,166.992 C 113.558,165.372 112.334,164.328 110.678,163.284 C 108.878,162.168 105.494,160.908 104.81,160.476 C 104.198,159.863 105.242,159.719 106.97,160.332 L 106.97,160.332 z "
   style="fill:white;fill-rule:evenodd"
   id="path41" />
	<path
   d="M 99.842,164.832 C 99.446,164.976 99.59,165.444 99.842,166.092 C 100.022,166.704 100.67,168.432 101.102,168.648 C 101.426,168.72 101.678,167.424 101.858,166.848 C 101.93,166.236 102.11,165.372 101.858,165.084 C 101.498,164.724 100.129,164.688 99.842,164.832 L 99.842,164.832 z "
   style="fill:white;fill-rule:evenodd"
   id="path43" />
	<path
   d="M 92.282,175.164 C 93.11,175.596 95.522,177.072 96.746,178.476 C 97.898,179.736 99.122,181.968 99.302,182.832 C 99.302,183.552 98.114,183.876 97.286,183.228 C 96.386,182.472 95.45,180.096 94.478,178.872 C 93.434,177.576 91.706,176.424 91.382,175.812 C 90.95,175.199 91.382,174.66 92.282,175.164 L 92.282,175.164 z "
   style="fill:white;fill-rule:evenodd"
   id="path45" />
	<path
   d="M 110.03,188.087 C 110.534,188.447 111.326,189.815 111.578,190.643 C 111.758,191.399 111.218,192.767 111.074,192.659 C 110.822,192.443 110.57,189.995 110.174,189.347 C 109.814,188.663 108.518,188.231 108.626,188.195 C 108.625,187.979 109.417,187.62 110.03,188.087 L 110.03,188.087 z "
   style="fill:white;fill-rule:evenodd"
   id="path47" />
	<path
   d="M 102.506,192.155 C 102.938,193.055 104.126,195.071 104.954,196.259 C 105.746,197.303 107.15,198.887 107.222,198.671 C 107.114,198.383 105.926,196.223 105.062,194.963 C 104.09,193.595 102.686,191.039 102.254,190.643 C 101.894,190.139 101.93,191.147 102.506,192.155 L 102.506,192.155 z "
   style="fill:white;fill-rule:evenodd"
   id="path49" />
	<path
   d="M 82.31,157.523 C 81.986,157.307 81.734,156.263 81.554,155.507 C 81.374,154.679 81.374,153.311 81.554,152.807 C 81.734,152.195 82.31,151.799 82.454,152.051 C 82.454,152.195 81.95,153.203 82.058,153.959 C 82.13,154.643 82.526,155.723 82.706,156.371 C 82.669,156.947 82.49,157.56 82.31,157.523 L 82.31,157.523 z "
   style="fill:white;fill-rule:evenodd"
   id="path51" />
	<path
   d="M 89.078,158.819 C 89.69,158.027 91.058,157.163 91.922,156.515 C 92.642,155.795 93.83,155.003 93.938,155.111 C 93.974,155.219 93.506,155.867 92.534,156.911 C 91.382,157.811 88.61,160.295 87.962,160.619 C 87.458,160.799 88.25,159.503 89.078,158.819 L 89.078,158.819 z "
   style="fill:white;fill-rule:evenodd"
   id="path53" />
	<path
   d="M 98.438,177.971 C 98.114,178.079 99.194,179.663 99.446,180.779 C 99.59,181.787 99.266,183.767 99.59,184.235 C 99.842,184.523 101.03,183.767 101.354,183.083 C 101.57,182.327 101.678,180.851 101.246,180.023 C 100.706,179.051 98.654,177.863 98.438,177.971 L 98.438,177.971 z "
   style="fill:#212121;fill-rule:evenodd"
   id="path55" />
	<path
   d="M 88.826,148.992 C 89.222,149.136 89.438,148.992 89.87,148.704 C 90.122,148.344 90.59,147.84 90.878,147.048 L 90.878,147.048 C 90.662,147.444 90.842,148.128 91.274,149.1 C 91.742,150.036 93.29,152.52 93.434,152.808 C 93.326,152.916 91.814,150.864 91.274,150.252 C 90.698,149.712 90.626,149.46 90.23,149.352 C 89.798,149.1 89.33,149.027 88.826,148.992 L 88.826,148.992 z "
   style="fill:#212121;fill-rule:evenodd"
   id="path57" />
	<path
   d="M 95.485,155.615 C 95.809,156.011 98.977,160.439 99.301,161.123 C 99.481,161.627 97.645,159.791 96.997,158.927 C 96.35,157.956 95.054,155.184 95.485,155.615 L 95.485,155.615 z "
   style="fill:#212121;fill-rule:evenodd"
   id="path59" />
	<path
   d="M 103.01,165.839 C 102.722,165.947 102.65,167.063 102.65,167.639 C 102.65,168.035 102.722,168.611 103.01,168.539 C 103.226,168.359 103.946,167.567 104.054,167.135 C 103.946,166.631 103.226,165.695 103.01,165.839 L 103.01,165.839 z "
   style="fill:#212121;fill-rule:evenodd"
   id="path61" />
	<path
   d="M 82.598,162.023 C 82.634,161.519 82.85,161.231 83.102,160.871 C 83.354,160.475 83.966,159.611 84.11,160.079 C 84.038,160.475 83.642,162.563 83.354,163.283 C 82.994,163.715 82.418,163.751 82.31,163.535 C 82.238,163.175 82.382,162.492 82.598,162.023 L 82.598,162.023 z "
   style="fill:#212121;fill-rule:evenodd"
   id="path63" />
	<path
   d="M 91.778,178.224 C 91.778,178.332 92.678,178.728 92.93,179.268 C 93.11,179.736 92.822,181.284 93.038,181.428 C 93.182,181.5 93.542,180.384 93.686,179.88 C 93.506,179.16 93.254,178.476 92.93,178.116 C 92.534,177.863 91.778,177.899 91.778,178.224 L 91.778,178.224 z "
   style="fill:#212121;fill-rule:evenodd"
   id="path65" />
	<path
   d="M 93.83,181.571 C 93.83,181.715 94.73,182.003 94.982,182.579 C 95.162,183.119 94.874,184.487 95.09,184.739 C 95.234,184.739 95.594,183.767 95.738,183.227 C 95.558,182.543 95.306,181.751 94.982,181.427 C 94.585,181.139 93.83,181.284 93.83,181.571 L 93.83,181.571 z "
   style="fill:#212121;fill-rule:evenodd"
   id="path67" />
	<path
   d="M 105.565,204.071 L 111.433,211.739 L 111.433,211.739 C 110.929,209.615 110.857,207.995 111.073,206.879 C 111.253,205.727 111.793,205.043 112.837,204.827 C 113.845,204.395 115.717,203.855 116.941,204.719 C 118.057,205.511 119.101,208.355 119.245,209.939 C 119.173,211.523 117.949,213.575 116.941,214.151 C 115.825,214.619 114.601,213.935 112.981,212.495 L 112.981,212.495 L 113.089,214.151 L 113.089,214.151 C 113.953,214.727 114.421,215.375 114.781,215.951 C 115.069,216.527 115.105,217.031 114.889,217.607 L 114.889,217.607 L 119.101,223.115 L 119.101,223.115 C 118.381,221.099 117.949,219.623 117.949,218.255 C 117.841,216.779 118.093,215.807 118.993,215.195 C 119.857,214.511 122.125,214.475 123.457,214.943 C 124.789,215.411 126.121,216.599 126.913,218.363 C 127.525,220.127 127.741,223.619 127.561,225.383 C 127.201,226.967 126.409,227.687 125.617,228.227 C 124.861,228.695 123.925,228.695 122.953,228.227 L 122.953,228.227 C 127.489,235.031 131.197,240.611 134.077,244.823 C 136.921,249.035 138.829,251.879 139.945,253.499 L 139.945,253.499 L 138.649,254.651 L 138.649,254.651 C 138.757,255.695 138.793,256.847 139.045,257.963 C 139.261,259.151 139.513,260.303 139.801,261.419 C 139.873,262.319 140.053,263.039 139.945,263.723 C 139.801,264.371 139.405,264.839 138.901,265.271 L 138.901,265.271 C 139.549,266.171 139.801,267.071 139.801,267.575 C 139.765,268.115 139.189,268.547 138.649,268.583 C 138.037,268.475 136.489,268.007 136.093,267.323 C 135.589,266.603 135.517,265.055 135.733,264.623 C 135.913,264.119 136.237,263.903 136.993,264.119 L 136.993,264.119 C 137.533,263.363 137.785,262.391 137.893,261.059 C 137.857,259.619 137.821,257.855 137.245,256.307 C 136.669,254.651 135.085,253.175 134.437,251.735 C 133.645,250.223 133.141,249.035 132.781,247.775 C 132.385,246.515 132.169,245.399 132.133,244.427 L 132.133,244.427 L 129.325,240.863 L 129.325,240.863 C 128.965,241.691 128.893,242.663 128.965,244.067 C 129.001,245.399 129.289,247.379 129.829,248.891 C 130.261,250.295 130.873,251.663 131.521,252.851 C 132.025,253.895 132.493,254.615 132.925,255.551 C 133.213,256.379 133.465,257.279 133.537,258.107 C 133.573,258.863 133.537,259.547 133.429,260.159 L 133.429,260.159 C 133.933,260.555 134.185,260.879 134.329,261.419 C 134.437,261.851 134.401,262.823 134.077,262.967 C 133.573,262.859 132.205,262.463 131.629,261.923 C 130.981,261.527 130.189,260.699 130.225,260.267 C 130.189,259.763 130.621,259.079 131.521,258.611 L 131.521,258.611 C 132.025,258.071 132.277,257.387 132.133,256.559 C 131.953,255.659 131.161,254.471 130.729,253.391 C 130.153,252.167 129.505,251.195 129.073,249.791 C 128.533,248.315 128.065,247.019 127.813,244.931 C 127.489,242.807 127.309,240.215 127.273,237.155 L 127.273,237.155 L 121.909,229.235 L 121.909,229.235 C 121.153,229.343 120.613,229.163 120.145,228.839 C 119.677,228.443 119.425,227.615 119.245,226.931 C 119.029,226.139 119.029,225.203 119.101,224.123 L 119.101,224.123 L 113.881,217.859 L 113.881,217.859 C 113.269,218.075 112.801,218.039 112.477,217.751 C 112.117,217.391 111.685,216.779 111.577,216.059 C 111.433,215.339 111.217,214.439 111.325,213.503 L 111.325,213.503 L 104.809,204.971 L 104.809,204.971 C 105.062,204.684 105.313,204.396 105.565,204.071 L 105.565,204.071 z M 119.75,216.852 C 119.318,217.644 119.282,218.832 119.642,220.416 C 119.93,221.82 120.65,224.232 121.658,225.132 C 122.558,225.888 124.682,225.852 125.258,225.024 C 125.654,224.016 125.294,221.064 124.718,219.66 C 124.034,218.112 122.594,216.78 121.802,216.348 C 120.83,215.808 120.146,216.167 119.75,216.852 L 119.75,216.852 z "
   style="fill:silver;fill-rule:evenodd;stroke:black;stroke-width:0.036;stroke-miterlimit:10"
   id="path69" />
	<path
   d="M 114.386,205.728 C 113.918,205.404 113.126,205.62 112.838,205.98 C 112.406,206.304 112.154,207.348 112.226,208.14 C 112.298,208.932 112.694,210.804 112.982,210.696 C 112.982,210.48 112.694,207.492 113.09,206.988 C 113.522,206.304 115.178,207.276 115.538,207.132 C 115.609,206.843 114.854,205.907 114.386,205.728 L 114.386,205.728 z "
   style="fill:white;fill-rule:evenodd"
   id="path71" />
	<path
   d="M 126.77,221.063 C 126.986,222.071 127.166,223.727 127.166,224.771 C 127.13,225.671 126.698,226.391 126.266,226.931 C 125.618,227.327 124.25,227.723 124.106,227.687 C 123.998,227.543 125.15,227.111 125.618,226.535 C 126.086,225.887 126.302,225.131 126.41,223.871 C 126.266,222.431 125.51,218.975 125.51,218.507 C 125.582,218.04 126.374,219.912 126.77,221.063 L 126.77,221.063 z "
   style="fill:white;fill-rule:evenodd"
   id="path73" />
	<path
   d="M 113.882,211.739 C 113.81,211.595 114.746,212.639 115.142,212.495 C 115.466,212.063 116.042,210.335 116.294,210.083 C 116.582,209.867 116.762,210.839 116.69,211.487 C 116.474,212.027 115.538,213.395 115.142,213.503 C 114.53,213.432 113.917,211.919 113.882,211.739 L 113.882,211.739 z "
   style="fill:#404040;fill-rule:evenodd"
   id="path75" />
	<path
   d="M 127.562,229.343 C 127.274,230.819 127.274,232.007 127.562,233.051 C 127.85,234.131 128.714,234.995 129.326,235.355 C 129.758,235.499 130.082,234.059 130.73,234.347 C 131.378,234.635 132.89,237.011 133.178,236.903 C 133.214,236.687 132.422,233.699 131.774,233.195 C 130.982,232.583 129.794,233.879 129.47,233.339 C 129.218,232.619 129.29,231.467 130.226,229.739 C 131.054,227.975 133.286,225.347 134.438,223.367 C 135.374,221.351 135.734,219.335 136.346,218.003 C 136.778,216.671 137.246,215.735 137.894,215.195 C 138.542,214.367 139.406,214.079 140.198,214.043 C 140.846,214.043 141.494,214.511 141.998,215.447 L 141.998,215.447 C 141.35,216.491 141.35,217.247 141.602,218.111 C 141.818,218.939 142.862,219.947 143.762,220.163 C 144.662,220.127 146.426,219.299 146.966,218.507 C 147.325,217.535 146.785,215.915 146.318,215.195 C 145.778,214.475 145.022,214.259 143.906,214.403 L 143.906,214.403 L 142.862,212.387 L 146.461,210.335 L 146.461,210.335 C 147.253,211.559 147.974,212.495 148.766,213.143 C 149.45,213.791 150.169,214.079 150.926,214.151 L 150.926,214.151 L 153.337,212.243 L 153.337,212.243 C 153.913,210.083 153.913,208.427 153.482,207.131 C 152.978,205.799 151.394,205.007 150.53,204.467 C 149.558,203.819 148.658,203.099 147.974,203.567 C 147.218,203.999 146.678,205.007 146.209,206.879 L 146.209,206.879 L 141.35,209.039 L 136.886,203.819 L 136.886,203.819 C 136.886,202.775 136.67,202.055 136.094,201.515 C 135.446,200.867 134.222,200.615 133.538,200.759 C 132.818,200.939 132.35,201.803 132.134,202.667 C 131.846,203.423 131.666,204.827 132.026,205.475 C 132.314,206.051 132.854,206.123 133.79,205.979 L 133.79,205.979 C 134.618,206.627 135.086,207.995 135.194,209.939 C 135.194,211.991 134.906,215.339 134.33,217.607 C 133.682,219.551 132.458,220.811 131.63,222.215 C 130.766,223.583 129.83,224.807 129.218,226.031 C 128.498,227.184 127.994,228.335 127.562,229.343 L 127.562,229.343 z "
   style="fill:silver;fill-rule:evenodd;stroke:black;stroke-width:0.036;stroke-miterlimit:10"
   id="path77" />
	<path
   d="M 134.941,202.523 C 134.617,202.271 132.565,202.667 132.529,203.171 C 132.457,203.495 133.933,204.791 134.437,204.719 C 134.798,204.575 135.193,202.739 134.941,202.523 L 134.941,202.523 z "
   style="fill:white;fill-rule:evenodd"
   id="path79" />
	<path
   d="M 143.762,215.952 C 143.33,215.88 143.078,217.356 143.15,217.86 C 143.186,218.292 143.474,218.868 144.014,218.904 C 144.374,218.832 145.706,218.22 145.67,217.752 C 145.454,217.175 144.266,215.879 143.762,215.952 L 143.762,215.952 z "
   style="fill:white;fill-rule:evenodd"
   id="path81" />
	<path
   d="M 148.478,210.083 C 148.874,210.839 149.342,211.343 150.026,211.739 C 150.674,212.063 151.538,212.279 152.474,212.243 L 152.474,212.243 C 152.798,211.559 153.014,210.839 152.978,210.083 C 152.906,209.255 152.69,208.391 152.33,207.635 C 151.971,206.879 151.322,206.195 150.675,205.583 L 150.675,205.583 C 151.322,206.555 151.79,207.491 152.078,208.535 C 152.294,209.543 152.33,210.515 152.186,211.595 L 152.186,211.595 C 151.394,211.415 150.818,211.199 150.169,210.947 C 149.485,210.695 149.018,210.407 148.478,210.083 L 148.478,210.083 z "
   style="fill:white;fill-rule:evenodd"
   id="path83" />
	<path
   d="M 142.25,210.947 C 144.302,209.939 145.958,209.183 147.362,208.679 C 148.694,208.139 149.666,207.743 150.278,207.635 L 150.278,207.635 C 150.854,208.499 151.07,208.967 151.07,209.435 C 150.962,209.867 150.422,209.903 150.026,209.939 C 149.594,209.795 149.126,209.507 148.622,208.931 L 148.622,208.931 C 147.326,209.399 146.175,209.867 145.166,210.191 C 144.05,210.516 143.078,210.768 142.25,210.947 L 142.25,210.947 z "
   style="fill:#404040;fill-rule:evenodd"
   id="path85" />
	<path
   d="M 196.394,274.452 C 196.286,275.136 196.682,276.252 197.438,277.404 C 198.158,278.556 199.346,279.96 201.002,281.616 L 201.002,281.616 C 202.153,281.147 203.342,280.501 204.565,279.816 C 205.79,278.952 207.265,278.196 208.166,277.152 C 208.886,276.072 208.958,274.776 208.922,273.804 C 208.814,272.688 207.878,271.752 207.374,271.14 C 206.726,270.492 206.186,270.096 205.214,270.24 C 204.098,270.348 202.73,270.996 201.254,271.788 C 199.777,272.436 198.157,273.372 196.394,274.452 L 196.394,274.452 z "
   style="fill:#404040;fill-rule:evenodd;stroke:black;stroke-width:0.036;stroke-miterlimit:10"
   id="path87" />
	<path
   d="M 135.085,240.971 C 135.085,240.467 135.121,239.999 135.481,239.567 C 135.769,239.063 136.705,238.595 136.885,238.307 C 136.921,237.947 136.381,237.587 136.093,237.659 C 135.697,237.659 135.229,237.911 134.689,238.415 L 134.689,238.415 C 133.933,238.127 133.393,238.091 132.925,238.307 C 132.349,238.415 131.773,238.847 131.881,239.459 C 131.953,240.071 132.565,241.007 133.429,242.123 C 134.221,243.239 135.193,244.463 136.489,246.335 C 137.641,248.135 139.225,250.223 140.845,252.743 L 140.845,252.743 C 142.321,250.115 144.193,247.775 146.317,245.723 C 148.513,243.527 151.213,241.871 153.589,240.359 C 155.857,238.847 158.269,238.343 159.853,236.903 C 161.292,235.247 162.336,232.727 162.301,231.143 C 162.193,229.595 160.717,227.939 159.24,227.831 C 157.549,227.723 154.524,228.767 153.084,230.135 C 151.717,231.323 151.465,233.483 150.78,235.103 C 149.916,236.579 149.16,237.839 148.116,239.459 C 146.892,241.007 145.345,243.203 143.905,244.679 C 142.429,246.083 141.025,247.379 139.549,248.279 L 139.549,248.279 C 138.074,245.868 136.598,243.419 135.085,240.971 L 135.085,240.971 z "
   style="fill:silver;fill-rule:evenodd;stroke:black;stroke-width:0.036;stroke-miterlimit:10"
   id="path89" />
	<path
   d="M 152.581,235.355 C 151.718,235.931 150.205,237.803 148.873,239.459 C 147.434,240.971 144.59,244.427 144.662,244.571 C 144.77,244.607 148.045,241.043 149.629,239.711 C 151.142,238.271 153.014,236.939 153.59,236.255 C 153.985,235.5 153.373,234.779 152.581,235.355 L 152.581,235.355 z "
   style="fill:white;fill-rule:evenodd"
   id="path91" />
	<path
   d="M 151.682,238.416 C 152.581,237.696 154.238,236.436 155.282,236.148 C 156.219,235.824 157.406,236.04 157.19,236.508 C 156.83,236.904 154.706,237.912 153.59,238.56 C 152.365,239.1 150.566,240.072 150.277,240.108 C 149.846,240 150.817,239.063 151.682,238.416 L 151.682,238.416 z "
   style="fill:#404040;fill-rule:evenodd"
   id="path93" />
	<path
   d="M 157.55,232.691 C 157.766,233.375 158.018,235.067 158.449,235.247 C 158.845,235.283 159.961,234.131 159.997,233.447 C 159.926,232.691 158.594,231.431 158.09,231.035 C 157.514,230.639 156.398,230.495 156.398,230.891 C 156.325,231.215 157.081,231.863 157.55,232.691 L 157.55,232.691 z "
   style="fill:#404040;fill-rule:evenodd"
   id="path95" />
	<path
   d="M 133.79,238.956 C 133.502,238.848 133.286,239.064 133.286,239.46 C 133.286,239.712 133.502,240.864 133.79,240.972 C 133.97,240.936 134.366,240.18 134.438,239.82 C 134.366,239.352 133.97,239.063 133.79,238.956 L 133.79,238.956 z "
   style="fill:white;fill-rule:evenodd"
   id="path97" />
	<path
   d="M 113.198,187.08 C 115.034,187.692 116.222,188.556 116.618,189.816 C 117.014,191.076 116.726,192.48 115.754,194.424 L 115.754,194.424 C 115.934,192.876 115.826,191.508 115.43,190.32 C 114.926,189.06 114.313,187.979 113.198,187.08 L 113.198,187.08 z "
   style="fill:#404040;fill-rule:evenodd;stroke:black;stroke-width:0.036;stroke-miterlimit:10"
   id="path99" />
	<path
   d="M 117.122,203.675 C 117.446,202.595 118.022,202.019 118.85,201.947 C 119.642,201.839 120.614,202.235 121.91,203.135 L 121.91,203.135 C 120.434,203.063 119.462,203.243 118.85,203.675 C 118.202,203.999 118.022,204.611 118.31,205.367 L 118.31,205.367 C 117.914,204.828 117.518,204.251 117.122,203.675 L 117.122,203.675 z "
   style="fill:#404040;fill-rule:evenodd;stroke:black;stroke-width:0.036;stroke-miterlimit:10"
   id="path101" />
	<path
   d="M 119.857,206.051 C 121.009,206.447 121.585,206.951 121.585,207.419 C 121.585,207.923 120.901,208.391 119.677,208.967 L 119.677,208.967 C 119.713,207.996 119.786,207.023 119.857,206.051 L 119.857,206.051 z "
   style="fill:#404040;fill-rule:evenodd;stroke:black;stroke-width:0.036;stroke-miterlimit:10"
   id="path103" />
	<path
   d="M 120.038,212.892 C 121.19,212.964 122.09,212.892 122.594,212.532 C 123.062,212.1 123.278,211.524 123.098,210.66 L 123.098,210.66 C 122.774,210.804 122.378,211.092 121.91,211.524 C 121.441,211.848 120.686,212.352 120.038,212.892 L 120.038,212.892 z "
   style="fill:#404040;fill-rule:evenodd;stroke:black;stroke-width:0.036;stroke-miterlimit:10"
   id="path105" />
	<path
   d="M 124.97,213.575 C 125.15,212.819 125.51,212.603 126.194,212.531 C 126.878,212.423 128.066,212.711 128.93,213.395 C 129.758,214.043 130.442,215.123 130.982,216.491 C 131.342,217.787 131.45,219.479 131.306,221.423 L 131.306,221.423 L 129.938,222.971 L 129.938,222.971 C 130.334,220.415 130.01,218.363 129.254,216.815 C 128.354,215.231 127.021,214.151 124.97,213.575 L 124.97,213.575 z "
   style="fill:#404040;fill-rule:evenodd;stroke:black;stroke-width:0.036;stroke-miterlimit:10"
   id="path107" />
	<path
   d="M 138.83,233.735 C 138.29,236.291 138.506,237.911 139.334,238.883 C 140.09,239.711 142.826,240.143 143.798,239.207 C 144.698,238.199 145.598,234.203 144.986,233.051 C 144.338,231.827 142.574,231.431 139.838,231.863 L 139.838,231.863 C 141.71,231.863 142.97,232.259 143.618,233.051 C 144.23,233.843 143.654,235.643 143.438,236.651 C 143.006,237.587 142.394,238.307 141.746,238.523 C 141.098,238.631 140.09,238.235 139.694,237.479 C 139.154,236.688 138.866,235.392 138.83,233.735 L 138.83,233.735 z "
   style="fill:#404040;fill-rule:evenodd;stroke:black;stroke-width:0.036;stroke-miterlimit:10"
   id="path109" />
	<path
   d="M 175.802,267.828 C 176.018,268.296 172.886,264.696 170.869,263.256 C 168.674,261.852 166.01,261.168 163.705,259.404 C 161.329,257.532 158.558,254.184 157.477,252.276 C 156.361,250.152 156.433,246.732 157.297,247.308 C 158.053,247.884 160.213,253.608 162.265,255.732 C 164.173,257.712 166.945,257.568 169.213,259.584 C 171.445,261.563 175.405,267.179 175.802,267.828 L 175.802,267.828 z "
   style="fill:white;fill-rule:evenodd"
   id="path111" />
	<path
   d="M 173.785,272.436 C 174.073,273.012 180.481,282.012 184.405,287.627 C 188.185,293.135 194.557,303.324 196.321,305.555 C 197.834,307.608 196.754,304.008 194.485,300.444 C 192.181,296.7 186.385,288.852 182.929,284.135 C 179.365,279.312 173.533,271.896 173.785,272.436 L 173.785,272.436 z "
   style="fill:white;fill-rule:evenodd"
   id="path113" />
	<path
   d="M 174.325,257.567 C 174.289,256.703 173.749,253.499 172.705,251.159 C 171.445,248.819 168.493,244.319 167.737,244.031 C 166.981,243.707 167.197,247.163 168.097,249.143 C 168.96,250.979 171.517,253.931 172.704,255.371 C 173.714,256.739 174.253,258.215 174.325,257.567 L 174.325,257.567 z "
   style="fill:white;fill-rule:evenodd"
   id="path115" />
	<path
   d="M 166.657,238.883 C 166.909,237.731 168.349,234.743 169.573,233.411 C 170.617,232.007 172.849,230.279 173.065,230.855 C 173.209,231.431 171.445,235.283 170.689,236.867 C 169.861,238.379 168.673,239.171 168.097,239.638 C 167.342,239.963 166.405,239.855 166.657,238.883 L 166.657,238.883 z "
   style="fill:white;fill-rule:evenodd"
   id="path117" />
	<path
   d="M 170.113,238.343 C 170.545,236.939 173.245,232.403 173.785,232.115 C 174.218,231.899 173.317,235.427 172.886,236.867 C 172.346,238.091 171.302,239.531 170.869,239.819 C 170.329,240.071 169.573,239.531 170.113,238.343 L 170.113,238.343 z "
   style="fill:#404040;fill-rule:evenodd"
   id="path119" />
	<path
   d="M 166.081,241.655 C 166.441,241.295 166.945,241.223 167.737,241.295 C 168.421,241.223 170.113,241.187 170.869,241.475 C 171.59,241.727 172.094,242.807 171.949,242.915 C 171.517,242.915 170.329,241.871 169.214,242.015 C 168.134,242.123 166.226,242.771 165.722,243.671 C 165.11,244.535 164.894,245.039 165.902,247.127 C 166.838,249.179 170.942,254.831 171.41,255.731 C 171.698,256.451 168.962,253.427 167.918,251.915 C 166.803,250.331 165.254,247.955 164.822,246.587 C 164.318,245.147 164.462,244.247 164.822,243.491 C 165.001,242.591 165.47,241.979 166.081,241.655 L 166.081,241.655 z "
   style="fill:#404040;fill-rule:evenodd"
   id="path121" />
	<path
   d="M 162.985,247.523 C 163.417,248.315 165.577,251.519 168.097,255.191 C 170.509,258.719 176.881,267.719 177.637,268.583 C 178.321,269.339 174.469,262.895 172.489,259.943 C 170.365,256.811 167.125,252.491 165.541,250.439 C 163.921,248.315 162.518,246.695 162.985,247.523 L 162.985,247.523 z "
   style="fill:#404040;fill-rule:evenodd"
   id="path123" />
	<path
   d="M 154.382,248.604 C 154.382,249.612 154.526,251.088 155.102,252.456 C 155.678,253.824 157.226,255.984 157.658,256.308 C 157.946,256.452 157.442,254.688 157.118,253.356 C 156.65,251.844 155.822,249.252 155.462,248.064 C 154.922,246.912 154.958,246.228 154.742,246.408 C 154.489,246.407 154.273,247.595 154.382,248.604 L 154.382,248.604 z "
   style="fill:#404040;fill-rule:evenodd"
   id="path125" />
	<path
   d="M 151.069,251.339 C 150.097,252.275 149.485,253.067 149.233,253.715 C 148.873,254.291 148.549,255.155 149.233,255.191 C 149.845,255.119 150.961,254.615 152.725,253.535 L 152.725,253.535 C 152.653,252.959 152.401,252.419 152.365,251.915 C 152.293,251.411 152.041,250.871 152.005,250.439 L 152.005,250.439 C 151.718,250.728 151.394,251.016 151.069,251.339 L 151.069,251.339 z "
   style="fill:#404040;fill-rule:evenodd"
   id="path127" />
	<path
   d="M 205.466,282.299 C 205.25,282.047 204.962,282.047 204.746,282.299 C 204.422,282.444 204.098,283.344 204.206,283.596 C 204.206,283.776 205.069,283.776 205.285,283.596 C 205.43,283.344 205.537,282.443 205.466,282.299 L 205.466,282.299 z "
   style="fill:white;fill-rule:evenodd"
   id="path129" />
	<path
   d="M 208.777,288.168 C 208.309,288.096 207.409,288.779 207.481,289.104 C 207.481,289.249 209.065,289.752 209.317,289.643 C 209.498,289.5 208.993,288.168 208.777,288.168 L 208.777,288.168 z "
   style="fill:white;fill-rule:evenodd"
   id="path131" />
	<path
   d="M 197.617,288.168 C 198.05,287.699 201.613,285.432 202.189,285.252 C 202.513,285.035 200.713,286.727 199.993,287.268 C 199.166,287.699 197.258,288.455 197.617,288.168 L 197.617,288.168 z "
   style="fill:white;fill-rule:evenodd"
   id="path133" />
	<path
   d="M 202.909,294.215 C 203.233,294.035 206.149,291.768 206.401,291.299 C 206.582,290.795 204.746,290.904 204.206,291.479 C 203.485,291.875 202.55,294.215 202.909,294.215 L 202.909,294.215 z "
   style="fill:white;fill-rule:evenodd"
   id="path135" />
	<path
   d="M 198.697,308.146 C 199.706,309.695 201.181,312.107 203.269,315.095 C 205.321,318.191 207.841,321.718 210.973,326.255 L 210.973,326.255 L 212.089,325.534 L 212.089,325.534 C 210.721,323.843 208.992,321.718 206.761,318.766 C 204.529,315.814 201.794,312.324 198.697,308.146 L 198.697,308.146 z "
   style="fill:white;fill-rule:evenodd"
   id="path137" />
	<path
   d="M 191.749,330.898 C 192.397,331.726 192.901,332.519 193.405,333.275 C 193.909,334.031 194.557,334.752 194.665,335.291 C 194.665,335.723 194.306,336.371 193.585,335.832 C 192.793,335.111 191.785,333.744 190.273,331.439 L 190.273,331.439 C 189.553,331.691 188.869,331.763 188.617,331.798 C 188.258,331.691 188.185,331.691 188.258,331.259 C 188.258,330.827 188.329,330.107 188.617,329.243 L 188.617,329.243 L 179.113,314.95 L 179.113,314.95 C 177.925,315.167 176.989,314.987 176.701,314.411 C 176.305,313.763 176.377,312.718 176.917,311.278 L 176.917,311.278 L 164.642,293.171 L 164.642,293.171 C 163.274,292.954 162.41,292.63 162.05,292.054 C 161.617,291.478 161.69,290.794 162.266,289.859 L 162.266,289.859 L 155.642,280.714 L 155.642,280.714 C 152.833,280.786 150.89,280.57 149.413,280.355 C 147.901,280.067 147.434,279.635 147.037,279.059 C 146.533,278.411 146.533,277.439 147.037,276.683 C 147.505,275.855 148.55,274.883 150.169,273.911 L 150.169,273.911 L 146.317,275.567 L 146.317,275.567 C 145.057,275.027 144.121,274.307 143.365,273.551 C 142.573,272.651 141.385,271.031 141.745,270.635 C 141.961,270.095 144.445,270.959 145.021,270.995 C 145.525,271.031 145.525,271.031 145.021,270.995 L 145.021,270.995 C 145.201,269.627 145.021,268.151 144.481,266.423 C 143.869,264.659 142.357,261.923 141.745,260.735 C 140.953,259.475 140.593,259.079 140.269,259.259 L 140.269,259.259 L 139.549,255.227 L 139.549,255.227 C 139.981,255.047 141.025,256.199 142.825,259.079 C 144.589,261.815 148.981,270.311 150.168,271.931 C 151.141,273.335 150.492,271.283 149.053,268.259 C 147.576,265.127 145.129,260.483 141.565,253.787 L 141.565,253.787 L 142.645,251.591 L 142.645,251.591 C 145.273,256.559 147.397,260.843 149.413,264.587 C 151.357,268.331 152.905,271.247 154.201,273.731 L 154.201,273.731 C 155.533,273.191 156.253,272.399 156.758,271.355 C 157.045,270.311 156.722,268.511 156.758,267.503 C 156.758,266.315 156.362,265.451 156.938,264.767 C 157.406,264.083 158.774,263.327 160.07,263.471 C 161.402,263.471 163.238,263.975 164.462,265.127 C 165.542,266.243 166.334,268.763 166.263,270.455 C 165.903,272.183 164.498,274.127 163.166,275.027 C 161.727,275.711 159.53,274.451 158.234,274.847 C 156.866,275.171 155.93,275.963 155.282,277.223 L 155.282,277.223 L 163.166,288.023 L 163.166,288.023 C 162.374,285.718 162.122,283.847 162.267,281.974 C 162.374,280.031 163.023,278.339 164.067,277.043 C 165.003,275.675 166.479,274.343 168.099,274.307 C 169.575,274.235 172.13,275.279 173.427,276.863 C 174.615,278.447 175.479,281.435 175.622,283.451 C 175.658,285.394 175.154,287.123 173.967,288.203 C 172.67,289.068 170.078,288.672 168.675,288.959 C 167.235,289.104 166.011,289.139 165.542,289.5 C 164.931,289.859 164.967,290.256 165.362,290.975 L 165.362,290.975 C 167.018,293.604 168.854,296.231 170.87,299.399 C 172.887,302.46 175.082,305.7 177.458,309.264 L 177.458,309.264 L 177.998,304.332 L 177.998,304.332 C 177.242,302.963 176.99,301.668 177.099,300.299 C 177.135,298.824 177.675,296.916 178.719,296.088 C 179.727,295.152 181.527,294.467 183.147,295.008 C 184.695,295.332 186.495,297.096 187.719,298.643 C 188.727,300.192 189.519,302.459 189.555,304.332 C 189.41,306.059 188.511,307.967 187.538,309.084 C 186.458,310.164 185.126,310.379 183.686,310.559 C 182.246,310.596 180.77,310.237 179.114,309.479 L 179.114,309.479 L 178.718,311.1 L 182.57,317.905 L 182.57,317.905 C 183.362,316.501 184.299,315.276 185.522,314.231 C 186.674,313.153 189.122,311.315 189.554,311.497 C 189.877,311.604 188.293,313.872 187.718,314.952 C 187.033,315.852 186.134,316.573 185.701,317.509 C 185.197,318.48 184.837,319.993 184.765,320.64 C 184.584,321.144 184.584,321.144 184.765,320.64 L 184.765,320.64 L 189.553,327.41 L 189.733,323.017 L 189.733,323.017 C 189.085,321.829 188.833,320.605 188.977,319.345 C 189.084,317.976 189.589,316.357 190.633,315.312 C 191.641,314.197 193.477,313.189 195.025,313.117 C 196.502,312.937 197.761,313.549 199.237,314.953 C 200.677,316.43 202.477,319.381 203.09,321.721 C 203.414,324.026 202.766,326.834 201.83,328.346 C 200.893,329.571 198.985,329.93 197.617,329.965 C 196.069,329.965 194.629,329.641 193.01,328.705 L 193.01,328.705 L 191.39,329.064 L 191.39,329.064 C 191.497,329.676 191.605,330.287 191.749,330.898 L 191.749,330.898 z M 165.001,278.52 C 164.714,279.312 164.605,280.392 164.821,281.616 C 164.857,282.841 165.145,284.712 166.081,285.829 C 166.945,286.872 169.501,287.593 170.689,287.845 C 171.841,287.773 172.597,287.484 173.245,286.585 C 173.785,285.685 174.218,284.569 174.145,283.093 C 173.965,281.509 173.281,278.989 172.489,277.764 C 171.517,276.468 170.041,275.928 169.033,275.748 C 168.061,275.496 167.269,275.784 166.657,276.324 C 165.938,276.755 165.253,277.62 165.001,278.52 L 165.001,278.52 z M 178.178,301.236 C 178.178,302.638 179.041,304.584 179.654,305.806 C 180.194,306.958 180.591,307.462 181.67,308.003 C 182.679,308.47 184.731,308.722 185.883,308.362 C 186.962,307.893 187.826,306.419 188.078,305.049 C 188.114,303.465 187.79,300.945 186.962,299.578 C 186.063,298.174 184.731,297.129 183.506,296.842 C 182.21,296.446 180.555,296.625 179.654,297.381 C 178.718,298.104 178.178,299.76 178.178,301.236 L 178.178,301.236 z M 192.109,317.146 C 191.137,318.156 190.921,319.558 191.173,321.359 C 191.46,323.015 192.504,325.787 193.765,327.047 C 194.809,328.164 196.717,328.488 197.977,328.164 C 199.165,327.73 200.857,326.435 201.253,324.851 C 201.576,323.087 200.893,320.027 200.173,318.443 C 199.236,316.859 197.868,315.851 196.501,315.707 C 195.025,315.42 193.01,316.176 192.109,317.146 L 192.109,317.146 z "
   style="fill:silver;fill-rule:evenodd;stroke:black;stroke-width:0.036;stroke-miterlimit:10"
   id="path139" />
	<path
   d="M 166.262,279.959 C 166.298,278.843 166.766,278.123 167.377,277.943 C 167.989,277.727 169.357,277.979 170.113,278.699 C 170.905,279.203 171.409,280.248 171.769,281.435 C 171.949,282.587 171.876,284.962 171.409,285.646 C 170.762,286.187 169.573,285.683 168.674,285.107 C 167.81,284.459 167.125,283.416 166.478,281.974 L 166.478,281.974 C 166.154,283.199 166.226,284.244 166.837,285.107 C 167.377,285.863 168.926,286.798 169.934,286.943 C 170.833,287.088 171.877,286.726 172.49,286.007 C 173.03,285.142 173.282,283.739 173.246,282.37 C 173.066,280.931 172.67,278.698 171.77,277.762 C 170.69,276.826 168.746,276.358 167.738,276.502 C 166.802,276.466 166.406,277.114 166.262,277.762 C 165.974,278.268 165.974,279.095 166.262,279.959 L 166.262,279.959 z "
   style="fill:#404040;fill-rule:evenodd;stroke:black;stroke-width:0.036;stroke-miterlimit:10"
   id="path141" />
	<path
   d="M 180.193,301.955 C 180.229,300.443 180.553,299.58 181.309,299.219 C 181.993,298.86 183.865,299.147 184.584,299.94 C 185.196,300.731 185.448,303.108 185.341,304.153 C 185.16,305.124 184.62,305.772 183.864,305.807 C 183.072,305.772 182.028,305.268 180.732,304.153 L 180.732,304.153 C 181.2,305.665 181.812,306.708 182.568,307.284 C 183.288,307.753 184.08,308.005 184.944,307.643 C 185.664,307.284 186.528,306.6 186.96,305.448 C 187.248,304.223 187.141,302.135 186.78,300.841 C 186.348,299.581 185.52,298.429 184.584,297.925 C 183.433,297.349 181.633,297.169 180.732,297.384 C 179.76,297.529 179.616,298.212 179.472,299.04 C 179.438,299.76 179.545,300.73 180.193,301.955 L 180.193,301.955 z "
   style="fill:#404040;fill-rule:evenodd;stroke:black;stroke-width:0.036;stroke-miterlimit:10"
   id="path143" />
	<path
   d="M 192.109,322.295 C 191.749,321.539 191.641,320.748 191.929,319.92 C 192.073,318.982 192.757,317.688 193.584,317.147 C 194.448,316.573 196.032,316.069 197.221,316.608 C 198.229,317.147 199.669,318.588 200.173,320.1 C 200.641,321.395 200.641,323.627 200.173,324.852 C 199.597,326.004 198.337,327.227 197.221,327.409 C 196.033,327.409 194.809,326.868 193.405,325.391 L 193.405,325.391 C 195.457,325.752 196.933,325.643 197.977,325.211 C 198.985,324.672 199.237,323.772 199.417,322.656 C 199.488,321.467 199.236,319.631 198.517,318.802 C 197.725,317.939 195.961,317.579 195.025,317.722 C 194.125,317.939 193.405,318.587 193.009,319.523 C 192.47,320.314 192.218,321.143 192.109,322.295 L 192.109,322.295 z "
   style="fill:#404040;fill-rule:evenodd;stroke:black;stroke-width:0.036;stroke-miterlimit:10"
   id="path145" />
	<path
   d="M 163.525,266.063 C 164.317,267.071 164.857,268.043 165.001,268.979 C 165.109,269.915 164.93,270.959 164.461,271.715 C 163.921,272.471 163.165,272.831 162.05,273.191 L 162.05,273.191 C 160.646,272.255 159.854,271.247 159.674,270.455 C 159.421,269.591 160.07,268.799 160.789,268.079 C 161.365,267.288 162.373,266.711 163.525,266.063 L 163.525,266.063 z "
   style="fill:white;fill-rule:evenodd"
   id="path147" />
	<path
   d="M 152.726,275.387 C 150.997,276.071 150.134,276.683 149.99,277.223 C 149.883,277.727 150.962,278.159 151.826,278.519 C 152.474,278.735 153.266,278.951 154.202,278.879 L 154.202,278.879 C 153.733,277.728 153.229,276.576 152.726,275.387 L 152.726,275.387 z "
   style="fill:white;fill-rule:evenodd"
   id="path149" />
	<path
   d="M 146.857,269.339 L 148.693,272.651 L 148.693,272.651 C 148.261,273.767 147.649,274.451 146.857,274.307 C 145.921,274.163 143.581,272.507 143.581,272.111 C 143.509,271.643 146.46,272.363 147.037,271.931 C 147.613,271.427 147.505,270.563 146.857,269.339 L 146.857,269.339 z "
   style="fill:white;fill-rule:evenodd"
   id="path151" />
	<path
   d="M 159.493,268.259 C 159.889,268.619 162.445,267.251 162.985,266.783 C 163.309,266.207 162.445,265.667 162.049,265.307 C 161.544,264.839 161.257,263.939 160.788,264.407 C 160.214,264.875 159.134,267.828 159.493,268.259 L 159.493,268.259 z "
   style="fill:#404040;fill-rule:evenodd"
   id="path153" />
	<path
   d="M 159.854,271.175 C 160.178,271.247 161.474,273.155 161.51,273.551 C 161.402,273.839 159.709,273.335 159.493,273.011 C 159.205,272.58 159.457,270.996 159.854,271.175 L 159.854,271.175 z "
   style="fill:#404040;fill-rule:evenodd"
   id="path155" />
	<path
   d="M 157.298,273.551 C 156.65,273.875 154.777,275.243 154.741,275.567 C 154.561,275.783 155.821,275.279 156.577,275.027 C 157.225,274.631 158.557,273.767 158.773,273.551 C 158.917,273.191 157.873,273.191 157.298,273.551 L 157.298,273.551 z "
   style="fill:#404040;fill-rule:evenodd"
   id="path157" />
	<path
   d="M 208.021,344.184 C 206.437,342.672 205.033,341.555 203.809,340.692 C 202.549,339.684 201.973,339.18 200.533,339.036 C 198.985,339.001 196.105,339.505 194.665,340.153 C 193.117,340.62 192.073,341.231 191.39,341.989 C 190.49,342.6 189.95,343.391 189.913,344.364 C 189.877,345.372 190.237,346.741 190.993,347.639 C 191.569,348.36 192.722,348.791 193.765,348.936 C 194.773,348.936 195.708,348.684 196.861,348.036 L 196.861,348.036 C 196.717,347.532 197.006,346.848 197.582,346.38 C 198.122,345.876 199.094,345.192 200.353,344.724 L 200.353,344.724 C 199.093,345.552 198.374,346.453 197.797,347.281 C 197.329,348.144 197.005,348.937 197.221,349.658 C 197.365,350.162 197.689,350.377 198.337,350.594 C 198.805,350.739 199.417,350.739 200.173,350.594 L 200.173,350.594 C 200.605,349.91 201.109,349.406 201.829,348.938 C 202.513,348.434 203.413,348.11 204.385,347.823 L 204.385,347.823 C 202.513,349.083 201.109,350.126 200.173,351.495 C 199.165,352.645 198.841,354.302 198.517,355.347 C 198.085,356.283 197.581,356.894 197.977,357.722 C 198.337,358.587 199.381,360.027 200.533,360.495 C 201.577,360.817 203.485,360.35 204.025,359.919 C 204.349,359.378 203.161,358.407 203.089,357.542 C 202.908,356.534 202.656,355.31 203.448,354.446 C 204.169,353.583 205.572,352.969 207.66,352.61 L 207.66,352.61 C 206.112,353.114 204.925,353.835 204.385,354.626 C 203.809,355.347 203.737,356.21 204.025,357.362 C 204.17,358.407 204.601,360.243 205.465,361.214 C 206.329,362.114 207.769,362.618 208.957,362.87 C 209.893,362.977 210.757,362.69 211.692,362.294 C 212.665,361.898 213.457,361.358 214.464,360.675 L 214.464,360.675 C 215.544,362.222 216.588,363.519 217.739,364.706 C 218.891,365.931 220.008,366.722 221.231,367.622 L 221.231,367.622 C 219.971,368.739 219.035,369.602 218.279,370.358 C 217.451,371.006 216.551,371.51 216.84,372.014 C 217.164,372.481 218.064,373.166 219.936,373.67 L 219.936,373.67 C 219.54,375.145 219.576,375.973 219.756,376.586 C 220.008,376.945 220.403,376.91 221.232,376.766 C 221.844,376.659 222.888,376.477 223.968,376.225 L 223.968,376.225 L 231.852,383.93 L 261.156,428.785 L 261.156,428.785 C 260.616,429.181 260.257,429.613 260.076,430.082 C 259.717,430.369 259.644,430.801 259.86,431.377 C 260.112,431.99 260.616,432.674 261.516,433.574 L 261.516,433.574 C 261.156,434.654 260.976,435.445 260.976,435.949 C 260.904,436.308 260.976,436.238 261.336,436.308 C 261.588,436.345 262.272,436.453 262.991,436.49 L 262.991,436.49 C 264.575,438.578 265.872,440.162 267.023,441.242 C 268.067,442.322 268.823,442.681 269.58,442.717 C 270.264,442.61 270.768,441.998 271.235,440.881 L 271.235,440.881 L 270.515,437.965 L 270.515,437.965 C 272.711,437.893 274.007,437.57 274.547,436.85 C 274.979,436.022 274.439,434.33 273.61,433.575 C 272.747,432.747 270.766,432.134 269.758,432.278 C 268.786,432.35 268.066,433.071 267.742,434.294 L 267.742,434.294 L 245.206,400.778 L 246.502,399.878 L 249.058,402.614 L 249.058,402.614 C 249.058,403.766 249.31,404.667 249.814,405.171 C 250.247,405.603 251.146,405.999 251.831,405.53 C 252.515,404.954 253.774,402.831 253.667,402.075 C 253.343,401.247 252.227,400.813 250.175,400.778 L 250.175,400.778 L 248.339,397.645 L 248.339,397.645 C 249.815,395.739 250.931,394.477 251.831,393.434 C 252.658,392.426 253.198,391.778 253.45,391.633 L 253.45,391.633 C 255.07,393.362 257.014,394.406 259.138,394.91 C 261.298,395.414 264.286,395.377 266.302,394.369 C 268.246,393.144 269.902,390.049 270.694,388.14 C 271.306,386.197 271.27,384.288 270.298,382.812 C 269.254,381.228 266.338,379.753 264.466,378.96 C 262.486,378.097 260.434,377.7 258.598,378.06 C 256.69,378.312 254.314,379.105 253.27,380.976 C 252.19,382.849 251.722,385.406 252.01,389.04 L 252.01,389.04 C 250.498,390.12 249.382,391.056 248.518,391.993 C 247.619,392.856 247.006,393.647 246.682,394.368 L 246.682,394.368 L 235.342,378.6 L 235.342,378.6 C 236.962,379.176 238.078,379.176 238.978,378.6 C 239.77,377.916 240.85,376.008 240.274,374.963 C 239.59,373.92 236.134,372.695 235.163,372.551 C 234.083,372.264 233.759,372.731 234.047,373.668 L 234.047,373.668 L 229.475,367.619 L 235.163,363.226 L 236.602,365.062 L 236.602,365.062 C 236.062,366.576 236.17,367.726 236.782,368.519 C 237.322,369.24 239.266,369.886 240.274,369.634 C 241.138,369.31 242.902,367.943 242.65,366.898 C 242.291,365.82 240.886,364.703 238.438,363.408 L 238.438,363.408 L 237.718,361.931 L 237.718,361.931 C 238.114,361.247 238.365,360.743 238.618,360.275 C 238.834,359.736 239.374,359.375 238.977,359.195 C 238.473,359.015 237.429,359.015 235.702,359.195 L 235.702,359.195 L 223.426,340.871 L 225.622,339.611 L 225.622,339.611 C 226.378,340.547 227.494,341.34 229.113,341.988 C 230.626,342.599 233.326,343.859 234.981,343.427 C 236.565,342.814 238.113,340.511 238.797,338.855 C 239.373,337.091 239.373,334.787 238.797,333.347 C 238.149,331.87 236.745,330.646 235.161,330.072 C 233.432,329.386 230.625,329.099 229.112,329.351 C 227.564,329.531 226.665,330.072 225.98,331.367 C 225.152,332.592 224.648,334.463 224.325,336.84 L 224.325,336.84 L 221.409,337.776 L 221.409,337.776 C 220.077,335.616 218.925,333.852 218.096,332.628 C 217.196,331.333 216.584,330.54 216.26,330.253 L 216.26,330.253 L 214.064,331.548 L 219.032,339.216 L 219.032,339.216 C 216.656,340.548 214.928,341.593 213.705,342.349 C 212.48,342.997 211.761,343.357 211.688,343.429 L 211.688,343.429 L 210.789,341.99 L 210.789,341.99 C 211.077,340.045 210.896,338.822 210.249,338.316 C 209.564,337.705 207.44,338.388 206.936,338.857 C 206.432,339.253 206.72,340.296 207.117,340.873 C 207.44,341.377 207.944,341.701 208.772,341.99 L 208.772,341.99 L 209.132,343.429 L 209.132,343.429 C 208.777,343.68 208.418,343.932 208.021,344.184 L 208.021,344.184 z M 214.466,346.92 C 215.258,345.768 216.122,344.795 217.201,344.004 C 218.246,343.211 219.361,342.6 220.693,342.168 L 220.693,342.168 L 233.689,359.916 L 233.689,359.916 C 232.177,361.211 231.097,362.146 230.017,362.867 C 228.973,363.551 228.073,364.019 227.461,364.127 L 227.461,364.127 L 222.709,357.18 L 222.709,357.18 C 224.688,356.856 225.625,356.244 225.805,355.344 C 225.913,354.264 224.293,351.959 223.429,351.492 C 222.421,351.023 221.305,351.455 219.937,352.787 L 219.937,352.787 C 218.677,350.988 217.706,349.547 217.021,348.756 C 216.229,347.891 216.122,347.891 215.725,347.639 C 215.222,347.314 214.934,347.027 214.466,346.92 L 214.466,346.92 z "
   style="fill:silver;fill-rule:evenodd;stroke:black;stroke-width:0.036;stroke-miterlimit:10"
   id="path159" />
	<path
   d="M 230.953,331.547 C 232.645,331.799 233.725,332.447 234.59,333.348 C 235.382,334.211 235.526,335.328 235.706,336.84 C 235.777,338.315 235.489,339.791 234.985,341.807 L 234.985,341.807 C 236.821,340.909 237.973,339.791 238.441,338.315 C 238.765,336.803 238.477,334.104 237.721,332.989 C 236.965,331.764 235.093,331.548 234.049,331.368 C 232.825,331.08 231.926,331.188 230.953,331.547 L 230.953,331.547 z "
   style="fill:white;fill-rule:evenodd"
   id="path161" />
	<path
   d="M 260.077,380.436 C 263.462,381.983 265.586,383.352 266.846,384.829 C 267.926,386.196 267.493,387.349 267.206,388.86 C 266.953,390.337 266.233,391.883 265.189,393.647 L 265.189,393.647 C 267.313,392.1 268.573,390.661 269.401,389.04 C 270.049,387.311 270.157,385.476 269.582,384.108 C 268.934,382.669 267.493,382.055 266.09,381.157 C 264.577,380.112 261.949,378.745 260.978,378.6 C 260.006,378.42 259.609,379.031 260.077,380.436 L 260.077,380.436 z "
   style="fill:white;fill-rule:evenodd"
   id="path163" />
	<path
   d="M 253.67,389.975 C 253.382,389.868 251.042,391.307 249.998,392.352 C 248.918,393.143 247.477,395.088 247.622,395.268 C 247.766,395.34 249.781,394.116 250.897,393.252 C 251.905,392.314 253.706,390.119 253.67,389.975 L 253.67,389.975 z "
   style="fill:white;fill-rule:evenodd"
   id="path165" />
	<path
   d="M 218.281,340.871 C 217.922,340.871 215.941,341.807 214.825,342.707 C 213.529,343.535 210.83,345.227 211.153,345.443 C 211.586,345.478 215.473,343.714 216.841,343.068 C 217.886,342.168 218.642,340.979 218.281,340.871 L 218.281,340.871 z "
   style="fill:white;fill-rule:evenodd"
   id="path167" />
	<path
   d="M 223.79,343.248 C 224.869,344.58 230.737,352.787 231.674,354.264 C 232.466,355.596 229.982,352.825 228.938,351.493 C 227.786,350.016 225.698,347.604 224.906,346.2 C 223.97,344.652 222.674,341.951 223.79,343.248 L 223.79,343.248 z "
   style="fill:white;fill-rule:evenodd"
   id="path169" />
	<path
   d="M 238.802,365.604 C 238.514,365.856 238.406,366.577 238.622,367.081 C 238.838,367.405 239.701,367.979 240.098,367.979 C 240.494,367.872 240.782,367.081 240.818,366.719 C 240.782,366.18 240.207,365.856 239.919,365.604 C 239.485,365.424 238.981,365.244 238.802,365.604 L 238.802,365.604 z "
   style="fill:white;fill-rule:evenodd"
   id="path171" />
	<path
   d="M 230.558,373.848 L 227.282,369.276 L 227.282,369.276 C 227.751,370.715 228.146,371.76 228.759,372.551 C 229.334,373.271 229.838,373.703 230.558,373.848 L 230.558,373.848 z "
   style="fill:white;fill-rule:evenodd"
   id="path173" />
	<path
   d="M 234.77,380.795 C 235.382,381.588 238.262,386.375 240.098,389.039 C 241.862,391.631 245.354,395.916 245.426,396.203 C 245.318,396.348 241.646,392.314 240.098,390.336 C 238.514,388.248 236.894,385.908 236.066,384.287 C 235.058,382.668 234.157,379.932 234.77,380.795 L 234.77,380.795 z "
   style="fill:white;fill-rule:evenodd"
   id="path175" />
	<path
   d="M 250.357,401.855 C 249.998,401.962 250.069,403.222 250.177,403.691 C 250.357,404.015 250.861,404.591 251.257,404.447 C 251.545,404.23 251.725,402.97 251.653,402.611 C 251.474,402.18 250.537,401.604 250.357,401.855 L 250.357,401.855 z "
   style="fill:white;fill-rule:evenodd"
   id="path177" />
	<path
   d="M 271.058,434.111 C 270.446,434.146 269.942,435.191 270.122,435.588 C 270.157,435.912 271.418,436.776 271.958,436.668 C 272.533,436.416 273.29,435.299 273.254,434.832 C 273.037,434.291 271.562,434.004 271.058,434.111 L 271.058,434.111 z "
   style="fill:white;fill-rule:evenodd"
   id="path179" />
	<path
   d="M 262.453,430.08 C 261.878,430.332 261.733,430.656 261.878,431.195 C 261.985,431.699 262.525,432.42 263.354,433.211 L 263.354,433.211 C 262.454,433.824 262.382,434.615 262.994,435.588 C 263.57,436.559 265.982,437.928 267.026,438.863 C 267.963,439.726 269.006,441.275 269.043,440.879 C 269.078,440.303 268.07,437.424 267.387,436.127 C 266.631,434.795 265.443,434.147 264.651,433.211 C 263.785,432.203 263.102,431.16 262.453,430.08 L 262.453,430.08 z "
   style="fill:white;fill-rule:evenodd"
   id="path181" />
	<path
   d="M 247.802,406.463 L 256.226,420 L 256.226,420 C 254.642,416.795 253.274,414.24 251.834,411.936 C 250.357,409.596 249.062,407.904 247.802,406.463 L 247.802,406.463 z "
   style="fill:white;fill-rule:evenodd"
   id="path183" />
	<path
   d="M 231.134,381.551 C 230.774,381.227 228.902,379.86 228.002,378.42 C 226.958,376.908 225.302,373.668 225.266,373.127 C 225.23,372.551 226.67,374.063 227.642,375.143 C 228.47,376.153 229.55,378.204 230.198,379.356 C 230.773,380.436 231.458,381.623 231.134,381.551 L 231.134,381.551 z "
   style="fill:white;fill-rule:evenodd"
   id="path185" />
	<path
   d="M 221.414,365.963 C 221.378,365.856 217.237,360.383 215.365,358.295 C 213.422,356.172 211.405,353.867 210.433,353.328 C 209.461,352.715 208.885,353.508 209.677,354.443 C 210.397,355.236 212.809,356.531 214.824,358.474 C 216.77,360.455 221.233,365.82 221.414,365.963 L 221.414,365.963 z "
   style="fill:white;fill-rule:evenodd"
   id="path187" />
	<path
   d="M 224.51,364.523 C 223.502,363.119 219.902,358.584 219.398,358.294 C 218.93,357.97 220.838,362.218 221.774,363.407 C 222.602,364.557 223.97,365.386 224.51,365.602 C 224.869,365.82 225.338,365.604 224.51,364.523 L 224.51,364.523 z "
   style="fill:white;fill-rule:evenodd"
   id="path189" />
	<path
   d="M 216.842,351.852 C 216.518,351.276 213.386,348.756 212.989,348.756 C 212.485,348.719 213.853,350.988 214.466,351.672 C 215.077,352.139 216.985,352.248 216.842,351.852 L 216.842,351.852 z "
   style="fill:white;fill-rule:evenodd"
   id="path191" />
	<path
   d="M 218.102,354.264 C 217.634,354.479 217.418,355.02 217.742,355.344 C 217.959,355.416 218.606,355.272 219.398,355.344 C 220.046,355.344 221.486,355.883 221.774,355.703 C 221.882,355.344 221.342,354.336 220.694,354.084 C 219.974,353.867 218.605,353.975 218.102,354.264 L 218.102,354.264 z "
   style="fill:white;fill-rule:evenodd"
   id="path193" />
	<path
   d="M 206.582,345.443 C 206.186,344.795 203.306,342.31 202.369,341.591 C 201.325,340.87 200.605,340.618 200.893,341.23 C 201.289,341.771 203.089,344.146 204.206,344.904 C 205.069,345.588 206.834,345.947 206.582,345.443 L 206.582,345.443 z "
   style="fill:#404040;fill-rule:evenodd"
   id="path195" />
	<path
   d="M 197.222,342.348 C 197.186,342.311 197.186,342.311 197.222,342.348 C 197.186,342.311 197.186,342.311 197.222,342.348 L 197.222,342.348 C 194.774,343.391 193.406,344.364 192.829,345.264 C 192.253,346.092 193.405,347.207 193.945,347.639 C 194.449,348 195.169,348.108 195.962,347.821 L 195.962,347.821 C 196.033,346.921 196.285,346.237 196.861,345.624 C 197.401,344.976 198.841,344.688 199.237,344.185 C 199.525,343.609 199.093,342.997 198.338,342.349 L 198.338,342.349 L 197.222,342.349 L 197.222,342.348 z "
   style="fill:#404040;fill-rule:evenodd"
   id="path197" />
	<path
   d="M 202.909,346.379 C 202.693,346.74 201.506,347.531 200.893,348.215 C 200.209,348.828 199.561,349.584 199.237,349.656 C 198.769,349.547 198.59,347.855 198.697,347.638 C 198.769,347.243 199.382,347.89 199.993,347.638 C 200.462,347.351 201.254,346.163 201.83,346.019 C 202.226,345.73 203.054,345.982 202.909,346.379 L 202.909,346.379 z "
   style="fill:#404040;fill-rule:evenodd"
   id="path199" />
	<path
   d="M 207.842,349.115 C 207.661,349.187 209.678,350.195 210.974,351.31 C 212.234,352.355 214.934,354.874 215.186,354.982 C 215.186,354.875 212.954,352.355 211.694,351.31 C 210.397,350.195 207.914,349.188 207.842,349.115 L 207.842,349.115 z "
   style="fill:#404040;fill-rule:evenodd"
   id="path201" />
	<path
   d="M 206.401,348.756 C 205.79,348.756 203.233,349.512 202.189,350.592 C 200.929,351.635 199.561,354.516 199.597,354.803 C 199.597,354.983 201.505,352.321 202.549,351.672 C 203.448,350.951 205.032,350.807 205.645,350.412 C 206.186,349.799 206.941,348.791 206.401,348.756 L 206.401,348.756 z "
   style="fill:#404040;fill-rule:evenodd"
   id="path203" />
	<path
   d="M 228.542,337.379 C 229.334,336.803 232.105,334.967 232.97,335.184 C 233.726,335.329 233.726,337.848 233.51,338.315 C 233.186,338.639 232.466,337.307 231.493,337.379 C 230.521,337.344 228.037,338.496 227.641,338.496 C 227.174,338.424 227.569,337.955 228.542,337.379 L 228.542,337.379 z "
   style="fill:#404040;fill-rule:evenodd"
   id="path205" />
	<path
   d="M 226.166,335.939 C 226.598,335.904 230.054,334.39 230.558,333.744 C 230.918,332.988 229.118,331.908 228.758,331.908 C 228.362,331.836 228.29,332.844 228.002,333.562 C 227.462,334.211 225.733,335.832 226.166,335.939 L 226.166,335.939 z "
   style="fill:#404040;fill-rule:evenodd"
   id="path207" />
	<path
   d="M 254.75,387.779 C 255.218,387.492 258.638,384.718 259.321,383.927 C 259.79,383.062 258.241,382.558 257.882,382.81 C 257.449,382.992 257.414,384.251 256.945,385.187 C 256.405,386.016 254.281,387.852 254.75,387.779 L 254.75,387.779 z "
   style="fill:#404040;fill-rule:evenodd"
   id="path209" />
	<path
   d="M 256.766,390.516 C 257.378,389.436 262.562,386.664 262.994,386.483 C 263.427,386.268 259.934,388.895 259.322,389.796 C 258.638,390.661 259.106,391.849 258.782,391.993 C 258.241,392.027 256.082,391.488 256.766,390.516 L 256.766,390.516 z "
   style="fill:#404040;fill-rule:evenodd"
   id="path211" />
	<path
   d="M 276.17,450.168 C 277.214,448.115 278.51,446.279 280.201,444.516 C 281.821,442.787 283.405,441.276 286.069,439.547 C 288.805,437.568 292.945,434.795 296.149,433.32 C 299.21,431.843 301.909,431.05 304.393,430.943 L 304.393,430.943 L 308.065,435.156 L 308.065,436.992 L 308.065,436.992 C 302.881,438.431 298.525,440.267 294.853,442.5 C 291.073,444.695 288.265,447.756 285.889,450.168 C 283.441,452.436 281.713,454.344 280.561,456.035 L 280.561,456.035 L 278.941,455.496 L 278.941,455.496 C 278.042,453.73 277.105,451.967 276.17,450.168 L 276.17,450.168 z "
   style="fill:silver;fill-rule:evenodd;stroke:black;stroke-width:0.036;stroke-miterlimit:10"
   id="path213" />
	<path
   d="M 282.577,447.252 C 285.025,444.299 287.689,441.6 291.002,439.547 C 294.206,437.459 297.77,435.623 301.838,434.436 L 301.838,434.436 C 297.157,436.668 293.342,438.864 290.102,441.024 C 286.825,443.184 284.414,445.164 282.577,447.252 L 282.577,447.252 z "
   style="fill-rule:evenodd;stroke:black;stroke-width:0.036;stroke-miterlimit:10"
   id="path215" />
	<path
   d="M 319.405,560.328 C 320.162,557.195 321.565,554.244 324.157,551.328 C 326.533,548.34 329.342,546.646 334.237,542.904 C 339.17,539.015 347.126,533.076 353.677,528.828 C 360.121,524.471 366.421,520.656 372.721,517.81 C 378.985,514.966 384.961,513.058 391.045,511.943 L 391.045,511.943 L 389.929,517.81 L 389.929,517.81 C 389.893,516.767 387.805,516.947 383.521,518.748 C 379.093,520.439 371.533,523.643 364.297,528.072 C 356.988,532.427 346.585,540.275 340.284,545.099 C 333.877,549.851 329.413,553.74 326.749,556.474 C 324.156,559.068 323.329,560.579 324.553,560.867 L 324.553,560.867 C 323.041,560.687 321.925,560.615 321.061,560.508 C 320.162,560.436 319.657,560.328 319.405,560.328 L 319.405,560.328 z "
   style="fill:silver;fill-rule:evenodd;stroke:black;stroke-width:0.036;stroke-miterlimit:10"
   id="path217" />
	<path
   d="M 328.55,550.248 C 331.502,547.512 339.35,540.6 345.434,536.314 C 351.482,531.851 361.238,526.271 364.298,524.58 C 367.069,523.103 365.918,524.219 362.642,526.81 C 359.222,529.187 350.546,534.839 344.678,539.05 C 338.774,543.263 330.674,549.706 328.01,551.722 C 325.346,553.596 325.525,552.73 328.55,550.248 L 328.55,550.248 z "
   style="fill:white;fill-rule:evenodd"
   id="path219" />
	<path
   d="M 333.338,559.211 C 332.258,559.68 331.142,560.004 329.846,560.328 C 328.478,560.615 327.11,560.904 325.453,561.047 L 325.453,561.047 C 324.769,560.795 324.697,560.256 325.094,559.572 C 325.453,558.779 325.993,558.31 327.83,556.656 C 329.63,554.855 332.653,552.336 336.073,549.492 C 339.493,546.576 344.174,542.904 348.17,539.988 C 351.985,537 355.657,534.263 359.33,531.924 C 363.002,529.512 366.458,527.531 370.13,525.695 C 373.73,523.642 377.798,521.591 380.785,520.367 C 383.594,519.142 385.861,518.928 387.193,518.748 C 388.525,518.459 388.958,518.711 388.633,519.107 L 388.633,519.107 C 388.273,520.007 387.625,521.05 386.833,522.382 C 385.969,523.714 384.816,525.046 383.52,526.81 L 383.52,526.81 C 384.384,524.255 383.413,523.355 380.208,524.398 C 376.932,525.336 370.451,529.187 364.655,532.642 C 358.716,535.955 351.084,541.068 345.792,544.919 C 340.535,548.878 335.604,553.126 333.516,555.718 C 331.43,558.096 331.321,559.211 333.338,559.211 L 333.338,559.211 z "
   style="fill:#616161;fill-rule:evenodd;stroke:black;stroke-width:0.036;stroke-miterlimit:10"
   id="path221" />
	<path
   d="M 347.989,542.723 C 350.653,540.672 353.641,538.475 357.493,536.135 C 361.346,533.688 369.949,528.647 371.246,528.252 C 372.361,527.783 367.897,530.879 364.657,533.219 C 361.273,535.344 355.729,538.547 351.481,541.463 C 347.053,544.379 341.113,549.131 339.206,550.428 C 337.441,551.399 339.025,549.6 340.645,548.231 C 342.05,546.863 345.146,544.703 347.989,542.723 L 347.989,542.723 z "
   style="fill:silver;fill-rule:evenodd"
   id="path223" />
</g>
</svg>