<?xml version="1.0" encoding="UTF-8" standalone="no"?>
<!-- Created with Inkscape (http://www.inkscape.org/) -->
<svg
   xmlns:svg="http://www.w3.org/2000/svg"
   xmlns="http://www.w3.org/2000/svg"
   version="1.0"
   width="552.71002"
   height="578.74402"
   viewBox="0 0 552.71 578.744"
   id="svg2">

<metadata>
    <rdf:RDF xmlns:cc="http://web.resource.org/cc/" xmlns:dc="http://purl.org/dc/elements/1.1/" xmlns:rdf="http://www.w3.org/1999/02/22-rdf-syntax-ns#">
      <cc:Work rdf:about="">
        <dc:title>Flute in C</dc:title>
        <dc:description>Flute in key of C.</dc:description>
        <dc:subject>
          <rdf:Bag>
            <rdf:li>flute</rdf:li>
            <rdf:li>music</rdf:li>
            <rdf:li>equipment</rdf:li>
          </rdf:Bag>
        </dc:subject>
        <dc:publisher>
          <cc:Agent rdf:about="http://www.openclipart.org/">
            <dc:title>Open Clip Art Project</dc:title>
          </cc:Agent>
        </dc:publisher>
        <dc:creator>
          <cc:Agent rdf:about="http://web.resource.org/cc/PublicDomain">
            <dc:title>Gerald G.</dc:title>
          </cc:Agent>
        </dc:creator>
        <dc:rights>
          <cc:Agent rdf:about="http://web.resource.org/cc/PublicDomain">
            <dc:title>Public Domain</dc:title>
          </cc:Agent>
        </dc:rights>
        <dc:date>2005-04-22</dc:date>
        <dc:format>image/svg+xml</dc:format>
        <dc:type rdf:resource="http://purl.org/dc/dcmitype/StillImage"/>
        <cc:license rdf:resource="http://web.resource.org/cc/PublicDomain"/>
        <dc:language>en</dc:language>
      </cc:Work>
      <cc:License rdf:about="http://web.resource.org/cc/PublicDomain">
        <cc:permits rdf:resource="http://web.resource.org/cc/Reproduction"/>
        <cc:permits rdf:resource="http://web.resource.org/cc/Distribution"/>
        <cc:permits rdf:resource="http://web.resource.org/cc/DerivativeWorks"/>
      </cc:License>
    </rdf:RDF>
  </metadata>

  <defs
     id="defs206" />
  <g
     id="g2555">
    <path
       d="M 202.064,326.814 C 211.185,326.814 218.588,334.216 218.588,343.337 C 218.588,352.458 211.185,359.86 202.064,359.86 C 192.942,359.86 185.54,352.458 185.54,343.337 C 185.54,334.216 192.942,326.814 202.064,326.814"
       style="fill:#ffffff;fill-rule:evenodd"
       id="path9" />
    <path
       d="M 0.02,553.559 C 0.452,552.407 1.1,551.506 1.82,550.858 C 2.576,550.174 3.476,549.526 4.52,549.311 C 5.456,548.987 6.212,548.915 7.184,549.094 L 42.104,512.158 L 39.188,509.242 C 37.496,509.457 36.128,509.314 34.94,508.81 C 33.644,508.269 32.744,507.837 32.24,506.109 C 31.592,504.273 30.548,501.177 32.024,498.082 C 33.536,494.842 36.92,489.91 41.204,487.318 C 45.308,484.547 53.3,481.99 56.864,482.422 C 60.428,482.891 62.084,485.445 62.228,490.235 L 79.004,475.475 L 76.988,471.911 C 73.748,472.702 71.336,472.38 69.608,470.938 C 67.772,469.391 66.116,466.366 66.728,463.127 C 67.376,459.742 69.932,454.738 73.424,451.463 C 76.772,448.078 83.468,444.551 87.284,443.65 C 90.992,442.75 94.232,444.478 96.032,446.314 C 97.868,448.078 98.444,450.814 98.048,454.378 L 106.976,444.982 C 103.736,444.082 101.324,443.037 99.596,441.849 C 97.796,440.661 96.32,439.185 96.68,437.818 C 97.076,436.414 98.588,434.722 101.612,433.138 C 99.668,431.517 98.552,429.825 98.264,428.204 C 97.904,426.477 97.724,425.505 99.812,423.058 C 101.936,420.501 107.768,414.742 110.792,412.978 C 113.672,411.142 115.832,410.853 117.272,412.113 C 116.12,409.521 115.76,407.181 116.588,405.383 C 117.38,403.547 119.612,401.963 121.736,400.918 C 123.716,399.73 125.66,398.109 128.684,398.686 C 131.636,399.155 135.344,400.991 139.664,404.051 L 143.012,400.235 L 136.064,394.438 C 134.084,393.682 132.932,392.782 132.464,391.739 C 131.852,390.514 132.032,388.968 133.148,387.923 C 134.192,386.915 136.136,386.304 138.98,385.943 L 141.86,383.675 C 140.672,382.632 140.204,381.804 140.312,380.796 C 140.384,379.751 141.356,378.599 142.544,377.88 C 143.696,377.052 145.136,376.655 147.008,376.296 L 158.888,364.884 C 158.204,363.37 157.952,362.075 157.988,360.851 C 157.916,359.628 158.24,358.259 159.104,357.72 C 159.896,357.034 161.336,356.82 163.136,357.072 L 169.832,350.592 C 170.228,348.901 170.948,347.748 171.848,346.992 C 172.748,346.199 173.828,345.947 175.232,346.092 L 194.888,328.199 C 194.708,326.256 195.14,324.816 196.04,323.736 C 196.94,322.656 198.308,321.935 200.288,321.72 L 284.383,234.383 C 297.596,220.991 309.188,209.507 319.737,199.103 C 330.212,188.771 339.176,180.023 347.061,172.715 C 346.557,170.303 346.772,168.755 347.707,167.783 C 348.572,166.883 350.191,166.559 352.424,167.099 L 357.787,162.203 C 357.068,159.719 357.283,158.099 358.435,157.055 C 359.515,156.083 361.531,155.687 364.484,156.155 C 366.392,153.023 367.904,151.403 369.416,151.007 C 370.748,150.539 372.584,152.807 372.98,153.923 C 373.375,154.967 372.835,156.155 371.648,157.487 L 378.812,162.635 L 396.056,145.391 C 396.126,143.735 396.343,142.367 396.702,141.143 C 396.991,139.811 396.847,138.767 398.071,138.011 C 399.259,137.255 401.022,136.931 403.651,136.895 L 423.342,115.655 C 422.694,114.107 422.838,112.775 423.774,111.515 C 424.71,110.147 427.049,108.707 428.706,108.167 C 430.255,107.591 431.622,107.591 432.954,108.167 L 485.983,54.239 C 484.903,53.879 484.11,53.411 483.751,52.439 C 483.21,51.539 481.519,51.251 483.534,48.659 C 485.552,45.923 491.491,40.307 495.811,36.095 C 500.059,31.703 504.666,25.763 508.807,23.135 C 512.803,20.579 516.403,19.715 519.75,20.687 L 534.08,5.638 C 533.684,4.666 533.935,3.766 534.547,2.938 C 535.16,2.038 536.276,0.85 537.897,0.49 C 539.516,0.022 541.784,-0.302 544.161,0.49 C 546.501,1.138 550.028,1.858 551.54,4.738 C 552.872,7.546 553.054,11.794 552.226,17.482 L 458.697,116.158 L 449.517,125.986 C 449.986,128.146 449.41,129.802 448.185,131.35 C 446.925,132.826 444.621,133.906 441.669,134.734 L 422.876,155.074 C 423.31,156.658 423.021,158.098 422.013,159.538 C 420.898,161.014 417.8,162.814 416.613,163.57 C 415.353,164.182 414.814,164.11 414.849,163.354 L 304.543,280.03 C 304.256,282.19 303.752,284.062 302.744,285.646 C 301.771,287.194 300.799,288.31 298.711,289.426 C 296.481,290.433 293.42,291.261 289.531,291.91 C 290.359,294.25 291.908,295.185 294.031,295.258 C 296.084,295.113 299.539,292.018 302.312,291.658 C 305.083,291.226 308.611,291.586 310.808,293.025 C 313.038,294.466 315.919,297.777 315.271,300.189 C 314.443,302.566 309.619,305.769 306.091,306.886 C 302.347,307.749 297.271,307.353 293.778,305.986 C 290.358,304.654 287.549,302.062 285.499,298.605 C 286.075,303.537 285.499,307.39 284.167,310.017 C 282.728,312.574 279.091,313.689 277.003,314.482 C 274.807,315.201 273.043,315.382 271.423,314.734 L 166.267,425.974 C 167.347,429.214 167.203,431.554 165.835,433.138 C 164.395,434.685 161.875,435.478 157.987,435.368 C 159.031,439.653 159.175,443.432 158.419,446.997 C 157.555,450.524 155.251,453.657 153.307,456.393 C 151.327,459.057 149.527,461.793 146.791,462.657 C 143.947,463.341 140.563,462.837 136.495,460.856 L 30.692,572.529 C 30.908,573.537 30.512,574.509 29.792,575.59 C 29.036,576.598 27.668,577.643 25.976,578.723 C 19.748,575.086 14.708,571.342 10.316,567.094 C 5.959,562.846 2.576,558.383 0.02,553.559 z "
       style="fill-rule:evenodd;stroke:#000000;stroke-width:0.036;stroke-miterlimit:10"
       id="path11" />
    <path
       d="M 9.308,548.662 L 43.004,514.353 C 42.716,515.722 42.968,516.91 43.616,518.062 C 44.264,519.142 45.452,520.078 47.036,520.869 L 14.888,553.918 C 13.88,553.342 13.088,552.621 12.116,551.758 C 11.144,550.822 10.208,549.887 9.308,548.662 z "
       style="fill:#ffffff;fill-rule:evenodd;stroke:#000000;stroke-width:0.036;stroke-miterlimit:10"
       id="path13" />
    <path
       d="M 21.08,559.498 C 30.944,548.986 40.484,539.014 50.132,529.185 C 59.744,519.322 68.924,509.997 78.248,500.781 L 81.632,503.23 L 25.4,563.494 C 23.96,562.162 22.52,560.83 21.08,559.498 z "
       style="fill:#ffffff;fill-rule:evenodd;stroke:#000000;stroke-width:0.036;stroke-miterlimit:10"
       id="path15" />
    <path
       d="M 26.624,565.043 L 85.34,503.23 C 83.072,499.953 81.884,497.794 81.632,496.75 C 81.308,495.635 82.676,496.139 83.792,496.75 C 84.908,497.219 86.312,498.299 88.148,499.846 L 130.16,455.963 C 131.06,457.078 131.888,457.906 132.932,458.734 C 133.94,459.49 134.876,460.101 136.028,460.57 L 30.332,570.299 C 29.108,568.57 27.884,566.807 26.624,565.043 z "
       style="fill:#ffffff;fill-rule:evenodd;stroke:#000000;stroke-width:0.036;stroke-miterlimit:10"
       id="path17" />
    <path
       d="M 33.104,497.686 C 34.58,495.418 36.236,493.69 38.072,492.106 C 39.8,490.594 41.528,489.551 43.94,488.399 C 46.424,487.211 49.124,485.842 52.58,484.69 C 48.62,487.463 45.38,489.838 42.716,492.106 C 40.052,494.266 38.036,496.967 36.524,497.975 C 34.94,498.838 33.751,498.838 33.104,497.686 z "
       style="fill:#ffffff;fill-rule:evenodd;stroke:#000000;stroke-width:0.036;stroke-miterlimit:10"
       id="path19" />
    <path
       d="M 37.46,500.135 C 35.3,500.674 34.112,501.43 33.752,502.942 C 33.32,504.346 33.32,508.559 35.3,508.487 C 37.316,508.198 41.636,504.743 45.488,502.007 C 49.268,499.163 54.956,494.376 57.548,492.107 C 59.924,489.767 60.788,488.58 59.996,488.4 C 59.672,486.923 59.204,485.988 58.448,485.304 C 57.62,484.618 56.648,484.366 55.388,484.404 C 53.588,486.744 51.212,489.119 48.26,491.82 C 45.164,494.41 41.744,497.182 37.46,500.135 z "
       style="fill:#ffffff;fill-rule:evenodd;stroke:#000000;stroke-width:0.036;stroke-miterlimit:10"
       id="path21" />
    <path
       d="M 57.836,497.686 L 47.648,508.811 L 48.26,514.354 C 47.756,515.075 47.756,515.075 48.26,514.354 C 48.62,513.598 49.448,512.375 51.032,509.711 C 52.688,506.865 54.776,502.906 57.836,497.686 z "
       style="fill:#ffffff;fill-rule:evenodd;stroke:#000000;stroke-width:0.036;stroke-miterlimit:10"
       id="path23" />
    <path
       d="M 45.164,513.742 C 44.732,514.533 44.588,515.254 44.876,515.902 C 45.092,516.441 45.704,517.09 46.712,517.449 C 47.324,516.369 47.576,515.543 47.324,514.967 C 47.072,514.391 46.352,513.85 45.164,513.742 z "
       style="fill:#ffffff;fill-rule:evenodd;stroke:#000000;stroke-width:0.036;stroke-miterlimit:10"
       id="path25" />
    <path
       d="M 57.224,501.07 L 53.192,509.097 L 58.448,505.101 L 57.224,501.07 z "
       style="fill:#ffffff;fill-rule:evenodd;stroke:#000000;stroke-width:0.036;stroke-miterlimit:10"
       id="path27" />
    <path
       d="M 64.316,491.17 L 79.472,477.598 C 80.048,478.715 80.768,478.967 81.632,478.211 C 82.424,477.453 83.36,475.799 84.44,473.242 L 84.44,477.597 L 64.316,497.361 C 64.316,495.311 64.316,493.258 64.316,491.17 z "
       style="fill:#ffffff;fill-rule:evenodd;stroke:#000000;stroke-width:0.036;stroke-miterlimit:10"
       id="path29" />
    <path
       d="M 73.928,494.266 L 51.968,517.162 C 48.728,522.201 48.368,523.785 50.744,521.769 C 53.12,519.718 62.3,509.025 66.188,505.101 C 70.004,501.033 72.236,498.802 73.28,497.974 C 77.852,495.31 77.6,496.605 72.668,502.005 C 67.628,507.368 57.944,516.693 43.328,530.12 C 43.364,532.28 46.496,530.481 52.58,524.864 C 58.7,519.104 67.628,509.673 79.796,496.137 C 80.372,492.283 80.12,490.268 79.184,489.944 C 78.212,489.693 76.412,490.953 73.928,494.266 z "
       style="fill:#ffffff;fill-rule:evenodd;stroke:#000000;stroke-width:0.036;stroke-miterlimit:10"
       id="path31" />
    <path
       d="M 70.22,465.537 C 74.216,464.711 77.924,462.693 81.632,459.346 C 85.268,455.926 88.724,451.426 92.144,445.45 C 94.556,446.854 95.888,448.655 95.852,450.706 C 95.888,452.724 94.556,455.136 92.144,457.8 C 96.248,457.835 97.904,458.88 97.4,461.22 C 96.824,463.523 93.944,466.87 88.76,471.408 C 88.94,470.039 89.3,468.744 89.984,467.377 C 90.56,465.863 92.684,464.1 92.756,463.057 C 92.828,461.977 92.108,461.364 90.596,461.221 C 86.816,464.424 84.008,466.692 81.632,468.313 C 79.256,469.825 78.536,470.868 76.7,470.473 C 74.792,469.93 72.632,468.418 70.22,465.537 z "
       style="fill:#ffffff;fill-rule:evenodd;stroke:#000000;stroke-width:0.036;stroke-miterlimit:10"
       id="path33" />
    <path
       d="M 70.508,460.57 C 70.22,457.869 71.408,455.494 73.928,453.154 C 76.484,450.814 80.264,448.654 85.664,446.674 C 84.944,448.258 83.756,449.807 81.956,451.319 C 80.048,452.686 76.7,454.128 74.828,455.639 C 72.884,457.223 71.444,458.734 70.508,460.57 z "
       style="fill:#ffffff;fill-rule:evenodd;stroke:#000000;stroke-width:0.036;stroke-miterlimit:10"
       id="path35" />
    <path
       d="M 100.172,455.025 L 110.072,444.513 C 105.608,442.929 102.62,441.49 101.108,440.193 C 99.488,438.826 99.02,436.341 100.82,436.486 C 102.62,436.558 106.328,437.998 111.944,440.806 C 106.652,437.601 104.168,435.693 104.204,434.937 C 104.312,434.181 109.856,435.621 112.232,436.486 C 114.392,437.277 116.192,438.215 117.488,439.582 L 100.82,459.346 C 100.604,457.906 100.388,456.467 100.172,455.025 z "
       style="fill:#ffffff;fill-rule:evenodd;stroke:#000000;stroke-width:0.036;stroke-miterlimit:10"
       id="path37" />
    <path
       d="M 84.116,483.609 L 115.94,450.562 C 116.588,446.421 117.668,444.154 119.036,443.757 C 120.404,443.325 122.204,444.765 124.292,448.077 C 126.596,446.889 124.58,449.589 118.1,456.718 C 111.548,463.773 100.928,474.718 85.664,490.089 C 83.468,490.882 84.908,488.65 89.984,482.997 C 95.096,477.309 103.556,468.597 115.94,456.429 C 116.516,454.269 114.968,454.882 111.296,458.265 C 107.516,461.685 98.228,472.126 93.692,476.517 C 89.083,480.693 85.988,483.105 84.116,483.609 z "
       style="fill:#ffffff;fill-rule:evenodd;stroke:#000000;stroke-width:0.036;stroke-miterlimit:10"
       id="path39" />
    <path
       d="M 121.808,415.318 C 118.784,413.445 115.904,412.978 113.168,413.769 C 110.324,414.49 107.192,417.802 105.14,420.249 C 102.908,422.696 100.496,426.44 100.82,428.276 C 101.18,430.005 103.34,430.833 107.3,430.76 C 112.124,425.613 116.948,420.467 121.808,415.318 z "
       style="fill:#ffffff;fill-rule:evenodd;stroke:#000000;stroke-width:0.036;stroke-miterlimit:10"
       id="path41" />
    <path
       d="M 124.292,415.93 L 110.072,430.762 C 111.44,433.102 113.24,433.678 115.328,432.635 C 117.416,431.446 120.26,426.621 122.744,424.281 C 125.192,421.978 127.46,420.07 129.836,418.701 C 128,417.803 126.164,416.865 124.292,415.93 z "
       style="fill:#ffffff;fill-rule:evenodd;stroke:#000000;stroke-width:0.036;stroke-miterlimit:10"
       id="path43" />
    <path
       d="M 117.812,434.471 C 126.38,426.299 131.744,420.754 134.192,417.155 C 136.532,413.698 134.012,414.132 132.032,413.446 C 129.908,412.69 123.86,413.915 121.808,412.548 C 119.648,410.964 118.604,406.282 119.648,404.484 C 120.728,402.576 125.588,401.603 128,401.423 C 130.232,401.171 131.06,401.64 133.256,402.972 C 135.38,404.232 138.008,406.283 140.996,409.128 L 144.38,406.03 C 145.676,406.102 146.504,406.571 146.864,407.579 C 147.26,408.515 148.448,409.128 146.54,411.899 C 144.344,414.598 138.8,419.026 134.48,423.67 C 130.16,428.205 125.732,433.066 120.908,438.791 C 119.9,437.35 118.856,435.91 117.812,434.471 z "
       style="fill:#ffffff;fill-rule:evenodd;stroke:#000000;stroke-width:0.036;stroke-miterlimit:10"
       id="path45" />
    <path
       d="M 145.316,431.375 C 141.716,432.85 139.088,435.227 137.288,438.502 C 135.452,441.742 134.516,445.811 134.48,450.85 C 135.128,452.399 135.884,452.399 136.352,450.85 C 136.748,449.194 136.136,444.299 137.576,441.598 C 139.052,438.719 143.948,436.594 145.316,434.795 C 146.576,433.102 146.576,431.914 145.316,431.375 z "
       style="fill:#ffffff;fill-rule:evenodd;stroke:#000000;stroke-width:0.036;stroke-miterlimit:10"
       id="path47" />
    <path
       d="M 149.959,427.055 C 151.075,425.578 155.863,422.051 157.375,421.186 C 158.779,420.323 159.643,421.006 158.599,422.411 C 157.303,423.778 152.083,428.315 150.571,429.216 C 149.06,429.971 148.808,428.277 149.959,427.055 z "
       style="fill:#ffffff;fill-rule:evenodd;stroke:#000000;stroke-width:0.036;stroke-miterlimit:10"
       id="path49" />
    <path
       d="M 151.796,434.182 C 154.676,435.407 156.188,437.205 156.728,439.727 C 157.052,442.247 155.864,445.846 154.568,449.014 C 153.272,451.967 151.148,456.106 149.312,457.979 C 147.332,459.743 145.604,460.463 143.444,460.139 C 141.212,459.743 138.98,458.303 136.352,455.819 C 137.468,455.171 138.332,454.487 138.8,453.622 C 139.268,452.686 138.728,452.038 139.124,450.563 C 139.412,448.979 139.556,445.991 140.672,444.37 C 141.752,442.679 143.624,442.319 145.604,440.663 C 147.476,438.861 149.492,436.846 151.796,434.182 z "
       style="fill:#ffffff;fill-rule:evenodd;stroke:#000000;stroke-width:0.036;stroke-miterlimit:10"
       id="path51" />
    <path
       d="M 153.344,432.311 C 156.008,433.03 158.276,433.391 160.148,433.247 C 161.948,432.995 163.856,432.563 164.468,431.376 C 165.044,430.187 164.684,428.388 163.532,426.118 L 225.056,359.987 L 222.572,358.151 L 210.836,371.11 L 207.416,368.95 C 207.416,372.514 206.228,375.143 203.708,376.979 C 201.116,378.743 197.444,379.678 192.296,379.786 L 195.392,385.331 L 182.72,399.263 L 179.912,396.779 C 180.092,400.595 179.48,403.476 178.076,405.42 C 176.6,407.291 173.36,407.291 171.272,408.191 C 169.076,409.019 167.06,409.703 165.08,410.388 C 167.6,411.396 169.04,412.583 169.112,414.095 C 169.148,415.572 168.284,416.22 165.692,419.351 C 163.028,422.338 158.959,426.658 153.344,432.311 z "
       style="fill:#ffffff;fill-rule:evenodd;stroke:#000000;stroke-width:0.036;stroke-miterlimit:10"
       id="path53" />
    <path
       d="M 85.952,491.639 L 127.388,449.627 L 128.936,453.945 L 88.148,496.281 C 87.032,496.174 86.348,495.814 85.952,495.058 C 85.556,494.23 85.556,493.186 85.952,491.639 z "
       style="fill:#ffffff;fill-rule:evenodd;stroke:#000000;stroke-width:0.036;stroke-miterlimit:10"
       id="path55" />
    <path
       d="M 123.968,440.518 L 132.932,430.942 L 136.028,435.551 C 134.408,436.701 133.22,438.61 132.32,441.131 C 131.42,443.613 130.952,446.854 130.772,450.705 C 128.504,447.322 126.236,443.938 123.968,440.518 z "
       style="fill:#ffffff;fill-rule:evenodd;stroke:#000000;stroke-width:0.036;stroke-miterlimit:10"
       id="path57" />
    <path
       d="M 137.9,426.91 C 140.204,423.635 142.436,420.646 144.992,417.945 C 147.512,415.138 149.96,412.761 152.732,410.529 L 156.116,416.398 C 153.704,417.334 151.796,418.63 150.248,420.429 C 148.664,422.23 147.584,424.245 146.864,426.909 C 144.596,428.097 142.868,428.997 141.284,430.005 C 139.7,430.905 138.512,431.734 137.576,432.489 C 137.684,430.654 137.792,428.781 137.9,426.91 z "
       style="fill:#ffffff;fill-rule:evenodd;stroke:#000000;stroke-width:0.036;stroke-miterlimit:10"
       id="path59" />
    <path
       d="M 158.276,407.146 C 156.764,406.101 155.576,404.445 154.568,402.177 C 153.56,399.693 152.012,396.058 152.408,393.214 C 152.696,390.298 154.316,386.696 156.44,385.185 C 158.456,383.673 161.408,383.638 164.468,383.962 C 167.42,384.105 171.92,384.97 174.368,386.409 C 176.708,387.813 178.148,389.722 178.688,392.276 L 176.204,391.989 C 177.248,392.673 177.248,392.673 176.204,391.989 C 175.088,391.161 172.136,388.425 169.724,387.669 C 167.132,386.878 163.424,386.626 161.372,387.345 C 159.248,387.958 158.096,390.046 157.376,391.665 C 156.584,393.177 156.332,394.833 157.052,396.921 C 157.772,398.937 159.32,401.314 161.696,404.05 C 160.58,405.059 159.428,406.102 158.276,407.146 z "
       style="fill:#ffffff;fill-rule:evenodd;stroke:#000000;stroke-width:0.036;stroke-miterlimit:10"
       id="path61" />
    <path
       d="M 175.592,394.762 C 175.88,398.037 175.412,400.414 174.044,401.891 C 172.676,403.295 170.516,403.799 167.565,403.403 C 165.801,404.518 165.081,405.346 165.405,405.887 C 165.729,406.391 167.385,406.967 169.401,406.498 C 171.273,405.777 175.737,404.445 176.817,402.502 C 177.788,400.559 177.428,397.93 175.592,394.762 z "
       style="fill:#ffffff;fill-rule:evenodd;stroke:#000000;stroke-width:0.036;stroke-miterlimit:10"
       id="path63" />
    <path
       d="M 164.468,401.566 C 163.1,401.459 160.688,399.334 160.148,397.533 C 159.536,395.627 159.932,391.449 160.76,390.441 C 161.444,389.433 163.748,390.441 164.468,391.379 C 165.044,392.205 164.18,394.186 164.792,395.373 C 165.368,396.383 168.212,397.174 168.176,398.182 C 168.068,399.227 165.728,401.602 164.468,401.566 z "
       style="fill:#ffffff;fill-rule:evenodd;stroke:#000000;stroke-width:0.036;stroke-miterlimit:10"
       id="path65" />
    <path
       d="M 186.212,377.158 C 184.736,376.15 183.584,374.601 182.612,372.369 C 181.64,369.994 180.164,366.467 180.524,363.73 C 180.884,360.921 182.324,357.466 184.412,355.99 C 186.32,354.551 189.236,354.478 192.188,354.802 C 195.104,354.982 199.244,355.773 201.692,357.177 C 203.924,358.509 205.364,360.345 205.868,362.829 L 203.492,362.542 C 204.5,363.226 204.5,363.226 203.492,362.542 C 202.34,361.714 199.604,359.157 197.228,358.364 C 194.708,357.536 191.252,357.393 189.2,358.077 C 187.112,358.688 185.996,360.634 185.312,362.253 C 184.484,363.657 184.34,365.386 185.024,367.294 C 185.744,369.237 187.184,371.577 189.488,374.169 C 188.408,375.143 187.328,376.15 186.212,377.158 z "
       style="fill:#ffffff;fill-rule:evenodd;stroke:#000000;stroke-width:0.036;stroke-miterlimit:10"
       id="path67" />
    <path
       d="M 202.916,365.242 C 203.204,368.41 202.7,370.642 201.404,372.082 C 200.108,373.414 198.02,373.953 195.14,373.559 C 193.412,374.674 192.764,375.43 193.052,375.971 C 193.34,376.403 194.96,377.051 196.94,376.547 C 198.812,375.899 202.952,374.567 204.104,372.693 C 205.076,370.785 204.68,368.303 202.916,365.242 z "
       style="fill:#ffffff;fill-rule:evenodd;stroke:#000000;stroke-width:0.036;stroke-miterlimit:10"
       id="path69" />
    <path
       d="M 192.152,371.795 C 190.784,371.613 188.552,369.67 187.976,367.906 C 187.4,365.998 187.832,362.146 188.588,361.066 C 189.272,360.093 191.432,361.029 192.152,361.929 C 192.728,362.722 191.864,364.665 192.476,365.818 C 193.052,366.789 195.716,367.547 195.752,368.517 C 195.68,369.598 193.375,371.758 192.152,371.795 z "
       style="fill:#ffffff;fill-rule:evenodd;stroke:#000000;stroke-width:0.036;stroke-miterlimit:10"
       id="path71" />
    <path
       d="M 214.328,351.201 C 212.78,350.193 211.772,348.646 210.764,346.414 C 209.792,344.037 208.316,340.51 208.676,337.773 C 208.964,334.966 210.476,331.509 212.528,330.033 C 214.508,328.594 217.244,328.521 220.304,328.845 C 223.184,329.025 227.468,329.818 229.844,331.222 C 232.076,332.554 233.516,334.39 234.02,336.872 L 231.608,336.585 C 232.616,337.269 232.616,337.269 231.608,336.585 C 230.456,335.757 227.72,333.2 225.344,332.409 C 222.824,331.581 219.368,331.436 217.316,332.12 C 215.228,332.733 214.112,334.677 213.428,336.298 C 212.6,337.7 212.456,339.429 213.14,341.337 C 213.86,343.28 215.3,345.62 217.604,348.214 C 216.524,349.186 215.444,350.193 214.328,351.201 z "
       style="fill:#ffffff;fill-rule:evenodd;stroke:#000000;stroke-width:0.036;stroke-miterlimit:10"
       id="path73" />
    <path
       d="M 231.032,339.25 C 231.32,342.383 230.816,344.723 229.52,346.127 C 228.224,347.459 226.136,347.998 223.256,347.602 C 221.564,348.719 220.88,349.475 221.204,350.014 C 221.492,350.446 223.148,351.094 225.056,350.59 C 226.928,349.942 231.068,348.61 232.22,346.738 C 233.192,344.83 232.796,342.383 231.032,339.25 z "
       style="fill:#ffffff;fill-rule:evenodd;stroke:#000000;stroke-width:0.036;stroke-miterlimit:10"
       id="path75" />
    <path
       d="M 220.304,345.838 C 218.936,345.658 216.704,343.715 216.128,341.949 C 215.48,339.97 215.948,336.154 216.704,335.074 C 217.352,334.066 219.62,335.109 220.304,335.974 C 220.916,336.765 219.944,338.71 220.592,339.861 C 221.168,340.834 223.832,341.59 223.868,342.562 C 223.724,343.643 221.563,345.803 220.304,345.838 z "
       style="fill:#ffffff;fill-rule:evenodd;stroke:#000000;stroke-width:0.036;stroke-miterlimit:10"
       id="path77" />
    <path
       d="M 237.476,325.857 C 236.072,324.886 234.992,323.482 234.092,321.357 C 233.156,319.162 231.86,315.814 232.148,313.257 C 232.436,310.63 233.84,307.353 235.784,305.948 C 237.656,304.546 240.176,304.546 243.056,304.833 C 245.792,305.013 249.752,305.769 252.02,307.101 C 254.18,308.361 255.44,310.126 255.944,312.394 L 253.712,312.142 C 254.648,312.753 254.648,312.753 253.712,312.142 C 252.668,311.349 250.112,308.974 247.844,308.218 C 245.576,307.462 242.084,307.318 240.284,307.929 C 238.34,308.47 237.26,310.378 236.612,311.853 C 235.82,313.257 235.784,314.662 236.36,316.605 C 236.972,318.513 238.412,320.566 240.536,323.05 C 239.528,323.986 238.52,324.922 237.476,325.857 z "
       style="fill:#ffffff;fill-rule:evenodd;stroke:#000000;stroke-width:0.036;stroke-miterlimit:10"
       id="path79" />
    <path
       d="M 253.136,314.662 C 253.352,317.613 253.028,319.81 251.768,321.105 C 250.472,322.365 248.636,322.869 245.864,322.474 C 244.28,323.482 243.632,324.238 243.92,324.742 C 244.1,325.101 245.828,325.785 247.556,325.281 C 249.284,324.705 253.28,323.445 254.288,321.646 C 255.224,319.883 254.792,317.506 253.136,314.662 z "
       style="fill:#ffffff;fill-rule:evenodd;stroke:#000000;stroke-width:0.036;stroke-miterlimit:10"
       id="path81" />
    <path
       d="M 243.056,320.818 C 241.688,320.601 239.78,318.873 239.132,317.181 C 238.556,315.452 239.024,311.638 239.708,310.738 C 240.356,309.693 242.3,310.845 243.056,311.566 C 243.524,312.322 242.84,314.086 243.344,315.201 C 243.884,316.246 246.404,316.715 246.44,317.722 C 246.332,318.621 244.28,320.854 243.056,320.818 z "
       style="fill:#ffffff;fill-rule:evenodd;stroke:#000000;stroke-width:0.036;stroke-miterlimit:10"
       id="path83" />
    <path
       d="M 25.184,576.742 C 25.832,576.346 25.544,575.375 24.716,573.681 C 23.744,571.845 21.8,568.929 19.712,566.482 C 17.516,564.033 15.104,561.621 12.08,559.246 L 15.572,556.654 C 18.884,559.57 21.368,562.162 23.42,564.285 C 25.292,566.41 26.408,567.887 27.344,569.543 C 28.244,571.197 29.432,572.854 29.108,574.113 C 28.712,575.23 27.452,576.238 25.184,576.742 z "
       style="fill:#ffffff;fill-rule:evenodd;stroke:#000000;stroke-width:0.036;stroke-miterlimit:10"
       id="path85" />
    <path
       d="M 13.375,555.754 C 11.683,554.566 10.027,553.594 8.803,552.693 C 7.543,551.685 6.643,550.318 5.527,550.533 C 4.231,550.75 3.043,551.865 1.567,554.025 C 3.979,554.925 5.779,555.681 7.255,556.437 C 8.659,557.121 9.559,557.769 10.099,558.382 C 11.18,557.518 12.26,556.654 13.375,555.754 z "
       style="fill:#ffffff;fill-rule:evenodd;stroke:#000000;stroke-width:0.036;stroke-miterlimit:10"
       id="path87" />
    <path
       d="M 136.748,393.178 C 134.12,391.846 133.004,390.803 133.256,389.903 C 133.508,388.93 135.128,388.247 138.26,387.706 L 144.38,382.702 C 142.904,381.552 142.472,380.579 143.084,379.643 C 143.696,378.635 145.316,377.807 148.088,377.014 L 161.84,363.262 C 160.4,360.815 159.968,359.158 160.544,358.438 C 161.084,357.61 162.56,357.682 165.116,358.655 L 172.784,350.807 C 171.992,349.295 171.92,348.323 172.568,347.746 C 173.216,347.169 174.476,347.098 176.492,347.529 L 197.012,328.773 C 195.788,327.406 195.5,326.326 196.148,325.39 C 196.796,324.382 199.568,323.697 200.72,323.193 C 201.728,322.689 202.52,322.474 202.7,322.547 L 230.852,293.494 C 233.948,291.873 234.884,292.234 233.264,294.574 C 231.644,296.914 227.756,301.162 221.456,307.463 C 226.352,309.91 228.692,311.711 228.872,312.719 C 228.8,313.69 223.112,312.826 222.104,313.582 C 221.132,314.23 224.444,317.146 223.436,317.074 C 222.356,316.929 219.8,315.597 215.768,312.933 L 203.996,324.704 C 205.796,325.893 206.984,326.936 207.704,327.981 C 208.352,328.952 208.172,330.176 208.136,330.825 C 207.956,331.364 208.244,331.798 207.056,331.725 C 205.868,331.58 203.78,331.112 200.936,330.176 L 179.768,349.401 L 184.124,353.756 C 183.224,353.936 182.612,354.44 182.144,354.871 C 181.676,355.305 181.388,355.881 181.28,356.6 L 176.06,353.108 L 167.744,361.641 C 169.58,364.125 170.912,366.248 171.884,368.157 C 172.784,369.958 173.036,371.36 173.216,372.764 C 173.288,374.168 173,375.608 172.352,376.256 C 171.416,376.615 169.724,375.356 168.824,375.824 C 167.924,376.328 168.14,379.209 167.528,379.316 C 166.808,379.351 164.828,377.336 164.9,376.041 C 164.936,374.637 167.996,373.232 167.96,371.432 C 167.852,369.596 166.736,367.545 164.468,365.133 L 149.204,379.1 L 154.208,383.889 C 153.308,384.356 152.696,384.897 152.228,385.653 C 151.76,386.337 151.472,387.2 151.364,388.245 L 147.008,383.89 C 144.128,386.265 142.22,388.138 140.888,389.794 C 139.556,391.448 140.024,392.78 139.376,393.501 C 138.656,394.006 137.828,393.898 136.748,393.178 z "
       style="fill:#ffffff;fill-rule:evenodd;stroke:#000000;stroke-width:0.036;stroke-miterlimit:10"
       id="path89" />
    <path
       d="M 191.756,344.361 C 194.204,347.242 196.148,348.898 197.876,349.185 C 199.532,349.437 200.792,348.466 201.8,346.126 L 195.716,339.573 C 194.42,341.158 193.088,342.742 191.756,344.361 z "
       style="fill:#ffffff;fill-rule:evenodd;stroke:#000000;stroke-width:0.036;stroke-miterlimit:10"
       id="path91" />
    <path
       d="M 177.788,366.43 C 177.86,368.807 178.4,371.182 179.552,373.414 C 180.632,375.646 182.18,377.879 184.34,379.967 L 178.436,384.754 L 168.608,381.693 C 168.536,379.929 168.86,378.849 169.724,378.453 C 170.588,377.949 172.64,380.758 173.648,379.101 C 174.44,377.302 174.476,370.533 175.16,368.372 C 175.844,366.25 176.672,365.602 177.788,366.43 z "
       style="fill:#ffffff;fill-rule:evenodd;stroke:#000000;stroke-width:0.036;stroke-miterlimit:10"
       id="path93" />
    <path
       d="M 176.924,356.818 L 172.352,361.642 L 173.648,366.429 C 174.152,364.593 174.728,363.046 175.376,361.642 C 176.024,360.165 176.636,359.121 177.356,358.113 C 177.212,357.682 177.068,357.25 176.924,356.818 z "
       style="fill:#ffffff;fill-rule:evenodd;stroke:#000000;stroke-width:0.036;stroke-miterlimit:10"
       id="path95" />
    <path
       d="M 161.192,372.117 L 154.208,378.887 L 156.836,382.379 C 158.348,381.479 159.824,381.01 161.408,380.83 C 162.992,380.65 164.396,380.865 166.016,381.478 C 163.82,380.361 162.488,379.101 161.624,377.554 C 160.796,375.934 160.652,374.17 161.192,372.117 z "
       style="fill:#ffffff;fill-rule:evenodd;stroke:#000000;stroke-width:0.036;stroke-miterlimit:10"
       id="path97" />
    <path
       d="M 147.224,387.598 C 144.164,388.967 142.616,390.369 142.436,392.205 C 142.256,393.971 145.64,396.201 146.36,398.074 C 147.008,399.873 147.08,401.277 146.576,402.681 L 150.068,408.117 L 152.696,405.058 C 150.608,402.033 149.24,399.55 148.736,397.21 C 148.232,394.798 149.384,392.78 149.42,391.306 C 149.276,389.794 148.88,388.857 148.088,388.497 L 147.224,387.598 z "
       style="fill:#ffffff;fill-rule:evenodd;stroke:#000000;stroke-width:0.036;stroke-miterlimit:10"
       id="path99" />
    <path
       d="M 180.848,389.795 L 190.892,380.399 L 192.188,385.223 L 181.928,396.131 L 180.848,389.795 z "
       style="fill:#ffffff;fill-rule:evenodd;stroke:#000000;stroke-width:0.036;stroke-miterlimit:10"
       id="path101" />
    <path
       d="M 215.336,354.621 L 209.9,361.174 L 210.332,366.215 L 218.18,357.467 L 215.336,354.621 z "
       style="fill:#ffffff;fill-rule:evenodd;stroke:#000000;stroke-width:0.036;stroke-miterlimit:10"
       id="path103" />
    <path
       d="M 241.112,329.314 L 236.324,334.75 L 235.892,336.514 L 241.976,332.59 L 241.112,329.314 z "
       style="fill:#ffffff;fill-rule:evenodd;stroke:#000000;stroke-width:0.036;stroke-miterlimit:10"
       id="path105" />
    <path
       d="M 217.316,315.563 L 209.252,324.274 L 213.608,327.118 C 215.912,326.796 218,326.651 219.728,326.686 C 221.492,326.723 222.896,326.938 224.084,327.334 L 229.34,321.898 C 226.496,321.753 224.336,321.681 223.004,321.681 C 221.636,321.501 221.996,321.322 221.024,321.681 C 219.944,322.077 218.54,322.869 216.668,324.058 C 214.868,324.201 214.328,323.841 214.904,322.978 C 215.444,322.042 217.244,320.638 220.16,318.621 C 219.224,317.613 218.288,316.605 217.316,315.563 z "
       style="fill:#ffffff;fill-rule:evenodd;stroke:#000000;stroke-width:0.036;stroke-miterlimit:10"
       id="path107" />
    <path
       d="M 224.3,356.098 C 226.1,354.118 227.72,352.571 229.556,351.311 C 231.32,350.051 233.516,350.014 234.776,348.682 C 235.892,347.278 234.884,345.442 236.756,343.03 C 238.52,340.475 241.076,339.323 245.684,334.282 C 250.22,329.206 256.34,322.296 264.044,313.114 C 264.044,313.475 264.548,313.762 265.556,313.979 C 266.564,314.122 267.932,314.194 269.948,314.194 L 227.36,358.296 C 226.352,357.574 225.344,356.854 224.3,356.098 z "
       style="fill:#ffffff;fill-rule:evenodd;stroke:#000000;stroke-width:0.036;stroke-miterlimit:10"
       id="path109" />
    <path
       d="M 264.764,310.773 C 263.396,309.873 262.28,308.433 261.416,306.31 C 260.408,304.185 259.148,300.693 259.436,298.173 C 259.724,295.581 261.128,292.234 263.072,290.902 C 264.908,289.498 267.536,289.498 270.38,289.786 C 273.116,289.93 277.076,290.723 279.344,292.017 C 281.467,293.277 282.764,295.005 283.233,297.345 L 281,297.059 C 281.936,297.67 281.936,297.67 281,297.059 C 279.955,296.266 277.4,293.891 275.132,293.135 C 272.864,292.379 269.372,292.235 267.572,292.846 C 265.628,293.387 264.548,295.295 263.936,296.77 C 263.18,298.174 263.036,299.579 263.648,301.522 C 264.26,303.43 265.664,305.483 267.86,307.967 C 266.852,308.902 265.808,309.838 264.764,310.773 z "
       style="fill:#ffffff;fill-rule:evenodd;stroke:#000000;stroke-width:0.036;stroke-miterlimit:10"
       id="path111" />
    <path
       d="M 280.459,299.578 C 280.711,302.529 280.244,304.726 279.057,306.021 C 277.76,307.318 275.924,307.785 273.152,307.425 C 271.568,308.47 270.92,309.116 271.208,309.657 C 271.388,309.981 273.116,310.772 274.844,310.233 C 276.572,309.585 280.569,308.36 281.576,306.561 C 282.477,304.689 282.152,302.494 280.459,299.578 z "
       style="fill:#ffffff;fill-rule:evenodd;stroke:#000000;stroke-width:0.036;stroke-miterlimit:10"
       id="path113" />
    <path
       d="M 270.38,305.734 C 269.012,305.517 267.104,303.789 266.456,302.097 C 265.808,300.368 266.312,296.554 266.996,295.654 C 267.716,294.609 269.624,295.761 270.38,296.482 C 270.884,297.238 270.092,298.966 270.632,300.154 C 271.172,301.197 273.692,301.666 273.728,302.674 C 273.548,303.609 271.64,305.734 270.38,305.734 z "
       style="fill:#ffffff;fill-rule:evenodd;stroke:#000000;stroke-width:0.036;stroke-miterlimit:10"
       id="path115" />
    <path
       d="M 283.375,286.114 C 282.043,285.25 280.963,283.81 280.135,281.794 C 279.127,279.67 278.047,276.466 278.264,273.982 C 278.481,271.426 279.92,268.402 281.756,266.998 C 283.52,265.594 286.039,265.702 288.776,265.918 C 291.368,266.062 295.256,266.782 297.38,268.078 C 299.433,269.266 300.693,270.922 301.161,273.19 L 299.001,272.902 C 299.901,273.514 299.901,273.514 299.001,272.902 C 297.956,272.218 295.474,269.806 293.349,269.158 C 291.189,268.51 287.841,268.186 286.078,268.87 C 284.242,269.518 283.125,271.102 282.586,272.65 C 281.83,273.946 281.686,275.422 282.297,277.222 C 282.91,278.95 284.205,281.11 286.33,283.414 C 285.355,284.314 284.383,285.214 283.375,286.114 z "
       style="fill:#ffffff;fill-rule:evenodd;stroke:#000000;stroke-width:0.036;stroke-miterlimit:10"
       id="path117" />
    <path
       d="M 298.459,275.35 C 298.711,278.158 298.316,280.318 297.127,281.542 C 295.939,282.73 294.104,283.27 291.477,282.874 C 289.963,283.846 289.28,284.566 289.569,285.034 C 289.856,285.466 291.296,285.97 293.061,285.574 C 294.645,285.034 298.604,283.774 299.54,282.082 C 300.404,280.426 300.043,278.05 298.459,275.35 z "
       style="fill:#ffffff;fill-rule:evenodd;stroke:#000000;stroke-width:0.036;stroke-miterlimit:10"
       id="path119" />
    <path
       d="M 288.775,281.254 C 287.48,281.11 285.572,279.346 284.996,277.762 C 284.383,275.998 284.889,272.542 285.535,271.57 C 286.111,270.67 288.164,271.534 288.775,272.362 C 289.279,273.082 288.488,274.81 289.027,275.89 C 289.568,276.898 291.943,277.33 291.98,278.302 C 291.871,279.202 289.928,281.29 288.775,281.254 z "
       style="fill:#ffffff;fill-rule:evenodd;stroke:#000000;stroke-width:0.036;stroke-miterlimit:10"
       id="path121" />
    <path
       d="M 298.244,265.378 C 296.912,264.514 295.832,263.074 295.004,261.058 C 293.996,258.934 292.916,255.73 293.131,253.246 C 293.455,250.69 294.752,247.666 296.623,246.262 C 298.459,244.858 300.836,244.966 303.607,245.182 C 306.199,245.326 310.087,246.046 312.211,247.342 C 314.264,248.53 315.524,250.186 315.992,252.454 L 313.832,252.166 C 314.732,252.778 314.732,252.778 313.832,252.166 C 312.787,251.482 310.305,249.07 308.18,248.422 C 306.02,247.774 302.672,247.45 300.909,248.134 C 299.073,248.782 297.956,250.366 297.417,251.914 C 296.733,253.21 296.517,254.686 297.165,256.486 C 297.776,258.214 299.073,260.374 301.196,262.678 C 300.225,263.578 299.252,264.478 298.244,265.378 z "
       style="fill:#ffffff;fill-rule:evenodd;stroke:#000000;stroke-width:0.036;stroke-miterlimit:10"
       id="path123" />
    <path
       d="M 313.291,254.614 C 313.543,257.422 313.148,259.582 311.959,260.806 C 310.771,261.994 308.936,262.534 306.309,262.138 C 304.76,263.11 304.184,263.83 304.436,264.298 C 304.725,264.658 306.165,265.342 307.928,264.838 C 309.584,264.226 313.401,263.002 314.371,261.31 C 315.236,259.582 314.875,257.35 313.291,254.614 z "
       style="fill:#ffffff;fill-rule:evenodd;stroke:#000000;stroke-width:0.036;stroke-miterlimit:10"
       id="path125" />
    <path
       d="M 303.607,260.518 C 302.312,260.374 300.404,258.61 299.828,257.026 C 299.215,255.262 299.719,251.806 300.367,250.834 C 300.943,249.934 302.996,250.798 303.607,251.626 C 304.111,252.382 303.283,254.002 303.896,255.118 C 304.435,256.09 306.812,256.63 306.847,257.566 C 306.775,258.466 304.725,260.554 303.607,260.518 z "
       style="fill:#ffffff;fill-rule:evenodd;stroke:#000000;stroke-width:0.036;stroke-miterlimit:10"
       id="path127" />
    <path
       d="M 314.84,247.234 C 313.508,246.37 312.428,244.93 311.6,242.914 C 310.592,240.826 309.512,237.586 309.729,235.138 C 310.051,232.618 311.348,229.45 313.219,228.118 C 315.057,226.714 317.432,226.822 320.203,227.038 C 322.795,227.182 326.683,227.902 328.808,229.198 C 330.859,230.386 332.119,232.042 332.587,234.31 L 330.427,234.058 C 331.327,234.67 331.327,234.67 330.427,234.058 C 329.382,233.41 326.9,230.854 324.775,230.278 C 322.615,229.594 319.267,229.378 317.504,230.026 C 315.668,230.566 314.551,232.33 314.012,233.77 C 313.328,235.066 313.112,236.542 313.76,238.342 C 314.371,240.07 315.668,242.23 317.791,244.534 C 316.82,245.434 315.848,246.334 314.84,247.234 z "
       style="fill:#ffffff;fill-rule:evenodd;stroke:#000000;stroke-width:0.036;stroke-miterlimit:10"
       id="path129" />
    <path
       d="M 329.889,236.47 C 330.141,239.278 329.744,241.438 328.557,242.662 C 327.368,243.85 325.532,244.39 322.905,243.994 C 321.356,244.966 320.78,245.686 321.032,246.154 C 321.321,246.586 322.761,247.09 324.524,246.694 C 326.18,246.154 329.997,244.894 330.967,243.202 C 331.832,241.546 331.473,239.17 329.889,236.47 z "
       style="fill:#ffffff;fill-rule:evenodd;stroke:#000000;stroke-width:0.036;stroke-miterlimit:10"
       id="path131" />
    <path
       d="M 320.203,242.41 C 318.908,242.122 317,240.574 316.424,238.882 C 315.813,237.118 316.317,233.662 316.963,232.69 C 317.539,231.754 319.592,232.726 320.203,233.518 C 320.707,234.274 319.879,235.894 320.492,237.01 C 321.031,238.018 323.408,238.45 323.443,239.422 C 323.371,240.358 321.32,242.374 320.203,242.41 z "
       style="fill:#ffffff;fill-rule:evenodd;stroke:#000000;stroke-width:0.036;stroke-miterlimit:10"
       id="path133" />
    <path
       d="M 332.229,226.714 C 331.473,226.282 330.86,225.346 330.393,224.302 C 329.852,223.078 329.131,221.242 329.348,219.91 C 329.493,218.362 330.284,216.778 331.328,215.986 C 332.299,215.158 333.703,215.23 335.252,215.374 C 336.691,215.41 338.816,215.806 340.076,216.562 C 341.191,217.174 341.947,218.182 342.199,219.442 L 340.976,219.298 C 341.48,219.658 341.48,219.658 340.976,219.298 C 340.328,218.83 338.996,217.606 337.808,217.174 C 336.476,216.778 334.747,216.634 333.74,217.03 C 332.695,217.354 332.084,218.254 331.76,219.154 C 331.364,219.874 331.219,220.63 331.615,221.71 C 331.976,222.754 332.732,223.87 333.883,225.202 C 333.344,225.706 332.805,226.21 332.229,226.714 z "
       style="fill:#ffffff;fill-rule:evenodd;stroke:#000000;stroke-width:0.036;stroke-miterlimit:10"
       id="path135" />
    <path
       d="M 340.688,220.666 C 340.795,222.286 340.543,223.402 339.932,224.158 C 339.248,224.806 338.241,225.058 336.764,224.914 C 335.901,225.454 335.539,225.85 335.684,226.102 C 335.791,226.354 336.729,226.606 337.664,226.426 C 338.707,226.138 340.615,225.346 341.299,224.446 C 341.732,223.366 341.623,222.286 340.688,220.666 z "
       style="fill:#ffffff;fill-rule:evenodd;stroke:#000000;stroke-width:0.036;stroke-miterlimit:10"
       id="path137" />
    <path
       d="M 335.252,223.978 C 334.531,223.798 333.451,222.97 333.127,222.034 C 332.84,221.062 332.984,218.974 333.416,218.542 C 333.74,217.966 334.82,218.578 335.252,219.01 C 335.539,219.37 335.072,220.342 335.397,220.954 C 335.756,221.458 336.909,221.782 337.051,222.322 C 336.908,222.79 335.936,223.942 335.252,223.978 z "
       style="fill:#ffffff;fill-rule:evenodd;stroke:#000000;stroke-width:0.036;stroke-miterlimit:10"
       id="path139" />
    <path
       d="M 355.375,200.29 C 354.619,199.858 354.008,198.922 353.539,197.878 C 353,196.654 352.279,194.818 352.496,193.486 C 352.641,191.938 353.432,190.354 354.476,189.562 C 355.447,188.734 356.851,188.806 358.4,188.95 C 359.839,189.058 361.963,189.418 363.224,190.174 C 364.339,190.786 365.095,191.83 365.347,193.018 L 364.122,192.874 C 364.626,193.234 364.626,193.234 364.122,192.874 C 363.476,192.406 362.143,191.182 360.954,190.75 C 359.622,190.354 357.895,190.21 356.888,190.606 C 355.843,190.93 355.232,191.83 354.908,192.73 C 354.512,193.45 354.367,194.206 354.763,195.286 C 355.122,196.33 355.878,197.446 357.031,198.778 C 356.492,199.282 355.951,199.786 355.375,200.29 z "
       style="fill:#ffffff;fill-rule:evenodd;stroke:#000000;stroke-width:0.036;stroke-miterlimit:10"
       id="path141" />
    <path
       d="M 363.836,194.242 C 363.943,195.862 363.691,196.978 363.08,197.734 C 362.396,198.382 361.389,198.634 359.912,198.49 C 359.047,199.03 358.687,199.426 358.832,199.678 C 358.939,199.93 359.875,200.182 360.812,200.002 C 361.855,199.714 363.763,198.922 364.447,198.022 C 364.879,196.942 364.771,195.862 363.836,194.242 z "
       style="fill:#ffffff;fill-rule:evenodd;stroke:#000000;stroke-width:0.036;stroke-miterlimit:10"
       id="path143" />
    <path
       d="M 358.4,197.554 C 357.679,197.374 356.599,196.546 356.275,195.61 C 355.988,194.638 356.13,192.55 356.564,192.118 C 356.888,191.542 357.966,192.154 358.4,192.586 C 358.687,192.946 358.22,193.918 358.543,194.53 C 358.904,195.034 360.057,195.358 360.199,195.898 C 360.057,196.366 359.084,197.518 358.4,197.554 z "
       style="fill:#ffffff;fill-rule:evenodd;stroke:#000000;stroke-width:0.036;stroke-miterlimit:10"
       id="path145" />
    <path
       d="M 270.812,282.046 C 277.292,288.274 282.405,293.17 286.543,296.879 C 290.611,300.551 291.799,302.818 295.256,304.113 C 298.604,305.23 303.715,305.051 306.848,304.113 C 309.909,303.105 313.905,300.189 313.832,298.425 C 313.543,296.445 308.973,293.601 305.947,293.386 C 302.851,293.386 298.531,297.165 295.904,297.777 C 293.168,298.246 293.707,298.677 290.035,296.013 C 286.328,293.097 281.107,288.273 274.088,280.966 C 273.008,281.326 271.928,281.686 270.812,282.046 z "
       style="fill:#ffffff;fill-rule:evenodd;stroke:#000000;stroke-width:0.036;stroke-miterlimit:10"
       id="path147" />
    <path
       d="M 303.787,272.434 C 303.967,273.226 304.111,274.234 304.219,275.062 C 304.328,275.854 304.401,276.862 304.436,277.69 C 322.977,258.034 340.94,238.99 359.444,219.586 C 377.876,200.182 395.876,181.39 414.272,162.238 C 414.668,159.682 414.813,157.81 414.704,156.766 C 414.597,155.614 414.237,155.254 413.624,155.686 L 335.216,238.882 C 334.208,242.122 332.876,244.714 331.077,246.514 C 329.313,248.35 327.081,249.394 324.524,249.79 L 317.973,256.558 C 318.295,258.43 317.756,260.302 316.207,262.03 C 314.695,263.794 312.176,265.414 308.791,267.034 C 307.135,268.834 305.48,270.634 303.787,272.434 z "
       style="fill:#ffffff;fill-rule:evenodd;stroke:#000000;stroke-width:0.036;stroke-miterlimit:10"
       id="path149" />
    <path
       d="M 401.383,145.138 C 405.416,144.994 408.404,145.714 410.348,146.902 C 412.256,148.054 413.119,150.07 412.94,152.554 L 344.829,221.998 C 345.44,219.262 345.009,217.102 343.532,215.662 C 341.948,214.114 339.321,213.25 335.649,213.07 L 348.536,199.066 C 350.229,200.794 351.417,202.126 352.245,203.458 C 352.929,204.79 351.921,206.554 353.108,206.518 C 354.188,206.338 356.204,204.898 359.012,202.342 C 360.524,201.946 362.035,201.298 363.405,200.398 C 364.809,199.354 366.716,198.346 367.329,196.69 C 367.833,194.998 367.616,192.262 366.681,190.57 C 365.601,188.806 363.872,187.474 361.208,186.43 C 374.6,172.678 387.992,158.926 401.383,145.138 z "
       style="fill:#ffffff;fill-rule:evenodd;stroke:#000000;stroke-width:0.036;stroke-miterlimit:10"
       id="path151" />
    <path
       d="M 399.188,143.014 C 398.829,140.854 399.153,139.45 400.305,138.658 C 401.383,137.866 403.795,138.262 405.741,138.442 C 407.577,138.55 409.341,137.866 411.429,139.306 C 413.445,140.746 415.677,143.086 417.982,146.722 L 415.353,150.898 C 414.525,148.594 413.482,146.938 412.078,145.642 C 410.709,144.274 409.09,143.698 407.074,143.23 C 404.912,142.762 402.283,142.69 399.188,143.014 z "
       style="fill:#ffffff;fill-rule:evenodd;stroke:#000000;stroke-width:0.036;stroke-miterlimit:10"
       id="path153" />
    <path
       d="M 417.115,153.742 C 417.404,154.39 417.547,155.326 417.547,156.55 C 417.547,157.774 417.404,159.142 417.115,160.942 C 419.095,160.474 420.355,159.862 421.039,158.962 C 421.543,157.99 421.221,157.054 421.039,155.47 C 420.896,153.778 420.607,151.87 420.176,149.35 C 419.168,150.79 418.16,152.266 417.115,153.742 z "
       style="fill:#ffffff;fill-rule:evenodd;stroke:#000000;stroke-width:0.036;stroke-miterlimit:10"
       id="path155" />
    <path
       d="M 425.611,114.646 C 425.252,112.486 425.576,111.082 426.728,110.29 C 427.808,109.498 430.22,109.894 432.164,110.074 C 434,110.182 435.764,109.498 437.852,110.938 C 439.868,112.378 442.1,114.718 444.405,118.354 L 441.776,122.494 C 440.948,120.262 439.905,118.57 438.501,117.274 C 437.132,115.906 435.513,115.33 433.497,114.862 C 431.336,114.394 428.707,114.322 425.611,114.646 z "
       style="fill:#ffffff;fill-rule:evenodd;stroke:#000000;stroke-width:0.036;stroke-miterlimit:10"
       id="path157" />
    <path
       d="M 443.539,125.338 C 443.828,126.058 443.973,126.958 443.973,128.182 C 443.973,129.406 443.828,130.81 443.539,132.538 C 445.519,132.142 446.779,131.494 447.463,130.594 C 447.967,129.622 447.645,128.686 447.463,127.102 C 447.32,125.41 447.031,123.502 446.6,120.982 C 445.592,122.422 444.584,123.862 443.539,125.338 z "
       style="fill:#ffffff;fill-rule:evenodd;stroke:#000000;stroke-width:0.036;stroke-miterlimit:10"
       id="path159" />
    <path
       d="M 408.367,136.354 L 427.16,116.734 C 430.508,115.906 433.316,116.122 435.439,117.382 C 437.599,118.642 439.076,120.802 440.011,124.15 L 420.607,144.886 C 418.304,141.574 416.072,139.342 414.056,137.902 C 412.039,136.462 410.096,135.994 408.367,136.354 z "
       style="fill:#ffffff;fill-rule:evenodd;stroke:#000000;stroke-width:0.036;stroke-miterlimit:10"
       id="path161" />
    <path
       d="M 421.904,147.946 L 440.912,126.778 C 441.199,127.786 441.344,129.01 441.344,130.054 C 441.272,131.062 441.057,132.286 440.696,133.33 L 422.768,153.202 L 421.904,147.946 z "
       style="fill:#ffffff;fill-rule:evenodd;stroke:#000000;stroke-width:0.036;stroke-miterlimit:10"
       id="path163" />
    <path
       d="M 436.305,108.634 L 487.424,55.786 C 488.539,56.866 490.447,57.55 493.291,57.982 C 496.1,58.342 499.699,58.342 504.236,57.982 L 445.916,117.382 C 444.547,114.898 443.145,112.882 441.561,111.478 C 439.904,109.966 438.248,109.066 436.305,108.634 z "
       style="fill:#ffffff;fill-rule:evenodd;stroke:#000000;stroke-width:0.036;stroke-miterlimit:10"
       id="path165" />
    <path
       d="M 447.68,119.11 L 505.317,59.494 C 507.692,58.738 510.536,56.866 513.848,53.878 C 517.161,50.746 522.489,44.662 524.973,41.458 C 527.276,38.254 528.393,35.95 528.032,34.69 L 551.18,11.542 C 551.504,12.73 551.576,13.846 551.397,15.034 C 551.145,16.15 550.749,17.194 550.065,18.31 L 456.393,116.122 L 449.192,123.394 C 448.688,121.99 448.184,120.55 447.68,119.11 z "
       style="fill:#ffffff;fill-rule:evenodd;stroke:#000000;stroke-width:0.036;stroke-miterlimit:10"
       id="path167" />
    <path
       d="M 536.527,4.774 C 538.148,3.658 539.875,3.262 541.568,3.442 C 543.295,3.622 545.455,4.558 546.787,5.854 C 548.047,7.042 548.732,8.59 548.984,10.642 L 527.382,32.062 C 526.374,28.822 525.476,26.446 524.538,24.646 C 523.602,22.846 522.774,21.802 521.911,21.37 C 526.771,15.862 531.631,10.318 536.527,4.774 z "
       style="fill:#ffffff;fill-rule:evenodd;stroke:#000000;stroke-width:0.036;stroke-miterlimit:10"
       id="path169" />
    <path
       d="M 485.66,49.306 C 487.64,46.462 494.299,39.766 498.98,35.338 C 503.552,30.802 508.988,24.142 512.947,22.45 C 516.871,20.65 520.004,22.702 522.343,24.862 C 524.575,26.986 527.888,30.478 526.052,35.338 C 523.999,40.198 515.648,50.242 510.572,53.662 C 505.351,56.902 499.484,55.426 495.488,55.21 C 491.492,54.814 488.611,53.194 486.992,52.15 C 485.299,51.07 483.607,52.114 485.66,49.306 z "
       style="fill:#ffffff;fill-rule:evenodd;stroke:#000000;stroke-width:0.036;stroke-miterlimit:10"
       id="path171" />
    <path
       d="M 503.336,37.75 C 504.309,39.082 509.42,40.738 511.867,40.342 C 514.244,39.766 517.484,36.526 517.556,34.905 C 517.411,33.141 513.847,30.981 511.867,30.513 C 509.851,30.009 507.115,31.017 505.748,32.277 C 504.236,33.502 502.328,36.346 503.336,37.75 z "
       style="fill-rule:evenodd;stroke:#000000;stroke-width:0.036;stroke-miterlimit:10"
       id="path173" />
    <path
       d="M 537.428,1.066 C 538.473,0.778 539.805,0.778 541.569,1.066 C 543.296,1.354 546.249,1.93 547.905,2.794 C 549.561,3.622 550.604,5.062 551.18,6.286 C 551.576,7.366 551.36,8.662 550.532,9.778 C 549.884,7.474 548.913,5.782 547.473,4.558 C 545.996,3.226 543.799,2.542 542,2.362 C 540.092,2.182 538.4,2.614 536.527,3.658 C 536.816,2.794 537.104,1.93 537.428,1.066 z "
       style="fill:#ffffff;fill-rule:evenodd;stroke:#000000;stroke-width:0.036;stroke-miterlimit:10"
       id="path175" />
    <path
       d="M 236.612,288.598 C 241.652,283.162 246.692,278.05 251.588,273.118 C 256.52,268.222 261.308,263.506 266.096,259.114 C 265.592,257.854 265.556,256.738 266.384,256.054 C 267.14,255.226 268.472,254.83 270.524,254.578 L 280.1,243.526 C 279.416,242.554 279.416,241.618 280.1,241.114 C 280.711,240.502 282.008,240.142 283.989,240.034 L 298.928,225.418 C 298.207,224.05 298.207,222.934 298.928,222.358 C 299.649,221.746 300.981,221.386 303.069,221.566 C 305.229,218.326 306.921,216.706 308.001,216.31 C 309.116,215.95 310.017,218.218 309.585,219.514 C 309.044,220.702 307.497,222.07 304.94,223.618 L 309.188,228.154 C 308.973,228.082 308.612,228.262 308.252,229.09 C 307.82,229.738 307.389,231.034 306.813,232.582 L 301.592,227.362 L 286.653,241.51 L 293.204,246.586 C 292.772,246.91 292.268,247.486 291.981,248.458 C 291.547,249.394 291.333,250.582 291.043,252.166 L 282.799,245.902 L 273.584,255.91 L 280.784,263.398 C 280.425,263.686 280.028,264.118 279.596,264.982 C 279.092,265.81 278.696,266.782 278.119,268.186 L 273.44,263.506 L 256.232,282.298 L 261.452,287.086 C 260.372,287.446 259.616,287.986 259.04,288.706 C 258.5,289.426 258.14,290.219 258.104,291.227 L 252.92,286.294 L 244.352,294.43 C 243.632,295.979 242.84,296.807 241.976,297.311 C 241.04,297.706 239.276,297.526 239.024,296.915 C 238.7,296.159 237.944,295.87 240.104,293.423 C 242.192,290.976 245.972,287.339 251.588,282.371 L 269.3,263.831 L 267.716,261.959 C 255.98,274.775 247.7,283.163 242.48,287.699 C 237.26,292.127 235.352,292.379 236.612,288.598 z "
       style="fill:#ffffff;fill-rule:evenodd;stroke:#000000;stroke-width:0.036;stroke-miterlimit:10"
       id="path177" />
    <path
       d="M 252.092,290.758 L 242.768,301.307 C 246.836,300.983 250.076,301.379 252.632,302.495 C 255.08,303.647 256.988,305.374 257.96,307.968 C 256.844,304.943 256.088,302.46 255.836,300.118 C 255.512,297.778 255.692,295.87 256.232,294.251 C 254.864,293.098 253.496,291.945 252.092,290.758 z "
       style="fill:#ffffff;fill-rule:evenodd;stroke:#000000;stroke-width:0.036;stroke-miterlimit:10"
       id="path179" />
    <path
       d="M 259.184,281.038 L 272.9,267.538 L 276.104,270.094 C 274.844,272.578 274.232,274.486 273.98,275.962 C 273.692,277.438 274.052,278.194 274.772,278.626 L 267.716,280.498 L 268.256,285.574 C 267.104,285.394 266.024,285.394 265.16,285.43 C 264.224,285.43 263.432,285.61 262.784,285.826 C 261.596,284.242 260.408,282.658 259.184,281.038 z "
       style="fill:#ffffff;fill-rule:evenodd;stroke:#000000;stroke-width:0.036;stroke-miterlimit:10"
       id="path181" />
    <path
       d="M 276.932,254.902 L 282.799,249.034 L 290.397,255.046 C 290.073,256.162 290.073,257.458 290.252,258.934 C 290.431,260.41 290.791,261.958 291.477,263.722 C 291.008,263.326 289.928,262.966 288.524,262.786 C 287.085,262.57 285.032,262.39 282.657,262.39 C 280.748,259.906 278.84,257.422 276.932,254.902 z "
       style="fill:#ffffff;fill-rule:evenodd;stroke:#000000;stroke-width:0.036;stroke-miterlimit:10"
       id="path183" />
    <path
       d="M 290,240.79 L 301.736,230.242 L 306.92,234.778 C 306.596,235.75 306.416,236.902 306.524,238.234 C 306.561,239.566 306.741,240.934 307.208,242.626 C 305.048,242.302 302.96,242.122 300.8,242.374 C 298.642,242.482 296.409,243.022 294.249,243.706 C 292.844,242.734 291.439,241.762 290,240.79 z "
       style="fill:#ffffff;fill-rule:evenodd;stroke:#000000;stroke-width:0.036;stroke-miterlimit:10"
       id="path185" />
    <path
       d="M 322.148,207.634 L 329.744,200.146 L 335.359,206.41 L 328.664,212.674 L 322.148,207.634 z "
       style="fill:#ffffff;fill-rule:evenodd;stroke:#000000;stroke-width:0.036;stroke-miterlimit:10"
       id="path187" />
    <path
       d="M 332.947,197.734 L 342.56,188.806 L 347.634,193.738 L 337.878,202.954 L 332.947,197.734 z "
       style="fill:#ffffff;fill-rule:evenodd;stroke:#000000;stroke-width:0.036;stroke-miterlimit:10"
       id="path189" />
    <path
       d="M 358.039,175.738 C 360.127,177.502 361.496,178.654 362.287,179.194 C 362.9,179.626 361.603,179.446 362.432,178.798 C 363.26,178.078 364.809,176.746 367.221,174.946 L 361.893,171.202 C 360.631,172.714 359.336,174.226 358.039,175.738 z "
       style="fill:#ffffff;fill-rule:evenodd;stroke:#000000;stroke-width:0.036;stroke-miterlimit:10"
       id="path191" />
    <path
       d="M 368.299,165.082 L 371.901,161.194 L 375.897,164.794 L 370.821,169.87 L 367.76,166.414 L 368.299,165.082 z "
       style="fill:#ffffff;fill-rule:evenodd;stroke:#000000;stroke-width:0.036;stroke-miterlimit:10"
       id="path193" />
    <path
       d="M 315.992,205.726 C 321.103,201.226 326.396,196.258 332.012,190.678 C 337.664,185.062 343.352,178.978 349.473,172.282 C 348.897,170.59 348.897,169.474 349.473,168.934 C 349.94,168.394 351.02,168.214 352.569,168.79 L 360.417,161.338 C 359.769,160.402 359.733,159.646 360.31,159.07 C 360.849,158.422 362.001,158.062 363.765,157.846 C 365.494,155.758 367.005,154.426 368.158,153.706 C 369.346,152.986 370.461,152.986 370.822,153.562 C 371.002,153.994 370.75,154.93 369.633,156.37 C 368.553,157.702 367.654,157.81 364.018,161.698 C 360.129,165.586 354.622,171.454 346.954,179.59 L 354.694,186.79 C 353.399,186.862 352.643,187.258 352.03,187.582 C 351.526,188.014 351.167,188.374 351.346,189.058 L 343.895,182.902 C 338.782,187.15 333.885,191.866 328.666,197.05 C 323.445,202.27 318.334,207.742 312.934,213.862 C 311.35,214.15 310.774,213.79 311.35,212.386 C 311.852,210.946 313.4,208.858 315.992,205.726 z "
       style="fill:#ffffff;fill-rule:evenodd;stroke:#000000;stroke-width:0.036;stroke-miterlimit:10"
       id="path195" />
    <path
       d="M 327.871,216.31 C 326.611,215.014 325.459,213.682 324.127,212.458 C 322.795,211.198 321.463,209.902 319.988,208.714 L 318.259,210.586 L 327.224,219.514 C 327.187,218.902 327.224,218.506 327.331,217.93 C 327.439,217.354 327.619,216.814 327.871,216.31 z "
       style="fill:#ffffff;fill-rule:evenodd;stroke:#000000;stroke-width:0.036;stroke-miterlimit:10"
       id="path197" />
    <path
       d="M 311.348,222.07 L 318.944,214.87 L 327.081,223.942 C 326.397,223.726 324.884,223.546 322.544,223.798 C 320.169,223.942 316.964,224.338 312.933,224.986 C 312.428,224.014 311.889,223.042 311.348,222.07 z "
       style="fill:#ffffff;fill-rule:evenodd;stroke:#000000;stroke-width:0.036;stroke-miterlimit:10"
       id="path199" />
    <path
       d="M 350.299,179.59 L 355.772,183.586 L 360.956,183.586 L 362.288,181.858 L 354.944,175.558 L 350.299,179.59 z "
       style="fill:#ffffff;fill-rule:evenodd;stroke:#000000;stroke-width:0.036;stroke-miterlimit:10"
       id="path201" />
    <path
       d="M 355.484,172.246 L 368.695,159.286 L 370.82,160.51 L 357.5,173.722 L 355.484,172.246 z "
       style="fill:#ffffff;fill-rule:evenodd;stroke:#000000;stroke-width:0.036;stroke-miterlimit:10"
       id="path203" />
  </g>
</svg>
