<?xml version="1.0" encoding="UTF-8" standalone="no"?>
<!-- Created with Inkscape (http://www.inkscape.org/) -->

<svg
   xmlns:dc="http://purl.org/dc/elements/1.1/"
   xmlns:cc="http://creativecommons.org/ns#"
   xmlns:rdf="http://www.w3.org/1999/02/22-rdf-syntax-ns#"
   xmlns:svg="http://www.w3.org/2000/svg"
   xmlns="http://www.w3.org/2000/svg"
   xmlns:sodipodi="http://sodipodi.sourceforge.net/DTD/sodipodi-0.dtd"
   xmlns:inkscape="http://www.inkscape.org/namespaces/inkscape"
   id="svg2"
   version="1.1"
   inkscape:version="0.92.2 (5c3e80d, 2017-08-06)"
   width="70.5243"
   height="128"
   sodipodi:docname="jug.svg">
  <title
     id="title820">Jug</title>
  <metadata
     id="metadata8">
    <rdf:RDF>
      <cc:Work
         rdf:about="">
        <dc:format>image/svg+xml</dc:format>
        <dc:type
           rdf:resource="http://purl.org/dc/dcmitype/StillImage" />
        <dc:title>Jug</dc:title>
        <cc:license
           rdf:resource="http://creativecommons.org/publicdomain/zero/1.0/" />
        <dc:creator>
          <cc:Agent>
            <dc:title>Jordan Irwin (AntumDeluge)</dc:title>
          </cc:Agent>
        </dc:creator>
      </cc:Work>
      <cc:License
         rdf:about="http://creativecommons.org/publicdomain/zero/1.0/">
        <cc:permits
           rdf:resource="http://creativecommons.org/ns#Reproduction" />
        <cc:permits
           rdf:resource="http://creativecommons.org/ns#Distribution" />
        <cc:permits
           rdf:resource="http://creativecommons.org/ns#DerivativeWorks" />
      </cc:License>
    </rdf:RDF>
  </metadata>
  <defs
     id="defs6">
    <inkscape:perspective
       sodipodi:type="inkscape:persp3d"
       inkscape:vp_x="0 : 0.5 : 1"
       inkscape:vp_y="0 : 1000 : 0"
       inkscape:vp_z="1 : 0.5 : 1"
       inkscape:persp3d-origin="0.5 : 0.33333333 : 1"
       id="perspective10" />
  </defs>
  <sodipodi:namedview
     pagecolor="#ffffff"
     bordercolor="#666666"
     borderopacity="1"
     objecttolerance="10"
     gridtolerance="10"
     guidetolerance="10"
     inkscape:pageopacity="0"
     inkscape:pageshadow="2"
     inkscape:window-width="1920"
     inkscape:window-height="1025"
     id="namedview4"
     showgrid="false"
     inkscape:zoom="4.0154826"
     inkscape:cx="42.859792"
     inkscape:cy="66.287052"
     inkscape:window-x="-8"
     inkscape:window-y="-8"
     inkscape:window-maximized="1"
     inkscape:current-layer="svg2"
     borderlayer="true"
     fit-margin-top="0"
     fit-margin-left="0"
     fit-margin-right="0"
     fit-margin-bottom="0" />
  <g
     id="g836"
     transform="matrix(0.21333333,0,0,0.21333333,0.0589512,0)">
    <path
       style="fill:#a7a89b"
       d="m 133,599.335 c -7.96056,-0.78452 -32.06178,-5.68775 -41.5,-8.44289 C 77.009013,586.662 54.793279,577.28516 48.5,572.74262 44.521623,569.871 28.06982,552.56239 25.298436,548.33272 22.68062,544.33743 18.194336,524.78402 16.503473,510 c -0.912109,-7.975 -2.072814,-15.28026 -2.579346,-16.2339 -0.506532,-0.95365 -1.379755,-10.62865 -1.940496,-21.5 C 11.422889,461.39474 10.512992,447.325 9.9616362,441 9.4102805,434.675 8.5275442,422.975 8,415 7.4724558,407.025 6.5817411,395.325 6.020634,389 5.4595269,382.675 4.5424616,368.95 3.9827111,358.5 3.4229607,348.05 2.5151573,335.225 1.9653704,330 1.4155835,324.775 0.6862872,296.50211 0.34471202,267.17135 L -0.27633376,213.8427 5.1118331,208.33908 c 5.5859359,-5.70562 13.3362929,-10.30557 20.7081899,-12.29062 3.492559,-0.94045 4.899821,-2.09589 7.732766,-6.34907 1.904762,-2.85966 5.279429,-7.67439 7.499261,-10.69939 2.219832,-3.025 5.125824,-7.075 6.45776,-9 5.244054,-7.57904 17.375287,-23.27727 24.998968,-32.34951 5.88781,-7.00654 8.094357,-9.77515 14.709801,-18.4568 C 89.02336,116.82522 92.975,112.06395 96,108.61309 c 13.56145,-15.470653 25,-32.007218 25,-36.142172 0,-1.744859 0.45926,-4.489911 1.02058,-6.100116 0.56132,-1.610204 1.34882,-15.373004 1.75,-30.583999 L 124.5,8.1304487 127.27609,5.2332683 C 131.44169,0.88597735 138.4989,0 168.96139,0 189.76416,0 196.30244,0.32275958 200.55746,1.5597263 207.76872,3.656097 211,7.4674006 211,13.876725 211,18.621773 212.24909,21 214.74128,21 c 0.7377,0 4.85637,-1.722945 9.15259,-3.828767 11.66599,-5.718162 15.19751,-6.438993 29.26789,-5.973969 11.66471,0.385516 12.69307,0.59142 18.83824,3.771903 11.43599,5.918786 20.48445,12.662417 28.34922,21.128087 13.00848,14.002371 16.10081,23.826783 15.3926,48.902746 -0.4,14.163285 -0.71237,16.30739 -3.6221,24.86216 -1.7514,5.14918 -3.90298,10.77418 -4.78129,12.5 -3.39133,6.66368 -21.80806,35.32509 -24.9897,38.89072 -1.8418,2.06409 -3.34873,4.02528 -3.34873,4.35821 0,0.33293 2.19198,3.36913 4.87106,6.74712 2.67908,3.37798 7.16556,9.74179 9.96996,14.14179 7.65401,12.00888 8.06835,12.5 10.54594,12.5 3.86533,0 14.47086,5.95446 20.34658,11.42356 l 5.57278,5.18713 -1.149,17.62604 c -0.63195,9.69432 -1.58639,19.79442 -2.12098,22.44466 -0.5346,2.65023 -1.44795,18.54361 -2.02969,35.31861 -0.58173,16.775 -1.70925,49.625 -2.50559,73 -0.79634,23.375 -1.92499,53.3 -2.50811,66.5 -1.34053,30.34537 -6.46961,92.62462 -8.4415,102.5 -0.82367,4.125 -1.74875,9.15367 -2.05573,11.17483 -0.80364,5.29122 -9.71241,16.79884 -17.56701,22.69163 -21.47875,16.11411 -53.46158,27.03646 -93.92871,32.07728 -7.64778,0.95266 -56.33005,1.24569 -65,0.39126 z M 100.52544,225.95884 c 0.62452,-1.01049 22.47015,-102.50419 22.47309,-104.40884 9.3e-4,-0.6 -0.32754,-0.6 -0.89157,0 -1.70478,1.81352 -55.978297,98.27377 -56.29176,100.04727 -0.382429,2.16371 2.234244,2.93923 14.1848,4.20403 12.24126,1.29557 19.786304,1.35348 20.52544,0.15754 z M 263.74198,137.75 c 4.17149,-4.48953 18.37288,-29.41063 20.37228,-35.75 1.36591,-4.330786 2.23606,-10.541802 2.6074,-18.611165 0.52231,-11.350223 0.40719,-12.416838 -1.83217,-16.976251 -3.22222,-6.560552 -14.5745,-18.37404 -21.09014,-21.946966 -6.95721,-3.815066 -13.62876,-3.824905 -24.01887,-0.03542 -8.68296,3.16685 -13.86566,7.057821 -17.92337,13.45617 C 219.08949,62.250446 219,62.801316 219,75.473274 c 0,14.607645 -0.28408,13.803784 8.49089,24.026726 2.83259,3.3 7.50088,9.15 10.37397,13 2.87309,3.85 6.99616,9.25 9.16239,12 2.16622,2.75 5.78455,7.3625 8.04073,10.25 2.25619,2.8875 4.66043,5.25 5.34277,5.25 0.68234,0 2.1814,-1.0125 3.33123,-2.25 z m 21.6956,-17.81265 c 3.76708,-7.20441 1.67305,-6.02763 -2.35693,1.32452 -1.88064,3.43097 -2.70056,5.64744 -1.82204,4.92548 0.87852,-0.72196 2.75905,-3.53446 4.17897,-6.25 z M 140.80202,89.602379 c 5.0455,-2.609129 6.33785,-4.904621 6.00403,-10.664453 -0.2768,-4.77611 -0.57293,-5.369229 -3.09896,-6.206961 C 139.67333,71.393213 136,72.56102 136,75.18116 c 0,1.178681 -0.74183,4.496413 -1.64851,7.372739 -0.90668,2.876326 -1.37081,5.953377 -1.03139,6.837892 0.75963,1.979544 3.89071,2.067673 7.48192,0.210588 z M 144,24.313628 c 0,-2.078752 0.57649,-3.597619 1.5,-3.952002 2.88708,-1.107878 1.46614,-2.479554 -2.25,-2.171991 -3.72876,0.308607 -3.75175,0.337965 -4.05981,5.183305 -0.1704,2.680117 -0.0485,5.553871 0.27085,6.38612 C 140.49227,32.446406 144,28.238152 144,24.313628 Z"
       id="path2832"
       inkscape:connector-curvature="0" />
    <path
       style="fill:#ac9978"
       d="m 131.03747,599.29718 c -3.49308,-0.2663 -4.97293,-0.71903 -4.10456,-1.25572 0.90081,-0.55673 -0.62674,-1.21233 -4.53746,-1.9474 C 97.47558,591.41004 82.969384,587.10118 64,578.74851 c -10.033436,-4.41796 -12.963277,-6.101 -18.660544,-10.71945 -0.638299,-0.51743 -1.42369,-4.44815 -1.745313,-8.73492 C 43.27252,555.00736 42.554708,547 41.999005,541.5 41.443301,536 40.991192,526.91406 40.994318,521.30902 40.997508,515.58722 40.561457,510.847 40,510.5 39.44768,510.15865 39.010803,505.76735 39.024131,500.69098 39.037404,495.63594 38.374979,481.375 37.552076,469 c -0.822903,-12.375 -1.986441,-30.375 -2.58564,-40 -0.5992,-9.625 -1.969107,-28.8896 -3.044238,-42.81023 -1.075131,-13.92063 -2.839603,-39.57063 -3.921047,-57 C 25.94243,296.00988 23.377296,258.39855 22.195493,244.0642 L 21.5,235.6284 16,232.80714 c -3.025,-1.55169 -7.2311062,-4.28954 -9.3469027,-6.08411 -3.1695458,-2.68833 -3.938188,-4.07273 -4.365338,-7.86239 -0.4797171,-4.25604 -0.2297611,-4.92057 3.3469027,-8.89804 4.959,-5.51472 11.030421,-9.35531 18.962,-11.99477 5.490995,-1.82728 6.709129,-2.71141 9.347515,-6.78446 1.668551,-2.57585 4.858525,-7.15837 7.08883,-10.18337 2.230306,-3.025 5.144867,-7.075 6.476803,-9 5.244054,-7.57904 17.375287,-23.27727 24.998968,-32.34951 5.954541,-7.08595 8.364952,-10.11333 14.709801,-18.47494 1.804781,-2.37844 5.418883,-6.69688 8.031337,-9.59653 8.059844,-8.94588 24.655474,-31.861963 26.128124,-36.07902 2.83342,-8.113717 3.78647,-17.450304 4.35225,-42.637064 l 0.57923,-25.785295 2.59524,-2.4320054 c 4.13899,-3.87866138 10.85611,-4.64752296 40.39446,-4.6236736 25.18472,0.02033423 27.53298,0.17264479 31.6828,2.0549853 C 207.67954,5.1149142 209,6.6815741 209,11.589888 c 0,5.651236 1.36905,9.011853 3.94576,9.685678 1.30511,0.341293 5.96814,-1.214714 12.32673,-4.113305 L 235.5,12.5 h 15.04069 c 14.05425,0 15.36594,0.163961 20,2.5 10.84744,5.46822 21.66218,13.403427 29.08457,21.340505 13.18038,14.094342 15.92908,23.090547 15.14243,49.559531 -0.42282,14.227014 -0.74312,16.421664 -3.63943,24.936404 -3.36073,9.88009 -4.98485,13.20196 -10.93065,22.35688 -2.03368,3.13133 -6.13945,9.65633 -9.12393,14.5 -2.98447,4.84368 -7.14697,10.70913 -9.25,13.03434 -2.10302,2.32521 -3.82368,4.69452 -3.82368,5.26514 0,0.57062 2.5875,4.30252 5.75,8.29312 4.89201,6.17297 10.5426,14.49021 15.84922,23.32886 0.77334,1.28807 3.15219,2.58524 6.08523,3.31825 5.59597,1.39852 13.20233,5.88863 18.61374,10.98788 2.089,1.9685 4.114,3.57909 4.5,3.57909 0.90984,0 0.21724,27.84125 -0.70899,28.5 -1.6239,1.15494 -3.16509,18.34926 -4.12317,46 -0.56219,16.225 -1.67206,48.625 -2.46639,72 -0.79432,23.375 -1.90975,53.075 -2.47872,66 -1.39717,31.73865 -6.748,96.18114 -8.55782,103.0656 -0.8047,3.06109 -1.48285,6.88609 -1.50699,8.5 -0.21508,14.37846 -20.60387,32.23679 -49.58352,43.4297 C 242.62635,589.46325 212.21836,597 202.86878,597 c -1.48616,0 -2.88936,0.5625 -3.11821,1.25 -0.32009,0.96158 -7.66515,1.27465 -31.83333,1.35681 -17.27948,0.0588 -33.87538,-0.0806 -36.87977,-0.30963 z M 102,226.36327 c 0,-0.9002 4.95,-24.87332 11,-53.2736 10.87164,-51.03431 11.86849,-56.41356 10.10696,-54.53967 -0.86723,0.92255 -54.050526,94.57038 -57.537484,101.3149 -1.265229,2.44723 -1.439677,3.6649 -0.639659,4.46492 1.291671,1.29167 18.226403,3.33089 29.320183,3.53064 6.5668,0.11824 7.75,-0.11034 7.75,-1.49719 z M 264.16627,138.25 c 2.7746,-3.00347 12.90043,-19.49735 17.34309,-28.25 4.07914,-8.03649 5.49042,-14.138547 6.17331,-26.691961 0.58976,-10.841484 0.52043,-11.373841 -2.21388,-17 C 279.03934,53.078698 262.87014,40.545541 252.5,40.753094 c -6.83029,0.136705 -20.77903,5.600756 -25.74052,10.08317 -6.59893,5.961735 -8.94073,11.91432 -9.5234,24.207382 -0.60814,12.830525 -0.0684,14.246224 9.95202,26.105704 3.88066,4.59286 9.13838,11.23208 11.68382,14.75382 2.54545,3.52174 5.9922,8.02174 7.65945,10 1.66725,1.97826 4.98448,6.18433 7.37161,9.34683 2.38713,3.1625 5.10132,5.75 6.03154,5.75 0.93021,0 2.8345,-1.2375 4.23175,-2.75 z m 11.94389,-1 c 8.38482,-13.62524 12.66925,-21.8479 11.82788,-22.7 -0.59245,-0.6 -1.2687,-0.6 -1.83555,0 C 284.64234,116.09554 273,138.5607 273,139.83268 c 0,1.92697 0.68503,1.35812 3.11016,-2.58268 z M 140.28212,90.617556 C 146.20956,88.07105 148,85.511297 148,79.58349 148,73.740615 147.18583,72.591236 142.30865,71.548899 138.15963,70.662182 135,72.370397 135,75.500237 c 0,1.336427 -0.71607,4.538994 -1.59126,7.116815 -1.2056,3.551016 -1.33198,5.256008 -0.52144,7.034947 1.22894,2.697215 2.8664,2.911023 7.39482,0.965557 z M 302.11722,50.18267 c -1.72704,-2.691356 -4.09448,-5.745966 -5.26099,-6.788022 L 294.73532,41.5 l 2.08454,4.11647 c 2.37124,4.682633 7.17768,10.71932 7.93322,9.963787 0.27731,-0.277317 -0.90882,-2.706231 -2.63586,-5.397587 z M 290.5,36 c -2.70865,-2.75 -5.14982,-5 -5.42482,-5 -0.275,0 1.71617,2.25 4.42482,5 2.70865,2.75 5.14982,5 5.42482,5 0.275,0 -1.71617,-2.25 -4.42482,-5 z M 144.02778,28.948092 C 144.5625,27.948957 145,25.742252 145,24.044303 c 0,-2.322572 0.61918,-3.369298 2.5,-4.226257 C 151.46948,18.009432 150.43319,17 144.60699,17 138.4535,17 138,17.540997 138,24.881787 c 0,6.739736 3.37759,9.018236 6.02778,4.066305 z m 31.7697,-23.6905457 c -4.23638,-0.186981 -11.43638,-0.1880165 -16,-0.0023 C 155.23387,5.4409616 158.7,5.593946 167.5,5.5952116 c 8.8,0.00127 12.53387,-0.1506832 8.29748,-0.3376641 z"
       id="path2830"
       inkscape:connector-curvature="0" />
    <path
       style="fill:#95938a"
       d="m 131.03747,599.29718 c -3.49308,-0.2663 -4.97293,-0.71903 -4.10456,-1.25572 0.90081,-0.55673 -0.62674,-1.21233 -4.53746,-1.9474 C 97.47558,591.41004 82.969384,587.10118 64,578.74851 c -10.033436,-4.41796 -12.963277,-6.101 -18.660544,-10.71945 -0.638299,-0.51743 -1.42369,-4.44815 -1.745313,-8.73492 C 43.27252,555.00736 42.554708,547 41.999005,541.5 41.443301,536 40.991192,526.91406 40.994318,521.30902 40.997508,515.58722 40.561457,510.847 40,510.5 39.44768,510.15865 39.010803,505.76735 39.024131,500.69098 39.037404,495.63594 38.374979,481.375 37.552076,469 c -0.822903,-12.375 -1.986441,-30.375 -2.58564,-40 -0.5992,-9.625 -1.966837,-28.86072 -3.039194,-42.74605 -1.072358,-13.88532 -2.8535,-39.76032 -3.958095,-57.5 -1.811223,-29.08804 -3.588224,-55.58113 -5.563955,-82.95233 l -0.700057,-9.69838 4.897433,1.35339 c 2.693587,0.74436 7.597432,2.29031 10.897432,3.43544 3.3,1.14513 13.65,3.64227 23,5.54919 14.189663,2.89398 20.967535,3.68136 41,4.76294 56.96793,3.07579 152.4073,-0.25963 181,-6.32559 19.08075,-4.048 34.00319,-9.86948 40.96308,-15.98034 3.08927,-2.71242 3.53886,-3.69352 3.55223,-7.75186 0.0166,-5.02675 1.23826,-8.16318 2.42914,-6.2363 0.85689,1.38648 -0.46754,29.08989 -1.39072,29.08989 -1.47473,0 -3.15801,19.05367 -4.10801,46.5 -0.55207,15.95 -1.65324,48.125 -2.44703,71.5 -0.7938,23.375 -1.9088,53.075 -2.47777,66 -1.39717,31.73865 -6.748,96.18114 -8.55782,103.0656 -0.8047,3.06109 -1.48285,6.88609 -1.50699,8.5 -0.21508,14.37846 -20.60387,32.23679 -49.58352,43.4297 C 242.62635,589.46325 212.21836,597 202.86878,597 c -1.48616,0 -2.88936,0.5625 -3.11821,1.25 -0.32009,0.96158 -7.66515,1.27465 -31.83333,1.35681 -17.27948,0.0588 -33.87538,-0.0806 -36.87977,-0.30963 z M 125.5,231 c -0.33992,-0.55 -4.61218,-1 -9.49392,-1 C 106.21597,230 102,228.91276 102,226.38802 c 0,-0.91381 4.95,-24.89807 11,-53.29835 10.87164,-51.03431 11.86849,-56.41356 10.10696,-54.53967 -0.96403,1.02552 -54.576316,95.52937 -57.989091,102.21896 l -2.064242,4.04625 -6.276814,-0.53659 C 53.324566,223.9835 48.925,223.08358 47,222.2788 c -1.925,-0.80477 -5.571776,-2.09464 -8.103947,-2.86638 -2.532171,-0.77174 -6.694671,-3.24348 -9.25,-5.49277 C 25.630687,210.38518 25,209.30741 25,205.98011 c 0,-5.14878 1.449735,-8.67069 3.887652,-9.44445 1.101221,-0.34952 3.372028,-2.75052 5.046238,-5.33557 1.674209,-2.58505 4.868812,-7.17509 7.099117,-10.20009 2.230306,-3.025 5.144867,-7.075 6.476803,-9 5.244054,-7.57904 17.375287,-23.27727 24.998968,-32.34951 5.954541,-7.08595 8.364952,-10.11333 14.709801,-18.47494 1.804781,-2.37844 5.418883,-6.69688 8.031337,-9.59653 8.059844,-8.94588 24.655474,-31.861963 26.128124,-36.07902 2.83342,-8.113717 3.78647,-17.450304 4.35225,-42.637064 l 0.57923,-25.785295 2.59524,-2.4320054 c 4.13899,-3.87866138 10.85611,-4.64752296 40.39446,-4.6236736 25.18472,0.02033423 27.53298,0.17264479 31.6828,2.0549853 6.61926,3.0024672 8.01595,4.6246039 8.03163,9.3280407 0.0373,11.19801 2.43531,12.057407 16.17256,5.796008 L 235.5,12.5 h 15.04069 c 14.05425,0 15.36594,0.163961 20,2.5 10.84744,5.46822 21.66218,13.403427 29.08457,21.340505 13.18038,14.094342 15.92908,23.090547 15.14243,49.559531 -0.42282,14.227014 -0.74312,16.421664 -3.63943,24.936404 -3.36073,9.88009 -4.98485,13.20196 -10.93065,22.35688 -2.03368,3.13133 -6.13945,9.65633 -9.12393,14.5 -2.98447,4.84368 -7.14697,10.70913 -9.25,13.03434 C 279.72066,163.05287 278,165.43937 278,166.031 c 0,0.59163 2.42183,4.08919 5.38184,7.77235 2.96002,3.68316 7.64745,10.29665 10.41653,14.69665 2.76908,4.4 6.08475,9.10971 7.36816,10.46601 7.63728,8.07108 5.96123,14.0542 -5.16653,18.44332 -2.475,0.97621 -5.85,2.39334 -7.5,3.14918 -1.65,0.75584 -5.82257,1.67365 -9.27238,2.03957 -3.4498,0.36592 -6.51386,1.05605 -6.80901,1.53362 C 272.12345,224.60926 270.13508,225 268,225 c -2.13508,0 -4.16008,0.45 -4.5,1 -0.33992,0.55 -2.07648,1 -3.85902,1 -1.78254,0 -3.73213,0.49115 -4.33243,1.09145 -0.69517,0.69517 -9.85738,1.29512 -25.23518,1.65242 -13.27906,0.30854 -24.37946,0.94238 -24.66757,1.40855 -0.76457,1.2371 -79.13942,1.0876 -79.9058,-0.15242 z m 138.66627,-92.75 c 2.7746,-3.00347 12.90043,-19.49735 17.34309,-28.25 4.07914,-8.03649 5.49042,-14.138547 6.17331,-26.691961 0.58976,-10.841484 0.52043,-11.373841 -2.21388,-17 C 279.03934,53.078698 262.87014,40.545541 252.5,40.753094 c -6.83029,0.136705 -20.77903,5.600756 -25.74052,10.08317 -6.59893,5.961735 -8.94073,11.91432 -9.5234,24.207382 -0.60814,12.830525 -0.0684,14.246224 9.95202,26.105704 3.88066,4.59286 9.13838,11.23208 11.68382,14.75382 2.54545,3.52174 5.9922,8.02174 7.65945,10 1.66725,1.97826 4.98448,6.18433 7.37161,9.34683 2.38713,3.1625 5.10132,5.75 6.03154,5.75 0.93021,0 2.8345,-1.2375 4.23175,-2.75 z m 11.94389,-1 c 8.38482,-13.62524 12.66925,-21.8479 11.82788,-22.7 -0.59245,-0.6 -1.2687,-0.6 -1.83555,0 C 284.64234,116.09554 273,138.5607 273,139.83268 c 0,1.92697 0.68503,1.35812 3.11016,-2.58268 z M 140.28212,90.617556 C 146.20956,88.07105 148,85.511297 148,79.58349 148,73.740615 147.18583,72.591236 142.30865,71.548899 138.15963,70.662182 135,72.370397 135,75.500237 c 0,1.336427 -0.71607,4.538994 -1.59126,7.116815 -1.2056,3.551016 -1.33198,5.256008 -0.52144,7.034947 1.22894,2.697215 2.8664,2.911023 7.39482,0.965557 z M 302.11722,50.18267 c -1.72704,-2.691356 -4.09448,-5.745966 -5.26099,-6.788022 L 294.73532,41.5 l 2.08454,4.11647 c 2.37124,4.682633 7.17768,10.71932 7.93322,9.963787 0.27731,-0.277317 -0.90882,-2.706231 -2.63586,-5.397587 z M 290.5,36 c -2.70865,-2.75 -5.14982,-5 -5.42482,-5 -0.275,0 1.71617,2.25 4.42482,5 2.70865,2.75 5.14982,5 5.42482,5 0.275,0 -1.71617,-2.25 -4.42482,-5 z M 144.02778,28.948092 C 144.5625,27.948957 145,25.742252 145,24.044303 c 0,-2.322572 0.61918,-3.369298 2.5,-4.226257 C 151.46948,18.009432 150.43319,17 144.60699,17 138.4535,17 138,17.540997 138,24.881787 c 0,6.739736 3.37759,9.018236 6.02778,4.066305 z m 31.7697,-23.6905457 c -4.23638,-0.186981 -11.43638,-0.1880165 -16,-0.0023 C 155.23387,5.4409616 158.7,5.593946 167.5,5.5952116 c 8.8,0.00127 12.53387,-0.1506832 8.29748,-0.3376641 z"
       id="path2828"
       inkscape:connector-curvature="0" />
    <path
       style="fill:#99907e"
       d="m 131,599 -5.5,-0.67401 5.5,-0.31001 5.5,-0.31002 -5.5,-0.74076 c -11.20748,-1.50947 -28.38171,-5.1088 -38.5,-8.06874 -14.464285,-4.23129 -36.520629,-13.54249 -43.152418,-18.217 l -4.180994,-2.94704 -0.603375,-9.61621 C 44.231357,552.82729 43.518875,544.64452 42.979919,539.93228 42.440964,535.22003 42,526.58408 42,520.74129 42,514.73781 41.565126,509.84927 41,509.5 40.44768,509.15865 40.010803,504.76735 40.024131,499.69098 40.037404,494.63594 39.374979,480.375 38.552076,468 c -0.822903,-12.375 -1.986441,-30.375 -2.58564,-40 -0.5992,-9.625 -1.969107,-28.8896 -3.044238,-42.81023 -1.075131,-13.92063 -2.839603,-39.57063 -3.921047,-57 -2.617585,-42.18695 -4.877101,-74.98091 -5.807754,-84.29207 l -0.759853,-7.60231 4.533228,1.25731 c 2.493275,0.69153 7.233228,2.19424 10.533228,3.33937 3.3,1.14513 13.65,3.64227 23,5.54919 14.189663,2.89398 20.967535,3.68136 41,4.76294 56.96793,3.07579 152.4073,-0.25963 181,-6.32559 19.08075,-4.048 34.00319,-9.86948 40.96308,-15.98034 3.08927,-2.71242 3.53886,-3.69352 3.55223,-7.75186 0.0166,-5.02675 1.23826,-8.16318 2.42914,-6.2363 0.87485,1.41554 -0.4813,29.18515 -1.39762,28.61883 -1.4372,-0.88824 -3.13974,18.19627 -4.10111,45.97106 -0.55207,15.95 -1.65324,48.125 -2.44703,71.5 -0.7938,23.375 -1.9088,53.075 -2.47777,66 -1.39717,31.73865 -6.748,96.18114 -8.55782,103.0656 -0.8047,3.06109 -1.48285,6.88609 -1.50699,8.5 -0.0684,4.57431 -2.19694,9.49214 -6.81252,15.74003 -10.09984,13.67165 -32.23611,26.02138 -62.80936,35.04108 C 227.4738,592.84577 207.06015,597 201.72643,597 c -1.56446,0 -2.60426,0.38866 -2.31067,0.8637 0.29359,0.47503 -1.81736,1.14612 -4.69098,1.4913 C 188.00752,600.1619 138.21784,599.88452 131,599 Z m -5.55,-367.91567 c -0.5225,-0.50361 -5.54092,-1.06611 -11.15205,-1.25 -6.14082,-0.20124 -10.67632,-0.80942 -11.39346,-1.52779 -0.92207,-0.92366 1.34405,-13.13164 10.02381,-54 6.16838,-29.0436 11.45672,-53.81904 11.75187,-55.05654 0.29516,-1.2375 0.0936,-2.25 -0.448,-2.25 -0.95977,0 -58.244368,100.27168 -60.153915,105.29417 -0.920734,2.42172 -1.223145,2.50439 -7.269477,1.98735 C 53.33895,223.9848 48.925,223.08358 47,222.2788 c -1.925,-0.80477 -5.571776,-2.09464 -8.103947,-2.86638 -2.532171,-0.77174 -6.694671,-3.24348 -9.25,-5.49277 -4.171117,-3.67157 -4.638868,-4.51539 -4.575768,-8.25464 0.09264,-5.48965 0.977597,-7.5059 3.943413,-8.98452 1.349588,-0.67284 4.03611,-3.54105 5.970049,-6.37378 11.275697,-16.51609 32.001868,-44.09975 40.429986,-53.80671 4.552529,-5.24331 8.699703,-10.52132 16.022025,-20.39085 1.064667,-1.43503 4.214667,-5.11937 7,-8.18742 C 108.9241,96.368805 121.67799,78.501492 122.5109,74.194143 122.79743,72.712364 123.50535,69.475 124.08406,67 c 0.57871,-2.475 1.31924,-16.869819 1.64563,-31.988487 l 0.59344,-27.4884876 2.63502,-2.6350248 C 133.09558,0.750569 139.27528,0 169.20273,0 c 26.884,0 27.14753,0.02045612 32.42466,2.5169397 C 207.88446,5.4770066 209,7.181098 209,13.779271 209,18.9302 210.98264,22 214.30939,22 c 0.90854,0 5.37311,-1.757509 9.92126,-3.905574 12.3928,-5.853062 14.88275,-6.361519 28.84982,-5.891256 12.07663,0.406613 12.6128,0.521489 19.41953,4.160647 12.0442,6.439325 20.45855,12.740088 27.7597,20.786785 12.20441,13.450627 15.31273,23.902218 14.50394,48.768868 -0.42349,13.020745 -0.81253,15.57737 -3.63665,23.89873 -3.35633,9.88956 -5.95332,15.19231 -11.92778,24.35515 -2.03457,3.12035 -6.31198,9.92287 -9.50537,15.11671 -3.19338,5.19385 -7.13088,10.71253 -8.75,12.26374 -1.61911,1.55121 -2.94384,3.49569 -2.94384,4.32106 0,0.82537 1.96273,4.00368 4.36162,7.0629 C 287.4722,179.45511 299,196.84847 299,198.04205 c 0,0.45275 0.90494,1.11039 2.01097,1.46143 2.35195,0.74648 4.98903,5.37668 4.98903,8.75977 0,3.00613 -4.22096,6.86665 -10,9.14608 -2.475,0.97621 -5.85,2.39334 -7.5,3.14918 -1.65,0.75584 -5.82257,1.67365 -9.27238,2.03957 -3.4498,0.36592 -6.51386,1.05605 -6.80901,1.53362 C 272.12345,224.60926 270.13508,225 268,225 c -2.13508,0 -4.16008,0.45 -4.5,1 -0.33992,0.55 -2.07648,1 -3.85902,1 -1.78254,0 -3.73213,0.49115 -4.33243,1.09145 -0.69517,0.69517 -9.85738,1.29512 -25.23518,1.65242 -13.27906,0.30854 -24.37946,0.94238 -24.66757,1.40855 -0.71573,1.15807 -78.75261,1.09162 -79.9558,-0.0681 z M 275.68132,138.75 c 1.48853,-2.3375 3.63168,-5.89365 4.76255,-7.90255 1.13087,-2.00891 3.54885,-6.21813 5.37328,-9.35383 3.60413,-6.19454 3.73815,-10.53002 0.21412,-6.9269 C 283.69812,116.95223 272,139.39183 272,141.48181 c 0,2.40195 0.78137,1.82212 3.68132,-2.73181 z m -10.57796,-1.41394 c 2.66882,-2.90738 12.80096,-19.29073 16.90574,-27.33606 3.66578,-7.1849 5.04646,-13.661243 5.68002,-26.643262 0.55194,-11.309367 0.43328,-12.476782 -1.72794,-17 C 282.91935,59.990465 269.8351,46.499814 263.5,43.197903 250.35695,36.347623 227.47862,44.865179 219.71224,59.5 c -1.70079,3.204952 -2.20276,6.236411 -2.52545,15.251704 -0.22152,6.188437 -0.14143,12.292885 0.17796,13.56544 0.31939,1.272555 3.42693,5.659288 6.90564,9.748296 3.47872,4.08901 8.68594,10.58456 11.5716,14.43456 6.17514,8.23875 11.83136,15.4798 18.45349,23.62399 5.27179,6.48348 5.90391,6.55437 10.80788,1.21207 z M 144.5223,88.415194 c 3.51956,-2.6845 3.5587,-2.796001 3.26995,-9.315011 L 147.5,72.502196 143.12787,71.583252 c -2.79129,-0.586679 -4.93921,-0.561241 -5.9405,0.07035 -1.39189,0.87798 -3.21872,6.361536 -4.8658,14.605552 -1.25722,6.292657 5.26601,7.445401 12.20073,2.156035 z M 304.97123,54.424339 C 302.50877,47.947561 286.14531,29 283.01431,29 c -0.80337,0 1.51971,3.0375 5.1624,6.75 3.64269,3.7125 7.54661,8.602411 8.67538,10.86647 3.74385,7.509297 10.46191,13.969799 8.11914,7.807869 z M 143.17126,30.345012 C 144.24378,29.374392 145,27.316334 145,25.368065 c 0,-2.43994 0.66378,-3.756884 2.5,-4.960022 3.93411,-2.577726 2.96711,-3.532214 -3.25,-3.207947 L 138.5,17.5 l -0.30402,5.888028 c -0.44885,8.692886 0.92868,10.619104 4.97528,6.956984 z m 130.38761,-6.876815 c -1.06762,-0.807509 -2.41762,-1.453885 -3,-1.436394 -0.58238,0.01749 -0.18536,0.692492 0.88226,1.5 1.06762,0.807509 2.41762,1.453885 3,1.436394 0.58238,-0.01749 0.18536,-0.692492 -0.88226,-1.5 z M 140.84074,7.7592593 c 1.89607,-1.8960727 51.24281,-1.7647349 53.54089,0.1425007 2.2934,1.903357 3.4061,0.4574007 1.28232,-1.6663815 -1.53456,-1.534562 -4.45026,-1.715291 -27.44048,-1.7008956 C 142.83298,4.5503813 138,5.1101719 138,8.0351838 c 0,1.3378815 1.35893,1.2058871 2.84074,-0.2759245 z"
       id="path2826"
       inkscape:connector-curvature="0" />
    <path
       style="fill:#88826c"
       d="m 171.50798,542.25 c -0.28827,-31.7625 -0.74926,-109.47111 -1.02444,-172.6858 -0.39918,-91.70255 -0.24595,-115.09728 0.75807,-115.73469 0.69211,-0.43938 8.00839,-0.80212 16.25839,-0.80607 28.09534,-0.0135 83.55452,-4.09897 95.5,-7.03521 20.21883,-4.96985 33.41643,-10.01753 40.68299,-15.56 L 327,227.89822 v 6.9199 c 0,3.80594 -0.6457,10.69135 -1.4349,15.30089 -1.38753,8.10433 -1.96334,20.82876 -5.06291,111.88099 -0.79573,23.375 -1.9123,53.075 -2.48127,66 -1.39717,31.73865 -6.748,96.18114 -8.55782,103.0656 -0.8047,3.06109 -1.46561,6.66109 -1.46868,8 -0.0256,11.18442 -11.52838,24.12461 -30.76668,34.61142 -20.26905,11.04867 -44.25934,18.11745 -78.72774,23.19725 -5.50209,0.81087 -5.66806,0.90466 -2,1.13016 l 4,0.2459 -4.5,0.80071 c -2.475,0.44039 -8.88028,0.83407 -14.23395,0.87484 L 172.0321,600 Z m 156.64389,-313.2 c -0.11013,-11.20384 0.1494,-15.14873 0.94432,-14.35381 0.78169,0.78169 0.82526,5.2144 0.15187,15.45 L 328.30373,244.5 Z M 124,230.01242 c -0.825,-0.53998 -5.55,-0.99558 -10.5,-1.01242 -4.95,-0.0168 -9.63094,-0.43009 -10.40208,-0.91832 -1.1627,-0.73614 0.51416,-9.91022 9.82177,-53.73469 6.17311,-29.06584 11.46533,-53.85949 11.76048,-55.09699 0.29516,-1.2375 0.0898,-2.25 -0.45635,-2.25 -0.54615,0 -14.6286,24.094 -31.294326,53.54223 l -30.301328,53.54223 -7.064083,-0.65258 C 51.678837,223.07295 47.6,222.22302 46.5,221.54314 c -1.1,-0.67987 -4.299181,-1.99535 -7.109291,-2.92327 -2.810111,-0.92792 -7.021926,-3.32428 -9.35959,-5.32523 -4.169824,-3.56921 -4.241975,-3.73845 -3.810729,-8.93871 0.354763,-4.27798 0.960786,-5.7106 3.141191,-7.42571 1.485892,-1.1688 4.233508,-4.44375 6.105813,-7.27766 C 43.495983,177.50054 66.595013,146.74852 75.016766,137 c 4.907855,-5.68104 8.956248,-10.83205 16.418992,-20.89085 1.064667,-1.43503 4.214667,-5.11937 7,-8.18742 C 108.9241,96.368805 121.67799,78.501492 122.5109,74.194143 122.79743,72.712364 123.50535,69.475 124.08406,67 c 0.57871,-2.475 1.31924,-16.869819 1.64563,-31.988487 l 0.59344,-27.4884876 2.63502,-2.6350248 C 133.09558,0.750569 139.27528,0 169.20273,0 c 26.884,0 27.14753,0.02045612 32.42466,2.5169397 C 207.88446,5.4770066 209,7.181098 209,13.779271 209,18.9302 210.98264,22 214.30939,22 c 0.90854,0 5.37311,-1.757509 9.92126,-3.905574 12.3928,-5.853062 14.88275,-6.361519 28.84982,-5.891256 12.07663,0.406613 12.6128,0.521489 19.41953,4.160647 12.0442,6.439325 20.45855,12.740088 27.7597,20.786785 12.20441,13.450627 15.31273,23.902218 14.50394,48.768868 -0.42349,13.020745 -0.81253,15.57737 -3.63665,23.89873 -3.35633,9.88956 -5.95332,15.19231 -11.92778,24.35515 -2.03457,3.12035 -6.31198,9.92287 -9.50537,15.11671 -3.19338,5.19385 -7.13088,10.71253 -8.75,12.26374 -1.61911,1.55121 -2.94384,3.49569 -2.94384,4.32106 0,0.82537 1.96273,4.00368 4.36162,7.0629 2.3989,3.05923 7.11824,9.83724 10.48743,15.06224 3.36918,5.225 6.97766,10.4 8.01882,11.5 4.66861,4.93243 5.35961,9.99822 1.81768,13.32569 C 301.4126,214.02156 300.0638,215 299.68822,215 c -0.37559,0 -3.49658,1.31439 -6.93555,2.92087 -3.43897,1.60648 -8.95267,3.38886 -12.25267,3.96083 -3.3,0.57198 -8.025,1.48298 -10.5,2.02445 -2.475,0.54147 -6.33468,1.38444 -8.57706,1.87327 -2.24239,0.48883 -4.62805,1.22931 -5.30147,1.6455 -3.35345,2.07255 -129.14443,4.53607 -132.12147,2.5875 z M 275.68132,138.75 c 1.48853,-2.3375 3.63168,-5.89365 4.76255,-7.90255 1.13087,-2.00891 3.54885,-6.21813 5.37328,-9.35383 3.60413,-6.19454 3.73815,-10.53002 0.21412,-6.9269 C 283.69812,116.95223 272,139.39183 272,141.48181 c 0,2.40195 0.78137,1.82212 3.68132,-2.73181 z m -10.57796,-1.41394 c 2.66882,-2.90738 12.80096,-19.29073 16.90574,-27.33606 3.66578,-7.1849 5.04646,-13.661243 5.68002,-26.643262 0.55194,-11.309367 0.43328,-12.476782 -1.72794,-17 C 282.91935,59.990465 269.8351,46.499814 263.5,43.197903 250.35695,36.347623 227.47862,44.865179 219.71224,59.5 c -1.70079,3.204952 -2.20276,6.236411 -2.52545,15.251704 -0.22152,6.188437 -0.14143,12.292885 0.17796,13.56544 0.31939,1.272555 3.42693,5.659288 6.90564,9.748296 3.47872,4.08901 8.68594,10.58456 11.5716,14.43456 6.17514,8.23875 11.83136,15.4798 18.45349,23.62399 5.27179,6.48348 5.90391,6.55437 10.80788,1.21207 z M 144.5223,88.415194 c 3.51956,-2.6845 3.5587,-2.796001 3.26995,-9.315011 L 147.5,72.502196 143.12787,71.583252 c -2.79129,-0.586679 -4.93921,-0.561241 -5.9405,0.07035 -1.39189,0.87798 -3.21872,6.361536 -4.8658,14.605552 -1.25722,6.292657 5.26601,7.445401 12.20073,2.156035 z M 304.97123,54.424339 C 302.50877,47.947561 286.14531,29 283.01431,29 c -0.80337,0 1.51971,3.0375 5.1624,6.75 3.64269,3.7125 7.54661,8.602411 8.67538,10.86647 3.74385,7.509297 10.46191,13.969799 8.11914,7.807869 z M 143.17126,30.345012 C 144.24378,29.374392 145,27.316334 145,25.368065 c 0,-2.43994 0.66378,-3.756884 2.5,-4.960022 3.93411,-2.577726 2.96711,-3.532214 -3.25,-3.207947 L 138.5,17.5 l -0.30402,5.888028 c -0.44885,8.692886 0.92868,10.619104 4.97528,6.956984 z m 130.38761,-6.876815 c -1.06762,-0.807509 -2.41762,-1.453885 -3,-1.436394 -0.58238,0.01749 -0.18536,0.692492 0.88226,1.5 1.06762,0.807509 2.41762,1.453885 3,1.436394 0.58238,-0.01749 0.18536,-0.692492 -0.88226,-1.5 z M 140.84074,7.7592593 c 1.89607,-1.8960727 51.24281,-1.7647349 53.54089,0.1425007 2.2934,1.903357 3.4061,0.4574007 1.28232,-1.6663815 -1.53456,-1.534562 -4.45026,-1.715291 -27.44048,-1.7008956 C 142.83298,4.5503813 138,5.1101719 138,8.0351838 c 0,1.3378815 1.35893,1.2058871 2.84074,-0.2759245 z"
       id="path2824"
       inkscape:connector-curvature="0" />
    <path
       style="fill:#646564"
       d="m 126.60875,230.27248 c -0.42324,-0.42487 -5.44887,-1.00406 -11.16806,-1.28711 -7.35343,-0.36393 -10.81486,-0.94961 -11.82024,-2 -1.23353,-1.28876 0.0821,-8.50082 9.93935,-54.48537 6.24859,-29.15 11.37888,-53.6 11.40064,-54.33333 0.0218,-0.73334 -0.4558,-1.16822 -1.06125,-0.9664 -0.60545,0.20182 -14.31416,23.75182 -30.463804,52.33333 C 77.28574,198.11512 63.63677,222.01068 63.104342,222.63484 61.453492,224.57013 46,222.18364 46,219.99341 c 0,-0.46832 -2.466743,-1.56859 -5.481652,-2.44505 -3.620438,-1.05249 -6.891923,-2.93512 -9.635188,-5.54473 -3.8707,-3.6821 -4.115658,-4.23356 -3.597281,-8.09835 0.361848,-2.69778 1.590967,-5.24077 3.51687,-7.27623 1.628339,-1.72098 4.138504,-4.92905 5.578144,-7.12905 1.439641,-2.2 4.437709,-6.475 6.662372,-9.5 2.224664,-3.025 5.134609,-7.075 6.466545,-9 5.244054,-7.57904 17.375287,-23.27727 24.998968,-32.34951 5.982945,-7.11975 8.466424,-10.24019 14.709801,-18.48255 1.804781,-2.38263 5.549149,-6.88263 8.320816,-10 7.587825,-8.53423 18.944495,-23.349397 23.008875,-30.015872 4.26096,-6.98892 6.26165,-24.490932 6.38195,-55.829488 L 127,6.1451603 129.54058,4.146742 C 133.88246,0.73141681 140.89571,-1.0109262e-5 169.29922,2.2862956e-4 L 196.5,4.5725912e-4 202,2.9058578 l 5.5,2.9054006 0.83959,6.8443706 c 0.46178,3.764404 1.30438,7.406871 1.87245,8.094371 1.72841,2.091791 5.36588,1.427754 14.01982,-2.559382 12.38036,-5.704007 16.06175,-6.467399 28.94745,-6.002687 10.4275,0.376059 11.83353,0.669552 17.82069,3.71985 11.90104,6.063266 22.6547,13.907293 29.40315,21.447502 11.70053,13.073288 15.04537,24.178041 14.35096,47.644717 -0.40181,13.57856 -0.67239,15.2235 -4.25793,25.88514 -2.10587,6.26183 -5.47933,13.91183 -7.49658,17 -2.01724,3.08817 -7.20008,11.23986 -11.51741,18.11486 -4.31733,6.875 -9.34201,14.09397 -11.16594,16.04216 -1.82394,1.94819 -3.31625,3.85858 -3.31625,4.24531 0,0.38673 3.06458,4.73965 6.81018,9.67316 3.7456,4.93351 8.51325,11.79812 10.59478,15.2547 2.08152,3.45657 5.161,8.42912 6.84329,11.05012 4.05084,6.3112 3.04522,8.73483 -5.25247,12.65902 -3.30526,1.56314 -6.69754,3.41305 -7.5384,4.11091 -0.84087,0.69785 -5.00027,1.88866 -9.24312,2.64623 -4.24284,0.75757 -9.51426,1.78952 -11.71426,2.29322 -10.21398,2.33852 -12.11066,2.82106 -13.68269,3.48105 -4.42571,1.85804 -125.49305,4.53866 -127.20856,2.8166 z m 153.86698,-99.48624 c 4.35127,-7.26757 7.9368,-14.13007 7.96784,-15.25 0.13559,-4.89229 -3.14307,-1.13024 -9.4662,10.86185 C 272.6196,138.45588 270.39699,144 271.92083,144 c 0.35392,0 4.20362,-5.94619 8.5549,-13.21376 z M 264.21134,138.25 c 1.98948,-2.0625 6.20228,-8.01629 9.36177,-13.23064 11.91544,-19.66496 14.40451,-27.57255 14.41934,-45.809198 0.01,-11.730164 -1.44503,-14.810783 -12.2097,-25.858804 -13.50653,-13.862058 -20.96459,-15.790711 -37.2632,-9.636253 -8.32477,3.14349 -15.53961,9.417567 -19.25026,16.740174 -2.0808,4.106269 -2.62022,6.875265 -3.03207,15.564435 -0.58711,12.386603 -0.19065,13.481202 8.5988,23.740709 3.17563,3.706767 8.13159,9.889577 11.01325,13.739577 13.54974,18.10292 22.12376,28.5 23.50272,28.5 0.68316,0 2.86987,-1.6875 4.85935,-3.75 z M 143.89477,88.96127 148.08961,85.922539 147.79481,79.21127 147.5,72.5 143.88721,71.607154 c -6.84293,-1.691127 -8.16605,-0.628171 -10.24397,8.229674 -1.02121,4.3533 -1.55339,8.870909 -1.18261,10.039131 1.0268,3.235159 6.28625,2.814422 11.43414,-0.914689 z M 302.84708,50.382272 C 297.74322,41.94169 286.52351,30.297684 280.6225,27.317212 277.80513,25.894218 274.42681,23.890711 273.11514,22.864975 271.80347,21.839239 270.28587,21 269.7427,21 c -1.99917,0 1.61432,3.027523 7.62631,6.38962 7.02951,3.931128 16.35837,13.195516 19.51201,19.377169 2.6691,5.231851 8.40886,11.863584 8.92577,10.312848 0.21305,-0.63915 -1.11882,-3.652964 -2.95971,-6.697365 z M 143.17126,30.345012 C 144.25812,29.361415 145,27.314163 145,25.298502 c 0,-2.720538 0.59216,-3.728544 2.99313,-5.095012 1.64622,-0.93692 2.84893,-2.15349 2.6727,-2.70349 -0.38432,-1.199401 -7.0315,-1.876023 -10.32051,-1.050535 C 138.17193,16.994952 138,17.537651 138,23.852385 c 0,8.55512 1.21149,10.07617 5.17126,6.492627 z M 166.75419,7.2170589 c 17.31227,-0.1939619 25.91559,0.071031 27.35736,0.8426407 2.78588,1.4909576 4.60043,-0.2239073 2.27718,-2.1520812 -2.45802,-2.040028 -54.28033,-2.0721559 -56.73492,-0.035174 -2.22185,1.8438431 -2.15438,3.5866659 0.0962,2.4845441 0.9625,-0.4713438 13.11439,-0.9843123 27.00419,-1.1399299 z"
       id="path2822"
       inkscape:connector-curvature="0" />
    <path
       style="fill:#0a120f"
       d="m 124.5,228.01157 c -1.1,-0.47905 -6.13594,-0.90263 -11.19098,-0.94128 -5.05504,-0.0387 -9.39006,-0.40779 -9.63336,-0.82029 -0.24331,-0.4125 4.66233,-24.6 10.90142,-53.75 6.23908,-29.15 11.3616,-54.5176 11.38336,-56.37244 0.0328,-2.7942 -0.20272,-3.17137 -1.37348,-2.19973 -0.77717,0.645 -15.02779,25.22988 -31.668036,54.63308 l -30.254993,53.46036 -6.581965,-0.63138 c -3.620082,-0.34726 -7.139215,-1.15037 -7.820296,-1.78468 -0.968794,-0.90227 1.118978,-5.06597 9.591831,-19.12925 C 80.60485,162.71316 91.737848,144.2229 96.37347,136.5 c 2.641073,-4.4 7.70436,-12.725 11.25174,-18.5 3.54739,-5.775 8.89584,-14.59738 11.88546,-19.605284 2.98961,-5.007906 6.12274,-9.675506 6.96249,-10.372445 0.83976,-0.696938 1.53349,-2.44956 1.54162,-3.894716 0.008,-1.445155 0.64796,-5.327555 1.42185,-8.627555 0.79897,-3.406975 1.89225,-17.416886 2.52974,-32.417531 0.61747,-14.529642 1.34205,-26.772489 1.61018,-27.206326 0.26812,-0.433837 1.13056,-0.54203 1.91652,-0.240429 1.04148,0.399653 1.50738,2.757753 1.71797,8.695267 0.24773,6.98436 0.55141,8.197067 2.12817,8.498464 C 142.24065,33.384054 146,29.168789 146,25.36087 c 0,-2.404307 0.60597,-3.600819 2.25,-4.442726 1.2375,-0.633723 2.925,-1.975217 3.75,-2.981097 1.376,-1.677692 3.69058,-1.846513 28,-2.042268 l 26.5,-0.213396 0.5,7.330658 c 0.55408,8.123574 2.13793,10.030997 3.56809,4.297047 0.75783,-3.038366 1.49231,-3.852789 3.93191,-4.359883 1.65,-0.342968 6.375,-2.185968 10.5,-4.095555 11.53667,-5.340674 15.44053,-6.125346 28.17931,-5.664015 10.93851,0.396134 11.59076,0.548896 19.32069,4.525038 11.68882,6.012529 19.46248,11.817971 27.20466,20.316688 11.52121,12.64702 14.74605,23.427958 14.04945,46.968639 -0.40181,13.57856 -0.67239,15.2235 -4.25793,25.88514 -2.10587,6.26183 -5.47511,13.91183 -7.4872,17 -7.03415,10.79605 -15.7367,24.63436 -16.95027,26.95333 C 283.41167,157.98575 277.0101,165 275.78477,165 c -0.54038,0 -2.50937,-0.72454 -4.37554,-1.6101 -7.21517,-3.42382 -8.80362,1.99462 -2.60395,8.88244 5.8859,6.53923 9.5477,13.1758 14.47141,26.22766 7.15962,18.97886 7.09086,19.79106 -1.77669,20.98737 -2.75,0.371 -6.35,1.03642 -8,1.47872 -1.65,0.4423 -5.7,1.35403 -9,2.02608 -3.3,0.67204 -7.23679,1.67803 -8.74843,2.23553 -6.06573,2.23708 -126.63505,4.79438 -131.25157,2.78387 z M 258,147.92576 c 0,-1.14146 2.4265,-4.6266 5.39587,-7.75 2.96773,-3.12167 7.9892,-9.94205 11.15882,-15.1564 11.91617,-19.60331 14.42291,-27.556896 14.43776,-45.809198 0.01,-11.824942 -1.42676,-14.803325 -12.71326,-26.361472 C 262.20067,38.431321 254.99915,36.499973 238.5,42.716837 c -8.84313,3.332081 -17.28991,10.995193 -20.49343,18.592113 -1.20395,2.855077 -3.33416,7.655056 -4.73379,10.666618 -2.33292,5.019682 -2.49406,6.226927 -1.93549,14.5 0.74461,11.028657 2.00393,15.155862 7.16271,23.474572 C 222.72274,116.75946 254.43755,150 256.71158,150 257.42021,150 258,149.06659 258,147.92576 Z m 17.25656,-6.1852 c 1.32935,-2.33231 5.22245,-9.08318 8.65135,-15.00194 6.32481,-10.91754 7.15946,-14.23862 3.57839,-14.23862 -1.50433,0 -3.5026,2.79045 -8.23527,11.5 -7.31739,13.46622 -9.72893,19.31224 -8.87955,21.52568 0.83096,2.16545 2.0174,1.24616 4.88508,-3.78512 z M 144.17226,89.699123 148.5,86.398247 V 78.949123 71.5 l -4.73897,-0.91554 c -7.14547,-1.380458 -9.12145,-0.06676 -10.61791,7.059129 -0.67643,3.221026 -1.47884,7.042233 -1.78314,8.491571 -1.53014,7.287873 5.40181,9.216118 12.81228,3.563963 z M 305.16633,52.527941 c -4.06957,-7.849115 -17.75261,-22.716374 -24.05787,-26.139986 -2.53465,-1.376261 -6.51484,-3.631907 -8.84486,-5.012546 -4.64934,-2.754941 -7.48304,-2.380358 -4.75948,0.629147 0.89893,0.993301 5.09176,3.814857 9.3174,6.270124 8.40266,4.882277 14.31937,10.659911 18.72863,18.288416 4.46533,7.725515 10.6109,14.67585 11.86642,13.420333 0.75164,-0.751642 0.0914,-2.939017 -2.25024,-7.455488 z M 132.25,11.8779 C 129.9125,10.803432 128,9.266349 128,8.4621606 128,6.3176646 131.68019,3 134.05902,3 c 1.13246,0 1.81639,-0.392571 1.51985,-0.8723799 -0.29653,-0.4798089 1.13941,-1.1498564 3.19099,-1.48899434 C 144.42424,-0.29607689 196.21302,0.01725118 198.5,1 c 1.1,0.4726862 1.55,0.8984605 1,0.9461652 -0.55,0.047705 0.8,1.1061498 3,2.3521005 2.2,1.2459506 4,2.8575367 4,3.5813023 0,0.7237657 -1.92458,2.396949 -4.27684,3.718185 -4.26779,2.397162 -4.34188,2.402069 -35,2.317986 C 138.96491,13.838239 136.15902,13.674744 132.25,11.8779 Z m 9.28102,-2.5894385 C 142.65378,7.7529946 145.3253,7.5769231 167.5,7.5769231 c 22.1747,0 24.84622,0.1760715 25.96898,1.7115384 1.54536,2.1134055 2.90477,2.1710465 4.54659,0.1927809 1.02928,-1.2402077 0.94833,-1.8636483 -0.44135,-3.3992293 -1.44873,-1.6008318 -3.84816,-1.9877681 -16.13525,-2.6019991 -20.19568,-1.0095815 -40.78936,0.1733748 -43.67338,2.5087163 -1.88298,1.5247426 -2.00725,2.0151614 -0.86071,3.3966541 1.71941,2.0717636 3.06091,2.0436576 4.62614,-0.096923 z"
       id="path2820"
       inkscape:connector-curvature="0" />
  </g>
</svg>
