<?xml version="1.0" encoding="UTF-8" standalone="no"?>
<!-- Created with Inkscape (http://www.inkscape.org/) -->

<svg
   xmlns:dc="http://purl.org/dc/elements/1.1/"
   xmlns:cc="http://creativecommons.org/ns#"
   xmlns:rdf="http://www.w3.org/1999/02/22-rdf-syntax-ns#"
   xmlns:svg="http://www.w3.org/2000/svg"
   xmlns="http://www.w3.org/2000/svg"
   xmlns:sodipodi="http://sodipodi.sourceforge.net/DTD/sodipodi-0.dtd"
   xmlns:inkscape="http://www.inkscape.org/namespaces/inkscape"
   id="svg2"
   version="1.1"
   inkscape:version="0.47 r22583"
   width="524.90448"
   height="274.68848"
   sodipodi:docname="Kazoo.jpg">
  <metadata
     id="metadata8">
    <rdf:RDF>
      <cc:Work
         rdf:about="">
        <dc:format>image/svg+xml</dc:format>
        <dc:type
           rdf:resource="http://purl.org/dc/dcmitype/StillImage" />
        <dc:title></dc:title>
      </cc:Work>
    </rdf:RDF>
  </metadata>
  <defs
     id="defs6">
    <inkscape:perspective
       sodipodi:type="inkscape:persp3d"
       inkscape:vp_x="0 : 0.5 : 1"
       inkscape:vp_y="0 : 1000 : 0"
       inkscape:vp_z="1 : 0.5 : 1"
       inkscape:persp3d-origin="0.5 : 0.33333333 : 1"
       id="perspective10" />
  </defs>
  <sodipodi:namedview
     pagecolor="#ffffff"
     bordercolor="#666666"
     borderopacity="1"
     objecttolerance="10"
     gridtolerance="10"
     guidetolerance="10"
     inkscape:pageopacity="0"
     inkscape:pageshadow="2"
     inkscape:window-width="1280"
     inkscape:window-height="968"
     id="namedview4"
     showgrid="false"
     inkscape:zoom="1.50625"
     inkscape:cx="310.94014"
     inkscape:cy="112.94821"
     inkscape:window-x="-4"
     inkscape:window-y="-4"
     inkscape:window-maximized="1"
     inkscape:current-layer="svg2" />
  <path
     style="fill:#800000;stroke:#000000;stroke-width:1px;stroke-linecap:butt;stroke-linejoin:miter;stroke-opacity:1"
     d="M 1.438897,10.358418 0.5,35.23919 c 112.25619,93.33457 376.72295,214.61628 477.89856,238.94928 L 483.09304,254.47163 1.438897,10.358418 z"
     id="path2848"
     sodipodi:nodetypes="ccccc" />
  <path
     style="fill:#ff0000;stroke:#000000;stroke-width:1px;stroke-linecap:butt;stroke-linejoin:miter;stroke-opacity:1"
     d="M 1.438897,9.88897 C 141.71843,124.29882 393.13787,225.22368 483.5625,254.00218 l 40.37256,-67.13113 C 361.26882,110.35993 180.66139,43.74209 13.644558,0.5 7.69821,2.377794 3.629657,5.507451 1.438897,9.88897 z"
     id="path2846"
     sodipodi:nodetypes="ccccc" />
  <path
     style="fill:#ffd42a;fill-opacity:1;stroke:#000000;stroke-width:1px;stroke-linecap:butt;stroke-linejoin:miter;stroke-opacity:1"
     d="m 231.51711,111.4692 c 43.91004,11.65092 82.22192,6.91486 116.84647,-5.3112 l 0,21.07884 c -1.69764,27.25255 -83.22573,50.02984 -116.51453,3.9834 l -0.33194,-19.75104 z"
     id="path2844"
     sodipodi:nodetypes="ccccc" />
  <path
     style="fill:#d4aa00;fill-opacity:1;stroke:#000000;stroke-width:1px;stroke-linecap:butt;stroke-linejoin:miter;stroke-opacity:1"
     d="m 229.35943,100.8468 120.82988,-0.33195 c -3.09393,47.80139 -118.51047,50.55913 -120.82988,0.33195 z"
     id="path2842"
     sodipodi:nodetypes="ccc" />
  <path
     style="fill:#ffd42a;fill-opacity:1;stroke:#000000;stroke-width:1px;stroke-linecap:butt;stroke-linejoin:miter;stroke-opacity:1"
     d="m 229.19345,100.1829 c 31.73314,44.04316 102.08864,32.31802 119.17013,2.6556 l -119.17013,-2.6556 z"
     id="path2838"
     sodipodi:nodetypes="ccc" />
  <path
     style="fill:#ffdd55;fill-opacity:1;stroke:#000000;stroke-width:1px;stroke-linecap:butt;stroke-linejoin:miter;stroke-opacity:1"
     d="M 206.80027,57.80154 C 226.31958,6.152344 343.06582,6.841636 372.85315,54.54711 c 1.22328,4.60971 2.1986,8.51524 1.5834,13.12495 -10.07214,61.41638 -147.71093,68.27081 -168.92529,2.80083 -0.51337,-3.91081 -0.0606,-8.99526 1.28901,-12.67135 z"
     id="path2824"
     sodipodi:nodetypes="ccccc" />
  <path
     style="fill:#ffd42a;fill-opacity:1;stroke:#000000;stroke-width:1px;stroke-linecap:butt;stroke-linejoin:miter;stroke-opacity:1"
     d="m 230.25772,38.14111 c 61.73061,-37.985219 137.94067,-3.27901 133.85143,29.25534 -1.42523,8.27975 -6.38744,15.69384 -7.88418,16.81582 -15.67222,25.15589 -160.24039,27.85808 -137.94466,-31.41792 3.66586,-7.58193 6.61051,-9.79059 11.97741,-14.65324 z"
     id="path2820"
     sodipodi:nodetypes="ccccc" />
  <path
     style="fill:#806600;fill-opacity:1;stroke:#000000;stroke-width:1px;stroke-linecap:butt;stroke-linejoin:miter;stroke-opacity:1"
     d="M 226.69257,69.59763 C 225.98301,106.32248 349.2278,113.31095 353.08019,71.1731 345.17218,26.406275 237.09425,20.744939 226.69257,69.59763 z"
     id="path2826"
     sodipodi:nodetypes="ccc" />
  <path
     style="fill:#d4aa00;fill-opacity:1;stroke:#000000;stroke-width:1px;stroke-linecap:butt;stroke-linejoin:miter;stroke-opacity:1"
     d="m 232.93477,82.61512 c 9.65844,-53.18144 115.43585,-31.4868 113.84354,0.12727 -9.92783,18.57446 -89.89843,28.11135 -113.84354,-0.12727 z"
     id="path2830"
     sodipodi:nodetypes="ccc" />
  <path
     style="fill:#554400;fill-opacity:1;stroke:#000000;stroke-width:1px;stroke-linecap:butt;stroke-linejoin:miter;stroke-opacity:1"
     d="m 239.47137,87.92636 c 21.41038,17.75501 76.03527,18.71165 99.25455,1.40041 -16.86878,-28.02994 -88.51338,-23.48461 -99.25455,-1.40041 z"
     id="path2832"
     sodipodi:nodetypes="ccc" />
  <path
     style="fill:#d4aa00;fill-opacity:1;stroke:#000000;stroke-width:1px;stroke-linecap:butt;stroke-linejoin:miter;stroke-opacity:1"
     d="m 245.07304,91.25235 c 12.15269,-23.33902 78.67774,-18.2816 88.40131,0.7002 -7.98436,10.15978 -67.45455,16.53878 -88.40131,-0.7002 z"
     id="path2834"
     sodipodi:nodetypes="ccc" />
  <path
     style="fill:#2b0000;fill-opacity:1;stroke:#000000;stroke-width:1px;stroke-linecap:butt;stroke-linejoin:miter;stroke-opacity:1"
     d="m 259.42731,97.84079 c 14.57454,-13.96873 48.90685,-11.56993 64.41918,-1.20721 -18.97981,6.42898 -39.40963,9.62067 -64.41918,1.20721 z"
     id="path2836"
     sodipodi:nodetypes="ccc" />
  <path
     style="fill:#550000;stroke:#000000;stroke-width:1px;stroke-linecap:butt;stroke-linejoin:miter;stroke-opacity:1"
     d="m 519.24058,207.05734 5.16393,-19.24739 -40.84202,66.19223 -5.16393,19.71684 40.84202,-66.66168 z"
     id="path2850"
     sodipodi:nodetypes="ccccc" />
</svg>
