<?xml version="1.0" encoding="UTF-8" standalone="no"?>
<!-- Created with Inkscape (http://www.inkscape.org/) -->
<svg
   xmlns:dc="http://purl.org/dc/elements/1.1/"
   xmlns:cc="http://web.resource.org/cc/"
   xmlns:rdf="http://www.w3.org/1999/02/22-rdf-syntax-ns#"
   xmlns:svg="http://www.w3.org/2000/svg"
   xmlns="http://www.w3.org/2000/svg"
   xmlns:xlink="http://www.w3.org/1999/xlink"
   xmlns:sodipodi="http://sodipodi.sourceforge.net/DTD/sodipodi-0.dtd"
   xmlns:inkscape="http://www.inkscape.org/namespaces/inkscape"
   height="878.40454"
   width="426.38412"
   id="svg9710"
   sodipodi:version="0.32"
   inkscape:version="0.45.1"
   sodipodi:docbase="D:\Documents and Settings\Joanna\My Documents\My Pictures\graph_vector"
   sodipodi:docname="papapishu_lute_2.svg"
   inkscape:output_extension="org.inkscape.output.svg.inkscape"
   version="1.0"
   inkscape:export-filename="D:\Documents and Settings\Joanna\My Documents\My Pictures\graph_vector\papapishu_lute_2.png"
   inkscape:export-xdpi="48"
   inkscape:export-ydpi="48">
  <defs
     id="defs9712">
    <linearGradient
       id="linearGradient14942">
      <stop
         style="stop-color:#e2b47e;stop-opacity:1;"
         offset="0"
         id="stop14944" />
      <stop
         style="stop-color:#40281c;stop-opacity:0;"
         offset="1"
         id="stop14946" />
    </linearGradient>
    <radialGradient
       inkscape:collect="always"
       xlink:href="#linearGradient14942"
       id="radialGradient14948"
       cx="390.09579"
       cy="666.90344"
       fx="390.09579"
       fy="666.90344"
       r="50.43491"
       gradientTransform="matrix(1.4200243,-1.8705625,1.7664458,1.3409899,-1332.9118,515.10296)"
       gradientUnits="userSpaceOnUse" />
    <filter
       inkscape:collect="always"
       x="-0.031062923"
       width="1.0621258"
       y="-0.10555264"
       height="1.2111053"
       id="filter19862">
      <feGaussianBlur
         inkscape:collect="always"
         stdDeviation="2.0328738"
         id="feGaussianBlur19864" />
    </filter>
  </defs>
  <sodipodi:namedview
     id="base"
     pagecolor="#ffffff"
     bordercolor="#666666"
     borderopacity="1.0"
     inkscape:pageopacity="0.0"
     inkscape:pageshadow="2"
     inkscape:cx="213.19206"
     inkscape:cy="439.20227"
     inkscape:zoom="1.2638341"
     inkscape:document-units="px"
     inkscape:current-layer="layer8"
     inkscape:window-width="836"
     inkscape:window-height="956"
     inkscape:window-x="0"
     inkscape:window-y="0" />
  <metadata
     id="metadata9715">
    <rdf:RDF>
      <cc:Work
         rdf:about="">
        <dc:format>image/svg+xml</dc:format>
        <dc:type
           rdf:resource="http://purl.org/dc/dcmitype/StillImage" />
      </cc:Work>
    </rdf:RDF>
  </metadata>
  <g
     inkscape:groupmode="layer"
     id="layer8"
     inkscape:label="najwyz"
     transform="translate(-173.39888,-86.978859)">
    <path
       style="fill:#4f342d;fill-opacity:1;fill-rule:evenodd;stroke:#000000;stroke-width:3;stroke-linecap:butt;stroke-linejoin:miter;stroke-miterlimit:4;stroke-dasharray:none;stroke-opacity:1"
       d="M 388.77074,479.93078 C 295.05889,551.07775 196.22797,624.33544 176.95772,756.09206 C 160.5091,868.55631 243.71112,963.77954 387.43015,963.88332 C 524.23014,963.98119 604.52754,857.51549 597.90259,765.47619 C 587.93596,627.01148 485.59375,549.17899 388.77074,479.93078 z "
       id="path9843"
       sodipodi:nodetypes="csssc" />
    <path
       sodipodi:nodetypes="csssc"
       id="path10814"
       d="M 388.02505,490.0172 C 297.55422,558.70355 202.14137,629.42763 183.53758,756.62745 C 167.65783,865.20213 247.98231,957.13207 386.73083,957.23226 C 518.7996,957.32674 596.31991,854.54316 589.92409,765.68703 C 580.30215,632.01112 481.49944,556.87046 388.02505,490.0172 z "
       style="fill:#cbb495;fill-opacity:1;fill-rule:evenodd;stroke:#000000;stroke-width:2.89624524;stroke-linecap:butt;stroke-linejoin:miter;stroke-miterlimit:4;stroke-dasharray:none;stroke-opacity:1" />
    <path
       style="fill:#1d1c1a;fill-opacity:1;fill-rule:evenodd;stroke:#000000;stroke-width:3;stroke-linecap:butt;stroke-linejoin:miter;stroke-miterlimit:4;stroke-dasharray:none;stroke-opacity:1"
       d="M 365.98073,257.39304 C 359.08707,247.98275 360.65954,238.77062 339.83925,237.28421 L 335.14719,222.53774 C 356.20969,182.42144 358.99573,142.13537 362.62927,98.533275 C 373.85225,99.460632 379.96067,95.594322 385.41927,88.478859 L 404.85781,88.478859 C 408.22884,98.134807 419.46125,97.308924 427.64782,100.54416 C 420.21675,150.63136 434.31885,186.36312 447.75665,222.53774 L 445.07547,238.6248 C 430.61294,237.6085 419.36051,241.94236 415.58252,258.73363 L 365.98073,257.39304 z "
       id="path11787"
       sodipodi:nodetypes="ccccccccccc" />
    <path
       style="fill:#4f342d;fill-opacity:1;fill-rule:evenodd;stroke:#000000;stroke-width:2;stroke-linecap:butt;stroke-linejoin:miter;stroke-miterlimit:4;stroke-dasharray:none;stroke-opacity:1"
       d="M 315.70866,750.05941 L 300.29188,779.55237 C 338.85545,776.30898 330.00827,807.03444 386.08957,805.69385 C 433.23361,806.8085 431.44615,776.575 471.21695,778.21178 L 459.82195,750.05942 L 315.70866,750.05941 z "
       id="path11789"
       sodipodi:nodetypes="cccccc" />
    <path
       style="fill:#ffffff;fill-opacity:1;fill-rule:evenodd;stroke:#000000;stroke-width:2;stroke-linecap:butt;stroke-linejoin:miter;stroke-miterlimit:4;stroke-dasharray:none;stroke-opacity:1"
       d="M 341.85014,755.42177 L 429.6587,754.75148 L 429.6587,762.12471 L 342.52043,762.12472 L 341.85014,755.42177 z "
       id="path11791"
       sodipodi:nodetypes="ccccc" />
    <path
       style="opacity:1;fill:#40281c;fill-opacity:1;fill-rule:evenodd;stroke:#000000;stroke-width:3;stroke-linecap:butt;stroke-linejoin:miter;stroke-miterlimit:4;stroke-dasharray:none;stroke-opacity:1"
       d="M 387.43015,581.14523 C 353.21765,583.63125 327.94179,621.39511 345.8719,655.54791 C 360.38172,683.18582 409.02184,688.25024 430.99929,655.54791 C 448.45832,629.56896 431.78656,577.92212 387.43015,581.14523 z "
       id="path11793"
       sodipodi:nodetypes="csss" />
    <path
       sodipodi:nodetypes="csss"
       id="path11796"
       d="M 386.87061,574.02492 C 347.39492,576.89339 318.23067,620.46678 338.91911,659.87358 C 355.6611,691.76327 411.78393,697.60678 437.14236,659.87358 C 457.28725,629.89808 438.05074,570.30597 386.87061,574.02492 z "
       style="opacity:1;fill:none;fill-rule:evenodd;stroke:#4f342d;stroke-width:3;stroke-linecap:butt;stroke-linejoin:miter;stroke-miterlimit:4;stroke-dasharray:none;stroke-opacity:1" />
    <path
       style="opacity:1;fill:none;fill-rule:evenodd;stroke:#4f342d;stroke-width:3;stroke-linecap:butt;stroke-linejoin:miter;stroke-miterlimit:4;stroke-dasharray:none;stroke-opacity:1"
       d="M 386.96019,566.28574 C 342.23916,569.53536 309.1997,618.89857 332.63713,663.54157 C 351.60371,699.66861 415.18388,706.28858 443.91181,663.54157 C 466.73346,629.58306 444.9409,562.07263 386.96019,566.28574 z "
       id="path11798"
       sodipodi:nodetypes="csss" />
    <path
       style="opacity:1;fill:#b1b0b6;fill-opacity:1;fill-rule:evenodd;stroke:#000000;stroke-width:3;stroke-linecap:butt;stroke-linejoin:miter;stroke-miterlimit:4;stroke-dasharray:none;stroke-opacity:1"
       d="M 358.6075,136.74005 L 351.23426,136.74005 C 350.20851,130.31335 343.82845,125.81825 335.14719,128.69652 C 328.74845,130.81802 329.9493,142.80964 337.82837,147.46476 C 345.41067,151.94454 350.59587,148.16697 351.90455,141.43211 L 357.9372,142.7727 L 358.6075,136.74005 z "
       id="path11800"
       sodipodi:nodetypes="ccssccc" />
    <path
       sodipodi:nodetypes="ccssccc"
       id="path11803"
       d="M 350.02407,185.32668 L 342.58109,185.32668 C 341.54564,180.0189 335.10524,176.30642 326.34188,178.68357 C 319.88262,180.43571 321.09483,190.33953 329.04841,194.18417 C 336.70242,197.884 341.93667,194.76413 343.25772,189.20183 L 349.34743,190.30902 L 350.02407,185.32668 z "
       style="opacity:1;fill:#b1b0b6;fill-opacity:1;fill-rule:evenodd;stroke:#000000;stroke-width:2.7392261;stroke-linecap:butt;stroke-linejoin:miter;stroke-miterlimit:4;stroke-dasharray:none;stroke-opacity:1" />
    <path
       style="opacity:1;fill:#b1b0b6;fill-opacity:1;fill-rule:evenodd;stroke:#000000;stroke-width:2.64613676;stroke-linecap:butt;stroke-linejoin:miter;stroke-miterlimit:4;stroke-dasharray:none;stroke-opacity:1"
       d="M 424.69923,138.51402 L 432.1671,138.51402 C 433.20601,133.57738 439.66795,130.12449 448.46062,132.33542 C 454.94148,133.96504 453.72522,143.17635 445.74504,146.75216 C 438.06543,150.19329 432.47852,148.29701 431.15306,143.12364 L 425.37813,143.14798 L 424.69923,138.51402 z "
       id="path11805"
       sodipodi:nodetypes="ccssccc" />
    <path
       sodipodi:nodetypes="ccssccc"
       id="path11807"
       d="M 435.42394,186.10492 L 442.89181,186.10492 C 443.93072,181.16828 449.47477,181.91983 458.51504,182.6075 C 462.31472,182.89653 463.77964,190.76725 458.48063,191.66188 C 450.18273,193.06282 448.90074,193.54188 443.55351,190.37939 L 436.10284,190.73888 L 435.42394,186.10492 z "
       style="opacity:1;fill:#b1b0b6;fill-opacity:1;fill-rule:evenodd;stroke:#000000;stroke-width:2.64613676;stroke-linecap:butt;stroke-linejoin:miter;stroke-miterlimit:4;stroke-dasharray:none;stroke-opacity:1" />
    <path
       style="opacity:1;fill:#b1b0b6;fill-opacity:1;fill-rule:evenodd;stroke:#000000;stroke-width:2.64613676;stroke-linecap:butt;stroke-linejoin:miter;stroke-miterlimit:4;stroke-dasharray:none;stroke-opacity:1"
       d="M 355.35386,160.63373 L 347.88599,160.63373 C 346.84708,155.69709 341.30303,156.44864 332.26276,157.13631 C 328.46308,157.42534 326.99816,165.29606 332.29717,166.19069 C 340.59507,167.59163 341.87706,168.07069 347.22429,164.9082 L 354.67496,165.26769 L 355.35386,160.63373 z "
       id="path11809"
       sodipodi:nodetypes="ccssccc" />
    <path
       sodipodi:nodetypes="ccssccc"
       id="path11811"
       d="M 343.28856,208.89493 L 335.82069,208.89493 C 334.78178,203.95829 329.23773,204.70984 320.19746,205.39751 C 316.39778,205.68654 314.93286,213.55726 320.23187,214.45189 C 328.52977,215.85283 329.81176,216.33189 335.15899,213.1694 L 342.60966,213.52889 L 343.28856,208.89493 z "
       style="opacity:1;fill:#b1b0b6;fill-opacity:1;fill-rule:evenodd;stroke:#000000;stroke-width:2.64613676;stroke-linecap:butt;stroke-linejoin:miter;stroke-miterlimit:4;stroke-dasharray:none;stroke-opacity:1" />
    <path
       style="opacity:1;fill:#b1b0b6;fill-opacity:1;fill-rule:evenodd;stroke:#000000;stroke-width:2.7392261;stroke-linecap:butt;stroke-linejoin:miter;stroke-miterlimit:4;stroke-dasharray:none;stroke-opacity:1"
       d="M 428.76754,160.52579 L 437.88626,160.52579 C 438.92171,155.21801 441.67549,152.51097 450.43885,154.88812 C 456.89811,156.64026 463.05914,164.86835 455.10556,168.71299 C 447.45155,172.41282 438.53068,170.63353 437.20963,165.07123 L 429.44418,165.50813 L 428.76754,160.52579 z "
       id="path11813"
       sodipodi:nodetypes="ccssccc" />
    <path
       sodipodi:nodetypes="ccssccc"
       id="path11815"
       d="M 441.62508,208.90162 L 449.32435,208.90162 C 450.19862,204.42007 452.52374,202.13441 459.92297,204.14153 C 465.37676,205.62093 470.57874,212.56821 463.86324,215.81438 C 457.40068,218.93828 449.86846,217.43596 448.75305,212.7395 L 442.19639,213.1084 L 441.62508,208.90162 z "
       style="opacity:1;fill:#b1b0b6;fill-opacity:1;fill-rule:evenodd;stroke:#000000;stroke-width:2.31282973;stroke-linecap:butt;stroke-linejoin:miter;stroke-miterlimit:4;stroke-dasharray:none;stroke-opacity:1" />
    <g
       id="g11826"
       style="fill:#cbb495;fill-opacity:1">
      <path
         sodipodi:nodetypes="ccccc"
         id="path11817"
         d="M 370.67279,119.98269 L 370.67279,133.72373 C 373.5774,136.18148 376.48201,135.95804 379.38662,133.05343 L 379.38662,120.65299 C 376.48201,123.07048 373.5774,124.61799 370.67279,119.98269 z "
         style="fill:#cbb495;fill-opacity:1;fill-rule:evenodd;stroke:#000000;stroke-width:1px;stroke-linecap:butt;stroke-linejoin:miter;stroke-opacity:1" />
      <path
         sodipodi:nodetypes="csss"
         id="path11819"
         d="M 370.67279,119.64755 C 371.23179,123.66766 378.4942,123.55271 379.38662,120.31784 C 379.91014,118.42017 377.20817,116.79879 375.02971,116.63122 C 372.85125,116.46365 370.47834,118.24913 370.67279,119.64755 z "
         style="fill:#cbb495;fill-opacity:1;fill-rule:evenodd;stroke:#000000;stroke-width:1px;stroke-linecap:butt;stroke-linejoin:miter;stroke-opacity:1" />
      <path
         id="path11821"
         d="M 370.6875,126.9375 C 369.01531,127.68846 367.49023,129.00204 366.3125,131.03125 C 364.16053,134.73904 367.93907,139.75708 375.6875,139.75 C 383.68657,139.74269 386.17533,135.10046 384.75,132.0625 C 383.82094,130.08231 381.79252,128.29372 379.375,127.21875 L 379.375,133.0625 C 376.47039,135.96711 373.59211,136.17651 370.6875,133.71875 L 370.6875,126.9375 z "
         style="fill:#cbb495;fill-opacity:1;fill-rule:evenodd;stroke:#000000;stroke-width:1px;stroke-linecap:butt;stroke-linejoin:miter;stroke-opacity:1" />
    </g>
    <g
       id="g11831"
       transform="translate(-3.5547728,23.93547)"
       style="fill:#cbb495;fill-opacity:1">
      <path
         style="fill:#cbb495;fill-opacity:1;fill-rule:evenodd;stroke:#000000;stroke-width:1px;stroke-linecap:butt;stroke-linejoin:miter;stroke-opacity:1"
         d="M 370.67279,119.98269 L 370.67279,133.72373 C 373.5774,136.18148 376.48201,135.95804 379.38662,133.05343 L 379.38662,120.65299 C 376.48201,123.07048 373.5774,124.61799 370.67279,119.98269 z "
         id="path11833"
         sodipodi:nodetypes="ccccc" />
      <path
         style="fill:#cbb495;fill-opacity:1;fill-rule:evenodd;stroke:#000000;stroke-width:1px;stroke-linecap:butt;stroke-linejoin:miter;stroke-opacity:1"
         d="M 370.67279,119.64755 C 371.23179,123.66766 378.4942,123.55271 379.38662,120.31784 C 379.91014,118.42017 377.20817,116.79879 375.02971,116.63122 C 372.85125,116.46365 370.47834,118.24913 370.67279,119.64755 z "
         id="path11835"
         sodipodi:nodetypes="csss" />
      <path
         style="fill:#cbb495;fill-opacity:1;fill-rule:evenodd;stroke:#000000;stroke-width:1px;stroke-linecap:butt;stroke-linejoin:miter;stroke-opacity:1"
         d="M 370.6875,126.9375 C 369.01531,127.68846 367.49023,129.00204 366.3125,131.03125 C 364.16053,134.73904 367.93907,139.75708 375.6875,139.75 C 383.68657,139.74269 386.17533,135.10046 384.75,132.0625 C 383.82094,130.08231 381.79252,128.29372 379.375,127.21875 L 379.375,133.0625 C 376.47039,135.96711 373.59211,136.17651 370.6875,133.71875 L 370.6875,126.9375 z "
         id="path11837" />
    </g>
    <g
       transform="translate(-9.4793941,47.87094)"
       id="g11839"
       style="fill:#cbb495;fill-opacity:1">
      <path
         sodipodi:nodetypes="ccccc"
         id="path11841"
         d="M 370.67279,119.98269 L 370.67279,133.72373 C 373.5774,136.18148 376.48201,135.95804 379.38662,133.05343 L 379.38662,120.65299 C 376.48201,123.07048 373.5774,124.61799 370.67279,119.98269 z "
         style="fill:#cbb495;fill-opacity:1;fill-rule:evenodd;stroke:#000000;stroke-width:1px;stroke-linecap:butt;stroke-linejoin:miter;stroke-opacity:1" />
      <path
         sodipodi:nodetypes="csss"
         id="path11843"
         d="M 370.67279,119.64755 C 371.23179,123.66766 378.4942,123.55271 379.38662,120.31784 C 379.91014,118.42017 377.20817,116.79879 375.02971,116.63122 C 372.85125,116.46365 370.47834,118.24913 370.67279,119.64755 z "
         style="fill:#cbb495;fill-opacity:1;fill-rule:evenodd;stroke:#000000;stroke-width:1px;stroke-linecap:butt;stroke-linejoin:miter;stroke-opacity:1" />
      <path
         id="path11845"
         d="M 370.6875,126.9375 C 369.01531,127.68846 367.49023,129.00204 366.3125,131.03125 C 364.16053,134.73904 367.93907,139.75708 375.6875,139.75 C 383.68657,139.74269 386.17533,135.10046 384.75,132.0625 C 383.82094,130.08231 381.79252,128.29372 379.375,127.21875 L 379.375,133.0625 C 376.47039,135.96711 373.59211,136.17651 370.6875,133.71875 L 370.6875,126.9375 z "
         style="fill:#cbb495;fill-opacity:1;fill-rule:evenodd;stroke:#000000;stroke-width:1px;stroke-linecap:butt;stroke-linejoin:miter;stroke-opacity:1" />
    </g>
    <g
       id="g11847"
       transform="translate(-13.034167,72.991334)">
      <path
         style="fill:none;fill-rule:evenodd;stroke:#000000;stroke-width:1px;stroke-linecap:butt;stroke-linejoin:miter;stroke-opacity:1"
         d="M 370.67279,119.98269 L 370.67279,133.72373 C 373.5774,136.18148 376.48201,135.95804 379.38662,133.05343 L 379.38662,120.65299 C 376.48201,123.07048 373.5774,124.61799 370.67279,119.98269 z "
         id="path11849"
         sodipodi:nodetypes="ccccc" />
      <path
         style="fill:none;fill-rule:evenodd;stroke:#000000;stroke-width:1px;stroke-linecap:butt;stroke-linejoin:miter;stroke-opacity:1"
         d="M 370.67279,119.64755 C 371.23179,123.66766 378.4942,123.55271 379.38662,120.31784 C 379.91014,118.42017 377.20817,116.79879 375.02971,116.63122 C 372.85125,116.46365 370.47834,118.24913 370.67279,119.64755 z "
         id="path11851"
         sodipodi:nodetypes="csss" />
      <path
         style="fill:none;fill-rule:evenodd;stroke:#000000;stroke-width:1px;stroke-linecap:butt;stroke-linejoin:miter;stroke-opacity:1"
         d="M 370.6875,126.9375 C 369.01531,127.68846 367.49023,129.00204 366.3125,131.03125 C 364.16053,134.73904 367.93907,139.75708 375.6875,139.75 C 383.68657,139.74269 386.17533,135.10046 384.75,132.0625 C 383.82094,130.08231 381.79252,128.29372 379.375,127.21875 L 379.375,133.0625 C 376.47039,135.96711 373.59211,136.17651 370.6875,133.71875 L 370.6875,126.9375 z "
         id="path11853" />
    </g>
    <g
       transform="translate(-13.034167,72.991334)"
       id="g11855"
       style="fill:#cbb495;fill-opacity:1">
      <path
         sodipodi:nodetypes="ccccc"
         id="path11857"
         d="M 370.67279,119.98269 L 370.67279,133.72373 C 373.5774,136.18148 376.48201,135.95804 379.38662,133.05343 L 379.38662,120.65299 C 376.48201,123.07048 373.5774,124.61799 370.67279,119.98269 z "
         style="fill:#cbb495;fill-opacity:1;fill-rule:evenodd;stroke:#000000;stroke-width:1px;stroke-linecap:butt;stroke-linejoin:miter;stroke-opacity:1" />
      <path
         sodipodi:nodetypes="csss"
         id="path11859"
         d="M 370.67279,119.64755 C 371.23179,123.66766 378.4942,123.55271 379.38662,120.31784 C 379.91014,118.42017 377.20817,116.79879 375.02971,116.63122 C 372.85125,116.46365 370.47834,118.24913 370.67279,119.64755 z "
         style="fill:#cbb495;fill-opacity:1;fill-rule:evenodd;stroke:#000000;stroke-width:1px;stroke-linecap:butt;stroke-linejoin:miter;stroke-opacity:1" />
      <path
         id="path11861"
         d="M 370.6875,126.9375 C 369.01531,127.68846 367.49023,129.00204 366.3125,131.03125 C 364.16053,134.73904 367.93907,139.75708 375.6875,139.75 C 383.68657,139.74269 386.17533,135.10046 384.75,132.0625 C 383.82094,130.08231 381.79252,128.29372 379.375,127.21875 L 379.375,133.0625 C 376.47039,135.96711 373.59211,136.17651 370.6875,133.71875 L 370.6875,126.9375 z "
         style="fill:#cbb495;fill-opacity:1;fill-rule:evenodd;stroke:#000000;stroke-width:1px;stroke-linecap:butt;stroke-linejoin:miter;stroke-opacity:1" />
    </g>
    <g
       id="g11942"
       transform="matrix(-1,0,0,1,799.31006,-3.0163247)"
       style="fill:#cbb495;fill-opacity:1">
      <g
         transform="translate(14.411329,2.6811775)"
         id="g11873"
         style="fill:#cbb495;fill-opacity:1">
        <path
           sodipodi:nodetypes="ccccc"
           id="path11875"
           d="M 370.67279,119.98269 L 370.67279,133.72373 C 373.5774,136.18148 376.48201,135.95804 379.38662,133.05343 L 379.38662,120.65299 C 376.48201,123.07048 373.5774,124.61799 370.67279,119.98269 z "
           style="fill:#cbb495;fill-opacity:1;fill-rule:evenodd;stroke:#000000;stroke-width:1px;stroke-linecap:butt;stroke-linejoin:miter;stroke-opacity:1" />
        <path
           sodipodi:nodetypes="csss"
           id="path11877"
           d="M 370.67279,119.64755 C 371.23179,123.66766 378.4942,123.55271 379.38662,120.31784 C 379.91014,118.42017 377.20817,116.79879 375.02971,116.63122 C 372.85125,116.46365 370.47834,118.24913 370.67279,119.64755 z "
           style="fill:#cbb495;fill-opacity:1;fill-rule:evenodd;stroke:#000000;stroke-width:1px;stroke-linecap:butt;stroke-linejoin:miter;stroke-opacity:1" />
        <path
           id="path11879"
           d="M 370.6875,126.9375 C 369.01531,127.68846 367.49023,129.00204 366.3125,131.03125 C 364.16053,134.73904 367.93907,139.75708 375.6875,139.75 C 383.68657,139.74269 386.17533,135.10046 384.75,132.0625 C 383.82094,130.08231 381.79252,128.29372 379.375,127.21875 L 379.375,133.0625 C 376.47039,135.96711 373.59211,136.17651 370.6875,133.71875 L 370.6875,126.9375 z "
           style="fill:#cbb495;fill-opacity:1;fill-rule:evenodd;stroke:#000000;stroke-width:1px;stroke-linecap:butt;stroke-linejoin:miter;stroke-opacity:1" />
      </g>
      <g
         id="g11881"
         transform="translate(10.856556,26.616648)"
         style="fill:#cbb495;fill-opacity:1">
        <path
           style="fill:#cbb495;fill-opacity:1;fill-rule:evenodd;stroke:#000000;stroke-width:1px;stroke-linecap:butt;stroke-linejoin:miter;stroke-opacity:1"
           d="M 370.67279,119.98269 L 370.67279,133.72373 C 373.5774,136.18148 376.48201,135.95804 379.38662,133.05343 L 379.38662,120.65299 C 376.48201,123.07048 373.5774,124.61799 370.67279,119.98269 z "
           id="path11883"
           sodipodi:nodetypes="ccccc" />
        <path
           style="fill:#cbb495;fill-opacity:1;fill-rule:evenodd;stroke:#000000;stroke-width:1px;stroke-linecap:butt;stroke-linejoin:miter;stroke-opacity:1"
           d="M 370.67279,119.64755 C 371.23179,123.66766 378.4942,123.55271 379.38662,120.31784 C 379.91014,118.42017 377.20817,116.79879 375.02971,116.63122 C 372.85125,116.46365 370.47834,118.24913 370.67279,119.64755 z "
           id="path11885"
           sodipodi:nodetypes="csss" />
        <path
           style="fill:#cbb495;fill-opacity:1;fill-rule:evenodd;stroke:#000000;stroke-width:1px;stroke-linecap:butt;stroke-linejoin:miter;stroke-opacity:1"
           d="M 370.6875,126.9375 C 369.01531,127.68846 367.49023,129.00204 366.3125,131.03125 C 364.16053,134.73904 367.93907,139.75708 375.6875,139.75 C 383.68657,139.74269 386.17533,135.10046 384.75,132.0625 C 383.82094,130.08231 381.79252,128.29372 379.375,127.21875 L 379.375,133.0625 C 376.47039,135.96711 373.59211,136.17651 370.6875,133.71875 L 370.6875,126.9375 z "
           id="path11887" />
      </g>
      <g
         transform="translate(4.9319352,50.552118)"
         id="g11889"
         style="fill:#cbb495;fill-opacity:1">
        <path
           sodipodi:nodetypes="ccccc"
           id="path11891"
           d="M 370.67279,119.98269 L 370.67279,133.72373 C 373.5774,136.18148 376.48201,135.95804 379.38662,133.05343 L 379.38662,120.65299 C 376.48201,123.07048 373.5774,124.61799 370.67279,119.98269 z "
           style="fill:#cbb495;fill-opacity:1;fill-rule:evenodd;stroke:#000000;stroke-width:1px;stroke-linecap:butt;stroke-linejoin:miter;stroke-opacity:1" />
        <path
           sodipodi:nodetypes="csss"
           id="path11893"
           d="M 370.67279,119.64755 C 371.23179,123.66766 378.4942,123.55271 379.38662,120.31784 C 379.91014,118.42017 377.20817,116.79879 375.02971,116.63122 C 372.85125,116.46365 370.47834,118.24913 370.67279,119.64755 z "
           style="fill:#cbb495;fill-opacity:1;fill-rule:evenodd;stroke:#000000;stroke-width:1px;stroke-linecap:butt;stroke-linejoin:miter;stroke-opacity:1" />
        <path
           id="path11895"
           d="M 370.6875,126.9375 C 369.01531,127.68846 367.49023,129.00204 366.3125,131.03125 C 364.16053,134.73904 367.93907,139.75708 375.6875,139.75 C 383.68657,139.74269 386.17533,135.10046 384.75,132.0625 C 383.82094,130.08231 381.79252,128.29372 379.375,127.21875 L 379.375,133.0625 C 376.47039,135.96711 373.59211,136.17651 370.6875,133.71875 L 370.6875,126.9375 z "
           style="fill:#cbb495;fill-opacity:1;fill-rule:evenodd;stroke:#000000;stroke-width:1px;stroke-linecap:butt;stroke-linejoin:miter;stroke-opacity:1" />
      </g>
      <g
         transform="translate(1.3771623,75.672512)"
         id="g11897"
         style="fill:#cbb495;fill-opacity:1">
        <path
           sodipodi:nodetypes="ccccc"
           id="path11899"
           d="M 370.67279,119.98269 L 370.67279,133.72373 C 373.5774,136.18148 376.48201,135.95804 379.38662,133.05343 L 379.38662,120.65299 C 376.48201,123.07048 373.5774,124.61799 370.67279,119.98269 z "
           style="fill:#cbb495;fill-opacity:1;fill-rule:evenodd;stroke:#000000;stroke-width:1px;stroke-linecap:butt;stroke-linejoin:miter;stroke-opacity:1" />
        <path
           sodipodi:nodetypes="csss"
           id="path11901"
           d="M 370.67279,119.64755 C 371.23179,123.66766 378.4942,123.55271 379.38662,120.31784 C 379.91014,118.42017 377.20817,116.79879 375.02971,116.63122 C 372.85125,116.46365 370.47834,118.24913 370.67279,119.64755 z "
           style="fill:#cbb495;fill-opacity:1;fill-rule:evenodd;stroke:#000000;stroke-width:1px;stroke-linecap:butt;stroke-linejoin:miter;stroke-opacity:1" />
        <path
           id="path11903"
           d="M 370.6875,126.9375 C 369.01531,127.68846 367.49023,129.00204 366.3125,131.03125 C 364.16053,134.73904 367.93907,139.75708 375.6875,139.75 C 383.68657,139.74269 386.17533,135.10046 384.75,132.0625 C 383.82094,130.08231 381.79252,128.29372 379.375,127.21875 L 379.375,133.0625 C 376.47039,135.96711 373.59211,136.17651 370.6875,133.71875 L 370.6875,126.9375 z "
           style="fill:#cbb495;fill-opacity:1;fill-rule:evenodd;stroke:#000000;stroke-width:1px;stroke-linecap:butt;stroke-linejoin:miter;stroke-opacity:1" />
      </g>
    </g>
    <g
       id="g14950"
       style="fill:#4f342d;fill-opacity:1">
      <path
         style="opacity:1;fill:#4f342d;fill-opacity:1;fill-rule:evenodd;stroke:none;stroke-width:1px;stroke-linecap:butt;stroke-linejoin:miter;stroke-opacity:1"
         d="M 424.63594,585.84183 L 430.18464,580.32563 C 424.75248,575.53469 426.86716,577.08291 420.88504,573.74055 L 417.25096,580.61247 C 421.27732,583.15891 420.96389,583.27145 424.63594,585.84183 z "
         id="path12932"
         sodipodi:nodetypes="ccccc" />
      <path
         sodipodi:nodetypes="ccccc"
         id="path12946"
         d="M 445.29765,634.04385 L 453.00605,635.38444 C 453.77678,628.18254 453.73532,630.80306 453.00603,623.98945 L 445.29766,624.99488 C 445.54629,629.7524 445.27331,629.56165 445.29765,634.04385 z "
         style="opacity:1;fill:#4f342d;fill-opacity:1;fill-rule:evenodd;stroke:none;stroke-width:1px;stroke-linecap:butt;stroke-linejoin:miter;stroke-opacity:1" />
      <path
         style="opacity:1;fill:#4f342d;fill-opacity:1;fill-rule:evenodd;stroke:none;stroke-width:1px;stroke-linecap:butt;stroke-linejoin:miter;stroke-opacity:1"
         d="M 332.57897,625.49762 L 324.87057,624.15703 C 324.09984,631.35893 324.1413,628.73841 324.87059,635.55202 L 332.57896,634.54659 C 332.33033,629.78907 332.60331,629.97982 332.57897,625.49762 z "
         id="path12948"
         sodipodi:nodetypes="ccccc" />
      <path
         sodipodi:nodetypes="ccccc"
         id="path12950"
         d="M 385.25169,573.66275 L 383.9111,565.95435 C 391.113,565.18362 388.49248,565.22508 395.30609,565.95437 L 394.30066,573.66274 C 389.54314,573.41411 389.73389,573.68709 385.25169,573.66275 z "
         style="opacity:1;fill:#4f342d;fill-opacity:1;fill-rule:evenodd;stroke:none;stroke-width:1px;stroke-linecap:butt;stroke-linejoin:miter;stroke-opacity:1" />
      <path
         sodipodi:nodetypes="ccccc"
         id="path12952"
         d="M 339.78577,659.41241 L 333.4847,664.05063 C 329.58243,657.94869 330.78844,660.27557 328.4019,653.85205 L 335.74941,651.31355 C 337.64901,655.68245 337.80824,655.38997 339.78577,659.41241 z "
         style="opacity:1;fill:#4f342d;fill-opacity:1;fill-rule:evenodd;stroke:none;stroke-width:1px;stroke-linecap:butt;stroke-linejoin:miter;stroke-opacity:1" />
      <path
         style="opacity:1;fill:#4f342d;fill-opacity:1;fill-rule:evenodd;stroke:none;stroke-width:1px;stroke-linecap:butt;stroke-linejoin:miter;stroke-opacity:1"
         d="M 437.49231,601.99307 L 443.79338,597.35485 C 447.69565,603.45679 446.48964,601.12991 448.87618,607.55343 L 441.52867,610.09193 C 439.62907,605.72303 439.46984,606.01551 437.49231,601.99307 z "
         id="path12954"
         sodipodi:nodetypes="ccccc" />
      <path
         sodipodi:nodetypes="ccccc"
         id="path12956"
         d="M 437.49231,659.24483 L 443.79338,663.88305 C 447.69565,657.78111 446.48964,660.10799 448.87618,653.68447 L 441.52867,651.14597 C 439.62907,655.51487 439.46984,655.22239 437.49231,659.24483 z "
         style="opacity:1;fill:#4f342d;fill-opacity:1;fill-rule:evenodd;stroke:none;stroke-width:1px;stroke-linecap:butt;stroke-linejoin:miter;stroke-opacity:1" />
      <path
         style="opacity:1;fill:#4f342d;fill-opacity:1;fill-rule:evenodd;stroke:none;stroke-width:1px;stroke-linecap:butt;stroke-linejoin:miter;stroke-opacity:1"
         d="M 341.12636,601.8255 L 334.82529,597.18728 C 330.92302,603.28922 332.12903,600.96234 329.74249,607.38586 L 337.09,609.92436 C 338.9896,605.55546 339.14883,605.84794 341.12636,601.8255 z "
         id="path12958"
         sodipodi:nodetypes="ccccc" />
      <path
         style="opacity:1;fill:#4f342d;fill-opacity:1;fill-rule:evenodd;stroke:none;stroke-width:1px;stroke-linecap:butt;stroke-linejoin:miter;stroke-opacity:1"
         d="M 383.07324,685.20843 L 381.73265,692.91683 C 388.93455,693.68756 386.31403,693.6461 393.12764,692.91681 L 392.12221,685.20844 C 387.36469,685.45707 387.55544,685.18409 383.07324,685.20843 z "
         id="path12966"
         sodipodi:nodetypes="ccccc" />
      <path
         sodipodi:nodetypes="ccccc"
         id="path12968"
         d="M 354.49129,586.13201 L 349.20382,580.36493 C 354.85188,575.83052 352.66782,577.27922 358.79821,574.21729 L 362.11036,581.25003 C 357.97047,583.6074 358.27836,583.73433 354.49129,586.13201 z "
         style="opacity:1;fill:#4f342d;fill-opacity:1;fill-rule:evenodd;stroke:none;stroke-width:1px;stroke-linecap:butt;stroke-linejoin:miter;stroke-opacity:1" />
      <path
         style="opacity:1;fill:#4f342d;fill-opacity:1;fill-rule:evenodd;stroke:none;stroke-width:1px;stroke-linecap:butt;stroke-linejoin:miter;stroke-opacity:1"
         d="M 421.04407,675.33562 L 425.6361,681.67043 C 419.50579,685.52799 421.84143,684.33902 415.40064,686.67854 L 412.91591,679.31268 C 417.29859,677.44506 417.00727,677.2837 421.04407,675.33562 z "
         id="path12970"
         sodipodi:nodetypes="ccccc" />
      <path
         sodipodi:nodetypes="ccccc"
         id="path12972"
         d="M 353.99755,675.33562 L 349.40552,681.67043 C 355.53583,685.52799 353.20019,684.33902 359.64098,686.67854 L 362.12571,679.31268 C 357.74303,677.44506 358.03435,677.2837 353.99755,675.33562 z "
         style="opacity:1;fill:#4f342d;fill-opacity:1;fill-rule:evenodd;stroke:none;stroke-width:1px;stroke-linecap:butt;stroke-linejoin:miter;stroke-opacity:1" />
    </g>
    <path
       style="fill:#ffffff;fill-opacity:1;fill-rule:evenodd;stroke:#000000;stroke-width:1px;stroke-linecap:butt;stroke-linejoin:miter;stroke-opacity:1"
       d="M 364.95667,257.04102 L 363.06079,264.62453 L 415.19746,264.62453 L 416.1454,256.09308 L 364.95667,257.04102 z "
       id="path12992" />
    <path
       sodipodi:nodetypes="csss"
       id="path14940"
       d="M 387.43015,581.14523 C 353.21765,583.63125 327.94179,621.39511 345.8719,655.54791 C 360.38172,683.18582 409.02184,688.25024 430.99929,655.54791 C 448.45832,629.56896 431.78656,577.92212 387.43015,581.14523 z "
       style="opacity:1;fill:url(#radialGradient14948);fill-opacity:1;fill-rule:evenodd;stroke:#4f342d;stroke-width:3;stroke-linecap:butt;stroke-linejoin:miter;stroke-miterlimit:4;stroke-dasharray:none;stroke-opacity:1" />
    <path
       style="fill:#24211a;fill-opacity:1;fill-rule:evenodd;stroke:#000000;stroke-width:3;stroke-linecap:butt;stroke-linejoin:miter;stroke-miterlimit:4;stroke-dasharray:none;stroke-opacity:1"
       d="M 365.98073,260.07422 L 353.91543,581.81553 L 424.96664,581.81553 L 414.24193,260.07422 L 365.98073,260.07422 z "
       id="path10816" />
    <path
       style="fill:none;fill-rule:evenodd;stroke:#ffffff;stroke-width:3;stroke-linecap:butt;stroke-linejoin:miter;stroke-miterlimit:4;stroke-dasharray:none;stroke-opacity:1"
       d="M 363.29956,289.56717 C 416.92311,289.56717 416.92311,289.56717 416.92311,289.56717 L 416.92311,289.56717"
       id="path17871" />
    <path
       id="path18842"
       d="M 360.61838,312.35718 C 414.24193,312.35718 418.2637,312.35718 418.2637,312.35718 L 418.2637,312.35718"
       style="fill:none;fill-rule:evenodd;stroke:#ffffff;stroke-width:3;stroke-linecap:butt;stroke-linejoin:miter;stroke-miterlimit:4;stroke-dasharray:none;stroke-opacity:1"
       sodipodi:nodetypes="ccc" />
    <path
       style="fill:none;fill-rule:evenodd;stroke:#ffffff;stroke-width:3;stroke-linecap:butt;stroke-linejoin:miter;stroke-miterlimit:4;stroke-dasharray:none;stroke-opacity:1"
       d="M 360.61838,332.46601 C 414.24193,332.46601 418.2637,332.46601 418.2637,332.46601 L 418.2637,332.46601"
       id="path18844"
       sodipodi:nodetypes="ccc" />
    <path
       id="path18846"
       d="M 359.27779,353.24513 C 412.90134,353.24513 416.92311,352.57484 416.92311,352.57484 L 420.27458,353.24513"
       style="fill:none;fill-rule:evenodd;stroke:#ffffff;stroke-width:3;stroke-linecap:butt;stroke-linejoin:miter;stroke-miterlimit:4;stroke-dasharray:none;stroke-opacity:1"
       sodipodi:nodetypes="ccc" />
    <path
       sodipodi:nodetypes="ccc"
       style="fill:none;fill-rule:evenodd;stroke:#ffffff;stroke-width:3;stroke-linecap:butt;stroke-linejoin:miter;stroke-miterlimit:4;stroke-dasharray:none;stroke-opacity:1"
       d="M 359.27779,373.12396 C 412.90134,373.12396 416.92311,372.45367 416.92311,372.45367 L 420.27458,373.12396"
       id="path18848" />
    <path
       id="path18850"
       d="M 357.85588,392.08275 C 411.47943,392.08275 417.87105,391.41246 417.87105,391.41246 L 421.22252,392.08275"
       style="fill:none;fill-rule:evenodd;stroke:#ffffff;stroke-width:3;stroke-linecap:butt;stroke-linejoin:miter;stroke-miterlimit:4;stroke-dasharray:none;stroke-opacity:1"
       sodipodi:nodetypes="ccc" />
    <path
       sodipodi:nodetypes="ccc"
       style="fill:none;fill-rule:evenodd;stroke:#ffffff;stroke-width:3;stroke-linecap:butt;stroke-linejoin:miter;stroke-miterlimit:4;stroke-dasharray:none;stroke-opacity:1"
       d="M 355.48603,411.04154 C 409.10958,411.04154 416.92311,410.37125 416.92311,410.37125 L 420.27458,411.04154"
       id="path18852" />
    <path
       id="path18854"
       d="M 354.53809,428.10445 C 408.16164,428.10445 418.81899,427.43416 418.81899,427.43416 L 422.17046,428.10445"
       style="fill:none;fill-rule:evenodd;stroke:#ffffff;stroke-width:3;stroke-linecap:butt;stroke-linejoin:miter;stroke-miterlimit:4;stroke-dasharray:none;stroke-opacity:1"
       sodipodi:nodetypes="ccc" />
    <path
       sodipodi:nodetypes="ccc"
       style="fill:none;fill-rule:evenodd;stroke:#ffffff;stroke-width:3;stroke-linecap:butt;stroke-linejoin:miter;stroke-miterlimit:4;stroke-dasharray:none;stroke-opacity:1"
       d="M 353.59015,443.27148 C 407.2137,443.27148 418.81899,442.60119 418.81899,442.60119 L 422.17046,443.27148"
       id="path18856" />
    <path
       id="path18858"
       d="M 356.43397,457.49057 C 410.05752,457.49057 419.76693,456.82028 419.76693,456.82028 L 423.1184,457.49057"
       style="fill:none;fill-rule:evenodd;stroke:#ffffff;stroke-width:3;stroke-linecap:butt;stroke-linejoin:miter;stroke-miterlimit:4;stroke-dasharray:none;stroke-opacity:1"
       sodipodi:nodetypes="ccc" />
    <path
       style="fill:none;fill-rule:evenodd;stroke:#ffffff;stroke-width:3;stroke-linecap:butt;stroke-linejoin:miter;stroke-miterlimit:4;stroke-dasharray:none;stroke-opacity:1"
       d="M 424.02617,469.61978 C 424.02617,469.61978 409.59737,470.75 355.97383,470.75 L 424.02617,469.61978 z "
       id="path18860"
       sodipodi:nodetypes="ccc" />
    <path
       sodipodi:nodetypes="ccc"
       id="path18864"
       d="M 423.07823,482.89093 C 423.07823,482.89093 408.64943,484.02115 355.02589,484.02115 L 423.07823,482.89093 z "
       style="fill:none;fill-rule:evenodd;stroke:#ffffff;stroke-width:3;stroke-linecap:butt;stroke-linejoin:miter;stroke-miterlimit:4;stroke-dasharray:none;stroke-opacity:1" />
    <path
       style="fill:none;fill-rule:evenodd;stroke:#ffffff;stroke-width:3;stroke-linecap:butt;stroke-linejoin:miter;stroke-miterlimit:4;stroke-dasharray:none;stroke-opacity:1"
       d="M 424.02617,494.2662 C 424.02617,494.2662 409.59737,495.39642 355.97383,495.39642 L 424.02617,494.2662 z "
       id="path18866"
       sodipodi:nodetypes="ccc" />
    <path
       sodipodi:nodetypes="ccc"
       id="path18868"
       d="M 424.02617,506.11544 C 424.02617,506.11544 409.59737,507.24566 355.97383,507.24566 L 424.02617,506.11544 z "
       style="fill:none;fill-rule:evenodd;stroke:#ffffff;stroke-width:3;stroke-linecap:butt;stroke-linejoin:miter;stroke-miterlimit:4;stroke-dasharray:none;stroke-opacity:1" />
    <path
       style="fill:none;fill-rule:evenodd;stroke:#ffffff;stroke-width:3;stroke-linecap:butt;stroke-linejoin:miter;stroke-miterlimit:4;stroke-dasharray:none;stroke-opacity:1"
       d="M 424.02617,516.54277 C 424.02617,516.54277 409.59737,517.67299 355.97383,517.67299 L 424.02617,516.54277 z "
       id="path18870"
       sodipodi:nodetypes="ccc" />
    <path
       sodipodi:nodetypes="ccc"
       id="path18872"
       d="M 424.02617,525.54819 C 424.02617,525.54819 409.59737,526.67841 355.97383,526.67841 L 424.02617,525.54819 z "
       style="fill:none;fill-rule:evenodd;stroke:#ffffff;stroke-width:3;stroke-linecap:butt;stroke-linejoin:miter;stroke-miterlimit:4;stroke-dasharray:none;stroke-opacity:1" />
    <path
       style="fill:none;fill-rule:evenodd;stroke:#ffffff;stroke-width:3;stroke-linecap:butt;stroke-linejoin:miter;stroke-miterlimit:4;stroke-dasharray:none;stroke-opacity:1"
       d="M 424.02617,533.60567 C 424.02617,533.60567 409.59737,534.73589 355.97383,534.73589 L 424.02617,533.60567 z "
       id="path18874"
       sodipodi:nodetypes="ccc" />
    <path
       sodipodi:nodetypes="ccc"
       id="path18876"
       d="M 423.5522,542.13712 C 423.5522,542.13712 409.1234,543.26734 355.49986,543.26734 L 423.5522,542.13712 z "
       style="fill:none;fill-rule:evenodd;stroke:#ffffff;stroke-width:3;stroke-linecap:butt;stroke-linejoin:miter;stroke-miterlimit:4;stroke-dasharray:none;stroke-opacity:1" />
    <path
       sodipodi:nodetypes="cccccc"
       id="path19848"
       d="M 321.86255,752.88822 L 307.6959,774.86503 C 343.13241,772.44819 335.00263,800.08311 386.53635,799.08417 C 429.85756,799.91475 428.21504,772.64642 464.76087,773.86607 L 454.28988,752.88823 L 321.86255,752.88822 z "
       style="fill:#cbb495;fill-opacity:0.21052629;fill-rule:evenodd;stroke:none;stroke-width:1.6549691;stroke-linecap:butt;stroke-linejoin:miter;stroke-miterlimit:4;stroke-dasharray:none;stroke-opacity:1;filter:url(#filter19862)" />
    <path
       style="fill:none;fill-rule:evenodd;stroke:#ffffff;stroke-width:3;stroke-linecap:butt;stroke-linejoin:miter;stroke-miterlimit:4;stroke-dasharray:none;stroke-opacity:1"
       d="M 422.90719,575.49262 C 422.90719,575.49262 408.47839,576.62284 354.85485,576.62284 L 422.90719,575.49262 z "
       id="path25982"
       sodipodi:nodetypes="ccc" />
    <path
       sodipodi:nodetypes="ccc"
       id="path25984"
       d="M 423.46668,550.39212 C 423.46668,550.39212 409.03788,551.52234 355.41434,551.52234 L 423.46668,550.39212 z "
       style="fill:none;fill-rule:evenodd;stroke:#ffffff;stroke-width:3;stroke-linecap:butt;stroke-linejoin:miter;stroke-miterlimit:4;stroke-dasharray:none;stroke-opacity:1" />
    <path
       style="fill:none;fill-rule:evenodd;stroke:#ffffff;stroke-width:3;stroke-linecap:butt;stroke-linejoin:miter;stroke-miterlimit:4;stroke-dasharray:none;stroke-opacity:1"
       d="M 423.46668,559.39754 C 423.46668,559.39754 409.03788,560.52776 355.41434,560.52776 L 423.46668,559.39754 z "
       id="path25986"
       sodipodi:nodetypes="ccc" />
    <path
       sodipodi:nodetypes="ccc"
       id="path25988"
       d="M 423.46668,567.45502 C 423.46668,567.45502 409.03788,568.58524 355.41434,568.58524 L 423.46668,567.45502 z "
       style="fill:none;fill-rule:evenodd;stroke:#ffffff;stroke-width:3;stroke-linecap:butt;stroke-linejoin:miter;stroke-miterlimit:4;stroke-dasharray:none;stroke-opacity:1" />
    <path
       style="opacity:1;fill:none;fill-rule:evenodd;stroke:#7d7b7d;stroke-width:3;stroke-linecap:butt;stroke-linejoin:miter;stroke-miterlimit:4;stroke-dasharray:none;stroke-opacity:1"
       d="M 353.24514,778.21178 L 371.89838,257.39304 L 368.66191,203.76949"
       id="path12974"
       sodipodi:nodetypes="ccc" />
    <path
       sodipodi:nodetypes="ccc"
       style="opacity:1;fill:none;fill-rule:evenodd;stroke:#7d7b7d;stroke-width:3;stroke-linecap:butt;stroke-linejoin:miter;stroke-miterlimit:4;stroke-dasharray:none;stroke-opacity:1"
       d="M 374.62653,778.49007 L 383.89696,256.55596 L 376.14798,156.33239"
       id="path12983" />
    <path
       sodipodi:nodetypes="ccc"
       style="opacity:1;fill:none;fill-rule:evenodd;stroke:#7d7b7d;stroke-width:3;stroke-linecap:butt;stroke-linejoin:miter;stroke-miterlimit:4;stroke-dasharray:none;stroke-opacity:1"
       d="M 384.10658,769.93824 L 390.36924,258.11097 L 382.39307,130.54814"
       id="path12985" />
    <path
       id="path12989"
       d="M 396.46925,775.3006 L 392.88777,256.77039 L 400.86394,130.54815"
       style="opacity:1;fill:none;fill-rule:evenodd;stroke:#7d7b7d;stroke-width:3;stroke-linecap:butt;stroke-linejoin:miter;stroke-miterlimit:4;stroke-dasharray:none;stroke-opacity:1"
       sodipodi:nodetypes="ccc" />
    <path
       id="path12987"
       d="M 404.44542,768.71265 L 398.41276,256.49274 L 403.26747,155.66275"
       style="opacity:1;fill:none;fill-rule:evenodd;stroke:#7d7b7d;stroke-width:3;stroke-linecap:butt;stroke-linejoin:miter;stroke-miterlimit:4;stroke-dasharray:none;stroke-opacity:1"
       sodipodi:nodetypes="ccc" />
    <path
       sodipodi:nodetypes="ccc"
       style="opacity:1;fill:none;fill-rule:evenodd;stroke:#7d7b7d;stroke-width:3;stroke-linecap:butt;stroke-linejoin:miter;stroke-miterlimit:4;stroke-dasharray:none;stroke-opacity:1"
       d="M 416.22152,778.81471 L 404.15622,261.90273 L 408.34063,179.84099"
       id="path12981" />
    <path
       sodipodi:nodetypes="ccc"
       id="path12979"
       d="M 422.92446,769.26795 L 410.30387,261.1848 L 413.54034,207.56125"
       style="opacity:1;fill:none;fill-rule:evenodd;stroke:#7d7b7d;stroke-width:3;stroke-linecap:butt;stroke-linejoin:miter;stroke-miterlimit:4;stroke-dasharray:none;stroke-opacity:1" />
    <path
       id="path12977"
       d="M 361.95896,772.34177 L 378.04603,258.11097 L 373.86162,176.04923"
       style="opacity:1;fill:none;fill-rule:evenodd;stroke:#7d7b7d;stroke-width:3;stroke-linecap:butt;stroke-linejoin:miter;stroke-miterlimit:4;stroke-dasharray:none;stroke-opacity:1"
       sodipodi:nodetypes="ccc" />
  </g>
</svg>
