<?xml version="1.0" encoding="UTF-8" standalone="no"?>
<!-- Created with Inkscape (http://www.inkscape.org/) -->

<svg
   xmlns:dc="http://purl.org/dc/elements/1.1/"
   xmlns:cc="http://creativecommons.org/ns#"
   xmlns:rdf="http://www.w3.org/1999/02/22-rdf-syntax-ns#"
   xmlns:svg="http://www.w3.org/2000/svg"
   xmlns="http://www.w3.org/2000/svg"
   xmlns:sodipodi="http://sodipodi.sourceforge.net/DTD/sodipodi-0.dtd"
   xmlns:inkscape="http://www.inkscape.org/namespaces/inkscape"
   version="1.0"
   width="42.118061"
   height="128"
   viewBox="0 0 42.11806 128"
   id="svg2"
   sodipodi:docname="oboe.svg"
   inkscape:version="0.92.2 (5c3e80d, 2017-08-06)">
  <title
     id="title923">Oboe</title>
  <sodipodi:namedview
     pagecolor="#ffffff"
     bordercolor="#666666"
     borderopacity="1"
     objecttolerance="10"
     gridtolerance="10"
     guidetolerance="10"
     inkscape:pageopacity="0"
     inkscape:pageshadow="2"
     inkscape:window-width="1920"
     inkscape:window-height="1025"
     id="namedview116"
     showgrid="false"
     inkscape:zoom="3.9124778"
     inkscape:cx="24.242522"
     inkscape:cy="49.911964"
     inkscape:window-x="-8"
     inkscape:window-y="-8"
     inkscape:window-maximized="1"
     inkscape:current-layer="svg2"
     fit-margin-top="0"
     fit-margin-left="0"
     fit-margin-right="0"
     fit-margin-bottom="0" />
  <metadata
     id="metadata2">
    <rdf:RDF>
      <cc:Work
         rdf:about="">
        <dc:title>Oboe</dc:title>
        <dc:description>Oboe.</dc:description>
        <dc:subject>
          <rdf:Bag>
            <rdf:li>oboe</rdf:li>
            <rdf:li>music</rdf:li>
            <rdf:li>equipment</rdf:li>
          </rdf:Bag>
        </dc:subject>
        <dc:publisher>
          <cc:Agent
             rdf:about="http://www.openclipart.org/">
            <dc:title>Open Clip Art Project</dc:title>
          </cc:Agent>
        </dc:publisher>
        <dc:creator>
          <cc:Agent
             rdf:about="http://web.resource.org/cc/PublicDomain">
            <dc:title>Gerald G.</dc:title>
          </cc:Agent>
        </dc:creator>
        <dc:rights>
          <cc:Agent
             rdf:about="http://web.resource.org/cc/PublicDomain">
            <dc:title>Public Domain</dc:title>
          </cc:Agent>
        </dc:rights>
        <dc:date>2005-04-22</dc:date>
        <dc:format>image/svg+xml</dc:format>
        <dc:type
           rdf:resource="http://purl.org/dc/dcmitype/StillImage" />
        <cc:license
           rdf:resource="http://creativecommons.org/publicdomain/zero/1.0/" />
        <dc:language>en</dc:language>
      </cc:Work>
      <cc:License
         rdf:about="http://creativecommons.org/publicdomain/zero/1.0/">
        <cc:permits
           rdf:resource="http://creativecommons.org/ns#Reproduction" />
        <cc:permits
           rdf:resource="http://creativecommons.org/ns#Distribution" />
        <cc:permits
           rdf:resource="http://creativecommons.org/ns#DerivativeWorks" />
      </cc:License>
    </rdf:RDF>
  </metadata>
  <defs
     id="defs228" />
  <g
     id="g3568"
     transform="matrix(0.18755823,0,0,0.18755823,1.6892341e-5,-1.2354662e-4)">
    <path
       d="m 42.54,148.048 c 13.911,0 25.2,6.387 25.2,14.256 0,7.869 -11.29,14.256 -25.2,14.256 -13.91,0 -25.2,-6.387 -25.2,-14.256 0,-7.869 11.29,-14.256 25.2,-14.256"
       style="fill:#ffffff;fill-rule:evenodd"
       id="path9"
       inkscape:connector-curvature="0" />
    <path
       d="m 223.225,651.26 c 1.367,2.556 1.584,5.508 1.043,8.855 -0.648,3.349 -0.252,7.704 -4.787,11.124 -4.68,3.313 -16.02,6.624 -23.041,8.532 -7.199,1.8 -14.004,3.816 -19.295,1.872 -5.365,-2.124 -9.324,-6.912 -12.277,-14.364 1.477,-0.432 2.232,-2.376 2.557,-5.976 0.18,-3.564 0.9,-4.248 -1.043,-15.516 -2.088,-11.557 -6.697,-33.337 -10.908,-52.416 -4.32,-19.188 -9.938,-43.669 -14.328,-61.093 -4.428,-17.388 -6.588,-24.372 -11.629,-42.336 -5.076,-18.18 -11.123,-39.492 -18.432,-65.304 -2.16,0.684 -3.924,0.684 -5.292,0 -1.476,-0.648 -2.592,-1.692 -3.06,-4.104 -0.576,-2.592 -0.396,-6.3 0.144,-11.268 -2.376,1.477 -3.96,1.08 -4.608,-1.188 -0.72,-2.412 -0.648,-6.444 0.36,-12.637 -2.628,-0.252 -3.96,-0.863 -4.428,-1.691 -0.468,-0.9 1.08,-2.736 1.872,-3.42 0.828,-0.757 1.692,-1.152 2.88,-1.044 l -0.504,-4.248 c -0.72,-0.217 -1.008,-0.721 -1.008,-1.368 0,-0.721 0.288,-1.692 1.008,-2.916 l -4.104,-18.433 c -2.592,-0.611 -4.356,-1.728 -5.292,-3.06 -0.936,-1.476 -0.72,-3.888 -0.324,-5.292 0.324,-1.548 1.116,-2.556 2.376,-3.42 -3.168,-12.78 -5.436,-21.204 -6.66,-25.272 -1.296,-4.068 -1.692,-3.996 -1.044,0.612 -4.212,1.116 -7.056,1.512 -8.532,1.188 -1.548,-0.396 -1.764,-2.448 -0.36,-3.384 1.404,-1.008 4.104,-1.872 8.532,-2.592 -2.916,-1.836 -4.572,-3.708 -5.112,-5.616 -0.54,-1.944 0.036,-3.888 1.872,-5.976 -2.016,-9.936 -3.384,-15.696 -4.248,-17.424 -0.792,-1.692 -0.288,5.688 -0.864,7.02 -0.828,1.224 -1.368,2.952 -3.42,0.18 -2.016,-2.988 -6.156,-9.648 -8.532,-17.604 -2.556,-8.136 -5.58,-21.492 -6.3,-30.204 -0.756,-8.712 -0.18,-15.804 1.872,-21.672 l -3.6,-11.952 c -0.72,1.296 -1.728,1.98 -2.736,2.052 -1.26,0.108 -2.556,-0.468 -3.744,-1.872 -1.08,-1.656 -2.268,-6.12 -2.736,-7.704 -0.504,-1.656 -0.612,-2.268 -0.324,-1.98 -1.332,-0.396 -2.196,-1.836 -2.592,-3.924 -0.468,-2.196 -0.468,-5.22 0,-9.072 -2.376,-2.52 -3.96,-5.112 -4.752,-7.488 -0.828,-2.52 -0.792,-5.976 -0.18,-7.164 0.576,-1.152 1.62,-1.152 3.42,0.144 l -2.232,-10.728 c -3.132,1.548 -5.004,1.728 -5.616,0.684 -0.648,-1.116 -0.072,-3.456 1.872,-7.164 l -1.368,-4.644 c -2.268,-0.144 -3.924,-0.864 -5.112,-2.016 -1.296,-1.26 -2.16,-3.492 -2.052,-5.148 0.072,-1.656 1.08,-3.24 2.88,-4.752 l -5.616,-23.22 c -0.648,0.828 -1.08,0.54 -1.692,-0.864 -0.612,-1.512 -2.16,-5.688 -1.728,-7.524 0.36,-1.836 1.62,-2.916 3.924,-3.384 L 11.112,65.396 C 9.06,63.884 7.692,62.3 7.008,60.788 6.216,59.132 6.108,57.404 6.684,56 7.188,54.524 8.376,53.372 10.248,52.256 9.42,50.816 9.204,49.664 9.744,48.656 10.212,47.612 11.4,46.712 13.308,46.1 L 10.068,36.056 11.436,35.876 0.024,0.704 7.692,0.02 l 7.524,34.812 2.016,-0.36 1.548,10.116 c 1.404,0.54 2.304,1.008 3.096,1.692 0.684,0.612 1.08,1.296 1.188,2.052 2.052,-0.216 3.816,0.072 5.436,0.864 1.548,0.684 3.42,2.124 4.104,3.924 0.612,1.764 0.396,4.284 -0.504,7.164 1.152,1.08 2.052,2.376 2.556,3.744 0.36,1.296 0.108,3.528 0.36,4.608 0.216,1.08 0.72,1.98 1.368,1.872 0.576,-0.216 1.62,-3.132 2.556,-3.06 0.936,0.108 2.088,1.944 3.06,3.42 0.828,1.368 0,-2.304 2.376,4.932 2.34,7.308 6.228,19.728 11.808,38.232 l 2.808,2.916 c 2.268,0.252 3.672,1.26 4.752,2.736 0.936,1.368 0.18,2.952 1.044,6.3 0.756,3.348 2.052,8.064 3.744,14.004 1.656,5.832 3.6,12.78 5.976,20.988 l -4.104,0.504 -11.592,-35.82 -2.736,2.052 3.744,12.276 c 1.332,0.144 2.412,0.756 3.096,2.232 0.684,1.44 0.972,3.348 1.008,6.12 l 9.9,30.204 c 1.98,0.72 3.024,1.584 3.42,2.592 0.324,1.008 -0.18,2.088 -1.368,3.384 l 11.808,34.74 -2.376,2.736 c 2.232,0.576 3.204,1.44 2.916,2.736 -0.36,1.296 -1.908,2.844 -4.788,4.932 1.548,0.792 2.412,2.052 2.736,3.78 0.288,1.692 -0.108,3.744 -1.044,6.3 l 2.916,5.472 c 2.592,-2.304 5.04,-3.78 7.344,-4.428 2.232,-0.72 4.932,-0.972 6.3,0.504 1.26,1.404 2.844,7.092 1.548,8.172 -1.44,0.936 -7.92,-2.664 -9.72,-2.196 -1.872,0.468 -2.232,1.908 -1.224,4.752 2.088,-0.756 3.924,-0.684 5.652,0.36 1.656,0.972 3.132,2.844 4.428,5.616 1.512,-3.456 3.492,-2.196 6.336,3.78 2.808,6.012 6.085,16.56 10.224,32.076 l -8.352,3.6 8.027,33.552 v 0 c 1.549,0.792 2.664,1.872 3.061,3.24 0.359,1.368 0.289,2.916 -0.504,4.788 l 2.377,7.524 c 1.223,1.26 2.123,2.448 2.41,3.563 0.289,1.045 0.109,2.017 -0.539,2.916 l 3.24,9.036 c 1.547,1.225 2.627,2.593 3.096,4.104 0.396,1.476 0.324,3.023 -0.359,4.788 0.828,3.096 2.303,7.271 4.283,12.96 2.016,5.651 5.797,15.804 7.74,20.592 1.764,4.572 2.771,4.86 3.6,6.84 0.865,1.944 1.225,3.24 1.369,4.428 1.691,0.505 2.555,1.08 2.734,1.729 0.109,0.648 -0.574,1.332 -2.051,2.196 -0.037,3.672 0.576,6.84 1.547,9.899 0.973,2.988 2.449,5.616 4.43,8.028 2.088,0.432 3.131,1.116 3.42,2.052 0.215,0.973 -0.469,1.98 -2.053,3.42 -0.217,1.62 0.072,3.276 1.008,5.112 0.9,1.764 3.348,3.6 4.428,5.652 0.865,2.088 1.404,4.067 1.225,6.479 2.303,0.108 3.275,0.576 3.061,1.692 -0.252,1.08 -1.729,2.52 -4.43,4.607 1.584,3.924 2.557,6.948 3.061,9.072 0.396,2.088 0.289,3.276 -0.324,3.564 l 11.088,33.443 c 1.477,0.792 2.232,1.692 2.557,2.557 0.18,0.899 -0.072,1.764 -1.045,2.735 1.584,3.672 2.953,7.057 3.961,10.44 1.045,3.275 1.729,6.443 2.195,9.359 -1.512,1.009 -2.52,1.765 -2.879,2.412 -0.432,0.576 -0.217,0.973 0.504,1.188 l 3.564,15.191 c 1.836,0.181 2.844,0.685 3.42,1.368 0.395,0.612 -0.613,1.8 -0.504,2.736 0.035,0.72 1.15,1.332 1.008,2.376 -0.145,1.08 -0.865,2.34 -2.018,3.924 2.342,7.488 4.934,15.84 8.174,25.74 3.203,9.756 7.307,24.3 10.764,32.939 3.203,8.496 6.227,13.933 9.215,18.252 2.953,4.248 5.904,6.696 8.713,7.345 z"
       style="fill-rule:evenodd;stroke:#000000;stroke-width:0.036;stroke-miterlimit:10"
       id="path11"
       inkscape:connector-curvature="0" />
    <path
       d="m 167.137,583.111 c 0.791,5.652 5.039,20.772 7.488,30.637 2.375,9.684 5.074,18.647 6.695,27.18 1.367,8.388 1.043,19.332 2.232,23.112 1.223,3.672 5.256,6.695 4.859,-1.188 -0.684,-8.28 -5.004,-32.724 -8.1,-46.691 -3.096,-13.969 -8.461,-30.276 -10.549,-35.893 -2.301,-5.508 -3.453,-2.808 -2.625,2.843 z"
       style="fill:#ffffff;fill-opacity:1;fill-rule:evenodd;stroke:#000000;stroke-width:0.036;stroke-miterlimit:10"
       id="path13"
       inkscape:connector-curvature="0" />
    <path
       d="m 192.695,639.308 c -0.215,3.384 2.197,13.932 4.465,16.236 2.268,2.016 8.676,0.144 8.928,-3.24 0.037,-3.348 -5.867,-14.544 -8.137,-16.668 -2.41,-2.16 -5.039,0.216 -5.256,3.672 z"
       style="fill:#ffffff;fill-opacity:1;fill-rule:evenodd;stroke:#000000;stroke-width:0.036;stroke-miterlimit:10"
       id="path15"
       inkscape:connector-curvature="0" />
    <path
       d="m 202.199,663.428 c 1.332,-1.225 4.033,-0.396 6.301,-1.8 2.195,-1.513 6.695,-7.452 7.092,-6.696 0.252,0.72 -2.447,8.784 -5.039,11.16 -2.557,2.304 -8.857,2.988 -10.152,2.628 -1.405,-0.54 0.359,-4.105 1.798,-5.292 z"
       style="fill:#ffffff;fill-opacity:1;fill-rule:evenodd;stroke:#000000;stroke-width:0.036;stroke-miterlimit:10"
       id="path17"
       inkscape:connector-curvature="0" />
    <path
       d="m 190.645,582.896 c -1.801,-0.036 -3.42,0.396 -4.861,1.44 -1.584,0.936 -3.238,2.844 -3.852,4.464 -0.719,1.476 -0.648,3.6 0.217,4.86 0.791,1.188 3.061,2.34 4.859,2.628 1.764,0.252 3.672,-0.036 5.869,-1.009 l -0.793,-1.836 c -2.268,0.685 -3.889,0.937 -5.291,0.612 -1.404,-0.432 -2.629,-1.188 -2.846,-2.412 -0.432,-1.188 -0.322,-3.42 1.008,-4.464 1.297,-1.08 3.602,-1.764 6.912,-2.052 -0.394,-0.72 -0.791,-1.476 -1.222,-2.231 z"
       style="fill:#ffffff;fill-opacity:1;fill-rule:evenodd;stroke:#000000;stroke-width:0.036;stroke-miterlimit:10"
       id="path19"
       inkscape:connector-curvature="0" />
    <path
       d="m 183.768,557.155 c 1.98,0 3.133,0.288 3.457,1.009 0.252,0.611 -1.729,2.088 -1.656,3.023 0.035,0.864 1.691,1.404 1.656,2.448 -0.252,0.899 -1.512,2.7 -2.664,3.456 -1.26,0.684 -3.6,1.224 -4.248,0.792 -0.648,-0.576 -0.289,-2.556 0.396,-3.42 0.504,-0.721 2.447,-0.973 3.059,-1.44 0.576,-0.72 0.541,-1.439 0.18,-2.448 -2.52,1.045 -4.752,1.801 -6.695,2.664 -1.98,0.828 -3.672,1.368 -5.076,2.017 0.18,2.844 -0.359,5.076 -1.619,6.695 -1.404,1.584 -3.709,2.629 -6.084,2.845 -2.412,0.107 -6.408,-0.433 -8.102,-2.017 -1.799,-1.728 -2.951,-5.508 -2.627,-7.739 0.217,-2.341 2.375,-4.752 4.248,-5.868 1.871,-1.116 4.283,-1.548 6.695,-1.008 2.34,0.504 4.609,1.691 7.092,3.852 1.514,-0.432 3.277,-1.044 5.293,-1.836 1.98,-0.828 4.21,-1.836 6.695,-3.025 z"
       style="fill:#ffffff;fill-opacity:1;fill-rule:evenodd;stroke:#000000;stroke-width:0.036;stroke-miterlimit:10"
       id="path21"
       inkscape:connector-curvature="0" />
    <path
       d="m 158.604,565.04 -2.016,-2.628 c 0.756,-1.152 1.691,-1.908 2.809,-2.412 1.043,-0.504 2.268,-0.757 3.672,-0.612 v 4.248 c -1.477,0.468 -2.954,0.935 -4.465,1.404 z"
       style="fill:#ffffff;fill-rule:evenodd"
       id="path23"
       inkscape:connector-curvature="0" />
    <path
       d="m 159.396,567.884 2.664,-0.612 c 0.828,0.937 1.295,1.692 1.404,2.664 0.035,0.792 -0.182,1.8 -0.793,2.628 l -3.061,-0.612 c -0.069,-1.332 -0.141,-2.7 -0.214,-4.068 z"
       style="fill:#ffffff;fill-rule:evenodd"
       id="path25"
       inkscape:connector-curvature="0" />
    <path
       d="m 166.703,567.487 0.434,3.673 c 0.504,0.18 1.043,-0.217 1.619,-1.045 0.504,-0.863 1.045,-2.159 1.621,-4.031 -1.225,0.468 -2.449,0.936 -3.674,1.403 z"
       style="fill:#000000;fill-opacity:1;fill-rule:evenodd;stroke:#000000;stroke-width:0.036;stroke-miterlimit:10"
       id="path27"
       inkscape:connector-curvature="0" />
    <path
       d="m 165.084,563.636 4.68,-1.224 -2.447,-2.017 z"
       style="fill-rule:evenodd;stroke:#000000;stroke-width:0.036;stroke-miterlimit:10"
       id="path29"
       inkscape:connector-curvature="0" />
    <path
       d="m 158.209,523.46 c 3.238,-1.08 6.227,-2.088 9.107,-3.024 2.844,-1.008 6.408,-1.908 7.92,-2.844 1.367,-1.008 1.619,-2.304 0.611,-2.628 -1.188,-0.288 -3.564,-0.072 -6.695,0.792 -3.205,0.864 -7.057,2.195 -11.988,4.284 -0.721,-2.196 -2.088,-3.601 -4.248,-4.068 -2.16,-0.504 -6.623,-0.36 -8.531,1.008 -2.088,1.332 -3.277,4.393 -3.42,6.696 -0.252,2.196 0.863,4.824 2.23,6.479 1.26,1.584 3.313,2.628 5.473,2.845 2.088,0 5.473,-0.396 7.092,-2.017 1.549,-1.655 2.412,-4.067 2.449,-7.523 z"
       style="fill:#ffffff;fill-opacity:1;fill-rule:evenodd;stroke:#000000;stroke-width:0.036;stroke-miterlimit:10"
       id="path31"
       inkscape:connector-curvature="0" />
    <path
       d="m 148.451,516.367 c -0.467,1.045 -0.504,2.196 -0.395,3.061 0.072,0.828 0.576,1.764 1.223,2.412 1.404,0.144 2.664,0.18 3.637,-0.181 0.936,-0.359 1.729,-0.972 2.232,-1.836 -0.936,-0.756 -1.945,-1.476 -3.023,-2.016 -1.152,-0.612 -2.377,-1.043 -3.674,-1.44 z"
       style="fill:#ffffff;fill-rule:evenodd"
       id="path33"
       inkscape:connector-curvature="0" />
    <path
       d="m 149.893,524.288 c 0.756,0.144 1.691,0.144 2.807,0 1.117,-0.145 2.412,-0.469 3.889,-0.828 -0.396,2.016 -0.936,3.456 -1.619,4.464 -0.686,1.008 -1.621,1.439 -2.664,1.439 -0.721,-0.72 -1.26,-1.332 -1.621,-2.231 -0.433,-0.792 -0.65,-1.872 -0.792,-2.844 z"
       style="fill:#ffffff;fill-rule:evenodd"
       id="path35"
       inkscape:connector-curvature="0" />
    <path
       d="m 148.451,516.367 -1.836,0.612 c -0.07,1.152 0,2.124 0.217,3.061 0.217,0.827 0.359,1.619 0.828,2.231 l 2.412,-0.611 v -10e-4 c -0.721,-0.611 -1.188,-1.403 -1.404,-2.231 -0.324,-0.937 -0.397,-1.908 -0.217,-3.061 z"
       style="fill-rule:evenodd;stroke:#000000;stroke-width:0.036;stroke-miterlimit:10"
       id="path37"
       inkscape:connector-curvature="0" />
    <path
       d="m 150.504,524.504 c 0.072,1.08 0.289,1.979 0.793,2.844 0.432,0.756 1.043,1.476 1.836,2.016 l -2.629,0.612 c -1.043,-1.26 -1.836,-2.232 -2.232,-3.06 -0.504,-0.864 -0.646,-1.584 -0.432,-2.017 0.863,-0.107 1.764,-0.252 2.664,-0.395 z"
       style="fill-rule:evenodd;stroke:#000000;stroke-width:0.036;stroke-miterlimit:10"
       id="path39"
       inkscape:connector-curvature="0" />
    <path
       d="m 137.111,447.392 c 3.277,-0.936 6.301,-1.908 9.217,-2.772 2.916,-0.936 6.371,-1.8 7.992,-2.592 1.439,-0.936 1.619,-2.304 0.684,-2.592 -1.115,-0.36 -3.527,-0.216 -6.695,0.576 -3.24,0.72 -7.129,2.016 -12.096,3.888 -0.686,-2.268 -2.018,-3.563 -4.141,-4.176 -2.232,-0.684 -6.516,-0.432 -8.531,0.756 -2.16,1.26 -3.385,4.248 -3.674,6.588 -0.322,2.16 0.721,4.896 2.018,6.552 1.223,1.62 3.203,2.664 5.398,2.988 2.088,0.252 5.4,-0.396 7.164,-1.8 1.694,-1.512 2.449,-4.033 2.664,-7.416 z"
       style="fill:#ffffff;fill-opacity:1;fill-rule:evenodd;stroke:#000000;stroke-width:0.036;stroke-miterlimit:10"
       id="path41"
       inkscape:connector-curvature="0" />
    <path
       d="m 127.607,439.976 c -0.504,1.08 -0.576,2.088 -0.504,3.024 0.145,0.899 0.432,1.728 1.152,2.483 1.477,0.288 2.557,0.216 3.637,-0.071 0.9,-0.324 1.799,-0.864 2.303,-1.765 -0.971,-0.792 -1.836,-1.548 -2.986,-2.124 -1.152,-0.647 -2.305,-1.116 -3.602,-1.547 z"
       style="fill:#ffffff;fill-rule:evenodd"
       id="path43"
       inkscape:connector-curvature="0" />
    <path
       d="m 128.76,447.932 c 0.756,0.108 1.656,0.144 2.844,0.108 1.117,-0.145 2.412,-0.324 3.889,-0.685 -0.504,1.944 -1.045,3.456 -1.764,4.393 -0.756,0.972 -1.693,1.367 -2.664,1.332 -0.684,-0.685 -1.152,-1.44 -1.549,-2.269 -0.397,-0.935 -0.649,-1.763 -0.756,-2.879 z"
       style="fill:#ffffff;fill-rule:evenodd"
       id="path45"
       inkscape:connector-curvature="0" />
    <path
       d="m 127.607,439.976 -1.836,0.576 c -0.107,1.08 -0.072,2.088 0.109,3.023 0.18,0.828 0.287,1.585 0.719,2.269 l 2.449,-0.54 c -0.686,-0.685 -1.08,-1.44 -1.332,-2.269 -0.288,-0.935 -0.323,-1.907 -0.109,-3.059 z"
       style="fill-rule:evenodd;stroke:#000000;stroke-width:0.036;stroke-miterlimit:10"
       id="path47"
       inkscape:connector-curvature="0" />
    <path
       d="m 129.371,448.147 c 0,1.044 0.289,2.052 0.721,2.88 0.396,0.828 0.936,1.477 1.764,2.088 l -2.664,0.504 c -1.008,-1.224 -1.764,-2.304 -2.123,-3.096 -0.469,-0.863 -0.576,-1.548 -0.324,-2.052 0.862,-0.108 1.728,-0.215 2.626,-0.324 z"
       style="fill-rule:evenodd;stroke:#000000;stroke-width:0.036;stroke-miterlimit:10"
       id="path49"
       inkscape:connector-curvature="0" />
    <path
       d="m 143.844,540.56 c 2.701,0.108 6.732,-0.684 12.385,-2.231 5.652,-1.585 12.492,-4.068 21.096,-7.309 l 1.619,8.101 c -5.004,2.376 -10.115,4.14 -15.623,5.688 -5.545,1.476 -11.195,2.448 -17.244,3.06 -0.722,-2.413 -1.477,-4.861 -2.233,-7.309 z"
       style="fill:#ffffff;fill-opacity:1;fill-rule:evenodd;stroke:#000000;stroke-width:0.036;stroke-miterlimit:10"
       id="path51"
       inkscape:connector-curvature="0" />
    <path
       d="m 151.764,539.407 c 0.936,-0.144 2.125,-0.432 3.852,-1.008 1.693,-0.647 3.672,-1.439 6.084,-2.52 l 2.018,8.819 c -2.773,0.685 -5.004,1.368 -7.092,1.765 -2.053,0.359 -3.744,0.72 -5.076,0.792 0.069,-2.591 0.141,-5.22 0.214,-7.848 z"
       style="fill:#ffffff;fill-opacity:1;fill-rule:evenodd"
       id="path53"
       inkscape:connector-curvature="0" />
    <path
       d="m 154.787,538.651 0.613,8.101 3.24,-0.792 -0.793,-8.568 z"
       style="fill:#ffffff;fill-opacity:1;fill-rule:evenodd"
       id="path55"
       inkscape:connector-curvature="0" />
    <path
       d="m 170.629,520.256 0.791,2.628 c -2.016,-0.252 -3.313,0 -4.031,0.612 -0.865,0.575 -1.08,2.663 -0.217,3.06 0.828,0.288 2.699,0 5.473,-1.008 l 2.016,5.256 2.053,-0.18 -3.854,-11.376 c -0.719,0.323 -1.475,0.648 -2.231,1.008 z"
       style="fill:#ffffff;fill-opacity:1;fill-rule:evenodd;stroke:#000000;stroke-width:0.036;stroke-miterlimit:10"
       id="path57"
       inkscape:connector-curvature="0" />
    <path
       d="m 174.66,519.464 5.508,18.863 1.619,-2.052 c -1.332,-5.363 -2.41,-9.216 -3.238,-11.952 -0.865,-2.699 -1.477,-4.176 -1.836,-4.283 -0.686,-0.181 -1.369,-0.36 -2.053,-0.576 z"
       style="fill:#ffffff;fill-opacity:1;fill-rule:evenodd;stroke:#000000;stroke-width:0.036;stroke-miterlimit:10"
       id="path59"
       inkscape:connector-curvature="0" />
    <path
       d="m 173.256,512.768 -15.623,-46.476 2.627,0.216 c 1.549,3.348 2.52,6.12 3.061,8.315 0.467,2.196 0.467,3.816 0,4.86 l 11.16,32.652 c -0.397,0.144 -0.793,0.289 -1.225,0.433 z"
       style="fill:#ffffff;fill-opacity:1;fill-rule:evenodd;stroke:#000000;stroke-width:0.036;stroke-miterlimit:10"
       id="path61"
       inkscape:connector-curvature="0" />
    <path
       d="m 172.031,513.38 -15.623,-48.313 -2.232,0.828 14.832,48.276 c 1.008,-0.251 2.015,-0.503 3.023,-0.791 z"
       style="fill:#ffffff;fill-opacity:1;fill-rule:evenodd;stroke:#000000;stroke-width:0.036;stroke-miterlimit:10"
       id="path63"
       inkscape:connector-curvature="0" />
    <path
       d="m 146.293,445.699 12.959,43.416 c -2.627,1.944 -4.535,2.628 -5.867,2.448 -1.477,-0.468 -2.305,-2.34 -2.053,-4.067 0.287,-1.692 1.584,-3.492 3.889,-5.688 l -10.98,-35.063 v -10e-4 c 0.683,-0.324 1.366,-0.684 2.052,-1.045 z"
       style="fill:#ffffff;fill-opacity:1;fill-rule:evenodd;stroke:#000000;stroke-width:0.036;stroke-miterlimit:10"
       id="path65"
       inkscape:connector-curvature="0" />
    <path
       d="m 136.141,472.699 c 1.367,5.148 2.699,10.836 3.852,17.641 1.152,6.731 2.16,14.147 3.023,22.536 1.908,-0.648 3.744,-0.756 5.904,-0.612 1.98,0.18 5.58,1.872 6.48,1.62 0.791,-0.396 -0.145,-1.225 -1.404,-3.853 -1.404,-2.808 -3.637,-3.888 -6.695,-12.384 -3.205,-8.676 -10.117,-34.308 -11.988,-38.556 -1.909,-4.175 -1.584,0.36 0.828,13.608 z"
       style="fill:#ffffff;fill-opacity:1;fill-rule:evenodd;stroke:#000000;stroke-width:0.036;stroke-miterlimit:10"
       id="path67"
       inkscape:connector-curvature="0" />
    <path
       d="m 164.545,513.668 c -0.938,-2.34 -2.342,-4.933 -4.068,-7.92 -1.98,-3.061 -6.229,-11.736 -6.48,-9.937 -0.145,1.8 1.691,8.604 5.652,20.7 1.619,-0.936 3.24,-1.871 4.896,-2.843 z"
       style="fill:#ffffff;fill-opacity:1;fill-rule:evenodd;stroke:#000000;stroke-width:0.036;stroke-miterlimit:10"
       id="path69"
       inkscape:connector-curvature="0" />
    <path
       d="m 172.248,542.936 c 0.9,2.664 1.908,5.364 2.629,8.1 0.826,2.7 1.367,5.364 2.016,8.137 2.592,0.144 3.924,-0.54 4.283,-2.052 0.252,-1.585 -1.439,-4.645 -2.447,-7.093 -1.008,-2.52 -2.268,-5.04 -3.637,-7.704 -0.936,0.18 -1.871,0.396 -2.844,0.612 z"
       style="fill:#ffffff;fill-opacity:1;fill-rule:evenodd;stroke:#000000;stroke-width:0.036;stroke-miterlimit:10"
       id="path71"
       inkscape:connector-curvature="0" />
    <path
       d="m 176.893,542.107 2.447,-1.008 3.637,15.624 z"
       style="fill:#ffffff;fill-opacity:1;fill-rule:evenodd;stroke:#000000;stroke-width:0.036;stroke-miterlimit:10"
       id="path73"
       inkscape:connector-curvature="0" />
    <path
       d="m 142.404,440.336 c -2.664,-7.021 -4.859,-12.708 -5.58,-16.057 -0.756,-3.312 1.801,-2.52 1.295,-4.283 -0.504,-1.765 -2.016,0.72 -3.311,-2.809 -1.26,-3.528 -3.492,-11.556 -4.357,-17.64 l 2.629,-1.008 c 1.332,7.991 2.736,13.644 4.068,17.243 1.332,3.492 3.313,2.809 3.852,4.068 0.324,1.224 -1.801,-0.144 -1.225,3.24 0.576,3.348 2.088,8.748 4.68,16.632 -0.684,0.181 -1.367,0.397 -2.051,0.614 z"
       style="fill:#ffffff;fill-opacity:1;fill-rule:evenodd;stroke:#000000;stroke-width:0.036;stroke-miterlimit:10"
       id="path75"
       inkscape:connector-curvature="0" />
    <path
       d="m 146.328,439.292 c -2.664,-7.057 -4.5,-12.061 -5.256,-15.408 -0.721,-3.313 1.799,-2.521 1.295,-4.284 -0.504,-1.8 -2.016,0.684 -3.311,-2.808 -1.26,-3.528 -3.602,-12.564 -4.465,-18.648 h 2.771 c 1.369,7.992 2.664,13.645 4.033,17.244 1.332,3.492 3.313,2.808 3.852,4.068 0.396,1.151 -1.801,-0.036 -1.188,3.239 0.611,3.204 2.016,8.496 4.607,16.021 -0.754,0.18 -1.547,0.359 -2.338,0.576 z"
       style="fill:#ffffff;fill-opacity:1;fill-rule:evenodd;stroke:#000000;stroke-width:0.036;stroke-miterlimit:10"
       id="path77"
       inkscape:connector-curvature="0" />
    <path
       d="m 150.035,438.535 c -2.664,-7.056 -3.311,-12.384 -4.031,-15.731 -0.721,-3.313 1.115,-2.664 0.611,-4.428 -0.504,-1.801 -2.268,0.144 -3.563,-3.349 -1.26,-3.563 -4.033,-11.16 -4.896,-17.244 l 1.836,-0.107 c 2.016,7.02 3.889,12.132 5.615,15.479 1.656,3.24 4.105,2.952 4.572,4.393 0.252,1.296 -2.375,0.72 -2.051,4.104 0.359,3.42 1.654,8.856 4.031,16.452 -0.682,0.144 -1.403,0.288 -2.124,0.431 z"
       style="fill:#ffffff;fill-opacity:1;fill-rule:evenodd;stroke:#000000;stroke-width:0.036;stroke-miterlimit:10"
       id="path79"
       inkscape:connector-curvature="0" />
    <path
       d="m 154.283,444.26 c 0.109,1.116 0.865,2.628 1.873,4.536 1.043,1.8 3.564,4.716 4.5,6.804 0.9,2.052 0.973,3.852 0.611,5.544 1.404,0 2.232,0.252 2.484,0.756 0.217,0.468 -0.611,1.404 -1.115,2.124 -0.613,0.612 -1.332,1.08 -2.305,1.548 l -3.24,-1.728 -2.988,1.044 c 0.9,-2.124 1.152,-4.284 0.613,-6.48 -0.648,-2.304 -2.521,-4.823 -3.672,-6.876 -1.08,-2.124 -2.09,-4.104 -2.881,-5.796 2.017,-0.468 4.069,-0.972 6.12,-1.476 z"
       style="fill:#ffffff;fill-opacity:1;fill-rule:evenodd;stroke:#000000;stroke-width:0.036;stroke-miterlimit:10"
       id="path81"
       inkscape:connector-curvature="0" />
    <path
       d="m 129.877,404.912 c -2.557,0.792 -5.51,0.72 -8.857,-0.612 -3.455,-1.44 -8.388,-5.688 -11.483,-7.056 -3.132,-1.332 -5.4,-1.297 -7.092,-0.864 -1.728,0.359 -2.88,1.332 -3.312,3.06 -0.576,1.656 -0.396,5.22 0,6.805 0.144,1.439 0.648,2.159 1.8,2.304 1.296,0.071 3.096,-1.513 5.544,-1.692 2.232,-0.18 4.392,0.072 8.424,0.324 3.996,0.036 9.107,0.288 15.48,0.36 -0.145,-0.865 -0.324,-1.729 -0.504,-2.629 z"
       style="fill:#ffffff;fill-opacity:1;fill-rule:evenodd;stroke:#000000;stroke-width:0.036;stroke-miterlimit:10"
       id="path83"
       inkscape:connector-curvature="0" />
    <path
       d="m 105.252,408.476 c -1.08,4.104 -1.476,7.272 -1.188,9.792 0.216,2.448 1.152,4.14 2.664,4.932 1.404,0.685 4.752,0.505 6.012,-0.684 1.152,-1.296 2.088,-4.644 1.295,-6.3 -0.792,-1.692 -2.807,-2.628 -6.047,-3.24 -0.18,-0.72 -0.18,-1.584 0,-2.448 0.18,-0.899 0.396,-1.943 0.936,-2.987 -1.224,0.287 -2.448,0.61 -3.672,0.935 z"
       style="fill:#ffffff;fill-opacity:1;fill-rule:evenodd;stroke:#000000;stroke-width:0.036;stroke-miterlimit:10"
       id="path85"
       inkscape:connector-curvature="0" />
    <path
       d="m 129.336,398.432 -4.824,0.072"
       style="fill:none;stroke:#000000;stroke-width:0.036;stroke-miterlimit:10"
       id="path87"
       inkscape:connector-curvature="0" />
    <path
       d="m 118.896,402.104 c -1.045,-0.936 -2.197,-1.8 -3.6,-2.736 -1.405,-0.972 -2.917,-1.907 -4.681,-2.808 -0.36,-1.8 -0.252,-3.204 0.612,-4.355 0.828,-1.261 2.448,-2.484 4.176,-2.7 1.584,-0.252 3.744,0.216 5.508,1.26 1.729,0.936 3.168,2.232 4.607,4.176 -0.18,0.108 0.828,0.216 2.881,-0.072 2.088,-0.323 5.219,-0.647 9.539,-1.367 l 1.045,2.808 c -1.98,-0.036 -4.068,0.072 -6.408,0.324 -2.34,0.252 -4.789,0.576 -7.488,1.116 -0.287,0.792 -0.936,1.512 -1.943,2.304 -1.044,0.717 -2.412,1.402 -4.248,2.05 z"
       style="fill:#ffffff;fill-opacity:1;fill-rule:evenodd;stroke:#000000;stroke-width:0.036;stroke-miterlimit:10"
       id="path89"
       inkscape:connector-curvature="0" />
    <path
       d="m 116.34,399.008 c 0.936,-0.612 1.729,-1.008 2.377,-1.584 0.611,-0.54 1.764,-0.828 1.367,-1.548 -0.504,-0.9 -3.707,-2.7 -3.924,-3.313 -0.217,-0.72 1.691,-1.008 2.809,-0.432 0.971,0.576 3.42,2.196 3.311,3.744 -0.18,1.403 -1.547,2.987 -4.248,4.752 -0.54,-0.539 -1.116,-1.079 -1.692,-1.619 z"
       style="fill:#ffffff;fill-rule:evenodd"
       id="path91"
       inkscape:connector-curvature="0" />
    <path
       d="m 119.977,392.636 c -0.217,0.36 1.836,1.8 1.871,2.808 -0.107,1.008 -1.619,2.412 -1.764,3.24 -0.107,0.648 0.576,1.512 1.367,1.188 0.648,-0.469 2.701,-2.124 2.953,-3.313 0.035,-1.296 -0.973,-3.168 -1.764,-3.815 -0.792,-0.721 -2.556,-0.576 -2.663,-0.108 z"
       style="fill-rule:evenodd;stroke:#000000;stroke-width:0.036;stroke-miterlimit:10"
       id="path93"
       inkscape:connector-curvature="0" />
    <path
       d="m 126.961,384.031 c -3.025,0.181 -5.689,-0.144 -7.992,-0.684 -2.305,-0.684 -3.672,-2.268 -6.049,-2.952 -2.556,-0.792 -6.732,-1.62 -8.928,-1.368 -2.376,0.288 -3.96,1.656 -4.608,2.988 -0.756,1.224 -0.396,2.916 0.504,4.5 0.936,1.476 2.484,4.32 4.788,4.5 2.124,0.072 5.508,-3.096 8.064,-3.816 2.484,-0.863 4.031,-0.827 6.732,-0.863 2.592,-0.072 5.471,0 8.783,0.359 -0.431,-0.863 -0.862,-1.763 -1.294,-2.664 z"
       style="fill:#ffffff;fill-opacity:1;fill-rule:evenodd;stroke:#000000;stroke-width:0.036;stroke-miterlimit:10"
       id="path95"
       inkscape:connector-curvature="0" />
    <path
       d="m 104.172,387.128 c 0.144,-0.828 1.728,-1.116 2.376,-1.62 0.612,-0.54 1.764,-0.72 1.368,-1.548 -0.468,-0.828 -3.744,-2.664 -3.924,-3.313 -0.18,-0.647 1.764,-0.972 2.808,-0.432 1.008,0.576 3.456,2.304 3.312,3.744 -0.144,1.439 -2.772,3.996 -4.248,4.752 -1.476,0.793 -1.872,-0.791 -1.692,-1.583 z"
       style="fill:#ffffff;fill-rule:evenodd"
       id="path97"
       inkscape:connector-curvature="0" />
    <path
       d="m 107.808,380.72 c -0.216,0.36 1.836,1.8 1.872,2.808 -0.108,1.008 -1.62,2.412 -1.764,3.24 -0.108,0.648 0.576,1.512 1.368,1.188 0.648,-0.469 2.7,-2.124 2.952,-3.313 0.036,-1.296 -0.972,-3.168 -1.764,-3.815 -0.792,-0.721 -2.556,-0.576 -2.664,-0.108 z"
       style="fill-rule:evenodd;stroke:#000000;stroke-width:0.036;stroke-miterlimit:10"
       id="path99"
       inkscape:connector-curvature="0" />
    <path
       d="m 100.824,390.008 c -2.376,0.107 -3.672,0.396 -4.32,1.008 -0.648,0.576 -0.324,1.8 0.684,2.556 0.972,0.685 2.52,1.332 4.932,1.801 1.044,-0.36 2.124,-0.576 3.384,-0.505 1.224,0.036 2.376,0.217 3.744,0.685 0,-0.72 0.072,-1.332 0.36,-1.98 0.252,-0.684 0.576,-1.26 1.116,-1.872 l -3.06,-0.827 c -1.008,0.827 -2.016,1.188 -3.168,1.079 -1.26,-0.182 -2.304,-0.829 -3.672,-1.945 z"
       style="fill:#ffffff;fill-opacity:1;fill-rule:evenodd;stroke:#000000;stroke-width:0.036;stroke-miterlimit:10"
       id="path101"
       inkscape:connector-curvature="0" />
    <path
       d="m 129.695,393.823 c -0.539,-0.792 -0.684,-1.764 -0.432,-2.628 0.252,-1.115 1.873,-2.16 1.945,-2.987 0,-0.792 -0.721,-1.152 -2.018,-1.368 l -1.188,-3.384 c 0.648,-0.181 0.828,-0.937 0.684,-2.124 -0.18,-1.225 -0.828,-2.881 -1.799,-5.112 0.719,0 1.404,-0.108 2.051,-0.612 0.648,-0.432 1.225,-1.26 1.873,-2.195 l 6.623,19.584 -1.871,0.071 -0.613,-2.987 -1.008,0.107 0.686,2.88 c -0.865,0.072 -1.693,0.181 -2.484,0.324 -0.9,0.108 -1.583,0.252 -2.449,0.431 z"
       style="fill:#ffffff;fill-opacity:1;fill-rule:evenodd;stroke:#000000;stroke-width:0.036;stroke-miterlimit:10"
       id="path103"
       inkscape:connector-curvature="0" />
    <path
       d="m 117.023,409.699 c 0.037,2.16 2.773,8.713 3.889,12.853 1.008,4.032 1.404,9 2.557,11.16 1.08,2.088 4.318,3.852 4.428,1.26 -0.072,-2.772 -2.701,-12.888 -3.996,-17.172 -1.26,-4.248 -2.449,-6.876 -3.564,-8.172 -1.296,-1.404 -3.421,-2.124 -3.314,0.071 z"
       style="fill:#ffffff;fill-opacity:1;fill-rule:evenodd;stroke:#000000;stroke-width:0.036;stroke-miterlimit:10"
       id="path105"
       inkscape:connector-curvature="0" />
    <path
       d="m 105.792,370.063 c 2.664,0.396 5.076,0.108 7.38,-0.864 2.16,-1.115 3.96,-3.96 6.228,-5.075 2.268,-1.08 5.4,-1.908 7.309,-1.368 1.871,0.432 3.059,2.16 3.563,4.067 0.252,1.836 -0.324,5.509 -1.439,6.984 -1.188,1.404 -3.168,1.548 -5.111,1.548 -1.98,-0.18 -4.068,-1.943 -6.553,-2.231 -2.52,-0.36 -5.328,-0.324 -8.424,0.107 -1.332,0.433 -2.268,0.612 -2.952,0.396 -0.756,-0.324 -1.26,-1.08 -1.224,-1.692 -0.001,-0.647 0.359,-1.223 1.223,-1.872 z"
       style="fill:#ffffff;fill-opacity:1;fill-rule:evenodd;stroke:#000000;stroke-width:0.036;stroke-miterlimit:10"
       id="path107"
       inkscape:connector-curvature="0" />
    <path
       d="m 123.432,366.031 c -0.072,0.828 -1.619,1.261 -2.16,1.872 -0.576,0.612 -1.691,0.9 -1.188,1.656 0.504,0.792 3.961,2.269 4.248,2.88 0.252,0.612 -1.656,1.152 -2.736,0.72 -1.08,-0.432 -3.707,-1.907 -3.744,-3.348 0.037,-1.439 2.34,-4.248 3.709,-5.22 1.404,-0.936 1.98,0.613 1.871,1.44 z"
       style="fill:#ffffff;fill-rule:evenodd"
       id="path109"
       inkscape:connector-curvature="0" />
    <path
       d="m 124.764,372.188 c 0.072,-0.576 -2.123,-1.584 -2.16,-2.592 -0.215,-1.044 1.404,-2.736 1.404,-3.42 -0.072,-0.792 -0.791,-1.512 -1.477,-1.044 -0.828,0.432 -2.52,2.34 -2.592,3.636 -0.035,1.188 1.297,2.988 2.197,3.6 0.792,0.504 2.448,0.251 2.628,-0.18 z"
       style="fill-rule:evenodd;stroke:#000000;stroke-width:0.036;stroke-miterlimit:10"
       id="path111"
       inkscape:connector-curvature="0" />
    <path
       d="m 91.464,352.027 c -1.044,1.044 -1.584,2.305 -1.62,3.492 -0.108,1.188 0.396,2.736 1.368,3.816 0.936,1.044 2.448,1.691 4.536,2.231 l 4.752,17.534 2.196,-0.792 -4.824,-21.168 2.808,-0.864 c 1.332,3.924 2.376,6.912 3.132,9.108 0.72,2.16 1.152,3.384 1.296,3.815 l 2.196,0.433 c -1.044,-3.528 -1.944,-6.3 -2.556,-8.856 -0.684,-2.483 -0.864,-4.248 -1.512,-6.12 -0.756,-1.979 -0.72,-5.04 -2.664,-5.436 -2.016,-0.397 -5.004,0.395 -9.108,2.807 z"
       style="fill:#ffffff;fill-opacity:1;fill-rule:evenodd;stroke:#000000;stroke-width:0.036;stroke-miterlimit:10"
       id="path113"
       inkscape:connector-curvature="0" />
    <path
       d="m 106.872,374.852 0.504,3.132 2.736,1.008 -1.116,-5.075 z"
       style="fill:#ffffff;fill-opacity:1;fill-rule:evenodd;stroke:#000000;stroke-width:0.036;stroke-miterlimit:10"
       id="path115"
       inkscape:connector-curvature="0" />
    <path
       d="m 107.556,349.184 h 5.868 c 2.701,-1.944 5.076,-2.7 6.732,-2.7 1.691,0.036 2.951,1.62 3.492,2.952 0.432,1.296 0.611,3.24 -0.432,4.428 -1.189,1.044 -4.141,1.944 -5.941,1.729 -1.764,-0.324 -3.203,-3.276 -4.607,-3.853 -1.476,-0.647 -2.916,-0.72 -4.176,-0.071 -0.288,-0.829 -0.612,-1.657 -0.936,-2.485 z"
       style="fill:#ffffff;fill-opacity:1;fill-rule:evenodd;stroke:#000000;stroke-width:0.036;stroke-miterlimit:10"
       id="path117"
       inkscape:connector-curvature="0" />
    <path
       d="m 105.504,344.863 c 0.252,-1.367 0.144,-2.268 -0.324,-2.556 -0.648,-0.36 -2.34,-0.216 -2.736,0.432 -0.396,0.54 -0.54,-0.071 0.54,3.313 0.936,3.42 3.636,13.644 5.328,16.776 1.692,2.844 3.924,1.619 4.608,1.188 0.432,-0.504 -0.684,-3.096 -1.26,-3.744 -0.468,-0.72 -1.224,-0.684 -1.872,-0.18 -1.404,-5.076 -2.844,-10.153 -4.284,-15.229 z"
       style="fill:#ffffff;fill-opacity:1;fill-rule:evenodd;stroke:#000000;stroke-width:0.036;stroke-miterlimit:10"
       id="path119"
       inkscape:connector-curvature="0" />
    <path
       d="m 99.888,340.328 c 2.34,-1.44 4.5,-2.052 6.48,-1.836 1.908,0.18 2.988,2.772 5.184,3.06 2.052,0.18 5.795,-0.72 7.344,-1.872 1.439,-1.26 2.195,-3.744 1.439,-5.364 -0.828,-1.764 -3.889,-4.212 -5.977,-4.428 -2.159,-0.18 -5.183,2.016 -6.695,3.24 -1.62,1.044 -1.584,2.34 -2.808,3.204 -1.296,0.792 -2.952,1.44 -4.968,1.8 0.001,0.72 0.001,1.44 0.001,2.196 z"
       style="fill:#ffffff;fill-opacity:1;fill-rule:evenodd;stroke:#000000;stroke-width:0.036;stroke-miterlimit:10"
       id="path121"
       inkscape:connector-curvature="0" />
    <path
       d="m 120.084,349.184 c -0.035,0.612 -1.188,0.936 -1.619,1.404 -0.434,0.432 -1.297,0.684 -0.9,1.224 0.396,0.612 2.988,1.692 3.203,2.16 0.18,0.468 -1.26,0.9 -2.088,0.54 -0.791,-0.324 -2.771,-1.404 -2.771,-2.521 0,-1.044 1.729,-3.168 2.771,-3.888 1.045,-0.719 1.476,0.468 1.404,1.081 z"
       style="fill:#ffffff;fill-rule:evenodd"
       id="path123"
       inkscape:connector-curvature="0" />
    <path
       d="m 121.092,353.792 c -0.035,-0.396 -1.547,-1.225 -1.619,-1.944 -0.109,-0.828 0.936,-2.052 1.043,-2.556 -0.107,-0.612 -0.611,-1.152 -1.115,-0.792 -0.504,0.18 -1.98,1.872 -1.943,2.735 -0.109,0.937 1.043,2.16 1.654,2.7 0.576,0.253 1.835,0.253 1.98,-0.143 z"
       style="fill-rule:evenodd;stroke:#000000;stroke-width:0.036;stroke-miterlimit:10"
       id="path125"
       inkscape:connector-curvature="0" />
    <path
       d="m 113.712,333.164 c 0,0.828 -1.44,1.476 -1.944,2.16 -0.468,0.648 -1.548,1.116 -0.972,1.8 0.648,0.684 4.284,1.728 4.608,2.304 0.324,0.576 -1.476,1.368 -2.628,1.08 -1.116,-0.324 -3.924,-1.44 -4.104,-2.844 -0.18,-1.44 1.728,-4.536 2.988,-5.652 1.26,-1.116 2.016,0.323 2.052,1.152 z"
       style="fill:#ffffff;fill-rule:evenodd"
       id="path127"
       inkscape:connector-curvature="0" />
    <path
       d="m 115.801,339.104 c -0.109,-0.576 -2.233,-1.332 -2.485,-2.268 -0.288,-1.044 1.008,-2.844 0.971,-3.6 -0.18,-0.828 -1.043,-1.332 -1.619,-0.828 -0.72,0.504 -2.16,2.664 -2.088,3.96 0.108,1.296 1.692,2.664 2.664,3.276 0.901,0.396 2.447,-0.108 2.557,-0.54 z"
       style="fill-rule:evenodd;stroke:#000000;stroke-width:0.036;stroke-miterlimit:10"
       id="path129"
       inkscape:connector-curvature="0" />
    <path
       d="m 99.744,347.42 -5.724,-23.94 -2.124,0.54 c 1.476,5.58 2.808,10.188 3.852,14.364 1.008,4.14 1.872,7.308 2.448,10.044 0.504,-0.324 1.008,-0.649 1.548,-1.008 z"
       style="fill:#ffffff;fill-opacity:1;fill-rule:evenodd;stroke:#000000;stroke-width:0.036;stroke-miterlimit:10"
       id="path131"
       inkscape:connector-curvature="0" />
    <path
       d="m 92.688,331.508 c -1.944,-0.144 -3.42,0.216 -4.032,1.08 -0.648,0.684 -0.828,1.044 -0.144,3.852 0.54,2.88 1.8,7.309 3.636,13.428 l 2.664,-0.827 c -1.332,-1.62 -1.8,-3.097 -1.8,-4.429 0.108,-1.476 0.684,-2.628 2.124,-3.852 l -0.432,-2.268 c -0.756,0.468 -1.296,0.756 -1.764,1.26 -0.432,0.468 -0.792,0.756 -0.936,1.26 -1.26,-2.304 -1.8,-3.96 -1.476,-5.256 0.288,-1.296 1.296,-2.088 3.168,-2.376 -0.324,-0.612 -0.648,-1.224 -1.008,-1.872 z"
       style="fill:#ffffff;fill-opacity:1;fill-rule:evenodd;stroke:#000000;stroke-width:0.036;stroke-miterlimit:10"
       id="path133"
       inkscape:connector-curvature="0" />
    <path
       d="m 113.1,316.315 c -3.672,0.072 -7.488,0.648 -11.592,1.728 -4.212,0.936 -11.34,3.636 -12.924,4.5 -1.62,0.828 0.684,1.08 3.42,0.756 2.7,-0.396 9.612,-2.088 12.672,-2.7 2.952,-0.612 4.68,-1.08 5.184,-1.116 -1.98,0.612 -2.88,1.26 -3.24,1.944 -0.396,0.612 0.036,1.584 1.44,1.944 1.44,0.252 5.904,-0.36 7.165,-0.324 1.152,-0.072 1.152,-0.072 0,0 -0.684,-2.232 -1.405,-4.464 -2.125,-6.732 z"
       style="fill:#ffffff;fill-opacity:1;fill-rule:evenodd;stroke:#000000;stroke-width:0.036;stroke-miterlimit:10"
       id="path135"
       inkscape:connector-curvature="0" />
    <path
       d="m 112.668,324.416 1.116,4.32 c 0.72,0.108 1.296,0.288 1.873,0.54 0.576,0.18 1.008,0.432 1.439,0.756 l -1.439,-6.048 c -0.973,0.143 -1.981,0.287 -2.989,0.432 z"
       style="fill:#ffffff;fill-opacity:1;fill-rule:evenodd;stroke:#000000;stroke-width:0.036;stroke-miterlimit:10"
       id="path137"
       inkscape:connector-curvature="0" />
    <path
       d="m 86.964,304.184 c 2.592,-1.512 4.788,-2.088 6.984,-1.872 2.052,0.18 3.276,2.772 5.616,3.06 2.304,0.18 6.192,-0.72 7.92,-1.872 1.512,-1.26 2.304,-3.744 1.548,-5.364 -0.864,-1.764 -4.212,-4.212 -6.444,-4.428 -2.376,-0.18 -5.58,2.016 -7.272,3.24 -1.8,1.008 -1.656,2.412 -3.024,3.24 -1.404,0.828 -3.132,1.368 -5.328,1.764 0,0.72 0,1.476 0,2.232 z"
       style="fill:#ffffff;fill-opacity:1;fill-rule:evenodd;stroke:#000000;stroke-width:0.036;stroke-miterlimit:10"
       id="path139"
       inkscape:connector-curvature="0" />
    <path
       d="m 101.868,297.02 c 0.036,0.828 -1.548,1.476 -2.088,2.124 -0.504,0.684 -1.692,1.116 -1.044,1.8 0.684,0.72 4.608,1.728 4.968,2.304 0.36,0.576 -1.584,1.368 -2.808,1.08 -1.224,-0.288 -4.248,-1.404 -4.464,-2.844 -0.18,-1.44 1.872,-4.536 3.24,-5.652 1.368,-1.116 2.16,0.359 2.196,1.188 z"
       style="fill:#ffffff;fill-rule:evenodd"
       id="path141"
       inkscape:connector-curvature="0" />
    <path
       d="m 104.136,302.924 c -0.036,-0.576 -2.448,-1.332 -2.664,-2.268 -0.36,-1.116 1.152,-2.772 1.044,-3.564 -0.216,-0.828 -1.08,-1.332 -1.764,-0.828 -0.792,0.468 -2.34,2.7 -2.268,3.924 0.072,1.188 1.908,2.7 2.88,3.276 0.9,0.396 2.7,-0.109 2.772,-0.54 z"
       style="fill-rule:evenodd;stroke:#000000;stroke-width:0.036;stroke-miterlimit:10"
       id="path143"
       inkscape:connector-curvature="0" />
    <path
       d="m 91.14,319.988 -3.924,-15.156 v 0 c 0.504,-0.288 0.936,-0.648 1.296,-0.684 0.324,-0.216 0.468,-0.108 0.576,-0.072 L 89.844,308 c 1.908,-0.072 2.916,0.288 3.168,0.936 0.18,0.684 -0.468,1.656 -1.944,3.06 l 1.944,7.74 c -0.612,0.072 -1.224,0.144 -1.872,0.252 z"
       style="fill:#ffffff;fill-opacity:1;fill-rule:evenodd;stroke:#000000;stroke-width:0.036;stroke-miterlimit:10"
       id="path145"
       inkscape:connector-curvature="0" />
    <path
       d="m 110.22,302.636 3.06,12.6 -2.664,0.252 -2.808,-11.34 z"
       style="fill:#ffffff;fill-opacity:1;fill-rule:evenodd;stroke:#000000;stroke-width:0.036;stroke-miterlimit:10"
       id="path147"
       inkscape:connector-curvature="0" />
    <path
       d="m 106.62,305.012 2.556,10.476 -2.7,0.324 c 0.108,-0.792 0.144,-1.656 0.252,-2.304 0.036,-0.72 0.036,-1.368 0,-1.944 -1.368,-0.612 -2.232,-1.404 -2.736,-2.376 -0.54,-1.044 -0.684,-2.196 -0.432,-3.6 1.008,-0.18 2.016,-0.36 3.06,-0.576 z"
       style="fill:#ffffff;fill-opacity:1;fill-rule:evenodd;stroke:#000000;stroke-width:0.036;stroke-miterlimit:10"
       id="path149"
       inkscape:connector-curvature="0" />
    <path
       d="m 88.728,299.36 -3.06,-12.996 c 1.404,-1.296 2.52,-2.16 3.744,-2.988 1.116,-0.828 1.764,-1.404 3.06,-1.728 1.26,-0.36 3.168,-2.232 4.608,-0.324 1.332,1.908 2.628,5.58 3.744,11.412 1.116,-0.108 1.836,-0.18 2.556,-0.072 0.684,0.036 0.972,0.252 1.26,0.504 -2.016,-5.832 -3.78,-9.936 -5.004,-12.6 -1.26,-2.664 -2.268,-3.744 -2.736,-3.24 0.72,-0.288 1.368,-1.008 1.944,-2.556 0.54,-1.548 0.9,-3.708 1.224,-6.48 1.26,-0.936 1.836,-1.764 1.872,-2.628 -0.036,-0.972 -0.792,-2.376 -1.872,-2.556 -1.152,-0.144 -2.772,0.324 -4.86,1.548 -1.296,-0.828 -2.736,-1.008 -4.176,-0.684 -1.548,0.324 -3.78,1.224 -4.608,2.7 -0.792,1.368 -1.26,4.356 0,5.616 1.116,1.152 3.492,1.512 6.984,1.224 -0.828,1.044 -2.016,1.836 -3.564,2.376 -1.584,0.432 -3.06,-0.432 -5.796,0.756 -2.88,1.152 -6.408,3.204 -10.98,6.3 -2.988,-9.864 -5.544,-18.108 -7.812,-25.164 -2.412,-7.164 -4.32,-14.544 -5.724,-16.848 -1.512,-2.304 -2.592,-0.72 -2.556,3.348 -0.036,3.996 1.332,14.04 2.736,20.844 1.368,6.768 3.456,14.256 5.292,19.404 1.656,4.896 3.636,8.028 4.824,10.368 1.116,2.304 1.26,3.168 1.98,3.564 0.576,0.36 1.44,-0.216 1.764,-1.44 0.288,-1.26 0.216,-3.456 -0.072,-6.3 l 6.984,-3.24 c 0.468,2.088 1.368,4.248 2.304,6.48 1.044,2.196 2.124,4.464 3.636,6.804 0.756,-0.468 1.512,-0.936 2.304,-1.404 z"
       style="fill:#ffffff;fill-opacity:1;fill-rule:evenodd;stroke:#000000;stroke-width:0.036;stroke-miterlimit:10"
       id="path151"
       inkscape:connector-curvature="0" />
    <path
       d="m 117.492,293.204 c -2.016,-6.912 -3.997,-12.96 -5.796,-18.54 -2.016,-5.652 -3.888,-11.808 -5.328,-14.58 -1.404,-2.772 -2.628,-2.484 -2.844,-1.764 -0.324,0.612 -1.044,-0.288 1.044,5.76 2.016,6.048 5.688,16.02 11.161,30.312 0.576,-0.396 1.152,-0.792 1.763,-1.188 z"
       style="fill:#ffffff;fill-opacity:1;fill-rule:evenodd;stroke:#000000;stroke-width:0.036;stroke-miterlimit:10"
       id="path153"
       inkscape:connector-curvature="0" />
    <path
       d="m 114.936,294.392 c -3.527,-8.856 -6.264,-15.516 -8.063,-20.664 -1.836,-5.112 -1.908,-6.66 -2.988,-9.648 -1.188,-3.204 -2.7,-6.66 -3.996,-8.568 -1.476,-1.8 -3.204,-2.484 -4.356,-2.736 -1.26,-0.504 -2.412,-0.54 -2.628,0.18 -0.144,0.756 0.468,2.592 1.44,4.248 0.864,1.584 2.016,3.24 3.6,5.112 1.296,-0.18 2.232,0.036 2.952,0.504 0.684,0.432 1.116,1.296 1.296,2.304 0.144,0.9 -0.216,1.98 -0.684,3.24 l 11.124,27.144 c 0.755,-0.361 1.512,-0.72 2.303,-1.116 z"
       style="fill:#ffffff;fill-opacity:1;fill-rule:evenodd;stroke:#000000;stroke-width:0.036;stroke-miterlimit:10"
       id="path155"
       inkscape:connector-curvature="0" />
    <path
       d="M 111.192,295.508 101.148,270.38 c -0.252,1.764 -0.576,2.988 -0.828,4.104 -0.324,0.972 -0.72,1.692 -1.044,2.016 0.252,0.648 1.008,2.304 2.124,5.112 1.152,2.7 2.52,6.552 4.536,11.412 0.9,0.252 1.512,0.684 2.124,1.296 0.468,0.612 0.936,1.404 1.116,2.376 0.648,-0.396 1.332,-0.792 2.016,-1.188 z"
       style="fill:#ffffff;fill-opacity:1;fill-rule:evenodd;stroke:#000000;stroke-width:0.036;stroke-miterlimit:10"
       id="path157"
       inkscape:connector-curvature="0" />
    <path
       d="m 63.456,230.492 1.872,7.056 c -1.224,0.612 -1.692,1.332 -1.692,1.872 -0.036,0.504 0.684,1.116 1.872,1.548 l 8.064,28.692 v 0 c -0.72,1.44 -0.936,2.556 -0.504,3.204 0.432,0.648 1.836,1.08 2.808,0.864 0.72,-0.324 1.872,-2.016 2.052,-2.736 0.108,-0.9 -0.288,-1.476 -1.188,-2.124 l -0.108,-1.08 c 1.728,-0.432 3.636,-1.116 5.724,-2.052 2.124,-1.008 4.788,-2.412 6.732,-3.816 1.836,-1.44 3.024,-3.276 3.996,-5.112 -1.044,-2.448 -1.728,-4.248 -2.052,-5.796 -0.396,-1.476 -0.576,-2.556 0,-3.24 0.576,-0.972 1.476,-1.584 3.24,-1.548 1.656,0.144 5.112,1.908 6.624,2.232 1.404,0.144 1.656,-0.036 1.872,-0.936 0.108,-1.008 -0.36,-3.744 -1.26,-4.752 -0.972,-1.152 -2.772,-1.872 -4.428,-1.62 -1.836,0.144 -4.572,1.908 -6.12,2.808 -1.62,0.756 -2.628,1.62 -3.168,2.196 L 85.74,242.66 c -1.08,0.108 -2.016,0.396 -2.808,0.864 -1.008,0.324 -2.232,1.116 -2.268,1.692 -0.036,0.576 1.728,1.548 2.376,1.8 0.576,0.108 1.044,-0.288 1.26,-1.044 l 2.808,6.66 c -0.864,0.648 -2.412,1.332 -4.5,2.196 -2.16,0.756 -4.86,1.692 -8.244,2.664 l 0.684,2.7 c 1.62,-0.252 3.384,-0.648 5.436,-1.188 2.016,-0.684 5.22,-2.196 6.552,-2.304 1.188,-0.216 2.484,0.36 0.684,1.728 -1.944,1.404 -5.868,3.636 -11.916,6.696 l -3.24,-10.188 c 1.08,-0.648 1.728,-1.224 1.548,-1.728 -0.072,-0.504 -0.972,-1.08 -2.304,-1.44 -0.576,-2.376 -1.044,-4.428 -1.548,-6.552 -0.54,-2.124 -0.972,-4.104 -1.44,-5.94 3.456,-0.9 6.084,-1.404 8.172,-1.368 2.052,0.036 2.484,1.44 3.924,1.44 1.26,-0.072 3.384,-0.72 3.996,-1.944 0.576,-1.44 0.288,-4.752 -0.432,-6.048 -0.756,-1.224 -3.168,-1.584 -4.176,-1.368 -1.044,0.144 -1.908,1.224 -2.448,2.124 -0.648,0.864 -0.252,1.692 -1.728,2.628 -1.656,0.792 -4.212,1.584 -7.812,2.232 l -2.628,-8.1 c -0.72,0.54 -1.476,1.08 -2.232,1.62 z"
       style="fill:#ffffff;fill-opacity:1;fill-rule:evenodd;stroke:#000000;stroke-width:0.036;stroke-miterlimit:10"
       id="path159"
       inkscape:connector-curvature="0" />
    <path
       d="m 81.852,232.652 c 0.036,0.576 -1.116,1.044 -1.476,1.512 -0.396,0.504 -1.224,0.792 -0.756,1.296 0.468,0.504 3.276,1.224 3.564,1.656 0.252,0.396 -1.152,0.972 -2.052,0.756 -0.864,-0.216 -3.024,-1.008 -3.168,-2.016 -0.144,-1.044 1.332,-3.24 2.304,-4.032 0.972,-0.828 1.548,0.216 1.584,0.828 z"
       style="fill:#ffffff;fill-rule:evenodd"
       id="path161"
       inkscape:connector-curvature="0" />
    <path
       d="m 83.472,236.864 c -0.072,-0.396 -1.728,-0.936 -1.908,-1.62 -0.216,-0.864 0.72,-1.944 0.72,-2.556 -0.108,-0.54 -0.792,-1.008 -1.224,-0.576 -0.612,0.36 -1.656,1.8 -1.62,2.808 0,0.828 1.332,1.98 2.052,2.34 0.648,0.323 1.908,-0.18 1.98,-0.396 z"
       style="fill-rule:evenodd;stroke:#000000;stroke-width:0.036;stroke-miterlimit:10"
       id="path163"
       inkscape:connector-curvature="0" />
    <path
       d="m 90.42,271.568 c -0.072,-0.612 1.08,-1.188 1.44,-1.728 0.324,-0.54 1.188,-0.936 0.648,-1.44 -0.54,-0.468 -3.564,-0.972 -3.852,-1.404 -0.324,-0.396 1.116,-1.116 2.052,-0.972 0.936,0.144 3.24,0.792 3.492,1.836 0.252,1.08 -1.116,3.528 -2.052,4.428 -0.972,0.936 -1.656,-0.108 -1.728,-0.72 z"
       style="fill:#ffffff;fill-rule:evenodd"
       id="path165"
       inkscape:connector-curvature="0" />
    <path
       d="m 90.744,266.096 c 0,0.432 2.124,0.9 2.484,1.8 0.288,0.864 -0.9,2.376 -0.648,3.132 0.18,0.612 0.936,1.044 1.584,0.612 0.468,-0.576 1.8,-2.556 1.656,-3.564 -0.288,-1.044 -1.836,-2.376 -2.7,-2.628 -0.864,-0.288 -2.484,0.072 -2.376,0.648 z"
       style="fill-rule:evenodd;stroke:#000000;stroke-width:0.036;stroke-miterlimit:10"
       id="path167"
       inkscape:connector-curvature="0" />
    <path
       d="m 102.732,403.976 c 0.144,-0.72 1.548,-0.972 2.088,-1.44 0.54,-0.468 1.584,-0.611 1.224,-1.331 -0.396,-0.721 -3.312,-2.376 -3.492,-2.952 -0.144,-0.54 1.584,-0.864 2.484,-0.36 0.936,0.504 3.096,2.052 2.952,3.313 -0.144,1.26 -2.448,3.527 -3.78,4.212 -1.296,0.682 -1.656,-0.723 -1.476,-1.442 z"
       style="fill:#ffffff;fill-rule:evenodd"
       id="path169"
       inkscape:connector-curvature="0" />
    <path
       d="m 105.972,398.323 c -0.144,0.36 1.548,1.513 1.62,2.484 -0.144,0.828 -1.44,2.16 -1.548,2.88 -0.072,0.612 0.504,1.332 1.188,1.044 0.576,-0.359 2.376,-1.979 2.628,-2.916 0.108,-1.188 -0.972,-2.771 -1.584,-3.384 -0.684,-0.648 -2.196,-0.539 -2.304,-0.108 z"
       style="fill-rule:evenodd;stroke:#000000;stroke-width:0.036;stroke-miterlimit:10"
       id="path171"
       inkscape:connector-curvature="0" />
    <path
       d="m 105.9,421.22 c 0.108,-0.576 1.224,-0.756 1.692,-1.152 0.432,-0.359 1.26,-0.504 0.972,-1.08 -0.324,-0.611 -2.664,-1.907 -2.808,-2.376 -0.108,-0.468 1.26,-0.684 2.016,-0.288 0.72,0.396 2.484,1.62 2.376,2.664 -0.108,1.009 -1.98,2.845 -3.06,3.385 -1.044,0.574 -1.332,-0.577 -1.188,-1.153 z"
       style="fill:#ffffff;fill-rule:evenodd"
       id="path173"
       inkscape:connector-curvature="0" />
    <path
       d="m 108.492,416.684 c -0.108,0.252 1.26,1.188 1.332,1.98 -0.18,0.72 -1.116,1.691 -1.26,2.34 -0.036,0.54 0.288,1.008 0.972,0.828 0.432,-0.396 1.98,-1.513 2.124,-2.376 0.036,-0.937 -0.756,-2.269 -1.26,-2.736 -0.72,-0.576 -1.728,-0.361 -1.908,-0.036 z"
       style="fill-rule:evenodd;stroke:#000000;stroke-width:0.036;stroke-miterlimit:10"
       id="path175"
       inkscape:connector-curvature="0" />
    <path
       d="m 63.672,220.592 c 3.24,0 5.976,-0.504 8.496,-1.368 2.412,-1.044 4.464,-3.924 6.156,-4.176 1.728,-0.18 3.276,1.332 3.816,2.736 0.396,1.296 -0.144,4.14 -1.62,4.932 -1.728,0.54 -5.472,-0.864 -8.172,-0.864 -2.772,0.036 -5.472,0.432 -8.244,1.188 l 0.828,4.86 -1.944,1.368 v 0 c -2.628,-9.252 -5.112,-17.64 -7.308,-25.704 -2.268,-8.1 -4.068,-14.508 -6.228,-22.284 -2.268,-7.848 -4.788,-15.948 -7.416,-24.444 -2.988,0.756 -5.58,1.116 -7.632,1.08 -2.196,-0.108 -3.636,-0.54 -4.86,-1.44 -1.368,-1.116 -2.304,-2.808 -2.376,-4.248 -0.072,-1.476 1.008,-3.24 2.124,-4.176 1.08,-0.972 2.448,-1.404 4.248,-1.44 -0.468,1.728 -0.576,3.312 0.072,4.752 0.54,1.548 1.656,3.024 3.348,3.852 1.656,0.612 3.816,0.612 6.624,0 L 47.94,169.4 c 1.476,-0.144 3.312,-0.684 5.508,-1.62 2.16,-1.008 4.932,-3.996 7.344,-4.248 2.268,-0.288 4.86,0.648 6.372,2.232 1.44,1.476 2.376,4.5 2.124,6.552 -0.396,1.908 -2.268,5.184 -4.248,5.112 -2.088,-0.216 -5.256,-4.68 -7.848,-5.616 -2.664,-0.9 -5.4,-0.792 -8.064,0.324 l 4.32,14.22 c 1.872,0.144 3.816,-0.216 5.976,-0.936 2.124,-0.828 4.788,-3.744 6.876,-3.744 2.052,0 4.86,2.268 5.112,3.744 0,1.476 -2.7,4.248 -4.5,4.86 -1.836,0.324 -3.924,-1.836 -6.12,-2.052 -2.196,-0.252 -4.572,0 -6.984,0.756 l 3.384,11.844 c 2.052,-0.756 4.032,-1.692 6.228,-2.808 2.088,-1.296 4.392,-4.032 6.48,-4.176 2.016,-0.144 5.076,1.764 5.436,3.492 0.18,1.692 -2.052,5.976 -3.924,6.732 -2.052,0.684 -5.076,-2.484 -7.416,-2.556 -2.34,-0.18 -4.248,0.252 -6.12,1.44 1.908,5.868 3.852,11.736 5.796,17.64 z"
       style="fill:#ffffff;fill-opacity:1;fill-rule:evenodd;stroke:#000000;stroke-width:0.036;stroke-miterlimit:10"
       id="path177"
       inkscape:connector-curvature="0" />
    <path
       d="m 79.98,216.992 c 0.036,0.576 -1.116,1.044 -1.476,1.512 -0.396,0.504 -1.224,0.792 -0.756,1.296 0.504,0.504 3.276,1.224 3.564,1.656 0.252,0.396 -1.152,0.972 -2.052,0.756 -0.864,-0.216 -3.024,-1.008 -3.168,-2.016 -0.144,-1.044 1.332,-3.24 2.304,-4.032 0.972,-0.829 1.548,0.216 1.584,0.828 z"
       style="fill:#ffffff;fill-rule:evenodd"
       id="path179"
       inkscape:connector-curvature="0" />
    <path
       d="m 81.6,221.204 c -0.072,-0.396 -1.728,-0.936 -1.908,-1.62 -0.216,-0.864 0.72,-1.944 0.72,-2.556 -0.108,-0.54 -0.792,-1.008 -1.224,-0.576 -0.612,0.36 -1.656,1.8 -1.62,2.808 0,0.828 1.332,1.98 2.052,2.34 0.648,0.324 1.908,-0.18 1.98,-0.396 z"
       style="fill-rule:evenodd;stroke:#000000;stroke-width:0.036;stroke-miterlimit:10"
       id="path181"
       inkscape:connector-curvature="0" />
    <path
       d="m 70.584,196.616 c 0,0.648 -1.224,1.188 -1.656,1.692 -0.396,0.54 -1.296,0.9 -0.792,1.44 0.54,0.54 3.6,1.332 3.888,1.8 0.288,0.432 -1.26,1.08 -2.232,0.828 -0.936,-0.216 -3.312,-1.116 -3.492,-2.232 -0.144,-1.116 1.476,-3.564 2.556,-4.428 1.044,-0.864 1.692,0.252 1.728,0.9 z"
       style="fill:#ffffff;fill-rule:evenodd"
       id="path183"
       inkscape:connector-curvature="0" />
    <path
       d="m 72.348,201.296 c 0,-0.396 -1.944,-1.044 -2.088,-1.8 -0.252,-0.864 0.792,-2.268 0.792,-2.808 -0.144,-0.612 -0.864,-1.152 -1.332,-0.648 -0.504,0.36 -1.98,2.088 -1.8,3.096 0.036,0.936 1.44,2.124 2.268,2.592 0.684,0.324 2.052,-0.145 2.16,-0.432 z"
       style="fill-rule:evenodd;stroke:#000000;stroke-width:0.036;stroke-miterlimit:10"
       id="path185"
       inkscape:connector-curvature="0" />
    <path
       d="m 67.452,183.691 c 0.036,0.612 -1.08,1.08 -1.476,1.548 -0.36,0.468 -1.188,0.792 -0.756,1.296 0.504,0.504 3.312,1.224 3.564,1.62 0.252,0.432 -1.152,1.008 -2.016,0.792 -0.9,-0.216 -3.024,-1.008 -3.204,-2.052 -0.108,-1.008 1.368,-3.204 2.34,-4.032 0.972,-0.791 1.548,0.253 1.548,0.828 z"
       style="fill:#ffffff;fill-rule:evenodd"
       id="path187"
       inkscape:connector-curvature="0" />
    <path
       d="m 69.108,187.939 c -0.036,-0.396 -1.8,-0.936 -1.944,-1.62 -0.252,-0.864 0.792,-1.944 0.756,-2.556 -0.18,-0.612 -0.792,-1.008 -1.26,-0.612 -0.612,0.432 -1.656,1.836 -1.62,2.844 0,0.828 1.332,1.98 2.052,2.34 0.72,0.325 1.908,-0.179 2.016,-0.396 z"
       style="fill-rule:evenodd;stroke:#000000;stroke-width:0.036;stroke-miterlimit:10"
       id="path189"
       inkscape:connector-curvature="0" />
    <path
       d="m 64.788,167.312 c 0.036,0.72 -1.404,1.296 -1.872,1.908 -0.468,0.612 -1.512,1.008 -0.936,1.62 0.612,0.612 4.14,1.548 4.464,2.052 0.288,0.504 -1.44,1.224 -2.556,0.972 -1.08,-0.288 -3.78,-1.26 -3.96,-2.556 -0.18,-1.26 1.656,-4.032 2.88,-5.04 1.224,-1.008 1.944,0.288 1.98,1.044 z"
       style="fill:#ffffff;fill-rule:evenodd"
       id="path191"
       inkscape:connector-curvature="0" />
    <path
       d="m 66.804,172.604 c -0.072,-0.432 -2.16,-1.296 -2.376,-2.052 -0.252,-0.9 0.936,-2.556 0.936,-3.168 -0.216,-0.756 -0.972,-1.188 -1.584,-0.756 -0.684,0.468 -2.052,2.34 -2.016,3.528 0.072,1.116 1.62,2.376 2.556,2.952 0.864,0.288 2.34,-0.072 2.484,-0.504 z"
       style="fill-rule:evenodd;stroke:#000000;stroke-width:0.036;stroke-miterlimit:10"
       id="path193"
       inkscape:connector-curvature="0" />
    <path
       d="m 43.008,161.66 c -1.8,1.512 -3.312,2.556 -4.536,3.132 -1.332,0.576 -2.232,-0.468 -2.988,0.36 -0.864,0.756 -1.908,2.916 -1.764,3.996 0.072,0.828 1.764,1.692 2.7,1.62 0.828,-0.144 2.196,-1.368 2.736,-2.124 0.432,-0.828 -0.324,-1.728 0.36,-2.556 0.612,-0.936 1.8,-1.656 3.564,-2.556 0,-0.612 -0.036,-1.224 -0.072,-1.872 z"
       style="fill:#ffffff;fill-opacity:1;fill-rule:evenodd;stroke:#000000;stroke-width:0.036;stroke-miterlimit:10"
       id="path195"
       inkscape:connector-curvature="0" />
    <path
       d="m 48.876,183.764 -4.68,2.736 c -1.224,-2.34 -2.124,-3.852 -3.096,-4.68 -1.008,-0.9 -2.016,-1.152 -2.448,-0.18 -0.468,0.972 -0.612,3.852 0,5.868 0.54,1.944 2.34,4.5 3.312,5.724 0.756,1.116 1.224,1.692 1.8,1.188 0.468,-0.612 1.044,-2.124 1.44,-4.68 l 4.608,-3.168 C 49.524,185.636 49.2,184.7 48.876,183.764 Z"
       style="fill:#ffffff;fill-opacity:1;fill-rule:evenodd;stroke:#000000;stroke-width:0.036;stroke-miterlimit:10"
       id="path197"
       inkscape:connector-curvature="0" />
    <path
       d="m 43.584,195.932 c -0.432,2.124 -0.72,3.852 -0.576,5.472 -0.072,1.512 0.54,2.736 1.008,3.816 0.468,1.008 1.116,1.836 1.944,2.484 0.036,1.548 0.36,3.204 1.116,4.824 0.756,1.62 1.944,4.14 3.132,5.04 1.044,0.828 2.52,0.36 3.168,0 0.504,-0.396 0.684,-1.404 0.252,-2.628 l 3.924,-1.296 -0.432,-2.304 -3.924,1.296 c -0.216,-1.728 -0.468,-3.024 -0.756,-4.176 -0.36,-1.116 -0.648,-1.944 -1.008,-2.484 l 3.888,-1.26 -0.576,-2.052 -4.248,1.548 c -0.18,-1.98 -0.252,-3.42 -0.612,-4.608 -0.396,-1.116 -0.684,-1.98 -1.26,-2.304 l 4.32,-1.26 -0.504,-2.232 -5.112,1.98 c -0.576,-0.504 -1.224,-0.684 -1.8,-0.684 -0.684,0 -1.332,0.324 -1.944,0.828 z"
       style="fill:#ffffff;fill-opacity:1;fill-rule:evenodd;stroke:#000000;stroke-width:0.036;stroke-miterlimit:10"
       id="path199"
       inkscape:connector-curvature="0" />
    <path
       d="M 86.496,218.504 74.724,184.196 c 1.26,-0.648 1.8,-1.476 1.62,-2.196 -0.216,-0.864 -1.26,-1.62 -2.988,-2.556 l -2.7,-7.488 c -0.432,1.044 -0.828,1.944 -1.044,2.556 -0.324,0.576 -0.468,0.864 -0.576,1.008 l 16.236,45.036 c 0.396,-0.684 0.792,-1.368 1.224,-2.052 z"
       style="fill:#ffffff;fill-opacity:1;fill-rule:evenodd;stroke:#000000;stroke-width:0.036;stroke-miterlimit:10"
       id="path201"
       inkscape:connector-curvature="0" />
    <path
       d="m 73.104,160.724 c -1.116,-4.5 -2.34,-9.324 -3.816,-14.868 -1.548,-5.616 -3.888,-13.68 -4.932,-17.964 -0.972,-4.176 -0.648,-5.76 -1.116,-7.236 -0.648,-1.62 -1.008,-1.764 -2.196,-2.376 -1.296,-0.72 -4.104,-1.908 -4.932,-1.62 -0.864,0.36 -0.756,1.908 -0.108,3.384 0.54,1.296 2.376,2.556 3.42,4.608 0.972,1.872 0.216,1.296 2.304,7.308 1.944,6.048 5.112,15.624 9.504,28.872 0.612,-0.036 1.224,-0.072 1.872,-0.108 z"
       style="fill:#ffffff;fill-opacity:1;fill-rule:evenodd;stroke:#000000;stroke-width:0.036;stroke-miterlimit:10"
       id="path203"
       inkscape:connector-curvature="0" />
    <path
       d="M 56.508,164.144 53.952,153.74 c 0.504,0.324 1.044,0.144 1.62,-0.252 0.54,-0.54 1.008,-1.296 1.548,-2.556 1.8,0.396 2.952,0 3.996,-1.188 0.864,-1.188 1.836,-4.464 1.548,-5.94 -0.396,-1.548 -1.98,-3.096 -3.348,-3.24 -1.44,-0.288 -3.78,0.864 -5.076,1.8 -1.44,0.864 -2.34,1.98 -3.096,3.492 -1.656,-0.396 -2.916,-0.216 -3.636,0.684 -0.792,0.792 -1.584,2.952 -0.864,4.392 0.612,1.332 2.124,2.664 4.68,3.852 l 3.564,11.304 c 0.54,-0.649 1.08,-1.296 1.62,-1.944 z"
       style="fill:#ffffff;fill-opacity:1;fill-rule:evenodd;stroke:#000000;stroke-width:0.036;stroke-miterlimit:10"
       id="path205"
       inkscape:connector-curvature="0" />
    <path
       d="m 30.372,146.468 -5.868,-23.652 c -0.36,0.972 -0.864,1.116 -1.368,0.576 -0.504,-0.684 -1.656,-2.556 -1.8,-4.068 -0.288,-1.584 -0.648,-3.888 0.288,-4.968 0.864,-1.152 3.996,-2.052 5.076,-1.584 0.936,0.36 0.828,2.412 0.792,4.068 0,1.512 -0.504,3.276 -1.116,5.292 1.656,-1.224 3.924,-2.412 6.804,-3.168 2.916,-0.792 6.264,-1.548 10.476,-1.872 1.188,-1.908 2.376,-2.628 3.996,-2.448 1.476,0.216 3.924,2.304 5.112,3.744 1.152,1.404 2.016,3.528 1.62,4.572 -0.576,0.972 -3.168,1.548 -4.86,1.044 -1.836,-0.648 -3.672,-2.16 -5.796,-4.68 -3.744,0.468 -7.02,1.224 -9.684,2.268 -2.736,0.972 -5.004,2.268 -6.66,3.744 l 6.048,20.268 c -1.008,0.288 -2.016,0.576 -3.06,0.864 z"
       style="fill:#ffffff;fill-opacity:1;fill-rule:evenodd;stroke:#000000;stroke-width:0.036;stroke-miterlimit:10"
       id="path207"
       inkscape:connector-curvature="0" />
    <path
       d="m 35.484,77.456 6.552,19.584 5.112,-2.736 -6.732,-17.784 -1.8,0.252 5.868,17.028 -1.26,0.684 -6.228,-17.352 z"
       style="fill:#ffffff;fill-opacity:1;fill-rule:evenodd;stroke:#000000;stroke-width:0.036;stroke-miterlimit:10"
       id="path209"
       inkscape:connector-curvature="0" />
    <path
       d="M 55.752,115.04 42.468,71.804 c -0.108,0.288 -0.324,0.36 -0.792,-0.18 -0.504,-0.648 -1.332,-2.556 -1.944,-2.808 -0.612,-0.216 -1.26,1.08 -1.8,1.548 -0.612,0.324 -1.152,0.972 -1.764,0.828 -0.756,-0.252 -2.052,-2.052 -2.484,-1.512 -0.576,0.576 -0.72,3.816 -0.576,5.004 0.144,1.08 0.648,1.548 1.512,1.548 L 41.1,75.8 54.708,115.472 c 0.324,-0.144 0.684,-0.288 1.044,-0.432 z"
       style="fill:#ffffff;fill-opacity:1;fill-rule:evenodd;stroke:#000000;stroke-width:0.036;stroke-miterlimit:10"
       id="path211"
       inkscape:connector-curvature="0" />
    <path
       d="m 46.968,143.552 c -1.296,-1.188 -4.68,-9.612 -5.436,-12.924 -0.792,-3.564 -0.108,-8.244 1.08,-7.236 1.116,1.188 5.04,10.476 5.796,13.968 0.648,3.348 -0.288,7.307 -1.44,6.192 z"
       style="fill:#ffffff;fill-opacity:1;fill-rule:evenodd;stroke:#000000;stroke-width:0.036;stroke-miterlimit:10"
       id="path213"
       inkscape:connector-curvature="0" />
    <path
       d="M 41.604,113.456 C 40.74,109.424 36.24,95.744 33.36,86.996 30.3,78.176 25.656,63.632 24.432,61.544 c -1.188,-1.98 0.036,6.336 2.016,13.284 1.98,6.768 7.236,21.384 9.36,27.324 1.98,5.868 1.152,5.832 2.232,7.813 0.936,1.907 4.248,7.235 3.564,3.491 z"
       style="fill:#ffffff;fill-opacity:1;fill-rule:evenodd;stroke:#000000;stroke-width:0.036;stroke-miterlimit:10"
       id="path215"
       inkscape:connector-curvature="0" />
    <path
       d="m 33.36,66.296 c 0.288,-0.828 0.36,-1.729 -0.18,-2.7 -0.504,-1.08 -1.836,-2.88 -2.736,-3.312 -0.972,-0.468 -2.556,-0.072 -2.808,0.756 -0.468,0.792 -0.216,2.268 0.612,3.744 0.792,1.368 2.268,2.952 4.428,4.608 0.324,-0.792 0.576,-1.332 0.756,-1.476 0.18,-0.216 0.216,-0.18 0.252,0.252 -0.108,-0.612 -0.216,-1.224 -0.324,-1.872 z"
       style="fill:#ffffff;fill-opacity:1;fill-rule:evenodd;stroke:#000000;stroke-width:0.036;stroke-miterlimit:10"
       id="path217"
       inkscape:connector-curvature="0" />
    <path
       d="m 17.664,51.68 c -0.288,-0.72 4.572,-0.792 6.66,-0.36 1.908,0.396 4.824,1.296 5.256,2.556 0.288,1.152 -0.864,3.204 -2.628,4.356 -1.836,1.008 -7.416,2.304 -7.596,1.944 -0.18,-0.468 7.092,-3.24 6.84,-4.572 -0.396,-1.476 -8.244,-3.24 -8.532,-3.924 z"
       style="fill:#ffffff;fill-opacity:1;fill-rule:evenodd;stroke:#000000;stroke-width:0.036;stroke-miterlimit:10"
       id="path219"
       inkscape:connector-curvature="0" />
    <path
       d="M 14.676,45.956 11.04,36.524 16.476,35.084 18.348,45.2 Z"
       style="fill:#ffffff;fill-opacity:1;fill-rule:evenodd;stroke:#000000;stroke-width:0.036;stroke-miterlimit:10"
       id="path221"
       inkscape:connector-curvature="0" />
    <path
       d="M 12.228,35.516 7.296,20.359 11.544,19.495 14.532,35.011 Z"
       style="fill:#ffffff;fill-opacity:1;fill-rule:evenodd;stroke:#000000;stroke-width:0.036;stroke-miterlimit:10"
       id="path223"
       inkscape:connector-curvature="0" />
    <path
       d="M 7.044,19.64 0.636,0.92 h 1.8 C 3.372,4.088 3.912,5.672 4.056,5.672 4.164,5.636 3.876,4.016 3.192,0.812 H 5.064 L 6.504,7.724 5.676,0.74 C 6.144,0.704 6.612,0.632 7.116,0.56 l 0.252,0.864 3.672,17.352 -4.104,0.756 z"
       style="fill:#ffffff;fill-opacity:1;fill-rule:evenodd;stroke:#000000;stroke-width:0.036;stroke-miterlimit:10"
       id="path225"
       inkscape:connector-curvature="0" />
  </g>
</svg>
