<?xml version="1.0" encoding="UTF-8" standalone="no"?>
<!-- Created with Inkscape (http://www.inkscape.org/) -->
<svg
   xmlns:svg="http://www.w3.org/2000/svg"
   xmlns="http://www.w3.org/2000/svg"
   version="1.0"
   width="224.479"
   height="682.44098"
   viewBox="0 0 224.479 682.441"
   id="svg2">
 <metadata>
    <rdf:RDF xmlns:cc="http://web.resource.org/cc/" xmlns:dc="http://purl.org/dc/elements/1.1/" xmlns:rdf="http://www.w3.org/1999/02/22-rdf-syntax-ns#">
      <cc:Work rdf:about="">
        <dc:title>Oboe</dc:title>
        <dc:description>Oboe.</dc:description>
        <dc:subject>
          <rdf:Bag>
            <rdf:li>oboe</rdf:li>
            <rdf:li>music</rdf:li>
            <rdf:li>equipment</rdf:li>
          </rdf:Bag>
        </dc:subject>
        <dc:publisher>
          <cc:Agent rdf:about="http://www.openclipart.org/">
            <dc:title>Open Clip Art Project</dc:title>
          </cc:Agent>
        </dc:publisher>
        <dc:creator>
          <cc:Agent rdf:about="http://web.resource.org/cc/PublicDomain">
            <dc:title>Gerald G.</dc:title>
          </cc:Agent>
        </dc:creator>
        <dc:rights>
          <cc:Agent rdf:about="http://web.resource.org/cc/PublicDomain">
            <dc:title>Public Domain</dc:title>
          </cc:Agent>
        </dc:rights>
        <dc:date>2005-04-22</dc:date>
        <dc:format>image/svg+xml</dc:format>
        <dc:type rdf:resource="http://purl.org/dc/dcmitype/StillImage"/>
        <cc:license rdf:resource="http://web.resource.org/cc/PublicDomain"/>
        <dc:language>en</dc:language>
      </cc:Work>
      <cc:License rdf:about="http://web.resource.org/cc/PublicDomain">
        <cc:permits rdf:resource="http://web.resource.org/cc/Reproduction"/>
        <cc:permits rdf:resource="http://web.resource.org/cc/Distribution"/>
        <cc:permits rdf:resource="http://web.resource.org/cc/DerivativeWorks"/>
      </cc:License>
    </rdf:RDF>
  </metadata>


  <defs
     id="defs228" />
  <g
     id="g3568">
    <path
       d="M 42.54,148.048 C 56.451,148.048 67.74,154.435 67.74,162.304 C 67.74,170.173 56.45,176.56 42.54,176.56 C 28.63,176.56 17.34,170.173 17.34,162.304 C 17.34,154.435 28.63,148.048 42.54,148.048"
       style="fill:#ffffff;fill-rule:evenodd"
       id="path9" />
    <path
       d="M 223.225,651.26 C 224.592,653.816 224.809,656.768 224.268,660.115 C 223.62,663.464 224.016,667.819 219.481,671.239 C 214.801,674.552 203.461,677.863 196.44,679.771 C 189.241,681.571 182.436,683.587 177.145,681.643 C 171.78,679.519 167.821,674.731 164.868,667.279 C 166.345,666.847 167.1,664.903 167.425,661.303 C 167.605,657.739 168.325,657.055 166.382,645.787 C 164.294,634.23 159.685,612.45 155.474,593.371 C 151.154,574.183 145.536,549.702 141.146,532.278 C 136.718,514.89 134.558,507.906 129.517,489.942 C 124.441,471.762 118.394,450.45 111.085,424.638 C 108.925,425.322 107.161,425.322 105.793,424.638 C 104.317,423.99 103.201,422.946 102.733,420.534 C 102.157,417.942 102.337,414.234 102.877,409.266 C 100.501,410.743 98.917,410.346 98.269,408.078 C 97.549,405.666 97.621,401.634 98.629,395.441 C 96.001,395.189 94.669,394.578 94.201,393.75 C 93.733,392.85 95.281,391.014 96.073,390.33 C 96.901,389.573 97.765,389.178 98.953,389.286 L 98.449,385.038 C 97.729,384.821 97.441,384.317 97.441,383.67 C 97.441,382.949 97.729,381.978 98.449,380.754 L 94.345,362.321 C 91.753,361.71 89.989,360.593 89.053,359.261 C 88.117,357.785 88.333,355.373 88.729,353.969 C 89.053,352.421 89.845,351.413 91.105,350.549 C 87.937,337.769 85.669,329.345 84.445,325.277 C 83.149,321.209 82.753,321.281 83.401,325.889 C 79.189,327.005 76.345,327.401 74.869,327.077 C 73.321,326.681 73.105,324.629 74.509,323.693 C 75.913,322.685 78.613,321.821 83.041,321.101 C 80.125,319.265 78.469,317.393 77.929,315.485 C 77.389,313.541 77.965,311.597 79.801,309.509 C 77.785,299.573 76.417,293.813 75.553,292.085 C 74.761,290.393 75.265,297.773 74.689,299.105 C 73.861,300.329 73.321,302.057 71.269,299.285 C 69.253,296.297 65.113,289.637 62.737,281.681 C 60.181,273.545 57.157,260.189 56.437,251.477 C 55.681,242.765 56.257,235.673 58.309,229.805 L 54.709,217.853 C 53.989,219.149 52.981,219.833 51.973,219.905 C 50.713,220.013 49.417,219.437 48.229,218.033 C 47.149,216.377 45.961,211.913 45.493,210.329 C 44.989,208.673 44.881,208.061 45.169,208.349 C 43.837,207.953 42.973,206.513 42.577,204.425 C 42.109,202.229 42.109,199.205 42.577,195.353 C 40.201,192.833 38.617,190.241 37.825,187.865 C 36.997,185.345 37.033,181.889 37.645,180.701 C 38.221,179.549 39.265,179.549 41.065,180.845 L 38.833,170.117 C 35.701,171.665 33.829,171.845 33.217,170.801 C 32.569,169.685 33.145,167.345 35.089,163.637 L 33.721,158.993 C 31.453,158.849 29.797,158.129 28.609,156.977 C 27.313,155.717 26.449,153.485 26.557,151.829 C 26.629,150.173 27.637,148.589 29.437,147.077 L 23.821,123.857 C 23.173,124.685 22.741,124.397 22.129,122.993 C 21.517,121.481 19.969,117.305 20.401,115.469 C 20.761,113.633 22.021,112.553 24.325,112.085 L 11.112,65.396 C 9.06,63.884 7.692,62.3 7.008,60.788 C 6.216,59.132 6.108,57.404 6.684,56 C 7.188,54.524 8.376,53.372 10.248,52.256 C 9.42,50.816 9.204,49.664 9.744,48.656 C 10.212,47.612 11.4,46.712 13.308,46.1 L 10.068,36.056 L 11.436,35.876 L 0.024,0.704 L 7.692,0.02 L 15.216,34.832 L 17.232,34.472 L 18.78,44.588 C 20.184,45.128 21.084,45.596 21.876,46.28 C 22.56,46.892 22.956,47.576 23.064,48.332 C 25.116,48.116 26.88,48.404 28.5,49.196 C 30.048,49.88 31.92,51.32 32.604,53.12 C 33.216,54.884 33,57.404 32.1,60.284 C 33.252,61.364 34.152,62.66 34.656,64.028 C 35.016,65.324 34.764,67.556 35.016,68.636 C 35.232,69.716 35.736,70.616 36.384,70.508 C 36.96,70.292 38.004,67.376 38.94,67.448 C 39.876,67.556 41.028,69.392 42,70.868 C 42.828,72.236 42,68.564 44.376,75.8 C 46.716,83.108 50.604,95.528 56.184,114.032 L 58.992,116.948 C 61.26,117.2 62.664,118.208 63.744,119.684 C 64.68,121.052 63.924,122.636 64.788,125.984 C 65.544,129.332 66.84,134.048 68.532,139.988 C 70.188,145.82 72.132,152.768 74.508,160.976 L 70.404,161.48 L 58.812,125.66 L 56.076,127.712 L 59.82,139.988 C 61.152,140.132 62.232,140.744 62.916,142.22 C 63.6,143.66 63.888,145.568 63.924,148.34 L 73.824,178.544 C 75.804,179.264 76.848,180.128 77.244,181.136 C 77.568,182.144 77.064,183.224 75.876,184.52 L 87.684,219.26 L 85.308,221.996 C 87.54,222.572 88.512,223.436 88.224,224.732 C 87.864,226.028 86.316,227.576 83.436,229.664 C 84.984,230.456 85.848,231.716 86.172,233.444 C 86.46,235.136 86.064,237.188 85.128,239.744 L 88.044,245.216 C 90.636,242.912 93.084,241.436 95.388,240.788 C 97.62,240.068 100.32,239.816 101.688,241.292 C 102.948,242.696 104.532,248.384 103.236,249.464 C 101.796,250.4 95.316,246.8 93.516,247.268 C 91.644,247.736 91.284,249.176 92.292,252.02 C 94.38,251.264 96.216,251.336 97.944,252.38 C 99.6,253.352 101.076,255.224 102.372,257.996 C 103.884,254.54 105.864,255.8 108.708,261.776 C 111.516,267.788 114.793,278.336 118.932,293.852 L 110.58,297.452 L 118.607,331.004 L 118.607,331.004 C 120.156,331.796 121.271,332.876 121.668,334.244 C 122.027,335.612 121.957,337.16 121.164,339.032 L 123.541,346.556 C 124.764,347.816 125.664,349.004 125.951,350.119 C 126.24,351.164 126.06,352.136 125.412,353.035 L 128.652,362.071 C 130.199,363.296 131.279,364.664 131.748,366.175 C 132.144,367.651 132.072,369.198 131.389,370.963 C 132.217,374.059 133.692,378.234 135.672,383.923 C 137.688,389.574 141.469,399.727 143.412,404.515 C 145.176,409.087 146.183,409.375 147.012,411.355 C 147.877,413.299 148.237,414.595 148.381,415.783 C 150.072,416.288 150.936,416.863 151.115,417.512 C 151.224,418.16 150.541,418.844 149.064,419.708 C 149.027,423.38 149.64,426.548 150.611,429.607 C 151.584,432.595 153.06,435.223 155.041,437.635 C 157.129,438.067 158.172,438.751 158.461,439.687 C 158.676,440.66 157.992,441.667 156.408,443.107 C 156.191,444.727 156.48,446.383 157.416,448.219 C 158.316,449.983 160.764,451.819 161.844,453.871 C 162.709,455.959 163.248,457.938 163.069,460.35 C 165.372,460.458 166.344,460.926 166.13,462.042 C 165.878,463.122 164.401,464.562 161.7,466.649 C 163.284,470.573 164.257,473.597 164.761,475.721 C 165.157,477.809 165.05,478.997 164.437,479.285 L 175.525,512.728 C 177.002,513.52 177.757,514.42 178.082,515.285 C 178.262,516.184 178.01,517.049 177.037,518.02 C 178.621,521.692 179.99,525.077 180.998,528.46 C 182.043,531.735 182.727,534.903 183.193,537.819 C 181.681,538.828 180.673,539.584 180.314,540.231 C 179.882,540.807 180.097,541.204 180.818,541.419 L 184.382,556.61 C 186.218,556.791 187.226,557.295 187.802,557.978 C 188.197,558.59 187.189,559.778 187.298,560.714 C 187.333,561.434 188.448,562.046 188.306,563.09 C 188.161,564.17 187.441,565.43 186.288,567.014 C 188.63,574.502 191.222,582.854 194.462,592.754 C 197.665,602.51 201.769,617.054 205.226,625.693 C 208.429,634.189 211.453,639.626 214.441,643.945 C 217.394,648.193 220.345,650.641 223.154,651.29 L 223.225,651.26 z "
       style="fill-rule:evenodd;stroke:#000000;stroke-width:0.036;stroke-miterlimit:10"
       id="path11" />
    <path
       d="M 167.137,583.111 C 167.928,588.763 172.176,603.883 174.625,613.748 C 177,623.432 179.699,632.395 181.32,640.928 C 182.687,649.316 182.363,660.26 183.552,664.04 C 184.775,667.712 188.808,670.735 188.411,662.852 C 187.727,654.572 183.407,630.128 180.311,616.161 C 177.215,602.192 171.85,585.885 169.762,580.268 C 167.461,574.76 166.309,577.46 167.137,583.111 z "
       style="fill:#ffffff;fill-opacity:1;fill-rule:evenodd;stroke:#000000;stroke-width:0.036;stroke-miterlimit:10"
       id="path13" />
    <path
       d="M 192.695,639.308 C 192.48,642.692 194.892,653.24 197.16,655.544 C 199.428,657.56 205.836,655.688 206.088,652.304 C 206.125,648.956 200.221,637.76 197.951,635.636 C 195.541,633.476 192.912,635.852 192.695,639.308 z "
       style="fill:#ffffff;fill-opacity:1;fill-rule:evenodd;stroke:#000000;stroke-width:0.036;stroke-miterlimit:10"
       id="path15" />
    <path
       d="M 202.199,663.428 C 203.531,662.203 206.232,663.032 208.5,661.628 C 210.695,660.115 215.195,654.176 215.592,654.932 C 215.844,655.652 213.145,663.716 210.553,666.092 C 207.996,668.396 201.696,669.08 200.401,668.72 C 198.996,668.18 200.76,664.615 202.199,663.428 z "
       style="fill:#ffffff;fill-opacity:1;fill-rule:evenodd;stroke:#000000;stroke-width:0.036;stroke-miterlimit:10"
       id="path17" />
    <path
       d="M 190.645,582.896 C 188.844,582.86 187.225,583.292 185.784,584.336 C 184.2,585.272 182.546,587.18 181.932,588.8 C 181.213,590.276 181.284,592.4 182.149,593.66 C 182.94,594.848 185.21,596 187.008,596.288 C 188.772,596.54 190.68,596.252 192.877,595.279 L 192.084,593.443 C 189.816,594.128 188.195,594.38 186.793,594.055 C 185.389,593.623 184.164,592.867 183.947,591.643 C 183.515,590.455 183.625,588.223 184.955,587.179 C 186.252,586.099 188.557,585.415 191.867,585.127 C 191.473,584.407 191.076,583.651 190.645,582.896 z "
       style="fill:#ffffff;fill-opacity:1;fill-rule:evenodd;stroke:#000000;stroke-width:0.036;stroke-miterlimit:10"
       id="path19" />
    <path
       d="M 183.768,557.155 C 185.748,557.155 186.901,557.443 187.225,558.164 C 187.477,558.775 185.496,560.252 185.569,561.187 C 185.604,562.051 187.26,562.591 187.225,563.635 C 186.973,564.534 185.713,566.335 184.561,567.091 C 183.301,567.775 180.961,568.315 180.313,567.883 C 179.665,567.307 180.024,565.327 180.709,564.463 C 181.213,563.742 183.156,563.49 183.768,563.023 C 184.344,562.303 184.309,561.584 183.948,560.575 C 181.428,561.62 179.196,562.376 177.253,563.239 C 175.273,564.067 173.581,564.607 172.177,565.256 C 172.357,568.1 171.818,570.332 170.558,571.951 C 169.154,573.535 166.849,574.58 164.474,574.796 C 162.062,574.903 158.066,574.363 156.372,572.779 C 154.573,571.051 153.421,567.271 153.745,565.04 C 153.962,562.699 156.12,560.288 157.993,559.172 C 159.864,558.056 162.276,557.624 164.688,558.164 C 167.028,558.668 169.297,559.855 171.78,562.016 C 173.294,561.584 175.057,560.972 177.073,560.18 C 179.053,559.352 181.283,558.344 183.768,557.155 z "
       style="fill:#ffffff;fill-opacity:1;fill-rule:evenodd;stroke:#000000;stroke-width:0.036;stroke-miterlimit:10"
       id="path21" />
    <path
       d="M 158.604,565.04 L 156.588,562.412 C 157.344,561.26 158.279,560.504 159.397,560 C 160.44,559.496 161.665,559.243 163.069,559.388 L 163.069,563.636 C 161.592,564.104 160.115,564.571 158.604,565.04 z "
       style="fill:#ffffff;fill-rule:evenodd"
       id="path23" />
    <path
       d="M 159.396,567.884 L 162.06,567.272 C 162.888,568.209 163.355,568.964 163.464,569.936 C 163.499,570.728 163.282,571.736 162.671,572.564 L 159.61,571.952 C 159.541,570.62 159.469,569.252 159.396,567.884 z "
       style="fill:#ffffff;fill-rule:evenodd"
       id="path25" />
    <path
       d="M 166.703,567.487 L 167.137,571.16 C 167.641,571.34 168.18,570.943 168.756,570.115 C 169.26,569.252 169.801,567.956 170.377,566.084 C 169.152,566.552 167.928,567.02 166.703,567.487 z "
       style="fill:#000000;fill-opacity:1;fill-rule:evenodd;stroke:#000000;stroke-width:0.036;stroke-miterlimit:10"
       id="path27" />
    <path
       d="M 165.084,563.636 L 169.764,562.412 L 167.317,560.395 L 165.084,563.636 z "
       style="fill-rule:evenodd;stroke:#000000;stroke-width:0.036;stroke-miterlimit:10"
       id="path29" />
    <path
       d="M 158.209,523.46 C 161.447,522.38 164.436,521.372 167.316,520.436 C 170.16,519.428 173.724,518.528 175.236,517.592 C 176.603,516.584 176.855,515.288 175.847,514.964 C 174.659,514.676 172.283,514.892 169.152,515.756 C 165.947,516.62 162.095,517.951 157.164,520.04 C 156.443,517.844 155.076,516.439 152.916,515.972 C 150.756,515.468 146.293,515.612 144.385,516.98 C 142.297,518.312 141.108,521.373 140.965,523.676 C 140.713,525.872 141.828,528.5 143.195,530.155 C 144.455,531.739 146.508,532.783 148.668,533 C 150.756,533 154.141,532.604 155.76,530.983 C 157.309,529.328 158.172,526.916 158.209,523.46 z "
       style="fill:#ffffff;fill-opacity:1;fill-rule:evenodd;stroke:#000000;stroke-width:0.036;stroke-miterlimit:10"
       id="path31" />
    <path
       d="M 148.451,516.367 C 147.984,517.412 147.947,518.563 148.056,519.428 C 148.128,520.256 148.632,521.192 149.279,521.84 C 150.683,521.984 151.943,522.02 152.916,521.659 C 153.852,521.3 154.645,520.687 155.148,519.823 C 154.212,519.067 153.203,518.347 152.125,517.807 C 150.973,517.195 149.748,516.764 148.451,516.367 z "
       style="fill:#ffffff;fill-rule:evenodd"
       id="path33" />
    <path
       d="M 149.893,524.288 C 150.649,524.432 151.584,524.432 152.7,524.288 C 153.817,524.143 155.112,523.819 156.589,523.46 C 156.193,525.476 155.653,526.916 154.97,527.924 C 154.284,528.932 153.349,529.363 152.306,529.363 C 151.585,528.643 151.046,528.031 150.685,527.132 C 150.252,526.34 150.035,525.26 149.893,524.288 z "
       style="fill:#ffffff;fill-rule:evenodd"
       id="path35" />
    <path
       d="M 148.451,516.367 L 146.615,516.979 C 146.545,518.131 146.615,519.103 146.832,520.04 C 147.049,520.867 147.191,521.659 147.66,522.271 L 150.072,521.66 L 150.072,521.659 C 149.351,521.048 148.884,520.256 148.668,519.428 C 148.344,518.491 148.271,517.52 148.451,516.367 z "
       style="fill-rule:evenodd;stroke:#000000;stroke-width:0.036;stroke-miterlimit:10"
       id="path37" />
    <path
       d="M 150.504,524.504 C 150.576,525.584 150.793,526.483 151.297,527.348 C 151.729,528.104 152.34,528.824 153.133,529.364 L 150.504,529.976 C 149.461,528.716 148.668,527.744 148.272,526.916 C 147.768,526.052 147.626,525.332 147.84,524.899 C 148.703,524.792 149.604,524.647 150.504,524.504 z "
       style="fill-rule:evenodd;stroke:#000000;stroke-width:0.036;stroke-miterlimit:10"
       id="path39" />
    <path
       d="M 137.111,447.392 C 140.388,446.456 143.412,445.484 146.328,444.62 C 149.244,443.684 152.699,442.82 154.32,442.028 C 155.759,441.092 155.939,439.724 155.004,439.436 C 153.889,439.076 151.477,439.22 148.309,440.012 C 145.069,440.732 141.18,442.028 136.213,443.9 C 135.527,441.632 134.195,440.337 132.072,439.724 C 129.84,439.04 125.556,439.292 123.541,440.48 C 121.381,441.74 120.156,444.728 119.867,447.068 C 119.545,449.228 120.588,451.964 121.885,453.62 C 123.108,455.24 125.088,456.284 127.283,456.608 C 129.371,456.86 132.683,456.212 134.447,454.808 C 136.141,453.296 136.896,450.775 137.111,447.392 z "
       style="fill:#ffffff;fill-opacity:1;fill-rule:evenodd;stroke:#000000;stroke-width:0.036;stroke-miterlimit:10"
       id="path41" />
    <path
       d="M 127.607,439.976 C 127.103,441.056 127.031,442.064 127.103,443 C 127.248,443.899 127.535,444.728 128.255,445.483 C 129.732,445.771 130.812,445.699 131.892,445.412 C 132.792,445.088 133.691,444.548 134.195,443.647 C 133.224,442.855 132.359,442.099 131.209,441.523 C 130.057,440.876 128.904,440.407 127.607,439.976 z "
       style="fill:#ffffff;fill-rule:evenodd"
       id="path43" />
    <path
       d="M 128.76,447.932 C 129.516,448.04 130.416,448.076 131.604,448.04 C 132.721,447.895 134.016,447.716 135.493,447.355 C 134.989,449.299 134.448,450.811 133.729,451.748 C 132.973,452.72 132.036,453.115 131.065,453.08 C 130.381,452.395 129.913,451.64 129.516,450.811 C 129.119,449.876 128.867,449.048 128.76,447.932 z "
       style="fill:#ffffff;fill-rule:evenodd"
       id="path45" />
    <path
       d="M 127.607,439.976 L 125.771,440.552 C 125.664,441.632 125.699,442.64 125.88,443.575 C 126.06,444.403 126.167,445.16 126.599,445.844 L 129.048,445.304 C 128.362,444.619 127.968,443.864 127.716,443.035 C 127.428,442.1 127.393,441.128 127.607,439.976 z "
       style="fill-rule:evenodd;stroke:#000000;stroke-width:0.036;stroke-miterlimit:10"
       id="path47" />
    <path
       d="M 129.371,448.147 C 129.371,449.191 129.66,450.199 130.092,451.027 C 130.488,451.855 131.028,452.504 131.856,453.115 L 129.192,453.619 C 128.184,452.395 127.428,451.315 127.069,450.523 C 126.6,449.66 126.493,448.975 126.745,448.471 C 127.607,448.363 128.473,448.256 129.371,448.147 z "
       style="fill-rule:evenodd;stroke:#000000;stroke-width:0.036;stroke-miterlimit:10"
       id="path49" />
    <path
       d="M 143.844,540.56 C 146.545,540.668 150.576,539.876 156.229,538.329 C 161.881,536.744 168.721,534.261 177.325,531.02 L 178.944,539.121 C 173.94,541.497 168.829,543.261 163.321,544.809 C 157.776,546.285 152.126,547.257 146.077,547.869 C 145.355,545.456 144.6,543.008 143.844,540.56 z "
       style="fill:#ffffff;fill-opacity:1;fill-rule:evenodd;stroke:#000000;stroke-width:0.036;stroke-miterlimit:10"
       id="path51" />
    <path
       d="M 151.764,539.407 C 152.7,539.263 153.889,538.975 155.616,538.399 C 157.309,537.752 159.288,536.96 161.7,535.879 L 163.718,544.698 C 160.945,545.383 158.714,546.066 156.626,546.463 C 154.573,546.822 152.882,547.183 151.55,547.255 C 151.619,544.664 151.691,542.035 151.764,539.407 z "
       style="fill:#ffffff;fill-opacity:1;fill-rule:evenodd"
       id="path53" />
    <path
       d="M 154.787,538.651 L 155.4,546.752 L 158.64,545.96 L 157.847,537.392 L 154.787,538.651 z "
       style="fill:#ffffff;fill-opacity:1;fill-rule:evenodd"
       id="path55" />
    <path
       d="M 170.629,520.256 L 171.42,522.884 C 169.404,522.632 168.107,522.884 167.389,523.496 C 166.524,524.071 166.309,526.159 167.172,526.556 C 168,526.844 169.871,526.556 172.645,525.548 L 174.661,530.804 L 176.714,530.624 L 172.86,519.248 C 172.141,519.571 171.385,519.896 170.629,520.256 z "
       style="fill:#ffffff;fill-opacity:1;fill-rule:evenodd;stroke:#000000;stroke-width:0.036;stroke-miterlimit:10"
       id="path57" />
    <path
       d="M 174.66,519.464 L 180.168,538.327 L 181.787,536.275 C 180.455,530.912 179.377,527.059 178.549,524.323 C 177.684,521.624 177.072,520.147 176.713,520.04 C 176.027,519.859 175.344,519.68 174.66,519.464 z "
       style="fill:#ffffff;fill-opacity:1;fill-rule:evenodd;stroke:#000000;stroke-width:0.036;stroke-miterlimit:10"
       id="path59" />
    <path
       d="M 173.256,512.768 L 157.633,466.292 L 160.26,466.508 C 161.809,469.856 162.78,472.628 163.321,474.823 C 163.788,477.019 163.788,478.639 163.321,479.683 L 174.481,512.335 C 174.084,512.479 173.688,512.624 173.256,512.768 z "
       style="fill:#ffffff;fill-opacity:1;fill-rule:evenodd;stroke:#000000;stroke-width:0.036;stroke-miterlimit:10"
       id="path61" />
    <path
       d="M 172.031,513.38 L 156.408,465.067 L 154.176,465.895 L 169.008,514.171 C 170.016,513.92 171.023,513.668 172.031,513.38 z "
       style="fill:#ffffff;fill-opacity:1;fill-rule:evenodd;stroke:#000000;stroke-width:0.036;stroke-miterlimit:10"
       id="path63" />
    <path
       d="M 146.293,445.699 L 159.252,489.115 C 156.625,491.059 154.717,491.743 153.385,491.563 C 151.908,491.095 151.08,489.223 151.332,487.496 C 151.619,485.804 152.916,484.004 155.221,481.808 L 144.241,446.745 L 144.241,446.744 C 144.924,446.42 145.607,446.06 146.293,445.699 z "
       style="fill:#ffffff;fill-opacity:1;fill-rule:evenodd;stroke:#000000;stroke-width:0.036;stroke-miterlimit:10"
       id="path65" />
    <path
       d="M 136.141,472.699 C 137.508,477.847 138.84,483.535 139.993,490.34 C 141.145,497.071 142.153,504.487 143.016,512.876 C 144.924,512.228 146.76,512.12 148.92,512.264 C 150.9,512.444 154.5,514.136 155.4,513.884 C 156.191,513.488 155.255,512.659 153.996,510.031 C 152.592,507.223 150.359,506.143 147.301,497.647 C 144.096,488.971 137.184,463.339 135.313,459.091 C 133.404,454.916 133.729,459.451 136.141,472.699 z "
       style="fill:#ffffff;fill-opacity:1;fill-rule:evenodd;stroke:#000000;stroke-width:0.036;stroke-miterlimit:10"
       id="path67" />
    <path
       d="M 164.545,513.668 C 163.607,511.328 162.203,508.735 160.477,505.748 C 158.497,502.687 154.248,494.012 153.997,495.811 C 153.852,497.611 155.688,504.415 159.649,516.511 C 161.268,515.575 162.889,514.64 164.545,513.668 z "
       style="fill:#ffffff;fill-opacity:1;fill-rule:evenodd;stroke:#000000;stroke-width:0.036;stroke-miterlimit:10"
       id="path69" />
    <path
       d="M 172.248,542.936 C 173.148,545.6 174.156,548.3 174.877,551.036 C 175.703,553.736 176.244,556.4 176.893,559.173 C 179.485,559.317 180.817,558.633 181.176,557.121 C 181.428,555.536 179.737,552.476 178.729,550.028 C 177.721,547.508 176.461,544.988 175.092,542.324 C 174.156,542.504 173.221,542.72 172.248,542.936 z "
       style="fill:#ffffff;fill-opacity:1;fill-rule:evenodd;stroke:#000000;stroke-width:0.036;stroke-miterlimit:10"
       id="path71" />
    <path
       d="M 176.893,542.107 L 179.34,541.099 L 182.977,556.723 L 176.893,542.107 z "
       style="fill:#ffffff;fill-opacity:1;fill-rule:evenodd;stroke:#000000;stroke-width:0.036;stroke-miterlimit:10"
       id="path73" />
    <path
       d="M 142.404,440.336 C 139.74,433.315 137.545,427.628 136.824,424.279 C 136.068,420.967 138.625,421.759 138.119,419.996 C 137.615,418.231 136.103,420.716 134.808,417.187 C 133.548,413.659 131.316,405.631 130.451,399.547 L 133.08,398.539 C 134.412,406.53 135.816,412.183 137.148,415.782 C 138.48,419.274 140.461,418.591 141,419.85 C 141.324,421.074 139.199,419.706 139.775,423.09 C 140.351,426.438 141.863,431.838 144.455,439.722 C 143.771,439.903 143.088,440.119 142.404,440.336 z "
       style="fill:#ffffff;fill-opacity:1;fill-rule:evenodd;stroke:#000000;stroke-width:0.036;stroke-miterlimit:10"
       id="path75" />
    <path
       d="M 146.328,439.292 C 143.664,432.235 141.828,427.231 141.072,423.884 C 140.351,420.571 142.871,421.363 142.367,419.6 C 141.863,417.8 140.351,420.284 139.056,416.792 C 137.796,413.264 135.454,404.228 134.591,398.144 L 137.362,398.144 C 138.731,406.136 140.026,411.789 141.395,415.388 C 142.727,418.88 144.708,418.196 145.247,419.456 C 145.643,420.607 143.446,419.42 144.059,422.695 C 144.67,425.899 146.075,431.191 148.666,438.716 C 147.912,438.896 147.119,439.075 146.328,439.292 z "
       style="fill:#ffffff;fill-opacity:1;fill-rule:evenodd;stroke:#000000;stroke-width:0.036;stroke-miterlimit:10"
       id="path77" />
    <path
       d="M 150.035,438.535 C 147.371,431.479 146.724,426.151 146.004,422.804 C 145.283,419.491 147.119,420.14 146.615,418.376 C 146.111,416.575 144.347,418.52 143.052,415.027 C 141.792,411.464 139.019,403.867 138.156,397.783 L 139.992,397.676 C 142.008,404.696 143.881,409.808 145.607,413.155 C 147.263,416.395 149.712,416.107 150.179,417.548 C 150.431,418.844 147.804,418.268 148.128,421.652 C 148.487,425.072 149.782,430.508 152.159,438.104 C 151.477,438.248 150.756,438.392 150.035,438.535 z "
       style="fill:#ffffff;fill-opacity:1;fill-rule:evenodd;stroke:#000000;stroke-width:0.036;stroke-miterlimit:10"
       id="path79" />
    <path
       d="M 154.283,444.26 C 154.392,445.376 155.148,446.888 156.156,448.796 C 157.199,450.596 159.72,453.512 160.656,455.6 C 161.556,457.652 161.629,459.452 161.267,461.144 C 162.671,461.144 163.499,461.396 163.751,461.9 C 163.968,462.368 163.14,463.304 162.636,464.024 C 162.023,464.636 161.304,465.104 160.331,465.572 L 157.091,463.844 L 154.103,464.888 C 155.003,462.764 155.255,460.604 154.716,458.408 C 154.068,456.104 152.195,453.585 151.044,451.532 C 149.964,449.408 148.954,447.428 148.163,445.736 C 150.18,445.268 152.232,444.764 154.283,444.26 z "
       style="fill:#ffffff;fill-opacity:1;fill-rule:evenodd;stroke:#000000;stroke-width:0.036;stroke-miterlimit:10"
       id="path81" />
    <path
       d="M 129.877,404.912 C 127.32,405.704 124.367,405.632 121.02,404.3 C 117.565,402.86 112.632,398.612 109.537,397.244 C 106.405,395.912 104.137,395.947 102.445,396.38 C 100.717,396.739 99.565,397.712 99.133,399.44 C 98.557,401.096 98.737,404.66 99.133,406.245 C 99.277,407.684 99.781,408.404 100.933,408.549 C 102.229,408.62 104.029,407.036 106.477,406.857 C 108.709,406.677 110.869,406.929 114.901,407.181 C 118.897,407.217 124.008,407.469 130.381,407.541 C 130.236,406.676 130.057,405.812 129.877,404.912 z "
       style="fill:#ffffff;fill-opacity:1;fill-rule:evenodd;stroke:#000000;stroke-width:0.036;stroke-miterlimit:10"
       id="path83" />
    <path
       d="M 105.252,408.476 C 104.172,412.58 103.776,415.748 104.064,418.268 C 104.28,420.716 105.216,422.408 106.728,423.2 C 108.132,423.885 111.48,423.705 112.74,422.516 C 113.892,421.22 114.828,417.872 114.035,416.216 C 113.243,414.524 111.228,413.588 107.988,412.976 C 107.808,412.256 107.808,411.392 107.988,410.528 C 108.168,409.629 108.384,408.585 108.924,407.541 C 107.7,407.828 106.476,408.151 105.252,408.476 z "
       style="fill:#ffffff;fill-opacity:1;fill-rule:evenodd;stroke:#000000;stroke-width:0.036;stroke-miterlimit:10"
       id="path85" />
    <path
       d="M 129.336,398.432 L 124.512,398.504"
       style="fill:none;stroke:#000000;stroke-width:0.036;stroke-miterlimit:10"
       id="path87" />
    <path
       d="M 118.896,402.104 C 117.851,401.168 116.699,400.304 115.296,399.368 C 113.891,398.396 112.379,397.461 110.615,396.56 C 110.255,394.76 110.363,393.356 111.227,392.205 C 112.055,390.944 113.675,389.721 115.403,389.505 C 116.987,389.253 119.147,389.721 120.911,390.765 C 122.64,391.701 124.079,392.997 125.518,394.941 C 125.338,395.049 126.346,395.157 128.399,394.869 C 130.487,394.546 133.618,394.222 137.938,393.502 L 138.983,396.31 C 137.003,396.274 134.915,396.382 132.575,396.634 C 130.235,396.886 127.786,397.21 125.087,397.75 C 124.8,398.542 124.151,399.262 123.144,400.054 C 122.1,400.771 120.732,401.456 118.896,402.104 z "
       style="fill:#ffffff;fill-opacity:1;fill-rule:evenodd;stroke:#000000;stroke-width:0.036;stroke-miterlimit:10"
       id="path89" />
    <path
       d="M 116.34,399.008 C 117.276,398.396 118.069,398 118.717,397.424 C 119.328,396.884 120.481,396.596 120.084,395.876 C 119.58,394.976 116.377,393.176 116.16,392.563 C 115.943,391.843 117.851,391.555 118.969,392.131 C 119.94,392.707 122.389,394.327 122.28,395.875 C 122.1,397.278 120.733,398.862 118.032,400.627 C 117.492,400.088 116.916,399.548 116.34,399.008 z "
       style="fill:#ffffff;fill-rule:evenodd"
       id="path91" />
    <path
       d="M 119.977,392.636 C 119.76,392.996 121.813,394.436 121.848,395.444 C 121.741,396.452 120.229,397.856 120.084,398.684 C 119.977,399.332 120.66,400.196 121.451,399.872 C 122.099,399.403 124.152,397.748 124.404,396.559 C 124.439,395.263 123.431,393.391 122.64,392.744 C 121.848,392.023 120.084,392.168 119.977,392.636 z "
       style="fill-rule:evenodd;stroke:#000000;stroke-width:0.036;stroke-miterlimit:10"
       id="path93" />
    <path
       d="M 126.961,384.031 C 123.936,384.212 121.272,383.887 118.969,383.347 C 116.664,382.663 115.297,381.079 112.92,380.395 C 110.364,379.603 106.188,378.775 103.992,379.027 C 101.616,379.315 100.032,380.683 99.384,382.015 C 98.628,383.239 98.988,384.931 99.888,386.515 C 100.824,387.991 102.372,390.835 104.676,391.015 C 106.8,391.087 110.184,387.919 112.74,387.199 C 115.224,386.336 116.771,386.372 119.472,386.336 C 122.064,386.264 124.943,386.336 128.255,386.695 C 127.824,385.832 127.393,384.932 126.961,384.031 z "
       style="fill:#ffffff;fill-opacity:1;fill-rule:evenodd;stroke:#000000;stroke-width:0.036;stroke-miterlimit:10"
       id="path95" />
    <path
       d="M 104.172,387.128 C 104.316,386.3 105.9,386.012 106.548,385.508 C 107.16,384.968 108.312,384.788 107.916,383.96 C 107.448,383.132 104.172,381.296 103.992,380.647 C 103.812,380 105.756,379.675 106.8,380.215 C 107.808,380.791 110.256,382.519 110.112,383.959 C 109.968,385.398 107.34,387.955 105.864,388.711 C 104.388,389.504 103.992,387.92 104.172,387.128 z "
       style="fill:#ffffff;fill-rule:evenodd"
       id="path97" />
    <path
       d="M 107.808,380.72 C 107.592,381.08 109.644,382.52 109.68,383.528 C 109.572,384.536 108.06,385.94 107.916,386.768 C 107.808,387.416 108.492,388.28 109.284,387.956 C 109.932,387.487 111.984,385.832 112.236,384.643 C 112.272,383.347 111.264,381.475 110.472,380.828 C 109.68,380.107 107.916,380.252 107.808,380.72 z "
       style="fill-rule:evenodd;stroke:#000000;stroke-width:0.036;stroke-miterlimit:10"
       id="path99" />
    <path
       d="M 100.824,390.008 C 98.448,390.115 97.152,390.404 96.504,391.016 C 95.856,391.592 96.18,392.816 97.188,393.572 C 98.16,394.257 99.708,394.904 102.12,395.373 C 103.164,395.013 104.244,394.797 105.504,394.868 C 106.728,394.904 107.88,395.085 109.248,395.553 C 109.248,394.833 109.32,394.221 109.608,393.573 C 109.86,392.889 110.184,392.313 110.724,391.701 L 107.664,390.874 C 106.656,391.701 105.648,392.062 104.496,391.953 C 103.236,391.771 102.192,391.124 100.824,390.008 z "
       style="fill:#ffffff;fill-opacity:1;fill-rule:evenodd;stroke:#000000;stroke-width:0.036;stroke-miterlimit:10"
       id="path101" />
    <path
       d="M 129.695,393.823 C 129.156,393.031 129.011,392.059 129.263,391.195 C 129.515,390.08 131.136,389.035 131.208,388.208 C 131.208,387.416 130.487,387.056 129.19,386.84 L 128.002,383.456 C 128.65,383.275 128.83,382.519 128.686,381.332 C 128.506,380.107 127.858,378.451 126.887,376.22 C 127.606,376.22 128.291,376.112 128.938,375.608 C 129.586,375.176 130.163,374.348 130.811,373.413 L 137.434,392.997 L 135.563,393.068 L 134.95,390.081 L 133.942,390.188 L 134.628,393.068 C 133.763,393.14 132.935,393.249 132.144,393.392 C 131.244,393.5 130.561,393.644 129.695,393.823 z "
       style="fill:#ffffff;fill-opacity:1;fill-rule:evenodd;stroke:#000000;stroke-width:0.036;stroke-miterlimit:10"
       id="path103" />
    <path
       d="M 117.023,409.699 C 117.06,411.859 119.796,418.412 120.912,422.552 C 121.92,426.584 122.316,431.552 123.469,433.712 C 124.549,435.8 127.787,437.564 127.897,434.972 C 127.825,432.2 125.196,422.084 123.901,417.8 C 122.641,413.552 121.452,410.924 120.337,409.628 C 119.041,408.224 116.916,407.504 117.023,409.699 z "
       style="fill:#ffffff;fill-opacity:1;fill-rule:evenodd;stroke:#000000;stroke-width:0.036;stroke-miterlimit:10"
       id="path105" />
    <path
       d="M 105.792,370.063 C 108.456,370.459 110.868,370.171 113.172,369.199 C 115.332,368.084 117.132,365.239 119.4,364.124 C 121.668,363.044 124.8,362.216 126.709,362.756 C 128.58,363.188 129.768,364.916 130.272,366.823 C 130.524,368.659 129.948,372.332 128.833,373.807 C 127.645,375.211 125.665,375.355 123.722,375.355 C 121.742,375.175 119.654,373.412 117.169,373.124 C 114.649,372.764 111.841,372.8 108.745,373.231 C 107.413,373.664 106.477,373.843 105.793,373.627 C 105.037,373.303 104.533,372.547 104.569,371.935 C 104.568,371.288 104.928,370.712 105.792,370.063 z "
       style="fill:#ffffff;fill-opacity:1;fill-rule:evenodd;stroke:#000000;stroke-width:0.036;stroke-miterlimit:10"
       id="path107" />
    <path
       d="M 123.432,366.031 C 123.36,366.859 121.813,367.292 121.272,367.903 C 120.696,368.515 119.581,368.803 120.084,369.559 C 120.588,370.351 124.045,371.828 124.332,372.439 C 124.584,373.051 122.676,373.591 121.596,373.159 C 120.516,372.727 117.889,371.252 117.852,369.811 C 117.889,368.372 120.192,365.563 121.561,364.591 C 122.965,363.655 123.541,365.204 123.432,366.031 z "
       style="fill:#ffffff;fill-rule:evenodd"
       id="path109" />
    <path
       d="M 124.764,372.188 C 124.836,371.612 122.641,370.604 122.604,369.596 C 122.389,368.552 124.008,366.86 124.008,366.176 C 123.936,365.384 123.217,364.664 122.531,365.132 C 121.703,365.564 120.011,367.472 119.939,368.768 C 119.904,369.956 121.236,371.756 122.136,372.368 C 122.928,372.872 124.584,372.619 124.764,372.188 z "
       style="fill-rule:evenodd;stroke:#000000;stroke-width:0.036;stroke-miterlimit:10"
       id="path111" />
    <path
       d="M 91.464,352.027 C 90.42,353.071 89.88,354.332 89.844,355.519 C 89.736,356.707 90.24,358.255 91.212,359.335 C 92.148,360.379 93.66,361.026 95.748,361.566 L 100.5,379.1 L 102.696,378.308 L 97.872,357.14 L 100.68,356.276 C 102.012,360.2 103.056,363.188 103.812,365.384 C 104.532,367.544 104.964,368.768 105.108,369.199 L 107.304,369.632 C 106.26,366.104 105.36,363.332 104.748,360.776 C 104.064,358.293 103.884,356.528 103.236,354.656 C 102.48,352.677 102.516,349.616 100.572,349.22 C 98.556,348.823 95.568,349.615 91.464,352.027 z "
       style="fill:#ffffff;fill-opacity:1;fill-rule:evenodd;stroke:#000000;stroke-width:0.036;stroke-miterlimit:10"
       id="path113" />
    <path
       d="M 106.872,374.852 L 107.376,377.984 L 110.112,378.992 L 108.996,373.917 L 106.872,374.852 z "
       style="fill:#ffffff;fill-opacity:1;fill-rule:evenodd;stroke:#000000;stroke-width:0.036;stroke-miterlimit:10"
       id="path115" />
    <path
       d="M 107.556,349.184 L 113.424,349.184 C 116.125,347.24 118.5,346.484 120.156,346.484 C 121.847,346.52 123.107,348.104 123.648,349.436 C 124.08,350.732 124.259,352.676 123.216,353.864 C 122.027,354.908 119.075,355.808 117.275,355.593 C 115.511,355.269 114.072,352.317 112.668,351.74 C 111.192,351.093 109.752,351.02 108.492,351.669 C 108.204,350.84 107.88,350.012 107.556,349.184 z "
       style="fill:#ffffff;fill-opacity:1;fill-rule:evenodd;stroke:#000000;stroke-width:0.036;stroke-miterlimit:10"
       id="path117" />
    <path
       d="M 105.504,344.863 C 105.756,343.496 105.648,342.595 105.18,342.307 C 104.532,341.947 102.84,342.091 102.444,342.739 C 102.048,343.279 101.904,342.668 102.984,346.052 C 103.92,349.472 106.62,359.696 108.312,362.828 C 110.004,365.672 112.236,364.447 112.92,364.016 C 113.352,363.512 112.236,360.92 111.66,360.272 C 111.192,359.552 110.436,359.588 109.788,360.092 C 108.384,355.016 106.944,349.939 105.504,344.863 z "
       style="fill:#ffffff;fill-opacity:1;fill-rule:evenodd;stroke:#000000;stroke-width:0.036;stroke-miterlimit:10"
       id="path119" />
    <path
       d="M 99.888,340.328 C 102.228,338.888 104.388,338.276 106.368,338.492 C 108.276,338.672 109.356,341.264 111.552,341.552 C 113.604,341.732 117.347,340.832 118.896,339.68 C 120.335,338.42 121.091,335.936 120.335,334.316 C 119.507,332.552 116.446,330.104 114.358,329.888 C 112.199,329.708 109.175,331.904 107.663,333.128 C 106.043,334.172 106.079,335.468 104.855,336.332 C 103.559,337.124 101.903,337.772 99.887,338.132 C 99.888,338.852 99.888,339.572 99.888,340.328 z "
       style="fill:#ffffff;fill-opacity:1;fill-rule:evenodd;stroke:#000000;stroke-width:0.036;stroke-miterlimit:10"
       id="path121" />
    <path
       d="M 120.084,349.184 C 120.049,349.796 118.896,350.12 118.465,350.588 C 118.031,351.02 117.168,351.272 117.565,351.812 C 117.961,352.424 120.553,353.504 120.768,353.972 C 120.948,354.44 119.508,354.872 118.68,354.512 C 117.889,354.188 115.909,353.108 115.909,351.991 C 115.909,350.947 117.638,348.823 118.68,348.103 C 119.725,347.384 120.156,348.571 120.084,349.184 z "
       style="fill:#ffffff;fill-rule:evenodd"
       id="path123" />
    <path
       d="M 121.092,353.792 C 121.057,353.396 119.545,352.567 119.473,351.848 C 119.364,351.02 120.409,349.796 120.516,349.292 C 120.409,348.68 119.905,348.14 119.401,348.5 C 118.897,348.68 117.421,350.372 117.458,351.235 C 117.349,352.172 118.501,353.395 119.112,353.935 C 119.688,354.188 120.947,354.188 121.092,353.792 z "
       style="fill-rule:evenodd;stroke:#000000;stroke-width:0.036;stroke-miterlimit:10"
       id="path125" />
    <path
       d="M 113.712,333.164 C 113.712,333.992 112.272,334.64 111.768,335.324 C 111.3,335.972 110.22,336.44 110.796,337.124 C 111.444,337.808 115.08,338.852 115.404,339.428 C 115.728,340.004 113.928,340.796 112.776,340.508 C 111.66,340.184 108.852,339.068 108.672,337.664 C 108.492,336.224 110.4,333.128 111.66,332.012 C 112.92,330.896 113.676,332.335 113.712,333.164 z "
       style="fill:#ffffff;fill-rule:evenodd"
       id="path127" />
    <path
       d="M 115.801,339.104 C 115.692,338.528 113.568,337.772 113.316,336.836 C 113.028,335.792 114.324,333.992 114.287,333.236 C 114.107,332.408 113.244,331.904 112.668,332.408 C 111.948,332.912 110.508,335.072 110.58,336.368 C 110.688,337.664 112.272,339.032 113.244,339.644 C 114.145,340.04 115.691,339.536 115.801,339.104 z "
       style="fill-rule:evenodd;stroke:#000000;stroke-width:0.036;stroke-miterlimit:10"
       id="path129" />
    <path
       d="M 99.744,347.42 L 94.02,323.48 L 91.896,324.02 C 93.372,329.6 94.704,334.208 95.748,338.384 C 96.756,342.524 97.62,345.692 98.196,348.428 C 98.7,348.104 99.204,347.779 99.744,347.42 z "
       style="fill:#ffffff;fill-opacity:1;fill-rule:evenodd;stroke:#000000;stroke-width:0.036;stroke-miterlimit:10"
       id="path131" />
    <path
       d="M 92.688,331.508 C 90.744,331.364 89.268,331.724 88.656,332.588 C 88.008,333.272 87.828,333.632 88.512,336.44 C 89.052,339.32 90.312,343.749 92.148,349.868 L 94.812,349.041 C 93.48,347.421 93.012,345.944 93.012,344.612 C 93.12,343.136 93.696,341.984 95.136,340.76 L 94.704,338.492 C 93.948,338.96 93.408,339.248 92.94,339.752 C 92.508,340.22 92.148,340.508 92.004,341.012 C 90.744,338.708 90.204,337.052 90.528,335.756 C 90.816,334.46 91.824,333.668 93.696,333.38 C 93.372,332.768 93.048,332.156 92.688,331.508 z "
       style="fill:#ffffff;fill-opacity:1;fill-rule:evenodd;stroke:#000000;stroke-width:0.036;stroke-miterlimit:10"
       id="path133" />
    <path
       d="M 113.1,316.315 C 109.428,316.387 105.612,316.963 101.508,318.043 C 97.296,318.979 90.168,321.679 88.584,322.543 C 86.964,323.371 89.268,323.623 92.004,323.299 C 94.704,322.903 101.616,321.211 104.676,320.599 C 107.628,319.987 109.356,319.519 109.86,319.483 C 107.88,320.095 106.98,320.743 106.62,321.427 C 106.224,322.039 106.656,323.011 108.06,323.371 C 109.5,323.623 113.964,323.011 115.225,323.047 C 116.377,322.975 116.377,322.975 115.225,323.047 C 114.541,320.815 113.82,318.583 113.1,316.315 z "
       style="fill:#ffffff;fill-opacity:1;fill-rule:evenodd;stroke:#000000;stroke-width:0.036;stroke-miterlimit:10"
       id="path135" />
    <path
       d="M 112.668,324.416 L 113.784,328.736 C 114.504,328.844 115.08,329.024 115.657,329.276 C 116.233,329.456 116.665,329.708 117.096,330.032 L 115.657,323.984 C 114.684,324.127 113.676,324.271 112.668,324.416 z "
       style="fill:#ffffff;fill-opacity:1;fill-rule:evenodd;stroke:#000000;stroke-width:0.036;stroke-miterlimit:10"
       id="path137" />
    <path
       d="M 86.964,304.184 C 89.556,302.672 91.752,302.096 93.948,302.312 C 96,302.492 97.224,305.084 99.564,305.372 C 101.868,305.552 105.756,304.652 107.484,303.5 C 108.996,302.24 109.788,299.756 109.032,298.136 C 108.168,296.372 104.82,293.924 102.588,293.708 C 100.212,293.528 97.008,295.724 95.316,296.948 C 93.516,297.956 93.66,299.36 92.292,300.188 C 90.888,301.016 89.16,301.556 86.964,301.952 C 86.964,302.672 86.964,303.428 86.964,304.184 z "
       style="fill:#ffffff;fill-opacity:1;fill-rule:evenodd;stroke:#000000;stroke-width:0.036;stroke-miterlimit:10"
       id="path139" />
    <path
       d="M 101.868,297.02 C 101.904,297.848 100.32,298.496 99.78,299.144 C 99.276,299.828 98.088,300.26 98.736,300.944 C 99.42,301.664 103.344,302.672 103.704,303.248 C 104.064,303.824 102.12,304.616 100.896,304.328 C 99.672,304.04 96.648,302.924 96.432,301.484 C 96.252,300.044 98.304,296.948 99.672,295.832 C 101.04,294.716 101.832,296.191 101.868,297.02 z "
       style="fill:#ffffff;fill-rule:evenodd"
       id="path141" />
    <path
       d="M 104.136,302.924 C 104.1,302.348 101.688,301.592 101.472,300.656 C 101.112,299.54 102.624,297.884 102.516,297.092 C 102.3,296.264 101.436,295.76 100.752,296.264 C 99.96,296.732 98.412,298.964 98.484,300.188 C 98.556,301.376 100.392,302.888 101.364,303.464 C 102.264,303.86 104.064,303.355 104.136,302.924 z "
       style="fill-rule:evenodd;stroke:#000000;stroke-width:0.036;stroke-miterlimit:10"
       id="path143" />
    <path
       d="M 91.14,319.988 L 87.216,304.832 L 87.216,304.832 C 87.72,304.544 88.152,304.184 88.512,304.148 C 88.836,303.932 88.98,304.04 89.088,304.076 L 89.844,308 C 91.752,307.928 92.76,308.288 93.012,308.936 C 93.192,309.62 92.544,310.592 91.068,311.996 L 93.012,319.736 C 92.4,319.808 91.788,319.88 91.14,319.988 z "
       style="fill:#ffffff;fill-opacity:1;fill-rule:evenodd;stroke:#000000;stroke-width:0.036;stroke-miterlimit:10"
       id="path145" />
    <path
       d="M 110.22,302.636 L 113.28,315.236 L 110.616,315.488 L 107.808,304.148 L 110.22,302.636 z "
       style="fill:#ffffff;fill-opacity:1;fill-rule:evenodd;stroke:#000000;stroke-width:0.036;stroke-miterlimit:10"
       id="path147" />
    <path
       d="M 106.62,305.012 L 109.176,315.488 L 106.476,315.812 C 106.584,315.02 106.62,314.156 106.728,313.508 C 106.764,312.788 106.764,312.14 106.728,311.564 C 105.36,310.952 104.496,310.16 103.992,309.188 C 103.452,308.144 103.308,306.992 103.56,305.588 C 104.568,305.408 105.576,305.228 106.62,305.012 z "
       style="fill:#ffffff;fill-opacity:1;fill-rule:evenodd;stroke:#000000;stroke-width:0.036;stroke-miterlimit:10"
       id="path149" />
    <path
       d="M 88.728,299.36 L 85.668,286.364 C 87.072,285.068 88.188,284.204 89.412,283.376 C 90.528,282.548 91.176,281.972 92.472,281.648 C 93.732,281.288 95.64,279.416 97.08,281.324 C 98.412,283.232 99.708,286.904 100.824,292.736 C 101.94,292.628 102.66,292.556 103.38,292.664 C 104.064,292.7 104.352,292.916 104.64,293.168 C 102.624,287.336 100.86,283.232 99.636,280.568 C 98.376,277.904 97.368,276.824 96.9,277.328 C 97.62,277.04 98.268,276.32 98.844,274.772 C 99.384,273.224 99.744,271.064 100.068,268.292 C 101.328,267.356 101.904,266.528 101.94,265.664 C 101.904,264.692 101.148,263.288 100.068,263.108 C 98.916,262.964 97.296,263.432 95.208,264.656 C 93.912,263.828 92.472,263.648 91.032,263.972 C 89.484,264.296 87.252,265.196 86.424,266.672 C 85.632,268.04 85.164,271.028 86.424,272.288 C 87.54,273.44 89.916,273.8 93.408,273.512 C 92.58,274.556 91.392,275.348 89.844,275.888 C 88.26,276.32 86.784,275.456 84.048,276.644 C 81.168,277.796 77.64,279.848 73.068,282.944 C 70.08,273.08 67.524,264.836 65.256,257.78 C 62.844,250.616 60.936,243.236 59.532,240.932 C 58.02,238.628 56.94,240.212 56.976,244.28 C 56.94,248.276 58.308,258.32 59.712,265.124 C 61.08,271.892 63.168,279.38 65.004,284.528 C 66.66,289.424 68.64,292.556 69.828,294.896 C 70.944,297.2 71.088,298.064 71.808,298.46 C 72.384,298.82 73.248,298.244 73.572,297.02 C 73.86,295.76 73.788,293.564 73.5,290.72 L 80.484,287.48 C 80.952,289.568 81.852,291.728 82.788,293.96 C 83.832,296.156 84.912,298.424 86.424,300.764 C 87.18,300.296 87.936,299.828 88.728,299.36 z "
       style="fill:#ffffff;fill-opacity:1;fill-rule:evenodd;stroke:#000000;stroke-width:0.036;stroke-miterlimit:10"
       id="path151" />
    <path
       d="M 117.492,293.204 C 115.476,286.292 113.495,280.244 111.696,274.664 C 109.68,269.012 107.808,262.856 106.368,260.084 C 104.964,257.312 103.74,257.6 103.524,258.32 C 103.2,258.932 102.48,258.032 104.568,264.08 C 106.584,270.128 110.256,280.1 115.729,294.392 C 116.305,293.996 116.881,293.6 117.492,293.204 z "
       style="fill:#ffffff;fill-opacity:1;fill-rule:evenodd;stroke:#000000;stroke-width:0.036;stroke-miterlimit:10"
       id="path153" />
    <path
       d="M 114.936,294.392 C 111.409,285.536 108.672,278.876 106.873,273.728 C 105.037,268.616 104.965,267.068 103.885,264.08 C 102.697,260.876 101.185,257.42 99.889,255.512 C 98.413,253.712 96.685,253.028 95.533,252.776 C 94.273,252.272 93.121,252.236 92.905,252.956 C 92.761,253.712 93.373,255.548 94.345,257.204 C 95.209,258.788 96.361,260.444 97.945,262.316 C 99.241,262.136 100.177,262.352 100.897,262.82 C 101.581,263.252 102.013,264.116 102.193,265.124 C 102.337,266.024 101.977,267.104 101.509,268.364 L 112.633,295.508 C 113.388,295.147 114.145,294.788 114.936,294.392 z "
       style="fill:#ffffff;fill-opacity:1;fill-rule:evenodd;stroke:#000000;stroke-width:0.036;stroke-miterlimit:10"
       id="path155" />
    <path
       d="M 111.192,295.508 L 101.148,270.38 C 100.896,272.144 100.572,273.368 100.32,274.484 C 99.996,275.456 99.6,276.176 99.276,276.5 C 99.528,277.148 100.284,278.804 101.4,281.612 C 102.552,284.312 103.92,288.164 105.936,293.024 C 106.836,293.276 107.448,293.708 108.06,294.32 C 108.528,294.932 108.996,295.724 109.176,296.696 C 109.824,296.3 110.508,295.904 111.192,295.508 z "
       style="fill:#ffffff;fill-opacity:1;fill-rule:evenodd;stroke:#000000;stroke-width:0.036;stroke-miterlimit:10"
       id="path157" />
    <path
       d="M 63.456,230.492 L 65.328,237.548 C 64.104,238.16 63.636,238.88 63.636,239.42 C 63.6,239.924 64.32,240.536 65.508,240.968 L 73.572,269.66 L 73.572,269.66 C 72.852,271.1 72.636,272.216 73.068,272.864 C 73.5,273.512 74.904,273.944 75.876,273.728 C 76.596,273.404 77.748,271.712 77.928,270.992 C 78.036,270.092 77.64,269.516 76.74,268.868 L 76.632,267.788 C 78.36,267.356 80.268,266.672 82.356,265.736 C 84.48,264.728 87.144,263.324 89.088,261.92 C 90.924,260.48 92.112,258.644 93.084,256.808 C 92.04,254.36 91.356,252.56 91.032,251.012 C 90.636,249.536 90.456,248.456 91.032,247.772 C 91.608,246.8 92.508,246.188 94.272,246.224 C 95.928,246.368 99.384,248.132 100.896,248.456 C 102.3,248.6 102.552,248.42 102.768,247.52 C 102.876,246.512 102.408,243.776 101.508,242.768 C 100.536,241.616 98.736,240.896 97.08,241.148 C 95.244,241.292 92.508,243.056 90.96,243.956 C 89.34,244.712 88.332,245.576 87.792,246.152 L 85.74,242.66 C 84.66,242.768 83.724,243.056 82.932,243.524 C 81.924,243.848 80.7,244.64 80.664,245.216 C 80.628,245.792 82.392,246.764 83.04,247.016 C 83.616,247.124 84.084,246.728 84.3,245.972 L 87.108,252.632 C 86.244,253.28 84.696,253.964 82.608,254.828 C 80.448,255.584 77.748,256.52 74.364,257.492 L 75.048,260.192 C 76.668,259.94 78.432,259.544 80.484,259.004 C 82.5,258.32 85.704,256.808 87.036,256.7 C 88.224,256.484 89.52,257.06 87.72,258.428 C 85.776,259.832 81.852,262.064 75.804,265.124 L 72.564,254.936 C 73.644,254.288 74.292,253.712 74.112,253.208 C 74.04,252.704 73.14,252.128 71.808,251.768 C 71.232,249.392 70.764,247.34 70.26,245.216 C 69.72,243.092 69.288,241.112 68.82,239.276 C 72.276,238.376 74.904,237.872 76.992,237.908 C 79.044,237.944 79.476,239.348 80.916,239.348 C 82.176,239.276 84.3,238.628 84.912,237.404 C 85.488,235.964 85.2,232.652 84.48,231.356 C 83.724,230.132 81.312,229.772 80.304,229.988 C 79.26,230.132 78.396,231.212 77.856,232.112 C 77.208,232.976 77.604,233.804 76.128,234.74 C 74.472,235.532 71.916,236.324 68.316,236.972 L 65.688,228.872 C 64.968,229.412 64.212,229.952 63.456,230.492 z "
       style="fill:#ffffff;fill-opacity:1;fill-rule:evenodd;stroke:#000000;stroke-width:0.036;stroke-miterlimit:10"
       id="path159" />
    <path
       d="M 81.852,232.652 C 81.888,233.228 80.736,233.696 80.376,234.164 C 79.98,234.668 79.152,234.956 79.62,235.46 C 80.088,235.964 82.896,236.684 83.184,237.116 C 83.436,237.512 82.032,238.088 81.132,237.872 C 80.268,237.656 78.108,236.864 77.964,235.856 C 77.82,234.812 79.296,232.616 80.268,231.824 C 81.24,230.996 81.816,232.04 81.852,232.652 z "
       style="fill:#ffffff;fill-rule:evenodd"
       id="path161" />
    <path
       d="M 83.472,236.864 C 83.4,236.468 81.744,235.928 81.564,235.244 C 81.348,234.38 82.284,233.3 82.284,232.688 C 82.176,232.148 81.492,231.68 81.06,232.112 C 80.448,232.472 79.404,233.912 79.44,234.92 C 79.44,235.748 80.772,236.9 81.492,237.26 C 82.14,237.583 83.4,237.08 83.472,236.864 z "
       style="fill-rule:evenodd;stroke:#000000;stroke-width:0.036;stroke-miterlimit:10"
       id="path163" />
    <path
       d="M 90.42,271.568 C 90.348,270.956 91.5,270.38 91.86,269.84 C 92.184,269.3 93.048,268.904 92.508,268.4 C 91.968,267.932 88.944,267.428 88.656,266.996 C 88.332,266.6 89.772,265.88 90.708,266.024 C 91.644,266.168 93.948,266.816 94.2,267.86 C 94.452,268.94 93.084,271.388 92.148,272.288 C 91.176,273.224 90.492,272.18 90.42,271.568 z "
       style="fill:#ffffff;fill-rule:evenodd"
       id="path165" />
    <path
       d="M 90.744,266.096 C 90.744,266.528 92.868,266.996 93.228,267.896 C 93.516,268.76 92.328,270.272 92.58,271.028 C 92.76,271.64 93.516,272.072 94.164,271.64 C 94.632,271.064 95.964,269.084 95.82,268.076 C 95.532,267.032 93.984,265.7 93.12,265.448 C 92.256,265.16 90.636,265.52 90.744,266.096 z "
       style="fill-rule:evenodd;stroke:#000000;stroke-width:0.036;stroke-miterlimit:10"
       id="path167" />
    <path
       d="M 102.732,403.976 C 102.876,403.256 104.28,403.004 104.82,402.536 C 105.36,402.068 106.404,401.925 106.044,401.205 C 105.648,400.484 102.732,398.829 102.552,398.253 C 102.408,397.713 104.136,397.389 105.036,397.893 C 105.972,398.397 108.132,399.945 107.988,401.206 C 107.844,402.466 105.54,404.733 104.208,405.418 C 102.912,406.1 102.552,404.695 102.732,403.976 z "
       style="fill:#ffffff;fill-rule:evenodd"
       id="path169" />
    <path
       d="M 105.972,398.323 C 105.828,398.683 107.52,399.836 107.592,400.807 C 107.448,401.635 106.152,402.967 106.044,403.687 C 105.972,404.299 106.548,405.019 107.232,404.731 C 107.808,404.372 109.608,402.752 109.86,401.815 C 109.968,400.627 108.888,399.044 108.276,398.431 C 107.592,397.783 106.08,397.892 105.972,398.323 z "
       style="fill-rule:evenodd;stroke:#000000;stroke-width:0.036;stroke-miterlimit:10"
       id="path171" />
    <path
       d="M 105.9,421.22 C 106.008,420.644 107.124,420.464 107.592,420.068 C 108.024,419.709 108.852,419.564 108.564,418.988 C 108.24,418.377 105.9,417.081 105.756,416.612 C 105.648,416.144 107.016,415.928 107.772,416.324 C 108.492,416.72 110.256,417.944 110.148,418.988 C 110.04,419.997 108.168,421.833 107.088,422.373 C 106.044,422.947 105.756,421.796 105.9,421.22 z "
       style="fill:#ffffff;fill-rule:evenodd"
       id="path173" />
    <path
       d="M 108.492,416.684 C 108.384,416.936 109.752,417.872 109.824,418.664 C 109.644,419.384 108.708,420.355 108.564,421.004 C 108.528,421.544 108.852,422.012 109.536,421.832 C 109.968,421.436 111.516,420.319 111.66,419.456 C 111.696,418.519 110.904,417.187 110.4,416.72 C 109.68,416.144 108.672,416.359 108.492,416.684 z "
       style="fill-rule:evenodd;stroke:#000000;stroke-width:0.036;stroke-miterlimit:10"
       id="path175" />
    <path
       d="M 63.672,220.592 C 66.912,220.592 69.648,220.088 72.168,219.224 C 74.58,218.18 76.632,215.3 78.324,215.048 C 80.052,214.868 81.6,216.38 82.14,217.784 C 82.536,219.08 81.996,221.924 80.52,222.716 C 78.792,223.256 75.048,221.852 72.348,221.852 C 69.576,221.888 66.876,222.284 64.104,223.04 L 64.932,227.9 L 62.988,229.268 L 62.988,229.268 C 60.36,220.016 57.876,211.628 55.68,203.564 C 53.412,195.464 51.612,189.056 49.452,181.28 C 47.184,173.432 44.664,165.332 42.036,156.836 C 39.048,157.592 36.456,157.952 34.404,157.916 C 32.208,157.808 30.768,157.376 29.544,156.476 C 28.176,155.36 27.24,153.668 27.168,152.228 C 27.096,150.752 28.176,148.988 29.292,148.052 C 30.372,147.08 31.74,146.648 33.54,146.612 C 33.072,148.34 32.964,149.924 33.612,151.364 C 34.152,152.912 35.268,154.388 36.96,155.216 C 38.616,155.828 40.776,155.828 43.584,155.216 L 47.94,169.4 C 49.416,169.256 51.252,168.716 53.448,167.78 C 55.608,166.772 58.38,163.784 60.792,163.532 C 63.06,163.244 65.652,164.18 67.164,165.764 C 68.604,167.24 69.54,170.264 69.288,172.316 C 68.892,174.224 67.02,177.5 65.04,177.428 C 62.952,177.212 59.784,172.748 57.192,171.812 C 54.528,170.912 51.792,171.02 49.128,172.136 L 53.448,186.356 C 55.32,186.5 57.264,186.14 59.424,185.42 C 61.548,184.592 64.212,181.676 66.3,181.676 C 68.352,181.676 71.16,183.944 71.412,185.42 C 71.412,186.896 68.712,189.668 66.912,190.28 C 65.076,190.604 62.988,188.444 60.792,188.228 C 58.596,187.976 56.22,188.228 53.808,188.984 L 57.192,200.828 C 59.244,200.072 61.224,199.136 63.42,198.02 C 65.508,196.724 67.812,193.988 69.9,193.844 C 71.916,193.7 74.976,195.608 75.336,197.336 C 75.516,199.028 73.284,203.312 71.412,204.068 C 69.36,204.752 66.336,201.584 63.996,201.512 C 61.656,201.332 59.748,201.764 57.876,202.952 C 59.784,208.82 61.728,214.688 63.672,220.592 z "
       style="fill:#ffffff;fill-opacity:1;fill-rule:evenodd;stroke:#000000;stroke-width:0.036;stroke-miterlimit:10"
       id="path177" />
    <path
       d="M 79.98,216.992 C 80.016,217.568 78.864,218.036 78.504,218.504 C 78.108,219.008 77.28,219.296 77.748,219.8 C 78.252,220.304 81.024,221.024 81.312,221.456 C 81.564,221.852 80.16,222.428 79.26,222.212 C 78.396,221.996 76.236,221.204 76.092,220.196 C 75.948,219.152 77.424,216.956 78.396,216.164 C 79.368,215.335 79.944,216.38 79.98,216.992 z "
       style="fill:#ffffff;fill-rule:evenodd"
       id="path179" />
    <path
       d="M 81.6,221.204 C 81.528,220.808 79.872,220.268 79.692,219.584 C 79.476,218.72 80.412,217.64 80.412,217.028 C 80.304,216.488 79.62,216.02 79.188,216.452 C 78.576,216.812 77.532,218.252 77.568,219.26 C 77.568,220.088 78.9,221.24 79.62,221.6 C 80.268,221.924 81.528,221.42 81.6,221.204 z "
       style="fill-rule:evenodd;stroke:#000000;stroke-width:0.036;stroke-miterlimit:10"
       id="path181" />
    <path
       d="M 70.584,196.616 C 70.584,197.264 69.36,197.804 68.928,198.308 C 68.532,198.848 67.632,199.208 68.136,199.748 C 68.676,200.288 71.736,201.08 72.024,201.548 C 72.312,201.98 70.764,202.628 69.792,202.376 C 68.856,202.16 66.48,201.26 66.3,200.144 C 66.156,199.028 67.776,196.58 68.856,195.716 C 69.9,194.852 70.548,195.968 70.584,196.616 z "
       style="fill:#ffffff;fill-rule:evenodd"
       id="path183" />
    <path
       d="M 72.348,201.296 C 72.348,200.9 70.404,200.252 70.26,199.496 C 70.008,198.632 71.052,197.228 71.052,196.688 C 70.908,196.076 70.188,195.536 69.72,196.04 C 69.216,196.4 67.74,198.128 67.92,199.136 C 67.956,200.072 69.36,201.26 70.188,201.728 C 70.872,202.052 72.24,201.583 72.348,201.296 z "
       style="fill-rule:evenodd;stroke:#000000;stroke-width:0.036;stroke-miterlimit:10"
       id="path185" />
    <path
       d="M 67.452,183.691 C 67.488,184.303 66.372,184.771 65.976,185.239 C 65.616,185.707 64.788,186.031 65.22,186.535 C 65.724,187.039 68.532,187.759 68.784,188.155 C 69.036,188.587 67.632,189.163 66.768,188.947 C 65.868,188.731 63.744,187.939 63.564,186.895 C 63.456,185.887 64.932,183.691 65.904,182.863 C 66.876,182.072 67.452,183.116 67.452,183.691 z "
       style="fill:#ffffff;fill-rule:evenodd"
       id="path187" />
    <path
       d="M 69.108,187.939 C 69.072,187.543 67.308,187.003 67.164,186.319 C 66.912,185.455 67.956,184.375 67.92,183.763 C 67.74,183.151 67.128,182.755 66.66,183.151 C 66.048,183.583 65.004,184.987 65.04,185.995 C 65.04,186.823 66.372,187.975 67.092,188.335 C 67.812,188.66 69,188.156 69.108,187.939 z "
       style="fill-rule:evenodd;stroke:#000000;stroke-width:0.036;stroke-miterlimit:10"
       id="path189" />
    <path
       d="M 64.788,167.312 C 64.824,168.032 63.384,168.608 62.916,169.22 C 62.448,169.832 61.404,170.228 61.98,170.84 C 62.592,171.452 66.12,172.388 66.444,172.892 C 66.732,173.396 65.004,174.116 63.888,173.864 C 62.808,173.576 60.108,172.604 59.928,171.308 C 59.748,170.048 61.584,167.276 62.808,166.268 C 64.032,165.26 64.752,166.556 64.788,167.312 z "
       style="fill:#ffffff;fill-rule:evenodd"
       id="path191" />
    <path
       d="M 66.804,172.604 C 66.732,172.172 64.644,171.308 64.428,170.552 C 64.176,169.652 65.364,167.996 65.364,167.384 C 65.148,166.628 64.392,166.196 63.78,166.628 C 63.096,167.096 61.728,168.968 61.764,170.156 C 61.836,171.272 63.384,172.532 64.32,173.108 C 65.184,173.396 66.66,173.036 66.804,172.604 z "
       style="fill-rule:evenodd;stroke:#000000;stroke-width:0.036;stroke-miterlimit:10"
       id="path193" />
    <path
       d="M 43.008,161.66 C 41.208,163.172 39.696,164.216 38.472,164.792 C 37.14,165.368 36.24,164.324 35.484,165.152 C 34.62,165.908 33.576,168.068 33.72,169.148 C 33.792,169.976 35.484,170.84 36.42,170.768 C 37.248,170.624 38.616,169.4 39.156,168.644 C 39.588,167.816 38.832,166.916 39.516,166.088 C 40.128,165.152 41.316,164.432 43.08,163.532 C 43.08,162.92 43.044,162.308 43.008,161.66 z "
       style="fill:#ffffff;fill-opacity:1;fill-rule:evenodd;stroke:#000000;stroke-width:0.036;stroke-miterlimit:10"
       id="path195" />
    <path
       d="M 48.876,183.764 L 44.196,186.5 C 42.972,184.16 42.072,182.648 41.1,181.82 C 40.092,180.92 39.084,180.668 38.652,181.64 C 38.184,182.612 38.04,185.492 38.652,187.508 C 39.192,189.452 40.992,192.008 41.964,193.232 C 42.72,194.348 43.188,194.924 43.764,194.42 C 44.232,193.808 44.808,192.296 45.204,189.74 L 49.812,186.572 C 49.524,185.636 49.2,184.7 48.876,183.764 z "
       style="fill:#ffffff;fill-opacity:1;fill-rule:evenodd;stroke:#000000;stroke-width:0.036;stroke-miterlimit:10"
       id="path197" />
    <path
       d="M 43.584,195.932 C 43.152,198.056 42.864,199.784 43.008,201.404 C 42.936,202.916 43.548,204.14 44.016,205.22 C 44.484,206.228 45.132,207.056 45.96,207.704 C 45.996,209.252 46.32,210.908 47.076,212.528 C 47.832,214.148 49.02,216.668 50.208,217.568 C 51.252,218.396 52.728,217.928 53.376,217.568 C 53.88,217.172 54.06,216.164 53.628,214.94 L 57.552,213.644 L 57.12,211.34 L 53.196,212.636 C 52.98,210.908 52.728,209.612 52.44,208.46 C 52.08,207.344 51.792,206.516 51.432,205.976 L 55.32,204.716 L 54.744,202.664 L 50.496,204.212 C 50.316,202.232 50.244,200.792 49.884,199.604 C 49.488,198.488 49.2,197.624 48.624,197.3 L 52.944,196.04 L 52.44,193.808 L 47.328,195.788 C 46.752,195.284 46.104,195.104 45.528,195.104 C 44.844,195.104 44.196,195.428 43.584,195.932 z "
       style="fill:#ffffff;fill-opacity:1;fill-rule:evenodd;stroke:#000000;stroke-width:0.036;stroke-miterlimit:10"
       id="path199" />
    <path
       d="M 86.496,218.504 L 74.724,184.196 C 75.984,183.548 76.524,182.72 76.344,182 C 76.128,181.136 75.084,180.38 73.356,179.444 L 70.656,171.956 C 70.224,173 69.828,173.9 69.612,174.512 C 69.288,175.088 69.144,175.376 69.036,175.52 L 85.272,220.556 C 85.668,219.872 86.064,219.188 86.496,218.504 z "
       style="fill:#ffffff;fill-opacity:1;fill-rule:evenodd;stroke:#000000;stroke-width:0.036;stroke-miterlimit:10"
       id="path201" />
    <path
       d="M 73.104,160.724 C 71.988,156.224 70.764,151.4 69.288,145.856 C 67.74,140.24 65.4,132.176 64.356,127.892 C 63.384,123.716 63.708,122.132 63.24,120.656 C 62.592,119.036 62.232,118.892 61.044,118.28 C 59.748,117.56 56.94,116.372 56.112,116.66 C 55.248,117.02 55.356,118.568 56.004,120.044 C 56.544,121.34 58.38,122.6 59.424,124.652 C 60.396,126.524 59.64,125.948 61.728,131.96 C 63.672,138.008 66.84,147.584 71.232,160.832 C 71.844,160.796 72.456,160.76 73.104,160.724 z "
       style="fill:#ffffff;fill-opacity:1;fill-rule:evenodd;stroke:#000000;stroke-width:0.036;stroke-miterlimit:10"
       id="path203" />
    <path
       d="M 56.508,164.144 L 53.952,153.74 C 54.456,154.064 54.996,153.884 55.572,153.488 C 56.112,152.948 56.58,152.192 57.12,150.932 C 58.92,151.328 60.072,150.932 61.116,149.744 C 61.98,148.556 62.952,145.28 62.664,143.804 C 62.268,142.256 60.684,140.708 59.316,140.564 C 57.876,140.276 55.536,141.428 54.24,142.364 C 52.8,143.228 51.9,144.344 51.144,145.856 C 49.488,145.46 48.228,145.64 47.508,146.54 C 46.716,147.332 45.924,149.492 46.644,150.932 C 47.256,152.264 48.768,153.596 51.324,154.784 L 54.888,166.088 C 55.428,165.439 55.968,164.792 56.508,164.144 z "
       style="fill:#ffffff;fill-opacity:1;fill-rule:evenodd;stroke:#000000;stroke-width:0.036;stroke-miterlimit:10"
       id="path205" />
    <path
       d="M 30.372,146.468 L 24.504,122.816 C 24.144,123.788 23.64,123.932 23.136,123.392 C 22.632,122.708 21.48,120.836 21.336,119.324 C 21.048,117.74 20.688,115.436 21.624,114.356 C 22.488,113.204 25.62,112.304 26.7,112.772 C 27.636,113.132 27.528,115.184 27.492,116.84 C 27.492,118.352 26.988,120.116 26.376,122.132 C 28.032,120.908 30.3,119.72 33.18,118.964 C 36.096,118.172 39.444,117.416 43.656,117.092 C 44.844,115.184 46.032,114.464 47.652,114.644 C 49.128,114.86 51.576,116.948 52.764,118.388 C 53.916,119.792 54.78,121.916 54.384,122.96 C 53.808,123.932 51.216,124.508 49.524,124.004 C 47.688,123.356 45.852,121.844 43.728,119.324 C 39.984,119.792 36.708,120.548 34.044,121.592 C 31.308,122.564 29.04,123.86 27.384,125.336 L 33.432,145.604 C 32.424,145.892 31.416,146.18 30.372,146.468 z "
       style="fill:#ffffff;fill-opacity:1;fill-rule:evenodd;stroke:#000000;stroke-width:0.036;stroke-miterlimit:10"
       id="path207" />
    <path
       d="M 35.484,77.456 L 42.036,97.04 L 47.148,94.304 L 40.416,76.52 L 38.616,76.772 L 44.484,93.8 L 43.224,94.484 L 36.996,77.132 L 35.484,77.456 z "
       style="fill:#ffffff;fill-opacity:1;fill-rule:evenodd;stroke:#000000;stroke-width:0.036;stroke-miterlimit:10"
       id="path209" />
    <path
       d="M 55.752,115.04 L 42.468,71.804 C 42.36,72.092 42.144,72.164 41.676,71.624 C 41.172,70.976 40.344,69.068 39.732,68.816 C 39.12,68.6 38.472,69.896 37.932,70.364 C 37.32,70.688 36.78,71.336 36.168,71.192 C 35.412,70.94 34.116,69.14 33.684,69.68 C 33.108,70.256 32.964,73.496 33.108,74.684 C 33.252,75.764 33.756,76.232 34.62,76.232 L 41.1,75.8 L 54.708,115.472 C 55.032,115.328 55.392,115.184 55.752,115.04 z "
       style="fill:#ffffff;fill-opacity:1;fill-rule:evenodd;stroke:#000000;stroke-width:0.036;stroke-miterlimit:10"
       id="path211" />
    <path
       d="M 46.968,143.552 C 45.672,142.364 42.288,133.94 41.532,130.628 C 40.74,127.064 41.424,122.384 42.612,123.392 C 43.728,124.58 47.652,133.868 48.408,137.36 C 49.056,140.708 48.12,144.667 46.968,143.552 z "
       style="fill:#ffffff;fill-opacity:1;fill-rule:evenodd;stroke:#000000;stroke-width:0.036;stroke-miterlimit:10"
       id="path213" />
    <path
       d="M 41.604,113.456 C 40.74,109.424 36.24,95.744 33.36,86.996 C 30.3,78.176 25.656,63.632 24.432,61.544 C 23.244,59.564 24.468,67.88 26.448,74.828 C 28.428,81.596 33.684,96.212 35.808,102.152 C 37.788,108.02 36.96,107.984 38.04,109.965 C 38.976,111.872 42.288,117.2 41.604,113.456 z "
       style="fill:#ffffff;fill-opacity:1;fill-rule:evenodd;stroke:#000000;stroke-width:0.036;stroke-miterlimit:10"
       id="path215" />
    <path
       d="M 33.36,66.296 C 33.648,65.468 33.72,64.567 33.18,63.596 C 32.676,62.516 31.344,60.716 30.444,60.284 C 29.472,59.816 27.888,60.212 27.636,61.04 C 27.168,61.832 27.42,63.308 28.248,64.784 C 29.04,66.152 30.516,67.736 32.676,69.392 C 33,68.6 33.252,68.06 33.432,67.916 C 33.612,67.7 33.648,67.736 33.684,68.168 C 33.576,67.556 33.468,66.944 33.36,66.296 z "
       style="fill:#ffffff;fill-opacity:1;fill-rule:evenodd;stroke:#000000;stroke-width:0.036;stroke-miterlimit:10"
       id="path217" />
    <path
       d="M 17.664,51.68 C 17.376,50.96 22.236,50.888 24.324,51.32 C 26.232,51.716 29.148,52.616 29.58,53.876 C 29.868,55.028 28.716,57.08 26.952,58.232 C 25.116,59.24 19.536,60.536 19.356,60.176 C 19.176,59.708 26.448,56.936 26.196,55.604 C 25.8,54.128 17.952,52.364 17.664,51.68 z "
       style="fill:#ffffff;fill-opacity:1;fill-rule:evenodd;stroke:#000000;stroke-width:0.036;stroke-miterlimit:10"
       id="path219" />
    <path
       d="M 14.676,45.956 L 11.04,36.524 L 16.476,35.084 L 18.348,45.2 L 14.676,45.956 z "
       style="fill:#ffffff;fill-opacity:1;fill-rule:evenodd;stroke:#000000;stroke-width:0.036;stroke-miterlimit:10"
       id="path221" />
    <path
       d="M 12.228,35.516 L 7.296,20.359 L 11.544,19.495 L 14.532,35.011 L 12.228,35.516 z "
       style="fill:#ffffff;fill-opacity:1;fill-rule:evenodd;stroke:#000000;stroke-width:0.036;stroke-miterlimit:10"
       id="path223" />
    <path
       d="M 7.044,19.64 L 0.636,0.92 L 2.436,0.92 C 3.372,4.088 3.912,5.672 4.056,5.672 C 4.164,5.636 3.876,4.016 3.192,0.812 L 5.064,0.812 L 6.504,7.724 L 5.676,0.74 C 6.144,0.704 6.612,0.632 7.116,0.56 L 7.368,1.424 L 11.04,18.776 L 6.936,19.532 L 7.044,19.64 z "
       style="fill:#ffffff;fill-opacity:1;fill-rule:evenodd;stroke:#000000;stroke-width:0.036;stroke-miterlimit:10"
       id="path225" />
  </g>
</svg>
