<?xml version="1.0" encoding="UTF-8" standalone="no"?>
<!-- Created with Inkscape (http://www.inkscape.org/) -->
<svg
   xmlns:dc="http://purl.org/dc/elements/1.1/"
   xmlns:cc="http://web.resource.org/cc/"
   xmlns:rdf="http://www.w3.org/1999/02/22-rdf-syntax-ns#"
   xmlns:svg="http://www.w3.org/2000/svg"
   xmlns="http://www.w3.org/2000/svg"
   xmlns:sodipodi="http://sodipodi.sourceforge.net/DTD/sodipodi-0.dtd"
   xmlns:inkscape="http://www.inkscape.org/namespaces/inkscape"
   width="49.539196"
   height="496.49554"
   id="svg2"
   sodipodi:version="0.32"
   inkscape:version="0.44+devel"
   version="1.0"
   sodipodi:docbase="C:\Documents and Settings\James\                  "
   sodipodi:docname="recorder.svg"
   inkscape:output_extension="org.inkscape.output.svg.inkscape">
  <defs
     id="defs4" />
  <sodipodi:namedview
     id="base"
     pagecolor="#ffffff"
     bordercolor="#666666"
     borderopacity="1.0"
     gridtolerance="10000"
     guidetolerance="10"
     objecttolerance="10"
     inkscape:pageopacity="0.0"
     inkscape:pageshadow="2"
     inkscape:zoom="0.88516892"
     inkscape:cx="91.430537"
     inkscape:cy="326.90995"
     inkscape:document-units="px"
     inkscape:current-layer="layer1"
     inkscape:window-width="1152"
     inkscape:window-height="841"
     inkscape:window-x="-4"
     inkscape:window-y="-4" />
  <metadata
     id="metadata7">
    <rdf:RDF>
      <cc:Work
         rdf:about="">
        <dc:format>image/svg+xml</dc:format>
        <dc:type
           rdf:resource="http://purl.org/dc/dcmitype/StillImage" />
      </cc:Work>
    </rdf:RDF>
  </metadata>
  <g
     inkscape:label="Layer 1"
     inkscape:groupmode="layer"
     id="layer1"
     transform="translate(-286.61507,-243.23069)">
    <path
       style="fill:#803300;fill-opacity:1;fill-rule:nonzero;stroke:#000000;stroke-width:1;stroke-linecap:round;stroke-miterlimit:4;stroke-dashoffset:0;stroke-opacity:1.0"
       d="M 296.11323,675.51925 C 306.50475,678.6776 316.65185,678.16982 326.65611,675.51925 L 324.67437,647.35772 L 298.09497,647.35772 L 296.11323,675.51925 z"
       id="path2261" />
    <path
       style="fill:#803300;fill-opacity:1;fill-rule:nonzero;stroke:#000000;stroke-width:1;stroke-linecap:round;stroke-miterlimit:4;stroke-dashoffset:0;stroke-opacity:1.0"
       d="M 298.51218,637.86624 C 307.48412,645.47676 315.99095,644.01751 324.25716,637.86624 L 326.3432,444.69903 L 296.42614,444.69903 L 298.51218,637.86624 z"
       id="path2259" />
    <path
       style="fill:#803300;fill-opacity:1;fill-rule:nonzero;stroke:#000000;stroke-width:1;stroke-linecap:round;stroke-miterlimit:4;stroke-dashoffset:0;stroke-opacity:1.0"
       d="M 329.88947,409.86218 C 329.88947,409.86218 328.22064,377.31997 328.22064,358.96283 C 328.22064,340.60569 328.22064,318.91088 333.22713,311.40114 C 338.23362,303.8914 284.53572,303.8914 289.54221,311.40114 C 294.5487,318.91088 294.5487,340.60569 294.5487,358.96283 C 294.5487,377.31997 292.87987,409.86218 292.87987,409.86218"
       id="path2257" />
    <path
       style="fill:#ffe6d5;fill-opacity:1;fill-rule:nonzero;stroke:#000000;stroke-width:1;stroke-linecap:round;stroke-miterlimit:4;stroke-dashoffset:0;stroke-opacity:1.0"
       d="M 331.5583,301.38816 C 335.76,279.16107 338.53634,260.83737 326.55181,244.23069 L 296.21753,244.23069 C 284.233,260.83737 287.00934,279.16107 291.21104,301.38816"
       id="path2255" />
    <path
       style="fill:#803300;fill-opacity:1;fill-rule:nonzero;stroke:#000000;stroke-width:1;stroke-linecap:round;stroke-miterlimit:4;stroke-dashoffset:0;stroke-opacity:1.0"
       d="M 293.71429,435.72907 C 301.22403,444.07323 321.54531,444.07323 329.05505,435.72907 C 336.56479,427.38491 334.89596,415.70309 331.5583,411.53101 C 328.22064,407.35893 294.5487,407.35893 291.21104,411.53101 C 287.87338,415.70309 286.20455,427.38491 293.71429,435.72907 z"
       id="path2253" />
    <path
       style="fill:#803300;fill-opacity:1;fill-rule:nonzero;stroke:#000000;stroke-width:1;stroke-linecap:round;stroke-miterlimit:4;stroke-dashoffset:0;stroke-opacity:1.0"
       d="M 301.64123,685.32363 C 301.64123,681.98915 321.12811,681.98915 321.12811,685.32363 C 321.12811,688.65811 323.42186,687.27062 323.63135,690.43442 C 323.84547,693.66803 320.67727,696.27438 320.7109,701.38613 C 320.8152,717.03142 333.33143,726.10569 333.22713,730.69497 C 333.09376,736.43003 318.85384,738.72622 311.38467,738.72622 C 304.24878,738.72622 289.67558,736.43003 289.54221,730.69497 C 289.43791,726.10569 301.95414,717.03142 302.05844,701.38613 C 302.09207,696.27438 298.92387,693.66803 299.13799,690.43442 C 299.34748,687.27062 301.64123,688.65811 301.64123,685.32363 z"
       id="path2170" />
    <path
       style="fill:#ffe6d5;fill-opacity:1;fill-rule:nonzero;stroke:#000000;stroke-width:1;stroke-linecap:round;stroke-miterlimit:4;stroke-dashoffset:0;stroke-opacity:1.0"
       d="M 293.91689,301.57309 L 329.18122,301.57309 C 331.93838,301.57309 334.15804,303.79275 334.15804,306.54991 C 334.15804,309.30707 333.72472,311.62597 330.96756,311.62597 L 291.5351,311.62597 C 288.77794,311.62597 288.94006,309.30707 288.94006,306.54991 C 288.94006,303.79275 291.15973,301.57309 293.91689,301.57309 z"
       id="rect2196"
       sodipodi:nodetypes="ccsccsc"
       transform="translate(-0.1634825,0)" />
    <rect
       style="opacity:1;fill:#ffe6d5;fill-opacity:1;fill-rule:nonzero;stroke:#000000;stroke-width:1;stroke-linecap:round;stroke-miterlimit:4;stroke-dasharray:none;stroke-dashoffset:0;stroke-opacity:1.0"
       id="rect2198"
       width="41.236523"
       height="6.8253555"
       x="290.93079"
       y="407.36609"
       ry="3.4126778"
       transform="translate(-0.1643775,0)" />
    <path
       style="fill:#ffe6d5;fill-opacity:1;fill-rule:nonzero;stroke:#000000;stroke-width:1;stroke-linecap:round;stroke-miterlimit:4;stroke-dashoffset:0;stroke-opacity:1.0"
       d="M 295.7654,434.38312 C 306.59522,437.19849 316.97623,436.87219 327.04828,434.38312 C 328.9389,434.38312 330.46096,435.90517 330.46096,437.7958 L 330.46096,441.77725 C 330.46096,443.66788 328.9389,445.18993 327.04828,445.18993 C 317.04376,447.30546 306.52602,446.8549 295.7654,445.18993 C 293.87478,445.18993 292.35272,443.66788 292.35272,441.77725 L 292.35272,437.7958 C 292.35272,435.90517 293.87478,434.38312 295.7654,434.38312 z"
       id="rect2200"
       sodipodi:nodetypes="ccccccccc"
       transform="translate(-2.217e-2,0)" />
    <path
       style="fill:#ffe6d5;fill-opacity:1;fill-rule:nonzero;stroke:#000000;stroke-width:1;stroke-linecap:round;stroke-miterlimit:4;stroke-dashoffset:0;stroke-opacity:1.0"
       d="M 299.46248,637.43744 C 307.14101,639.80774 314.81953,639.6157 322.49806,637.43744 C 324.38868,637.43744 325.91073,638.95949 325.91073,640.85012 L 325.91073,644.54718 C 325.91073,646.43781 324.38868,647.95986 322.49806,647.95986 C 314.39569,649.65523 306.80883,649.28857 299.46248,647.95986 C 297.57186,647.95986 296.0498,646.43781 296.0498,644.54718 L 296.0498,640.85012 C 296.0498,638.95949 297.57186,637.43744 299.46248,637.43744 z"
       id="rect2203"
       sodipodi:nodetypes="ccccccccc"
       transform="translate(0.404405,0)" />
    <path
       style="fill:#ffe6d5;fill-opacity:1;fill-rule:nonzero;stroke:#000000;stroke-width:1;stroke-linecap:round;stroke-miterlimit:4;stroke-dashoffset:0;stroke-opacity:1.0"
       d="M 298.6093,674.6925 C 307.23579,677.00851 314.72473,677.26035 324.48878,674.6925 C 326.3794,674.6925 327.90145,676.21456 327.90145,678.10518 L 327.90145,680.94908 C 327.90145,682.8397 326.3794,684.36176 324.48878,684.36176 C 315.86229,686.2885 307.23579,685.41176 298.6093,684.36176 C 296.71868,684.36176 295.19662,682.8397 295.19662,680.94908 L 295.19662,678.10518 C 295.19662,676.21456 296.71868,674.6925 298.6093,674.6925 z"
       id="rect2206"
       sodipodi:nodetypes="ccccccccc"
       transform="translate(-0.164365,0)" />
    <path
       style="fill:#2b1100;fill-opacity:1;fill-rule:nonzero;stroke:#000000;stroke-width:1;stroke-linecap:round;stroke-miterlimit:4;stroke-dashoffset:0;stroke-opacity:1.0"
       d="M 304.44419,319.8958 C 304.60644,318.17715 304.66895,316.50511 304.50526,314.93939 L 304.50525,314.93939 L 317.58719,314.93939 C 317.60003,316.69462 317.83733,318.57971 318.14063,320.5096"
       id="path2249" />
    <path
       style="fill:#ffe6d5;fill-opacity:1;fill-rule:nonzero;stroke:#000000;stroke-width:1;stroke-linecap:round;stroke-miterlimit:4;stroke-dashoffset:0;stroke-opacity:1.0"
       d="M 318.03472,319.90943 C 319.2346,327.54427 321.57332,336.48035 315.02769,340.25008 L 307.34915,340.25009 C 301.06601,335.98418 303.69237,327.45015 304.40889,319.8605"
       id="rect2209"
       sodipodi:nodetypes="cccc" />
    <path
       sodipodi:type="arc"
       style="opacity:1;fill:#2b1100;fill-opacity:1;fill-rule:nonzero;stroke:#000000;stroke-width:1;stroke-linecap:round;stroke-miterlimit:4;stroke-dasharray:none;stroke-dashoffset:0;stroke-opacity:1.0"
       id="path2214"
       sodipodi:cx="310.83807"
       sodipodi:cy="465.95038"
       sodipodi:rx="6.2565761"
       sodipodi:ry="6.2565761"
       d="M 317.09465,465.95038 A 6.2565761,6.2565761 0 1 1 304.5815,465.95038 A 6.2565761,6.2565761 0 1 1 317.09465,465.95038 z"
       transform="translate(0.5465963,0)" />
    <path
       sodipodi:type="arc"
       style="opacity:1;fill:#2b1100;fill-opacity:1;fill-rule:nonzero;stroke:#000000;stroke-width:1;stroke-linecap:round;stroke-miterlimit:4;stroke-dasharray:none;stroke-dashoffset:0;stroke-opacity:1.0"
       id="path2218"
       sodipodi:cx="310.83807"
       sodipodi:cy="465.95038"
       sodipodi:rx="6.2565761"
       sodipodi:ry="6.2565761"
       d="M 317.09465,465.95038 A 6.2565761,6.2565761 0 1 1 304.5815,465.95038 A 6.2565761,6.2565761 0 1 1 317.09465,465.95038 z"
       transform="translate(0.5465963,34.695557)" />
    <path
       transform="translate(0.5465963,71.950622)"
       sodipodi:type="arc"
       style="opacity:1;fill:#2b1100;fill-opacity:1;fill-rule:nonzero;stroke:#000000;stroke-width:1;stroke-linecap:round;stroke-miterlimit:4;stroke-dasharray:none;stroke-dashoffset:0;stroke-opacity:1.0"
       id="path2220"
       sodipodi:cx="310.83807"
       sodipodi:cy="465.95038"
       sodipodi:rx="6.2565761"
       sodipodi:ry="6.2565761"
       d="M 317.09465,465.95038 A 6.2565761,6.2565761 0 1 1 304.5815,465.95038 A 6.2565761,6.2565761 0 1 1 317.09465,465.95038 z" />
    <path
       transform="matrix(0.6608021,0,0,0.6608021,105.98223,260.71413)"
       sodipodi:type="arc"
       style="opacity:1;fill:#2b1100;fill-opacity:1;fill-rule:nonzero;stroke:#000000;stroke-width:1.51331238;stroke-linecap:round;stroke-miterlimit:4;stroke-dasharray:none;stroke-dashoffset:0;stroke-opacity:1.0"
       id="path2222"
       sodipodi:cx="310.83807"
       sodipodi:cy="465.95038"
       sodipodi:rx="6.2565761"
       sodipodi:ry="6.2565761"
       d="M 317.09465,465.95038 A 6.2565761,6.2565761 0 1 1 304.5815,465.95038 A 6.2565761,6.2565761 0 1 1 317.09465,465.95038 z" />
    <path
       transform="translate(0.5465963,136.50711)"
       sodipodi:type="arc"
       style="opacity:1;fill:#2b1100;fill-opacity:1;fill-rule:nonzero;stroke:#000000;stroke-width:1;stroke-linecap:round;stroke-miterlimit:4;stroke-dasharray:none;stroke-dashoffset:0;stroke-opacity:1.0"
       id="path2224"
       sodipodi:cx="310.83807"
       sodipodi:cy="465.95038"
       sodipodi:rx="6.2565761"
       sodipodi:ry="6.2565761"
       d="M 317.09465,465.95038 A 6.2565761,6.2565761 0 1 1 304.5815,465.95038 A 6.2565761,6.2565761 0 1 1 317.09465,465.95038 z" />
    <g
       id="g2233"
       transform="translate(0.6888054,0)"
       style="fill:#2b1100;fill-opacity:1;stroke:#000000;stroke-width:1;stroke-opacity:1.0">
      <path
         transform="matrix(0.5681818,0,0,0.5681818,130.10187,363.73462)"
         sodipodi:type="arc"
         style="opacity:1;fill:#2b1100;fill-opacity:1;fill-rule:nonzero;stroke:#000000;stroke-width:1.76000006;stroke-linecap:round;stroke-miterlimit:4;stroke-dasharray:none;stroke-dashoffset:0;stroke-opacity:1.0"
         id="path2216"
         sodipodi:cx="310.83807"
         sodipodi:cy="465.95038"
         sodipodi:rx="6.2565761"
         sodipodi:ry="6.2565761"
         d="M 317.09465,465.95038 A 6.2565761,6.2565761 0 1 1 304.5815,465.95038 A 6.2565761,6.2565761 0 1 1 317.09465,465.95038 z" />
      <path
         d="M 317.09465,465.95038 A 6.2565761,6.2565761 0 1 1 304.5815,465.95038 A 6.2565761,6.2565761 0 1 1 317.09465,465.95038 z"
         sodipodi:ry="6.2565761"
         sodipodi:rx="6.2565761"
         sodipodi:cy="465.95038"
         sodipodi:cx="310.83807"
         id="path2228"
         style="opacity:1;fill:#2b1100;fill-opacity:1;fill-rule:nonzero;stroke:#000000;stroke-width:2.4444445;stroke-linecap:round;stroke-miterlimit:4;stroke-dasharray:none;stroke-dashoffset:0;stroke-opacity:1.0"
         sodipodi:type="arc"
         transform="matrix(0.4090909,0,0,0.4090909,188.51166,439.14284)" />
    </g>
    <g
       id="g2237"
       transform="matrix(0.8469623,0,0,1,44.828387,0)"
       style="fill:#2b1100;fill-opacity:1;stroke:#000000;stroke-width:1.08659565;stroke-opacity:1.0">
      <path
         d="M 317.09465,465.95038 A 6.2565761,6.2565761 0 1 1 304.5815,465.95038 A 6.2565761,6.2565761 0 1 1 317.09465,465.95038 z"
         sodipodi:ry="6.2565761"
         sodipodi:rx="6.2565761"
         sodipodi:cy="465.95038"
         sodipodi:cx="310.83807"
         id="path2226"
         style="opacity:1;fill:#2b1100;fill-opacity:1;fill-rule:nonzero;stroke:#000000;stroke-width:1.9124084;stroke-linecap:round;stroke-miterlimit:4;stroke-dasharray:none;stroke-dashoffset:0;stroke-opacity:1.0"
         sodipodi:type="arc"
         transform="matrix(0.5681818,0,0,0.5681818,128.96431,396.72384)" />
      <path
         d="M 317.09465,465.95038 A 6.2565761,6.2565761 0 1 1 304.5815,465.95038 A 6.2565761,6.2565761 0 1 1 317.09465,465.95038 z"
         sodipodi:ry="6.2565761"
         sodipodi:rx="6.2565761"
         sodipodi:cy="465.95038"
         sodipodi:cx="310.83807"
         id="path2230"
         style="opacity:1;fill:#2b1100;fill-opacity:1;fill-rule:nonzero;stroke:#000000;stroke-width:2.4758024;stroke-linecap:round;stroke-miterlimit:4;stroke-dasharray:none;stroke-dashoffset:0;stroke-opacity:1.0"
         sodipodi:type="arc"
         transform="matrix(0.4708517,0,0,0.4090909,168.84731,472.13208)" />
    </g>
  </g>
</svg>
