<?xml version="1.0" encoding="UTF-8" standalone="no"?>
<!-- Created with Inkscape (http://www.inkscape.org/) -->

<svg
   xmlns:dc="http://purl.org/dc/elements/1.1/"
   xmlns:cc="http://creativecommons.org/ns#"
   xmlns:rdf="http://www.w3.org/1999/02/22-rdf-syntax-ns#"
   xmlns:svg="http://www.w3.org/2000/svg"
   xmlns="http://www.w3.org/2000/svg"
   xmlns:xlink="http://www.w3.org/1999/xlink"
   xmlns:sodipodi="http://sodipodi.sourceforge.net/DTD/sodipodi-0.dtd"
   xmlns:inkscape="http://www.inkscape.org/namespaces/inkscape"
   height="128.00056"
   id="svg1"
   inkscape:version="0.92.2 (5c3e80d, 2017-08-06)"
   sodipodi:docname="dolphin.svg"
   sodipodi:version="0.32"
   width="128.00056"
   version="1.1">
  <metadata
     id="metadata2">
    <rdf:RDF>
      <cc:Work
         rdf:about="">
        <dc:title></dc:title>
        <dc:description />
        <dc:subject>
          <rdf:Bag>
            <rdf:li>mammal</rdf:li>
            <rdf:li />
            <rdf:li>animal</rdf:li>
            <rdf:li>fish</rdf:li>
          </rdf:Bag>
        </dc:subject>
        <dc:publisher>
          <cc:Agent
             rdf:about="http://www.openclipart.org">
            <dc:title>Andy Fitzsimon</dc:title>
          </cc:Agent>
        </dc:publisher>
        <dc:creator>
          <cc:Agent>
            <dc:title>Andy Fitzsimon</dc:title>
          </cc:Agent>
        </dc:creator>
        <dc:rights>
          <cc:Agent>
            <dc:title>Andy Fitzsimon</dc:title>
          </cc:Agent>
        </dc:rights>
        <dc:date />
        <dc:format>image/svg+xml</dc:format>
        <dc:type
           rdf:resource="http://purl.org/dc/dcmitype/StillImage" />
        <cc:license
           rdf:resource="http://creativecommons.org/publicdomain/zero/1.0/" />
        <dc:language>en</dc:language>
      </cc:Work>
      <cc:License
         rdf:about="http://creativecommons.org/publicdomain/zero/1.0/">
        <cc:permits
           rdf:resource="http://creativecommons.org/ns#Reproduction" />
        <cc:permits
           rdf:resource="http://creativecommons.org/ns#Distribution" />
        <cc:permits
           rdf:resource="http://creativecommons.org/ns#DerivativeWorks" />
      </cc:License>
    </rdf:RDF>
  </metadata>
  <defs
     id="defs3">
    <linearGradient
       id="linearGradient871">
      <stop
         id="stop872"
         offset="0.00000000"
         style="stop-color:#ffffff;stop-opacity:0.00000000;" />
      <stop
         id="stop873"
         offset="0.25000000"
         style="stop-color:#ffffff;stop-opacity:0.00000000;" />
      <stop
         id="stop875"
         offset="1.0000000"
         style="stop-color:#ffffff;stop-opacity:1.0000000;" />
    </linearGradient>
    <linearGradient
       id="linearGradient863">
      <stop
         id="stop864"
         offset="0.00000000"
         style="stop-color:#3d3d3d;stop-opacity:0.00000000;" />
      <stop
         id="stop867"
         offset="0.25000000"
         style="stop-color:#626262;stop-opacity:1.0000000;" />
      <stop
         id="stop866"
         offset="0.67310077"
         style="stop-color:#575757;stop-opacity:1.0000000;" />
      <stop
         id="stop865"
         offset="1.0000000"
         style="stop-color:#222222;stop-opacity:1.0000000;" />
    </linearGradient>
    <linearGradient
       id="linearGradient849">
      <stop
         id="stop850"
         offset="0.00000000"
         style="stop-color:#000000;stop-opacity:0.00000000;" />
      <stop
         id="stop851"
         offset="1.0000000"
         style="stop-color:#000000;stop-opacity:0.68750000;" />
    </linearGradient>
    <linearGradient
       id="linearGradient843">
      <stop
         id="stop844"
         offset="0.00000000"
         style="stop-color:#ffffff;stop-opacity:0.00000000;" />
      <stop
         id="stop845"
         offset="1.0000000"
         style="stop-color:#ffffff;stop-opacity:0.62500000;" />
    </linearGradient>
    <linearGradient
       id="linearGradient838">
      <stop
         id="stop839"
         offset="0.00000000"
         style="stop-color:#000000;stop-opacity:1.0000000;" />
      <stop
         id="stop868"
         offset="0.29868218"
         style="stop-color:#656565;stop-opacity:1.0000000;" />
      <stop
         id="stop840"
         offset="1.0000000"
         style="stop-color:#000000;stop-opacity:1.0000000;" />
    </linearGradient>
    <linearGradient
       id="linearGradient841"
       x1="59.754772"
       x2="73.763008"
       xlink:href="#linearGradient838"
       y1="-42.001186"
       y2="285.71637"
       gradientTransform="scale(1.2799655,0.78127108)"
       gradientUnits="userSpaceOnUse" />
    <linearGradient
       id="linearGradient842"
       x1="45.62088"
       x2="-62.600243"
       xlink:href="#linearGradient843"
       y1="175.91933"
       y2="157.71582"
       gradientTransform="scale(1.8462657,0.54163386)"
       gradientUnits="userSpaceOnUse" />
    <linearGradient
       id="linearGradient846"
       x1="21.57963"
       x2="105.9315"
       xlink:href="#linearGradient843"
       y1="55.661335"
       y2="117.69579"
       gradientTransform="scale(1.1450546,0.87332083)"
       gradientUnits="userSpaceOnUse" />
    <linearGradient
       id="linearGradient848"
       x1="4.3352041"
       x2="6.6167293"
       xlink:href="#linearGradient849"
       y1="55.991253"
       y2="58.473469"
       gradientTransform="scale(0.96477607,1.03651)"
       gradientUnits="userSpaceOnUse" />
    <linearGradient
       id="linearGradient852"
       x1="14.340255"
       x2="-3.122076"
       xlink:href="#linearGradient843"
       y1="53.410858"
       y2="62.753025"
       gradientTransform="scale(0.94531765,1.0578455)"
       gradientUnits="userSpaceOnUse" />
    <linearGradient
       id="linearGradient853"
       x1="-3.0423021"
       x2="-5.8153644"
       xlink:href="#linearGradient843"
       y1="90.654839"
       y2="122.25315"
       gradientTransform="scale(0.98698435,1.0131873)"
       gradientUnits="userSpaceOnUse" />
    <linearGradient
       id="linearGradient854"
       x1="-10.310557"
       x2="-29.788542"
       xlink:href="#linearGradient843"
       y1="88.203247"
       y2="133.70348"
       gradientTransform="scale(0.97326687,1.0274674)"
       gradientUnits="userSpaceOnUse" />
    <linearGradient
       id="linearGradient856"
       x1="18.033831"
       x2="9.1930199"
       xlink:href="#linearGradient843"
       y1="71.331642"
       y2="79.11554"
       gradientTransform="scale(0.94096477,1.062739)"
       gradientUnits="userSpaceOnUse" />
    <linearGradient
       id="linearGradient858"
       xlink:href="#linearGradient849"
       gradientTransform="scale(0.92198159,1.0846204)"
       x1="10.113566"
       y1="66.612053"
       x2="17.602587"
       y2="66.612053"
       gradientUnits="userSpaceOnUse" />
    <linearGradient
       id="linearGradient859"
       x1="70.492432"
       x2="86.036766"
       xlink:href="#linearGradient871"
       y1="23.057989"
       y2="-19.962605"
       gradientTransform="scale(0.86577456,1.1550351)"
       gradientUnits="userSpaceOnUse" />
    <linearGradient
       id="linearGradient860"
       x1="149.60841"
       x2="168.17224"
       xlink:href="#linearGradient843"
       y1="134.58372"
       y2="134.58372"
       gradientTransform="scale(1.3284338,0.75276613)"
       gradientUnits="userSpaceOnUse" />
    <linearGradient
       id="linearGradient861"
       x1="18.033285"
       x2="39.280598"
       xlink:href="#linearGradient843"
       y1="160.44141"
       y2="160.44141"
       gradientTransform="scale(2.1250346,0.47058057)"
       gradientUnits="userSpaceOnUse" />
    <linearGradient
       id="linearGradient862"
       x1="27.840088"
       x2="50.11684"
       xlink:href="#linearGradient863"
       y1="120.86608"
       y2="133.71698"
       gradientTransform="scale(1.6991598,0.58852616)"
       gradientUnits="userSpaceOnUse" />
    <linearGradient
       id="linearGradient870"
       x1="85.117317"
       x2="115.2844"
       xlink:href="#linearGradient871"
       y1="61.419952"
       y2="35.042332"
       gradientTransform="scale(1.2892894,0.77562107)"
       gradientUnits="userSpaceOnUse" />
    <linearGradient
       id="linearGradient877"
       x1="0.08802817"
       x2="-0.13732395"
       xlink:href="#linearGradient843"
       y1="0.78440368"
       y2="0.78440368" />
  </defs>
  <sodipodi:namedview
     bordercolor="#666666"
     borderopacity="1.0"
     id="base"
     inkscape:cx="69.589634"
     inkscape:cy="-9.7720899"
     inkscape:pageopacity="0.0"
     inkscape:pageshadow="2"
     inkscape:window-height="1025"
     inkscape:window-width="1920"
     inkscape:window-x="-8"
     inkscape:window-y="-8"
     inkscape:zoom="0.99999999"
     pagecolor="#ffffff"
     showborder="true"
     showgrid="false"
     inkscape:window-maximized="1"
     inkscape:current-layer="svg1"
     showguides="true"
     fit-margin-top="0"
     fit-margin-left="0"
     fit-margin-right="0"
     fit-margin-bottom="0"
     units="px" />
  <g
     id="g878"
     transform="matrix(0.52945013,0.03861628,-0.03861628,0.52945013,11.125864,25.314502)">
    <path
       d="m -11.220209,108.88442 c -5.563465,1.75653 2.5703958,-13.443866 2.5703958,-13.443866 0,0 3.562746,-41.73503 30.5378252,-58.530835 26.975079,-16.795804 38.681247,-20.867514 38.681247,-20.867514 0,0 13.17395,-27.24235 21.82634,-26.733386 5.32339,-0.03087 -0.53718,3.1331623 -1.97675,7.9017273 -1.34959,4.858538 -1.13348,14.7599487 2.93823,15.7778757 4.07171,1.017928 10.38653,-1.054098 26.581661,2.544819 17.63469,3.958809 40.7171,21.376476 47.33363,30.537823 6.61653,9.16135 38.68125,46.82467 38.68125,46.82467 25.7875,1.01793 35.16502,23.131706 33.08264,25.957146 -2.08238,3.07992 -0.25448,1.8662 -3.05378,1.01793 -2.7993,-0.84827 -7.25274,-5.8955 -13.74202,-6.10757 -6.74377,-0.21207 -10.73065,-2.37516 -13.74202,-2.03585 -3.13861,0.33931 -2.7993,7.4648 -7.88894,11.8334 -4.96239,4.3686 0.0848,11.74858 -4.32619,13.61478 -4.15654,1.73896 -8.39791,-13.91167 -8.65239,-20.86751 -0.25448,-6.95584 6.95585,-15.35373 8.14343,-18.831646 1.18758,-3.47792 -34.86403,-45.80674 -98.484491,-30.53783 -3.56275,8.65238 -36.77263,15.65063 -36.77263,15.65063 -7.407833,1.19486 9.86907,5.06179 3.35192,6.25664 -14.878447,3.8509 -19.066073,-4.70865 -30.397794,-1.42523 -11.331721,3.28342 -29.1280992,19.707266 -34.691564,21.463796 z"
       id="path826"
       sodipodi:nodetypes="czccczczzczzzzzzzzccczz"
       style="fill:url(#linearGradient841);fill-opacity:1;fill-rule:evenodd;stroke:none;stroke-width:0.25;stroke-linecap:butt;stroke-linejoin:miter;stroke-dasharray:none;stroke-opacity:1"
       inkscape:connector-curvature="0" />
    <path
       d="m 11.156644,84.973234 c 0,0 41.747445,-37.42874 65.140405,-35.98917 23.39296,1.43956 53.983761,0 70.178891,10.07697 16.19512,10.07696 -30.5908,-2.51925 -46.06614,1.79945 -15.475351,4.31871 -69.09922,22.31329 -78.816296,26.63199 -9.717077,4.3187 -16.9149112,3.95881 -10.43686,-2.51924 z"
       id="path837"
       style="fill:url(#linearGradient842);fill-opacity:1;fill-rule:evenodd;stroke:none;stroke-width:0.5;stroke-linecap:butt;stroke-linejoin:miter;stroke-dasharray:none;stroke-opacity:1"
       inkscape:connector-curvature="0" />
    <path
       d="m -4.6785922,82.813884 c 0,0 -2.366424,5.35471 0.872601,5.7146 3.239026,0.35989 7.404908,-4.99482 10.643934,-11.11298 3.2390262,-6.47805 16.1951272,-29.87101 36.7089562,-35.62928 20.51383,-5.758269 34.18971,-7.197834 37.78863,-11.516535 3.59892,-4.318701 2.51924,-10.43686 -16.19513,-8.997293 -18.354476,1.439567 -39.588086,14.755561 -48.225487,23.392958 -8.6374022,8.27751 -15.4753452,18.35448 -21.5935042,38.14853 z"
       id="path833"
       sodipodi:nodetypes="cczzczzc"
       style="fill:url(#linearGradient846);fill-opacity:1;fill-rule:evenodd;stroke:none;stroke-width:0.375;stroke-linecap:butt;stroke-linejoin:miter;stroke-dasharray:none;stroke-opacity:1"
       inkscape:connector-curvature="0" />
    <path
       d="m 61.377229,17.367426 c 2.02895,1.635708 15.76721,-27.2381177 20.31403,-27.0958817 -5.42685,-2.4180053 -22.26965,25.6024077 -20.31403,27.0958817 z"
       id="path827"
       sodipodi:nodetypes="ccz"
       style="fill:url(#linearGradient859);fill-opacity:1;fill-rule:evenodd;stroke:none;stroke-width:0.25;stroke-linecap:butt;stroke-linejoin:miter;stroke-dasharray:none;stroke-opacity:1"
       inkscape:connector-curvature="0" />
    <path
       d="m 9.0366778,55.486894 c -1.081548,-0.89069 -4.962397,1.39965 -6.998252,6.36205 -2.035855,4.96239 7.952559,-5.47136 6.998252,-6.36205 z"
       id="path828"
       sodipodi:nodetypes="ccz"
       style="fill:url(#linearGradient848);fill-opacity:1;fill-rule:evenodd;stroke:none;stroke-width:0.125;stroke-linecap:butt;stroke-linejoin:miter;stroke-dasharray:none;stroke-opacity:1"
       inkscape:connector-curvature="0" />
    <path
       d="m 2.1656668,62.994114 c 0,0 6.728333,-5.06781 6.601091,-7.73987 1.5268922,0.63621 0.906124,3.60454 -1.00249,5.57677 -1.908614,2.09948 -4.707915,3.68999 -5.598601,2.1631 z"
       id="path829"
       sodipodi:nodetypes="cczc"
       style="fill:url(#linearGradient852);fill-opacity:1;fill-rule:evenodd;stroke:none;stroke-width:0.125;stroke-linecap:butt;stroke-linejoin:miter;stroke-dasharray:none;stroke-opacity:1"
       inkscape:connector-curvature="0" />
    <path
       d="m 32.32177,80.171634 26.975079,-16.7958 c 0,0 1.78138,5.5986 7.63446,5.34412 5.85308,-0.25448 21.63096,-5.34412 21.37648,-2.29034 -0.25448,3.05378 -16.28684,17.30477 -33.08265,16.28684 -16.795804,-1.01793 -22.903369,-2.54482 -22.903369,-2.54482 z"
       id="path830"
       style="fill:url(#linearGradient862);fill-opacity:1;fill-rule:evenodd;stroke:none;stroke-width:0.25;stroke-linecap:butt;stroke-linejoin:miter;stroke-dasharray:none;stroke-opacity:1"
       inkscape:connector-curvature="0" />
    <path
       d="m 41.737598,78.008534 c -1.442063,-1.18758 -4.792741,1.44207 -2.7993,1.78138 1.017928,0.50897 31.301271,3.68999 44.534331,-9.28859 -15.01443,5.08964 -16.54132,9.79756 -41.735031,7.50721 z"
       id="path831"
       sodipodi:nodetypes="cccc"
       style="fill:url(#linearGradient861);fill-opacity:1;fill-rule:evenodd;stroke:none;stroke-width:0.25;stroke-linecap:butt;stroke-linejoin:miter;stroke-dasharray:none;stroke-opacity:1"
       inkscape:connector-curvature="0" />
    <path
       d="m 200.15257,94.422624 c -1.10213,-0.46335 -1.92795,0.80648 -1.01793,1.39965 0.99999,0.54818 14.28163,1.8323 24.27105,12.474906 -6.60506,-10.674586 -22.01603,-13.771096 -23.25312,-13.874556 z"
       id="path832"
       sodipodi:nodetypes="czcz"
       style="fill:url(#linearGradient860);fill-opacity:1;fill-rule:evenodd;stroke:none;stroke-width:0.375;stroke-linecap:butt;stroke-linejoin:miter;stroke-dasharray:none;stroke-opacity:1"
       inkscape:connector-curvature="0" />
    <path
       d="m 16.16217,72.664424 c 0,0 -2.035855,-1.52689 -4.326192,1.27241 -2.1630962,2.7993 -3.1810232,4.9624 -2.0358552,6.2348 1.1451682,1.14517 7.1254932,-2.7993 6.3620472,-7.50721 z"
       id="path857"
       sodipodi:nodetypes="czzc"
       style="fill:url(#linearGradient858);fill-opacity:1;fill-rule:evenodd;stroke:none;stroke-width:1.00000003pt;stroke-linecap:butt;stroke-linejoin:miter;stroke-opacity:1"
       inkscape:connector-curvature="0" />
    <path
       d="m 16.375074,72.916854 c 0,0 0.539837,3.59892 -3.05908,5.93822 -3.5989172,2.33929 1.439567,1.07967 1.439567,1.07967 0,0 4.498646,-2.33929 3.958809,-4.3187 -0.539838,-1.9794 -1.619513,-3.59892 -2.339296,-2.69919 z"
       id="path834"
       style="fill:url(#linearGradient856);fill-opacity:1;fill-rule:evenodd;stroke:none;stroke-width:0.375;stroke-linecap:butt;stroke-linejoin:miter;stroke-dasharray:none;stroke-opacity:1"
       inkscape:connector-curvature="0" />
    <path
       d="m -11.194632,103.96569 c -1.145168,0.6362 -1.526891,1.52689 -0.508964,1.78137 1.017928,0.25448 20.4857908,-13.233056 19.8495868,-20.994746 -6.616529,8.14341 -16.923045,17.940966 -19.3406228,19.213376 z"
       id="path835"
       sodipodi:nodetypes="cccc"
       style="fill:url(#linearGradient853);fill-opacity:1;fill-rule:evenodd;stroke:none;stroke-width:0.375;stroke-linecap:butt;stroke-linejoin:miter;stroke-dasharray:none;stroke-opacity:1"
       inkscape:connector-curvature="0" />
    <path
       d="m -10.553816,106.09283 c -1.654132,1.14517 -2.290337,1.65414 -0.763446,2.54482 0.763446,0.89068 23.921297,-15.141666 25.320947,-27.611276 -5.7258422,12.59684 -22.5216462,24.048536 -24.557501,25.066456 z"
       id="path836"
       sodipodi:nodetypes="cccc"
       style="fill:url(#linearGradient854);fill-opacity:1;fill-rule:evenodd;stroke:none;stroke-width:0.375"
       inkscape:connector-curvature="0" />
    <path
       d="m 87.093799,16.593804 c 0,0 39.588091,-2.879134 71.258561,33.82982 31.67047,36.70896 -69.818991,-11.516533 -71.978351,-21.593501 -2.15935,-10.076969 0.71979,-12.236319 0.71979,-12.236319 z"
       id="path869"
       style="fill:url(#linearGradient870);fill-opacity:1;fill-rule:evenodd;stroke:none;stroke-width:1.00000003pt;stroke-linecap:butt;stroke-linejoin:miter;stroke-opacity:1"
       inkscape:connector-curvature="0" />
  </g>
</svg>
