<?xml version="1.0" encoding="UTF-8" standalone="no"?>
<!-- Created with Inkscape (http://www.inkscape.org/) -->
<svg
   xmlns:dc="http://purl.org/dc/elements/1.1/"
   xmlns:cc="http://web.resource.org/cc/"
   xmlns:rdf="http://www.w3.org/1999/02/22-rdf-syntax-ns#"
   xmlns:svg="http://www.w3.org/2000/svg"
   xmlns="http://www.w3.org/2000/svg"
   xmlns:xlink="http://www.w3.org/1999/xlink"
   xmlns:sodipodi="http://sodipodi.sourceforge.net/DTD/sodipodi-0.dtd"
   xmlns:inkscape="http://www.inkscape.org/namespaces/inkscape"
   width="493.98468"
   height="433.82925"
   id="svg3586"
   sodipodi:version="0.32"
   inkscape:version="0.45.1"
   version="1.0"
   sodipodi:docbase="/home/moni/Desktop"
   sodipodi:docname="ladybug.svg"
   inkscape:output_extension="org.inkscape.output.svg.inkscape">
  <defs
     id="defs3588">
    <linearGradient
       id="linearGradient17633">
      <stop
         style="stop-color:#7a7a7a;stop-opacity:1;"
         offset="0"
         id="stop17635" />
      <stop
         style="stop-color:#4a4a4a;stop-opacity:1;"
         offset="0"
         id="stop17643" />
      <stop
         style="stop-color:#1a1a1a;stop-opacity:0;"
         offset="1"
         id="stop17637" />
    </linearGradient>
    <radialGradient
       inkscape:collect="always"
       xlink:href="#linearGradient17633"
       id="radialGradient28461"
       gradientUnits="userSpaceOnUse"
       gradientTransform="matrix(0.603732,0.587415,-0.720928,0.758633,101.0532,-231.5532)"
       cx="849.10327"
       cy="207.73383"
       fx="849.10327"
       fy="207.73383"
       r="59.488682" />
    <linearGradient
       id="linearGradient20312">
      <stop
         id="stop20314"
         offset="0"
         style="stop-color:#0f0f0f;stop-opacity:1;" />
      <stop
         id="stop20318"
         offset="1"
         style="stop-color:black;stop-opacity:0;" />
    </linearGradient>
    <radialGradient
       inkscape:collect="always"
       xlink:href="#linearGradient20312"
       id="radialGradient28459"
       gradientUnits="userSpaceOnUse"
       gradientTransform="matrix(-0.471705,0.280075,-0.512445,-0.863065,996.2253,169.5516)"
       cx="886.07147"
       cy="109.63275"
       fx="886.07147"
       fy="109.63275"
       r="52.248867" />
    <radialGradient
       inkscape:collect="always"
       xlink:href="#linearGradient13082"
       id="radialGradient28457"
       gradientUnits="userSpaceOnUse"
       gradientTransform="matrix(0.547103,2.18904,-2.461508,0.615202,710.6204,-781.8558)"
       cx="395.13608"
       cy="215.9915"
       fx="395.13608"
       fy="215.9915"
       r="144.92441" />
    <radialGradient
       inkscape:collect="always"
       xlink:href="#linearGradient13082"
       id="radialGradient28455"
       gradientUnits="userSpaceOnUse"
       gradientTransform="matrix(0.547103,2.18904,-2.461508,0.615202,710.6204,-781.8558)"
       cx="395.13608"
       cy="215.9915"
       fx="395.13608"
       fy="215.9915"
       r="144.92441" />
    <radialGradient
       inkscape:collect="always"
       xlink:href="#linearGradient13082"
       id="radialGradient28453"
       gradientUnits="userSpaceOnUse"
       gradientTransform="matrix(0.547103,2.18904,-2.461508,0.615202,710.6204,-781.8558)"
       cx="395.13608"
       cy="215.9915"
       fx="395.13608"
       fy="215.9915"
       r="144.92441" />
    <radialGradient
       inkscape:collect="always"
       xlink:href="#linearGradient13082"
       id="radialGradient28451"
       gradientUnits="userSpaceOnUse"
       gradientTransform="matrix(0.547103,2.18904,-2.461508,0.615202,710.6204,-781.8558)"
       cx="395.13608"
       cy="215.9915"
       fx="395.13608"
       fy="215.9915"
       r="144.92441" />
    <radialGradient
       inkscape:collect="always"
       xlink:href="#linearGradient13082"
       id="radialGradient28449"
       gradientUnits="userSpaceOnUse"
       gradientTransform="matrix(0.547103,2.18904,-2.461508,0.615202,710.6204,-781.8558)"
       cx="395.13608"
       cy="215.9915"
       fx="395.13608"
       fy="215.9915"
       r="144.92441" />
    <radialGradient
       inkscape:collect="always"
       xlink:href="#linearGradient13082"
       id="radialGradient28447"
       gradientUnits="userSpaceOnUse"
       gradientTransform="matrix(0.547103,2.18904,-2.461508,0.615202,710.6204,-781.8558)"
       cx="395.13608"
       cy="215.9915"
       fx="395.13608"
       fy="215.9915"
       r="144.92441" />
    <radialGradient
       inkscape:collect="always"
       xlink:href="#linearGradient13082"
       id="radialGradient28445"
       gradientUnits="userSpaceOnUse"
       gradientTransform="matrix(0.162318,0.625126,-0.67962,0.176468,471.2818,-104.7413)"
       cx="380.40387"
       cy="251.11987"
       fx="380.40387"
       fy="251.11987"
       r="144.92441" />
    <radialGradient
       inkscape:collect="always"
       xlink:href="#linearGradient13082"
       id="radialGradient28443"
       gradientUnits="userSpaceOnUse"
       gradientTransform="matrix(0.547103,2.18904,-2.461508,0.615202,710.6204,-781.8558)"
       cx="395.13608"
       cy="215.9915"
       fx="395.13608"
       fy="215.9915"
       r="144.92441" />
    <radialGradient
       inkscape:collect="always"
       xlink:href="#linearGradient13082"
       id="radialGradient28441"
       gradientUnits="userSpaceOnUse"
       gradientTransform="matrix(0.547103,2.18904,-2.461508,0.615202,710.6204,-781.8558)"
       cx="395.13608"
       cy="215.9915"
       fx="395.13608"
       fy="215.9915"
       r="144.92441" />
    <radialGradient
       inkscape:collect="always"
       xlink:href="#linearGradient13082"
       id="radialGradient28439"
       gradientUnits="userSpaceOnUse"
       gradientTransform="matrix(0.547103,2.18904,-2.461508,0.615202,710.6204,-781.8558)"
       cx="395.13608"
       cy="215.9915"
       fx="395.13608"
       fy="215.9915"
       r="144.92441" />
    <linearGradient
       id="linearGradient13082">
      <stop
         style="stop-color:#404040;stop-opacity:1;"
         offset="0"
         id="stop13084" />
      <stop
         id="stop13090"
         offset="0.125"
         style="stop-color:#202020;stop-opacity:1;" />
      <stop
         style="stop-color:black;stop-opacity:1;"
         offset="1"
         id="stop13086" />
    </linearGradient>
    <radialGradient
       inkscape:collect="always"
       xlink:href="#linearGradient13082"
       id="radialGradient28437"
       gradientUnits="userSpaceOnUse"
       gradientTransform="matrix(0.547103,2.18904,-2.461508,0.615202,710.6204,-781.8558)"
       cx="395.13608"
       cy="215.9915"
       fx="395.13608"
       fy="215.9915"
       r="144.92441" />
    <radialGradient
       inkscape:collect="always"
       xlink:href="#linearGradient12030"
       id="radialGradient28435"
       gradientUnits="userSpaceOnUse"
       gradientTransform="matrix(0.68297,2.946505,-3.257574,0.755046,707.1618,-896.7226)"
       cx="327.97757"
       cy="175.01067"
       fx="327.97757"
       fy="175.01067"
       r="170.34988" />
    <radialGradient
       inkscape:collect="always"
       xlink:href="#linearGradient12030"
       id="radialGradient28433"
       gradientUnits="userSpaceOnUse"
       gradientTransform="matrix(0.68297,2.946505,-3.257574,0.755046,707.1618,-896.7226)"
       cx="327.97757"
       cy="175.01067"
       fx="327.97757"
       fy="175.01067"
       r="170.34988" />
    <linearGradient
       id="linearGradient12030">
      <stop
         style="stop-color:#ff9696;stop-opacity:1;"
         offset="0"
         id="stop12032" />
      <stop
         id="stop12038"
         offset="0.33333334"
         style="stop-color:#a20000;stop-opacity:1;" />
      <stop
         style="stop-color:#690000;stop-opacity:1;"
         offset="1"
         id="stop12034" />
    </linearGradient>
    <radialGradient
       inkscape:collect="always"
       xlink:href="#linearGradient12030"
       id="radialGradient28431"
       gradientUnits="userSpaceOnUse"
       gradientTransform="matrix(0.68297,2.946505,-3.257574,0.755046,707.1618,-896.7226)"
       cx="327.97757"
       cy="175.01067"
       fx="327.97757"
       fy="175.01067"
       r="170.34988" />
  </defs>
  <sodipodi:namedview
     id="base"
     pagecolor="#ffffff"
     bordercolor="#666666"
     borderopacity="1.0"
     gridtolerance="10000"
     guidetolerance="10"
     objecttolerance="10"
     inkscape:pageopacity="0.0"
     inkscape:pageshadow="2"
     inkscape:zoom="0.35"
     inkscape:cx="375"
     inkscape:cy="177.14286"
     inkscape:document-units="px"
     inkscape:current-layer="layer1"
     inkscape:window-width="1018"
     inkscape:window-height="741"
     inkscape:window-x="2"
     inkscape:window-y="0" />
  <metadata
     id="metadata3591">
    <rdf:RDF>
      <cc:Work
         rdf:about="">
        <dc:format>image/svg+xml</dc:format>
        <dc:type
           rdf:resource="http://purl.org/dc/dcmitype/StillImage" />
      </cc:Work>
    </rdf:RDF>
  </metadata>
  <g
     inkscape:label="Layer 1"
     inkscape:groupmode="layer"
     id="layer1"
     transform="translate(-116.54195,-124.01898)">
    <g
       id="g28363"
       transform="matrix(1.0026629,0,0,1.0026629,-36.50648,42.497218)">
      <path
         sodipodi:nodetypes="cssssssssssssss"
         id="path28365"
         d="M 458.59907,453.57788 C 457.13918,459.13933 459.64852,465.4612 461.96375,470.79005 C 464.27898,476.1189 464.75994,470.20302 467.86,474.89329 C 470.96008,479.58357 471.54342,486.80751 474.36403,489.55115 C 477.18463,492.29479 476.70817,483.75619 479.14244,485.86784 C 481.5767,487.97947 483.19993,493.18081 484.1011,497.99771 C 485.00229,502.8146 481.31908,505.17201 482.74718,505.13542 C 484.17529,505.09884 485.99151,499.91245 489.8135,497.85135 C 493.6355,495.79026 497.95827,498.46261 498.03515,496.89104 C 498.11201,495.31947 493.42732,495.34579 490.12098,491.56508 C 486.81464,487.78437 485.61156,486.18 484.80977,481.76819 C 484.00797,477.35637 488.74143,476.85557 486.91383,473.91782 C 485.08622,470.98007 482.27699,476.36057 477.49938,470.01717 C 472.72176,463.67377 472.52844,452.65405 467.80337,448.54423 C 463.07829,444.43441 460.05898,448.01643 458.59907,453.57788 z "
         style="fill:#1a1a1a;fill-rule:evenodd;stroke:#000000;stroke-width:1.00000024px;stroke-linecap:butt;stroke-linejoin:miter;stroke-opacity:1;display:inline" />
      <path
         inkscape:transform-center-x="-7.2105286"
         inkscape:transform-center-y="-8.8383769"
         sodipodi:nodetypes="cssssssssssssss"
         id="path28367"
         d="M 550.74742,335.1256 C 554.45304,330.72906 561.06633,329.13938 566.75606,327.96293 C 572.44577,326.78649 567.88661,330.58688 573.50632,330.41982 C 579.12603,330.25276 585.3675,326.56905 589.23491,327.29467 C 593.10231,328.0203 585.84769,332.54856 588.97594,333.32236 C 592.10418,334.09615 597.29111,332.42744 601.74789,330.38989 C 606.20468,328.35233 606.01051,323.98362 606.80311,325.17214 C 607.59571,326.36067 604.40194,330.83249 604.91827,335.144 C 605.43461,339.45552 610.10889,341.45021 608.86843,342.41819 C 607.62796,343.38617 604.95137,339.54132 599.95641,339.0159 C 594.96144,338.49049 592.95699,338.43101 588.88859,340.31651 C 584.82019,342.202 587.137,346.35999 583.68282,346.55792 C 580.22865,346.75587 583.00918,341.36049 575.07188,341.10828 C 567.13459,340.85607 558.01473,347.04478 551.93363,345.5491 C 545.85251,344.05344 547.04182,339.52214 550.74742,335.1256 z "
         style="fill:#1a1a1a;fill-rule:evenodd;stroke:#000000;stroke-width:1.00000024px;stroke-linecap:butt;stroke-linejoin:miter;stroke-opacity:1;display:inline" />
      <path
         sodipodi:nodetypes="cssssssssssssss"
         id="path28369"
         d="M 411.53973,441.69405 C 408.46662,446.5538 408.94705,453.33848 409.5427,459.11794 C 410.13835,464.8974 412.3855,459.40383 413.92234,464.8119 C 415.45917,470.21997 413.831,477.28218 415.69003,480.75023 C 417.54905,484.21828 419.67659,475.93527 421.35846,478.6841 C 423.04032,481.43292 423.0149,486.8816 422.41748,491.74552 C 421.82007,496.60944 417.59648,497.74286 418.9688,498.13978 C 420.34111,498.5367 423.64047,494.14222 427.90676,493.3332 C 432.17305,492.52418 435.4855,496.37846 436.03395,494.9037 C 436.5824,493.42893 432.10901,492.03757 430.10055,487.43412 C 428.09208,482.83067 427.43041,480.93764 428.00009,476.48989 C 428.56977,472.04214 433.23308,472.99598 432.37928,469.64314 C 431.52547,466.29031 427.22089,470.56958 424.58486,463.07854 C 421.94883,455.5875 425.09645,445.0251 421.83517,439.67898 C 418.57388,434.33286 414.61284,436.83431 411.53973,441.69405 z "
         style="fill:#1a1a1a;fill-rule:evenodd;stroke:#000000;stroke-width:1.00000024px;stroke-linecap:butt;stroke-linejoin:miter;stroke-opacity:1;display:inline" />
      <path
         inkscape:transform-center-x="-4.5392762"
         inkscape:transform-center-y="-9.0785524"
         sodipodi:nodetypes="cssssssssssssss"
         id="path28371"
         d="M 522.72772,287.66282 C 524.07759,282.07364 529.28307,277.69576 533.84705,274.10034 C 538.41103,270.50493 536.03117,275.94233 540.98366,273.28115 C 545.93617,270.61998 549.87309,264.53506 553.65704,263.45564 C 557.44098,262.37623 552.97519,269.66947 556.11945,268.96351 C 559.26369,268.25755 563.15787,264.4465 566.23405,260.63182 C 569.31023,256.81716 567.18394,252.99586 568.42418,253.70482 C 569.66441,254.41377 568.80608,259.84154 571.19499,263.46766 C 573.58391,267.09379 578.65686,266.789 577.97983,268.20934 C 577.3028,269.62968 573.18997,267.38654 568.48685,269.14902 C 563.78372,270.91149 561.96403,271.75418 559.16733,275.25923 C 556.37063,278.76429 560.30156,281.44836 557.30007,283.16927 C 554.29857,284.89017 554.37446,278.82093 547.16135,282.14288 C 539.94825,285.46484 534.55604,295.07711 528.44763,296.45709 C 522.33923,297.83708 521.37787,293.25201 522.72772,287.66282 z "
         style="fill:#1a1a1a;fill-rule:evenodd;stroke:#000000;stroke-width:1.00000024px;stroke-linecap:butt;stroke-linejoin:miter;stroke-opacity:1;display:inline" />
      <path
         sodipodi:nodetypes="cssssssssssssss"
         id="path28373"
         d="M 374.68762,138.78925 C 378.32584,134.33678 378.66936,127.54379 378.77696,121.73472 C 378.88456,115.92563 375.98959,121.10715 375.118,115.55292 C 374.24642,109.9987 376.71663,103.18521 375.29062,99.5178 C 373.8646,95.8504 370.75106,103.81535 369.41394,100.88331 C 368.07683,97.95129 368.76092,92.54567 369.94214,87.78968 C 371.12333,83.0337 375.45299,82.41932 374.13873,81.85937 C 372.82448,81.29942 369.01794,85.26268 364.68513,85.54986 C 360.35231,85.83705 357.53025,81.61049 356.80749,83.00811 C 356.08473,84.40574 360.35705,86.32783 361.79409,91.14037 C 363.23115,95.95291 363.65906,97.91206 362.55572,102.25829 C 361.45237,106.6045 356.93862,105.09376 357.38072,108.52524 C 357.82282,111.95671 362.61329,108.22938 364.32412,115.9842 C 366.03495,123.73904 361.63318,133.84329 364.22406,139.54455 C 366.81493,145.24581 371.04938,143.24171 374.68762,138.78925 z "
         style="fill:#1a1a1a;fill-rule:evenodd;stroke:#000000;stroke-width:1.00000024px;stroke-linecap:butt;stroke-linejoin:miter;stroke-opacity:1;display:inline" />
      <path
         inkscape:transform-center-x="7.473055"
         inkscape:transform-center-y="8.2206244"
         sodipodi:nodetypes="cssssssssssssss"
         id="path28375"
         d="M 210.97316,347.22642 C 207.01868,351.40054 200.3243,352.60382 194.5759,353.44815 C 188.8275,354.29247 193.5995,350.76302 187.97956,350.60374 C 182.35963,350.44444 175.91494,353.75979 172.09615,352.811 C 168.27737,351.86219 175.7825,347.76251 172.70442,346.80848 C 169.62636,345.85448 164.35134,347.21942 159.78384,348.99496 C 155.21633,350.77047 155.15669,355.1431 154.43439,353.91059 C 153.71209,352.67808 157.15994,348.3991 156.89464,344.0649 C 156.62934,339.73069 152.07868,337.46813 153.37322,336.57375 C 154.66775,335.67939 157.11676,339.67306 162.07281,340.48741 C 167.02887,341.30178 169.0265,341.47746 173.19746,339.8312 C 177.36839,338.18493 175.29675,333.89953 178.75659,333.90235 C 182.21642,333.90516 179.12752,339.13013 187.03681,339.84245 C 194.94609,340.55478 204.40968,334.90565 210.39376,336.75165 C 216.37784,338.59765 214.92762,343.0523 210.97316,347.22642 z "
         style="fill:#1a1a1a;fill-rule:evenodd;stroke:#000000;stroke-width:1.00000024px;stroke-linecap:butt;stroke-linejoin:miter;stroke-opacity:1;display:inline" />
      <g
         transform="matrix(-0.130489,-0.99145,0.99145,-0.130489,162.0391,676.9017)"
         style="fill:url(#radialGradient28431);fill-opacity:1;display:inline"
         id="g28377">
        <path
           style="fill:url(#radialGradient28433);fill-opacity:1;fill-rule:evenodd;stroke:#000000;stroke-width:1px;stroke-linecap:butt;stroke-linejoin:miter;stroke-opacity:1"
           d="M 231.00839,285.38938 C 202.56087,264.43023 206.28553,248.07229 206.28553,248.07229 C 206.28553,248.07229 223.25711,166.47555 268.17157,118.17291 C 308.13659,75.193076 345.8314,60.350929 399.08857,60.687319 C 459.93153,61.071623 510.55035,90.436359 509.07091,91.070399 C 510.3342,94.439169 473.88255,149.9744 424.04607,209.09122 C 371.36002,271.58824 304.93054,335.74689 304.67501,335.23582 C 304.67501,335.23582 289.60841,329.59129 277.28438,317.31712 C 262.52172,302.61419 245.29727,295.91693 231.00839,285.38938 z "
           id="path28379"
           sodipodi:nodetypes="ccsscscss" />
        <path
           style="fill:url(#radialGradient28435);fill-opacity:1;fill-rule:evenodd;stroke:#000000;stroke-width:1px;stroke-linecap:butt;stroke-linejoin:miter;stroke-opacity:1"
           d="M 306.5608,336.19534 C 306.5608,336.19534 319.60698,360.57354 336.26404,378.16731 C 359.80106,403.02794 362.15095,408.20742 368.45338,408.55916 C 396.70747,410.15827 428.09234,396.62691 458.23437,377.52296 C 503.24553,348.99499 535.7882,291.28309 543.92822,231.29786 C 548.17565,199.99777 545.18749,172.71967 535.98594,143.12425 C 525.64947,109.87851 510.70596,93.403609 510.70596,93.403609 C 510.70596,93.403609 478.34448,147.64431 427.00953,208.34224 C 375.67457,269.04017 306.5608,336.19534 306.5608,336.19534 z "
           id="path28381"
           sodipodi:nodetypes="cssssscsc" />
      </g>
      <path
         sodipodi:nodetypes="csssssssssssssssc"
         id="path28383"
         d="M 502.54321,446.38883 C 508.7025,453.1129 512.54328,456.87708 514.38199,459.39781 C 516.2207,461.91854 522.78174,466.58048 525.8093,466.68433 C 528.83686,466.78817 535.52877,469.92594 540.42083,467.02166 C 545.3129,464.11737 554.23947,459.4263 557.16955,458.78951 C 560.09963,458.15271 566.39698,460.58893 574.02243,457.07374 C 577.91307,455.28023 590.97045,440.14491 591.50476,433.42443 C 592.27617,423.72182 586.97754,416.69404 589.80842,414.81089 C 593.29161,412.49381 596.25949,404.66901 595.38218,398.00323 C 594.50487,391.33744 592.7386,387.18371 587.05364,382.1553 C 581.36868,377.1269 577.70605,375.62433 572.59825,369.50881 C 569.09684,365.31661 556.32326,363.62957 554.53216,365.62573 C 548.39932,372.46068 548.70762,373.50505 545.193,379.24193 C 541.67838,384.97882 535.71471,398.82391 531.85573,403.85264 C 527.99675,408.88138 518.07007,420.23917 512.58661,423.46744 C 504.89444,427.99604 501.23724,435.16811 501.06841,437.70191 C 500.89958,440.23569 502.19885,445.68068 502.54321,446.38883 z "
         style="fill:#1a1a1a;fill-rule:evenodd;stroke:#000000;stroke-width:1.00000024px;stroke-linecap:butt;stroke-linejoin:miter;stroke-opacity:1;display:inline" />
      <path
         sodipodi:nodetypes="cssssssss"
         id="path28385"
         d="M 512.2355,509.08431 C 511.40531,514.64307 513.55451,513.398 515.87852,513.28767 C 518.20252,513.17734 519.81989,513.6476 521.5315,508.64299 C 523.2431,503.63836 519.03892,500.65361 522.72492,493.26921 C 526.41093,485.88479 527.83657,486.98605 536.27556,479.10536 C 544.71454,471.22467 556.3548,463.03365 556.48084,461.74645 C 556.60688,460.45924 546.1001,466.62999 536.7797,473.95653 C 527.45931,481.28306 525.3353,482.27069 519.19926,491.05263 C 513.06319,499.83457 513.06569,503.52555 512.2355,509.08431 z "
         style="fill:#1a1a1a;fill-rule:evenodd;stroke:#000000;stroke-width:1.00000024px;stroke-linecap:butt;stroke-linejoin:miter;stroke-opacity:1;display:inline" />
      <path
         inkscape:transform-center-x="-2.6774334"
         sodipodi:nodetypes="cssssssss"
         id="path28387"
         d="M 591.61169,418.40514 C 592.2178,419.67527 597.54965,415.61374 604.56282,409.86484 C 611.57599,404.11594 610.93189,399.36593 619.66442,395.40955 C 628.39694,391.45317 633.36461,397.00585 639.49291,394.03932 C 645.62122,391.07278 645.27866,386.11567 644.17763,383.54342 C 643.0766,380.97118 642.52986,381.7905 635.08882,383.75035 C 627.64777,385.7102 622.65106,386.12433 614.41346,391.38283 C 606.17586,396.64133 607.83886,398.02874 602.13842,404.78433 C 596.43797,411.53989 591.0056,417.135 591.61169,418.40514 z "
         style="fill:#1a1a1a;fill-rule:evenodd;stroke:#000000;stroke-width:1.00000024px;stroke-linecap:butt;stroke-linejoin:miter;stroke-opacity:1;display:inline" />
      <path
         sodipodi:nodetypes="csssssssss"
         id="path28389"
         d="M 425.42075,381.3979 C 427.07122,378.44597 431.04283,371.02935 431.96922,369.40718 C 433.76298,366.26621 437.07502,360.86041 438.44496,359.61661 C 440.70133,357.56801 445.52664,349.58479 445.73409,347.22819 C 445.94156,344.87159 444.58169,340.12895 442.40175,340.3621 C 437.61589,340.87396 431.29831,344.17347 429.61794,345.17106 C 427.93757,346.16866 424.0775,349.84452 421.45401,354.24797 C 420.05792,356.59128 418.82989,361.84004 418.21408,365.02681 C 417.59826,368.21359 416.78844,375.82567 418.00695,377.21816 C 419.22547,378.61065 424.12676,383.71222 425.42075,381.3979 z "
         style="fill:#e6e6e6;fill-rule:evenodd;stroke:#eaeaea;stroke-width:1.00000024px;stroke-linecap:butt;stroke-linejoin:miter;stroke-opacity:1;display:inline" />
      <g
         transform="matrix(-0.130489,-0.99145,0.99145,-0.130489,162.0391,676.9017)"
         style="fill:url(#radialGradient28437);fill-opacity:1;display:inline"
         id="g28391">
        <g
           style="fill:url(#radialGradient28439);fill-opacity:1"
           id="g28393">
          <g
             style="fill:url(#radialGradient28441);fill-opacity:1;display:inline"
             id="g28395">
            <path
               sodipodi:nodetypes="cssss"
               id="path28397"
               d="M 250.79685,175.42975 C 250.25252,183.0503 252.24838,189.21933 258.78029,188.49356 C 265.31219,187.76779 276.38014,180.14724 276.92447,172.52669 C 277.4688,164.90614 267.48949,157.28557 260.95759,158.01134 C 254.42568,158.73711 251.34118,167.8092 250.79685,175.42975 z "
               style="fill:url(#radialGradient28443);fill-opacity:1;fill-rule:evenodd;stroke:#000000;stroke-width:1px;stroke-linecap:butt;stroke-linejoin:miter;stroke-opacity:1;display:inline" />
            <path
               sodipodi:nodetypes="csssss"
               id="path28399"
               d="M 339.34045,175.42975 C 334.68186,183.25026 346.12568,191.0438 351.38094,194.71385 C 360.31135,200.95047 370.55552,202.31805 377.08034,197.20277 C 381.4078,193.81016 385.12772,190.67522 385.78955,180.51012 C 386.20371,174.14911 385.40558,160.61286 374.17728,156.55981 C 370.764,155.32773 351.19331,155.53202 339.34045,175.42975 z "
               style="fill:url(#radialGradient28445);fill-opacity:1;fill-rule:evenodd;stroke:#000000;stroke-width:1px;stroke-linecap:butt;stroke-linejoin:miter;stroke-opacity:1;display:inline" />
            <path
               sodipodi:nodetypes="csssss"
               id="path28401"
               d="M 360.7535,76.709829 C 368.65841,87.007109 383.64512,92.817319 399.49577,86.778229 C 407.11958,83.873569 410.75119,83.220799 413.21517,78.487339 C 415.67914,73.753879 411.59357,70.509189 407.26844,68.006369 C 400.9867,64.371309 383.7173,65.083309 371.83827,68.461509 C 364.73945,70.480299 358.3747,73.611099 360.7535,76.709829 z "
               style="fill:url(#radialGradient28447);fill-opacity:1;fill-rule:evenodd;stroke:#000000;stroke-width:1px;stroke-linecap:butt;stroke-linejoin:miter;stroke-opacity:1;display:inline" />
            <path
               sodipodi:nodetypes="csssss"
               id="path28403"
               d="M 528.72946,184.87191 C 537.42222,191.6529 542.5404,204.80594 537.85752,218.98124 C 535.60516,225.79924 535.13785,229.03118 531.26553,231.31696 C 527.39322,233.60274 524.6218,230.05303 522.46026,226.275 C 519.32086,220.78785 519.56085,205.47091 522.11937,194.8723 C 523.64832,188.53865 526.11358,182.83133 528.72946,184.87191 z "
               style="fill:url(#radialGradient28449);fill-opacity:1;fill-rule:evenodd;stroke:#000000;stroke-width:0.85711044px;stroke-linecap:butt;stroke-linejoin:miter;stroke-opacity:1;display:inline" />
            <path
               sodipodi:nodetypes="csssss"
               id="path28405"
               d="M 474.41121,259.68758 C 476.08781,251.02133 463.62007,247.06005 457.86643,245.15578 C 448.08912,241.91981 438.66251,243.6183 434.50924,250.29746 C 431.75468,254.7273 429.45441,258.73963 432.01552,268.43656 C 433.61818,274.50461 438.50475,286.92934 449.62661,287.45581 C 453.00753,287.61585 470.1454,281.73711 474.41121,259.68758 z "
               style="fill:url(#radialGradient28451);fill-opacity:1;fill-rule:evenodd;stroke:#000000;stroke-width:0.95480955px;stroke-linecap:butt;stroke-linejoin:miter;stroke-opacity:1;display:inline" />
            <path
               sodipodi:nodetypes="cssss"
               id="path28407"
               d="M 457.94989,357.52801 C 462.29202,351.84845 464.02938,345.89347 458.88789,342.82477 C 453.74641,339.75607 441.7261,339.57362 437.38397,345.25318 C 433.04184,350.93275 436.37789,362.47436 441.51937,365.54306 C 446.66086,368.61176 453.60775,363.20758 457.94989,357.52801 z "
               style="opacity:1;fill:url(#radialGradient28453);fill-opacity:1;fill-rule:evenodd;stroke:#000000;stroke-width:0.92799342px;stroke-linecap:butt;stroke-linejoin:miter;stroke-opacity:1;display:inline" />
          </g>
          <path
             sodipodi:nodetypes="cssssscssssss"
             id="path28409"
             d="M 297.04149,309.44848 C 297.6374,313.15725 300.47655,320.72304 298.93696,323.80221 C 297.39738,326.88138 294.07733,325.51974 294.59053,327.05932 C 295.10372,328.59891 303.10544,331.91894 304.38843,332.43214 C 305.67142,332.94533 310.42092,326.75553 311.7039,325.72914 C 312.98689,324.70275 320.85825,317.39305 328.09468,310.06096 C 335.32783,302.7322 340.09184,297.50342 340.09184,297.50342 C 340.09184,297.50342 335.86937,294.76208 333.08504,293.09406 C 328.64423,290.4337 325.68602,288.29738 323.63324,287.27099 C 321.58046,286.2446 318.70519,283.72758 314.78307,281.08118 C 310.43665,278.14849 306.0273,275.61398 301.40854,279.46294 C 296.78979,283.31191 298.36084,291.34508 298.36084,296.22043 C 298.36084,301.09578 296.21175,304.28434 297.04149,309.44848 z "
             style="fill:url(#radialGradient28455);fill-opacity:1;fill-rule:evenodd;stroke:#000000;stroke-width:1px;stroke-linecap:butt;stroke-linejoin:miter;stroke-opacity:1;display:inline" />
          <path
             sodipodi:nodetypes="cssssscssssss"
             id="path28411"
             d="M 332.40626,344.22639 C 328.69937,343.61885 322.23184,340.21135 319.14786,341.74128 C 316.06388,343.2712 316.87045,347.41249 315.33248,346.89447 C 313.79451,346.37646 309.95491,338.09204 309.44574,336.80745 C 308.93657,335.52286 315.14123,330.79278 316.17163,329.51302 C 317.20204,328.23326 323.99171,320.92951 331.34644,313.71609 C 338.69784,306.50594 343.66919,301.75835 343.66919,301.75835 C 343.66919,301.75835 347.21428,305.44472 348.87355,308.23427 C 351.51998,312.6834 353.64702,315.64828 354.66698,317.70427 C 355.68693,319.76026 358.19492,322.6434 360.82902,326.5738 C 363.74807,330.92939 366.26876,335.34666 362.40533,339.95333 C 358.54191,344.55999 350.51371,342.96378 345.63838,342.9485 C 340.76305,342.93322 337.56777,345.0723 332.40626,344.22639 z "
             style="opacity:1;fill:url(#radialGradient28457);fill-opacity:1;fill-rule:evenodd;stroke:#000000;stroke-width:1px;stroke-linecap:butt;stroke-linejoin:miter;stroke-opacity:1;display:inline" />
        </g>
      </g>
      <path
         sodipodi:nodetypes="csssssssss"
         id="path28413"
         d="M 497.10127,286.02116 C 494.73779,289.73868 488.53567,296.19965 487.45189,297.72117 C 484.89211,301.31488 480.9175,304.42778 478.76478,306.17779 C 476.39997,308.10021 470.35191,315.12269 468.08441,315.79725 C 465.81691,316.47182 460.89812,316.08792 460.69059,313.90539 C 460.23497,309.11385 462.20436,302.26403 462.84574,300.41809 C 463.48712,298.57215 466.31674,294.05492 470.10655,290.60379 C 472.12331,288.76725 477.02043,286.51432 480.01967,285.27362 C 483.0189,284.03291 490.31524,281.7171 491.9233,282.6325 C 493.53134,283.54792 498.52384,283.78359 497.10127,286.02116 z "
         style="fill:#e6e6e6;fill-rule:evenodd;stroke:#eaeaea;stroke-width:1.00000024px;stroke-linecap:butt;stroke-linejoin:miter;stroke-opacity:1;display:inline" />
      <path
         sodipodi:nodetypes="cssss"
         id="path28415"
         d="M 571.47438,420.32926 C 574.16357,417.12347 580.93684,409.49126 579.00528,406.63437 C 577.07371,403.77748 571.66803,396.19265 568.36854,398.70099 C 565.06905,401.20932 563.03719,407.43971 564.41896,413.99859 C 565.80071,420.55748 568.7852,423.53505 571.47438,420.32926 z "
         style="fill:#e6e6e6;fill-rule:evenodd;stroke:#000000;stroke-width:1.00000024px;stroke-linecap:butt;stroke-linejoin:miter;stroke-opacity:1;display:inline" />
      <path
         sodipodi:nodetypes="cssss"
         id="path28417"
         d="M 577.89005,443.56566 C 583.87677,436.17824 582.17129,422.81029 581.28608,423.96383 C 580.40087,425.11737 576.40917,435.76576 573.14568,439.28153 C 568.84273,443.9171 561.43464,449.22069 560.07328,450.69616 C 558.71192,452.17163 571.98354,450.8541 577.89005,443.56566 z "
         style="fill:#e6e6e6;fill-rule:evenodd;stroke:#000000;stroke-width:1.00000024px;stroke-linecap:butt;stroke-linejoin:miter;stroke-opacity:1;display:inline" />
      <path
         sodipodi:nodetypes="cssss"
         id="path28419"
         d="M 557.09924,441.53567 C 554.24352,444.59404 547.48974,452.24351 544.41956,450.67294 C 541.34936,449.10237 533.16455,444.65716 535.25391,441.07764 C 537.34326,437.49813 543.28101,434.72514 549.95912,435.3007 C 556.63721,435.87624 559.95498,438.47731 557.09924,441.53567 z "
         style="fill:#e6e6e6;fill-rule:evenodd;stroke:#000000;stroke-width:1.00000024px;stroke-linecap:butt;stroke-linejoin:miter;stroke-opacity:1;display:inline" />
      <path
         sodipodi:nodetypes="ccsssssssscsssc"
         id="path28421"
         d="M 457.43212,330.43412 C 452.13637,347.42799 439.92148,363.92713 433.0739,375.31832 C 418.47884,420.09539 406.51413,418.29607 404.96709,437.13499 C 404.10216,447.66756 419.36405,461.06284 424.59747,463.04018 C 432.95697,466.19866 464.71352,463.94832 483.434,459.19286 C 500.51152,454.85476 496.74385,448.224 498.43072,440.28517 C 499.79088,433.88385 500.92499,429.33146 507.98886,423.73754 C 519.20015,414.85925 525.96761,409.67566 532.91324,398.03115 C 543.05213,381.03307 542.44639,377.5226 551.03084,365.79978 C 559.6153,354.07698 569.54814,355.16734 568.53105,349.02325 C 566.06412,334.12099 563.99118,320.03259 555.66725,299.65925 C 554.88287,289.20353 553.92957,280.83629 547.60275,275.64318 C 542.8676,271.75651 528.74941,266.0901 521.35466,271.51526 C 499.76082,287.3576 503.10895,285.45113 487.62886,303.34024 C 479.00835,313.30226 471.24495,318.94317 457.43212,330.43412 z "
         style="fill:#1a1a1a;fill-rule:evenodd;stroke:#000000;stroke-width:1.00000024px;stroke-linecap:butt;stroke-linejoin:miter;stroke-opacity:1;display:inline" />
      <path
         sodipodi:nodetypes="ccsscsssc"
         id="path28423"
         d="M 532.85191,393.18324 C 542.46211,377.07152 540.8363,375.49687 548.97312,364.38533 C 557.10994,353.27381 566.52484,354.30731 565.56079,348.4836 C 563.22249,334.35841 561.25765,321.00464 553.36776,301.69366 C 552.62428,291.78314 551.72069,283.85221 545.72378,278.92989 C 541.23554,275.24589 527.85354,269.87495 520.84438,275.01722 C 500.37654,290.03347 503.55008,288.22641 488.87719,305.1827 C 480.70619,314.62526 474.224,319.53384 461.13143,330.4256"
         style="fill:url(#radialGradient28459);fill-opacity:1;fill-rule:evenodd;stroke:none;stroke-width:0.94785589px;stroke-linecap:butt;stroke-linejoin:miter;stroke-opacity:1;display:inline" />
      <path
         sodipodi:nodetypes="ccssssss"
         id="path28425"
         d="M 458.17185,334.46199 C 453.42143,350.34389 442.46438,365.76345 436.32193,376.40929 C 423.22981,418.25646 412.49717,416.57487 411.10944,434.18111 C 410.33358,444.0245 424.02386,456.54329 428.71837,458.39124 C 436.21704,461.34305 464.70345,459.23997 481.49618,454.79567 C 496.81512,450.74142 493.43543,444.54453 494.9486,437.12516 C 496.1687,431.1427 497.18601,426.88818 503.52248,421.66029 C 513.57928,413.36294 519.64986,408.51852 525.88026,397.63595"
         style="fill:url(#radialGradient28461);fill-opacity:1;fill-rule:evenodd;stroke:none;stroke-width:0.92243791px;stroke-linecap:butt;stroke-linejoin:miter;stroke-opacity:1;display:inline" />
      <path
         sodipodi:nodetypes="csssssssss"
         id="path28427"
         d="M 445.51374,450.59181 C 448.09885,453.68958 453.32643,457.21734 463.9583,457.90773 C 474.59016,458.59811 483.95328,453.08593 491.19647,451.93548 C 495.67297,451.22093 494.54387,443.10653 496.26303,435.94031 C 497.98219,428.7741 501.72272,427.76773 499.87281,425.0316 C 498.02289,422.29547 488.78792,426.0852 484.37674,423.91536 C 479.96555,421.74553 476.67351,416.92853 471.32917,418.98972 C 463.92367,421.84584 463.07669,425.80196 463.32624,429.30411 C 463.60225,433.17737 460.49969,438.76567 455.21115,440.37853 C 449.92262,441.99137 442.92862,447.49405 445.51374,450.59181 z "
         style="fill:#ececec;fill-rule:evenodd;stroke:#cccccc;stroke-width:1.00000024px;stroke-linecap:butt;stroke-linejoin:miter;stroke-opacity:1;display:inline" />
      <path
         sodipodi:nodetypes="cccccccccccccc"
         id="path28429"
         d="M 542.33927,358.27093 C 542.48778,354.84948 542.81193,351.03046 540.51837,348.17486 C 538.77372,345.82495 536.21133,343.98259 535.34273,341.06939 C 534.06633,338.80071 531.89889,334.91806 533.05078,332.18484 C 534.04127,328.93766 536.15932,327.14225 539.29035,325.60123 C 542.20858,323.90971 545.14155,321.729 546.22481,318.38037 C 547.2811,315.47022 545.98093,310.33801 546.86295,307.40753 C 548.1929,304.91754 551.80564,308.84572 552.97771,311.05004 C 556.02258,316.09686 557.64021,323.95887 558.62669,329.68665 C 559.42209,335.1673 560.48002,337.61001 561.7281,343.00952 C 561.93848,345.35296 563.25068,348.29055 561.46104,350.29145 C 559.00868,352.90796 554.78459,352.0412 552.28887,354.60513 C 549.71256,356.95317 548.03122,360.07125 545.69466,362.62795 C 543.07993,363.58693 542.90148,359.87936 542.33927,358.27093 z "
         style="fill:#cccccc;fill-opacity:1;fill-rule:evenodd;stroke:#000000;stroke-width:1.00000024px;stroke-linecap:butt;stroke-linejoin:miter;stroke-opacity:1;display:inline" />
    </g>
  </g>
</svg>
