<?xml version="1.0" encoding="UTF-8" standalone="no"?>
<!-- Generator: Adobe Illustrator 12.0.0, SVG Export Plug-In . SVG Version: 6.00 Build 51448)  -->

<svg
   xmlns:dc="http://purl.org/dc/elements/1.1/"
   xmlns:cc="http://creativecommons.org/ns#"
   xmlns:rdf="http://www.w3.org/1999/02/22-rdf-syntax-ns#"
   xmlns:svg="http://www.w3.org/2000/svg"
   xmlns="http://www.w3.org/2000/svg"
   xmlns:sodipodi="http://sodipodi.sourceforge.net/DTD/sodipodi-0.dtd"
   xmlns:inkscape="http://www.inkscape.org/namespaces/inkscape"
   height="80.723"
   id="Layer_1"
   inkscape:version="0.92.2 (5c3e80d, 2017-08-06)"
   sodipodi:docname="lion.svg"
   sodipodi:version="0.32"
   space="preserve"
   style="overflow:visible"
   version="1.1"
   viewBox="0 0 127.99978 80.723002"
   width="127.99979">
  <metadata
     id="metadata3">
    <rdf:RDF>
      <cc:Work
         rdf:about="">
        <dc:title></dc:title>
        <dc:description />
        <dc:subject>
          <rdf:Bag>
            <rdf:li>mammal</rdf:li>
            <rdf:li>feline</rdf:li>
          </rdf:Bag>
        </dc:subject>
        <dc:publisher>
          <cc:Agent
             rdf:about="http://www.openclipart.org/">
            <dc:title>Open Clip Art Library</dc:title>
          </cc:Agent>
        </dc:publisher>
        <dc:creator>
          <cc:Agent>
            <dc:title>Architetto Francesco Rollandin</dc:title>
          </cc:Agent>
        </dc:creator>
        <dc:rights>
          <cc:Agent>
            <dc:title>Architetto Francesco Rollandin</dc:title>
          </cc:Agent>
        </dc:rights>
        <dc:date />
        <dc:format>image/svg+xml</dc:format>
        <dc:type
           rdf:resource="http://purl.org/dc/dcmitype/StillImage" />
        <cc:license
           rdf:resource="http://creativecommons.org/publicdomain/zero/1.0/" />
        <dc:language>en</dc:language>
      </cc:Work>
      <cc:License
         rdf:about="http://creativecommons.org/publicdomain/zero/1.0/">
        <cc:permits
           rdf:resource="http://creativecommons.org/ns#Reproduction" />
        <cc:permits
           rdf:resource="http://creativecommons.org/ns#Distribution" />
        <cc:permits
           rdf:resource="http://creativecommons.org/ns#DerivativeWorks" />
      </cc:License>
    </rdf:RDF>
  </metadata>
  <defs
     id="defs126" />
  <sodipodi:namedview
     bordercolor="#666666"
     borderopacity="1.0"
     id="base"
     inkscape:current-layer="Layer_1"
     inkscape:cx="-68.285368"
     inkscape:cy="40.360901"
     inkscape:pageopacity="0.0"
     inkscape:pageshadow="2"
     inkscape:window-height="1025"
     inkscape:window-width="1920"
     inkscape:window-x="-8"
     inkscape:window-y="-8"
     inkscape:zoom="1.3834076"
     pagecolor="#ffffff"
     showgrid="false"
     inkscape:window-maximized="1"
     fit-margin-top="0"
     fit-margin-left="0"
     fit-margin-right="0"
     fit-margin-bottom="0" />
  <g
     id="g933"
     transform="matrix(0.3101988,0,0,0.3101988,-0.00178182,6.3484793e-4)">
    <path
       style="clip-rule:evenodd;fill:#f7da4d;fill-rule:evenodd;stroke:#000000;stroke-width:0.75029999;stroke-linecap:square;stroke-miterlimit:10"
       id="path3"
       d="m 62.613,227.135 c 9.271,-6.415 18.985,-13.12 30.097,-15.9 8.765,-2.192 19.129,3.78 25.797,-3.866 0.4,2.912 1.885,4.248 2.58,6.875 1.137,-8.447 14.701,-4.896 14.618,-15.47 1.979,7.136 7.74,10.848 7.74,18.906 0,8.04 17.764,6.641 24.937,6.018 -5.196,-1.048 -13.002,-1.444 -16.338,-6.446 -1.417,-2.126 -2.407,-12.155 -5.159,-2.148 0.327,0.354 2.109,-0.185 2.581,0 -7.373,2.106 -2.266,-7.036 -2.581,-10.313 -0.484,-5.04 -9.05,-10.398 0,-14.61 0.993,3.245 2.182,6.764 2.581,10.313 2.528,-5.778 -1.217,-12.611 0.859,-18.907 2.95,1.837 6.067,3.586 8.599,6.016 -2.523,-6.562 -8.897,-9.771 -11.179,-16.329 3.54,3.023 8.418,4.333 12.039,6.875 0.37,-0.388 0.631,-2.001 0.86,-2.578 0.279,0.44 1.256,1.81 1.719,2.578 1.406,-2.732 6.02,-7.195 6.02,-10.313 0,-3.869 -13.436,-7.414 -16.337,-12.032 7.935,7.963 15.299,1.37 19.777,5.157 -2.223,-4.937 -6.195,-8.508 -8.599,-13.751 -0.78,0.648 -0.634,0.694 -1.719,1.719 -0.456,-3.729 -0.002,-7.204 1.719,-10.313 1.436,2.287 3.214,3.603 4.3,6.016 2.081,-4.707 -0.809,-8.372 -1.72,-12.892 0.775,0.447 1.688,1.19 2.58,1.719 -0.998,-3.043 -2.497,-6.036 -4.299,-8.594 1.599,0.73 2.568,0.381 4.299,0.859 -4.791,-1.737 -15.913,-15.94 -18.058,-22.345 7.961,6.727 8.146,8.594 19.619,8.594 12.699,0 24.64,3.143 37.101,3.709 9.245,0.42 17.294,0.274 25.831,3.166 9.331,3.161 18.742,9.194 28.377,11.602 15.804,3.951 31.751,24.432 43.028,35.701 8.154,8.149 18.249,20.767 25.763,25.748 5.845,3.875 13.893,6.94 18.918,14.61 -1.084,-0.445 -2.416,-1.208 -3.439,-1.719 7.418,4.043 15.692,2.969 19.778,12.892 4.304,10.451 -4.379,13.36 -12.898,17.618 -33.08,16.53 -16.146,-20.644 -33.537,-27.071 -0.073,9.104 -0.752,34.761 -9.459,39.533 -3.754,2.058 -17.451,0.42 -20.637,-2.578 -6.644,-6.252 0.327,-6.787 1.72,-13.751 3.354,-16.771 -25.623,-11.584 -37.352,-12.757 -5.062,-0.507 -10.11,-1.896 -15.039,-3.127 -5.022,-1.254 -7.538,-6.054 -11.242,-7.32 -6.721,-2.298 -13.691,1.29 -20.637,-3.438 -4.804,23.411 -42.644,18.048 -59.906,18.048 -6.977,0 -13.859,10.313 -23.504,10.313 -7.449,0 -20.911,-1.011 -27.517,2.578 -10.283,5.586 -9.497,24.065 -24.077,24.065 -1.992,0 -4.032,0.129 -6.02,0 -8.972,-0.581 -5.744,-1.189 -12.039,-5.157 -1.383,-0.872 -4.759,0.996 -6.019,0 -2.53,-2 -0.551,-6.369 -4.3,-7.306 -5.143,-1.285 0.068,-12.064 3.44,-14.181 -3.477,-0.501 -6.713,-2.026 -9.459,-4.298 -10.943,11.702 -45.088,8.394 -34.4,-12.033 5.895,-11.267 19.467,-8.707 25.797,-18.906 0.39,2.478 1.979,4.665 2.58,6.875 0.122,-3.113 1.237,-5.838 1.72,-8.594 2.952,4.434 0.785,8.781 0,13.75 3.087,-3.031 3.643,-4.664 4.299,-8.594 2.38,6.405 -4.523,11.723 -0.859,18.049 0.346,-0.333 0.501,-1.432 0.859,-1.72 3.397,17.041 8.135,15.339 25.797,9.455"
       inkscape:connector-curvature="0" />
    <path
       style="clip-rule:evenodd;fill:#f7da4d;fill-rule:evenodd;stroke:#000000;stroke-width:0.75029999;stroke-linecap:square;stroke-miterlimit:10"
       id="path5"
       d="m 308.545,171.271 c 13.182,5.453 26.326,10.937 39.554,16.329 9.871,4.024 26.085,14.427 36.977,12.892 4.589,-0.646 12.591,-5.366 13.759,-10.313 0.019,-0.078 -2.574,-7.76 -2.581,-9.454 -0.023,-6.314 5.9,-13.673 0,-18.907 5.875,0.658 12.42,5.662 12.039,12.032 2.252,-2.255 3.059,-2.724 3.439,-6.875 1.562,14.775 0.16,20.046 -10.318,29.221 -12.263,10.737 -18.337,10.002 -34.638,5.559 -12.951,-3.529 -25.438,-11.647 -37.753,-16.923 -9.123,-3.908 -13.059,-7.939 -20.478,-13.561"
       inkscape:connector-curvature="0" />
    <path
       style="clip-rule:evenodd;fill-rule:evenodd"
       id="path7"
       d="m 84.971,240.025 c 9,-3.98 17.499,-12.802 25.797,-18.907 -4.056,4.207 -8.071,8.345 -13.759,11.173 9.239,-1.54 18.312,-2.43 27.517,-4.727 3.417,-0.854 14.122,-6.34 5.16,-6.446 3.195,-4.273 11.892,-4.749 12.899,-10.313 6.161,33.862 -35.863,12.835 -51.594,27.502 -8.797,8.202 -6.601,21.487 -21.498,21.487 -6.26,0 -11.734,1.745 -15.447,-3.82 -3.121,-4.68 -6.006,1.074 -8.821,-6.431 -1.539,-4.101 -6.41,-2.431 -3.249,-9.518 -0.126,3.909 1.854,7.356 5.159,9.454 2.866,-3.151 5.733,-6.303 8.599,-9.454 -1.72,4.011 -3.44,8.021 -5.16,12.032 7.692,5.973 10.418,-2.138 14.618,-7.734 -0.477,2.859 -3.285,9.867 -0.159,10.759 2.643,0.754 6.586,-0.672 7.898,-0.016 4.76,2.379 10.577,-12.482 12.04,-15.041"
       inkscape:connector-curvature="0" />
    <path
       style="clip-rule:evenodd;fill:#050000;fill-rule:evenodd"
       id="path9"
       d="m 36.816,217.681 c 1.525,7.652 1.01,14.781 11.179,14.61 -4.061,1.71 -8.025,-0.829 -11.179,-3.438 -6.369,6.813 -10.948,6.017 -18.758,6.017 -10.848,0 -15.166,0.014 -17.357,-12.032 1.715,9.652 10.11,9.753 11.179,0 5.43,10.854 8.779,11.086 12.039,-0.859 3.869,7.733 3.79,10.097 9.458,4.298 1.95,-1.997 3.471,-4.972 3.439,-8.596"
       inkscape:connector-curvature="0" />
    <path
       style="clip-rule:evenodd;fill-rule:evenodd"
       id="path11"
       d="m 292.207,246.901 c 15.621,4.469 31.822,-6.955 17.197,-18.908 1.037,1.332 1.728,4.492 2.58,6.017 -4.503,-0.141 -5.306,2.212 -3.438,6.016 -2.444,-0.433 -5.468,0.017 -8.6,0 1.475,0.717 2.639,1.84 4.299,2.579 -6.988,3.427 -7.442,-3.291 -12.038,-5.586 -5.298,-2.646 -4.345,7.639 0,9.882"
       inkscape:connector-curvature="0" />
    <path
       style="clip-rule:evenodd;fill-rule:evenodd"
       id="path13"
       d="m 331.762,237.448 c 8.567,5.435 43.252,-7.57 30.956,-17.188 3.93,8.004 -7.365,14.276 -11.179,5.156 -0.816,2.843 -1.644,5.597 -2.58,8.594 -2.024,-4.162 -2.425,-8.949 -6.88,-11.173 -0.111,3.969 7.453,12.307 0,13.752 -6.032,1.169 -3.71,-8.47 -7.738,-12.033 -0.628,3.531 0.589,7.029 2.58,9.454 -4.079,-0.928 -6.109,-4.925 -7.739,-8.594 -1.808,3.607 0.267,4.696 0.859,7.734 0.575,2.946 5.068,5.005 1.721,4.298"
       inkscape:connector-curvature="0" />
    <path
       style="clip-rule:evenodd;fill-rule:evenodd"
       id="path15"
       d="m 403.994,192.758 c 11.957,-1.939 8.139,-19.834 7.738,-24.924 -0.624,3.628 -1.416,3.99 -3.439,6.016 0.381,-6.371 -6.164,-11.375 -12.039,-12.032 9.03,8.011 -9.758,28.52 7.74,30.94"
       inkscape:connector-curvature="0" />
    <path
       style="clip-rule:evenodd;fill-rule:evenodd"
       id="path17"
       d="m 285.327,220.26 c -1.26,-4.176 -4.525,-7.344 -7.738,-10.314 -0.854,12.126 -23.774,5.536 -29.236,0.859 -0.468,13.047 26.368,9.006 36.974,9.455"
       inkscape:connector-curvature="0" />
    <path
       style="clip-rule:evenodd;fill:#050000;fill-rule:evenodd"
       id="path19"
       d="m 5.86,224.556 c -1.095,2.537 -1.876,4.385 -0.86,6.876 0.895,-2.158 0.914,-4.297 0.86,-6.876"
       inkscape:connector-curvature="0" />
    <path
       style="clip-rule:evenodd;fill:#050000;fill-rule:evenodd"
       id="path21"
       d="m 18.759,226.275 c -1.238,2.833 -2.626,4.067 0,6.875 0,-2.247 0.241,-4.642 0,-6.875"
       inkscape:connector-curvature="0" />
    <path
       style="clip-rule:evenodd;fill:#050000;fill-rule:evenodd"
       id="path23"
       d="m 341.221,234.869 c -1.382,-2.423 -2.238,-4.548 -1.721,-7.734 1.314,2.645 1.527,4.814 1.721,7.734"
       inkscape:connector-curvature="0" />
    <path
       style="clip-rule:evenodd;fill:#050000;fill-rule:evenodd"
       id="path25"
       d="m 358.418,227.135 c -2.444,-1.483 -4.087,-2.805 -3.439,-6.875 1.391,2.401 2.563,4.496 3.439,6.875"
       inkscape:connector-curvature="0" />
    <path
       style="clip-rule:evenodd;fill:#050000;fill-rule:evenodd"
       id="path27"
       d="m 28.218,225.416 c -0.094,1.995 0,4.019 0,6.016 1.392,-1.933 0.446,-3.417 0,-6.016"
       inkscape:connector-curvature="0" />
    <path
       style="clip-rule:evenodd;fill:#050000;fill-rule:evenodd"
       id="path29"
       d="m 306.825,238.307 c -2.807,-0.951 -4.821,-2.026 -6.879,-4.297 2.852,0.553 4.716,2.104 6.879,4.297"
       inkscape:connector-curvature="0" />
    <path
       style="clip-rule:evenodd;fill:#050000;fill-rule:evenodd"
       id="path31"
       d="m 42.836,245.183 c 1.056,-3.241 2.863,-6.493 6.019,-6.876 -1.883,2.656 -3.991,5.071 -6.019,6.876"
       inkscape:connector-curvature="0" />
    <path
       style="clip-rule:evenodd;fill:#050000;fill-rule:evenodd"
       id="path33"
       d="m 54.015,251.198 c 0.119,-3.489 1.842,-5.663 5.159,-6.016 -1.421,2.134 -3.098,4.371 -5.159,6.016"
       inkscape:connector-curvature="0" />
    <path
       style="clip-rule:evenodd;fill:#050000;fill-rule:evenodd"
       id="path35"
       d="m 66.053,257.214 c 0.933,-3.241 2.667,-5.874 5.159,-7.734 -1.186,2.969 -2.819,5.43 -5.159,7.734"
       inkscape:connector-curvature="0" />
    <path
       style="clip-rule:evenodd;fill:#f7da4d;fill-rule:evenodd;stroke:#000000;stroke-width:0.75029999;stroke-linecap:square;stroke-miterlimit:10"
       id="path37"
       d="m 100.449,20.871 c 1.305,-1.743 2.105,-4.729 2.58,-6.876 -2.31,1.218 -3.417,0.559 -5.16,2.579 0.897,-4.529 4.785,-7.627 1.72,-12.032 C 98.418,7.917 97.016,7.638 94.43,9.698 94.157,2.292 86.751,8.406 84.971,1.963 80.896,2.872 77.38,5.424 74.652,8.838 73.613,6.751 71.837,5.105 71.213,2.822 c 0.03,10.835 -12.805,7.396 -18.917,1.719 4.086,4.026 9.707,7.049 10.318,12.892 -4.716,-0.672 -9.931,-1.435 -12.039,-6.017 0.86,3.438 1.72,6.875 2.58,10.313 -2.866,-1.719 -5.732,-3.438 -8.599,-5.157 0,0.859 0,1.719 0,2.579 -4.268,-1.712 -9.257,-0.853 -12.898,1.719 3.215,1.992 5.06,3.218 7.739,5.157 -5.122,0.386 -10.805,1.188 -14.618,5.156 1.325,0.882 2.135,2.525 3.44,3.438 -4.199,2.098 -9.247,3.507 -11.179,6.875 4.084,-3.882 12.113,-3.243 17.198,-1.719 -6.592,-0.644 -13.209,2.448 -17.198,7.735 1.5,-0.74 2.968,-1.083 4.299,-1.719 C 13.176,55.524 3.181,65.645 4.141,79.312 5.466,77.609 7.012,76.738 8.44,75.015 7.109,80.551 7.926,86.374 5,91.345 6.704,90.441 8.415,90.293 10.16,88.766 7.498,90.66 5.792,94.254 4.141,97.36 c 0.573,0 1.146,0 1.72,0 -2.627,3.418 -5.485,6.632 -5.16,11.173 1.589,-0.758 3.597,-0.294 5.16,-0.86 -0.392,1.286 -0.446,2.866 -0.86,4.297 2.455,-1.479 2.036,-1.239 3.44,-3.438 -0.775,-0.203 -1.349,0.084 -1.72,0.859 2.845,-2.791 5.39,-5.083 8.599,-6.875 1.56,8.013 -7.601,12.244 -10.319,18.908 8.074,-3.539 3.583,17.472 5.16,23.205 1.206,-1.828 3.964,-3.843 5.159,-5.156 -0.537,7.949 -6.204,12.343 -7.739,19.767 3.491,-1.299 6.847,-3.93 9.458,-6.016 -3.895,2.971 -6.867,7.16 -7.739,12.033 4.141,-4.432 11.179,14.892 11.179,20.196 0,6.733 -4.275,16.219 -1.72,21.916 4.257,-2.263 6.886,-5.199 8.599,-9.454 0.439,3.224 1.628,4.82 3.44,6.875 0.122,-3.113 1.237,-5.838 1.72,-8.594 2.952,4.434 0.785,8.781 0,13.75 3.087,-3.031 3.643,-4.664 4.299,-8.594 2.38,6.405 -4.523,11.723 -0.859,18.049 0.346,-0.333 0.501,-1.432 0.859,-1.72 1.326,6.651 0.567,14.172 9.459,14.61 3.912,0.193 13.259,-3.489 16.338,-5.156 2.619,-1.418 7.805,-7.734 10.319,-7.734 7.711,0 15.902,-7.639 24.077,-8.596 7.596,-0.89 15.567,3.363 21.498,-3.437 0.4,2.912 1.885,4.248 2.58,6.875 1.137,-8.447 14.701,-4.896 14.618,-15.47 1.979,7.136 7.74,10.848 7.74,18.906 0,8.04 17.764,6.641 24.937,6.018 -6.327,-1.275 -11.427,-1.966 -16.338,-6.876 -1.276,-1.276 -2.357,-11.906 -5.159,-1.719 0.327,0.354 2.109,-0.185 2.581,0 -8.525,2.436 -1.39,-5.061 -1.721,-8.595 -0.311,-3.324 -4.814,-7.193 -5.159,-12.031 3.983,0.586 6.667,1.877 6.879,6.016 2.528,-5.778 -1.217,-12.611 0.859,-18.907 2.95,1.837 6.067,3.586 8.599,6.016 -2.523,-6.562 -8.897,-9.771 -11.179,-16.329 3.54,3.023 8.418,4.333 12.039,6.875 0.37,-0.388 0.631,-2.001 0.86,-2.578 0.279,0.44 1.256,1.81 1.719,2.578 1.406,-2.732 6.02,-7.195 6.02,-10.313 0,-3.71 -13.428,-7.669 -16.337,-12.032 7.918,7.779 15.34,1.404 19.777,5.157 -2.223,-4.937 -6.195,-8.508 -8.599,-13.751 -0.78,0.648 -0.634,0.694 -1.719,1.719 -0.456,-3.729 -0.002,-7.204 1.719,-10.313 1.436,2.287 3.214,3.603 4.3,6.016 2.081,-4.707 -0.809,-8.372 -1.72,-12.892 0.775,0.447 1.688,1.19 2.58,1.719 -0.998,-3.043 -2.497,-6.036 -4.299,-8.594 1.599,0.73 2.568,0.381 4.299,0.859 -6.319,-1.77 -10.393,-17.502 -18.058,-22.345 0.878,5.114 3.935,8.815 8.599,10.313 -1.509,-12.458 -11.145,-20.091 -18.917,-30.08 8.47,7.323 18.252,14.592 25.796,22.345 -2.625,-3.162 -7.809,-13.4 0,-11.172 -1.986,-5.929 -4.628,-10.967 -7.309,-16.33 -1.925,-3.85 -15.246,-3.483 -19.348,-4.297 7.214,-1.923 17.67,-4.179 24.938,-1.719 -7.681,-7.428 -19.095,-8.053 -27.517,-12.892 7.192,-2.437 16.167,-0.22 23.217,1.719 0.106,-3.608 0.496,-3.889 4.3,-6.016 -6.162,0.308 -12.432,-0.876 -18.058,-3.438 2.866,-3.724 5.733,-7.448 8.599,-11.172 -17.473,1.135 -14.44,-6.683 -16.339,-20.627 -3.153,1.146 -6.306,2.292 -9.459,3.438 -0.071,-2.018 -1.692,-4 -1.719,-6.016 -1.46,1.391 -3.803,1.955 -5.159,3.438 0.697,-2.16 0.173,-4.711 0.859,-6.876 -4.338,2.88 -10.704,3.998 -11.179,9.454 -0.95,-4.991 0.373,-9.868 4.3,-12.892 -7.804,0.562 -9.419,11.602 -15.481,10.314"
       inkscape:connector-curvature="0" />
    <path
       style="clip-rule:evenodd;fill:#ebb155;fill-rule:evenodd"
       id="path39"
       d="m 133.985,55.248 c -11.699,2.542 21.453,54.917 24.937,61.02 1.641,2.875 7.272,11.991 6.879,15.469 -0.514,4.554 -8.617,12.485 -11.178,16.33 -9.837,14.767 -18.75,30.231 -29.667,44.261 -11.263,14.474 -28.879,15.436 -46.435,19.336 -9.407,2.091 -13.546,3.609 -21.927,-1.719 -8.58,-5.454 -15.274,-14.963 -21.417,-22.855 -10.468,-13.45 -21.488,-35.221 -14.03,-52.615 6.101,-14.229 10.52,-24.633 13.949,-39.693 1.007,-4.421 1.593,-11.624 3.439,-16.329 3.036,-7.737 13.14,-13.437 14.618,-19.767 -2.955,0.746 -5.267,-1.921 -2.58,-5.157 1.003,-1.208 8.381,-1.872 10.319,-2.578 -4.285,-1.206 -8.833,-3.207 -12.898,-4.297 5.515,-1.837 13.038,-1.857 9.458,-9.454 5.387,3.231 13.435,7.277 7.739,-0.859 9.992,22.869 -19.316,39.248 -15.048,60.59 4.136,20.681 11.577,60.771 40.415,55.004 14.883,-2.977 15.082,-12.446 20.208,-24.495 4.351,-10.228 12.228,-14.322 15.908,-25.353 1.231,-3.69 0.045,-9.11 1.72,-12.461 1.649,-3.302 4.729,-8.368 4.729,-12.032 0,-8.909 -22.125,-10.87 -9.459,-20.627 2.864,-2.205 7.077,-2.707 10.321,-1.719"
       inkscape:connector-curvature="0" />
    <path
       style="clip-rule:evenodd;fill-rule:evenodd"
       id="path41"
       d="m 63.473,42.357 c -1.895,-1.3 -3.994,-2.424 -6.019,-3.438 1.347,1.505 1.005,1.96 1.72,3.438 -3.487,-0.259 -6.904,0.603 -9.458,2.578 1.152,0.648 3.624,2.5 2.58,1.719 3.285,-0.16 6.392,0.123 9.459,0.859 -2.121,-4.058 0.547,-3.068 1.718,-5.156"
       inkscape:connector-curvature="0" />
    <path
       style="clip-rule:evenodd;fill-rule:evenodd"
       id="path43"
       d="m 47.996,232.291 c -10.169,0.171 -9.654,-6.958 -11.179,-14.61 -0.358,0.288 -0.514,1.387 -0.859,1.72 -3.664,-6.326 3.24,-11.644 0.859,-18.049 -0.656,3.93 -1.212,5.563 -4.299,8.594 0.785,-4.969 2.952,-9.316 0,-13.75 -0.483,2.756 -1.598,5.48 -1.72,8.594 -1.812,-2.055 -3.001,-3.651 -3.44,-6.875 -1.712,4.255 -4.342,7.191 -8.599,9.454 -2.651,-5.91 2.123,-13.856 1.72,-20.627 -0.316,-5.314 -6.644,-26.34 -11.179,-21.485 0.872,-4.873 3.845,-9.062 7.739,-12.033 -2.612,2.086 -5.968,4.717 -9.458,6.016 1.535,-7.423 7.202,-11.818 7.739,-19.767 -1.195,1.313 -3.953,3.329 -5.159,5.156 -1.577,-5.732 2.915,-26.744 -5.16,-23.205 2.718,-6.664 11.879,-10.895 10.319,-18.908 -3.209,1.792 -5.754,4.085 -8.599,6.875 0.371,-0.775 0.944,-1.062 1.72,-0.859 -1.404,2.198 -0.985,1.958 -3.44,3.438 0.414,-1.431 0.469,-3.012 0.86,-4.297 -1.563,0.566 -3.57,0.102 -5.16,0.86 -0.326,-4.541 2.533,-7.754 5.16,-11.173 -0.573,0 -1.146,0 -1.72,0 C 5.792,94.254 7.498,90.659 10.16,88.766 8.415,90.293 6.704,90.44 5,91.345 7.926,86.374 7.109,80.552 8.44,75.015 7.011,76.739 5.465,77.609 4.141,79.312 3.182,65.645 13.177,55.524 21.338,45.794 c -1.331,0.635 -2.799,0.979 -4.299,1.719 3.989,-5.287 10.606,-8.378 17.198,-7.735 -1.935,-3.573 -1.887,-7.423 1.72,-9.454 -3.447,8.287 3.626,-1.256 6.019,0 3.573,1.876 4.19,6.04 6.02,9.454 -3.795,0.335 -7.586,-0.198 -11.179,-0.859 0.701,5.092 6.028,6.068 10.319,7.734 -3.71,0.692 -5.17,0.984 -8.599,1.719 0.54,1.749 -3.949,8.108 -2.579,8.594 2.677,0.95 6.662,-5.169 10.318,-5.157 -0.562,3.273 0.222,3.472 1.72,6.876 2.107,-0.888 3.529,-1.331 6.879,-1.719 -1.372,-0.936 -1.533,-1.135 -2.58,-1.719 2.382,-0.676 4.909,-1.178 7.739,-0.859 0.23,1.817 -0.268,0.618 0.859,3.438 -4.01,2.933 -7.548,6.597 -11.178,9.454 -5.672,4.464 -7.008,5.446 -9.459,12.032 3.203,-2.499 3.201,-1.581 6.019,-4.297 0,6.992 0.678,15.168 -6.879,18.049 3.058,0.963 6.006,2.892 7.739,5.156 -7.477,1.096 -14.061,7.801 -18.058,14.61 5.103,-3.261 10.766,-6.049 16.338,-8.595 -0.858,6.95 -11.521,15.785 -17.198,19.767 5.134,-5.269 13.272,-11.294 19.778,-13.75 -7.359,9.51 -19.022,14.911 -25.797,24.923 6.833,-6.191 15.407,-11.341 23.217,-16.329 -8,8.805 -18.639,14.402 -26.657,23.205 7.695,-4.262 18.322,-16.295 27.517,-13.751 -9.541,1.943 -20.232,12.813 -18.918,23.205 3.028,-8.819 11.812,-13.549 16.338,-21.486 -0.151,3.56 -1.432,6.298 -3.01,9.454 -2.171,4.342 0.429,4.527 0.43,9.454 0,-0.307 -4.518,8.462 -0.859,6.876 3.481,-1.509 4.583,-6.573 6.019,-9.454 -2.81,12.615 1.297,25.566 -2.58,38.674 5.571,-10.328 1.979,-24.33 8.599,-32.658 -0.101,2.616 1.294,6.092 1.72,9.453 0.119,-2.099 1.312,-3.537 1.72,-6.016 5.339,3.353 4.3,10.232 4.3,16.329 0,13.929 7.856,25.478 3.439,40.394 6.713,-13.322 8.484,-30.446 5.16,-44.691 -3.126,6.607 -2.58,13.489 -2.58,20.626 -4.164,-10.28 -1.197,-21.088 4.299,-30.08 1.702,13.101 2.611,28.677 6.879,41.253 -1.189,-8.605 -3.208,-27.464 4.3,-32.658 0.505,5.283 -0.873,10.229 -0.86,15.469 2.741,-7.605 6.02,-8.902 6.02,-18.047 0.814,8.153 2.727,16.387 3.439,24.923 0.6,-7.6 7.7,-7.941 10.319,-12.032 2.662,-4.157 1.695,-12.233 4.299,-17.189 4.912,11.5 11.196,31.723 2.58,42.972 5.382,-4.39 7.928,-13.155 8.6,-19.767 -0.607,1.706 -1.629,2.673 -2.58,4.297 -1.173,-8.478 0.12,-16.44 0,-24.923 4.195,8.145 1.962,18.852 5.159,27.501 -0.019,-11.54 0,-23.077 0,-35.237 -0.402,10.171 3.977,19.964 3.44,30.081 -0.593,-8.654 7.634,-17.799 6.02,-24.064 0.928,1.636 1.928,2.606 2.579,4.297 -2.681,-7.591 -10.252,-12.164 -12.898,-19.768 5.062,5.468 13.719,9.35 17.198,15.47 -0.626,-7.88 -5.973,-15.297 -5.159,-23.205 3.92,5.783 16.268,13.361 16.338,18.907 2.566,-3.843 3.519,-8.038 0.859,-12.032 -0.272,1.476 -0.453,2.17 -0.859,3.438 -6.224,-7.595 -12.438,-14.516 -17.199,-23.205 5.833,6.3 13.872,10.046 19.778,16.329 -1.891,-6.077 -4.185,-12.187 -6.879,-18.048 3.72,1.341 6.848,4.415 7.74,8.594 2.481,-0.637 22.756,0.79 9.458,-6.016 1.283,2.736 0.546,2.655 0.86,5.157 -3.305,-8.75 -14.757,-9.957 -19.777,-17.189 5.459,4.224 13.189,7.164 19.777,8.594 -2.925,-5.511 -9.683,-8.813 -13.758,-13.75 -0.68,-0.824 -1.931,-5.031 -2.58,-6.017 -1.47,-2.233 -4.777,-3.335 -6.019,-6.016 3.616,-0.705 6.487,0.419 8.599,3.438 -2.136,-4.973 -3.699,-11.054 -6.019,-16.33 7.772,9.989 17.408,17.623 18.917,30.08 -4.664,-1.498 -7.721,-5.199 -8.599,-10.313 7.666,4.842 11.739,20.575 18.058,22.345 -1.73,-0.478 -2.7,-0.128 -4.299,-0.859 1.802,2.558 3.301,5.551 4.299,8.594 -0.892,-0.529 -1.805,-1.272 -2.58,-1.719 0.911,4.52 3.801,8.185 1.72,12.892 -1.085,-2.414 -2.864,-3.729 -4.3,-6.016 -1.721,3.109 -2.175,6.583 -1.719,10.313 1.085,-1.025 0.939,-1.071 1.719,-1.719 2.404,5.243 6.375,8.815 8.599,13.751 -4.437,-3.753 -11.859,2.623 -19.777,-5.157 3.488,5.23 14.725,6.935 16.337,11.173 1.101,2.894 -4.85,8.9 -6.02,11.172 -0.463,-0.768 -1.44,-2.137 -1.719,-2.578 -0.229,0.577 -0.491,2.19 -0.86,2.578 -3.62,-2.542 -8.499,-3.852 -12.039,-6.875 2.281,6.558 8.656,9.768 11.179,16.329 -2.532,-2.43 -5.649,-4.179 -8.599,-6.016 -2.076,6.296 1.669,13.129 -0.859,18.907 -0.213,-4.139 -2.896,-5.43 -6.879,-6.016 0.345,4.838 4.848,8.707 5.159,12.031 0.331,3.534 -6.804,11.03 1.721,8.595 -0.472,-0.185 -2.254,0.354 -2.581,0 2.802,-10.188 3.883,0.442 5.159,1.719 4.912,4.91 10.012,5.601 16.338,6.876 -7.173,0.623 -24.937,2.022 -24.937,-6.018 0,-8.059 -5.761,-11.771 -7.74,-18.906 0.083,10.573 -13.481,7.022 -14.618,15.47 -0.695,-2.627 -2.18,-3.963 -2.58,-6.875 -4.403,5.05 -8.178,3.431 -13.758,3.437 -7.096,0.008 -12.774,0.586 -19.778,3.438 -13.199,5.379 -24.227,12.171 -36.974,18.051"
       inkscape:connector-curvature="0" />
    <path
       style="clip-rule:evenodd;fill-rule:evenodd"
       id="path45"
       d="m 103.888,139.473 c 2.445,-2.53 4.366,-5.401 5.16,-8.594 1.062,2.271 2.281,4.604 3.44,6.875 -8.746,-2.571 0.909,15.455 2.58,19.767 -1.965,-6.021 -4.825,-10.185 -10.319,-12.892 0.403,2.936 0.728,5.663 1.72,7.735 -0.523,-1.801 -0.506,-3.245 -0.86,-5.157 2.648,3.228 3.549,7.564 1.72,11.173 -1.068,-2.703 -3.302,-5.13 -4.299,-7.735 -2.129,3.453 -1.995,7.82 -1.72,12.033 -1.044,-3.297 -2.958,-7.285 -5.159,-10.313 -1.127,1.375 -0.659,1.752 -0.86,3.438 -0.491,-0.553 -1.89,-2.361 -2.58,-2.579 -0.198,2.381 -0.326,5.371 0,7.735 0.563,-1.03 1.238,-2.349 1.72,-3.438 0.267,3.718 -1.407,7.058 -4.299,9.454 1.821,-4.94 -2.346,-7.693 -1.72,-12.892 -2.265,5.521 -2.676,12.257 -4.299,18.048 -0.688,-5.513 1.755,-12.979 -0.86,-18.048 0.349,-0.148 -1.578,2.434 -1.72,2.578 -0.417,-1.861 -0.406,-1.841 -1.72,-3.438 -1.266,2.992 -2.359,5.725 -3.439,8.594 1.046,-1.369 1.418,-1.656 2.58,-2.578 -1.554,6.076 -3.163,11.47 -3.44,18.048 -1.303,-8.071 -0.684,-16.783 -3.439,-24.064 -1.209,1.243 -2.351,1.472 -3.44,2.579 0.253,-2.242 -0.391,-4.657 0,-6.876 -2.911,4.374 -5.197,9.382 -5.16,14.61 -0.618,-7.293 2.251,-14.234 2.58,-21.485 -0.86,-0.287 -1.147,0 -0.86,0.859 -0.161,-0.699 -1.298,-3.584 -1.72,-4.297 -3.242,4.363 -6.225,8.725 -8.599,13.751 0.579,-5.866 5.312,-10.429 6.019,-16.33 -1.241,2.208 -2.98,3.857 -4.299,6.016 -0.417,-6.095 1.725,-11.238 1.72,-17.188 -1.383,0.364 -2.258,0.866 -3.439,1.719 0.573,0 1.146,0 1.72,0 -2.708,3.539 -5.542,6.383 -6.879,10.313 0.908,-5.896 8.073,-12.992 6.019,-18.048 -0.371,0.775 -0.944,1.062 -1.72,0.859 0.573,0 1.146,0 1.72,0 -2.066,2.146 -4.061,5.113 -5.16,7.734 -0.424,-3.109 1.103,-6.148 2.58,-9.453 -2.325,-1.113 -3.292,-1.115 -2.58,-6.016 -0.371,0.776 -0.944,1.062 -1.72,0.859 0.53,-2.436 1.262,-4.788 2.58,-6.875 -0.103,7.973 7.715,15.42 11.179,22.345 2.541,5.08 2.739,13.31 6.019,17.188 8.61,10.184 33.737,8.77 35.253,-6.014"
       inkscape:connector-curvature="0" />
    <path
       style="clip-rule:evenodd;fill-rule:evenodd"
       id="path47"
       d="m 67.772,56.107 c -2.144,6.241 -6.438,11.186 -10.318,16.33 5.524,1.79 -6.769,12.525 -7.739,17.188 0.775,0.203 1.349,-0.084 1.719,-0.859 -1.851,5.356 0.231,8.972 1.72,13.75 0.084,-0.001 -3.641,-0.021 -3.439,0 0.31,-4.187 -1.3,-6.262 0.859,-10.313 -0.729,-0.103 -1.903,0.276 -2.579,0 0.449,-5.878 5,-10.687 5.159,-16.329 0.646,0.729 1.19,1.109 1.72,2.579 0.609,-0.903 1.372,-3.306 1.72,-4.297 -2.845,0.11 -3.917,-0.965 -6.879,0 1.701,-2.392 3.388,-4.542 6.019,-6.016 -0.097,0.563 -0.697,1.734 -0.86,2.578 3.474,-2.25 3.948,-6.432 5.16,-7.735 2.523,-2.714 5.855,-3.243 7.738,-6.876"
       inkscape:connector-curvature="0" />
    <path
       style="clip-rule:evenodd;fill-rule:evenodd"
       id="path49"
       d="m 114.207,123.144 c 8.877,3.146 8.605,11.896 10.319,18.907 -3.406,-5.464 -8.249,-13.482 -10.319,-18.907"
       inkscape:connector-curvature="0" />
    <path
       style="clip-rule:evenodd;fill-rule:evenodd"
       id="path51"
       d="m 132.265,114.549 c 6.005,1.968 7.09,8.276 7.74,13.75 -1.67,-5.688 -3.978,-9.289 -7.74,-13.75"
       inkscape:connector-curvature="0" />
    <path
       style="clip-rule:evenodd;fill:#b5660a;fill-rule:evenodd"
       id="path53"
       d="M 38.536,56.107 C 29.551,62.072 24.131,69.774 17.038,77.593 25.005,71.636 30.214,61.185 38.536,56.107"
       inkscape:connector-curvature="0" />
    <path
       style="clip-rule:evenodd;fill:#b5660a;fill-rule:evenodd"
       id="path55"
       d="M 38.536,66.42 C 30.439,70.498 19.763,78.294 17.038,87.047 22.355,79.708 30.68,70.895 38.536,66.42"
       inkscape:connector-curvature="0" />
    <path
       style="clip-rule:evenodd;fill:#b5660a;fill-rule:evenodd"
       id="path57"
       d="m 42.836,73.296 c -6.34,1.9 -15.769,6.873 -18.918,12.892 5.29,-5.15 12.905,-10.404 18.918,-12.892"
       inkscape:connector-curvature="0" />
    <path
       style="clip-rule:evenodd;fill:#b5660a;fill-rule:evenodd"
       id="path59"
       d="m 29.077,101.658 c -7.453,2.554 -15.12,9.985 -18.058,17.188 5.087,-5.083 11.899,-15.143 18.058,-17.188"
       inkscape:connector-curvature="0" />
    <path
       style="clip-rule:evenodd;fill:#b5660a;fill-rule:evenodd"
       id="path61"
       d="m 33.376,111.111 c -11.517,1.895 -16.81,17.815 -21.497,26.643 5.026,-8.195 12.58,-23.678 21.497,-26.643"
       inkscape:connector-curvature="0" />
    <path
       style="clip-rule:evenodd;fill:#b5660a;fill-rule:evenodd"
       id="path63"
       d="m 40.256,143.77 c -8.5,7.486 -10.808,21.198 -12.899,31.799 8.429,-7.867 8.217,-21.805 12.899,-31.799"
       inkscape:connector-curvature="0" />
    <path
       style="clip-rule:evenodd;fill:#b5660a;fill-rule:evenodd"
       id="path65"
       d="m 56.594,169.553 c -9.265,6.546 -5.925,28.391 -6.879,38.675 1.516,-9.1 -0.867,-33.694 6.879,-38.675"
       inkscape:connector-curvature="0" />
    <path
       style="clip-rule:evenodd;fill:#b5660a;fill-rule:evenodd"
       id="path67"
       d="M 35.957,86.188 C 29.838,89.509 25.015,92.173 20.478,97.361 24.723,92.948 30.535,88.947 35.957,86.188"
       inkscape:connector-curvature="0" />
    <path
       style="clip-rule:evenodd;fill:#b5660a;fill-rule:evenodd"
       id="path69"
       d="m 136.565,154.083 c 8.22,2.902 8.901,14.853 12.899,21.486 -1.378,-8.903 -5.026,-16.884 -12.899,-21.486"
       inkscape:connector-curvature="0" />
    <path
       style="clip-rule:evenodd;fill:#b5660a;fill-rule:evenodd"
       id="path71"
       d="m 124.526,166.115 c 7.027,3.037 10.015,13.979 12.899,20.626 -6.804,-5.425 -8.452,-13.724 -12.899,-20.626"
       inkscape:connector-curvature="0" />
    <path
       style="clip-rule:evenodd;fill:#b5660a;fill-rule:evenodd"
       id="path73"
       d="m 90.99,174.709 c 8.808,2.959 6.879,17.558 6.879,24.924 -4.827,-7.71 -0.576,-17.84 -6.879,-24.924"
       inkscape:connector-curvature="0" />
    <path
       style="clip-rule:evenodd;fill:#eba12b;fill-rule:evenodd"
       id="path75"
       d="m 114.207,61.264 c -1.272,-1.931 -3.013,-3.547 -5.159,-4.297 0.225,1.683 -0.277,3.483 0,5.157 -2.926,-1.029 -5.29,-3.14 -6.879,-6.017 0.82,2.299 0.078,1.39 0,3.438 -0.046,-0.03 3.318,1.312 1.719,0 0.288,1.88 0.047,4.111 0,6.016 -3.126,-5.256 -15.324,-2.513 -9.458,-12.032 -1.528,1.479 -2.631,1.458 -4.299,2.578 -2.619,-4.329 -8.398,2.254 -8.599,6.875 -0.451,-3.875 0.617,-7.64 3.439,-10.313 -4.599,0.016 -7.191,-4.044 -10.319,-6.016 -0.141,-1.681 -2.705,-4.519 -6.019,-6.016 5.54,-3.309 15.3,5.742 16.338,0 1.6,-8.853 -16.035,-11.196 -12.898,-20.627 0.968,1.864 2.459,3.365 3.439,5.157 C 75.327,18.309 68.5,15.04 64.333,12.276 c 4.216,0.781 8.093,-2.163 6.879,-7.734 1.095,2.455 2.946,4.524 4.299,6.875 2.091,-3.657 5.878,-5.678 9.459,-7.735 -1.205,3.746 9.625,11.549 12.039,3.438 3.614,4.259 -1.385,7.797 -0.859,12.032 1.522,-1.981 1.53,-1.248 4.299,-2.579 -3.49,7.023 -0.87,13.826 5.159,18.907 -2.308,-4.299 -0.699,-9.581 -3.439,-13.75 4.474,-2.279 6.547,-8.997 12.898,-9.454 -6.637,5.567 -4.807,10.525 -3.44,18.048 1.633,-2.385 2.604,-2.601 4.3,-4.297 -2.096,2.562 -2.278,5.609 -0.86,8.594 0.83,-1.023 0.991,-1.49 1.719,-2.578 0.942,2.281 2.132,3.167 1.72,6.876 2.285,-4.706 7.087,-5.667 12.039,-5.157 -3.525,2.195 -7.34,4.029 -9.459,7.735 3.495,-1.197 7.814,-1.733 9.459,0.86 2.711,-0.854 5.441,-0.809 8.599,-0.86 -8.573,4.485 -16.36,13.644 -24.937,19.767"
       inkscape:connector-curvature="0" />
    <path
       style="clip-rule:evenodd;fill-rule:evenodd"
       id="path77"
       d="m 132.265,48.373 c 8.021,-3.98 21.804,7.731 31.817,6.875 -4.012,2.243 -3.764,2.538 -4.3,6.016 -7.049,-1.938 -16.024,-4.155 -23.217,-1.719 0.931,0.582 2.44,1.218 3.44,1.719 -6.735,1.65 -13.763,-6.681 -20.638,0.86 6.134,-0.633 8.396,5.087 13.758,6.016 -0.552,-1.143 -1.132,-2.262 -1.719,-3.438 4.433,0.388 7.281,4.082 10.318,6.875 -1.099,-2.028 -1.371,-4.83 -2.58,-6.875 8.283,1.016 18.227,2.924 24.938,7.735 -7.267,-2.46 -17.723,-0.205 -24.938,1.719 4.102,0.814 17.423,0.447 19.348,4.297 2.681,5.362 5.323,10.4 7.309,16.33 -7.809,-2.228 -2.625,8.01 0,11.172 -5.764,-5.519 -12.517,-10.814 -18.918,-16.33 3.714,1.744 7.795,3.265 11.179,5.157 -3.254,-4.468 -8.915,-5.39 -12.899,-9.454 2.555,-0.743 2.897,-0.634 5.159,0 -0.827,0.538 -1.643,0.876 -2.58,1.719 2.648,0.314 5.944,0.255 8.599,0 -3.752,-7.881 -20.498,-8.16 -25.797,-18.048 0.345,1.945 0.221,3.254 0.86,5.157 -0.713,-0.235 -1.584,-1.83 -2.581,-1.719 3.802,6.425 8.133,12.257 11.18,20.626 -6.505,-11.378 -12.781,-4.04 -3.44,6.016 -1.535,-0.183 -1.221,-0.297 -2.58,-0.859 2.448,4.435 6.391,7.052 7.739,12.032 -3.841,-2.836 -7.744,-5.632 -11.179,-8.594 1.118,4.029 -0.706,9.318 -1.72,13.75 -0.483,-2.644 -1.375,-4.887 -1.719,-7.735 -2.828,2.9 -4.573,6.29 -4.3,10.313 -2.938,-1.159 -6.419,-0.794 -9.458,0.859 4.462,-2.896 7.681,-6.789 8.599,-12.032 -0.081,1.427 0.053,2.868 0,4.297 1.821,-4.635 8.92,-19.524 0,-18.047 0.816,-2.843 1.643,-5.598 2.58,-8.595 -0.872,1.273 -2.377,2.314 -3.44,3.438 -0.144,-4.618 -1.185,-8.986 -3.439,-12.892 3.976,-2.148 1.551,-0.047 2.58,-2.578 4.164,0.689 6.813,4.72 8.599,8.594 0.335,-0.618 0.048,-2.716 0,-3.438 0.286,0.185 1.945,1.718 2.581,1.719 -3.183,-5.408 -11.88,-8.423 -12.899,-15.469 -1.257,-8.686 7.818,-11.479 13.758,-15.469"
       inkscape:connector-curvature="0" />
    <path
       style="clip-rule:evenodd;fill:#050000;fill-rule:evenodd"
       id="path79"
       d="m 125.387,52.67 c -2.544,1.247 -4.563,0.796 -6.02,3.438 -0.178,-1.763 -1.19,-3.715 -0.86,-6.016 -2.12,11.054 -12.192,-8.425 -18.058,-8.594 2.244,1.494 3.219,3.293 5.159,5.157 -1.673,-0.263 -3.494,0.306 -5.159,0 2.134,1.727 4.662,3.856 6.879,6.016 -0.482,-1.471 -0.345,-2.888 -0.86,-4.297 2.933,4.613 9.309,5.793 8.599,12.032 3.44,-2.579 6.88,-5.158 10.32,-7.736"
       inkscape:connector-curvature="0" />
    <path
       style="clip-rule:evenodd;fill-rule:evenodd"
       id="path81"
       d="m 78.952,133.457 c -2.73,3.418 -6.818,5.136 -11.179,4.297 2.563,3.143 13.446,-2.552 17.198,-2.579 3.767,-0.027 16.139,7.096 18.058,2.579 -4.036,1.292 -15.883,-3.001 -16.338,-7.735 -0.763,-7.939 15.479,-9.342 12.039,-13.75 -1.822,3.27 -6.156,1.287 -7.739,-2.579 -1.146,2.622 -2.184,0.985 -1.72,4.297 -4.195,0.21 -11.469,-1.422 -16.338,-2.579 2.209,10.049 12.096,6.305 12.898,18.048 -2.13,0.001 -4.805,0.444 -6.879,0.001"
       inkscape:connector-curvature="0" />
    <path
       style="clip-rule:evenodd;fill:#ffe087;fill-rule:evenodd"
       id="path83"
       d="m 68.633,59.545 c -3.101,5.105 -10.588,13.301 -10.319,19.767 0.342,8.213 7.281,6.125 13.759,11.173 -1.01,-1.159 -1.865,-2.006 -2.58,-2.579 3.059,-1.645 0.987,-2.772 5.159,-1.719 -1.534,-8.443 6.622,-9.366 3.87,-17.618 -1.159,-3.475 -1.81,-19.891 -9.889,-9.024"
       inkscape:connector-curvature="0" />
    <path
       style="clip-rule:evenodd;fill:#590019;fill-rule:evenodd"
       id="path85"
       d="m 74.652,111.971 c -6.173,0.956 -6.368,7.769 0,8.594 -8.89,3.327 -2.632,-13.161 -3.439,-18.048 -0.119,2.742 -1.24,7.712 -5.159,9.454 1.69,-2.675 1.298,-5.868 2.58,-8.594 1.134,-2.413 4.975,-6.103 5.159,-8.594 0.562,-7.598 -7.24,-7.884 -12.038,-11.173 0,0.573 0,1.146 0,1.719 -0.831,-0.712 -1.623,-2.059 -2.58,-2.579 2.374,-2.522 5.406,-3.601 8.599,-2.578 -1.552,-3.108 -0.78,-5.713 1.72,-7.735 -0.03,2.034 1.11,4.328 0.86,6.875 1.727,-1.284 4.339,-2.089 6.02,-3.438 -6.841,4.075 -1.228,10.331 -0.86,16.329 0.301,4.955 -6.377,14.981 -0.862,19.768"
       inkscape:connector-curvature="0" />
    <path
       style="clip-rule:evenodd;fill:#ffe087;fill-rule:evenodd"
       id="path87"
       d="m 91.85,60.405 c 0.793,1.712 1.216,5.593 0.86,8.594 -0.625,-1.093 -1.209,-2.287 -1.72,-3.438 -0.718,3.059 -0.641,5.289 0,8.594 1.854,-2.436 2.569,-2.082 3.439,-5.157 1.129,2.434 1.202,0.813 0.86,3.438 0.704,-0.588 2.334,-0.974 3.44,-0.86 0.203,-0.776 -0.084,-1.349 -0.86,-1.719 1.967,-0.328 4.902,-0.272 6.879,0 -3.882,4.387 0.52,6.011 -2.58,10.313 -0.364,-1.81 -1.827,-2.889 -1.72,-6.016 -5.36,0.738 -8.19,4.628 -10.319,9.454 1.224,-0.561 2.011,-1.269 2.58,-1.719 -1.471,2.672 -3.947,4.457 -6.879,5.157 -0.486,-1.002 -1.027,-1.536 -1.719,-2.579 -1.123,2.158 -2.913,2.604 -4.3,4.297 -1.15,-2.385 -2.422,-5.248 -3.439,-7.735 0.773,0.452 2.57,1.301 3.439,1.719 5.45,-3.357 5.179,-9.531 0,-13.751 4.309,-2.091 5.564,-6.475 7.739,-11.173 0.796,4.194 1.552,4.327 4.3,2.581"
       inkscape:connector-curvature="0" />
    <path
       style="clip-rule:evenodd;fill:#ffe087;fill-rule:evenodd"
       id="path89"
       d="m 117.647,70.718 c -2.594,-1.795 -4.918,-5.106 -6.879,-7.735 -0.162,1.558 -0.827,2.47 -0.86,4.297 -0.734,-1.981 -2.596,-3.324 -3.439,-5.156 -1.507,6.556 -5.095,4.354 -9.459,6.016 3.006,0.115 5.493,0.992 8.599,0.859 -2.482,4.404 1.88,6.198 0,10.313 -2.108,4.613 -7.086,0.458 -6.879,6.875 0.402,12.456 15.211,-1.586 18.917,-2.578 -2.706,-2.801 -4.758,-5.732 -5.159,-9.454 0.92,1.585 2.314,2.849 3.44,4.297 -0.72,-3.439 0.648,-5.106 1.719,-7.734"
       inkscape:connector-curvature="0" />
    <path
       style="clip-rule:evenodd;fill:#590019;fill-rule:evenodd"
       id="path91"
       d="m 117.647,84.469 c -7.188,1.058 -12.62,-4.497 -17.198,2.579 -3.986,6.161 3.964,12.421 -0.86,18.048 4.766,1.149 6.13,-3.72 6.879,-7.735 -0.556,1.378 -1.847,2.8 -2.58,4.297 -3.636,-8.261 3.393,-17.546 13.759,-17.189"
       inkscape:connector-curvature="0" />
    <path
       style="clip-rule:evenodd;fill:#faf8a5;fill-rule:evenodd"
       id="path93"
       d="m 72.073,87.047 c -0.442,-13.195 -13.501,1.199 0,0"
       inkscape:connector-curvature="0" />
    <path
       style="clip-rule:evenodd;fill:#faf8a5;fill-rule:evenodd"
       id="path95"
       d="m 102.169,89.625 c 0.085,-4.4 3.429,-6.121 7.739,-5.156 -1.244,3.597 -3.827,5.385 -7.739,5.156"
       inkscape:connector-curvature="0" />
    <path
       style="clip-rule:evenodd;fill-rule:evenodd;stroke:#4d1a00;stroke-width:0.75029999;stroke-linecap:square;stroke-miterlimit:10"
       id="path97"
       d="m 68.633,85.329 c 6.099,-5.383 -5.653,-4.893 0,0"
       inkscape:connector-curvature="0" />
    <path
       style="clip-rule:evenodd;fill-rule:evenodd;stroke:#4d1a00;stroke-width:0.75029999;stroke-linecap:square;stroke-miterlimit:10"
       id="path99"
       d="m 105.608,88.766 c 5.738,-6.108 -6.149,-5.835 0,0"
       inkscape:connector-curvature="0" />
    <path
       style="clip-rule:evenodd;fill-rule:evenodd"
       id="path101"
       d="m 110.768,84.469 c -13.51,-5.33 -5.001,13.188 -1.72,0.86 0.318,4.417 -7.087,4.881 -8.599,10.313 0.404,-6.163 0.258,-15.985 10.319,-11.173"
       inkscape:connector-curvature="0" />
    <path
       style="clip-rule:evenodd;fill-rule:evenodd"
       id="path103"
       d="m 63.473,81.891 c 4.131,-1.957 8.055,-0.14 9.459,4.297 -3.703,0.68 -6.769,-0.443 -8.599,-3.438 1.18,4.865 7.754,4.26 10.318,9.454 C 73.636,86.201 72.092,75.792 63.473,81.891"
       inkscape:connector-curvature="0" />
    <path
       style="clip-rule:evenodd;fill:#ffe087;fill-rule:evenodd"
       id="path105"
       d="m 58.314,116.268 c 1.534,3.376 3.842,6.01 5.159,9.453 1.243,3.249 -0.708,7.696 2.58,10.313 5.806,4.622 11.377,-5.029 18.058,-4.297 0.606,-7.688 -5.121,-5.564 -8.6,-9.454 5.245,3.417 5.839,8.595 -2.58,8.595 -6.406,0 -11.424,-10.091 -14.617,-14.61"
       inkscape:connector-curvature="0" />
    <path
       style="clip-rule:evenodd;fill:#ffe087;fill-rule:evenodd"
       id="path107"
       d="m 101.309,119.706 c -8.461,2.008 -18.451,8.399 -8.599,13.321 10.066,5.028 19.979,1.614 19.778,-13.321 -1.982,3.316 -7.937,12.827 -12.039,12.032 -8.641,-1.675 -1.277,-9.973 0.86,-12.032"
       inkscape:connector-curvature="0" />
    <path
       style="clip-rule:evenodd;fill:#ffe087;fill-rule:evenodd"
       id="path109"
       d="m 102.169,142.051 c -3.869,0.631 -7.732,-0.445 -10.319,-3.438 1.465,1.832 1.621,2.673 3.44,4.297 -3.335,-1.18 -4.19,-1.84 -6.02,-5.156 0.286,2.617 0.115,4.605 0.86,6.875 -1.774,-2.389 -3.197,-3.543 -4.3,-6.016 -1.265,2.46 -2.942,4.448 -4.299,6.875 0.447,-2.762 -0.731,-5.545 -0.86,-7.734 -1.732,1.89 -3.521,3.072 -5.16,5.156 1.274,-1.984 1.021,-2.246 1.72,-4.297 -2.438,2.884 -5.391,4.011 -7.739,2.579 2.737,14.798 27.564,11.643 32.677,0.859"
       inkscape:connector-curvature="0" />
    <path
       style="clip-rule:evenodd;fill-rule:evenodd"
       id="path111"
       d="M 103.029,38.919 C 91.695,34.275 89.27,25.994 89.27,14.855 c -6.451,5.462 -1.515,17.016 3.44,22.345 -3.7,-2.917 -7.493,-7.154 -8.599,-12.032 -0.663,5.544 0.958,12.2 4.299,16.329 -2.638,-3.729 -5.872,-8.224 -8.6,-11.172 0.84,5.284 1.184,12.056 4.3,16.329 -3.007,-2.191 -6.025,-3.862 -9.459,-4.297 5.22,7.738 7.417,5.752 16.338,5.156 8.343,-0.557 11.268,0.149 17.198,6.016 -1.792,-2.595 -3.003,-5.633 -3.44,-8.594 3.358,2.023 6.083,4.925 10.319,5.156 -1.775,-3.583 -0.135,-7.439 3.439,-9.453 -5.883,0.419 -9.202,-4.956 -9.459,-10.313 -1.508,3.617 -0.939,7.739 0,11.172 -3.713,-3.332 -10.05,-10.862 -10.318,-12.892 0.338,3.792 1.882,7.275 4.301,10.314"
       inkscape:connector-curvature="0" />
    <path
       style="clip-rule:evenodd;fill:#eba12b;fill-rule:evenodd"
       id="path113"
       d="m 234.593,152.364 c 6.32,7.587 26.618,22.255 22.357,34.377 -2.735,7.782 -21.589,12.986 -27.517,18.907 -4.769,4.763 -14.979,0.289 -20.638,-0.859 4.465,-3.563 6.231,-10.237 6.88,-15.47 -0.809,7.705 -10.452,8.004 -13.329,13.751 -2.571,5.136 -1.065,8.589 -7.15,12.064 -6.212,3.548 -12.473,5.18 -19.454,6.574 -10.329,2.063 -20.882,-0.037 -29.72,-4.459 -5.104,-2.553 -1.079,-11.064 -4.299,-16.758 25.173,11.076 54.526,3.392 71.371,-17.188 3.902,3.946 6.951,8.479 4.3,13.75 8.79,0.192 25.604,-6.084 27.946,-15.469 2.366,-9.465 -10.207,-19.451 -10.747,-29.22"
       inkscape:connector-curvature="0" />
    <path
       style="clip-rule:evenodd;fill-rule:evenodd"
       id="path115"
       d="m 248.352,148.926 c -4.443,2.241 -9.567,2.321 -13.759,-0.859 3.004,3.485 2.565,7.211 4.3,11.172 2.827,6.457 8.914,10.987 12.038,17.188 9.353,18.565 -13.697,18.915 -22.357,30.08 17.693,-14.333 37.587,-10.133 57.996,-13.527 9.085,-1.512 11.997,8.371 20.255,8.371 5.052,0 10.513,2.353 12.038,6.876 5.012,-11.51 -25.988,-14.996 -32.676,-18.908 -6.141,-3.593 -19.053,-30.08 -23.217,-20.626 -7.063,-7.06 -13.627,-11.107 -22.358,-15.47 2.617,-0.543 7.186,-3.915 7.74,-4.297"
       inkscape:connector-curvature="0" />
    <path
       style="clip-rule:evenodd;fill-rule:evenodd"
       id="path117"
       d="m 207.076,204.789 c 5.523,-4.652 7.055,-10.635 8.601,-17.188 1.808,5.418 -2.811,12.416 6.019,10.313 -2.931,6.056 -16.864,11.78 -14.62,6.875"
       inkscape:connector-curvature="0" />
    <path
       style="clip-rule:evenodd;fill:#ffe087;fill-rule:evenodd"
       id="path119"
       d="m 162.361,112.83 c 15.163,4.447 36.406,4.297 52.454,4.297 17.309,0 33.037,11.693 49.875,15.9 16.785,4.194 34.679,31.053 46.004,43.401 6.821,7.438 13.401,15.083 20.208,18.478 4.492,2.24 13.318,4.732 10.319,9.883 4.752,0.82 10.071,2.791 13.758,6.016 -13.283,-3.439 -24.047,-7.87 -35.256,-16.328 -13.734,-10.362 -24.289,-28.574 -36.92,-41.198 -13.812,-13.804 -34.553,-24.402 -54.229,-26.698 -18.323,-2.138 -38.408,4.784 -57.613,3.438 3.568,-4.892 -5.481,-12.772 -8.6,-17.189"
       inkscape:connector-curvature="0" />
    <path
       style="clip-rule:evenodd;fill:#ffe087;fill-rule:evenodd"
       id="path121"
       d="m 115.067,212.524 c -3.739,0.953 -7.378,-0.859 -11.609,-0.859 -7.074,0 -15.268,4.836 -21.45,7.926 -9.789,4.894 -21.556,15.216 -33.154,14.419 1.321,0.261 2.911,1.365 4.299,1.719 -1.606,1.765 -2.477,4.5 -4.299,6.017 4.3,-2.006 8.599,-4.011 12.899,-6.017 -1.875,2.157 -3.285,4.719 -5.16,6.876 4.299,-2.005 8.599,-4.011 12.898,-6.016 -0.573,1.433 -1.147,2.864 -1.72,4.297 7.577,-8.063 17.207,-15.23 27.358,-19.576 7.931,-3.396 14.989,-0.919 19.938,-8.786"
       inkscape:connector-curvature="0" />
    <path
       style="clip-rule:evenodd;fill:#ffe087;fill-rule:evenodd"
       id="path123"
       d="m 25.638,205.647 c -9.574,4.95 -18.562,5.273 -22.358,16.33 3.968,-2.983 6.732,-6.89 11.179,-6.016 -0.726,3.063 -0.373,4.653 0.86,7.735 1.975,-7.244 11.456,-9.182 10.319,-18.049"
       inkscape:connector-curvature="0" />
  </g>
</svg>
