<?xml version="1.0" encoding="UTF-8" standalone="no"?>
<!-- Generator: Adobe Illustrator 10.0, SVG Export Plug-In . SVG Version: 3.0.0 Build 77)  -->

<svg
   xmlns:ns5="http://ns.adobe.com/SaveForWeb/1.0/"
   xmlns:ns4="http://ns.adobe.com/Variables/1.0/"
   xmlns:ns3="http://ns.adobe.com/AdobeIllustrator/10.0/"
   xmlns:a="http://ns.adobe.com/AdobeSVGViewerExtensions/3.0/"
   xmlns:dc="http://purl.org/dc/elements/1.1/"
   xmlns:cc="http://creativecommons.org/ns#"
   xmlns:rdf="http://www.w3.org/1999/02/22-rdf-syntax-ns#"
   xmlns:svg="http://www.w3.org/2000/svg"
   xmlns="http://www.w3.org/2000/svg"
   xmlns:sodipodi="http://sodipodi.sourceforge.net/DTD/sodipodi-0.dtd"
   xmlns:inkscape="http://www.inkscape.org/namespaces/inkscape"
   ns3:viewOrigin="126.7368 665.9097"
   ns3:rulerOrigin="0 0"
   ns3:pageBounds="0 792 612 0"
   width="128.0005"
   height="128.0005"
   viewBox="0 0 128.0005 128.0005"
   overflow="visible"
   enable-background="new 0 0 430.668 218.643"
   xml:space="preserve"
   version="1.1"
   id="svg103"
   sodipodi:docname="mouse.svg"
   inkscape:version="0.92.2 (5c3e80d, 2017-08-06)"
   style="overflow:visible"><defs
     id="defs107"><linearGradient
       id="XMLID_1_"
       gradientUnits="userSpaceOnUse"
       x1="-336.4668"
       y1="676.51813"
       x2="-336.4668"
       y2="712.72412"
       gradientTransform="translate(418.0469,-660.8496)"><stop
         offset="0"
         style="stop-color:#000000"
         id="stop4" /><stop
         offset="1"
         style="stop-color:#000000"
         id="stop6" /><a:midPointStop
         offset="0"
         style="stop-color:#000000" /><a:midPointStop
         offset="0.5"
         style="stop-color:#000000" /><a:midPointStop
         offset="1"
         style="stop-color:#000000" /></linearGradient><linearGradient
       id="XMLID_2_"
       gradientUnits="userSpaceOnUse"
       x1="-202.7368"
       y1="879.1333"
       x2="-202.7368"
       y2="661.21039"
       gradientTransform="translate(418.0469,-660.8496)"><stop
         offset="0"
         style="stop-color:#8C8572"
         id="stop11" /><stop
         offset="1"
         style="stop-color:#BFBFBF"
         id="stop13" /><a:midPointStop
         offset="0"
         style="stop-color:#8C8572" /><a:midPointStop
         offset="0.5"
         style="stop-color:#8C8572" /><a:midPointStop
         offset="1"
         style="stop-color:#BFBFBF" /></linearGradient><linearGradient
       id="XMLID_3_"
       gradientUnits="userSpaceOnUse"
       x1="-409.99661"
       y1="743.94189"
       x2="-409.99661"
       y2="757.09912"
       gradientTransform="translate(418.0469,-660.8496)"><stop
         offset="0"
         style="stop-color:#000000"
         id="stop18" /><stop
         offset="1"
         style="stop-color:#000000"
         id="stop20" /><a:midPointStop
         offset="0"
         style="stop-color:#000000" /><a:midPointStop
         offset="0.5"
         style="stop-color:#000000" /><a:midPointStop
         offset="1"
         style="stop-color:#000000" /></linearGradient><linearGradient
       id="XMLID_4_"
       gradientUnits="userSpaceOnUse"
       x1="-245.5215"
       y1="820.396"
       x2="-245.5215"
       y2="713.06879"
       gradientTransform="translate(418.0469,-660.8496)"><stop
         offset="0"
         style="stop-color:#000000"
         id="stop25" /><stop
         offset="1"
         style="stop-color:#000000"
         id="stop27" /><a:midPointStop
         offset="0"
         style="stop-color:#000000" /><a:midPointStop
         offset="0.5"
         style="stop-color:#000000" /><a:midPointStop
         offset="1"
         style="stop-color:#000000" /></linearGradient><linearGradient
       id="XMLID_5_"
       gradientUnits="userSpaceOnUse"
       x1="-362.95459"
       y1="723.21631"
       x2="-362.95459"
       y2="735.34229"
       gradientTransform="translate(418.0469,-660.8496)"><stop
         offset="0"
         style="stop-color:#000000"
         id="stop32" /><stop
         offset="1"
         style="stop-color:#000000"
         id="stop34" /><a:midPointStop
         offset="0"
         style="stop-color:#000000" /><a:midPointStop
         offset="0.5"
         style="stop-color:#000000" /><a:midPointStop
         offset="1"
         style="stop-color:#000000" /></linearGradient><linearGradient
       id="XMLID_6_"
       gradientUnits="userSpaceOnUse"
       x1="-310.70901"
       y1="719.604"
       x2="-310.70901"
       y2="669.80908"
       gradientTransform="translate(418.0469,-660.8496)"><stop
         offset="0"
         style="stop-color:#000000"
         id="stop39" /><stop
         offset="1"
         style="stop-color:#000000"
         id="stop41" /><a:midPointStop
         offset="0"
         style="stop-color:#000000" /><a:midPointStop
         offset="0.5"
         style="stop-color:#000000" /><a:midPointStop
         offset="1"
         style="stop-color:#000000" /></linearGradient><linearGradient
       id="XMLID_7_"
       gradientUnits="userSpaceOnUse"
       x1="-289.9404"
       y1="688.98779"
       x2="-289.9404"
       y2="719.68988"
       gradientTransform="translate(418.0469,-660.8496)"><stop
         offset="0"
         style="stop-color:#000000"
         id="stop76" /><stop
         offset="1"
         style="stop-color:#000000"
         id="stop78" /><a:midPointStop
         offset="0"
         style="stop-color:#000000" /><a:midPointStop
         offset="0.5"
         style="stop-color:#000000" /><a:midPointStop
         offset="1"
         style="stop-color:#000000" /></linearGradient><linearGradient
       id="XMLID_8_"
       gradientUnits="userSpaceOnUse"
       x1="-287.10211"
       y1="736.54541"
       x2="-287.10211"
       y2="693.89008"
       gradientTransform="translate(418.0469,-660.8496)"><stop
         offset="0"
         style="stop-color:#000000"
         id="stop83" /><stop
         offset="1"
         style="stop-color:#000000"
         id="stop85" /><a:midPointStop
         offset="0"
         style="stop-color:#000000" /><a:midPointStop
         offset="0.5"
         style="stop-color:#000000" /><a:midPointStop
         offset="1"
         style="stop-color:#000000" /></linearGradient></defs><sodipodi:namedview
     pagecolor="#ffffff"
     bordercolor="#666666"
     borderopacity="1"
     objecttolerance="10"
     gridtolerance="10"
     guidetolerance="10"
     inkscape:pageopacity="0"
     inkscape:pageshadow="2"
     inkscape:window-width="1920"
     inkscape:window-height="1025"
     id="namedview105"
     showgrid="false"
     inkscape:zoom="2.0293683"
     inkscape:cx="74.801524"
     inkscape:cy="46.528106"
     inkscape:window-x="-8"
     inkscape:window-y="-8"
     inkscape:window-maximized="1"
     inkscape:current-layer="svg103"
     fit-margin-top="0"
     fit-margin-left="0"
     fit-margin-right="0"
     fit-margin-bottom="0" /><metadata
     id="metadata2"><rdf:RDF><cc:Work
         rdf:about=""><dc:title></dc:title><dc:description>Animal</dc:description><dc:subject><rdf:Bag><rdf:li>animal</rdf:li><rdf:li>mammal</rdf:li><rdf:li>mouse</rdf:li></rdf:Bag></dc:subject><dc:publisher><cc:Agent
             rdf:about="http://www.openclipart.org/"><dc:title>Open Clip Art Project</dc:title></cc:Agent></dc:publisher><dc:creator><cc:Agent
             rdf:about=""><dc:title>ArtFavor</dc:title></cc:Agent></dc:creator><dc:rights><cc:Agent
             rdf:about="http://web.resource.org/cc/PublicDomain"><dc:title>Public Domain</dc:title></cc:Agent></dc:rights><dc:date>2005/10/03</dc:date><dc:format>image/svg+xml</dc:format><dc:type
           rdf:resource="http://purl.org/dc/dcmitype/StillImage">http://purl.org/dc/dcmitype/StillImage</dc:type><cc:license
           rdf:resource="http://web.resource.org/cc/PublicDomain" /></cc:Work><cc:License
         rdf:about="http://web.resource.org/cc/PublicDomain"><cc:permits
           rdf:resource="http://web.resource.org/cc/Reproduction" /><cc:permits
           rdf:resource="http://web.resource.org/cc/Distribution" /><cc:permits
           rdf:resource="http://web.resource.org/cc/DerivativeWorks" /></cc:License></rdf:RDF><ns4:variableSets><ns4:variableSet
         varSetName="binding1"
         locked="none"><ns4:variables /><ns4:sampleDataSets /></ns4:variableSet></ns4:variableSets><ns5:sfw><ns5:slices /><ns5:sliceSourceBounds
         y="447.267"
         x="126.737"
         width="430.668"
         height="218.643"
         bottomLeftOrigin="true" /></ns5:sfw></metadata><g
     id="g1146"
     transform="matrix(0.29721547,0,0,0.29721547,-1.7179332e-5,31.507873)"><path
       inkscape:connector-curvature="0"
       style="clip-rule:evenodd;fill:url(#XMLID_1_);fill-rule:evenodd;stroke:#000000;stroke-width:0.72000003;stroke-linejoin:bevel;stroke-miterlimit:2.41420007"
       id="path9"
       d="m 59.478,49.38 6.106,-19.351 7.224,-9.031 7.827,-4.213 17.028,-1.119 6.02,36.207 z"
       stroke-miterlimit="2.4142"
       ns3:knockout="Off" /><path
       inkscape:connector-curvature="0"
       style="clip-rule:evenodd;fill:url(#XMLID_2_);fill-rule:evenodd;stroke:#000000;stroke-width:0.72000003;stroke-linejoin:bevel;stroke-miterlimit:2.41420007"
       id="path16"
       d="M 51.738,51.013 34.71,70.363 21.036,78.705 0.31,86.188 7.018,97.54 l 9.202,7.224 9.03,1.634 15.136,-0.516 20.382,7.31 11.352,2.666 12.213,-1.291 5.332,8.773 -13.244,13.846 -5.935,2.407 -9.546,-1.031 -16.684,8.858 11.18,2.923 19.866,0.344 h 18.146 l -10.665,16.856 -17.974,4.988 -7.31,7.052 h 17.802 l 18.146,-1.463 9.718,-5.589 21.069,-12.126 62.694,-6.707 15.309,8.685 -19.351,-0.344 -10.578,4.386 -7.224,9.46 12.04,-0.773 19.264,0.258 36.292,-11.782 14.62,-0.344 10.922,-1.375 16.856,-5.591 12.899,-8.599 17.803,-1.979 45.923,4.644 24.682,5.504 17.803,4.558 13.244,6.966 6.105,6.364 0.516,6.881 -2.751,6.278 -7.053,7.224 -14.963,6.278 -15.223,2.408 -18.921,3.269 -39.817,1.376 -57.792,-7.999 -24.854,-3.354 h -18.92 l -17.888,3.354 -39.646,13.158 39.646,-6.536 16.598,-1.118 h 13.244 l 45.235,6.966 46.871,6.363 H 338.2 l 23.306,-1.204 23.909,-3.44 18.145,-5.161 10.492,-6.02 6.88,-5.503 6.193,-8.514 3.182,-10.148 -0.861,-10.234 -3.354,-6.02 -5.16,-6.192 -11.179,-7.31 -15.566,-5.849 -17.803,-4.127 -22.359,-3.87 -19.006,-2.322 -33.023,-0.86 -12.04,-2.15 1.977,-22.274 V 85.672 l -3.009,-17.287 -7.396,-17.372 -4.386,-7.138 -6.709,-7.052 -10.147,-8.341 -11.868,-7.654 -24.251,-4.73 -13.933,-0.602 -23.306,1.806 -15.824,5.332 -21.844,7.568 -0.86,-8.858 -2.838,-7.31 -4.902,-6.88 -7.31,-5.16 -9.976,-1.633 -13.244,0.516 -11.352,4.3 -9.977,9.804 -7.653,13.503 -3.008,11.35 z"
       stroke-miterlimit="2.4142"
       ns3:knockout="Off" /><path
       inkscape:connector-curvature="0"
       style="clip-rule:evenodd;fill:url(#XMLID_3_);fill-rule:evenodd;stroke:#000000;stroke-width:0.72000003;stroke-linejoin:bevel;stroke-miterlimit:2.41420007"
       id="path23"
       d="m 9.082,83.092 -6.879,1.204 0.688,4.644 5.332,7.31 0.859,-4.128 4.816,-5.934 -0.172,-2.15 z"
       stroke-miterlimit="2.4142"
       ns3:knockout="Off" /><path
       inkscape:connector-curvature="0"
       style="clip-rule:evenodd;fill:url(#XMLID_4_);fill-rule:evenodd;stroke:#000000;stroke-width:0.72000003;stroke-linejoin:bevel;stroke-miterlimit:2.41420007"
       id="path30"
       d="m 187.102,152.58 -3.181,-6.536 1.633,-7.482 23.564,-23.049 7.567,-9.631 3.526,-12.471 V 82.748 l -4.472,-15.394 -9.977,-15.136 9.374,19.264 1.376,11.781 -2.235,13.761 -8.515,15.136 -21.241,19.092 -14.621,14.963 -15.48,7.139 -29.584,6.191 h 11.869 l 29.841,-0.516 20.554,-4.128 v -2.321 z"
       stroke-miterlimit="2.4142"
       ns3:knockout="Off" /><path
       inkscape:connector-curvature="0"
       style="clip-rule:evenodd;fill:url(#XMLID_5_);fill-rule:evenodd;stroke:#000000;stroke-width:0.72000003;stroke-linejoin:bevel;stroke-miterlimit:2.41420007"
       id="path37"
       d="m 47.094,69.934 7.482,-7.568 9.03,1.806 2.322,7.224 -2.322,3.096 -6.966,-1.118 -6.02,-3.011 -6.364,1.119 z"
       stroke-miterlimit="2.4142"
       ns3:knockout="Off" /><path
       inkscape:connector-curvature="0"
       style="clip-rule:evenodd;fill:url(#XMLID_6_);fill-rule:evenodd;stroke:#000000;stroke-width:0.72000003;stroke-linejoin:bevel;stroke-miterlimit:2.41420007"
       id="path44"
       d="m 90.869,53.68 -1.204,-4.299 -0.344,-9.375 1.806,-10.835 3.354,-6.795 3.87,-5.332 5.676,-4.559 8.343,-3.009 4.128,-0.517 8.858,0.861 -9.719,1.462 -5.934,1.548 -5.074,3.268 -3.009,3.698 -3.613,7.224 -1.375,6.966 -0.344,13.503 3.01,4.901 12.899,-7.999 -8.514,10.836 4.128,3.096 -6.622,0.431 -6.708,-1.376 z"
       stroke-miterlimit="2.4142"
       ns3:knockout="Off" /><path
       style="fill:none;stroke:#000000;stroke-width:0.72000003;stroke-linejoin:bevel;stroke-miterlimit:2.41420007"
       inkscape:connector-curvature="0"
       id="path46"
       d="M 96.458,34.846 V 27.707"
       stroke-miterlimit="2.4142"
       ns3:knockout="Off" /><path
       style="fill:none;stroke:#000000;stroke-width:0.72000003;stroke-linejoin:bevel;stroke-miterlimit:2.41420007"
       inkscape:connector-curvature="0"
       id="path48"
       d="m 201.207,71.396 8.256,3.096"
       stroke-miterlimit="2.4142"
       ns3:knockout="Off" /><path
       style="fill:none;stroke:#000000;stroke-width:0.72000003;stroke-linejoin:bevel;stroke-miterlimit:2.41420007"
       inkscape:connector-curvature="0"
       id="path50"
       d="m 203.27,74.492 9.288,7.052"
       stroke-miterlimit="2.4142"
       ns3:knockout="Off" /><path
       style="fill:none;stroke:#000000;stroke-width:0.72000003;stroke-linejoin:bevel;stroke-miterlimit:2.41420007"
       inkscape:connector-curvature="0"
       id="path52"
       d="m 204.475,80.598 4.987,9.116"
       stroke-miterlimit="2.4142"
       ns3:knockout="Off" /><path
       style="fill:none;stroke:#000000;stroke-width:0.72000003;stroke-linejoin:bevel;stroke-miterlimit:2.41420007"
       inkscape:connector-curvature="0"
       id="path54"
       d="m 203.27,85.672 4.214,12.04"
       stroke-miterlimit="2.4142"
       ns3:knockout="Off" /><path
       style="fill:none;stroke:#000000;stroke-width:0.72000003;stroke-linejoin:bevel;stroke-miterlimit:2.41420007"
       inkscape:connector-curvature="0"
       id="path56"
       d="m 87.944,112.16 8.858,4.902"
       stroke-miterlimit="2.4142"
       ns3:knockout="Off" /><path
       style="fill:none;stroke:#000000;stroke-width:0.72000003;stroke-linejoin:bevel;stroke-miterlimit:2.41420007"
       inkscape:connector-curvature="0"
       id="path58"
       d="m 92.674,112.16 12.126,3.354"
       stroke-miterlimit="2.4142"
       ns3:knockout="Off" /><path
       style="fill:none;stroke:#000000;stroke-width:0.72000003;stroke-linejoin:bevel;stroke-miterlimit:2.41420007"
       inkscape:connector-curvature="0"
       id="path60"
       d="m 100.156,111.558 h 10.492"
       stroke-miterlimit="2.4142"
       ns3:knockout="Off" /><path
       style="fill:none;stroke:#000000;stroke-width:0.72000003;stroke-linejoin:bevel;stroke-miterlimit:2.41420007"
       inkscape:connector-curvature="0"
       id="path62"
       d="m 104.801,108.29 14.017,-1.892"
       stroke-miterlimit="2.4142"
       ns3:knockout="Off" /><path
       style="fill:none;stroke:#000000;stroke-width:0.72000003;stroke-linejoin:bevel;stroke-miterlimit:2.41420007"
       inkscape:connector-curvature="0"
       id="path64"
       d="m 91.986,124.973 -2.494,7.396"
       stroke-miterlimit="2.4142"
       ns3:knockout="Off" /><path
       style="fill:none;stroke:#000000;stroke-width:0.72000003;stroke-linejoin:bevel;stroke-miterlimit:2.41420007"
       inkscape:connector-curvature="0"
       id="path66"
       d="m 92.674,130.822 -3.182,7.568"
       stroke-miterlimit="2.4142"
       ns3:knockout="Off" /><path
       style="fill:none;stroke:#000000;stroke-width:0.72000003;stroke-linejoin:bevel;stroke-miterlimit:2.41420007"
       inkscape:connector-curvature="0"
       id="path68"
       d="m 95.168,135.638 -2.494,7.396"
       stroke-miterlimit="2.4142"
       ns3:knockout="Off" /><path
       style="fill:none;stroke:#000000;stroke-width:0.72000003;stroke-linejoin:bevel;stroke-miterlimit:2.41420007"
       inkscape:connector-curvature="0"
       id="path70"
       d="m 202.926,157.567 6.536,4.128"
       stroke-miterlimit="2.4142"
       ns3:knockout="Off" /><path
       style="fill:none;stroke:#000000;stroke-width:0.72000003;stroke-linejoin:bevel;stroke-miterlimit:2.41420007"
       inkscape:connector-curvature="0"
       id="path72"
       d="m 209.462,158.17 8.858,2.751"
       stroke-miterlimit="2.4142"
       ns3:knockout="Off" /><path
       style="fill:none;stroke:#000000;stroke-width:0.72000003;stroke-linejoin:bevel;stroke-miterlimit:2.41420007"
       inkscape:connector-curvature="0"
       id="path74"
       d="m 218.321,158.17 8.255,1.031"
       stroke-miterlimit="2.4142"
       ns3:knockout="Off" /><path
       inkscape:connector-curvature="0"
       style="clip-rule:evenodd;fill:url(#XMLID_7_);fill-rule:evenodd;stroke:#000000;stroke-width:0.72000003;stroke-linejoin:bevel;stroke-miterlimit:2.41420007"
       id="path81"
       d="m 122,57.55 8.858,-3.526 5.332,-6.02 3.699,-7.311 2.15,-6.708 -0.516,-5.848 -2.494,9.889 -5.677,8.687 -8.858,7.654 -10.319,4.472 z"
       stroke-miterlimit="2.4142"
       ns3:knockout="Off" /><path
       inkscape:connector-curvature="0"
       style="clip-rule:evenodd;fill:url(#XMLID_8_);fill-rule:evenodd;stroke:#000000;stroke-width:0.72000003;stroke-linejoin:bevel;stroke-miterlimit:2.41420007"
       id="path88"
       d="m 150.381,33.04 -1.29,7.139 -2.065,5.847 -7.997,10.664 -10.665,6.708 -10.062,3.526 -4.901,0.431 -2.236,1.634 4.213,6.707 5.849,-5.332 7.31,-3.698 7.138,-3.526 7.826,-7.31 4.902,-7.654 2.323,-9.374 z"
       stroke-miterlimit="2.4142"
       ns3:knockout="Off" /><path
       style="fill:none;stroke:#000000;stroke-width:0.72000003;stroke-linejoin:bevel;stroke-miterlimit:2.41420007"
       inkscape:connector-curvature="0"
       id="path90"
       d="m 146.338,112.504 5.074,2.322"
       stroke-miterlimit="2.4142"
       ns3:knockout="Off" /><path
       style="fill:none;stroke:#000000;stroke-width:0.72000003;stroke-linejoin:bevel;stroke-miterlimit:2.41420007"
       inkscape:connector-curvature="0"
       id="path92"
       d="m 146.338,116.545 4.559,6.966"
       stroke-miterlimit="2.4142"
       ns3:knockout="Off" /><path
       style="fill:none;stroke:#000000;stroke-width:0.72000003;stroke-linejoin:bevel;stroke-miterlimit:2.41420007"
       inkscape:connector-curvature="0"
       id="path94"
       d="m 144.361,122.479 2.494,8.858"
       stroke-miterlimit="2.4142"
       ns3:knockout="Off" /></g></svg>