<?xml version="1.0" encoding="UTF-8" standalone="no"?>
<!-- Created with Inkscape (http://www.inkscape.org/) -->

<svg
   xmlns:dc="http://purl.org/dc/elements/1.1/"
   xmlns:cc="http://creativecommons.org/ns#"
   xmlns:rdf="http://www.w3.org/1999/02/22-rdf-syntax-ns#"
   xmlns:svg="http://www.w3.org/2000/svg"
   xmlns="http://www.w3.org/2000/svg"
   xmlns:sodipodi="http://sodipodi.sourceforge.net/DTD/sodipodi-0.dtd"
   xmlns:inkscape="http://www.inkscape.org/namespaces/inkscape"
   id="svg2"
   version="1.1"
   inkscape:version="0.92.2 (5c3e80d, 2017-08-06)"
   width="128.00003"
   height="34.165001"
   sodipodi:docname="newt.svg">
  <title
     id="title3886">Newt</title>
  <metadata
     id="metadata8">
    <rdf:RDF>
      <cc:Work
         rdf:about="">
        <dc:format>image/svg+xml</dc:format>
        <dc:type
           rdf:resource="http://purl.org/dc/dcmitype/StillImage" />
        <dc:title>Newt</dc:title>
        <dc:creator>
          <cc:Agent>
            <dc:title>Jordan Irwin (AntumDeluge)</dc:title>
          </cc:Agent>
        </dc:creator>
        <dc:subject>
          <rdf:Bag>
            <rdf:li>newt</rdf:li>
            <rdf:li>amphibian</rdf:li>
            <rdf:li>salamander</rdf:li>
          </rdf:Bag>
        </dc:subject>
        <cc:license
           rdf:resource="http://creativecommons.org/publicdomain/zero/1.0/" />
        <dc:date>2010-12-23</dc:date>
        <dc:description>v0.2</dc:description>
      </cc:Work>
      <cc:License
         rdf:about="http://creativecommons.org/publicdomain/zero/1.0/">
        <cc:permits
           rdf:resource="http://creativecommons.org/ns#Reproduction" />
        <cc:permits
           rdf:resource="http://creativecommons.org/ns#Distribution" />
        <cc:permits
           rdf:resource="http://creativecommons.org/ns#DerivativeWorks" />
      </cc:License>
    </rdf:RDF>
  </metadata>
  <defs
     id="defs6" />
  <sodipodi:namedview
     pagecolor="#ffffff"
     bordercolor="#666666"
     borderopacity="1"
     objecttolerance="10"
     gridtolerance="10"
     guidetolerance="10"
     inkscape:pageopacity="0"
     inkscape:pageshadow="2"
     inkscape:window-width="1920"
     inkscape:window-height="1025"
     id="namedview4"
     showgrid="false"
     inkscape:zoom="2.0607114"
     inkscape:cx="-42.524175"
     inkscape:cy="82.296132"
     inkscape:window-x="-8"
     inkscape:window-y="-8"
     inkscape:window-maximized="1"
     inkscape:current-layer="g2987"
     fit-margin-top="0"
     fit-margin-left="0"
     fit-margin-right="0"
     fit-margin-bottom="0" />
  <g
     id="g2987"
     transform="translate(-80.663062,-127.50445)">
    <g
       id="g840"
       transform="matrix(0.44355376,0,0,0.44355376,80.497226,80.454867)">
      <path
         sodipodi:nodetypes="sssssssssss"
         inkscape:connector-curvature="0"
         id="path3105"
         d="m 69,142.99249 c -12.097881,-1.43353 -20.913134,-3.90218 -21.285929,-5.82921 -0.253187,-1.30876 -1.137703,-1.90877 3.987026,-0.98923 1.550664,0.27824 3.425473,-0.13424 4.121326,-0.5643 0.695852,-0.43006 1.933635,-0.22717 2.750626,0.45088 0.816992,0.67804 4.671633,1.38344 8.565868,1.56756 3.894235,0.18411 8.268575,0.91296 9.720755,1.61966 1.875164,0.91254 7.639355,1.24663 19.890328,1.15283 13.20843,-0.10113 21.53895,0.0696 20.42651,1.12249 -0.2374,0.2247 -4.15598,0.63871 -4.92139,0.93242 -2.85655,1.09616 -35.152411,1.49703 -43.25512,0.5369 z"
         style="fill:#e8b05b" />
      <path
         sodipodi:nodetypes="ssssssssss"
         inkscape:connector-curvature="0"
         id="path2999"
         d="M 22.5,131.27811 C 17.55,130.52304 11.87343,129.47677 9.885399,128.95306 6.2117242,127.98529 1.508233,124.16578 1,123.044 c -0.14733934,-0.32521 -0.82846631,-1.14601 -0.47663892,-2.07571 0.48497792,-1.28154 6.24898212,0.23676 7.60111252,1.26315 0.96315,0.73112 2.3297574,0.99006 3.2529714,1.00756 0.923215,0.0175 1.933262,-0.0671 2.676671,0.67634 0.743409,0.74341 3.742732,3.07464 6.476109,3.42502 12.010727,1.5396 15.078072,2.74999 16.246161,4.88417 0.877158,1.60263 -6.223696,0.28194 -14.276386,-0.94642 z"
         style="fill:#e8b05b" />
      <path
         sodipodi:nodetypes="sssss"
         inkscape:connector-curvature="0"
         id="path3007"
         d="M 57.157729,108.15632 C 60.26359,105.63641 63.246198,105.3868 65,107.5 c 1.071636,1.29124 1.495045,2.5625 -1.983268,2.5625 -2.222361,0 -5.677461,-0.76716 -6.684945,-0.40618 -1.154559,0.41368 -0.849201,-0.14089 0.825942,-1.5 z"
         style="fill:#552e26" />
      <path
         sodipodi:nodetypes="sssssscsssssssssccs"
         inkscape:connector-curvature="0"
         id="path3107"
         d="m 281.91269,180.64574 c -9.5543,-6.38397 -24.76494,-15.20049 -33.0831,-19.14042 -7.76494,-3.67789 -9.19865,-3.90865 -40.82959,-6.57176 -7.425,-0.62514 -17.76468,-2.21593 -22.97707,-3.53509 C 179.81055,150.07931 174.54365,149 173.31871,149 c -1.22493,0 -9.145,-2.5358 -17.88504,-4.53494 l -14.90788,-3.40993 c 0,0 -4.64284,0.81663 -6.75605,0.93531 -4.07099,0.22863 -5.44414,0.0962 -8.26289,-0.0653 -1.54608,-0.0886 -2.88185,-0.58216 -2.88185,-1.44569 0,-1.2531 4.08238,-1.43736 6.879,-0.91271 2.32994,0.4371 4.62402,0.12587 6.84669,-0.92885 3.50555,-1.6635 5.52202,-1.39732 12.64931,1.66971 4.1882,1.80227 31.67947,7.97168 45,10.09859 5.225,0.83429 16.7,1.74317 25.5,2.01973 19.02813,0.59801 25.99742,2.00706 37.07366,7.49555 10.04592,4.97795 28.34244,22.12455 32.35508,22.72428 -0.1204,0.44937 -0.75196,0.42414 -0.8813,0.45401 -0.16667,-0.009 -2.58954,-0.0852 -6.13475,-2.45401 z"
         style="fill:#e8b05b" />
      <path
         sodipodi:nodetypes="csssssssssscssssssssssssssssssssssssssssssssssssssssssssssssssssssssssssssssssssssssssssssssssssssssssssssssscccccsccssssssssssssssssssscscsscssc"
         inkscape:connector-curvature="0"
         id="path3011"
         d="m 6.1101503,116.70761 c 0.9954863,-1.1 2.2906812,-1.57166 2.5201373,-1.72323 0.8114707,-0.53604 7.0981084,-2.72547 8.8574994,-1.16225 1.984467,1.76319 26.596004,0.90145 26.068332,1.48452 -0.09949,0.10994 10.484299,0.31717 25.450052,2.10453 9.887379,1.18085 -1.993475,10.83103 -0.348827,11.76869 0.893429,0.50937 53.171806,-8.31208 72.239356,-4.86231 2.19503,0.39713 32.95323,8.63815 31.35044,11.71352 -0.40921,0.78519 25.38883,4.06952 26.79907,5.03234 0.65529,0.44739 55.43239,8.61045 56.11428,11.16037 0.11423,0.42716 18.83375,13.89741 20.36497,16.23794 0.47951,0.73294 12.51598,10.90771 13.42145,13.96965 0.0511,0.39588 -0.26878,0.5932 -0.69897,0.40137 -0.28651,-0.12775 -0.52632,-0.48027 -1.08777,-0.87098 -0.34644,-0.24108 -1.29694,-0.13807 -1.75708,-0.4556 -0.45103,-0.31125 -1.15873,-1.44998 -1.68417,-1.81891 -0.19297,-0.13548 -1.18527,-0.29019 -1.38282,-0.43269 -0.32113,-0.23166 -0.6944,-1.10829 -1.02451,-1.34707 -0.15643,-0.11315 -1.56196,-0.10209 -1.71628,-0.21668 -0.21047,-0.15627 -0.37194,-1.32691 -0.57743,-1.48003 -0.1421,-0.10589 -0.71987,-0.25769 -0.85804,-0.36145 -1.15585,-0.86797 -0.41899,-0.83945 -1.44777,-1.57138 -0.58799,-0.41832 -1.81805,-0.30627 -2.29578,-0.64815 -0.9129,-0.65331 -1.34932,-1.97738 -1.67795,-2.09805 -1.19288,-0.43801 -1.96688,0.38419 -2.85116,-0.98306 -0.77582,-1.19956 -0.38087,-1.70419 -1.50574,-2.53843 -1.38492,-1.0271 -3.16056,-0.39086 -4.32531,-1.38831 -1.14187,-0.97786 -0.005,-1.904 -1.04025,-2.70498 -0.87055,-0.67386 -2.83958,-0.10482 -3.49083,-0.63524 -1.05528,-0.85947 -1.17717,-1.96083 -1.45578,-2.15266 -1.19334,-0.82166 -2.2572,0.0585 -3.98399,-0.64846 -0.77074,-0.31553 -2.61184,-2.72348 -3.45667,-3.09765 -0.68966,-0.30544 -2.39497,0.44671 -3.10839,0.13348 -0.91181,-0.40032 -0.75277,-1.40764 -1.77277,-1.75904 -0.55134,-0.18994 -3.41364,0.4976 -3.95889,0.31351 -0.60171,-0.20314 -1.94207,-1.82857 -2.51603,-1.9981 -0.74863,-0.22113 -3.1381,1.07236 -3.77821,0.88399 -0.72979,-0.21477 0.22664,-1.20887 -0.36237,-1.35001 -1.21885,-0.29206 -4.07457,0.6079 -4.245,0.62174 -1.06891,0.0868 -1.22688,-0.61888 -3.15983,-1.16558 -0.59146,-0.16729 -2.13223,1.51181 -2.83675,1.36387 -0.88647,-0.18615 -2.52111,-1.61468 -3.52947,-1.77644 -0.22058,-0.0354 -3.81543,1.4284 -4.0343,1.39135 -1.11542,-0.18884 -1.1103,-1.61643 -2.21309,-1.77358 -0.5135,-0.0732 -0.21424,1.53842 -0.7255,1.45978 -1.23266,-0.18961 -2.45379,-1.5568 -3.63923,-1.71904 -0.73771,-0.10096 -2.6415,1.35734 -3.32932,1.25012 -0.80058,-0.12479 -2.08991,-1.46337 -2.79369,-1.57633 -0.53324,-0.0856 -1.31554,1.26508 -1.77916,1.1772 -0.51306,-0.0973 -0.98029,-1.00511 -1.39455,-1.09786 -1.08465,-0.24285 -4.2465,0.41667 -4.33937,0.1715 -0.41305,-1.09041 -1.05424,0.003 -1.5523,-0.20788 -0.93377,-0.39483 -1.40596,-0.87977 -2.27095,-0.4965 -0.60133,0.26645 -1.11688,-0.86323 -2.11371,-1.1581 -0.31193,-0.0923 -1.41451,0.65243 -1.7458,0.54635 -0.56317,-0.18033 -0.88153,-1.08016 -1.52289,-1.25677 -0.24153,-0.0665 -0.61362,0.86477 -0.86652,0.79382 -0.62891,-0.17646 -0.98621,-0.95108 -1.70191,-1.13438 -0.34673,-0.0888 -4.10048,0.445 -4.44823,0.35142 -0.44406,-0.1195 -0.42181,-1.30079 -0.86994,-1.41823 -0.43282,-0.11342 -1.27198,0.39721 -1.70408,0.28223 -0.49548,-0.13185 -1.02102,-0.94916 -1.51275,-1.07606 -0.47026,-0.12136 -1.12506,0.75659 -1.58813,0.63421 -0.397,-0.10492 -0.94679,-0.89606 -1.33605,-0.99806 -0.61093,-0.16008 -1.21131,-0.3161 -1.79792,-0.46662 -0.33943,-0.0871 -0.48702,0.67018 -0.81717,0.58452 -0.47649,-0.12363 -1.0985,-1.0558 -1.55168,-1.17072 -0.56027,-0.14207 -1.13244,0.59477 -1.65048,0.46161 -0.41628,-0.10701 0.0397,-0.86558 -0.34919,-0.96252 -0.32334,-0.0806 -0.91749,0.59147 -1.21898,0.51655 -0.15243,-0.0379 -1.05169,-0.84426 -1.19766,-0.88004 -0.61317,-0.1503 -0.60878,0.58844 -1.10225,0.46931 -1.20906,-0.29188 -2.03016,-1.20901 -2.32273,-1.1985 -0.75255,0.027 -1.78604,0.0675 -3.12172,-0.21071 -0.79799,-0.16623 -1.59759,-1.3147 -2.4748,-1.54517 -0.67425,-0.17715 -1.55223,0.68217 -2.24364,0.45091 -0.77312,-0.25858 -1.30846,-1.26912 -2.08934,-1.52055 -0.40114,-0.12916 -0.88879,0.22634 -1.28377,0.0951 -0.39864,-0.13251 -0.79293,-0.61683 -1.1804,-0.74462 -0.537,-0.1771 -1.06091,-0.0426 -1.56521,-0.21267 -0.38244,-0.12898 -0.57774,-0.78274 -0.93676,-0.8991 -0.46388,-0.15036 -0.90594,-0.28893 -1.32031,-0.41244 -0.40797,-0.1216 -1.14044,0.2984 -1.48436,0.20192 -0.77659,-0.21784 -1.28878,-1.22464 -1.64568,-1.21477 -0.89631,0.0248 -1.34891,0.54935 -1.96569,0.34251 -0.74197,-0.24881 -0.94007,-0.2234 -1.5248,-0.22374 -0.71779,-4.2e-4 -0.53934,0.53704 -1.28761,0.92297 -0.94707,0.48847 -1.50491,-0.21226 -1.69649,-0.14798 -0.65055,0.21828 -0.67211,1.17449 -2.27487,1.17809 -0.65721,0.001 -1.44654,-0.47246 -2.34058,-0.44724 -0.37571,0.0106 -1.37939,0.54591 -1.7693,0.5435 -0.83143,-0.005 -1.60179,-0.88011 -2.44847,-0.85212 -1.04946,0.0347 -1.69945,1.37508 -2.72475,1.4506 -4.01133,0.29544 -6.38933,-0.0593 -8.47261,0.3107 -0.21066,0.0374 -1.7669,-0.5027 -2.47567,-0.59091 -0.52444,-0.0653 -0.96221,0.41871 -1.22982,0.28699 -0.77208,-0.38003 -1.29752,0.3328 -2.34469,0.33031 -0.87111,-0.002 -1.45625,-0.5043 -2.2914,-0.5911 -1.4913,-0.15507 -1.31585,0.97368 -2.62715,0.88792 -0.91421,-0.0598 -1.8197,-1.0701 -2.6103,-1.1018 -1.26367,-0.0507 -1.78296,1.0065 -2.744933,1.0385 -1.052,0.035 -2.109993,-1.1444 -2.580369,-1.0251 -1.509594,0.38274 -1.83438,0.14431 -2.490318,0.003 -0.732972,-0.15791 -1.898797,0.77629 -2.829314,0.42306 -1.312798,-0.49835 -1.930123,0.21596 -3.207289,0.37258 -1.229816,0.15081 -1.657438,-0.81979 -2.71406,-0.79385 -1.158913,0.0284 -1.704886,0.83034 -2.946422,0.62564 -1.005434,-0.16578 -1.381872,-0.84096 -2.485019,-1.02689 -0.998932,-0.16836 -1.267227,0.081 -2.149724,-0.17961 -0.693457,-0.20477 -1.785481,-0.0558 -2.520957,-0.16547 -0.855547,-0.42839 -1.251048,-1.01389 -2.054717,-1.28884 -1.014062,0.21351 -1.635723,0.6325 -2.281725,0.7924 -0.751581,-0.36365 -1.521819,-1.16158 -2.02777,-1.39897 -0.77147,-0.0825 -0.823683,0.4894 -1.37633,0.65753 -0.191449,-0.0275 -0.952812,-0.80481 -1.143418,-0.83204 -0.0657,-0.009 -2.264138,0.29372 -2.45469,0.53433 -2.16084,-0.0702 -1.792252,-0.0362 -3.838059,-1.15684 -0.593111,-0.0852 -1.421208,0.8296 -1.982015,0.74464 -0.174787,-0.0265 -0.347895,-0.55285 -0.519254,-0.5791 -0.576075,-0.0883 -0.664561,0.54217 -1.200419,0.45393 -0.849104,-0.1398 -1.706751,-0.68378 -2.437809,-0.81849 -0.533748,-0.0984 -1.345171,0.21029 -1.805266,0.11371 -0.413465,-0.0868 -0.857977,-0.64076 -1.20562,-0.72415 -0.681638,-0.16351 -1.420997,0.33539 -1.921904,0.23969 -3.921391,-0.74916 -2.648574,-0.25974 -4.326688,-0.6411 -5.187306,-1.17883 -9.591991,-4.58786 -12.89199,-6.29526 -0.498021,-0.25768 -1.553915,0.60309 -1.969231,0.37852 -0.856656,-0.46321 -0.64563,-0.72053 -1.259165,-0.99042 -1.465917,-0.64485 -1.442883,0.71151 -2.142848,0.68894 -0.609403,-0.0196 -0.405344,-0.25851 -1.895254,-1.32697 -0.854883,-0.61306 -1.823791,-0.0683 -2.871301,-0.59212 -0.534078,-0.26705 -1.152588,0.54367 -1.717403,0.27397 -0.62842,-0.30006 -1.272432,-0.59724 -1.924397,-0.88142 -0.698884,-0.30464 -1.342294,0.50404 -2.053939,0.17546 -0.208965,-0.0965 -1.39289,-1.47613 -1.602488,-1.57251 -0.550559,-0.25317 -0.895397,0.46604 -1.444204,0.21239 -0.653437,-0.30202 -0.450575,-1.17211 -1.105173,-1.45988 -1.110401,-0.78223 -0.884321,0.16827 -2.9215944,-0.35665 -0.7022651,-0.18094 -2.1954186,-1.31971 -2.9621191,-1.60234 -0.409581,-0.17812 -1.5065477,0.61984 -1.8735261,0.45599 -0.8006125,-0.35741 -0.534028,-0.8518 -1.1153265,-1.11498 -0.8577561,-0.38835 -2.3926761,0.63456 -2.5578848,0.45367 -0.60973392,-0.52012 -0.60231781,-1.53331 -0.36752301,-1.92615 0.98245901,-1.64378 5.58842621,-2.72908 5.58842621,-3.61689 z"
         style="fill:#552e26" />
      <path
         sodipodi:nodetypes="ssccs"
         inkscape:connector-curvature="0"
         id="path3089"
         d="m 6.4343409,118.40625 c 1.834506,-5.01965 11.1202251,-3.20693 9.0139021,3.01795 -0.323049,0.95472 -1.158284,2.30477 -1.602062,2.73957 -0.527696,0.32072 -7.7571049,-1.97949 -7.839659,-2.35871 -0.2240553,-0.71957 -0.1084946,-1.93133 0.4278189,-3.39881 z"
         style="fill:#916c54" />
      <path
         sodipodi:nodetypes="csscc"
         inkscape:connector-curvature="0"
         id="path3071"
         d="m 10.806701,109.98316 c 4.756449,-4.30181 7.836657,-1.73566 8.731547,0.28504 0.394469,0.89072 -0.374076,1.38887 -1.154093,1.38887 -0.780016,0 -6.640435,0.79028 -7.64792,1.16826 -1.4298507,-0.82611 -0.206415,-2.6042 0.07047,-2.84217 z"
         style="fill:#735450" />
      <path
         inkscape:connector-curvature="0"
         id="path3083"
         transform="translate(0.37388118,106.07415)"
         d="M 89.15625,2.0625 C 83.241747,2.059637 76.293233,2.34776 67.625,2.8125 53.325273,3.57917 43.448136,3.66269 38.125,3.03125 33.457926,2.47764 26.077452,2.42303 20.4375,2.90625 c -8.524062,0.73032 -10.221043,1.185 -14.3125,4 -4.0348164,2.77603 -6.3442579,6.41651 -6.0625,7.90625 0.07607295,0.40222 0.42258563,0.68931 1.40625,0.5 1.0632857,-0.15187 1.789808,0.25703 2.625,-0.0625 0.5601833,-0.21431 0.9328146,-1.55015 1.0625,-2.65625 0.9943881,-3.19306 4.0860304,-4.72113 7.25,-3.875 3.163452,0.846 4.389836,3.87958 3.1875,6.9375 -1.653857,3.64644 -0.930564,4.97267 9.4375,5.75 5.268615,0.395 5.52037,0.50645 8.34375,1.75 0.588654,0.32241 0.552121,0.8692 0.1875,1.875 -0.635965,1.7543 -0.62096,2.3629 1.5,4.03125 1.410592,1.10957 2.5147,2.57621 2.5625,3.25 0.02931,0.4132 0.174436,1.47193 0.0625,2.65625 -0.03039,0.321594 -0.573995,0.963982 -0.6875,1.40625 -0.0028,0.01102 -0.02898,0.02048 -0.03125,0.03125 -0.419712,0.67484 -1.782325,1.32489 -4.65625,2.875 -4.228808,2.28088 -6.092463,2.50945 -8.78125,2.46875 -1.528145,-0.02312 -2.824944,-0.18255 -4.125,-0.21875 -0.726887,-0.02022 -2.447178,-0.40877 -2.15625,0.375 0.16975,0.49536 5.855702,1.21375 3.34375,1.21875 0,0 -6.231842,-0.6749 -6.46875,0 -0.471559,0.73359 3.1875,1.1875 3.1875,1.1875 4.592038,1.47309 4.093791,2.20129 -1.1875,1.78125 -2.824552,-0.22464 -4.5,0.02786 -4.5,0.71875 0,0.6227 1.845597,1.13625 4.25,1.15625 2.3375,0.01948 4.215211,0.09763 5.5625,0.84375 0,0 -4.202862,1.7101 -3.65625,2.25 1.365527,1.34875 6.024475,-1.46211 9.125,-2.65625 1.44565,-0.55678 7.606336,-1.46575 9.3125,-1.46875 3.641555,-0.0072 8.975827,-3.366941 10.03125,-6.125 0.01445,-0.01831 0.01903,-0.0431 0.03125,-0.0625 0.0037,-0.01029 -0.0036,-0.02097 0,-0.03125 0.03387,-0.05953 0.08144,-0.117767 0.09375,-0.1875 l 0.375,-2.1875 0.625,-4.8125 1.125,-4.1875 5.3125,0.28125 c 10.244642,0.54709 21.38988,1.90658 22.84375,2.8125 0.807504,0.50317 3.26875,0.9826 5.46875,1.0625 14.79611,0.53745 26.30562,0.18616 28.59375,-0.03125 1.36174,-0.01315 2.46354,0.37812 3.875,2.40625 0.5497,0.58733 0.83055,1.37411 1,2.1875 0.12666,0.608072 0.0854,1.419495 0.0312,2.03125 -1.02779,2.78549 -3.1292,5.12214 -6.78125,6.28125 -1.54462,0.49023 -3.34136,1.2286 -2.75,1.8125 0.6157,0.60793 0.87434,0.239 2.09375,-0.15625 3.95887,-1.2832 4.32809,-1.60565 0.4375,0.40625 -1.8731,0.96862 -3,2.32762 -3,3.625 0,1.91044 0.28134,1.8222 3.53125,-1.03125 5.82123,-5.11111 7.38123,-3.94005 2.4375,1.84375 -1.62765,1.90422 -2.96875,4.04172 -2.96875,4.75 0,0.70827 0.389,1.3125 0.875,1.3125 1.07877,0 7.68063,-7.19205 8.375,-9.125 0.40553,-1.12893 0.0277,-1.00503 1.6875,0.03125 0.69288,1.60459 0.69045,4.53599 0.59375,5.46875 -0.16267,1.56841 2.46475,2.24944 2.46875,0.34375 0.0114,-5.63159 -0.14908,-5.54278 1.5,-8.75 0.7568,-1.471861 1.78791,-3.395256 1.90625,-4.6875 0.006,-0.01308 0.0302,-0.01672 0.0312,-0.03125 0.004,-0.05833 -3e-4,-0.153212 0,-0.21875 1.7e-4,-0.03745 0.001,-0.08516 0,-0.125 -0.0243,-0.927827 -0.36398,-2.465647 -0.59375,-4.875 -0.4293,-4.50163 -0.38866,-4.25058 4.3125,-4.03125 2.59457,0 5.00383,-0.45 5.34375,-1 1.0091,-1.63275 7.28871,-1.16681 12.3125,0.9375 5.91883,2.4792 16.49558,5.09998 36.1875,8.90625 11.77302,2.27561 19.57765,3.11966 32.5,3.5625 9.35723,0.32066 20.12604,1.24033 23.90625,2.03125 12.40351,2.59515 27.70967,11.11434 42.1875,23.46875 3.21802,2.74605 6.30645,5.93652 6.34375,5.625 0.05,-0.41718 -0.86237,-3.42264 -2.28125,-5.84375 -3.25027,-5.54619 -16.62417,-18.16584 -23.875,-22.5 -5.50464,-3.29038 -21.77075,-9.62163 -29.21875,-11.375 -7.1578,-1.68505 -32.99689,-5.7866 -36.5625,-5.8125 -1.925,-0.01399 -7.325,-1.36472 -12,-3 -4.675,-1.63528 -9.45665,-2.993 -10.625,-3 -1.16835,-0.0074 -4.09335,-0.72025 -6.5,-1.59375 -2.40665,-0.8735 -8.2,-2.41198 -12.875,-3.40625 C 149.95,18.94322 140.46392,15.65085 133.5625,12.625 115.38214,4.6540225 106.89976,2.0710889 89.15625,2.0625 Z"
         style="fill:#43191b" />
      <path
         sodipodi:nodetypes="zzz"
         inkscape:connector-curvature="0"
         id="path2989"
         d="m 8.3757451,120.07315 c 0.3462687,-3.28422 4.9554229,-2.98798 4.7180049,0.31555 -0.237418,3.30353 -5.0642736,2.96867 -4.7180049,-0.31555 z"
         style="fill:#200000;fill-opacity:1" />
      <path
         sodipodi:nodetypes="cssssssssssssssssscssssssssssssssssc"
         inkscape:connector-curvature="0"
         id="path3888"
         d="m 11.164204,110.95516 c 0,0 10.012554,-1.53333 15.056264,-1.50562 4.544607,0.025 9.014302,1.23042 13.550638,1.50562 7.932219,0.48121 15.896516,0.51027 23.839085,0.25094 6.623529,-0.21626 13.201783,-1.25451 19.824082,-1.50563 4.346463,-0.16482 8.711372,-0.32551 13.048762,0 4.470875,0.33553 8.931665,0.99673 13.299695,2.00751 4.61351,1.06759 9.09742,2.65564 13.55064,4.26594 5.18567,1.87516 10.12596,4.38607 15.3072,6.27344 6.18899,2.25446 12.48522,4.21905 18.82033,6.02251 5.97064,1.69971 12.05554,2.96976 18.06752,4.51688 5.69817,1.46636 11.29323,3.36786 17.06377,4.51687 3.0629,0.60987 6.19304,0.81311 9.28469,1.25469 7.78769,1.1123 15.58847,2.15582 23.33721,3.51313 3.78104,0.66231 7.59097,1.24069 11.2922,2.25844 4.36194,1.19943 8.61633,2.79053 12.79783,4.51688 5.22211,2.15597 10.57929,4.18437 15.3072,7.27719 4.91241,3.21351 9.005,7.54139 13.2997,11.54314 2.42327,2.25798 7.02626,7.02626 7.02626,7.02626 0,0 -11.30399,-8.40933 -16.81283,-12.79783 -2.04391,-1.62824 -3.80681,-3.63333 -6.02251,-5.01875 -3.11092,-1.94518 -6.62282,-3.17472 -10.03751,-4.51688 -5.58829,-2.19651 -11.24623,-4.28496 -17.06376,-5.77157 -10.28592,-2.62846 -20.88311,-3.84961 -31.36722,-5.52063 -4.08865,-0.65167 -8.24312,-0.9102 -12.29595,-1.75656 -7.98567,-1.66766 -15.74502,-4.27998 -23.58815,-6.52438 -11.90839,-3.40772 -23.85025,-6.72033 -35.63316,-10.53939 -5.73792,-1.85977 -11.34518,-4.1041 -17.06376,-6.02251 -3.66168,-1.22838 -7.23534,-2.85601 -11.04126,-3.51312 -4.865951,-0.84013 -9.86831,-0.59746 -14.805329,-0.50188 -4.611812,0.0893 -9.193781,0.79161 -13.801576,1.00375 -8.608035,0.39631 -17.230244,0.62004 -25.846587,0.50188 -5.358713,-0.0735 -10.72042,-0.29464 -16.060015,-0.75282 -2.687623,-0.23062 -5.337721,-0.83613 -8.030008,-1.00375 -2.671497,-0.16632 -5.361756,0.21211 -8.030008,0 -2.111085,-0.16782 -6.273443,-1.00375 -6.273443,-1.00375 z"
         style="fill:#552e26;fill-opacity:1;stroke:none" />
      <path
         sodipodi:nodetypes="csscssssc"
         transform="translate(0.37388118,106.07415)"
         inkscape:connector-curvature="0"
         id="path2997"
         d="m 23.848037,42.883458 c 0,0 3.786573,-0.279566 5.57598,-0.857843 1.375075,-0.444379 2.611717,-1.245466 3.860293,-1.973039 1.301945,-0.758672 3.77451,-2.487745 3.77451,-2.487745 0,0 -0.74942,1.347827 -1.286765,1.887255 -0.783665,0.786703 -1.783309,1.332281 -2.745097,1.887255 -1.152146,0.664815 -2.320363,1.362966 -3.602941,1.715686 -1.495212,0.411196 -3.125051,0.793313 -4.632353,0.428921 -0.362391,-0.08761 -0.943627,-0.60049 -0.943627,-0.60049 z"
         style="fill:#552e26;fill-opacity:1;stroke:none" />
      <path
         sodipodi:nodetypes="cscsssc"
         transform="translate(0.37388118,106.07415)"
         inkscape:connector-curvature="0"
         id="path3767"
         d="m 113.06371,45.757233 c 0,0 3.05278,-2.557813 4.03187,-4.246324 0.29951,-0.516521 0.5147,-1.715686 0.5147,-1.715686 0,0 0.37661,1.892967 0.0429,2.745098 -0.31713,0.809793 -1.16808,1.291304 -1.80147,1.887255 -0.61329,0.577047 -1.102,1.477241 -1.93014,1.629902 -0.29794,0.05492 -0.85786,-0.300245 -0.85786,-0.300245 z"
         style="fill:#552e26;fill-opacity:1;stroke:none" />
    </g>
  </g>
</svg>
