<?xml version="1.0" encoding="UTF-8" standalone="no"?>
<!-- Created with Inkscape (http://www.inkscape.org/) -->

<svg
   xmlns:dc="http://purl.org/dc/elements/1.1/"
   xmlns:cc="http://creativecommons.org/ns#"
   xmlns:rdf="http://www.w3.org/1999/02/22-rdf-syntax-ns#"
   xmlns:svg="http://www.w3.org/2000/svg"
   xmlns="http://www.w3.org/2000/svg"
   xmlns:xlink="http://www.w3.org/1999/xlink"
   xmlns:sodipodi="http://sodipodi.sourceforge.net/DTD/sodipodi-0.dtd"
   xmlns:inkscape="http://www.inkscape.org/namespaces/inkscape"
   height="18.895483mm"
   id="svg1"
   inkscape:version="0.92.2 (5c3e80d, 2017-08-06)"
   sodipodi:docname="orca.svg"
   sodipodi:version="0.32"
   width="33.866722mm"
   version="1.1">
  <metadata
     id="metadata2">
    <rdf:RDF>
      <cc:Work
         rdf:about="">
        <dc:title></dc:title>
        <dc:description>An Orca, swimming</dc:description>
        <dc:subject>
          <rdf:Bag>
            <rdf:li>toothedwhale</rdf:li>
            <rdf:li>swimming</rdf:li>
            <rdf:li>orca</rdf:li>
            <rdf:li>sea</rdf:li>
            <rdf:li>fish</rdf:li>
            <rdf:li>mammal</rdf:li>
            <rdf:li>cetacean</rdf:li>
            <rdf:li>maritime</rdf:li>
            <rdf:li>animal</rdf:li>
            <rdf:li>wilflife</rdf:li>
            <rdf:li>marine</rdf:li>
            <rdf:li>dolphin</rdf:li>
            <rdf:li>ocean</rdf:li>
          </rdf:Bag>
        </dc:subject>
        <dc:publisher>
          <cc:Agent
             rdf:about="http://www.openclipart.org/">
            <dc:title>Matthew Gates</dc:title>
          </cc:Agent>
        </dc:publisher>
        <dc:creator>
          <cc:Agent>
            <dc:title>Matthew Gates</dc:title>
          </cc:Agent>
        </dc:creator>
        <dc:rights>
          <cc:Agent>
            <dc:title>Public Domain</dc:title>
          </cc:Agent>
        </dc:rights>
        <dc:date>2005-05-27</dc:date>
        <dc:format>image/svg+xml</dc:format>
        <dc:type
           rdf:resource="http://purl.org/dc/dcmitype/StillImage" />
        <cc:license
           rdf:resource="http://creativecommons.org/publicdomain/zero/1.0/" />
        <dc:language>English</dc:language>
      </cc:Work>
      <cc:License
         rdf:about="http://creativecommons.org/publicdomain/zero/1.0/">
        <cc:permits
           rdf:resource="http://creativecommons.org/ns#Reproduction" />
        <cc:permits
           rdf:resource="http://creativecommons.org/ns#Distribution" />
        <cc:permits
           rdf:resource="http://creativecommons.org/ns#DerivativeWorks" />
      </cc:License>
    </rdf:RDF>
  </metadata>
  <defs
     id="defs3">
    <linearGradient
       id="linearGradient601">
      <stop
         id="stop602"
         offset="0.00000000"
         style="stop-color:#424242;stop-opacity:1;" />
      <stop
         id="stop603"
         offset="1.00000000"
         style="stop-color:#000000;stop-opacity:1;" />
    </linearGradient>
    <linearGradient
       id="linearGradient592">
      <stop
         id="stop593"
         offset="0.00000000"
         style="stop-color:#f5fff5;stop-opacity:0.967742;" />
      <stop
         id="stop594"
         offset="1.00000000"
         style="stop-color:#000000;stop-opacity:1;" />
    </linearGradient>
    <linearGradient
       id="linearGradient576">
      <stop
         id="stop577"
         offset="0.00000000"
         style="stop-color:#002b00;stop-opacity:1;" />
      <stop
         id="stop578"
         offset="1.00000000"
         style="stop-color:#a7aaa7;stop-opacity:1;" />
    </linearGradient>
    <linearGradient
       id="linearGradient579"
       x1="481.87448"
       x2="438.44141"
       xlink:href="#linearGradient601"
       y1="357.71146"
       y2="163.63852"
       gradientTransform="scale(0.77103956,1.2969503)"
       gradientUnits="userSpaceOnUse" />
    <radialGradient
       id="radialGradient588"
       xlink:href="#linearGradient576" />
    <linearGradient
       id="linearGradient590"
       x1="383.85129"
       x2="418.82303"
       xlink:href="#linearGradient592"
       y1="273.29791"
       y2="364.2326"
       gradientTransform="scale(0.93251207,1.0723722)"
       gradientUnits="userSpaceOnUse" />
    <linearGradient
       id="linearGradient591"
       x1="242.76605"
       x2="316.09402"
       xlink:href="#linearGradient592"
       y1="568.50708"
       y2="654.09595"
       gradientTransform="scale(1.4608121,0.68455072)"
       gradientUnits="userSpaceOnUse" />
    <linearGradient
       id="linearGradient595"
       x1="87.787224"
       x2="89.831627"
       xlink:href="#linearGradient592"
       y1="677.80481"
       y2="731.00629"
       gradientTransform="scale(1.7636948,0.56699153)"
       gradientUnits="userSpaceOnUse" />
    <linearGradient
       id="linearGradient596"
       x1="102.02952"
       x2="70.338409"
       xlink:href="#linearGradient592"
       y1="540.42694"
       y2="589.24945"
       gradientTransform="scale(1.3146291,0.76067081)"
       gradientUnits="userSpaceOnUse" />
    <linearGradient
       id="linearGradient597"
       x1="462.11581"
       x2="466.03326"
       xlink:href="#linearGradient592"
       y1="382.90961"
       y2="394.17776"
       gradientTransform="scale(1.2984671,0.77013888)"
       gradientUnits="userSpaceOnUse" />
    <linearGradient
       id="linearGradient598"
       x1="345.98788"
       x2="217.37979"
       xlink:href="#linearGradient601"
       y1="222.85207"
       y2="487.27866"
       gradientTransform="scale(0.92929731,1.0760819)"
       gradientUnits="userSpaceOnUse" />
    <linearGradient
       id="linearGradient599"
       x1="209.44608"
       x2="277.26428"
       xlink:href="#linearGradient601"
       y1="574.76874"
       y2="619.53479"
       gradientTransform="scale(1.2069484,0.82853582)"
       gradientUnits="userSpaceOnUse" />
    <linearGradient
       id="linearGradient600"
       x1="197.44334"
       x2="321.53943"
       xlink:href="#linearGradient601"
       y1="456.05374"
       y2="654.44745"
       gradientTransform="scale(1.7645985,0.56670116)"
       gradientUnits="userSpaceOnUse" />
  </defs>
  <sodipodi:namedview
     bordercolor="#666666"
     borderopacity="1.0"
     id="base"
     inkscape:current-layer="svg1"
     inkscape:cx="-49.821939"
     inkscape:cy="-50.89573"
     inkscape:pageopacity="0.0"
     inkscape:pageshadow="2"
     inkscape:window-height="1025"
     inkscape:window-width="1920"
     inkscape:window-x="-8"
     inkscape:window-y="-8"
     inkscape:zoom="1.6075419"
     pagecolor="#ffffff"
     showgrid="false"
     inkscape:window-maximized="1"
     fit-margin-top="0"
     fit-margin-left="0"
     fit-margin-right="0"
     fit-margin-bottom="0" />
  <g
     id="g852"
     transform="matrix(0.20947317,0,0,0.20947317,-15.753408,-42.136805)">
    <path
       style="fill:url(#linearGradient600);fill-opacity:1;fill-rule:evenodd;stroke:none;stroke-width:0.375;stroke-linecap:butt;stroke-linejoin:miter;stroke-dasharray:none;stroke-opacity:1"
       sodipodi:nodetypes="cccccccccccccccccccccccccccccccccc"
       id="path575"
       d="m 76.223831,382.68138 c 2.233468,-2.44313 1.154114,-1.06559 6.036926,-4.21422 4.540981,-4.14391 9.799417,-9.56091 14.833885,-12.35174 5.239118,-3.7892 11.407348,-5.02337 22.221118,-5.79297 2.40449,-0.24759 4.69283,-0.26291 8.37485,-0.39435 9.25818,-0.49139 39.189,-3.42169 50.76995,-5.07447 19.06884,-3.68716 50.09995,-11.55532 79.85353,-16.63615 8.54209,-1.53664 20.56834,-4.23466 30.85251,-6.35199 10.36846,-2.50789 33.86058,-9.54518 40.86103,-11.00783 9.25939,-2.09307 25.71936,-4.41842 41.71478,-5.9308 21.11704,-4.84598 33.75597,-8.06601 46.27876,-12.09902 10.1797,-3.8544 42.54186,-17.69672 64.56769,-24.91913 14.49972,-4.5435 32.13517,-10.01611 51.28043,-11.07545 6.73891,-0.36752 39.72512,-1.19959 59.58768,7.25941 7.09476,2.05608 16.16387,7.24789 18.14853,7.56189 2.47347,-0.25016 10.98616,-3.17153 19.96339,-4.23466 8.72964,-0.6662 18.85294,-1.10013 20.26586,-0.60495 0.44667,1.55832 -2.82311,1.60683 -4.23466,3.6297 0.27185,1.71403 1.00825,3.42806 1.51238,5.14209 -1.26478,1.35667 -3.69096,1.55195 -4.83961,3.02475 1.04783,1.11545 3.91657,-0.64359 4.53713,0.90743 6.35966,4.28149 9.50879,14.2706 16.93863,20.87081 7.1353,10.26037 19.97822,14.09966 20.51408,16.69041 -0.69913,2.92341 -21.19656,-1.10934 -31.70567,-5.49882 -20.7229,-6.84844 -38.59199,-25.29047 -48.07801,-23.39911 -24.66326,7.05034 -44.51073,14.99251 -69.88745,30.96101 -34.91647,24.3068 -67.33586,52.89431 -103.14415,77.7362 -23.63225,15.75176 -52.43702,31.50352 -81.06344,40.8342 -30.41005,8.58524 -46.19431,11.6412 -81.06344,14.51882 -11.2072,0.20165 -24.73313,0.76003 -36.29706,0.60495 -28.01353,-2.39677 -58.52415,-9.25263 -74.40898,-13.6114 -18.38115,-7.46132 -34.62193,-15.63609 -53.53817,-29.34012 -9.361129,-8.37616 -15.511722,-13.00671 -25.586303,-22.45305 -2.171579,-3.84696 -8.802238,-8.22903 -5.266196,-14.75144 z"
       inkscape:connector-curvature="0" />
    <path
       style="fill:url(#linearGradient579);fill-opacity:1;fill-rule:evenodd;stroke:none;stroke-width:0.5;stroke-linecap:butt;stroke-linejoin:miter;stroke-dasharray:none;stroke-opacity:1"
       sodipodi:nodetypes="ccccccccccccc"
       id="path580"
       d="m 289.79272,331.66999 c 1.18889,-3.34376 3.26945,-4.68127 4.23543,-8.69378 3.12084,-19.61674 5.35002,-36.11263 8.02503,-54.16895 1.56042,-20.58271 4.23543,-34.92374 8.02503,-48.37309 2.6617,-7.86068 4.81404,-13.31658 9.58545,-17.61048 2.33053,-1.47492 5.60682,-2.63457 6.83395,-0.48408 -0.21171,7.96192 0.3647,15.60859 1.414,26.56542 2.50154,13.16333 7.20985,28.21819 12.70629,42.80016 4.27367,10.95 9.02024,21.26949 14.71255,31.43136 6.12012,9.52043 13.65889,10.52902 12.05531,12.95626 -4.70341,1.86666 -23.21771,4.68455 -33.08,6.16462 -9.72211,1.9001 -21.00655,3.9971 -30.72305,6.49918 -4.1431,1.35553 -12.89832,4.32519 -13.78999,2.91338 z"
       inkscape:connector-curvature="0" />
    <path
       style="fill:url(#linearGradient599);fill-opacity:1;fill-rule:evenodd;stroke:none;stroke-width:0.125;stroke-linecap:butt;stroke-linejoin:miter;stroke-dasharray:none;stroke-opacity:1"
       sodipodi:nodetypes="cccccccccc"
       id="path581"
       d="m 269.03163,462.25269 c 4.04878,5.48398 8.66524,10.4949 11.8625,16.16811 2.45784,4.21779 3.11803,8.71941 2.54824,12.9372 -0.9555,3.58008 -2.10024,7.63323 -6.27259,9.32105 -6.09226,0.92576 -12.18451,-0.0408 -16.85757,-1.48032 -5.51989,-2.01873 -8.57983,-3.09133 -13.72127,-5.48851 -6.53394,-6.27258 -13.06789,-12.54517 -19.60183,-18.81775 0.52272,-4.2448 1.04543,-8.4896 1.56815,-12.7344 2.25308,0.32443 4.50616,0.45964 6.75923,0.68946 11.42761,0.0856 22.47676,-0.30195 33.71514,-0.59484 z"
       inkscape:connector-curvature="0" />
    <path
       style="fill:url(#linearGradient595);fill-opacity:1;fill-rule:evenodd;stroke:none;stroke-width:0.375;stroke-linecap:butt;stroke-linejoin:miter;stroke-dasharray:none;stroke-opacity:1"
       sodipodi:nodetypes="cccccccccc"
       id="path583"
       d="m 130.91923,384.653 c -0.0295,0.9964 0.73883,2.30444 2.1485,3.24148 1.12955,0.30439 -0.30331,2.27471 3.73886,4.51912 3.15311,0.32764 9.81294,3.27043 16.53219,3.77637 5.20438,0.20768 12.66731,-0.47617 20.60573,-1.87325 5.26235,-1.66547 12.30777,-4.28191 12.57753,-6.95778 -1.72539,-2.88375 -4.58006,-5.05428 -9.63385,-6.15496 -7.40379,-1.45652 -14.86703,-1.3677 -21.97364,-2.11099 -4.63842,-0.8322 -8.86079,-1.01061 -13.61809,-0.29747 -3.47889,0.80341 -9.84085,3.21099 -10.37723,5.85748 z"
       inkscape:connector-curvature="0" />
    <path
       style="fill:url(#linearGradient591);fill-opacity:1;fill-rule:evenodd;stroke:none;stroke-width:0.125;stroke-linecap:butt;stroke-linejoin:miter;stroke-dasharray:none;stroke-opacity:1"
       sodipodi:nodetypes="cccccccccccccccccccccccc"
       id="path585"
       d="m 483.53849,341.48548 c -6.91898,-2.56991 -14.23335,-1.18611 -21.35002,0 -11.86112,3.75602 -29.69896,11.37347 -36.17643,16.01251 -11.07038,7.97331 -21.94307,17.7258 -27.28058,30.44356 -12.05882,23.19509 -8.89584,28.00543 -13.6403,32.61809 -2.30632,5.86467 -5.4034,10.54321 -8.69815,11.86112 -14.36514,7.77563 -31.30019,12.38828 -47.24682,16.80326 -22.9974,5.4693 -45.00638,6.19414 -67.21303,6.91899 -10.41143,0.0659 -21.8113,0.72485 -32.22273,0.79075 -1.91096,1.84506 -2.83348,3.09707 -4.74444,4.94213 16.67146,1.97685 32.55219,0.39537 45.26995,0.59305 15.75289,-1.53139 31.8893,-2.67926 47.64219,-6.12824 14.8185,-2.48158 29.38133,-6.88076 43.68847,-11.66344 18.15545,-6.64088 35.16034,-15.19934 51.52605,-24.78052 16.29063,-9.12119 30.66366,-19.2651 43.88615,-29.92035 10.58936,-7.70973 20.28385,-15.67514 29.97834,-23.12919 0,-1.12022 0.51135,-3.13531 -0.25568,-3.61633 -1.3258,-0.29391 -2.90729,1.32975 -4.74445,2.56991 -17.8233,15.48408 -37.05281,28.79489 -56.53802,39.93245 -3.32114,0.75913 -5.74741,0.49555 -6.12825,-0.79074 0.11726,-3.4226 3.17481,-7.48438 5.3375,-9.88427 15.26129,-13.60078 33.84639,-24.00558 49.61904,-36.96717 3.99194,-4.31352 7.85605,-7.60432 8.77985,-9.61674 1.40623,-1.60518 1.91759,-5.00013 0.51136,-6.98883 z"
       inkscape:connector-curvature="0" />
    <path
       style="fill:url(#linearGradient597);fill-opacity:1;fill-rule:evenodd;stroke:none;stroke-width:0.125;stroke-linecap:butt;stroke-linejoin:miter;stroke-dasharray:none;stroke-opacity:1"
       sodipodi:nodetypes="cccccc"
       id="path586"
       d="m 595.08518,301.53943 c -0.61578,-0.4714 0.43227,-5.07016 1.16122,-6.38488 0.44713,-0.63481 5.29315,-0.92774 6.42404,-0.65086 0.93627,0.0362 4.58481,2.76182 4.24471,3.55013 -1.20052,0.33405 -4.07154,1.20038 -6.20043,1.80864 -1.85242,0.55296 -4.88842,1.60406 -5.62954,1.67697 z"
       inkscape:connector-curvature="0" />
    <path
       style="fill:url(#linearGradient596);fill-opacity:1;fill-rule:evenodd;stroke:none;stroke-width:0.125;stroke-linecap:butt;stroke-linejoin:miter;stroke-dasharray:none;stroke-opacity:1"
       sodipodi:nodetypes="cscccccccccccc"
       id="path587"
       d="m 78.734181,393.36961 c 0.725957,-0.87265 8.066375,1.97865 16.945112,2.97306 8.773977,0.88238 18.275037,3.29413 21.809027,4.12636 1.80367,0.58077 3.90819,1.3621 7.31646,2.04316 0.88013,-1.14507 0.75739,-2.08957 1.0358,-3.43521 1.84708,-0.4206 11.31595,2.56854 22.69028,4.45454 8.66508,2.96221 20.03791,18.35998 29.50529,27.84083 2.53262,3.61032 4.36323,7.02009 3.4861,9.32668 -2.69128,4.03692 -5.38257,8.07385 -8.07385,12.11077 -1.01335,-0.11076 -10.14993,-2.62842 -12.66758,-3.3409 -11.81739,-4.78982 -24.33678,-10.68279 -36.05388,-17.67893 -6.82849,-4.28539 -14.2587,-8.97194 -20.1846,-14.05963 -8.59773,-7.32992 -15.59087,-12.95497 -22.985157,-19.98403 -1.375577,-1.79318 -1.347139,-2.48323 -2.823002,-4.3767 z"
       inkscape:connector-curvature="0" />
    <path
       style="fill:url(#linearGradient590);fill-opacity:1;fill-rule:evenodd;stroke:none;stroke-width:0.125;stroke-linecap:butt;stroke-linejoin:miter;stroke-dasharray:none;stroke-opacity:1"
       sodipodi:nodetypes="cccccccccccccccc"
       id="path589"
       d="m 343.48177,380.53975 c 3.82384,-0.85062 9.15015,-1.94028 10.03735,-2.55187 1.94942,-1.02562 5.87937,-6.14889 6.97512,-8.50624 2.82748,-5.61167 4.11836,-16.51612 5.61411,-18.88384 6.65133,-3.21773 10.05869,-16.13319 15.65147,-21.94609 2.71164,-2.60797 6.85743,-6.34279 7.31537,-8.33611 -0.45367,-2.15613 -2.74456,-3.96957 -4.93362,-4.93361 -4.08299,-0.6805 -8.67635,0.68049 -11.7386,1.02074 -6.40803,0.51038 -14.17706,3.23238 -17.69297,5.10375 -5.89765,4.30982 -12.98619,9.6404 -17.1826,14.97097 -1.92807,2.43846 -4.87691,6.9184 -5.27386,9.86723 -0.0662,1.10324 1.97393,3.5398 5.44399,11.90873 3.68603,2.7787 7.88244,5.04704 11.0581,8.33611 1.41771,2.26833 1.81466,4.19641 2.21162,6.80499 -0.11159,1.73662 -0.70123,3.20005 -1.87137,4.08299 -1.56405,1.25978 -3.74274,2.0415 -5.61411,3.06225 z"
       inkscape:connector-curvature="0" />
    <path
       style="fill:url(#linearGradient598);fill-opacity:1;fill-rule:evenodd;stroke:none;stroke-width:0.125;stroke-linecap:butt;stroke-linejoin:miter;stroke-dasharray:none;stroke-opacity:1"
       sodipodi:nodetypes="ccccccccccccccc"
       id="path582"
       d="m 170.59942,444.35922 c 0.0892,2.76527 4.99533,20.11512 9.76766,33.31706 2.94367,8.51882 8.72529,21.60597 11.7747,25.82407 2.15472,3.46095 15.96722,19.40151 25.55647,26.8945 5.53055,4.86153 11.32869,9.05403 18.19727,11.37329 3.96951,0.49061 8.74182,0.57982 11.10569,-0.93662 4.0141,-3.52349 8.69723,-10.79348 9.63385,-14.98599 1.02583,-7.93901 0.57981,-13.46955 -1.33804,-18.59868 -1.78405,-7.22539 -4.37091,-13.78176 -7.7606,-20.87334 -3.47889,-8.07281 -8.29582,-15.6104 -13.24654,-22.61279 -2.80987,-4.50471 -3.7465,-8.87564 -6.02116,-9.50005 -5.88735,-3.8803 -12.04231,-6.15496 -18.46488,-8.02821 -7.09159,-2.09625 -14.31697,-3.12208 -21.67616,-3.8803 -4.46012,-0.66902 -8.38502,-0.53521 -12.17612,-0.40141 -1.78405,0.26761 -4.50471,-0.2676 -5.35214,2.40847 z"
       inkscape:connector-curvature="0" />
  </g>
</svg>
