<?xml version="1.0" encoding="UTF-8" standalone="no"?>
<!-- Created with Inkscape (http://www.inkscape.org/) -->

<svg
   xmlns:dc="http://purl.org/dc/elements/1.1/"
   xmlns:cc="http://creativecommons.org/ns#"
   xmlns:rdf="http://www.w3.org/1999/02/22-rdf-syntax-ns#"
   xmlns:svg="http://www.w3.org/2000/svg"
   xmlns="http://www.w3.org/2000/svg"
   xmlns:sodipodi="http://sodipodi.sourceforge.net/DTD/sodipodi-0.dtd"
   xmlns:inkscape="http://www.inkscape.org/namespaces/inkscape"
   id="svg2"
   version="1.1"
   inkscape:version="0.47 r22583"
   width="1205.324"
   height="994.3703"
   sodipodi:docname="sea_urchin.svg">
  <title
     id="title2818">Sea Urchin</title>
  <metadata
     id="metadata8">
    <rdf:RDF>
      <cc:Work
         rdf:about="">
        <dc:format>image/svg+xml</dc:format>
        <dc:type
           rdf:resource="http://purl.org/dc/dcmitype/StillImage" />
        <dc:title>Sea Urchin</dc:title>
        <dc:creator>
          <cc:Agent>
            <dc:title>Jordan Irwin</dc:title>
          </cc:Agent>
        </dc:creator>
        <dc:source>http://upload.wikimedia.org/wikipedia/commons/2/28/Seaurchin.jpg</dc:source>
        <dc:subject>
          <rdf:Bag>
            <rdf:li>sea</rdf:li>
            <rdf:li>urchin</rdf:li>
            <rdf:li>echinoidea</rdf:li>
            <rdf:li>echinoderm</rdf:li>
            <rdf:li>ocean</rdf:li>
            <rdf:li>spine</rdf:li>
            <rdf:li>spines</rdf:li>
            <rdf:li>spiny</rdf:li>
            <rdf:li>animal</rdf:li>
          </rdf:Bag>
        </dc:subject>
        <cc:license
           rdf:resource="http://creativecommons.org/licenses/publicdomain/" />
        <dc:date>2010-07-03</dc:date>
      </cc:Work>
      <cc:License
         rdf:about="http://creativecommons.org/licenses/publicdomain/">
        <cc:permits
           rdf:resource="http://creativecommons.org/ns#Reproduction" />
        <cc:permits
           rdf:resource="http://creativecommons.org/ns#Distribution" />
        <cc:permits
           rdf:resource="http://creativecommons.org/ns#DerivativeWorks" />
      </cc:License>
    </rdf:RDF>
  </metadata>
  <defs
     id="defs6">
    <inkscape:perspective
       sodipodi:type="inkscape:persp3d"
       inkscape:vp_x="0 : 0.5 : 1"
       inkscape:vp_y="0 : 1000 : 0"
       inkscape:vp_z="1 : 0.5 : 1"
       inkscape:persp3d-origin="0.5 : 0.33333333 : 1"
       id="perspective10" />
  </defs>
  <sodipodi:namedview
     pagecolor="#ffffff"
     bordercolor="#666666"
     borderopacity="1"
     objecttolerance="10"
     gridtolerance="10"
     guidetolerance="10"
     inkscape:pageopacity="0"
     inkscape:pageshadow="2"
     inkscape:window-width="1280"
     inkscape:window-height="968"
     id="namedview4"
     showgrid="false"
     inkscape:zoom="1.0282652"
     inkscape:cx="516.37067"
     inkscape:cy="608.7323"
     inkscape:window-x="-4"
     inkscape:window-y="-4"
     inkscape:window-maximized="1"
     inkscape:current-layer="svg2"
     showguides="true"
     inkscape:guide-bbox="true" />
  <path
     sodipodi:type="arc"
     style="fill:#28170b;fill-opacity:1;stroke:none"
     id="path2820"
     sodipodi:cx="747.65118"
     sodipodi:cy="540.97998"
     sodipodi:rx="301.71115"
     sodipodi:ry="271.30615"
     d="m 1049.3623,540.97998 a 301.71115,271.30615 0 1 1 -603.42227,0 301.71115,271.30615 0 1 1 603.42227,0 z"
     transform="matrix(1.0671835,0,0,1.0488506,-216.17752,-129.34769)" />
  <g
     id="g4372"
     style="fill:#e4dcbb;fill-opacity:1;stroke:none"
     transform="translate(-44.368954,-5.9087137)">
    <path
       sodipodi:nodetypes="csssc"
       id="path3596"
       d="m 507.51855,314.89539 c 0,9.4578 -13.54578,17.12486 -22.57368,17.12486 -9.0279,0 -16.73567,-8.83466 -16.73567,-18.29246 0,-9.4578 13.93499,-13.62205 22.96289,-13.62205 9.0279,0 16.34646,5.33185 16.34646,14.78965 z"
       style="fill:#e4dcbb;fill-opacity:1;stroke:none"
       transform="translate(76.283465,70.056243)" />
    <path
       id="path3598"
       d="m 451.20646,356.08359 c 0,8.49416 -6.70249,18.24917 -14.97041,21.78841 -8.26795,3.53923 -14.97043,-0.47754 -14.97043,-8.97171 0,-8.49416 6.70248,-18.24915 14.97043,-21.78838 8.26792,-3.53924 14.97041,0.47751 14.97041,8.97168 z"
       style="fill:#e4dcbb;fill-opacity:1;stroke:none" />
    <path
       id="path3600"
       d="m 558.47836,330.47451 c -3.62671,7.14586 -14.04811,13.45653 -23.27683,14.09527 -9.22872,0.63874 -13.77004,-4.63633 -10.14332,-11.78219 3.62672,-7.14587 14.04812,-13.45654 23.27684,-14.09528 9.22872,-0.63874 13.77004,4.63633 10.14331,11.7822 z"
       style="fill:#e4dcbb;fill-opacity:1;stroke:none" />
    <path
       id="path3602"
       d="m 632.34411,347.8161 c -1.84526,4.97828 -9.47867,8.91197 -17.04971,8.78616 -7.57102,-0.12581 -12.21268,-4.26348 -10.36743,-9.24175 1.84527,-4.97827 9.47868,-8.91198 17.0497,-8.78617 7.57104,0.12581 12.21269,4.26349 10.36744,9.24176 z"
       style="fill:#e4dcbb;fill-opacity:1;stroke:none" />
    <path
       id="path3604"
       d="m 672.53995,315.18654 c 0,5.5887 -7.14475,10.11923 -15.95824,10.11923 -8.81349,0 -15.95824,-4.53053 -15.95824,-10.11923 0,-5.5887 7.14475,-10.11924 15.95824,-10.11924 8.81349,0 15.95824,4.53054 15.95824,10.11924 z"
       style="fill:#e4dcbb;fill-opacity:1;stroke:none" />
    <path
       id="path3606"
       d="m 737.22557,339.3599 c 2.34608,5.12833 -2.40861,9.28566 -10.61988,9.28566 -8.21129,0 -16.76973,-4.15733 -19.11581,-9.28566 -2.34608,-5.12833 2.4086,-9.28566 10.61989,-9.28566 8.21128,0 16.76972,4.15733 19.1158,9.28566 z"
       style="fill:#e4dcbb;fill-opacity:1;stroke:none" />
    <path
       id="path3608"
       d="m 754.2722,446.44543 c 0,5.80366 -6.97005,10.50845 -15.56805,10.50845 -8.59799,0 -15.56806,-4.70479 -15.56806,-10.50845 0,-5.80363 6.97007,-10.50843 15.56806,-10.50843 8.598,0 15.56805,4.7048 15.56805,10.50843 z"
       style="fill:#e4dcbb;fill-opacity:1;stroke:none" />
    <path
       id="path3610"
       d="m 799.4196,410.28463 c 0,10.55071 -6.70868,17.51985 -14.98425,15.56602 -8.27558,-1.95384 -14.98425,-12.09076 -14.98425,-22.64146 0,-10.55071 6.70867,-17.51985 14.98425,-15.56602 8.27557,1.95384 14.98425,12.09076 14.98425,22.64146 z"
       style="fill:#e4dcbb;fill-opacity:1;stroke:none" />
    <path
       id="path3612"
       d="m 518.4162,616.01258 c 0,7.99417 -8.39396,10.46296 -18.74844,5.51419 -10.35448,-4.94878 -18.74844,-15.4411 -18.74844,-23.43527 0,-7.99417 8.39396,-10.46296 18.74844,-5.51419 10.35448,4.94877 18.74844,15.4411 18.74844,23.43527 z"
       style="fill:#e4dcbb;fill-opacity:1;stroke:none" />
    <path
       id="path3614"
       d="m 560.44995,590.18704 c 0,8.39303 -8.71257,14.26912 -19.46007,13.12462 -10.7475,-1.14451 -19.46006,-8.87621 -19.46006,-17.26924 0,-8.39302 8.71256,-14.26911 19.46006,-13.12461 10.7475,1.14451 19.46007,8.8762 19.46007,17.26923 z"
       style="fill:#e4dcbb;fill-opacity:1;stroke:none" />
    <path
       id="path3616"
       d="m 514.52417,548.95583 c 0,8.51142 -7.40568,14.21131 -16.54106,12.73106 -9.13537,-1.48024 -16.54105,-9.58009 -16.54105,-18.09149 0,-8.51141 7.40568,-14.21131 16.54105,-12.73106 9.13538,1.48024 16.54106,9.58009 16.54106,18.09149 z"
       style="fill:#e4dcbb;fill-opacity:1;stroke:none" />
    <path
       id="path3618"
       d="m 462.56008,553.11424 c 0,9.8877 -8.01556,15.81224 -17.90326,13.23284 -9.8877,-2.5794 -17.90326,-12.68597 -17.90326,-22.57367 0,-9.8877 8.01556,-15.81225 17.90326,-13.23285 9.8877,2.5794 17.90326,12.68598 17.90326,22.57368 z"
       style="fill:#e4dcbb;fill-opacity:1;stroke:none" />
    <path
       id="path3620"
       d="m 472.87965,497.43081 c 0,6.4485 -5.22754,11.67604 -11.67604,11.67604 -6.4485,0 -11.67604,-5.22754 -11.67604,-11.67604 0,-6.4485 5.22754,-11.67604 11.67604,-11.67604 6.4485,0 11.67604,5.22754 11.67604,11.67604 z"
       style="fill:#e4dcbb;fill-opacity:1;stroke:none" />
    <path
       id="path3622"
       d="m 498.17772,481.86276 c 0,7.3083 -5.22754,13.23285 -11.67604,13.23285 -6.4485,0 -11.67604,-5.92455 -11.67604,-13.23285 0,-7.3083 5.22754,-13.23284 11.67604,-13.23284 6.4485,0 11.67604,5.92454 11.67604,13.23284 z"
       style="fill:#e4dcbb;fill-opacity:1;stroke:none" />
    <path
       sodipodi:nodetypes="csssc"
       id="path3624"
       d="m 535.54108,453.84026 c 0,10.7475 -7.58567,14.98426 -17.90327,14.98426 -10.3176,0 -12.45444,-7.54497 -12.45444,-18.29247 0,-10.74749 6.02886,-15.76265 16.34646,-15.76265 10.3176,0 14.01125,8.32337 14.01125,19.07086 z"
       style="fill:#e4dcbb;fill-opacity:1;stroke:none"
       transform="matrix(1,0.24999999,0,1,0.7784027,-138.55568)" />
    <path
       id="path3626"
       d="m 601.70531,431.60322 c 0,9.24485 -6.62154,15.71731 -14.78964,14.45664 -8.1681,-1.26066 -14.78966,-9.77705 -14.78966,-19.0219 0,-9.24485 6.62156,-15.7173 14.78966,-14.45664 8.1681,1.26066 14.78964,9.77705 14.78964,19.0219 z"
       style="fill:#e4dcbb;fill-opacity:1;stroke:none" />
    <path
       id="path3628"
       d="m 839.26776,449.38666 c 1.6959,8.09994 -1.87535,15.7018 -7.9766,16.97923 -6.10126,1.27743 -12.4221,-4.2533 -14.118,-12.35325 -1.6959,-8.09993 1.87535,-15.70181 7.9766,-16.97924 6.10126,-1.27743 12.4221,4.25332 14.118,12.35326 z"
       style="fill:#e4dcbb;fill-opacity:1;stroke:none" />
    <path
       id="path3630"
       d="m 879.06876,426.31028 c 1.38842,9.28076 -3.00071,17.62931 -9.80341,18.64701 -6.80269,1.0177 -13.4429,-5.68083 -14.83133,-14.96159 -1.38842,-9.28076 3.00071,-17.62931 9.80341,-18.64701 6.80269,-1.0177 13.4429,5.68083 14.83133,14.96159 z"
       style="fill:#e4dcbb;fill-opacity:1;stroke:none" />
    <path
       id="path3632"
       d="m 688.5716,650.02923 c -3.02021,6.54243 -12.99472,10.96078 -22.27866,9.86866 -9.28395,-1.09211 -14.3617,-7.28117 -11.34147,-13.8236 3.02023,-6.54243 12.99473,-10.96077 22.27867,-9.86865 9.28394,1.09211 14.36169,7.28116 11.34146,13.82359 z"
       style="fill:#e4dcbb;fill-opacity:1;stroke:none" />
    <path
       id="path3634"
       d="m 739.48256,582.03821 c 0,7.65509 -6.62155,11.70227 -14.78965,9.03963 -8.1681,-2.66264 -14.78965,-11.02681 -14.78965,-18.6819 0,-7.65509 6.62155,-11.70227 14.78965,-9.03963 8.1681,2.66264 14.78965,11.02681 14.78965,18.6819 z"
       style="fill:#e4dcbb;fill-opacity:1;stroke:none" />
    <path
       id="path3636"
       d="m 783.23887,529.23494 c 3.28268,7.72752 -0.92621,17.87484 -9.40079,22.6647 -8.47458,4.78986 -18.00572,2.40842 -21.28839,-5.31909 -3.28268,-7.72752 0.9262,-17.87484 9.40079,-22.66471 8.47457,-4.78985 18.00572,-2.40841 21.28839,5.3191 z"
       style="fill:#e4dcbb;fill-opacity:1;stroke:none" />
    <path
       id="path3638"
       d="m 563.56358,542.09805 c 0,7.13551 -6.53443,11.04394 -14.59505,8.72972 -8.06062,-2.31422 -14.59505,-9.97474 -14.59505,-17.11025 0,-7.1355 6.53443,-11.04392 14.59505,-8.72971 8.06062,2.31422 14.59505,9.97473 14.59505,17.11024 z"
       style="fill:#e4dcbb;fill-opacity:1;stroke:none" />
    <path
       id="path3640"
       d="m 578.11202,476.94752 c -1.80575,6.63714 -10.55235,10.03621 -19.53607,7.59203 -8.98373,-2.44418 -14.80262,-9.80605 -12.99687,-16.44319 1.80575,-6.63713 10.55234,-10.0362 19.53607,-7.59201 8.98373,2.44418 14.80262,9.80604 12.99687,16.44317 z"
       style="fill:#e4dcbb;fill-opacity:1;stroke:none" />
    <path
       id="path3642"
       d="m 691.52546,443.72104 c 2.49093,8.598 -1.04284,15.56805 -7.89291,15.56805 -6.85006,0 -14.42243,-6.97005 -16.91336,-15.56805 -2.49094,-8.598 1.04284,-15.56806 7.8929,-15.56806 6.85006,0 14.42244,6.97006 16.91337,15.56806 z"
       style="fill:#e4dcbb;fill-opacity:1;stroke:none" />
    <path
       id="path3644"
       d="m 625.00522,686.83477 c -4.57153,7.20589 -16.41048,8.65046 -26.44296,3.22653 -10.0325,-5.42394 -14.45949,-15.66244 -9.88794,-22.86836 4.57154,-7.20588 16.41046,-8.65046 26.44296,-3.22652 10.0325,5.42394 14.45947,15.66244 9.88794,22.86835 z"
       style="fill:#e4dcbb;fill-opacity:1;stroke:none" />
    <path
       id="path3646"
       d="m 470.24968,641.62228 c 0,7.47055 -9.20542,8.42676 -20.5609,2.13578 -11.35547,-6.29099 -20.5609,-17.44692 -20.5609,-24.91747 0,-7.47055 9.20543,-8.42677 20.5609,-2.13579 11.35548,6.29099 20.5609,17.44693 20.5609,24.91748 z"
       style="fill:#e4dcbb;fill-opacity:1;stroke:none" />
    <path
       id="path3648"
       d="m 436.73923,488.86838 c 0,8.598 -5.22754,15.56805 -11.67604,15.56805 -6.4485,0 -11.67604,-6.97005 -11.67604,-15.56805 0,-8.598 5.22754,-15.56806 11.67604,-15.56806 6.4485,0 11.67604,6.97006 11.67604,15.56806 z"
       style="fill:#e4dcbb;fill-opacity:1;stroke:none" />
    <path
       id="path3650"
       d="m 717.22872,394.62649 c 0,6.02097 -6.27305,10.90194 -14.01125,10.90194 -7.7382,0 -14.01125,-4.88097 -14.01125,-10.90194 0,-6.02097 6.27305,-10.90194 14.01125,-10.90194 7.7382,0 14.01125,4.88097 14.01125,10.90194 z"
       style="fill:#e4dcbb;fill-opacity:1;stroke:none" />
    <path
       id="path3652"
       d="m 668.64792,369.75957 c 0,4.52372 -6.62155,9.60137 -14.78965,11.34126 -8.1681,1.73989 -14.78965,-0.51684 -14.78965,-5.04056 0,-4.52372 6.62155,-9.60137 14.78965,-11.34126 8.1681,-1.7399 14.78965,0.51685 14.78965,5.04056 z"
       style="fill:#e4dcbb;fill-opacity:1;stroke:none" />
    <path
       id="path3654"
       d="m 635.95503,389.62206 c 0,6.87839 -4.53054,14.19695 -10.11924,16.34645 -5.5887,2.1495 -10.11923,-1.68404 -10.11923,-8.56243 0,-6.8784 4.53053,-14.19696 10.11923,-16.34646 5.5887,-2.1495 10.11924,1.68404 10.11924,8.56244 z"
       style="fill:#e4dcbb;fill-opacity:1;stroke:none" />
    <path
       id="path3656"
       d="m 820.43646,484.97638 c 0,7.3083 -4.87904,13.23285 -10.89764,13.23285 -6.0186,0 -10.89764,-5.92455 -10.89764,-13.23285 0,-7.3083 4.87904,-13.23285 10.89764,-13.23285 6.0186,0 10.89764,5.92455 10.89764,13.23285 z"
       style="fill:#e4dcbb;fill-opacity:1;stroke:none"
       transform="matrix(1,-0.57142859,0,1,0,462.59363)" />
    <path
       id="path3658"
       d="m 789.4966,588.36884 c 3.86774,7.83449 -0.0372,18.8612 -8.72206,24.62883 -8.68481,5.76764 -18.86066,4.09211 -22.72841,-3.74238 -3.86774,-7.8345 0.0373,-18.8612 8.72206,-24.62883 8.68482,-5.76764 18.86067,-4.09212 22.72841,3.74238 z"
       style="fill:#e4dcbb;fill-opacity:1;stroke:none" />
    <path
       id="path3660"
       d="m 768.64257,634.8664 c 2.49941,6.40823 -1.96804,14.13583 -9.97832,17.26009 -8.01028,3.12427 -16.53006,0.46209 -19.02947,-5.94613 -2.49941,-6.40823 1.96803,-14.13584 9.97831,-17.2601 8.01028,-3.12426 16.53007,-0.46208 19.02948,5.94614 z"
       style="fill:#e4dcbb;fill-opacity:1;stroke:none" />
    <path
       id="path3662"
       d="m 735.09544,648.44092 c 0,7.3083 -7.03348,13.23284 -15.70971,13.23284 -8.67622,0 -15.7097,-5.92454 -15.7097,-13.23284 0,-7.3083 7.03348,-13.23285 15.7097,-13.23285 8.67623,0 15.70971,5.92455 15.70971,13.23285 z"
       style="fill:#e4dcbb;fill-opacity:1;stroke:none" />
    <path
       id="path3664"
       d="m 831.33406,365.88077 c 0,8.598 -5.22754,15.56805 -11.67604,15.56805 -6.4485,0 -11.67604,-6.97005 -11.67604,-15.56805 0,-8.598 5.22754,-15.56806 11.67604,-15.56806 6.4485,0 11.67604,6.97006 11.67604,15.56806 z"
       style="fill:#e4dcbb;fill-opacity:1;stroke:none"
       transform="matrix(1,0.39999999,0,1,7.784027,-335.64723)" />
    <path
       id="path3666"
       d="m 714.90121,479.36056 c 5.49466,6.02724 5.79453,12.03356 0.66978,13.41549 -5.12476,1.38193 -13.7335,-2.38385 -19.22816,-8.41109 -5.49465,-6.02724 -5.7945,-12.03356 -0.66975,-13.41548 5.12475,-1.38193 13.73347,2.38384 19.22813,8.41108 z"
       style="fill:#e4dcbb;fill-opacity:1;stroke:none" />
    <path
       id="path3668"
       d="m 621.8795,468.74204 c -1.32459,6.06406 -8.64266,10.29254 -16.34537,9.44457 -7.70271,-0.84796 -12.87319,-6.45128 -11.54861,-12.51534 1.32459,-6.06407 8.64265,-10.29255 16.34536,-9.44458 7.70271,0.84796 12.87321,6.45128 11.54862,12.51535 z"
       style="fill:#e4dcbb;fill-opacity:1;stroke:none" />
    <path
       id="path3670"
       d="m 668.6479,599.35434 c 0,7.56459 -4.53053,13.69691 -10.11923,13.69691 -5.5887,0 -10.11924,-6.13232 -10.11924,-13.69691 0,-7.56461 4.53054,-13.69694 10.11924,-13.69694 5.5887,0 10.11923,6.13233 10.11923,13.69694 z"
       style="fill:#e4dcbb;fill-opacity:1;stroke:none" />
    <path
       id="path3672"
       d="m 730.33062,533.23736 c 0.4299,6.4485 -3.40364,11.67604 -8.56244,11.67604 -5.1588,0 -9.68933,-5.22754 -10.11923,-11.67604 -0.4299,-6.4485 3.40362,-11.67604 8.56242,-11.67604 5.1588,0 9.68935,5.22754 10.11925,11.67604 z"
       style="fill:#e4dcbb;fill-opacity:1;stroke:none" />
    <path
       id="path3674"
       d="m 704.45442,564.37347 c 0,4.7289 -3.3979,8.56244 -7.58943,8.56244 -4.19152,0 -7.58942,-3.83354 -7.58942,-8.56244 0,-4.7289 3.3979,-8.56242 7.58942,-8.56242 4.19153,0 7.58943,3.83352 7.58943,8.56242 z"
       style="fill:#e4dcbb;fill-opacity:1;stroke:none" />
    <path
       sodipodi:nodetypes="csssc"
       id="path3676"
       d="m 526.58946,393.90326 c 0,5.1588 -4.40845,11.28684 -11.28685,11.28684 -6.8784,0 -5.44882,-6.12804 -5.44882,-11.28684 0,-5.1588 -1.42958,-9.34083 5.44882,-9.34083 6.8784,0 11.28685,4.18203 11.28685,9.34083 z"
       style="fill:#e4dcbb;fill-opacity:1;stroke:none" />
    <path
       sodipodi:nodetypes="csssc"
       id="path3678"
       d="m 495.06412,413.70063 c 1.55681,6.31469 0.61047,21.40607 -5.83802,21.40607 -6.4485,0 -15.95726,-9.25336 -15.95726,-17.85136 0,-8.598 1.72474,-17.43622 8.17324,-17.43622 6.44849,0 11.28684,5.59488 13.62204,13.88151 z"
       style="fill:#e4dcbb;fill-opacity:1;stroke:none"
       transform="matrix(1,-0.53333333,0,1,-4.6704162,252.41005)" />
    <path
       id="path3680"
       d="m 763.55359,374.75442 c 0,5.1588 -5.22754,9.34084 -11.67604,9.34084 -6.4485,0 -11.67604,-4.18204 -11.67604,-9.34084 0,-5.15879 5.22754,-9.34083 11.67604,-9.34083 6.4485,0 11.67604,4.18204 11.67604,9.34083 z"
       style="fill:#e4dcbb;fill-opacity:1;stroke:none" />
    <path
       id="path3682"
       d="m 470.93363,301.27014 c 0,4.83903 -4.96617,11.37704 -11.09224,14.60305 -6.12607,3.22602 -11.09223,1.91842 -11.09223,-2.92061 0,-4.83903 4.96616,-11.37703 11.09223,-14.60305 6.12607,-3.22602 11.09224,-1.91842 11.09224,2.92061 z"
       style="fill:#e4dcbb;fill-opacity:1;stroke:none" />
    <path
       id="path3684"
       d="m 845.66575,617.49306 c -3.45077,8.19033 -12.68218,16.71341 -20.61895,19.03683 -7.93676,2.32342 -11.57338,-2.43265 -8.12261,-10.62298 3.45077,-8.19033 12.68218,-16.71341 20.61895,-19.03683 7.93676,-2.32342 11.57338,2.43265 8.12261,10.62298 z"
       style="fill:#e4dcbb;fill-opacity:1;stroke:none" />
    <path
       id="path3686"
       d="m 898.27672,637.54333 c 0,10.7475 -8.71257,19.46007 -19.46007,19.46007 -10.7475,0 -19.46007,-8.71257 -19.46007,-19.46007 0,-10.74749 8.71257,-19.46006 19.46007,-19.46006 10.7475,0 19.46007,8.71257 19.46007,19.46006 z"
       style="fill:#e4dcbb;fill-opacity:1;stroke:none"
       transform="matrix(1,-0.63999999,0,1,0,562.44265)" />
    <path
       id="path3688"
       d="m 842.2317,529.20068 c 0,10.0494 -7.38765,20.80298 -16.50075,24.01879 -9.11312,3.21581 -16.50076,-2.32391 -16.50076,-12.37332 0,-10.0494 7.38764,-20.80298 16.50076,-24.01879 9.1131,-3.21581 16.50075,2.32392 16.50075,12.37332 z"
       style="fill:#e4dcbb;fill-opacity:1;stroke:none" />
    <path
       id="path3690"
       d="m 906.44995,540.24298 c 0,10.53255 -6.36017,19.07087 -14.20585,19.07087 -7.84567,0 -14.20585,-8.53832 -14.20585,-19.07087 0,-10.53255 6.36018,-19.07086 14.20585,-19.07086 7.84568,0 14.20585,8.53831 14.20585,19.07086 z"
       style="fill:#e4dcbb;fill-opacity:1;stroke:none" />
    <path
       id="path3692"
       d="m 858.57819,475.56015 c 0,6.9386 -3.92066,14.33969 -8.75703,16.53083 -4.83638,2.19114 -8.75703,-1.65743 -8.75703,-8.59603 0,-6.93859 3.92065,-14.3397 8.75703,-16.53083 4.83637,-2.19114 8.75703,1.65744 8.75703,8.59603 z"
       style="fill:#e4dcbb;fill-opacity:1;stroke:none" />
    <path
       id="path3694"
       d="m 617.66256,719.27561 c 0,3.4392 -6.97006,6.22722 -15.56806,6.22722 -8.598,0 -15.56805,-2.78802 -15.56805,-6.22722 0,-3.4392 6.97005,-6.22722 15.56805,-6.22722 8.598,0 15.56806,2.78802 15.56806,6.22722 z"
       style="fill:#e4dcbb;fill-opacity:1;stroke:none" />
    <path
       id="path3696"
       d="m 706.23926,687.36106 c 0,3.8691 -5.92455,7.35413 -13.23285,7.78403 -7.3083,0.4299 -13.23284,-2.35812 -13.23284,-6.22722 0,-3.8691 5.92454,-7.35412 13.23284,-7.78402 7.3083,-0.4299 13.23285,2.35811 13.23285,6.22721 z"
       style="fill:#e4dcbb;fill-opacity:1;stroke:none" />
    <path
       id="path3698"
       d="m 757.4937,666.74708 c 1.71213,4.82651 -4.9638,10.46319 -14.91109,12.58988 -9.94728,2.12669 -19.3991,-0.062 -21.11122,-4.88847 -1.71213,-4.82651 4.9638,-10.4632 14.91108,-12.58988 9.94729,-2.12669 19.39911,0.062 21.11123,4.88847 z"
       style="fill:#e4dcbb;fill-opacity:1;stroke:none" />
    <path
       id="path3700"
       d="m 634.80406,627.21189 c 1.14722,5.87397 -5.33593,10.20801 -14.48051,9.68034 -9.14457,-0.52766 -17.48772,-5.71721 -18.63494,-11.59118 -1.14722,-5.87397 5.33594,-10.20801 14.48051,-9.68034 9.14458,0.52766 17.48773,5.7172 18.63494,11.59118 z"
       style="fill:#e4dcbb;fill-opacity:1;stroke:none" />
    <path
       id="path3702"
       d="m 587.04919,632.45602 c 0,4.299 -5.7503,6.39002 -12.84365,4.67042 -7.09335,-1.7196 -12.84364,-6.59865 -12.84364,-10.89765 0,-4.299 5.75029,-6.39 12.84364,-4.6704 7.09335,1.7196 12.84365,6.59863 12.84365,10.89763 z"
       style="fill:#e4dcbb;fill-opacity:1;stroke:none" />
    <path
       id="path3704"
       d="m 556.42095,631.05172 c 4.83856,5.14662 4.1124,10.27845 -1.62194,11.46231 -5.73432,1.18385 -14.30532,-2.02858 -19.14389,-7.17519 -4.83856,-5.14661 -4.1124,-10.27844 1.62194,-11.4623 5.73432,-1.18385 14.30532,2.02858 19.14389,7.17518 z"
       style="fill:#e4dcbb;fill-opacity:1;stroke:none" />
    <path
       id="path3706"
       d="m 568.23395,661.67377 c 0,5.1588 -6.97006,9.34083 -15.56806,9.34083 -8.598,0 -15.56805,-4.18203 -15.56805,-9.34083 0,-5.1588 6.97005,-9.34084 15.56805,-9.34084 8.598,0 15.56806,4.18204 15.56806,9.34084 z"
       style="fill:#e4dcbb;fill-opacity:1;stroke:none"
       transform="matrix(1,0,0.83333331,1,-546.72437,-3.1136108)" />
    <path
       id="path3708"
       d="m 530.78677,659.12604 c 2.64767,7.27114 -0.74446,12.21522 -7.57654,11.0429 -6.83208,-1.17233 -14.51693,-8.01711 -17.1646,-15.28826 -2.64767,-7.27115 0.74446,-12.21522 7.57654,-11.0429 6.83208,1.17232 14.51693,8.01711 17.1646,15.28826 z"
       style="fill:#e4dcbb;fill-opacity:1;stroke:none" />
    <path
       id="path3710"
       d="m 510.02209,310.56664 c -1.49869,5.00908 -9.32341,11.09493 -17.47698,13.59311 -8.15359,2.49816 -13.54845,0.46267 -12.04976,-4.54641 1.49869,-5.00908 9.32341,-11.09492 17.47699,-13.59309 8.15358,-2.49818 13.54844,-0.46269 12.04975,4.54639 z"
       style="fill:#e4dcbb;fill-opacity:1;stroke:none" />
    <path
       id="path3712"
       d="m 761.89176,278.21994 c 5.02556,4.88104 2.81561,10.09817 -4.93606,11.65281 -7.75166,1.55463 -18.10964,-1.14194 -23.1352,-6.02298 -5.02556,-4.88103 -2.81562,-10.09817 4.93605,-11.65281 7.75166,-1.55463 18.10965,1.14195 23.13521,6.02298 z"
       style="fill:#e4dcbb;fill-opacity:1;stroke:none" />
    <path
       id="path3714"
       d="m 869.05896,322.83425 c 0,5.97629 -3.71032,7.79307 -8.28722,4.05788 -4.57691,-3.73518 -8.28723,-11.60789 -8.28723,-17.58418 0,-5.9763 3.71032,-7.79307 8.28723,-4.05789 4.5769,3.73519 8.28722,11.60789 8.28722,17.58419 z"
       style="fill:#e4dcbb;fill-opacity:1;stroke:none" />
    <path
       id="path3716"
       d="m 669.81553,719.3815 c 0,3.28273 -5.57604,6.81517 -12.45444,7.88992 -6.8784,1.07475 -12.45445,-0.71517 -12.45445,-3.9979 0,-3.28274 5.57605,-6.81518 12.45445,-7.88993 6.8784,-1.07475 12.45444,0.71517 12.45444,3.99791 z"
       style="fill:#e4dcbb;fill-opacity:1;stroke:none" />
    <path
       id="path3718"
       d="m 647.34775,700.77472 c 0,3.53904 -3.68555,6.40799 -8.2319,6.40799 -4.54636,0 -8.23191,-2.86895 -8.23191,-6.40799 0,-3.53903 3.68555,-6.40799 8.23191,-6.40799 4.54635,0 8.2319,2.86896 8.2319,6.40799 z"
       style="fill:#e4dcbb;fill-opacity:1;stroke:none" />
    <path
       id="path3720"
       d="m 655.02232,674.32918 c 0.71946,2.53128 -3.13656,5.84508 -8.61268,7.40155 -5.47611,1.55646 -10.49862,0.76619 -11.21808,-1.76509 -0.71946,-2.53129 3.13655,-5.84509 8.61266,-7.40155 5.47612,-1.55647 10.49864,-0.7662 11.2181,1.76509 z"
       style="fill:#e4dcbb;fill-opacity:1;stroke:none" />
  </g>
  <g
     id="g4073"
     style="stroke:none"
     transform="translate(-44.368954,-5.9087137)">
    <path
       id="path4071"
       d="m 389.20135,388.45444 c -3.89201,-0.7784 -286.45219,-45.14735 -286.45219,-45.14735 l 272.44094,70.05624 c 9.80865,-6.8349 11.10162,-16.10284 14.01125,-24.90889 z"
       style="fill:#ca8276;fill-opacity:1;stroke:none"
       sodipodi:nodetypes="cccc" />
    <path
       id="path4069"
       d="M 382.19573,409.47132 134.66367,363.54556 375.1901,432.04499 c 6.62493,-6.98834 8.68173,-14.5477 7.00563,-22.57367 z"
       style="fill:#cb8377;fill-opacity:1;stroke:none"
       sodipodi:nodetypes="cccc" />
    <path
       id="path4065"
       d="M 340.16198,431.26659 C 337.04837,430.48819 77.84027,413.36333 77.84027,413.36333 l 259.2081,38.92013 3.11361,-21.01687 z"
       style="fill:#6c453e;fill-opacity:1;stroke:none" />
    <path
       id="path4063"
       d="m 357.28684,444.49944 -274.776154,7.00562 273.219344,22.57368 c 1.8245,-9.85977 8.22457,-19.71953 1.55681,-29.5793 z"
       style="fill:#d28c84;fill-opacity:1;stroke:none"
       sodipodi:nodetypes="cccc" />
    <path
       id="path4061"
       d="m 382.97413,461.6243 c -4.67042,0 -265.43532,21.01687 -265.43532,21.01687 l 266.21372,7.00562 c 6.03418,-9.34083 2.21734,-18.68166 -0.7784,-28.02249 z"
       style="fill:#975f52;fill-opacity:1;stroke:none"
       sodipodi:nodetypes="cccc" />
    <path
       id="path4059"
       d="m 371.29809,492.7604 c -5.44882,0 -195.37908,2.33521 -195.37908,2.33521 l 200.8279,10.89764 -5.44882,-13.23285 z"
       style="fill:#d08975;fill-opacity:1;stroke:none" />
    <path
       id="path4057"
       d="m 400.09899,494.31721 -201.6063,10.11924 196.93588,7.00562 c 10.24463,-5.70829 3.62861,-11.41657 4.67042,-17.12486 z"
       style="fill:#9d6156;fill-opacity:1;stroke:none"
       sodipodi:nodetypes="cccc" />
    <path
       id="path4045"
       d="m 370.51969,593.17435 c -3.89202,0 -172.027,129.21485 -172.027,129.21485 l 186.81665,-115.982 -14.78965,-13.23285 z"
       style="fill:#efb1a4;fill-opacity:1;stroke:none" />
    <path
       id="path4009"
       d="m 565.36455,720.10792 -82.75488,217.12043 96.16851,-213.50361 c -4.17519,-2.38969 -8.51005,-4.14069 -13.41363,-3.61682 z"
       style="fill:#d58b88;fill-opacity:1;stroke:none"
       sodipodi:nodetypes="cccc" />
    <path
       id="path4003"
       d="m 616.30035,727.25421 -58.18561,254.34309 43.20135,-255.70529 14.98426,1.3622 z"
       style="fill:#c47873;fill-opacity:1;stroke:none"
       sodipodi:nodetypes="cccc" />
    <path
       id="path4005"
       d="m 612.60292,721.6108 -73.94825,278.6682 54.48819,-283.33862 c 7.1569,0.81957 16.99968,-1.31532 19.46006,4.67042 z"
       style="fill:#cf8d7f;fill-opacity:1;stroke:none"
       sodipodi:nodetypes="cccc" />
    <path
       id="path4023"
       d="M 493.11812,693.9775 337.82677,881.18335 505.37796,703.90214 c -0.77695,-4.18464 -1.90669,-9.7497 -12.25984,-9.92464 z"
       style="fill:#da9993;fill-opacity:1;stroke:none"
       sodipodi:nodetypes="cccc" />
    <path
       id="path4027"
       d="M 492.72891,677.24184 304.35546,888.18898 505.96176,685.02587 492.72891,677.24184 z"
       style="fill:#ab6e5c;fill-opacity:1;stroke:none" />
    <path
       id="path4025"
       d="m 501.29134,681.13386 c -10.11924,5.44882 -208.61192,245.97525 -208.61192,242.86164 0,-3.11361 224.95838,-235.07761 224.95838,-235.07761 l -16.34646,-7.78403 z"
       style="fill:#996a6b;fill-opacity:1;stroke:none" />
    <path
       id="path4029"
       d="M 488.05849,670.23622 345.6108,792.44544 509.85377,680.35546 488.05849,670.23622 z"
       style="fill:#c08283;fill-opacity:1;stroke:none" />
    <path
       id="path4033"
       d="M 375.1901,641.43532 158.01575,846.15523 403.2126,654.66817 375.1901,641.43532 z"
       style="fill:#ae7b77;fill-opacity:1;stroke:none" />
    <path
       id="path4037"
       d="M 385.41998,625.48952 187.59505,763.64454 399.94252,640.96314 c 2.60519,-5.16817 -2.6556,-14.99981 -14.52254,-15.47362 z"
       style="fill:#e3afa2;fill-opacity:1;stroke:none"
       sodipodi:nodetypes="cccc" />
    <path
       id="path4031"
       d="M 468.59843,642.99213 314.47469,791.66704 481.05287,652.33296 c -0.42022,-6.09862 -4.6958,-9.11295 -12.45444,-9.34083 z"
       style="fill:#b96d60;fill-opacity:1;stroke:none"
       sodipodi:nodetypes="cccc" />
    <path
       id="path4035"
       d="M 404.7694,626.64567 203.94151,794.78065 417.22385,640.65692 404.7694,626.64567 z"
       style="fill:#d498a2;fill-opacity:1;stroke:none" />
    <path
       id="path4039"
       d="M 407.10461,586.16873 255.31609,716.16198 418.78065,604.85039 407.10461,586.16873 z"
       style="fill:#a2666a;fill-opacity:1;stroke:none" />
    <path
       id="path4047"
       d="M 381.41732,568.26547 C 378.30371,569.04387 201.6063,707.59955 201.6063,707.59955 L 398.54218,581.49831 381.41732,568.26547 z"
       style="fill:#e0aa9e;fill-opacity:1;stroke:none" />
    <path
       id="path4041"
       d="M 396.98538,586.94713 C 391.53656,589.28234 231.1856,720.05399 231.1856,720.05399 l 189.15186,-117.5388 c 1.72468,-13.43023 -9.69576,-15.46803 -23.35208,-15.56806 z"
       style="fill:#cf9a94;fill-opacity:1;stroke:none"
       sodipodi:nodetypes="cccc" />
    <path
       id="path4049"
       d="m 391.53656,564.37345 c -7.00563,1.55681 -229.6288,73.94826 -229.6288,73.94826 l 236.63442,-53.70979 -7.00562,-20.23847 z"
       style="fill:#c28886;fill-opacity:1;stroke:none" />
    <path
       id="path4055"
       d="M 342.49719,524.67492 44.368954,574.49269 347.1676,552.69741 c 0.3289,-9.34083 3.72638,-18.68166 -4.67041,-28.02249 z"
       style="fill:#a36f71;fill-opacity:1;stroke:none"
       sodipodi:nodetypes="cccc" />
    <path
       id="path4053"
       d="M 381.41732,528.56693 87.959505,625.08886 392.31496,563.59505 c 8.56195,-13.79682 4.4091,-25.38237 -10.89764,-35.02812 z"
       style="fill:#b27269;fill-opacity:1;stroke:none"
       sodipodi:nodetypes="cccc" />
    <path
       id="path4043"
       d="M 403.991,578.3847 215.61755,719.27559 416.44544,596.28796 c 0.82761,-8.68362 -1.90308,-15.42635 -12.45444,-17.90326 z"
       style="fill:#e6a796;fill-opacity:1;stroke:none"
       sodipodi:nodetypes="cccc" />
    <path
       id="path4051"
       d="m 395.42857,558.14623 c -3.89201,1.55681 -230.4072,111.31159 -230.4072,111.31159 l 243.64005,-97.30034 -13.23285,-14.01125 z"
       style="fill:#db9e8b;fill-opacity:1;stroke:none" />
    <path
       id="path4067"
       d="M 375.9685,428.15298 71.613048,385.34083 373.6333,447.61305 l 2.3352,-19.46007 z"
       style="fill:#915346;fill-opacity:1;stroke:none" />
    <path
       id="path3993"
       d="m 714.96288,718.10799 36.97413,254.14848 -48.65017,-253.75928 c 3.48099,-2.31457 7.16616,-1.66227 11.67604,-0.3892 z"
       style="fill:#c77e78;fill-opacity:1;stroke:none"
       sodipodi:nodetypes="cccc" />
    <path
       id="path3991"
       d="m 728.00113,711.68617 52.73678,244.22384 -72.39146,-240.72104 c 5.95101,-3.13252 13.19845,-2.89641 19.65468,-3.5028 z"
       style="fill:#a7635a;fill-opacity:1;stroke:none"
       sodipodi:nodetypes="cccc" />
    <path
       id="path3995"
       d="m 703.48144,688.33408 19.65467,172.6108 -47.48257,-169.69179 c 9.02078,-6.07675 18.28822,-7.22038 27.8279,-2.91901 z"
       style="fill:#b07273;fill-opacity:1;stroke:none"
       sodipodi:nodetypes="cccc" />
    <path
       id="path3997"
       d="m 683.82677,725.11361 c 0,3.89201 17.51406,269.71654 17.51406,269.71654 L 661.25309,727.05961 c 7.17515,-0.54999 14.91973,-5.70521 22.57368,-1.946 z"
       style="fill:#eba8a0;fill-opacity:1;stroke:none"
       sodipodi:nodetypes="cccc" />
    <path
       id="path3975"
       d="M 772.95388,702.15073 881.93026,929.44432 785.40832,694.3667 c -4.93859,1.41401 -11.37357,0.58343 -12.45444,7.78403 z"
       style="fill:#b57168;fill-opacity:1;stroke:none"
       sodipodi:nodetypes="cccc" />
    <path
       id="path3987"
       d="m 855.46457,693.5883 c 10.11923,8.56243 164.24293,187.59505 164.24293,187.59505 L 846.12373,704.48594 c 2.77571,-4.00424 1.96336,-11.95535 9.34084,-10.89764 z"
       style="fill:#965746;fill-opacity:1;stroke:none"
       sodipodi:nodetypes="cccc" />
    <path
       id="path3981"
       d="m 813.49285,674.85802 c 5.44882,2.33521 194.53865,222.67179 194.53865,222.67179 -54.22872,-69.79678 -129.64997,-175.51044 -177.54734,-235.81019 -7.38083,1.8662 -15.78129,3.55869 -16.99131,13.1384 z"
       style="fill:#7c463c;fill-opacity:1;stroke:none"
       sodipodi:nodetypes="cccc" />
    <path
       id="path3983"
       d="M 797.99632,684.55369 948.09449,868.72891 815.02674,670.86487 c -8.12174,2.6909 -14.49004,4.40177 -17.03042,13.68882 z"
       style="fill:#cd8473;fill-opacity:1;stroke:none"
       sodipodi:nodetypes="cccc" />
    <path
       id="path3979"
       d="m 769.84027,670.23622 140.11249,231.964 -121.43082,-245.19685 c -8.8942,-0.33035 -14.43636,5.2985 -18.68167,13.23285 z"
       style="fill:#a76358;fill-opacity:1;stroke:none"
       sodipodi:nodetypes="cccc" />
    <path
       id="path3989"
       d="M 854.98764,645.53438 1052.4005,815.01912 867.37531,631.5899 854.98764,645.53438 z"
       style="fill:#9c5740;fill-opacity:1;stroke:none"
       sodipodi:nodetypes="cccc" />
    <path
       id="path3969"
       d="m 722.35771,711.49156 81.73228,199.27109 -68.49944,-203.5523 c -5.37259,-2.28975 -9.93372,-1.72291 -13.23284,4.28121 z"
       style="fill:#da8b7e;fill-opacity:1;stroke:none"
       sodipodi:nodetypes="cccc" />
    <g
       style="stroke:none"
       id="g3849">
      <path
         style="fill:#ac6c60;fill-opacity:1;stroke:none"
         d="M 432.81328,618.93776 285.09544,765.17842 468.26556,647.00415 c -8.09558,-13.07731 -9.925,-32.42078 -35.45228,-28.06639 z"
         id="path3045"
         sodipodi:nodetypes="cccc" />
      <path
         style="fill:#7a453d;fill-opacity:1;stroke:none"
         d="M 485.9917,595.3029 397.361,697.22822 514.05809,613.02905 c -4.76923,-9.41584 -6.43192,-21.20726 -28.06639,-17.72615 z"
         id="path3041"
         sodipodi:nodetypes="cccc" />
      <path
         style="fill:#8c5c48;fill-opacity:1;stroke:none"
         d="m 655.86722,203.85062 c 0,-5.90871 20.6805,-180.215765 20.6805,-180.215765 l 5.90871,181.692945 -26.58921,-1.47718 z"
         id="path3071" />
      <path
         style="fill:#e0b7b2;fill-opacity:1;stroke:none"
         d="m 945.39419,400.31535 265.89211,-104.87967 -277.70954,82.722 11.81743,22.15767 z"
         id="path2993" />
      <path
         style="fill:#5c3c30;fill-opacity:1;stroke:none"
         d="m 945.79876,414.16037 252.19294,-59.63755 -258.27571,36.55311 6.08277,23.08444 z"
         id="path2991"
         sodipodi:nodetypes="cccc" />
      <path
         style="fill:#9d6951;fill-opacity:1;stroke:none"
         d="M 889.26141,392.92946 1184.6971,277.70954 908.46473,422.47303 c -13.78264,-5.2344 -21.98526,-13.95631 -19.20332,-29.54357 z"
         id="path2971"
         sodipodi:nodetypes="cccc" />
      <path
         style="fill:#e19e8b;fill-opacity:1;stroke:none"
         d="M 452.0166,254.07469 397.361,72.381743 480.08299,243.73444 452.0166,254.07469 z"
         id="path3029" />
      <path
         style="fill:#ba7865;fill-opacity:1;stroke:none"
         d="M 471.21992,248.16598 440.19917,97.493776 488.94606,254.07469 471.21992,248.16598 z"
         id="path3027" />
      <path
         style="fill:#3a2525;fill-opacity:1;stroke:none"
         d="M 927.66805,638.14108 1169.9253,772.56432 943.91701,611.55187 927.66805,638.14108 z"
         id="path3059" />
      <path
         style="fill:#905445;fill-opacity:1;stroke:none"
         d="M 875.05461,623.34223 1175.834,796.19917 896.80772,598.61744 c -9.42134,3.55247 -20.63262,11.83385 -21.75311,24.72479 z"
         id="path3057"
         sodipodi:nodetypes="cccc" />
      <path
         style="fill:#4c2c28;fill-opacity:1;stroke:none"
         d="M 540.6473,236.34855 527.3527,20.680498 517.01245,233.39419 c 7.87828,2.33263 15.75657,7.36083 23.63485,2.95436 z"
         id="path3003"
         sodipodi:nodetypes="cccc" />
      <path
         style="fill:#754a40;fill-opacity:1;stroke:none"
         d="M 405.92343,304.15737 251.12033,97.493776 426.90456,279.18672 c -3.87766,10.66059 -8.90335,20.46016 -20.98113,24.97065 z"
         id="path3023"
         sodipodi:nodetypes="cccc" />
      <path
         style="fill:#a8654e;fill-opacity:1;stroke:none"
         d="M 432.81328,282.14108 332.36515,107.83402 468.26556,265.89212 c -7.72939,9.50435 -17.43768,17.02982 -35.45228,16.24896 z"
         id="path3025"
         sodipodi:nodetypes="cccc" />
      <path
         style="fill:#c27e70;fill-opacity:1;stroke:none"
         d="m 922.62493,547.16288 c 7.3859,0 327.06797,58.48027 327.06797,58.48027 L 936.34059,512.53621 c -14.6945,9.19617 -11.91433,22.66768 -13.71566,34.62667 z"
         id="path2981"
         sodipodi:nodetypes="cccc" />
      <path
         style="fill:#6c4232;fill-opacity:1;stroke:none"
         d="m 948.02865,426.90456 270.64355,-28.06639 -52.6925,-6.3686 -224.00561,13.7545 6.05456,20.68049 z"
         id="path2989"
         sodipodi:nodetypes="ccccc" />
      <path
         style="fill:#7a4848;fill-opacity:1;stroke:none"
         d="m 462.35685,468.26556 c -8.86307,0 -125.56017,2.95436 -125.56017,2.95436 l 119.65145,-23.63486 c 12.71224,6.22208 9.42712,13.444 5.90872,20.6805 z"
         id="path3009"
         sodipodi:nodetypes="cccc" />
      <path
         style="fill:#b87d6d;fill-opacity:1;stroke:none"
         d="m 917.3278,586.43983 c 7.38589,0 271.8008,38.40664 271.8008,38.40664 L 1109.361,595.3029 926.19087,556.89627 c -16.13799,4.19772 -6.08453,19.62036 -8.86307,29.54356 z"
         id="path3019"
         sodipodi:nodetypes="ccccc" />
      <path
         style="fill:#603e2c;fill-opacity:1;stroke:none"
         d="M 896.6473,598.25726 1106.4066,712 911.41909,576.09959 896.6473,598.25726 z"
         id="path3015" />
      <path
         style="fill:#ca8576;fill-opacity:1;stroke:none"
         d="M 868.58091,602.6888 1048.7967,691.3195 880.39834,580.53112 c -12.62453,3.76698 -11.08823,13.43431 -11.81743,22.15768 z"
         id="path3013"
         sodipodi:nodetypes="cccc" />
      <path
         style="fill:#c6847c;fill-opacity:1;stroke:none"
         d="m 901.07884,580.53112 199.41906,22.15768 -202.37342,-41.361 c -2.00399,6.40111 -3.21546,12.80221 2.95436,19.20332 z"
         id="path3017"
         sodipodi:nodetypes="cccc" />
      <path
         style="fill:#b36963;fill-opacity:1;stroke:none"
         d="M 815.40249,546.55602 988.23237,644.04979 833.12863,521.44398 c -10.739,3.00369 -16.32568,11.73219 -17.72614,25.11204 z"
         id="path3011"
         sodipodi:nodetypes="cccc" />
      <path
         style="fill:#db9589;fill-opacity:1;stroke:none"
         d="M 852.0685,630.69403 1115.2697,802.10788 874.22618,607.58136 c -12.19131,4.55005 -18.77284,9.75615 -22.15768,23.11267 z"
         id="path3055"
         sodipodi:nodetypes="cccc" />
      <path
         style="fill:#55342b;fill-opacity:1;stroke:none"
         d="m 590.87137,666.20747 -44.31535,144.76348 79.76763,-128.51452 c -8.95876,-10.27605 -21.31603,-14.77464 -35.45228,-16.24896 z"
         id="path3033"
         sodipodi:nodetypes="cccc" />
      <path
         style="fill:#3c2726;fill-opacity:1;stroke:none"
         d="m 974.93776,435.76763 259.98344,-28.06639 -293.17762,10.34025 c -4.53116,7.87829 0.0869,15.75657 2.43217,23.63486 l 30.76201,-5.90872 z"
         id="path2987"
         sodipodi:nodetypes="ccccc" />
      <g
         id="g3900"
         style="stroke:none">
        <path
           id="path3787"
           d="m 695.89201,474.85714 -30.3577,50.59618 51.37458,-36.58493 c -1.32023,-10.35582 -7.26131,-16.09077 -21.01688,-14.01125 z"
           style="fill:#582c2d;fill-opacity:1;stroke:none"
           sodipodi:nodetypes="cccc" />
        <path
           id="path3789"
           d="m 684.21597,454.61867 -59.1586,16.34646 47.48256,-38.92014 c 8.78186,3.93867 18.04134,7.52709 11.67604,22.57368 z"
           style="fill:#703a36;fill-opacity:1;stroke:none"
           sodipodi:nodetypes="cccc" />
        <path
           id="path3791"
           d="m 723.13611,447.61305 19.46007,31.91451 10.89763,-33.47132 c -10.11923,-5.09146 -20.23847,-6.76718 -30.3577,1.55681 z"
           style="fill:#633832;fill-opacity:1;stroke:none"
           sodipodi:nodetypes="cccc" />
        <path
           id="path3793"
           d="m 789.30034,424.26097 96.52193,-66.16423 -108.97638,32.69291 c -2.68359,20.0427 5.0387,26.55775 12.45445,33.47132 z"
           style="fill:#a96661;fill-opacity:1;stroke:none"
           sodipodi:nodetypes="cccc" />
        <path
           id="path3795"
           d="m 577.5748,417.25534 -38.14173,23.35208 54.48819,2.33521 c 3.68602,-12.04237 1.6481,-21.90419 -16.34646,-25.68729 z"
           style="fill:#663634;fill-opacity:1;stroke:none"
           sodipodi:nodetypes="cccc" />
        <path
           id="path3797"
           d="m 513.74578,429.70979 -79.39707,45.92576 91.07311,-17.12486 c 7.37616,-18.87997 -1.75801,-24.1632 -11.67604,-28.8009 z"
           style="fill:#542e2f;fill-opacity:1;stroke:none"
           sodipodi:nodetypes="cccc" />
        <path
           id="path3799"
           d="m 519.973,386.11923 -56.04499,-1.5568 51.37458,19.46007 c 11.16702,-4.76648 10.0141,-11.07295 4.67041,-17.90327 z"
           style="fill:#593631;fill-opacity:1;stroke:none"
           sodipodi:nodetypes="cccc" />
        <path
           id="path3801"
           d="m 619.60855,402.46569 -39.69854,-25.68729 49.81777,7.78403 c 3.89202,9.6003 0.51894,15.56805 -10.11923,17.90326 z"
           style="fill:#7d4e4c;fill-opacity:1;stroke:none"
           sodipodi:nodetypes="cccc" />
        <path
           id="path3803"
           d="m 690.44319,396.23847 6.22723,-52.15298 19.46006,51.37458 c -8.04018,7.571 -16.60925,7.73746 -25.68729,0.7784 z"
           style="fill:#8c574f;fill-opacity:1;stroke:none"
           sodipodi:nodetypes="cccc" />
        <path
           id="path3805"
           d="m 643.10572,375.31767 -8.70752,-63.92509 30.35771,58.3802 c 0.8558,4.58607 -15.94656,10.57363 -21.65019,5.54489 z"
           style="fill:#7c4a46;fill-opacity:1;stroke:none"
           sodipodi:nodetypes="cccc" />
        <path
           id="path3807"
           d="m 823.55006,439.05062 90.29471,10.89764 -86.4027,14.01124 c -7.36801,-8.30296 -7.93072,-16.60592 -3.89201,-24.90888 z"
           style="fill:#91584b;fill-opacity:1;stroke:none"
           sodipodi:nodetypes="cccc" />
        <path
           id="path3809"
           d="m 869.47582,443.72103 c -8.1914,-7.56175 -13.46088,-16.09747 -6.22723,-28.8009 l 169.69181,-24.90888 -163.46458,53.70978 z"
           style="fill:#b36f5f;fill-opacity:1;stroke:none"
           sodipodi:nodetypes="cccc" />
        <path
           id="path3811"
           d="m 717.68729,523.89651 -45.92576,21.01688 51.37458,-1.55681 c 9.33715,-12.43518 0.1077,-18.17258 -5.44882,-19.46007 z"
           style="fill:#7f4843;fill-opacity:1;stroke:none"
           sodipodi:nodetypes="cccc" />
        <path
           id="path3813"
           d="m 753.49381,545.69179 59.15861,67.72103 -33.47132,-87.9595 c -11.81006,0.94681 -21.12582,6.34774 -25.68729,20.23847 z"
           style="fill:#683933;fill-opacity:1;stroke:none"
           sodipodi:nodetypes="cccc" />
        <path
           id="path3815"
           d="m 821.99325,579.1631 57.6018,38.14174 -49.81777,-49.03937 c -4.87511,1.85887 -7.57881,5.40662 -7.78403,10.89763 z"
           style="fill:#815045;fill-opacity:1;stroke:none"
           sodipodi:nodetypes="cccc" />
        <path
           id="path3819"
           d="m 775.28909,467.85152 c 0,0 13.23285,33.47131 14.01125,28.8009 0.7784,-4.67042 6.22722,-31.91451 6.22722,-31.91451 -6.985,-1.1117 -14.23434,-4.60249 -20.23847,3.11361 z"
           style="fill:#462928;fill-opacity:1;stroke:none"
           sodipodi:nodetypes="cscc" />
        <path
           id="path3821"
           d="m 618.83015,466.29471 -16.34646,49.81778 -4.67042,-51.37458 c 5.8411,-4.13916 12.10151,-6.60109 21.01688,1.5568 z"
           style="fill:#572e30;fill-opacity:1;stroke:none"
           sodipodi:nodetypes="cccc" />
        <path
           id="path3823"
           d="m 550.33071,466.29471 -21.01687,55.26659 45.14735,-42.03374 c -4.3251,-13.70694 -13.63428,-14.95367 -24.13048,-13.23285 z"
           style="fill:#532d2d;fill-opacity:1;stroke:none"
           sodipodi:nodetypes="cccc" />
        <path
           id="path3825"
           d="m 498.95613,493.53881 -17.12486,38.14173 28.8009,-28.8009 c 2.29809,-9.30372 -3.68751,-10.32374 -11.67604,-9.34083 z"
           style="fill:#412a2b;fill-opacity:1;stroke:none"
           sodipodi:nodetypes="cccc" />
        <path
           id="path3827"
           d="m 538.65467,528.56693 -28.0225,53.70979 49.81777,-35.80653 c -2.07173,-14.04632 -10.40879,-18.34656 -21.79527,-17.90326 z"
           style="fill:#4d282b;fill-opacity:1;stroke:none"
           sodipodi:nodetypes="cccc" />
        <path
           id="path3829"
           d="m 695.11361,557.36783 -39.69854,6.22722 42.03375,7.78403 c 4.58704,-5.08314 6.45693,-9.95727 -2.33521,-14.01125 z"
           style="fill:#6d3d37;fill-opacity:1;stroke:none"
           sodipodi:nodetypes="cccc" />
        <path
           id="path3831"
           d="m 656.97188,587.72553 -39.69854,18.68167 43.59055,4.67042 c 8.86702,-8.34872 5.89092,-16.03948 -3.89201,-23.35209 z"
           style="fill:#743f39;fill-opacity:1;stroke:none"
           sodipodi:nodetypes="cccc" />
        <path
           id="path3833"
           d="m 569.01237,564.37345 3.89202,35.02812 15.56805,-32.69291 c -7.66771,-8.45503 -13.85912,-7.31409 -19.46007,-2.33521 z"
           style="fill:#43272b;fill-opacity:1;stroke:none"
           sodipodi:nodetypes="cccc" />
        <path
           id="path3835"
           d="m 602.48369,622.75366 c 1.55681,3.89201 0,51.37457 0,51.37457 l 31.13611,-44.36895 c -9.77272,-7.18305 -19.82184,-12.15492 -31.13611,-7.00562 z"
           style="fill:#4c2b2b;fill-opacity:1;stroke:none"
           sodipodi:nodetypes="cccc" />
        <path
           id="path3837"
           d="m 527.75703,576.8279 -34.24972,66.94263 63.82902,-46.70416 c -4.24726,-12.02851 -8.14554,-24.38549 -29.5793,-20.23847 z"
           style="fill:#522a2b;fill-opacity:1;stroke:none"
           sodipodi:nodetypes="cccc" />
        <path
           id="path3841"
           d="m 713.79528,565.15186 -45.92576,72.39145 69.27784,-50.59618 c -3.12733,-11.37394 -11.40869,-18.20021 -23.35208,-21.79527 z"
           style="fill:#683630;fill-opacity:1;stroke:none"
           sodipodi:nodetypes="cccc" />
        <path
           id="path3843"
           d="m 759.72104,601.73678 77.06186,113.6468 -50.59617,-129.21485 c -11.84538,-0.60565 -20.84647,4.24023 -26.46569,15.56805 z"
           style="fill:#8d5447;fill-opacity:1;stroke:none"
           sodipodi:nodetypes="cccc" />
        <path
           id="path3847"
           d="m 655.41507,500.54443 -9.34083,36.58493 24.13048,-26.46569 c 0.21755,-13.66796 -6.82318,-12.81934 -14.78965,-10.11924 z"
           style="fill:#613b35;fill-opacity:1;stroke:none"
           sodipodi:nodetypes="cccc" />
        <path
           id="path3849"
           d="m 655.41507,468.62992 -19.46006,32.69291 32.69291,-22.57367 c 0.11821,-7.90224 -4.01196,-11.5561 -13.23285,-10.11924 z"
           style="fill:#684343;fill-opacity:1;stroke:none"
           sodipodi:nodetypes="cccc" />
        <path
           id="path3851"
           d="m 743.37458,374.44319 c 1.5568,-7.78402 25.68729,-66.94263 25.68729,-66.94263 L 762.05624,376 c -6.60487,3.25761 -13.09938,5.41157 -18.68166,-1.55681 z"
           style="fill:#915a53;fill-opacity:1;stroke:none"
           sodipodi:nodetypes="cccc" />
        <path
           id="path3853"
           d="m 656.19348,649.99775 24.90888,107.41957 6.22722,-114.42519 c -10.78866,-2.17435 -21.37615,-2.13588 -31.1361,7.00562 z"
           style="fill:#77443e;fill-opacity:1;stroke:none"
           sodipodi:nodetypes="cccc" />
        <path
           id="path3855"
           d="m 706.01125,649.21935 29.5793,88.73791 -3.89201,-95.74354 c -8.90585,0.0458 -18.2471,-2.81118 -25.68729,7.00563 z"
           style="fill:#82463c;fill-opacity:1;stroke:none"
           sodipodi:nodetypes="cccc" />
        <path
           id="path3839"
           d="m 716.13048,609.52081 2.33521,45.14736 17.12486,-41.25535 c -5.85496,-4.45598 -12.05939,-7.16463 -19.46007,-3.89201 z"
           style="fill:#5c312d;fill-opacity:1;stroke:none"
           sodipodi:nodetypes="cccc" />
        <path
           id="path3857"
           d="m 741.03937,644.54893 51.37458,76.28347 -24.90889,-86.4027 c -9.53985,0.21409 -19.42073,-1.07235 -26.46569,10.11923 z"
           style="fill:#975d52;fill-opacity:1;stroke:none"
           sodipodi:nodetypes="cccc" />
        <path
           id="path3859"
           d="M 820.43645,632.87289 983.12261,769.09336 845.34533,611.85602 c -16.03698,1.28917 -20.53318,11.10849 -24.90888,21.01687 z"
           style="fill:#b87062;fill-opacity:1;stroke:none"
           sodipodi:nodetypes="cccc" />
        <path
           id="path3817"
           d="m 802.53318,492.7604 40.47694,41.25535 -26.46569,-53.70979 c -7.02277,0.38771 -12.16866,3.77843 -14.01125,12.45444 z"
           style="fill:#7a4943;fill-opacity:1;stroke:none"
           sodipodi:nodetypes="cccc" />
      </g>
      <path
         style="fill:#59342e;fill-opacity:1;stroke:none"
         d="m 638.14108,678.0249 14.77178,41.36099 -1.47718,-42.83817 c -4.74198,-2.61209 -9.06676,-1.05214 -13.2946,1.47718 z"
         id="path3035"
         sodipodi:nodetypes="cccc" />
      <path
         style="fill:#6f4038;fill-opacity:1;stroke:none"
         d="m 553.63233,397.05142 -51.39167,-67.64063 78.29046,48.74689 c 0.12,9.96963 -8.41202,22.51407 -26.89879,18.89374 z"
         id="path2915"
         sodipodi:nodetypes="cccc" />
      <path
         style="fill:#4e2f2a;fill-opacity:1;stroke:none"
         d="m 685.41079,239.3029 c 0,-7.38589 11.81743,-190.556012 11.81743,-190.556012 l -36.92946,187.601662 25.11203,2.95435 z"
         id="path2963" />
      <path
         style="fill:#c37c63;fill-opacity:1;stroke:none"
         d="M 669.16183,285.09544 663.25311,81.244813 641.09544,285.09544 c 10.32099,6.75872 19.81909,7.75714 28.06639,0 z"
         id="path2957"
         sodipodi:nodetypes="cccc" />
      <path
         style="fill:#b1797c;fill-opacity:1;stroke:none"
         d="m 643.56353,315.08844 3.44062,-139.30421 23.63485,141.80913 c -0.8191,5.90258 -25.77217,6.21927 -27.07547,-2.50492 z"
         id="path2919"
         sodipodi:nodetypes="cccc" />
      <path
         style="fill:#855547;fill-opacity:1;stroke:none"
         d="M 782.90456,243.73444 859.71784,5.9087137 751.88382,230.43983 c 8.86043,10.84408 19.04825,15.93613 31.02074,13.29461 z"
         id="path2967"
         sodipodi:nodetypes="cccc" />
      <path
         style="fill:#d8917c;fill-opacity:1;stroke:none"
         d="M 762.22407,282.14108 818.35685,87.153527 732.6805,277.70954 c 8.33973,8.0124 18.09085,9.90877 29.54357,4.43154 z"
         id="path2943"
         sodipodi:nodetypes="cccc" />
      <path
         style="fill:#9e6358;fill-opacity:1;stroke:none"
         d="M 710.52282,339.75104 745.9751,205.3278 735.63485,344.18257 c -2.77229,3.19614 -17.46203,4.61271 -25.11203,-4.43153 z"
         id="path2921"
         sodipodi:nodetypes="cccc" />
      <path
         style="fill:#bb8887;fill-opacity:1;stroke:none"
         d="M 883.3527,279.18672 1141.8589,131.46888 901.07884,299.86722 c -13.20679,-2.02812 -17.69708,-9.86723 -17.72614,-20.6805 z"
         id="path2931"
         sodipodi:nodetypes="cccc" />
      <path
         style="fill:#b0776b;fill-opacity:1;stroke:none"
         d="M 855.28631,308.73029 1150.722,128.51452 877.44398,330.88797 c -8.95973,-5.96944 -22.68286,-7.65181 -22.15767,-22.15768 z"
         id="path2929"
         sodipodi:nodetypes="cccc" />
      <path
         style="fill:#4e2425;fill-opacity:1;stroke:none"
         d="M 906.43242,316.58193 C 940.40753,298.85579 1124.1328,214.19087 1124.1328,214.19087 L 921.58055,338.7396 c -10.57685,-2.77967 -13.233,-12.15991 -15.14813,-22.15767 z"
         id="path3075"
         sodipodi:nodetypes="cccc" />
      <path
         style="fill:#9f634f;fill-opacity:1;stroke:none"
         d="M 819.83402,348.61411 1014.8216,224.53112 833.12863,375.20332 c -8.41454,-6.53965 -17.01756,-12.96936 -13.29461,-26.58921 z"
         id="path2927"
         sodipodi:nodetypes="cccc" />
      <path
         style="fill:#ba888b;fill-opacity:1;stroke:none"
         d="M 834.60581,257.02905 983.80083,129.9917 849.37759,271.80083 c -5.44077,-4.27787 -13.0809,-5.80654 -14.77178,-14.77178 z"
         id="path2935"
         sodipodi:nodetypes="cccc" />
      <path
         style="fill:#9e6657;fill-opacity:1;stroke:none"
         d="m 839.26729,265.97175 c 5.90871,-4.43154 147.4879,-107.91366 147.4879,-107.91366 L 861.11539,289.9958 c -11.31026,-2.29391 -20.23894,-10.86143 -21.8481,-24.02405 z"
         id="path2937"
         sodipodi:nodetypes="cccc" />
      <path
         style="fill:#8f6f73;fill-opacity:1;stroke:none"
         d="M 810.97095,307.25311 936.53112,158.05809 836.08299,320.54772 c -3.66613,2.50767 -26.58152,0.0825 -25.11204,-13.29461 z"
         id="path2933"
         sodipodi:nodetypes="cccc" />
      <path
         style="fill:#b1756d;fill-opacity:1;stroke:none"
         d="m 774.04149,353.04564 79.76764,-67.9502 -69.42739,79.76763 c -4.65941,-2.55324 -12.36516,-1.62496 -10.34025,-11.81743 z"
         id="path2925"
         sodipodi:nodetypes="cccc" />
      <path
         style="fill:#5e4137;fill-opacity:1;stroke:none"
         d="M 741.54357,397.361 782.90456,356 c -16.93415,33.27606 -21.16859,36.91943 -29.54356,50.22407 -4.92574,-1.22781 -10.8268,-0.74881 -11.81743,-8.86307 z"
         id="path2923"
         sodipodi:nodetypes="cccc" />
      <path
         style="fill:#a27b75;fill-opacity:1;stroke:none"
         d="M 827.21992,258.50622 C 853.80913,243.73444 917.3278,72.381743 917.3278,72.381743 l -106.35685,171.352697 16.24897,14.77178 z"
         id="path3031" />
      <path
         style="fill:#c99184;fill-opacity:1;stroke:none"
         d="M 784.38174,296.91286 899.60166,84.19917 805.06224,311.68465 c -14.81408,9.33312 -15.34497,-7.04351 -20.6805,-14.77179 z"
         id="path2941"
         sodipodi:nodetypes="cccc" />
      <path
         style="fill:#9a6249;fill-opacity:1;stroke:none"
         d="m 776.99585,319.07054 59.08714,-135.90042 -45.79253,140.33195 c -7.6842,3.07656 -10.71565,-0.36075 -13.29461,-4.43153 z"
         id="path2939"
         sodipodi:nodetypes="cccc" />
      <path
         style="fill:#b36e5a;fill-opacity:1;stroke:none"
         d="M 509.62656,276.23237 459.40249,53.178423 543.60166,271.80083 c -10.20546,9.3142 -21.69669,9.62801 -33.9751,4.43154 z"
         id="path2955"
         sodipodi:nodetypes="cccc" />
      <path
         style="fill:#8a4b3a;fill-opacity:1;stroke:none"
         d="M 525.87552,339.75104 443.15353,187.60166 556.89627,322.0249 c -3.56148,11.84014 -10.96563,20.31794 -31.02075,17.72614 z"
         id="path2945"
         sodipodi:nodetypes="cccc" />
      <path
         style="fill:#744742;fill-opacity:1;stroke:none"
         d="m 675.07054,354.52282 13.29461,-64.99585 5.90871,67.95021 c -7.22884,3.15386 -14.03318,4.18528 -19.20332,-2.95436 z"
         id="path2949"
         sodipodi:nodetypes="cccc" />
      <path
         style="fill:#9c6849;fill-opacity:1;stroke:none"
         d="m 561.3278,283.61826 -29.54357,-159.53527 48.74689,162.48962 c -6.40111,1.74663 -12.80221,7.01815 -19.20332,-2.95435 z"
         id="path2953"
         sodipodi:nodetypes="cccc" />
      <path
         style="fill:#402928;fill-opacity:1;stroke:none"
         d="m 605.64315,221.57676 c 0,-7.38589 7.3859,-158.058088 7.3859,-158.058088 L 638.14108,226.0083 c -13.54774,5.31057 -22.99717,0.37535 -32.49793,-4.43154 z"
         id="path3073"
         sodipodi:nodetypes="cccc" />
      <path
         style="fill:#d99587;fill-opacity:1;stroke:none"
         d="M 621.89212,248.16598 C 620.41494,237.82573 583.48548,36.929461 583.48548,36.929461 l 13.2946,217.145229 c 9.70819,0.51437 22.13878,6.08464 25.11204,-5.90871 z"
         id="path2959"
         sodipodi:nodetypes="cccc" />
      <path
         style="fill:#9f5d43;fill-opacity:1;stroke:none"
         d="M 703.13693,212.71369 728.24896,59.087137 723.81743,220.09959 c -2.07915,4.91962 -15.16712,2.66674 -20.6805,-7.3859 z"
         id="path2965"
         sodipodi:nodetypes="cccc" />
      <path
         style="fill:#9b6058;fill-opacity:1;stroke:none"
         d="m 689.84232,295.43568 c 0,-5.90871 11.81743,-125.56016 11.81743,-125.56016 L 712,304.29876 c -2.14213,5.23978 -19.01024,2.56819 -22.15768,-8.86308 z"
         id="path2961"
         sodipodi:nodetypes="cccc" />
      <path
         style="fill:#815649;fill-opacity:1;stroke:none"
         d="m 943.91701,360.43154 196.46469,-103.40249 -205.32776,85.67634 8.86307,17.72615 z"
         id="path2973" />
      <path
         style="fill:#462e2b;fill-opacity:1;stroke:none"
         d="m 934.55997,370.36721 c 14.77179,-4.43153 235.36533,-100.04356 235.36533,-100.04356 l -242.22902,85.47406 6.86369,14.5695 z"
         id="path2975"
         sodipodi:nodetypes="cccc" />
      <path
         style="fill:#af745c;fill-opacity:1;stroke:none"
         d="M 856.76349,366.34025 1097.5436,262.93776 867.10373,397.361 c -8.85542,-5.60766 -9.58676,-18.32389 -10.34024,-31.02075 z"
         id="path2969"
         sodipodi:nodetypes="cccc" />
      <path
         style="fill:#633d2f;fill-opacity:1;stroke:none"
         d="m 844.94606,488.94606 150.6722,17.72614 42.83814,-2.95436 -62.04146,-11.81743 -122.60581,-22.15767 c -12.87301,4.11219 -12.07112,14.52367 -8.86307,19.20332 z"
         id="path2977"
         sodipodi:nodetypes="cccccc" />
      <path
         style="fill:#bf7161;fill-opacity:1;stroke:none"
         d="m 890.73859,522.92116 252.59751,39.88382 -254.07469,-4.43154 c -7.8837,-11.81743 -3.93511,-23.63485 1.47718,-35.45228 z"
         id="path2979"
         sodipodi:nodetypes="cccc" />
      <path
         style="fill:#905953;fill-opacity:1;stroke:none"
         d="m 887.38609,475.65145 211.63461,-16.24896 -215.668,-4.43154 c -1.43187,7.20198 -3.57692,14.48321 4.03339,20.6805 z"
         id="path2983"
         sodipodi:nodetypes="cccc" />
      <path
         style="fill:#b47765;fill-opacity:1;stroke:none"
         d="m 935.05394,454.97095 288.04976,-8.86307 -291.00411,-16.24896 c -3.46632,8.37068 -6.76467,16.74135 2.95435,25.11203 z"
         id="path2985"
         sodipodi:nodetypes="cccc" />
      <path
         style="fill:#d98e7a;fill-opacity:1;stroke:none"
         d="M 395.88382,339.75104 181.69295,165.44398 422.47303,313.16183 395.88382,339.75104 z"
         id="path3021" />
      <path
         style="fill:#ce806d;fill-opacity:1;stroke:none"
         d="m 378.15768,367.81743 -211.23652,-106.35685 226.0083,93.06224 -14.77178,13.29461 z"
         id="path3063" />
      <path
         style="fill:#b16558;fill-opacity:1;stroke:none"
         d="M 431.3361,378.15768 206.80498,251.12033 447.58506,350.09129 c -1.5566,9.35546 -1.93304,18.71093 -16.24896,28.06639 z"
         id="path2995"
         sodipodi:nodetypes="cccc" />
      <path
         style="fill:#784832;fill-opacity:1;stroke:none"
         d="m 475.65145,361.90871 -125.56016,-96.01659 146.24066,78.29045 c -2.88113,6.9646 0.63398,15.61242 -20.6805,17.72614 z"
         id="path2997"
         sodipodi:nodetypes="cccc" />
      <path
         style="fill:#b0664b;fill-opacity:1;stroke:none"
         d="M 480.08299,319.07054 401.79253,147.71784 506.6722,307.25311 c -4.93908,10.04313 -12.3573,16.22982 -26.58921,11.81743 z"
         id="path2999"
         sodipodi:nodetypes="cccc" />
      <path
         style="fill:#c98675;fill-opacity:1;stroke:none"
         d="M 449.06224,313.16183 291.00415,116.6971 468.26556,299.86722 c -2.02037,8.18646 -3.09869,17.18038 -19.20332,13.29461 z"
         id="path3001"
         sodipodi:nodetypes="cccc" />
      <path
         style="fill:#a06251;fill-opacity:1;stroke:none"
         d="M 304.29876,361.90871 C 289.52697,351.56846 149.19502,285.09544 149.19502,285.09544 l 236.34855,84.19917 -7.38589,19.20332 -73.85892,-26.58922 z"
         id="path3067" />
      <path
         style="fill:#a5625b;fill-opacity:1;stroke:none"
         d="m 401.79253,381.11203 -144.76348,-47.26971 150.67219,35.45229 c 3.71976,3.93914 1.78808,7.87828 -5.90871,11.81742 z"
         id="path3005"
         sodipodi:nodetypes="cccc" />
      <path
         style="fill:#a96a60;fill-opacity:1;stroke:none"
         d="m 412.13278,452.0166 c -5.90871,0 -166.92116,-22.15768 -166.92116,-22.15768 l 166.92116,-2.95436 c 6.78924,7.75348 4.52998,16.32954 0,25.11204 z"
         id="path3007"
         sodipodi:nodetypes="cccc" />
      <path
         style="fill:#71423d;fill-opacity:1;stroke:none"
         d="m 564.28216,623.36929 -4.43154,64.99586 25.11204,-57.60996 c -4.84622,-6.30062 -11.68296,-8.86901 -20.6805,-7.3859 z"
         id="path3037"
         sodipodi:nodetypes="cccc" />
      <path
         style="fill:#845343;fill-opacity:1;stroke:none"
         d="M 506.6722,648.48133 381.11203,796.19917 527.3527,658.82158 c -3.70336,-6.63689 -9.66355,-11.01695 -20.6805,-10.34025 z"
         id="path3043"
         sodipodi:nodetypes="cccc" />
      <path
         style="fill:#744243;fill-opacity:1;stroke:none"
         d="m 537.69295,627.80083 -42.83818,87.15353 60.56432,-78.29046 c -2.89767,-5.58902 -6.64985,-10.43034 -17.72614,-8.86307 z"
         id="path3039"
         sodipodi:nodetypes="cccc" />
      <path
         style="fill:#815245;fill-opacity:1;stroke:none"
         d="m 437.24481,534.73859 -155.10373,76.81328 174.30705,-53.17843 c 1.58424,-12.92166 -1.21093,-23.07738 -19.20332,-23.63485 z"
         id="path3047"
         sodipodi:nodetypes="cccc" />
      <path
         style="fill:#6f3e39;fill-opacity:1;stroke:none"
         d="m 462.35685,583.48548 -87.15353,63.51867 76.81328,-73.85892 c 4.55914,1.59277 11.54014,-0.85089 10.34025,10.34025 z"
         id="path3061"
         sodipodi:nodetypes="cccc" />
      <path
         style="fill:#945955;fill-opacity:1;stroke:none"
         d="m 491.90041,533.26141 -175.78423,96.0166 190.55602,-72.38174 c 5.96237,-15.13582 -2.1716,-20.87408 -14.77179,-23.63486 z"
         id="path3049"
         sodipodi:nodetypes="cccc" />
      <path
         style="fill:#613a35;fill-opacity:1;stroke:none"
         d="m 459.40249,487.46888 c -5.90871,1.47718 -76.81328,47.26971 -76.81328,47.26971 l 85.67635,-29.54357 c 1.51448,-8.14313 1.88003,-15.7118 -8.86307,-17.72614 z"
         id="path3051"
         sodipodi:nodetypes="cccc" />
      <path
         style="fill:#6a4337;fill-opacity:1;stroke:none"
         d="m 423.95021,475.65145 -125.56017,32.49793 129.9917,-7.38589 c 8.7353,-10.52067 6.54742,-18.74173 -4.43153,-25.11204 z"
         id="path3053"
         sodipodi:nodetypes="cccc" />
      <path
         style="fill:#a26459;fill-opacity:1;stroke:none"
         d="M 407.70124,387.02075 94.539419,283.61826 404.74689,407.70124 c 3.75853,-6.20006 7.31879,-12.44969 2.95435,-20.68049 z"
         id="path3065"
         sodipodi:nodetypes="cccc" />
      <path
         style="fill:#955c56;fill-opacity:1;stroke:none"
         d="M 478.60581,425.42739 356,413.60996 478.60581,397.361 c 11.47745,9.35546 8.5078,23.38135 0,28.06639 z"
         id="path2951"
         sodipodi:nodetypes="cccc" />
      <path
         style="fill:#9a5b3b;fill-opacity:1;stroke:none"
         d="m 567.23651,234.87137 c 0,-7.38589 -13.2946,-163.966806 -13.2946,-163.966806 l 35.45228,161.012446 c -5.78594,4.82466 -11.33125,10.22687 -22.15768,2.95436 z"
         id="path3069"
         sodipodi:nodetypes="cccc" />
      <path
         style="fill:#ab664a;fill-opacity:1;stroke:none"
         d="m 596.78008,298.39004 -23.63485,-155.10373 53.17842,153.62655 c -8.58592,9.95691 -18.90547,6.91164 -29.54357,1.47718 z"
         id="path2947"
         sodipodi:nodetypes="cccc" />
      <path
         style="fill:#9a5f57;fill-opacity:1;stroke:none"
         d="m 608.59751,353.04564 -22.15768,-88.6307 42.83818,82.72199 c -4.19664,5.56538 -10.27914,8.61629 -20.6805,5.90871 z"
         id="path2917"
         sodipodi:nodetypes="cccc" />
    </g>
    <path
       id="path3971"
       d="m 739.48256,708.37795 c 5.44882,10.11924 109.75479,196.15748 109.75479,196.15748 L 755.43982,702.92914 c -6.9443,-2.36942 -13.94251,-0.67917 -15.95726,5.44881 z"
       style="fill:#9d5f54;fill-opacity:1;stroke:none"
       sodipodi:nodetypes="cccc" />
    <path
       id="path3973"
       d="M 755.43982,701.76153 853.90776,909.98425 772.56468,694.7559 c -3.99593,-0.60052 -13.26801,-1.8184 -17.12486,7.00563 z"
       style="fill:#bc7875;fill-opacity:1;stroke:none"
       sodipodi:nodetypes="cccc" />
    <path
       id="path3977"
       d="M 784.62992,688.91789 920.07199,937.22835 801.75478,685.02587 784.62992,688.91789 z"
       style="fill:none;stroke:none" />
    <path
       id="path3985"
       d="M 821.88261,661.69671 999.46907,798.67267 835.79942,645.57823 c -10.33323,2.10303 -11.15114,9.47492 -13.91681,16.11848 z"
       style="fill:#bd7b63;fill-opacity:1;stroke:none"
       sodipodi:nodetypes="cccc" />
    <path
       id="path3999"
       d="m 667.09111,720.8324 5.44882,146.3397 -23.35208,-144.0045 c 5.96775,-4.15147 11.93551,-4.92988 17.90326,-2.3352 z"
       style="fill:#9b6269;fill-opacity:1;stroke:none"
       sodipodi:nodetypes="cccc" />
    <path
       id="path4001"
       d="m 645.29584,703.70754 -21.79528,282.56018 10.11924,-286.4522 c 5.31535,-2.40333 8.94998,-0.43681 11.67604,3.89202 z"
       style="fill:#a9695f;fill-opacity:1;stroke:none"
       sodipodi:nodetypes="cccc" />
    <path
       id="path4011"
       d="m 555.77953,708.37795 -70.83465,164.24297 88.73791,-161.12936 -17.90326,-3.11361 z"
       style="fill:#d6887c;fill-opacity:1;stroke:none" />
    <path
       id="path4013"
       d="M 557.33633,700.59393 502.84814,809.5703 574.46119,706.04274 c -4.46637,-3.17109 -7.29107,-8.13309 -17.12486,-5.44881 z"
       style="fill:#b06e62;fill-opacity:1;stroke:none"
       sodipodi:nodetypes="cccc" />
    <path
       id="path4007"
       d="m 580.10461,686.38808 -29.7739,59.3532 21.79527,-64.60742 c 2.23517,-1.83424 7.76519,0.24134 7.97863,5.25422 z"
       style="fill:#603731;fill-opacity:1;stroke:none"
       sodipodi:nodetypes="cccc" />
    <path
       id="path4015"
       d="M 506.93475,707.98876 392.31496,960.58043 539.82228,717.13498 c -10.74556,-3.2223 -19.8325,-7.7715 -32.88753,-9.14622 z"
       style="fill:#d69b95;fill-opacity:1;stroke:none"
       sodipodi:nodetypes="cccc" />
    <path
       id="path4017"
       d="m 510.24297,704.68054 -93.01912,209.19573 122.40382,-199.2711 c -6.29118,-4.86605 -15.86803,-10.86986 -29.3847,-9.92463 z"
       style="fill:#c58279;fill-opacity:1;stroke:none"
       sodipodi:nodetypes="cccc" />
    <path
       id="path4019"
       d="m 521.52981,687.36108 -68.49944,147.89651 91.07312,-140.11248 c -6.69247,-3.36276 -9.79055,-10.04342 -22.57368,-7.78403 z"
       style="fill:#c18489;fill-opacity:1;stroke:none"
       sodipodi:nodetypes="cccc" />
    <path
       id="path4021"
       d="M 544.88189,657.78178 467.82002,820.46794 566.67717,665.5658 c -4.2127,-6.66453 -11.35585,-9.4218 -21.79528,-7.78402 z"
       style="fill:#7d4840;fill-opacity:1;stroke:none"
       sodipodi:nodetypes="cccc" />
  </g>
</svg>
