<?xml version="1.0" encoding="UTF-8" standalone="no"?>
<!-- Created with Inkscape (http://www.inkscape.org/) -->

<svg
   xmlns:dc="http://purl.org/dc/elements/1.1/"
   xmlns:cc="http://creativecommons.org/ns#"
   xmlns:rdf="http://www.w3.org/1999/02/22-rdf-syntax-ns#"
   xmlns:svg="http://www.w3.org/2000/svg"
   xmlns="http://www.w3.org/2000/svg"
   xmlns:xlink="http://www.w3.org/1999/xlink"
   xmlns:sodipodi="http://sodipodi.sourceforge.net/DTD/sodipodi-0.dtd"
   xmlns:inkscape="http://www.inkscape.org/namespaces/inkscape"
   width="127.9994"
   height="95.587997"
   id="svg2"
   version="1.1"
   inkscape:version="0.92.2 (5c3e80d, 2017-08-06)"
   sodipodi:docname="yak.svg">
  <title
     id="title2985">Yak</title>
  <defs
     id="defs4">
    <inkscape:perspective
       sodipodi:type="inkscape:persp3d"
       inkscape:vp_x="0 : 510.95309 : 1"
       inkscape:vp_y="0 : 1000 : 0"
       inkscape:vp_z="1628.5854 : 510.95309 : 1"
       inkscape:persp3d-origin="814.29272 : 340.6354 : 1"
       id="perspective46" />
    <linearGradient
       id="linearGradient3828">
      <stop
         style="stop-color:#555242;stop-opacity:1;"
         offset="0"
         id="stop3830" />
      <stop
         style="stop-color:#000000;stop-opacity:1;"
         offset="1"
         id="stop3832" />
    </linearGradient>
    <linearGradient
       id="linearGradient3776">
      <stop
         style="stop-color:#ffffff;stop-opacity:1;"
         offset="0"
         id="stop3778" />
      <stop
         style="stop-color:#cccc9a;stop-opacity:1;"
         offset="1"
         id="stop3780" />
    </linearGradient>
    <linearGradient
       inkscape:collect="always"
       xlink:href="#linearGradient3776-7"
       id="linearGradient3782-1"
       x1="1217.0886"
       y1="157.33231"
       x2="1209.9423"
       y2="231.09985"
       gradientUnits="userSpaceOnUse" />
    <linearGradient
       id="linearGradient3776-7">
      <stop
         style="stop-color:#ffffff;stop-opacity:1;"
         offset="0"
         id="stop3778-4" />
      <stop
         style="stop-color:#cccc9a;stop-opacity:1;"
         offset="1"
         id="stop3780-0" />
    </linearGradient>
    <linearGradient
       inkscape:collect="always"
       xlink:href="#linearGradient3828"
       id="linearGradient3834"
       x1="1287.6953"
       y1="340.35135"
       x2="1203.012"
       y2="300.84357"
       gradientUnits="userSpaceOnUse"
       gradientTransform="rotate(-16.785093,1611.5278,361.3157)" />
    <linearGradient
       inkscape:collect="always"
       xlink:href="#linearGradient3776-7"
       id="linearGradient3840"
       gradientUnits="userSpaceOnUse"
       gradientTransform="matrix(-1,-0.12611877,0.37418247,1.0471914,2663.8671,230.85253)"
       x1="1217.0886"
       y1="157.33231"
       x2="1209.9423"
       y2="231.09985" />
    <linearGradient
       inkscape:collect="always"
       xlink:href="#linearGradient3776"
       id="linearGradient3842"
       gradientUnits="userSpaceOnUse"
       x1="1217.0886"
       y1="157.33231"
       x2="1209.9423"
       y2="231.09985"
       gradientTransform="translate(-27.748456,95.265599)" />
    <linearGradient
       inkscape:collect="always"
       xlink:href="#linearGradient3776-7"
       id="linearGradient2862"
       gradientUnits="userSpaceOnUse"
       gradientTransform="matrix(-1,-0.12611877,0.37418247,1.0471914,2663.8671,230.85253)"
       x1="1217.0886"
       y1="157.33231"
       x2="1209.9423"
       y2="231.09985" />
    <linearGradient
       inkscape:collect="always"
       xlink:href="#linearGradient3828"
       id="linearGradient2864"
       gradientUnits="userSpaceOnUse"
       gradientTransform="rotate(-16.785093,1611.5278,361.3157)"
       x1="1287.6953"
       y1="340.35135"
       x2="1203.012"
       y2="300.84357" />
    <linearGradient
       inkscape:collect="always"
       xlink:href="#linearGradient3776"
       id="linearGradient2866"
       gradientUnits="userSpaceOnUse"
       gradientTransform="translate(-27.748456,95.265599)"
       x1="1217.0886"
       y1="157.33231"
       x2="1209.9423"
       y2="231.09985" />
    <linearGradient
       inkscape:collect="always"
       xlink:href="#linearGradient3776"
       id="linearGradient2881"
       gradientUnits="userSpaceOnUse"
       gradientTransform="matrix(0.83327906,0,0,1.0111455,120.99971,64.537908)"
       x1="1217.0886"
       y1="157.33231"
       x2="1209.9423"
       y2="231.09985" />
    <linearGradient
       inkscape:collect="always"
       xlink:href="#linearGradient3828"
       id="linearGradient2884"
       gradientUnits="userSpaceOnUse"
       gradientTransform="matrix(0.96761772,-0.29186633,0.29186633,0.96761772,-133.65758,454.24064)"
       x1="1287.6953"
       y1="340.35135"
       x2="1203.012"
       y2="300.84357" />
    <linearGradient
       inkscape:collect="always"
       xlink:href="#linearGradient3776-7"
       id="linearGradient2888"
       gradientUnits="userSpaceOnUse"
       gradientTransform="matrix(-0.8537978,-0.12751679,0.31947617,1.0587994,2389.5642,201.63853)"
       x1="1217.0886"
       y1="157.33231"
       x2="1209.9423"
       y2="231.09985" />
    <linearGradient
       inkscape:collect="always"
       xlink:href="#linearGradient3776-7"
       id="linearGradient2900"
       gradientUnits="userSpaceOnUse"
       gradientTransform="matrix(-0.8537978,-0.12751679,0.31947617,1.0587994,2389.5642,201.63853)"
       x1="1217.0886"
       y1="157.33231"
       x2="1209.9423"
       y2="231.09985" />
    <linearGradient
       inkscape:collect="always"
       xlink:href="#linearGradient3828"
       id="linearGradient2902"
       gradientUnits="userSpaceOnUse"
       gradientTransform="matrix(0.96761772,-0.29186633,0.29186633,0.96761772,-133.65758,454.24064)"
       x1="1287.6953"
       y1="340.35135"
       x2="1203.012"
       y2="300.84357" />
    <linearGradient
       inkscape:collect="always"
       xlink:href="#linearGradient3776"
       id="linearGradient2904"
       gradientUnits="userSpaceOnUse"
       gradientTransform="matrix(0.83327906,0,0,1.0111455,120.99971,64.537908)"
       x1="1217.0886"
       y1="157.33231"
       x2="1209.9423"
       y2="231.09985" />
  </defs>
  <sodipodi:namedview
     id="base"
     pagecolor="#ffffff"
     bordercolor="#666666"
     borderopacity="1.0"
     inkscape:pageopacity="0.0"
     inkscape:pageshadow="2"
     inkscape:zoom="0.61162191"
     inkscape:cx="-2.4802899"
     inkscape:cy="80.413015"
     inkscape:document-units="px"
     inkscape:current-layer="layer1"
     showgrid="false"
     inkscape:window-width="1920"
     inkscape:window-height="1025"
     inkscape:window-x="-8"
     inkscape:window-y="-8"
     inkscape:window-maximized="1"
     fit-margin-top="0"
     fit-margin-left="0"
     fit-margin-right="0"
     fit-margin-bottom="0" />
  <metadata
     id="metadata7">
    <rdf:RDF>
      <cc:Work
         rdf:about="">
        <dc:format>image/svg+xml</dc:format>
        <dc:type
           rdf:resource="http://purl.org/dc/dcmitype/StillImage" />
        <dc:title>Yak</dc:title>
        <dc:date>2011-01-20</dc:date>
        <dc:creator>
          <cc:Agent>
            <dc:title>Jordan Irwin (AntumDeluge)</dc:title>
          </cc:Agent>
        </dc:creator>
        <cc:license
           rdf:resource="http://creativecommons.org/publicdomain/zero/1.0/" />
        <dc:description>v0.3</dc:description>
        <dc:subject>
          <rdf:Bag>
            <rdf:li>yak</rdf:li>
            <rdf:li>animal</rdf:li>
            <rdf:li>cow</rdf:li>
            <rdf:li>hooved</rdf:li>
            <rdf:li>horned</rdf:li>
            <rdf:li>bovine</rdf:li>
            <rdf:li>long-haired</rdf:li>
            <rdf:li>bos</rdf:li>
            <rdf:li>cattle</rdf:li>
            <rdf:li>grunniens</rdf:li>
          </rdf:Bag>
        </dc:subject>
      </cc:Work>
      <cc:License
         rdf:about="http://creativecommons.org/publicdomain/zero/1.0/">
        <cc:permits
           rdf:resource="http://creativecommons.org/ns#Reproduction" />
        <cc:permits
           rdf:resource="http://creativecommons.org/ns#Distribution" />
        <cc:permits
           rdf:resource="http://creativecommons.org/ns#DerivativeWorks" />
      </cc:License>
    </rdf:RDF>
  </metadata>
  <g
     inkscape:label="Layer 1"
     inkscape:groupmode="layer"
     id="layer1"
     transform="translate(-706.52904,-550.16356)">
    <g
       id="g893"
       transform="matrix(0.08934516,0,0,0.08934516,701.68573,544.53295)">
      <g
         transform="translate(76.303754,-71.679283)"
         id="g2868">
        <path
           style="fill:#cccccc;stroke:#000000;stroke-opacity:1"
           d="m 32.258065,1020.8729 -1.897534,47.4383 89.184059,28.463 51.2334,-22.7704 -22.7704,-49.3359 -68.311195,-30.3605 z"
           id="path3769"
           inkscape:connector-curvature="0"
           transform="translate(0,52.362183)" />
        <path
           style="fill:#000000;stroke:none"
           d="m 108.15939,1041.2713 c 5.23599,17.8685 7.07945,35.7369 4.26945,53.6054 l 7.67153,1.8449 15.85114,-7.2596 c -10.99814,-15.6151 -17.48788,-31.681 -19.54097,-48.1906 z"
           id="path3773"
           inkscape:connector-curvature="0"
           transform="translate(0,52.362183)"
           sodipodi:nodetypes="cccccc" />
        <path
           style="fill:#cccccc;stroke:#000000;stroke-opacity:1"
           d="m 131.21586,1031.4893 5.6926,47.4384 121.44212,13.2827 c -4.72578,-18.9567 -5.24186,-38.4746 -27.98861,-55.0285 l -46.01518,-24.6679 z"
           id="path3771"
           inkscape:connector-curvature="0"
           sodipodi:nodetypes="cccccc" />
        <path
           style="fill:#241f1c;stroke:none"
           d="m 37.950664,806.45161 c 0,0 9.132292,77.05366 8.401144,115.7224 -0.589665,31.186 -15.991276,102.49389 -15.991276,102.49389 81.742488,31.5739 106.488668,18.7447 123.339658,5.6927 -8.31047,-23.8182 -19.90291,-46.35146 -38.32345,-68.10665 -15.06934,-17.79733 -5.02329,-157.55161 -1.52475,-155.80234 z"
           id="path3759"
           inkscape:connector-curvature="0"
           transform="translate(0,52.362183)"
           sodipodi:nodetypes="csccscc" />
        <path
           style="fill:#000000;stroke:none"
           d="m 223.24622,1041.9258 c 7.6998,14.0264 16.24592,30.1297 15.18027,47.9127 l 15.65464,1.4231 c -5.61995,-16.8 -12.93546,-33.3174 -26.09107,-48.8615 z"
           id="path3775"
           inkscape:connector-curvature="0"
           sodipodi:nodetypes="ccccc" />
        <path
           style="fill:#241c1c;stroke:none"
           d="m 112.24053,852.17243 c -1.74613,40.51059 24.07412,86.77013 25.795,127.82789 0.65935,15.73111 -7.60556,36.33858 -3.02461,51.48898 46.77095,12.6639 66.79536,9.5254 94.87667,13.2828 -0.52771,-26.5105 -12.86178,-44.1662 -33.61676,-55.50624 -8.11142,-46.01407 -24.79374,-92.02813 -4.33391,-138.0422 z"
           id="path3761"
           inkscape:connector-curvature="0"
           sodipodi:nodetypes="csccccc" />
      </g>
      <path
         transform="translate(-21.561348,128.26351)"
         inkscape:connector-curvature="0"
         id="path2996"
         d="m 944.25928,934.83231 -6.56242,51.04104 99.16544,18.22895 41.562,-27.708 -24.7914,-40.83283 z"
         style="fill:#cccccc;fill-opacity:1;stroke:#000000;stroke-opacity:1" />
      <path
         sodipodi:nodetypes="cccccc"
         transform="translate(-21.561348,128.26351)"
         inkscape:connector-curvature="0"
         id="path3768"
         d="m 1022.1383,957.1246 c 2.6193,15.20591 5.1502,30.39708 2.4481,44.7161 l 12.4666,2.4336 9.6224,-6.73567 c -6.6561,-12.90151 -12.0397,-26.82107 -16.4286,-41.53637 z"
         style="fill:#000000;fill-opacity:1;stroke:none" />
      <path
         sodipodi:nodetypes="ccscccccc"
         transform="translate(0,52.362183)"
         inkscape:connector-curvature="0"
         id="path3763"
         d="m 927.32247,779.62206 9.94898,87.07423 c 0.71568,22.32221 1.66227,54.96495 1.64841,74.36901 -0.017,23.77243 -17.12577,51.44634 -17.00004,75.7895 35.28336,19.992 127.95178,29.0188 109.69898,-9.6787 l -36.99435,-61.4895 2.73269,-77.19936 17.36656,-96.45532 z"
         style="fill:#241f1c;stroke:none" />
      <path
         sodipodi:nodetypes="cccccc"
         transform="translate(-21.561348,128.26351)"
         inkscape:connector-curvature="0"
         id="path2998"
         d="m 1071.8619,885.24958 -3.2919,32.8121 22.0959,14.48661 96.2045,14.32585 c 4.4675,-35.55636 -8.9096,-49.39392 -29.6971,-76.20771 z"
         style="fill:#cccccc;fill-opacity:1;stroke:#000000;stroke-opacity:1" />
      <path
         sodipodi:nodetypes="cscccc"
         transform="translate(-21.561348,128.26351)"
         inkscape:connector-curvature="0"
         id="path3770"
         d="m 1163.4937,895.25303 c 2.15,-2.48945 25.0136,37.79117 24.1544,44.99182 -0.5089,4.26456 -0.6804,6.67649 -0.6804,6.67649 l -16.2873,-2.42395 c -0.3612,-14.51532 -5.1662,-30.22135 -9.9084,-44.73667 z"
         style="fill:#000000;fill-opacity:1;stroke:none" />
      <path
         sodipodi:nodetypes="csccsscc"
         inkscape:connector-curvature="0"
         id="path3765"
         d="m 1041.0732,806.12297 c 1.0613,22.18743 20.4627,129.19467 19.0411,157.05812 -0.8202,16.07587 -9.5538,41.98781 -9.5585,51.20061 25.3942,15.1962 66.1443,18.356 91.5385,14.1635 5.8261,-28.1482 -7.2497,-43.99814 -21.9785,-53.97264 -15.407,-10.43373 -9.435,-41.42241 -11.0688,-57.66611 -1.7505,-17.40384 25.8667,-101.38936 20.2549,-122.65454 -21.4013,-6.39883 -69.9393,-32.76956 -88.2287,11.87106 z"
         style="fill:#241f1c;stroke:none" />
      <path
         sodipodi:nodetypes="csscscsssscccsscsccccccsccccccccccccccccccccccccscccccccccccccccccccs"
         inkscape:connector-curvature="0"
         id="path2987"
         d="M 78.706472,722.19837 C 76.709201,698.56804 77.542935,621.34988 70.070714,609.97426 63.740846,600.33773 59.374383,657.84483 57.898999,637.45145 57.285472,628.97103 55.349439,582.78026 54.761181,558.74625 52.751517,376.27701 95.967664,284.4921 290.56004,271.21528 c 91.85405,-6.2671 179.08086,-5.06694 270.689,-13.71368 25.12116,1.89759 175.75909,-31.9576 199.08588,-50.93354 17.12628,-13.93192 79.31412,-71.41638 137.69682,-105.10905 39.23375,-22.641793 77.15784,-37.951852 129.19446,-37.951852 52.0368,0 82.541,3.795186 120.2227,7.590372 37.6817,3.795186 44.3028,20.462273 64.5973,34.15667 58.4838,71.9263 118.3251,140.48568 168.3918,221.01611 l 0.98,172.83886 c 0,0 -29.953,24.77347 -69.9804,39.02268 -26.8829,9.56996 -52.7624,36.54015 -73.569,56.9278 -28.6797,28.10211 -47.6782,168.46911 -55.3526,209.46046 -3.5092,2.42376 -3.5003,-15.26256 -6.8943,-11.57252 -31.9545,34.74208 -58.1016,119.67916 -65.3194,143.16185 -6.8285,-7.4916 -3.1218,-24.17333 -4.9493,-32.99799 -6.7749,1.08954 -14.5681,17.42896 -13.6414,21.42924 -2.1674,2.59505 1.4993,-30.02509 -1.5709,-28.5734 -3.9214,0.92975 -8.6167,6.40918 -15.4875,15.17208 -6.8709,8.76291 -5.0124,29.14108 -12.0094,31.17011 -3.2434,0.94056 -8.3446,-50.26326 -11.1883,-49.7568 -3.2908,0.5861 -6.2951,31.58574 -8.9695,32.1333 -11.9734,2.45148 -23.5361,2.30226 -29.6237,3.22367 -10.5192,1.06896 -8.5224,19.74562 -12.4903,24.3277 -2.64585,-0.44781 8.0295,-49.03417 2.5043,-54.35273 -4.89743,2.20361 -6.63149,28.18353 -7.05803,35.91862 -0.53811,2.02706 -0.85532,-9.33897 -1.77664,-5.14415 -0.92132,4.19482 -2.91459,17.82713 -4.0069,17.79211 -1.73577,0.0223 2.37231,-13.82577 -1.40018,-18.00605 -1.64447,-1.40535 -0.41727,-26.33806 -4.98424,-34.11759 -6.3185,1.63179 0.072,54.70239 -7.01868,55.41696 -1.10698,-0.17705 1.21324,-31.94195 -0.26132,-33.04662 -5.37989,-1.10466 -8.23426,29.30854 -8.53849,26.55602 -1.32187,-2.75253 0.0981,-6.42004 -1.60875,-12.96586 -4.8411,-4.67121 -7.0755,35.86117 -13.04888,34.93718 1.82821,-0.2269 5.23407,-17.8646 1.47823,-39.55683 -82.19424,12.35611 -131.12559,-55.66025 -219.42269,-59.16829 -9.82586,1.22172 1.89501,-28.44335 1.16978,-36.80903 -12.84141,3.56777 -17.8082,37.95294 -22.19859,35.77382 -4.84957,-1.26129 9.84869,-36.72651 4.64796,-43.07706 -5.22282,1.79658 -19.49433,46.01964 -22.90176,45.77878 -165.22147,-21.58246 -311.93387,-3.08011 -380.8931,-0.32513 -5.16829,-16.01554 -1.17825,-8.03458 -5.8613,-28.69649 -9.08645,3.55145 -8.72813,19.8821 -10.67377,33.78964 -11.36447,-20.30224 0.18437,-23.43022 -6.08831,-45.10912 -6.69944,23.19797 -4.43282,46.76693 -18.53289,52.81606 -5.10781,2.19132 -57.33716,10.39968 -74.82863,22.24014 5.12622,-12.33346 3.24056,-18.86708 1.13279,-17.68819 -6.85531,2.71674 -11.78941,12.83891 -8.99498,23.43922 -9.58866,-11.16338 -12.38923,-20.26012 -14.6931,-29.38532 -14.00726,3.69597 -12.78428,35.25348 -15.77701,45.96205 -3.80309,-18.58459 -0.22665,-48.75388 -1.6241,-56.66865 -13.94927,13.97899 -12.45645,54.55595 -13.47981,69.82037 -0.84998,-1.84606 -3.78564,-46.20578 -5.57713,-49.16531 -0.70028,-1.15684 -2.01517,5.20409 -2.01517,5.20409 0,0 -2.67351,-5.59701 -3.1765,-6.10498 -0.8949,1.41289 -3.15748,41.5356 -4.53553,45.25876 -1.26285,-6.9037 -0.69564,-52.91109 -2.2063,-55.23976 -2.19223,1.9381 -2.32752,18.80169 -3.81693,21.64737 -0.52782,-1.80324 -1.83566,-21.34654 -3.08705,-24.57383 0,0 1.20941,33.83844 -0.44669,40.161 -1.2004,-7.01921 -5.22126,-48.58926 -7.79099,-53.12461 -2.27472,4.20643 -2.34548,32.15874 -6.01285,49.53373 -5.42429,-22.24292 -5.37001,-55.14172 -10.317232,-65.93386 -4.556257,10.89245 -4.666579,17.20747 -8.437355,30.0761 C 82.142852,839.70882 81.57279,756.11065 78.706472,722.19837 Z"
         style="fill:#5f5242;fill-opacity:1;stroke:#000000;stroke-width:0.97245151;stroke-opacity:1" />
      <path
         sodipodi:nodetypes="csssszzzcc"
         inkscape:connector-curvature="0"
         id="path2989"
         d="m 345.92177,320.90982 c 51.68902,3.35997 103.40228,20.10501 153.43667,20.77097 68.76015,0.9152 144.51511,-13.67916 213.67404,-32.03522 59.0765,-15.67999 111.32158,-92.79407 152.17416,-89.40931 125.13876,10.36814 162.50646,91.4182 105.68792,175.21932 -32.76075,48.31854 -103.09398,133.46763 -169.46827,139.25761 -66.37429,5.78998 -308.15879,-77.68536 -364.13212,-79.459 -55.97333,-1.77365 -112.66431,-4.5598 -170.67674,5.40085 -58.01242,9.96064 -103.37038,62.02618 -122.40453,50.52582 -77.941679,-127.6131 59.91258,-173.00521 201.70887,-190.27104 z"
         style="fill:#f4eed7;fill-opacity:0.16129031;stroke:none" />
      <path
         transform="translate(0,52.362183)"
         inkscape:connector-curvature="0"
         id="path3767"
         d="m 163.18786,543.64326 c 0,0 29.41176,28.463 39.84819,77.79887 10.43644,49.33586 10.43644,60.72106 11.3852,73.05502 0.94877,12.33397 0.94877,39.8482 8.5389,1.89754 7.59013,-37.95067 7.59013,-67.36243 7.59013,-92.03036 0,-24.66794 -0.94876,-58.82353 1.89754,-50.28463 2.8463,8.5389 21.82163,53.13093 21.82163,65.46489 0,12.33397 4.74383,17.0778 10.43643,-6.64136 5.6926,-23.71917 6.64137,-45.5408 6.64137,-55.97723 0,-10.43644 33.20683,14.2315 36.05313,26.56546 2.8463,12.33397 8.5389,37.95067 8.5389,45.5408 0,7.59013 7.59013,33.20683 12.33396,19.9241 4.74384,-13.28274 4.74384,-36.05313 9.48767,-42.6945 4.74383,-6.64137 14.2315,0 14.2315,0 l 19.9241,18.97533 c 0,0 23.71916,23.71917 23.71916,4.74383 0,-18.97533 0,-24.66793 0,-31.30929 0,-6.64137 8.5389,-24.66794 11.3852,-6.64137 2.8463,18.02657 20.87287,18.02657 22.7704,6.64137 1.89753,-11.3852 4.74383,-17.0778 0.94877,-34.1556 -3.79507,-17.0778 -25.6167,-54.0797 -29.41177,-62.6186 -3.79506,-8.5389 -26.56546,-47.43833 -21.82163,-20.87286 4.74383,26.56546 11.3852,56.92599 1.89753,51.23339 -9.48766,-5.6926 -45.54079,-43.64326 -45.54079,-43.64326 0,0 -15.18027,-2.8463 -15.18027,8.5389 0,11.3852 6.64137,36.05313 6.64137,42.6945 0,6.64136 -3.79507,22.7704 -15.18027,1.89753 -11.3852,-20.87286 -30.36053,-52.18216 -37.00189,-61.66983 -6.64137,-9.48766 -27.51424,-42.6945 -18.02657,-20.87286 9.48767,21.82163 16.12903,42.69449 16.12903,52.18216 0,9.48767 0.94877,26.56546 0.94877,26.56546 0,0 -20.87287,-27.51423 -24.66793,-36.05313 -3.79507,-8.5389 -20.87287,-28.463 -22.7704,-32.25806 -1.89753,-3.79507 -17.0778,-21.82163 -17.0778,-14.2315 0,7.59013 17.0778,42.6945 17.0778,51.2334 0,8.5389 0,17.07779 0,21.82163 0,4.74383 -14.2315,-3.79507 -17.0778,-7.59013 C 206.83112,517.0778 191.65085,500 191.65085,500 c 0,0 5.6926,24.66793 5.6926,30.36053 0,5.6926 11.3852,31.3093 -0.94876,16.12903 C 184.06072,531.3093 161.29032,502.8463 161.29032,502.8463 Z"
         style="fill:#000000;stroke:none" />
      <path
         transform="translate(-21.561348,128.26351)"
         inkscape:connector-curvature="0"
         id="path2994"
         d="m 1094.8767,400.37957 c 0,0 -1.8976,48.38709 -29.4118,74.00379 -27.5142,25.6167 -21.8216,24.66793 -21.8216,24.66793 0,0 14.2315,14.2315 27.5142,3.79507 13.2827,-10.43643 19.9241,-14.2315 30.3605,-25.6167 10.4365,-11.3852 20.8729,-20.87286 13.2828,-2.8463 -7.5902,18.02657 -27.5143,55.97723 9.4876,5.6926 37.0019,-50.28463 40.797,-72.10626 40.797,-72.10626 0,0 17.0778,23.71916 9.4877,39.8482 -7.5902,16.12903 -32.2581,70.20872 -22.7704,61.66983 9.4876,-8.5389 23.7191,-37.0019 23.7191,-25.6167 0,11.3852 1.8976,53.13093 1.8976,53.13093 0,0 2.8463,-11.3852 5.6926,-24.66794 2.8463,-13.28273 -5.6926,-42.69449 8.5389,-9.48766 14.2315,33.20683 11.3852,45.5408 20.8728,18.97533 9.4877,-26.56546 7.5902,-34.1556 18.9754,-56.926 11.3852,-22.77039 23.7191,-53.13093 23.7191,-53.13093 0,0 -24.6679,27.51424 -37.0019,48.3871 -12.3339,20.87287 -27.5142,51.2334 -15.1802,20.87287 12.3339,-30.36053 24.6679,-67.36243 25.6167,-73.05503 0.9487,-5.6926 5.6926,-23.71917 -3.7951,-5.6926 -9.4877,18.02656 -27.5142,44.59203 -27.5142,44.59203 0,0 -6.6414,-11.3852 2.8463,-31.3093 9.4876,-19.9241 13.2827,-37.0019 13.2827,-41.74573 0,-4.74383 3.7951,-36.05313 0,-32.25806 -3.7951,3.79506 -30.3605,41.74573 -30.3605,41.74573 0,0 0.9487,-13.28274 0.9487,-20.87287 0,-7.59013 -9.4876,-11.3852 -19.9241,3.79507 -10.4364,15.18026 -25.6167,32.25806 -31.3093,39.8482 -5.6926,7.59013 -24.6679,41.74573 -16.129,16.12903 8.5389,-25.6167 31.3093,-73.05503 13.2827,-51.2334 -18.0265,21.82163 -35.1043,29.41177 -35.1043,29.41177 z"
         style="fill:#000000;fill-opacity:1;stroke:none" />
      <path
         transform="translate(-21.561348,128.26351)"
         inkscape:connector-curvature="0"
         id="path3764"
         d="m 1104.3643,527.51429 c 0,0 13.2828,-7.59013 20.8729,-17.0778 7.5901,-9.48766 19.9241,-25.6167 19.9241,-25.6167 0,0 -9.4877,16.12904 -12.334,25.6167 -2.8463,9.48767 -7.5901,30.36053 -6.6413,26.56547 0.9487,-3.79507 14.2315,-16.12904 14.2315,-16.12904 0,0 3.795,2.8463 0,13.28274 -3.7951,10.43643 -12.334,20.87286 -17.0778,26.56546 -4.7439,5.6926 -10.4365,14.2315 -10.4365,3.79507 0,-10.43643 6.6414,-16.12903 0,-16.12903 -6.6413,0 -12.3339,0.94876 -12.3339,-2.8463 0,-3.79507 3.795,-18.02657 3.795,-18.02657 z"
         style="fill:#000000;fill-opacity:1;stroke:none" />
      <g
         id="g2890">
        <path
           style="fill:url(#linearGradient2900);fill-opacity:1;stroke:#000000;stroke-width:0.92911899px;stroke-linecap:butt;stroke-linejoin:miter;stroke-opacity:1"
           d="m 1276.2809,235.11598 c -5.9806,5.04547 -1.3734,22.94203 -0.3833,30.80562 0.9901,7.86359 9.1261,21.08095 14.8242,26.21848 5.6981,5.13753 14.3805,13.29269 22.3438,14.48203 7.9633,1.18935 22.5238,21.59624 41.5284,22.72 19.0045,1.12376 65.9341,-19.24705 79.6324,-23.90901 14.2802,-4.85996 25.6338,-14.02426 33.331,-20.5904 7.6972,-6.56611 18.0349,-22.75205 18.2219,-31.29715 3.9012,-41.91712 -11.4948,-76.9165 -34.122,-126.83306 5.2949,36.19435 9.5296,84.05104 0.5688,107.6538 -6.707,14.42973 -26.4208,22.5044 -51.814,27.05888 -46.7629,8.38734 -99.1431,-40.32079 -124.1312,-26.30919 z"
           id="path3774-9"
           inkscape:connector-curvature="0"
           sodipodi:nodetypes="csssssscccsc" />
        <path
           style="fill:#555242;fill-opacity:1;stroke:#000000;stroke-width:1.01067805;stroke-opacity:1"
           d="m 1206.6544,245.58547 c 11.1774,0 30.7377,-40.01073 89.4191,-24.62199 58.6813,15.38875 71.6158,4.40386 97.8021,27.69974 21.0636,18.73854 14.3879,55.59172 19.9766,83.29144 5.5887,27.69974 -22.7709,98.29572 -28.3595,116.7622 -5.5888,18.46649 -5.5888,64.63272 -2.7944,89.2547 2.7944,24.622 20.5087,70.91251 -2.678,91.82387 -23.1866,20.91135 -57.8871,19.07065 -81.1525,12.81958 -17.9619,-4.82616 -41.9152,-40.01073 -41.9152,-40.01073 0,0 -22.3548,-21.54424 -22.3548,-46.16622 0,-24.62199 -5.5886,-61.55496 -16.766,-67.71047 -11.1774,-6.15549 -33.5322,-30.77749 -39.1208,-55.39946 -5.5888,-24.622 -5.5888,-52.32173 -2.7945,-89.25472 2.7945,-36.93297 30.7379,-98.48794 30.7379,-98.48794 z"
           id="path3772"
           inkscape:connector-curvature="0"
           sodipodi:nodetypes="cssssszscssssc" />
        <path
           style="fill:url(#linearGradient2902);fill-opacity:1;stroke:#000000;stroke-width:1.01067805px;stroke-linecap:butt;stroke-linejoin:miter;stroke-opacity:1"
           d="m 1196.9801,323.54218 c -8.4041,6.7056 -48.6319,87.65552 -46.1128,109.83427 2.5192,22.17874 -4.7317,32.70716 1.7921,47.42201 6.5239,14.71481 19.7532,37.83364 19.7532,37.83364 l 33.4031,-41.35543 c 0,0 17.5976,3.0333 25.5755,-32.73839 7.978,-35.77169 7.9468,-56.61554 7.1573,-73.06001 -0.7896,-16.44448 -6.1916,-48.18032 -6.1916,-48.18032 l -5.1889,-17.2028 -25.8198,-2.6385 z"
           id="path3818"
           inkscape:connector-curvature="0" />
        <path
           style="fill:url(#linearGradient2904);fill-opacity:1;stroke:#000000;stroke-width:0.91791421px;stroke-linecap:butt;stroke-linejoin:miter;stroke-opacity:1"
           d="m 1269.1268,264.29895 c 7.6682,5.93905 8.4785,23.14854 9.8916,30.86473 1.4131,7.71618 -2.8261,19.71913 -7.0654,24.00588 -4.2392,4.28677 -10.5981,11.1456 -18.37,11.1456 -7.772,0 -30.3813,-7.71619 -49.4578,-9.43089 -19.0765,-1.71471 -45.9251,-5.14412 -61.469,-6.85883 -15.5439,-1.7147 -38.8597,-12.8603 -48.7512,-20.57647 -9.8917,-7.71618 -30.3812,-33.43678 -33.2074,-42.01031 -16.9136,-42.50233 -11.9716,-75.20423 -4.2393,-121.74417 5.75,35.40566 11.8249,68.50895 28.2616,93.45151 11.3047,15.43237 29.8728,20.80249 57.2298,29.15001 50.3793,15.37242 97.3177,-5.74176 127.1771,12.00294 z"
           id="path3774"
           inkscape:connector-curvature="0"
           sodipodi:nodetypes="csssssscccsc" />
        <g
           id="g3856"
           transform="matrix(1.010678,0,0,0.80444166,-93.463395,39.927376)">
          <path
             sodipodi:nodetypes="ccc"
             transform="translate(-21.561348,128.26351)"
             inkscape:connector-curvature="0"
             id="path3846"
             d="m 1362.7957,257.44475 c -9.9759,29.17455 -3.3919,45.68564 19.6873,49.58272 9.1396,-25.2509 6.098,-43.73451 -19.6873,-49.58272 z"
             style="fill:#ffffd9;fill-opacity:1;stroke:#000000;stroke-width:1px;stroke-linecap:butt;stroke-linejoin:miter;stroke-opacity:1" />
          <path
             sodipodi:nodetypes="ccc"
             transform="translate(-21.561348,128.26351)"
             inkscape:connector-curvature="0"
             id="path3848"
             d="m 1359.1935,286.75921 c 4.3254,22.53444 34.5728,22.69661 27.0796,-9.19686 -4.0015,-20.49389 -32.026,-25.98364 -27.0796,9.19686 z"
             style="fill:#000000;fill-opacity:1;stroke:#000000;stroke-width:1px;stroke-linecap:butt;stroke-linejoin:miter;stroke-opacity:1" />
          <path
             sodipodi:nodetypes="ccc"
             transform="translate(-21.561348,128.26351)"
             inkscape:connector-curvature="0"
             id="path3852"
             d="m 1363.3832,286.14609 c -1.0005,-5.65973 6.283,-21.28139 11.5471,-22.58341 -10.4624,-2.7562 -18.5095,12.27211 -11.5471,22.58341 z"
             style="fill:#ffffff;fill-opacity:0.75806448;stroke:none" />
        </g>
      </g>
    </g>
  </g>
</svg>
