<?xml version="1.0" encoding="utf-8"?>
<!-- Generator: Adobe Illustrator 12.0.1, SVG Export Plug-In . SVG Version: 6.00 Build 51448)  -->
<!DOCTYPE svg PUBLIC "-//W3C//DTD SVG 1.1//EN" "http://www.w3.org/Graphics/SVG/1.1/DTD/svg11.dtd" [
	<!ENTITY ns_svg "http://www.w3.org/2000/svg">
	<!ENTITY ns_xlink "http://www.w3.org/1999/xlink">
]>
<svg  version="1.1" id="Layer_1" xmlns="&ns_svg;" xmlns:xlink="&ns_xlink;" width="246.433" height="272.398"
	 viewBox="0 0 246.433 272.398" overflow="visible" enable-background="new 0 0 246.433 272.398" xml:space="preserve">
<g>
	<path fill-rule="evenodd" clip-rule="evenodd" fill="#FFFFFF" d="M15.097,5.204c3.208,2.343,4.465,6.638,6.245,10.409
		C16.391,16.935,14.672,9.474,15.097,5.204z"/>
	<path fill-rule="evenodd" clip-rule="evenodd" fill="#FFFFFF" d="M27.587,13.531c-0.12,3.488-2.282,7.665-5.204,9.888
		c1.738-4.382,0.563-9.857-2.082-14.572C22.597,8.589,25.539,11.841,27.587,13.531z"/>
	<path fill-rule="evenodd" clip-rule="evenodd" fill="#FFFFFF" d="M57.251,10.929c-1.203,3.654-2.473,7.242-4.164,10.409
		c2.81,3.871-0.139,9.598-1.041,15.092c-0.788,4.795,1.101,10.498-2.602,12.49c-0.77-12.159,2.116-17.766,3.123-26.542
		c-4.103-3.048-1.534-9.55,0.52-13.531C55.562,8.455,55.939,10.159,57.251,10.929z"/>
	<path fill-rule="evenodd" clip-rule="evenodd" fill="#FFFFFF" d="M28.107,19.255c0.539,2.571,1.123,6.456-1.562,7.286
		C26.514,23.561,28.029,22.126,28.107,19.255z"/>
	<path fill-rule="evenodd" clip-rule="evenodd" fill="#FFFFFF" d="M74.945,21.337c-1.724,3.133-4.623,5.091-5.725,8.847
		c-1.42,0.379-1.047-1.034-2.082-1.041c-0.693,2.256-0.878,5.021-1.041,7.807c-1.787-2.203-2.528-5.452-2.602-9.368
		C68.402,26.222,68.721,16.837,74.945,21.337z"/>
	<path fill-rule="evenodd" clip-rule="evenodd" d="M57.251,23.939c0.521,0,1.041,0,1.562,0c1.468,13.073-0.352,31.454-8.327,38.511
		C53.976,50.719,59.208,37.109,57.251,23.939z"/>
	<path fill-rule="evenodd" clip-rule="evenodd" fill="#FFFFFF" d="M79.109,24.46c0.463,0.23,0.931,0.457,1.041,1.041
		c1.037,3.811-1.914,4.711-2.602,8.847c-0.133,0.799,1.072,1.329,1.041,2.603c-0.022,0.918-1.127,1.378-1.041,2.082
		c0.408,3.328,2.165,5.943,1.562,9.368c-0.427,2.425-3.506,6.247-4.164,8.847c-3.372,13.33-3.275,25.549-15.092,28.623
		c-2.425-1.392-5.245-2.387-7.286-4.163c0.193-1.334,2.918,0.218,4.684,0c4.227-2.996,8.051-8.336,10.929-14.052
		c2.456-4.876,3.104-9.498,4.684-15.092c1.185-4.194,4.28-8.21,3.643-12.49c-0.587-3.947-4.246-4.463-5.725-6.765
		C73.32,30.12,76.606,27.682,79.109,24.46z"/>
	<path fill-rule="evenodd" clip-rule="evenodd" d="M36.434,27.583c2.372-1.535,2.792,1.955,2.082,4.163
		c-0.323,2.194,2.832,2.632,1.562,4.164C35.866,35.419,36.887,30.677,36.434,27.583z"/>
	<path fill-rule="evenodd" clip-rule="evenodd" d="M41.638,29.144c3.345-1.774,2.81,6.062,2.082,7.286
		C40.114,36.142,43.48,31.583,41.638,29.144z"/>
	<path fill-rule="evenodd" clip-rule="evenodd" fill="#FFFFFF" d="M68.18,32.787c4.147,11.683-4.319,23.601-7.806,32.787
		c-1.737,2.08-4.842,2.791-5.204,6.245c4.021,2.971,6.781-2.845,8.327-5.204c5.903-9.014,6.016-18.791,8.327-30.705
		c3.749,18.688-5.389,33.455-15.613,41.634c-3.329,0.554-3.796-1.755-7.286-1.041c1.411-2.059,2.265-4.674,3.123-7.286
		c1.642-0.614,2.891-1.619,4.163-2.602C60.706,55.844,65.696,45.568,68.18,32.787z"/>
	<path fill-rule="evenodd" clip-rule="evenodd" d="M20.821,37.47c0.463,0.231,0.931,0.457,1.041,1.041
		c-5.211,8.32-7.052,20.01-13.531,27.062c-1.1-0.884,1.936-6.295,3.643-7.807C13.879,49.957,17.639,44.002,20.821,37.47z"/>
	<path fill-rule="evenodd" clip-rule="evenodd" d="M27.587,40.593c-1.62,6.188-7.006,13.115-9.888,19.776
		C19.102,53.963,22.275,44.824,27.587,40.593z"/>
	<path fill-rule="evenodd" clip-rule="evenodd" fill="#FFFFFF" d="M84.833,44.236c0.672-1.3,2.523,0.55,2.082,2.082
		C85.693,46.151,85.75,44.707,84.833,44.236z"/>
	<path fill-rule="evenodd" clip-rule="evenodd" d="M41.118,44.236c1.71,3.849-7.053,6.088-8.847,9.888
		c-4.456-1.659-7.766,0.871-10.408,2.602c0.704-3.287,3.547-4.433,4.684-7.286C33.5,51.283,38.382,48.167,41.118,44.236z"/>
	<path fill-rule="evenodd" clip-rule="evenodd" fill="#FFFFFF" d="M94.721,54.645c1.394,0.341,1.979,1.49,3.123,2.082
		c-6.334,16.044-1.81,42.947-18.735,48.399c1.612-6.246,5.585-10.064,8.327-16.133c4.396-9.731,2.899-23.33,7.286-32.787
		C94.721,55.685,94.721,55.165,94.721,54.645z"/>
	<path fill-rule="evenodd" clip-rule="evenodd" fill="#FFFFFF" d="M106.691,56.206c3.81,8.905,20.695,11.059,24.46,20.817
		c0.596,1.544,0.157,3.942,0.521,5.725c2.09,10.246,4.089,19.748,2.603,31.746c-1.346-18.691-2.841-39.182-16.134-47.358
		C113.46,66.185,105.941,62.509,106.691,56.206z"/>
	<path fill-rule="evenodd" clip-rule="evenodd" fill="#FFFFFF" d="M99.405,61.41c4.949,2.108,1.739,7.393,1.041,11.97
		C97.315,71.777,98.593,65.017,99.405,61.41z"/>
	<path fill-rule="evenodd" clip-rule="evenodd" fill="#FFFFFF" d="M193.602,66.614c0.66,2.213-0.119,3.378-1.041,5.204
		c-1.459,0.623-3.591,0.572-5.725,0.521c0-1.908,0-3.816,0-5.725C189.041,65.372,191.034,65.958,193.602,66.614z"/>
	<path fill-rule="evenodd" clip-rule="evenodd" fill="#FFFFFF" d="M105.65,66.614c0.841-0.147,0.896,0.492,1.562,0.521
		c1.48,11.996-2.394,27.316-8.326,39.552c-2.527,5.211-11.974,16.567-18.215,16.654c-3.3,0.045-5.499-3.496-8.847-3.643
		c-0.834-4.89-7.025-4.424-6.245-10.929c4.711,0.117,6.436,4.999,12.49,4.684c11.01-0.572,21.129-19.211,22.898-30.705
		C101.887,76.768,104.079,71.155,105.65,66.614z"/>
	<path fill-rule="evenodd" clip-rule="evenodd" fill="#FFFFFF" d="M109.293,66.614c5.558,5.748,8.283,19.714,6.766,31.746
		c-0.422,3.342-4.28,10.097-6.766,15.092c-2.448,4.921-4.185,11.267-6.766,14.572c-0.815,1.044-3.345,2.093-4.684,3.643
		c-3.671,4.248-5.423,9.888-9.368,10.408c-4.697,0.621-13.554-4.571-17.694-8.847c-2.517-2.599-6.08-7.79-4.684-10.929
		c3.704,2.403,9.177,7.45,13.531,10.929c1.51-0.462,2.337-0.587,3.643-1.561c0.942-0.703,1.257-2.459,2.082-3.123
		c1.375-1.105,3.649-1.338,5.204-2.602c3.303-2.685,8.45-7.383,11.449-10.929c3.155-3.73,5.599-9.7,8.327-16.654
		C114.99,86.493,111.217,78.655,109.293,66.614z"/>
	<path fill-rule="evenodd" clip-rule="evenodd" fill="#FFFFFF" d="M179.55,67.655c2.074-0.166,3.845-0.028,4.684,1.041
		c0.208,2.115-2.215,1.602-2.602,3.123c0.276,2.499,3.376,2.175,3.643,4.684c-3.841,6.912-4.617,18.734-1.562,27.583
		c-4.461-2.306-7.005-11.035-7.806-18.735C180.486,81.554,177.888,72.37,179.55,67.655z"/>
	<path fill-rule="evenodd" clip-rule="evenodd" fill="#FFFFFF" d="M113.977,68.696c10.751-1.317,7.805,17.788,8.848,27.583
		c0.736,6.922-0.776,12.648-4.164,19.255c-0.537,1.048-2.028,1.593-2.602,2.602c-3.419,6.012-5.183,13.236-9.368,18.735
		c-4.549,5.978-9.831,9.145-13.53,14.052c7.711-0.639,12.558-8.589,18.215-13.011c-0.468-1.523-0.468-1.599,0-3.123
		c9.36-13.553,17.839-31.449,14.571-53.083c2.317,4.482,4.253,8.858,4.684,13.531c0.533,5.776-0.54,17.802-3.643,22.898
		c-2.003,3.289-5.888,5.585-7.807,8.848c-3.487,5.93-5.101,12.392-8.326,16.653c-4.033,5.328-12.426,7.029-16.654,11.449
		c-2.391-0.211-3.964-1.239-6.245-1.561c-0.138-1.699,2.019-1.104,2.082-2.602c-5.088-2.354-10.537-0.828-14.572-4.164
		c-4.003-3.309-5.053-9.231-9.368-11.97c4.286,2.135,9.432,7.914,13.011,12.49c1.458-0.511-0.756-1.389,0.521-2.082
		c12.787,7.267,18.928-6.888,24.46-15.612c6.067-9.569,14.35-17.542,15.092-28.624c0.355-5.298-0.667-11.133-1.041-16.133
		C117.698,78.916,117.455,72.183,113.977,68.696z"/>
	<path fill-rule="evenodd" clip-rule="evenodd" fill="#FFFFFF" d="M172.785,69.216c1.215,0,2.429,0,3.644,0
		C176.34,72.429,173,72.062,172.785,69.216z"/>
	<path fill-rule="evenodd" clip-rule="evenodd" fill="#FFFFFF" d="M130.11,70.777c1.596,0.66,2.738,1.772,4.164,2.602
		c4.103,7.714,3.149,15.105,5.204,27.062c2.206,12.838,6.479,20.378,5.204,34.869c-0.806,9.151-2.616,20.984-11.97,23.939
		c-0.611-3.826,2.935-7.509,4.163-11.97c0.81-2.94,0.484-7.096,1.041-10.929c2.406-16.567-0.686-39.266-5.725-55.685
		c-0.228-1.789,0.206-2.917,0.521-4.164C131.807,74.632,130.502,73.161,130.11,70.777z"/>
	<path fill-rule="evenodd" clip-rule="evenodd" fill="#FFFFFF" d="M169.663,71.818c0.368,1.93-0.89,2.233-0.521,4.163
		C163.434,80.146,164.745,69.25,169.663,71.818z"/>
	<path fill-rule="evenodd" clip-rule="evenodd" fill="#FFFFFF" d="M136.875,72.859c0.605-0.085,0.926,0.115,1.041,0.52
		c6.69,3.066,7.502,10.771,10.929,20.817c2.875,8.427,6.771,14.689,7.807,23.939c2.052,18.34,0.777,40.999-16.653,42.675
		c12.005-12.555,14.103-34.925,6.766-52.562c-1.375-3.303-3.64-6.49-4.164-10.409c-0.367-2.747,0.338-4.94,0-7.286
		C141.678,84.136,137.812,78.701,136.875,72.859z"/>
	<path fill-rule="evenodd" clip-rule="evenodd" fill="#FFFFFF" d="M145.723,74.941c0.219-1.158,2.761-0.408,3.122,0
		c6.739,5.08,8.805,14.744,13.011,23.419c2.956,6.096,6.266,10.491,7.807,16.133c2.79,10.214,1.824,31.23-5.204,40.593
		c-1.882,2.507-6.058,6.47-10.929,6.245c12.681-12.896,13.017-41.638,4.163-59.328c-2.001-3.997-5.346-7.955-6.245-12.49
		C150.407,84.267,149.093,77.597,145.723,74.941z"/>
	<path fill-rule="evenodd" clip-rule="evenodd" fill="#FFFFFF" d="M150.927,74.42c1.998,2.104,4.021,0.998,7.807,1.041
		c3.55,1.184,3.392,4.17,5.204,8.327c1.079,2.474,3.812,4.445,6.245,7.806c3.321,4.59,5.528,10.787,8.326,16.133
		c2.17,4.145,3.825,6.68,3.644,13.531c-0.205,7.688,2.021,15.505-0.521,23.939c-1.529,5.072-4.836,14.359-11.97,14.572
		c-2.438-0.309,1.657-1.819,2.081-2.602c3.797-6.452,5.587-14.007,6.245-21.337c2.18-24.26-13.157-39.84-21.337-56.206
		C154.02,78.614,151.573,77.418,150.927,74.42z"/>
	<path fill-rule="evenodd" clip-rule="evenodd" d="M16.138,74.941c-0.023,3.62-1.854,5.432-5.204,5.725
		C9.135,77.154,12.167,74.377,16.138,74.941z"/>
	<path fill-rule="evenodd" clip-rule="evenodd" fill="#FFFFFF" d="M175.908,74.941c1.346,5.015-4.731,7.673-3.644,12.49
		c-2.713-0.062-3.3-2.251-4.163-4.164C170.223,80.012,170.113,74.524,175.908,74.941z"/>
	<path fill-rule="evenodd" clip-rule="evenodd" fill="#FFFFFF" d="M198.806,146.759c-2.278-0.049,0.976-2.104,1.041-3.123
		c2.698-6.356,1.391-12.484,2.602-18.735c1.182-6.096,5.241-10.337,7.286-15.613c1.468-3.785,1.178-8.245,3.123-11.449
		c1.283-2.114,5.98-5.582,7.806-8.327c1.496-2.25,2.624-5.196,2.082-7.806c1.067-0.494,1.442-1.68,2.082-2.602
		c0.228-1.79-0.206-2.917-0.521-4.164c3.556,1.301,5.5,4.215,8.326,6.245c-2.416,14.237-11.446,21.86-18.735,31.225
		c0.21,2.465-0.929,3.582-0.521,6.245C207.61,127.113,207.774,141.502,198.806,146.759z"/>
	<path fill-rule="evenodd" clip-rule="evenodd" fill="#FFFFFF" d="M239.919,88.472c2.73,3.253,5.617,8.567,5.204,12.49
		c-0.613,5.828-7.319,6.651-10.929,10.409c-2.676,2.785-3.483,7.319-6.245,9.888c-5.139,4.781-12.701,6.752-17.174,11.97
		c-0.129-4.465,2.437-6.237,2.082-10.929c6.14-7.759,19.018-15.147,24.979-23.939C239.829,95.424,240.705,91.732,239.919,88.472z"/>
	<path fill-rule="evenodd" clip-rule="evenodd" fill="#FFFFFF" d="M79.629,93.156c4.898,10.152-13.654,18.275-15.092,5.204
		C71.9,100.635,72.738,92.972,79.629,93.156z"/>
	<path fill-rule="evenodd" clip-rule="evenodd" fill="#FFFFFF" d="M129.59,117.616c5.932,3.308,4.919,12.228,4.684,19.776
		C133.449,130.535,127.942,123.559,129.59,117.616z"/>
	<path fill-rule="evenodd" clip-rule="evenodd" fill="#FFFFFF" d="M241.481,118.656c0.604-0.084,0.926,0.115,1.041,0.521
		c-2.152,6.464-1.981,11.377-6.245,15.092c-6.738,5.87-18.577,3.975-23.939,11.449c-1.978-1.156-2.398-6.608-2.082-8.327
		C221.626,134.142,231.918,125.438,241.481,118.656z"/>
	<path fill-rule="evenodd" clip-rule="evenodd" fill="#FFFFFF" d="M126.467,122.299c3.273,2.075-1.23,5.523,0,7.286
		c-1.911,0.517-2.94,1.917-5.204,2.082C121.867,127.413,125.051,125.741,126.467,122.299z"/>
	<path fill-rule="evenodd" clip-rule="evenodd" fill="#FFFFFF" d="M128.029,131.146c3.523,1.207,6.393,10.056,3.122,13.011
		C131.788,138.434,126.94,135.607,128.029,131.146z"/>
	<path fill-rule="evenodd" clip-rule="evenodd" fill="#FFFFFF" d="M126.988,139.473c-10.261-2.107-11.163,5.144-16.653,7.807
		C111.053,143.816,124.479,125.281,126.988,139.473z"/>
	<path fill-rule="evenodd" clip-rule="evenodd" fill="#FFFFFF" d="M206.613,140.514c-0.473,6.467-4.576,9.302-10.93,9.888
		C199.403,147.183,202.429,143.27,206.613,140.514z"/>
	<path fill-rule="evenodd" clip-rule="evenodd" fill="#FFFFFF" d="M237.317,141.555c0.891,1.27-0.521,3.716,0,6.245
		c-2.627,3.283-8.118,3.596-13.01,2.082c-2.455,1.537-8.983,3.732-11.449,0.521C216.268,142.71,228.695,144.034,237.317,141.555z"/>
	<path fill-rule="evenodd" clip-rule="evenodd" fill="#FFFFFF" d="M207.653,149.361c0.51,2.765-2.589,1.921-3.643,3.123
		c-3.652,4.567-11.227,7.766-19.256,6.245c5.921-5.624,17.835-2.203,21.858-9.888C207.217,148.756,207.539,148.956,207.653,149.361z
		"/>
	<path fill-rule="evenodd" clip-rule="evenodd" fill="#FFFFFF" d="M75.466,150.402c6.622-0.547,12.075,4.576,16.133,8.327
		C85.981,158.272,77.77,155.907,75.466,150.402z"/>
	<path fill-rule="evenodd" clip-rule="evenodd" fill="#FFFFFF" d="M126.467,156.127c-3.41-1.447-8.324-1.391-11.449-3.123
		C117.416,149.146,126.436,151.335,126.467,156.127z"/>
	<path fill-rule="evenodd" clip-rule="evenodd" fill="#FFFFFF" d="M236.277,152.484c-2.372,5.852-18.86,12.004-20.817,1.561
		C221.33,156.263,230.017,153.246,236.277,152.484z"/>
	<path fill-rule="evenodd" clip-rule="evenodd" fill="#FFFFFF" d="M100.446,154.045c0.069,1.674,1.602,3.45,0.521,4.684
		c-1.778-1.273-4.483,0.398-5.725-0.521C97.287,157.131,96.839,153.562,100.446,154.045z"/>
	<path fill-rule="evenodd" clip-rule="evenodd" fill="#FFFFFF" d="M208.173,154.045c-4.896,5.866-14.198,12.461-22.378,7.807
		c1.16-1.797,4.879,0.202,6.766,0c5.614-0.6,10.372-5.117,14.052-7.807C207.133,154.045,207.653,154.045,208.173,154.045z"/>
	<path fill-rule="evenodd" clip-rule="evenodd" fill="#FFFFFF" d="M74.425,155.086c1.384-1.349,3.609,0.876,3.123,3.123
		C76.126,157.548,75.473,156.12,74.425,155.086z"/>
	<path fill-rule="evenodd" clip-rule="evenodd" fill="#FFFFFF" d="M125.947,160.811c-7.064-3.234-12.68-1.856-21.337-1.561
		c-0.782-3.766,5.63-4.501,9.888-4.164C118.894,155.435,126.507,156.958,125.947,160.811z"/>
	<path fill-rule="evenodd" clip-rule="evenodd" fill="#FFFFFF" d="M236.277,158.208c-2.906,3.86-15.035,9.775-18.735,3.123
		C225.169,163.636,230.644,159.603,236.277,158.208z"/>
	<path fill-rule="evenodd" clip-rule="evenodd" fill="#FFFFFF" d="M93.161,162.372c-0.377,1.184-0.465,2.658-1.041,3.643
		c-3.114-3.305-10.204-2.633-14.052-5.204C82.423,157.145,88.047,162.05,93.161,162.372z"/>
	<path fill-rule="evenodd" clip-rule="evenodd" fill="#FFFFFF" d="M72.864,161.331c6.831,2.016,13.747,3.947,19.256,7.286
		c0.08,1.294-0.818,1.611-1.041,2.602C85.452,167.478,75.663,167.899,72.864,161.331z"/>
	<path fill-rule="evenodd" clip-rule="evenodd" fill="#FFFFFF" d="M124.385,166.535c-6.451-2.928-14.497,0.819-19.775-2.082
		c0.099-0.421,0.521-0.519,0.521-1.041C111.372,162.083,122.758,159.189,124.385,166.535z"/>
	<path fill-rule="evenodd" clip-rule="evenodd" fill="#FFFFFF" d="M207.133,162.893c0.463,0.23,0.931,0.457,1.04,1.041
		c0.28,2.015-1.326,2.143-1.561,3.643c-4.43,0.688-11.958,3.228-15.613,2.082c-1.225-0.384-4.003-1.256-3.122-3.643
		C194.813,166.454,203.329,167.486,207.133,162.893z"/>
	<path fill-rule="evenodd" clip-rule="evenodd" fill="#FFFFFF" d="M235.236,163.933c-0.029,7.125-14,9.568-15.613,2.082
		C225.324,169.419,231.375,163.864,235.236,163.933z"/>
	<path fill-rule="evenodd" clip-rule="evenodd" fill="#FFFFFF" d="M89.517,175.382c-5.238-0.697-11.627-4.652-17.174-6.765
		c3.578-3.216,7.213,1.496,9.888,2.602C85.131,172.418,90.908,170.837,89.517,175.382z"/>
	<path fill-rule="evenodd" clip-rule="evenodd" fill="#FFFFFF" d="M123.344,172.78c-3.145-0.672-7.11-0.522-10.408-1.041
		c0.035,5.169,6.668,3.741,8.848,6.765c-6.412,2.214-9.798-7.524-16.653-8.327c1.298-2.832,6.019-2.467,8.847-2.082
		C117.708,168.605,121.898,171.32,123.344,172.78z"/>
	<path fill-rule="evenodd" clip-rule="evenodd" fill="#FFFFFF" d="M208.694,169.137c0,1.041,0,2.082,0,3.123
		c-3.225,0.418-6.279,1.006-9.367,1.562c0.841,3.716,8.439-0.031,9.367,0.521c-1.586,5.87-12.65,1.273-17.174,0.521
		C197.206,172.915,202.588,170.665,208.694,169.137z"/>
	<path fill-rule="evenodd" clip-rule="evenodd" fill="#FFFFFF" d="M234.715,171.219c-0.901,4.302-4.36,6.048-9.367,6.245
		c2.005,3.655,7.507-0.156,10.408-0.521c-2.03,3.192-6.385,6.548-10.929,4.163c-0.304-3.339-1.779-5.507-2.082-8.847
		C227.522,173.643,231.639,171.676,234.715,171.219z"/>
	<path fill-rule="evenodd" clip-rule="evenodd" fill="#FFFFFF" d="M72.343,172.26c2.497-0.241,4.083,0.427,4.164,2.603
		c-1.5-0.062-3.407,0.284-4.164-0.521C72.343,173.648,72.343,172.954,72.343,172.26z"/>
	<path fill-rule="evenodd" clip-rule="evenodd" fill="#FFFFFF" d="M111.895,176.944c-0.452,2.67-4.499,1.746-6.765,2.602
		C103.391,173.45,109.695,173.465,111.895,176.944z"/>
	<path fill-rule="evenodd" clip-rule="evenodd" fill="#FFFFFF" d="M71.823,177.464c5.083,0.045,12.519,2.408,10.929,8.847
		c-3.109-1.132-4.621-6.377-8.327-5.205c0.723,3.802,6.541,4.649,4.684,9.368c-2.139-2.371-2.862-6.158-7.807-5.725
		c0.5,1.756,1.847,2.664,3.123,3.643c-0.282,2.172-4.348,0.102-5.204-0.521c0.166-1.222,0.822-1.954,0.521-3.643
		c0.671-0.717,2.26-0.515,3.643-0.52c0.022-1.931-1.952-1.865-2.602-3.123C71.504,179.921,71.101,178.129,71.823,177.464z"/>
	<path fill-rule="evenodd" clip-rule="evenodd" fill="#FFFFFF" d="M209.735,181.627c-3.858,1.102-6.822,0.911-9.367-1.041
		c-2.158-0.445-6.401,1.196-6.245-1.562c4.353-1.235,10.688,2.086,15.092-0.521C208.838,180.095,209.747,180.401,209.735,181.627z"
		/>
	<path fill-rule="evenodd" clip-rule="evenodd" fill="#FFFFFF" d="M209.735,180.587c-0.146-1.361,0.19-2.239,1.562-2.082
		C211.442,179.865,211.472,181.109,209.735,180.587z"/>
	<path fill-rule="evenodd" clip-rule="evenodd" fill="#FFFFFF" d="M236.277,182.148c-1.683,2.134-3.818,3.814-4.685,6.766
		c-3.312,0.363-4.74-1.157-7.285-1.562c-0.302-1.689,0.354-2.421,0.521-3.643C229.613,185.095,232.404,183.037,236.277,182.148z"/>
	<path fill-rule="evenodd" clip-rule="evenodd" fill="#FFFFFF" d="M212.858,183.189c-0.378,1.592,0.897,1.531,0.52,3.123
		c-6.39-0.779-11.708,1.548-18.734-0.521c0.065-0.934-0.638-1.098-0.521-2.082C201.102,182.653,206.023,185.2,212.858,183.189z"/>
	<path fill-rule="evenodd" clip-rule="evenodd" fill="#FFFFFF" d="M236.277,186.312c1.863-0.303,1.582,1.54,1.561,3.123
		c-3.12,0.001-3.032,3.212-4.684,4.684c-3.118-0.177-6.094-0.498-7.286-2.602C227.637,190.847,235.618,191.126,236.277,186.312z"/>
	<path fill-rule="evenodd" clip-rule="evenodd" fill="#FFFFFF" d="M212.858,189.954c-1.632,1.163-3.928-1.706-6.245,0
		c0.526,1.729,3.787,0.723,4.684,2.082c-4.053,2.899-8.892-2.521-15.093-0.521c0.376-1.59-0.531-1.896-0.521-3.123
		C201.719,191.529,208.102,184.157,212.858,189.954z"/>
	<path fill-rule="evenodd" clip-rule="evenodd" fill="#FFFFFF" d="M105.13,188.393c0.947-0.744,4.813,0.021,4.163,2.602
		c-1.215,0-2.429,0-3.644,0C105.366,190.239,106.258,188.305,105.13,188.393z"/>
	<path fill-rule="evenodd" clip-rule="evenodd" fill="#FFFFFF" d="M78.068,195.159c-2.606-2.251-8.958-0.757-9.888-4.684
		C70.223,191.299,78.541,190.107,78.068,195.159z"/>
	<path fill-rule="evenodd" clip-rule="evenodd" fill="#FFFFFF" d="M117.1,195.679c-2.195-0.409-5.397-1.996-7.807-0.521
		c1.183,2.097,4.642,3.566,7.286,2.602c0.478,1.894,2.1,3.219,1.04,5.204c-3.247-2.802-7.062-2.79-11.97-3.123
		c1.969,4.277,9.724,2.767,11.45,7.286c-2.976,0.275-6.221-3.422-11.97-2.081c-1.75-4.132,0.971-8.926,0.52-11.97
		C109.875,194.208,117.592,188.589,117.1,195.679z"/>
	<path fill-rule="evenodd" clip-rule="evenodd" fill="#FFFFFF" d="M210.776,194.638c-2.133,2.514-10.102,1.5-13.531,0
		C200.256,190.734,206.193,196.588,210.776,194.638z"/>
	<path fill-rule="evenodd" clip-rule="evenodd" fill="#FFFFFF" d="M236.277,194.638c1.898,0.355-0.111,2.072,0.521,4.164
		c-2.498,2.081-5.861-0.02-7.807,1.041c0.012-1.226-0.896-1.532-0.521-3.123C231.754,196.708,234.444,196.101,236.277,194.638z"/>
	<path fill-rule="evenodd" clip-rule="evenodd" fill="#FFFFFF" d="M208.694,198.802c-2.22,0.957-7.519,1.994-11.449,1.041
		c0-0.867,0-1.735,0-2.602C199.901,197.73,209.222,195.647,208.694,198.802z"/>
	<path fill-rule="evenodd" clip-rule="evenodd" fill="#FFFFFF" d="M66.098,198.281c4-1.386,7.898,2.174,10.409,2.602
		C74.132,204.647,70.243,197.805,66.098,198.281z"/>
	<path fill-rule="evenodd" clip-rule="evenodd" fill="#FFFFFF" d="M69.741,203.485c-1.992-0.263-4.038-0.472-4.164-2.602
		C66.524,200.446,70.572,200.505,69.741,203.485z"/>
	<path fill-rule="evenodd" clip-rule="evenodd" fill="#FFFFFF" d="M207.133,201.404c-0.303,1.433-1.296,2.173-1.562,3.643
		c-2.354-0.587-6.993,0.718-9.889-0.521c-0.249-1.637,0.741-2.035,1.041-3.123C200.371,203.872,203.379,199.883,207.133,201.404z"/>
	<path fill-rule="evenodd" clip-rule="evenodd" fill="#FFFFFF" d="M229.511,201.404c2.774,1.215,5.079,0.164,7.286,0.52
		c0.254,1.643-0.938,1.838-0.521,3.644C233.172,204.916,229.729,205.811,229.511,201.404z"/>
	<path fill-rule="evenodd" clip-rule="evenodd" fill="#FFFFFF" d="M72.343,206.607c-1.584-0.149-3.552,0.083-3.643-1.561
		C71.005,204.953,71.996,204.105,72.343,206.607z"/>
	<path fill-rule="evenodd" clip-rule="evenodd" fill="#FFFFFF" d="M236.277,206.607c-0.263,2.376,0.903,2.95,0,4.685
		c-3.129,0.525-3.746-1.459-6.245-1.562c0-0.867,0-1.734,0-2.603C232.613,208.132,234.034,207.202,236.277,206.607z"/>
	<path fill-rule="evenodd" clip-rule="evenodd" fill="#FFFFFF" d="M203.49,207.648c-0.213,1.935-8.93,3.73-9.888,0
		C197.3,209.312,200.451,207.157,203.49,207.648z"/>
	<path fill-rule="evenodd" clip-rule="evenodd" fill="#FFFFFF" d="M71.302,211.812c-2.132,0.894-4.13-2.318-7.286-2.082
		c0-0.521,0-1.041,0-1.562C67.573,207.328,70.637,208.866,71.302,211.812z"/>
	<path fill-rule="evenodd" clip-rule="evenodd" fill="#FFFFFF" d="M115.018,210.771c-1.531,3.469-8.875,1.021-9.888-1.041
		c0-0.521,0-1.041,0-1.562C109.453,206.049,110.722,211.162,115.018,210.771z"/>
	<path fill-rule="evenodd" clip-rule="evenodd" fill="#FFFFFF" d="M192.041,211.812c2.615,2.53,5.487,0.602,8.848,0
		c-0.072,1.836-1.489,2.327-1.562,4.163c-3.109-0.846-6.246,0.803-8.848-1.041C190.457,213.351,191.579,212.911,192.041,211.812z"/>
	<path fill-rule="evenodd" clip-rule="evenodd" fill="#FFFFFF" d="M63.496,212.332c2.243,0.36,3.196,2.009,5.204,2.603
		c-1.064,2.376-3.283-1.036-5.725-0.521C62.755,213.326,63.333,213.036,63.496,212.332z"/>
	<path fill-rule="evenodd" clip-rule="evenodd" fill="#FFFFFF" d="M231.073,212.332c1.182,0.9,2.907,1.256,5.204,1.041
		c0.846,1.706-0.118,1.99,0,4.164c-2.176,1.085-5.038,0.352-6.245-1.041C230.16,214.89,230.559,213.554,231.073,212.332z"/>
	<path fill-rule="evenodd" clip-rule="evenodd" fill="#FFFFFF" d="M113.457,214.414c0.919,0.871-0.462,1.744,0,3.644
		c-4.592,0.255-6.142-2.532-8.326-4.685C107.068,213.295,109.958,217.097,113.457,214.414z"/>
	<path fill-rule="evenodd" clip-rule="evenodd" fill="#FFFFFF" d="M70.262,218.058c-0.277,1.457-0.764,2.705-1.041,4.163
		c-2.202-1.795-7.081-3.665-7.286-5.725C64.352,215.474,65.988,219.25,70.262,218.058z"/>
	<path fill-rule="evenodd" clip-rule="evenodd" fill="#FFFFFF" d="M105.13,217.017c2.056-0.1,2.871,2.555,0,2.081
		C105.13,218.404,105.13,217.71,105.13,217.017z"/>
	<path fill-rule="evenodd" clip-rule="evenodd" fill="#FFFFFF" d="M188.398,218.058c2.658,1.321,4.958,0.703,8.326,0.52
		c-0.53,3.98-2.81,6.211-4.163,9.368c-2.515-0.955-4.706-2.233-7.807-2.603c-0.412-1.8,0.579-2.196,1.041-3.122
		c2.637,0.312,3.426,2.473,6.766,2.082c0.762-0.453,1.649-0.779,1.562-2.082C191.974,221.073,188.164,221.587,188.398,218.058z"/>
	<path fill-rule="evenodd" clip-rule="evenodd" fill="#FFFFFF" d="M60.374,220.139c3.5,1.531,6.963,3.099,7.286,7.807
		c-2.324-1.666-5.055-2.926-7.807-4.163C59.551,222.093,60.208,221.36,60.374,220.139z"/>
	<path fill-rule="evenodd" clip-rule="evenodd" fill="#FFFFFF" d="M112.416,220.659c0.115,1.676-0.92,2.202-0.521,4.163
		c-2.15-0.624-4.085-1.465-7.285-1.04C104.653,218.134,107.765,221.295,112.416,220.659z"/>
	<path fill-rule="evenodd" clip-rule="evenodd" fill="#FFFFFF" d="M230.032,220.139c1.863,1.577,4.744,1.337,6.766,1.562
		c0.437,4.896-4.752,4.429-7.286,2.603C229.111,222.341,230.146,221.814,230.032,220.139z"/>
	<path fill-rule="evenodd" clip-rule="evenodd" fill="#FFFFFF" d="M58.292,225.343c2.658,2.372,6.803,3.259,7.806,7.286
		c-3.041-1.296-6.949-1.725-9.368-3.643C56.866,227.387,57.86,226.646,58.292,225.343z"/>
	<path fill-rule="evenodd" clip-rule="evenodd" fill="#FFFFFF" d="M103.569,225.863c3.45,1.047,6.905-0.193,7.286,3.123
		c-2.151-0.625-4.086-1.466-7.286-1.041C103.569,227.251,103.569,226.558,103.569,225.863z"/>
	<path fill-rule="evenodd" clip-rule="evenodd" fill="#FFFFFF" d="M228.47,226.904c1.796,1.53,5.646,2.231,7.807,0.521
		c1.351,7.012-4.608,10.725-1.041,18.215c-4.956,1.322-6.646-1.018-10.408-2.082C227.893,238.286,228.832,233.464,228.47,226.904z"
		/>
	<path fill-rule="evenodd" clip-rule="evenodd" fill="#FFFFFF" d="M191,230.547c-0.594,2.009-2.242,2.962-2.602,5.205
		c-1.608-0.127-0.88-2.591-3.123-2.082c-1.823,1.523,0.914,2.868,2.603,2.602c-2.084,5.202-9.344,5.229-9.368,12.49
		c-4.637-1.435-7.596-4.547-11.449-6.765c3.104-1.755,6.032-3.683,8.848-5.726c2.209-0.127,2.802,1.361,5.204,1.041
		c-0.01-2.245-2.593-1.918-2.603-4.163c1.686-1.306,3.548,0.689,5.725,0.521c-0.11-2.614-4.024-2.59-2.602-5.204
		C183.764,228.209,189.297,228.678,191,230.547z"/>
	<path fill-rule="evenodd" clip-rule="evenodd" fill="#FFFFFF" d="M103.048,229.507c2.486,0.81,4.469,2.123,7.286,2.602
		c-0.531,0.684-0.511,1.919-1.041,2.603c-1.802-0.975-3.687-1.865-6.766-1.562C102.273,231.507,103.465,231.312,103.048,229.507z"/>
	<path fill-rule="evenodd" clip-rule="evenodd" fill="#FFFFFF" d="M58.812,237.833c-2.315-0.521-2.959-2.228-5.725-1.041
		C53.081,230.283,58.863,233.315,58.812,237.833z"/>
	<path fill-rule="evenodd" clip-rule="evenodd" fill="#FFFFFF" d="M60.374,233.67c1.841,0.588,4.336,0.521,4.684,2.602
		c-0.506,0.015-0.404,0.638-0.52,1.041C61.688,237.56,60.909,235.736,60.374,233.67z"/>
	<path fill-rule="evenodd" clip-rule="evenodd" fill="#FFFFFF" d="M108.773,236.792c0.543,1.475,0.543,2.169,0,3.644
		c-2.917-0.206-4.951-1.295-6.766-2.603c0-0.521,0-1.041,0-1.562C104.224,234.7,105.882,237.386,108.773,236.792z"/>
	<path fill-rule="evenodd" clip-rule="evenodd" fill="#FFFFFF" d="M52.047,237.833c2.823,0.474,4.069,2.523,6.245,3.644
		c-1.468,4.083-5.945,5.156-6.766,9.888c-3.061-0.756-6.029-1.604-7.806-3.643C46.131,244.061,50.347,242.205,52.047,237.833z"/>
	<path fill-rule="evenodd" clip-rule="evenodd" fill="#FFFFFF" d="M99.925,240.956c4.23-0.437,4.325,4.33,8.848,2.081
		c0.314,1.247,0.748,2.375,0.521,4.164c-2.785-1.779-5.581-4.345-9.889-3.123C99.028,242.486,100.303,242.548,99.925,240.956z"/>
	<path fill-rule="evenodd" clip-rule="evenodd" fill="#FFFFFF" d="M98.885,245.119c3.659,0.086,7.306,2.093,9.367,5.204
		c-2.854,1.434-4.432-1.422-7.286-1.562c0.007,2.77,2.412,3.14,3.644,4.685c-0.956,3.033-2.875,5.104-3.123,8.847
		c-5.038-0.073-6.122-1.395-9.367-3.643C94.808,254.152,100.263,250.723,98.885,245.119z"/>
	<path fill-rule="evenodd" clip-rule="evenodd" d="M61.415,9.888c0.988,1.192-1.954,2.881-2.082,4.684
		c1.332,0.958,2.433-2.751,4.164-3.123c3.24-0.107,5.12,3.886,7.286,3.123c1.676,1.543-1.57,2.563-1.562,4.164
		c1.227-0.681,2.208-1.608,3.123-2.603c5.486,3.112,11.335,7.714,14.572,11.45c-1.261,2.948-5.084,5.041-5.725,8.327
		c-1.184,6.08,2.471,11.649,0.521,17.694c-0.917,2.841-3.723,4.779-4.684,7.286c-2.532,6.606-1.7,13.333-4.684,20.296
		c3.396-1.93,6.91-5.388,7.806-11.449c0.329-2.22-0.409-4.911,0-7.286c1.151-6.677,8.807-12.232,3.123-19.256
		c0.694,0,1.388,0,2.082,0c2.042-5.518,1.146-10.338,3.123-14.051c2.638,2.313,5.931,4.672,8.847,9.368
		c2.754,4.436,2.199,7.512-1.562,12.49c0.585,1.324,1.278,2.538,2.082,3.643c3.211-2.339,2.542-6.027,2.602-9.368
		c2.643,0.48,2.547,3.698,3.644,5.725c-1.259,1.343-1.35,3.854-2.603,5.204c0.657,1.599,1.774,2.736,3.123,3.643
		c0.552-1-0.453-3.951,1.561-4.684c2.636,0.1,7.64,4.718,8.327,6.765c3.366-0.286,6.603,4.597,10.408,5.205
		c9.888,1.577,18.098,7.577,29.664,5.204c1.635-0.335,3.075-1.684,4.685-2.082c4.214-1.044,9.857,0.26,13.53-3.122
		c10.387-0.47,20.142-5.921,31.746-4.164c-8.599,5.626-14.22,14.229-19.256,23.419c0.366,21.216,11.529,55.406-5.204,70.257
		c3.846,0.999,7.404-2.51,9.367-4.684c2.879-3.186,5.002-9.702,5.726-15.613c1.005-8.224-0.807-15.205,3.122-20.817
		c0.318-0.454,1.775-0.456,2.082-1.041c2.856-5.466,1.694-11.628,4.163-16.133c1.063-0.498,2.06-1.063,3.122-1.561
		c1.553-9.138,14.679-19.424,6.766-28.103c-1.893,3.658-2.072,9.03-6.245,10.409c0.983,7.619-7.446,12.085-9.888,18.735
		c-2.204,6.002,0.985,14.876-4.684,19.256c-0.631-6.062-6.015-16.317-2.082-21.337c-2.712-14.662,16.792-19.06,14.052-31.746
		c5.114,0.053,8.407,2.339,13.011,4.684c10.432,5.314,18.418,11.453,24.46,21.337c4.508,7.376,3.976,15.566,1.561,25.5
		c-1.031,4.246-0.854,9.039-2.081,13.011c-0.898,2.905-3.186,5.541-3.644,9.368c-0.422,3.529,0.927,6.963,0.521,10.408
		c-0.86,7.311-2.932,13.19-3.122,19.776c-0.174,5.965,2.728,11.656,3.122,18.735c0.239,4.281-1.376,8.871-1.562,13.531
		c-0.383,9.674,0.401,18.313,1.041,28.103c0.187,2.857-1.589,5.244-3.122,7.806c-0.482,5.759,2.839,13.056-0.521,17.695
		c-3.527,4.869-13.835,4.629-19.256,1.04c0.882-3.376,3.575-4.25,5.204-7.806c0.366-0.799,0.164-2.527,0.521-3.123
		c1.937-3.233,5.437-5.148,5.725-9.888c0.119-1.95-1.167-4.008-1.041-6.245c0.159-2.817,2.239-5.604,2.603-7.807
		c0.838-5.076-0.171-10.255-0.521-14.571c-0.575-7.105-5.621-11.993-6.245-19.776c-0.183-2.284,0.822-4.494,0.521-6.766
		c-0.512-3.851-3.086-8.397-4.684-12.49c-3.603-9.229-8.06-18.067-9.889-27.582c0.706,14.891,1.518,30.613,5.725,43.715
		c0.682,2.123,2.126,3.629,2.082,5.725c-0.094,4.516-5.95,12.636-8.327,16.654c-6.521,11.025-14.162,23.635-19.775,35.389
		c-5.255,1.24-8.273,5.432-7.286,11.449c-5.036,5.798-18.068,3.413-24.98,4.684c0.822-6.984,6.925-8.688,8.327-15.092
		c16.988-7.248,22.942-25.452,31.226-40.073c1.212-17.058-8.585-27.672-12.49-43.195c-16.896,5.286-39.327,7.731-55.165,3.123
		c-1.595,12.109-7.981,23.788-7.807,34.348c0.063,3.81,1.22,7.918-0.521,11.969c-4.654,10.837-9.799,26.564-7.286,39.553
		c-3.048,5.732-10.516,9.841-7.806,18.215c-2.733,9.362-17.541,7.95-24.46,3.643c3.291-8.505,12.179-11.413,16.653-18.735
		c2.624-12.276,7.904-23.891,7.286-39.552c-0.656-16.621,1.17-32.41,0-49.961c-1.796,1.386-4.652-0.035-6.766,0.521
		c-3.243,6.311-4.438,13.268-7.807,19.256c-1.89,3.361-5.151,5.87-7.286,9.367c-3.555,5.825-1.383,15.032-7.286,18.735
		c-0.741,7.851-5.124,14.455-5.725,23.939c-1.424,1.699-1.962,4.282-2.602,6.766c-6.979,2.417-13.317,9.531-10.408,17.174
		c-0.684,1.398-2.294,1.869-3.123,3.123c-7.23-1.214-14.36,2.08-21.858-2.082c2.062-4.01,4.957-7.187,7.806-10.408
		c1.217-0.161,2.15-1.02,3.123,0c1.229-2.652,5.935-6.161,8.847-8.848c3.795-9.909,8.782-18.627,11.97-29.144
		c-0.71-9.764,4.5-17.674,6.245-24.98c2.728-11.417,1.411-24.672,4.684-35.909c-5.225-7.785-11.894-14.127-11.449-27.582
		c1.608-1.617,0.879,1.762,3.122,1.041c1.329-1.708-2.194-2.043-3.122-3.123c0.242-4.788,0.391-9.67,2.602-12.49
		C59.239,93.076,48.466,85.46,44.24,71.298c1.095-1.143,2.314-0.107,3.123,0.521c1.963-2.201,3.618-4.709,6.245-6.245
		c0.594-2.009,2.185-5.208,3.643-4.684c1.429-9.486,8.54-19.7,3.643-30.705c1.292-2.536,2.206-4.84,1.041-7.286
		c1.993-1.649,2.69-4.596,4.684-6.245c-0.865-1.043-1.397-2.419-3.123-2.602c-3.4,2.151-4.224,6.879-7.806,8.847
		c-0.116,9.413-1.481,21.648-5.725,28.624c-1.326,5.969-1.106,12.684-4.164,17.174c-4.93,7.24-16.729,8.306-21.337,15.613
		c0.308,2.215-0.375,3.442-0.521,5.204c-4.067,4.683-9.62,3.437-16.653,2.082c-3.095-3.365-4.768-5.033-5.725-11.449
		c-0.35-2.346-1.648-3.685-1.562-5.204c0.123-2.134,2.239-4.392,3.643-7.806c1.048-2.548,1.639-5.852,2.602-8.327
		c2.337-6.007,7.24-12.107,7.286-19.255c0.013-2.086-1.325-4.198-1.041-6.245c0.843-6.076,9.057-8.904,9.368-14.052
		c-5.978-2.349-9.75-6.903-8.847-16.133c5.571-0.416,9.009,5.472,14.051,7.286c1.819-3.211,3.488-6.574,6.766-8.327
		c2.534-0.626,1.41,2.406,4.164,1.562C38.879,2.887,36.62,0.876,38.516,0c1.908,0.694,3.773,1.431,5.725,2.082
		c0.377,1.592-0.897,1.531-0.52,3.123c-1.349,1.082-1.935-1.16-3.643,0c-0.188,3.055,4.574,5.42,5.725,8.847
		c1.041-1.699,1.419-5.875,2.602-8.847c-1.192-2.032-1.446,2.329-2.602,0.521c-0.253-1.185-1.033-2.659,0-3.643
		c4.281,3.156,13.784,3.355,13.011,9.888C59.735,11.331,60.32,10.355,61.415,9.888z M21.342,15.613
		c-1.78-3.771-3.037-8.066-6.245-10.409C14.672,9.474,16.391,16.935,21.342,15.613z M16.138,87.431
		c2.079-2.611,3.697-8.438,6.766-8.327c-2.059,5.401-5.44,9.478-11.45,10.929c8.556,5.172,10.932-4.95,14.052-9.888
		c0.171-2.253-2.882-1.281-2.602-3.643c2.641-2.669,3.351,2.999,4.684,1.562c-0.486-1.595-1.945-2.219-2.082-4.164
		c0.471-1.09,2.938-0.185,3.123-1.561c-1.794-3.154-11.763,1.845-9.368-5.204c1.26,0.648,2.528,1.288,4.163,1.561
		c3.885-1.966,7.824,3.093,9.368,1.561c-1.27-1.97-0.102-5.012-1.041-6.245c-3.88-0.401-9.493,2.15-11.45-1.041
		c1.693-4.426,7.045-1.607,11.97-1.562c1.088,1.688,2.636,2.916,2.082,6.245c-0.377,1.882,0.898,1.882,0.521,0
		c0.869-2.211,2.292-6.201,1.561-8.327c-3.159-2.225-10.503,2.634-11.449-2.082c4.796-1.343,11.686-3.567,15.092,0.52
		c-0.099,7.185-4.502,8.478-3.643,15.613c4.247,0.084,1.84-6.487,4.164-8.327c1.583,1.373,0.577,2.97,0.52,5.204
		c1.81-0.271,1.362-2.801,2.082-4.163c-0.324-11.417,0.17-25.77,3.643-35.389c1.966,6.371-1.765,11.097-2.082,15.612
		c3.295,5.419-3.561,14.395,1.041,18.215c2.41-10.167,0.567-22.367,3.123-32.266c0.962-3.725,2.271-7.413,0-11.449
		c-2.81-0.729-1.718,2.445-3.643,2.602c2.489-8.684-3.671-14.14-9.368-17.694c-5.069,7.762,2.228,13.208,2.602,19.256
		c-2.355-1.114-1.917-5.022-5.725-4.684c1.188,5.678-0.36,12.098,3.123,16.133c-1.11,2.216-6.064,0.957-5.725-1.562
		c2.734-3.688,0.966-9.667,0-13.531c-0.47,4.602-1.985,11.106-1.041,15.613c-5.985,5.29-9.359,13.192-13.01,20.816
		c-0.894,4.311-1.879,8.53-5.725,9.888c5.683-10.171,7.496-23.973,16.653-31.746c0.044-3.179,0.054-7.874-0.521-8.847
		c-2.162,2.348,0.298,9.318-4.163,9.368c-1.755-3.767,3.088-7.934,1.561-11.449c-2.041,3.337-3.326,7.43-5.204,10.929
		c-0.672-1.41-2.313-1.85-2.082-4.164c1.832-2.165,6.013-4.733,5.204-7.806c-1.332,3.179-3.736,5.285-6.766,6.766
		c-1.031,3.256,0.185,7.711,0.521,9.367c0.921-0.334,2.201-2.947,3.123-1.561c-3.14,5.857-6.524,13.757-9.368,19.776
		c-1.084,2.295-2.552,4.055-3.643,6.245C2.208,71.6,1.892,77.666,4.168,86.39C9.378,87.959,9.917,87.773,16.138,87.431z
		 M20.301,8.847c2.645,4.714,3.82,10.189,2.082,14.572c2.922-2.224,5.084-6.4,5.204-9.888C25.539,11.841,22.597,8.589,20.301,8.847z
		 M53.087,8.847c-2.054,3.981-4.623,10.482-0.52,13.531c-1.006,8.776-3.893,14.383-3.123,26.542
		c3.703-1.993,1.814-7.695,2.602-12.49c0.902-5.494,3.851-11.222,1.041-15.092c1.691-3.167,2.96-6.754,4.164-10.409
		C55.939,10.159,55.562,8.455,53.087,8.847z M26.546,26.542c2.685-0.831,2.101-4.715,1.562-7.286
		C28.029,22.126,26.514,23.561,26.546,26.542z M63.496,27.583c0.074,3.916,0.815,7.165,2.602,9.368
		c0.163-2.786,0.348-5.55,1.041-7.807c1.034,0.007,0.662,1.42,2.082,1.041c1.102-3.756,4-5.714,5.725-8.847
		C68.721,16.837,68.402,26.222,63.496,27.583z M70.782,33.307c1.479,2.302,5.137,2.818,5.725,6.765
		c0.637,4.28-2.458,8.296-3.643,12.49c-1.581,5.595-2.229,10.216-4.684,15.092c-2.877,5.715-6.702,11.056-10.929,14.052
		c-1.766,0.218-4.491-1.334-4.684,0c2.041,1.776,4.861,2.771,7.286,4.163c11.817-3.074,11.721-15.293,15.092-28.623
		c0.658-2.6,3.736-6.422,4.164-8.847c0.603-3.424-1.154-6.04-1.562-9.368c-0.086-0.703,1.019-1.164,1.041-2.082
		c0.031-1.274-1.174-1.803-1.041-2.603c0.688-4.136,3.639-5.036,2.602-8.847c-0.11-0.583-0.577-0.81-1.041-1.041
		C76.606,27.682,73.32,30.12,70.782,33.307z M56.21,66.614c-1.272,0.983-2.521,1.988-4.163,2.602
		c-0.858,2.612-1.712,5.227-3.123,7.286c3.489-0.714,3.957,1.595,7.286,1.041c10.224-8.179,19.362-22.946,15.613-41.634
		c-2.311,11.915-2.424,21.691-8.327,30.705c-1.545,2.359-4.306,8.175-8.327,5.204c0.362-3.454,3.467-4.166,5.204-6.245
		c3.487-9.186,11.954-21.104,7.806-32.787C65.696,45.568,60.706,55.844,56.21,66.614z M84.833,73.379
		c0.584-0.053,0.81,0.757,1.041,0c-1.998-10.388,9.015-16.195,3.643-27.062c2.214,0.562,1.066,4.486,4.163,4.164
		c0.741-5.96,6.097-11.114-1.04-14.051c-1.385,3.473-2.932,6.783-5.205,9.367c3.512,5.335-2.187,11.059-3.643,16.133
		c-2.319,8.085,0.245,17.437-6.766,21.337c-4.191,3.109-9.444,2.244-13.01,6.245c-1.024,0.71-2.973,0.497-4.164,1.041
		C67.615,103.251,84.029,83.981,84.833,73.379z M86.915,46.317c0.441-1.531-1.409-3.381-2.082-2.082
		C85.75,44.707,85.693,46.151,86.915,46.317z M94.721,56.206c-4.386,9.457-2.89,23.055-7.286,32.787
		c-2.741,6.069-6.715,9.887-8.327,16.133C96.035,99.673,91.51,72.77,97.844,56.726c-1.144-0.591-1.729-1.741-3.123-2.082
		C94.721,55.165,94.721,55.685,94.721,56.206z M118.14,67.135c13.293,8.177,14.788,28.667,16.134,47.358
		c1.486-11.998-0.513-21.5-2.603-31.746c-0.363-1.783,0.075-4.181-0.521-5.725c-3.765-9.758-20.65-11.912-24.46-20.817
		C105.941,62.509,113.46,66.185,118.14,67.135z M100.446,73.379c0.698-4.577,3.908-9.862-1.041-11.97
		C98.593,65.017,97.315,71.777,100.446,73.379z M186.836,66.614c0,1.908,0,3.816,0,5.725c2.134,0.052,4.266,0.102,5.725-0.521
		c0.922-1.826,1.701-2.991,1.041-5.204C191.034,65.958,189.041,65.372,186.836,66.614z M100.966,82.747
		c-1.77,11.494-11.889,30.133-22.898,30.705c-6.054,0.315-7.779-4.566-12.49-4.684c-0.78,6.505,5.411,6.039,6.245,10.929
		c3.348,0.147,5.547,3.688,8.847,3.643c6.242-0.086,15.688-11.442,18.215-16.654c5.933-12.235,9.807-27.556,8.326-39.552
		c-0.665-0.029-0.721-0.667-1.562-0.521C104.079,71.155,101.887,76.768,100.966,82.747z M110.334,98.36
		c-2.729,6.954-5.172,12.923-8.327,16.654c-2.999,3.545-8.146,8.244-11.449,10.929c-1.555,1.264-3.829,1.497-5.204,2.602
		c-0.825,0.663-1.14,2.419-2.082,3.123c-1.305,0.974-2.132,1.099-3.643,1.561c-4.354-3.479-9.827-8.525-13.531-10.929
		c-1.396,3.139,2.167,8.33,4.684,10.929c4.141,4.276,12.998,9.468,17.694,8.847c3.945-0.521,5.697-6.16,9.368-10.408
		c1.339-1.55,3.868-2.599,4.684-3.643c2.581-3.305,4.317-9.65,6.766-14.572c2.485-4.996,6.344-11.75,6.766-15.092
		c1.518-12.031-1.208-25.998-6.766-31.746C111.217,78.655,114.99,86.493,110.334,98.36z M175.908,85.349
		c0.801,7.701,3.345,16.429,7.806,18.735c-3.056-8.849-2.279-20.67,1.562-27.583c-0.267-2.509-3.366-2.185-3.643-4.684
		c0.387-1.521,2.81-1.007,2.602-3.123c-0.839-1.069-2.609-1.207-4.684-1.041C177.888,72.37,180.486,81.554,175.908,85.349z
		 M118.14,84.829c0.374,5,1.396,10.835,1.041,16.133c-0.742,11.082-9.024,19.055-15.092,28.624
		c-5.532,8.725-11.673,22.879-24.46,15.612c-1.276,0.693,0.938,1.571-0.521,2.082c-3.579-4.577-8.725-10.355-13.011-12.49
		c4.315,2.738,5.364,8.661,9.368,11.97c4.035,3.335,9.484,1.81,14.572,4.164c-0.062,1.499-2.219,0.903-2.082,2.602
		c2.28,0.322,3.854,1.35,6.245,1.561c4.229-4.42,12.621-6.122,16.654-11.449c3.226-4.262,4.839-10.724,8.326-16.653
		c1.919-3.262,5.804-5.559,7.807-8.848c3.103-5.096,4.176-17.123,3.643-22.898c-0.431-4.672-2.366-9.048-4.684-13.531
		c3.268,21.634-5.211,39.53-14.571,53.083c-0.468,1.523-0.468,1.599,0,3.123c-5.657,4.422-10.504,12.372-18.215,13.011
		c3.699-4.907,8.981-8.074,13.53-14.052c4.186-5.5,5.949-12.724,9.368-18.735c0.573-1.009,2.064-1.554,2.602-2.602
		c3.388-6.607,4.9-12.333,4.164-19.255c-1.043-9.795,1.903-28.899-8.848-27.583C117.455,72.183,117.698,78.916,118.14,84.829z
		 M176.428,69.216c-1.215,0-2.429,0-3.644,0C173,72.062,176.34,72.429,176.428,69.216z M132.712,76.502
		c-0.314,1.247-0.748,2.375-0.521,4.164c5.039,16.419,8.131,39.118,5.725,55.685c-0.557,3.833-0.231,7.989-1.041,10.929
		c-1.229,4.46-4.774,8.144-4.163,11.97c9.354-2.956,11.164-14.789,11.97-23.939c1.275-14.491-2.998-22.031-5.204-34.869
		c-2.055-11.957-1.102-19.348-5.204-27.062c-1.426-0.83-2.568-1.942-4.164-2.602C130.502,73.161,131.807,74.632,132.712,76.502z
		 M169.142,75.981c-0.369-1.93,0.889-2.233,0.521-4.163C164.745,69.25,163.434,80.146,169.142,75.981z M142.6,90.554
		c0.338,2.345-0.367,4.539,0,7.286c0.524,3.919,2.789,7.105,4.164,10.409c7.337,17.638,5.239,40.007-6.766,52.562
		c17.431-1.676,18.705-24.334,16.653-42.675c-1.035-9.25-4.932-15.512-7.807-23.939c-3.427-10.045-4.238-17.751-10.929-20.817
		c-0.115-0.405-0.436-0.605-1.041-0.52C137.812,78.701,141.678,84.136,142.6,90.554z M151.448,89.513
		c0.899,4.535,4.244,8.494,6.245,12.49c8.854,17.69,8.518,46.433-4.163,59.328c4.871,0.225,9.047-3.738,10.929-6.245
		c7.028-9.363,7.994-30.379,5.204-40.593c-1.541-5.642-4.851-10.037-7.807-16.133c-4.206-8.675-6.271-18.339-13.011-23.419
		c-0.361-0.408-2.903-1.158-3.122,0C149.093,77.597,150.407,84.267,151.448,89.513z M156.652,79.625
		c8.18,16.365,23.517,31.945,21.337,56.206c-0.658,7.33-2.448,14.886-6.245,21.337c-0.424,0.783-4.519,2.293-2.081,2.602
		c7.134-0.212,10.44-9.5,11.97-14.572c2.542-8.434,0.315-16.252,0.521-23.939c0.182-6.851-1.474-9.386-3.644-13.531
		c-2.798-5.346-5.005-11.543-8.326-16.133c-2.433-3.361-5.166-5.333-6.245-7.806c-1.812-4.156-1.654-7.143-5.204-8.327
		c-3.786-0.043-5.809,1.062-7.807-1.041C151.573,77.418,154.02,78.614,156.652,79.625z M168.101,83.268
		c0.863,1.913,1.45,4.101,4.163,4.164c-1.088-4.817,4.989-7.475,3.644-12.49C170.113,74.524,170.223,80.012,168.101,83.268z
		 M195.683,150.402c6.354-0.586,10.457-3.421,10.93-9.888C202.429,143.27,199.403,147.183,195.683,150.402z M213.377,118.656
		c-0.408-2.664,0.73-3.78,0.521-6.245c7.289-9.365,16.319-16.988,18.735-31.225c-2.826-2.03-4.771-4.944-8.326-6.245
		c0.314,1.247,0.748,2.374,0.521,4.164c-0.64,0.922-1.015,2.108-2.082,2.602c0.542,2.61-0.586,5.556-2.082,7.806
		c-1.825,2.745-6.522,6.212-7.806,8.327c-1.945,3.205-1.655,7.664-3.123,11.449c-2.045,5.275-6.104,9.517-7.286,15.613
		c-1.211,6.251,0.097,12.379-2.602,18.735c-0.065,1.019-3.319,3.073-1.041,3.123C207.774,141.502,207.61,127.113,213.377,118.656z
		 M237.837,98.36c-5.962,8.792-18.84,16.18-24.979,23.939c0.354,4.692-2.211,6.463-2.082,10.929
		c4.473-5.217,12.035-7.188,17.174-11.97c2.762-2.569,3.569-7.103,6.245-9.888c3.609-3.757,10.315-4.581,10.929-10.409
		c0.413-3.923-2.474-9.237-5.204-12.49C240.705,91.732,239.829,95.424,237.837,98.36z M64.537,98.36
		c1.438,13.071,19.99,4.948,15.092-5.204C72.738,92.972,71.9,100.635,64.537,98.36z M134.274,137.392
		c0.235-7.548,1.248-16.468-4.684-19.776C127.942,123.559,133.449,130.535,134.274,137.392z M210.255,137.392
		c-0.316,1.718,0.104,7.17,2.082,8.327c5.362-7.475,17.201-5.579,23.939-11.449c4.264-3.715,4.093-8.628,6.245-15.092
		c-0.115-0.405-0.437-0.605-1.041-0.521C231.918,125.438,221.626,134.142,210.255,137.392z M121.263,131.667
		c2.264-0.165,3.293-1.564,5.204-2.082c-1.23-1.763,3.273-5.211,0-7.286C125.051,125.741,121.867,127.413,121.263,131.667z
		 M131.151,144.157c3.271-2.955,0.401-11.804-3.122-13.011C126.94,135.607,131.788,138.434,131.151,144.157z M110.334,147.28
		c5.49-2.663,6.393-9.914,16.653-7.807C124.479,125.281,111.053,143.816,110.334,147.28z M212.858,150.402
		c2.466,3.211,8.994,1.017,11.449-0.521c4.892,1.514,10.383,1.201,13.01-2.082c-0.521-2.529,0.891-4.975,0-6.245
		C228.695,144.034,216.268,142.71,212.858,150.402z M127.508,148.841c0.807,1.306,2.11,1.743,1.041,3.643
		c1.609,0.048,1.551-1.572,1.561-3.123c-2.932,0.33-2.496-2.708-4.163-3.643c-7.701-4.242-11.519,3.841-17.694,2.602
		c-0.845,2.798-5.492,1.794-5.204,5.725C111.323,155.825,116.661,144.089,127.508,148.841z M206.613,148.841
		c-4.023,7.686-15.938,4.264-21.858,9.888c8.029,1.521,15.604-1.678,19.256-6.245c1.054-1.201,4.152-0.358,3.643-3.123
		C207.539,148.956,207.217,148.756,206.613,148.841z M91.599,158.729c-4.059-3.75-9.512-8.874-16.133-8.327
		C77.77,155.907,85.981,158.272,91.599,158.729z M115.018,153.004c3.125,1.731,8.039,1.676,11.449,3.123
		C126.436,151.335,117.416,149.146,115.018,153.004z M215.459,154.045c1.957,10.443,18.445,4.291,20.817-1.561
		C230.017,153.246,221.33,156.263,215.459,154.045z M95.242,158.208c1.241,0.918,3.946-0.752,5.725,0.521
		c1.081-1.234-0.451-3.01-0.521-4.684C96.839,153.562,97.287,157.131,95.242,158.208z M206.613,154.045
		c-3.68,2.689-8.438,7.207-14.052,7.807c-1.887,0.202-5.605-1.797-6.766,0c8.18,4.655,17.481-1.94,22.378-7.807
		C207.653,154.045,207.133,154.045,206.613,154.045z M77.547,158.208c0.486-2.247-1.739-4.472-3.123-3.123
		C75.473,156.12,76.126,157.548,77.547,158.208z M114.498,155.086c-4.258-0.338-10.67,0.397-9.888,4.164
		c8.657-0.295,14.272-1.673,21.337,1.561C126.507,156.958,118.894,155.435,114.498,155.086z M217.542,161.331
		c3.7,6.652,15.829,0.738,18.735-3.123C230.644,159.603,225.169,163.636,217.542,161.331z M207.653,161.331
		c-1.415-0.476,1.387-0.967,0.521-2.602c-3.528,0.809-6.372,2.301-7.806,5.204C203.877,164.163,206.049,161.407,207.653,161.331z
		 M78.068,160.811c3.848,2.571,10.938,1.899,14.052,5.204c0.576-0.984,0.664-2.458,1.041-3.643
		C88.047,162.05,82.423,157.145,78.068,160.811z M91.079,171.219c0.223-0.991,1.121-1.308,1.041-2.602
		c-5.509-3.339-12.425-5.27-19.256-7.286C75.663,167.899,85.452,167.478,91.079,171.219z M105.13,163.413
		c0.001,0.522-0.422,0.62-0.521,1.041c5.278,2.9,13.324-0.846,19.775,2.082C122.758,159.189,111.372,162.083,105.13,163.413z
		 M187.877,166.015c-0.881,2.387,1.897,3.259,3.122,3.643c3.655,1.146,11.184-1.393,15.613-2.082c0.234-1.5,1.841-1.628,1.561-3.643
		c-0.109-0.584-0.577-0.81-1.04-1.041C203.329,167.486,194.813,166.454,187.877,166.015z M219.623,166.015
		c1.613,7.486,15.584,5.043,15.613-2.082C231.375,163.864,225.324,169.419,219.623,166.015z M82.231,171.219
		c-2.675-1.106-6.311-5.818-9.888-2.602c5.547,2.113,11.936,6.068,17.174,6.765C90.908,170.837,85.131,172.418,82.231,171.219z
		 M113.977,168.097c-2.828-0.386-7.549-0.75-8.847,2.082c6.855,0.803,10.241,10.541,16.653,8.327
		c-2.18-3.024-8.812-1.596-8.848-6.765c3.298,0.518,7.264,0.369,10.408,1.041C121.898,171.32,117.708,168.605,113.977,168.097z
		 M191.52,174.862c4.523,0.753,15.588,5.349,17.174-0.521c-0.928-0.552-8.526,3.195-9.367-0.521
		c3.088-0.555,6.143-1.144,9.367-1.562c0-1.041,0-2.082,0-3.123C202.588,170.665,197.206,172.915,191.52,174.862z M222.746,172.26
		c0.303,3.34,1.778,5.508,2.082,8.847c4.544,2.385,8.898-0.971,10.929-4.163c-2.901,0.364-8.403,4.176-10.408,0.521
		c5.007-0.197,8.466-1.943,9.367-6.245C231.639,171.676,227.522,173.643,222.746,172.26z M72.343,174.342
		c0.757,0.805,2.664,0.458,4.164,0.521c-0.08-2.175-1.667-2.844-4.164-2.603C72.343,172.954,72.343,173.648,72.343,174.342z
		 M81.711,178.505c1.473-1.099,2.06,3.125,4.164,3.123c0.432-1.302,1.425-2.043,1.561-3.643c-3.195-0.164-6.167-5.301-8.327-3.122
		C81.1,175.243,81.58,177.709,81.711,178.505z M105.13,179.546c2.266-0.856,6.312,0.068,6.765-2.602
		C109.695,173.465,103.391,173.45,105.13,179.546z M70.782,180.587c0.65,1.257,2.624,1.192,2.602,3.123
		c-1.383,0.005-2.972-0.197-3.643,0.52c0.302,1.689-0.354,2.421-0.521,3.643c0.856,0.623,4.922,2.692,5.204,0.521
		c-1.276-0.979-2.623-1.887-3.123-3.643c4.944-0.434,5.667,3.354,7.807,5.725c1.856-4.719-3.961-5.565-4.684-9.368
		c3.706-1.172,5.218,4.073,8.327,5.205c1.589-6.439-5.846-8.802-10.929-8.847C71.101,178.129,71.504,179.921,70.782,180.587z
		 M211.296,178.505c-1.371-0.157-1.708,0.721-1.562,2.082C211.472,181.109,211.442,179.865,211.296,178.505z M209.214,178.505
		c-4.403,2.607-10.739-0.715-15.092,0.521c-0.156,2.758,4.087,1.117,6.245,1.562c2.545,1.952,5.509,2.142,9.367,1.041
		C209.747,180.401,208.838,180.095,209.214,178.505z M119.702,183.189c-3.836-4.444-9.726-0.592-14.571,0c0,0.867,0,1.735,0,2.602
		c5.524,0.027,7.414,3.688,13.01,3.643c-0.012-1.226,0.896-1.532,0.521-3.123c-3.652-0.236-3.787-1.319-6.245,0.521
		c-0.29-1.271-2.014-1.109-1.561-3.123c1.65-1.821,10.36,2.764,9.888-1.562C120.632,182.732,120.165,182.958,119.702,183.189z
		 M224.828,183.709c-0.166,1.222-0.822,1.953-0.521,3.643c2.545,0.404,3.974,1.924,7.285,1.562c0.866-2.951,3.002-4.631,4.685-6.766
		C232.404,183.037,229.613,185.095,224.828,183.709z M194.123,183.709c-0.117,0.984,0.586,1.148,0.521,2.082
		c7.026,2.069,12.345-0.259,18.734,0.521c0.378-1.592-0.897-1.531-0.52-3.123C206.023,185.2,201.102,182.653,194.123,183.709z
		 M225.868,191.516c1.192,2.104,4.168,2.425,7.286,2.602c1.651-1.471,1.563-4.682,4.684-4.684c0.021-1.583,0.303-3.425-1.561-3.123
		C235.618,191.126,227.637,190.847,225.868,191.516z M195.683,188.393c-0.011,1.226,0.896,1.532,0.521,3.123
		c6.201-2.001,11.04,3.42,15.093,0.521c-0.896-1.359-4.157-0.353-4.684-2.082c2.317-1.706,4.613,1.163,6.245,0
		C208.102,184.157,201.719,191.529,195.683,188.393z M105.65,190.995c1.215,0,2.429,0,3.644,0c0.65-2.581-3.216-3.346-4.163-2.602
		C106.258,188.305,105.366,190.239,105.65,190.995z M68.18,190.475c0.93,3.927,7.282,2.433,9.888,4.684
		C78.541,190.107,70.223,191.299,68.18,190.475z M105.65,193.077c0.451,3.044-2.27,7.838-0.52,11.97
		c5.749-1.341,8.994,2.356,11.97,2.081c-1.727-4.519-9.481-3.009-11.45-7.286c4.908,0.333,8.723,0.32,11.97,3.123
		c1.06-1.985-0.562-3.31-1.04-5.204c-2.645,0.964-6.104-0.505-7.286-2.602c2.409-1.476,5.611,0.112,7.807,0.521
		C117.592,188.589,109.875,194.208,105.65,193.077z M72.864,197.24c-0.923-2.373-4.905-1.688-5.725-4.164
		c-0.581,0.476-0.164,0.968-0.521,2.603C69.666,195.233,70.877,196.625,72.864,197.24z M197.245,194.638
		c3.43,1.5,11.398,2.514,13.531,0C206.193,196.588,200.256,190.734,197.245,194.638z M228.47,196.72
		c-0.376,1.59,0.532,1.896,0.521,3.123c1.945-1.061,5.309,1.041,7.807-1.041c-0.632-2.092,1.378-3.809-0.521-4.164
		C234.444,196.101,231.754,196.708,228.47,196.72z M197.245,197.24c0,0.867,0,1.735,0,2.602c3.931,0.954,9.229-0.083,11.449-1.041
		C209.222,195.647,199.901,197.73,197.245,197.24z M76.507,200.883c-2.51-0.428-6.409-3.988-10.409-2.602
		C70.243,197.805,74.132,204.647,76.507,200.883z M65.578,200.883c0.125,2.13,2.172,2.339,4.164,2.602
		C70.572,200.505,66.524,200.446,65.578,200.883z M196.724,201.404c-0.3,1.088-1.29,1.485-1.041,3.123
		c2.896,1.238,7.535-0.066,9.889,0.521c0.266-1.47,1.259-2.21,1.562-3.643C203.379,199.883,200.371,203.872,196.724,201.404z
		 M236.277,205.567c-0.418-1.806,0.774-2.001,0.521-3.644c-2.207-0.356-4.512,0.695-7.286-0.52
		C229.729,205.811,233.172,204.916,236.277,205.567z M68.7,205.047c0.091,1.644,2.059,1.411,3.643,1.561
		C71.996,204.105,71.005,204.953,68.7,205.047z M230.032,207.128c0,0.868,0,1.735,0,2.603c2.499,0.103,3.116,2.087,6.245,1.562
		c0.903-1.734-0.263-2.309,0-4.685C234.034,207.202,232.613,208.132,230.032,207.128z M193.602,207.648
		c0.958,3.73,9.675,1.935,9.888,0C200.451,207.157,197.3,209.312,193.602,207.648z M64.017,208.169c0,0.521,0,1.041,0,1.562
		c3.156-0.236,5.154,2.976,7.286,2.082C70.637,208.866,67.573,207.328,64.017,208.169z M105.13,208.169c0,0.521,0,1.041,0,1.562
		c1.013,2.062,8.356,4.51,9.888,1.041C110.722,211.162,109.453,206.049,105.13,208.169z M190.479,214.935
		c2.602,1.844,5.738,0.195,8.848,1.041c0.072-1.836,1.489-2.327,1.562-4.163c-3.36,0.602-6.232,2.53-8.848,0
		C191.579,212.911,190.457,213.351,190.479,214.935z M62.976,214.414c2.442-0.516,4.66,2.896,5.725,0.521
		c-2.008-0.594-2.961-2.242-5.204-2.603C63.333,213.036,62.755,213.326,62.976,214.414z M230.032,216.496
		c1.207,1.393,4.069,2.126,6.245,1.041c-0.118-2.174,0.846-2.458,0-4.164c-2.297,0.215-4.022-0.141-5.204-1.041
		C230.559,213.554,230.16,214.89,230.032,216.496z M105.13,213.373c2.185,2.152,3.734,4.939,8.326,4.685
		c-0.462-1.899,0.919-2.772,0-3.644C109.958,217.097,107.068,213.295,105.13,213.373z M61.935,216.496
		c0.205,2.06,5.084,3.93,7.286,5.725c0.277-1.458,0.764-2.706,1.041-4.163C65.988,219.25,64.352,215.474,61.935,216.496z
		 M105.13,219.098c2.871,0.474,2.056-2.181,0-2.081C105.13,217.71,105.13,218.404,105.13,219.098z M194.123,222.221
		c0.088,1.303-0.8,1.629-1.562,2.082c-3.34,0.391-4.129-1.77-6.766-2.082c-0.462,0.926-1.453,1.322-1.041,3.122
		c3.101,0.369,5.292,1.647,7.807,2.603c1.354-3.157,3.633-5.388,4.163-9.368c-3.368,0.184-5.668,0.802-8.326-0.52
		C188.164,221.587,191.974,221.073,194.123,222.221z M59.853,223.782c2.752,1.237,5.482,2.497,7.807,4.163
		c-0.323-4.708-3.786-6.275-7.286-7.807C60.208,221.36,59.551,222.093,59.853,223.782z M104.61,223.782
		c3.2-0.425,5.135,0.416,7.285,1.04c-0.399-1.961,0.636-2.487,0.521-4.163C107.765,221.295,104.653,218.134,104.61,223.782z
		 M229.511,224.303c2.534,1.826,7.723,2.293,7.286-2.603c-2.021-0.225-4.902,0.016-6.766-1.562
		C230.146,221.814,229.111,222.341,229.511,224.303z M56.73,228.986c2.419,1.918,6.327,2.347,9.368,3.643
		c-1.003-4.027-5.148-4.914-7.806-7.286C57.86,226.646,56.866,227.387,56.73,228.986z M103.569,227.945
		c3.2-0.425,5.135,0.416,7.286,1.041c-0.381-3.316-3.836-2.076-7.286-3.123C103.569,226.558,103.569,227.251,103.569,227.945z
		 M224.828,243.558c3.762,1.064,5.452,3.404,10.408,2.082c-3.567-7.49,2.392-11.203,1.041-18.215
		c-2.161,1.711-6.011,1.01-7.807-0.521C228.832,233.464,227.893,238.286,224.828,243.558z M181.632,228.466
		c-1.423,2.614,2.491,2.59,2.602,5.204c-2.177,0.169-4.039-1.826-5.725-0.521c0.01,2.245,2.593,1.918,2.603,4.163
		c-2.402,0.32-2.995-1.168-5.204-1.041c-2.815,2.043-5.744,3.971-8.848,5.726c3.854,2.218,6.812,5.33,11.449,6.765
		c0.024-7.262,7.284-7.288,9.368-12.49c-1.688,0.267-4.426-1.078-2.603-2.602c2.243-0.509,1.515,1.955,3.123,2.082
		c0.359-2.243,2.008-3.196,2.602-5.205C189.297,228.678,183.764,228.209,181.632,228.466z M102.528,233.149
		c3.079-0.304,4.964,0.587,6.766,1.562c0.53-0.684,0.51-1.919,1.041-2.603c-2.817-0.479-4.8-1.792-7.286-2.602
		C103.465,231.312,102.273,231.507,102.528,233.149z M53.087,236.792c2.766-1.187,3.41,0.52,5.725,1.041
		C58.863,233.315,53.081,230.283,53.087,236.792z M64.537,237.312c0.116-0.403,0.014-1.026,0.52-1.041
		c-0.348-2.08-2.843-2.014-4.684-2.602C60.909,235.736,61.688,237.56,64.537,237.312z M102.007,236.271c0,0.521,0,1.041,0,1.562
		c1.814,1.308,3.849,2.396,6.766,2.603c0.543-1.475,0.543-2.169,0-3.644C105.882,237.386,104.224,234.7,102.007,236.271z
		 M43.72,247.722c1.777,2.038,4.746,2.887,7.806,3.643c0.82-4.731,5.298-5.805,6.766-9.888c-2.176-1.12-3.422-3.17-6.245-3.644
		C50.347,242.205,46.131,244.061,43.72,247.722z M99.405,244.078c4.308-1.222,7.104,1.344,9.889,3.123
		c0.228-1.789-0.206-2.917-0.521-4.164c-4.522,2.249-4.617-2.518-8.848-2.081C100.303,242.548,99.028,242.486,99.405,244.078z
		 M92.12,258.65c3.245,2.248,4.329,3.569,9.367,3.643c0.248-3.742,2.167-5.813,3.123-8.847c-1.231-1.545-3.637-1.915-3.644-4.685
		c2.854,0.14,4.432,2.995,7.286,1.562c-2.062-3.111-5.708-5.118-9.367-5.204C100.263,250.723,94.808,254.152,92.12,258.65z"/>
	<path fill-rule="evenodd" clip-rule="evenodd" fill="#FFFFFF" d="M4.168,86.39c-2.276-8.724-1.96-14.79,1.561-21.858
		c1.091-2.19,2.559-3.95,3.643-6.245c2.844-6.019,6.228-13.918,9.368-19.776c-0.921-1.386-2.201,1.227-3.123,1.561
		c-0.336-1.656-1.551-6.111-0.521-9.367c3.03-1.481,5.434-3.587,6.766-6.766c0.809,3.073-3.372,5.641-5.204,7.806
		c-0.232,2.313,1.41,2.754,2.082,4.164c1.878-3.499,3.164-7.592,5.204-10.929c1.527,3.515-3.316,7.682-1.561,11.449
		c4.461-0.049,2.001-7.02,4.163-9.368c0.574,0.974,0.565,5.668,0.521,8.847c-9.157,7.773-10.97,21.574-16.653,31.746
		c3.846-1.358,4.831-5.577,5.725-9.888c3.651-7.625,7.025-15.526,13.01-20.816c-0.944-4.507,0.571-11.011,1.041-15.613
		c0.966,3.863,2.734,9.843,0,13.531c-0.339,2.518,4.614,3.777,5.725,1.562c-3.483-4.036-1.934-10.456-3.123-16.133
		c3.808-0.338,3.369,3.57,5.725,4.684c-0.375-6.048-7.671-11.494-2.602-19.256c5.696,3.554,11.857,9.01,9.368,17.694
		c1.925-0.157,0.833-3.331,3.643-2.602c2.271,4.036,0.962,7.724,0,11.449c-2.556,9.899-0.713,22.1-3.123,32.266
		c-4.602-3.82,2.254-12.796-1.041-18.215c0.317-4.515,4.048-9.241,2.082-15.612c-3.473,9.619-3.967,23.972-3.643,35.389
		c-0.72,1.362-0.272,3.892-2.082,4.163c0.057-2.234,1.062-3.832-0.52-5.204c-2.324,1.84,0.083,8.411-4.164,8.327
		c-0.859-7.135,3.544-8.428,3.643-15.613c-3.406-4.087-10.296-1.863-15.092-0.52c0.946,4.716,8.29-0.143,11.449,2.082
		c0.731,2.125-0.692,6.116-1.561,8.327c0.377,1.882-0.898,1.882-0.521,0c0.554-3.33-0.994-4.557-2.082-6.245
		c-4.925-0.046-10.276-2.864-11.97,1.562c1.957,3.191,7.569,0.639,11.45,1.041c0.939,1.233-0.229,4.275,1.041,6.245
		c-1.544,1.532-5.483-3.527-9.368-1.561c-1.635-0.273-2.903-0.913-4.163-1.561c-2.396,7.049,7.574,2.05,9.368,5.204
		c-0.185,1.376-2.652,0.471-3.123,1.561c0.137,1.945,1.595,2.568,2.082,4.164c-1.333,1.437-2.043-4.231-4.684-1.562
		c-0.28,2.362,2.773,1.39,2.602,3.643c-3.12,4.938-5.496,15.061-14.052,9.888c6.009-1.451,9.391-5.528,11.45-10.929
		c-3.068-0.112-4.687,5.716-6.766,8.327C9.917,87.773,9.378,87.959,4.168,86.39z M17.699,60.369
		c2.882-6.661,8.268-13.588,9.888-19.776C22.275,44.824,19.102,53.963,17.699,60.369z M42.159,18.735
		c-0.12-3.697-0.97-6.663-4.163-7.286C35.575,14.221,38.917,18.358,42.159,18.735z M40.077,35.909
		c1.271-1.531-1.884-1.969-1.562-4.164c0.71-2.208,0.291-5.698-2.082-4.163C36.887,30.677,35.866,35.419,40.077,35.909z
		 M43.72,36.43c0.728-1.224,1.263-9.06-2.082-7.286C43.48,31.583,40.114,36.142,43.72,36.43z M11.974,57.767
		c-1.707,1.512-4.743,6.923-3.643,7.807c6.479-7.052,8.32-18.742,13.531-27.062c-0.11-0.584-0.578-0.81-1.041-1.041
		C17.639,44.002,13.879,49.957,11.974,57.767z M30.189,44.756c1.59,1.012,4.016,1.188,6.766,1.041
		c0.984-2.218,5.524-5.572,3.643-7.286C37.638,40.545,27.668,36.903,30.189,44.756z M26.546,49.44c-1.136,2.854-3.98,4-4.684,7.286
		c2.642-1.731,5.953-4.261,10.408-2.602c1.794-3.8,10.557-6.04,8.847-9.888C38.382,48.167,33.5,51.283,26.546,49.44z M36.434,51.522
		c1.508,2.482,4.567,3.412,5.725,6.245c1.682-2.655,0.106-4.468-1.041-6.765C39.222,50.84,37.731,51.084,36.434,51.522z
		 M10.934,80.666c3.35-0.293,5.181-2.105,5.204-5.725C12.167,74.377,9.135,77.154,10.934,80.666z"/>
	<path fill-rule="evenodd" clip-rule="evenodd" fill="#FFFFFF" d="M59.853,90.554c1.191-0.544,3.139-0.331,4.164-1.041
		c3.566-4.001,8.819-3.136,13.01-6.245c7.01-3.9,4.446-13.252,6.766-21.337c1.456-5.075,7.155-10.798,3.643-16.133
		c2.272-2.584,3.82-5.895,5.205-9.367c7.137,2.938,1.781,8.091,1.04,14.051c-3.097,0.322-1.949-3.601-4.163-4.164
		c5.372,10.867-5.64,16.674-3.643,27.062c-0.231,0.757-0.457-0.053-1.041,0C84.029,83.981,67.615,103.251,59.853,90.554z"/>
	<path fill-rule="evenodd" clip-rule="evenodd" fill="#FFFFFF" d="M103.048,154.045c-0.288-3.931,4.359-2.926,5.204-5.725
		c6.176,1.239,9.993-6.844,17.694-2.602c1.667,0.935,1.231,3.973,4.163,3.643c-0.01,1.551,0.049,3.171-1.561,3.123
		c1.069-1.9-0.234-2.337-1.041-3.643C116.661,144.089,111.323,155.825,103.048,154.045z"/>
	<path fill-rule="evenodd" clip-rule="evenodd" fill="#FFFFFF" d="M200.368,163.933c1.434-2.903,4.277-4.396,7.806-5.204
		c0.866,1.635-1.936,2.126-0.521,2.602C206.049,161.407,203.877,164.163,200.368,163.933z"/>
	<path fill-rule="evenodd" clip-rule="evenodd" fill="#FFFFFF" d="M79.109,174.862c2.159-2.179,5.132,2.958,8.327,3.122
		c-0.136,1.6-1.129,2.341-1.561,3.643c-2.104,0.002-2.69-4.222-4.164-3.123C81.58,177.709,81.1,175.243,79.109,174.862z"/>
	<path fill-rule="evenodd" clip-rule="evenodd" fill="#FFFFFF" d="M120.743,182.148c0.473,4.325-8.237-0.259-9.888,1.562
		c-0.453,2.014,1.271,1.851,1.561,3.123c2.458-1.84,2.593-0.757,6.245-0.521c0.376,1.59-0.532,1.896-0.521,3.123
		c-5.596,0.045-7.485-3.616-13.01-3.643c0-0.867,0-1.735,0-2.602c4.846-0.592,10.735-4.444,14.571,0
		C120.165,182.958,120.632,182.732,120.743,182.148z"/>
	<path fill-rule="evenodd" clip-rule="evenodd" fill="#FFFFFF" d="M66.619,195.679c0.356-1.635-0.06-2.127,0.521-2.603
		c0.82,2.476,4.801,1.791,5.725,4.164C70.877,196.625,69.666,195.233,66.619,195.679z"/>
	<path fill-rule="evenodd" clip-rule="evenodd" d="M37.996,11.449c3.193,0.623,4.043,3.589,4.163,7.286
		C38.917,18.358,35.575,14.221,37.996,11.449z"/>
	<path fill-rule="evenodd" clip-rule="evenodd" d="M40.598,38.511c1.881,1.713-2.659,5.068-3.643,7.286
		c-2.75,0.148-5.175-0.029-6.766-1.041C27.668,36.903,37.638,40.545,40.598,38.511z"/>
	<path fill-rule="evenodd" clip-rule="evenodd" d="M41.118,51.001c1.147,2.297,2.723,4.11,1.041,6.765
		c-1.157-2.833-4.217-3.763-5.725-6.245C37.731,51.084,39.222,50.84,41.118,51.001z"/>
</g>
</svg>
