<?xml version="1.0" encoding="UTF-8" standalone="no"?>
<!-- Created with Inkscape (http://www.inkscape.org/) -->

<svg
   xmlns:dc="http://purl.org/dc/elements/1.1/"
   xmlns:cc="http://creativecommons.org/ns#"
   xmlns:rdf="http://www.w3.org/1999/02/22-rdf-syntax-ns#"
   xmlns:svg="http://www.w3.org/2000/svg"
   xmlns="http://www.w3.org/2000/svg"
   xmlns:sodipodi="http://sodipodi.sourceforge.net/DTD/sodipodi-0.dtd"
   xmlns:inkscape="http://www.inkscape.org/namespaces/inkscape"
   id="svg2"
   version="1.1"
   inkscape:version="0.47 r22583"
   width="1156.8489"
   height="1583.7777"
   sodipodi:docname="foot.svg">
  <title
     id="title2813">Foot with Anklet</title>
  <metadata
     id="metadata8">
    <rdf:RDF>
      <cc:Work
         rdf:about="">
        <dc:format>image/svg+xml</dc:format>
        <dc:type
           rdf:resource="http://purl.org/dc/dcmitype/StillImage" />
        <dc:title>Foot with Anklet</dc:title>
        <dc:date>2010-06-06</dc:date>
        <dc:creator>
          <cc:Agent>
            <dc:title>Jordan Irwin</dc:title>
          </cc:Agent>
        </dc:creator>
        <dc:subject>
          <rdf:Bag>
            <rdf:li>foot</rdf:li>
            <rdf:li>feet</rdf:li>
            <rdf:li>person</rdf:li>
            <rdf:li>human</rdf:li>
            <rdf:li>body</rdf:li>
            <rdf:li>part</rdf:li>
            <rdf:li>anklet</rdf:li>
            <rdf:li>jewelry</rdf:li>
          </rdf:Bag>
        </dc:subject>
        <cc:license
           rdf:resource="http://creativecommons.org/licenses/publicdomain/" />
        <dc:description></dc:description>
      </cc:Work>
      <cc:License
         rdf:about="http://creativecommons.org/licenses/publicdomain/">
        <cc:permits
           rdf:resource="http://creativecommons.org/ns#Reproduction" />
        <cc:permits
           rdf:resource="http://creativecommons.org/ns#Distribution" />
        <cc:permits
           rdf:resource="http://creativecommons.org/ns#DerivativeWorks" />
      </cc:License>
    </rdf:RDF>
  </metadata>
  <defs
     id="defs6">
    <inkscape:perspective
       sodipodi:type="inkscape:persp3d"
       inkscape:vp_x="0 : 0.5 : 1"
       inkscape:vp_y="0 : 1000 : 0"
       inkscape:vp_z="1 : 0.5 : 1"
       inkscape:persp3d-origin="0.5 : 0.33333333 : 1"
       id="perspective10" />
    <inkscape:perspective
       id="perspective10-0"
       inkscape:persp3d-origin="0.5 : 0.33333333 : 1"
       inkscape:vp_z="1 : 0.5 : 1"
       inkscape:vp_y="0 : 1000 : 0"
       inkscape:vp_x="0 : 0.5 : 1"
       sodipodi:type="inkscape:persp3d" />
  </defs>
  <sodipodi:namedview
     pagecolor="#ffffff"
     bordercolor="#666666"
     borderopacity="1"
     objecttolerance="10"
     gridtolerance="10"
     guidetolerance="10"
     inkscape:pageopacity="0"
     inkscape:pageshadow="2"
     inkscape:window-width="1280"
     inkscape:window-height="968"
     id="namedview4"
     showgrid="false"
     inkscape:zoom="0.32256723"
     inkscape:cx="439.09785"
     inkscape:cy="663.38359"
     inkscape:window-x="-4"
     inkscape:window-y="-4"
     inkscape:window-maximized="1"
     inkscape:current-layer="svg2" />
  <path
     style="fill:#826354;fill-opacity:1;stroke:#000000;stroke-width:1px;stroke-linecap:butt;stroke-linejoin:miter;stroke-opacity:1"
     d="m 70.075682,0.5 57.218748,191.5625 c 50.59089,129.17775 67.04768,229.10479 -2.90625,308.96875 L 40.231932,644.8125 C -30.700978,747.55253 0.48284178,835.18508 77.544432,916 c 92.538288,77.70163 206.118478,103.2046 264.968748,222.2813 15.00556,30.362 69.35859,97.076 89.4375,131.1875 65.02743,99.9886 99.35994,154.1078 190.40625,221.1875 14.55911,9.1446 26.94495,20.6942 40.9375,30.3125 13.56515,9.3245 25.66793,20.7283 41.65354,26.5258 5.34473,1.776 12.26996,2.7324 16.69021,2.6304 l 14.59375,0 c 8.47475,2.1901 18.39156,0.3314 24.7812,6.75 15.15604,8.6158 29.3671,20.9689 46.6876,24.8126 18.25933,2.8144 36.96096,1.4374 55.4062,1.4374 8.48776,0 12.75841,-8.6187 17.5,-14.5937 2.48143,-15.2199 10.25428,-3.3427 10.2188,-2.9063 2.14102,2.8566 5.4812,5.3545 8.75,7.2813 8.08889,4.7681 17.01185,8.1874 26.25,10.2187 15.40306,2.1477 31.11288,1.1991 46.6562,0 6.3474,-1.4984 12.20917,-4.9366 17.5,-8.75 2.23479,-1.6107 3.51798,-3.8824 5.8438,-5.8437 0.4103,-0.2052 9.10387,0 10.21867,0 l 21.875,0 c 9.1898,-0.3175 18.7328,0.021 27.3453,-3.1428 2.3288,-0.8554 4.4346,-2.3814 6.186,-4.1385 3.5567,-5.5022 8.7373,-9.4163 14.125,-13.0312 2.903,-1.6061 6.3513,-2.0838 9.2184,-3.7532 6.1855,-3.6016 11.428,-8.5414 16.8588,-13.2992 4.008,-3.6738 5.9672,-6.4137 10.8288,-12.1978 1.403,-2.6244 1.6112,-5.783 1.7426,-8.756 0.2377,-5.3783 0.378,-9.3697 -1.7426,-16.0565 -2.772,-3.0159 -5.7141,-5.9702 -8.7496,-8.7496 -1.9264,-1.9677 -3.9622,-3.815 -5.8125,-5.8125 -2.7273,-2.9771 -2.4418,-8.5816 -1.3756,-12.2105 2.5026,-4.4863 8.3054,-6.8158 13.0315,-8.2273 0,0 7.0513,-0.096 10.2187,-1.4375 5.1056,-2.1625 9.0347,-6.4755 13.125,-10.2188 4.3528,-3.9835 8.4723,-8.2718 12.067,-12.9508 3.1878,-4.1494 7.4228,-9.0444 8.3393,-13.2992 l 2.9062,-18.9687 0,-13.125 c 0.017,-7.8463 -1.4935,-15.5262 -2.9062,-23.3125 -1.8256,-6.5221 -4.5359,-12.895 -7.2813,-18.9688 -0.1532,-2.4376 -1.9294,-4.8983 -3.8437,-6.5624 -1.9054,-2.1333 -2.7951,-2.0974 -3.4688,-2.1876 -1.0268,-0.1374 -2.9623,-0.024 -4.3745,0 l -7.2812,0 -4.375,0 -14.5938,0 -2.3125,0 -15.1875,-1.4687 -4.375,0 c -3.7827,-1.0459 -5.5238,-2.6575 -10.1875,-3.4871 -4.9443,-1.5362 -6.2623,-1.5982 -10.2187,-2.3254 -4.6892,-1.8885 -7.8756,-5.3135 -12.7378,-7.7965 -6.7963,-3.1135 -6.706,-2.5726 -10.2188,-3.2134 -3.9555,-0.7215 -8.2069,-0.6092 -12.0434,-0.6776 -6.6219,-2.53 -11.8178,-7.3016 -18.0624,-10.2821 l -40.09367,-24.5312 c -16.44055,-10.6375 -37.22576,-20.4438 -55.5008,-27.876 l -12.2816,-3.781 -3.5937,-1.0939 c -25.866,-70.5915 -41.1987,-119.7567 -52.8437,-200.4687 -10.4666,-72.54429 -39.5188,-172.66067 -69.375,-237.125 C 732.58708,705.32127 723.53359,573.80257 694.91943,410.125 678.95356,287.95505 664.09259,137.48917 652.20068,0.5 l -582.124998,0 z m 834.812448,1252.1873 0,0 z"
     id="path2826"
     sodipodi:nodetypes="cccccsccaccccccccaccacccaccaccacccccaaaccccccsccccccccccaccccccscccccc" />
  <path
     style="fill:#5d463a;fill-opacity:1;stroke:#000000;stroke-width:1px;stroke-linecap:butt;stroke-linejoin:miter;stroke-opacity:1"
     d="m 262.35075,473.73391 c -9.8307,26.36882 -5.92663,85.82631 -6.21316,111.35019 -0.65853,58.66263 11.87582,79.39177 36.79533,115.76519 16.16907,23.60097 45.56513,62.8672 51.91681,51.31869 C 298.28659,672.97339 270.4151,580.42763 262.35075,473.73391 z"
     id="path2820"
     sodipodi:nodetypes="csscc" />
  <path
     style="fill:#ff0000;stroke:#000000;stroke-width:1px;stroke-linecap:butt;stroke-linejoin:miter;stroke-opacity:1;opacity:1"
     d="m 166.1402,321.0203 c 4.83329,23.81977 5.38662,46.69346 4.77979,63.92878 227.97435,164.85874 488.07758,18.48647 517.41442,-27.55845 L 681.76199,300.6046 C 1001.9278,602.45784 -96.929143,685.81363 166.1402,321.0203 z"
     id="path3656"
     sodipodi:nodetypes="ccccc" />
  <path
     style="fill:#ffffff;fill-opacity:0.4;stroke:#ffffff;stroke-width:1px;stroke-linecap:butt;stroke-linejoin:miter;stroke-opacity:0.4"
     d="M 150.41229,423.11665 C 220.19498,511.22423 329.132,512.79605 433.0601,525.4382 282.84696,546.6802 182.84628,518.29081 150.41229,423.11665 z"
     id="path3658"
     sodipodi:nodetypes="ccc" />
</svg>
