<?xml version="1.0" encoding="UTF-8" standalone="no"?>
<!-- Created with Inkscape (http://www.inkscape.org/) -->

<svg
   xmlns:dc="http://purl.org/dc/elements/1.1/"
   xmlns:cc="http://creativecommons.org/ns#"
   xmlns:rdf="http://www.w3.org/1999/02/22-rdf-syntax-ns#"
   xmlns:svg="http://www.w3.org/2000/svg"
   xmlns="http://www.w3.org/2000/svg"
   xmlns:sodipodi="http://sodipodi.sourceforge.net/DTD/sodipodi-0.dtd"
   xmlns:inkscape="http://www.inkscape.org/namespaces/inkscape"
   width="127.99992"
   height="81.249001"
   id="svg39019"
   sodipodi:version="0.32"
   inkscape:version="0.92.2 (5c3e80d, 2017-08-06)"
   version="1.0"
   sodipodi:docname="bicycle.svg"
   inkscape:output_extension="org.inkscape.output.svg.inkscape"
   inkscape:export-filename="/home/alexander/            /clipart/simple_vector_bike.png"
   inkscape:export-xdpi="32.795872"
   inkscape:export-ydpi="32.795872">
  <defs
     id="defs39021">
    <inkscape:perspective
       sodipodi:type="inkscape:persp3d"
       inkscape:vp_x="-50 : 600 : 1"
       inkscape:vp_y="0 : 1000 : 0"
       inkscape:vp_z="700 : 600 : 1"
       inkscape:persp3d-origin="300 : 400 : 1"
       id="perspective26198" />
    <inkscape:perspective
       sodipodi:type="inkscape:persp3d"
       inkscape:vp_x="-50 : 600 : 1"
       inkscape:vp_y="0 : 1000 : 0"
       inkscape:vp_z="700 : 600 : 1"
       inkscape:persp3d-origin="300 : 400 : 1"
       id="perspective39027" />
  </defs>
  <sodipodi:namedview
     id="base"
     pagecolor="#ffffff"
     bordercolor="#666666"
     borderopacity="1.0"
     gridtolerance="10000"
     guidetolerance="10"
     objecttolerance="10"
     inkscape:pageopacity="0.0"
     inkscape:pageshadow="2"
     inkscape:zoom="5.5999999"
     inkscape:cx="83.012409"
     inkscape:cy="46.501395"
     inkscape:document-units="px"
     inkscape:current-layer="layer1"
     showgrid="false"
     inkscape:window-width="1920"
     inkscape:window-height="1025"
     inkscape:window-x="-8"
     inkscape:window-y="-8"
     inkscape:window-maximized="1"
     fit-margin-top="0"
     fit-margin-left="0"
     fit-margin-right="0"
     fit-margin-bottom="0" />
  <metadata
     id="metadata39024">
    <rdf:RDF>
      <cc:Work
         rdf:about="">
        <dc:format>image/svg+xml</dc:format>
        <dc:type
           rdf:resource="http://purl.org/dc/dcmitype/StillImage" />
        <dc:title></dc:title>
        <dc:date />
        <dc:creator>
          <cc:Agent>
            <dc:title />
          </cc:Agent>
        </dc:creator>
        <dc:rights>
          <cc:Agent>
            <dc:title />
          </cc:Agent>
        </dc:rights>
        <dc:publisher>
          <cc:Agent>
            <dc:title />
          </cc:Agent>
        </dc:publisher>
        <dc:identifier />
        <dc:source />
        <dc:relation />
        <dc:language />
        <dc:subject>
          <rdf:Bag />
        </dc:subject>
        <dc:coverage />
        <dc:description />
        <dc:contributor>
          <cc:Agent>
            <dc:title />
          </cc:Agent>
        </dc:contributor>
        <cc:license
           rdf:resource="http://creativecommons.org/publicdomain/zero/1.0/" />
      </cc:Work>
      <cc:License
         rdf:about="http://creativecommons.org/publicdomain/zero/1.0/">
        <cc:permits
           rdf:resource="http://creativecommons.org/ns#Reproduction" />
        <cc:permits
           rdf:resource="http://creativecommons.org/ns#Distribution" />
        <cc:permits
           rdf:resource="http://creativecommons.org/ns#DerivativeWorks" />
      </cc:License>
    </rdf:RDF>
  </metadata>
  <g
     inkscape:groupmode="layer"
     id="layer5"
     style="display:none"
     transform="translate(-261.57715,-142.67436)">
    <rect
       style="fill:#ffffff;fill-opacity:1;stroke:none"
       id="rect39180"
       width="823.27435"
       height="514.16766"
       x="-95.964493"
       y="-66.487038" />
  </g>
  <g
     inkscape:label="Layer 1"
     inkscape:groupmode="layer"
     id="layer1"
     transform="translate(-304.57227,-214.08311)">
    <g
       id="g1072"
       transform="matrix(0.19657373,0,0,0.19657373,296.12062,200.04378)">
      <rect
         ry="9.0801067"
         rx="4.5376997"
         y="295.06595"
         x="383.66833"
         height="9.0801067"
         width="19.72575"
         id="rect20090"
         style="display:inline;opacity:1;fill:#666666;fill-opacity:1;stroke:#000000;stroke-width:2.12687421;stroke-miterlimit:4;stroke-dasharray:none;stroke-opacity:1" />
      <rect
         transform="rotate(-10.736824)"
         ry="9.1587267"
         rx="4.5376997"
         y="363.16599"
         x="324.40421"
         height="72.619263"
         width="12.39841"
         id="rect20082"
         style="display:inline;opacity:1;fill:#666666;fill-opacity:1;stroke:#000000;stroke-width:2.12687421;stroke-miterlimit:4;stroke-dasharray:none;stroke-opacity:1" />
      <path
         transform="matrix(0.3358028,0,0,0.3358028,336.92549,325.03121)"
         d="m 292.04628,162.36777 c -0.68428,1.18521 -4.77745,1.06482 -5.52384,2.21193 -0.74639,1.14711 1.02188,4.84059 0.21549,5.94635 -0.80638,1.10576 -4.86357,0.55098 -5.72766,1.61225 -0.86409,1.06127 0.50157,4.92178 -0.41778,5.93556 -0.91935,1.01378 -4.89459,0.0309 -5.86659,0.99431 -0.972,0.96341 -0.0244,4.94721 -1.04632,5.85753 -1.0219,0.91031 -4.87014,-0.48955 -5.93904,0.36509 -1.0689,0.85464 -0.55015,4.91659 -1.66302,5.71313 -1.11287,0.79654 -4.79051,-1.00444 -5.9442,-0.26826 -1.15369,0.73618 -1.06963,4.83026 -2.26086,5.504 -1.19124,0.67373 -4.65661,-1.50795 -5.88202,-0.89857 -1.2254,0.60938 -1.57699,4.6892 -2.83309,5.2325 -1.2561,0.54329 -4.46994,-1.99437 -5.75318,-1.5187 -1.28323,0.47568 -2.06649,4.49501 -3.37322,4.90172 -1.30673,0.4067 -4.23263,-2.4582 -5.55916,-2.12162 -1.32652,0.33658 -2.53258,4.24989 -3.87513,4.51539 -1.34256,0.26551 -3.94737,-2.89417 -5.30215,-2.7005 -1.35478,0.19368 -2.96997,3.95662 -4.33314,4.07792 -1.36317,0.12129 -3.61737,-3.29736 -4.98506,-3.24879 -1.3677,0.0486 -3.37371,3.61852 -4.74205,3.59423 -1.36834,-0.0243 -3.24639,-3.66318 -4.6115,-3.76026 -1.36511,-0.0971 -3.73922,3.23941 -5.09723,3.06981 -1.358,-0.1696 -2.83862,-3.9875 -4.18568,-4.22913 -1.34705,-0.24163 -4.06236,2.82361 -5.39465,2.51062 -1.33228,-0.31298 -2.39869,-4.26663 -3.71244,-4.65008 -1.31374,-0.38345 -4.33948,2.37581 -5.63095,1.92298 -1.29147,-0.45282 -1.93159,-4.49742 -3.19713,-5.01834 -1.26554,-0.52092 -4.56743,1.90109 -5.80345,1.31355 -1.23603,-0.58753 -1.44261,-4.67726 -2.64561,-5.32975 -1.203,-0.65248 -4.74362,1.40483 -5.91019,0.68925 -1.16657,-0.71559 -0.93727,-4.80411 -2.0641,-5.58077 -1.12683,-0.77666 -4.86608,0.89266 -5.94998,0.0571 -1.0839,-0.83553 -0.42131,-4.87651 -1.45921,-5.76855 -1.03789,-0.89203 -4.93339,0.37037 -5.92234,-0.57564 -0.98894,-0.94601 0.0994,-4.89367 -0.83777,-5.89098 -0.9372,-0.9973 -4.94482,-0.15611 -5.82761,-1.20188 -0.88279,-1.04577 0.61902,-4.85539 -0.20686,-5.94666 -0.82588,-1.09127 -4.9002,-0.68083 -5.66683,-1.81451 -0.76663,-1.13368 1.1316,-4.76208 0.4264,-5.93495 -0.70521,-1.17288 -4.80008,-1.19784 -5.44186,-2.40659 -0.64178,-1.20874 1.63137,-4.61481 1.05483,-5.856 -0.57654,-1.24119 -4.64556,-1.70127 -5.15523,-2.97138 -0.50966,-1.27012 2.11266,-4.41527 1.67132,-5.71071 -0.44135,-1.29544 -4.43841,-2.18543 -4.81019,-3.50252 -0.37177,-1.31709 2.57001,-4.16569 2.26886,-5.50071 -0.30115,-1.33501 -4.18097,-2.64481 -4.41064,-3.99396 -0.22967,-1.34915 2.99823,-3.86892 2.84069,-5.22838 -0.15754,-1.35946 -3.87615,-3.07424 -3.96112,-4.44016 -0.085,-1.36592 3.39249,-3.52831 3.38034,-4.89681 -0.0121,-1.36851 -3.52742,-3.46884 -3.46671,-4.83605 0.0607,-1.36721 3.7483,-3.14772 3.88169,-4.50976 0.13338,-1.36205 -3.13873,-3.82413 -2.93304,-5.17714 0.20569,-1.35302 4.06165,-2.73147 4.33906,-4.07162 0.2774,-1.340147 -2.71447,-4.136088 -2.36613,-5.459572 0.34834,-1.323484 4.32898,-2.284268 4.74726,-3.587336 0.41829,-1.303069 -2.25944,-4.401187 -1.7724,-5.680147 0.48704,-1.27896 4.54725,-1.811185 5.10168,-3.062411 0.55442,-1.251225 -1.77883,-4.616417 -1.1586,-5.836362 0.62023,-1.219944 4.71401,-1.31758 5.39829,-2.502786 0.68428,-1.185206 -1.27806,-4.779343 -0.53167,-5.92645 0.74639,-1.147106 4.82735,-0.809047 5.63374,-1.914804 0.80638,-1.105757 -0.76281,-4.888116 0.10128,-5.949388 0.86409,-1.061272 4.88601,-0.291348 5.80536,-1.305127 0.91934,-1.013779 -0.23891,-4.941505 0.73309,-5.904917 0.972,-0.963413 4.88929,0.229653 5.91119,-0.680663 1.0219,-0.910315 0.2877,-4.938904 1.3566,-5.793541 1.06889,-0.854638 4.83718,0.748052 5.95005,-0.04848 1.11287,-0.796537 0.81104,-4.880344 1.96472,-5.616523 1.15369,-0.736179 4.73027,1.257975 5.9215,0.584241 1.19123,-0.673733 1.3252,-4.766487 2.5506,-5.375866 1.2254,-0.609379 4.56975,1.753645 5.82585,1.210348 1.25609,-0.543297 1.82433,-4.598625 3.10756,-5.0743 1.28323,-0.475674 4.35746,2.229446 5.66419,1.822742 1.30673,-0.406704 2.30281,-4.378659 3.62933,-4.715239 1.32652,-0.336581 4.0958,2.679985 5.43836,2.414482 1.34255,-0.265504 2.75518,-4.10908 4.10996,-4.302753 1.35479,-0.193673 3.78774,3.10016 5.15091,2.978866 1.36317,-0.121294 3.17634,-3.792943 4.54403,-3.841514 1.3677,-0.04857 3.43675,3.485208 4.80509,3.509497 1.36834,0.02429 3.56151,-3.433831 4.92662,-3.33675 1.36511,0.09708 3.04683,3.830768 4.40483,4.000365 1.35801,0.169598 3.90633,-3.035812 5.25339,-2.794179 1.34705,0.241634 2.62238,4.132923 3.95466,4.445907 1.33229,0.312985 4.20689,-2.603396 5.52063,-2.219949 1.31374,0.383448 2.16822,4.388251 3.45969,4.841076 1.29147,0.452825 4.45977,-2.141484 5.72531,-1.620566 1.26555,0.520918 1.6895,4.593858 2.92552,5.181392 1.23602,0.587535 4.66214,-1.655307 5.86514,-1.002821 1.203,0.652485 1.19162,4.747415 2.35819,5.463002 1.16657,0.715587 4.81167,-1.150375 5.9385,-0.373715 1.12683,0.776661 0.68026,4.847182 1.76416,5.682714 1.08389,0.835532 4.90669,-0.632408 5.94458,0.259627 1.03789,0.892035 0.16118,4.892028 1.15012,5.838038 0.98895,0.94601 4.94612,-0.107276 5.88331,0.890026 0.9372,0.997303 -0.35973,4.881446 0.52306,5.927215 0.88279,1.045769 4.9295,0.419071 5.75538,1.510342 0.82588,1.091271 -0.87656,4.815555 -0.10993,5.949234 0.76663,1.13368 4.85703,0.94067 5.56223,2.113545 0.70521,1.172874 -1.38345,4.695101 -0.74166,5.903846 0.64178,1.208744 4.72952,1.451611 5.30606,2.692799 0.57654,1.241189 -1.87467,4.521451 -1.36501,5.791565 0.50967,1.270115 4.54843,1.946105 4.98978,3.241545 0.44134,1.295439 -2.34465,4.29657 -1.97288,5.613663 0.37177,1.317093 4.3158,2.418548 4.61695,3.753561 0.30115,1.335013 -2.78806,4.023006 -2.55839,5.372156 0.22966,1.34915 4.03427,2.86359 4.19181,4.22305 0.15754,1.35946 -3.19989,3.70386 -3.11493,5.06978 0.085,1.36592 3.70705,3.27618 3.71919,4.64469 0.0122,1.3685 -3.57546,3.34275 -3.63617,4.70996 -0.0607,1.36721 3.33781,3.65166 3.20442,5.0137 -0.13338,1.36204 -3.91052,2.94377 -4.1162,4.29678 -0.20569,1.35301 2.93074,3.98576 2.65334,5.3259 -0.27741,1.34015 -4.20127,2.51143 -4.54961,3.83492 -0.34834,1.32348 2.49048,4.27469 2.0722,5.57776 -0.41828,1.30307 -4.44441,2.05063 -4.93146,3.32959 -0.48704,1.27896 2.02201,4.5152 1.46758,5.76643 -0.55442,1.25123 -4.6372,1.5666 -5.25743,2.78655 -0.62023,1.21994 1.53061,4.70455 0.84633,5.88975 z"
         inkscape:randomized="0"
         inkscape:rounded="0.23"
         inkscape:flatsided="false"
         sodipodi:arg2="0.57684611"
         sodipodi:arg1="0.52359878"
         sodipodi:r2="87.886475"
         sodipodi:r1="91.439735"
         sodipodi:cy="116.6479"
         sodipodi:cx="212.85715"
         sodipodi:sides="59"
         id="path19089"
         style="display:inline;fill:none;fill-opacity:1;stroke:#000000;stroke-width:6.33369923;stroke-miterlimit:4;stroke-dasharray:none;stroke-opacity:1"
         sodipodi:type="star" />
      <path
         transform="matrix(0.2590126,0,0,0.2590126,353.27413,333.99027)"
         d="m 292.04628,162.36777 c -0.68428,1.18521 -4.77745,1.06482 -5.52384,2.21193 -0.74639,1.14711 1.02188,4.84059 0.21549,5.94635 -0.80638,1.10576 -4.86357,0.55098 -5.72766,1.61225 -0.86409,1.06127 0.50157,4.92178 -0.41778,5.93556 -0.91935,1.01378 -4.89459,0.0309 -5.86659,0.99431 -0.972,0.96341 -0.0244,4.94721 -1.04632,5.85753 -1.0219,0.91031 -4.87014,-0.48955 -5.93904,0.36509 -1.0689,0.85464 -0.55015,4.91659 -1.66302,5.71313 -1.11287,0.79654 -4.79051,-1.00444 -5.9442,-0.26826 -1.15369,0.73618 -1.06963,4.83026 -2.26086,5.504 -1.19124,0.67373 -4.65661,-1.50795 -5.88202,-0.89857 -1.2254,0.60938 -1.57699,4.6892 -2.83309,5.2325 -1.2561,0.54329 -4.46994,-1.99437 -5.75318,-1.5187 -1.28323,0.47568 -2.06649,4.49501 -3.37322,4.90172 -1.30673,0.4067 -4.23263,-2.4582 -5.55916,-2.12162 -1.32652,0.33658 -2.53258,4.24989 -3.87513,4.51539 -1.34256,0.26551 -3.94737,-2.89417 -5.30215,-2.7005 -1.35478,0.19368 -2.96997,3.95662 -4.33314,4.07792 -1.36317,0.12129 -3.61737,-3.29736 -4.98506,-3.24879 -1.3677,0.0486 -3.37371,3.61852 -4.74205,3.59423 -1.36834,-0.0243 -3.24639,-3.66318 -4.6115,-3.76026 -1.36511,-0.0971 -3.73922,3.23941 -5.09723,3.06981 -1.358,-0.1696 -2.83862,-3.9875 -4.18568,-4.22913 -1.34705,-0.24163 -4.06236,2.82361 -5.39465,2.51062 -1.33228,-0.31298 -2.39869,-4.26663 -3.71244,-4.65008 -1.31374,-0.38345 -4.33948,2.37581 -5.63095,1.92298 -1.29147,-0.45282 -1.93159,-4.49742 -3.19713,-5.01834 -1.26554,-0.52092 -4.56743,1.90109 -5.80345,1.31355 -1.23603,-0.58753 -1.44261,-4.67726 -2.64561,-5.32975 -1.203,-0.65248 -4.74362,1.40483 -5.91019,0.68925 -1.16657,-0.71559 -0.93727,-4.80411 -2.0641,-5.58077 -1.12683,-0.77666 -4.86608,0.89266 -5.94998,0.0571 -1.0839,-0.83553 -0.42131,-4.87651 -1.45921,-5.76855 -1.03789,-0.89203 -4.93339,0.37037 -5.92234,-0.57564 -0.98894,-0.94601 0.0994,-4.89367 -0.83777,-5.89098 -0.9372,-0.9973 -4.94482,-0.15611 -5.82761,-1.20188 -0.88279,-1.04577 0.61902,-4.85539 -0.20686,-5.94666 -0.82588,-1.09127 -4.9002,-0.68083 -5.66683,-1.81451 -0.76663,-1.13368 1.1316,-4.76208 0.4264,-5.93495 -0.70521,-1.17288 -4.80008,-1.19784 -5.44186,-2.40659 -0.64178,-1.20874 1.63137,-4.61481 1.05483,-5.856 -0.57654,-1.24119 -4.64556,-1.70127 -5.15523,-2.97138 -0.50966,-1.27012 2.11266,-4.41527 1.67132,-5.71071 -0.44135,-1.29544 -4.43841,-2.18543 -4.81019,-3.50252 -0.37177,-1.31709 2.57001,-4.16569 2.26886,-5.50071 -0.30115,-1.33501 -4.18097,-2.64481 -4.41064,-3.99396 -0.22967,-1.34915 2.99823,-3.86892 2.84069,-5.22838 -0.15754,-1.35946 -3.87615,-3.07424 -3.96112,-4.44016 -0.085,-1.36592 3.39249,-3.52831 3.38034,-4.89681 -0.0121,-1.36851 -3.52742,-3.46884 -3.46671,-4.83605 0.0607,-1.36721 3.7483,-3.14772 3.88169,-4.50976 0.13338,-1.36205 -3.13873,-3.82413 -2.93304,-5.17714 0.20569,-1.35302 4.06165,-2.73147 4.33906,-4.07162 0.2774,-1.340147 -2.71447,-4.136088 -2.36613,-5.459572 0.34834,-1.323484 4.32898,-2.284268 4.74726,-3.587336 0.41829,-1.303069 -2.25944,-4.401187 -1.7724,-5.680147 0.48704,-1.27896 4.54725,-1.811185 5.10168,-3.062411 0.55442,-1.251225 -1.77883,-4.616417 -1.1586,-5.836362 0.62023,-1.219944 4.71401,-1.31758 5.39829,-2.502786 0.68428,-1.185206 -1.27806,-4.779343 -0.53167,-5.92645 0.74639,-1.147106 4.82735,-0.809047 5.63374,-1.914804 0.80638,-1.105757 -0.76281,-4.888116 0.10128,-5.949388 0.86409,-1.061272 4.88601,-0.291348 5.80536,-1.305127 0.91934,-1.013779 -0.23891,-4.941505 0.73309,-5.904917 0.972,-0.963413 4.88929,0.229653 5.91119,-0.680663 1.0219,-0.910315 0.2877,-4.938904 1.3566,-5.793541 1.06889,-0.854638 4.83718,0.748052 5.95005,-0.04848 1.11287,-0.796537 0.81104,-4.880344 1.96472,-5.616523 1.15369,-0.736179 4.73027,1.257975 5.9215,0.584241 1.19123,-0.673733 1.3252,-4.766487 2.5506,-5.375866 1.2254,-0.609379 4.56975,1.753645 5.82585,1.210348 1.25609,-0.543297 1.82433,-4.598625 3.10756,-5.0743 1.28323,-0.475674 4.35746,2.229446 5.66419,1.822742 1.30673,-0.406704 2.30281,-4.378659 3.62933,-4.715239 1.32652,-0.336581 4.0958,2.679985 5.43836,2.414482 1.34255,-0.265504 2.75518,-4.10908 4.10996,-4.302753 1.35479,-0.193673 3.78774,3.10016 5.15091,2.978866 1.36317,-0.121294 3.17634,-3.792943 4.54403,-3.841514 1.3677,-0.04857 3.43675,3.485208 4.80509,3.509497 1.36834,0.02429 3.56151,-3.433831 4.92662,-3.33675 1.36511,0.09708 3.04683,3.830768 4.40483,4.000365 1.35801,0.169598 3.90633,-3.035812 5.25339,-2.794179 1.34705,0.241634 2.62238,4.132923 3.95466,4.445907 1.33229,0.312985 4.20689,-2.603396 5.52063,-2.219949 1.31374,0.383448 2.16822,4.388251 3.45969,4.841076 1.29147,0.452825 4.45977,-2.141484 5.72531,-1.620566 1.26555,0.520918 1.6895,4.593858 2.92552,5.181392 1.23602,0.587535 4.66214,-1.655307 5.86514,-1.002821 1.203,0.652485 1.19162,4.747415 2.35819,5.463002 1.16657,0.715587 4.81167,-1.150375 5.9385,-0.373715 1.12683,0.776661 0.68026,4.847182 1.76416,5.682714 1.08389,0.835532 4.90669,-0.632408 5.94458,0.259627 1.03789,0.892035 0.16118,4.892028 1.15012,5.838038 0.98895,0.94601 4.94612,-0.107276 5.88331,0.890026 0.9372,0.997303 -0.35973,4.881446 0.52306,5.927215 0.88279,1.045769 4.9295,0.419071 5.75538,1.510342 0.82588,1.091271 -0.87656,4.815555 -0.10993,5.949234 0.76663,1.13368 4.85703,0.94067 5.56223,2.113545 0.70521,1.172874 -1.38345,4.695101 -0.74166,5.903846 0.64178,1.208744 4.72952,1.451611 5.30606,2.692799 0.57654,1.241189 -1.87467,4.521451 -1.36501,5.791565 0.50967,1.270115 4.54843,1.946105 4.98978,3.241545 0.44134,1.295439 -2.34465,4.29657 -1.97288,5.613663 0.37177,1.317093 4.3158,2.418548 4.61695,3.753561 0.30115,1.335013 -2.78806,4.023006 -2.55839,5.372156 0.22966,1.34915 4.03427,2.86359 4.19181,4.22305 0.15754,1.35946 -3.19989,3.70386 -3.11493,5.06978 0.085,1.36592 3.70705,3.27618 3.71919,4.64469 0.0122,1.3685 -3.57546,3.34275 -3.63617,4.70996 -0.0607,1.36721 3.33781,3.65166 3.20442,5.0137 -0.13338,1.36204 -3.91052,2.94377 -4.1162,4.29678 -0.20569,1.35301 2.93074,3.98576 2.65334,5.3259 -0.27741,1.34015 -4.20127,2.51143 -4.54961,3.83492 -0.34834,1.32348 2.49048,4.27469 2.0722,5.57776 -0.41828,1.30307 -4.44441,2.05063 -4.93146,3.32959 -0.48704,1.27896 2.02201,4.5152 1.46758,5.76643 -0.55442,1.25123 -4.6372,1.5666 -5.25743,2.78655 -0.62023,1.21994 1.53061,4.70455 0.84633,5.88975 z"
         inkscape:randomized="0"
         inkscape:rounded="0.23"
         inkscape:flatsided="false"
         sodipodi:arg2="0.57684611"
         sodipodi:arg1="0.52359878"
         sodipodi:r2="87.886475"
         sodipodi:r1="91.439735"
         sodipodi:cy="116.6479"
         sodipodi:cx="212.85715"
         sodipodi:sides="59"
         id="path20060"
         style="display:inline;fill:none;fill-opacity:1;stroke:#000000;stroke-width:6.45815516;stroke-miterlimit:4;stroke-dasharray:none;stroke-opacity:1"
         sodipodi:type="star" />
      <path
         transform="matrix(0.1822273,0,0,0.1822273,369.62171,342.94876)"
         d="m 292.04628,162.36777 c -0.68428,1.18521 -4.77745,1.06482 -5.52384,2.21193 -0.74639,1.14711 1.02188,4.84059 0.21549,5.94635 -0.80638,1.10576 -4.86357,0.55098 -5.72766,1.61225 -0.86409,1.06127 0.50157,4.92178 -0.41778,5.93556 -0.91935,1.01378 -4.89459,0.0309 -5.86659,0.99431 -0.972,0.96341 -0.0244,4.94721 -1.04632,5.85753 -1.0219,0.91031 -4.87014,-0.48955 -5.93904,0.36509 -1.0689,0.85464 -0.55015,4.91659 -1.66302,5.71313 -1.11287,0.79654 -4.79051,-1.00444 -5.9442,-0.26826 -1.15369,0.73618 -1.06963,4.83026 -2.26086,5.504 -1.19124,0.67373 -4.65661,-1.50795 -5.88202,-0.89857 -1.2254,0.60938 -1.57699,4.6892 -2.83309,5.2325 -1.2561,0.54329 -4.46994,-1.99437 -5.75318,-1.5187 -1.28323,0.47568 -2.06649,4.49501 -3.37322,4.90172 -1.30673,0.4067 -4.23263,-2.4582 -5.55916,-2.12162 -1.32652,0.33658 -2.53258,4.24989 -3.87513,4.51539 -1.34256,0.26551 -3.94737,-2.89417 -5.30215,-2.7005 -1.35478,0.19368 -2.96997,3.95662 -4.33314,4.07792 -1.36317,0.12129 -3.61737,-3.29736 -4.98506,-3.24879 -1.3677,0.0486 -3.37371,3.61852 -4.74205,3.59423 -1.36834,-0.0243 -3.24639,-3.66318 -4.6115,-3.76026 -1.36511,-0.0971 -3.73922,3.23941 -5.09723,3.06981 -1.358,-0.1696 -2.83862,-3.9875 -4.18568,-4.22913 -1.34705,-0.24163 -4.06236,2.82361 -5.39465,2.51062 -1.33228,-0.31298 -2.39869,-4.26663 -3.71244,-4.65008 -1.31374,-0.38345 -4.33948,2.37581 -5.63095,1.92298 -1.29147,-0.45282 -1.93159,-4.49742 -3.19713,-5.01834 -1.26554,-0.52092 -4.56743,1.90109 -5.80345,1.31355 -1.23603,-0.58753 -1.44261,-4.67726 -2.64561,-5.32975 -1.203,-0.65248 -4.74362,1.40483 -5.91019,0.68925 -1.16657,-0.71559 -0.93727,-4.80411 -2.0641,-5.58077 -1.12683,-0.77666 -4.86608,0.89266 -5.94998,0.0571 -1.0839,-0.83553 -0.42131,-4.87651 -1.45921,-5.76855 -1.03789,-0.89203 -4.93339,0.37037 -5.92234,-0.57564 -0.98894,-0.94601 0.0994,-4.89367 -0.83777,-5.89098 -0.9372,-0.9973 -4.94482,-0.15611 -5.82761,-1.20188 -0.88279,-1.04577 0.61902,-4.85539 -0.20686,-5.94666 -0.82588,-1.09127 -4.9002,-0.68083 -5.66683,-1.81451 -0.76663,-1.13368 1.1316,-4.76208 0.4264,-5.93495 -0.70521,-1.17288 -4.80008,-1.19784 -5.44186,-2.40659 -0.64178,-1.20874 1.63137,-4.61481 1.05483,-5.856 -0.57654,-1.24119 -4.64556,-1.70127 -5.15523,-2.97138 -0.50966,-1.27012 2.11266,-4.41527 1.67132,-5.71071 -0.44135,-1.29544 -4.43841,-2.18543 -4.81019,-3.50252 -0.37177,-1.31709 2.57001,-4.16569 2.26886,-5.50071 -0.30115,-1.33501 -4.18097,-2.64481 -4.41064,-3.99396 -0.22967,-1.34915 2.99823,-3.86892 2.84069,-5.22838 -0.15754,-1.35946 -3.87615,-3.07424 -3.96112,-4.44016 -0.085,-1.36592 3.39249,-3.52831 3.38034,-4.89681 -0.0121,-1.36851 -3.52742,-3.46884 -3.46671,-4.83605 0.0607,-1.36721 3.7483,-3.14772 3.88169,-4.50976 0.13338,-1.36205 -3.13873,-3.82413 -2.93304,-5.17714 0.20569,-1.35302 4.06165,-2.73147 4.33906,-4.07162 0.2774,-1.340147 -2.71447,-4.136088 -2.36613,-5.459572 0.34834,-1.323484 4.32898,-2.284268 4.74726,-3.587336 0.41829,-1.303069 -2.25944,-4.401187 -1.7724,-5.680147 0.48704,-1.27896 4.54725,-1.811185 5.10168,-3.062411 0.55442,-1.251225 -1.77883,-4.616417 -1.1586,-5.836362 0.62023,-1.219944 4.71401,-1.31758 5.39829,-2.502786 0.68428,-1.185206 -1.27806,-4.779343 -0.53167,-5.92645 0.74639,-1.147106 4.82735,-0.809047 5.63374,-1.914804 0.80638,-1.105757 -0.76281,-4.888116 0.10128,-5.949388 0.86409,-1.061272 4.88601,-0.291348 5.80536,-1.305127 0.91934,-1.013779 -0.23891,-4.941505 0.73309,-5.904917 0.972,-0.963413 4.88929,0.229653 5.91119,-0.680663 1.0219,-0.910315 0.2877,-4.938904 1.3566,-5.793541 1.06889,-0.854638 4.83718,0.748052 5.95005,-0.04848 1.11287,-0.796537 0.81104,-4.880344 1.96472,-5.616523 1.15369,-0.736179 4.73027,1.257975 5.9215,0.584241 1.19123,-0.673733 1.3252,-4.766487 2.5506,-5.375866 1.2254,-0.609379 4.56975,1.753645 5.82585,1.210348 1.25609,-0.543297 1.82433,-4.598625 3.10756,-5.0743 1.28323,-0.475674 4.35746,2.229446 5.66419,1.822742 1.30673,-0.406704 2.30281,-4.378659 3.62933,-4.715239 1.32652,-0.336581 4.0958,2.679985 5.43836,2.414482 1.34255,-0.265504 2.75518,-4.10908 4.10996,-4.302753 1.35479,-0.193673 3.78774,3.10016 5.15091,2.978866 1.36317,-0.121294 3.17634,-3.792943 4.54403,-3.841514 1.3677,-0.04857 3.43675,3.485208 4.80509,3.509497 1.36834,0.02429 3.56151,-3.433831 4.92662,-3.33675 1.36511,0.09708 3.04683,3.830768 4.40483,4.000365 1.35801,0.169598 3.90633,-3.035812 5.25339,-2.794179 1.34705,0.241634 2.62238,4.132923 3.95466,4.445907 1.33229,0.312985 4.20689,-2.603396 5.52063,-2.219949 1.31374,0.383448 2.16822,4.388251 3.45969,4.841076 1.29147,0.452825 4.45977,-2.141484 5.72531,-1.620566 1.26555,0.520918 1.6895,4.593858 2.92552,5.181392 1.23602,0.587535 4.66214,-1.655307 5.86514,-1.002821 1.203,0.652485 1.19162,4.747415 2.35819,5.463002 1.16657,0.715587 4.81167,-1.150375 5.9385,-0.373715 1.12683,0.776661 0.68026,4.847182 1.76416,5.682714 1.08389,0.835532 4.90669,-0.632408 5.94458,0.259627 1.03789,0.892035 0.16118,4.892028 1.15012,5.838038 0.98895,0.94601 4.94612,-0.107276 5.88331,0.890026 0.9372,0.997303 -0.35973,4.881446 0.52306,5.927215 0.88279,1.045769 4.9295,0.419071 5.75538,1.510342 0.82588,1.091271 -0.87656,4.815555 -0.10993,5.949234 0.76663,1.13368 4.85703,0.94067 5.56223,2.113545 0.70521,1.172874 -1.38345,4.695101 -0.74166,5.903846 0.64178,1.208744 4.72952,1.451611 5.30606,2.692799 0.57654,1.241189 -1.87467,4.521451 -1.36501,5.791565 0.50967,1.270115 4.54843,1.946105 4.98978,3.241545 0.44134,1.295439 -2.34465,4.29657 -1.97288,5.613663 0.37177,1.317093 4.3158,2.418548 4.61695,3.753561 0.30115,1.335013 -2.78806,4.023006 -2.55839,5.372156 0.22966,1.34915 4.03427,2.86359 4.19181,4.22305 0.15754,1.35946 -3.19989,3.70386 -3.11493,5.06978 0.085,1.36592 3.70705,3.27618 3.71919,4.64469 0.0122,1.3685 -3.57546,3.34275 -3.63617,4.70996 -0.0607,1.36721 3.33781,3.65166 3.20442,5.0137 -0.13338,1.36204 -3.91052,2.94377 -4.1162,4.29678 -0.20569,1.35301 2.93074,3.98576 2.65334,5.3259 -0.27741,1.34015 -4.20127,2.51143 -4.54961,3.83492 -0.34834,1.32348 2.49048,4.27469 2.0722,5.57776 -0.41828,1.30307 -4.44441,2.05063 -4.93146,3.32959 -0.48704,1.27896 2.02201,4.5152 1.46758,5.76643 -0.55442,1.25123 -4.6372,1.5666 -5.25743,2.78655 -0.62023,1.21994 1.53061,4.70455 0.84633,5.88975 z"
         inkscape:randomized="0"
         inkscape:rounded="0.23"
         inkscape:flatsided="false"
         sodipodi:arg2="0.57684611"
         sodipodi:arg1="0.52359878"
         sodipodi:r2="87.886475"
         sodipodi:r1="91.439735"
         sodipodi:cy="116.6479"
         sodipodi:cx="212.85715"
         sodipodi:sides="59"
         id="path20062"
         style="display:inline;fill:none;fill-opacity:1;stroke:#000000;stroke-width:7.17323542;stroke-miterlimit:4;stroke-dasharray:none;stroke-opacity:1"
         sodipodi:type="star" />
      <path
         transform="matrix(0.8767,0,0,0.8767,-66.736288,-148.95567)"
         d="m 370.73708,678.81356 c -3.96424,3.96424 -2.94317,-0.31865 -7.11278,3.42899 -4.16961,3.74764 0.19755,3.18759 -4.16561,6.70801 -4.36316,3.52041 -2.89263,-0.62968 -7.43697,2.65352 -4.54433,3.28321 -0.14239,3.19054 -4.85502,6.22723 -4.71264,3.03669 -2.80931,-0.93358 -7.67689,1.84799 -4.86758,2.78157 -0.48072,3.15732 -5.48944,5.67589 -5.00872,2.51857 -2.69416,-1.2269 -7.82982,1.02152 -5.13567,2.24842 -0.8136,3.08834 -6.06165,5.06024 -5.24805,1.97191 -2.54848,-1.50632 -7.89405,0.18348 -5.34556,1.68979 -1.13726,2.98436 -6.56518,4.38726 -5.42792,1.4029 -2.37393,-1.76868 -7.86883,-0.65665 -5.49489,1.11202 -1.44803,2.84657 -6.99432,3.66457 -5.54629,0.818 -2.17249,-2.01099 -7.75445,-1.48934 -5.58197,0.52166 -1.7424,2.67653 -7.34422,2.90036 -5.60182,0.22383 -1.94642,-2.23052 -7.55222,-2.30514 -5.60579,-0.0746 -2.01702,2.47616 -7.6109,2.10328 -5.59387,-0.37287 -1.69831,-2.42477 -7.26441,-3.09484 -5.5661,-0.67006 -2.2688,2.24774 -7.79135,1.28239 -5.52255,-0.96536 -1.43094,-2.59156 -6.89429,-3.84947 -5.46334,-1.25791 -2.49487,1.99384 -7.88352,0.44695 -5.38865,-1.5469 -1.14737,-2.72898 -6.44606,-4.56048 -5.29869,-1.8315 -2.69267,1.71736 -7.88637,-0.39355 -5.19369,-2.11091 -0.8508,-2.83548 -5.92479,-5.21982 -5.07399,-2.38434 -2.85996,1.42142 -7.79986,-1.22959 -4.9399,-2.65101 -0.54459,-2.90984 -5.33639,-5.82001 -4.79181,-2.91016 -2.99484,1.10937 -7.62497,-2.0517 -4.63013,-3.16107 -0.23221,-2.95125 -4.68754,-6.35426 -4.45533,-3.40302 -3.09579,0.78475 -7.36369,-2.85056 -4.2679,-3.63532 0.0828,-2.95921 -3.98556,-6.81652 -4.06837,-3.85731 -3.16167,0.45124 -7.01898,-3.61713 -3.85731,-4.06836 0.39688,-2.93364 -3.23844,-7.20154 -3.63531,-4.26789 -3.19172,0.11263 -6.59473,-4.3427 -3.40302,-4.45533 0.70646,-2.87484 -2.45461,-7.50497 -3.16107,-4.63013 -3.18562,-0.22727 -6.09578,-5.01908 -2.91016,-4.79181 1.00803,-2.78346 -1.64297,-7.72336 -2.65101,-4.9399 -3.14341,-0.5646 -5.52775,-5.63859 -2.38434,-5.07399 1.29819,-2.66054 -0.81272,-7.85424 -2.11092,-5.1937 -3.06559,-0.89552 -4.89709,-6.19421 -1.8315,-5.29868 1.57363,-2.50748 0.0267,-7.89613 -1.54689,-5.38865 -2.95303,-1.2163 -4.21093,-6.67964 -1.25791,-5.46335 1.83124,-2.32601 0.86589,-7.84856 -0.96536,-5.52255 -2.80702,-1.5233 -3.47708,-7.0894 -0.67007,-5.5661 2.06811,-2.11819 1.69523,-7.71206 -0.37287,-5.59387 -2.62919,-1.81303 -2.70382,-7.41882 -0.0746,-5.6058 2.28154,-1.88636 2.50537,-7.48818 0.22383,-5.60182 -2.42159,-2.08223 -1.89993,-7.66419 0.52165,-5.58197 2.46912,-1.63316 3.28712,-7.17945 0.818,-5.54629 -2.18654,-2.32783 -1.07452,-7.82273 1.11203,-5.49489 2.62874,-1.36145 4.03163,-6.78937 1.4029,-5.42792 -1.92672,-2.54706 -0.23692,-7.89263 1.6898,-5.34556 2.75855,-1.07432 4.73046,-6.32237 1.9719,-5.24805 -1.64507,-2.73743 0.60335,-7.8731 2.24842,-5.13566 2.85712,-0.77502 5.37568,-5.78374 2.51857,-5.00872 -1.34478,-2.89678 1.4368,-7.76436 2.78157,-4.86757 2.92331,-0.46693 5.96,-5.17957 3.0367,-4.71264 -1.02925,-3.02331 2.25396,-7.56765 3.2832,-4.54434 2.95638,-0.15356 6.47679,-4.51672 3.52041,-4.36316 -0.70206,-3.11559 3.04558,-7.2852 3.74764,-4.16961 2.95596,0.16155 6.9202,-3.80269 3.96424,-3.96425 -0.36692,-3.17256 3.80269,-6.9202 4.16961,-3.74764 2.92204,0.47483 7.2852,-3.04558 4.36316,-3.52041 -0.0276,-3.19359 4.51672,-6.4768 4.54434,-3.2832 2.85501,0.78274 7.56765,-2.25395 4.71264,-3.03669 0.312,-3.17843 5.17958,-5.96001 4.86757,-2.78157 2.75563,1.08178 7.76435,-1.43679 5.00872,-2.51856 0.64808,-3.12726 5.78375,-5.37568 5.13566,-2.24843 2.62504,1.36855 7.87309,-0.60336 5.24805,-1.9719 0.97681,-3.04066 6.32237,-4.73045 5.34557,-1.6898 2.46471,1.63982 7.89263,0.23692 5.42792,-1.4029 1.29448,-2.9196 6.78937,-4.03163 5.4949,-1.11202 2.27644,1.89252 7.82273,1.07452 5.54629,-0.818 1.59748,-2.76547 7.17945,-3.28713 5.58196,-0.52165 2.06238,2.12377 7.66419,1.89994 5.60182,-0.22383 1.88239,-2.58 7.48818,-2.50538 5.60579,0.0746 1.82495,2.33096 7.41882,2.70383 5.59388,0.37287 2.14596,-2.3653 7.71206,-1.69524 5.5661,0.67007 1.56685,2.51173 7.0894,3.47708 5.52255,0.96536 2.38521,-2.1238 7.84856,-0.86589 5.46334,1.25791 1.29099,2.66404 6.67964,4.21094 5.38865,1.5469 2.59745,-1.85823 7.89614,-0.0267 5.29868,1.8315 1.0005,2.78617 6.1942,4.89708 5.1937,2.11091 2.78025,-1.57161 7.85424,0.81273 5.074,2.38434 0.69869,2.87673 5.63859,5.52774 4.9399,2.65101 2.93156,-1.26719 7.72336,1.64298 4.79181,2.91016 0.38895,2.9347 5.01908,6.09577 4.63013,3.16107 3.04964,-0.9484 7.50497,2.45461 4.45533,3.40302 0.0748,2.95943 4.3427,6.59474 4.2679,3.63531 3.13318,-0.61888 7.20155,3.23843 4.06837,3.85731 -0.24019,2.95061 3.61712,7.01898 3.85731,4.06837 3.18121,-0.28233 6.81652,3.98556 3.63531,4.2679 -0.55245,2.90837 2.85056,7.3637 3.40302,4.45532 3.19319,0.0574 6.35426,4.68753 3.16107,4.63013 -0.85846,2.83317 2.0517,7.62497 2.91017,4.79181 3.16901,0.3965 5.82001,5.3364 2.65101,4.9399 -1.15474,2.72586 1.2296,7.79986 2.38434,5.07399 3.1089,0.73109 5.21981,5.92479 2.11091,5.1937 -1.43795,2.58768 0.39355,7.88637 1.8315,5.29868 3.01358,1.05741 4.56048,6.44606 1.5469,5.38865 -1.70486,2.42017 -0.44695,7.88352 1.25791,5.46334 2.88411,1.37174 3.84947,6.89429 0.96535,5.52255 -1.95245,2.22525 -1.28238,7.79135 0.67006,5.5661 2.72196,1.67053 3.09484,7.26441 0.37287,5.59387 -2.17792,2.00511 -2.10329,7.6109 0.0746,5.60579 2.52898,1.9504 2.30515,7.55222 -0.22383,5.60181 -2.37871,1.76225 -2.90036,7.34421 -0.52166,5.58197 2.30733,2.20817 1.48933,7.75446 -0.818,5.54629 -2.55254,1.49943 -3.66457,6.99432 -1.11202,5.49489 2.05955,2.44091 0.65665,7.86883 -1.4029,5.42792 -2.69746,1.21961 -4.38726,6.56518 -1.6898,5.34556 1.78843,2.64599 -0.18347,7.89405 -1.97191,5.24805 -2.81182,0.92598 -5.06025,6.06164 -2.24842,5.13567 1.49705,2.82111 -1.02152,7.82983 -2.51856,5.00872 -2.89431,0.62186 -5.67589,5.48944 -2.78157,4.86757 1.18871,2.96424 -1.84799,7.67688 -3.03669,4.71264 -2.94402,0.31069 -6.22722,4.85503 -3.28321,4.54434 0.86688,3.07381 -2.65353,7.43697 -3.52041,4.36315 -2.96037,-0.004 -6.708,4.16561 -3.74764,4.16961 0.53524,3.14853 -3.429,7.11278 z"
         inkscape:randomized="0"
         inkscape:rounded="0.71"
         inkscape:flatsided="false"
         sodipodi:arg2="0.83864549"
         sodipodi:arg1="0.78539816"
         sodipodi:r2="140.05742"
         sodipodi:r1="142.46375"
         sodipodi:cy="578.07648"
         sodipodi:cx="270"
         sodipodi:sides="59"
         id="path15912"
         style="display:inline;opacity:1;fill:#333333;fill-opacity:1;stroke:#000000;stroke-width:4.76599979;stroke-miterlimit:4;stroke-dasharray:none;stroke-opacity:1"
         sodipodi:type="star" />
      <circle
         transform="matrix(0.9151993,0,0,0.9151993,-204.94704,59.855335)"
         id="path15914"
         style="display:inline;opacity:1;fill:#ffffff;fill-opacity:1;stroke:#000000;stroke-width:4.76599979;stroke-miterlimit:4;stroke-dasharray:none;stroke-opacity:1"
         cx="409.61685"
         cy="325.55743"
         r="112.63201" />
      <circle
         transform="matrix(0.8767,0,0,0.8767,-35.464277,90.219485)"
         id="path15916"
         style="display:inline;opacity:1;fill:none;fill-opacity:0.12790695;stroke:#000000;stroke-width:4.76599979;stroke-miterlimit:4;stroke-dasharray:none;stroke-opacity:1"
         cx="234.28572"
         cy="305.21933"
         r="18.571428" />
      <path
         id="path15918"
         d="m 168.09537,341.51841 -5.3136,-86.34606"
         style="display:inline;fill:none;fill-rule:evenodd;stroke:#000000;stroke-width:0.87669998px;stroke-linecap:butt;stroke-linejoin:miter;stroke-opacity:1"
         inkscape:connector-curvature="0" />
      <path
         id="path15920"
         d="m 171.63778,342.84682 11.07001,-86.34607"
         style="display:inline;fill:none;fill-rule:evenodd;stroke:#000000;stroke-width:0.87669998px;stroke-linecap:butt;stroke-linejoin:miter;stroke-opacity:1"
         inkscape:connector-curvature="0" />
      <path
         id="path15922"
         d="m 175.62298,343.28962 29.66763,-81.03247"
         style="display:inline;fill:none;fill-rule:evenodd;stroke:#000000;stroke-width:0.87669998px;stroke-linecap:butt;stroke-linejoin:miter;stroke-opacity:1"
         inkscape:connector-curvature="0" />
      <path
         id="path15926"
         d="m 179.60818,344.17522 45.60844,-71.73366"
         style="display:inline;fill:none;fill-rule:evenodd;stroke:#000000;stroke-width:0.87669998px;stroke-linecap:butt;stroke-linejoin:miter;stroke-opacity:1"
         inkscape:connector-curvature="0" />
      <path
         id="path15928"
         d="m 182.26498,346.83202 57.12125,-62.87765"
         style="display:inline;fill:none;fill-rule:evenodd;stroke:#000000;stroke-width:0.87669998px;stroke-linecap:butt;stroke-linejoin:miter;stroke-opacity:1"
         inkscape:connector-curvature="0" />
      <path
         id="path15930"
         d="m 185.36458,350.37442 67.74846,-53.57884"
         style="display:inline;fill:none;fill-rule:evenodd;stroke:#000000;stroke-width:0.87669998px;stroke-linecap:butt;stroke-linejoin:miter;stroke-opacity:1"
         inkscape:connector-curvature="0" />
      <path
         id="path15932"
         d="M 186.25019,354.80243 265.06865,318.9356"
         style="display:inline;fill:none;fill-rule:evenodd;stroke:#000000;stroke-width:0.87669998px;stroke-linecap:butt;stroke-linejoin:miter;stroke-opacity:1"
         inkscape:connector-curvature="0" />
      <path
         id="path15934"
         d="m 186.69299,359.23043 85.46046,-7.5276"
         style="display:inline;fill:none;fill-rule:evenodd;stroke:#000000;stroke-width:0.87669998px;stroke-linecap:butt;stroke-linejoin:miter;stroke-opacity:1"
         inkscape:connector-curvature="0" />
      <path
         id="path15938"
         d="m 177.39418,255.61514 -17.71201,88.11727"
         style="display:inline;fill:none;fill-rule:evenodd;stroke:#000000;stroke-width:0.87669998px;stroke-linecap:butt;stroke-linejoin:miter;stroke-opacity:1"
         inkscape:connector-curvature="0" />
      <path
         id="path15940"
         d="m 167.20978,342.40401 54.90724,-72.61926"
         style="display:inline;fill:none;fill-rule:evenodd;stroke:#000000;stroke-width:0.87669998px;stroke-linecap:butt;stroke-linejoin:miter;stroke-opacity:1"
         inkscape:connector-curvature="0" />
      <path
         id="path15942"
         d="m 184.47898,350.37442 84.13207,-19.48321"
         style="display:inline;fill:none;fill-rule:evenodd;stroke:#000000;stroke-width:0.87669998px;stroke-linecap:butt;stroke-linejoin:miter;stroke-opacity:1"
         inkscape:connector-curvature="0" />
      <path
         id="path15944"
         d="m 185.36458,362.77283 83.24647,19.04041"
         style="display:inline;fill:none;fill-rule:evenodd;stroke:#000000;stroke-width:0.87669998px;stroke-linecap:butt;stroke-linejoin:miter;stroke-opacity:1"
         inkscape:connector-curvature="0" />
      <path
         id="path15946"
         d="m 183.59339,368.08644 76.60446,39.40923"
         style="display:inline;fill:none;fill-rule:evenodd;stroke:#000000;stroke-width:0.87669998px;stroke-linecap:butt;stroke-linejoin:miter;stroke-opacity:1"
         inkscape:connector-curvature="0" />
      <path
         id="path15948"
         d="m 179.60818,371.62884 64.20605,58.44965"
         style="display:inline;fill:none;fill-rule:evenodd;stroke:#000000;stroke-width:0.87669998px;stroke-linecap:butt;stroke-linejoin:miter;stroke-opacity:1"
         inkscape:connector-curvature="0" />
      <path
         id="path15950"
         d="m 177.39418,372.95724 46.05123,72.17646"
         style="display:inline;fill:none;fill-rule:evenodd;stroke:#000000;stroke-width:0.87669998px;stroke-linecap:butt;stroke-linejoin:miter;stroke-opacity:1"
         inkscape:connector-curvature="0" />
      <path
         id="path15952"
         d="m 173.40898,373.40004 22.58282,83.68927"
         style="display:inline;fill:none;fill-rule:evenodd;stroke:#000000;stroke-width:0.87669998px;stroke-linecap:butt;stroke-linejoin:miter;stroke-opacity:1"
         inkscape:connector-curvature="0" />
      <path
         id="path15954"
         d="m 169.42378,373.40004 -0.8856,86.78887"
         style="display:inline;fill:none;fill-rule:evenodd;stroke:#000000;stroke-width:0.87669998px;stroke-linecap:butt;stroke-linejoin:miter;stroke-opacity:1"
         inkscape:connector-curvature="0" />
      <path
         id="path15956"
         d="M 164.55297,372.95724 137.98494,454.4325"
         style="display:inline;fill:none;fill-rule:evenodd;stroke:#000000;stroke-width:0.87669998px;stroke-linecap:butt;stroke-linejoin:miter;stroke-opacity:1"
         inkscape:connector-curvature="0" />
      <path
         id="path15958"
         d="m 159.68217,368.97204 -50.47924,72.61925"
         style="display:inline;fill:none;fill-rule:evenodd;stroke:#000000;stroke-width:0.87669998px;stroke-linecap:butt;stroke-linejoin:miter;stroke-opacity:1"
         inkscape:connector-curvature="0" />
      <path
         id="path15960"
         d="M 156.58257,367.20083 86.620109,417.68007"
         style="display:inline;fill:none;fill-rule:evenodd;stroke:#000000;stroke-width:0.87669998px;stroke-linecap:butt;stroke-linejoin:miter;stroke-opacity:1"
         inkscape:connector-curvature="0" />
      <path
         id="path15962"
         d="M 154.81136,364.10123 72.450499,385.79845"
         style="display:inline;fill:none;fill-rule:evenodd;stroke:#000000;stroke-width:0.87669998px;stroke-linecap:butt;stroke-linejoin:miter;stroke-opacity:1"
         inkscape:connector-curvature="0" />
      <path
         id="path15964"
         d="M 155.69696,360.11602 67.13689,353.91683"
         style="display:inline;fill:none;fill-rule:evenodd;stroke:#000000;stroke-width:0.87669998px;stroke-linecap:butt;stroke-linejoin:miter;stroke-opacity:1"
         inkscape:connector-curvature="0" />
      <path
         id="path15968"
         d="M 154.36857,353.03122 72.450499,322.478"
         style="display:inline;fill:none;fill-rule:evenodd;stroke:#000000;stroke-width:0.87669998px;stroke-linecap:butt;stroke-linejoin:miter;stroke-opacity:1"
         inkscape:connector-curvature="0" />
      <path
         id="path15970"
         d="M 156.13976,347.71762 93.704909,288.82517"
         style="display:inline;fill:none;fill-rule:evenodd;stroke:#000000;stroke-width:0.87669998px;stroke-linecap:butt;stroke-linejoin:miter;stroke-opacity:1"
         inkscape:connector-curvature="0" />
      <path
         id="path15972"
         d="M 157.91097,345.50362 123.81533,267.12796"
         style="display:inline;fill:none;fill-rule:evenodd;stroke:#000000;stroke-width:0.87669998px;stroke-linecap:butt;stroke-linejoin:miter;stroke-opacity:1"
         inkscape:connector-curvature="0" />
      <path
         id="path15974"
         d="m 187.57859,356.57362 63.32045,63.32046"
         style="display:inline;fill:none;fill-rule:evenodd;stroke:#000000;stroke-width:0.87669998px;stroke-linecap:butt;stroke-linejoin:miter;stroke-opacity:1"
         inkscape:connector-curvature="0" />
      <path
         id="path15976"
         d="M 185.80739,362.33003 205.7334,453.9897"
         style="display:inline;fill:none;fill-rule:evenodd;stroke:#000000;stroke-width:0.87669998px;stroke-linecap:butt;stroke-linejoin:miter;stroke-opacity:1"
         inkscape:connector-curvature="0" />
      <path
         id="path15978"
         d="M 182.70779,368.52923 130.90014,452.2185"
         style="display:inline;fill:none;fill-rule:evenodd;stroke:#000000;stroke-width:0.87669998px;stroke-linecap:butt;stroke-linejoin:miter;stroke-opacity:1"
         inkscape:connector-curvature="0" />
      <path
         id="path15980"
         d="m 185.36458,365.87244 -23.91121,94.75927"
         style="display:inline;fill:none;fill-rule:evenodd;stroke:#000000;stroke-width:0.87669998px;stroke-linecap:butt;stroke-linejoin:miter;stroke-opacity:1"
         inkscape:connector-curvature="0" />
      <path
         id="path15982"
         d="M 174.73738,372.51444 95.033309,426.53609"
         style="display:inline;fill:none;fill-rule:evenodd;stroke:#000000;stroke-width:0.87669998px;stroke-linecap:butt;stroke-linejoin:miter;stroke-opacity:1"
         inkscape:connector-curvature="0" />
      <path
         id="path15984"
         d="m 165.43857,373.84284 -97.85888,-1.3284"
         style="display:inline;fill:none;fill-rule:evenodd;stroke:#000000;stroke-width:0.87669998px;stroke-linecap:butt;stroke-linejoin:miter;stroke-opacity:1"
         inkscape:connector-curvature="0" />
      <path
         id="path15986"
         d="M 170.75218,374.28564 76.435699,402.62487"
         style="display:inline;fill:none;fill-rule:evenodd;stroke:#000000;stroke-width:0.87669998px;stroke-linecap:butt;stroke-linejoin:miter;stroke-opacity:1"
         inkscape:connector-curvature="0" />
      <path
         id="path15988"
         d="M 157.02536,367.64363 79.978099,308.30839"
         style="display:inline;fill:none;fill-rule:evenodd;stroke:#000000;stroke-width:0.87669998px;stroke-linecap:butt;stroke-linejoin:miter;stroke-opacity:1"
         inkscape:connector-curvature="0" />
      <path
         id="path15990"
         d="M 160.56776,371.18604 69.350889,335.76201"
         style="display:inline;fill:none;fill-rule:evenodd;stroke:#000000;stroke-width:0.87669998px;stroke-linecap:butt;stroke-linejoin:miter;stroke-opacity:1"
         inkscape:connector-curvature="0" />
      <path
         id="path15992"
         d="m 155.69696,350.81722 -11.9556,-92.10247"
         style="display:inline;fill:none;fill-rule:evenodd;stroke:#000000;stroke-width:0.87669998px;stroke-linecap:butt;stroke-linejoin:miter;stroke-opacity:1"
         inkscape:connector-curvature="0" />
      <path
         id="path15998"
         d="M 156.58257,366.75804 133.11414,262.69995"
         style="display:inline;fill:none;fill-rule:evenodd;stroke:#000000;stroke-width:0.87669998px;stroke-linecap:butt;stroke-linejoin:miter;stroke-opacity:1"
         inkscape:connector-curvature="0" />
      <path
         id="path16000"
         d="M 152.43603,352.01958 106.89468,275.44693"
         style="display:inline;fill:none;fill-rule:evenodd;stroke:#000000;stroke-width:0.68823153px;stroke-linecap:butt;stroke-linejoin:miter;stroke-opacity:1"
         inkscape:connector-curvature="0" />
      <path
         id="path16002"
         d="m 177.83698,344.17522 89.00287,50.47923"
         style="display:inline;fill:none;fill-rule:evenodd;stroke:#000000;stroke-width:0.87669998px;stroke-linecap:butt;stroke-linejoin:miter;stroke-opacity:1"
         inkscape:connector-curvature="0" />
      <path
         id="path16004"
         d="m 172.96618,342.84682 98.30167,21.25441"
         style="display:inline;fill:none;fill-rule:evenodd;stroke:#000000;stroke-width:0.87669998px;stroke-linecap:butt;stroke-linejoin:miter;stroke-opacity:1"
         inkscape:connector-curvature="0" />
      <rect
         transform="rotate(11.822551)"
         ry="13.165948"
         rx="10.221025"
         y="59.67284"
         x="228.87334"
         height="264.8678"
         width="20.442049"
         id="rect16024"
         style="display:inline;opacity:1;fill:#555555;fill-opacity:1;stroke:#000000;stroke-width:3.21952176;stroke-miterlimit:4;stroke-dasharray:none;stroke-opacity:1" />
      <rect
         transform="rotate(5.5207652)"
         ry="13.580213"
         rx="7.6729841"
         y="86.015556"
         x="177.88083"
         height="16.442389"
         width="62.493622"
         id="rect16995"
         style="display:inline;opacity:1;fill:#555555;fill-opacity:1;stroke:#000000;stroke-width:3.67677617;stroke-miterlimit:4;stroke-dasharray:none;stroke-opacity:1" />
      <circle
         transform="matrix(0.8767,0,0,0.8767,86.620109,-200.27917)"
         id="path16997"
         style="display:inline;opacity:1;fill:#555555;fill-opacity:1;stroke:#000000;stroke-width:4.76599979;stroke-miterlimit:4;stroke-dasharray:none;stroke-opacity:1"
         cx="101.52033"
         cy="355.862"
         r="11.616755" />
      <rect
         transform="matrix(0.69697,-0.7171003,0.6329165,0.7742201,0,0)"
         y="199.72389"
         x="39.228081"
         height="3.1753988"
         width="36.551044"
         id="rect21161"
         style="display:inline;opacity:1;fill:#ffffff;fill-opacity:1;stroke:#000000;stroke-width:2.13384938;stroke-miterlimit:4;stroke-dasharray:none;stroke-opacity:1" />
      <rect
         transform="rotate(45.366673)"
         ry="11.543292"
         rx="6.5220995"
         y="-53.93206"
         x="151.87053"
         height="13.976165"
         width="53.12009"
         id="rect16999"
         style="display:inline;opacity:1;fill:#555555;fill-opacity:1;stroke:#000000;stroke-width:3.12528968;stroke-miterlimit:4;stroke-dasharray:none;stroke-opacity:1" />
      <rect
         transform="matrix(0.7400765,0.6725227,-0.5064378,0.8622765,0,0)"
         ry="10.074176"
         rx="5.4407969"
         y="-10.836419"
         x="280.07397"
         height="15.45781"
         width="269.65347"
         id="rect17003"
         style="display:inline;opacity:1;fill:#b59f55;fill-opacity:1;stroke:#000000;stroke-width:3.65992689;stroke-miterlimit:4;stroke-dasharray:none;stroke-opacity:1" />
      <path
         transform="matrix(0.8767,0,0,0.8767,330.53854,-156.99824)"
         d="m 370.73708,678.81356 c -3.96424,3.96424 -2.94317,-0.31865 -7.11278,3.42899 -4.16961,3.74764 0.19755,3.18759 -4.16561,6.70801 -4.36316,3.52041 -2.89263,-0.62968 -7.43697,2.65352 -4.54433,3.28321 -0.14239,3.19054 -4.85502,6.22723 -4.71264,3.03669 -2.80931,-0.93358 -7.67689,1.84799 -4.86758,2.78157 -0.48072,3.15732 -5.48944,5.67589 -5.00872,2.51857 -2.69416,-1.2269 -7.82982,1.02152 -5.13567,2.24842 -0.8136,3.08834 -6.06165,5.06024 -5.24805,1.97191 -2.54848,-1.50632 -7.89405,0.18348 -5.34556,1.68979 -1.13726,2.98436 -6.56518,4.38726 -5.42792,1.4029 -2.37393,-1.76868 -7.86883,-0.65665 -5.49489,1.11202 -1.44803,2.84657 -6.99432,3.66457 -5.54629,0.818 -2.17249,-2.01099 -7.75445,-1.48934 -5.58197,0.52166 -1.7424,2.67653 -7.34422,2.90036 -5.60182,0.22383 -1.94642,-2.23052 -7.55222,-2.30514 -5.60579,-0.0746 -2.01702,2.47616 -7.6109,2.10328 -5.59387,-0.37287 -1.69831,-2.42477 -7.26441,-3.09484 -5.5661,-0.67006 -2.2688,2.24774 -7.79135,1.28239 -5.52255,-0.96536 -1.43094,-2.59156 -6.89429,-3.84947 -5.46334,-1.25791 -2.49487,1.99384 -7.88352,0.44695 -5.38865,-1.5469 -1.14737,-2.72898 -6.44606,-4.56048 -5.29869,-1.8315 -2.69267,1.71736 -7.88637,-0.39355 -5.19369,-2.11091 -0.8508,-2.83548 -5.92479,-5.21982 -5.07399,-2.38434 -2.85996,1.42142 -7.79986,-1.22959 -4.9399,-2.65101 -0.54459,-2.90984 -5.33639,-5.82001 -4.79181,-2.91016 -2.99484,1.10937 -7.62497,-2.0517 -4.63013,-3.16107 -0.23221,-2.95125 -4.68754,-6.35426 -4.45533,-3.40302 -3.09579,0.78475 -7.36369,-2.85056 -4.2679,-3.63532 0.0828,-2.95921 -3.98556,-6.81652 -4.06837,-3.85731 -3.16167,0.45124 -7.01898,-3.61713 -3.85731,-4.06836 0.39688,-2.93364 -3.23844,-7.20154 -3.63531,-4.26789 -3.19172,0.11263 -6.59473,-4.3427 -3.40302,-4.45533 0.70646,-2.87484 -2.45461,-7.50497 -3.16107,-4.63013 -3.18562,-0.22727 -6.09578,-5.01908 -2.91016,-4.79181 1.00803,-2.78346 -1.64297,-7.72336 -2.65101,-4.9399 -3.14341,-0.5646 -5.52775,-5.63859 -2.38434,-5.07399 1.29819,-2.66054 -0.81272,-7.85424 -2.11092,-5.1937 -3.06559,-0.89552 -4.89709,-6.19421 -1.8315,-5.29868 1.57363,-2.50748 0.0267,-7.89613 -1.54689,-5.38865 -2.95303,-1.2163 -4.21093,-6.67964 -1.25791,-5.46335 1.83124,-2.32601 0.86589,-7.84856 -0.96536,-5.52255 -2.80702,-1.5233 -3.47708,-7.0894 -0.67007,-5.5661 2.06811,-2.11819 1.69523,-7.71206 -0.37287,-5.59387 -2.62919,-1.81303 -2.70382,-7.41882 -0.0746,-5.6058 2.28154,-1.88636 2.50537,-7.48818 0.22383,-5.60182 -2.42159,-2.08223 -1.89993,-7.66419 0.52165,-5.58197 2.46912,-1.63316 3.28712,-7.17945 0.818,-5.54629 -2.18654,-2.32783 -1.07452,-7.82273 1.11203,-5.49489 2.62874,-1.36145 4.03163,-6.78937 1.4029,-5.42792 -1.92672,-2.54706 -0.23692,-7.89263 1.6898,-5.34556 2.75855,-1.07432 4.73046,-6.32237 1.9719,-5.24805 -1.64507,-2.73743 0.60335,-7.8731 2.24842,-5.13566 2.85712,-0.77502 5.37568,-5.78374 2.51857,-5.00872 -1.34478,-2.89678 1.4368,-7.76436 2.78157,-4.86757 2.92331,-0.46693 5.96,-5.17957 3.0367,-4.71264 -1.02925,-3.02331 2.25396,-7.56765 3.2832,-4.54434 2.95638,-0.15356 6.47679,-4.51672 3.52041,-4.36316 -0.70206,-3.11559 3.04558,-7.2852 3.74764,-4.16961 2.95596,0.16155 6.9202,-3.80269 3.96424,-3.96425 -0.36692,-3.17256 3.80269,-6.9202 4.16961,-3.74764 2.92204,0.47483 7.2852,-3.04558 4.36316,-3.52041 -0.0276,-3.19359 4.51672,-6.4768 4.54434,-3.2832 2.85501,0.78274 7.56765,-2.25395 4.71264,-3.03669 0.312,-3.17843 5.17958,-5.96001 4.86757,-2.78157 2.75563,1.08178 7.76435,-1.43679 5.00872,-2.51856 0.64808,-3.12726 5.78375,-5.37568 5.13566,-2.24843 2.62504,1.36855 7.87309,-0.60336 5.24805,-1.9719 0.97681,-3.04066 6.32237,-4.73045 5.34557,-1.6898 2.46471,1.63982 7.89263,0.23692 5.42792,-1.4029 1.29448,-2.9196 6.78937,-4.03163 5.4949,-1.11202 2.27644,1.89252 7.82273,1.07452 5.54629,-0.818 1.59748,-2.76547 7.17945,-3.28713 5.58196,-0.52165 2.06238,2.12377 7.66419,1.89994 5.60182,-0.22383 1.88239,-2.58 7.48818,-2.50538 5.60579,0.0746 1.82495,2.33096 7.41882,2.70383 5.59388,0.37287 2.14596,-2.3653 7.71206,-1.69524 5.5661,0.67007 1.56685,2.51173 7.0894,3.47708 5.52255,0.96536 2.38521,-2.1238 7.84856,-0.86589 5.46334,1.25791 1.29099,2.66404 6.67964,4.21094 5.38865,1.5469 2.59745,-1.85823 7.89614,-0.0267 5.29868,1.8315 1.0005,2.78617 6.1942,4.89708 5.1937,2.11091 2.78025,-1.57161 7.85424,0.81273 5.074,2.38434 0.69869,2.87673 5.63859,5.52774 4.9399,2.65101 2.93156,-1.26719 7.72336,1.64298 4.79181,2.91016 0.38895,2.9347 5.01908,6.09577 4.63013,3.16107 3.04964,-0.9484 7.50497,2.45461 4.45533,3.40302 0.0748,2.95943 4.3427,6.59474 4.2679,3.63531 3.13318,-0.61888 7.20155,3.23843 4.06837,3.85731 -0.24019,2.95061 3.61712,7.01898 3.85731,4.06837 3.18121,-0.28233 6.81652,3.98556 3.63531,4.2679 -0.55245,2.90837 2.85056,7.3637 3.40302,4.45532 3.19319,0.0574 6.35426,4.68753 3.16107,4.63013 -0.85846,2.83317 2.0517,7.62497 2.91017,4.79181 3.16901,0.3965 5.82001,5.3364 2.65101,4.9399 -1.15474,2.72586 1.2296,7.79986 2.38434,5.07399 3.1089,0.73109 5.21981,5.92479 2.11091,5.1937 -1.43795,2.58768 0.39355,7.88637 1.8315,5.29868 3.01358,1.05741 4.56048,6.44606 1.5469,5.38865 -1.70486,2.42017 -0.44695,7.88352 1.25791,5.46334 2.88411,1.37174 3.84947,6.89429 0.96535,5.52255 -1.95245,2.22525 -1.28238,7.79135 0.67006,5.5661 2.72196,1.67053 3.09484,7.26441 0.37287,5.59387 -2.17792,2.00511 -2.10329,7.6109 0.0746,5.60579 2.52898,1.9504 2.30515,7.55222 -0.22383,5.60181 -2.37871,1.76225 -2.90036,7.34421 -0.52166,5.58197 2.30733,2.20817 1.48933,7.75446 -0.818,5.54629 -2.55254,1.49943 -3.66457,6.99432 -1.11202,5.49489 2.05955,2.44091 0.65665,7.86883 -1.4029,5.42792 -2.69746,1.21961 -4.38726,6.56518 -1.6898,5.34556 1.78843,2.64599 -0.18347,7.89405 -1.97191,5.24805 -2.81182,0.92598 -5.06025,6.06164 -2.24842,5.13567 1.49705,2.82111 -1.02152,7.82983 -2.51856,5.00872 -2.89431,0.62186 -5.67589,5.48944 -2.78157,4.86757 1.18871,2.96424 -1.84799,7.67688 -3.03669,4.71264 -2.94402,0.31069 -6.22722,4.85503 -3.28321,4.54434 0.86688,3.07381 -2.65353,7.43697 -3.52041,4.36315 -2.96037,-0.004 -6.708,4.16561 -3.74764,4.16961 0.53524,3.14853 -3.429,7.11278 z"
         inkscape:randomized="0"
         inkscape:rounded="0.71"
         inkscape:flatsided="false"
         sodipodi:arg2="0.83864549"
         sodipodi:arg1="0.78539816"
         sodipodi:r2="140.05742"
         sodipodi:r1="142.46375"
         sodipodi:cy="578.07648"
         sodipodi:cx="270"
         sodipodi:sides="59"
         id="path17005"
         style="display:inline;fill:#333333;fill-opacity:1;stroke:#000000;stroke-width:4.76599979;stroke-miterlimit:4;stroke-dasharray:none;stroke-opacity:1"
         sodipodi:type="star" />
      <path
         id="path20071"
         d="m 408.38356,333.75551 38.83728,2.6412"
         style="display:inline;fill:none;fill-rule:evenodd;stroke:#000000;stroke-width:1.92873979;stroke-linecap:butt;stroke-linejoin:miter;stroke-miterlimit:4;stroke-dasharray:none;stroke-opacity:1"
         inkscape:connector-curvature="0" />
      <circle
         transform="matrix(0.9151993,0,0,0.9151993,192.32778,51.812765)"
         id="path17007"
         style="display:inline;fill:#ffffff;fill-opacity:1;stroke:#000000;stroke-width:4.76599979;stroke-miterlimit:4;stroke-dasharray:none;stroke-opacity:1"
         cx="409.61685"
         cy="325.55743"
         r="112.63201" />
      <circle
         transform="matrix(0.8767,0,0,0.8767,361.81055,82.176915)"
         id="path17009"
         style="display:inline;fill:none;fill-opacity:0.12790695;stroke:#000000;stroke-width:4.76599979;stroke-miterlimit:4;stroke-dasharray:none;stroke-opacity:1"
         cx="234.28572"
         cy="305.21933"
         r="18.571428" />
      <path
         id="path17011"
         d="m 565.37019,333.47585 -5.31361,-86.34607"
         style="display:inline;fill:none;fill-rule:evenodd;stroke:#000000;stroke-width:0.87669998px;stroke-linecap:butt;stroke-linejoin:miter;stroke-opacity:1"
         inkscape:connector-curvature="0" />
      <path
         id="path17013"
         d="m 568.9126,334.80425 11.07001,-86.34607"
         style="display:inline;fill:none;fill-rule:evenodd;stroke:#000000;stroke-width:0.87669998px;stroke-linecap:butt;stroke-linejoin:miter;stroke-opacity:1"
         inkscape:connector-curvature="0" />
      <path
         id="path17015"
         d="m 572.8978,335.24705 29.66762,-81.03246"
         style="display:inline;fill:none;fill-rule:evenodd;stroke:#000000;stroke-width:0.87669998px;stroke-linecap:butt;stroke-linejoin:miter;stroke-opacity:1"
         inkscape:connector-curvature="0" />
      <path
         id="path17017"
         d="m 576.883,336.13265 45.60844,-71.73366"
         style="display:inline;fill:none;fill-rule:evenodd;stroke:#000000;stroke-width:0.87669998px;stroke-linecap:butt;stroke-linejoin:miter;stroke-opacity:1"
         inkscape:connector-curvature="0" />
      <path
         id="path17019"
         d="m 579.5398,338.78946 57.12125,-62.87765"
         style="display:inline;fill:none;fill-rule:evenodd;stroke:#000000;stroke-width:0.87669998px;stroke-linecap:butt;stroke-linejoin:miter;stroke-opacity:1"
         inkscape:connector-curvature="0" />
      <path
         id="path17021"
         d="m 582.6394,342.33186 67.74846,-53.57884"
         style="display:inline;fill:none;fill-rule:evenodd;stroke:#000000;stroke-width:0.87669998px;stroke-linecap:butt;stroke-linejoin:miter;stroke-opacity:1"
         inkscape:connector-curvature="0" />
      <path
         id="path17023"
         d="m 583.52501,346.75986 78.81846,-35.86683"
         style="display:inline;fill:none;fill-rule:evenodd;stroke:#000000;stroke-width:0.87669998px;stroke-linecap:butt;stroke-linejoin:miter;stroke-opacity:1"
         inkscape:connector-curvature="0" />
      <path
         id="path17025"
         d="m 583.9678,351.18786 85.46047,-7.5276"
         style="display:inline;fill:none;fill-rule:evenodd;stroke:#000000;stroke-width:0.87669998px;stroke-linecap:butt;stroke-linejoin:miter;stroke-opacity:1"
         inkscape:connector-curvature="0" />
      <path
         id="path17027"
         d="m 574.669,247.57258 -17.71201,88.11727"
         style="display:inline;fill:none;fill-rule:evenodd;stroke:#000000;stroke-width:0.87669998px;stroke-linecap:butt;stroke-linejoin:miter;stroke-opacity:1"
         inkscape:connector-curvature="0" />
      <path
         id="path17029"
         d="m 564.48459,334.36145 54.90725,-72.61926"
         style="display:inline;fill:none;fill-rule:evenodd;stroke:#000000;stroke-width:0.87669998px;stroke-linecap:butt;stroke-linejoin:miter;stroke-opacity:1"
         inkscape:connector-curvature="0" />
      <path
         id="path17031"
         d="m 581.7538,342.33186 84.13207,-19.48322"
         style="display:inline;fill:none;fill-rule:evenodd;stroke:#000000;stroke-width:0.87669998px;stroke-linecap:butt;stroke-linejoin:miter;stroke-opacity:1"
         inkscape:connector-curvature="0" />
      <path
         id="path17033"
         d="m 582.6394,354.73026 83.24647,19.04042"
         style="display:inline;fill:none;fill-rule:evenodd;stroke:#000000;stroke-width:0.87669998px;stroke-linecap:butt;stroke-linejoin:miter;stroke-opacity:1"
         inkscape:connector-curvature="0" />
      <path
         id="path17035"
         d="m 580.86821,360.04387 76.60446,39.40924"
         style="display:inline;fill:none;fill-rule:evenodd;stroke:#000000;stroke-width:0.87669998px;stroke-linecap:butt;stroke-linejoin:miter;stroke-opacity:1"
         inkscape:connector-curvature="0" />
      <path
         id="path17037"
         d="m 576.883,363.58628 64.20605,58.44964"
         style="display:inline;fill:none;fill-rule:evenodd;stroke:#000000;stroke-width:0.87669998px;stroke-linecap:butt;stroke-linejoin:miter;stroke-opacity:1"
         inkscape:connector-curvature="0" />
      <path
         id="path17039"
         d="m 574.669,364.91468 46.05123,72.17645"
         style="display:inline;fill:none;fill-rule:evenodd;stroke:#000000;stroke-width:0.87669998px;stroke-linecap:butt;stroke-linejoin:miter;stroke-opacity:1"
         inkscape:connector-curvature="0" />
      <path
         id="path17041"
         d="m 570.6838,365.35747 22.58282,83.68927"
         style="display:inline;fill:none;fill-rule:evenodd;stroke:#000000;stroke-width:0.87669998px;stroke-linecap:butt;stroke-linejoin:miter;stroke-opacity:1"
         inkscape:connector-curvature="0" />
      <path
         id="path17043"
         d="M 566.69859,365.35747 565.813,452.14634"
         style="display:inline;fill:none;fill-rule:evenodd;stroke:#000000;stroke-width:0.87669998px;stroke-linecap:butt;stroke-linejoin:miter;stroke-opacity:1"
         inkscape:connector-curvature="0" />
      <path
         id="path17045"
         d="m 561.82779,364.91468 -26.56802,81.47526"
         style="display:inline;fill:none;fill-rule:evenodd;stroke:#000000;stroke-width:0.87669998px;stroke-linecap:butt;stroke-linejoin:miter;stroke-opacity:1"
         inkscape:connector-curvature="0" />
      <path
         id="path17047"
         d="m 556.95699,360.92947 -50.47924,72.61926"
         style="display:inline;fill:none;fill-rule:evenodd;stroke:#000000;stroke-width:0.87669998px;stroke-linecap:butt;stroke-linejoin:miter;stroke-opacity:1"
         inkscape:connector-curvature="0" />
      <path
         id="path17049"
         d="m 553.85739,359.15827 -69.96246,50.47924"
         style="display:inline;fill:none;fill-rule:evenodd;stroke:#000000;stroke-width:0.87669998px;stroke-linecap:butt;stroke-linejoin:miter;stroke-opacity:1"
         inkscape:connector-curvature="0" />
      <path
         id="path17051"
         d="m 552.08618,356.05867 -82.36086,21.69722"
         style="display:inline;fill:none;fill-rule:evenodd;stroke:#000000;stroke-width:0.87669998px;stroke-linecap:butt;stroke-linejoin:miter;stroke-opacity:1"
         inkscape:connector-curvature="0" />
      <path
         id="path17053"
         d="m 552.97178,352.07346 -88.56007,-6.1992"
         style="display:inline;fill:none;fill-rule:evenodd;stroke:#000000;stroke-width:0.87669998px;stroke-linecap:butt;stroke-linejoin:miter;stroke-opacity:1"
         inkscape:connector-curvature="0" />
      <path
         id="path17055"
         d="M 551.64339,344.98865 469.72532,314.43543"
         style="display:inline;fill:none;fill-rule:evenodd;stroke:#000000;stroke-width:0.87669998px;stroke-linecap:butt;stroke-linejoin:miter;stroke-opacity:1"
         inkscape:connector-curvature="0" />
      <path
         id="path17057"
         d="M 553.41458,339.67506 490.97974,280.7826"
         style="display:inline;fill:none;fill-rule:evenodd;stroke:#000000;stroke-width:0.87669998px;stroke-linecap:butt;stroke-linejoin:miter;stroke-opacity:1"
         inkscape:connector-curvature="0" />
      <path
         id="path17059"
         d="M 555.18579,337.46105 521.09015,259.08539"
         style="display:inline;fill:none;fill-rule:evenodd;stroke:#000000;stroke-width:0.87669998px;stroke-linecap:butt;stroke-linejoin:miter;stroke-opacity:1"
         inkscape:connector-curvature="0" />
      <path
         id="path17061"
         d="m 584.85341,348.53106 63.32045,63.32045"
         style="display:inline;fill:none;fill-rule:evenodd;stroke:#000000;stroke-width:0.87669998px;stroke-linecap:butt;stroke-linejoin:miter;stroke-opacity:1"
         inkscape:connector-curvature="0" />
      <path
         id="path17063"
         d="m 583.08221,354.28747 19.92601,91.65966"
         style="display:inline;fill:none;fill-rule:evenodd;stroke:#000000;stroke-width:0.87669998px;stroke-linecap:butt;stroke-linejoin:miter;stroke-opacity:1"
         inkscape:connector-curvature="0" />
      <path
         id="path17065"
         d="m 579.98261,360.48667 -51.80765,83.68927"
         style="display:inline;fill:none;fill-rule:evenodd;stroke:#000000;stroke-width:0.87669998px;stroke-linecap:butt;stroke-linejoin:miter;stroke-opacity:1"
         inkscape:connector-curvature="0" />
      <path
         id="path17067"
         d="m 582.6394,357.82987 -23.91121,94.75927"
         style="display:inline;fill:none;fill-rule:evenodd;stroke:#000000;stroke-width:0.87669998px;stroke-linecap:butt;stroke-linejoin:miter;stroke-opacity:1"
         inkscape:connector-curvature="0" />
      <path
         id="path17069"
         d="m 572.01219,364.47187 -79.70405,54.02165"
         style="display:inline;fill:none;fill-rule:evenodd;stroke:#000000;stroke-width:0.87669998px;stroke-linecap:butt;stroke-linejoin:miter;stroke-opacity:1"
         inkscape:connector-curvature="0" />
      <path
         id="path17071"
         d="m 562.71339,365.80028 -97.85887,-1.32841"
         style="display:inline;fill:none;fill-rule:evenodd;stroke:#000000;stroke-width:0.87669998px;stroke-linecap:butt;stroke-linejoin:miter;stroke-opacity:1"
         inkscape:connector-curvature="0" />
      <path
         id="path17073"
         d="M 568.027,366.24308 473.71052,394.5823"
         style="display:inline;fill:none;fill-rule:evenodd;stroke:#000000;stroke-width:0.87669998px;stroke-linecap:butt;stroke-linejoin:miter;stroke-opacity:1"
         inkscape:connector-curvature="0" />
      <path
         id="path17075"
         d="M 554.30018,359.60107 477.25292,300.26582"
         style="display:inline;fill:none;fill-rule:evenodd;stroke:#000000;stroke-width:0.87669998px;stroke-linecap:butt;stroke-linejoin:miter;stroke-opacity:1"
         inkscape:connector-curvature="0" />
      <path
         id="path17077"
         d="M 557.84258,363.14347 466.62571,327.71944"
         style="display:inline;fill:none;fill-rule:evenodd;stroke:#000000;stroke-width:0.87669998px;stroke-linecap:butt;stroke-linejoin:miter;stroke-opacity:1"
         inkscape:connector-curvature="0" />
      <path
         id="path17079"
         d="m 552.97178,342.77465 -11.9556,-92.10246"
         style="display:inline;fill:none;fill-rule:evenodd;stroke:#000000;stroke-width:0.87669998px;stroke-linecap:butt;stroke-linejoin:miter;stroke-opacity:1"
         inkscape:connector-curvature="0" />
      <path
         id="path17081"
         d="M 553.85739,358.71547 530.38896,254.65738"
         style="display:inline;fill:none;fill-rule:evenodd;stroke:#000000;stroke-width:0.87669998px;stroke-linecap:butt;stroke-linejoin:miter;stroke-opacity:1"
         inkscape:connector-curvature="0" />
      <path
         id="path17083"
         d="M 549.71085,343.97701 504.1695,267.40436"
         style="display:inline;fill:none;fill-rule:evenodd;stroke:#000000;stroke-width:0.68823153px;stroke-linecap:butt;stroke-linejoin:miter;stroke-opacity:1"
         inkscape:connector-curvature="0" />
      <path
         id="path17085"
         d="m 575.1118,336.13265 89.00287,50.47924"
         style="display:inline;fill:none;fill-rule:evenodd;stroke:#000000;stroke-width:0.87669998px;stroke-linecap:butt;stroke-linejoin:miter;stroke-opacity:1"
         inkscape:connector-curvature="0" />
      <path
         id="path17087"
         d="m 570.241,334.80425 98.30167,21.25442"
         style="display:inline;fill:none;fill-rule:evenodd;stroke:#000000;stroke-width:0.87669998px;stroke-linecap:butt;stroke-linejoin:miter;stroke-opacity:1"
         inkscape:connector-curvature="0" />
      <rect
         inkscape:transform-center-x="-3.2904899e-005"
         inkscape:transform-center-y="-6.199204"
         transform="rotate(99.808414)"
         ry="9.1459141"
         rx="5.167552"
         y="-471.97415"
         x="41.082924"
         height="14.033481"
         width="256.11102"
         id="rect17133"
         style="display:inline;opacity:1;fill:#555555;fill-opacity:1;stroke:#000000;stroke-width:3.31056762;stroke-miterlimit:4;stroke-dasharray:none;stroke-opacity:1" />
      <rect
         inkscape:transform-center-x="0.94018645"
         inkscape:transform-center-y="-9.2357961"
         transform="matrix(-0.6658069,-0.7461241,0.7289231,-0.6845956,0,0)"
         ry="7.1348481"
         rx="4.0145488"
         y="187.39427"
         x="-649.62543"
         height="10.947703"
         width="198.96661"
         id="rect17135"
         style="display:inline;opacity:1;fill:#555555;fill-opacity:1;stroke:#000000;stroke-width:2.57725406;stroke-miterlimit:4;stroke-dasharray:none;stroke-opacity:1" />
      <rect
         inkscape:transform-center-x="-3.9984825"
         inkscape:transform-center-y="-1.1714172"
         transform="matrix(-0.9954284,0.09551077,-0.1059297,-0.9943736,0,0)"
         ry="6.7918091"
         rx="3.4685843"
         y="-408.62466"
         x="-535.09528"
         height="10.421343"
         width="171.90781"
         id="rect17137"
         style="display:inline;opacity:1;fill:#555555;fill-opacity:1;stroke:#000000;stroke-width:2.33730459;stroke-miterlimit:4;stroke-dasharray:none;stroke-opacity:1" />
      <rect
         transform="matrix(0.9853266,0.1706794,-0.1304286,0.9914577,0,0)"
         ry="9.1587257"
         rx="4.5376997"
         y="114.38669"
         x="233.75793"
         height="14.05314"
         width="224.8947"
         id="rect17001"
         style="display:inline;opacity:1;fill:#b79f55;fill-opacity:1;stroke:#000000;stroke-width:3.1044302;stroke-miterlimit:4;stroke-dasharray:none;stroke-opacity:1" />
      <path
         id="path18108"
         d="m 180.93145,254.51859 18.78643,2.19175 -17.22089,-9.70632 19.72575,0.62622 -18.16021,-8.767 20.66507,-1.25243 -17.534,-7.51457 19.72575,-1.25243 -17.84711,-7.82768 20.35196,-3.75729 -20.03885,-6.57525"
         style="display:inline;fill:none;fill-rule:evenodd;stroke:#000000;stroke-width:0.87669998px;stroke-linecap:butt;stroke-linejoin:miter;stroke-opacity:1"
         inkscape:connector-curvature="0" />
      <path
         id="path18110"
         d="m 210.05042,214.12777 c 0,-0.10437 0,-0.20873 0,0 z"
         style="display:inline;fill:none;fill-rule:evenodd;stroke:#000000;stroke-width:0.87669998px;stroke-linecap:butt;stroke-linejoin:miter;stroke-opacity:1"
         inkscape:connector-curvature="0" />
      <path
         sodipodi:nodetypes="csc"
         id="path22144"
         d="m 177.37288,112.26464 c 0,0 -63.64722,17.16187 -19.38039,68.5378 44.26683,51.37593 22.54575,38.32372 22.54575,38.32372"
         style="display:inline;fill:none;fill-rule:evenodd;stroke:#000000;stroke-width:1.31505001;stroke-linecap:butt;stroke-linejoin:miter;stroke-miterlimit:4;stroke-dasharray:none;stroke-opacity:1"
         inkscape:connector-curvature="0" />
      <path
         id="path18114"
         d="m 210.05042,213.18845 -21.29129,3.75729 18.16022,8.45389 -19.72575,0.93932 18.47332,6.57525 -20.03885,2.19175 18.47331,8.14079 -19.72575,-0.31312 17.534,10.33255 -20.03885,-2.19175 17.534,7.51457"
         style="display:inline;fill:none;fill-rule:evenodd;stroke:#000000;stroke-width:0.87669998px;stroke-linecap:butt;stroke-linejoin:miter;stroke-opacity:1"
         inkscape:connector-curvature="0" />
      <path
         sodipodi:nodetypes="ccccc"
         id="path18118"
         d="m 399.19056,124.083 98.29887,-2.89461 3.3896,-15.43798 -102.80953,14.93033 z"
         style="display:inline;fill:#000000;fill-opacity:1;fill-rule:evenodd;stroke:#000000;stroke-width:0.7239489px;stroke-linecap:butt;stroke-linejoin:miter;stroke-opacity:1"
         inkscape:connector-curvature="0" />
      <circle
         transform="matrix(0.8767,0,0,0.8767,57.097584,-323.19977)"
         id="path20092"
         style="display:inline;opacity:1;fill:#666666;fill-opacity:1;stroke:#000000;stroke-width:2.42600012;stroke-miterlimit:4;stroke-dasharray:none;stroke-opacity:1"
         cx="383.75"
         cy="711.4693"
         r="3.0357144" />
      <path
         id="path20073"
         d="m 408.9788,395.09726 44.65459,1.88023"
         style="display:inline;fill:none;fill-rule:evenodd;stroke:#000000;stroke-width:1.92874038;stroke-linecap:butt;stroke-linejoin:miter;stroke-miterlimit:4;stroke-opacity:1"
         inkscape:connector-curvature="0" />
      <rect
         transform="rotate(-10.736824)"
         ry="9.1587267"
         rx="4.5376997"
         y="428.61771"
         x="327.31686"
         height="72.619263"
         width="12.39841"
         id="rect20080"
         style="display:inline;opacity:1;fill:#666666;fill-opacity:1;stroke:#000000;stroke-width:2.12687421;stroke-miterlimit:4;stroke-dasharray:none;stroke-opacity:1" />
      <circle
         transform="matrix(0.8767,0,0,0.8767,72.283279,-257.91695)"
         id="path20084"
         style="display:inline;opacity:1;fill:#666666;fill-opacity:1;stroke:#000000;stroke-width:2.42600012;stroke-miterlimit:4;stroke-dasharray:none;stroke-opacity:1"
         cx="383.75"
         cy="711.4693"
         r="3.0357144" />
      <rect
         ry="9.0801067"
         rx="4.5376997"
         y="423.59641"
         x="410.75208"
         height="9.0801067"
         width="19.72575"
         id="rect20086"
         style="display:inline;opacity:1;fill:#666666;fill-opacity:1;stroke:#000000;stroke-width:2.12687421;stroke-miterlimit:4;stroke-dasharray:none;stroke-opacity:1" />
      <circle
         transform="matrix(0.8767,0,0,0.8767,84.024799,-195.45206)"
         id="path20088"
         style="display:inline;opacity:1;fill:#666666;fill-opacity:1;stroke:#000000;stroke-width:2.42600012;stroke-miterlimit:4;stroke-dasharray:none;stroke-opacity:1"
         cx="383.75"
         cy="711.4693"
         r="3.0357144" />
      <path
         id="path20182"
         d="m 466.3469,337.88025 85.84942,2.6412"
         style="display:inline;fill:none;fill-rule:evenodd;stroke:#000000;stroke-width:1.92873979;stroke-linecap:butt;stroke-linejoin:miter;stroke-miterlimit:4;stroke-dasharray:none;stroke-opacity:1"
         inkscape:connector-curvature="0" />
      <circle
         inkscape:transform-center-y="-6.9496489"
         inkscape:transform-center-x="15.752576"
         transform="matrix(0.8767,0,0,0.8767,232.1777,-272.99183)"
         id="path20184"
         style="display:inline;opacity:1;fill:#666666;fill-opacity:1;stroke:#000000;stroke-width:2.42600012;stroke-miterlimit:4;stroke-dasharray:none;stroke-opacity:1"
         cx="383.75"
         cy="711.4693"
         r="3.0357144" />
      <circle
         transform="matrix(0.8767,0,0,0.8767,-166.27023,-266.50547)"
         id="path20186"
         style="display:inline;opacity:1;fill:#666666;fill-opacity:1;stroke:#000000;stroke-width:2.42600012;stroke-miterlimit:4;stroke-dasharray:none;stroke-opacity:1"
         cx="383.75"
         cy="711.4693"
         r="3.0357144" />
      <rect
         y="354.45975"
         x="170.39505"
         height="5.096427"
         width="23.860544"
         id="rect20188"
         style="display:inline;opacity:1;fill:#ffffff;fill-opacity:1;stroke:#000000;stroke-width:2.12687421;stroke-miterlimit:4;stroke-dasharray:none;stroke-opacity:1" />
      <rect
         y="347.04672"
         x="567.10559"
         height="5.096427"
         width="23.860544"
         id="rect21159"
         style="display:inline;opacity:1;fill:#ffffff;fill-opacity:1;stroke:#000000;stroke-width:2.12687421;stroke-miterlimit:4;stroke-dasharray:none;stroke-opacity:1" />
      <rect
         transform="rotate(11.863553)"
         ry="2.2932751"
         rx="2.2932751"
         y="174.37775"
         x="218.40607"
         height="46.520741"
         width="4.5865502"
         id="rect21163"
         style="display:inline;opacity:1;fill:#000000;fill-opacity:1;stroke:#000000;stroke-width:2.12687421;stroke-miterlimit:4;stroke-dasharray:none;stroke-opacity:1" />
      <rect
         inkscape:transform-center-x="50.77967"
         inkscape:transform-center-y="-79.937002"
         ry="2.2932751"
         rx="2.2932751"
         y="252.87541"
         x="163.88802"
         height="4.9141607"
         width="14.087262"
         id="rect22134"
         style="display:inline;opacity:1;fill:#000000;fill-opacity:1;stroke:#000000;stroke-width:2.12687421;stroke-miterlimit:4;stroke-dasharray:none;stroke-opacity:1" />
      <rect
         ry="2.2932751"
         rx="12.383685"
         y="225.68376"
         x="176.99245"
         height="2.2932751"
         width="8.8454895"
         id="rect22136"
         style="display:inline;opacity:1;fill:#000000;fill-opacity:1;stroke:#000000;stroke-width:2.12687421;stroke-miterlimit:4;stroke-dasharray:none;stroke-opacity:1" />
      <rect
         transform="matrix(-0.7353374,0.6777011,0.6777011,0.7353374,0,0)"
         ry="2.2932744"
         rx="2.2932744"
         y="499.86096"
         x="-199.52962"
         height="46.520733"
         width="4.5865488"
         id="rect22148"
         style="display:inline;opacity:1;fill:#000000;fill-opacity:1;stroke:#000000;stroke-width:2.12687373;stroke-miterlimit:4;stroke-dasharray:none;stroke-opacity:1" />
      <rect
         transform="matrix(-0.8589536,0.5120535,0.5120535,0.8589536,0,0)"
         inkscape:transform-center-x="-2.6854054"
         inkscape:transform-center-y="-94.664068"
         ry="2.2932751"
         rx="2.2932751"
         y="485.48666"
         x="-312.03406"
         height="4.9141612"
         width="14.087264"
         id="rect22150"
         style="display:inline;opacity:1;fill:#000000;fill-opacity:1;stroke:#000000;stroke-width:2.12687421;stroke-miterlimit:4;stroke-dasharray:none;stroke-opacity:1" />
      <rect
         transform="matrix(-0.8953707,0.4453215,0.5813698,0.8136394,0,0)"
         ry="2.0198495"
         rx="11.880009"
         y="439.91769"
         x="-263.22421"
         height="2.0198495"
         width="8.4857197"
         id="rect22152"
         style="display:inline;opacity:1;fill:#000000;fill-opacity:1;stroke:#000000;stroke-width:2.14039564;stroke-miterlimit:4;stroke-dasharray:none;stroke-opacity:1" />
      <path
         id="path23134"
         d="m 476.37888,397.7221 107.55585,3.19068"
         style="display:inline;fill:none;fill-rule:evenodd;stroke:#000000;stroke-width:1.92874038;stroke-linecap:butt;stroke-linejoin:miter;stroke-miterlimit:4;stroke-opacity:1"
         inkscape:connector-curvature="0" />
      <path
         id="path23138"
         d="m 585.89527,388.23953 -16.9831,-4.4476"
         style="display:inline;fill:none;fill-rule:evenodd;stroke:#000000;stroke-width:1.92874014;stroke-linecap:butt;stroke-linejoin:miter;stroke-miterlimit:4;stroke-opacity:1"
         inkscape:connector-curvature="0" />
      <path
         id="path23142"
         d="m 581.50418,359.48824 -16.28745,15.20094"
         style="display:inline;fill:none;fill-rule:evenodd;stroke:#000000;stroke-width:1.92874014;stroke-linecap:butt;stroke-linejoin:miter;stroke-miterlimit:4;stroke-opacity:1"
         inkscape:connector-curvature="0" />
      <path
         id="path23146"
         d="M 583.24595,389.6081 564.8645,375.37214"
         style="display:inline;fill:none;fill-rule:evenodd;stroke:#000000;stroke-width:1.92874014;stroke-linecap:butt;stroke-linejoin:miter;stroke-miterlimit:4;stroke-opacity:1"
         inkscape:connector-curvature="0" />
      <circle
         transform="matrix(0.8767,0,0,0.8767,-125.06465,-221.23137)"
         id="path23130"
         style="opacity:1;fill:#000000;fill-opacity:1;stroke:#000000;stroke-width:1.5;stroke-miterlimit:4;stroke-dasharray:none;stroke-opacity:1"
         cx="807.90967"
         cy="702.59186"
         r="8.2210979" />
      <circle
         transform="matrix(0.8767,0,0,0.8767,-136.85861,-238.26714)"
         id="path23132"
         style="opacity:1;fill:#000000;fill-opacity:1;stroke:#000000;stroke-width:1.5;stroke-miterlimit:4;stroke-dasharray:none;stroke-opacity:1"
         cx="807.90967"
         cy="702.59186"
         r="8.2210979" />
    </g>
  </g>
</svg>
