<?xml version="1.0" encoding="UTF-8" standalone="no"?>
<!-- Created with Inkscape (http://www.inkscape.org/) -->
<svg
   xmlns:dc="http://purl.org/dc/elements/1.1/"
   xmlns:cc="http://creativecommons.org/ns#"
   xmlns:rdf="http://www.w3.org/1999/02/22-rdf-syntax-ns#"
   xmlns:svg="http://www.w3.org/2000/svg"
   xmlns="http://www.w3.org/2000/svg"
   xmlns:sodipodi="http://sodipodi.sourceforge.net/DTD/sodipodi-0.dtd"
   xmlns:inkscape="http://www.inkscape.org/namespaces/inkscape"
   width="651.15265"
   height="413.33542"
   id="svg39019"
   sodipodi:version="0.32"
   inkscape:version="0.45+devel"
   version="1.0"
   sodipodi:docname="simple_vector_bike.svg"
   inkscape:output_extension="org.inkscape.output.svg.inkscape"
   inkscape:export-filename="/home/alexander/            /clipart/simple_vector_bike.png"
   inkscape:export-xdpi="32.795872"
   inkscape:export-ydpi="32.795872">
  <defs
     id="defs39021">
    <inkscape:perspective
       sodipodi:type="inkscape:persp3d"
       inkscape:vp_x="-50 : 600 : 1"
       inkscape:vp_y="0 : 1000 : 0"
       inkscape:vp_z="700 : 600 : 1"
       inkscape:persp3d-origin="300 : 400 : 1"
       id="perspective26198" />
    <inkscape:perspective
       sodipodi:type="inkscape:persp3d"
       inkscape:vp_x="-50 : 600 : 1"
       inkscape:vp_y="0 : 1000 : 0"
       inkscape:vp_z="700 : 600 : 1"
       inkscape:persp3d-origin="300 : 400 : 1"
       id="perspective39027" />
  </defs>
  <sodipodi:namedview
     id="base"
     pagecolor="#ffffff"
     bordercolor="#666666"
     borderopacity="1.0"
     gridtolerance="10000"
     guidetolerance="10"
     objecttolerance="10"
     inkscape:pageopacity="0.0"
     inkscape:pageshadow="2"
     inkscape:zoom="0.24748737"
     inkscape:cx="-89.670172"
     inkscape:cy="291.42857"
     inkscape:document-units="px"
     inkscape:current-layer="layer1"
     showgrid="false"
     inkscape:window-width="1280"
     inkscape:window-height="951"
     inkscape:window-x="0"
     inkscape:window-y="0" />
  <metadata
     id="metadata39024">
    <rdf:RDF>
      <cc:Work
         rdf:about="">
        <dc:format>image/svg+xml</dc:format>
        <dc:type
           rdf:resource="http://purl.org/dc/dcmitype/StillImage" />
        <dc:title></dc:title>
        <dc:date></dc:date>
        <dc:creator>
          <cc:Agent>
            <dc:title></dc:title>
          </cc:Agent>
        </dc:creator>
        <dc:rights>
          <cc:Agent>
            <dc:title></dc:title>
          </cc:Agent>
        </dc:rights>
        <dc:publisher>
          <cc:Agent>
            <dc:title></dc:title>
          </cc:Agent>
        </dc:publisher>
        <dc:identifier></dc:identifier>
        <dc:source></dc:source>
        <dc:relation></dc:relation>
        <dc:language></dc:language>
        <dc:subject>
          <rdf:Bag />
        </dc:subject>
        <dc:coverage></dc:coverage>
        <dc:description></dc:description>
        <dc:contributor>
          <cc:Agent>
            <dc:title></dc:title>
          </cc:Agent>
        </dc:contributor>
        <cc:license
           rdf:resource="" />
      </cc:Work>
    </rdf:RDF>
  </metadata>
  <g
     inkscape:groupmode="layer"
     id="layer5"
     style="display:none">
    <rect
       style="fill:#ffffff;fill-opacity:1;stroke:none"
       id="rect39180"
       width="823.27435"
       height="514.16766"
       x="-95.964493"
       y="-66.487038" />
  </g>
  <g
     inkscape:label="Layer 1"
     inkscape:groupmode="layer"
     id="layer1"
     transform="translate(-42.995115,-71.408755)">
    <rect
       style="opacity:1;fill:#666666;fill-opacity:1;stroke:#000000;stroke-width:2.12687421;stroke-miterlimit:4;stroke-dasharray:none;stroke-opacity:1;display:inline"
       id="rect20090"
       width="19.72575"
       height="9.0801067"
       x="383.66833"
       y="295.06595"
       rx="4.5376997"
       ry="9.0801067" />
    <rect
       style="opacity:1;fill:#666666;fill-opacity:1;stroke:#000000;stroke-width:2.12687421;stroke-miterlimit:4;stroke-dasharray:none;stroke-opacity:1;display:inline"
       id="rect20082"
       width="12.39841"
       height="72.619263"
       x="324.40421"
       y="363.16599"
       rx="4.5376997"
       ry="9.1587267"
       transform="matrix(0.9824933,-0.1862981,0.1862981,0.9824933,0,0)" />
    <path
       sodipodi:type="star"
       style="fill:none;fill-opacity:1;stroke:#000000;stroke-width:6.33369923;stroke-miterlimit:4;stroke-dasharray:none;stroke-opacity:1;display:inline"
       id="path19089"
       sodipodi:sides="59"
       sodipodi:cx="212.85715"
       sodipodi:cy="116.6479"
       sodipodi:r1="91.439735"
       sodipodi:r2="87.886475"
       sodipodi:arg1="0.52359878"
       sodipodi:arg2="0.57684611"
       inkscape:flatsided="false"
       inkscape:rounded="0.23"
       inkscape:randomized="0"
       d="M 292.04628,162.36777 C 291.362,163.55298 287.26883,163.43259 286.52244,164.5797 C 285.77605,165.72681 287.54432,169.42029 286.73793,170.52605 C 285.93155,171.63181 281.87436,171.07703 281.01027,172.1383 C 280.14618,173.19957 281.51184,177.06008 280.59249,178.07386 C 279.67314,179.08764 275.6979,178.10476 274.7259,179.06817 C 273.7539,180.03158 274.70147,184.01538 273.67958,184.9257 C 272.65768,185.83601 268.80944,184.43615 267.74054,185.29079 C 266.67164,186.14543 267.19039,190.20738 266.07752,191.00392 C 264.96465,191.80046 261.28701,189.99948 260.13332,190.73566 C 258.97963,191.47184 259.06369,195.56592 257.87246,196.23966 C 256.68122,196.91339 253.21585,194.73171 251.99044,195.34109 C 250.76504,195.95047 250.41345,200.03029 249.15735,200.57359 C 247.90125,201.11688 244.68741,198.57922 243.40417,199.05489 C 242.12094,199.53057 241.33768,203.5499 240.03095,203.95661 C 238.72422,204.36331 235.79832,201.49841 234.47179,201.83499 C 233.14527,202.17157 231.93921,206.08488 230.59666,206.35038 C 229.2541,206.61589 226.64929,203.45621 225.29451,203.64988 C 223.93973,203.84356 222.32454,207.6065 220.96137,207.7278 C 219.5982,207.84909 217.344,204.43044 215.97631,204.47901 C 214.60861,204.52758 212.6026,208.09753 211.23426,208.07324 C 209.86592,208.04895 207.98787,204.41006 206.62276,204.31298 C 205.25765,204.21589 202.88354,207.55239 201.52553,207.38279 C 200.16753,207.21319 198.68691,203.39529 197.33985,203.15366 C 195.9928,202.91203 193.27749,205.97727 191.9452,205.66428 C 190.61292,205.3513 189.54651,201.39765 188.23276,201.0142 C 186.91902,200.63075 183.89328,203.39001 182.60181,202.93718 C 181.31034,202.48436 180.67022,198.43976 179.40468,197.91884 C 178.13914,197.39792 174.83725,199.81993 173.60123,199.23239 C 172.3652,198.64486 172.15862,194.55513 170.95562,193.90264 C 169.75262,193.25016 166.212,195.30747 165.04543,194.59189 C 163.87886,193.8763 164.10816,189.78778 162.98133,189.01112 C 161.8545,188.23446 158.11525,189.90378 157.03135,189.06824 C 155.94745,188.23271 156.61004,184.19173 155.57214,183.29969 C 154.53425,182.40766 150.63875,183.67006 149.6498,182.72405 C 148.66086,181.77804 149.74922,177.83038 148.81203,176.83307 C 147.87483,175.83577 143.86721,176.67696 142.98442,175.63119 C 142.10163,174.58542 143.60344,170.7758 142.77756,169.68453 C 141.95168,168.59326 137.87736,169.0037 137.11073,167.87002 C 136.3441,166.73634 138.24233,163.10794 137.53713,161.93507 C 136.83192,160.76219 132.73705,160.73723 132.09527,159.52848 C 131.45349,158.31974 133.72664,154.91367 133.1501,153.67248 C 132.57356,152.43129 128.50454,151.97121 127.99487,150.7011 C 127.48521,149.43098 130.10753,146.28583 129.66619,144.99039 C 129.22484,143.69495 125.22778,142.80496 124.856,141.48787 C 124.48423,140.17078 127.42601,137.32218 127.12486,135.98716 C 126.82371,134.65215 122.94389,133.34235 122.71422,131.9932 C 122.48455,130.64405 125.71245,128.12428 125.55491,126.76482 C 125.39737,125.40536 121.67876,123.69058 121.59379,122.32466 C 121.50883,120.95874 124.98628,118.79635 124.97413,117.42785 C 124.96199,116.05934 121.44671,113.95901 121.50742,112.5918 C 121.56812,111.22459 125.25572,109.44408 125.38911,108.08204 C 125.52249,106.71999 122.25038,104.25791 122.45607,102.9049 C 122.66176,101.55188 126.51772,100.17343 126.79513,98.83328 C 127.07253,97.493133 124.08066,94.697192 124.429,93.373708 C 124.77734,92.050224 128.75798,91.08944 129.17626,89.786372 C 129.59455,88.483303 126.91682,85.385185 127.40386,84.106225 C 127.8909,82.827265 131.95111,82.29504 132.50554,81.043814 C 133.05996,79.792589 130.72671,76.427397 131.34694,75.207452 C 131.96717,73.987508 136.06095,73.889872 136.74523,72.704666 C 137.42951,71.51946 135.46717,67.925323 136.21356,66.778216 C 136.95995,65.63111 141.04091,65.969169 141.8473,64.863412 C 142.65368,63.757655 141.08449,59.975296 141.94858,58.914024 C 142.81267,57.852752 146.83459,58.622676 147.75394,57.608897 C 148.67328,56.595118 147.51503,52.667392 148.48703,51.70398 C 149.45903,50.740567 153.37632,51.933633 154.39822,51.023317 C 155.42012,50.113002 154.68592,46.084413 155.75482,45.229776 C 156.82371,44.375138 160.592,45.977828 161.70487,45.181291 C 162.81774,44.384754 162.51591,40.300947 163.66959,39.564768 C 164.82328,38.828589 168.39986,40.822743 169.59109,40.149009 C 170.78232,39.475276 170.91629,35.382522 172.14169,34.773143 C 173.36709,34.163764 176.71144,36.526788 177.96754,35.983491 C 179.22363,35.440194 179.79187,31.384866 181.0751,30.909191 C 182.35833,30.433517 185.43256,33.138637 186.73929,32.731933 C 188.04602,32.325229 189.0421,28.353274 190.36862,28.016694 C 191.69514,27.680113 194.46442,30.696679 195.80698,30.431176 C 197.14953,30.165672 198.56216,26.322096 199.91694,26.128423 C 201.27173,25.93475 203.70468,29.228583 205.06785,29.107289 C 206.43102,28.985995 208.24419,25.314346 209.61188,25.265775 C 210.97958,25.217204 213.04863,28.750983 214.41697,28.775272 C 215.78531,28.799561 217.97848,25.341441 219.34359,25.438522 C 220.7087,25.535603 222.39042,29.26929 223.74842,29.438887 C 225.10643,29.608485 227.65475,26.403075 229.00181,26.644708 C 230.34886,26.886342 231.62419,30.777631 232.95647,31.090615 C 234.28876,31.4036 237.16336,28.487219 238.4771,28.870666 C 239.79084,29.254114 240.64532,33.258917 241.93679,33.711742 C 243.22826,34.164567 246.39656,31.570258 247.6621,32.091176 C 248.92765,32.612094 249.3516,36.685034 250.58762,37.272568 C 251.82364,37.860103 255.24976,35.617261 256.45276,36.269747 C 257.65576,36.922232 257.64438,41.017162 258.81095,41.732749 C 259.97752,42.448336 263.62262,40.582374 264.74945,41.359034 C 265.87628,42.135695 265.42971,46.206216 266.51361,47.041748 C 267.5975,47.87728 271.4203,46.40934 272.45819,47.301375 C 273.49608,48.19341 272.61937,52.193403 273.60831,53.139413 C 274.59726,54.085423 278.55443,53.032137 279.49162,54.029439 C 280.42882,55.026742 279.13189,58.910885 280.01468,59.956654 C 280.89747,61.002423 284.94418,60.375725 285.77006,61.466996 C 286.59594,62.558267 284.8935,66.282551 285.66013,67.41623 C 286.42676,68.54991 290.51716,68.3569 291.22236,69.529775 C 291.92757,70.702649 289.83891,74.224876 290.4807,75.433621 C 291.12248,76.642365 295.21022,76.885232 295.78676,78.12642 C 296.3633,79.367609 293.91209,82.647871 294.42175,83.917985 C 294.93142,85.1881 298.97018,85.86409 299.41153,87.15953 C 299.85287,88.454969 297.06688,91.4561 297.43865,92.773193 C 297.81042,94.090286 301.75445,95.191741 302.0556,96.526754 C 302.35675,97.861767 299.26754,100.54976 299.49721,101.89891 C 299.72687,103.24806 303.53148,104.7625 303.68902,106.12196 C 303.84656,107.48142 300.48913,109.82582 300.57409,111.19174 C 300.65906,112.55766 304.28114,114.46792 304.29328,115.83643 C 304.30543,117.20493 300.71782,119.17918 300.65711,120.54639 C 300.59641,121.9136 303.99492,124.19805 303.86153,125.56009 C 303.72815,126.92213 299.95101,128.50386 299.74533,129.85687 C 299.53964,131.20988 302.67607,133.84263 302.39867,135.18277 C 302.12126,136.52292 298.1974,137.6942 297.84906,139.01769 C 297.50072,140.34117 300.33954,143.29238 299.92126,144.59545 C 299.50298,145.89852 295.47685,146.64608 294.9898,147.92504 C 294.50276,149.204 297.01181,152.44024 296.45738,153.69147 C 295.90296,154.9427 291.82018,155.25807 291.19995,156.47802 C 290.57972,157.69796 292.73056,161.18257 292.04628,162.36777 z"
       transform="matrix(0.3358028,0,0,0.3358028,336.92549,325.03121)" />
    <path
       sodipodi:type="star"
       style="fill:none;fill-opacity:1;stroke:#000000;stroke-width:6.45815516;stroke-miterlimit:4;stroke-dasharray:none;stroke-opacity:1;display:inline"
       id="path20060"
       sodipodi:sides="59"
       sodipodi:cx="212.85715"
       sodipodi:cy="116.6479"
       sodipodi:r1="91.439735"
       sodipodi:r2="87.886475"
       sodipodi:arg1="0.52359878"
       sodipodi:arg2="0.57684611"
       inkscape:flatsided="false"
       inkscape:rounded="0.23"
       inkscape:randomized="0"
       d="M 292.04628,162.36777 C 291.362,163.55298 287.26883,163.43259 286.52244,164.5797 C 285.77605,165.72681 287.54432,169.42029 286.73793,170.52605 C 285.93155,171.63181 281.87436,171.07703 281.01027,172.1383 C 280.14618,173.19957 281.51184,177.06008 280.59249,178.07386 C 279.67314,179.08764 275.6979,178.10476 274.7259,179.06817 C 273.7539,180.03158 274.70147,184.01538 273.67958,184.9257 C 272.65768,185.83601 268.80944,184.43615 267.74054,185.29079 C 266.67164,186.14543 267.19039,190.20738 266.07752,191.00392 C 264.96465,191.80046 261.28701,189.99948 260.13332,190.73566 C 258.97963,191.47184 259.06369,195.56592 257.87246,196.23966 C 256.68122,196.91339 253.21585,194.73171 251.99044,195.34109 C 250.76504,195.95047 250.41345,200.03029 249.15735,200.57359 C 247.90125,201.11688 244.68741,198.57922 243.40417,199.05489 C 242.12094,199.53057 241.33768,203.5499 240.03095,203.95661 C 238.72422,204.36331 235.79832,201.49841 234.47179,201.83499 C 233.14527,202.17157 231.93921,206.08488 230.59666,206.35038 C 229.2541,206.61589 226.64929,203.45621 225.29451,203.64988 C 223.93973,203.84356 222.32454,207.6065 220.96137,207.7278 C 219.5982,207.84909 217.344,204.43044 215.97631,204.47901 C 214.60861,204.52758 212.6026,208.09753 211.23426,208.07324 C 209.86592,208.04895 207.98787,204.41006 206.62276,204.31298 C 205.25765,204.21589 202.88354,207.55239 201.52553,207.38279 C 200.16753,207.21319 198.68691,203.39529 197.33985,203.15366 C 195.9928,202.91203 193.27749,205.97727 191.9452,205.66428 C 190.61292,205.3513 189.54651,201.39765 188.23276,201.0142 C 186.91902,200.63075 183.89328,203.39001 182.60181,202.93718 C 181.31034,202.48436 180.67022,198.43976 179.40468,197.91884 C 178.13914,197.39792 174.83725,199.81993 173.60123,199.23239 C 172.3652,198.64486 172.15862,194.55513 170.95562,193.90264 C 169.75262,193.25016 166.212,195.30747 165.04543,194.59189 C 163.87886,193.8763 164.10816,189.78778 162.98133,189.01112 C 161.8545,188.23446 158.11525,189.90378 157.03135,189.06824 C 155.94745,188.23271 156.61004,184.19173 155.57214,183.29969 C 154.53425,182.40766 150.63875,183.67006 149.6498,182.72405 C 148.66086,181.77804 149.74922,177.83038 148.81203,176.83307 C 147.87483,175.83577 143.86721,176.67696 142.98442,175.63119 C 142.10163,174.58542 143.60344,170.7758 142.77756,169.68453 C 141.95168,168.59326 137.87736,169.0037 137.11073,167.87002 C 136.3441,166.73634 138.24233,163.10794 137.53713,161.93507 C 136.83192,160.76219 132.73705,160.73723 132.09527,159.52848 C 131.45349,158.31974 133.72664,154.91367 133.1501,153.67248 C 132.57356,152.43129 128.50454,151.97121 127.99487,150.7011 C 127.48521,149.43098 130.10753,146.28583 129.66619,144.99039 C 129.22484,143.69495 125.22778,142.80496 124.856,141.48787 C 124.48423,140.17078 127.42601,137.32218 127.12486,135.98716 C 126.82371,134.65215 122.94389,133.34235 122.71422,131.9932 C 122.48455,130.64405 125.71245,128.12428 125.55491,126.76482 C 125.39737,125.40536 121.67876,123.69058 121.59379,122.32466 C 121.50883,120.95874 124.98628,118.79635 124.97413,117.42785 C 124.96199,116.05934 121.44671,113.95901 121.50742,112.5918 C 121.56812,111.22459 125.25572,109.44408 125.38911,108.08204 C 125.52249,106.71999 122.25038,104.25791 122.45607,102.9049 C 122.66176,101.55188 126.51772,100.17343 126.79513,98.83328 C 127.07253,97.493133 124.08066,94.697192 124.429,93.373708 C 124.77734,92.050224 128.75798,91.08944 129.17626,89.786372 C 129.59455,88.483303 126.91682,85.385185 127.40386,84.106225 C 127.8909,82.827265 131.95111,82.29504 132.50554,81.043814 C 133.05996,79.792589 130.72671,76.427397 131.34694,75.207452 C 131.96717,73.987508 136.06095,73.889872 136.74523,72.704666 C 137.42951,71.51946 135.46717,67.925323 136.21356,66.778216 C 136.95995,65.63111 141.04091,65.969169 141.8473,64.863412 C 142.65368,63.757655 141.08449,59.975296 141.94858,58.914024 C 142.81267,57.852752 146.83459,58.622676 147.75394,57.608897 C 148.67328,56.595118 147.51503,52.667392 148.48703,51.70398 C 149.45903,50.740567 153.37632,51.933633 154.39822,51.023317 C 155.42012,50.113002 154.68592,46.084413 155.75482,45.229776 C 156.82371,44.375138 160.592,45.977828 161.70487,45.181291 C 162.81774,44.384754 162.51591,40.300947 163.66959,39.564768 C 164.82328,38.828589 168.39986,40.822743 169.59109,40.149009 C 170.78232,39.475276 170.91629,35.382522 172.14169,34.773143 C 173.36709,34.163764 176.71144,36.526788 177.96754,35.983491 C 179.22363,35.440194 179.79187,31.384866 181.0751,30.909191 C 182.35833,30.433517 185.43256,33.138637 186.73929,32.731933 C 188.04602,32.325229 189.0421,28.353274 190.36862,28.016694 C 191.69514,27.680113 194.46442,30.696679 195.80698,30.431176 C 197.14953,30.165672 198.56216,26.322096 199.91694,26.128423 C 201.27173,25.93475 203.70468,29.228583 205.06785,29.107289 C 206.43102,28.985995 208.24419,25.314346 209.61188,25.265775 C 210.97958,25.217204 213.04863,28.750983 214.41697,28.775272 C 215.78531,28.799561 217.97848,25.341441 219.34359,25.438522 C 220.7087,25.535603 222.39042,29.26929 223.74842,29.438887 C 225.10643,29.608485 227.65475,26.403075 229.00181,26.644708 C 230.34886,26.886342 231.62419,30.777631 232.95647,31.090615 C 234.28876,31.4036 237.16336,28.487219 238.4771,28.870666 C 239.79084,29.254114 240.64532,33.258917 241.93679,33.711742 C 243.22826,34.164567 246.39656,31.570258 247.6621,32.091176 C 248.92765,32.612094 249.3516,36.685034 250.58762,37.272568 C 251.82364,37.860103 255.24976,35.617261 256.45276,36.269747 C 257.65576,36.922232 257.64438,41.017162 258.81095,41.732749 C 259.97752,42.448336 263.62262,40.582374 264.74945,41.359034 C 265.87628,42.135695 265.42971,46.206216 266.51361,47.041748 C 267.5975,47.87728 271.4203,46.40934 272.45819,47.301375 C 273.49608,48.19341 272.61937,52.193403 273.60831,53.139413 C 274.59726,54.085423 278.55443,53.032137 279.49162,54.029439 C 280.42882,55.026742 279.13189,58.910885 280.01468,59.956654 C 280.89747,61.002423 284.94418,60.375725 285.77006,61.466996 C 286.59594,62.558267 284.8935,66.282551 285.66013,67.41623 C 286.42676,68.54991 290.51716,68.3569 291.22236,69.529775 C 291.92757,70.702649 289.83891,74.224876 290.4807,75.433621 C 291.12248,76.642365 295.21022,76.885232 295.78676,78.12642 C 296.3633,79.367609 293.91209,82.647871 294.42175,83.917985 C 294.93142,85.1881 298.97018,85.86409 299.41153,87.15953 C 299.85287,88.454969 297.06688,91.4561 297.43865,92.773193 C 297.81042,94.090286 301.75445,95.191741 302.0556,96.526754 C 302.35675,97.861767 299.26754,100.54976 299.49721,101.89891 C 299.72687,103.24806 303.53148,104.7625 303.68902,106.12196 C 303.84656,107.48142 300.48913,109.82582 300.57409,111.19174 C 300.65906,112.55766 304.28114,114.46792 304.29328,115.83643 C 304.30543,117.20493 300.71782,119.17918 300.65711,120.54639 C 300.59641,121.9136 303.99492,124.19805 303.86153,125.56009 C 303.72815,126.92213 299.95101,128.50386 299.74533,129.85687 C 299.53964,131.20988 302.67607,133.84263 302.39867,135.18277 C 302.12126,136.52292 298.1974,137.6942 297.84906,139.01769 C 297.50072,140.34117 300.33954,143.29238 299.92126,144.59545 C 299.50298,145.89852 295.47685,146.64608 294.9898,147.92504 C 294.50276,149.204 297.01181,152.44024 296.45738,153.69147 C 295.90296,154.9427 291.82018,155.25807 291.19995,156.47802 C 290.57972,157.69796 292.73056,161.18257 292.04628,162.36777 z"
       transform="matrix(0.2590126,0,0,0.2590126,353.27413,333.99027)" />
    <path
       sodipodi:type="star"
       style="fill:none;fill-opacity:1;stroke:#000000;stroke-width:7.17323542;stroke-miterlimit:4;stroke-dasharray:none;stroke-opacity:1;display:inline"
       id="path20062"
       sodipodi:sides="59"
       sodipodi:cx="212.85715"
       sodipodi:cy="116.6479"
       sodipodi:r1="91.439735"
       sodipodi:r2="87.886475"
       sodipodi:arg1="0.52359878"
       sodipodi:arg2="0.57684611"
       inkscape:flatsided="false"
       inkscape:rounded="0.23"
       inkscape:randomized="0"
       d="M 292.04628,162.36777 C 291.362,163.55298 287.26883,163.43259 286.52244,164.5797 C 285.77605,165.72681 287.54432,169.42029 286.73793,170.52605 C 285.93155,171.63181 281.87436,171.07703 281.01027,172.1383 C 280.14618,173.19957 281.51184,177.06008 280.59249,178.07386 C 279.67314,179.08764 275.6979,178.10476 274.7259,179.06817 C 273.7539,180.03158 274.70147,184.01538 273.67958,184.9257 C 272.65768,185.83601 268.80944,184.43615 267.74054,185.29079 C 266.67164,186.14543 267.19039,190.20738 266.07752,191.00392 C 264.96465,191.80046 261.28701,189.99948 260.13332,190.73566 C 258.97963,191.47184 259.06369,195.56592 257.87246,196.23966 C 256.68122,196.91339 253.21585,194.73171 251.99044,195.34109 C 250.76504,195.95047 250.41345,200.03029 249.15735,200.57359 C 247.90125,201.11688 244.68741,198.57922 243.40417,199.05489 C 242.12094,199.53057 241.33768,203.5499 240.03095,203.95661 C 238.72422,204.36331 235.79832,201.49841 234.47179,201.83499 C 233.14527,202.17157 231.93921,206.08488 230.59666,206.35038 C 229.2541,206.61589 226.64929,203.45621 225.29451,203.64988 C 223.93973,203.84356 222.32454,207.6065 220.96137,207.7278 C 219.5982,207.84909 217.344,204.43044 215.97631,204.47901 C 214.60861,204.52758 212.6026,208.09753 211.23426,208.07324 C 209.86592,208.04895 207.98787,204.41006 206.62276,204.31298 C 205.25765,204.21589 202.88354,207.55239 201.52553,207.38279 C 200.16753,207.21319 198.68691,203.39529 197.33985,203.15366 C 195.9928,202.91203 193.27749,205.97727 191.9452,205.66428 C 190.61292,205.3513 189.54651,201.39765 188.23276,201.0142 C 186.91902,200.63075 183.89328,203.39001 182.60181,202.93718 C 181.31034,202.48436 180.67022,198.43976 179.40468,197.91884 C 178.13914,197.39792 174.83725,199.81993 173.60123,199.23239 C 172.3652,198.64486 172.15862,194.55513 170.95562,193.90264 C 169.75262,193.25016 166.212,195.30747 165.04543,194.59189 C 163.87886,193.8763 164.10816,189.78778 162.98133,189.01112 C 161.8545,188.23446 158.11525,189.90378 157.03135,189.06824 C 155.94745,188.23271 156.61004,184.19173 155.57214,183.29969 C 154.53425,182.40766 150.63875,183.67006 149.6498,182.72405 C 148.66086,181.77804 149.74922,177.83038 148.81203,176.83307 C 147.87483,175.83577 143.86721,176.67696 142.98442,175.63119 C 142.10163,174.58542 143.60344,170.7758 142.77756,169.68453 C 141.95168,168.59326 137.87736,169.0037 137.11073,167.87002 C 136.3441,166.73634 138.24233,163.10794 137.53713,161.93507 C 136.83192,160.76219 132.73705,160.73723 132.09527,159.52848 C 131.45349,158.31974 133.72664,154.91367 133.1501,153.67248 C 132.57356,152.43129 128.50454,151.97121 127.99487,150.7011 C 127.48521,149.43098 130.10753,146.28583 129.66619,144.99039 C 129.22484,143.69495 125.22778,142.80496 124.856,141.48787 C 124.48423,140.17078 127.42601,137.32218 127.12486,135.98716 C 126.82371,134.65215 122.94389,133.34235 122.71422,131.9932 C 122.48455,130.64405 125.71245,128.12428 125.55491,126.76482 C 125.39737,125.40536 121.67876,123.69058 121.59379,122.32466 C 121.50883,120.95874 124.98628,118.79635 124.97413,117.42785 C 124.96199,116.05934 121.44671,113.95901 121.50742,112.5918 C 121.56812,111.22459 125.25572,109.44408 125.38911,108.08204 C 125.52249,106.71999 122.25038,104.25791 122.45607,102.9049 C 122.66176,101.55188 126.51772,100.17343 126.79513,98.83328 C 127.07253,97.493133 124.08066,94.697192 124.429,93.373708 C 124.77734,92.050224 128.75798,91.08944 129.17626,89.786372 C 129.59455,88.483303 126.91682,85.385185 127.40386,84.106225 C 127.8909,82.827265 131.95111,82.29504 132.50554,81.043814 C 133.05996,79.792589 130.72671,76.427397 131.34694,75.207452 C 131.96717,73.987508 136.06095,73.889872 136.74523,72.704666 C 137.42951,71.51946 135.46717,67.925323 136.21356,66.778216 C 136.95995,65.63111 141.04091,65.969169 141.8473,64.863412 C 142.65368,63.757655 141.08449,59.975296 141.94858,58.914024 C 142.81267,57.852752 146.83459,58.622676 147.75394,57.608897 C 148.67328,56.595118 147.51503,52.667392 148.48703,51.70398 C 149.45903,50.740567 153.37632,51.933633 154.39822,51.023317 C 155.42012,50.113002 154.68592,46.084413 155.75482,45.229776 C 156.82371,44.375138 160.592,45.977828 161.70487,45.181291 C 162.81774,44.384754 162.51591,40.300947 163.66959,39.564768 C 164.82328,38.828589 168.39986,40.822743 169.59109,40.149009 C 170.78232,39.475276 170.91629,35.382522 172.14169,34.773143 C 173.36709,34.163764 176.71144,36.526788 177.96754,35.983491 C 179.22363,35.440194 179.79187,31.384866 181.0751,30.909191 C 182.35833,30.433517 185.43256,33.138637 186.73929,32.731933 C 188.04602,32.325229 189.0421,28.353274 190.36862,28.016694 C 191.69514,27.680113 194.46442,30.696679 195.80698,30.431176 C 197.14953,30.165672 198.56216,26.322096 199.91694,26.128423 C 201.27173,25.93475 203.70468,29.228583 205.06785,29.107289 C 206.43102,28.985995 208.24419,25.314346 209.61188,25.265775 C 210.97958,25.217204 213.04863,28.750983 214.41697,28.775272 C 215.78531,28.799561 217.97848,25.341441 219.34359,25.438522 C 220.7087,25.535603 222.39042,29.26929 223.74842,29.438887 C 225.10643,29.608485 227.65475,26.403075 229.00181,26.644708 C 230.34886,26.886342 231.62419,30.777631 232.95647,31.090615 C 234.28876,31.4036 237.16336,28.487219 238.4771,28.870666 C 239.79084,29.254114 240.64532,33.258917 241.93679,33.711742 C 243.22826,34.164567 246.39656,31.570258 247.6621,32.091176 C 248.92765,32.612094 249.3516,36.685034 250.58762,37.272568 C 251.82364,37.860103 255.24976,35.617261 256.45276,36.269747 C 257.65576,36.922232 257.64438,41.017162 258.81095,41.732749 C 259.97752,42.448336 263.62262,40.582374 264.74945,41.359034 C 265.87628,42.135695 265.42971,46.206216 266.51361,47.041748 C 267.5975,47.87728 271.4203,46.40934 272.45819,47.301375 C 273.49608,48.19341 272.61937,52.193403 273.60831,53.139413 C 274.59726,54.085423 278.55443,53.032137 279.49162,54.029439 C 280.42882,55.026742 279.13189,58.910885 280.01468,59.956654 C 280.89747,61.002423 284.94418,60.375725 285.77006,61.466996 C 286.59594,62.558267 284.8935,66.282551 285.66013,67.41623 C 286.42676,68.54991 290.51716,68.3569 291.22236,69.529775 C 291.92757,70.702649 289.83891,74.224876 290.4807,75.433621 C 291.12248,76.642365 295.21022,76.885232 295.78676,78.12642 C 296.3633,79.367609 293.91209,82.647871 294.42175,83.917985 C 294.93142,85.1881 298.97018,85.86409 299.41153,87.15953 C 299.85287,88.454969 297.06688,91.4561 297.43865,92.773193 C 297.81042,94.090286 301.75445,95.191741 302.0556,96.526754 C 302.35675,97.861767 299.26754,100.54976 299.49721,101.89891 C 299.72687,103.24806 303.53148,104.7625 303.68902,106.12196 C 303.84656,107.48142 300.48913,109.82582 300.57409,111.19174 C 300.65906,112.55766 304.28114,114.46792 304.29328,115.83643 C 304.30543,117.20493 300.71782,119.17918 300.65711,120.54639 C 300.59641,121.9136 303.99492,124.19805 303.86153,125.56009 C 303.72815,126.92213 299.95101,128.50386 299.74533,129.85687 C 299.53964,131.20988 302.67607,133.84263 302.39867,135.18277 C 302.12126,136.52292 298.1974,137.6942 297.84906,139.01769 C 297.50072,140.34117 300.33954,143.29238 299.92126,144.59545 C 299.50298,145.89852 295.47685,146.64608 294.9898,147.92504 C 294.50276,149.204 297.01181,152.44024 296.45738,153.69147 C 295.90296,154.9427 291.82018,155.25807 291.19995,156.47802 C 290.57972,157.69796 292.73056,161.18257 292.04628,162.36777 z"
       transform="matrix(0.1822273,0,0,0.1822273,369.62171,342.94876)" />
    <path
       sodipodi:type="star"
       style="opacity:1;fill:#333333;fill-opacity:1;stroke:#000000;stroke-width:4.76599979;stroke-miterlimit:4;stroke-dasharray:none;stroke-opacity:1;display:inline"
       id="path15912"
       sodipodi:sides="59"
       sodipodi:cx="270"
       sodipodi:cy="578.07648"
       sodipodi:r1="142.46375"
       sodipodi:r2="140.05742"
       sodipodi:arg1="0.78539816"
       sodipodi:arg2="0.83864549"
       inkscape:flatsided="false"
       inkscape:rounded="0.71"
       inkscape:randomized="0"
       d="M 370.73708,678.81356 C 366.77284,682.7778 367.79391,678.49491 363.6243,682.24255 C 359.45469,685.99019 363.82185,685.43014 359.45869,688.95056 C 355.09553,692.47097 356.56606,688.32088 352.02172,691.60408 C 347.47739,694.88729 351.87933,694.79462 347.1667,697.83131 C 342.45406,700.868 344.35739,696.89773 339.48981,699.6793 C 334.62223,702.46087 339.00909,702.83662 334.00037,705.35519 C 328.99165,707.87376 331.30621,704.12829 326.17055,706.37671 C 321.03488,708.62513 325.35695,709.46505 320.1089,711.43695 C 314.86085,713.40886 317.56042,709.93063 312.21485,711.62043 C 306.86929,713.31022 311.07759,714.60479 305.64967,716.00769 C 300.22175,717.41059 303.27574,714.23901 297.78084,715.35104 C 292.28595,716.46306 296.33281,718.19761 290.78652,719.01561 C 285.24023,719.83361 288.61403,717.00462 283.03207,717.52627 C 277.4501,718.04793 281.28967,720.2028 275.68785,720.42663 C 270.08603,720.65046 273.74143,718.19611 268.13563,718.12149 C 262.52984,718.04686 266.11861,720.59765 260.52473,720.22477 C 254.93086,719.8519 258.82642,717.8 253.26032,717.12993 C 247.69422,716.45987 250.99152,719.37767 245.46897,718.41232 C 239.94642,717.44696 244.03803,715.82076 238.57468,714.56285 C 233.11134,713.30494 236.07981,716.55669 230.69116,715.0098 C 225.30251,713.4629 229.54379,712.28082 224.2451,710.44932 C 218.94641,708.61782 221.55243,712.16668 216.35873,710.05577 C 211.16504,707.94486 215.50793,707.22029 210.43394,704.83595 C 205.35995,702.45161 207.57398,706.25737 202.63408,703.60636 C 197.69418,700.95535 202.08949,700.69652 197.29769,697.78635 C 192.50588,694.87619 194.30285,698.89572 189.67272,695.73465 C 185.04259,692.57358 189.44051,692.7834 184.98518,689.38039 C 180.52985,685.97737 181.88939,690.16514 177.62149,686.52983 C 173.35359,682.89451 177.70429,683.57062 173.63593,679.71331 C 169.56756,675.856 170.47426,680.16455 166.61695,676.09618 C 162.75964,672.02782 167.01383,673.16254 163.37851,668.89464 C 159.7432,664.62675 160.18679,669.00727 156.78378,664.55194 C 153.38076,660.09661 157.49024,661.6771 154.32917,657.04697 C 151.1681,652.41684 151.14355,656.8197 148.23339,652.02789 C 145.32323,647.23608 149.24142,649.24443 146.59042,644.30453 C 143.93941,639.36463 143.44701,643.73993 141.06267,638.66594 C 138.67833,633.59195 142.36086,636.0054 140.24995,630.8117 C 138.13903,625.618 137.18436,629.91618 135.35286,624.61749 C 133.52136,619.31881 136.92649,622.11001 135.37959,616.72136 C 133.8327,611.33271 132.42656,615.50506 131.16866,610.04172 C 129.91075,604.57837 132.9999,607.71571 132.03455,602.19316 C 131.06919,596.67061 129.22753,600.66986 128.55747,595.10376 C 127.8874,589.53766 130.62558,592.98557 130.2527,587.3917 C 129.87983,581.79783 127.62351,585.57867 127.54888,579.97288 C 127.47425,574.36708 129.83042,578.08652 130.05425,572.4847 C 130.27808,566.88288 127.63266,570.40247 128.15432,564.82051 C 128.67597,559.23854 130.62344,563.18735 131.44144,557.64106 C 132.25944,552.09477 129.2549,555.31323 130.36692,549.81833 C 131.47895,544.32344 132.99566,548.45688 134.39855,543.02896 C 135.80145,537.60104 132.47183,540.4819 134.16163,535.13633 C 135.85143,529.79077 136.92018,534.06201 138.89209,528.81396 C 140.86399,523.56591 137.24702,526.07653 139.49544,520.94086 C 141.74386,515.8052 142.35256,520.16584 144.87112,515.15712 C 147.38969,510.1484 143.52634,512.26034 146.30792,507.39276 C 149.08949,502.52519 149.23123,506.92583 152.26792,502.21319 C 155.30462,497.50055 151.23867,499.18988 154.52188,494.64554 C 157.80508,490.1012 157.47826,494.49198 160.99867,490.12882 C 164.51908,485.76566 160.29661,487.01323 164.04425,482.84362 C 167.79189,478.67401 167.00021,483.00517 170.96445,479.04093 C 174.92869,475.07668 170.59753,475.86837 174.76714,472.12073 C 178.93675,468.37309 177.68918,472.59556 182.05234,469.07515 C 186.4155,465.55474 182.02472,465.88156 186.56906,462.59835 C 191.1134,459.31515 189.42407,463.38109 194.13671,460.3444 C 198.84935,457.30771 194.44871,457.16597 199.31629,454.38439 C 204.18386,451.60282 202.07192,455.46617 207.08064,452.9476 C 212.08936,450.42904 207.72872,449.82034 212.86439,447.57192 C 218.00005,445.32349 215.48943,448.94047 220.73748,446.96856 C 225.98553,444.99666 221.71429,443.9279 227.05985,442.23811 C 232.40542,440.54831 229.52456,443.87793 234.95248,442.47503 C 240.3804,441.07213 236.24696,439.55543 241.74185,438.4434 C 247.23675,437.33138 244.01829,440.33592 249.56458,439.51792 C 255.11087,438.69992 251.16206,436.75245 256.74403,436.23079 C 262.32599,435.70914 258.80641,438.35456 264.40822,438.13073 C 270.01004,437.9069 266.29061,435.55073 271.8964,435.62535 C 277.50219,435.69998 273.72135,437.95631 279.31522,438.32918 C 284.9091,438.70205 281.46118,435.96388 287.02728,436.63394 C 292.59338,437.30401 288.59413,439.14567 294.11668,440.11102 C 299.63923,441.07638 296.50189,437.98722 301.96524,439.24513 C 307.42858,440.50304 303.25623,441.90917 308.64488,443.45607 C 314.03353,445.00297 311.24233,441.59784 316.54102,443.42934 C 321.8397,445.26084 317.54152,446.21551 322.73522,448.32642 C 327.92892,450.43733 325.51547,446.75481 330.58946,449.13915 C 335.66346,451.52349 331.28815,452.01588 336.22805,454.66689 C 341.16795,457.3179 339.15961,453.3997 343.95141,456.30987 C 348.74322,459.22003 344.34036,459.24457 348.97049,462.40564 C 353.60062,465.56671 352.02013,461.45724 356.47546,464.86025 C 360.93079,468.26327 356.55027,467.81968 360.81816,471.45499 C 365.08606,475.0903 363.95134,470.83611 368.01971,474.69342 C 372.08808,478.55073 367.77952,477.64403 371.63683,481.7124 C 375.49414,485.78077 374.81804,481.43007 378.45335,485.69796 C 382.08866,489.96586 377.9009,488.60633 381.30391,493.06166 C 384.70693,497.51698 384.4971,493.11906 387.65817,497.74919 C 390.81924,502.37932 386.79971,500.58236 389.70987,505.37416 C 392.62004,510.16597 392.87888,505.77066 395.52988,510.71056 C 398.18089,515.65046 394.37514,513.43642 396.75948,518.51042 C 399.14382,523.58441 399.86838,519.24151 401.97929,524.43521 C 404.0902,529.62891 400.54134,527.02289 402.37284,532.32158 C 404.20434,537.62026 405.38642,533.37899 406.93332,538.76764 C 408.48022,544.15629 405.22846,541.18781 406.48637,546.65116 C 407.74428,552.1145 409.37048,548.0229 410.33584,553.54545 C 411.30119,559.068 408.38339,555.7707 409.05346,561.3368 C 409.72352,566.9029 411.77542,563.00733 412.1483,568.60121 C 412.52117,574.19508 409.97038,570.60632 410.04501,576.21211 C 410.11964,581.8179 412.57399,578.16251 412.35016,583.76433 C 412.12633,589.36614 409.97145,585.52658 409.4498,591.10854 C 408.92814,596.69051 411.75713,593.31671 410.93913,598.863 C 410.12113,604.40929 408.38659,600.36243 407.27456,605.85732 C 406.16254,611.35221 409.33411,608.29823 407.93121,613.72615 C 406.52831,619.15407 405.23375,614.94576 403.54395,620.29133 C 401.85415,625.63689 405.33238,622.93732 403.36048,628.18538 C 401.38857,633.43343 400.54866,629.11136 398.30023,634.24702 C 396.05181,639.38269 399.79728,637.06813 397.27871,642.07685 C 394.76015,647.08557 394.3844,642.69871 391.60282,647.56629 C 388.82125,652.43386 392.79153,650.53053 389.75483,655.24317 C 386.71814,659.95581 386.81081,655.55386 383.52761,660.0982 C 380.2444,664.64254 384.39449,663.17201 380.87408,667.53517 C 377.35367,671.89832 377.91371,667.53117 374.16608,671.70078 C 370.41844,675.87039 374.70132,674.84931 370.73708,678.81356 z"
       transform="matrix(0.8767,0,0,0.8767,-66.736288,-148.95567)" />
    <path
       sodipodi:type="arc"
       style="opacity:1;fill:#ffffff;fill-opacity:1;stroke:#000000;stroke-width:4.76599979;stroke-miterlimit:4;stroke-dasharray:none;stroke-opacity:1;display:inline"
       id="path15914"
       sodipodi:cx="409.61685"
       sodipodi:cy="325.55743"
       sodipodi:rx="112.63201"
       sodipodi:ry="112.63201"
       d="M 522.24886,325.55743 A 112.63201,112.63201 0 1 1 296.98484,325.55743 A 112.63201,112.63201 0 1 1 522.24886,325.55743 z"
       transform="matrix(0.9151993,0,0,0.9151993,-204.94704,59.855335)" />
    <path
       sodipodi:type="arc"
       style="opacity:1;fill:none;fill-opacity:0.12790695;stroke:#000000;stroke-width:4.76599979;stroke-miterlimit:4;stroke-dasharray:none;stroke-opacity:1;display:inline"
       id="path15916"
       sodipodi:cx="234.28572"
       sodipodi:cy="305.21933"
       sodipodi:rx="18.571428"
       sodipodi:ry="18.571428"
       d="M 252.85715,305.21933 A 18.571428,18.571428 0 1 1 215.71429,305.21933 A 18.571428,18.571428 0 1 1 252.85715,305.21933 z"
       transform="matrix(0.8767,0,0,0.8767,-35.464277,90.219485)" />
    <path
       style="fill:none;fill-rule:evenodd;stroke:#000000;stroke-width:0.87669998px;stroke-linecap:butt;stroke-linejoin:miter;stroke-opacity:1;display:inline"
       d="M 168.09537,341.51841 L 162.78177,255.17235"
       id="path15918" />
    <path
       style="fill:none;fill-rule:evenodd;stroke:#000000;stroke-width:0.87669998px;stroke-linecap:butt;stroke-linejoin:miter;stroke-opacity:1;display:inline"
       d="M 171.63778,342.84682 L 182.70779,256.50075"
       id="path15920" />
    <path
       style="fill:none;fill-rule:evenodd;stroke:#000000;stroke-width:0.87669998px;stroke-linecap:butt;stroke-linejoin:miter;stroke-opacity:1;display:inline"
       d="M 175.62298,343.28962 L 205.29061,262.25715"
       id="path15922" />
    <path
       style="fill:none;fill-rule:evenodd;stroke:#000000;stroke-width:0.87669998px;stroke-linecap:butt;stroke-linejoin:miter;stroke-opacity:1;display:inline"
       d="M 179.60818,344.17522 L 225.21662,272.44156"
       id="path15926" />
    <path
       style="fill:none;fill-rule:evenodd;stroke:#000000;stroke-width:0.87669998px;stroke-linecap:butt;stroke-linejoin:miter;stroke-opacity:1;display:inline"
       d="M 182.26498,346.83202 L 239.38623,283.95437"
       id="path15928" />
    <path
       style="fill:none;fill-rule:evenodd;stroke:#000000;stroke-width:0.87669998px;stroke-linecap:butt;stroke-linejoin:miter;stroke-opacity:1;display:inline"
       d="M 185.36458,350.37442 L 253.11304,296.79558"
       id="path15930" />
    <path
       style="fill:none;fill-rule:evenodd;stroke:#000000;stroke-width:0.87669998px;stroke-linecap:butt;stroke-linejoin:miter;stroke-opacity:1;display:inline"
       d="M 186.25019,354.80243 L 265.06865,318.9356"
       id="path15932" />
    <path
       style="fill:none;fill-rule:evenodd;stroke:#000000;stroke-width:0.87669998px;stroke-linecap:butt;stroke-linejoin:miter;stroke-opacity:1;display:inline"
       d="M 186.69299,359.23043 L 272.15345,351.70283"
       id="path15934" />
    <path
       style="fill:none;fill-rule:evenodd;stroke:#000000;stroke-width:0.87669998px;stroke-linecap:butt;stroke-linejoin:miter;stroke-opacity:1;display:inline"
       d="M 177.39418,255.61514 L 159.68217,343.73241"
       id="path15938" />
    <path
       style="fill:none;fill-rule:evenodd;stroke:#000000;stroke-width:0.87669998px;stroke-linecap:butt;stroke-linejoin:miter;stroke-opacity:1;display:inline"
       d="M 167.20978,342.40401 L 222.11702,269.78475"
       id="path15940" />
    <path
       style="fill:none;fill-rule:evenodd;stroke:#000000;stroke-width:0.87669998px;stroke-linecap:butt;stroke-linejoin:miter;stroke-opacity:1;display:inline"
       d="M 184.47898,350.37442 L 268.61105,330.89121"
       id="path15942" />
    <path
       style="fill:none;fill-rule:evenodd;stroke:#000000;stroke-width:0.87669998px;stroke-linecap:butt;stroke-linejoin:miter;stroke-opacity:1;display:inline"
       d="M 185.36458,362.77283 L 268.61105,381.81324"
       id="path15944" />
    <path
       style="fill:none;fill-rule:evenodd;stroke:#000000;stroke-width:0.87669998px;stroke-linecap:butt;stroke-linejoin:miter;stroke-opacity:1;display:inline"
       d="M 183.59339,368.08644 L 260.19785,407.49567"
       id="path15946" />
    <path
       style="fill:none;fill-rule:evenodd;stroke:#000000;stroke-width:0.87669998px;stroke-linecap:butt;stroke-linejoin:miter;stroke-opacity:1;display:inline"
       d="M 179.60818,371.62884 L 243.81423,430.07849"
       id="path15948" />
    <path
       style="fill:none;fill-rule:evenodd;stroke:#000000;stroke-width:0.87669998px;stroke-linecap:butt;stroke-linejoin:miter;stroke-opacity:1;display:inline"
       d="M 177.39418,372.95724 L 223.44541,445.1337"
       id="path15950" />
    <path
       style="fill:none;fill-rule:evenodd;stroke:#000000;stroke-width:0.87669998px;stroke-linecap:butt;stroke-linejoin:miter;stroke-opacity:1;display:inline"
       d="M 173.40898,373.40004 L 195.9918,457.08931"
       id="path15952" />
    <path
       style="fill:none;fill-rule:evenodd;stroke:#000000;stroke-width:0.87669998px;stroke-linecap:butt;stroke-linejoin:miter;stroke-opacity:1;display:inline"
       d="M 169.42378,373.40004 L 168.53818,460.18891"
       id="path15954" />
    <path
       style="fill:none;fill-rule:evenodd;stroke:#000000;stroke-width:0.87669998px;stroke-linecap:butt;stroke-linejoin:miter;stroke-opacity:1;display:inline"
       d="M 164.55297,372.95724 L 137.98494,454.4325"
       id="path15956" />
    <path
       style="fill:none;fill-rule:evenodd;stroke:#000000;stroke-width:0.87669998px;stroke-linecap:butt;stroke-linejoin:miter;stroke-opacity:1;display:inline"
       d="M 159.68217,368.97204 L 109.20293,441.59129"
       id="path15958" />
    <path
       style="fill:none;fill-rule:evenodd;stroke:#000000;stroke-width:0.87669998px;stroke-linecap:butt;stroke-linejoin:miter;stroke-opacity:1;display:inline"
       d="M 156.58257,367.20083 L 86.620109,417.68007"
       id="path15960" />
    <path
       style="fill:none;fill-rule:evenodd;stroke:#000000;stroke-width:0.87669998px;stroke-linecap:butt;stroke-linejoin:miter;stroke-opacity:1;display:inline"
       d="M 154.81136,364.10123 L 72.450499,385.79845"
       id="path15962" />
    <path
       style="fill:none;fill-rule:evenodd;stroke:#000000;stroke-width:0.87669998px;stroke-linecap:butt;stroke-linejoin:miter;stroke-opacity:1;display:inline"
       d="M 155.69696,360.11602 L 67.13689,353.91683"
       id="path15964" />
    <path
       style="fill:none;fill-rule:evenodd;stroke:#000000;stroke-width:0.87669998px;stroke-linecap:butt;stroke-linejoin:miter;stroke-opacity:1;display:inline"
       d="M 154.36857,353.03122 L 72.450499,322.478"
       id="path15968" />
    <path
       style="fill:none;fill-rule:evenodd;stroke:#000000;stroke-width:0.87669998px;stroke-linecap:butt;stroke-linejoin:miter;stroke-opacity:1;display:inline"
       d="M 156.13976,347.71762 L 93.704909,288.82517"
       id="path15970" />
    <path
       style="fill:none;fill-rule:evenodd;stroke:#000000;stroke-width:0.87669998px;stroke-linecap:butt;stroke-linejoin:miter;stroke-opacity:1;display:inline"
       d="M 157.91097,345.50362 L 123.81533,267.12796"
       id="path15972" />
    <path
       style="fill:none;fill-rule:evenodd;stroke:#000000;stroke-width:0.87669998px;stroke-linecap:butt;stroke-linejoin:miter;stroke-opacity:1;display:inline"
       d="M 187.57859,356.57362 L 250.89904,419.89408"
       id="path15974" />
    <path
       style="fill:none;fill-rule:evenodd;stroke:#000000;stroke-width:0.87669998px;stroke-linecap:butt;stroke-linejoin:miter;stroke-opacity:1;display:inline"
       d="M 185.80739,362.33003 L 205.7334,453.9897"
       id="path15976" />
    <path
       style="fill:none;fill-rule:evenodd;stroke:#000000;stroke-width:0.87669998px;stroke-linecap:butt;stroke-linejoin:miter;stroke-opacity:1;display:inline"
       d="M 182.70779,368.52923 L 130.90014,452.2185"
       id="path15978" />
    <path
       style="fill:none;fill-rule:evenodd;stroke:#000000;stroke-width:0.87669998px;stroke-linecap:butt;stroke-linejoin:miter;stroke-opacity:1;display:inline"
       d="M 185.36458,365.87244 L 161.45337,460.63171"
       id="path15980" />
    <path
       style="fill:none;fill-rule:evenodd;stroke:#000000;stroke-width:0.87669998px;stroke-linecap:butt;stroke-linejoin:miter;stroke-opacity:1;display:inline"
       d="M 174.73738,372.51444 L 95.033309,426.53609"
       id="path15982" />
    <path
       style="fill:none;fill-rule:evenodd;stroke:#000000;stroke-width:0.87669998px;stroke-linecap:butt;stroke-linejoin:miter;stroke-opacity:1;display:inline"
       d="M 165.43857,373.84284 L 67.57969,372.51444"
       id="path15984" />
    <path
       style="fill:none;fill-rule:evenodd;stroke:#000000;stroke-width:0.87669998px;stroke-linecap:butt;stroke-linejoin:miter;stroke-opacity:1;display:inline"
       d="M 170.75218,374.28564 L 76.435699,402.62487"
       id="path15986" />
    <path
       style="fill:none;fill-rule:evenodd;stroke:#000000;stroke-width:0.87669998px;stroke-linecap:butt;stroke-linejoin:miter;stroke-opacity:1;display:inline"
       d="M 157.02536,367.64363 L 79.978099,308.30839"
       id="path15988" />
    <path
       style="fill:none;fill-rule:evenodd;stroke:#000000;stroke-width:0.87669998px;stroke-linecap:butt;stroke-linejoin:miter;stroke-opacity:1;display:inline"
       d="M 160.56776,371.18604 L 69.350889,335.76201"
       id="path15990" />
    <path
       style="fill:none;fill-rule:evenodd;stroke:#000000;stroke-width:0.87669998px;stroke-linecap:butt;stroke-linejoin:miter;stroke-opacity:1;display:inline"
       d="M 155.69696,350.81722 L 143.74136,258.71475"
       id="path15992" />
    <path
       style="fill:none;fill-rule:evenodd;stroke:#000000;stroke-width:0.87669998px;stroke-linecap:butt;stroke-linejoin:miter;stroke-opacity:1;display:inline"
       d="M 156.58257,366.75804 L 133.11414,262.69995"
       id="path15998" />
    <path
       style="fill:none;fill-rule:evenodd;stroke:#000000;stroke-width:0.68823153px;stroke-linecap:butt;stroke-linejoin:miter;stroke-opacity:1;display:inline"
       d="M 152.43603,352.01958 L 106.89468,275.44693"
       id="path16000" />
    <path
       style="fill:none;fill-rule:evenodd;stroke:#000000;stroke-width:0.87669998px;stroke-linecap:butt;stroke-linejoin:miter;stroke-opacity:1;display:inline"
       d="M 177.83698,344.17522 L 266.83985,394.65445"
       id="path16002" />
    <path
       style="fill:none;fill-rule:evenodd;stroke:#000000;stroke-width:0.87669998px;stroke-linecap:butt;stroke-linejoin:miter;stroke-opacity:1;display:inline"
       d="M 172.96618,342.84682 L 271.26785,364.10123"
       id="path16004" />
    <rect
       style="opacity:1;fill:#555555;fill-opacity:1;stroke:#000000;stroke-width:3.21952176;stroke-miterlimit:4;stroke-dasharray:none;stroke-opacity:1;display:inline"
       id="rect16024"
       width="20.442049"
       height="264.8678"
       x="228.87334"
       y="59.67284"
       rx="10.221025"
       ry="13.165948"
       transform="matrix(0.9787868,0.2048813,-0.2048813,0.9787868,0,0)" />
    <rect
       style="opacity:1;fill:#555555;fill-opacity:1;stroke:#000000;stroke-width:3.67677617;stroke-miterlimit:4;stroke-dasharray:none;stroke-opacity:1;display:inline"
       id="rect16995"
       width="62.493622"
       height="16.442389"
       x="177.88083"
       y="86.015556"
       rx="7.6729841"
       ry="13.580213"
       transform="matrix(0.9953614,9.62065e-2,-9.62065e-2,0.9953614,0,0)" />
    <path
       sodipodi:type="arc"
       style="opacity:1;fill:#555555;fill-opacity:1;stroke:#000000;stroke-width:4.76599979;stroke-miterlimit:4;stroke-dasharray:none;stroke-opacity:1;display:inline"
       id="path16997"
       sodipodi:cx="101.52033"
       sodipodi:cy="355.862"
       sodipodi:rx="11.616755"
       sodipodi:ry="11.616755"
       d="M 113.13709,355.862 A 11.616755,11.616755 0 1 1 89.903578,355.862 A 11.616755,11.616755 0 1 1 113.13709,355.862 z"
       transform="matrix(0.8767,0,0,0.8767,86.620109,-200.27917)" />
    <rect
       style="opacity:1;fill:#ffffff;fill-opacity:1;stroke:#000000;stroke-width:2.13384938;stroke-miterlimit:4;stroke-dasharray:none;stroke-opacity:1;display:inline"
       id="rect21161"
       width="36.551044"
       height="3.1753988"
       x="39.228081"
       y="199.72389"
       transform="matrix(0.69697,-0.7171003,0.6329165,0.7742201,0,0)" />
    <rect
       style="opacity:1;fill:#555555;fill-opacity:1;stroke:#000000;stroke-width:3.12528968;stroke-miterlimit:4;stroke-dasharray:none;stroke-opacity:1;display:inline"
       id="rect16999"
       width="53.12009"
       height="13.976165"
       x="151.87053"
       y="-53.93206"
       rx="6.5220995"
       ry="11.543292"
       transform="matrix(0.7025671,0.7116175,-0.7116175,0.7025671,0,0)" />
    <rect
       style="opacity:1;fill:#b59f55;fill-opacity:1;stroke:#000000;stroke-width:3.65992689;stroke-miterlimit:4;stroke-dasharray:none;stroke-opacity:1;display:inline"
       id="rect17003"
       width="269.65347"
       height="15.45781"
       x="280.07397"
       y="-10.836419"
       rx="5.4407969"
       ry="10.074176"
       transform="matrix(0.7400765,0.6725227,-0.5064378,0.8622765,0,0)" />
    <path
       sodipodi:type="star"
       style="fill:#333333;fill-opacity:1;stroke:#000000;stroke-width:4.76599979;stroke-miterlimit:4;stroke-dasharray:none;stroke-opacity:1;display:inline"
       id="path17005"
       sodipodi:sides="59"
       sodipodi:cx="270"
       sodipodi:cy="578.07648"
       sodipodi:r1="142.46375"
       sodipodi:r2="140.05742"
       sodipodi:arg1="0.78539816"
       sodipodi:arg2="0.83864549"
       inkscape:flatsided="false"
       inkscape:rounded="0.71"
       inkscape:randomized="0"
       d="M 370.73708,678.81356 C 366.77284,682.7778 367.79391,678.49491 363.6243,682.24255 C 359.45469,685.99019 363.82185,685.43014 359.45869,688.95056 C 355.09553,692.47097 356.56606,688.32088 352.02172,691.60408 C 347.47739,694.88729 351.87933,694.79462 347.1667,697.83131 C 342.45406,700.868 344.35739,696.89773 339.48981,699.6793 C 334.62223,702.46087 339.00909,702.83662 334.00037,705.35519 C 328.99165,707.87376 331.30621,704.12829 326.17055,706.37671 C 321.03488,708.62513 325.35695,709.46505 320.1089,711.43695 C 314.86085,713.40886 317.56042,709.93063 312.21485,711.62043 C 306.86929,713.31022 311.07759,714.60479 305.64967,716.00769 C 300.22175,717.41059 303.27574,714.23901 297.78084,715.35104 C 292.28595,716.46306 296.33281,718.19761 290.78652,719.01561 C 285.24023,719.83361 288.61403,717.00462 283.03207,717.52627 C 277.4501,718.04793 281.28967,720.2028 275.68785,720.42663 C 270.08603,720.65046 273.74143,718.19611 268.13563,718.12149 C 262.52984,718.04686 266.11861,720.59765 260.52473,720.22477 C 254.93086,719.8519 258.82642,717.8 253.26032,717.12993 C 247.69422,716.45987 250.99152,719.37767 245.46897,718.41232 C 239.94642,717.44696 244.03803,715.82076 238.57468,714.56285 C 233.11134,713.30494 236.07981,716.55669 230.69116,715.0098 C 225.30251,713.4629 229.54379,712.28082 224.2451,710.44932 C 218.94641,708.61782 221.55243,712.16668 216.35873,710.05577 C 211.16504,707.94486 215.50793,707.22029 210.43394,704.83595 C 205.35995,702.45161 207.57398,706.25737 202.63408,703.60636 C 197.69418,700.95535 202.08949,700.69652 197.29769,697.78635 C 192.50588,694.87619 194.30285,698.89572 189.67272,695.73465 C 185.04259,692.57358 189.44051,692.7834 184.98518,689.38039 C 180.52985,685.97737 181.88939,690.16514 177.62149,686.52983 C 173.35359,682.89451 177.70429,683.57062 173.63593,679.71331 C 169.56756,675.856 170.47426,680.16455 166.61695,676.09618 C 162.75964,672.02782 167.01383,673.16254 163.37851,668.89464 C 159.7432,664.62675 160.18679,669.00727 156.78378,664.55194 C 153.38076,660.09661 157.49024,661.6771 154.32917,657.04697 C 151.1681,652.41684 151.14355,656.8197 148.23339,652.02789 C 145.32323,647.23608 149.24142,649.24443 146.59042,644.30453 C 143.93941,639.36463 143.44701,643.73993 141.06267,638.66594 C 138.67833,633.59195 142.36086,636.0054 140.24995,630.8117 C 138.13903,625.618 137.18436,629.91618 135.35286,624.61749 C 133.52136,619.31881 136.92649,622.11001 135.37959,616.72136 C 133.8327,611.33271 132.42656,615.50506 131.16866,610.04172 C 129.91075,604.57837 132.9999,607.71571 132.03455,602.19316 C 131.06919,596.67061 129.22753,600.66986 128.55747,595.10376 C 127.8874,589.53766 130.62558,592.98557 130.2527,587.3917 C 129.87983,581.79783 127.62351,585.57867 127.54888,579.97288 C 127.47425,574.36708 129.83042,578.08652 130.05425,572.4847 C 130.27808,566.88288 127.63266,570.40247 128.15432,564.82051 C 128.67597,559.23854 130.62344,563.18735 131.44144,557.64106 C 132.25944,552.09477 129.2549,555.31323 130.36692,549.81833 C 131.47895,544.32344 132.99566,548.45688 134.39855,543.02896 C 135.80145,537.60104 132.47183,540.4819 134.16163,535.13633 C 135.85143,529.79077 136.92018,534.06201 138.89209,528.81396 C 140.86399,523.56591 137.24702,526.07653 139.49544,520.94086 C 141.74386,515.8052 142.35256,520.16584 144.87112,515.15712 C 147.38969,510.1484 143.52634,512.26034 146.30792,507.39276 C 149.08949,502.52519 149.23123,506.92583 152.26792,502.21319 C 155.30462,497.50055 151.23867,499.18988 154.52188,494.64554 C 157.80508,490.1012 157.47826,494.49198 160.99867,490.12882 C 164.51908,485.76566 160.29661,487.01323 164.04425,482.84362 C 167.79189,478.67401 167.00021,483.00517 170.96445,479.04093 C 174.92869,475.07668 170.59753,475.86837 174.76714,472.12073 C 178.93675,468.37309 177.68918,472.59556 182.05234,469.07515 C 186.4155,465.55474 182.02472,465.88156 186.56906,462.59835 C 191.1134,459.31515 189.42407,463.38109 194.13671,460.3444 C 198.84935,457.30771 194.44871,457.16597 199.31629,454.38439 C 204.18386,451.60282 202.07192,455.46617 207.08064,452.9476 C 212.08936,450.42904 207.72872,449.82034 212.86439,447.57192 C 218.00005,445.32349 215.48943,448.94047 220.73748,446.96856 C 225.98553,444.99666 221.71429,443.9279 227.05985,442.23811 C 232.40542,440.54831 229.52456,443.87793 234.95248,442.47503 C 240.3804,441.07213 236.24696,439.55543 241.74185,438.4434 C 247.23675,437.33138 244.01829,440.33592 249.56458,439.51792 C 255.11087,438.69992 251.16206,436.75245 256.74403,436.23079 C 262.32599,435.70914 258.80641,438.35456 264.40822,438.13073 C 270.01004,437.9069 266.29061,435.55073 271.8964,435.62535 C 277.50219,435.69998 273.72135,437.95631 279.31522,438.32918 C 284.9091,438.70205 281.46118,435.96388 287.02728,436.63394 C 292.59338,437.30401 288.59413,439.14567 294.11668,440.11102 C 299.63923,441.07638 296.50189,437.98722 301.96524,439.24513 C 307.42858,440.50304 303.25623,441.90917 308.64488,443.45607 C 314.03353,445.00297 311.24233,441.59784 316.54102,443.42934 C 321.8397,445.26084 317.54152,446.21551 322.73522,448.32642 C 327.92892,450.43733 325.51547,446.75481 330.58946,449.13915 C 335.66346,451.52349 331.28815,452.01588 336.22805,454.66689 C 341.16795,457.3179 339.15961,453.3997 343.95141,456.30987 C 348.74322,459.22003 344.34036,459.24457 348.97049,462.40564 C 353.60062,465.56671 352.02013,461.45724 356.47546,464.86025 C 360.93079,468.26327 356.55027,467.81968 360.81816,471.45499 C 365.08606,475.0903 363.95134,470.83611 368.01971,474.69342 C 372.08808,478.55073 367.77952,477.64403 371.63683,481.7124 C 375.49414,485.78077 374.81804,481.43007 378.45335,485.69796 C 382.08866,489.96586 377.9009,488.60633 381.30391,493.06166 C 384.70693,497.51698 384.4971,493.11906 387.65817,497.74919 C 390.81924,502.37932 386.79971,500.58236 389.70987,505.37416 C 392.62004,510.16597 392.87888,505.77066 395.52988,510.71056 C 398.18089,515.65046 394.37514,513.43642 396.75948,518.51042 C 399.14382,523.58441 399.86838,519.24151 401.97929,524.43521 C 404.0902,529.62891 400.54134,527.02289 402.37284,532.32158 C 404.20434,537.62026 405.38642,533.37899 406.93332,538.76764 C 408.48022,544.15629 405.22846,541.18781 406.48637,546.65116 C 407.74428,552.1145 409.37048,548.0229 410.33584,553.54545 C 411.30119,559.068 408.38339,555.7707 409.05346,561.3368 C 409.72352,566.9029 411.77542,563.00733 412.1483,568.60121 C 412.52117,574.19508 409.97038,570.60632 410.04501,576.21211 C 410.11964,581.8179 412.57399,578.16251 412.35016,583.76433 C 412.12633,589.36614 409.97145,585.52658 409.4498,591.10854 C 408.92814,596.69051 411.75713,593.31671 410.93913,598.863 C 410.12113,604.40929 408.38659,600.36243 407.27456,605.85732 C 406.16254,611.35221 409.33411,608.29823 407.93121,613.72615 C 406.52831,619.15407 405.23375,614.94576 403.54395,620.29133 C 401.85415,625.63689 405.33238,622.93732 403.36048,628.18538 C 401.38857,633.43343 400.54866,629.11136 398.30023,634.24702 C 396.05181,639.38269 399.79728,637.06813 397.27871,642.07685 C 394.76015,647.08557 394.3844,642.69871 391.60282,647.56629 C 388.82125,652.43386 392.79153,650.53053 389.75483,655.24317 C 386.71814,659.95581 386.81081,655.55386 383.52761,660.0982 C 380.2444,664.64254 384.39449,663.17201 380.87408,667.53517 C 377.35367,671.89832 377.91371,667.53117 374.16608,671.70078 C 370.41844,675.87039 374.70132,674.84931 370.73708,678.81356 z"
       transform="matrix(0.8767,0,0,0.8767,330.53854,-156.99824)" />
    <path
       style="fill:none;fill-rule:evenodd;stroke:#000000;stroke-width:1.92873979;stroke-linecap:butt;stroke-linejoin:miter;stroke-miterlimit:4;stroke-dasharray:none;stroke-opacity:1;display:inline"
       d="M 408.38356,333.75551 L 447.22084,336.39671"
       id="path20071" />
    <path
       sodipodi:type="arc"
       style="fill:#ffffff;fill-opacity:1;stroke:#000000;stroke-width:4.76599979;stroke-miterlimit:4;stroke-dasharray:none;stroke-opacity:1;display:inline"
       id="path17007"
       sodipodi:cx="409.61685"
       sodipodi:cy="325.55743"
       sodipodi:rx="112.63201"
       sodipodi:ry="112.63201"
       d="M 522.24886,325.55743 A 112.63201,112.63201 0 1 1 296.98484,325.55743 A 112.63201,112.63201 0 1 1 522.24886,325.55743 z"
       transform="matrix(0.9151993,0,0,0.9151993,192.32778,51.812765)" />
    <path
       sodipodi:type="arc"
       style="fill:none;fill-opacity:0.12790695;stroke:#000000;stroke-width:4.76599979;stroke-miterlimit:4;stroke-dasharray:none;stroke-opacity:1;display:inline"
       id="path17009"
       sodipodi:cx="234.28572"
       sodipodi:cy="305.21933"
       sodipodi:rx="18.571428"
       sodipodi:ry="18.571428"
       d="M 252.85715,305.21933 A 18.571428,18.571428 0 1 1 215.71429,305.21933 A 18.571428,18.571428 0 1 1 252.85715,305.21933 z"
       transform="matrix(0.8767,0,0,0.8767,361.81055,82.176915)" />
    <path
       style="fill:none;fill-rule:evenodd;stroke:#000000;stroke-width:0.87669998px;stroke-linecap:butt;stroke-linejoin:miter;stroke-opacity:1;display:inline"
       d="M 565.37019,333.47585 L 560.05658,247.12978"
       id="path17011" />
    <path
       style="fill:none;fill-rule:evenodd;stroke:#000000;stroke-width:0.87669998px;stroke-linecap:butt;stroke-linejoin:miter;stroke-opacity:1;display:inline"
       d="M 568.9126,334.80425 L 579.98261,248.45818"
       id="path17013" />
    <path
       style="fill:none;fill-rule:evenodd;stroke:#000000;stroke-width:0.87669998px;stroke-linecap:butt;stroke-linejoin:miter;stroke-opacity:1;display:inline"
       d="M 572.8978,335.24705 L 602.56542,254.21459"
       id="path17015" />
    <path
       style="fill:none;fill-rule:evenodd;stroke:#000000;stroke-width:0.87669998px;stroke-linecap:butt;stroke-linejoin:miter;stroke-opacity:1;display:inline"
       d="M 576.883,336.13265 L 622.49144,264.39899"
       id="path17017" />
    <path
       style="fill:none;fill-rule:evenodd;stroke:#000000;stroke-width:0.87669998px;stroke-linecap:butt;stroke-linejoin:miter;stroke-opacity:1;display:inline"
       d="M 579.5398,338.78946 L 636.66105,275.91181"
       id="path17019" />
    <path
       style="fill:none;fill-rule:evenodd;stroke:#000000;stroke-width:0.87669998px;stroke-linecap:butt;stroke-linejoin:miter;stroke-opacity:1;display:inline"
       d="M 582.6394,342.33186 L 650.38786,288.75302"
       id="path17021" />
    <path
       style="fill:none;fill-rule:evenodd;stroke:#000000;stroke-width:0.87669998px;stroke-linecap:butt;stroke-linejoin:miter;stroke-opacity:1;display:inline"
       d="M 583.52501,346.75986 L 662.34347,310.89303"
       id="path17023" />
    <path
       style="fill:none;fill-rule:evenodd;stroke:#000000;stroke-width:0.87669998px;stroke-linecap:butt;stroke-linejoin:miter;stroke-opacity:1;display:inline"
       d="M 583.9678,351.18786 L 669.42827,343.66026"
       id="path17025" />
    <path
       style="fill:none;fill-rule:evenodd;stroke:#000000;stroke-width:0.87669998px;stroke-linecap:butt;stroke-linejoin:miter;stroke-opacity:1;display:inline"
       d="M 574.669,247.57258 L 556.95699,335.68985"
       id="path17027" />
    <path
       style="fill:none;fill-rule:evenodd;stroke:#000000;stroke-width:0.87669998px;stroke-linecap:butt;stroke-linejoin:miter;stroke-opacity:1;display:inline"
       d="M 564.48459,334.36145 L 619.39184,261.74219"
       id="path17029" />
    <path
       style="fill:none;fill-rule:evenodd;stroke:#000000;stroke-width:0.87669998px;stroke-linecap:butt;stroke-linejoin:miter;stroke-opacity:1;display:inline"
       d="M 581.7538,342.33186 L 665.88587,322.84864"
       id="path17031" />
    <path
       style="fill:none;fill-rule:evenodd;stroke:#000000;stroke-width:0.87669998px;stroke-linecap:butt;stroke-linejoin:miter;stroke-opacity:1;display:inline"
       d="M 582.6394,354.73026 L 665.88587,373.77068"
       id="path17033" />
    <path
       style="fill:none;fill-rule:evenodd;stroke:#000000;stroke-width:0.87669998px;stroke-linecap:butt;stroke-linejoin:miter;stroke-opacity:1;display:inline"
       d="M 580.86821,360.04387 L 657.47267,399.45311"
       id="path17035" />
    <path
       style="fill:none;fill-rule:evenodd;stroke:#000000;stroke-width:0.87669998px;stroke-linecap:butt;stroke-linejoin:miter;stroke-opacity:1;display:inline"
       d="M 576.883,363.58628 L 641.08905,422.03592"
       id="path17037" />
    <path
       style="fill:none;fill-rule:evenodd;stroke:#000000;stroke-width:0.87669998px;stroke-linecap:butt;stroke-linejoin:miter;stroke-opacity:1;display:inline"
       d="M 574.669,364.91468 L 620.72023,437.09113"
       id="path17039" />
    <path
       style="fill:none;fill-rule:evenodd;stroke:#000000;stroke-width:0.87669998px;stroke-linecap:butt;stroke-linejoin:miter;stroke-opacity:1;display:inline"
       d="M 570.6838,365.35747 L 593.26662,449.04674"
       id="path17041" />
    <path
       style="fill:none;fill-rule:evenodd;stroke:#000000;stroke-width:0.87669998px;stroke-linecap:butt;stroke-linejoin:miter;stroke-opacity:1;display:inline"
       d="M 566.69859,365.35747 L 565.813,452.14634"
       id="path17043" />
    <path
       style="fill:none;fill-rule:evenodd;stroke:#000000;stroke-width:0.87669998px;stroke-linecap:butt;stroke-linejoin:miter;stroke-opacity:1;display:inline"
       d="M 561.82779,364.91468 L 535.25977,446.38994"
       id="path17045" />
    <path
       style="fill:none;fill-rule:evenodd;stroke:#000000;stroke-width:0.87669998px;stroke-linecap:butt;stroke-linejoin:miter;stroke-opacity:1;display:inline"
       d="M 556.95699,360.92947 L 506.47775,433.54873"
       id="path17047" />
    <path
       style="fill:none;fill-rule:evenodd;stroke:#000000;stroke-width:0.87669998px;stroke-linecap:butt;stroke-linejoin:miter;stroke-opacity:1;display:inline"
       d="M 553.85739,359.15827 L 483.89493,409.63751"
       id="path17049" />
    <path
       style="fill:none;fill-rule:evenodd;stroke:#000000;stroke-width:0.87669998px;stroke-linecap:butt;stroke-linejoin:miter;stroke-opacity:1;display:inline"
       d="M 552.08618,356.05867 L 469.72532,377.75589"
       id="path17051" />
    <path
       style="fill:none;fill-rule:evenodd;stroke:#000000;stroke-width:0.87669998px;stroke-linecap:butt;stroke-linejoin:miter;stroke-opacity:1;display:inline"
       d="M 552.97178,352.07346 L 464.41171,345.87426"
       id="path17053" />
    <path
       style="fill:none;fill-rule:evenodd;stroke:#000000;stroke-width:0.87669998px;stroke-linecap:butt;stroke-linejoin:miter;stroke-opacity:1;display:inline"
       d="M 551.64339,344.98865 L 469.72532,314.43543"
       id="path17055" />
    <path
       style="fill:none;fill-rule:evenodd;stroke:#000000;stroke-width:0.87669998px;stroke-linecap:butt;stroke-linejoin:miter;stroke-opacity:1;display:inline"
       d="M 553.41458,339.67506 L 490.97974,280.7826"
       id="path17057" />
    <path
       style="fill:none;fill-rule:evenodd;stroke:#000000;stroke-width:0.87669998px;stroke-linecap:butt;stroke-linejoin:miter;stroke-opacity:1;display:inline"
       d="M 555.18579,337.46105 L 521.09015,259.08539"
       id="path17059" />
    <path
       style="fill:none;fill-rule:evenodd;stroke:#000000;stroke-width:0.87669998px;stroke-linecap:butt;stroke-linejoin:miter;stroke-opacity:1;display:inline"
       d="M 584.85341,348.53106 L 648.17386,411.85151"
       id="path17061" />
    <path
       style="fill:none;fill-rule:evenodd;stroke:#000000;stroke-width:0.87669998px;stroke-linecap:butt;stroke-linejoin:miter;stroke-opacity:1;display:inline"
       d="M 583.08221,354.28747 L 603.00822,445.94713"
       id="path17063" />
    <path
       style="fill:none;fill-rule:evenodd;stroke:#000000;stroke-width:0.87669998px;stroke-linecap:butt;stroke-linejoin:miter;stroke-opacity:1;display:inline"
       d="M 579.98261,360.48667 L 528.17496,444.17594"
       id="path17065" />
    <path
       style="fill:none;fill-rule:evenodd;stroke:#000000;stroke-width:0.87669998px;stroke-linecap:butt;stroke-linejoin:miter;stroke-opacity:1;display:inline"
       d="M 582.6394,357.82987 L 558.72819,452.58914"
       id="path17067" />
    <path
       style="fill:none;fill-rule:evenodd;stroke:#000000;stroke-width:0.87669998px;stroke-linecap:butt;stroke-linejoin:miter;stroke-opacity:1;display:inline"
       d="M 572.01219,364.47187 L 492.30814,418.49352"
       id="path17069" />
    <path
       style="fill:none;fill-rule:evenodd;stroke:#000000;stroke-width:0.87669998px;stroke-linecap:butt;stroke-linejoin:miter;stroke-opacity:1;display:inline"
       d="M 562.71339,365.80028 L 464.85452,364.47187"
       id="path17071" />
    <path
       style="fill:none;fill-rule:evenodd;stroke:#000000;stroke-width:0.87669998px;stroke-linecap:butt;stroke-linejoin:miter;stroke-opacity:1;display:inline"
       d="M 568.027,366.24308 L 473.71052,394.5823"
       id="path17073" />
    <path
       style="fill:none;fill-rule:evenodd;stroke:#000000;stroke-width:0.87669998px;stroke-linecap:butt;stroke-linejoin:miter;stroke-opacity:1;display:inline"
       d="M 554.30018,359.60107 L 477.25292,300.26582"
       id="path17075" />
    <path
       style="fill:none;fill-rule:evenodd;stroke:#000000;stroke-width:0.87669998px;stroke-linecap:butt;stroke-linejoin:miter;stroke-opacity:1;display:inline"
       d="M 557.84258,363.14347 L 466.62571,327.71944"
       id="path17077" />
    <path
       style="fill:none;fill-rule:evenodd;stroke:#000000;stroke-width:0.87669998px;stroke-linecap:butt;stroke-linejoin:miter;stroke-opacity:1;display:inline"
       d="M 552.97178,342.77465 L 541.01618,250.67219"
       id="path17079" />
    <path
       style="fill:none;fill-rule:evenodd;stroke:#000000;stroke-width:0.87669998px;stroke-linecap:butt;stroke-linejoin:miter;stroke-opacity:1;display:inline"
       d="M 553.85739,358.71547 L 530.38896,254.65738"
       id="path17081" />
    <path
       style="fill:none;fill-rule:evenodd;stroke:#000000;stroke-width:0.68823153px;stroke-linecap:butt;stroke-linejoin:miter;stroke-opacity:1;display:inline"
       d="M 549.71085,343.97701 L 504.1695,267.40436"
       id="path17083" />
    <path
       style="fill:none;fill-rule:evenodd;stroke:#000000;stroke-width:0.87669998px;stroke-linecap:butt;stroke-linejoin:miter;stroke-opacity:1;display:inline"
       d="M 575.1118,336.13265 L 664.11467,386.61189"
       id="path17085" />
    <path
       style="fill:none;fill-rule:evenodd;stroke:#000000;stroke-width:0.87669998px;stroke-linecap:butt;stroke-linejoin:miter;stroke-opacity:1;display:inline"
       d="M 570.241,334.80425 L 668.54267,356.05867"
       id="path17087" />
    <rect
       style="opacity:1;fill:#555555;fill-opacity:1;stroke:#000000;stroke-width:3.31056762;stroke-miterlimit:4;stroke-dasharray:none;stroke-opacity:1;display:inline"
       id="rect17133"
       width="256.11102"
       height="14.033481"
       x="41.082924"
       y="-471.97415"
       rx="5.167552"
       ry="9.1459141"
       transform="matrix(-0.1703542,0.9853829,-0.9853829,-0.1703542,0,0)"
       inkscape:transform-center-y="-6.199204"
       inkscape:transform-center-x="-3.2904899e-05" />
    <rect
       style="opacity:1;fill:#555555;fill-opacity:1;stroke:#000000;stroke-width:2.57725406;stroke-miterlimit:4;stroke-dasharray:none;stroke-opacity:1;display:inline"
       id="rect17135"
       width="198.96661"
       height="10.947703"
       x="-649.62543"
       y="187.39427"
       rx="4.0145488"
       ry="7.1348481"
       transform="matrix(-0.6658069,-0.7461241,0.7289231,-0.6845956,0,0)"
       inkscape:transform-center-y="-9.2357961"
       inkscape:transform-center-x="0.94018645" />
    <rect
       style="opacity:1;fill:#555555;fill-opacity:1;stroke:#000000;stroke-width:2.33730459;stroke-miterlimit:4;stroke-dasharray:none;stroke-opacity:1;display:inline"
       id="rect17137"
       width="171.90781"
       height="10.421343"
       x="-535.09528"
       y="-408.62466"
       rx="3.4685843"
       ry="6.7918091"
       transform="matrix(-0.9954284,9.551077e-2,-0.1059297,-0.9943736,0,0)"
       inkscape:transform-center-y="-1.1714172"
       inkscape:transform-center-x="-3.9984825" />
    <rect
       style="opacity:1;fill:#b79f55;fill-opacity:1;stroke:#000000;stroke-width:3.1044302;stroke-miterlimit:4;stroke-dasharray:none;stroke-opacity:1;display:inline"
       id="rect17001"
       width="224.8947"
       height="14.05314"
       x="233.75793"
       y="114.38669"
       rx="4.5376997"
       ry="9.1587257"
       transform="matrix(0.9853266,0.1706794,-0.1304286,0.9914577,0,0)" />
    <path
       style="fill:none;fill-rule:evenodd;stroke:#000000;stroke-width:0.87669998px;stroke-linecap:butt;stroke-linejoin:miter;stroke-opacity:1;display:inline"
       d="M 180.93145,254.51859 L 199.71788,256.71034 L 182.49699,247.00402 L 202.22274,247.63024 L 184.06253,238.86324 L 204.7276,237.61081 L 187.1936,230.09624 L 206.91935,228.84381 L 189.07224,221.01613 L 209.4242,217.25884 L 189.38535,210.68359"
       id="path18108" />
    <path
       style="fill:none;fill-rule:evenodd;stroke:#000000;stroke-width:0.87669998px;stroke-linecap:butt;stroke-linejoin:miter;stroke-opacity:1;display:inline"
       d="M 210.05042,214.12777 C 210.05042,214.0234 210.05042,213.91904 210.05042,214.12777 z"
       id="path18110" />
    <path
       style="fill:none;fill-rule:evenodd;stroke:#000000;stroke-width:1.31505001;stroke-linecap:butt;stroke-linejoin:miter;stroke-miterlimit:4;stroke-dasharray:none;stroke-opacity:1;display:inline"
       d="M 177.37288,112.26464 C 177.37288,112.26464 113.72566,129.42651 157.99249,180.80244 C 202.25932,232.17837 180.53824,219.12616 180.53824,219.12616"
       id="path22144"
       sodipodi:nodetypes="csc" />
    <path
       style="fill:none;fill-rule:evenodd;stroke:#000000;stroke-width:0.87669998px;stroke-linecap:butt;stroke-linejoin:miter;stroke-opacity:1;display:inline"
       d="M 210.05042,213.18845 L 188.75913,216.94574 L 206.91935,225.39963 L 187.1936,226.33895 L 205.66692,232.9142 L 185.62807,235.10595 L 204.10138,243.24674 L 184.37563,242.93362 L 201.90963,253.26617 L 181.87078,251.07442 L 199.40478,258.58899"
       id="path18114" />
    <path
       style="fill:#000000;fill-opacity:1;fill-rule:evenodd;stroke:#000000;stroke-width:0.7239489px;stroke-linecap:butt;stroke-linejoin:miter;stroke-opacity:1;display:inline"
       d="M 399.19056,124.083 L 497.48943,121.18839 L 500.87903,105.75041 L 398.0695,120.68074 L 399.19056,124.083 z"
       id="path18118"
       sodipodi:nodetypes="ccccc" />
    <path
       sodipodi:type="arc"
       style="opacity:1;fill:#666666;fill-opacity:1;stroke:#000000;stroke-width:2.42600012;stroke-miterlimit:4;stroke-dasharray:none;stroke-opacity:1;display:inline"
       id="path20092"
       sodipodi:cx="383.75"
       sodipodi:cy="711.4693"
       sodipodi:rx="3.0357144"
       sodipodi:ry="3.0357144"
       d="M 386.78571,711.4693 A 3.0357144,3.0357144 0 1 1 380.71429,711.4693 A 3.0357144,3.0357144 0 1 1 386.78571,711.4693 z"
       transform="matrix(0.8767,0,0,0.8767,57.097584,-323.19977)" />
    <path
       style="fill:none;fill-rule:evenodd;stroke:#000000;stroke-width:1.92874038;stroke-linecap:butt;stroke-linejoin:miter;stroke-miterlimit:4;stroke-opacity:1;display:inline"
       d="M 408.9788,395.09726 L 453.63339,396.97749"
       id="path20073" />
    <rect
       style="opacity:1;fill:#666666;fill-opacity:1;stroke:#000000;stroke-width:2.12687421;stroke-miterlimit:4;stroke-dasharray:none;stroke-opacity:1;display:inline"
       id="rect20080"
       width="12.39841"
       height="72.619263"
       x="327.31686"
       y="428.61771"
       rx="4.5376997"
       ry="9.1587267"
       transform="matrix(0.9824933,-0.1862981,0.1862981,0.9824933,0,0)" />
    <path
       sodipodi:type="arc"
       style="opacity:1;fill:#666666;fill-opacity:1;stroke:#000000;stroke-width:2.42600012;stroke-miterlimit:4;stroke-dasharray:none;stroke-opacity:1;display:inline"
       id="path20084"
       sodipodi:cx="383.75"
       sodipodi:cy="711.4693"
       sodipodi:rx="3.0357144"
       sodipodi:ry="3.0357144"
       d="M 386.78571,711.4693 A 3.0357144,3.0357144 0 1 1 380.71429,711.4693 A 3.0357144,3.0357144 0 1 1 386.78571,711.4693 z"
       transform="matrix(0.8767,0,0,0.8767,72.283279,-257.91695)" />
    <rect
       style="opacity:1;fill:#666666;fill-opacity:1;stroke:#000000;stroke-width:2.12687421;stroke-miterlimit:4;stroke-dasharray:none;stroke-opacity:1;display:inline"
       id="rect20086"
       width="19.72575"
       height="9.0801067"
       x="410.75208"
       y="423.59641"
       rx="4.5376997"
       ry="9.0801067" />
    <path
       sodipodi:type="arc"
       style="opacity:1;fill:#666666;fill-opacity:1;stroke:#000000;stroke-width:2.42600012;stroke-miterlimit:4;stroke-dasharray:none;stroke-opacity:1;display:inline"
       id="path20088"
       sodipodi:cx="383.75"
       sodipodi:cy="711.4693"
       sodipodi:rx="3.0357144"
       sodipodi:ry="3.0357144"
       d="M 386.78571,711.4693 A 3.0357144,3.0357144 0 1 1 380.71429,711.4693 A 3.0357144,3.0357144 0 1 1 386.78571,711.4693 z"
       transform="matrix(0.8767,0,0,0.8767,84.024799,-195.45206)" />
    <path
       style="fill:none;fill-rule:evenodd;stroke:#000000;stroke-width:1.92873979;stroke-linecap:butt;stroke-linejoin:miter;stroke-miterlimit:4;stroke-dasharray:none;stroke-opacity:1;display:inline"
       d="M 466.3469,337.88025 L 552.19632,340.52145"
       id="path20182" />
    <path
       sodipodi:type="arc"
       style="opacity:1;fill:#666666;fill-opacity:1;stroke:#000000;stroke-width:2.42600012;stroke-miterlimit:4;stroke-dasharray:none;stroke-opacity:1;display:inline"
       id="path20184"
       sodipodi:cx="383.75"
       sodipodi:cy="711.4693"
       sodipodi:rx="3.0357144"
       sodipodi:ry="3.0357144"
       d="M 386.78571,711.4693 A 3.0357144,3.0357144 0 1 1 380.71429,711.4693 A 3.0357144,3.0357144 0 1 1 386.78571,711.4693 z"
       transform="matrix(0.8767,0,0,0.8767,232.1777,-272.99183)"
       inkscape:transform-center-x="15.752576"
       inkscape:transform-center-y="-6.9496489" />
    <path
       sodipodi:type="arc"
       style="opacity:1;fill:#666666;fill-opacity:1;stroke:#000000;stroke-width:2.42600012;stroke-miterlimit:4;stroke-dasharray:none;stroke-opacity:1;display:inline"
       id="path20186"
       sodipodi:cx="383.75"
       sodipodi:cy="711.4693"
       sodipodi:rx="3.0357144"
       sodipodi:ry="3.0357144"
       d="M 386.78571,711.4693 A 3.0357144,3.0357144 0 1 1 380.71429,711.4693 A 3.0357144,3.0357144 0 1 1 386.78571,711.4693 z"
       transform="matrix(0.8767,0,0,0.8767,-166.27023,-266.50547)" />
    <rect
       style="opacity:1;fill:#ffffff;fill-opacity:1;stroke:#000000;stroke-width:2.12687421;stroke-miterlimit:4;stroke-dasharray:none;stroke-opacity:1;display:inline"
       id="rect20188"
       width="23.860544"
       height="5.096427"
       x="170.39505"
       y="354.45975" />
    <rect
       style="opacity:1;fill:#ffffff;fill-opacity:1;stroke:#000000;stroke-width:2.12687421;stroke-miterlimit:4;stroke-dasharray:none;stroke-opacity:1;display:inline"
       id="rect21159"
       width="23.860544"
       height="5.096427"
       x="567.10559"
       y="347.04672" />
    <rect
       style="opacity:1;fill:#000000;fill-opacity:1;stroke:#000000;stroke-width:2.12687421;stroke-miterlimit:4;stroke-dasharray:none;stroke-opacity:1;display:inline"
       id="rect21163"
       width="4.5865502"
       height="46.520741"
       x="218.40607"
       y="174.37775"
       rx="2.2932751"
       ry="2.2932751"
       transform="matrix(0.97864,0.2055817,-0.2055817,0.97864,0,0)" />
    <rect
       style="opacity:1;fill:#000000;fill-opacity:1;stroke:#000000;stroke-width:2.12687421;stroke-miterlimit:4;stroke-dasharray:none;stroke-opacity:1;display:inline"
       id="rect22134"
       width="14.087262"
       height="4.9141607"
       x="163.88802"
       y="252.87541"
       rx="2.2932751"
       ry="2.2932751"
       inkscape:transform-center-y="-79.937002"
       inkscape:transform-center-x="50.77967" />
    <rect
       style="opacity:1;fill:#000000;fill-opacity:1;stroke:#000000;stroke-width:2.12687421;stroke-miterlimit:4;stroke-dasharray:none;stroke-opacity:1;display:inline"
       id="rect22136"
       width="8.8454895"
       height="2.2932751"
       x="176.99245"
       y="225.68376"
       rx="12.383685"
       ry="2.2932751" />
    <rect
       style="opacity:1;fill:#000000;fill-opacity:1;stroke:#000000;stroke-width:2.12687373;stroke-miterlimit:4;stroke-dasharray:none;stroke-opacity:1;display:inline"
       id="rect22148"
       width="4.5865488"
       height="46.520733"
       x="-199.52962"
       y="499.86096"
       rx="2.2932744"
       ry="2.2932744"
       transform="matrix(-0.7353374,0.6777011,0.6777011,0.7353374,0,0)" />
    <rect
       style="opacity:1;fill:#000000;fill-opacity:1;stroke:#000000;stroke-width:2.12687421;stroke-miterlimit:4;stroke-dasharray:none;stroke-opacity:1;display:inline"
       id="rect22150"
       width="14.087264"
       height="4.9141612"
       x="-312.03406"
       y="485.48666"
       rx="2.2932751"
       ry="2.2932751"
       inkscape:transform-center-y="-94.664068"
       inkscape:transform-center-x="-2.6854054"
       transform="matrix(-0.8589536,0.5120535,0.5120535,0.8589536,0,0)" />
    <rect
       style="opacity:1;fill:#000000;fill-opacity:1;stroke:#000000;stroke-width:2.14039564;stroke-miterlimit:4;stroke-dasharray:none;stroke-opacity:1;display:inline"
       id="rect22152"
       width="8.4857197"
       height="2.0198495"
       x="-263.22421"
       y="439.91769"
       rx="11.880009"
       ry="2.0198495"
       transform="matrix(-0.8953707,0.4453215,0.5813698,0.8136394,0,0)" />
    <path
       style="fill:none;fill-rule:evenodd;stroke:#000000;stroke-width:1.92874038;stroke-linecap:butt;stroke-linejoin:miter;stroke-miterlimit:4;stroke-opacity:1;display:inline"
       d="M 476.37888,397.7221 L 583.93473,400.91278"
       id="path23134" />
    <path
       style="fill:none;fill-rule:evenodd;stroke:#000000;stroke-width:1.92874014;stroke-linecap:butt;stroke-linejoin:miter;stroke-miterlimit:4;stroke-opacity:1;display:inline"
       d="M 585.89527,388.23953 L 568.91217,383.79193"
       id="path23138" />
    <path
       style="fill:none;fill-rule:evenodd;stroke:#000000;stroke-width:1.92874014;stroke-linecap:butt;stroke-linejoin:miter;stroke-miterlimit:4;stroke-opacity:1;display:inline"
       d="M 581.50418,359.48824 L 565.21673,374.68918"
       id="path23142" />
    <path
       style="fill:none;fill-rule:evenodd;stroke:#000000;stroke-width:1.92874014;stroke-linecap:butt;stroke-linejoin:miter;stroke-miterlimit:4;stroke-opacity:1;display:inline"
       d="M 583.24595,389.6081 L 564.8645,375.37214"
       id="path23146" />
    <path
       sodipodi:type="arc"
       style="opacity:1;fill:#000000;fill-opacity:1;stroke:#000000;stroke-width:1.5;stroke-miterlimit:4;stroke-dasharray:none;stroke-opacity:1"
       id="path23130"
       sodipodi:cx="807.90967"
       sodipodi:cy="702.59186"
       sodipodi:rx="8.2210979"
       sodipodi:ry="8.2210979"
       d="M 816.13077,702.59186 A 8.2210979,8.2210979 0 1 1 799.68857,702.59186 A 8.2210979,8.2210979 0 1 1 816.13077,702.59186 z"
       transform="matrix(0.8767,0,0,0.8767,-125.06465,-221.23137)" />
    <path
       sodipodi:type="arc"
       style="opacity:1;fill:#000000;fill-opacity:1;stroke:#000000;stroke-width:1.5;stroke-miterlimit:4;stroke-dasharray:none;stroke-opacity:1"
       id="path23132"
       sodipodi:cx="807.90967"
       sodipodi:cy="702.59186"
       sodipodi:rx="8.2210979"
       sodipodi:ry="8.2210979"
       d="M 816.13077,702.59186 A 8.2210979,8.2210979 0 1 1 799.68857,702.59186 A 8.2210979,8.2210979 0 1 1 816.13077,702.59186 z"
       transform="matrix(0.8767,0,0,0.8767,-136.85861,-238.26714)" />
  </g>
</svg>
