<?xml version="1.0" encoding="UTF-8" standalone="no"?>
<!-- Created with Inkscape (http://www.inkscape.org/) -->

<svg
   xmlns:dc="http://purl.org/dc/elements/1.1/"
   xmlns:cc="http://creativecommons.org/ns#"
   xmlns:rdf="http://www.w3.org/1999/02/22-rdf-syntax-ns#"
   xmlns:svg="http://www.w3.org/2000/svg"
   xmlns="http://www.w3.org/2000/svg"
   xmlns:sodipodi="http://sodipodi.sourceforge.net/DTD/sodipodi-0.dtd"
   xmlns:inkscape="http://www.inkscape.org/namespaces/inkscape"
   id="svg2"
   xml:space="preserve"
   version="1.1"
   viewBox="0 0 61.279373 128"
   inkscape:version="0.92.2 (5c3e80d, 2017-08-06)"
   sodipodi:docname="easel.svg"
   width="61.279373"
   height="128"><defs
     id="defs60" /><sodipodi:namedview
     pagecolor="#ffffff"
     bordercolor="#666666"
     borderopacity="1"
     objecttolerance="10"
     gridtolerance="10"
     guidetolerance="10"
     inkscape:pageopacity="0"
     inkscape:pageshadow="2"
     inkscape:window-width="1920"
     inkscape:window-height="1025"
     id="namedview58"
     showgrid="false"
     fit-margin-top="0"
     fit-margin-left="0"
     fit-margin-right="0"
     fit-margin-bottom="0"
     inkscape:zoom="2.2324121"
     inkscape:cx="47.425059"
     inkscape:cy="94.169674"
     inkscape:window-x="-8"
     inkscape:window-y="-8"
     inkscape:window-maximized="1"
     inkscape:current-layer="svg2" /><g
     id="Layer_1"
     transform="matrix(0.3026973,0,0,0.3026973,0.00153892,-2.8094154e-5)"><g
       id="g7"><path
         id="path9"
         style="fill:#a16121;fill-rule:evenodd"
         d="m 57.657,297.1 c 1.08,1.402 2.052,3.383 2.916,6.084 0.9,2.662 1.656,5.975 2.412,9.936 l 10.188,-3.313 c 0.036,-0.145 -2.124,2.951 -6.624,9.145 -4.608,6.336 -12.852,17.459 -20.412,28.08 -7.632,10.512 -15.804,21.672 -24.912,34.307 l -0.396,10.225 5.184,5.293 60.948,-91.441 16.561,-5.039 -43.993,86.939 -14.04,27.684 8.856,6.877 8.496,-2.088 c 4.14,-10.908 8.82,-22.428 14.04,-35.244 5.184,-12.889 11.484,-28.477 17.244,-41.221 5.76,-12.924 13.031,-26.855 16.955,-34.992 3.854,-7.992 5.832,-12.311 6.084,-12.959 l 15.518,-4.393 43.992,78.443 13.5,5.977 10.871,-2.123 c -3.061,-6.084 -6.768,-12.709 -11.268,-20.018 -4.537,-7.379 -9.936,-15.516 -15.516,-23.832 -5.689,-8.387 -13.213,-19.043 -18,-26.135 -4.752,-7.129 -8.244,-12.42 -10.477,-16.164 l 16.561,-5.4 v -13.68 l -14.438,4.248 -0.252,-4.248 c -0.07,-0.648 -0.467,-1.08 -1.332,-1.439 -0.863,-0.396 -2.699,-0.576 -3.707,-0.541 -1.08,0.037 -2.16,0.252 -2.664,0.793 -0.611,0.467 -0.828,1.223 -0.793,2.268 -0.215,1.08 -0.395,2.088 -0.395,3.313 -0.072,1.15 -0.072,2.34 0,3.707 -3.348,0.863 -8.244,2.088 -14.832,3.961 -6.66,1.799 -14.832,4.104 -24.805,6.912 0.072,-1.801 0.252,-3.385 0.144,-5.041 -0.072,-1.656 -0.252,-3.24 -0.54,-4.752 -0.612,-0.973 -1.44,-1.549 -2.484,-1.871 -1.152,-0.396 -2.448,-0.396 -3.744,0 -1.296,0.395 -2.484,1.188 -3.708,2.375 0.144,2.125 0.144,4.248 0,6.229 -0.144,1.943 -0.54,3.887 -1.044,5.688 -6.084,1.764 -11.556,3.275 -16.56,4.537 -5.074,1.219 -9.538,2.192 -13.534,2.913 z"
         inkscape:connector-curvature="0" /><path
         id="path11"
         style="fill:#c0c0c0;fill-rule:evenodd"
         d="m 9.777,46.895 -8.1,7.488 c 2.448,14.4 5.58,33.696 9.54,59.148 3.996,25.452 9.864,66.888 14.004,92.088 3.924,25.055 6.516,41.04 9.72,57.276 3.096,16.057 6.012,28.801 8.892,38.664 l 43.92,-11.916 c 0.468,-1.439 0.936,-2.988 1.116,-4.787 0.144,-1.836 -0.036,-4.5 0.144,-5.904 0.144,-1.439 0,-2.34 0.972,-2.844 0.972,-0.721 3.06,-0.938 4.608,-0.793 1.476,0.072 2.808,0.648 4.14,1.584 0.18,2.016 0.468,3.924 0.468,5.58 -0.036,1.729 0.036,3.061 -0.18,4.428 6.768,-1.871 13.356,-3.672 20.051,-5.543 6.732,-1.945 13.176,-3.672 19.873,-5.58 v -6.66 c -0.217,-0.936 0.107,-1.729 0.828,-2.232 0.719,-0.611 2.303,-1.26 3.635,-1.115 1.297,0.072 2.629,0.646 4.141,1.727 l 0.145,5.113 24.047,-7.344 c -1.188,-17.029 -2.52,-31.752 -3.996,-45 -1.584,-13.249 -3.455,-20.881 -5.074,-33.876 -1.656,-13.104 -2.916,-29.232 -4.609,-43.92 -1.764,-14.796 -3.852,-30.348 -5.58,-43.884 C 150.611,85.021 149.099,72.997 147.406,61.837 129.236,57.334 112.816,53.878 97.589,51.322 82.289,48.73 68.105,47.218 56.549,46.39 45.065,45.526 36.641,45.742 28.901,45.922 c -7.886,0.106 -14.114,0.43 -19.118,0.97 z"
         inkscape:connector-curvature="0" /><path
         id="path13"
         style="fill:#e4ad64;fill-rule:evenodd"
         d="m 121.92,258.65 c -2.988,-0.072 -6.553,0.252 -10.838,0.828 -4.428,0.541 -9.647,1.512 -14.831,2.52 -5.184,0.865 -9.36,1.764 -15.876,3.133 -6.552,1.404 -14.22,3.131 -23.148,5.184 -2.412,-16.848 -4.716,-32.4 -6.912,-47.771 -2.304,-15.408 -4.392,-29.844 -6.264,-43.452 -1.872,-13.536 -3.276,-25.344 -4.788,-37.368 -1.62,-12.132 -3.96,-27.072 -4.788,-34.416 -0.864,-7.272 -1.008,-10.224 -0.432,-9 1.764,5.076 3.708,10.512 5.832,16.704 2.052,6.192 3.816,11.952 6.696,20.052 2.772,8.028 5.328,16.38 10.44,27.972 5.112,11.628 14.76,31.212 20.052,41.112 5.184,9.721 7.992,12.492 11.052,16.92 2.916,4.32 3.528,4.717 6.696,8.965 3.168,4.211 7.523,10.943 12.095,15.875 4.5,4.823 9.504,8.926 15.014,12.742 z"
         inkscape:connector-curvature="0" /><path
         id="path15"
         style="fill:#f5c080;fill-rule:evenodd"
         d="m 43.653,123.36 c 1.188,3.06 3.024,5.94 5.22,9.18 2.196,3.132 5.364,6.984 8.136,9.612 2.628,2.52 5.292,4.14 8.136,5.832 2.7,1.692 5.4,3.132 8.784,4.176 3.42,0.828 7.704,1.152 11.484,1.26 3.564,0.072 6.84,-0.252 10.224,-0.828 3.24,-0.72 6.228,-1.512 9.792,-2.916 3.527,-1.44 6.912,-2.628 11.268,-5.22 4.283,-2.556 8.928,-6.012 14.221,-10.224 -0.324,8.496 -0.938,18.18 -1.693,29.628 -0.936,11.376 -2.627,26.496 -3.131,38.412 -0.469,11.844 -0.469,21.78 0.432,32.147 0.863,10.262 2.303,19.908 4.607,29.232 -4.752,-1.547 -10.26,-5.039 -16.523,-10.871 -6.373,-5.904 -14.688,-15.408 -21.061,-23.797 -6.408,-8.424 -10.98,-15.732 -16.92,-26.496 -6.048,-11.016 -14.112,-27.684 -18.792,-38.196 -4.716,-10.332 -7.02,-17.568 -9.396,-23.796 -2.448,-6.372 -4.464,-11.16 -5.22,-14.22 -0.72,-3.132 0.216,-3.888 0.432,-4.356 0.036,-0.575 0.036,0.037 0,1.441 z"
         inkscape:connector-curvature="0" /><path
         id="path17"
         style="fill:#85d1dd;fill-rule:evenodd"
         d="m 29.253,72.851 c 0.18,3.528 0.828,7.848 2.088,13.356 1.188,5.472 2.88,12.384 5.22,19.224 2.304,6.876 5.796,15.732 8.532,21.276 2.7,5.364 4.464,7.2 7.524,10.656 2.844,3.42 5.22,6.444 10.044,9.36 4.896,2.736 12.168,6.264 18.756,7.128 6.48,0.792 12.888,0.072 19.656,-2.304 -1.764,-0.936 -2.124,-2.448 -1.476,-4.392 0.612,-1.98 2.448,-4.428 5.651,-7.488 3.133,-3.312 9.182,-7.092 13.141,-11.484 3.816,-4.5 5.652,-11.772 10.225,-14.616 4.535,-2.772 10.188,-3.672 17.1,-2.304 -0.359,-4.644 -1.043,-9.72 -2.053,-15.228 -1.008,-5.544 -2.34,-11.412 -3.996,-17.748 -7.486,-2.232 -16.055,-3.96 -26.1,-5.04 -10.08,-1.152 -22.644,-1.512 -33.803,-1.656 -11.268,-0.252 -24.48,0.216 -32.976,0.432 -8.461,0.144 -14.257,0.468 -17.533,0.828 z"
         inkscape:connector-curvature="0" /><path
         id="path19"
         style="fill:#85d1dd;fill-rule:evenodd"
         d="m 134.27,190.18 c 1.332,2.52 2.23,5.904 2.699,10.836 0.504,4.896 0.576,10.656 0.217,17.964 0.504,0.684 1.15,0.828 2.088,0.432 0.828,-0.539 2.52,-2.699 3.131,-2.736 0.504,0.037 -0.359,2.629 0.613,2.916 0.898,0.252 4.211,-1.727 5.219,-1.654 0.9,-0.072 0.324,0.719 0.613,1.26 0.215,0.395 0.143,1.475 1.043,1.439 0.828,-0.072 2.16,-0.863 3.996,-2.088 l -1.691,-30.456 c -1.945,1.512 -3.492,2.484 -4.789,2.916 -1.332,0.396 -2.375,0.252 -3.131,-0.432 0.684,2.304 0.145,3.42 -1.477,3.348 -1.656,-0.145 -4.5,-1.261 -8.531,-3.745 z"
         inkscape:connector-curvature="0" /><path
         id="path21"
         style="fill:#108632;fill-rule:evenodd"
         d="m 126.52,220.02 c 1.223,-0.324 2.195,-0.721 2.916,-1.045 0.719,-0.396 1.043,-0.863 1.26,-1.26 -0.432,1.943 -0.359,3.133 0.217,3.564 0.539,0.395 2.41,-0.865 3.131,-0.865 0.648,-0.107 0,0.9 0.828,0.648 0.793,-0.359 2.916,-2.051 3.744,-2.305 0.576,-0.252 -0.252,0.541 0.432,0.434 0.721,-0.324 3.205,-1.873 3.961,-1.873 0.576,0 -0.396,1.404 0,1.873 0.359,0.324 1.404,0.684 2.303,0.395 0.828,-0.359 1.729,-1.188 2.701,-2.482 -0.145,2.088 0.324,3.131 1.26,3.527 0.9,0.359 2.412,-0.324 4.393,-1.656 l 2.303,38.629 c -4.104,1.799 -8.064,3.238 -12.313,4.176 -4.248,0.936 -8.352,1.367 -12.742,1.439 -1.908,-7.703 -3.025,-14.328 -3.781,-20.016 -0.684,-5.652 -0.396,-10.225 -0.396,-14.004 -0.144,-3.888 -0.217,-6.949 -0.217,-9.179 z"
         inkscape:connector-curvature="0" /><path
         id="path23"
         style="fill:#a16121;fill-rule:evenodd"
         d="m 134.05,189.13 c 0.721,2.628 1.297,5.4 1.873,8.748 0.539,3.276 1.223,7.128 1.475,10.872 0.18,3.671 0.109,7.38 -0.215,11.269 -1.549,0.18 -2.809,0.432 -3.781,0.611 -1.08,0.145 -1.836,0.936 -2.268,0.432 -0.469,-0.576 -0.035,-2.844 -0.215,-3.348 -0.254,-0.469 -0.072,-0.145 -0.828,0.432 -0.793,0.432 -2.125,1.188 -3.996,2.268 l 0.646,-27.755 c 1.584,-0.252 2.881,-0.612 4.178,-1.224 1.187,-0.613 2.23,-1.333 3.131,-2.305 z"
         inkscape:connector-curvature="0" /><path
         id="path25"
         style="fill:#259b5e;fill-rule:evenodd"
         d="m 100.86,150.94 c -0.828,-0.936 -1.368,-1.872 -1.476,-2.952 -0.108,-1.152 0.108,-2.376 0.648,-3.528 0.468,-1.224 1.116,-2.52 2.088,-3.744 -2.771,-1.512 -4.464,-2.844 -5.22,-3.996 -0.72,-1.188 -0.072,-2.016 0.828,-2.916 0.756,-0.9 2.124,-1.728 3.96,-2.484 -2.052,-3.636 -3.24,-6.516 -3.564,-8.784 -0.324,-2.304 0.288,-3.744 1.692,-4.608 1.368,-0.9 3.205,-1.224 6.048,-0.828 -0.145,-2.7 -0.072,-4.86 0.215,-6.48 0.252,-1.728 0.613,-2.7 1.656,-3.312 1.08,-0.648 2.521,-0.864 4.609,-0.648 -0.828,-3.024 -0.828,-5.184 0,-6.876 0.791,-1.692 3.383,-2.664 5.004,-2.916 1.619,-0.36 2.916,0.108 4.572,1.26 1.584,1.224 3.096,2.916 4.822,5.616 -0.035,-1.62 0.576,-3.06 1.441,-4.176 0.828,-1.224 2.807,-2.448 3.996,-2.7 1.188,-0.288 2.23,0.504 3.131,1.26 0.9,0.756 1.656,1.872 2.268,2.916 0.613,0.864 0.938,1.692 1.262,2.484 1.764,-0.18 3.023,0 4.176,0.828 1.08,0.756 1.799,2.016 2.303,3.78 l 6.66,79.956 c -0.576,1.008 -1.475,1.656 -2.699,2.088 -1.26,0.396 -2.736,0.468 -4.572,0.216 -0.756,1.8 -1.619,2.844 -2.736,3.132 -1.225,0.216 -2.592,-0.576 -3.959,-1.26 -1.404,-0.576 -2.592,-1.548 -3.961,-2.52 -1.152,1.728 -2.34,2.916 -3.564,3.564 -1.332,0.612 -2.555,0.792 -3.959,0.396 l 4.393,-59.472 c -3.385,3.528 -7.094,6.336 -11.27,8.964 -4.32,2.52 -10.367,4.932 -13.572,6.264 -3.168,1.224 -4.86,1.764 -5.22,1.476 z"
         inkscape:connector-curvature="0" /><path
         id="path27"
         style="fill:#f7f619;fill-rule:evenodd"
         d="m 56.577,96.863 c -1.584,2.016 -2.628,3.96 -3.132,6.264 -0.54,2.232 -0.54,4.824 0,7.092 0.576,2.232 1.044,4.248 3.348,6.048 2.16,1.692 7.272,3.528 10.044,3.96 2.664,0.396 4.716,-0.504 6.444,-1.872 1.692,-1.584 2.952,-3.816 3.78,-7.092 1.332,-0.468 2.304,-1.332 2.916,-2.304 0.576,-1.116 0.504,-2.808 0.612,-3.96 0.072,-1.224 0,-2.268 -0.216,-3.132 0.648,-1.548 0.936,-2.88 0.864,-4.392 -0.144,-1.548 -0.504,-3.204 -1.476,-4.392 -1.116,-1.26 -2.304,-2.232 -4.392,-2.916 -2.16,-0.828 -5.4,-2.16 -7.92,-1.656 -2.556,0.36 -5.292,3.024 -7.092,4.392 -1.8,1.368 -3.06,2.736 -3.78,3.96 z"
         inkscape:connector-curvature="0" /><path
         id="path29"
         style="fill:#a16121;fill-rule:evenodd"
         d="m 18.165,56.147 c 0.756,3.024 1.368,5.904 1.692,8.784 0.324,2.88 0.396,5.616 0.216,8.352 14.58,-0.972 27.288,-1.404 39.24,-1.692 11.844,-0.216 22.428,-0.144 31.32,0.216 8.784,0.072 11.917,0.072 21.061,1.26 9.072,1.332 19.729,3.24 32.795,6.264 l -1.475,-9.828 c -6.805,-2.412 -16.85,-4.752 -31.105,-6.876 -14.327,-2.304 -39.311,-4.788 -53.423,-6.048 -14.112,-1.26 -23.76,-1.224 -30.492,-1.26 -6.733,-0.108 -10.009,0.216 -9.829,0.828 z"
         inkscape:connector-curvature="0" /><path
         id="path31"
         style="fill:#a16121;fill-rule:evenodd"
         d="M 62.445,46.75 C 62.229,43.618 61.653,39.406 60.573,33.826 59.385,28.066 57.153,18.274 55.965,13.342 54.741,8.482 53.841,5.746 53.265,4.99 l 3.528,-3.528 c 2.52,1.008 5.184,1.908 8.136,2.7 2.844,0.72 6.336,1.548 9.216,2.088 2.772,0.504 5.544,0.972 7.92,1.26 0.756,3.816 1.98,9.18 3.96,16.488 1.944,7.2 4.356,16.056 7.524,26.712 C 87.645,49.702 82.281,48.874 77.061,48.226 71.841,47.507 67.017,47.111 62.445,46.75 Z"
         inkscape:connector-curvature="0" /><path
         id="path33"
         style="fill-rule:evenodd;stroke:#000000;stroke-width:0.036;stroke-miterlimit:10"
         d="m 52.437,5.027 4.428,-5.004 c 2.7,1.548 6.12,2.7 10.404,3.852 4.32,1.116 9.216,1.836 15.12,2.556 L 94.269,51.323 92.433,51.071 81.201,8.195 C 77.889,7.907 74.433,7.295 70.689,6.359 66.945,5.387 62.913,4.091 58.737,2.471 c 4.68,12.744 8.064,22.248 10.008,29.196 1.872,6.769 2.052,11.952 1.8,11.808 -0.36,-0.288 -1.224,-5.904 -3.42,-12.816 C 64.893,23.711 61.581,14.423 57.189,2.363 l -2.664,3.528 c 3.06,11.376 5.184,20.304 6.768,27.216 1.512,6.912 2.268,11.376 2.268,13.824 l -1.224,0.072 c -1.332,-7.74 -2.556,-14.184 -3.672,-19.62 -1.26,-5.4 -2.016,-9.144 -3.096,-12.78 -1.044,-3.816 -2.088,-6.876 -3.132,-9.576 z"
         inkscape:connector-curvature="0" /><path
         id="path35"
         style="fill-rule:evenodd;stroke:#000000;stroke-width:0.036;stroke-miterlimit:10"
         d="m 9.237,46.103 c 13.5,-0.54 25.092,-0.828 35.316,-0.72 10.116,-0.072 15.84,0.108 25.344,0.972 9.468,0.9 17.964,2.052 31.176,4.572 13.212,2.412 28.765,5.688 47.483,9.828 v 2.304 c -21.93,-5.508 -40.72,-9.396 -57.352,-12.06 -16.56,-2.7 -28.044,-3.132 -41.544,-3.636 -13.536,-0.54 -26.532,-0.468 -39.276,0.36 2.304,21.24 5.868,47.16 10.836,79.164 4.968,32.004 13.968,82.944 18.684,111.31 4.608,28.188 7.524,46.727 8.892,56.736 -0.72,-0.9 -2.196,-8.461 -4.824,-23.221 C 41.452,256.952 38.104,236.685 33.388,207.02 28.456,177 19.024,120.77 14.956,94.02 10.888,67.451 8.836,52.475 8.944,48.407 l -6.048,5.976 c 3.384,23.112 7.812,50.868 13.14,84.816 5.4,33.984 13.932,89.891 18.792,117.18 4.824,27.072 7.848,41.615 9.612,44.459 10.836,-3.059 19.764,-5.615 27.072,-7.523 7.236,-1.98 12.708,-3.313 16.416,-4.141 l -0.36,0.9 -44.136,12.24 c -1.152,-0.18 -2.844,-5.291 -5.22,-16.02 -2.484,-10.764 -5.796,-30.023 -8.82,-47.771 -3.06,-17.82 -5.544,-33.409 -9.252,-58.429 C 16.288,154.704 9.988,109.964 6.64,88.612 3.22,67.408 1.06,55.96 0.016,53.584 c 1.512,-1.728 2.988,-3.276 4.572,-4.5 1.549,-1.223 3.097,-2.267 4.645,-2.987 z"
         inkscape:connector-curvature="0" /><path
         id="path37"
         style="fill-rule:evenodd;stroke:#000000;stroke-width:0.036;stroke-miterlimit:10"
         d="m 19.965,73.967 c -0.108,-1.8 -0.324,-4.14 -0.792,-7.416 -0.432,-3.24 -1.08,-7.236 -1.944,-11.988 23.796,-0.108 45.792,1.08 67.104,3.42 21.239,2.412 40.681,5.832 59.437,10.656 0.828,9.432 1.115,14.04 0.863,14.364 -0.287,0.216 -1.008,-4.14 -2.305,-13.068 -11.63,-2.736 -23.47,-5.112 -35.82,-6.984 -12.493,-1.908 -23.509,-3.456 -38.053,-4.5 -14.688,-1.116 -30.6,-1.944 -48.852,-2.34 0.468,2.664 0.72,5.544 0.756,8.496 0.072,2.988 -0.108,6.012 -0.396,9.36 z"
         inkscape:connector-curvature="0" /><path
         id="path39"
         style="fill-rule:evenodd;stroke:#000000;stroke-width:0.036;stroke-miterlimit:10"
         d="m 23.277,72.635 c 8.28,-0.612 35.496,-1.764 49.86,-1.908 14.076,-0.145 23.004,-0.108 34.705,1.224 11.627,1.332 30.852,5.724 34.883,6.66 3.852,0.864 -3.275,-0.684 -11.123,-1.584 -7.885,-1.044 -21.24,-3.744 -35.641,-4.356 -14.652,-0.792 -38.628,0.288 -50.688,0.468 -11.952,0.144 -17.1,0.828 -20.7,0.792 -3.672,-0.181 -9.468,-0.756 -1.296,-1.296 z"
         inkscape:connector-curvature="0" /><path
         id="path41"
         style="fill-rule:evenodd;stroke:#000000;stroke-width:0.036;stroke-miterlimit:10"
         d="m 58.017,89.735 c -1.98,-0.216 -3.24,1.044 -3.78,3.78 -0.648,2.736 -1.08,9.072 0.36,12.636 1.332,3.456 4.968,6.84 8.136,8.352 3.132,1.44 7.308,1.584 10.44,0.432 3.024,-1.26 6.732,-4.428 7.668,-7.416 0.9,-3.06 0.036,-6.552 -2.448,-10.62 1.188,2.988 1.764,5.364 1.872,7.524 0.072,2.088 -0.108,3.24 -1.512,4.968 -1.584,1.692 -4.644,4.5 -7.668,4.968 -3.132,0.36 -7.74,-0.648 -10.476,-2.628 -2.808,-2.124 -4.68,-6.228 -5.616,-9.396 -0.936,-3.24 -0.216,-7.236 0.36,-9.36 0.54,-2.124 1.332,-3.204 2.664,-3.24 z"
         inkscape:connector-curvature="0" /><path
         id="path43"
         style="fill-rule:evenodd;stroke:#000000;stroke-width:0.036;stroke-miterlimit:10"
         d="m 77.169,105 c 2.34,-1.188 3.852,-2.628 4.68,-4.176 0.684,-1.62 1.332,-3.24 0,-5.256 -1.476,-2.088 -5.004,-5.868 -8.064,-6.912 -3.132,-1.044 -6.66,-1.476 -10.044,0.648 -3.492,2.124 -8.244,7.524 -9.936,11.736 -1.692,4.032 -1.548,9.54 0.036,12.78 1.584,3.132 6.084,5.4 9.324,6.408 3.168,0.936 6.912,0.756 9.432,-0.396 2.34,-1.224 3.852,-4.5 4.68,-6.336 0.792,-1.872 0.828,-3.42 0.108,-4.788 -0.792,2.484 -1.584,4.644 -2.664,6.336 -1.044,1.764 -1.404,3.204 -3.6,3.924 -2.376,0.612 -7.38,0.468 -10.152,-0.576 -2.808,-1.224 -5.364,-3.816 -6.408,-6.372 -1.08,-2.664 -0.972,-6.012 -0.072,-8.928 0.828,-2.952 2.844,-5.868 4.932,-8.208 2.016,-2.376 4.428,-4.608 7.092,-5.436 2.52,-0.828 5.976,-0.432 8.28,0.648 2.196,0.972 4.212,3.78 5.22,5.508 0.936,1.764 1.044,3.42 0.612,4.968 -0.468,1.584 -1.62,3.06 -3.456,4.428 z"
         inkscape:connector-curvature="0" /><path
         id="path45"
         style="fill-rule:evenodd;stroke:#000000;stroke-width:0.036;stroke-miterlimit:10"
         d="m 67.881,84.443 c 2.628,-5.724 4.212,-8.352 4.896,-8.028 0.612,0.396 0.324,3.528 -1.008,9.936 1.008,-4.932 1.26,-7.488 0.612,-7.812 -0.72,-0.36 -2.088,1.656 -4.5,5.904 z"
         inkscape:connector-curvature="0" /><path
         id="path47"
         style="fill-rule:evenodd;stroke:#000000;stroke-width:0.036;stroke-miterlimit:10"
         d="m 83.289,92.255 c 1.26,-1.008 7.74,-4.248 8.892,-4.572 0.9,-0.396 -1.692,1.296 -2.916,2.304 -1.296,0.936 -3.204,2.88 -4.212,3.312 -1.044,0.288 -3.024,-0.108 -1.764,-1.044 z"
         inkscape:connector-curvature="0" /><path
         id="path49"
         style="fill-rule:evenodd;stroke:#000000;stroke-width:0.036;stroke-miterlimit:10"
         d="m 85.197,104.1 c 1.368,0.72 5.76,4.392 6.948,5.472 1.008,0.936 0.468,1.116 -0.792,0.396 -1.404,-0.828 -6.048,-3.888 -7.128,-4.86 -1.044,-0.936 -0.396,-1.872 0.972,-1.008 z"
         inkscape:connector-curvature="0" /><path
         id="path51"
         style="fill-rule:evenodd;stroke:#000000;stroke-width:0.036;stroke-miterlimit:10"
         d="m 81.489,117.74 c 0.324,0.648 6.408,8.172 6.984,7.164 0.504,-1.116 -3.744,-12.78 -3.996,-13.464 -0.36,-0.792 2.556,8.1 2.088,9.18 -0.504,0.972 -5.436,-3.6 -5.076,-2.88 z"
         inkscape:connector-curvature="0" /><path
         id="path53"
         style="fill-rule:evenodd;stroke:#000000;stroke-width:0.036;stroke-miterlimit:10"
         d="m 68.025,124.51 c -0.072,0.936 -1.332,6.048 -1.98,7.416 -0.684,1.188 -2.196,1.296 -2.16,0.324 -0.036,-0.936 1.44,-4.644 2.196,-5.868 0.648,-1.404 1.944,-2.772 1.944,-1.872 z"
         inkscape:connector-curvature="0" /><path
         id="path55"
         style="fill-rule:evenodd;stroke:#000000;stroke-width:0.036;stroke-miterlimit:10"
         d="m 54.453,119.4 c -0.252,0.396 -3.024,3.78 -3.6,3.492 -0.648,-0.396 0.468,-6.192 -0.252,-6.012 -0.864,0.108 -4.5,6.768 -4.536,6.516 0.036,-0.504 3.24,-7.38 4.32,-8.388 0.864,-0.9 0.9,1.764 1.224,2.844 0.18,0.9 -0.036,2.664 0.468,2.952 0.504,0.18 2.448,-1.764 2.376,-1.404 z"
         inkscape:connector-curvature="0" /><path
         id="path57"
         style="fill-rule:evenodd;stroke:#000000;stroke-width:0.036;stroke-miterlimit:10"
         d="m 50.025,94.667 c -4.176,-5.939 -6.768,-9.936 -7.632,-11.988 -0.972,-2.088 0.36,-1.512 2.196,-0.36 1.8,1.008 4.5,3.132 8.388,6.516 -2.88,-2.124 -5.004,-3.492 -6.516,-4.392 -1.62,-0.972 -2.376,-1.368 -2.412,-0.9 -0.036,0.468 1.692,1.944 2.7,3.852 1.008,1.872 2.052,4.248 3.276,7.272 z"
         inkscape:connector-curvature="0" /><path
         id="path59"
         style="fill-rule:evenodd;stroke:#000000;stroke-width:0.036;stroke-miterlimit:10"
         d="m 28.821,75.407 c 2.448,13.392 5.184,24.516 8.352,34.056 3.024,9.324 5.472,15.516 10.404,22.32 4.932,6.912 11.304,14.508 19.26,18.36 7.956,3.564 17.388,5.976 28.152,3.636 10.693,-2.34 22.14,-8.136 35.171,-17.532 l -1.26,27.36 0.756,-0.108 2.125,-31.176 c -5.939,5.688 -12.205,10.152 -18.793,13.536 -6.768,3.456 -13.715,5.724 -20.699,6.66 -7.128,0.684 -14.076,0.576 -20.844,-2.124 -6.731,-2.74 -13.355,-6.95 -19.043,-14.19 -5.76,-7.49 -11.304,-19.04 -15.084,-29.66 C 33.466,95.886 30.982,84.834 29.722,72.846 L 28.354,72.63 c 0.144,0.9 0.288,1.836 0.468,2.772 z"
         inkscape:connector-curvature="0" /><path
         id="path61"
         style="fill-rule:evenodd;stroke:#000000;stroke-width:0.036;stroke-miterlimit:10"
         d="m 39.801,117.31 c 5.04,17.028 11.304,33.552 18.936,50.688 7.56,17.064 17.64,36.54 26.64,50.796 9,14.111 19.115,25.344 26.893,33.119 7.74,7.633 13.895,11.521 19.008,12.205 2.809,0.215 6.191,-0.252 10.547,-1.26 4.357,-1.117 9.145,-2.629 15.049,-4.969 -0.9,-13.859 -1.764,-26.928 -2.447,-39.889 -0.756,-13.031 -1.477,-25.163 -2.018,-37.223 l -1.654,-0.864 c 0.863,15.84 1.691,29.88 2.482,42.66 0.721,12.744 1.404,23.689 2.053,33.373 -5.904,2.879 -10.801,4.787 -15.264,5.723 -4.428,0.9 -5.58,2.701 -11.088,-0.143 -5.689,-2.988 -13.609,-7.381 -22.393,-17.461 -8.82,-10.26 -21.924,-29.088 -30.024,-42.875 -8.172,-13.788 -12.852,-26.028 -18.504,-39.24 -5.76,-13.356 -10.764,-26.46 -15.408,-39.996 -0.936,-1.548 -1.872,-3.096 -2.808,-4.644 z"
         inkscape:connector-curvature="0" /><path
         id="path63"
         style="fill-rule:evenodd;stroke:#000000;stroke-width:0.036;stroke-miterlimit:10"
         d="m 100.06,150.97 c -1.512,-0.972 -2.16,-2.196 -1.944,-3.816 0.216,-1.692 1.26,-3.492 3.276,-5.796 -4.32,-2.196 -6.156,-4.212 -5.796,-6.192 0.396,-1.98 6.084,-5.22 8.172,-5.688 1.98,-0.612 3.275,0.18 3.887,2.232 -2.123,-0.252 -4.031,-0.108 -5.723,0.432 -1.908,0.54 -3.78,1.8 -4.5,2.808 -0.684,0.936 -0.576,1.872 0.612,2.808 1.116,0.864 3.168,1.944 6.156,2.844 -2.448,2.052 -3.708,3.816 -4.176,5.58 -0.468,1.728 0.108,3.204 1.584,4.572 -0.504,0.072 -1.008,0.144 -1.548,0.216 z"
         inkscape:connector-curvature="0" /><path
         id="path65"
         style="fill-rule:evenodd;stroke:#000000;stroke-width:0.036;stroke-miterlimit:10"
         d="m 100.46,128.04 c -1.62,-1.872 -2.592,-3.672 -2.916,-5.4 -0.36,-1.8 -0.936,-4.068 1.044,-5.004 1.98,-1.08 8.46,-1.944 10.692,-0.936 2.123,1.008 2.809,3.312 2.051,6.912 -0.504,-2.52 -1.33,-4.176 -2.771,-5.112 -1.547,-1.044 -3.959,-0.648 -5.688,-0.468 -1.764,0.144 -3.923,0.396 -4.392,1.584 -0.468,1.08 0.972,3.78 1.404,5.184 0.324,1.404 0.468,2.484 0.576,3.24 z"
         inkscape:connector-curvature="0" /><path
         id="path67"
         style="fill-rule:evenodd;stroke:#000000;stroke-width:0.036;stroke-miterlimit:10"
         d="m 105.72,114.36 c -0.396,-2.772 -0.215,-4.824 0.828,-6.3 0.973,-1.548 2.664,-2.232 5.076,-2.448 -0.648,-3.024 -0.217,-5.184 1.008,-6.876 1.225,-1.656 4.213,-3.636 6.48,-3.024 2.232,0.54 4.428,2.628 6.732,6.408 2.699,-4.464 5.184,-6.732 7.307,-6.516 2.125,0.18 4.033,2.556 5.58,7.416 0.9,-0.432 1.873,-0.432 2.916,-0.144 0.973,0.288 2.016,1.008 3.133,2.016 v 2.304 c -1.369,-1.476 -2.412,-2.412 -3.529,-2.808 -1.115,-0.396 -2.051,-0.252 -2.951,0.432 -0.396,-2.412 -1.115,-4.248 -2.305,-5.364 -1.295,-1.332 -3.311,-2.16 -4.68,-1.656 -1.439,0.54 -2.412,2.592 -3.348,4.896 -0.9,2.196 -1.477,4.932 -1.871,8.208 0,-2.88 -0.469,-5.472 -1.549,-7.632 -1.08,-2.232 -3.42,-4.86 -4.932,-5.544 -1.691,-0.72 -3.672,-0.072 -4.824,0.972 -1.26,0.936 -2.447,2.808 -2.447,4.644 0,1.728 0.719,3.672 2.303,5.832 -2.016,-1.008 -3.635,-1.512 -4.859,-1.512 -1.225,-0.108 -2.125,0.252 -2.699,1.368 -0.758,1.116 -1.08,2.844 -1.369,5.328 z"
         inkscape:connector-curvature="0" /><path
         id="path69"
         style="fill-rule:evenodd;stroke:#000000;stroke-width:0.036;stroke-miterlimit:10"
         d="m 127.17,118.97 c -1.225,-1.512 -1.262,-2.7 -0.252,-3.708 0.936,-0.972 5.111,-2.7 6.299,-2.268 1.188,0.396 1.225,1.944 0.504,4.644 1.439,-1.08 2.592,-1.512 3.744,-1.296 1.152,0.108 2.881,1.296 2.809,2.448 -0.217,1.188 -1.439,2.664 -3.816,4.572 1.764,-1.908 2.664,-3.348 2.557,-4.176 -0.217,-0.936 -2.016,-1.404 -3.168,-1.116 -1.189,0.324 -2.27,1.008 -3.529,2.592 0.648,-2.736 0.648,-4.536 0,-5.4 -0.719,-0.792 -3.023,-0.72 -3.852,0.072 -0.865,0.648 -1.296,1.764 -1.296,3.636 z"
         inkscape:connector-curvature="0" /><path
         id="path71"
         style="fill-rule:evenodd;stroke:#000000;stroke-width:0.036;stroke-miterlimit:10"
         d="m 122.67,124.87 c -1.693,-0.072 -2.846,0.216 -3.602,1.008 -0.791,0.72 -0.936,2.16 -0.828,3.348 0.072,1.08 0.434,2.088 1.225,3.168 -2.809,-1.62 -4.787,-2.196 -5.939,-1.584 -1.225,0.576 -1.477,2.196 -1.045,5.004 -0.252,-2.592 0.576,-3.888 2.088,-4.176 1.549,-0.252 3.961,0.504 7.236,2.556 -1.943,-2.808 -2.844,-4.86 -2.699,-6.444 0.144,-1.62 1.331,-2.484 3.564,-2.88 z"
         inkscape:connector-curvature="0" /><path
         id="path73"
         style="fill-rule:evenodd;stroke:#000000;stroke-width:0.036;stroke-miterlimit:10"
         d="m 138.12,217.39 c 0.396,-4.176 0.432,-8.208 -0.037,-12.636 -0.467,-4.428 -1.439,-8.712 -2.771,-13.392 3.023,2.772 5.365,4.14 7.02,4.104 1.584,0 2.629,-1.44 2.846,-4.176 1.619,0.72 2.951,0.756 4.139,0.252 1.152,-0.54 2.088,-1.62 2.809,-3.384 l -0.18,-1.872 c -1.477,2.232 -2.881,3.312 -4.213,3.636 -1.367,0.144 -2.664,-0.468 -3.887,-2.232 -0.145,2.556 -0.504,4.176 -1.225,5.004 -0.828,0.684 -1.477,0.252 -3.061,-0.468 -1.584,-0.828 -3.707,-2.088 -6.371,-4.068 1.475,6.012 2.484,11.52 3.023,16.812 0.539,5.22 0.576,10.045 0.252,14.615 0.541,-0.719 1.08,-1.44 1.656,-2.195 z"
         inkscape:connector-curvature="0" /><path
         id="path75"
         style="fill-rule:evenodd;stroke:#000000;stroke-width:0.036;stroke-miterlimit:10"
         d="m 126.35,218.72 c 1.367,-0.145 2.23,-0.684 2.986,-1.225 0.686,-0.719 1.045,-1.439 1.08,-2.555 0.9,1.152 1.549,2.16 1.801,3.168 0.252,0.971 0.107,1.943 -0.287,2.771 0.684,0 1.223,-0.432 1.619,-1.297 0.252,-0.971 0.611,-3.168 0.684,-3.814 0.109,-0.648 0.109,-0.648 0,0 0.217,0.287 0.289,0.898 0.361,1.547 0,0.613 -0.182,2.088 -0.145,2.484 v 0 c 1.367,-0.611 2.484,-1.367 3.348,-2.123 0.863,-0.9 1.477,-2.521 1.836,-2.521 0.217,0.109 -0.756,2.844 -0.145,2.916 0.576,-0.035 1.908,-1.188 3.854,-3.311 -0.324,2.916 -0.037,4.139 0.863,4.211 0.9,-0.072 2.268,-1.477 4.393,-4.355 -0.182,2.771 0.18,4.428 0.936,4.967 0.828,0.469 1.908,-0.18 3.672,-1.943 l 0.359,2.016 c -1.98,1.549 -3.313,2.053 -4.283,1.908 -0.9,-0.324 -1.439,-1.295 -1.332,-3.313 -1.98,1.656 -3.6,2.449 -4.465,2.377 -0.9,-0.107 -1.439,-1.008 -1.223,-2.844 -1.584,1.691 -2.773,2.699 -3.564,3.168 -0.756,0.396 -0.756,-0.9 -1.369,-0.541 -0.756,0.324 -2.555,2.16 -3.059,2.449 -0.576,0.18 0.215,-1.441 -0.396,-1.404 -0.721,-0.037 -3.023,1.477 -3.6,1.188 -0.648,-0.359 -0.684,-1.547 -0.109,-3.42 -0.719,0.793 -1.367,1.188 -2.088,1.584 -0.756,0.324 -1.439,0.432 -2.195,0.324 0.143,-0.793 0.286,-1.584 0.468,-2.412 z"
         inkscape:connector-curvature="0" /><path
         id="path77"
         style="fill-rule:evenodd;stroke:#000000;stroke-width:0.036;stroke-miterlimit:10"
         d="m 127.17,196.58 c -0.576,7.452 -0.541,16.488 -0.037,27.251 0.469,10.801 1.549,23.041 3.096,37.152 -1.404,-4.104 -2.375,-9.719 -3.203,-16.848 -0.936,-7.271 -1.332,-17.82 -1.584,-25.955 -0.145,-8.137 -0.289,-13.537 0.396,-22.609 0.576,-9.288 1.584,-19.728 3.023,-32.148 l 0.828,-0.288 z"
         inkscape:connector-curvature="0" /><path
         id="path79"
         style="fill-rule:evenodd;stroke:#000000;stroke-width:0.036;stroke-miterlimit:10"
         d="m 120.66,258.25 c -3.852,-0.18 -10.979,0.648 -21.527,2.629 -10.656,1.943 -24.408,4.787 -41.796,8.82 -2.52,-18.072 -5.688,-41.004 -9.648,-70.165 -3.996,-29.232 -8.64,-63.18 -14.076,-103.5 l -0.864,-3.456 c 0.864,9.972 2.448,24.156 4.896,43.236 2.484,19.116 6.3,47.664 9.648,70.488 3.276,22.717 6.264,44.027 9.504,64.908 8.028,-2.053 16.164,-4.031 24.984,-5.797 8.856,-1.908 20.196,-3.959 27.215,-5.039 6.912,-1.08 11.232,-1.439 13.645,-1.225 -0.649,-0.286 -1.295,-0.575 -1.981,-0.899 z"
         inkscape:connector-curvature="0" /><path
         id="path81"
         style="fill-rule:evenodd;stroke:#000000;stroke-width:0.036;stroke-miterlimit:10"
         d="m 99.345,286.3 c 4.067,-1.045 9.252,-2.305 15.948,-4.176 6.695,-1.836 14.4,-4.104 23.652,-6.805 l -0.541,1.225 c -9.287,2.303 -16.883,4.463 -23.615,6.336 -6.695,1.836 -11.844,3.527 -15.984,4.932 z"
         inkscape:connector-curvature="0" /><path
         id="path83"
         style="fill-rule:evenodd;stroke:#000000;stroke-width:0.036;stroke-miterlimit:10"
         d="m 147.69,272.69 24.732,-6.66 c -1.693,-21.637 -3.35,-38.629 -4.824,-52.344 -1.584,-13.573 -2.988,-23.005 -4.357,-28.729 l -1.332,-0.864 c 2.125,14.076 3.996,27.612 5.473,41.292 1.477,13.68 2.557,26.713 3.385,39.924 -4.141,0.936 -8.1,2.088 -11.881,3.168 -3.852,1.045 -7.416,2.305 -10.836,3.492 -0.108,0.217 -0.215,0.469 -0.36,0.721 z"
         inkscape:connector-curvature="0" /><path
         id="path85"
         style="fill-rule:evenodd;stroke:#000000;stroke-width:0.036;stroke-miterlimit:10"
         d="m 148.48,61.979 c 0.613,3.636 2.27,15.552 4.824,36.576 2.592,21.06 5.977,50.04 10.439,88.452 l -1.512,-1.692 c -4.68,-38.376 -8.172,-67.212 -10.764,-88.056 -2.592,-20.7 -4.104,-32.4 -4.68,-35.532 0.541,0.072 1.117,0.144 1.693,0.252 z"
         inkscape:connector-curvature="0" /><path
         id="path87"
         style="fill-rule:evenodd;stroke:#000000;stroke-width:0.036;stroke-miterlimit:10"
         d="m 139.81,80.663 c 1.188,2.232 2.664,11.664 4.572,28.44 1.873,16.92 4.031,40.464 6.625,72 l 1.584,0.612 c -2.664,-33.192 -4.682,-56.7 -6.336,-71.64 -1.656,-14.796 -2.305,-12.312 -3.35,-17.136 -1.15,-4.968 -2.088,-8.964 -3.095,-12.276 z"
         inkscape:connector-curvature="0" /><path
         id="path89"
         style="fill-rule:evenodd;stroke:#000000;stroke-width:0.036;stroke-miterlimit:10"
         d="m 146.11,286.76 c 2.016,3.096 6.443,9.791 13.428,20.23 6.984,10.441 20.988,30.744 28.26,42.012 7.164,11.125 11.988,19.152 14.615,24.48 l -12.814,2.809 -13.5,-6.336 c -3.816,-6.373 -9.109,-15.949 -16.561,-29.16 -7.488,-13.32 -16.451,-29.629 -27.576,-49.752 l 0.756,-0.432 c 3.205,5.291 6.443,11.051 10.26,17.676 3.709,6.48 6.264,11.412 11.988,21.6 5.652,10.26 12.996,23.076 22.031,39.275 l 12.674,5.617 10.764,-1.908 c -3.313,-5.939 -7.057,-12.313 -11.377,-19.404 -4.428,-7.236 -9.324,-15.119 -14.543,-22.969 -5.256,-7.883 -11.592,-16.164 -16.488,-23.471 -4.969,-7.344 -9.18,-13.789 -12.924,-19.908 0.324,-0.107 0.646,-0.217 1.007,-0.359 z"
         inkscape:connector-curvature="0" /><path
         id="path91"
         style="fill-rule:evenodd;stroke:#000000;stroke-width:0.036;stroke-miterlimit:10"
         d="m 137.69,289.57 c 8.027,11.916 14.508,21.348 19.439,29.125 4.932,7.703 4.752,7.416 10.008,16.631 5.111,9.252 11.988,21.492 20.771,37.836 -0.611,-1.727 -2.482,-5.939 -6.156,-13.031 -3.635,-7.164 -10.33,-20.232 -15.371,-29.088 -5.076,-8.855 -10.691,-16.596 -15.191,-23.652 -4.645,-7.02 -8.748,-13.068 -12.457,-18.287 -0.325,0.142 -0.684,0.287 -1.043,0.466 z"
         inkscape:connector-curvature="0" /><path
         id="path93"
         style="fill-rule:evenodd;stroke:#000000;stroke-width:0.036;stroke-miterlimit:10"
         d="m 102.98,300.23 c -3.276,6.805 -9.576,19.439 -19.296,38.736 -9.828,19.367 -22.5,44.279 -38.844,76.104 l 9.18,7.775 8.928,-2.34 c 10.44,-27.215 19.98,-50.76 29.448,-71.748 9.324,-20.986 18.072,-38.447 26.388,-53.207 l -2.053,0.217 c -3.707,6.191 -9.252,17.172 -16.631,33.479 -7.452,16.309 -21.348,48.529 -27.648,63.756 -6.3,15.121 -9.576,23.797 -9.972,26.461 l -7.524,2.088 -8.748,-6.912 C 53.66,400.094 61.076,385.803 68.456,371.33 75.8,356.607 84.26,340.334 90.38,328.203 c 6.048,-12.025 10.764,-21.313 14.293,-28.404 -0.541,0.143 -1.117,0.286 -1.693,0.431 z"
         inkscape:connector-curvature="0" /><path
         id="path95"
         style="fill-rule:evenodd;stroke:#000000;stroke-width:0.036;stroke-miterlimit:10"
         d="m 109.14,298.54 1.691,-0.072 c -3.383,6.119 -9.611,18.9 -18.827,39.455 -9.324,20.521 -21.312,47.701 -36.504,82.656 -0.936,-0.107 -0.036,-3.275 2.412,-9.504 2.52,-6.371 7.452,-16.992 12.42,-27.971 4.896,-11.16 11.988,-26.857 16.848,-37.514 4.788,-10.619 8.064,-17.783 11.772,-25.668 3.636,-7.954 6.985,-14.901 10.188,-21.382 z"
         inkscape:connector-curvature="0" /><path
         id="path97"
         style="fill-rule:evenodd;stroke:#000000;stroke-width:0.036;stroke-miterlimit:10"
         d="m 57.369,297.6 c 1.188,1.979 2.124,4.211 2.952,7.092 0.756,2.807 1.404,6.047 1.8,9.719 12.888,-4.139 24.66,-7.955 36.144,-11.592 11.413,-3.707 20.917,-6.768 31.825,-10.152 10.836,-3.42 21.6,-6.588 32.832,-9.936 l 0.322,-14.832 -1.008,0.107 -1.115,13.609 c -15.084,4.391 -30.24,8.928 -46.045,13.896 -15.875,4.859 -31.715,10.008 -48.347,15.443 -1.548,-7.092 -2.592,-11.16 -2.988,-12.492 -0.468,-1.225 0.036,2.447 0.396,4.752 0.324,2.123 0.792,4.859 1.548,8.207 l -2.124,1.369 c -0.72,-3.852 -1.62,-6.949 -2.304,-9.576 -0.864,-2.629 -1.512,-4.645 -2.34,-6.049 -0.504,0.146 -1.008,0.29 -1.548,0.435 z"
         inkscape:connector-curvature="0" /><path
         id="path99"
         style="fill-rule:evenodd;stroke:#000000;stroke-width:0.036;stroke-miterlimit:10"
         d="m 72.885,309.62 -51.912,71.135 -0.792,10.945 5.868,6.732 61.56,-92.521 -1.872,0.217 -59.868,89.604 -4.32,-3.959 0.252,-10.621 52.452,-71.783 c -0.432,0.071 -0.9,0.144 -1.368,0.251 z"
         inkscape:connector-curvature="0" /><path
         id="path101"
         style="fill-rule:evenodd;stroke:#000000;stroke-width:0.036;stroke-miterlimit:10"
         d="m 79.545,308.33 -56.448,82.873 c 0.36,-1.801 1.332,-4.104 2.916,-6.768 1.476,-2.846 2.556,-3.816 6.444,-9.576 3.852,-5.832 9.468,-13.609 16.992,-24.697 7.56,-11.195 16.668,-24.695 27.864,-41.471 0.72,-0.109 1.476,-0.216 2.232,-0.361 z"
         inkscape:connector-curvature="0" /><path
         id="path103"
         style="fill-rule:evenodd;stroke:#000000;stroke-width:0.036;stroke-miterlimit:10"
         d="m 81.597,293.14 c 1.512,-0.145 2.52,-0.504 3.564,-1.08 0.9,-0.576 1.512,-1.225 2.124,-2.375 0.468,-1.404 0.936,-2.916 1.116,-4.934 0.252,-1.979 0.216,-4.066 0.18,-6.551 0.252,-1.225 0.936,-2.125 2.052,-2.701 1.08,-0.756 3.168,-0.863 4.608,-0.719 1.476,0.18 2.556,1.008 3.78,2.195 0.54,4.104 0.756,7.164 0.648,9.721 -0.216,2.412 -0.504,3.348 -1.404,5.039 -0.828,1.584 -1.332,3.313 -3.852,4.752 -2.736,1.439 -6.624,2.629 -12.096,3.709 1.044,-0.541 2.34,-1.189 4.284,-1.945 1.872,-0.863 4.932,-1.15 6.84,-2.52 1.764,-1.404 3.348,-3.889 4.212,-5.652 0.828,-1.871 0.756,-2.951 0.9,-5.039 0.072,-2.16 0.144,-4.645 -0.072,-7.596 -0.72,-0.9 -1.692,-1.404 -2.772,-1.656 -1.152,-0.324 -2.916,-0.217 -3.924,0.18 -1.116,0.396 -1.908,1.225 -2.52,2.34 0.18,2.809 0.216,5.111 -0.036,7.309 -0.288,2.123 -0.792,4.068 -1.512,5.4 -0.684,1.15 -1.764,1.691 -2.7,2.051 -1.116,0.396 -2.124,0.289 -3.42,0.072 z"
         inkscape:connector-curvature="0" /><path
         id="path105"
         style="fill-rule:evenodd;stroke:#000000;stroke-width:0.036;stroke-miterlimit:10"
         d="m 89.049,280.28 c 0.432,0.719 1.152,1.188 2.304,1.26 1.116,0 2.988,-0.252 4.356,-0.756 1.26,-0.504 2.304,-1.404 3.132,-2.412 l 0.108,1.584 c -0.72,0.863 -1.692,1.512 -2.916,1.943 -1.404,0.324 -3.42,0.793 -4.644,0.721 -1.152,-0.037 -2.052,-0.432 -2.412,-1.045 0,-0.432 0.036,-0.863 0.072,-1.295 z"
         inkscape:connector-curvature="0" /><path
         id="path107"
         style="fill-rule:evenodd;stroke:#000000;stroke-width:0.036;stroke-miterlimit:10"
         d="m 132.82,281.18 c 1.225,-0.109 2.232,-0.469 3.025,-0.938 0.756,-0.432 1.367,-1.15 1.836,-2.016 0.432,-1.043 0.684,-2.627 0.9,-4.176 0.18,-1.729 0.18,-3.42 0.143,-5.615 0.252,-1.045 0.793,-1.801 1.764,-2.27 1.01,-0.539 2.594,-0.791 3.926,-0.611 1.223,0.217 2.158,0.793 3.203,1.873 0.432,3.383 0.611,6.191 0.539,8.279 -0.07,1.98 -0.504,2.879 -1.15,4.248 -0.686,1.404 -1.189,2.809 -3.313,4.068 -2.34,1.188 -5.617,2.23 -10.26,3.131 0.863,-0.504 1.98,-1.008 3.635,-1.656 1.514,-0.611 4.248,-1.043 5.832,-2.123 1.514,-1.188 2.844,-3.348 3.564,-4.824 0.684,-1.549 0.611,-2.557 0.756,-4.283 0.072,-1.801 0.107,-3.996 -0.035,-6.445 -0.648,-0.756 -1.441,-1.223 -2.377,-1.404 -1.08,-0.252 -2.375,-0.252 -3.311,0.145 -0.938,0.324 -1.656,1.045 -2.16,2.016 0.143,2.27 0.18,4.43 -0.037,6.193 -0.215,1.764 -0.684,3.42 -1.26,4.572 -0.611,1.008 -1.512,1.402 -2.305,1.727 -0.862,0.288 -1.835,0.323 -2.915,0.109 z"
         inkscape:connector-curvature="0" /><path
         id="path109"
         style="fill-rule:evenodd;stroke:#000000;stroke-width:0.036;stroke-miterlimit:10"
         d="m 139.16,270.24 c 0.361,0.648 0.973,0.9 1.98,1.045 0.9,0.035 2.592,-0.217 3.672,-0.613 1.08,-0.467 1.873,-1.15 2.664,-2.051 l 0.109,1.367 c -0.576,0.684 -1.404,1.225 -2.484,1.621 -1.117,0.359 -2.988,0.611 -3.961,0.611 -1.008,-0.035 -1.691,-0.324 -2.051,-0.863 0.001,-0.361 0.036,-0.72 0.071,-1.117 z"
         inkscape:connector-curvature="0" /></g></g><metadata
     id="metadata55"><rdf:RDF><cc:Work><dc:format>image/svg+xml</dc:format><dc:type
           rdf:resource="http://purl.org/dc/dcmitype/StillImage" /><cc:license
           rdf:resource="http://creativecommons.org/publicdomain/zero/1.0/" /><dc:publisher><cc:Agent
             rdf:about="http://openclipart.org/"><dc:title>Openclipart</dc:title></cc:Agent></dc:publisher><dc:title>Easel with kids painting</dc:title><dc:date>2010-04-09T18:37:20</dc:date><dc:description>Kids painting hanging on an easel.</dc:description><dc:source>https://openclipart.org/detail/45037/easel-with-kids-painting-by-gerald_g</dc:source><dc:creator><cc:Agent><dc:title>Gerald_G</dc:title></cc:Agent></dc:creator><dc:subject><rdf:Bag><rdf:li>art</rdf:li><rdf:li>easel</rdf:li><rdf:li>kid</rdf:li><rdf:li>painting</rdf:li><rdf:li>sun</rdf:li><rdf:li>tree</rdf:li></rdf:Bag></dc:subject></cc:Work><cc:License
         rdf:about="http://creativecommons.org/publicdomain/zero/1.0/"><cc:permits
           rdf:resource="http://creativecommons.org/ns#Reproduction" /><cc:permits
           rdf:resource="http://creativecommons.org/ns#Distribution" /><cc:permits
           rdf:resource="http://creativecommons.org/ns#DerivativeWorks" /></cc:License></rdf:RDF></metadata></svg>