<?xml version="1.0" encoding="utf-8"?>
<!-- Generator: Adobe Illustrator 12.0.1, SVG Export Plug-In . SVG Version: 6.00 Build 51448)  -->
<!DOCTYPE svg PUBLIC "-//W3C//DTD SVG 1.1//EN" "http://www.w3.org/Graphics/SVG/1.1/DTD/svg11.dtd" [
	<!ENTITY ns_svg "http://www.w3.org/2000/svg">
	<!ENTITY ns_xlink "http://www.w3.org/1999/xlink">
]>
<svg  version="1.1" id="Layer_1" xmlns="&ns_svg;" xmlns:xlink="&ns_xlink;" width="243.389" height="412.216"
	 viewBox="0 0 243.389 412.216" overflow="visible" enable-background="new 0 0 243.389 412.216" xml:space="preserve">
<g>
	<polyline fill="#FFFFFF" points="129.163,381.662 136.577,376.983 145.5,378.423 150.973,379.288 154.426,381.015 146.94,390.227 
		140.319,387.925 135.137,387.061 127.651,385.908 	"/>
	<polyline fill="#FCCBAF" points="39.191,176.889 45.827,177.946 43.15,182.646 38.112,183.726 39.191,176.889 	"/>
	<polyline fill="#00A650" points="13.064,161.485 19.182,157.886 25.66,159.326 31.418,161.485 36.457,162.925 43.294,164.004 
		47.973,167.603 47.973,172.642 46.893,175.161 43.294,178.04 38.976,177.32 32.498,175.161 21.341,172.282 15.943,171.562 
		13.784,169.402 11.984,164.004 13.064,161.485 	"/>
	<polyline fill="#FCCBAF" points="18.678,170.051 23.356,170.411 26.955,170.051 31.274,171.13 34.513,175.809 32.713,182.287 
		29.834,184.086 25.156,182.646 20.837,183.511 19.686,182.072 19.397,178.903 19.038,171.13 	"/>
	<path fill="#F26649" d="M122.325,349.992l8.277,2.52l7.559,2.159l11.156-0.72l3.959-1.079l1.439,6.117l3.598,7.558l-0.359,8.277
		l-0.721,4.319l-2.158,1.079c0,0-12.271-6.745-25.912,1.439c-3.598,2.159-1.439,0.72-1.439,0.72l-2.952-3.672l0.793-6.045v-7.197
		l-2.159-3.959l-1.44-5.398l0.72-4.679"/>
	<polyline fill="#00A650" points="194.663,161.773 192.502,154.936 200.538,146.177 207.401,144.354 222.012,138.741 
		230.651,145.579 228.491,150.977 223.452,157.095 200.78,165.659 	"/>
	<path fill="#FEC87B" d="M114.228,104.912c-5.758-0.09-6.507,2.959-9.357,2.969c-5.635,0.02-6.478-3.239-14.575-0.45
		c-2.827,0.975-9.177,5.758-9.177,5.758L74.1,132.263l-7.917,19.614l-2.159,7.018l23.212,12.146l-6.117,30.68l0.539,6.838
		l12.597,5.758l7.197,2.879l11.517,2.591l20.154,1.728l18.715-4.319l13.242-7.198l-0.646-34.369l-2.34-5.398l0.721-6.298h10.076
		l6.658-8.097l-7.199-20.874l-4.139-19.254l-9.355-8.277l-8.998-1.259l-7.377-0.18l-15.115,14.036l-5.758,0.72l-7.774-6.911
		C113.831,113.836,118.546,104.978,114.228,104.912"/>
	<path fill="#6098D1" d="M87.775,154.756c0,0,36.35,14.575,75.397,1.979l-1.08,8.817l-0.18,7.737l-0.541,3.599
		c0,0-36.527,10.796-73.236-0.9l-1.8-6.478l0.54-7.558L87.775,154.756"/>
	<polyline fill="#6098D1" points="80.578,209.818 101.451,216.116 121.965,220.435 141.758,220.254 156.155,215.756 
		162.631,213.776 165.331,232.49 161.733,265.239 161.624,292.338 164.252,320.842 163.532,346.034 148.057,354.491 134.92,354.671 
		118.007,347.113 116.207,333.438 114.407,316.523 119.878,302.415 117.287,288.595 110.27,294.391 98.393,299.789 84.356,297.449 
		72.84,291.331 63.843,272.077 66.902,258.942 70.934,254.335 74.46,235.189 78.958,223.133 80.578,209.818 	"/>
	<polyline fill="#FCCBAF" points="103.61,50.929 119.446,40.133 136.721,37.253 153.995,44.451 160.473,56.688 165.51,69.643 
		166.709,77.799 159.034,84.758 158.313,83.798 151.116,98.434 144.637,103.472 140.319,107.071 139.6,112.829 131.106,119.019 
		127.364,120.027 120.166,119.307 115.848,115.708 113.688,109.95 116.424,106.351 108.889,101.072 104.33,94.835 101.451,88.355 
		100.252,85.237 94.254,81.159 92.335,75.64 96.893,67.243 100.731,61.726 103.61,50.929 	"/>
	<path fill="#FFFFFF" d="M139.838,71.081c3.375,0,6.35-0.979,6.35-2.758c0-1.78-2.736-3.479-6.111-3.479
		c-3.371,0-7.348,2.449-6.234,3.839C134.799,69.882,136.467,71.081,139.838,71.081"/>
	<path fill="#FFFFFF" d="M116.356,71.353c3.374,0,6.347-0.98,6.347-2.76c0-1.779-2.734-3.478-6.106-3.478
		c-3.373,0-7.351,2.449-6.237,3.837C111.317,70.153,112.983,71.353,116.356,71.353"/>
	<polyline fill="#FCCBAF" points="68.342,162.493 76.89,166.092 85.041,167.963 86.876,181.117 83.313,191.859 74.819,194.163 
		61.864,191.284 46.749,182.646 45.022,179.768 46.749,172.57 45.31,167.531 38.112,163.933 34.945,162.205 29.475,158.354 
		29.115,152.866 32.713,151.337 35.232,154.576 40.451,157.185 48.908,159.614 52.22,162.493 56.826,163.933 66.902,167.711 
		66.183,161.773 	"/>
	<polyline fill="#FCCBAF" points="199.051,166.812 200.78,165.659 207.401,162.396 204.522,156.16 200.78,156.447 197.038,162.205 
		198.62,163.933 	"/>
	<polyline fill="#FCCBAF" points="215.174,153.856 218.055,152.417 219.495,154.576 221.653,158.894 218.34,163.357 
		214.022,161.054 212.872,156.16 	"/>
	<polyline fill="#FCCBAF" points="200.204,144.931 198.764,142.051 214.887,133.702 217.573,135.381 214.456,140.66 
		200.538,146.177 	"/>
	<polyline fill="#FCCBAF" points="176.883,161.628 177.747,164.219 191.422,157.455 195.022,163.933 205.385,165.084 
		202.219,172.57 193.583,184.086 183.983,191.763 174.149,197.042 166.231,198.481 164.792,189.844 161.67,180.487 161.913,166.571 
		176.883,161.628 	"/>
	<path d="M111.528,0.977c0.287,0.863,0,1.439-0.576,1.728c-9.213-1.728-17.274,3.741-22.744,10.077
		c-0.864,0.287-1.439,0-1.728-0.575c3.167-7.775,11.229-10.655,18.714-12.094C107.21,0.4,110.376-0.75,111.528,0.977"/>
	<path d="M110.665,11.342c-1.439,4.03-7.198,1.151-9.789,4.03c-2.592,2.015-5.471,5.182-7.773,6.046
		c-1.729-0.864-0.288-2.304,0.288-3.167c4.03-4.895,9.788-7.487,16.122-7.774L110.665,11.342"/>
	<path d="M196.809,23.557c-0.713,0.562-1.354,0.488-1.82,0.042c-1.49-9.254-9.367-14.987-17.178-17.992
		c-0.561-0.715-0.486-1.356-0.043-1.822c8.387,0.35,13.824,6.961,17.711,13.518C195.891,19.299,198.045,21.888,196.809,23.557"/>
	<path d="M186.764,26.252c-4.279,0.008-3.518-6.384-7.105-7.847c-2.771-1.756-6.729-3.395-8.318-5.271
		c0.227-1.917,2.068-1.049,3.076-0.8c5.971,2.135,10.357,6.677,12.771,12.541L186.764,26.252"/>
	<path d="M141.471,18.251c5.758-1.727,8.926,2.592,13.82,4.894c4.318,2.879,4.893,7.486,6.332,11.516
		c4.895,1.153,6.623,6.046,8.639,10.077c1.439,4.894,0.863,10.365-0.865,14.109c3.744,5.47-5.758,8.637-1.439,14.107
		c-0.287,4.319-2.016,10.077-7.197,11.805c-1.727,0.287-3.455-0.865-2.016-2.592c2.879,0.864,4.031-2.301,5.758-4.03
		c0.865-2.59,1.439-4.032,0.576-6.908c-0.287-1.442-2.016-2.879-3.455-3.744c-4.605-1.439-4.605,6.62-8.924,4.894
		c1.439-4.029,1.439-9.5,2.592-13.531c-0.289-2.879-4.033-4.319-4.609-6.911c-1.148,0.288-2.588,2.015-3.742,0.288
		c1.439-4.894-4.318-6.046-6.045-8.637c-3.742,2.304-7.197,9.501-12.381,8.062c0.865-2.304,1.729-5.471-0.287-7.486
		c-4.031,3.454-8.349,9.5-13.82,8.061c0-0.575-0.288-1.439,0.287-1.728c-1.439-0.864-3.454,0.865-5.182,1.728
		c-2.303,1.727-4.606,3.456-5.183,6.335c0.576,3.742,2.017,9.5-2.015,12.091c-2.304,1.728-3.455-3.741-5.759-0.864
		c-2.015,2.592-3.742,5.471-2.591,8.637c1.151,1.729,2.591,4.608,4.895,4.896c2.591-0.578,2.879,0.864,4.03,2.304
		c-0.575,8.06,5.759,14.682,12.669,18.136c1.728,1.153,5.183,0.865,5.47,3.457c-2.017,0.862-2.879,0-4.605-0.865
		c-1.729,2.304-0.576,4.894-0.29,7.485c3.456,5.183,9.214,5.758,14.972,5.183c3.168-2.016,7.486-4.031,8.061-8.349h1.729
		c1.439,2.304-0.576,4.03-1.729,5.758c-4.318,4.605-11.227,6.045-17.561,4.319c-3.455-0.865-6.621-3.454-7.774-6.911
		c-0.863-2.879-0.576-5.47,0.288-8.06c-8.062-3.169-12.668-11.517-13.531-19.58c-3.167-0.863-6.91-2.303-8.35-5.757
		c-2.016-4.894-0.287-8.637,2.879-12.669c0.288-5.758-4.318-8.349-5.47-13.531c-0.864-2.879,0.287-4.608,0.864-7.198
		c0.287-2.591,5.182-2.016,3.166-4.605c-0.575-3.457,2.592-7.775,5.758-9.79c2.88-1.729,8.351-0.576,8.062-5.183
		c5.758-8.062,15.835-12.38,25.335-9.789C135.713,19.691,138.016,19.979,141.471,18.251"/>
	<path d="M147.516,62.013c-0.287,0-0.287,0.578-0.287,0.864c-2.879-0.576-5.758-3.744-9.789-2.016
		c-1.152,0.287-2.303,1.729-3.742,0.576c-0.289-1.151,1.439-2.591,2.59-2.591C140.319,57.694,145.213,57.119,147.516,62.013"/>
	<path d="M122.469,62.301c-3.166-0.288-8.35-3.167-11.229,0.29c-0.575,0-1.728,0.287-1.728-0.578
		c0.863-2.015,3.742-3.744,6.621-3.454C118.438,59.711,122.182,58.269,122.469,62.301"/>
	<path d="M146.077,67.484v2.014c-2.016-0.863-3.455,0.577-5.471,1.44c-1.727,0-3.166-1.153-3.166-3.167
		c-1.727,0-1.727,2.879-3.742,1.439c-0.576-2.591,2.59-4.03,4.318-4.894C140.606,63.165,144.35,65.18,146.077,67.484"/>
	<path d="M122.564,67.723v2.016c-2.015-0.865-3.454,0.575-5.469,1.439c-1.729,0-3.169-1.151-3.169-3.167
		c-1.727,0-1.727,2.879-3.742,1.44c-0.576-2.591,2.593-4.031,4.318-4.895C117.096,63.404,120.838,65.42,122.564,67.723"/>
	<path d="M160.76,77.847c-1.15,1.153-2.016,0-2.879-0.288c0.863-1.726,0-4.318,1.729-5.182
		C162.2,73.241,160.76,76.121,160.76,77.847"/>
	<path d="M99.436,79.287c-0.863-0.287-2.015,0.288-2.303-0.865c0.576-1.437-0.288-4.029,2.016-4.319
		C100.876,75.546,98.86,77.559,99.436,79.287"/>
	<path d="M135.713,79.865c-1.439,2.301-4.32,3.454-7.199,3.454c-2.303,0-5.469-0.865-6.622-3.454v-1.153
		c3.168,0.575,5.471,4.029,9.213,2.303C132.545,79.865,136.288,75.256,135.713,79.865"/>
	<path d="M119.878,87.924c-0.288,0.289-1.728,0.865-0.575,1.728c5.469,2.591,12.379,2.016,17.561-0.863
		c0.863-1.151-0.576-4.895,2.016-4.03c0.287,2.591,1.727,5.183,4.318,6.623c0,0.575-0.287,1.15-0.863,1.727
		c-1.729,0.288-2.592-1.727-4.031-1.727c-0.863,4.029-5.471,6.908-8.924,7.484c-6.334,0.575-9.79-4.605-13.246-8.35
		c-1.439,0.288-3.454,0.866-4.894,0c0.575-2.013,3.454-1.151,4.894-2.591c1.439-0.864,2.593-4.318,4.608-2.591L119.878,87.924"/>
	<path fill="#FFFFFF" d="M133.409,93.396c-1.727,2.879-5.758,3.166-8.348,2.304l-2.016-1.729c0.576-0.863,2.016-0.288,3.166,0
		C128.803,93.396,130.819,94.26,133.409,93.396"/>
	<path d="M104.33,107.502c-1.727,2.015-3.166-0.576-5.182,0c-5.758,0.575-11.805,0.863-15.835,5.758
		c-0.863,0.288-1.152-0.287-1.728-0.576c0.288-2.879,3.743-3.167,5.183-5.182C91.951,105.776,99.436,103.759,104.33,107.502"/>
	<path d="M109.226,112.109c-1.152,6.333,2.303,12.091,7.484,14.97c2.303,2.016,7.774,0.29,7.774,4.031
		c-3.742,1.439-6.911-1.44-10.365-2.591c-6.333-4.318-8.35-10.94-7.772-17.562c0.287-2.014,1.439-3.454,2.59-5.18
		C112.105,106.926,108.649,109.805,109.226,112.109"/>
	<path d="M168.247,114.7c1.439,4.894,5.469,9.212,3.742,14.108c-0.287,0.862-0.863,0.287-1.152,0.575
		c-2.014-2.015-1.15-3.744-1.727-6.046c-2.016-6.045-5.471-13.243-12.668-14.682c-2.881-0.864-5.76,0.287-8.062-1.439l0.289-1.439
		C156.731,104.912,164.502,107.502,168.247,114.7"/>
	<path d="M144.924,120.747c-2.59,5.183-8.061,8.924-13.242,10.364c-1.439,0-3.168,0.288-4.031-1.151c0-2.59,3.455-0.575,4.607-1.728
		c3.742-1.726,7.773-3.741,9.787-7.484c0.289-2.879,2.592-5.758,0.576-8.637l1.729-1.439
		C147.229,112.974,145.213,117.579,144.924,120.747"/>
	<path d="M81.874,114.988c-6.046,7.773-6.91,17.85-9.501,27.063c-0.864-0.287-1.439-0.287-1.728-1.151
		c2.015-9.501,3.167-19.867,9.789-27.064L81.874,114.988"/>
	<path d="M174.292,138.021c1.439,4.605,3.455,9.212,4.607,13.82c-0.289,0.287-1.152,1.439-2.016,0.575
		c-2.592-6.623-6.047-12.956-6.047-20.729l0.865-1.153C174.004,132.55,172.852,135.717,174.292,138.021"/>
	<path d="M218.631,135.142v2.304c7.484-2.304,9.5,7.197,16.408,6.333c7.773,4.894,7.199,14.395,7.486,22.168
		c-0.287,1.151-1.727,0.864-2.303,0.29l-0.863-0.578c0.287-7.485,0.863-16.122-6.334-20.154c-0.576,0-1.152,0.288-1.439-0.287
		c0.287,4.318-2.879,7.772-6.047,10.651c-0.863,0.29-1.727-0.288-2.303-1.149c2.592-2.304,6.334-5.758,4.895-9.79
		c-0.863-1.727-2.016-3.744-3.742-4.319c-4.033,0.288-8.637-0.865-11.23,2.592c-2.016-0.29-3.455,2.879-5.758,1.15
		c-4.318,2.879-10.363,4.608-12.379,9.789c-0.576,2.592-1.152,6.623,2.016,8.062c1.15-2.016,1.439-4.605,3.742-5.758
		c2.016,1.153-0.576,3.167-0.576,4.607s-0.863,3.454,0.576,4.605c2.016,0,2.303-2.015,3.166-3.166
		c1.439-2.304-1.727-4.607,0.576-6.333c2.303,1.726,4.607-2.304,6.91-1.439l1.439,1.439c0.576-1.439,2.016-3.169,3.166-4.032
		c1.154-0.864,2.879-0.287,3.742,0.863c-0.863,1.439-3.453,0.865-3.742,3.169c-0.576,1.726-0.576,3.741,1.439,4.894
		c4.32,0,0.578-9.502,4.607-4.032c1.439,3.167-2.014,4.896-3.744,6.336c-1.727,0-3.166-0.864-4.318-2.304
		c-1.727,2.014-1.439,4.894-4.029,6.333c-2.016,0.29-3.455-0.575-4.607-2.303c-1.15,2.592-4.318,4.032-6.334,1.728
		c-2.303-2.592-6.045-2.879-6.908-6.333c-3.168-8.062,6.334-11.516,6.621-18.427c2.016-4.605,6.91-3.744,10.076-6.909
		c0.576,0.287,1.152,0.287,1.729,1.151c-2.592,3.742-9.213,3.167-10.365,8.637c2.303,0,5.182-1.727,7.773-2.304
		c2.879-1.727,6.91-1.439,8.35-5.47c0-1.439,0-2.879-1.439-3.454c-1.729-0.288-2.879,3.166-4.318,1.151
		c0.287-1.726,1.439-2.591,2.879-3.166C216.038,131.11,217.766,133.414,218.631,135.142"/>
	<path d="M164.502,135.142c1.439,10.651,0.289,17.849-0.287,28.215c5.182,1.44,9.789-1.729,12.955-5.758
		c0.863-1.153-0.287-2.879,1.152-3.744c1.439,0.865,2.303,2.879,1.439,4.318c-1.439,1.151-1.729,3.166,0.287,4.031
		c3.457-0.577,6.336-5.184,9.215-3.456c-1.154,3.456-6.047,3.456-8.639,6.048c-4.318,3.166-8.637,7.198-12.955,9.787l-0.863-0.863
		c3.166-4.03,7.197-6.334,10.939-9.502c-0.863-0.575,0-1.726-0.863-2.591c-3.455,3.456-8.061,5.183-12.955,4.895
		c-3.168,2.015,2.014,8.061-3.168,6.911c-1.727-4.608,1.729-9.79,0.863-15.548c1.439-7.774,0.865-14.972,0-23.033l0.865-1.726
		C163.639,133.127,163.928,134.277,164.502,135.142"/>
	<path d="M91.374,139.747c-3.454,8.926-4.03,20.154-3.454,29.944c-2.016,1.151,0.575,1.726,0.288,3.166
		c0.863,8.637-1.439,16.7-3.455,24.472c-0.576,0.288-1.151,0.865-1.728,0.578c-1.439-1.729-0.288-4.318,0.288-6.047
		c2.591-7.198,4.03-14.97,1.439-22.457c0.576-0.287,0.288-0.864,0.288-1.439l-0.288-0.287c-1.151,2.015-3.167,0.287-4.895,0.287
		c-0.863-1.151-2.016-1.439-3.167-0.576l-7.773-3.167c-0.864,0.865-0.864,1.728-0.864,2.592c4.606,2.879,8.925,5.758,13.532,8.349
		l-1.151,1.153c-8.925-3.457-16.411-10.654-26.775-10.654c-0.576,0.288-0.288,1.152-1.152,1.728c-2.303,0-1.439-2.589-2.015-4.029
		c-4.606-6.623-13.531-3.457-17.274-10.654c-0.576-0.575-1.727-0.287-2.303-0.287c-0.863,1.439-1.727,3.166-0.863,4.605
		c0.863,3.457,6.621,0.865,4.895,5.184c4.318,2.014,10.077,0.863,12.667,6.046c1.728,2.879,1.439,5.758,0.576,8.638l-3.167,2.879
		c9.789,9.789,23.32,14.396,36.852,10.652c-0.288,0.864,0.576,1.151,0.863,1.729c-8.349,5.468-18.138,2.015-26.487-1.153
		c-3.743-3.456-8.637-4.895-11.516-9.502c0-0.575,0-1.151,0.576-1.439c-0.863-0.575-2.303-0.862-2.016-2.014
		c3.167-1.44,2.879-5.47,2.304-8.349c-2.304-5.183-8.637-2.592-12.38-5.183c-5.47-1.44-10.94-6.046-16.986-2.879
		c-2.303,1.439-2.303,4.031-3.167,6.334c0.576,2.015,1.439,4.032,4.031,3.742l0.287,0.29c0.864-2.018,2.015-4.896,5.183-3.457
		c1.151,0,1.728,1.439,3.167,1.153c2.591-3.744,6.045,1.439,8.637-0.575c1.727-0.578,3.167,0.575,4.606,1.15
		c1.728,3.456,2.591,8.349,0.864,11.806c-1.439,2.301-4.03,4.605-6.91,3.166c-1.152-2.879-4.895,1.439-4.895-2.304
		c2.016-0.575,3.743-1.727,4.031-4.031c-0.288-2.879,1.439-7.486-2.591-8.061c-1.151-0.287-2.591,0-2.591,1.153
		c1.151,2.879,1.151,7.197-0.289,9.787c-1.439,1.439-3.742,2.591-5.758,1.729c-0.288-0.29-1.151-0.865-1.151-1.439
		c1.439-1.153,5.47,0,5.47-3.457c-0.576-2.591,0.577-6.91-2.879-7.772c-2.879-0.865-1.727,2.303-2.303,3.742
		c0,1.439,1.439,3.456-0.577,4.318c-0.863,0-1.439-0.575-1.727-1.728v-3.741c-1.44,1.15-4.031,0-5.183-1.729
		c-2.304-2.303-1.151-5.182-1.151-8.348c-2.592-0.864-4.607,2.879-5.758,4.605c-5.182,17.274-2.303,37.428,1.439,54.991
		c0.288,2.015,2.303,4.605,0.576,6.045c-1.728,0.865-2.015-0.865-2.303-2.015c0-3.456-2.591-6.334-2.015-9.501
		c-1.152-9.212-3.743-19.001-3.167-27.352c0-9.212-1.727-23.032,8.637-29.077c5.471,0.575,10.365-4.894,15.835-2.304
		c1.439,0.29,3.455,1.151,4.895,0.865c-2.015-2.304-2.303-4.894-1.151-7.773c0.864-2.017,4.318-1.729,6.046-0.865
		c3.742,8.062,13.819,3.744,17.85,11.517c4.318,1.151,8.637,1.726,12.667,3.454c5.183-4.029-3.743-6.046-1.727-10.365l5.758-11.803
		h0.863c2.304,6.045-8.637,10.941-1.727,16.122c2.591,4.032,7.774,2.592,10.653,6.336c2.303-0.29,4.318-1.729,6.334,0.287
		c1.151-9.502-0.576-21.018,5.471-27.928L91.374,139.747"/>
	<path fill="#FCCBAF" d="M210.569,157.6c0.574,2.301,0.574,5.18-1.439,6.908c-1.152,0.29-1.152-1.44-1.439-2.015
		C207.977,160.766,207.977,157.31,210.569,157.6"/>
	<path d="M243.389,169.691c-2.879,33.684-13.242,64.491-27.352,93.281c-12.955,19.003-25.91,39.443-44.049,54.991l-4.607,2.591
		c-2.59-4.03,3.168-3.743,4.607-5.758c25.912-26.488,47.791-55.279,56.719-89.251c5.758-17.851,11.227-36.565,11.803-56.142
		C239.934,166.523,243.389,167.963,243.389,169.691"/>
	<path d="M203.659,170.266c-2.016,6.623-6.621,13.532-12.955,16.7c-0.289,0-0.576-0.289-0.576-0.289
		c4.605-5.183,9.5-10.653,11.229-17.274C202.219,169.402,203.372,169.402,203.659,170.266"/>
	<path fill="#FCCBAF" d="M38.112,176.024c0.288,2.591-0.288,4.895-2.591,6.91h-2.016C35.809,180.919,34.37,163.933,38.112,176.024"
		/>
	<path d="M163.063,182.072c2.879,4.605-0.863,17.561,8.639,13.531c5.758-1.153,10.941-3.744,15.26-8.637
		c0.863-0.289,1.439,0.575,2.014,1.151c-2.014,3.742-6.623,5.182-10.076,7.772c-4.031,1.153-7.773,3.457-12.668,2.592
		c-1.729,4.03,0.863,6.91-0.576,11.228c-0.863,0.288-1.727,1.439-2.592,0.288c0.576-10.365-0.574-20.728-3.166-30.23l1.152-4.319
		C163.639,176.6,161.624,180.342,163.063,182.072"/>
	<path d="M82.737,206.544c6.622,7.484,16.987,8.059,26.488,9.499c1.15,0.865,0,1.728-0.576,2.304
		c-9.501-0.864-18.715-2.016-25.912-7.484c-3.167,3.454-3.455,10.363-1.151,14.396l-1.151,1.15c0-0.575-0.576-0.288-0.864-0.288
		c-7.197,13.244-7.197,31.669-2.879,46.065l-0.863,1.152c-3.743-5.471-4.319-12.381-4.895-19.002
		c-4.895,5.758-6.334,13.819-4.607,21.304c1.152,9.502,10.077,18.139,18.714,20.731c8.35,2.304,18.138,2.591,24.472-3.744
		c3.455-2.589,5.758-6.908,8.638-9.5c3.455,3.167,0.576,8.925,2.592,12.669c0.287,4.029,3.166,7.484,2.59,11.517
		c-0.287,0.574-1.15,0.861-1.727,0.286c-1.728-1.439-0.863-3.455-1.728-5.183c-4.318,10.364-3.744,24.76-1.728,35.413
		c6.91,6.908,16.698,9.79,26.2,8.351c1.439,0.575,0.287,1.439,0,2.015c-3.744,1.726-8.062,1.151-12.092,0.575
		c-4.895-1.729-9.79-3.454-14.108-6.908c-0.863,5.758,6.621,7.484,10.364,9.499c10.941,3.743,25.912,3.456,33.686-6.623
		c0-0.575-0.287-1.15,0.289-1.727c1.727-0.288,1.727,1.727,2.59,2.591c-5.758,9.215-16.121,10.654-26.486,10.654
		c-8.926-1.152-17.85-4.318-23.033-12.094c0.574-7.772-1.152-16.121-1.44-24.184c-0.864-10.652,6.91-20.441,3.168-31.383
		c-4.319,6.048-10.94,9.215-16.987,12.094c2.879,3.166-1.151,6.909,0.576,10.363c-1.151,5.759-2.304,13.244-8.925,14.684
		c-0.577,1.151-1.729,2.591-3.168,2.879c7.486,2.305,15.835,3.744,23.896,4.031c0.575,0.864,0.288,2.017,0.288,2.879
		c-29.078,0.288-53.839-14.396-72.265-38.003c-15.259-19.001-25.912-40.307-33.397-62.765c0.288-1.727-0.864-3.166,1.152-4.031
		c1.727,1.44,0.576,4.031,1.727,5.758c12.092,30.807,29.079,63.629,58.734,83.493c-2.016-6.047-6.046-15.835-0.577-21.304
		c0.577-3.169,0.288-6.623,1.728-9.215c-6.622-9.788-9.501-23.607-2.591-34.549l3.167-2.591l0.288,0.29
		c1.439-10.655,2.015-20.443,7.485-29.369c-0.576-4.605-0.576-10.651,2.016-14.97c-0.576-2.879-1.728-6.623,1.151-8.924
		C83.313,200.786,81.586,204.526,82.737,206.544"/>
	<path d="M164.37,212.247c-0.238-0.839,1.08,1.799,0.781,1.889c4.605,17.85-1.402,36.168-2.555,53.73
		c-0.576,0.578-1.152,0.864-1.727,0.578c-2.016-3.17,0.863-6.912,0.287-10.655c2.16-12.423,4.414-32.741,1.295-44.013
		c-14.971,6.623-33.252,11.192-49.664,6.01c-0.576-0.864-1.728-1.439-0.576-2.304c15.835,4.032,32.246,1.439,46.927-4.605
		C160.92,211.797,162.692,211.382,164.37,212.247"/>
	<path d="M114.694,235.621c-2.015,2.592-4.318-0.864-6.908-0.576c-4.319-1.728-7.198,3.455-10.653,0.576
		c2.016-3.455,7.773-3.168,12.093-2.591C111.24,233.317,112.968,234.757,114.694,235.621"/>
	<path d="M126.5,253.759c-0.576,10.076-2.304,19.865-7.197,28.216c-1.152,0.575-1.152-0.575-1.439-1.153
		c4.894-11.803,8.061-25.623,4.029-38.579l-4.319-4.607c0.577-0.865,1.729-1.151,2.593-0.575
		C126.211,241.09,125.636,247.712,126.5,253.759"/>
	<path d="M162.256,292.158c1.439,4.031,1.148,9.215,1.148,13.533c-0.574,0.575-1.148,1.439-2.014,0.862l-1.152-0.862
		c1.439-11.516-3.166-23.035,0.287-34.262C164.268,278.338,160.815,284.96,162.256,292.158"/>
	<path fill="#F26649" d="M98.572,300.688c0,5.758-1.151,12.381-6.909,15.547c-4.607,2.589-11.229,2.879-15.547-0.287
		c-6.622-5.761-4.895-16.124-4.319-23.897C79.858,297.231,88.208,302.128,98.572,300.688"/>
	<path d="M144.924,308.173c0.576-0.575,1.439-1.439,2.305-0.575c0.574,0.575,1.729,1.439,0.574,2.015
		c-3.166,2.018-6.621,1.728-10.65,1.728c-0.576-1.728-4.607-2.015-2.305-4.028C137.44,310.188,141.471,309.037,144.924,308.173"/>
	<path fill="#BFBFBF" d="M78.131,320.267c6.334,1.15,13.82,1.439,18.426-4.031c-1.151,3.454-2.879,7.772-6.909,8.925
		c-6.046,2.302-11.229-0.864-16.123-3.743c-2.591-4.029-4.319-8.638-5.183-13.531C68.918,313.645,73.524,317.963,78.131,320.267"/>
	<path d="M165.655,319.402c-0.863,7.484,0.287,15.26-2.592,21.593c-4.605-2.015,0.289-6.333-0.287-10.076
		c0-6.623-0.576-14.684-1.439-21.594C165.079,311.052,163.928,316.235,165.655,319.402"/>
	<path d="M74.964,340.995c5.183,1.151,10.365,2.015,15.259,3.454c-3.742,2.017-8.637,0.576-12.667,0
		c-4.031-0.575-8.35-3.742-9.501-7.772l1.151-1.439C71.509,336.677,72.085,340.131,74.964,340.995"/>
	<path d="M160.76,342.435c-1.15,3.166-5.469,3.166-8.061,4.894c-2.018,0-4.605,1.727-6.045-0.288
		c1.725-2.879,5.758-1.726,8.061-3.454C156.442,342.722,159.61,339.268,160.76,342.435"/>
	<path d="M72.949,352.224c4.031,1.439,8.637,1.149,12.667,0.288l0.864,0.575c-2.591,2.304-5.471,3.168-8.638,2.879
		c-5.47,0-10.364-3.742-12.956-8.348c-0.288-1.152,0.864-2.304,1.728-1.729C68.342,348.193,70.07,351.359,72.949,352.224"/>
	<path d="M126.5,364.893c-1.152,4.029-1.152,8.06,0,12.091l-1.729,1.727c4.608,4.032,8.35,10.365,15.547,9.215
		c5.471,0,11.518-1.729,14.107-6.91c-0.865-2.88,2.879-0.865,3.744-2.88c1.15-0.286,1.727,0.863,2.303,1.729
		c0,5.758-2.592,11.228-7.773,14.395c-8.35,4.605-17.562,2.305-24.76-3.454c-3.168-3.743-5.471-7.486-5.183-12.381
		c2.015-2.014,0.288-5.758,0.288-8.062c3.166-5.759-1.439-10.94-1.439-16.988l1.151-0.861
		C125.061,355.966,125.061,360.86,126.5,364.893"/>
	<path d="M157.018,356.83c-0.287,6.91,6.621,13.243,1.727,19.579c-2.59-2.305,0.289-5.472-1.15-8.062l-3.742-11.805
		C154.426,354.815,156.155,355.966,157.018,356.83"/>
	<path d="M145.79,360.86c0,0.575,0,1.15-0.576,1.729c-4.607-1.729-8.061-1.439-12.092,0.864c-0.863,0-2.592-0.578-1.439-1.729
		C134.848,357.692,142.911,357.405,145.79,360.86"/>
	<path d="M145.213,367.194c0.576,1.152,1.441,2.879-0.289,3.167c-2.014-1.439-4.605-1.728-6.908-0.863
		c-1.439,0-1.729,2.592-3.455,1.728c-1.439-0.578-0.576-2.015,0.287-2.592C137.153,365.754,142.045,365.754,145.213,367.194"/>
	<path d="M150.973,379.288c-1.439,2.015-3.744,0-5.473-0.865c-5.182-2.304-10.076,0.865-14.395,2.302
		c-1.439-0.575-0.287-1.437,0-2.015c5.182-4.03,12.668-4.03,18.428-1.439C150.108,378.135,151.258,378.423,150.973,379.288"/>
	<path fill="#BFBFBF" d="M150.682,391.954c-6.045,2.879-13.529,2.016-19-1.439l-4.031-4.606c4.607,4.606,12.381,6.046,19.289,4.318
		c4.033-1.439,7.199-3.741,10.078-6.909C156.155,386.772,154.426,390.515,150.682,391.954"/>
	<path d="M163.063,406.062c-3.453,1.728-7.771,2.018-11.227,3.743c-3.168,0-6.912,1.728-9.502-0.286
		c-3.455,0.861-6.91,3.74-10.941,2.301c-2.59-4.894-8.061,3.167-11.515-1.439c-0.575-1.151,0.864-1.439,1.439-2.301
		c-2.305,0-4.607,2.301-7.198,3.165c-1.728,0-3.167,0-4.318-1.439c-2.304-0.286-4.318,2.593-6.334,0.575
		c0.288-1.727,2.88-1.727,4.319-2.591c2.015-0.288,5.469-2.59,6.621,0.576c3.743-0.286,6.622-5.47,10.653-3.166
		c0.575,1.727-0.864,2.59-1.439,3.454c4.606,0.865,8.061-4.031,12.956-2.304c0.863,0.864-0.289,1.729-0.289,2.304
		c4.031-0.864,8.637-2.017,12.67-4.031c0.576,0.577,1.439,1.152,1.15,2.015l-0.574,0.289c4.318,0.575,8.348-1.727,12.09-3.455
		C162.2,404.335,163.639,404.91,163.063,406.062"/>
	<path d="M158.17,88.502c-2.879,6.908-6.912,14.396-14.396,17.849c-1.729-0.575-3.168,0.865-4.031,2.591
		c-4.895,3.742-10.939,4.318-16.698,2.302c-0.576-0.863-2.593-1.439-2.016-3.167c3.455,1.439,7.198,2.304,11.229,1.728
		c3.166-0.575,5.758-4.029,8.348-3.742c2.592-2.304,6.91-4.318,8.928-6.91c3.166-3.743,6.045-7.772,6.332-12.669
		C157.018,83.03,159.897,86.772,158.17,88.502"/>
	<path d="M142.479,109.015c0.246-0.495,0.652-0.875,0.91-1.359c-0.012,0.011-0.021,0.032-0.033,0.045
		c0.404-0.688,0.18-1.576-0.494-1.979c-0.688-0.405-1.564-0.193-1.98,0.495c-0.102,0.607-0.832,0.808-0.922,1.428
		c-0.383,0.696-0.123,1.563,0.574,1.946C141.231,109.971,142.096,109.712,142.479,109.015"/>
	<path fill="#FEC87B" d="M157.594,212.877c0,0,5.037-1.26,5.938-1.979s-2.16-2.699-2.16-2.699l-2.158,1.799L157.594,212.877"/>
	<path d="M91.015,156.285c7.108,2.519,14.486,3.779,21.953,4.409c0.54,0,1.08-0.45,1.08-1.08c0-0.63-0.54-1.08-1.08-1.08
		c-7.378,0.9-14.216-2.429-21.233-4.229c-0.54-0.27-1.169,0.09-1.349,0.63C90.115,155.476,90.475,156.105,91.015,156.285"/>
	<path d="M127.094,162.133c8.637,0.72,17.905,1.08,25.731-2.969c0.539-0.18,0.811-0.81,0.539-1.35
		c-0.178-0.54-0.898-0.81-1.438-0.63c-7.379,3.329-16.105,4.049-24.293,2.789c-0.54-0.09-1.169,0.18-1.349,0.81
		C126.194,161.323,126.464,161.953,127.094,162.133"/>
	<path d="M128.803,182.287c9.627,1.62,17.994-2.519,27.172-4.318c0.627,0,1.078-0.54,1.078-1.08c0-0.63-0.539-1.08-1.168-1.08
		c-9,2.16-17.545,5.848-27.082,4.319c-0.631,0-1.08,0.45-1.08,1.08S128.172,182.287,128.803,182.287"/>
	<path fill="#FFFFFF" d="M71.941,311.125c0,0,7.087,15.898,24.832,1.439c0,0-8.28-10.719-20.081-4.104
		C71.941,311.125,71.941,311.125,71.941,311.125"/>
	<path d="M91.951,308.173c-2.017,3.167-3.456-1.151-5.471-0.861c-3.743-1.442-6.334,1.149-9.789,1.149
		c0.288-0.288-0.288-0.575-0.575-0.863c2.303-2.591,6.045-4.03,10.076-2.879C88.208,305.582,91.087,305.869,91.951,308.173"/>
	<path d="M40.271,184.086c0.269-0.022,0.54-0.022,0.809-0.046l0.114,0.046c0.225,0,0.426-0.067,0.607-0.18l0.405-0.27
		c1.799-0.945,3.261-2.339,4.048-4.229c0.292-0.519,0.091-1.169-0.427-1.462c-0.54-0.271-1.192-0.068-1.461,0.448
		c-0.586,1.147-1.215,2.318-2.452,2.879l-1.305,0.834l0.585-0.18l-0.923,1.08c0-0.36,0-0.72,0-1.08c-0.607,0-1.08,0.473-1.08,1.08
		C39.191,183.612,39.664,184.086,40.271,184.086"/>
	<path d="M117.287,161.414c0.585-0.046,1.214-0.114,1.731,0.18c0.99,0.561,2.137,0.9,3.239,0.45c0.54-0.225,0.81-0.877,0.562-1.417
		c-0.227-0.54-0.878-0.787-1.417-0.562c-0.54,0.043-0.99-0.136-1.62-0.518c-0.742-0.472-1.642-0.292-2.496-0.292
		c-0.607,0-1.08,0.473-1.08,1.08C116.207,160.939,116.68,161.414,117.287,161.414"/>
	<path d="M121.313,182.017c0.584-0.045,1.214-0.112,1.731,0.18c0.989,0.562,2.137,0.9,3.239,0.45
		c0.539-0.226,0.81-0.878,0.562-1.418c-0.226-0.54-0.878-0.787-1.418-0.561c-0.539,0.045-0.989-0.135-1.619-0.519
		c-0.742-0.471-1.642-0.291-2.496-0.291c-0.607,0-1.08,0.471-1.08,1.08C120.233,181.544,120.706,182.017,121.313,182.017"/>
	<path d="M156.897,158.827c1.529-0.562,3.104-1.035,4.43-2.071c0.496-0.336,0.607-1.011,0.248-1.507
		c-0.338-0.472-1.012-0.607-1.484-0.248c-1.146,0.9-2.496,1.531-3.959,1.799c-0.562,0.227-0.832,0.834-0.629,1.395
		C155.727,158.759,156.334,159.028,156.897,158.827"/>
	<path d="M90.363,176.821c0.988,0.741,1.866,1.641,3.059,2c2.879,0.856,5.668,1.327,8.569,2.138
		c1.484,0.427,3.059,0.585,4.656,0.673c0.36,0,0.675,0.384,1.058,0.452c2.946,0.472,5.78,0.112,8.659,0.202
		c0.585,0,1.08-0.474,1.08-1.08c0-0.607-0.495-1.08-1.08-1.08c-2.654-0.022-5.285,0.133-7.939-0.067
		c-0.607-0.046-1.192-0.54-1.777-0.562c-1.237-0.069-2.429-0.27-3.6-0.563c-3.171-0.786-6.117-1.326-9.222-2.226
		c-0.877-0.27-1.395-1.126-2.159-1.62c-0.495-0.36-1.169-0.27-1.507,0.225C89.8,175.786,89.891,176.461,90.363,176.821"/>
</g>
</svg>
