<?xml version="1.0" encoding="UTF-8" standalone="no"?>
<!-- Created with Inkscape (http://www.inkscape.org/) -->

<svg
   xmlns:dc="http://purl.org/dc/elements/1.1/"
   xmlns:cc="http://creativecommons.org/ns#"
   xmlns:rdf="http://www.w3.org/1999/02/22-rdf-syntax-ns#"
   xmlns:svg="http://www.w3.org/2000/svg"
   xmlns="http://www.w3.org/2000/svg"
   xmlns:sodipodi="http://sodipodi.sourceforge.net/DTD/sodipodi-0.dtd"
   xmlns:inkscape="http://www.inkscape.org/namespaces/inkscape"
   width="439.20163"
   height="608.06152"
   id="svg2"
   version="1.1"
   inkscape:version="0.47 r22583"
   sodipodi:docname="quilt.svg">
  <defs
     id="defs4">
    <inkscape:perspective
       sodipodi:type="inkscape:persp3d"
       inkscape:vp_x="0 : 526.18109 : 1"
       inkscape:vp_y="0 : 1000 : 0"
       inkscape:vp_z="744.09448 : 526.18109 : 1"
       inkscape:persp3d-origin="372.04724 : 350.78739 : 1"
       id="perspective10" />
  </defs>
  <sodipodi:namedview
     id="base"
     pagecolor="#ffffff"
     bordercolor="#666666"
     borderopacity="1.0"
     inkscape:pageopacity="0.0"
     inkscape:pageshadow="2"
     inkscape:zoom="0.47649043"
     inkscape:cx="46.380838"
     inkscape:cy="61.84624"
     inkscape:document-units="px"
     inkscape:current-layer="layer1"
     showgrid="false"
     inkscape:window-width="1280"
     inkscape:window-height="968"
     inkscape:window-x="-4"
     inkscape:window-y="-4"
     inkscape:window-maximized="1" />
  <metadata
     id="metadata7">
    <rdf:RDF>
      <cc:Work
         rdf:about="">
        <dc:format>image/svg+xml</dc:format>
        <dc:type
           rdf:resource="http://purl.org/dc/dcmitype/StillImage" />
      </cc:Work>
    </rdf:RDF>
  </metadata>
  <g
     inkscape:label="Layer 1"
     inkscape:groupmode="layer"
     id="layer1"
     transform="translate(-107.78687,-201.64744)">
    <path
       style="fill:#eeffaa;fill-opacity:1;fill-rule:nonzero;stroke:none"
       d="m 121.08186,370.26579 c 0,-1.35491 4.10493,-23.34633 7.23992,-37.64713 3.22861,-14.72787 3.31823,-15.20309 3.71069,-16.70779 0.17666,-0.67734 21.91828,-19.31161 31.76086,-25.76275 11.6262,-7.62018 44.29449,-23.62653 45.60805,-22.31298 0.199,0.19901 -1.58415,7.67796 -3.15567,15.97436 -1.57152,8.2964 -4.11334,23.9712 -5.64847,34.02599 l -2.9232,18.80958 -11.46149,3.47434 c -20.34363,6.46469 -39.07397,14.60089 -54.66618,23.88851 -9.91228,5.90434 -10.46451,6.65151 -10.46451,6.25787 z"
       id="path3655"
       sodipodi:nodetypes="cssssscccsc" />
    <path
       style="fill:#afc6e9;fill-opacity:1;fill-rule:nonzero;stroke:none"
       d="m 198.19078,336.19916 c -0.0712,-1.00163 10.46575,-67.32564 11.8204,-68.20034 1.42427,-0.91966 14.41018,-5.33278 23.73014,-7.63853 11.27389,-2.78915 22.80229,-4.33474 40.04283,-6.0735 12.87903,-1.29889 14.75382,-1.56767 14.63465,-1.06614 -0.19137,0.80539 -6.69034,28.5951 -8.82316,42.28525 -1.44128,9.25128 -2.22982,18.12635 -2.55922,20.20653 l -0.59891,4.57439 -21.81023,3.98991 c -23.06536,4.23368 -43.52252,8.5191 -51.30125,10.87431 -4.62061,1.39901 -5.1465,1.40876 -5.13525,1.04812 z"
       id="path3681"
       sodipodi:nodetypes="cssssscccsc" />
    <path
       style="fill:#eeffaa;fill-opacity:1;fill-rule:nonzero;stroke:none"
       d="m 276.16074,320.51206 c 0.22456,-0.80949 1.04915,-6.11925 1.34828,-8.89464 0.98071,-9.09919 5.52208,-34.82866 8.15784,-46.42912 l 2.71547,-12.2944 13.06594,-1.84073 c 16.08792,-2.67205 34.25024,-7.09284 53.19048,-13.44827 8.67308,-2.91026 15.76923,-5.22086 15.76923,-5.13466 0,0.0862 -1.52602,6.84069 -3.39114,15.00997 -2.75923,12.08545 -6.66804,34.58687 -9.73807,52.05169 l -0.39605,3.79638 -15.97448,4.06265 c -22.08843,5.23333 -55.54568,11.41632 -54.6731,11.55215 0.59097,0.092 -10.31421,2.4334 -10.0744,1.56898 z"
       id="path3667"
       sodipodi:nodetypes="cscccssscccsc" />
    <path
       style="fill:#aaeeff;fill-opacity:1;fill-rule:nonzero;stroke:none"
       d="m 357.3885,299.50077 c 4.47041,-26.2476 12.42831,-66.52805 13.82975,-67.87806 0.91976,-0.88601 20.98035,-8.30367 43.74008,-16.41021 15.93071,-5.67418 33.70195,-10.80967 42.15927,-11.97308 l 4.42077,-0.48099 -1.76144,5.78205 c -6.37703,20.56234 -16.54022,59.67207 -18.17454,70.23918 -0.29419,1.90212 -0.93964,5.08802 -1.27298,5.62737 -0.33333,0.53934 -8.27842,1.70288 -17.49437,3.55391 -9.21595,1.85103 -27.2296,5.87144 -40.35309,9.09561 -13.12348,3.22418 -25.60586,6.39029 -25.80205,6.39029 -0.19619,0 0.41316,-2.21146 0.7086,-3.94607 z"
       id="path3695"
       sodipodi:nodetypes="csscccsssssc" />
    <path
       style="fill:#eeffaa;fill-opacity:1;fill-rule:nonzero;stroke:none"
       d="m 440.50346,284.47391 c 0.25113,-1.09662 1.78447,-8.24166 2.92326,-13.61853 3.65628,-17.26342 10.13764,-42.84294 15.74164,-60.84209 1.9317,-6.20431 2.2321,-6.95002 2.48804,-7.1906 0.47155,-0.44325 10.66536,-0.78807 14.82844,-0.50647 18.36041,1.24196 25.41596,7.39605 20.86815,16.79057 -2.97997,6.15581 -14.10229,15.1987 -23.61421,18.83871 l -4.2804,1.34296 0.20938,5.00491 c 0.2604,3.04318 0.18596,12.82398 0.4801,21.41233 l 0.93091,16.6715 -11.81686,0.12124 c -6.64451,0.57503 -13.98979,1.1257 -15.51596,1.38509 -2.57609,0.43784 -2.87418,1.6492 -3.24249,0.59038 z"
       id="path3663"
       sodipodi:nodetypes="csssssccccccsc" />
    <path
       style="fill:#eeffaa;fill-opacity:1;fill-rule:nonzero;stroke:none"
       d="m 473.59005,309.69027 c -0.39611,-0.22168 -0.9409,-8.51189 -1.60676,-17.93857 -0.66585,-9.42667 -1.60184,-24.77372 -1.91858,-34.26594 l -0.57591,-17.78673 5.96844,-2.34909 c 7.55626,-3.48867 15.76636,-9.36016 19.46253,-13.98977 l 3.76703,-5.97206 -0.81331,10.83574 c -1.34398,22.63769 -3.90409,63.44407 -4.72543,66.6572 -1.05871,4.14175 -6.24688,10.20067 -11.22021,12.57564 -3.65343,1.74467 -8.3378,2.90778 -8.3378,2.23358 z"
       id="path3665"
       sodipodi:nodetypes="csccccccssc" />
    <path
       style="fill:#afc6e9;fill-opacity:1;fill-rule:nonzero;stroke:none"
       d="m 267.63765,452.14691 c 0.73931,-28.74659 1.37731,-51.13287 2.23496,-51.95768 0.3622,-0.34834 17.38147,-4.40195 35.88404,-9.33079 18.50256,-4.92884 34.9585,-8.96634 37.21428,-9.61773 l 4.1014,-1.18435 -0.51073,3.98117 c -0.70078,5.46267 -2.31714,42.56211 -3.00472,61.20316 l -0.56445,15.56682 -3.27419,0.84425 c -1.21984,0.24647 -5.28513,0.48445 -9.67949,1.17435 -13.44036,2.11008 -38.49694,6.91472 -50.31182,9.64736 -6.16227,1.42526 -12.2093,2.98751 -12.46957,2.98751 -0.26026,0 0.0561,-10.7092 0.38029,-23.31407 z"
       id="path3683"
       sodipodi:nodetypes="cssccccccsssc" />
    <path
       style="fill:#ff0000;fill-opacity:1;fill-rule:nonzero;stroke:none"
       d="m 187.20821,479.62048 c 0.47749,-17.8105 2.44959,-55.64627 2.80888,-56.11324 0.33281,-0.43256 44.71797,-13.60111 59.52327,-17.62809 9.48256,-2.57921 18.772,-5.12123 19.35216,-5.32615 0.80981,-0.28605 0.67169,1.73247 0.27818,6.07152 -0.28191,3.10854 -0.68174,19.92523 -1.21126,37.20903 l -1.09481,31.82122 -16.11153,4.38533 c -20.39561,5.59726 -63.60434,20.12291 -63.56024,20.55439 0.0653,0.63913 -0.53128,-0.58459 0.0154,-20.97401 z"
       id="path3723"
       sodipodi:nodetypes="csssscccsc" />
    <path
       style="fill:#aaeeff;fill-opacity:1;fill-rule:nonzero;stroke:none"
       d="m 109.06722,524.03021 c 0.24355,-5.20385 0.65531,-18.65901 0.915,-30.22311 0.45997,-20.48193 0.94159,-41.78536 1.68656,-42.53032 1.68402,-1.68402 76.89361,-27.81809 77.57624,-26.98143 0.14915,0.1828 -0.14573,5.64849 -0.4938,11.66182 -0.34811,6.01333 -1.26213,18.88102 -1.547,28.59487 -0.92594,31.57394 -0.69788,35.24194 -0.7636,36.78085 -0.0253,0.59286 -39.10404,15.51653 -56.30756,23.02705 -11.00542,4.80463 -20.59466,9.39587 -20.82529,9.39587 -0.23062,0 0.17608,-4.91788 0.41962,-10.12172 l 0,0 -0.66017,0.39612 z"
       id="path3689"
       sodipodi:nodetypes="cssssssssccc" />
    <path
       style="fill:#0055d4;fill-opacity:1;fill-rule:nonzero;stroke:none"
       d="m 112.73279,442.05861 c 1.88963,-23.2205 7.09319,-66.84929 8.41521,-71.20863 0.98552,-3.24971 27.91994,-16.96811 47.0713,-24.45511 11.0039,-4.30185 29.19392,-10.01082 29.81139,-9.39335 0.22202,0.22202 -0.66572,5.41959 -1.32722,10.2591 -1.55619,11.38506 -4.22564,37.93796 -5.88515,58.69838 -0.7206,9.01466 -1.05131,17.14556 -1.38045,17.42316 -0.32914,0.2776 -10.35936,3.05735 -20.99833,6.66138 -16.70445,5.65876 -35.46963,12.5306 -51.51773,18.8659 l -5.08049,2.14112 0.49536,-5.42691 0.39611,-3.56504 z"
       id="path2873"
       sodipodi:nodetypes="cssssssscccc" />
    <path
       style="fill:#ffaaaa;fill-opacity:1;fill-rule:nonzero;stroke:none"
       d="m 189.74204,423.16207 c 0.003,-2.35686 2.7456,-37.89922 3.97862,-49.9902 2.48084,-24.32719 3.51554,-35.57101 4.59214,-36.23639 3.25803,-2.01357 76.91735,-17.35971 77.89882,-16.22095 0.0962,0.11163 -1.35871,9.37854 -2.42629,19.78623 -1.78056,17.35873 0.0274,57.79718 -4.45889,59.76914 -2.64077,1.16075 -0.88647,-0.1157 -15.06024,3.7181 -13.34083,3.60849 -44.4062,12.90289 -58.47567,17.27695 -2.89103,0.89879 -5.65246,1.44221 -5.65237,1.36897 l -0.39612,0.52815 z"
       id="path3653"
       sodipodi:nodetypes="cssssssscc" />
    <path
       style="fill:#87deaa;fill-opacity:1;fill-rule:nonzero;stroke:none"
       d="m 270.03802,392.64606 c 3.2e-4,-9.56463 5.71024,-70.99353 6.61832,-71.91791 0.17365,-0.17677 6.81771,-1.38123 14.11906,-2.67659 15.99953,-2.83854 32.81213,-6.38951 51.19956,-10.75722 7.51666,-1.78549 14.35938,-3.71442 14.31795,-3.13144 -0.0347,0.48873 -0.75887,6.16202 -1.67548,12.10051 -2.08043,13.47857 -4.961,42.36248 -5.72253,52.59713 -0.31535,4.23821 -1.09335,9.44028 -1.40611,9.94635 -0.31277,0.50606 -17.24935,5.12678 -37.15271,10.42961 -19.90335,5.30285 -39.72049,10.54261 -40.48773,10.83702 -1.20143,0.46104 -0.47067,-2.65683 0.0576,-5.1828 l 0.13204,-2.24466 z"
       id="path3709"
       sodipodi:nodetypes="cssssssssscc" />
    <path
       style="fill:#e580ff;fill-opacity:1;fill-rule:nonzero;stroke:none"
       d="m 348.2346,372.49137 c 1.70873,-19.29224 7.73334,-67.93368 8.64537,-68.74733 1.41932,-1.26621 79.2386,-18.70217 83.43946,-18.70217 1.31778,0 -0.80551,1.36474 -2.26554,8.99223 -2.24537,11.73022 -6.62078,46.08024 -7.82948,58.54605 l -1.2922,11.39586 -2.86003,0.23053 c -1.42778,0.19941 -6.84139,0.11968 -12.03026,0.62972 -12.54223,1.23285 -28.46107,4.28787 -46.91441,9.00345 -8.32616,2.12767 -19.15784,6.58538 -19.20514,5.48605 -0.0952,-2.21383 0.16145,-0.79179 0.70835,-6.96643 l -0.39612,0.13204 z"
       id="path3699"
       sodipodi:nodetypes="cssscccssscc" />
    <path
       style="fill:#0055d4;fill-opacity:1;fill-rule:nonzero;stroke:none"
       d="m 468.26516,365.28502 c -3.9318,-0.60137 -14.26168,-1.37497 -22.95531,-1.71913 l -16.33474,0.43057 0.1497,-4.02721 c 0.22758,-1.19826 0.65179,-4.35694 0.94269,-7.82617 1.35412,-16.14908 9.25921,-66.01428 10.59597,-67.19337 1.05581,-0.93127 15.54295,-2.43308 22.96935,-2.43199 l 7.69457,10e-4 0.47567,4.8115 c 0.26162,2.42846 0.2131,10.67766 0.69908,17.8474 0.48598,7.16974 1.81301,23.48567 2.94895,36.25762 1.13594,12.77195 2.32943,24.57699 2.32943,25.10376 0,1.10447 -0.0996,0.18607 -9.51536,-1.25405 l 0,7e-5 z"
       id="path2869"
       sodipodi:nodetypes="ccccsscccssscc" />
    <path
       style="fill:#0055d4;fill-opacity:1;fill-rule:nonzero;stroke:none"
       d="m 479.46169,379.01989 c -1.39324,-12.18109 -5.83059,-58.44918 -5.83435,-61.70544 -0.002,-2.04344 -0.52696,-5.60436 0.41233,-6.69515 0.66352,-0.77056 13.32867,-5.29668 16.03273,-8.48947 l 3.02491,-4.97633 -0.76674,13.07034 c -0.27645,6.24462 -0.7247,24.41077 -0.9961,40.36923 -0.29086,17.10283 0.32931,28.39367 -0.19556,29.77589 -0.9231,2.43092 -2.36159,5.65972 -6.29157,6.78683 l -4.40993,0.65886 -0.97572,-8.79476 z"
       id="path2871"
       sodipodi:nodetypes="csscccssccc" />
    <path
       style="fill:#aaeeff;fill-opacity:1;fill-rule:nonzero;stroke:none"
       d="m 484.93198,427.33666 c -2.19476,-18.84949 -3.10004,-27.91841 -3.30279,-29.19046 -0.28958,-1.81691 -1.35799,-9.57494 -1.20166,-9.83902 0.43251,-0.73059 5.16575,-0.8027 6.84927,-1.94517 l 4.11727,-4.18984 -0.39612,40.77445 c 0,21.26401 0.0993,43.86164 -0.90571,43.94337 -0.65234,0.053 -2.9655,-20.70385 -5.16026,-39.55333 z"
       id="path3715"
       sodipodi:nodetypes="csscccsc" />
    <path
       style="fill:#aaeeff;fill-opacity:1;fill-rule:nonzero;stroke:none"
       d="m 478.40696,451.04994 c -2.77539,-0.43408 -16.00177,-1.17724 -29.0692,-1.00595 l -24.5512,1.23571 0.14424,-13.87854 c 0.0196,-21.04386 1.14721,-73.47779 4.25731,-73.32313 0.81429,0.0405 2.52914,-1.03233 14.91035,-0.4828 11.05685,0.49075 33.35801,2.81014 34.08072,3.52545 1.01952,1.00908 1.31437,10.87667 2.07896,18.79547 0.67958,7.03836 2.00422,18.54238 4.74522,41.21025 1.37036,11.33282 3.15331,24.6256 3.1552,25.66636 0.004,2.13025 -1.49743,-0.45184 -9.7516,-1.74282 z"
       id="path3691"
       sodipodi:nodetypes="ccccssssssc" />
    <path
       style="fill:#87deaa;fill-opacity:1;fill-rule:nonzero;stroke:none"
       d="m 493.02038,564.01861 c -0.19274,-0.17984 -13.27955,-0.39351 -30.85698,-0.95894 -17.57744,-0.56543 -31.9143,0.52425 -32.46032,-0.88072 -1.4903,-3.83474 -1.11415,-9.9172 -1.86315,-21.25002 -1.98586,-30.04736 -3.452,-61.5538 -3.15588,-75.98077 l 0.25894,-13.14354 11.98964,-1.07788 c 12.86893,-0.80246 38.46205,-0.16073 45.75208,1.15247 l 5.38284,1.0541 1.18053,9.79204 c 2.08253,18.66252 15.61197,95.37036 18.11986,101.90581 0.42191,1.09948 -1.25457,0.11056 -6.55129,0.11056 -3.44163,0 -6.67927,-0.67529 -7.79627,-0.72311 z"
       id="path3711"
       sodipodi:nodetypes="csssccccccssc" />
    <path
       style="fill:#ff0000;fill-opacity:1;fill-rule:nonzero;stroke:none"
       d="m 344.79095,557.35769 c -0.0272,-3.86158 -1.1565,-19.88873 -1.54137,-35.61591 -0.38486,-15.72718 -0.62776,-34.97403 -0.37839,-43.57767 l -0.0747,-17.22745 11.44936,-1.29323 c 23.74766,-3.62512 69.73357,-8.82165 70.44153,-8.00034 0.16231,0.1883 -0.58116,15.89459 -0.0383,33.93459 0.88236,29.32456 3.11909,59.98382 4.41328,71.06163 l 0.46671,5.97545 -16.32635,-0.25038 c -17.43608,0.0151 -54.75695,1.18355 -62.33805,2.01323 l -6.02425,10e-4 -0.0494,-7.02103 2e-5,10e-6 z"
       id="path3717"
       sodipodi:nodetypes="cscccssccccccc" />
    <path
       style="fill:#ffaaaa;fill-opacity:1;fill-rule:nonzero;stroke:none"
       d="m 267.66813,567.31211 c -0.289,-2.76503 -0.6575,-24.2575 -0.6575,-47.92242 l 0.26408,-43.68731 14.61533,-3.38854 c 15.63322,-3.46736 47.34866,-9.25391 55.32844,-10.15672 l 5.67502,-0.97842 -0.17688,37.11738 c 0.048,19.8336 0.86554,42.77934 1.17128,50.99053 0.48242,12.95643 1.57751,15.3259 0.4827,15.32798 -6.45923,0.0123 -57.80911,5.47466 -71.14171,7.58226 l -5.69554,0.67074 0.79493,-5.55548 0,0 -0.66015,0 z"
       id="path3679"
       sodipodi:nodetypes="cccccccssccccc" />
    <path
       style="fill:#0055d4;fill-opacity:1;fill-rule:nonzero;stroke:none"
       d="m 187.79553,590.90566 c -0.24033,-0.62627 -0.79144,-22.01973 -0.90194,-45.76582 l -0.0689,-43.83491 5.70635,-2.33833 c 13.66877,-5.61861 70.37803,-23.02128 74.55546,-23.00979 0.46121,10e-4 -0.4562,20.19374 -0.32544,48.6908 l 1.01199,48.16051 -3.95558,0.25926 c -25.66077,4.24527 -58.55602,11.77376 -69.52337,15.93957 -0.5743,0.21814 -5.99421,2.26091 -6.23453,1.63464 l -0.26407,0.26407 z"
       id="path3677"
       sodipodi:nodetypes="ccccscccscc" />
    <path
       style="fill:#e580ff;fill-opacity:1;fill-rule:nonzero;stroke:none"
       d="m 110.83442,612.38822 c -0.9034,-15.85733 -2.27264,-77.6308 -1.66692,-78.27018 1.33846,-1.41283 75.54443,-33.53661 77.22149,-32.48769 0.63333,0.39612 -0.006,16.76915 0.38279,42.63326 0.34548,23.01256 0.82235,45.23626 0.89832,46.31976 0.12682,1.80877 -1.55457,0.21801 -13.13745,4.2636 -20.99745,7.33383 -43.19075,17.25735 -56.3771,25.20845 -2.75977,1.66409 -6.30667,4.21494 -6.59095,4.21613 -0.28428,8.4e-4 0.26519,-5.9999 -0.07,-11.88333 l -0.66019,0 z"
       id="path3697"
       sodipodi:nodetypes="cssssssscc" />
    <path
       style="fill:#eeffaa;fill-opacity:1;fill-rule:nonzero;stroke:none"
       d="m 117.63275,714.5212 c -0.95232,-8.95847 -2.71455,-35.3735 -3.97678,-54.85122 -0.68945,-10.63898 -1.35322,-22.01638 -1.6364,-26.25139 l -0.51489,-9.15245 6.64285,-3.70321 c 8.28572,-4.83912 31.59113,-15.6349 41.39189,-19.47729 12.17342,-4.77261 27.5781,-10.32109 28.39419,-9.81672 0.40086,0.24774 0.0686,5.04854 0.0686,8.89325 0,8.32115 1.77701,44.51576 3.52947,67.49755 1.54671,20.28365 3.53024,20.76156 2.06418,20.76156 -1.95493,0 -27.55281,7.63579 -37.39614,11.3184 -10.58843,3.96137 -23.81226,10.9944 -30.56539,15.47911 -2.54411,1.68953 -7.04221,4.66162 -7.57508,4.99084 -0.66945,0.4136 0.72086,-2.74398 0.36575,-6.08455 l -1e-5,0 -0.79228,0.39612 z"
       id="path3657"
       sodipodi:nodetypes="cscccssssssssccc" />
    <path
       style="fill:#afc6e9;fill-opacity:1;fill-rule:nonzero;stroke:none"
       d="m 192.70502,676.65624 c -2.58711,-35.47326 -4.61409,-68.84864 -4.6169,-78.48033 l -0.26608,-7.0427 10.22938,-3.01962 c 17.04284,-4.94546 69.05164,-14.96036 69.16902,-14.87771 0.49018,0.3451 0.81767,-0.46102 0.83487,12.59354 0.0132,10.00613 1.74427,41.83311 3.28813,68.7944 0.58272,10.17641 2.11735,17.68713 0.98179,19.02343 -5.87116,6.90908 -5.69744,0.81995 -12.40462,1.831 -17.57378,2.64911 -42.07218,7.21482 -54.29751,10.11929 -5.81274,1.38098 -11.83779,2.9062 -11.87118,2.77494 -2.11603,-8.31843 -0.0917,-2.38727 -0.38685,-6.4347 l -0.66005,-5.28154 z"
       id="path3685"
       sodipodi:nodetypes="ccccssssssscc" />
    <path
       style="fill:#eeffaa;fill-opacity:1;fill-rule:nonzero;stroke:none"
       d="m 272.71306,673.59234 c -0.53015,-3.78874 -0.77401,-7.23033 -1.23112,-14.63135 -1.27714,-20.67822 -3.36621,-68.72555 -3.36621,-77.42085 l -0.39612,-8.29874 6.70883,-1.30069 c 12.15769,-2.09224 51.27224,-6.3144 64.86159,-6.96437 l 5.15379,0.0428 0.61456,11.00486 c 1.3096,22.32554 2.71847,49.17728 4.4314,68.75136 0.98324,11.23567 2.01669,21.12379 1.8124,21.32807 -0.20429,0.20428 -5.7597,0.63545 -12.66812,1.11953 -22.19136,1.55494 -56.33386,5.21876 -62.17624,5.81647 -1.05909,0.10835 -3.74261,0.90861 -3.74476,0.55287 z"
       id="path3669"
       sodipodi:nodetypes="csccccccssssc" />
    <path
       style="fill:#aaeeff;fill-opacity:1;fill-rule:nonzero;stroke:none"
       d="m 352.00979,665.98442 c -0.002,-0.40708 -0.34182,-9.40521 -1.23929,-19.35034 -3.02448,-33.51511 -6.90747,-80.8509 -6.08031,-81.80357 0.82373,-0.9487 38.46337,-2.11815 61.93747,-2.11815 l 22.8992,-0.13204 0.28765,3.52556 c 0.23083,1.50333 0.68301,11.05949 1.65036,21.23589 1.58249,16.64755 8.10198,67.03487 9.30688,73.56429 l 0.48076,3.66157 -40.62466,0.0137 c -22.1257,0.29799 -41.8942,1.31145 -44.09138,1.60662 -2.19718,0.29517 -4.52467,0.20359 -4.52668,-0.20349 z"
       id="path3693"
       sodipodi:nodetypes="csscccscccsc" />
    <path
       style="fill:#eeffaa;fill-opacity:1;fill-rule:nonzero;stroke:none"
       d="m 517.58746,668.86569 c -12.62718,-1.46284 -41.964,-2.96661 -60.74502,-3.67916 l -15.17321,-0.43361 -0.83902,-3.16004 c -1.83933,-10.92984 -7.94248,-62.80271 -9.51227,-80.45116 -0.49372,-5.55077 -0.97505,-11.43669 -1.23099,-13.40259 l -0.46534,-5.29085 15.79637,0.31618 c 17.85867,0.0605 61.3564,1.38658 62.09607,2.12625 0.78933,0.78933 16.74991,69.32159 21.00778,89.31257 1.42854,6.70718 3.85364,15.33341 3.07139,16.06776 -1.54973,1.45483 0.46157,0.27064 -14.00576,-1.40538 l 0,0 0,3e-5 z"
       id="path3661"
       sodipodi:nodetypes="ccccscccsssccc" />
    <path
       style="fill:#0055d4;fill-opacity:1;fill-rule:nonzero;stroke:none"
       d="m 496.86003,759.1649 c -15.4959,-0.39061 -30.87194,-0.91932 -34.16898,-1.17494 l -6.65481,0.32748 -5.56986,-35.0019 c -7.05238,-43.31521 -9.96723,-58.03661 -8.86074,-58.61495 1.21521,-0.63516 48.70257,2.0861 75.22858,4.67717 l 15.82793,1.71986 0.32332,4.51053 c 3.44263,17.1687 12.96692,80.73414 12.96692,85.06316 0,0.37895 -14.04938,-0.62309 -49.09236,-1.50641 l 0,0 z"
       id="path2875"
       sodipodi:nodetypes="ccccscccscc" />
    <path
       style="fill:#e580ff;fill-opacity:1;fill-rule:nonzero;stroke:none"
       d="m 397.68703,757.01901 -35.12373,0.29882 -3.53957,-27.83568 c -2.47459,-15.47929 -7.42723,-62.17496 -6.75792,-62.82386 0.60631,-0.58781 52.7987,-2.18596 70.93333,-2.18385 l 18.04465,0.26607 0.58856,2.84098 c 0.25108,1.27205 0.93495,6.53309 1.68108,11.85258 0.74613,5.31948 3.65565,24.54754 6.62698,42.72902 2.97134,18.18148 6.19466,35.05621 6.19466,35.72421 0,1.00957 -3.14013,0.25644 -12.75245,0.0897 -6.36026,-0.1103 -27.0859,-0.83191 -45.89559,-0.95804 l 0,0 0,10e-6 z"
       id="path3703"
       sodipodi:nodetypes="cccscccssssccc" />
    <path
       style="fill:#87deaa;fill-opacity:1;fill-rule:nonzero;stroke:none"
       d="m 278.88898,755.51107 c -0.002,-0.59916 -0.3353,-3.98008 -1.22433,-13.00007 -2.17114,-22.02815 -5.66687,-67.79148 -5.17522,-68.28313 1.03128,-1.03128 38.63327,-5.15087 64.1509,-6.91037 11.28692,-0.77827 15.06024,-1.45175 15.06024,-0.71469 0,2.54926 2.75656,29.70613 6.25167,58.09878 2.12529,17.26483 4.74354,32.4918 4.52729,32.70805 -0.21626,0.21625 -12.45241,0.35312 -25.57766,0.78831 -24.39544,0.80886 -52.31106,2.53062 -57.25611,2.84385 -0.71617,0.0454 0.43438,0.11376 -0.22862,-1.04142 l -0.52816,-4.48931 z"
       id="path3707"
       sodipodi:nodetypes="csssssssscc" />
    <path
       style="fill:#ffaaaa;fill-opacity:1;fill-rule:nonzero;stroke:none"
       d="m 201.22892,764.5961 c -1.99923,-14.09904 -8.21938,-75.52173 -7.2671,-75.97386 1.87683,-0.8911 37.92398,-8.82308 58.98902,-12.07236 7.6323,-1.17729 19.10735,-3.89858 19.1633,-2.6457 0.25765,5.76883 -0.20145,-3.78884 3.09103,38.19785 1.17888,15.03334 2.61728,32.29076 3.19645,38.18845 0.7149,7.27973 1.56554,10.98833 0.9741,10.9908 -0.47915,0.002 -10.3285,0.67842 -20.27363,1.8259 -17.39748,2.00737 -41.49298,5.88562 -51.43654,8.27888 l -5.55185,1.40965 -0.22458,-3.18215 -0.6602,-5.01746 z"
       id="path3649"
       sodipodi:nodetypes="cssssssscccc" />
    <path
       style="fill:#0055d4;fill-opacity:1;fill-rule:nonzero;stroke:none"
       d="m 123.60167,771.31612 c -1.96186,-19.77461 -4.31455,-39.22796 -4.58267,-43.39103 l -0.88361,-7.70127 7.53216,-5.14604 c 8.43654,-5.55867 18.01781,-10.23846 29.95832,-14.77675 11.05313,-4.20103 37.22986,-12.06045 37.88945,-11.40085 0.24987,0.24987 0.35359,7.44619 1.03738,15.02355 1.52528,16.90225 3.23933,33.45015 5.50762,53.17208 0.9492,8.25294 2.3749,15.41256 2.19995,15.58751 -0.17495,0.17494 -6.57785,1.62139 -13.2604,3.53708 -24.68447,7.07633 -42.58702,15.72157 -56.29796,27.18661 -2.54082,2.12462 -5.35337,5.18335 -5.60459,5.18335 -0.25122,0 -1.53378,-17.49962 -3.49565,-37.27424 z"
       id="path2863"
       sodipodi:nodetypes="ccccssssssssc" />
    <path
       style="fill:#eeffaa;fill-opacity:1;fill-rule:nonzero;stroke:none"
       d="m 343.68721,444.26633 c 0.65392,-18.72058 2.69229,-53.18107 3.4032,-59.70536 0.57602,-5.28635 0.63135,-4.81823 5.22377,-6.24859 10.90689,-3.39708 36.15329,-9.41275 45.58769,-11.01479 12.36549,-2.09977 30.11272,-3.78222 30.82386,-3.07108 0.28039,0.28039 -0.16372,5.5185 -0.66415,10.51057 -0.90717,9.0497 -2.25445,35.17155 -3.1875,61.80125 l -0.0957,14.4337 -5.38435,0.57919 c -28.02529,2.89556 -41.28094,4.29951 -57.13899,6.59219 l -18.48242,2.31418 -0.0854,-16.19126 z"
       id="path3727"
       sodipodi:nodetypes="cssssscccccc" />
    <path
       id="path2825"
       style="fill:none;stroke:#000000;stroke-width:1px;stroke-linecap:butt;stroke-linejoin:miter;stroke-opacity:1"
       d="m 490.7364,474.50408 c 19.81439,128.97236 37.30282,143.98528 55.68023,286.3961 M 499.10402,212.64674 c -3.30227,86.13661 -7.51581,21.83438 -8.36762,262.34956 2.86727,16.15741 -18.94182,-131.27034 -21.16517,-235.77005 6.17343,-0.50532 42.65435,-20.68428 23.62624,-33.47049 -51.90113,-18.86815 -123.96724,42.10489 -217.06596,48.23688 -95.28792,6.27618 -144.21842,62.01885 -144.21842,62.01885 -37.387406,152.91418 -21.14019,340.28327 -4.92212,493.19745 59.31393,-62.20938 262.09061,-53.14987 419.49754,-48.36891"
       sodipodi:nodetypes="ccccccsccc" />
    <path
       style="fill:none;stroke:#000000;stroke-width:1px;stroke-linecap:butt;stroke-linejoin:miter;stroke-opacity:1"
       d="m 120.5922,371.13934 c 58.016,-38.48219 120.74611,-43.74727 181.60025,-55.26709 60.35379,-11.4251 129.71675,-35.15912 168.85543,-33.33125"
       id="path2828"
       sodipodi:nodetypes="csc" />
    <path
       style="fill:none;stroke:#000000;stroke-width:1px;stroke-linecap:butt;stroke-linejoin:miter;stroke-opacity:1"
       d="m 110.74793,451.86228 c 87.32421,-35.38123 166.63703,-53.04929 241.70303,-73.6748 45.27237,-12.43926 78.88637,-18.87999 125.98011,-10.98584"
       id="path2830"
       sodipodi:nodetypes="csc" />
    <path
       style="fill:none;stroke:#000000;stroke-width:1px;stroke-linecap:butt;stroke-linejoin:miter;stroke-opacity:1"
       d="m 108.28687,534.55407 c 102.50992,-45.83691 146.27972,-60.99305 257.32404,-76.66353 27.68213,-3.90647 95.23011,-12.30828 122.66443,-5.04383"
       id="path2832"
       sodipodi:nodetypes="csc" />
    <path
       style="fill:none;stroke:#000000;stroke-width:1px;stroke-linecap:butt;stroke-linejoin:miter;stroke-opacity:1"
       d="M 112.22458,624.13684 C 220.5204,557.7045 402.13805,559.16472 507.47164,565.07128"
       id="path2834"
       sodipodi:nodetypes="cc" />
    <path
       style="fill:none;stroke:#000000;stroke-width:1px;stroke-linecap:butt;stroke-linejoin:miter;stroke-opacity:1"
       d="m 118.13113,720.6106 c 58.80944,-48.25615 274.71976,-67.14303 413.95116,-49.71351"
       id="path2836"
       sodipodi:nodetypes="cc" />
    <path
       style="fill:none;stroke:#000000;stroke-width:1px;stroke-linecap:butt;stroke-linejoin:miter;stroke-opacity:1"
       d="m 209.68275,267.28239 c -32.71004,157.50817 -26.54622,348.48683 -7.38319,505.995"
       id="path2838"
       sodipodi:nodetypes="cc" />
    <path
       style="fill:none;stroke:#000000;stroke-width:1px;stroke-linecap:butt;stroke-linejoin:miter;stroke-opacity:1"
       d="M 288.43685,253.50042 C 259.60859,364.84489 263.02518,603.11744 279.577,761.9565"
       id="path2840"
       sodipodi:nodetypes="cc" />
    <path
       style="fill:none;stroke:#000000;stroke-width:1px;stroke-linecap:butt;stroke-linejoin:miter;stroke-opacity:1"
       d="M 371.12864,231.84305 C 329.56236,400.17991 339.9315,589.68193 362.76101,758.01879"
       id="path2842"
       sodipodi:nodetypes="cc" />
    <path
       style="fill:none;stroke:#000000;stroke-width:1px;stroke-linecap:butt;stroke-linejoin:miter;stroke-opacity:1"
       d="m 461.69583,202.31027 c -60.57746,186.17314 -35.10409,383.85182 -5.41435,556.20074"
       id="path2844"
       sodipodi:nodetypes="cc" />
    <path
       style="fill:none;stroke:#000000;stroke-width:1px;stroke-linecap:butt;stroke-linejoin:miter;stroke-opacity:1"
       d="m 472.7572,310.52721 c 13.62757,-2.72121 22.97323,-10.421 20.92482,-24.33934 l 0,0"
       id="path2846"
       sodipodi:nodetypes="ccc" />
    <path
       style="fill:none;stroke:#000000;stroke-width:1px;stroke-linecap:butt;stroke-linejoin:miter;stroke-opacity:1"
       d="m 479.90766,387.95197 c 5.93527,0.39256 11.206,-3.26911 11.67354,-9.30966"
       id="path2848"
       sodipodi:nodetypes="cc" />
    <path
       style="fill:#000000;stroke:none;stroke-width:1px;stroke-linecap:butt;stroke-linejoin:miter;stroke-opacity:1;fill-opacity:0.17261904000000000"
       d="M 91.251276,70.22566 C 22.08729,270.20935 97.966502,408.30695 107.86931,568.75724 94.14939,573.48733 74.07945,576.32183 53.662988,585.12542 35.157237,593.10511 20.100209,607.47205 19.298111,606.61801 16.828861,603.98885 0.03331708,441.66422 1.6601444,341.03143 2.6258063,281.29722 9.3102229,162.69598 23.573025,116.51351 26.992019,105.44293 76.726575,73.884719 91.251276,70.22566 z"
       id="path3731"
       transform="translate(107.78687,201.64744)"
       sodipodi:nodetypes="ccssssc" />
    <path
       style="fill:#000000;stroke:none;stroke-width:1px;stroke-linecap:butt;stroke-linejoin:miter;stroke-opacity:1;fill-opacity:0.17261904000000000"
       d="M 370.25305,1.2978041 365.12489,36.784661 C 377.65211,30.771517 388.65209,21.5699 390.97081,13.400258 390.6715,6.5347013 385.81024,1.6242671 370.25305,1.2978041 z"
       id="path3735"
       transform="translate(107.78687,201.64744)"
       sodipodi:nodetypes="cccc" />
    <path
       style="fill:#000000;stroke:none;stroke-width:1px;stroke-linecap:butt;stroke-linejoin:miter;stroke-opacity:1;fill-opacity:0.17261904"
       d="m 362.25312,60.169064 c 4.99545,71.783766 20.21959,209.667356 20.34638,210.598576 0.24946,1.83226 7.4653,35.50927 8.57644,51.96314 C 358.97876,241.90106 341.68155,154.97934 362.25312,60.169064 z"
       id="path3737"
       transform="translate(107.78687,201.64744)"
       sodipodi:nodetypes="cscc" />
  </g>
</svg>
