<?xml version="1.0" encoding="UTF-8" standalone="no"?>
<!-- Created with Inkscape (http://www.inkscape.org/) -->

<svg
   xmlns:dc="http://purl.org/dc/elements/1.1/"
   xmlns:cc="http://creativecommons.org/ns#"
   xmlns:rdf="http://www.w3.org/1999/02/22-rdf-syntax-ns#"
   xmlns:svg="http://www.w3.org/2000/svg"
   xmlns="http://www.w3.org/2000/svg"
   xmlns:xlink="http://www.w3.org/1999/xlink"
   xmlns:sodipodi="http://sodipodi.sourceforge.net/DTD/sodipodi-0.dtd"
   xmlns:inkscape="http://www.inkscape.org/namespaces/inkscape"
   width="128"
   height="128"
   id="svg2"
   sodipodi:version="0.32"
   inkscape:version="0.92.2 (5c3e80d, 2017-08-06)"
   sodipodi:docname="unicycle.svg"
   inkscape:output_extension="org.inkscape.output.svg.inkscape"
   version="1.0">
  <title
     id="title971">Unicycle</title>
  <defs
     id="defs4">
    <linearGradient
       id="linearGradient3271">
      <stop
         style="stop-color:#8d8d8d;stop-opacity:1;"
         offset="0"
         id="stop3273" />
      <stop
         style="stop-color:#3d3d3d;stop-opacity:1;"
         offset="1"
         id="stop3275" />
    </linearGradient>
    <inkscape:perspective
       sodipodi:type="inkscape:persp3d"
       inkscape:vp_x="0 : 526.18109 : 1"
       inkscape:vp_y="0 : 1000 : 0"
       inkscape:vp_z="744.09448 : 526.18109 : 1"
       inkscape:persp3d-origin="372.04724 : 350.78739 : 1"
       id="perspective10" />
    <inkscape:perspective
       id="perspective2447"
       inkscape:persp3d-origin="372.04724 : 350.78739 : 1"
       inkscape:vp_z="744.09448 : 526.18109 : 1"
       inkscape:vp_y="0 : 1000 : 0"
       inkscape:vp_x="0 : 526.18109 : 1"
       sodipodi:type="inkscape:persp3d" />
    <radialGradient
       inkscape:collect="always"
       xlink:href="#linearGradient3271"
       id="radialGradient3246"
       cx="340.32764"
       cy="333.28244"
       fx="340.32764"
       fy="333.28244"
       r="2.7779193"
       gradientTransform="translate(0,1.9567888e-6)"
       gradientUnits="userSpaceOnUse" />
    <radialGradient
       inkscape:collect="always"
       xlink:href="#linearGradient3271"
       id="radialGradient969"
       gradientUnits="userSpaceOnUse"
       gradientTransform="translate(0,1.9567885e-6)"
       cx="340.32764"
       cy="333.28244"
       fx="340.32764"
       fy="333.28244"
       r="2.7779193" />
  </defs>
  <sodipodi:namedview
     id="base"
     pagecolor="#ffffff"
     bordercolor="#666666"
     borderopacity="1.0"
     gridtolerance="10000"
     guidetolerance="10"
     objecttolerance="10"
     inkscape:pageopacity="0.0"
     inkscape:pageshadow="2"
     inkscape:zoom="2.8"
     inkscape:cx="134.10063"
     inkscape:cy="100.43308"
     inkscape:document-units="px"
     inkscape:current-layer="layer1"
     showgrid="false"
     inkscape:window-width="1920"
     inkscape:window-height="1025"
     inkscape:window-x="-8"
     inkscape:window-y="-8"
     inkscape:window-maximized="1"
     fit-margin-top="0"
     fit-margin-left="0"
     fit-margin-right="0"
     fit-margin-bottom="0" />
  <metadata
     id="metadata7">
    <rdf:RDF>
      <cc:Work
         rdf:about="">
        <dc:format>image/svg+xml</dc:format>
        <dc:type
           rdf:resource="http://purl.org/dc/dcmitype/StillImage" />
        <dc:title>Unicycle</dc:title>
        <cc:license
           rdf:resource="https://creativecommons.org/licenses/by-sa/3.0/" />
        <dc:source>https://commons.wikimedia.org/wiki/File:Unicycle.svg</dc:source>
        <dc:creator>
          <cc:Agent>
            <dc:title>Andrew Dressel / Underpants</dc:title>
          </cc:Agent>
        </dc:creator>
      </cc:Work>
    </rdf:RDF>
  </metadata>
  <g
     inkscape:label="Layer 1"
     inkscape:groupmode="layer"
     id="layer1"
     transform="translate(-328.49563,-479.36208)">
    <text
       xml:space="preserve"
       style="font-style:normal;font-variant:normal;font-weight:normal;font-stretch:normal;font-size:4.76794338px;line-height:0%;font-family:Arial;text-align:start;writing-mode:lr-tb;text-anchor:start;fill:#000000;fill-opacity:1;stroke:none;stroke-width:0.39732862px;stroke-linecap:butt;stroke-linejoin:miter;stroke-opacity:1"
       x="392.48062"
       y="625.71124"
       id="text3259"><tspan
         sodipodi:role="line"
         id="tspan3261"
         x="392.48062"
         y="625.71124"
         style="font-size:7.68482065px;line-height:1.25;text-align:center;text-anchor:middle;stroke-width:0.39732862px">hand-traced from</tspan><tspan
         sodipodi:role="line"
         x="392.48062"
         y="635.31726"
         id="tspan3625"
         style="font-size:7.68482065px;line-height:1.25;text-align:center;text-anchor:middle;stroke-width:0.39732862px">http://commons.wikimedia.org/wiki/File:Torker_Unicycle.JPG</tspan></text>
    <g
       id="g967"
       transform="matrix(0.16948837,0,0,0.16948837,330.17423,451.26853)">
      <g
         style="stroke:#000000;stroke-opacity:1"
         id="g3498">
        <path
           style="fill:none;fill-rule:evenodd;stroke:#000000;stroke-width:1.5;stroke-linecap:butt;stroke-linejoin:miter;stroke-miterlimit:4;stroke-dasharray:none;stroke-opacity:1"
           d="m 431.78572,509.68361 -61.25,121.25"
           id="path3300"
           inkscape:connector-curvature="0" />
        <path
           style="display:inline;overflow:visible;visibility:visible;fill:none;fill-opacity:1;fill-rule:evenodd;stroke:#000000;stroke-width:1.5;stroke-linecap:butt;stroke-linejoin:miter;stroke-miterlimit:4;stroke-dasharray:none;stroke-dashoffset:0;stroke-opacity:1;marker:none;marker-start:none;marker-mid:none;marker-end:none;enable-background:accumulate"
           d="M 454.10714,519.68361 370.71429,637.00504"
           id="path3302"
           inkscape:connector-curvature="0" />
        <path
           style="fill:none;fill-rule:evenodd;stroke:#000000;stroke-width:1.5;stroke-linecap:butt;stroke-linejoin:miter;stroke-miterlimit:4;stroke-dasharray:none;stroke-opacity:1"
           d="M 408.03572,505.93361 386.60714,672.00504"
           id="path3304"
           inkscape:connector-curvature="0" />
        <path
           style="display:inline;overflow:visible;visibility:visible;fill:none;fill-opacity:1;fill-rule:evenodd;stroke:#000000;stroke-width:1.5;stroke-linecap:butt;stroke-linejoin:miter;stroke-miterlimit:4;stroke-dasharray:none;stroke-dashoffset:0;stroke-opacity:1;marker:none;marker-start:none;marker-mid:none;marker-end:none;enable-background:accumulate"
           d="m 385.89286,502.18361 -0.71429,173.57143"
           id="path3306"
           inkscape:connector-curvature="0" />
        <path
           style="display:inline;overflow:visible;visibility:visible;fill:none;fill-opacity:1;fill-rule:evenodd;stroke:#000000;stroke-width:1.5;stroke-linecap:butt;stroke-linejoin:miter;stroke-miterlimit:4;stroke-dasharray:none;stroke-dashoffset:0;stroke-opacity:1;marker:none;marker-start:none;marker-mid:none;marker-end:none;enable-background:accumulate"
           d="M 473.39286,533.79076 387.5,684.32647"
           id="path3308"
           sodipodi:nodetypes="cc"
           inkscape:connector-curvature="0" />
        <path
           style="display:inline;overflow:visible;visibility:visible;fill:none;fill-opacity:1;fill-rule:evenodd;stroke:#000000;stroke-width:1.5;stroke-linecap:butt;stroke-linejoin:miter;stroke-miterlimit:4;stroke-dasharray:none;stroke-dashoffset:0;stroke-opacity:1;marker:none;marker-start:none;marker-mid:none;marker-end:none;enable-background:accumulate"
           d="M 491.78572,547.71932 384.10714,688.61218"
           id="path3310"
           inkscape:connector-curvature="0" />
        <path
           style="display:inline;overflow:visible;visibility:visible;fill:none;fill-opacity:1;fill-rule:evenodd;stroke:#000000;stroke-width:1.5;stroke-linecap:butt;stroke-linejoin:miter;stroke-miterlimit:4;stroke-dasharray:none;stroke-dashoffset:0;stroke-opacity:1;marker:none;marker-start:none;marker-mid:none;marker-end:none;enable-background:accumulate"
           d="M 508.57143,564.68361 362.14286,663.25504"
           id="path3312"
           inkscape:connector-curvature="0" />
        <path
           style="display:inline;overflow:visible;visibility:visible;fill:none;fill-opacity:1;fill-rule:evenodd;stroke:#000000;stroke-width:1.5;stroke-linecap:butt;stroke-linejoin:miter;stroke-miterlimit:4;stroke-dasharray:none;stroke-dashoffset:0;stroke-opacity:1;marker:none;marker-start:none;marker-mid:none;marker-end:none;enable-background:accumulate"
           d="M 523.21429,584.50504 361.60714,659.1479"
           id="path3314"
           inkscape:connector-curvature="0" />
        <path
           style="display:inline;overflow:visible;visibility:visible;fill:none;fill-opacity:1;fill-rule:evenodd;stroke:#000000;stroke-width:1.5;stroke-linecap:butt;stroke-linejoin:miter;stroke-miterlimit:4;stroke-dasharray:none;stroke-dashoffset:0;stroke-opacity:1;marker:none;marker-start:none;marker-mid:none;marker-end:none;enable-background:accumulate"
           d="M 536.78572,604.32647 378.75,696.6479"
           id="path3316"
           inkscape:connector-curvature="0" />
        <path
           style="display:inline;overflow:visible;visibility:visible;fill:none;fill-opacity:1;fill-rule:evenodd;stroke:#000000;stroke-width:1.5;stroke-linecap:butt;stroke-linejoin:miter;stroke-miterlimit:4;stroke-dasharray:none;stroke-dashoffset:0;stroke-opacity:1;marker:none;marker-start:none;marker-mid:none;marker-end:none;enable-background:accumulate"
           d="M 545.53572,627.36218 372.14286,699.32647"
           id="path3318"
           inkscape:connector-curvature="0" />
        <path
           style="display:inline;overflow:visible;visibility:visible;fill:none;fill-opacity:1;fill-rule:evenodd;stroke:#000000;stroke-width:1.5;stroke-linecap:butt;stroke-linejoin:miter;stroke-miterlimit:4;stroke-dasharray:none;stroke-dashoffset:0;stroke-opacity:1;marker:none;marker-start:none;marker-mid:none;marker-end:none;enable-background:accumulate"
           d="M 553.39286,652.71932 369.82143,662.8979"
           id="path3320"
           inkscape:connector-curvature="0" />
        <path
           style="display:inline;overflow:visible;visibility:visible;fill:none;fill-opacity:1;fill-rule:evenodd;stroke:#000000;stroke-width:1.5;stroke-linecap:butt;stroke-linejoin:miter;stroke-miterlimit:4;stroke-dasharray:none;stroke-dashoffset:0;stroke-opacity:1;marker:none;marker-start:none;marker-mid:none;marker-end:none;enable-background:accumulate"
           d="M 556.60714,677.36218 372.32143,660.21932"
           id="path3322"
           inkscape:connector-curvature="0" />
        <path
           style="display:inline;overflow:visible;visibility:visible;fill:none;fill-opacity:1;fill-rule:evenodd;stroke:#000000;stroke-width:1.5;stroke-linecap:butt;stroke-linejoin:miter;stroke-miterlimit:4;stroke-dasharray:none;stroke-dashoffset:0;stroke-opacity:1;marker:none;marker-start:none;marker-mid:none;marker-end:none;enable-background:accumulate"
           d="m 557.5,701.46932 -195.17857,0.35715"
           id="path3324"
           inkscape:connector-curvature="0" />
        <path
           style="display:inline;overflow:visible;visibility:visible;fill:none;fill-opacity:1;fill-rule:evenodd;stroke:#000000;stroke-width:1.5;stroke-linecap:butt;stroke-linejoin:miter;stroke-miterlimit:4;stroke-dasharray:none;stroke-dashoffset:0;stroke-opacity:1;marker:none;marker-start:none;marker-mid:none;marker-end:none;enable-background:accumulate"
           d="m 546.60714,753.25504 -170,-86.60714"
           id="path3326"
           inkscape:connector-curvature="0" />
        <path
           style="display:inline;overflow:visible;visibility:visible;fill:none;fill-opacity:1;fill-rule:evenodd;stroke:#000000;stroke-width:1.5;stroke-linecap:butt;stroke-linejoin:miter;stroke-miterlimit:4;stroke-dasharray:none;stroke-dashoffset:0;stroke-opacity:1;marker:none;marker-start:none;marker-mid:none;marker-end:none;enable-background:accumulate"
           d="M 553.57143,726.6479 358.39286,698.79075"
           id="path3328"
           sodipodi:nodetypes="cc"
           inkscape:connector-curvature="0" />
        <path
           style="display:inline;overflow:visible;visibility:visible;fill:none;fill-opacity:1;fill-rule:evenodd;stroke:#000000;stroke-width:1.5;stroke-linecap:butt;stroke-linejoin:miter;stroke-miterlimit:4;stroke-dasharray:none;stroke-dashoffset:0;stroke-opacity:1;marker:none;marker-start:none;marker-mid:none;marker-end:none;enable-background:accumulate"
           d="M 536.96429,776.46932 380,665.57647"
           id="path3330"
           inkscape:connector-curvature="0" />
        <path
           style="display:inline;overflow:visible;visibility:visible;fill:none;fill-opacity:1;fill-rule:evenodd;stroke:#000000;stroke-width:1.5;stroke-linecap:butt;stroke-linejoin:miter;stroke-miterlimit:4;stroke-dasharray:none;stroke-dashoffset:0;stroke-opacity:1;marker:none;marker-start:none;marker-mid:none;marker-end:none;enable-background:accumulate"
           d="M 523.00648,798.05628 359.86684,701.08163"
           id="path3332"
           sodipodi:nodetypes="cc"
           inkscape:connector-curvature="0" />
        <path
           style="display:inline;overflow:visible;visibility:visible;fill:none;fill-opacity:1;fill-rule:evenodd;stroke:#000000;stroke-width:1.5;stroke-linecap:butt;stroke-linejoin:miter;stroke-miterlimit:4;stroke-dasharray:none;stroke-dashoffset:0;stroke-opacity:1;marker:none;marker-start:none;marker-mid:none;marker-end:none;enable-background:accumulate"
           d="M 506.5915,816.99664 351.53309,694.51564"
           id="path3334"
           inkscape:connector-curvature="0" />
        <path
           style="display:inline;overflow:visible;visibility:visible;fill:none;fill-opacity:1;fill-rule:evenodd;stroke:#000000;stroke-width:1.5;stroke-linecap:butt;stroke-linejoin:miter;stroke-miterlimit:4;stroke-dasharray:none;stroke-dashoffset:0;stroke-opacity:1;marker:none;marker-start:none;marker-mid:none;marker-end:none;enable-background:accumulate"
           d="M 487.65114,837.70477 383.35289,672.29229"
           id="path3336"
           inkscape:connector-curvature="0" />
        <path
           style="display:inline;overflow:visible;visibility:visible;fill:none;fill-opacity:1;fill-rule:evenodd;stroke:#000000;stroke-width:1.5;stroke-linecap:butt;stroke-linejoin:miter;stroke-miterlimit:4;stroke-dasharray:none;stroke-dashoffset:0;stroke-opacity:1;marker:none;marker-start:none;marker-mid:none;marker-end:none;enable-background:accumulate"
           d="M 467.19555,851.08929 381.58512,664.71614"
           id="path3338"
           inkscape:connector-curvature="0" />
        <path
           style="display:inline;overflow:visible;visibility:visible;fill:none;fill-opacity:1;fill-rule:evenodd;stroke:#000000;stroke-width:1.5;stroke-linecap:butt;stroke-linejoin:miter;stroke-miterlimit:4;stroke-dasharray:none;stroke-dashoffset:0;stroke-opacity:1;marker:none;marker-start:none;marker-mid:none;marker-end:none;enable-background:accumulate"
           d="M 444.9722,862.95858 354.05847,699.31387"
           id="path3340"
           inkscape:connector-curvature="0" />
        <path
           style="display:inline;overflow:visible;visibility:visible;fill:none;fill-opacity:1;fill-rule:evenodd;stroke:#000000;stroke-width:1.5;stroke-linecap:butt;stroke-linejoin:miter;stroke-miterlimit:4;stroke-dasharray:none;stroke-dashoffset:0;stroke-opacity:1;marker:none;marker-start:none;marker-mid:none;marker-end:none;enable-background:accumulate"
           d="M 421.48615,872.55503 347.99755,691.23265"
           id="path3342"
           inkscape:connector-curvature="0" />
        <path
           style="display:inline;overflow:visible;visibility:visible;fill:none;fill-opacity:1;fill-rule:evenodd;stroke:#000000;stroke-width:1.5;stroke-linecap:butt;stroke-linejoin:miter;stroke-miterlimit:4;stroke-dasharray:none;stroke-dashoffset:0;stroke-opacity:1;marker:none;marker-start:none;marker-mid:none;marker-end:none;enable-background:accumulate"
           d="M 393.70695,876.3431 385.62573,680.37351"
           id="path3344"
           inkscape:connector-curvature="0" />
        <path
           style="display:inline;overflow:visible;visibility:visible;fill:none;fill-opacity:1;fill-rule:evenodd;stroke:#000000;stroke-width:1.5;stroke-linecap:butt;stroke-linejoin:miter;stroke-miterlimit:4;stroke-dasharray:none;stroke-dashoffset:0;stroke-opacity:1;marker:none;marker-start:none;marker-mid:none;marker-end:none;enable-background:accumulate"
           d="M 368.2006,879.6261 384.61558,685.17173"
           id="path3346"
           inkscape:connector-curvature="0" />
        <path
           style="display:inline;overflow:visible;visibility:visible;fill:none;fill-opacity:1;fill-rule:evenodd;stroke:#000000;stroke-width:1.5;stroke-linecap:butt;stroke-linejoin:miter;stroke-miterlimit:4;stroke-dasharray:none;stroke-dashoffset:0;stroke-opacity:1;marker:none;marker-start:none;marker-mid:none;marker-end:none;enable-background:accumulate"
           d="m 343.19933,876.84818 3.28299,-188.14091"
           id="path3348"
           inkscape:connector-curvature="0" />
        <path
           style="display:inline;overflow:visible;visibility:visible;fill:none;fill-opacity:1;fill-rule:evenodd;stroke:#000000;stroke-width:1.5;stroke-linecap:butt;stroke-linejoin:miter;stroke-miterlimit:4;stroke-dasharray:none;stroke-dashoffset:0;stroke-opacity:1;marker:none;marker-start:none;marker-mid:none;marker-end:none;enable-background:accumulate"
           d="M 317.94551,871.79741 345.47217,678.85828"
           id="path3350"
           inkscape:connector-curvature="0" />
        <path
           style="display:inline;overflow:visible;visibility:visible;fill:none;fill-opacity:1;fill-rule:evenodd;stroke:#000000;stroke-width:1.5;stroke-linecap:butt;stroke-linejoin:miter;stroke-miterlimit:4;stroke-dasharray:none;stroke-dashoffset:0;stroke-opacity:1;marker:none;marker-start:none;marker-mid:none;marker-end:none;enable-background:accumulate"
           d="M 293.44932,863.46365 382.0902,694.2631"
           id="path3352"
           sodipodi:nodetypes="cc"
           inkscape:connector-curvature="0" />
        <path
           style="fill:none;fill-rule:evenodd;stroke:#000000;stroke-width:1.5;stroke-linecap:butt;stroke-linejoin:miter;stroke-miterlimit:4;stroke-dasharray:none;stroke-opacity:1"
           d="m 413.22028,633.6381 -61.25,121.25"
           id="path3354"
           inkscape:connector-curvature="0" />
        <path
           style="display:inline;overflow:visible;visibility:visible;fill:none;fill-opacity:1;fill-rule:evenodd;stroke:#000000;stroke-width:1.5;stroke-linecap:butt;stroke-linejoin:miter;stroke-miterlimit:4;stroke-dasharray:none;stroke-dashoffset:0;stroke-opacity:1;marker:none;marker-start:none;marker-mid:none;marker-end:none;enable-background:accumulate"
           d="M 270.46834,852.35198 380.82751,693.50549"
           id="path3356"
           inkscape:connector-curvature="0" />
        <path
           style="display:inline;overflow:visible;visibility:visible;fill:none;fill-opacity:1;fill-rule:evenodd;stroke:#000000;stroke-width:1.5;stroke-linecap:butt;stroke-linejoin:miter;stroke-miterlimit:4;stroke-dasharray:none;stroke-dashoffset:0;stroke-opacity:1;marker:none;marker-start:none;marker-mid:none;marker-end:none;enable-background:accumulate"
           d="M 250.51783,836.69461 349.26024,674.06005"
           id="path3358"
           inkscape:connector-curvature="0" />
        <path
           style="display:inline;overflow:visible;visibility:visible;fill:none;fill-opacity:1;fill-rule:evenodd;stroke:#000000;stroke-width:1.5;stroke-linecap:butt;stroke-linejoin:miter;stroke-miterlimit:4;stroke-dasharray:none;stroke-dashoffset:0;stroke-opacity:1;marker:none;marker-start:none;marker-mid:none;marker-end:none;enable-background:accumulate"
           d="M 231.57747,822.0474 349.26024,668.50421"
           id="path3360"
           inkscape:connector-curvature="0" />
        <path
           style="display:inline;overflow:visible;visibility:visible;fill:none;fill-opacity:1;fill-rule:evenodd;stroke:#000000;stroke-width:1.5;stroke-linecap:butt;stroke-linejoin:miter;stroke-miterlimit:4;stroke-dasharray:none;stroke-dashoffset:0;stroke-opacity:1;marker:none;marker-start:none;marker-mid:none;marker-end:none;enable-background:accumulate"
           d="M 213.8998,802.34943 380.57497,695.02072"
           id="path3362"
           inkscape:connector-curvature="0" />
        <path
           style="display:inline;overflow:visible;visibility:visible;fill:none;fill-opacity:1;fill-rule:evenodd;stroke:#000000;stroke-width:1.5;stroke-linecap:butt;stroke-linejoin:miter;stroke-miterlimit:4;stroke-dasharray:none;stroke-dashoffset:0;stroke-opacity:1;marker:none;marker-start:none;marker-mid:none;marker-end:none;enable-background:accumulate"
           d="M 200.51528,781.38876 361.38207,704.11209"
           id="path3366"
           inkscape:connector-curvature="0" />
        <path
           style="display:inline;overflow:visible;visibility:visible;fill:none;fill-opacity:1;fill-rule:evenodd;stroke:#000000;stroke-width:1.5;stroke-linecap:butt;stroke-linejoin:miter;stroke-miterlimit:4;stroke-dasharray:none;stroke-dashoffset:0;stroke-opacity:1;marker:none;marker-start:none;marker-mid:none;marker-end:none;enable-background:accumulate"
           d="m 191.92898,757.65018 165.15995,-92.6815"
           id="path3368"
           inkscape:connector-curvature="0" />
        <path
           style="display:inline;overflow:visible;visibility:visible;fill:none;fill-opacity:1;fill-rule:evenodd;stroke:#000000;stroke-width:1.5;stroke-linecap:butt;stroke-linejoin:miter;stroke-miterlimit:4;stroke-dasharray:none;stroke-dashoffset:0;stroke-opacity:1;marker:none;marker-start:none;marker-mid:none;marker-end:none;enable-background:accumulate"
           d="M 181.06984,735.67936 357.34146,660.92807"
           id="path3370"
           inkscape:connector-curvature="0" />
        <path
           style="display:inline;overflow:visible;visibility:visible;fill:none;fill-opacity:1;fill-rule:evenodd;stroke:#000000;stroke-width:1.5;stroke-linecap:butt;stroke-linejoin:miter;stroke-miterlimit:4;stroke-dasharray:none;stroke-dashoffset:0;stroke-opacity:1;marker:none;marker-start:none;marker-mid:none;marker-end:none;enable-background:accumulate"
           d="M 178.03939,709.92047 360.877,701.83925"
           id="path3372"
           inkscape:connector-curvature="0" />
        <path
           style="display:inline;overflow:visible;visibility:visible;fill:none;fill-opacity:1;fill-rule:evenodd;stroke:#000000;stroke-width:1.5;stroke-linecap:butt;stroke-linejoin:miter;stroke-miterlimit:4;stroke-dasharray:none;stroke-dashoffset:0;stroke-opacity:1;marker:none;marker-start:none;marker-mid:none;marker-end:none;enable-background:accumulate"
           d="m 177.28177,684.16158 186.87822,15.65736"
           id="path3374"
           inkscape:connector-curvature="0" />
        <path
           style="display:inline;overflow:visible;visibility:visible;fill:none;fill-opacity:1;fill-rule:evenodd;stroke:#000000;stroke-width:1.5;stroke-linecap:butt;stroke-linejoin:miter;stroke-miterlimit:4;stroke-dasharray:none;stroke-dashoffset:0;stroke-opacity:1;marker:none;marker-start:none;marker-mid:none;marker-end:none;enable-background:accumulate"
           d="m 179.55462,659.91792 179.55461,3.03046"
           id="path3376"
           inkscape:connector-curvature="0" />
        <path
           style="display:inline;overflow:visible;visibility:visible;fill:none;fill-opacity:1;fill-rule:evenodd;stroke:#000000;stroke-width:1.5;stroke-linecap:butt;stroke-linejoin:miter;stroke-miterlimit:4;stroke-dasharray:none;stroke-dashoffset:0;stroke-opacity:1;marker:none;marker-start:none;marker-mid:none;marker-end:none;enable-background:accumulate"
           d="m 186.62568,636.17933 171.4734,21.97082"
           id="path3378"
           inkscape:connector-curvature="0" />
        <path
           style="display:inline;overflow:visible;visibility:visible;fill:none;fill-opacity:1;fill-rule:evenodd;stroke:#000000;stroke-width:1.5;stroke-linecap:butt;stroke-linejoin:miter;stroke-miterlimit:4;stroke-dasharray:none;stroke-dashoffset:0;stroke-opacity:1;marker:none;marker-start:none;marker-mid:none;marker-end:none;enable-background:accumulate"
           d="M 194.45437,613.70344 352.2907,697.29356"
           id="path3380"
           inkscape:connector-curvature="0" />
        <path
           style="display:inline;overflow:visible;visibility:visible;fill:none;fill-opacity:1;fill-rule:evenodd;stroke:#000000;stroke-width:1.5;stroke-linecap:butt;stroke-linejoin:miter;stroke-miterlimit:4;stroke-dasharray:none;stroke-dashoffset:0;stroke-opacity:1;marker:none;marker-start:none;marker-mid:none;marker-end:none;enable-background:accumulate"
           d="m 339.41126,500.56635 7.82868,177.53431"
           id="path3382"
           inkscape:connector-curvature="0" />
        <path
           style="display:inline;overflow:visible;visibility:visible;fill:none;fill-opacity:1;fill-rule:evenodd;stroke:#000000;stroke-width:1.5;stroke-linecap:butt;stroke-linejoin:miter;stroke-miterlimit:4;stroke-dasharray:none;stroke-dashoffset:0;stroke-opacity:1;marker:none;marker-start:none;marker-mid:none;marker-end:none;enable-background:accumulate"
           d="m 314.66252,507.63742 47.72971,110.35917"
           id="path3384"
           inkscape:connector-curvature="0" />
        <path
           style="display:inline;overflow:visible;visibility:visible;fill:none;fill-opacity:1;fill-rule:evenodd;stroke:#000000;stroke-width:1.5;stroke-linecap:butt;stroke-linejoin:miter;stroke-miterlimit:4;stroke-dasharray:none;stroke-dashoffset:0;stroke-opacity:1;marker:none;marker-start:none;marker-mid:none;marker-end:none;enable-background:accumulate"
           d="m 293.95439,514.20341 62.12438,110.61171"
           id="path3386"
           inkscape:connector-curvature="0" />
        <path
           style="display:inline;overflow:visible;visibility:visible;fill:none;fill-opacity:1;fill-rule:evenodd;stroke:#000000;stroke-width:1.5;stroke-linecap:butt;stroke-linejoin:miter;stroke-miterlimit:4;stroke-dasharray:none;stroke-dashoffset:0;stroke-opacity:1;marker:none;marker-start:none;marker-mid:none;marker-end:none;enable-background:accumulate"
           d="m 272.74119,525.56763 71.97337,161.11933"
           id="path3388"
           inkscape:connector-curvature="0" />
        <path
           style="display:inline;overflow:visible;visibility:visible;fill:none;fill-opacity:1;fill-rule:evenodd;stroke:#000000;stroke-width:1.5;stroke-linecap:butt;stroke-linejoin:miter;stroke-miterlimit:4;stroke-dasharray:none;stroke-dashoffset:0;stroke-opacity:1;marker:none;marker-start:none;marker-mid:none;marker-end:none;enable-background:accumulate"
           d="m 252.53814,537.942 97.47972,155.05841"
           id="path3390"
           inkscape:connector-curvature="0" />
        <path
           style="display:inline;overflow:visible;visibility:visible;fill:none;fill-opacity:1;fill-rule:evenodd;stroke:#000000;stroke-width:1.5;stroke-linecap:butt;stroke-linejoin:miter;stroke-miterlimit:4;stroke-dasharray:none;stroke-dashoffset:0;stroke-opacity:1;marker:none;marker-start:none;marker-mid:none;marker-end:none;enable-background:accumulate"
           d="m 234.10285,553.34682 128.28938,99.50003"
           id="path3392"
           inkscape:connector-curvature="0" />
        <path
           style="display:inline;overflow:visible;visibility:visible;fill:none;fill-opacity:1;fill-rule:evenodd;stroke:#000000;stroke-width:1.5;stroke-linecap:butt;stroke-linejoin:miter;stroke-miterlimit:4;stroke-dasharray:none;stroke-dashoffset:0;stroke-opacity:1;marker:none;marker-start:none;marker-mid:none;marker-end:none;enable-background:accumulate"
           d="m 217.18279,571.02449 153.79573,92.42896"
           id="path3394"
           sodipodi:nodetypes="cc"
           inkscape:connector-curvature="0" />
        <path
           style="display:inline;overflow:visible;visibility:visible;fill:none;fill-opacity:1;fill-rule:evenodd;stroke:#000000;stroke-width:1.5;stroke-linecap:butt;stroke-linejoin:miter;stroke-miterlimit:4;stroke-dasharray:none;stroke-dashoffset:0;stroke-opacity:1;marker:none;marker-start:none;marker-mid:none;marker-end:none;enable-background:accumulate"
           d="M 342.44171,689.21234 190.16122,581.37856"
           id="path3396"
           inkscape:connector-curvature="0" />
      </g>
      <path
         id="path3296"
         d="m 262.67857,205.93361 c 0,0 0.71429,16.78571 10,24.10714 9.28572,7.32143 16.96429,16.25 31.42857,18.03572 14.46429,1.78571 50.71429,-1.25 58.03572,-2.5 7.32143,-1.25 26.42857,-5.53572 37.32143,-5.35715 10.89285,0.17858 30.35714,-2.67857 39.46428,-5.89285 9.10715,-3.21429 33.39286,-15.17857 33.39286,-15.17857 l 7.32143,-13.03572 -12.32143,-22.14286 -45.53571,6.78572 -62.5,15.35714 -77.50001,-24.10714 -17.67857,15.35714 z"
         style="fill:#252525;fill-opacity:1;fill-rule:evenodd;stroke:none;stroke-width:1px;stroke-linecap:butt;stroke-linejoin:miter;stroke-opacity:1"
         inkscape:connector-curvature="0" />
      <path
         sodipodi:nodetypes="csssssssssssssssssssssc"
         id="path3294"
         d="m 265.71429,218.79075 c 0,0 -3.03572,-10.35714 0.17857,-15.17857 3.21428,-4.82143 6.07143,-6.96428 16.07143,-6.60714 10,0.35714 22.5,4.10714 36.07142,7.5 13.57143,3.39286 27.32143,14.46428 38.21429,16.07143 10.89286,1.60714 28.92857,1.78571 41.25,-2.32143 12.32143,-4.10714 28.57143,-10.35714 38.75,-13.75 10.17857,-3.39286 21.25,-8.39286 26.96429,-7.5 5.71428,0.89286 8.16718,4.26037 9.64285,6.60714 1.69924,2.70231 0.49763,9.09706 -2.85714,11.42857 -3.5002,2.43258 -21.63297,15.28101 -22.55076,16.60189 -1.55874,2.24333 30.30611,-3.92545 34.51505,-13.74474 2.20953,-5.15474 2.0343,-16.33144 1.78571,-19.64286 -0.8162,-10.87265 -16.05264,-30.66871 -29.64286,-31.96429 -10.14101,-0.96675 -21.00382,4.73266 -25.53571,7.5 -4.57466,2.79346 -21.07143,12.5 -32.14286,14.64286 -11.07143,2.14286 -29.64285,4.10714 -37.5,1.60714 -7.85714,-2.5 -25.71428,-6.78571 -33.92857,-12.32143 -8.21429,-5.53571 -20,-11.96428 -28.75,-11.96428 -8.75,0 -16.96429,1.07143 -23.39286,7.85714 -6.42857,6.78572 -11.60714,16.25 -12.14285,24.10714 -0.53572,7.85715 3.39285,19.28572 5.17857,22.14286 1.78571,2.85714 -0.35715,-1.07143 -0.17857,-1.07143 z"
         style="fill:#a3a3a3;fill-opacity:1;fill-rule:evenodd;stroke:none;stroke-width:1px;stroke-linecap:butt;stroke-linejoin:miter;stroke-opacity:1"
         inkscape:connector-curvature="0" />
      <path
         sodipodi:nodetypes="ccsccc"
         id="path3292"
         d="m 345.71429,333.43361 -1.42858,-103.03572 c 2.85004,-1.67635 5.81392,-3.15292 8.57144,-2.67856 4.71713,0.81144 6.56929,0.64932 8.39285,2.67857 l 2.32143,108.03571 z"
         style="display:inline;overflow:visible;visibility:visible;opacity:1;fill:#8b8b8b;fill-opacity:1;fill-rule:evenodd;stroke:none;stroke-width:1px;stroke-linecap:butt;stroke-linejoin:miter;stroke-miterlimit:4;stroke-dasharray:none;stroke-dashoffset:0;stroke-opacity:1;marker:none;marker-start:none;marker-mid:none;marker-end:none;enable-background:accumulate"
         inkscape:connector-curvature="0" />
      <path
         sodipodi:nodetypes="ccccc"
         id="path3263"
         d="m 346.78571,425.93361 20.35715,-0.35714 -1.33929,-87.5 -19.91072,-0.53572 z"
         style="fill:#8b8b8b;fill-opacity:1;fill-rule:evenodd;stroke:none;stroke-width:1px;stroke-linecap:butt;stroke-linejoin:miter;stroke-opacity:1"
         inkscape:connector-curvature="0" />
      <path
         sodipodi:nodetypes="csssszsccssss"
         id="path3298"
         d="m 464.46429,175.3979 c -3.46293,0.20433 -8.76242,1.59848 -10.53572,5 -1.6715,3.20625 -2.67857,8.92857 -1.42857,10.71428 1.25,1.78572 1.78572,4.82143 9.28572,3.21429 7.5,-1.60715 14.96154,-6.35033 20.71428,-3.57143 5.71429,2.76032 11.97968,6.69918 9.9516,11.51913 -2.02808,4.81995 -0.36176,3.18713 -4.1288,6.36222 -2.10828,1.77698 -2.98186,0.2857 -4.98911,1.52303 -0.0423,1.94816 -3.35417,9.98384 -3.75583,9.93363 0,0 14.35071,-1.3023 16.85071,-6.12373 2.5,-4.82142 5.89286,-15.89285 3.03572,-21.96428 -2.85715,-6.07143 -8.03572,-10.71429 -15.89286,-13.57143 -7.85714,-2.85714 -13.31319,-3.37758 -19.10714,-3.03571 z"
         style="fill:#916000;fill-opacity:1;fill-rule:evenodd;stroke:none;stroke-width:1px;stroke-linecap:butt;stroke-linejoin:miter;stroke-opacity:1"
         inkscape:connector-curvature="0" />
      <path
         sodipodi:nodetypes="cccsssccccc"
         id="path3563"
         d="m 195.46452,766.48901 12.34504,-6.75988 -0.72829,-1.32134 5.55584,-2.77792 c 0.31604,-0.0937 1.33876,-0.64808 2.14658,-0.50507 1.53794,0.27226 3.17209,1.75326 3.28299,3.53553 0.13405,2.15436 -1.22616,3.57206 -1.26269,3.53553 l -5.91166,3.01514 -0.7946,-1.13642 -12.36037,7.97027 z"
         style="fill:#000000;fill-opacity:1;fill-rule:evenodd;stroke:none;stroke-width:1px;stroke-linecap:butt;stroke-linejoin:miter;stroke-opacity:1"
         inkscape:connector-curvature="0" />
      <g
         id="g3555">
        <path
           style="display:inline;overflow:visible;visibility:visible;opacity:1;fill:#353535;fill-opacity:1;fill-rule:nonzero;stroke:none;stroke-width:2.57599998;stroke-linecap:butt;stroke-linejoin:miter;stroke-miterlimit:4;stroke-dasharray:none;stroke-dashoffset:0;stroke-opacity:1;marker:none;marker-start:none;marker-mid:none;marker-end:none;enable-background:accumulate"
           d="M 368.09375,458.3125 C 240.40258,458.08744 136.60005,561.52757 136.375,689.21875 c -0.22506,127.69117 103.21507,231.52495 230.90625,231.75 127.69117,0.22506 231.52492,-103.24632 231.75,-230.9375 C 599.2562,562.34014 495.78486,458.53755 368.09375,458.3125 Z m -0.0625,45.46875 c 102.59895,0.18085 185.712,83.58854 185.53125,186.1875 C 553.38168,792.56779 469.97402,875.68083 367.375,875.5 264.77599,875.31915 181.63167,791.91152 181.8125,689.3125 181.99333,586.71346 265.43223,503.60042 368.03125,503.78125 Z"
           id="path2453"
           inkscape:connector-curvature="0" />
        <path
           style="display:inline;overflow:visible;visibility:visible;fill:#dadada;fill-opacity:1;fill-rule:nonzero;stroke:none;stroke-width:2.57599998;stroke-linecap:butt;stroke-linejoin:miter;stroke-miterlimit:4;stroke-dasharray:none;stroke-dashoffset:0;stroke-opacity:1;marker:none;marker-start:none;marker-mid:none;marker-end:none;enable-background:accumulate"
           d="M 368.0625,492.65625 C 259.32985,492.4646 170.9104,580.54858 170.71875,689.28125 170.5271,798.0139 258.61111,886.43337 367.34375,886.625 476.0764,886.81665 564.49587,798.73267 564.6875,690 564.87905,581.2674 476.79508,492.84788 368.0625,492.65625 Z m -0.0312,11.125 c 102.59895,0.18085 185.712,83.58854 185.53125,186.1875 C 553.38168,792.56779 469.97402,875.6808 367.375,875.5 264.77599,875.31908 181.63167,791.91152 181.8125,689.3125 181.99333,586.71346 265.43223,503.60042 368.03125,503.78125 Z"
           id="path3287"
           inkscape:connector-curvature="0" />
        <path
           style="display:inline;overflow:visible;visibility:visible;fill:none;fill-opacity:1;fill-rule:nonzero;stroke:#000000;stroke-width:2.57599998;stroke-linecap:butt;stroke-linejoin:miter;stroke-miterlimit:4;stroke-dasharray:none;stroke-dashoffset:0;stroke-opacity:1;marker:none;marker-start:none;marker-mid:none;marker-end:none;enable-background:accumulate"
           d="m 368.03125,503.78125 c 102.59895,0.18085 185.712,83.58854 185.53125,186.1875 C 553.38168,792.56779 469.97402,875.6808 367.375,875.5 264.77599,875.31908 181.63167,791.91152 181.8125,689.3125 181.99333,586.71346 265.43223,503.60042 368.03125,503.78125 Z"
           id="path3548"
           sodipodi:nodetypes="cscsc"
           inkscape:connector-curvature="0" />
      </g>
      <g
         id="g3620">
        <path
           style="fill:#000000;fill-opacity:1;fill-rule:evenodd;stroke:none;stroke-width:1px;stroke-linecap:butt;stroke-linejoin:miter;stroke-opacity:1"
           d="m 380.25,677.71875 c 0.044,0.47037 0.0634,0.92428 0.0625,1.40625 -0.0139,7.86075 -6.1227,14.30237 -13.84375,14.84375 l 7.28125,5.34375 41.15625,26 31.34375,21.46875 25.75,-6.3125 -31.3125,-14.375 -49.75,-40.40625 z"
           id="path3565"
           inkscape:connector-curvature="0" />
        <rect
           style="display:inline;overflow:visible;visibility:visible;fill:#2a2a2a;fill-opacity:1;fill-rule:evenodd;stroke:none;stroke-width:1.5;stroke-linecap:butt;stroke-linejoin:miter;stroke-miterlimit:4;stroke-dasharray:none;stroke-dashoffset:0;stroke-opacity:1;marker:none;marker-start:none;marker-mid:none;marker-end:none;enable-background:accumulate"
           id="rect3551"
           width="63.892147"
           height="19.805208"
           x="424.26407"
           y="735.93188" />
        <path
           style="display:inline;overflow:visible;visibility:visible;opacity:1;fill:#000000;fill-opacity:1;fill-rule:evenodd;stroke:none;stroke-width:1px;stroke-linecap:butt;stroke-linejoin:miter;stroke-miterlimit:4;stroke-dasharray:none;stroke-dashoffset:0;stroke-opacity:1;marker:none;marker-start:none;marker-mid:none;marker-end:none;enable-background:accumulate"
           d="m 458.46875,735.3125 c -0.2033,0.008 -0.42015,0.042 -0.625,0.0625 -0.14304,0.0143 -0.29387,0.0108 -0.4375,0.0312 -0.18622,0.0265 -0.3489,0.0889 -0.53125,0.125 -0.15971,0.0316 -0.31217,0.0549 -0.46875,0.0937 -0.32356,0.0796 -0.62683,0.17178 -0.9375,0.28125 -0.0185,0.007 -0.0441,-0.007 -0.0625,0 -0.0218,0.008 -0.0407,0.0233 -0.0625,0.0312 -0.29778,0.10918 -0.59091,0.23972 -0.875,0.375 -0.29873,0.14225 -0.59309,0.29929 -0.875,0.46875 -0.26683,0.1604 -0.531,0.3167 -0.78125,0.5 -0.0417,0.0307 -0.0838,0.0624 -0.125,0.0937 -0.1643,0.12423 -0.31242,0.27255 -0.46875,0.40625 -0.10014,0.0861 -0.21589,0.16019 -0.3125,0.25 -0.21098,0.19491 -0.39984,0.41312 -0.59375,0.625 -0.22114,0.24164 -0.4277,0.48788 -0.625,0.75 -0.199,0.26438 -0.38952,0.52902 -0.5625,0.8125 -0.1712,0.28056 -0.32478,0.57744 -0.46875,0.875 -0.14114,0.29172 -0.26167,0.59981 -0.375,0.90625 -0.10655,0.28811 -0.20068,0.57524 -0.28125,0.875 -0.0174,0.064 -0.0463,0.12306 -0.0625,0.1875 -0.0437,0.17658 -0.0906,0.35115 -0.125,0.53125 -0.0464,0.23845 -0.0644,0.47562 -0.0937,0.71875 -0.0174,0.1457 -0.0513,0.28996 -0.0625,0.4375 -0.008,0.10355 0.005,0.20829 0,0.3125 -0.007,0.14819 -0.031,0.2877 -0.0312,0.4375 -9e-5,0.0533 -7.2e-4,0.10317 0,0.15625 0.004,0.28609 0.0344,0.5856 0.0625,0.875 0.0149,0.15314 0.009,0.31492 0.0312,0.46875 h 0.0312 c 10e-4,0.01 -0.002,0.0212 0,0.0312 0.0193,0.1299 0.0385,0.247 0.0625,0.375 0.0158,0.0841 0.0447,0.16667 0.0625,0.25 0.0634,0.2962 0.13104,0.59015 0.21875,0.875 0.0989,0.32127 0.21558,0.63197 0.34375,0.9375 0.10357,0.2469 0.19093,0.48294 0.3125,0.71875 0.0596,0.11562 0.12366,0.23074 0.1875,0.34375 0.053,0.0936 0.10049,0.18959 0.15625,0.28125 0.0846,0.13937 0.19033,0.27133 0.28125,0.40625 0.18244,0.27014 0.38753,0.53113 0.59375,0.78125 0.18363,0.22272 0.36141,0.45044 0.5625,0.65625 0.1393,0.14327 0.29009,0.27128 0.4375,0.40625 0.0107,0.01 0.0205,0.0215 0.0312,0.0312 0.22552,0.20471 0.44435,0.40954 0.6875,0.59375 0.0297,0.0225 0.0638,0.0403 0.0937,0.0625 0.24974,0.18493 0.51486,0.33796 0.78125,0.5 0.24237,0.14743 0.495,0.27892 0.75,0.40625 0.10432,0.0518 0.20634,0.10792 0.3125,0.15625 0.11359,0.052 0.22799,0.10834 0.34375,0.15625 0.24718,0.10182 0.49441,0.19878 0.75,0.28125 0.0822,0.0267 0.16686,0.0379 0.25,0.0625 0.26487,0.078 0.54024,0.16217 0.8125,0.21875 0.0409,0.008 0.0839,0.0233 0.125,0.0312 0.24413,0.0476 0.50095,0.064 0.75,0.0937 0.24911,0.0297 0.49577,0.0511 0.75,0.0625 0.19532,0.009 0.3964,0.0339 0.59375,0.0312 0.2908,-0.004 0.5808,-0.0334 0.875,-0.0625 0.14676,-0.0145 0.29012,-0.0103 0.4375,-0.0312 0.19094,-0.0272 0.37563,-0.0878 0.5625,-0.125 0.01,-0.002 0.0213,0.002 0.0312,0 0.14879,-0.0303 0.29112,-0.0571 0.4375,-0.0937 0.18411,-0.0455 0.35169,-0.10122 0.53125,-0.15625 0.32226,-0.0988 0.63097,-0.21569 0.9375,-0.34375 0.1801,-0.0752 0.35697,-0.16515 0.53125,-0.25 0.24279,-0.11932 0.48722,-0.23746 0.71875,-0.375 0.0197,-0.0117 0.0428,-0.0194 0.0625,-0.0312 0.14853,-0.0891 0.29427,-0.18513 0.4375,-0.28125 0.55573,-0.37296 1.06287,-0.78093 1.53125,-1.25 0.22825,-0.22859 0.45089,-0.47015 0.65625,-0.71875 0.0999,-0.12062 0.18689,-0.24983 0.28125,-0.375 0.10467,-0.13891 0.215,-0.26218 0.3125,-0.40625 0.0343,-0.0505 0.0604,-0.10508 0.0937,-0.15625 0.14525,-0.22318 0.27864,-0.45333 0.40625,-0.6875 0.0724,-0.13274 0.1521,-0.27004 0.21875,-0.40625 0.0791,-0.16191 0.14822,-0.33376 0.21875,-0.5 0.13043,-0.30745 0.24371,-0.61678 0.34375,-0.9375 0.0999,-0.32015 0.18194,-0.63738 0.25,-0.96875 0.0687,-0.33459 0.12153,-0.68728 0.15625,-1.03125 0.0346,-0.34268 0.0632,-0.68131 0.0625,-1.03125 -2e-5,-0.0107 6e-5,-0.0205 0,-0.0312 -0.002,-0.34 -0.0259,-0.68636 -0.0625,-1.03125 -0.013,-0.12278 -0.0137,-0.25176 -0.0312,-0.375 -0.0197,-0.13814 -0.0688,-0.27023 -0.0937,-0.40625 -0.0345,-0.18801 -0.0806,-0.37874 -0.125,-0.5625 -0.0126,-0.0521 -0.0178,-0.10449 -0.0312,-0.15625 -0.0441,-0.17048 -0.0727,-0.33349 -0.125,-0.5 -0.0397,-0.12614 -0.0806,-0.25102 -0.125,-0.375 -0.0684,-0.19121 -0.13963,-0.37722 -0.21875,-0.5625 -0.009,-0.0217 -0.0218,-0.0408 -0.0312,-0.0625 -0.11198,-0.25734 -0.24335,-0.50499 -0.375,-0.75 -0.0109,-0.0204 -0.0202,-0.0422 -0.0312,-0.0625 -0.0698,-0.1277 -0.1437,-0.25068 -0.21875,-0.375 -0.094,-0.15602 -0.17944,-0.31859 -0.28125,-0.46875 -0.0246,-0.0362 -0.0687,-0.0578 -0.0937,-0.0937 -0.16394,-0.23535 -0.31773,-0.46774 -0.5,-0.6875 -0.17029,-0.20532 -0.34604,-0.40284 -0.53125,-0.59375 -0.0406,-0.0419 -0.0837,-0.0838 -0.125,-0.125 -0.1103,-0.10994 -0.22856,-0.20765 -0.34375,-0.3125 -0.2176,-0.19806 -0.4534,-0.38355 -0.6875,-0.5625 -0.0225,-0.0172 -0.0398,-0.0455 -0.0625,-0.0625 -0.14253,-0.10693 -0.28958,-0.21307 -0.4375,-0.3125 -0.0311,-0.021 -0.0624,-0.0418 -0.0937,-0.0625 -0.24027,-0.15775 -0.49697,-0.30018 -0.75,-0.4375 -0.13626,-0.074 -0.26635,-0.15088 -0.40625,-0.21875 -0.15392,-0.0749 -0.31095,-0.15154 -0.46875,-0.21875 -0.0302,-0.0128 -0.0634,-0.0188 -0.0937,-0.0312 -0.24789,-0.10279 -0.49361,-0.19794 -0.75,-0.28125 -0.0318,-0.0103 -0.0619,-0.0212 -0.0937,-0.0312 -0.1451,-0.0452 -0.28972,-0.0861 -0.4375,-0.125 -0.17655,-0.0468 -0.35157,-0.0877 -0.53125,-0.125 -0.0197,-0.004 -0.0428,0.004 -0.0625,0 -0.32151,-0.0648 -0.6388,-0.12266 -0.96875,-0.15625 -0.34082,-0.0347 -0.68342,-0.0626 -1.03125,-0.0625 -0.13516,4e-5 -0.27024,-0.005 -0.40625,0 z"
           id="path3611"
           inkscape:connector-curvature="0" />
      </g>
      <path
         sodipodi:nodetypes="cscccssscccc"
         id="path3229"
         d="m 356.90625,412.78125 c -7.67279,-0.0135 -13.92398,6.20223 -13.9375,13.875 -5.6e-4,0.31954 0.0106,0.62328 0.0312,0.9375 h -0.0625 l 9.75,230.6875 c -8.17663,4.57098 -13.73232,13.28435 -13.75,23.3125 -0.026,14.77649 11.94226,26.78648 26.71875,26.8125 14.77649,0.026 26.78644,-11.94226 26.8125,-26.71875 0.0174,-9.89086 -5.33591,-18.53901 -13.3125,-23.1875 l -8.375,-231.59375 c -0.0208,-0.44789 -0.0376,-0.89647 -0.0625,-1.34375 -0.56725,-7.14187 -6.52307,-12.76841 -13.8125,-12.78125 z"
         style="display:inline;overflow:visible;visibility:visible;opacity:1;fill:#a8a8a8;fill-opacity:1;fill-rule:nonzero;stroke:none;stroke-width:2.57599998;stroke-linecap:butt;stroke-linejoin:miter;stroke-miterlimit:4;stroke-dasharray:none;stroke-dashoffset:0;stroke-opacity:1;marker:none;marker-start:none;marker-mid:none;marker-end:none;enable-background:accumulate"
         inkscape:connector-curvature="0" />
      <g
         id="g3606">
        <path
           style="display:inline;overflow:visible;visibility:visible;opacity:1;fill:#000000;fill-opacity:1;fill-rule:evenodd;stroke:none;stroke-width:1px;stroke-linecap:butt;stroke-linejoin:miter;stroke-miterlimit:4;stroke-dasharray:none;stroke-dashoffset:0;stroke-opacity:1;marker:none;marker-start:none;marker-mid:none;marker-end:none;enable-background:accumulate"
           d="m 225.78125,603.09375 51.5,26.78125 64.90625,46.21875 7.15494,5.26399 c 1.55241,1.19287 1.72983,2.24863 2.40538,3.62736 2.2774,5.29291 7.5317,9.0041 13.65843,9.0149 8.22465,0.0145 14.89175,-6.65033 14.90625,-14.875 0.0145,-8.22464 -6.65035,-14.89175 -14.875,-14.90625 -2.05947,0.30533 -3.58257,0.0648 -5.44473,-0.9226 L 287.65625,617.25 l -11.375,-13.15625 z"
           id="path3574"
           sodipodi:nodetypes="cccccssccccc"
           inkscape:connector-curvature="0" />
        <path
           style="display:inline;overflow:visible;visibility:visible;fill:#2a2a2a;fill-opacity:1;fill-rule:evenodd;stroke:none;stroke-width:1.5;stroke-linecap:butt;stroke-linejoin:miter;stroke-miterlimit:4;stroke-dashoffset:0;stroke-opacity:1;marker:none;marker-start:none;marker-mid:none;marker-end:none;enable-background:accumulate"
           d="m 209.48039,586.30304 37.69837,-3.91063 43.87145,3.91063 v 22.09337 l -40.51155,1.42425 -41.05827,-1.06711 z"
           id="rect3553"
           sodipodi:nodetypes="ccccccc"
           inkscape:connector-curvature="0" />
        <path
           sodipodi:type="arc"
           style="display:inline;overflow:visible;visibility:visible;fill:#000000;fill-opacity:1;fill-rule:evenodd;stroke:none;stroke-width:1px;stroke-linecap:butt;stroke-linejoin:miter;stroke-miterlimit:4;stroke-dasharray:none;stroke-dashoffset:0;stroke-opacity:1;marker:none;marker-start:none;marker-mid:none;marker-end:none;enable-background:accumulate"
           id="path3598"
           sodipodi:cx="248.245"
           sodipodi:cy="595.77325"
           sodipodi:rx="13.131983"
           sodipodi:ry="13.131983"
           d="m 261.37696,595.7964 a 13.131983,13.131983 0 0 1 -13.13557,13.10884 13.131983,13.131983 0 0 1 -13.12837,-13.11605 13.131983,13.131983 0 0 1 13.0965,-13.14787 13.131983,13.131983 0 0 1 13.16734,13.07692 l -13.13186,0.055 z"
           sodipodi:start="0.0017625377"
           sodipodi:end="6.2789961" />
      </g>
      <path
         id="path3283"
         d="m 337.01214,349.67482 9.84899,0.31567 0.82075,-4.41942 -10.4172,0.63135 z"
         style="fill:#282828;fill-opacity:1;fill-rule:evenodd;stroke:none;stroke-width:1px;stroke-linecap:butt;stroke-linejoin:miter;stroke-opacity:1"
         inkscape:connector-curvature="0" />
      <path
         sodipodi:nodetypes="ccsssscccccccc"
         id="path3267"
         d="m 337.07528,330.92386 7.26047,0.12627 c 0,0 2.84105,-1.6415 4.41942,-2.02031 1.57836,-0.3788 5.108,-0.61458 6.43972,-0.63134 1.50737,-0.019 4.94741,0.47789 6.81853,1.42052 0.95638,0.48181 2.93542,1.45744 3.84327,2.27664 1.02664,0.92639 2.35777,2.13458 2.24921,2.26905 l 0.34724,14.74192 -2.14657,-0.88389 -8.3969,-5.36643 h -6.62912 l -5.24017,2.33597 h -8.71256 z"
         style="fill:#a3a3a3;fill-opacity:1;fill-rule:evenodd;stroke:none;stroke-width:1px;stroke-linecap:butt;stroke-linejoin:miter;stroke-opacity:1"
         inkscape:connector-curvature="0" />
      <path
         sodipodi:nodetypes="ccsscsssccc"
         id="path3265"
         d="m 337.02108,347.01072 9.24424,0.14159 c 0,0 5.07397,-3.0937 8.55611,-2.91513 3.48214,0.17857 9.375,2.58929 9.73214,4.10714 0.35715,1.51786 0.26786,3.03572 0.26786,3.03572 0.0115,0.0422 3.72316,-0.64935 3.66071,-2.58929 -0.0789,-2.45234 -1.19698,-3.30937 -4.28571,-5.17857 -3.45874,-2.09312 -9.83968,-2.48674 -12.67857,-2.05357 -2.2503,0.34336 -5.33482,2.34375 -5.33482,2.34375 l -8.90242,-0.0893 z"
         style="fill:#565656;fill-opacity:1;fill-rule:evenodd;stroke:none;stroke-width:1px;stroke-linecap:butt;stroke-linejoin:miter;stroke-opacity:1"
         inkscape:connector-curvature="0" />
      <path
         transform="translate(0,0.1785715)"
         id="path3269"
         d="m 343.64126,334.18019 c -0.003,1.53341 -1.2494,2.77572 -2.78281,2.77302 -1.53341,-0.003 -2.77573,-1.2494 -2.77302,-2.78281 0.003,-1.53341 1.2494,-2.77572 2.78281,-2.77302 1.53341,0.003 2.77572,1.2494 2.77302,2.78281 l -2.77792,-0.005 z"
         style="display:inline;overflow:visible;visibility:visible;fill:url(#radialGradient969);fill-opacity:1;fill-rule:nonzero;stroke:none;stroke-width:2.57599998;stroke-linecap:butt;stroke-linejoin:miter;stroke-miterlimit:4;stroke-dasharray:none;stroke-dashoffset:0;stroke-opacity:1;marker:none;marker-start:none;marker-mid:none;marker-end:none;enable-background:accumulate"
         inkscape:connector-curvature="0" />
      <path
         id="path3279"
         d="m 343.64126,334.18019 c -0.003,1.53341 -1.2494,2.77572 -2.78281,2.77302 -1.53341,-0.003 -2.77573,-1.2494 -2.77302,-2.78281 0.003,-1.53341 1.2494,-2.77572 2.78281,-2.77302 1.53341,0.003 2.77572,1.2494 2.77302,2.78281 l -2.77792,-0.005 z"
         style="color:#000000;display:inline;overflow:visible;visibility:visible;opacity:1;fill:url(#radialGradient3246);fill-opacity:1;fill-rule:nonzero;stroke:none;stroke-width:2.57599998;stroke-linecap:butt;stroke-linejoin:miter;stroke-miterlimit:4;stroke-dasharray:none;stroke-dashoffset:0;stroke-opacity:1;marker:none;marker-start:none;marker-mid:none;marker-end:none;enable-background:accumulate"
         transform="translate(0,6.3118864)"
         inkscape:connector-curvature="0" />
    </g>
  </g>
</svg>
