<?xml version="1.0" encoding="UTF-8" standalone="no"?>
<!-- Created with Inkscape (http://www.inkscape.org/) -->

<svg
   xmlns:dc="http://purl.org/dc/elements/1.1/"
   xmlns:cc="http://creativecommons.org/ns#"
   xmlns:rdf="http://www.w3.org/1999/02/22-rdf-syntax-ns#"
   xmlns:svg="http://www.w3.org/2000/svg"
   xmlns="http://www.w3.org/2000/svg"
   xmlns:xlink="http://www.w3.org/1999/xlink"
   xmlns:sodipodi="http://sodipodi.sourceforge.net/DTD/sodipodi-0.dtd"
   xmlns:inkscape="http://www.inkscape.org/namespaces/inkscape"
   height="128"
   id="svg1346"
   inkscape:version="0.92.2 (5c3e80d, 2017-08-06)"
   sodipodi:docname="volleyball.svg"
   sodipodi:version="0.32"
   version="1.0"
   viewBox="0 0 36.065927 36.124444"
   width="127.79266"
   x="0.00000000"
   xml:space="preserve"
   y="0.00000000"><title
     id="title826">Volley-ball</title><metadata
     id="metadata2"><rdf:RDF><cc:Work
         rdf:about=""><dc:title>Volley-ball</dc:title><dc:description>volley ball</dc:description><dc:subject><rdf:Bag><rdf:li>sports</rdf:li></rdf:Bag></dc:subject><dc:publisher><cc:Agent
             rdf:about="http://www.openclipart.org/"><dc:title>Open Clip Art Library</dc:title></cc:Agent></dc:publisher><dc:creator><cc:Agent><dc:title>Andrea Bianchini</dc:title></cc:Agent></dc:creator><dc:rights><cc:Agent><dc:title>Andrea Bianchini</dc:title></cc:Agent></dc:rights><dc:date /><dc:format>image/svg+xml</dc:format><dc:type
           rdf:resource="http://purl.org/dc/dcmitype/StillImage" /><cc:license
           rdf:resource="http://creativecommons.org/publicdomain/zero/1.0/" /><dc:language>en</dc:language></cc:Work><cc:License
         rdf:about="http://creativecommons.org/publicdomain/zero/1.0/"><cc:permits
           rdf:resource="http://creativecommons.org/ns#Reproduction" /><cc:permits
           rdf:resource="http://creativecommons.org/ns#Distribution" /><cc:permits
           rdf:resource="http://creativecommons.org/ns#DerivativeWorks" /></cc:License></rdf:RDF></metadata><sodipodi:namedview
     bordercolor="#666666"
     borderopacity="1.0"
     id="base"
     inkscape:current-layer="svg1346"
     inkscape:cx="63.178424"
     inkscape:cy="90.394233"
     inkscape:pageopacity="0.0"
     inkscape:pageshadow="2"
     inkscape:window-height="1025"
     inkscape:window-width="1920"
     inkscape:window-x="-8"
     inkscape:window-y="-8"
     inkscape:zoom="1.4626263"
     pagecolor="#ffffff"
     showgrid="false"
     inkscape:window-maximized="1"
     fit-margin-top="0"
     fit-margin-left="0"
     fit-margin-right="0"
     fit-margin-bottom="0" /><defs
     id="defs1348"><linearGradient
       id="linearGradient2140"><stop
         id="stop2142"
         offset="0.00000000"
         style="stop-color:#ffffea;stop-opacity:1.0000000;" /><stop
         id="stop2148"
         offset="0.59036142"
         style="stop-color:#ffffc1;stop-opacity:1.0000000;" /><stop
         id="stop2144"
         offset="1.0000000"
         style="stop-color:#bfaa0a;stop-opacity:1.0000000;" /></linearGradient><style
       id="style1350"
       type="text/css">
   
    .fil0 {fill:#663300}
    .fil1 {fill:url(#id0)}
   
  </style><radialGradient
       cx="70.283798"
       cy="86.921097"
       fx="70.283798"
       fy="86.921097"
       gradientUnits="userSpaceOnUse"
       id="id0"
       r="79.476601"><stop
         id="stop1353"
         offset="0.00000000"
         style="stop-color:#ffffff;stop-opacity:1.0000000;" /><stop
         id="stop1355"
         offset="0.36862701"
         style="stop-color:#fdfcc9;stop-opacity:1.0000000;" /><stop
         id="stop1357"
         offset="1.0000000"
         style="stop-color:#cc9933;stop-opacity:1.0000000;" /></radialGradient><radialGradient
       cx="94.342743"
       cy="101.32678"
       fx="94.342743"
       fy="101.32678"
       gradientTransform="scale(1.001135,0.998866)"
       gradientUnits="userSpaceOnUse"
       id="radialGradient2146"
       r="130.28741"
       xlink:href="#linearGradient2140" /><radialGradient
       cx="94.342743"
       cy="101.32678"
       fx="94.342743"
       fy="101.32678"
       gradientTransform="scale(1.001135,0.998866)"
       gradientUnits="userSpaceOnUse"
       id="radialGradient2209"
       r="130.28741"
       xlink:href="#linearGradient2140" /></defs><g
     id="volley"
     inkscape:label="volley-ball"
     transform="matrix(-0.0027693,0.22793051,0.22793051,0.0027693,-13.132156,-9.3856919)"><path
       d="m 114.77548,217.24135 c -4.826,-0.4318 -9.5758,-1.0414 -14.3002,-2.0066 -2.413,-0.5334 -4.826,-1.3208 -7.2136,-2.032 -9.2456,-3.3274 -17.2466,-7.747 -25.019,-13.7668 -2.9972,-2.5908 -5.842,-5.334 -8.6614,-8.1534 -0.7545,-0.8886 -2.1585,-2.5914 -2.6573,-3.2344 -0.9907,-1.2768 -2.0231,-2.5281 -2.9815,-3.8014 -3.9624,-5.7658 -7.0612,-11.6332 -9.652,-18.1102 -0.635,-1.9558 -1.6256,-3.937 -1.524,-6.0198 -1.8796,-4.1148 -2.6924,-9.017 -2.9718,-13.5128 0.1778,-1.9812 0.889,-3.7084 1.524,-5.588 0,-1.6002 -0.9144,-2.4892 -1.8034,-3.7846 0,-5.1054 0.6096,-10.0076 1.6256,-15.0114 0.762,-1.8288 1.778,-3.5306 2.4384,-5.3848 0.3556,-1.7272 0.5588,-3.4544 0.6096,-5.207 2.5654,-6.5786 5.6642,-12.522198 9.6012,-18.389598 3.4036,-4.4958 3.4036,-4.4958 5.08,-6.5278 3.9878,-4.318 8.128,-8.2042 12.7,-11.8618 3.683,-2.54 7.3914,-5.0292 11.3538,-7.112 1.9304,-0.9144 3.8608,-1.8034 5.7912,-2.6924 4.2164,-1.6002 8.4074,-2.921 12.7508,-4.064 7.5184,-1.5748 14.8336,-2.2098 22.5298,-1.778 0.3048,0.0508 0.381,0.127 0.5842,0.3302 4.2164,-0.254 8.4836,1.0668 12.5476,2.032 4.191,1.3462 4.191,1.3462 6.9342,2.3368 0,0.4826 2.2352,1.5748 2.667,1.8288 1.6764,0.5588 3.3528,1.1176 5.0292,1.6764 6.1214,3.4036 12.2428,7.0866 17.3228,11.9634 0.7366,1.143 1.4986,2.286 2.2606,3.4544 2.3876,1.7018 4.7244,3.429 6.9596,5.334 1.5748,1.9304 3.1496,3.8862 4.7498,5.842 1.4478,2.1082 2.921,4.2164 4.3942,6.349998 2.8194,4.953 2.8194,4.953 4.1656,7.5946 2.6416,5.9182 4.7244,11.7348 5.7658,18.161 0.254,3.3782 0.4318,6.7818 0.3302,10.1854 0.4318,0.5842 0.254,1.4224 0.254,2.1336 -0.635,6.1976 -1.2954,12.319 -2.6162,18.4404 -1.4478,5.6388 -3.429,11.2522 -6.096,16.4338 -0.4318,0.6096 -1.1176,1.0922 -1.778,1.4224 -0.7112,3.556 -2.9972,6.8072 -4.6736,9.9568 -0.7874,1.1684 -1.5748,2.3622 -2.3622,3.556 -1.4224,1.397 -3.2766,1.8288 -4.572,3.2512 -0.381,0.6858 -0.762,1.3716 -1.1176,2.0828 -3.1496,3.1496 -6.5786,5.969 -10.0584,8.7122 -3.6068,2.3876 -7.2898,5.0292 -11.303,6.7056 -1.1938,0.2286 -2.54,0.4064 -3.6068,0.9906 -0.4826,0.4572 -0.9652,0.9144 -1.4478,1.3716 -4.2926,1.6256 -8.5344,2.921 -12.9794,4.064 -4.6482,0.9144 -9.3218,1.4224 -14.0462,1.778 -2.1844,0 -4.3688,0.0254 -6.5278,0.0508 z"
       id="_128508744"
       style="fill:#720b00;fill-opacity:1"
       inkscape:connector-curvature="0" /><path
       d="m 114.99648,216.97135 c -2.286,-0.2286 -4.572,-0.4318 -6.858,-0.635 -7.5438,-1.1938 -14.732,-3.0734 -21.7678,-6.096 -1.905,-0.9398 -3.81,-1.8796 -5.6896,-2.794 -8.4328,-4.8768 -16.9672,-11.0236 -22.86,-18.8976 -1.7272,-2.9972 -1.7272,-2.9972 -3.0988,-5.6896 -2.2606,-5.3086 -3.8608,-10.4648 -5.2324,-16.0528 0.8382,-2.3114 1.8796,-4.2418 3.1496,-6.35 3.5306,-4.7498 7.874,-8.128 12.9794,-11.1252 0.4826,-0.1016 0.9652,-0.1778 1.4478,-0.254 1.1176,10.4648 6.604,20.447 12.1412,29.1846 3.048,4.2926 6.2992,8.382 9.8298,12.2936 1.5494,1.4986 3.0988,2.9972 4.6736,4.5212 2.1082,1.6764 4.2418,3.3782 6.3754,5.08 8.6868,5.842 17.4498,9.7536 27.8638,11.176 4.9276,0.4064 9.7028,0.508 14.605,-0.0762 4.1656,-0.6858 6.4516,-1.1938 6.6802,-1.1684 -1.8288,1.9812 -5.7404,2.7686 -8.255,3.6068 -3.5306,0.9144 -7.0866,1.7018 -10.668,2.3876 -6.1722,0.6604 -6.1722,0.6604 -9.0678,0.8382 -2.0828,0 -4.1656,0.0254 -6.2484,0.0508 z M 75.19468,72.699352 c 0.1524,-0.8128 6.35,-3.9116 7.366,-4.4704 1.8796,-0.9144 3.7592,-1.8288 5.6642,-2.7178 5.0292,-1.9304 10.033,-3.556 15.3162,-4.7244 2.1336,-0.3556 4.2672,-0.6858 6.4262,-1.016 4.6482,-0.3048 9.3218,-0.5842 13.9954,-0.3302 0.1016,0.0254 0.2032,0.0508 0.3048,0.1016 -0.0508,0.0762 -2.4892,0.889 -2.8956,1.0668 -0.8636,0.5842 -1.6764,1.2192 -2.413,1.9558 -11.938,1.3716 -11.938,1.3716 -16.5862,2.032 -7.8486,1.3462 -15.5702,3.0734 -22.9616,6.096 -1.4224,0.6604 -2.8194,1.3208 -4.2164,2.0066 z m -30.988,42.849798 c 0.0762,-1.3208 0.1778,-2.6162 0.2794,-3.9116 3.3274,-8.6614 7.8994,-16.636998 13.7922,-23.799798 4.191,-4.7498 8.6868,-9.1948 13.7668,-13.0048 5.1054,-3.0226 10.1854,-5.0546 15.8242,-6.8326 10.3124,-2.7178 20.5486,-4.0386 31.1404,-5.08 7.7724,5.0038 9.9822,14.8336 11.684,23.2918 0.0254,0.508 0.0508,1.016 0.0762,1.5494 -0.1778,0.4826 -0.3556,0.9906 -0.5334,1.4986 -4.7498,-1.524 -9.4234,-2.6416 -14.351,-3.4036 -5.715,-0.5842 -11.4046,-0.635 -17.145,-0.1778 -5.6388,0.7366 -11.049,1.905 -16.5354,3.4036 -3.9624,1.3462 -3.9624,1.3462 -7.5692,2.7178 -9.6774,4.3942 -18.4912,9.397998 -25.8318,17.246598 -1.7526,2.0828 -3.2004,4.1656 -4.5974,6.5024 z m -2.54,25.146 c 0,-1.2192 -1.27,-2.6162 -1.905,-3.6068 0,-5.0038 0.6858,-9.9314 1.6764,-14.8082 0.4064,-1.0668 0.8636,-2.286 1.6764,-3.0988 0.6858,-2.0574 0.6858,-2.0574 1.3716,-3.6322 2.2352,-3.8862 4.9276,-6.9088 8.128,-10.033 3.9878,-3.3782 8.1534,-6.146798 12.5984,-8.864598 1.7526,-0.9398 3.5306,-1.8542 5.3086,-2.7686 2.0828,-0.9144 4.191,-1.8034 6.2992,-2.6924 5.9182,-2.0574 11.7602,-3.6576 17.907,-4.7498 5.9182,-0.6604 5.9182,-0.6604 8.7122,-0.8382 2.1082,0 4.2418,0 6.3754,0 7.0866,0.4572 13.6144,1.7018 20.3708,3.9116 0.254,0.8128 0.6604,1.5494 1.0922,2.286 0.2032,4.5974 0.2032,9.194798 -0.1016,13.792198 -0.2794,0.4318 -0.5334,0.889 -0.7874,1.3462 -1.7018,0.0762 -1.7018,0.0762 -10.922,0.0762 -5.6642,0.2794 -11.303,0.8636 -16.9164,1.7018 -5.6896,1.0668 -11.303,2.413 -16.8656,4.064 -2.5654,0.889 -5.1054,1.8034 -7.6454,2.7178 -13.9446,6.1214 -26.3144,13.5636 -36.3728,25.1968 z m 7.4422,25.908 c -7.1374,-3.556 -8.3058,-12.9032 -9.017,-19.939 0.1778,-1.9812 0.889,-3.7084 1.524,-5.588 3.937,-4.4704 8.255,-8.509 12.954,-12.192 3.2258,-2.286 6.5024,-4.4704 9.8552,-6.5532 5.2578,-2.794 5.2578,-2.794 8.0518,-4.1402 2.667,-1.143 5.3594,-2.286 8.0518,-3.4036 3.8608,-1.3208 3.8608,-1.3208 8.255,-2.6924 7.874,-2.0828 15.6718,-3.6068 23.7998,-4.3942 2.3622,-0.1524 4.7244,-0.3048 7.112,-0.4318 3.556,0 7.112,0.0254 10.6934,0.0508 0.127,0.9144 0.3302,1.3716 0.381,2.032 -0.6858,4.572 -0.6858,4.572 -1.3462,8.128 -1.778,5.5626 -4.1148,10.7188 -7.1628,15.7226 -3.2766,4.7244 -3.2766,4.7244 -3.4544,4.826 -3.429,-0.9906 -7.2136,-0.6858 -10.7696,-0.6858 -5.8166,0.381 -12.0904,0.8382 -17.6784,2.6924 -0.9652,0.5842 -1.905,1.016 -2.9718,1.3716 -0.762,-0.0508 -1.524,-0.0762 -2.286,-0.1016 -5.7404,1.4224 -11.2014,3.7592 -16.5862,6.1722 -1.0414,1.143 -1.5494,1.2954 -3.0226,1.6256 -4.7244,3.048 -4.7244,3.048 -5.8928,3.9116 -1.7272,1.4224 -3.3528,2.9718 -4.953,4.5212 -0.8636,1.1176 -1.7272,2.2352 -2.5908,3.3528 -1.0668,1.8796 -1.9812,3.6576 -2.7432,5.6388 -0.0762,0.0254 -0.1524,0.0508 -0.2032,0.0762 z m 91.694,0.3302 c -0.3302,-0.5588 -1.7526,-0.8128 -2.413,-0.9906 -8.89,-7.5692 -14.8844,-16.764 -19.304,-27.5336 0,-0.1016 0,-0.2032 0,-0.3048 6.3754,-8.6106 11.2776,-18.4658 11.938,-29.2862 -0.4318,-1.4224 -0.4064,-1.9304 0.4318,-3.2004 0.254,-4.6228 0.381,-9.270998 0.0762,-13.893798 -0.9652,-1.6256 -1.1938,-2.2606 -0.508,-3.9878 -0.127,-2.7686 -0.8128,-5.4864 -1.4478,-8.1788 -1.6256,-6.1214 -4.7244,-13.3096 -10.3124,-16.7386 0,-0.0762 0,-0.1524 0,-0.2286 4.1656,-4.1656 9.2456,-2.7432 14.5288,-1.6256 3.048,0.7874 6.096,1.7272 9.0932,2.7178 1.0922,0.6604 2.1844,1.3208 3.302,1.9812 0,0.0254 0,0.0762 0,0.127 2.032,1.27 3.2258,4.1148 4.3434,6.1468 7.6454,19.3548 8.4582,41.478198 5.3086,61.899798 -1.0414,5.2324 -2.3114,10.287 -4.064,15.2908 -0.6858,1.651 -1.3716,3.302 -2.032,4.9784 -1.9558,3.5814 -3.8862,7.0358 -6.4008,10.2362 -0.5334,0.6096 -1.8288,2.413 -2.54,2.5908 z m 46.6598,7.4422 c -0.2286,-1.7272 -0.7366,-3.2766 -2.54,-3.4544 1.4986,-3.937 4.318,-7.4422 6.477,-11.0236 1.6002,-3.3274 2.921,-6.5786 4.064,-10.0838 1.1176,-4.2672 1.778,-8.636 2.286,-13.0302 -0.3048,9.8806 -2.159,19.5834 -5.334,28.9306 -1.3462,3.2512 -1.3462,3.2512 -2.6924,6.1722 -0.6096,1.1684 -1.016,1.9812 -2.2606,2.4892 z m -30.734,0.254 c -5.1054,-1.2192 -9.525,-2.921 -14.0208,-5.6896 -1.0668,-1.3716 -1.0668,-1.3716 -1.524,-1.778 1.27,-1.5494 2.5654,-3.0734 3.8608,-4.5974 2.921,-4.3688 5.1816,-8.8646 7.1374,-13.7414 2.6416,-7.8994 4.191,-15.621 5.1054,-23.9014 0.3302,-4.4958 0.3302,-4.4958 0.508,-8.7376 0,-15.2908 -1.2192,-31.038798 -7.4676,-45.211998 -0.8382,-1.6002 -1.8796,-3.429 -3.175,-4.7244 3.6576,0.4318 6.9088,2.6924 10.033,4.4704 1.4478,0.9398 2.921,1.905 4.3942,2.8702 2.4638,1.8542 5.1054,3.683 7.3152,5.8928 0.6096,0.9144 1.2192,1.8288 1.8542,2.7686 -0.0254,0.1016 0.1564,0.2608 0.131,0.3624 0.1578,0.3058 0.2311,0.5268 0.4253,0.8398 2.4662,3.9728 4.4257,8.1 6.4033,12.3614 1.3208,3.5306 1.3208,3.5306 2.6924,7.670798 1.143,4.9022 2.032,9.4742 2.54,14.478 0.0254,1.8542 0.0508,3.7338 0.0762,5.6134 -0.3302,5.2324 -1.1684,10.0584 -2.3622,15.1638 -1.3716,4.1402 -1.3716,4.1402 -2.7178,7.6708 -2.2606,4.8006 -4.7244,9.1694 -7.62,13.6144 -3.5052,4.6736 -3.5052,4.6736 -6.096,7.874 -3.6322,3.937 -3.6322,3.937 -6.223,6.5278 -0.4318,0.0508 -0.8636,0.127 -1.27,0.2032 z m 7.366,0.762 c -1.6002,-0.1016 -4.2926,0.0254 -5.7912,-0.8636 1.5494,-1.651 3.1242,-3.302 4.699,-4.953 3.5306,-4.064 6.731,-8.3566 9.7536,-12.8016 2.794,-4.9022 2.794,-4.9022 4.1656,-7.5692 1.3462,-3.0226 1.3462,-3.0226 2.7178,-6.5024 2.0066,-6.3246 3.2258,-12.2682 3.6322,-18.8976 0,-1.3716 0,-2.7432 0,-4.1148 -0.8128,-12.7762 -4.6228,-25.603198 -11.7856,-36.347398 0.762,0 3.3702,2.3426 4.056,2.876 0,0.0254 0.2874,0.1974 0.2874,0.2482 1.27,0.9144 1.27,0.9144 2.286,1.8034 6.0706,7.4422 11.0744,14.731998 15.0114,23.469598 0.6604,1.8542 1.3208,3.7084 2.0066,5.5626 0.4318,1.7018 0.889,3.429 1.3462,5.1562 2.2352,11.7094 0.6858,23.368 -3.81,34.3662 -1.4224,2.794 -1.4224,2.794 -3.048,5.6388 -1.8288,2.794 -3.8608,5.4102 -5.0038,8.5598 -0.0762,0.0508 -0.127,0.1016 -0.1778,0.1778 -4.6228,1.6002 -9.017,2.794 -13.8176,3.7338 -2.159,0.1778 -4.3434,0.3556 -6.5278,0.4572 z m -107.112,12.3698 c -2.3622,-3.0226 -4.5466,-6.1976 -6.5532,-9.4488 -2.8956,-5.334 -5.9182,-11.049 -7.3914,-16.9672 0,-0.254 0,-0.508 0,-0.762 1.27,2.0828 2.4384,3.7084 4.2926,5.2832 0.635,0.3302 1.27,0.6858 1.905,1.0414 0.8128,3.9624 2.0574,7.8232 3.3782,11.6332 0.889,2.032 1.8034,4.064 2.7178,6.096 1.651,2.9718 1.651,2.9718 1.651,3.1242 z m 96.7994,6.9342 c -1.7526,-0.2286 -3.5052,-0.4318 -5.2578,-0.635 -6.3754,-1.27 -12.065,-3.2258 -17.8816,-6.096 -6.5786,-3.5814 -12.3952,-7.8232 -18.0848,-12.6746 -10.0076,-9.4996 -19.7866,-20.6756 -25.0698,-33.6042 0.9906,-0.381 1.9304,-0.8636 2.8448,-1.397 7.4422,-2.4638 15.9004,-2.6924 23.6474,-2.6924 1.4732,0.0762 3.429,0.0508 4.7752,0.7112 2.9464,7.4676 7.0612,14.3256 12.1158,20.574 2.3622,2.5146 4.7498,5.2578 7.5438,7.3152 2.159,0.6096 2.8956,1.3716 4.2418,3.048 0.9398,0.5334 1.8796,1.0668 2.8448,1.6256 3.7338,1.8034 7.3152,3.0988 11.3792,3.9624 0.7874,-0.2286 1.6256,0.127 2.3114,0.4318 3.8354,0.4318 7.6708,0.3556 11.4808,-0.0762 4.9276,-0.8636 9.525,-2.2098 14.224,-3.9116 2.2606,-0.2794 2.3114,2.9972 2.1082,4.5466 -1.5494,4.318 -4.191,8.509 -6.7818,12.2936 -0.3048,0.3048 -0.6096,0.6096 -0.9144,0.9144 -4.2164,2.7432 -9.7536,4.0386 -14.605,5.0292 -3.6576,0.4826 -7.239,0.6096 -10.922,0.635 z m -21.9456,16.764 c -1.905,-0.2286 -3.7846,-0.4318 -5.6642,-0.635 -7.1374,-1.3716 -13.3096,-3.5306 -19.7358,-6.9342 -2.1336,-1.2954 -4.2418,-2.667 -6.3246,-4.0386 -1.016,-0.762 -2.032,-1.524 -3.048,-2.286 -6.1214,-5.334 -11.2776,-10.7442 -16.129,-17.2212 -0.9652,-1.4478 -1.9304,-2.8956 -2.8702,-4.318 -3.2512,-5.5626 -6.0706,-10.9474 -8.3566,-16.9672 -0.9398,-3.175 -2.3622,-6.8326 -2.3622,-10.2108 0.5842,-0.381 1.016,-0.8382 1.5748,-1.27 5.2324,-2.413 10.9728,-5.08 16.6878,-6.0198 0.5334,0.0508 1.0668,0.1016 1.6256,0.1778 5.1308,11.9888 13.6398,22.3774 22.8092,31.5468 1.27,1.1684 2.54,2.3368 3.8354,3.5052 7.239,5.7912 14.2494,10.5156 22.7584,14.224 1.27,0.4318 2.54,0.889 3.8354,1.3462 6.8072,1.905 13.208,2.921 20.2946,2.4638 5.2324,-0.5334 10.0838,-1.8542 15.0114,-3.7338 0,0.5334 -1.1938,2.286 -1.5494,2.7686 -4.0132,3.6576 -8.128,7.239 -12.6492,10.2616 -2.2098,1.2954 -4.3942,2.5908 -6.5786,3.9116 -4.0132,1.7272 -8.763,2.3876 -13.081,3.048 -3.3528,0.254 -6.7056,0.3556 -10.0838,0.381 z"
       id="_22009664"
       style="fill:url(#radialGradient2209);fill-opacity:1"
       inkscape:connector-curvature="0" /></g></svg>