<?xml version="1.0" encoding="UTF-8" standalone="no"?>
<!-- Created with Inkscape (http://www.inkscape.org/) -->

<svg
   xmlns:dc="http://purl.org/dc/elements/1.1/"
   xmlns:cc="http://creativecommons.org/ns#"
   xmlns:rdf="http://www.w3.org/1999/02/22-rdf-syntax-ns#"
   xmlns:svg="http://www.w3.org/2000/svg"
   xmlns="http://www.w3.org/2000/svg"
   xmlns:sodipodi="http://sodipodi.sourceforge.net/DTD/sodipodi-0.dtd"
   xmlns:inkscape="http://www.inkscape.org/namespaces/inkscape"
   id="svg2"
   version="1.1"
   inkscape:version="0.92.2 (5c3e80d, 2017-08-06)"
   width="70.5243"
   height="128"
   sodipodi:docname="jug.svg">
  <title
     id="title820">Jug</title>
  <metadata
     id="metadata8">
    <rdf:RDF>
      <cc:Work
         rdf:about="">
        <dc:format>image/svg+xml</dc:format>
        <dc:type
           rdf:resource="http://purl.org/dc/dcmitype/StillImage" />
        <dc:title>Jug</dc:title>
        <cc:license
           rdf:resource="http://creativecommons.org/publicdomain/zero/1.0/" />
        <dc:creator>
          <cc:Agent>
            <dc:title>Jordan Irwin (AntumDeluge)</dc:title>
          </cc:Agent>
        </dc:creator>
      </cc:Work>
      <cc:License
         rdf:about="http://creativecommons.org/publicdomain/zero/1.0/">
        <cc:permits
           rdf:resource="http://creativecommons.org/ns#Reproduction" />
        <cc:permits
           rdf:resource="http://creativecommons.org/ns#Distribution" />
        <cc:permits
           rdf:resource="http://creativecommons.org/ns#DerivativeWorks" />
      </cc:License>
    </rdf:RDF>
  </metadata>
  <defs
     id="defs6">
    <inkscape:perspective
       sodipodi:type="inkscape:persp3d"
       inkscape:vp_x="0 : 0.5 : 1"
       inkscape:vp_y="0 : 1000 : 0"
       inkscape:vp_z="1 : 0.5 : 1"
       inkscape:persp3d-origin="0.5 : 0.33333333 : 1"
       id="perspective10" />
  </defs>
  <sodipodi:namedview
     pagecolor="#ffffff"
     bordercolor="#666666"
     borderopacity="1"
     objecttolerance="10"
     gridtolerance="10"
     guidetolerance="10"
     inkscape:pageopacity="0"
     inkscape:pageshadow="2"
     inkscape:window-width="1920"
     inkscape:window-height="1025"
     id="namedview4"
     showgrid="false"
     inkscape:zoom="4.0154826"
     inkscape:cx="25.746781"
     inkscape:cy="55.352872"
     inkscape:window-x="-8"
     inkscape:window-y="-8"
     inkscape:window-maximized="1"
     inkscape:current-layer="svg2"
     borderlayer="true"
     fit-margin-top="0"
     fit-margin-left="0"
     fit-margin-right="0"
     fit-margin-bottom="0"
     inkscape:pagecheckerboard="false" />
  <g
     id="g838">
    <path
       inkscape:connector-curvature="0"
       id="path828"
       d="m 8.6286596,49.373541 16.2887964,2.377284 c 0,0 8.276469,-20.074841 8.452564,-20.427031 0.176095,-0.35219 1.144618,-14.968083 1.144618,-14.968083 L 34.338543,4.6453874 34.162448,1.8278659 28.272284,2.533952 27.99912,6.0541481 27.294739,17.148139 Z"
       style="fill:#ffffff;stroke:none;stroke-width:1px;stroke-linecap:butt;stroke-linejoin:miter;stroke-opacity:1" />
    <path
       style="fill:#a7a89b;stroke-width:0.21333332"
       d="m 28.432284,127.85813 c -1.698253,-0.16736 -6.839846,-1.21339 -8.853333,-1.80115 -3.091411,-0.90242 -7.830767,-2.90281 -9.173333,-3.87189 C 9.5568973,121.57248 6.0471794,117.87997 5.4559508,116.97765 4.8974834,116.12532 3.9404095,111.95392 3.5796921,108.8 3.3851088,107.09866 3.1374917,105.54021 3.0294316,105.33677 2.9213714,105.13332 2.7350839,103.06932 2.6154591,100.7501 2.4958341,98.430876 2.3017228,95.429332 2.1841002,94.079999 2.0664777,92.730665 1.8781606,90.234665 1.7656178,88.533332 1.6530751,86.831999 1.4630559,84.335999 1.3433531,82.986665 1.2236503,81.637332 1.0280097,78.709332 0.90859622,76.479999 0.7891828,74.250666 0.59551808,71.514666 0.47823021,70.399999 0.36094234,69.285332 0.20535913,63.253782 0.13248976,56.996554 L 0,45.619775 1.1494756,44.44567 c 1.1916663,-1.217199 2.8450758,-2.198522 4.4177471,-2.621999 0.7450792,-0.20063 1.0452951,-0.447123 1.6496567,-1.354468 0.4063492,-0.610061 1.1262782,-1.637204 1.5998423,-2.282537 0.4735642,-0.645333 1.0935091,-1.509333 1.3776553,-1.92 1.118732,-1.616862 3.706728,-4.965817 5.333113,-6.901229 1.256066,-1.494728 1.726796,-2.085365 3.138091,-3.93745 0.38502,-0.505274 1.228037,-1.521011 1.87337,-2.257195 2.893109,-3.300406 5.333333,-6.828206 5.333333,-7.71033 0,-0.372236 0.09798,-0.957847 0.217724,-1.301358 0.119748,-0.34351 0.287748,-3.279574 0.373333,-6.5245861 l 0.15561,-5.9000222 0.592232,-0.6180651 C 28.099845,0.1890085 29.605383,0 36.104047,0 c 4.437924,0 5.832757,0.06885538 6.740495,0.33274161 1.538402,0.44722574 2.227742,1.26030379 2.227742,2.62762639 0,1.0122768 0.266472,1.5196319 0.79814,1.5196319 0.157376,0 1.036025,-0.3675616 1.952552,-0.8168036 2.488745,-1.2198745 3.242135,-1.3736518 6.243816,-1.2744467 2.488472,0.082243 2.707855,0.1261696 4.018825,0.8046726 2.439678,1.2626744 4.370016,2.7013156 6.047833,4.5073252 2.775143,2.9871726 3.43484,5.0830466 3.283755,10.4325856 -0.08533,3.021501 -0.151972,3.47891 -0.772715,5.303927 -0.373632,1.098492 -0.832635,2.298492 -1.020008,2.666667 -0.723484,1.421585 -4.652386,7.536019 -5.331136,8.296687 -0.392917,0.440339 -0.714396,0.858726 -0.714396,0.929751 0,0.07102 0.467623,0.718748 1.03916,1.439386 0.571537,0.720636 1.528652,2.078248 2.126924,3.016915 1.632856,2.561894 1.721248,2.666667 2.249801,2.666667 0.824604,0 3.087117,1.270284 4.340604,2.437026 l 1.188859,1.106587 -0.24512,3.760222 c -0.134816,2.068122 -0.338429,4.22281 -0.452475,4.788194 -0.114048,0.565383 -0.308896,3.95597 -0.433001,7.534637 -0.124102,3.578667 -0.36464,10.586667 -0.534526,15.573333 -0.169886,4.986667 -0.410664,11.370667 -0.535063,14.186667 -0.28598,6.473678 -1.380184,19.759921 -1.800854,21.866661 -0.175716,0.88 -0.373066,1.95279 -0.438555,2.38397 -0.171443,1.12879 -2.071981,3.58375 -3.747629,4.84088 -4.582133,3.43768 -11.405137,5.76778 -20.038124,6.84315 -1.631527,0.20324 -12.017078,0.26575 -13.866667,0.0835 z M 21.504378,48.204552 c 0.133231,-0.215571 4.793632,-21.86756 4.794259,-22.273886 1.99e-4,-0.128 -0.06987,-0.128 -0.190201,0 -0.363687,0.386885 -11.942037,20.965071 -12.008909,21.343418 -0.08159,0.461591 0.476639,0.627035 3.026091,0.896859 2.611468,0.276389 4.221078,0.288743 4.37876,0.03361 z M 56.323906,29.386666 C 57.213824,28.4289 60.243454,23.112399 60.669992,21.76 c 0.291395,-0.923901 0.477027,-2.248918 0.556246,-3.970382 0.111426,-2.421381 0.08687,-2.648926 -0.390863,-3.6216 -0.687407,-1.399585 -3.109227,-3.919795 -4.49923,-4.6820196 -1.484205,-0.8138808 -2.907469,-0.8159798 -5.124026,-0.00756 -1.852364,0.6755946 -2.958007,1.5056686 -3.823652,2.8706496 -0.590425,0.931003 -0.609517,1.048522 -0.609517,3.751873 0,3.116297 -0.0606,2.944807 1.81139,5.125701 0.604286,0.704 1.600188,1.952 2.213114,2.773334 0.612926,0.821333 1.492514,1.973333 1.954643,2.56 0.462127,0.586666 1.234037,1.570666 1.715356,2.186666 0.48132,0.616 0.994225,1.12 1.139791,1.12 0.145566,0 0.465365,-0.216 0.710662,-0.48 z m 4.628395,-3.800032 c 0.803643,-1.536941 0.356917,-1.285894 -0.502812,0.282565 -0.401203,0.73194 -0.57612,1.204787 -0.388702,1.050769 0.187418,-0.154019 0.588597,-0.754019 0.891514,-1.333334 z m -30.855586,-6.47146 c 1.076373,-0.556614 1.352075,-1.046319 1.28086,-2.275083 -0.05905,-1.018904 -0.122225,-1.145436 -0.661112,-1.324152 -0.860535,-0.285387 -1.644179,-0.03625 -1.644179,0.522708 0,0.251452 -0.158257,0.959235 -0.351682,1.572851 -0.193425,0.613616 -0.29244,1.270054 -0.22003,1.45875 0.162054,0.422303 0.830018,0.441104 1.596143,0.04493 z M 30.778951,5.1869072 c 0,-0.4434671 0.122984,-0.767492 0.32,-0.8430937 0.61591,-0.2363473 0.312776,-0.5289715 -0.48,-0.4633581 -0.795469,0.065836 -0.800374,0.072099 -0.866093,1.1057717 -0.03635,0.5717583 -0.01035,1.1848258 0.05778,1.3623723 0.219996,0.5733004 0.968312,-0.3244604 0.968313,-1.1616922 z"
       id="path2832"
       inkscape:connector-curvature="0" />
    <path
       style="fill:#ac9978;stroke-width:0.21333332"
       d="m 28.013611,127.85006 c -0.74519,-0.0568 -1.060892,-0.15339 -0.875639,-0.26788 0.192172,-0.11877 -0.133705,-0.25863 -0.967992,-0.41545 -5.316239,-0.99926 -8.410894,-1.91848 -12.457696,-3.70038 -2.140466,-0.9425 -2.765499,-1.30155 -3.9809157,-2.28682 -0.1361704,-0.11038 -0.3037205,-0.94894 -0.3723334,-1.86345 -0.068613,-0.91451 -0.2217461,-2.62275 -0.3402961,-3.79608 -0.1185502,-1.17334 -0.2150001,-3.11167 -0.2143332,-4.30741 6.805e-4,-1.22065 -0.092344,-2.2319 -0.2121212,-2.30593 -0.1178283,-0.0728 -0.2110287,-1.00963 -0.2081854,-2.09259 0.00283,-1.0784 -0.1384857,-4.12074 -0.3140384,-6.76074 C 7.894508,97.413332 7.6462865,93.573332 7.5184574,91.519999 7.3906281,89.466665 7.0983813,85.356884 6.86902,82.38715 6.6396587,79.417415 6.263238,73.945415 6.03253,70.22715 5.5933362,63.148773 5.0461076,55.125023 4.7939896,52.067029 L 4.6456178,50.267391 3.4722845,49.665522 C 2.8269512,49.334495 1.9296485,48.750421 1.4782786,48.367579 0.80210884,47.794069 0.63813184,47.49873 0.54700651,46.690269 0.44466686,45.782314 0.49799081,45.640548 1.2610124,44.792021 c 1.05792,-1.176474 2.3531565,-1.9958 4.0452266,-2.558885 1.1714123,-0.389819 1.4312808,-0.578434 1.9941365,-1.447351 0.3559576,-0.549515 1.0364853,-1.527119 1.5122837,-2.172452 0.4757986,-0.645334 1.0975716,-1.509334 1.3817178,-1.92 1.118732,-1.616862 3.706728,-4.965818 5.333113,-6.901229 1.270302,-1.511669 1.784523,-2.15751 3.138091,-3.94132 0.38502,-0.507401 1.156028,-1.428668 1.713352,-2.04726 1.719433,-1.908454 5.259834,-6.797219 5.574,-7.696858 0.604463,-1.730926 0.80778,-3.722731 0.92848,-9.0959064 l 0.123569,-5.5008629 0.553651,-0.51882779 c 0.882984,-0.82744775 2.31597,-0.99147154679 8.617485,-0.98638368 5.37274,0.00433797 5.873702,0.03683088 6.758997,0.43839685 1.428804,0.64809962 1.710502,0.98232042 1.710502,2.02942732 0,1.205597 0.292064,1.9225286 0.841762,2.0662779 0.278424,0.072809 1.273203,-0.2591389 2.629703,-0.877505 L 50.29895,2.6666666 h 3.208681 c 2.99824,0 3.278067,0.034978 4.266666,0.5333333 2.314121,1.1665536 4.621265,2.8593978 6.204709,4.552641 2.811814,3.0067931 3.398203,4.9259831 3.230385,10.5727001 -0.0902,3.035096 -0.158533,3.503288 -0.776412,5.319766 -0.716956,2.107752 -1.063435,2.816418 -2.331872,4.769467 -0.433852,0.668018 -1.309749,2.060018 -1.946438,3.093334 -0.636687,1.033318 -1.524687,2.284614 -1.973334,2.780659 -0.448644,0.496045 -0.815718,1.001498 -0.815718,1.12323 0,0.121732 0.552,0.917871 1.226667,1.769199 1.043628,1.3169 2.249088,3.091244 3.381166,4.976823 0.16498,0.274788 0.672468,0.551518 1.298183,0.707893 1.193807,0.298351 2.816497,1.256241 3.970931,2.344081 0.445653,0.419947 0.877653,0.76354 0.96,0.76354 0.194099,0 0.04635,5.939466 -0.151251,6.08 -0.346432,0.246387 -0.675219,3.914508 -0.87961,9.813333 -0.119934,3.461333 -0.356706,10.373333 -0.526163,15.359999 -0.169455,4.986667 -0.407413,11.322667 -0.528794,14.08 -0.298063,6.770912 -1.439573,20.518645 -1.825668,21.987325 -0.171669,0.65304 -0.316341,1.46904 -0.321491,1.81334 -0.04588,3.0674 -4.395492,6.87718 -10.577817,9.265 -3.572532,1.37983 -10.059569,2.98767 -12.054146,2.98767 -0.317048,0 -0.616397,0.12 -0.665219,0.26666 -0.06828,0.20514 -1.635232,0.27193 -6.79111,0.28946 -3.686289,0.0125 -7.226747,-0.0172 -7.867684,-0.0661 z m -6.19466,-79.55923 c 0,-0.192042 1.056,-5.306308 2.346666,-11.365034 2.319284,-10.88732 2.531945,-12.034893 2.156152,-11.63513 -0.185009,0.196811 -11.530779,20.175014 -12.274663,21.613845 -0.269916,0.522076 -0.307131,0.781846 -0.136461,0.952517 0.275557,0.275556 3.8883,0.710589 6.254973,0.753203 1.400917,0.02522 1.653333,-0.02354 1.653333,-0.319401 z m 34.59547,-18.797497 c 0.591915,-0.64074 2.752092,-4.159435 3.699859,-6.026667 0.870217,-1.714451 1.17129,-3.016223 1.316973,-5.694285 0.125816,-2.31285 0.111025,-2.426419 -0.472294,-3.626666 -1.371616,-2.82226 -4.821045,-5.4959997 -7.033342,-5.4517217 -1.457128,0.029164 -4.43286,1.1948279 -5.491311,2.1510757 -1.407772,1.271837 -1.907356,2.541722 -2.031658,5.164242 -0.129737,2.737179 -0.01459,3.039194 2.123097,5.569217 0.827874,0.97981 1.949521,2.396177 2.492548,3.147481 0.54303,0.751305 1.278336,1.711305 1.634016,2.133334 0.35568,0.422028 1.063356,1.319323 1.57261,1.99399 C 54.734174,29.528 55.313201,30.08 55.511648,30.08 c 0.198445,0 0.604693,-0.264 0.902773,-0.586667 z M 58.962451,29.28 c 1.788762,-2.906718 2.702773,-4.660886 2.523281,-4.842667 -0.126389,-0.128 -0.270656,-0.128 -0.391584,0 -0.311499,0.329715 -2.795198,5.122283 -2.795198,5.393638 0,0.411087 0.14614,0.289733 0.663501,-0.550971 z M 29.985803,19.331745 c 1.264521,-0.543255 1.646481,-1.089335 1.646481,-2.353934 0,-1.24648 -0.17369,-1.491681 -1.214155,-1.714046 -0.885124,-0.189166 -1.559178,0.175253 -1.559178,0.842952 0,0.285104 -0.152762,0.968319 -0.339469,1.518254 -0.257195,0.75755 -0.284156,1.121282 -0.111241,1.500788 0.262174,0.575406 0.611499,0.621019 1.577562,0.205986 z M 64.510624,10.705636 C 64.142189,10.13148 63.637135,9.47983 63.388279,9.2575248 L 62.935818,8.8533332 63.38052,9.7315134 c 0.505865,0.9989616 1.531239,2.2867886 1.692421,2.1256076 0.05916,-0.05916 -0.193882,-0.577329 -0.562317,-1.151485 z M 62.032284,7.6799999 C 61.454438,7.0933332 60.933655,6.6133332 60.874989,6.6133332 c -0.05867,0 0.366116,0.48 0.943961,1.0666667 0.577846,0.5866666 1.098628,1.0666666 1.157295,1.0666666 0.05867,0 -0.366116,-0.48 -0.943961,-1.0666666 z M 30.784877,6.1755929 c 0.114074,-0.2131488 0.207407,-0.6839126 0.207407,-1.0461417 0,-0.495482 0.132092,-0.7187835 0.533333,-0.9016015 0.846823,-0.3858376 0.625748,-0.6011831 -0.617175,-0.6011831 -1.312745,0 -1.409491,0.1154127 -1.409491,1.6814479 0,1.4378103 0.720552,1.9238903 1.285926,0.8674784 z m 6.777536,-5.053983 c -0.903761,-0.039889 -2.439761,-0.04011 -3.413333,-4.907e-4 -0.97357,0.039619 -0.234129,0.072256 1.643204,0.072526 1.877333,2.71e-4 2.673892,-0.032146 1.770129,-0.072035 z"
       id="path2830"
       inkscape:connector-curvature="0" />
    <path
       style="fill:#95938a;stroke-width:0.21333332"
       d="m 28.013611,127.85006 c -0.74519,-0.0568 -1.060892,-0.15339 -0.875639,-0.26788 0.192172,-0.11877 -0.133705,-0.25863 -0.967992,-0.41545 -5.316239,-0.99926 -8.410894,-1.91848 -12.457696,-3.70038 -2.140466,-0.9425 -2.765499,-1.30155 -3.9809157,-2.28682 -0.1361704,-0.11038 -0.3037205,-0.94894 -0.3723334,-1.86345 -0.068613,-0.91451 -0.2217461,-2.62275 -0.3402961,-3.79608 -0.1185502,-1.17334 -0.2150001,-3.11167 -0.2143332,-4.30741 6.805e-4,-1.22065 -0.092344,-2.2319 -0.2121212,-2.30593 -0.1178283,-0.0728 -0.2110287,-1.00963 -0.2081854,-2.09259 0.00283,-1.0784 -0.1384857,-4.12074 -0.3140384,-6.76074 C 7.894508,97.413332 7.6462865,93.573332 7.5184574,91.519999 7.3906281,89.466665 7.0988655,85.363045 6.8700961,82.400841 6.6413264,79.43864 6.2613494,73.91864 6.0257025,70.134175 5.6393082,63.928726 5.2602147,58.276867 4.8387254,52.437678 L 4.6893799,50.36869 5.7341656,50.657414 c 0.5746319,0.158796 1.6207855,0.488599 2.3247855,0.732893 0.704,0.244295 2.9119999,0.777018 4.9066669,1.183828 3.027128,0.617382 4.473074,0.785356 8.746666,1.016093 12.153158,0.656169 32.513557,-0.05539 38.613333,-1.349459 4.07056,-0.863573 7.254014,-2.105489 8.73879,-3.409139 0.659044,-0.578649 0.754957,-0.787951 0.757809,-1.65373 0.0035,-1.072373 0.264162,-1.741478 0.518217,-1.330411 0.182803,0.295783 -0.09974,6.205844 -0.296687,6.205844 -0.314609,0 -0.673709,4.064782 -0.876376,9.919999 -0.117775,3.402667 -0.352691,10.266667 -0.522033,15.253333 -0.169344,4.986667 -0.40721,11.322667 -0.528591,14.08 -0.298063,6.770912 -1.439573,20.518645 -1.825668,21.987325 -0.171669,0.65304 -0.316341,1.46904 -0.321491,1.81334 -0.04588,3.0674 -4.395492,6.87718 -10.577817,9.265 -3.572532,1.37983 -10.059569,2.98767 -12.054146,2.98767 -0.317048,0 -0.616397,0.12 -0.665219,0.26666 -0.06828,0.20514 -1.635232,0.27193 -6.79111,0.28946 -3.686289,0.0125 -7.226747,-0.0172 -7.867684,-0.0661 z M 26.832284,49.279999 c -0.07252,-0.117333 -0.983932,-0.213333 -2.025369,-0.213333 -2.088557,0 -2.987964,-0.231945 -2.987964,-0.770556 0,-0.194946 1.056,-5.311588 2.346666,-11.370314 2.319284,-10.88732 2.531945,-12.034893 2.156152,-11.63513 -0.20566,0.218778 -11.642947,20.379599 -12.371006,21.806711 l -0.440372,0.8632 -1.339053,-0.114472 c -0.73648,-0.06296 -1.675054,-0.254942 -2.08572,-0.426628 C 9.674951,47.247792 8.8969722,46.97262 8.3567757,46.807982 7.8165792,46.643344 6.9285793,46.11604 6.3834424,45.636191 5.526831,44.882171 5.3922844,44.652247 5.3922844,43.942423 c 0,-1.098407 0.3092768,-1.849747 0.8293658,-2.014816 0.2349271,-0.07456 0.719366,-0.586778 1.0765308,-1.138255 0.3571645,-0.551477 1.0386798,-1.530686 1.5144782,-2.176019 0.4757986,-0.645334 1.0975716,-1.509334 1.3817178,-1.92 1.118732,-1.616862 3.706728,-4.965818 5.333113,-6.901229 1.270302,-1.511669 1.784523,-2.15751 3.138091,-3.94132 0.38502,-0.507401 1.156028,-1.428668 1.713352,-2.04726 1.719433,-1.908454 5.259834,-6.797219 5.574,-7.696858 0.604463,-1.730926 0.80778,-3.722731 0.92848,-9.0959064 l 0.123569,-5.5008629 0.553651,-0.51882779 c 0.882984,-0.82744775 2.31597,-0.99147154679 8.617485,-0.98638368 5.37274,0.00433797 5.873702,0.03683088 6.758997,0.43839685 1.412109,0.64052632 1.710069,0.98658212 1.713414,1.98998202 0.008,2.3889087 0.519533,2.5722468 3.450146,1.2364817 L 50.29895,2.6666666 h 3.208681 c 2.99824,0 3.278067,0.034978 4.266666,0.5333333 2.314121,1.1665536 4.621265,2.8593978 6.204709,4.552641 2.811814,3.0067931 3.398203,4.9259831 3.230385,10.5727001 -0.0902,3.035096 -0.158533,3.503288 -0.776412,5.319766 -0.716956,2.107752 -1.063435,2.816418 -2.331872,4.769467 -0.433852,0.668018 -1.309749,2.060018 -1.946438,3.093334 -0.636687,1.033318 -1.524687,2.284614 -1.973334,2.780659 -0.448644,0.496045 -0.815718,1.005165 -0.815718,1.131379 0,0.126215 0.516657,0.872361 1.148126,1.658101 0.631471,0.785741 1.631456,2.196619 2.222193,3.135286 0.590737,0.938666 1.29808,1.943404 1.571874,2.232748 1.629286,1.721831 1.271729,2.99823 -1.102193,3.934575 -0.528,0.208258 -1.248,0.51058 -1.6,0.671825 -0.352,0.161246 -1.242148,0.357046 -1.978108,0.435109 -0.735957,0.07806 -1.389623,0.22529 -1.452589,0.327172 -0.06297,0.101879 -0.487153,0.185237 -0.942636,0.185237 -0.455484,0 -0.887484,0.096 -0.96,0.213334 -0.07252,0.117333 -0.442983,0.213333 -0.823258,0.213333 -0.380275,0 -0.796188,0.104779 -0.924252,0.232843 -0.148303,0.148303 -2.102907,0.276292 -5.383505,0.352516 -2.832866,0.06582 -5.200951,0.201041 -5.262414,0.30049 -0.163109,0.263915 -16.883076,0.232022 -17.046571,-0.03252 z M 56.414421,29.493333 c 0.591915,-0.64074 2.752092,-4.159435 3.699859,-6.026667 0.870217,-1.714451 1.17129,-3.016223 1.316973,-5.694285 0.125816,-2.31285 0.111025,-2.426419 -0.472294,-3.626666 -1.371616,-2.82226 -4.821045,-5.4959997 -7.033342,-5.4517217 -1.457128,0.029164 -4.43286,1.1948279 -5.491311,2.1510757 -1.407772,1.271837 -1.907356,2.541722 -2.031658,5.164242 -0.129737,2.737179 -0.01459,3.039194 2.123097,5.569217 0.827874,0.97981 1.949521,2.396177 2.492548,3.147481 0.54303,0.751305 1.278336,1.711305 1.634016,2.133334 0.35568,0.422028 1.063356,1.319323 1.57261,1.99399 C 54.734174,29.528 55.313201,30.08 55.511648,30.08 c 0.198445,0 0.604693,-0.264 0.902773,-0.586667 z M 58.962451,29.28 c 1.788762,-2.906718 2.702773,-4.660886 2.523281,-4.842667 -0.126389,-0.128 -0.270656,-0.128 -0.391584,0 -0.311499,0.329715 -2.795198,5.122283 -2.795198,5.393638 0,0.411087 0.14614,0.289733 0.663501,-0.550971 z M 29.985803,19.331745 c 1.264521,-0.543255 1.646481,-1.089335 1.646481,-2.353934 0,-1.24648 -0.17369,-1.491681 -1.214155,-1.714046 -0.885124,-0.189166 -1.559178,0.175253 -1.559178,0.842952 0,0.285104 -0.152762,0.968319 -0.339469,1.518254 -0.257195,0.75755 -0.284156,1.121282 -0.111241,1.500788 0.262174,0.575406 0.611499,0.621019 1.577562,0.205986 z M 64.510624,10.705636 C 64.142189,10.13148 63.637135,9.47983 63.388279,9.2575248 L 62.935818,8.8533332 63.38052,9.7315134 c 0.505865,0.9989616 1.531239,2.2867886 1.692421,2.1256076 0.05916,-0.05916 -0.193882,-0.577329 -0.562317,-1.151485 z M 62.032284,7.6799999 C 61.454438,7.0933332 60.933655,6.6133332 60.874989,6.6133332 c -0.05867,0 0.366116,0.48 0.943961,1.0666667 0.577846,0.5866666 1.098628,1.0666666 1.157295,1.0666666 0.05867,0 -0.366116,-0.48 -0.943961,-1.0666666 z M 30.784877,6.1755929 c 0.114074,-0.2131488 0.207407,-0.6839126 0.207407,-1.0461417 0,-0.495482 0.132092,-0.7187835 0.533333,-0.9016015 0.846823,-0.3858376 0.625748,-0.6011831 -0.617175,-0.6011831 -1.312745,0 -1.409491,0.1154127 -1.409491,1.6814479 0,1.4378103 0.720552,1.9238903 1.285926,0.8674784 z m 6.777536,-5.053983 c -0.903761,-0.039889 -2.439761,-0.04011 -3.413333,-4.907e-4 -0.97357,0.039619 -0.234129,0.072256 1.643204,0.072526 1.877333,2.71e-4 2.673892,-0.032146 1.770129,-0.072035 z"
       id="path2828"
       inkscape:connector-curvature="0" />
    <path
       style="fill:#99907e;stroke-width:0.21333332"
       d="m 28.005617,127.78666 -1.173333,-0.14378 1.173333,-0.0661 1.173334,-0.0661 -1.173334,-0.15803 c -2.390929,-0.32202 -6.054764,-1.08987 -8.213333,-1.72133 -3.085714,-0.90267 -7.791067,-2.88906 -9.205849,-3.88629 l -0.8919452,-0.6287 -0.12872,-2.05146 c -0.070796,-1.1283 -0.2227921,-2.87396 -0.3377694,-3.87924 -0.114977,-1.00528 -0.2090493,-2.84761 -0.2090493,-4.09408 0,-1.28074 -0.092773,-2.32363 -0.2133334,-2.39814 C 8.6877895,108.62051 8.594589,107.6837 8.5974323,106.60074 8.6002639,105.52233 8.4589466,102.48 8.283394,99.839998 8.1078413,97.199998 7.8596199,93.359999 7.7317908,91.306665 7.6039614,89.253332 7.3117146,85.143551 7.0823533,82.173816 6.8529921,79.204082 6.4765714,73.732082 6.2458633,70.013817 5.6874452,61.013934 5.2054151,54.017889 5.0068758,52.031509 l -0.162102,-1.621827 0.9670887,0.268227 c 0.5318986,0.147526 1.5430886,0.468104 2.2470886,0.712398 0.704,0.244295 2.9119999,0.777018 4.9066669,1.183828 3.027128,0.617382 4.473074,0.785356 8.746666,1.016093 12.153158,0.656169 32.513557,-0.05539 38.613333,-1.349459 4.07056,-0.863573 7.254014,-2.105489 8.73879,-3.409139 0.659044,-0.578649 0.754957,-0.787951 0.757809,-1.65373 0.0035,-1.072373 0.264162,-1.741478 0.518217,-1.330411 0.186634,0.301982 -0.102678,6.226166 -0.298159,6.105351 -0.306603,-0.189491 -0.669811,3.881871 -0.874904,9.807159 -0.117775,3.402667 -0.352691,10.266667 -0.522033,15.253333 -0.169344,4.986667 -0.40721,11.322667 -0.528591,14.08 -0.298063,6.770912 -1.439573,20.518638 -1.825668,21.987328 -0.171669,0.65303 -0.316341,1.46903 -0.321491,1.81333 -0.01459,0.97586 -0.468681,2.02499 -1.453338,3.35788 -2.154632,2.91661 -6.877036,5.55122 -13.39933,7.47543 -2.530225,0.74646 -6.885136,1.6327 -8.022997,1.6327 -0.333751,0 -0.555575,0.0829 -0.492943,0.18425 0.06263,0.10134 -0.387703,0.24451 -1.000742,0.31815 -1.433015,0.17214 -12.054814,0.11296 -13.59462,-0.0757 z m -1.184,-78.48867 C 26.710151,49.190553 25.639555,49.070553 24.442513,49.031323 23.132472,48.988392 22.164899,48.858647 22.011909,48.705394 21.8152,48.508347 22.298639,45.903978 24.150321,37.185395 25.466243,30.989427 26.594422,25.704 26.657387,25.44 c 0.06297,-0.264 0.01997,-0.48 -0.09557,-0.48 -0.204751,0 -12.425465,21.391291 -12.832835,22.462756 -0.196424,0.516633 -0.260938,0.534269 -1.550822,0.423968 -0.74023,-0.0633 -1.681873,-0.255561 -2.092539,-0.427247 C 9.674951,47.247792 8.8969722,46.97262 8.3567757,46.807982 7.8165792,46.643344 6.9285793,46.11604 6.3834424,45.636191 5.4936041,44.852923 5.3938172,44.672908 5.4072786,43.875201 5.4270418,42.704076 5.6158326,42.273943 6.24854,41.958504 6.5364521,41.814965 7.1095768,41.20308 7.5221504,40.598764 9.9276324,37.075332 14.349216,31.190818 16.147214,29.12 c 0.971206,-1.118573 1.855937,-2.244549 3.418032,-4.350048 0.227129,-0.30614 0.899129,-1.092133 1.493333,-1.74665 2.237513,-2.464624 4.958343,-6.276317 5.13603,-7.195218 0.06113,-0.316113 0.21215,-1.006751 0.335608,-1.534751 0.123458,-0.528 0.281438,-3.598895 0.351068,-6.8242103 l 0.1266,-5.8642106 0.562138,-0.5621387 C 28.452674,0.16012138 29.77101,0 36.155533,0 c 5.735253,0 5.791473,0.00436397 6.917261,0.53694713 1.334841,0.63148097 1.572823,0.99502037 1.572823,2.40263067 0,1.0988648 0.422963,1.7537555 1.13267,1.7537555 0.193822,0 1.146263,-0.3749353 2.116535,-0.8331891 2.643798,-1.2486533 3.174987,-1.3571241 6.154629,-1.2568013 2.576347,0.086744 2.69073,0.111251 4.142833,0.8876047 2.569429,1.3737226 4.36449,2.7178854 5.922069,4.434514 2.603607,2.8694674 3.266716,5.0991394 3.094174,10.4040254 -0.09034,2.777759 -0.17334,3.323172 -0.775819,5.098395 -0.716017,2.109773 -1.270042,3.241026 -2.544593,5.195766 -0.434042,0.665674 -1.346556,2.116878 -2.027812,3.224898 -0.681255,1.108021 -1.521255,2.285339 -1.866667,2.616264 -0.34541,0.330925 -0.628019,0.745747 -0.628019,0.921826 0,0.176079 0.418716,0.854119 0.930479,1.506752 1.090257,1.390368 3.549521,5.100952 3.549521,5.355582 0,0.09659 0.193054,0.236883 0.429007,0.311772 0.501749,0.159249 1.064326,1.147025 1.064326,1.868751 0,0.641307 -0.900471,1.464885 -2.133333,1.951163 -0.528,0.208258 -1.248,0.51058 -1.6,0.671825 -0.352,0.161246 -1.242148,0.357046 -1.978108,0.435109 -0.735957,0.07806 -1.389623,0.22529 -1.452589,0.327172 -0.06297,0.101879 -0.487153,0.185237 -0.942636,0.185237 -0.455484,0 -0.887484,0.096 -0.96,0.213334 -0.07252,0.117333 -0.442983,0.213333 -0.823258,0.213333 -0.380275,0 -0.796188,0.104779 -0.924252,0.232843 -0.148303,0.148303 -2.102907,0.276292 -5.383505,0.352516 -2.832866,0.06582 -5.200951,0.201041 -5.262414,0.30049 -0.15269,0.247055 -16.800557,0.232879 -17.057238,-0.01453 z M 58.870965,29.6 c 0.317553,-0.498667 0.774759,-1.257312 1.016011,-1.685878 0.241252,-0.428567 0.757088,-1.326534 1.1463,-1.995483 0.768881,-1.321502 0.797472,-2.246405 0.04568,-1.477739 -0.497739,0.508909 -2.993338,5.296023 -2.993338,5.741886 0,0.512416 0.166692,0.388719 0.785347,-0.582786 z m -2.256631,-0.301641 c 0.569348,-0.620241 2.730871,-4.115356 3.606558,-5.831693 0.782033,-1.532778 1.076578,-2.914398 1.211737,-5.683896 0.117747,-2.412664 0.09243,-2.661713 -0.368627,-3.626666 -0.648924,-1.358138 -3.44023,-4.2361438 -4.791718,-4.9405515 -2.803851,-1.461393 -7.684561,0.3556855 -9.341389,3.4777805 -0.362835,0.683723 -0.469922,1.330434 -0.538763,3.253697 -0.04726,1.3202 -0.03017,2.622482 0.03797,2.89396 0.06814,0.271479 0.731079,1.207315 1.473203,2.079637 0.742127,0.872322 1.853001,2.258039 2.468608,3.079373 1.317363,1.7576 2.524024,3.302357 3.936745,5.039784 1.124648,1.383142 1.259501,1.398266 2.305681,0.258575 z M 30.890375,18.861908 c 0.750839,-0.572694 0.759189,-0.59648 0.697589,-1.987203 l -0.06235,-1.40757 -0.932721,-0.196041 c -0.595475,-0.125159 -1.053698,-0.119732 -1.267306,0.01501 -0.296937,0.187302 -0.686661,1.357127 -1.038038,3.115851 -0.268207,1.342433 1.123416,1.588352 2.602823,0.459954 z m 34.229104,-7.251383 c -0.525325,-1.381712 -4.016196,-5.4238584 -4.684143,-5.4238584 -0.171385,0 0.324205,0.648 1.101312,1.4399999 0.777108,0.792 1.609944,1.835181 1.850748,2.3181803 0.798688,1.6019832 2.231874,2.9802242 1.732083,1.6656782 z M 30.602153,6.4736025 c 0.228804,-0.2070656 0.390131,-0.646118 0.390131,-1.0617487 0,-0.5205205 0.141606,-0.8014686 0.533333,-1.058138 0.839277,-0.5499149 0.632984,-0.753539 -0.693333,-0.684362 l -1.226667,0.063979 -0.06486,1.2561126 c -0.09576,1.8544823 0.198118,2.2654088 1.061393,1.4841566 z M 58.418176,5.0065486 c -0.227759,-0.1722686 -0.515759,-0.3101621 -0.64,-0.3064307 -0.124241,0.00373 -0.03954,0.1477316 0.188215,0.32 0.227759,0.1722686 0.515759,0.3101621 0.64,0.3064307 0.124241,-0.00373 0.03954,-0.1477316 -0.188215,-0.32 z m -28.313201,-3.35124 c 0.404495,-0.4044955 10.9318,-0.3764767 11.422057,0.0304 0.489258,0.4060495 0.726634,0.097579 0.273561,-0.3554947 C 41.47322,1.0028408 40.851204,0.96428532 35.946624,0.96735634 30.529986,0.970748 29.498951,1.09017 29.498951,1.7141725 c 0,0.2854147 0.289905,0.2572559 0.606024,-0.058864 z"
       id="path2826"
       inkscape:connector-curvature="0" />
    <path
       style="fill:#88826c;stroke-width:0.21333332"
       d="m 36.64732,115.68 c -0.0615,-6.776 -0.159842,-23.353838 -0.218548,-36.839639 -0.08516,-19.56321 -0.05247,-24.554086 0.161722,-24.690066 0.14765,-0.09374 1.708457,-0.171119 3.468457,-0.171962 5.993672,-0.0029 17.824964,-0.874447 20.373333,-1.500845 4.31335,-1.060234 7.128838,-2.137073 8.679037,-3.319466 l 0.707629,-0.539736 v 1.476245 c 0,0.811934 -0.137749,2.280822 -0.306112,3.26419 -0.296006,1.728924 -0.418846,4.443469 -1.080087,23.867944 -0.169756,4.986667 -0.407958,11.322667 -0.529338,14.08 -0.298063,6.770912 -1.439573,20.518645 -1.825668,21.987325 -0.171669,0.65304 -0.312664,1.42104 -0.313319,1.70667 -0.0055,2.38601 -2.459387,5.14658 -6.563558,7.38377 -4.324064,2.35705 -9.441992,3.86505 -16.795251,4.94875 -1.173779,0.17298 -1.209186,0.19299 -0.426666,0.2411 l 0.853333,0.0525 -0.96,0.17081 c -0.528,0.0939 -1.89446,0.17794 -3.036576,0.18664 L 36.759132,128 Z M 70.064682,48.863999 c -0.02349,-2.390152 0.03187,-3.231729 0.201455,-3.062146 0.166761,0.166761 0.176056,1.112405 0.0324,3.296 l -0.201457,3.062146 z m -43.552398,0.205316 c -0.176,-0.115195 -1.184,-0.21239 -2.24,-0.215982 -1.056,-0.0036 -2.0546,-0.09175 -2.21911,-0.195909 -0.248043,-0.157043 0.109687,-2.11418 2.095311,-11.4634 C 25.465415,30.993312 26.594422,25.704 26.657387,25.44 c 0.06297,-0.264 0.01916,-0.48 -0.09736,-0.48 -0.116512,0 -3.120768,5.140053 -6.676122,11.422342 L 13.419626,47.804684 11.912622,47.665467 C 11.08377,47.588895 10.213618,47.407577 9.978951,47.262536 9.7442844,47.117497 9.0617924,46.836861 8.4623023,46.638905 7.862812,46.440949 6.9642915,45.929725 6.4655898,45.502856 5.5760274,44.741424 5.5606352,44.70532 5.6526343,43.595931 5.7283171,42.683295 5.857602,42.37767 6.322755,42.01178 c 0.3169903,-0.249344 0.9031484,-0.948 1.3025735,-1.552568 1.7127656,-2.592431 6.6405585,-9.152862 8.4371995,-11.232546 1.047009,-1.211955 1.910666,-2.310837 3.502718,-4.456714 0.227129,-0.30614 0.899129,-1.092133 1.493333,-1.74665 2.237513,-2.464624 4.958343,-6.276317 5.13603,-7.195218 0.06113,-0.316113 0.21215,-1.006751 0.335608,-1.534751 0.123458,-0.528 0.281438,-3.598895 0.351068,-6.8242103 l 0.1266,-5.8642106 0.562138,-0.5621387 C 28.452674,0.16012138 29.77101,0 36.155533,0 c 5.735253,0 5.791473,0.00436397 6.917261,0.53694713 1.334841,0.63148097 1.572823,0.99502037 1.572823,2.40263067 0,1.0988648 0.422963,1.7537555 1.13267,1.7537555 0.193822,0 1.146263,-0.3749353 2.116535,-0.8331891 2.643798,-1.2486533 3.174987,-1.3571241 6.154629,-1.2568013 2.576347,0.086744 2.69073,0.111251 4.142833,0.8876047 2.569429,1.3737226 4.36449,2.7178854 5.922069,4.434514 2.603607,2.8694674 3.266716,5.0991394 3.094174,10.4040254 -0.09034,2.777759 -0.17334,3.323172 -0.775819,5.098395 -0.716017,2.109773 -1.270042,3.241026 -2.544593,5.195766 -0.434042,0.665674 -1.346556,2.116878 -2.027812,3.224898 -0.681255,1.108021 -1.521255,2.285339 -1.866667,2.616264 -0.34541,0.330925 -0.628019,0.745747 -0.628019,0.921826 0,0.176079 0.418716,0.854119 0.930479,1.506752 0.511765,0.652636 1.518558,2.098611 2.237318,3.213278 0.718759,1.114667 1.488568,2.218667 1.710682,2.453333 0.99597,1.052252 1.143383,2.132954 0.387772,2.842814 -0.271563,0.255119 -0.559307,0.463853 -0.639431,0.463853 -0.08013,0 -0.745937,0.280403 -1.479584,0.623119 -0.733647,0.342716 -1.909903,0.722957 -2.613903,0.844977 -0.704,0.122022 -1.712,0.316369 -2.24,0.431883 -0.528,0.115513 -1.351398,0.295347 -1.829772,0.399631 -0.478377,0.104283 -0.987318,0.262252 -1.130981,0.35104 -0.715402,0.442144 -27.550811,0.967694 -28.185913,0.551999 z M 58.870965,29.6 c 0.317553,-0.498667 0.774759,-1.257312 1.016011,-1.685878 0.241252,-0.428567 0.757088,-1.326534 1.1463,-1.995483 0.768881,-1.321502 0.797472,-2.246405 0.04568,-1.477739 -0.497739,0.508909 -2.993338,5.296023 -2.993338,5.741886 0,0.512416 0.166692,0.388719 0.785347,-0.582786 z m -2.256631,-0.301641 c 0.569348,-0.620241 2.730871,-4.115356 3.606558,-5.831693 0.782033,-1.532778 1.076578,-2.914398 1.211737,-5.683896 0.117747,-2.412664 0.09243,-2.661713 -0.368627,-3.626666 -0.648924,-1.358138 -3.44023,-4.2361438 -4.791718,-4.9405515 -2.803851,-1.461393 -7.684561,0.3556855 -9.341389,3.4777805 -0.362835,0.683723 -0.469922,1.330434 -0.538763,3.253697 -0.04726,1.3202 -0.03017,2.622482 0.03797,2.89396 0.06814,0.271479 0.731079,1.207315 1.473203,2.079637 0.742127,0.872322 1.853001,2.258039 2.468608,3.079373 1.317363,1.7576 2.524024,3.302357 3.936745,5.039784 1.124648,1.383142 1.259501,1.398266 2.305681,0.258575 z M 30.890375,18.861908 c 0.750839,-0.572694 0.759189,-0.59648 0.697589,-1.987203 l -0.06235,-1.40757 -0.932721,-0.196041 c -0.595475,-0.125159 -1.053698,-0.119732 -1.267306,0.01501 -0.296937,0.187302 -0.686661,1.357127 -1.038038,3.115851 -0.268207,1.342433 1.123416,1.588352 2.602823,0.459954 z m 34.229104,-7.251383 c -0.525325,-1.381712 -4.016196,-5.4238584 -4.684143,-5.4238584 -0.171385,0 0.324205,0.648 1.101312,1.4399999 0.777108,0.792 1.609944,1.835181 1.850748,2.3181803 0.798688,1.6019832 2.231874,2.9802242 1.732083,1.6656782 z M 30.602153,6.4736025 c 0.228804,-0.2070656 0.390131,-0.646118 0.390131,-1.0617487 0,-0.5205205 0.141606,-0.8014686 0.533333,-1.058138 0.839277,-0.5499149 0.632984,-0.753539 -0.693333,-0.684362 l -1.226667,0.063979 -0.06486,1.2561126 c -0.09576,1.8544823 0.198118,2.2654088 1.061393,1.4841566 z M 58.418176,5.0065486 c -0.227759,-0.1722686 -0.515759,-0.3101621 -0.64,-0.3064307 -0.124241,0.00373 -0.03954,0.1477316 0.188215,0.32 0.227759,0.1722686 0.515759,0.3101621 0.64,0.3064307 0.124241,-0.00373 0.03954,-0.1477316 -0.188215,-0.32 z m -28.313201,-3.35124 c 0.404495,-0.4044955 10.9318,-0.3764767 11.422057,0.0304 0.489258,0.4060495 0.726634,0.097579 0.273561,-0.3554947 C 41.47322,1.0028408 40.851204,0.96428532 35.946624,0.96735634 30.529986,0.970748 29.498951,1.09017 29.498951,1.7141725 c 0,0.2854147 0.289905,0.2572559 0.606024,-0.058864 z"
       id="path2824"
       inkscape:connector-curvature="0" />
    <path
       style="fill:#646564;stroke-width:0.21333332"
       d="m 27.068817,49.124795 c -0.09029,-0.09064 -1.162425,-0.214199 -2.382519,-0.274583 -1.568732,-0.07764 -2.30717,-0.202584 -2.521651,-0.426667 -0.263153,-0.274936 0.01752,-1.813508 2.120394,-11.623546 1.333033,-6.218666 2.427495,-11.434666 2.432137,-11.59111 0.0047,-0.156446 -0.09724,-0.24922 -0.2264,-0.206165 -0.129163,0.04305 -3.053687,5.067055 -6.498945,11.164443 -3.445258,6.097391 -6.357038,11.195111 -6.470622,11.328265 -0.352182,0.412862 -3.6489266,-0.09626 -3.6489266,-0.563505 0,-0.09991 -0.5262385,-0.334633 -1.1694191,-0.521611 C 7.9305052,46.185785 7.2325884,45.784157 6.6473586,45.22744 5.8216092,44.441926 5.7693515,44.324281 5.8799386,43.499792 c 0.077194,-0.575526 0.3394063,-1.118031 0.7502656,-1.552262 0.347379,-0.367142 0.8828809,-1.051531 1.1900041,-1.520864 0.3071234,-0.469333 0.9467112,-1.381333 1.421306,-2.026667 0.4745949,-0.645333 1.0953827,-1.509333 1.3795297,-1.92 1.118731,-1.616861 3.706728,-4.965817 5.333113,-6.901228 1.276362,-1.51888 1.80617,-2.184574 3.138091,-3.942944 0.38502,-0.508295 1.183818,-1.468295 1.775107,-2.133334 1.618736,-1.820635 4.041492,-4.981204 4.90856,-6.403385 0.909005,-1.49097 1.335819,-5.224733 1.361483,-11.910291 l 0.01489,-3.8778495 0.541991,-0.42632922 C 28.620542,0.15603558 30.116702,-2.1566425e-6 36.176118,4.8774305e-5 L 41.978951,9.7548611e-5 43.152284,0.61991632 44.325617,1.2397351 44.50473,2.6998675 c 0.09851,0.8030728 0.278267,1.5801324 0.399456,1.7267991 0.368727,0.4462487 1.144721,0.3045875 2.990895,-0.5460015 2.641143,-1.2168548 3.426506,-1.3797118 6.175455,-1.2805732 2.224534,0.080226 2.524487,0.1428378 3.801748,0.793568 2.538888,1.2934967 4.833002,2.9668891 6.272672,4.575467 2.496113,2.7889681 3.209678,5.1579821 3.061538,10.1642061 -0.08572,2.896759 -0.143444,3.24768 -0.908359,5.522163 -0.449252,1.335857 -1.168923,2.967857 -1.59927,3.626667 -0.430345,0.658809 -1.536017,2.397837 -2.457048,3.864503 -0.92103,1.466667 -1.992962,3.006714 -2.382067,3.422328 -0.389107,0.415613 -0.707466,0.823163 -0.707466,0.905666 0,0.0825 0.653777,1.011125 1.452838,2.063607 0.799061,1.052482 1.81616,2.516932 2.26022,3.254336 0.444057,0.737402 1.101013,1.798212 1.459902,2.357359 0.864179,1.346389 0.649646,1.86343 -1.120527,2.700591 -0.705123,0.33347 -1.428809,0.728117 -1.608192,0.876994 -0.179386,0.148875 -1.066725,0.402914 -1.971866,0.564529 -0.905139,0.161615 -2.029709,0.381764 -2.499042,0.48922 -2.178982,0.498885 -2.583607,0.601826 -2.918974,0.742624 -0.944151,0.396382 -26.77185,0.968248 -27.137826,0.600875 z M 59.893773,27.901064 c 0.928271,-1.550415 1.693184,-3.014415 1.699806,-3.253333 0.02893,-1.043689 -0.670522,-0.241118 -2.019456,2.317194 C 58.217798,29.537254 57.743641,30.72 58.068727,30.72 c 0.0755,0 0.896773,-1.268521 1.825046,-2.818936 z m -3.469737,1.592269 c 0.424423,-0.44 1.323153,-1.710142 1.997178,-2.822537 2.54196,-4.195191 3.072962,-5.882144 3.076126,-9.772628 0.0021,-2.502435 -0.308273,-3.159634 -2.604736,-5.516545 C 56.011211,8.4243839 54.420158,8.0129379 50.943121,9.3258889 49.16717,9.9965001 47.628004,11.33497 46.836399,12.897126 c -0.443904,0.876004 -0.55898,1.466723 -0.646842,3.320413 -0.12525,2.642475 -0.04067,2.875989 1.834411,5.064684 0.677468,0.790777 1.734739,2.109777 2.349493,2.93111 2.890612,3.861956 4.719736,6.08 5.013914,6.08 0.145741,0 0.612239,-0.36 1.036661,-0.8 z m -25.667534,-10.514929 0.894899,-0.648263 -0.06289,-1.431737 -0.06289,-1.431738 -0.770728,-0.190473 c -1.459825,-0.360774 -1.742091,-0.13401 -2.18538,1.755663 -0.217859,0.928704 -0.33139,1.892461 -0.252291,2.141682 0.219051,0.690167 1.341067,0.60041 2.439284,-0.195134 z M 64.666327,10.748218 C 63.577504,8.9475604 61.183966,6.4635058 59.925084,5.8276718 59.324045,5.5240998 58.603336,5.0966849 58.323513,4.8778613 58.043691,4.6590376 57.719936,4.4799999 57.60406,4.4799999 c -0.42649,0 0.344388,0.6458716 1.626946,1.3631189 1.499629,0.8386407 3.489785,2.8150434 4.162562,4.133796 0.569408,1.1161282 1.79389,2.5308982 1.904164,2.2000742 0.04545,-0.136352 -0.238682,-0.779299 -0.631405,-1.428771 z M 30.602153,6.4736025 c 0.231863,-0.2098341 0.390131,-0.6465812 0.390131,-1.0765888 0,-0.5803815 0.126328,-0.7954227 0.638534,-1.0869359 0.351194,-0.1998763 0.607772,-0.4594112 0.570176,-0.5767445 -0.08199,-0.2558722 -1.500053,-0.4002183 -2.201708,-0.2241142 -0.463657,0.1163706 -0.500335,0.2321464 -0.500335,1.5792896 0,1.8250923 0.258451,2.1495829 1.103202,1.3850938 z m 5.031025,-4.9339633 c 3.693284,-0.041379 5.528659,0.015153 5.836237,0.1797634 0.594321,0.3180709 0.981425,-0.047767 0.485798,-0.4591107 -0.524378,-0.43520596 -11.579804,-0.44205991 -12.103449,-0.0075 -0.473995,0.3933532 -0.459602,0.7651554 0.02052,0.5300361 0.205334,-0.1005534 2.797737,-0.2099866 5.760894,-0.2431851 z"
       id="path2822"
       inkscape:connector-curvature="0" />
    <path
       style="fill:#0a120f;stroke-width:0.21333332"
       d="m 26.618951,48.642468 c -0.234667,-0.102198 -1.309001,-0.192562 -2.387409,-0.200807 -1.078409,-0.0083 -2.003213,-0.087 -2.055117,-0.174995 -0.05191,-0.088 0.99463,-5.248 2.325636,-11.466667 1.331004,-6.218666 2.423808,-11.630421 2.42845,-12.02612 0.007,-0.596096 -0.04325,-0.676559 -0.293009,-0.469276 -0.165796,0.1376 -3.205928,5.382375 -6.755847,11.655057 L 13.427256,47.364537 12.023104,47.229842 C 11.25082,47.15576 10.500071,46.98443 10.354774,46.849111 10.148098,46.656626 10.593489,45.76837 12.401031,42.768204 17.254652,34.71214 19.629692,30.767552 20.618624,29.12 c 0.563429,-0.938667 1.643597,-2.714667 2.400372,-3.946667 0.756776,-1.232 1.897779,-3.114108 2.535564,-4.182461 0.637784,-1.068353 1.306185,-2.064107 1.485332,-2.212788 0.179148,-0.14868 0.327144,-0.522573 0.328879,-0.830873 0.0017,-0.308299 0.138231,-1.136545 0.303328,-1.840545 0.170446,-0.726821 0.403679,-3.715602 0.539677,-6.9157394 0.131727,-3.0996569 0.286304,-5.7114643 0.343505,-5.8040161 0.0572,-0.092552 0.241187,-0.1156331 0.408858,-0.051292 0.222182,0.085259 0.321574,0.5883207 0.3665,1.8549903 0.05285,1.4899968 0.117634,1.7487076 0.45401,1.8130056 0.618974,0.1183166 1.420968,-0.7809399 1.420968,-1.593296 0,-0.5129188 0.129274,-0.7681747 0.48,-0.9477815 0.264,-0.1351942 0.624,-0.4213796 0.8,-0.6359673 0.293547,-0.3579077 0.787324,-0.3939228 5.973334,-0.4356839 l 5.653333,-0.045524 0.106667,1.5638736 c 0.118203,1.7330291 0.456091,2.139946 0.761192,0.9167034 0.16167,-0.6481848 0.318359,-0.8219283 0.838807,-0.9301084 0.352,-0.073167 1.36,-0.4663398 2.24,-0.8737184 2.461157,-1.1393437 3.29398,-1.3067404 6.011586,-1.2083231 2.333549,0.084508 2.472696,0.1170978 4.121748,0.9653414 2.493615,1.2826728 4.151995,2.5211671 5.80366,4.3342267 2.457858,2.6980311 3.145824,4.9979641 2.997216,10.0199761 -0.08572,2.896759 -0.143443,3.24768 -0.908358,5.522163 -0.449252,1.335857 -1.168024,2.967857 -1.597269,3.626667 -1.500619,2.303157 -3.357163,5.25533 -3.616058,5.750043 -0.351368,0.67142 -1.717037,2.167793 -1.97844,2.167793 -0.115282,0 -0.535333,-0.154568 -0.933449,-0.343488 -1.539236,-0.730414 -1.878106,0.425519 -0.555509,1.894921 1.255658,1.395036 2.036842,2.810837 3.087234,5.595234 1.527385,4.048823 1.512717,4.222093 -0.379027,4.477306 -0.586667,0.07915 -1.354667,0.221102 -1.706667,0.31546 -0.352,0.09436 -1.216,0.28886 -1.92,0.43223 -0.704,0.143369 -1.543849,0.35798 -1.866332,0.476913 -1.294022,0.477244 -27.015477,1.022801 -28.000334,0.593893 z M 55.09895,31.557495 c 0,-0.243511 0.517654,-0.987008 1.151119,-1.653333 0.633116,-0.665957 1.704363,-2.120971 2.380548,-3.233366 2.542117,-4.182039 3.076888,-5.878804 3.080056,-9.772628 0.0021,-2.522655 -0.304376,-3.158043 -2.712162,-5.623781 C 55.995093,8.1986817 54.458769,7.7866608 50.93895,9.1129251 49.052416,9.823769 47.250436,11.458566 46.567019,13.079242 c -0.256843,0.609084 -0.711288,1.633079 -1.009875,2.275546 -0.49769,1.070865 -0.532067,1.328411 -0.412905,3.093333 0.15885,2.35278 0.427505,3.23325 1.528045,5.007909 0.900851,1.452654 7.666677,8.543969 8.151803,8.543969 0.151175,0 0.274863,-0.199127 0.274863,-0.442504 z m 3.6814,-1.319509 c 0.283594,-0.49756 1.114122,-1.937745 1.845621,-3.200414 C 61.975264,24.708497 62.153322,24 61.389361,24 c -0.320924,0 -0.747221,0.595296 -1.756858,2.453333 -1.561043,2.872793 -2.075505,4.119944 -1.894304,4.592145 0.177272,0.461963 0.430379,0.265847 1.042151,-0.807492 z M 30.8157,19.135813 31.738951,18.431626 V 16.842479 15.253333 L 30.72797,15.058018 c -1.524366,-0.294498 -1.945909,-0.01424 -2.265154,1.505947 -0.144305,0.687153 -0.315486,1.502343 -0.380403,1.811536 -0.32643,1.554746 1.152386,1.966105 2.733287,0.760312 z M 65.161101,11.205961 C 64.292926,9.5314827 61.373877,6.3598009 60.028755,5.6294303 59.48803,5.335828 58.638923,4.8546235 58.141852,4.5600872 57.149992,3.9723664 56.54547,4.0522775 57.126496,4.6943052 c 0.191772,0.2119042 1.086242,0.8138362 1.987712,1.3376264 1.792567,1.0415524 3.054799,2.2741144 3.995441,3.9015287 0.952604,1.6481097 2.263659,3.1308477 2.531503,2.8630047 0.16035,-0.160351 0.0195,-0.626991 -0.480051,-1.590504 z M 28.272284,2.533952 C 27.773617,2.3047321 27.365617,1.9768211 27.365617,1.8052609 c 0,-0.4574925 0.785108,-1.16526091 1.292591,-1.16526091 0.241592,0 0.387497,-0.0837485 0.324235,-0.18610771 -0.06326,-0.10235923 0.243074,-0.24530269 0.680745,-0.31765212 1.206267,-0.19940323 12.25454,-0.13255991 12.742429,0.0770932 0.234667,0.10083972 0.330667,0.19167157 0.213334,0.20184857 -0.117334,0.0101771 0.170666,0.23597862 0.64,0.50178144 0.469333,0.26580273 0.853333,0.60960783 0.853333,0.76401113 0,0.1544033 -0.410577,0.5113491 -0.912393,0.7932128 -0.910462,0.5113945 -0.926267,0.5124413 -7.466666,0.4945036 -6.028427,-0.016533 -6.627017,-0.051412 -7.460941,-0.4347389 z m 1.979951,-0.5524136 c 0.239522,-0.3275662 0.809446,-0.3651282 5.540049,-0.3651282 4.730603,0 5.300527,0.037562 5.540049,0.3651282 0.329677,0.4508599 0.619684,0.4631566 0.969939,0.041127 0.21958,-0.2645776 0.202311,-0.3975783 -0.09416,-0.7251689 -0.309062,-0.34151077 -0.82094,-0.42405718 -3.442186,-0.55509312 -4.308412,-0.21537739 -8.70173,0.0369866 -9.316988,0.53519282 -0.401702,0.3252784 -0.428213,0.4299011 -0.183618,0.7246195 0.366808,0.4419762 0.652994,0.4359803 0.98691,-0.020677 z"
       id="path2820"
       inkscape:connector-curvature="0" />
  </g>
</svg>
