<?xml version="1.0" encoding="UTF-8" standalone="no"?>
<!-- Created with Inkscape (http://www.inkscape.org/) -->

<svg
   xmlns:dc="http://purl.org/dc/elements/1.1/"
   xmlns:cc="http://creativecommons.org/ns#"
   xmlns:rdf="http://www.w3.org/1999/02/22-rdf-syntax-ns#"
   xmlns:svg="http://www.w3.org/2000/svg"
   xmlns="http://www.w3.org/2000/svg"
   xmlns:sodipodi="http://sodipodi.sourceforge.net/DTD/sodipodi-0.dtd"
   xmlns:inkscape="http://www.inkscape.org/namespaces/inkscape"
   width="12.537194"
   height="128"
   id="svg2"
   sodipodi:version="0.32"
   inkscape:version="0.92.2 (5c3e80d, 2017-08-06)"
   version="1.0"
   sodipodi:docname="recorder.svg"
   inkscape:output_extension="org.inkscape.output.svg.inkscape">
  <defs
     id="defs4" />
  <sodipodi:namedview
     id="base"
     pagecolor="#ffffff"
     bordercolor="#666666"
     borderopacity="1.0"
     gridtolerance="10000"
     guidetolerance="10"
     objecttolerance="10"
     inkscape:pageopacity="0.0"
     inkscape:pageshadow="2"
     inkscape:zoom="5.0072716"
     inkscape:cx="37.480734"
     inkscape:cy="56.255064"
     inkscape:document-units="px"
     inkscape:current-layer="layer1"
     inkscape:window-width="1920"
     inkscape:window-height="1025"
     inkscape:window-x="-8"
     inkscape:window-y="-8"
     showgrid="false"
     inkscape:window-maximized="1"
     fit-margin-top="0"
     fit-margin-left="0"
     fit-margin-right="0"
     fit-margin-bottom="0" />
  <metadata
     id="metadata7">
    <rdf:RDF>
      <cc:Work
         rdf:about="">
        <dc:format>image/svg+xml</dc:format>
        <dc:type
           rdf:resource="http://purl.org/dc/dcmitype/StillImage" />
        <dc:title></dc:title>
        <cc:license
           rdf:resource="http://creativecommons.org/publicdomain/zero/1.0/" />
      </cc:Work>
      <cc:License
         rdf:about="http://creativecommons.org/publicdomain/zero/1.0/">
        <cc:permits
           rdf:resource="http://creativecommons.org/ns#Reproduction" />
        <cc:permits
           rdf:resource="http://creativecommons.org/ns#Distribution" />
        <cc:permits
           rdf:resource="http://creativecommons.org/ns#DerivativeWorks" />
      </cc:License>
    </rdf:RDF>
  </metadata>
  <g
     inkscape:label="Layer 1"
     inkscape:groupmode="layer"
     id="layer1"
     transform="translate(-305.11607,-427.47845)">
    <g
       id="g860"
       transform="matrix(0.25832725,0,0,0.25832725,230.94552,364.51617)">
      <path
         id="path2261"
         d="m 296.11323,675.51925 c 10.39152,3.15835 20.53862,2.65057 30.54288,0 l -1.98174,-28.16153 h -26.5794 z"
         style="fill:#803300;fill-opacity:1;fill-rule:nonzero;stroke:#000000;stroke-width:1;stroke-linecap:round;stroke-miterlimit:4;stroke-dashoffset:0;stroke-opacity:1"
         inkscape:connector-curvature="0" />
      <path
         id="path2259"
         d="m 298.51218,637.86624 c 8.97194,7.61052 17.47877,6.15127 25.74498,0 l 2.08604,-193.16721 h -29.91706 z"
         style="fill:#803300;fill-opacity:1;fill-rule:nonzero;stroke:#000000;stroke-width:1;stroke-linecap:round;stroke-miterlimit:4;stroke-dashoffset:0;stroke-opacity:1"
         inkscape:connector-curvature="0" />
      <path
         id="path2257"
         d="m 329.88947,409.86218 c 0,0 -1.66883,-32.54221 -1.66883,-50.89935 0,-18.35714 0,-40.05195 5.00649,-47.56169 5.00649,-7.50974 -48.69141,-7.50974 -43.68492,0 5.00649,7.50974 5.00649,29.20455 5.00649,47.56169 0,18.35714 -1.66883,50.89935 -1.66883,50.89935"
         style="fill:#803300;fill-opacity:1;fill-rule:nonzero;stroke:#000000;stroke-width:1;stroke-linecap:round;stroke-miterlimit:4;stroke-dashoffset:0;stroke-opacity:1"
         inkscape:connector-curvature="0" />
      <path
         id="path2255"
         d="m 331.5583,301.38816 c 4.2017,-22.22709 6.97804,-40.55079 -5.00649,-57.15747 h -30.33428 c -11.98453,16.60668 -9.20819,34.93038 -5.00649,57.15747"
         style="fill:#ffe6d5;fill-opacity:1;fill-rule:nonzero;stroke:#000000;stroke-width:1;stroke-linecap:round;stroke-miterlimit:4;stroke-dashoffset:0;stroke-opacity:1"
         inkscape:connector-curvature="0" />
      <path
         id="path2253"
         d="m 293.71429,435.72907 c 7.50974,8.34416 27.83102,8.34416 35.34076,0 7.50974,-8.34416 5.84091,-20.02598 2.50325,-24.19806 -3.33766,-4.17208 -37.0096,-4.17208 -40.34726,0 -3.33766,4.17208 -5.00649,15.8539 2.50325,24.19806 z"
         style="fill:#803300;fill-opacity:1;fill-rule:nonzero;stroke:#000000;stroke-width:1;stroke-linecap:round;stroke-miterlimit:4;stroke-dashoffset:0;stroke-opacity:1"
         inkscape:connector-curvature="0" />
      <path
         id="path2170"
         d="m 301.64123,685.32363 c 0,-3.33448 19.48688,-3.33448 19.48688,0 0,3.33448 2.29375,1.94699 2.50324,5.11079 0.21412,3.23361 -2.95408,5.83996 -2.92045,10.95171 0.1043,15.64529 12.62053,24.71956 12.51623,29.30884 -0.13337,5.73506 -14.37329,8.03125 -21.84246,8.03125 -7.13589,0 -21.70909,-2.29619 -21.84246,-8.03125 -0.1043,-4.58928 12.41193,-13.66355 12.51623,-29.30884 0.0336,-5.11175 -3.13457,-7.7181 -2.92045,-10.95171 0.20949,-3.1638 2.50324,-1.77631 2.50324,-5.11079 z"
         style="fill:#803300;fill-opacity:1;fill-rule:nonzero;stroke:#000000;stroke-width:1;stroke-linecap:round;stroke-miterlimit:4;stroke-dashoffset:0;stroke-opacity:1"
         inkscape:connector-curvature="0" />
      <path
         transform="translate(-0.1634825)"
         sodipodi:nodetypes="ccsccsc"
         id="rect2196"
         d="m 293.91689,301.57309 h 35.26433 c 2.75716,0 4.97682,2.21966 4.97682,4.97682 0,2.75716 -0.43332,5.07606 -3.19048,5.07606 H 291.5351 c -2.75716,0 -2.59504,-2.3189 -2.59504,-5.07606 0,-2.75716 2.21967,-4.97682 4.97683,-4.97682 z"
         style="fill:#ffe6d5;fill-opacity:1;fill-rule:nonzero;stroke:#000000;stroke-width:1;stroke-linecap:round;stroke-miterlimit:4;stroke-dashoffset:0;stroke-opacity:1"
         inkscape:connector-curvature="0" />
      <rect
         transform="translate(-0.1643775)"
         ry="3.4126778"
         y="407.36609"
         x="290.93079"
         height="6.8253555"
         width="41.236523"
         id="rect2198"
         style="opacity:1;fill:#ffe6d5;fill-opacity:1;fill-rule:nonzero;stroke:#000000;stroke-width:1;stroke-linecap:round;stroke-miterlimit:4;stroke-dasharray:none;stroke-dashoffset:0;stroke-opacity:1" />
      <path
         transform="translate(-0.02217)"
         sodipodi:nodetypes="ccccccccc"
         id="rect2200"
         d="m 295.7654,434.38312 c 10.82982,2.81537 21.21083,2.48907 31.28288,0 1.89062,0 3.41268,1.52205 3.41268,3.41268 v 3.98145 c 0,1.89063 -1.52206,3.41268 -3.41268,3.41268 -10.00452,2.11553 -20.52226,1.66497 -31.28288,0 -1.89062,0 -3.41268,-1.52205 -3.41268,-3.41268 v -3.98145 c 0,-1.89063 1.52206,-3.41268 3.41268,-3.41268 z"
         style="fill:#ffe6d5;fill-opacity:1;fill-rule:nonzero;stroke:#000000;stroke-width:1;stroke-linecap:round;stroke-miterlimit:4;stroke-dashoffset:0;stroke-opacity:1"
         inkscape:connector-curvature="0" />
      <path
         transform="translate(0.404405)"
         sodipodi:nodetypes="ccccccccc"
         id="rect2203"
         d="m 299.46248,637.43744 c 7.67853,2.3703 15.35705,2.17826 23.03558,0 1.89062,0 3.41267,1.52205 3.41267,3.41268 v 3.69706 c 0,1.89063 -1.52205,3.41268 -3.41267,3.41268 -8.10237,1.69537 -15.68923,1.32871 -23.03558,0 -1.89062,0 -3.41268,-1.52205 -3.41268,-3.41268 v -3.69706 c 0,-1.89063 1.52206,-3.41268 3.41268,-3.41268 z"
         style="fill:#ffe6d5;fill-opacity:1;fill-rule:nonzero;stroke:#000000;stroke-width:1;stroke-linecap:round;stroke-miterlimit:4;stroke-dashoffset:0;stroke-opacity:1"
         inkscape:connector-curvature="0" />
      <path
         transform="translate(-0.164365)"
         sodipodi:nodetypes="ccccccccc"
         id="rect2206"
         d="m 298.6093,674.6925 c 8.62649,2.31601 16.11543,2.56785 25.87948,0 1.89062,0 3.41267,1.52206 3.41267,3.41268 v 2.8439 c 0,1.89062 -1.52205,3.41268 -3.41267,3.41268 -8.62649,1.92674 -17.25299,1.05 -25.87948,0 -1.89062,0 -3.41268,-1.52206 -3.41268,-3.41268 v -2.8439 c 0,-1.89062 1.52206,-3.41268 3.41268,-3.41268 z"
         style="fill:#ffe6d5;fill-opacity:1;fill-rule:nonzero;stroke:#000000;stroke-width:1;stroke-linecap:round;stroke-miterlimit:4;stroke-dashoffset:0;stroke-opacity:1"
         inkscape:connector-curvature="0" />
      <path
         id="path2249"
         d="m 304.44419,319.8958 c 0.16225,-1.71865 0.22476,-3.39069 0.0611,-4.95641 h -10e-6 13.08194 c 0.0128,1.75523 0.25014,3.64032 0.55344,5.57021"
         style="fill:#2b1100;fill-opacity:1;fill-rule:nonzero;stroke:#000000;stroke-width:1;stroke-linecap:round;stroke-miterlimit:4;stroke-dashoffset:0;stroke-opacity:1"
         inkscape:connector-curvature="0" />
      <path
         sodipodi:nodetypes="cccc"
         id="rect2209"
         d="m 318.03472,319.90943 c 1.19988,7.63484 3.5386,16.57092 -3.00703,20.34065 l -7.67854,10e-6 c -6.28314,-4.26591 -3.65678,-12.79994 -2.94026,-20.38959"
         style="fill:#ffe6d5;fill-opacity:1;fill-rule:nonzero;stroke:#000000;stroke-width:1;stroke-linecap:round;stroke-miterlimit:4;stroke-dashoffset:0;stroke-opacity:1"
         inkscape:connector-curvature="0" />
      <circle
         transform="translate(0.5465963)"
         id="path2214"
         style="opacity:1;fill:#2b1100;fill-opacity:1;fill-rule:nonzero;stroke:#000000;stroke-width:1;stroke-linecap:round;stroke-miterlimit:4;stroke-dasharray:none;stroke-dashoffset:0;stroke-opacity:1"
         cx="310.83807"
         cy="465.95038"
         r="6.2565761" />
      <circle
         transform="translate(0.5465963,34.695557)"
         id="path2218"
         style="opacity:1;fill:#2b1100;fill-opacity:1;fill-rule:nonzero;stroke:#000000;stroke-width:1;stroke-linecap:round;stroke-miterlimit:4;stroke-dasharray:none;stroke-dashoffset:0;stroke-opacity:1"
         cx="310.83807"
         cy="465.95038"
         r="6.2565761" />
      <circle
         id="path2220"
         style="opacity:1;fill:#2b1100;fill-opacity:1;fill-rule:nonzero;stroke:#000000;stroke-width:1;stroke-linecap:round;stroke-miterlimit:4;stroke-dasharray:none;stroke-dashoffset:0;stroke-opacity:1"
         transform="translate(0.5465963,71.950622)"
         cx="310.83807"
         cy="465.95038"
         r="6.2565761" />
      <circle
         id="path2222"
         style="opacity:1;fill:#2b1100;fill-opacity:1;fill-rule:nonzero;stroke:#000000;stroke-width:1.51331234;stroke-linecap:round;stroke-miterlimit:4;stroke-dasharray:none;stroke-dashoffset:0;stroke-opacity:1"
         transform="matrix(0.6608021,0,0,0.6608021,105.98223,260.71413)"
         cx="310.83807"
         cy="465.95038"
         r="6.2565761" />
      <circle
         id="path2224"
         style="opacity:1;fill:#2b1100;fill-opacity:1;fill-rule:nonzero;stroke:#000000;stroke-width:1;stroke-linecap:round;stroke-miterlimit:4;stroke-dasharray:none;stroke-dashoffset:0;stroke-opacity:1"
         transform="translate(0.5465963,136.50711)"
         cx="310.83807"
         cy="465.95038"
         r="6.2565761" />
      <g
         style="fill:#2b1100;fill-opacity:1;stroke:#000000;stroke-width:1;stroke-opacity:1"
         transform="translate(0.6888054)"
         id="g2233">
        <circle
           id="path2216"
           style="opacity:1;fill:#2b1100;fill-opacity:1;fill-rule:nonzero;stroke:#000000;stroke-width:1.76000011;stroke-linecap:round;stroke-miterlimit:4;stroke-dasharray:none;stroke-dashoffset:0;stroke-opacity:1"
           transform="matrix(0.5681818,0,0,0.5681818,130.10187,363.73462)"
           cx="310.83807"
           cy="465.95038"
           r="6.2565761" />
        <circle
           transform="matrix(0.4090909,0,0,0.4090909,188.51166,439.14284)"
           style="opacity:1;fill:#2b1100;fill-opacity:1;fill-rule:nonzero;stroke:#000000;stroke-width:2.44444442;stroke-linecap:round;stroke-miterlimit:4;stroke-dasharray:none;stroke-dashoffset:0;stroke-opacity:1"
           id="path2228"
           cx="310.83807"
           cy="465.95038"
           r="6.2565761" />
      </g>
      <g
         style="fill:#2b1100;fill-opacity:1;stroke:#000000;stroke-width:1.08659565;stroke-opacity:1"
         transform="matrix(0.8469623,0,0,1,44.828387,0)"
         id="g2237">
        <circle
           transform="matrix(0.5681818,0,0,0.5681818,128.96431,396.72384)"
           style="opacity:1;fill:#2b1100;fill-opacity:1;fill-rule:nonzero;stroke:#000000;stroke-width:1.91240835;stroke-linecap:round;stroke-miterlimit:4;stroke-dasharray:none;stroke-dashoffset:0;stroke-opacity:1"
           id="path2226"
           cx="310.83807"
           cy="465.95038"
           r="6.2565761" />
        <circle
           transform="matrix(0.4708517,0,0,0.4090909,168.84731,472.13208)"
           style="opacity:1;fill:#2b1100;fill-opacity:1;fill-rule:nonzero;stroke:#000000;stroke-width:2.47580242;stroke-linecap:round;stroke-miterlimit:4;stroke-dasharray:none;stroke-dashoffset:0;stroke-opacity:1"
           id="path2230"
           cx="310.83807"
           cy="465.95038"
           r="6.2565761" />
      </g>
    </g>
  </g>
</svg>
