<?xml version="1.0" encoding="UTF-8" standalone="no"?>
<!-- Generator: Adobe Illustrator 10.0, SVG Export Plug-In . SVG Version: 3.0.0 Build 77)  -->

<svg
   xmlns:i="http://ns.adobe.com/AdobeIllustrator/10.0/"
   xmlns:dc="http://purl.org/dc/elements/1.1/"
   xmlns:cc="http://creativecommons.org/ns#"
   xmlns:rdf="http://www.w3.org/1999/02/22-rdf-syntax-ns#"
   xmlns:svg="http://www.w3.org/2000/svg"
   xmlns="http://www.w3.org/2000/svg"
   xmlns:sodipodi="http://sodipodi.sourceforge.net/DTD/sodipodi-0.dtd"
   xmlns:inkscape="http://www.inkscape.org/namespaces/inkscape"
   enable-background="new 0 0 533.268 164.968"
   height="39.605999"
   i:pageBounds="0 792 612 0"
   i:rulerOrigin="0 0"
   i:viewOrigin="39 478"
   overflow="visible"
   space="preserve"
   viewBox="0 0 127.99876 39.605998"
   width="127.99876"
   version="1.1"
   id="svg373"
   sodipodi:docname="trumpet.svg"
   inkscape:version="0.92.2 (5c3e80d, 2017-08-06)"
   style="overflow:visible">
  <title
     id="title1184">Trumpet B Flat (colour)</title>
  <defs
     id="defs377" />
  <sodipodi:namedview
     pagecolor="#ffffff"
     bordercolor="#666666"
     borderopacity="1"
     objecttolerance="10"
     gridtolerance="10"
     guidetolerance="10"
     inkscape:pageopacity="0"
     inkscape:pageshadow="2"
     inkscape:window-width="1920"
     inkscape:window-height="1025"
     id="namedview375"
     showgrid="false"
     inkscape:zoom="3.2778414"
     inkscape:cx="26.737243"
     inkscape:cy="29.009072"
     inkscape:window-x="-8"
     inkscape:window-y="-8"
     inkscape:window-maximized="1"
     inkscape:current-layer="svg373"
     fit-margin-top="0"
     fit-margin-left="0"
     fit-margin-right="0"
     fit-margin-bottom="0" />
  <metadata
     id="metadata2">
    <rdf:RDF>
      <cc:Work
         rdf:about="">
        <dc:title>Trumpet B Flat (colour)</dc:title>
        <dc:description>Trumpet in key of B flat.</dc:description>
        <dc:subject>
          <rdf:Bag>
            <rdf:li>music</rdf:li>
            <rdf:li>equipment</rdf:li>
            <rdf:li>trumpet</rdf:li>
          </rdf:Bag>
        </dc:subject>
        <dc:publisher>
          <cc:Agent
             rdf:about="http://www.openclipart.org/">
            <dc:title>Open Clip Art Project</dc:title>
          </cc:Agent>
        </dc:publisher>
        <dc:creator>
          <cc:Agent
             rdf:about="http://web.resource.org/cc/PublicDomain">
            <dc:title>Gerald G.</dc:title>
          </cc:Agent>
        </dc:creator>
        <dc:rights>
          <cc:Agent
             rdf:about="http://web.resource.org/cc/PublicDomain">
            <dc:title>Public Domain</dc:title>
          </cc:Agent>
        </dc:rights>
        <dc:date>2005-04-22</dc:date>
        <dc:format>image/svg+xml</dc:format>
        <dc:type
           rdf:resource="http://purl.org/dc/dcmitype/StillImage" />
        <cc:license
           rdf:resource="http://creativecommons.org/publicdomain/zero/1.0/" />
        <dc:language>en</dc:language>
      </cc:Work>
      <cc:License
         rdf:about="http://creativecommons.org/publicdomain/zero/1.0/">
        <cc:permits
           rdf:resource="http://creativecommons.org/ns#Reproduction" />
        <cc:permits
           rdf:resource="http://creativecommons.org/ns#Distribution" />
        <cc:permits
           rdf:resource="http://creativecommons.org/ns#DerivativeWorks" />
      </cc:License>
    </rdf:RDF>
  </metadata>
  <g
     i:dimmedPercent="50"
     i:layer="yes"
     i:rgbTrio="#4F008000FFFF"
     id="Layer_1"
     transform="matrix(0.23994193,0,0,0.23994193,4.8003844e-4,0.00582831)">
    <g
       id="g370">
      <path
         d="m 118.65,81.398 c 2.981,0 5.4,2.096 5.4,4.68 0,2.583 -2.419,4.68 -5.4,4.68 -2.981,0 -5.4,-2.097 -5.4,-4.68 0,-2.584 2.419,-4.68 5.4,-4.68"
         i:knockout="Off"
         id="path4"
         inkscape:connector-curvature="0"
         style="clip-rule:evenodd;fill:#ffffff;fill-rule:evenodd" />
      <path
         d="m 142.614,122.362 c -7.812,-0.145 -13.788,-2.196 -18.216,-6.013 -4.464,-4.031 -7.308,-10.548 -8.1,-17.172 -0.936,-6.768 0.756,-16.632 3.132,-22.392 2.34,-5.796 6.084,-8.856 10.944,-11.7 4.752,-2.88 10.044,-4.572 17.424,-5.472 7.416,-1.008 15.912,-1.224 26.316,-0.504 l -2.628,-8.1 c -11.772,-1.224 -21.78,-1.008 -30.708,0.792 -8.892,1.62 -16.452,4.644 -22.392,9.648 -6.084,5.004 -11.196,12.924 -13.536,20.556 -2.304,7.668 -2.52,17.244 -0.252,24.984 2.16,7.632 5.508,15.731 13.536,20.556 8.028,4.644 19.296,7.164 34.344,7.56 -3.276,-4.247 -6.552,-8.495 -9.864,-12.743 z"
         i:knockout="Off"
         stroke-miterlimit="10"
         id="path6"
         inkscape:connector-curvature="0"
         style="clip-rule:evenodd;fill-rule:evenodd;stroke:#000000;stroke-width:0.036;stroke-miterlimit:10" />
      <path
         d="m 144.954,123.91 c -6.3,0.684 -11.628,-0.181 -16.416,-2.592 -4.86,-2.412 -9.54,-6.408 -11.952,-11.988 -2.376,-5.977 -3.672,-15.156 -2.34,-22.393 1.26,-7.2 4.176,-15.228 9.864,-20.052 5.544,-4.86 15.66,-7.344 23.688,-8.82 7.992,-1.62 16.02,-1.8 24.228,-0.54 l -2.088,-5.472 c -9.72,-0.792 -18.612,-0.36 -26.82,1.296 -8.244,1.62 -16.452,3.24 -22.392,8.352 -6.084,5.112 -11.196,14.112 -13.536,21.852 -2.268,7.668 -2.448,16.309 -0.252,23.437 2.016,7.02 5.112,13.644 12.744,18.216 7.632,4.355 18.432,7.092 32.796,8.063 -2.484,-3.095 -5.004,-6.227 -7.524,-9.359 z"
         i:knockout="Off"
         stroke-miterlimit="10"
         id="path8"
         inkscape:connector-curvature="0"
         style="clip-rule:evenodd;fill:#ffd700;fill-rule:evenodd;stroke:#000000;stroke-width:0.036;stroke-miterlimit:10" />
      <path
         d="m 5.742,39.85 h 9.9 l 2.34,3.888 c 4.32,-0.036 7.92,0 10.944,0.252 2.844,0.18 5.04,0.252 7.02,1.044 1.944,0.72 3.6,1.8 4.968,3.384 13.284,-0.936 21.816,-0.504 26.28,1.296 4.248,1.692 4.104,7.596 -0.288,9.396 -4.572,1.764 -13.104,2.196 -26.28,1.296 -1.368,1.548 -3.024,2.628 -4.968,3.384 -1.98,0.72 -4.176,0.792 -7.02,1.044 -3.024,0.216 -6.624,0.252 -10.944,0.252 l -2.34,3.888 H 5.49 C 1.818,64.258 -0.054,59.542 0.018,54.682 0.126,49.786 1.854,44.89 5.742,39.85 Z"
         i:knockout="Off"
         stroke-miterlimit="10"
         id="path10"
         inkscape:connector-curvature="0"
         style="clip-rule:evenodd;fill-rule:evenodd;stroke:#000000;stroke-width:0.036;stroke-miterlimit:10" />
      <path
         d="m 6.786,41.65 c -3.24,4.572 -4.932,8.82 -4.932,13.284 -0.036,4.392 1.476,8.46 4.68,12.744 h 7.308 l 2.592,-3.888 c -1.62,-3.636 -2.448,-6.84 -2.34,-9.9 0.036,-3.06 0.9,-5.832 2.592,-8.316 l -2.34,-3.924 c -2.52,0 -5.04,0 -7.56,0 z"
         i:knockout="Off"
         stroke-miterlimit="10"
         id="path12"
         inkscape:connector-curvature="0"
         style="clip-rule:evenodd;fill:#c0c0c0;fill-rule:evenodd;stroke:#000000;stroke-width:0.036;stroke-miterlimit:10" />
      <path
         d="m 20.07,45.574 c -1.872,2.052 -2.916,4.608 -3.132,7.524 -0.288,2.952 0.288,6.156 1.584,9.9 2.592,0.18 5.58,0.144 9.108,-0.504 3.528,-0.648 7.416,-1.692 11.952,-3.132 -1.188,-2.592 -1.656,-4.68 -1.548,-6.264 0.072,-1.584 0.72,-2.808 2.088,-3.384 -3.132,-1.62 -6.3,-2.7 -9.648,-3.384 C 27.09,45.61 23.67,45.358 20.07,45.574 Z"
         i:knockout="Off"
         stroke-miterlimit="10"
         id="path14"
         inkscape:connector-curvature="0"
         style="clip-rule:evenodd;fill:#c0c0c0;fill-rule:evenodd;stroke:#000000;stroke-width:0.036;stroke-miterlimit:10" />
      <path
         d="m 41.67,50.506 c -1.26,1.44 -1.764,2.88 -1.8,4.176 0.036,1.26 0.54,2.52 1.8,3.636 L 68.742,58.066 65.898,51.01 c -5.616,-0.792 -10.26,-1.224 -14.328,-1.296 -4.14,-0.072 -7.308,0.144 -9.9,0.792 z"
         i:knockout="Off"
         stroke-miterlimit="10"
         id="path16"
         inkscape:connector-curvature="0"
         style="clip-rule:evenodd;fill:#c0c0c0;fill-rule:evenodd;stroke:#000000;stroke-width:0.036;stroke-miterlimit:10" />
      <path
         d="m 270.342,106.99 h 100.08 v 11.987 h -100.08 z"
         i:knockout="Off"
         stroke-miterlimit="10"
         id="path18"
         inkscape:connector-curvature="0"
         style="clip-rule:evenodd;fill-rule:evenodd;stroke:#000000;stroke-width:0.036;stroke-miterlimit:10" />
      <path
         d="m 272.178,108.286 h 98.893 v 9.359 h -98.893 z"
         i:knockout="Off"
         stroke-miterlimit="10"
         id="path20"
         inkscape:connector-curvature="0"
         style="clip-rule:evenodd;fill:#ffd600;fill-rule:evenodd;stroke:#000000;stroke-width:0.036;stroke-miterlimit:10" />
      <path
         d="m 270.342,125.494 h 100.08 v 11.988 h -100.08 z"
         i:knockout="Off"
         stroke-miterlimit="10"
         id="path22"
         inkscape:connector-curvature="0"
         style="clip-rule:evenodd;fill-rule:evenodd;stroke:#000000;stroke-width:0.036;stroke-miterlimit:10" />
      <path
         d="m 271.89,126.826 h 99.433 v 9.359 H 271.89 Z"
         i:knockout="Off"
         stroke-miterlimit="10"
         id="path24"
         inkscape:connector-curvature="0"
         style="clip-rule:evenodd;fill:#ffffff;fill-rule:evenodd;stroke:#000000;stroke-width:0.036;stroke-miterlimit:10" />
      <path
         d="m 378.594,107.062 c 1.944,-0.323 3.816,-0.252 5.76,0.217 1.908,0.396 3.924,1.188 5.616,2.376 1.584,1.115 2.916,2.628 3.996,4.535 0.936,1.837 1.908,4.213 2.088,6.732 0.108,2.376 -0.396,5.832 -1.116,8.028 -0.684,2.16 -1.764,3.672 -3.239,5.076 -1.692,1.224 -4.032,2.159 -6.48,2.808 -2.52,0.54 -5.292,0.792 -8.46,0.756 l 0.972,-12.24 c 2.124,0.072 3.853,-0.036 5.185,-0.323 1.296,-0.324 2.088,-0.828 2.52,-1.513 0.36,-0.792 0.252,-2.483 -0.324,-3.132 -0.611,-0.828 -1.979,-1.116 -3.275,-1.296 -1.332,-0.216 -2.844,-0.18 -4.536,0.108 0.428,-4.032 0.861,-8.064 1.293,-12.132 z"
         i:knockout="Off"
         stroke-miterlimit="10"
         id="path26"
         inkscape:connector-curvature="0"
         style="clip-rule:evenodd;fill-rule:evenodd;stroke:#000000;stroke-width:0.036;stroke-miterlimit:10" />
      <path
         d="m 379.025,107.71 c 3.097,-0.18 5.725,0.252 8.028,1.296 2.232,0.9 4.068,2.484 5.508,4.752 1.332,2.304 2.664,5.256 2.593,8.568 -0.217,3.096 -0.793,7.775 -3.673,10.296 -2.951,2.448 -7.523,3.96 -13.859,4.536 l 0.756,-11.053 c 2.124,0.433 3.852,0.396 5.328,-0.107 1.476,-0.612 2.735,-1.764 3.24,-2.916 0.287,-1.26 0.468,-3.061 -0.973,-3.888 -1.512,-0.864 -4.032,-1.225 -7.704,-1.08 0.252,-3.456 0.504,-6.912 0.756,-10.404 z"
         i:knockout="Off"
         stroke-miterlimit="10"
         id="path28"
         inkscape:connector-curvature="0"
         style="clip-rule:evenodd;fill:#ffd600;fill-rule:evenodd;stroke:#000000;stroke-width:0.036;stroke-miterlimit:10" />
      <path
         d="m 379.35,106.414 c 0.937,0.684 1.477,1.836 1.765,3.456 0.216,1.584 -0.108,4.355 -0.433,6.084 -0.396,1.691 -1.188,2.735 -2.088,3.672 H 368.19 c 0,0 1.872,-3.24 2.232,-6.516 0.36,-3.276 -0.756,-6.589 -0.756,-6.589 3.204,-0.035 6.443,-0.071 9.684,-0.107 z"
         i:knockout="Off"
         stroke-miterlimit="10"
         id="path30"
         inkscape:connector-curvature="0"
         style="clip-rule:evenodd;fill-rule:evenodd;stroke:#000000;stroke-width:0.036;stroke-miterlimit:10" />
      <path
         d="m 378.594,107.062 c 0.792,1.009 1.332,2.269 1.477,3.78 0.071,1.404 -0.253,3.708 -0.576,5.112 -0.36,1.332 -0.864,2.304 -1.513,2.916 h -8.424 c 1.152,-2.052 1.836,-3.996 2.052,-5.977 0.217,-2.088 -0.071,-3.852 -0.72,-5.832 2.556,10e-4 5.112,10e-4 7.704,10e-4 z"
         i:knockout="Off"
         stroke-miterlimit="10"
         id="path32"
         inkscape:connector-curvature="0"
         style="clip-rule:evenodd;fill:#c0c0c0;fill-rule:evenodd;stroke:#000000;stroke-width:0.036;stroke-miterlimit:10" />
      <path
         d="m 379.35,124.918 c 0.937,0.648 1.477,1.944 1.765,3.492 0.216,1.62 -0.108,4.284 -0.433,6.048 -0.396,1.584 -1.188,2.808 -2.088,3.672 H 368.19 c 0,0 1.872,-3.204 2.232,-6.479 0.36,-3.276 -0.756,-6.624 -0.756,-6.624 3.204,-0.037 6.443,-0.073 9.684,-0.109 z"
         i:knockout="Off"
         stroke-miterlimit="10"
         id="path34"
         inkscape:connector-curvature="0"
         style="clip-rule:evenodd;fill-rule:evenodd;stroke:#000000;stroke-width:0.036;stroke-miterlimit:10" />
      <path
         d="m 378.594,125.566 c 0.792,1.079 1.332,2.304 1.477,3.815 0.071,1.404 -0.253,3.744 -0.576,5.076 -0.36,1.332 -0.864,2.304 -1.513,2.916 h -8.424 c 1.152,-2.016 1.836,-3.996 2.052,-5.94 0.217,-2.016 -0.071,-3.924 -0.72,-5.867 2.556,0 5.112,0 7.704,0 z"
         i:knockout="Off"
         stroke-miterlimit="10"
         id="path36"
         inkscape:connector-curvature="0"
         style="clip-rule:evenodd;fill:#c0c0c0;fill-rule:evenodd;stroke:#000000;stroke-width:0.036;stroke-miterlimit:10" />
      <path
         d="m 289.89,83.786 c 6.101,0 11.052,4.951 11.052,11.052 0,6.101 -4.951,11.052 -11.052,11.052 -6.101,0 -11.052,-4.951 -11.052,-11.052 0,-6.101 4.951,-11.052 11.052,-11.052"
         i:knockout="Off"
         stroke-miterlimit="10"
         id="path38"
         inkscape:connector-curvature="0"
         style="clip-rule:evenodd;fill-rule:evenodd;stroke:#000000;stroke-width:0.036;stroke-miterlimit:10" />
      <path
         d="m 289.89,85.454 c 5.167,0 9.36,4.258 9.36,9.504 0,5.246 -4.193,9.504 -9.36,9.504 -5.167,0 -9.359,-4.258 -9.359,-9.504 0,-5.246 4.192,-9.504 9.359,-9.504"
         i:knockout="Off"
         stroke-miterlimit="10"
         id="path40"
         inkscape:connector-curvature="0"
         style="clip-rule:evenodd;fill:#ffffff;fill-rule:evenodd;stroke:#000000;stroke-width:0.036;stroke-miterlimit:10" />
      <path
         d="m 289.062,104.398 h 59.364 v 1.548 h -59.364 z"
         i:knockout="Off"
         stroke-miterlimit="10"
         id="path42"
         inkscape:connector-curvature="0"
         style="clip-rule:evenodd;fill-rule:evenodd;stroke:#000000;stroke-width:0.036;stroke-miterlimit:10" />
      <path
         d="m 335.43,102.058 h 11.196 v 5.437 H 335.43 Z"
         i:knockout="Off"
         stroke-miterlimit="10"
         id="path44"
         inkscape:connector-curvature="0"
         style="clip-rule:evenodd;fill-rule:evenodd;stroke:#000000;stroke-width:0.036;stroke-miterlimit:10" />
      <path
         d="m 336.726,103.066 h 8.856 v 3.672 h -8.856 z"
         i:knockout="Off"
         stroke-miterlimit="10"
         id="path46"
         inkscape:connector-curvature="0"
         style="clip-rule:evenodd;fill:#ffd600;fill-rule:evenodd;stroke:#000000;stroke-width:0.036;stroke-miterlimit:10" />
      <path
         d="m 339.642,98.638 h 2.736 v 3.564 h -2.736 z"
         i:knockout="Off"
         stroke-miterlimit="10"
         id="path48"
         inkscape:connector-curvature="0"
         style="clip-rule:evenodd;fill-rule:evenodd;stroke:#000000;stroke-width:0.036;stroke-miterlimit:10" />
      <path
         d="m 337.338,97.594 h 7.524 v 1.584 h -7.524 z"
         i:knockout="Off"
         stroke-miterlimit="10"
         id="path50"
         inkscape:connector-curvature="0"
         style="clip-rule:evenodd;fill-rule:evenodd;stroke:#000000;stroke-width:0.036;stroke-miterlimit:10" />
      <path
         d="m 386.334,136.33 2.016,2.376 c -0.792,0.576 -1.332,1.152 -1.62,1.584 -0.396,0.432 -0.504,0.828 -0.468,1.188 0.72,0.612 1.368,1.08 2.088,1.549 0.648,0.468 1.368,0.936 2.017,1.115 0.611,0.036 0.936,-0.216 1.367,-0.756 1.261,0.072 2.845,-0.216 4.608,-1.008 1.764,-0.72 4.176,-1.872 6.12,-3.744 1.944,-2.124 3.563,-4.788 5.292,-8.424 1.656,-0.288 2.34,-0.828 2.592,-1.476 0.108,-0.648 -0.432,-1.549 -1.764,-2.557 0.504,-2.592 0.18,-5.076 -0.828,-7.884 -1.152,-2.808 -4.788,-8.064 -5.472,-8.676 -0.648,-0.612 0.863,2.771 1.476,4.859 0.504,2.017 1.296,4.788 1.548,6.948 0.145,2.017 0.036,3.672 -0.468,5.112 l -9.252,-1.729 -1.08,3.925 8.784,1.655 c -0.288,2.196 -1.044,4.032 -2.124,5.509 -1.116,1.476 -2.557,2.447 -4.464,3.203 0.144,-0.468 0.18,-0.972 -0.181,-1.367 -0.396,-0.54 -1.26,-1.045 -1.764,-1.225 -0.576,-0.18 -1.116,-0.107 -1.62,0.216 l -2.483,-2.412 c -0.36,0.253 -0.828,0.433 -1.549,0.828 -0.719,0.327 -1.691,0.723 -2.771,1.191 z"
         i:knockout="Off"
         stroke-miterlimit="10"
         id="path52"
         inkscape:connector-curvature="0"
         style="clip-rule:evenodd;fill-rule:evenodd;stroke:#000000;stroke-width:0.036;stroke-miterlimit:10" />
      <path
         d="m 393.03,137.626 c -0.721,0.288 -2.017,0.792 -2.916,1.368 -1.009,0.54 -2.521,1.151 -2.593,1.836 -0.216,0.647 1.188,1.548 1.836,2.016 0.504,0.396 0.721,0.864 1.765,0.288 1.116,-0.828 3.888,-3.492 4.571,-4.5 0.433,-1.008 -1.151,-1.368 -1.548,-1.476 -0.503,-0.18 -0.503,0.071 -1.115,0.468 z"
         i:knockout="Off"
         stroke-miterlimit="10"
         id="path54"
         inkscape:connector-curvature="0"
         style="clip-rule:evenodd;fill:#ffd600;fill-rule:evenodd;stroke:#000000;stroke-width:0.036;stroke-miterlimit:10" />
      <path
         d="m 396.126,139.822 c 0.504,0.216 1.26,0.107 2.412,-0.721 1.151,-0.863 3.275,-2.556 4.284,-3.96 0.899,-1.476 1.224,-2.952 1.115,-4.571 l 2.376,-0.072 c -0.504,2.34 -1.439,4.464 -2.952,6.228 -1.512,1.836 -4.319,3.276 -5.939,4.464 -1.8,1.009 -3.168,1.513 -4.392,1.656 1.008,-1.008 2.052,-2.016 3.096,-3.024 z"
         i:knockout="Off"
         stroke-miterlimit="10"
         id="path56"
         inkscape:connector-curvature="0"
         style="clip-rule:evenodd;fill:#ffd600;fill-rule:evenodd;stroke:#000000;stroke-width:0.036;stroke-miterlimit:10" />
      <path
         d="m 406.41,127.178 c 1.013,0 1.836,0.564 1.836,1.26 0,0.696 -0.823,1.261 -1.836,1.261 -1.014,0 -1.836,-0.564 -1.836,-1.261 0,-0.696 0.822,-1.26 1.836,-1.26"
         i:knockout="Off"
         stroke-miterlimit="10"
         id="path58"
         inkscape:connector-curvature="0"
         style="clip-rule:evenodd;fill:#ffffff;fill-rule:evenodd;stroke:#000000;stroke-width:0.036;stroke-miterlimit:10" />
      <path
         d="m 406.134,126.466 c 0.252,-1.188 0.252,-2.7 0,-4.68 -0.36,-2.052 -1.8,-6.769 -1.548,-7.057 0.216,-0.287 2.412,3.492 2.988,5.509 0.468,1.979 0.575,3.888 0.18,6.12 -0.54,0.036 -1.08,0.072 -1.62,0.108 z"
         i:knockout="Off"
         stroke-miterlimit="10"
         id="path60"
         inkscape:connector-curvature="0"
         style="clip-rule:evenodd;fill:#ffd600;fill-rule:evenodd;stroke:#000000;stroke-width:0.036;stroke-miterlimit:10" />
      <path
         d="m 397.422,125.998 6.768,1.368 c -0.359,0.432 -0.575,0.828 -0.647,1.188 -0.181,0.324 -0.036,0.756 0,1.008 -0.036,0.145 -0.036,0.145 0,0 l -7.416,-1.079 c 0.468,-0.288 0.756,-0.576 1.008,-1.009 0.178,-0.396 0.323,-0.936 0.287,-1.476 z"
         i:knockout="Off"
         stroke-miterlimit="10"
         id="path62"
         inkscape:connector-curvature="0"
         style="clip-rule:evenodd;fill:#ffffff;fill-rule:evenodd;stroke:#000000;stroke-width:0.036;stroke-miterlimit:10" />
      <path
         d="m 387.63,136.726 c 0.108,-0.18 0.54,-0.396 1.008,-0.647 0.54,-0.324 1.116,-0.54 2.017,-0.937 l 1.367,1.477 -2.844,1.368 c -0.504,-0.397 -1.008,-0.829 -1.548,-1.261 z"
         i:knockout="Off"
         stroke-miterlimit="10"
         id="path64"
         inkscape:connector-curvature="0"
         style="clip-rule:evenodd;fill:#ffd600;fill-rule:evenodd;stroke:#000000;stroke-width:0.036;stroke-miterlimit:10" />
      <path
         d="m 303.065,141.478 h 52.345 v 1.549 h -52.345 z"
         i:knockout="Off"
         stroke-miterlimit="10"
         id="path66"
         inkscape:connector-curvature="0"
         style="clip-rule:evenodd;fill-rule:evenodd;stroke:#000000;stroke-width:0.036;stroke-miterlimit:10" />
      <path
         d="m 345.87,136.618 h 6.336 v 8.964 h -6.336 z"
         i:knockout="Off"
         stroke-miterlimit="10"
         id="path68"
         inkscape:connector-curvature="0"
         style="clip-rule:evenodd;fill-rule:evenodd;stroke:#000000;stroke-width:0.036;stroke-miterlimit:10" />
      <path
         d="m 347.273,137.41 h 3.564 v 7.704 h -3.564 z"
         i:knockout="Off"
         stroke-miterlimit="10"
         id="path70"
         inkscape:connector-curvature="0"
         style="clip-rule:evenodd;fill:#ffd600;fill-rule:evenodd;stroke:#000000;stroke-width:0.036;stroke-miterlimit:10" />
      <path
         d="m 302.021,139.174 h 3.097 v 6.696 h -3.097 z"
         i:knockout="Off"
         stroke-miterlimit="10"
         id="path72"
         inkscape:connector-curvature="0"
         style="clip-rule:evenodd;fill-rule:evenodd;stroke:#000000;stroke-width:0.036;stroke-miterlimit:10" />
      <path
         d="m 306.521,139.282 h 2.736 v 6.66 h -2.736 z"
         i:knockout="Off"
         stroke-miterlimit="10"
         id="path74"
         inkscape:connector-curvature="0"
         style="clip-rule:evenodd;fill-rule:evenodd;stroke:#000000;stroke-width:0.036;stroke-miterlimit:10" />
      <path
         d="m 337.014,136.618 h 6.336 v 8.964 h -6.336 z"
         i:knockout="Off"
         stroke-miterlimit="10"
         id="path76"
         inkscape:connector-curvature="0"
         style="clip-rule:evenodd;fill-rule:evenodd;stroke:#000000;stroke-width:0.036;stroke-miterlimit:10" />
      <path
         d="m 338.418,137.41 h 3.563 v 7.704 h -3.563 z"
         i:knockout="Off"
         stroke-miterlimit="10"
         id="path78"
         inkscape:connector-curvature="0"
         style="clip-rule:evenodd;fill:#ffd600;fill-rule:evenodd;stroke:#000000;stroke-width:0.036;stroke-miterlimit:10" />
      <path
         d="m 212.598,18.358 v 5.256 l 4.572,0.396 v 12.06 c -1.476,-0.036 -2.808,0.252 -3.996,0.576 -1.296,0.324 -2.268,0.828 -3.312,1.512 v 5.976 l 0.828,0.9 c -0.036,2.196 -0.036,12.384 0,30.996 -0.036,18.72 -0.036,44.892 0,80.028 l -1.404,0.504 v 6.084 c 0.252,0.505 1.152,1.009 2.412,1.368 1.188,0.36 3.6,0.721 5.292,0.937 1.656,0.071 3.24,0.144 4.752,-0.072 2.196,-0.216 4.068,-0.576 5.328,-0.936 1.224,-0.36 2.124,-0.864 2.412,-1.368 v -6.084 l -1.44,-0.504 c -0.036,-35.137 -0.036,-61.309 0,-80.028 -0.036,-18.612 -0.036,-28.8 0,-30.996 l 0.828,-0.9 v -5.976 c -1.08,-0.684 -2.052,-1.188 -3.312,-1.512 -1.26,-0.324 -2.592,-0.612 -3.996,-0.576 v -11.88 l 4.572,-0.576 v -5.256 c -1.476,-0.432 -2.952,-0.684 -4.572,-0.756 -1.8,-0.108 -3.564,0 -5.148,0.18 -1.548,0.143 -2.772,0.359 -3.816,0.647 z"
         i:knockout="Off"
         stroke-miterlimit="10"
         id="path80"
         inkscape:connector-curvature="0"
         style="clip-rule:evenodd;fill-rule:evenodd;stroke:#000000;stroke-width:0.036;stroke-miterlimit:10" />
      <path
         d="m 209.79,157.246 v 5.04 c 0.72,0.576 1.908,0.972 3.564,1.332 1.548,0.252 3.888,0.468 6.048,0.504 2.052,-0.036 4.68,-0.396 6.336,-0.648 1.584,-0.396 2.556,-0.684 3.06,-1.26 v -5.147 c -1.224,0.323 -2.628,0.575 -4.248,0.756 -1.62,0.18 -2.916,0.396 -5.4,0.323 0,0 -2.736,-0.144 -5.04,-0.432 -2.34,-0.252 -0.36,-0.144 -4.176,-0.647 z"
         i:knockout="Off"
         stroke-miterlimit="10"
         id="path82"
         inkscape:connector-curvature="0"
         style="clip-rule:evenodd;fill:#ffd700;fill-rule:evenodd;stroke:#000000;stroke-width:0.036;stroke-miterlimit:10" />
      <path
         d="m 211.59,45.502 c -0.036,8.928 -0.036,22.392 0,40.968 -0.036,18.612 -0.036,41.473 0,69.696 1.188,0.288 2.304,0.54 3.744,0.756 1.368,0.145 2.628,0.252 4.32,0.324 1.476,-0.072 3.888,-0.18 5.148,-0.324 1.26,-0.216 2.016,-0.36 2.412,-0.576 -0.036,-17.136 -0.036,-34.487 0,-53.172 -0.036,-18.647 -0.036,-37.656 0,-57.852 -2.412,0.252 -4.896,0.468 -7.452,0.504 -2.7,0.036 -5.292,-0.072 -8.172,-0.324 z"
         i:knockout="Off"
         stroke-miterlimit="10"
         id="path84"
         inkscape:connector-curvature="0"
         style="clip-rule:evenodd;fill:#ffd700;fill-rule:evenodd;stroke:#000000;stroke-width:0.036;stroke-miterlimit:10" />
      <path
         d="m 210.618,38.446 c 1.548,0.288 3.708,0.468 6.624,0.396 2.88,-0.072 6.48,-0.288 10.8,-0.648 l 0.108,5.724 c -0.252,0.216 -1.26,0.54 -3.168,0.684 -2.016,0.216 -5.832,0.396 -8.244,0.396 -2.376,-0.108 -4.464,-0.612 -6.12,-1.224 0,-1.764 0,-3.528 0,-5.328 z"
         i:knockout="Off"
         stroke-miterlimit="10"
         id="path86"
         inkscape:connector-curvature="0"
         style="clip-rule:evenodd;fill:#ffd700;fill-rule:evenodd;stroke:#000000;stroke-width:0.036;stroke-miterlimit:10" />
      <path
         d="m 213.102,18.934 c 0.828,0.108 1.908,0.324 3.384,0.36 1.404,0.108 3.708,0.036 5.256,0.072 1.44,-0.072 2.736,-0.18 3.744,-0.324 l 0.072,3.996 c -1.944,0.216 -3.78,0.396 -5.904,0.396 -2.088,0 -4.248,-0.18 -6.48,-0.396 0,-1.368 -0.036,-2.736 -0.072,-4.104 z"
         i:knockout="Off"
         stroke-miterlimit="10"
         id="path88"
         inkscape:connector-curvature="0"
         style="clip-rule:evenodd;fill:#ffd700;fill-rule:evenodd;stroke:#000000;stroke-width:0.036;stroke-miterlimit:10" />
      <path
         d="m 217.674,24.118 c 0.54,0.036 1.044,0.18 1.656,0.144 0.576,0.036 1.116,-0.108 1.764,-0.144 V 36.97 c -0.54,0.252 -1.152,0.324 -1.692,0.36 -0.612,-0.072 -1.296,-0.216 -1.908,-0.432 v -12.78 z"
         i:knockout="Off"
         stroke-miterlimit="10"
         id="path90"
         inkscape:connector-curvature="0"
         style="clip-rule:evenodd;fill:#ffd700;fill-rule:evenodd;stroke:#000000;stroke-width:0.036;stroke-miterlimit:10" />
      <path
         d="m 216.342,36.646 c -0.936,0.072 -1.8,0.216 -2.592,0.432 -0.792,0.216 -1.656,0.36 -2.304,0.72 1.08,0.216 2.412,0.432 4.392,0.504 1.98,0.072 4.86,0 6.984,-0.072 1.908,-0.144 3.456,-0.288 4.644,-0.576 -0.9,-0.396 -1.692,-0.576 -2.664,-0.828 -1.008,-0.288 -1.908,-0.36 -2.988,-0.504 l -0.072,0.9 v 0 c -0.576,0.252 -1.296,0.468 -2.16,0.504 -0.936,0.036 -2.016,-0.072 -3.24,-0.324 0,-0.252 0,-0.504 0,-0.756 z"
         i:knockout="Off"
         stroke-miterlimit="10"
         id="path92"
         inkscape:connector-curvature="0"
         style="clip-rule:evenodd;fill:#ffd700;fill-rule:evenodd;stroke:#000000;stroke-width:0.036;stroke-miterlimit:10" />
      <path
         d="m 214.002,18.358 c 1.8,-0.36 3.708,-0.576 5.58,-0.504 1.944,-0.036 3.672,0.216 5.724,0.612 -2.052,0.324 -3.888,0.648 -5.796,0.576 -1.908,0.036 -3.744,-0.324 -5.508,-0.684 z"
         i:knockout="Off"
         stroke-miterlimit="10"
         id="path94"
         inkscape:connector-curvature="0"
         style="clip-rule:evenodd;fill:#ffd700;fill-rule:evenodd;stroke:#000000;stroke-width:0.036;stroke-miterlimit:10" />
      <path
         d="m 211.266,39.13 h 0.252 v 4.32 h -0.252 z"
         i:knockout="Off"
         stroke-miterlimit="10"
         id="path96"
         inkscape:connector-curvature="0"
         style="clip-rule:evenodd;fill-rule:evenodd;stroke:#000000;stroke-width:0.036;stroke-miterlimit:10" />
      <path
         d="m 213.03,39.49 h 0.252 v 4.32 h -0.252 z"
         i:knockout="Off"
         stroke-miterlimit="10"
         id="path98"
         inkscape:connector-curvature="0"
         style="clip-rule:evenodd;fill-rule:evenodd;stroke:#000000;stroke-width:0.036;stroke-miterlimit:10" />
      <path
         d="m 214.506,39.562 h 0.252 v 4.32 h -0.252 z"
         i:knockout="Off"
         stroke-miterlimit="10"
         id="path100"
         inkscape:connector-curvature="0"
         style="clip-rule:evenodd;fill-rule:evenodd;stroke:#000000;stroke-width:0.036;stroke-miterlimit:10" />
      <path
         d="m 216.918,39.814 h 0.252 v 4.32 h -0.252 z"
         i:knockout="Off"
         stroke-miterlimit="10"
         id="path102"
         inkscape:connector-curvature="0"
         style="clip-rule:evenodd;fill-rule:evenodd;stroke:#000000;stroke-width:0.036;stroke-miterlimit:10" />
      <path
         d="m 219.078,39.814 h 0.252 v 4.32 h -0.252 z"
         i:knockout="Off"
         stroke-miterlimit="10"
         id="path104"
         inkscape:connector-curvature="0"
         style="clip-rule:evenodd;fill-rule:evenodd;stroke:#000000;stroke-width:0.036;stroke-miterlimit:10" />
      <path
         d="m 221.31,39.634 h 0.252 v 4.32 h -0.252 z"
         i:knockout="Off"
         stroke-miterlimit="10"
         id="path106"
         inkscape:connector-curvature="0"
         style="clip-rule:evenodd;fill-rule:evenodd;stroke:#000000;stroke-width:0.036;stroke-miterlimit:10" />
      <path
         d="m 223.65,39.31 h 0.252 v 4.32 h -0.252 z"
         i:knockout="Off"
         stroke-miterlimit="10"
         id="path108"
         inkscape:connector-curvature="0"
         style="clip-rule:evenodd;fill-rule:evenodd;stroke:#000000;stroke-width:0.036;stroke-miterlimit:10" />
      <path
         d="m 225.99,38.986 h 0.252 v 4.32 h -0.252 z"
         i:knockout="Off"
         stroke-miterlimit="10"
         id="path110"
         inkscape:connector-curvature="0"
         style="clip-rule:evenodd;fill-rule:evenodd;stroke:#000000;stroke-width:0.036;stroke-miterlimit:10" />
      <path
         d="m 213.606,20.446 c 0.18,0.252 1.26,0.468 3.24,0.504 1.98,0 4.644,-0.036 8.388,-0.252 v 1.584 c -0.864,0.18 -1.98,0.288 -3.492,0.324 -1.548,0.036 -4.428,0.072 -5.724,-0.18 -1.404,-0.396 -2.16,-1.008 -2.412,-1.98 z"
         i:knockout="Off"
         stroke-miterlimit="10"
         id="path112"
         inkscape:connector-curvature="0"
         style="clip-rule:evenodd;fill-rule:evenodd;stroke:#000000;stroke-width:0.036;stroke-miterlimit:10" />
      <path
         d="m 219.33,25.774 c -0.18,1.476 -0.18,7.2 0,8.712 0,1.26 0.36,0.72 0.504,-0.648 0.18,-1.512 0.288,-6.336 0.324,-7.668 -0.18,-1.44 -0.684,-1.8 -0.828,-0.396 z"
         i:knockout="Off"
         stroke-miterlimit="10"
         id="path114"
         inkscape:connector-curvature="0"
         style="clip-rule:evenodd;fill-rule:evenodd;stroke:#000000;stroke-width:0.036;stroke-miterlimit:10" />
      <path
         d="m 221.418,52.774 c -0.288,0.324 -0.396,8.388 -0.324,14.472 0.036,5.868 0.036,20.16 0.828,21.096 0.684,0.72 2.88,-10.548 3.384,-15.624 0.36,-5.22 -0.54,-14.904 -0.756,-14.472 -0.288,0.576 -0.468,16.416 -0.828,17.784 -0.504,1.08 -1.404,-6.336 -1.728,-10.296 -0.36,-4.032 -0.504,-13.212 -0.576,-12.96 z"
         i:knockout="Off"
         stroke-miterlimit="10"
         id="path116"
         inkscape:connector-curvature="0"
         style="clip-rule:evenodd;fill-rule:evenodd;stroke:#000000;stroke-width:0.036;stroke-miterlimit:10" />
      <path
         d="m 210.978,157.714 h 0.252 v 4.32 h -0.252 z"
         i:knockout="Off"
         stroke-miterlimit="10"
         id="path118"
         inkscape:connector-curvature="0"
         style="clip-rule:evenodd;fill-rule:evenodd;stroke:#000000;stroke-width:0.036;stroke-miterlimit:10" />
      <path
         d="m 213.066,158.362 h 0.252 v 4.319 h -0.252 z"
         i:knockout="Off"
         stroke-miterlimit="10"
         id="path120"
         inkscape:connector-curvature="0"
         style="clip-rule:evenodd;fill-rule:evenodd;stroke:#000000;stroke-width:0.036;stroke-miterlimit:10" />
      <path
         d="m 215.37,158.866 h 0.252 v 4.319 h -0.252 z"
         i:knockout="Off"
         stroke-miterlimit="10"
         id="path122"
         inkscape:connector-curvature="0"
         style="clip-rule:evenodd;fill-rule:evenodd;stroke:#000000;stroke-width:0.036;stroke-miterlimit:10" />
      <path
         d="m 217.782,159.046 h 0.252 v 4.32 h -0.252 z"
         i:knockout="Off"
         stroke-miterlimit="10"
         id="path124"
         inkscape:connector-curvature="0"
         style="clip-rule:evenodd;fill-rule:evenodd;stroke:#000000;stroke-width:0.036;stroke-miterlimit:10" />
      <path
         d="m 220.554,159.118 h 0.216 v 4.319 h -0.216 z"
         i:knockout="Off"
         stroke-miterlimit="10"
         id="path126"
         inkscape:connector-curvature="0"
         style="clip-rule:evenodd;fill-rule:evenodd;stroke:#000000;stroke-width:0.036;stroke-miterlimit:10" />
      <path
         d="m 223.182,159.046 h 0.252 v 4.32 h -0.252 z"
         i:knockout="Off"
         stroke-miterlimit="10"
         id="path128"
         inkscape:connector-curvature="0"
         style="clip-rule:evenodd;fill-rule:evenodd;stroke:#000000;stroke-width:0.036;stroke-miterlimit:10" />
      <path
         d="m 225.522,158.722 h 0.252 v 4.32 h -0.252 z"
         i:knockout="Off"
         stroke-miterlimit="10"
         id="path130"
         inkscape:connector-curvature="0"
         style="clip-rule:evenodd;fill-rule:evenodd;stroke:#000000;stroke-width:0.036;stroke-miterlimit:10" />
      <path
         d="m 227.502,157.966 h 0.252 v 4.32 h -0.252 z"
         i:knockout="Off"
         stroke-miterlimit="10"
         id="path132"
         inkscape:connector-curvature="0"
         style="clip-rule:evenodd;fill-rule:evenodd;stroke:#000000;stroke-width:0.036;stroke-miterlimit:10" />
      <path
         d="m 236.934,18.358 v 5.256 l 4.572,0.396 v 12.06 c -1.476,-0.036 -2.808,0.252 -3.996,0.576 -1.296,0.324 -2.268,0.828 -3.312,1.512 v 5.976 l 0.828,0.9 c -0.036,2.196 -0.036,12.384 0,30.996 -0.036,18.72 -0.036,44.892 0,80.028 l -1.404,0.504 v 6.084 c 0.252,0.505 1.152,1.009 2.412,1.368 1.224,0.36 3.6,0.721 5.328,0.937 1.728,0.071 3.168,0.144 4.716,-0.072 2.196,-0.216 4.068,-0.576 5.328,-0.936 1.224,-0.36 2.124,-0.864 2.412,-1.368 v -6.084 l -1.404,-0.504 c -0.036,-35.137 -0.036,-61.309 0,-80.028 -0.036,-18.612 -0.036,-28.8 0,-30.996 l 0.828,-0.9 v -5.976 c -1.044,-0.684 -2.16,-1.188 -3.348,-1.512 -1.296,-0.324 -2.484,-0.612 -3.96,-0.576 v -11.88 l 4.536,-0.576 v -5.256 c -1.44,-0.432 -2.952,-0.684 -4.536,-0.756 -1.764,-0.108 -3.636,0 -5.184,0.18 -1.548,0.143 -2.772,0.359 -3.816,0.647 z"
         i:knockout="Off"
         stroke-miterlimit="10"
         id="path134"
         inkscape:connector-curvature="0"
         style="clip-rule:evenodd;fill-rule:evenodd;stroke:#000000;stroke-width:0.036;stroke-miterlimit:10" />
      <path
         d="m 234.126,157.246 v 5.04 c 0.72,0.576 1.908,0.972 3.564,1.332 1.62,0.252 3.924,0.468 6.084,0.504 2.016,-0.036 4.716,-0.396 6.3,-0.648 1.476,-0.396 2.628,-0.684 3.06,-1.26 v -5.147 c -1.224,0.323 -2.592,0.575 -4.212,0.756 -1.62,0.18 -2.952,0.396 -5.4,0.323 0,0 -2.772,-0.144 -5.076,-0.432 -2.304,-0.252 -0.324,-0.144 -4.176,-0.647 z"
         i:knockout="Off"
         stroke-miterlimit="10"
         id="path136"
         inkscape:connector-curvature="0"
         style="clip-rule:evenodd;fill:#ffd700;fill-rule:evenodd;stroke:#000000;stroke-width:0.036;stroke-miterlimit:10" />
      <path
         d="m 235.962,45.502 c -0.036,8.928 -0.036,22.392 0,40.968 -0.036,18.612 -0.036,41.473 0,69.696 1.152,0.288 2.34,0.54 3.708,0.756 1.26,0.145 2.7,0.252 4.32,0.324 1.584,-0.072 3.816,-0.18 5.184,-0.324 1.26,-0.216 2.016,-0.36 2.412,-0.576 -0.036,-17.136 -0.036,-34.487 0,-53.172 -0.036,-18.647 -0.036,-37.656 0,-57.852 -2.34,0.252 -4.968,0.468 -7.488,0.504 -2.556,0.036 -5.4,-0.072 -8.136,-0.324 z"
         i:knockout="Off"
         stroke-miterlimit="10"
         id="path138"
         inkscape:connector-curvature="0"
         style="clip-rule:evenodd;fill:#ffd700;fill-rule:evenodd;stroke:#000000;stroke-width:0.036;stroke-miterlimit:10" />
      <path
         d="m 234.954,38.446 c 1.548,0.288 3.672,0.468 6.66,0.396 2.88,-0.072 6.48,-0.288 10.8,-0.648 l 0.072,5.724 c -0.252,0.216 -1.26,0.54 -3.168,0.684 -2.052,0.216 -5.76,0.396 -8.208,0.396 -2.412,-0.108 -4.464,-0.612 -6.156,-1.224 0,-1.764 0,-3.528 0,-5.328 z"
         i:knockout="Off"
         stroke-miterlimit="10"
         id="path140"
         inkscape:connector-curvature="0"
         style="clip-rule:evenodd;fill:#ffd700;fill-rule:evenodd;stroke:#000000;stroke-width:0.036;stroke-miterlimit:10" />
      <path
         d="m 237.438,18.934 c 0.792,0.108 1.98,0.324 3.42,0.36 1.44,0.108 3.636,0.036 5.22,0.072 1.44,-0.072 2.736,-0.18 3.744,-0.324 l 0.072,3.996 c -1.944,0.216 -3.78,0.396 -5.904,0.396 -2.088,0 -4.248,-0.18 -6.48,-0.396 0,-1.368 -0.036,-2.736 -0.072,-4.104 z"
         i:knockout="Off"
         stroke-miterlimit="10"
         id="path142"
         inkscape:connector-curvature="0"
         style="clip-rule:evenodd;fill:#ffd700;fill-rule:evenodd;stroke:#000000;stroke-width:0.036;stroke-miterlimit:10" />
      <path
         d="m 242.01,24.118 c 0.54,0.036 1.044,0.18 1.656,0.144 0.576,0.036 1.116,-0.108 1.764,-0.144 V 36.97 c -0.468,0.252 -1.116,0.324 -1.656,0.36 -0.612,-0.072 -1.26,-0.216 -1.944,-0.432 v -12.78 z"
         i:knockout="Off"
         stroke-miterlimit="10"
         id="path144"
         inkscape:connector-curvature="0"
         style="clip-rule:evenodd;fill:#ffd700;fill-rule:evenodd;stroke:#000000;stroke-width:0.036;stroke-miterlimit:10" />
      <path
         d="m 240.678,36.646 c -0.864,0.072 -1.764,0.216 -2.556,0.432 -0.792,0.216 -1.62,0.36 -2.34,0.72 1.08,0.216 2.412,0.432 4.392,0.504 1.98,0.072 4.86,0 6.984,-0.072 1.908,-0.144 3.456,-0.288 4.644,-0.576 -0.792,-0.396 -1.764,-0.576 -2.628,-0.828 -1.008,-0.288 -1.908,-0.36 -2.988,-0.504 l -0.108,0.9 v 0 c -0.576,0.252 -1.296,0.468 -2.16,0.504 -0.936,0.036 -2.016,-0.072 -3.24,-0.324 0,-0.252 0,-0.504 0,-0.756 z"
         i:knockout="Off"
         stroke-miterlimit="10"
         id="path146"
         inkscape:connector-curvature="0"
         style="clip-rule:evenodd;fill:#ffd700;fill-rule:evenodd;stroke:#000000;stroke-width:0.036;stroke-miterlimit:10" />
      <path
         d="m 238.374,18.358 c 1.836,-0.36 3.636,-0.576 5.544,-0.504 1.944,-0.036 3.672,0.216 5.724,0.612 -2.052,0.324 -3.888,0.648 -5.796,0.576 -1.944,0.036 -3.672,-0.324 -5.472,-0.684 z"
         i:knockout="Off"
         stroke-miterlimit="10"
         id="path148"
         inkscape:connector-curvature="0"
         style="clip-rule:evenodd;fill:#ffd700;fill-rule:evenodd;stroke:#000000;stroke-width:0.036;stroke-miterlimit:10" />
      <path
         d="m 235.602,39.13 h 0.252 v 4.32 h -0.252 z"
         i:knockout="Off"
         stroke-miterlimit="10"
         id="path150"
         inkscape:connector-curvature="0"
         style="clip-rule:evenodd;fill-rule:evenodd;stroke:#000000;stroke-width:0.036;stroke-miterlimit:10" />
      <path
         d="m 237.366,39.49 h 0.252 v 4.32 h -0.252 z"
         i:knockout="Off"
         stroke-miterlimit="10"
         id="path152"
         inkscape:connector-curvature="0"
         style="clip-rule:evenodd;fill-rule:evenodd;stroke:#000000;stroke-width:0.036;stroke-miterlimit:10" />
      <path
         d="m 238.842,39.562 h 0.252 v 4.32 h -0.252 z"
         i:knockout="Off"
         stroke-miterlimit="10"
         id="path154"
         inkscape:connector-curvature="0"
         style="clip-rule:evenodd;fill-rule:evenodd;stroke:#000000;stroke-width:0.036;stroke-miterlimit:10" />
      <path
         d="m 241.254,39.814 h 0.252 v 4.32 h -0.252 z"
         i:knockout="Off"
         stroke-miterlimit="10"
         id="path156"
         inkscape:connector-curvature="0"
         style="clip-rule:evenodd;fill-rule:evenodd;stroke:#000000;stroke-width:0.036;stroke-miterlimit:10" />
      <path
         d="m 243.414,39.814 h 0.252 v 4.32 h -0.252 z"
         i:knockout="Off"
         stroke-miterlimit="10"
         id="path158"
         inkscape:connector-curvature="0"
         style="clip-rule:evenodd;fill-rule:evenodd;stroke:#000000;stroke-width:0.036;stroke-miterlimit:10" />
      <path
         d="m 245.682,39.634 h 0.252 v 4.32 h -0.252 z"
         i:knockout="Off"
         stroke-miterlimit="10"
         id="path160"
         inkscape:connector-curvature="0"
         style="clip-rule:evenodd;fill-rule:evenodd;stroke:#000000;stroke-width:0.036;stroke-miterlimit:10" />
      <path
         d="m 247.986,39.31 h 0.252 v 4.32 h -0.252 z"
         i:knockout="Off"
         stroke-miterlimit="10"
         id="path162"
         inkscape:connector-curvature="0"
         style="clip-rule:evenodd;fill-rule:evenodd;stroke:#000000;stroke-width:0.036;stroke-miterlimit:10" />
      <path
         d="m 250.326,38.986 h 0.252 v 4.32 h -0.252 z"
         i:knockout="Off"
         stroke-miterlimit="10"
         id="path164"
         inkscape:connector-curvature="0"
         style="clip-rule:evenodd;fill-rule:evenodd;stroke:#000000;stroke-width:0.036;stroke-miterlimit:10" />
      <path
         d="m 237.942,20.446 c 0.18,0.252 1.26,0.468 3.24,0.504 1.98,0 4.644,-0.036 8.388,-0.252 v 1.584 c -0.864,0.18 -1.98,0.288 -3.492,0.324 -1.548,0.036 -4.428,0.072 -5.724,-0.18 -1.404,-0.396 -2.16,-1.008 -2.412,-1.98 z"
         i:knockout="Off"
         stroke-miterlimit="10"
         id="path166"
         inkscape:connector-curvature="0"
         style="clip-rule:evenodd;fill-rule:evenodd;stroke:#000000;stroke-width:0.036;stroke-miterlimit:10" />
      <path
         d="m 243.666,25.774 c -0.18,1.476 -0.18,7.2 0,8.712 0,1.26 0.36,0.72 0.504,-0.648 0.18,-1.512 0.288,-6.336 0.324,-7.668 -0.18,-1.44 -0.684,-1.8 -0.828,-0.396 z"
         i:knockout="Off"
         stroke-miterlimit="10"
         id="path168"
         inkscape:connector-curvature="0"
         style="clip-rule:evenodd;fill-rule:evenodd;stroke:#000000;stroke-width:0.036;stroke-miterlimit:10" />
      <path
         d="m 245.754,52.774 c -0.288,0.324 -0.396,8.388 -0.324,14.472 0.036,5.868 0.036,20.16 0.828,21.096 0.684,0.72 2.88,-10.548 3.384,-15.624 0.324,-5.22 -0.432,-14.904 -0.72,-14.472 -0.288,0.576 -0.468,16.416 -0.828,17.784 -0.504,1.08 -1.368,-6.336 -1.764,-10.296 -0.36,-4.032 -0.504,-13.212 -0.576,-12.96 z"
         i:knockout="Off"
         stroke-miterlimit="10"
         id="path170"
         inkscape:connector-curvature="0"
         style="clip-rule:evenodd;fill-rule:evenodd;stroke:#000000;stroke-width:0.036;stroke-miterlimit:10" />
      <path
         d="m 235.314,157.714 h 0.252 v 4.32 h -0.252 z"
         i:knockout="Off"
         stroke-miterlimit="10"
         id="path172"
         inkscape:connector-curvature="0"
         style="clip-rule:evenodd;fill-rule:evenodd;stroke:#000000;stroke-width:0.036;stroke-miterlimit:10" />
      <path
         d="m 237.402,158.362 h 0.252 v 4.319 h -0.252 z"
         i:knockout="Off"
         stroke-miterlimit="10"
         id="path174"
         inkscape:connector-curvature="0"
         style="clip-rule:evenodd;fill-rule:evenodd;stroke:#000000;stroke-width:0.036;stroke-miterlimit:10" />
      <path
         d="m 239.742,158.866 h 0.252 v 4.319 h -0.252 z"
         i:knockout="Off"
         stroke-miterlimit="10"
         id="path176"
         inkscape:connector-curvature="0"
         style="clip-rule:evenodd;fill-rule:evenodd;stroke:#000000;stroke-width:0.036;stroke-miterlimit:10" />
      <path
         d="m 242.154,159.046 h 0.216 v 4.32 h -0.216 z"
         i:knockout="Off"
         stroke-miterlimit="10"
         id="path178"
         inkscape:connector-curvature="0"
         style="clip-rule:evenodd;fill-rule:evenodd;stroke:#000000;stroke-width:0.036;stroke-miterlimit:10" />
      <path
         d="m 244.89,159.118 h 0.252 v 4.319 h -0.252 z"
         i:knockout="Off"
         stroke-miterlimit="10"
         id="path180"
         inkscape:connector-curvature="0"
         style="clip-rule:evenodd;fill-rule:evenodd;stroke:#000000;stroke-width:0.036;stroke-miterlimit:10" />
      <path
         d="m 247.554,159.046 h 0.252 v 4.32 h -0.252 z"
         i:knockout="Off"
         stroke-miterlimit="10"
         id="path182"
         inkscape:connector-curvature="0"
         style="clip-rule:evenodd;fill-rule:evenodd;stroke:#000000;stroke-width:0.036;stroke-miterlimit:10" />
      <path
         d="m 249.858,158.722 h 0.252 v 4.32 h -0.252 z"
         i:knockout="Off"
         stroke-miterlimit="10"
         id="path184"
         inkscape:connector-curvature="0"
         style="clip-rule:evenodd;fill-rule:evenodd;stroke:#000000;stroke-width:0.036;stroke-miterlimit:10" />
      <path
         d="m 251.874,157.966 h 0.252 v 4.32 h -0.252 z"
         i:knockout="Off"
         stroke-miterlimit="10"
         id="path186"
         inkscape:connector-curvature="0"
         style="clip-rule:evenodd;fill-rule:evenodd;stroke:#000000;stroke-width:0.036;stroke-miterlimit:10" />
      <path
         d="m 259.758,18.358 v 5.256 l 4.572,0.396 v 12.06 0 c -1.476,-0.036 -2.808,0.252 -3.996,0.576 -1.296,0.324 -2.268,0.828 -3.312,1.512 v 5.976 l 0.828,0.9 c -0.036,2.196 -0.036,12.384 0,30.996 -0.036,18.72 -0.036,44.892 0,80.028 l -1.404,0.504 v 6.084 c 0.252,0.505 1.152,1.009 2.412,1.368 1.224,0.36 3.6,0.721 5.328,0.937 1.728,0.071 3.168,0.144 4.715,-0.072 2.196,-0.216 4.068,-0.576 5.328,-0.936 1.225,-0.36 2.124,-0.864 2.412,-1.368 v -6.084 l -1.403,-0.504 c -0.036,-35.137 -0.036,-61.309 0,-80.028 -0.036,-18.612 -0.036,-28.8 0,-30.996 l 0.827,-0.9 v -5.976 c -1.044,-0.684 -2.159,-1.188 -3.348,-1.512 -1.26,-0.324 -2.592,-0.612 -3.996,-0.576 l 0.036,-11.88 4.536,-0.576 v -5.256 c -1.44,-0.432 -2.952,-0.684 -4.536,-0.756 -1.764,-0.108 -3.636,0 -5.184,0.18 -1.547,0.143 -2.771,0.359 -3.815,0.647 z"
         i:knockout="Off"
         stroke-miterlimit="10"
         id="path188"
         inkscape:connector-curvature="0"
         style="clip-rule:evenodd;fill-rule:evenodd;stroke:#000000;stroke-width:0.036;stroke-miterlimit:10" />
      <path
         d="m 256.95,157.246 v 5.04 c 0.72,0.576 1.908,0.972 3.564,1.332 1.62,0.252 3.924,0.468 6.084,0.504 2.017,-0.036 4.716,-0.396 6.3,-0.648 1.477,-0.396 2.628,-0.684 3.061,-1.26 v -5.147 c -1.225,0.323 -2.592,0.575 -4.212,0.756 -1.656,0.18 -2.952,0.396 -5.4,0.323 0,0 -2.772,-0.144 -5.076,-0.432 -2.304,-0.252 -0.324,-0.144 -4.176,-0.647 z"
         i:knockout="Off"
         stroke-miterlimit="10"
         id="path190"
         inkscape:connector-curvature="0"
         style="clip-rule:evenodd;fill:#ffd700;fill-rule:evenodd;stroke:#000000;stroke-width:0.036;stroke-miterlimit:10" />
      <path
         d="m 258.786,45.502 c -0.036,8.928 -0.036,22.392 0,40.968 -0.036,18.612 -0.036,41.473 0,69.696 1.152,0.288 2.34,0.54 3.708,0.756 1.26,0.145 2.7,0.252 4.32,0.324 1.583,-0.072 3.816,-0.18 5.184,-0.324 1.26,-0.216 2.052,-0.36 2.376,-0.576 -0.036,-17.136 -0.036,-34.487 0,-53.172 -0.036,-18.647 -0.036,-37.656 0,-57.852 -2.412,0.252 -4.896,0.468 -7.452,0.504 -2.628,0.036 -5.292,-0.072 -8.136,-0.324 z"
         i:knockout="Off"
         stroke-miterlimit="10"
         id="path192"
         inkscape:connector-curvature="0"
         style="clip-rule:evenodd;fill:#ffd700;fill-rule:evenodd;stroke:#000000;stroke-width:0.036;stroke-miterlimit:10" />
      <path
         d="m 257.778,38.446 c 1.44,0.288 3.744,0.468 6.624,0.396 2.988,-0.072 6.408,-0.288 10.836,-0.648 l 0.071,5.724 c -0.252,0.216 -1.26,0.54 -3.168,0.684 -2.052,0.216 -5.76,0.396 -8.208,0.396 -2.412,-0.108 -4.464,-0.612 -6.156,-1.224 0.001,-1.764 0.001,-3.528 0.001,-5.328 z"
         i:knockout="Off"
         stroke-miterlimit="10"
         id="path194"
         inkscape:connector-curvature="0"
         style="clip-rule:evenodd;fill:#ffd700;fill-rule:evenodd;stroke:#000000;stroke-width:0.036;stroke-miterlimit:10" />
      <path
         d="m 260.262,18.934 c 0.792,0.108 1.98,0.324 3.42,0.36 1.44,0.108 3.636,0.036 5.22,0.072 1.44,-0.072 2.736,-0.18 3.744,-0.324 l 0.072,3.996 c -1.944,0.216 -3.78,0.396 -5.904,0.396 -2.088,0 -4.248,-0.18 -6.48,-0.396 0,-1.368 -0.036,-2.736 -0.072,-4.104 z"
         i:knockout="Off"
         stroke-miterlimit="10"
         id="path196"
         inkscape:connector-curvature="0"
         style="clip-rule:evenodd;fill:#ffd700;fill-rule:evenodd;stroke:#000000;stroke-width:0.036;stroke-miterlimit:10" />
      <path
         d="m 264.834,24.118 c 0.54,0.036 1.044,0.18 1.656,0.144 0.576,0.036 1.116,-0.108 1.764,-0.144 V 36.97 c -0.468,0.252 -1.116,0.324 -1.656,0.36 -0.612,-0.072 -1.26,-0.216 -1.944,-0.432 v -12.78 z"
         i:knockout="Off"
         stroke-miterlimit="10"
         id="path198"
         inkscape:connector-curvature="0"
         style="clip-rule:evenodd;fill:#ffd700;fill-rule:evenodd;stroke:#000000;stroke-width:0.036;stroke-miterlimit:10" />
      <path
         d="m 263.502,36.646 c -0.864,0.072 -1.764,0.216 -2.556,0.432 -0.792,0.216 -1.62,0.36 -2.34,0.72 1.08,0.216 2.412,0.432 4.392,0.504 1.98,0.072 4.859,0 6.983,-0.072 1.908,-0.144 3.456,-0.288 4.645,-0.576 -0.828,-0.396 -1.656,-0.576 -2.628,-0.828 -0.973,-0.288 -1.98,-0.36 -3.024,-0.504 l -0.072,0.9 v 0 c -0.575,0.252 -1.296,0.468 -2.16,0.504 -0.936,0.036 -2.016,-0.072 -3.24,-0.324 0,-0.252 0,-0.504 0,-0.756 z"
         i:knockout="Off"
         stroke-miterlimit="10"
         id="path200"
         inkscape:connector-curvature="0"
         style="clip-rule:evenodd;fill:#ffd700;fill-rule:evenodd;stroke:#000000;stroke-width:0.036;stroke-miterlimit:10" />
      <path
         d="m 261.162,18.358 c 1.8,-0.36 3.708,-0.576 5.58,-0.504 1.944,-0.036 3.672,0.216 5.724,0.612 -2.052,0.324 -3.888,0.648 -5.796,0.576 -1.908,0.036 -3.744,-0.324 -5.508,-0.684 z"
         i:knockout="Off"
         stroke-miterlimit="10"
         id="path202"
         inkscape:connector-curvature="0"
         style="clip-rule:evenodd;fill:#ffd700;fill-rule:evenodd;stroke:#000000;stroke-width:0.036;stroke-miterlimit:10" />
      <path
         d="m 258.426,39.13 h 0.252 v 4.32 h -0.252 z"
         i:knockout="Off"
         stroke-miterlimit="10"
         id="path204"
         inkscape:connector-curvature="0"
         style="clip-rule:evenodd;fill-rule:evenodd;stroke:#000000;stroke-width:0.036;stroke-miterlimit:10" />
      <path
         d="m 260.19,39.49 h 0.252 v 4.32 h -0.252 z"
         i:knockout="Off"
         stroke-miterlimit="10"
         id="path206"
         inkscape:connector-curvature="0"
         style="clip-rule:evenodd;fill-rule:evenodd;stroke:#000000;stroke-width:0.036;stroke-miterlimit:10" />
      <path
         d="m 261.666,39.562 h 0.252 v 4.32 h -0.252 z"
         i:knockout="Off"
         stroke-miterlimit="10"
         id="path208"
         inkscape:connector-curvature="0"
         style="clip-rule:evenodd;fill-rule:evenodd;stroke:#000000;stroke-width:0.036;stroke-miterlimit:10" />
      <path
         d="m 264.078,39.814 h 0.252 v 4.32 h -0.252 z"
         i:knockout="Off"
         stroke-miterlimit="10"
         id="path210"
         inkscape:connector-curvature="0"
         style="clip-rule:evenodd;fill-rule:evenodd;stroke:#000000;stroke-width:0.036;stroke-miterlimit:10" />
      <path
         d="m 266.238,39.814 h 0.252 v 4.32 h -0.252 z"
         i:knockout="Off"
         stroke-miterlimit="10"
         id="path212"
         inkscape:connector-curvature="0"
         style="clip-rule:evenodd;fill-rule:evenodd;stroke:#000000;stroke-width:0.036;stroke-miterlimit:10" />
      <path
         d="m 268.506,39.634 h 0.216 v 4.32 h -0.216 z"
         i:knockout="Off"
         stroke-miterlimit="10"
         id="path214"
         inkscape:connector-curvature="0"
         style="clip-rule:evenodd;fill-rule:evenodd;stroke:#000000;stroke-width:0.036;stroke-miterlimit:10" />
      <path
         d="m 270.81,39.31 h 0.252 v 4.32 h -0.252 z"
         i:knockout="Off"
         stroke-miterlimit="10"
         id="path216"
         inkscape:connector-curvature="0"
         style="clip-rule:evenodd;fill-rule:evenodd;stroke:#000000;stroke-width:0.036;stroke-miterlimit:10" />
      <path
         d="m 273.149,38.986 h 0.252 v 4.32 h -0.252 z"
         i:knockout="Off"
         stroke-miterlimit="10"
         id="path218"
         inkscape:connector-curvature="0"
         style="clip-rule:evenodd;fill-rule:evenodd;stroke:#000000;stroke-width:0.036;stroke-miterlimit:10" />
      <path
         d="m 260.766,20.446 c 0.18,0.252 1.26,0.468 3.24,0.504 1.98,0 4.644,-0.036 8.388,-0.252 v 1.584 c -0.863,0.18 -1.979,0.288 -3.492,0.324 -1.547,0.036 -4.428,0.072 -5.724,-0.18 -1.404,-0.396 -2.16,-1.008 -2.412,-1.98 z"
         i:knockout="Off"
         stroke-miterlimit="10"
         id="path220"
         inkscape:connector-curvature="0"
         style="clip-rule:evenodd;fill-rule:evenodd;stroke:#000000;stroke-width:0.036;stroke-miterlimit:10" />
      <path
         d="m 266.49,25.774 c -0.18,1.476 -0.18,7.2 0,8.712 0,1.26 0.36,0.72 0.504,-0.648 0.18,-1.512 0.288,-6.336 0.324,-7.668 -0.18,-1.44 -0.684,-1.8 -0.828,-0.396 z"
         i:knockout="Off"
         stroke-miterlimit="10"
         id="path222"
         inkscape:connector-curvature="0"
         style="clip-rule:evenodd;fill-rule:evenodd;stroke:#000000;stroke-width:0.036;stroke-miterlimit:10" />
      <path
         d="m 268.578,52.774 c -0.288,0.324 -0.396,8.388 -0.324,14.472 0.036,5.868 0.036,20.16 0.828,21.096 0.684,0.72 2.88,-10.548 3.384,-15.624 0.324,-5.22 -0.432,-14.904 -0.72,-14.472 -0.288,0.576 -0.469,16.416 -0.828,17.784 -0.504,1.08 -1.368,-6.336 -1.764,-10.296 -0.36,-4.032 -0.505,-13.212 -0.576,-12.96 z"
         i:knockout="Off"
         stroke-miterlimit="10"
         id="path224"
         inkscape:connector-curvature="0"
         style="clip-rule:evenodd;fill-rule:evenodd;stroke:#000000;stroke-width:0.036;stroke-miterlimit:10" />
      <path
         d="m 258.138,157.714 h 0.252 v 4.32 h -0.252 z"
         i:knockout="Off"
         stroke-miterlimit="10"
         id="path226"
         inkscape:connector-curvature="0"
         style="clip-rule:evenodd;fill-rule:evenodd;stroke:#000000;stroke-width:0.036;stroke-miterlimit:10" />
      <path
         d="m 260.226,158.362 h 0.252 v 4.319 h -0.252 z"
         i:knockout="Off"
         stroke-miterlimit="10"
         id="path228"
         inkscape:connector-curvature="0"
         style="clip-rule:evenodd;fill-rule:evenodd;stroke:#000000;stroke-width:0.036;stroke-miterlimit:10" />
      <path
         d="m 262.566,158.866 h 0.216 v 4.319 h -0.216 z"
         i:knockout="Off"
         stroke-miterlimit="10"
         id="path230"
         inkscape:connector-curvature="0"
         style="clip-rule:evenodd;fill-rule:evenodd;stroke:#000000;stroke-width:0.036;stroke-miterlimit:10" />
      <path
         d="m 264.942,159.046 h 0.252 v 4.32 h -0.252 z"
         i:knockout="Off"
         stroke-miterlimit="10"
         id="path232"
         inkscape:connector-curvature="0"
         style="clip-rule:evenodd;fill-rule:evenodd;stroke:#000000;stroke-width:0.036;stroke-miterlimit:10" />
      <path
         d="m 267.714,159.118 h 0.252 v 4.319 h -0.252 z"
         i:knockout="Off"
         stroke-miterlimit="10"
         id="path234"
         inkscape:connector-curvature="0"
         style="clip-rule:evenodd;fill-rule:evenodd;stroke:#000000;stroke-width:0.036;stroke-miterlimit:10" />
      <path
         d="m 270.378,159.046 h 0.216 v 4.32 h -0.216 z"
         i:knockout="Off"
         stroke-miterlimit="10"
         id="path236"
         inkscape:connector-curvature="0"
         style="clip-rule:evenodd;fill-rule:evenodd;stroke:#000000;stroke-width:0.036;stroke-miterlimit:10" />
      <path
         d="m 272.682,158.722 h 0.252 v 4.32 h -0.252 z"
         i:knockout="Off"
         stroke-miterlimit="10"
         id="path238"
         inkscape:connector-curvature="0"
         style="clip-rule:evenodd;fill-rule:evenodd;stroke:#000000;stroke-width:0.036;stroke-miterlimit:10" />
      <path
         d="m 274.698,157.966 h 0.252 v 4.32 h -0.252 z"
         i:knockout="Off"
         stroke-miterlimit="10"
         id="path240"
         inkscape:connector-curvature="0"
         style="clip-rule:evenodd;fill-rule:evenodd;stroke:#000000;stroke-width:0.036;stroke-miterlimit:10" />
      <path
         d="m 252.162,97.126 c -0.792,0.288 -1.26,0.864 -1.8,1.584 -0.576,0.648 -1.332,1.584 -1.152,2.808 0.144,1.188 0.756,2.628 1.98,4.465 0.54,-0.576 1.152,-1.116 1.98,-1.332 0.756,-0.288 1.692,-0.576 2.808,-0.324 1.116,0.107 2.304,0.647 3.708,1.332 1.116,-1.477 1.512,-2.916 1.332,-4.32 -0.252,-1.476 -1.08,-2.88 -2.628,-4.355 -0.252,1.188 -0.756,1.907 -1.512,2.304 -0.756,0.359 -2.52,0.072 -3.204,-0.181 -0.792,-0.397 -1.296,-1.009 -1.512,-1.981 z"
         i:knockout="Off"
         stroke-miterlimit="10"
         id="path242"
         inkscape:connector-curvature="0"
         style="clip-rule:evenodd;fill-rule:evenodd;stroke:#000000;stroke-width:0.036;stroke-miterlimit:10" />
      <path
         d="m 251.694,98.458 c -0.504,0.504 -0.936,0.936 -1.152,1.584 -0.396,0.504 -0.54,1.08 -0.432,1.872 0.144,0.792 0.432,1.656 1.152,2.736 1.296,-0.864 2.7,-1.225 4.068,-1.225 1.44,0 2.664,0.36 4.212,1.225 0.504,-0.864 0.72,-1.801 0.648,-2.809 -0.144,-1.08 -0.504,-2.16 -1.224,-3.384 -1.296,1.368 -2.376,2.052 -3.636,2.052 -1.296,0.001 -2.376,-0.683 -3.636,-2.051 z"
         i:knockout="Off"
         stroke-miterlimit="10"
         id="path244"
         inkscape:connector-curvature="0"
         style="clip-rule:evenodd;fill:#ffd600;fill-rule:evenodd;stroke:#000000;stroke-width:0.036;stroke-miterlimit:10" />
      <path
         d="m 228.366,97.594 c -0.756,0.216 -1.368,0.864 -1.836,1.548 -0.576,0.648 -1.332,1.584 -1.152,2.809 0.144,1.188 0.756,2.628 1.98,4.464 0.54,-0.576 1.152,-1.116 1.98,-1.332 0.756,-0.288 1.692,-0.576 2.808,-0.324 1.116,0.108 2.268,0.648 3.744,1.332 1.044,-1.404 1.476,-2.88 1.296,-4.284 -0.252,-1.439 -1.08,-2.952 -2.628,-4.392 -0.18,1.188 -0.72,1.908 -1.476,2.304 -0.9,0.324 -2.448,0.145 -3.24,-0.144 -0.792,-0.397 -1.332,-1.009 -1.476,-1.981 z"
         i:knockout="Off"
         stroke-miterlimit="10"
         id="path246"
         inkscape:connector-curvature="0"
         style="clip-rule:evenodd;fill-rule:evenodd;stroke:#000000;stroke-width:0.036;stroke-miterlimit:10" />
      <path
         d="m 227.862,98.89 c -0.504,0.504 -0.936,0.937 -1.152,1.584 -0.396,0.576 -0.54,1.08 -0.432,1.908 0.108,0.756 0.504,1.656 1.188,2.7 1.332,-0.864 2.628,-1.224 4.032,-1.224 1.44,0 2.664,0.359 4.212,1.224 0.504,-0.864 0.72,-1.8 0.648,-2.808 -0.144,-1.08 -0.504,-2.16 -1.224,-3.385 -1.296,1.332 -2.376,2.124 -3.636,2.088 -1.296,0.037 -2.376,-0.755 -3.636,-2.087 z"
         i:knockout="Off"
         stroke-miterlimit="10"
         id="path248"
         inkscape:connector-curvature="0"
         style="clip-rule:evenodd;fill:#ffd600;fill-rule:evenodd;stroke:#000000;stroke-width:0.036;stroke-miterlimit:10" />
      <path
         d="m 251.442,145.114 c -0.792,0.216 -1.26,0.863 -1.8,1.548 -0.576,0.647 -1.332,1.584 -1.152,2.808 0.144,1.188 0.756,2.628 1.98,4.464 0.54,-0.611 1.152,-1.044 1.98,-1.296 0.756,-0.359 1.692,-0.576 2.808,-0.359 1.116,0.144 2.304,0.54 3.708,1.332 1.116,-1.404 1.512,-2.881 1.332,-4.284 -0.216,-1.44 -1.152,-2.952 -2.664,-4.393 -0.18,1.188 -0.72,1.908 -1.476,2.305 -0.756,0.323 -2.52,0.144 -3.204,-0.145 -0.792,-0.396 -1.296,-1.008 -1.512,-1.98 z"
         i:knockout="Off"
         stroke-miterlimit="10"
         id="path250"
         inkscape:connector-curvature="0"
         style="clip-rule:evenodd;fill-rule:evenodd;stroke:#000000;stroke-width:0.036;stroke-miterlimit:10" />
      <path
         d="m 250.974,146.41 c -0.54,0.504 -0.936,0.936 -1.188,1.584 -0.252,0.576 -0.612,1.08 -0.396,1.908 0.108,0.792 0.54,1.655 1.152,2.735 1.296,-0.828 2.7,-1.296 4.068,-1.26 1.44,-0.036 2.664,0.432 4.212,1.26 0.504,-0.863 0.72,-1.8 0.648,-2.808 -0.144,-1.116 -0.504,-2.124 -1.224,-3.42 -1.296,1.332 -2.376,2.124 -3.636,2.088 -1.296,0.037 -2.376,-0.755 -3.636,-2.087 z"
         i:knockout="Off"
         stroke-miterlimit="10"
         id="path252"
         inkscape:connector-curvature="0"
         style="clip-rule:evenodd;fill:#ffd600;fill-rule:evenodd;stroke:#000000;stroke-width:0.036;stroke-miterlimit:10" />
      <path
         d="m 228.006,144.826 c -0.756,0.288 -1.368,0.863 -1.836,1.584 -0.576,0.647 -1.332,1.584 -1.152,2.808 0.144,1.188 0.756,2.628 1.98,4.464 0.54,-0.576 1.152,-1.115 1.98,-1.332 0.756,-0.288 1.692,-0.575 2.808,-0.323 1.116,0.144 2.268,0.575 3.744,1.296 1.044,-1.404 1.476,-2.88 1.296,-4.284 -0.252,-1.44 -1.08,-2.952 -2.628,-4.393 -0.18,1.152 -0.72,1.98 -1.476,2.341 -0.9,0.359 -2.448,0.071 -3.24,-0.181 -0.792,-0.396 -1.332,-1.008 -1.476,-1.98 z"
         i:knockout="Off"
         stroke-miterlimit="10"
         id="path254"
         inkscape:connector-curvature="0"
         style="clip-rule:evenodd;fill-rule:evenodd;stroke:#000000;stroke-width:0.036;stroke-miterlimit:10" />
      <path
         d="m 227.502,146.158 c -0.504,0.396 -0.936,1.008 -1.152,1.548 -0.396,0.576 -0.54,1.08 -0.432,1.908 0.108,0.792 0.504,1.655 1.188,2.735 1.332,-0.828 2.628,-1.296 4.032,-1.26 1.44,-0.036 2.664,0.432 4.212,1.26 0.504,-0.863 0.72,-1.8 0.648,-2.808 -0.144,-1.08 -0.504,-2.16 -1.224,-3.384 -1.296,1.368 -2.376,2.052 -3.636,2.052 -1.296,0.001 -2.376,-0.683 -3.636,-2.051 z"
         i:knockout="Off"
         stroke-miterlimit="10"
         id="path256"
         inkscape:connector-curvature="0"
         style="clip-rule:evenodd;fill:#ffd600;fill-rule:evenodd;stroke:#000000;stroke-width:0.036;stroke-miterlimit:10" />
      <path
         d="m 251.514,121.894 c -0.828,0.324 -1.584,0.937 -2.124,1.836 -0.684,0.828 -1.512,1.801 -1.368,3.313 0.108,1.404 0.936,3.168 2.34,5.292 0.648,-0.72 1.332,-1.296 2.34,-1.584 0.864,-0.36 2.016,-0.576 3.312,-0.36 1.224,0.108 2.736,0.756 4.392,1.548 1.26,-1.728 1.836,-3.42 1.584,-5.075 -0.252,-1.765 -1.296,-3.492 -3.132,-5.185 -0.288,1.332 -0.828,2.34 -1.764,2.736 -1.008,0.36 -2.88,0.252 -3.816,-0.18 -0.972,-0.433 -1.512,-1.261 -1.764,-2.341 z"
         i:knockout="Off"
         stroke-miterlimit="10"
         id="path258"
         inkscape:connector-curvature="0"
         style="clip-rule:evenodd;fill-rule:evenodd;stroke:#000000;stroke-width:0.036;stroke-miterlimit:10" />
      <path
         d="m 250.938,123.442 c -0.576,0.54 -1.08,1.151 -1.368,1.836 -0.432,0.684 -0.54,1.26 -0.468,2.268 0.108,0.937 0.612,1.908 1.368,3.204 1.584,-0.937 3.132,-1.512 4.788,-1.44 1.692,-0.071 3.168,0.504 4.968,1.44 0.576,-1.08 0.936,-2.052 0.792,-3.313 -0.18,-1.26 -0.576,-2.592 -1.476,-3.995 -1.512,1.655 -2.808,2.376 -4.284,2.447 -1.476,-0.071 -2.916,-0.791 -4.32,-2.447 z"
         i:knockout="Off"
         stroke-miterlimit="10"
         id="path260"
         inkscape:connector-curvature="0"
         style="clip-rule:evenodd;fill:#ffd600;fill-rule:evenodd;stroke:#000000;stroke-width:0.036;stroke-miterlimit:10" />
      <path
         d="m 153.594,49.498 -1.08,7.884 c 38.916,1.728 71.316,2.952 99.288,4.068 27.792,0.972 40.68,0.864 66.42,2.052 25.668,1.08 63.648,2.88 86.292,4.572 22.393,1.584 34.057,2.988 47.628,5.328 13.464,2.304 24.732,5.112 32.832,8.424 7.884,3.204 11.376,6.768 14.76,10.691 3.276,3.816 2.881,7.885 5.328,12.204 2.521,4.248 5.796,13.068 9.433,12.996 3.456,-0.468 8.567,-8.352 11.447,-14.508 2.664,-6.156 4.104,-14.436 5.292,-21.636 1.261,-7.272 1.801,-14.22 2.017,-21.384 0.324,-7.884 0.216,-15.408 -0.252,-22.932 -0.469,-7.524 -0.756,-15.768 -2.521,-21.888 -1.836,-6.12 -5.472,-12.42 -8.172,-14.508 -2.7,-2.016 -5.436,-0.216 -7.884,2.304 -2.448,2.52 -4.752,9.216 -6.552,12.708 -1.765,3.456 -1.044,4.788 -4.068,7.884 -3.06,3.132 -4.392,7.668 -14.004,10.692 -9.72,3.06 -21.384,5.544 -43.524,7.416 -22.283,1.8 -59.724,2.7 -88.668,3.528 -28.872,0.864 -49.104,0.864 -83.34,1.548 -34.38,0.685 -73.872,1.513 -120.672,2.557 z"
         i:knockout="Off"
         stroke-miterlimit="10"
         id="path262"
         inkscape:connector-curvature="0"
         style="clip-rule:evenodd;fill-rule:evenodd;stroke:#000000;stroke-width:0.036;stroke-miterlimit:10" />
      <path
         d="m 155.07,51.01 -0.504,4.32 c 24.588,1.404 46.26,2.556 66.42,3.312 20.016,0.612 33.228,0.72 52.956,1.296 19.692,0.504 42.372,1.26 64.152,2.268 21.672,0.828 45.72,2.016 64.908,3.564 18.936,1.548 33.372,2.988 48.312,5.868 14.868,2.772 30.744,6.696 39.996,10.944 8.964,4.176 10.477,9.252 13.968,14.256 3.385,4.968 4.536,12.276 6.66,15.264 1.944,2.809 3.349,3.78 5.616,1.801 2.232,-2.196 5.652,-7.74 7.884,-14.004 2.124,-6.337 3.78,-16.561 4.824,-23.185 0.937,-6.624 1.26,-11.952 0.972,-16.272 0.324,-4.32 0.36,-9.756 0.253,-16.308 -0.217,-6.696 0.252,-16.488 -1.225,-23.148 -1.656,-6.804 -5.472,-14.076 -7.956,-16.812 -2.556,-2.808 -4.176,-2.916 -6.804,0.504 -2.592,3.42 -4.608,14.4 -8.964,19.872 -4.5,5.292 -7.813,9.036 -18,12.204 -10.548,2.952 -24.876,4.752 -43.524,6.372 -18.756,1.656 -40.932,2.664 -67.212,3.564 -26.244,0.72 -51.624,0.54 -88.92,1.26 -37.548,0.72 -81.36,1.692 -133.812,3.06 z"
         i:knockout="Off"
         stroke-miterlimit="10"
         id="path264"
         inkscape:connector-curvature="0"
         style="clip-rule:evenodd;fill:#ffd700;fill-rule:evenodd;stroke:#000000;stroke-width:0.036;stroke-miterlimit:10" />
      <path
         d="m 411.065,52.81 c 7.416,-0.36 18.757,-0.144 29.557,-1.296 10.691,-1.332 21.96,-4.104 34.092,-6.372 12.096,-2.412 30.815,-10.332 37.692,-7.38 6.623,3.06 0.575,18.9 2.268,25.452 1.584,6.408 7.884,9.576 7.38,12.996 -0.576,3.348 -2.844,7.812 -10.692,6.876 -8.063,-1.188 -37.079,-12.312 -36.899,-13.248 0.252,-0.828 32.147,8.892 38.196,7.92 5.832,-1.296 -2.053,-8.64 -2.557,-14.544 -0.576,-5.94 4.068,-17.676 -0.504,-20.34 -4.716,-2.7 -15.048,2.808 -27.252,4.572 -12.42,1.728 -31.392,4.428 -45.828,5.616 -14.544,0.972 -35.64,0.756 -39.96,0.756 -4.32,-0.072 7.128,-0.684 14.507,-1.008 z"
         i:knockout="Off"
         stroke-miterlimit="10"
         id="path266"
         inkscape:connector-curvature="0"
         style="clip-rule:evenodd;fill-rule:evenodd;stroke:#000000;stroke-width:0.036;stroke-miterlimit:10" />
      <path
         d="m 291.689,24.334 -0.684,2.268 c -1.764,0.396 -3.528,1.296 -5.436,2.7 -2.053,1.404 -4.969,3.204 -5.977,5.544 -1.08,2.268 -1.008,5.436 0.216,7.848 1.188,2.304 2.484,4.392 7.345,5.868 4.932,1.368 11.916,2.268 21.636,2.556 0.288,-1.08 0.828,-2.016 1.764,-2.664 0.9,-0.756 2.052,-1.26 3.601,-1.512 l 0.18,-1.584 c -2.916,0 -6.408,0.036 -10.332,0.108 -4.104,-0.036 -9.864,0.648 -13.393,0.108 -3.491,-0.648 -5.939,-1.908 -7.344,-3.492 -1.548,-1.584 -1.764,-4.176 -1.476,-5.832 0.18,-1.764 1.151,-2.88 3.06,-4.464 1.908,-1.656 4.645,-3.384 8.353,-5.184 0.18,-0.936 0.216,-1.584 0.107,-2.088 -0.216,-0.576 -0.611,-0.864 -0.899,-0.864 -0.252,0 -0.54,0.18 -0.721,0.684 z"
         i:knockout="Off"
         stroke-miterlimit="10"
         id="path268"
         inkscape:connector-curvature="0"
         style="clip-rule:evenodd;fill-rule:evenodd;stroke:#000000;stroke-width:0.036;stroke-miterlimit:10" />
      <path
         d="m 162.054,106.99 h 39.816 v 11.987 h -39.816 z"
         i:knockout="Off"
         stroke-miterlimit="10"
         id="path270"
         inkscape:connector-curvature="0"
         style="clip-rule:evenodd;fill-rule:evenodd;stroke:#000000;stroke-width:0.036;stroke-miterlimit:10" />
      <path
         d="m 162.846,108.286 h 37.728 v 9.359 h -37.728 z"
         i:knockout="Off"
         stroke-miterlimit="10"
         id="path272"
         inkscape:connector-curvature="0"
         style="clip-rule:evenodd;fill:#ffd600;fill-rule:evenodd;stroke:#000000;stroke-width:0.036;stroke-miterlimit:10" />
      <path
         d="m 200.106,106.414 c -0.72,0.684 -1.152,1.836 -1.296,3.456 -0.18,1.584 -0.072,4.355 0.324,6.084 0.252,1.691 0.756,2.735 1.512,3.672 h 6.3 l 1.404,-0.756 c 1.764,-0.145 3.168,-0.433 4.212,-0.864 1.044,-0.504 1.404,-1.152 2.052,-1.944 0.54,-0.972 1.404,-1.979 1.332,-3.168 -0.216,-1.332 -0.9,-2.951 -2.196,-3.888 -1.404,-0.972 -3.132,-1.548 -5.616,-1.728 l -1.512,-0.864 c -2.16,0 -4.32,0 -6.516,0 z"
         i:knockout="Off"
         stroke-miterlimit="10"
         id="path274"
         inkscape:connector-curvature="0"
         style="clip-rule:evenodd;fill-rule:evenodd;stroke:#000000;stroke-width:0.036;stroke-miterlimit:10" />
      <path
         d="m 200.646,107.062 c -0.648,1.009 -1.008,2.269 -1.08,3.78 -0.108,1.404 0.036,3.708 0.432,5.112 0.216,1.332 0.576,2.304 1.08,2.916 h 6.192 c -0.864,-2.052 -1.368,-3.996 -1.512,-5.977 -0.18,-2.088 0,-3.852 0.54,-5.832 -1.872,10e-4 -3.744,10e-4 -5.652,10e-4 z"
         i:knockout="Off"
         stroke-miterlimit="10"
         id="path276"
         inkscape:connector-curvature="0"
         style="clip-rule:evenodd;fill:#c0c0c0;fill-rule:evenodd;stroke:#000000;stroke-width:0.036;stroke-miterlimit:10" />
      <path
         d="m 207.486,108.034 c -0.612,1.764 -0.864,3.492 -0.756,5.184 0.036,1.692 0.432,3.24 1.188,4.788 1.908,-0.072 3.456,-0.504 4.644,-1.296 1.188,-0.9 2.232,-2.376 2.304,-3.6 -0.144,-1.332 -1.008,-2.916 -2.304,-3.78 -1.332,-0.9 -2.88,-1.332 -5.076,-1.296 z"
         i:knockout="Off"
         stroke-miterlimit="10"
         id="path278"
         inkscape:connector-curvature="0"
         style="clip-rule:evenodd;fill:#ffd600;fill-rule:evenodd;stroke:#000000;stroke-width:0.036;stroke-miterlimit:10" />
      <path
         d="m 162.054,125.494 h 39.816 v 11.988 h -39.816 z"
         i:knockout="Off"
         stroke-miterlimit="10"
         id="path280"
         inkscape:connector-curvature="0"
         style="clip-rule:evenodd;fill-rule:evenodd;stroke:#000000;stroke-width:0.036;stroke-miterlimit:10" />
      <path
         d="m 163.35,126.826 h 37.224 v 9.359 H 163.35 Z"
         i:knockout="Off"
         stroke-miterlimit="10"
         id="path282"
         inkscape:connector-curvature="0"
         style="clip-rule:evenodd;fill:#ffd600;fill-rule:evenodd;stroke:#000000;stroke-width:0.036;stroke-miterlimit:10" />
      <path
         d="m 200.106,124.918 c -0.72,0.648 -1.152,1.944 -1.296,3.492 -0.18,1.62 -0.072,4.284 0.324,6.048 0.252,1.584 0.756,2.808 1.512,3.672 h 6.3 l 1.404,-0.756 c 1.764,-0.145 3.168,-0.432 4.212,-0.864 1.044,-0.504 1.404,-1.151 2.052,-1.943 0.54,-0.864 1.404,-2.053 1.332,-3.133 -0.216,-1.332 -0.9,-2.951 -2.196,-3.888 -1.404,-0.972 -3.132,-1.512 -5.616,-1.764 l -1.512,-0.864 c -2.16,0 -4.32,0 -6.516,0 z"
         i:knockout="Off"
         stroke-miterlimit="10"
         id="path284"
         inkscape:connector-curvature="0"
         style="clip-rule:evenodd;fill-rule:evenodd;stroke:#000000;stroke-width:0.036;stroke-miterlimit:10" />
      <path
         d="m 200.646,125.566 c -0.648,1.079 -1.008,2.304 -1.08,3.815 -0.108,1.404 0.036,3.744 0.432,5.076 0.216,1.332 0.576,2.304 1.08,2.916 h 6.192 c -0.864,-2.016 -1.368,-3.996 -1.512,-5.94 -0.18,-2.016 0,-3.924 0.54,-5.867 -1.872,0 -3.744,0 -5.652,0 z"
         i:knockout="Off"
         stroke-miterlimit="10"
         id="path286"
         inkscape:connector-curvature="0"
         style="clip-rule:evenodd;fill:#c0c0c0;fill-rule:evenodd;stroke:#000000;stroke-width:0.036;stroke-miterlimit:10" />
      <path
         d="m 207.486,126.538 c -0.612,1.836 -0.864,3.528 -0.756,5.22 0.036,1.729 0.432,3.132 1.188,4.752 1.908,-0.072 3.456,-0.504 4.644,-1.296 1.188,-0.936 2.232,-2.304 2.304,-3.563 -0.144,-1.332 -1.008,-2.916 -2.304,-3.78 -1.332,-0.901 -2.88,-1.297 -5.076,-1.333 z"
         i:knockout="Off"
         stroke-miterlimit="10"
         id="path288"
         inkscape:connector-curvature="0"
         style="clip-rule:evenodd;fill:#ffd600;fill-rule:evenodd;stroke:#000000;stroke-width:0.036;stroke-miterlimit:10" />
      <path
         d="m 155.178,107.062 c -1.98,-0.323 -3.852,-0.252 -5.76,0.217 -2.016,0.396 -4.032,1.188 -5.616,2.376 -1.692,1.115 -3.024,2.628 -3.996,4.535 -1.044,1.837 -2.016,4.213 -2.088,6.732 -0.18,2.376 0.288,5.832 1.116,8.028 0.576,2.16 1.656,3.672 3.24,5.076 1.584,1.224 3.924,2.159 6.48,2.808 2.484,0.54 5.256,0.792 8.46,0.756 l -0.972,-12.24 c -2.232,0.072 -3.924,-0.036 -5.22,-0.323 -1.332,-0.324 -2.16,-0.828 -2.484,-1.513 -0.396,-0.792 -0.288,-2.483 0.324,-3.132 0.54,-0.828 1.908,-1.116 3.276,-1.296 1.26,-0.216 2.772,-0.18 4.536,0.108 -0.432,-4.032 -0.864,-8.064 -1.296,-12.132 z"
         i:knockout="Off"
         stroke-miterlimit="10"
         id="path290"
         inkscape:connector-curvature="0"
         style="clip-rule:evenodd;fill-rule:evenodd;stroke:#000000;stroke-width:0.036;stroke-miterlimit:10" />
      <path
         d="m 154.746,107.71 c -3.132,-0.18 -5.76,0.252 -8.028,1.296 -2.34,0.9 -4.176,2.484 -5.508,4.752 -1.368,2.304 -2.844,5.256 -2.628,8.568 0.072,3.096 0.792,7.775 3.708,10.296 2.916,2.448 7.488,3.96 13.86,4.536 l -0.756,-11.053 c -2.16,0.433 -3.888,0.396 -5.328,-0.107 -1.584,-0.612 -2.844,-1.764 -3.24,-2.916 -0.396,-1.26 -0.576,-3.061 0.972,-3.888 1.476,-0.864 3.996,-1.225 7.704,-1.08 -0.252,-3.456 -0.504,-6.912 -0.756,-10.404 z"
         i:knockout="Off"
         stroke-miterlimit="10"
         id="path292"
         inkscape:connector-curvature="0"
         style="clip-rule:evenodd;fill:#ffd600;fill-rule:evenodd;stroke:#000000;stroke-width:0.036;stroke-miterlimit:10" />
      <path
         d="m 154.422,106.414 c -0.972,0.684 -1.512,1.836 -1.764,3.456 -0.324,1.584 0,4.355 0.432,6.084 0.36,1.691 1.152,2.735 2.088,3.672 h 10.404 c 0,0 -1.872,-3.24 -2.232,-6.516 -0.396,-3.276 0.72,-6.589 0.72,-6.589 -3.204,-0.035 -6.408,-0.071 -9.648,-0.107 z"
         i:knockout="Off"
         stroke-miterlimit="10"
         id="path294"
         inkscape:connector-curvature="0"
         style="clip-rule:evenodd;fill-rule:evenodd;stroke:#000000;stroke-width:0.036;stroke-miterlimit:10" />
      <path
         d="m 155.178,107.062 c -0.828,1.009 -1.368,2.269 -1.476,3.78 -0.144,1.404 0.144,3.708 0.576,5.112 0.324,1.332 0.864,2.304 1.476,2.916 h 8.46 c -1.188,-2.052 -1.872,-3.996 -2.052,-5.977 -0.252,-2.088 0.036,-3.852 0.72,-5.832 -2.556,10e-4 -5.112,10e-4 -7.704,10e-4 z"
         i:knockout="Off"
         stroke-miterlimit="10"
         id="path296"
         inkscape:connector-curvature="0"
         style="clip-rule:evenodd;fill:#c0c0c0;fill-rule:evenodd;stroke:#000000;stroke-width:0.036;stroke-miterlimit:10" />
      <path
         d="m 154.422,124.918 c -0.972,0.648 -1.512,1.944 -1.764,3.492 -0.324,1.62 0,4.284 0.432,6.048 0.36,1.584 1.152,2.808 2.088,3.672 h 10.404 c 0,0 -1.872,-3.204 -2.232,-6.479 -0.396,-3.276 0.72,-6.624 0.72,-6.624 -3.204,-0.037 -6.408,-0.073 -9.648,-0.109 z"
         i:knockout="Off"
         stroke-miterlimit="10"
         id="path298"
         inkscape:connector-curvature="0"
         style="clip-rule:evenodd;fill-rule:evenodd;stroke:#000000;stroke-width:0.036;stroke-miterlimit:10" />
      <path
         d="m 155.178,125.566 c -0.828,1.079 -1.368,2.304 -1.476,3.815 -0.144,1.404 0.144,3.744 0.576,5.076 0.324,1.332 0.864,2.304 1.476,2.916 h 8.46 c -1.188,-2.016 -1.872,-3.996 -2.052,-5.94 -0.252,-2.016 0.036,-3.924 0.72,-5.867 -2.556,0 -5.112,0 -7.704,0 z"
         i:knockout="Off"
         stroke-miterlimit="10"
         id="path300"
         inkscape:connector-curvature="0"
         style="clip-rule:evenodd;fill:#c0c0c0;fill-rule:evenodd;stroke:#000000;stroke-width:0.036;stroke-miterlimit:10" />
      <path
         d="m 225.486,107.062 c -2.304,-0.323 -4.284,-0.252 -6.48,0.217 -2.16,0.396 -4.536,1.188 -6.3,2.376 -1.908,1.115 -3.42,2.628 -4.536,4.535 -1.152,1.837 -2.196,4.213 -2.304,6.732 -0.216,2.376 0.324,5.832 1.224,8.028 0.72,2.16 1.8,3.672 3.636,5.076 1.764,1.224 4.428,2.159 7.308,2.808 2.772,0.54 5.94,0.792 9.504,0.756 l -1.08,-12.24 c -2.52,0.072 -4.428,-0.036 -5.868,-0.323 -1.44,-0.324 -2.412,-0.828 -2.772,-1.513 -0.504,-0.792 -0.252,-2.483 0.36,-3.132 0.648,-0.828 2.088,-1.116 3.636,-1.296 1.476,-0.216 3.132,-0.18 5.112,0.108 -0.468,-4.032 -0.936,-8.064 -1.44,-12.132 z"
         i:knockout="Off"
         stroke-miterlimit="10"
         id="path302"
         inkscape:connector-curvature="0"
         style="clip-rule:evenodd;fill-rule:evenodd;stroke:#000000;stroke-width:0.036;stroke-miterlimit:10" />
      <path
         d="m 224.982,107.71 c -3.492,-0.18 -6.444,0.252 -9,1.296 -2.592,0.9 -4.716,2.484 -6.228,4.752 -1.656,2.304 -3.096,5.256 -2.916,8.568 0.216,3.096 0.756,7.775 4.14,10.296 3.276,2.448 8.424,3.96 15.588,4.536 l -0.864,-11.053 c -2.376,0.433 -4.356,0.396 -5.94,-0.107 -1.62,-0.612 -3.348,-1.764 -3.672,-2.916 -0.504,-1.26 -0.504,-3.061 1.116,-3.888 1.62,-0.864 4.5,-1.225 8.64,-1.08 -0.288,-3.456 -0.576,-6.912 -0.864,-10.404 z"
         i:knockout="Off"
         stroke-miterlimit="10"
         id="path304"
         inkscape:connector-curvature="0"
         style="clip-rule:evenodd;fill:#ffd600;fill-rule:evenodd;stroke:#000000;stroke-width:0.036;stroke-miterlimit:10" />
      <path
         d="m 225.954,106.414 c -0.828,0.684 -1.26,1.836 -1.44,3.456 -0.216,1.584 0,4.355 0.36,6.084 0.396,1.691 0.828,2.735 1.692,3.672 h 7.056 l 1.584,-0.756 c 2.052,-0.145 3.456,-0.433 4.752,-0.864 1.188,-0.504 1.584,-1.152 2.304,-1.944 0.648,-0.972 1.512,-1.979 1.476,-3.168 -0.252,-1.332 -0.936,-2.951 -2.448,-3.888 -1.512,-0.972 -3.564,-1.548 -6.3,-1.728 l -1.728,-0.864 c -2.412,0 -4.86,0 -7.308,0 z"
         i:knockout="Off"
         stroke-miterlimit="10"
         id="path306"
         inkscape:connector-curvature="0"
         style="clip-rule:evenodd;fill-rule:evenodd;stroke:#000000;stroke-width:0.036;stroke-miterlimit:10" />
      <path
         d="m 226.566,107.062 c -0.756,1.009 -1.116,2.269 -1.224,3.78 -0.108,1.404 0.108,3.708 0.504,5.112 0.288,1.332 0.648,2.304 1.224,2.916 h 6.912 c -1.008,-2.052 -1.476,-3.996 -1.692,-5.977 -0.144,-2.088 -0.036,-3.852 0.612,-5.832 -2.088,10e-4 -4.212,10e-4 -6.336,10e-4 z"
         i:knockout="Off"
         stroke-miterlimit="10"
         id="path308"
         inkscape:connector-curvature="0"
         style="clip-rule:evenodd;fill:#c0c0c0;fill-rule:evenodd;stroke:#000000;stroke-width:0.036;stroke-miterlimit:10" />
      <path
         d="m 234.234,108.034 c -0.612,1.764 -0.936,3.492 -0.828,5.184 0.108,1.692 0.504,3.24 1.332,4.788 2.196,-0.072 3.888,-0.504 5.22,-1.296 1.26,-0.9 2.484,-2.376 2.556,-3.6 -0.18,-1.332 -1.08,-2.916 -2.556,-3.78 -1.404,-0.9 -3.312,-1.332 -5.724,-1.296 z"
         i:knockout="Off"
         stroke-miterlimit="10"
         id="path310"
         inkscape:connector-curvature="0"
         style="clip-rule:evenodd;fill:#ffd600;fill-rule:evenodd;stroke:#000000;stroke-width:0.036;stroke-miterlimit:10" />
      <path
         d="m 225.954,124.918 c -0.828,0.648 -1.26,1.944 -1.44,3.492 -0.216,1.62 0,4.284 0.36,6.048 0.396,1.584 0.828,2.808 1.692,3.672 h 7.056 l 1.584,-0.756 c 2.052,-0.145 3.456,-0.432 4.752,-0.864 1.188,-0.504 1.584,-1.151 2.304,-1.943 0.648,-0.864 1.512,-2.053 1.476,-3.133 -0.252,-1.332 -0.936,-2.951 -2.448,-3.888 -1.512,-0.972 -3.564,-1.512 -6.3,-1.764 l -1.728,-0.864 c -2.412,0 -4.86,0 -7.308,0 z"
         i:knockout="Off"
         stroke-miterlimit="10"
         id="path312"
         inkscape:connector-curvature="0"
         style="clip-rule:evenodd;fill-rule:evenodd;stroke:#000000;stroke-width:0.036;stroke-miterlimit:10" />
      <path
         d="m 226.566,125.566 c -0.756,1.079 -1.116,2.304 -1.224,3.815 -0.108,1.404 0.108,3.744 0.504,5.076 0.288,1.332 0.648,2.304 1.224,2.916 h 6.912 c -1.008,-2.016 -1.476,-3.996 -1.692,-5.94 -0.144,-2.016 -0.036,-3.924 0.612,-5.867 -2.088,0 -4.212,0 -6.336,0 z"
         i:knockout="Off"
         stroke-miterlimit="10"
         id="path314"
         inkscape:connector-curvature="0"
         style="clip-rule:evenodd;fill:#c0c0c0;fill-rule:evenodd;stroke:#000000;stroke-width:0.036;stroke-miterlimit:10" />
      <path
         d="m 234.234,126.538 c -0.612,1.836 -0.936,3.528 -0.828,5.22 0.108,1.729 0.504,3.132 1.332,4.752 2.196,-0.072 3.888,-0.504 5.22,-1.296 1.26,-0.936 2.484,-2.304 2.556,-3.563 -0.18,-1.332 -1.08,-2.916 -2.556,-3.78 -1.404,-0.901 -3.312,-1.297 -5.724,-1.333 z"
         i:knockout="Off"
         stroke-miterlimit="10"
         id="path316"
         inkscape:connector-curvature="0"
         style="clip-rule:evenodd;fill:#ffd600;fill-rule:evenodd;stroke:#000000;stroke-width:0.036;stroke-miterlimit:10" />
      <path
         d="m 62.406,48.418 h 334.8 v 11.988 h -334.8 z"
         i:knockout="Off"
         stroke-miterlimit="10"
         id="path318"
         inkscape:connector-curvature="0"
         style="clip-rule:evenodd;fill-rule:evenodd;stroke:#000000;stroke-width:0.036;stroke-miterlimit:10" />
      <path
         d="m 64.926,49.714 h 330.588 v 9.36 H 64.926 Z"
         i:knockout="Off"
         stroke-miterlimit="10"
         id="path320"
         inkscape:connector-curvature="0"
         style="clip-rule:evenodd;fill:#ffd700;fill-rule:evenodd;stroke:#000000;stroke-width:0.036;stroke-miterlimit:10" />
      <path
         d="M 274.626,122.11 H 395.91 v 11.987 H 274.626 Z"
         i:knockout="Off"
         stroke-miterlimit="10"
         id="path322"
         inkscape:connector-curvature="0"
         style="clip-rule:evenodd;fill-rule:evenodd;stroke:#000000;stroke-width:0.036;stroke-miterlimit:10" />
      <path
         d="m 276.714,123.442 h 120.78 v 9.359 h -120.78 z"
         i:knockout="Off"
         stroke-miterlimit="10"
         id="path324"
         inkscape:connector-curvature="0"
         style="clip-rule:evenodd;fill:#ffd600;fill-rule:evenodd;stroke:#000000;stroke-width:0.036;stroke-miterlimit:10" />
      <path
         d="m 279.27,121.282 c 0.685,0.684 1.116,1.836 1.296,3.456 0.072,1.584 -0.035,4.355 -0.323,6.084 -0.324,1.691 -0.828,2.735 -1.513,3.672 h -6.3 l -1.404,-0.756 c -1.871,-0.145 -3.096,-0.433 -4.211,-0.864 -1.08,-0.504 -1.584,-1.152 -2.088,-1.944 -0.684,-0.899 -1.44,-1.943 -1.296,-3.132 0.108,-1.332 0.828,-2.916 2.16,-3.924 1.332,-0.972 3.168,-1.548 5.652,-1.729 l 1.512,-0.863 c 2.159,0 4.319,0 6.515,0 z"
         i:knockout="Off"
         stroke-miterlimit="10"
         id="path326"
         inkscape:connector-curvature="0"
         style="clip-rule:evenodd;fill-rule:evenodd;stroke:#000000;stroke-width:0.036;stroke-miterlimit:10" />
      <path
         d="m 278.729,121.93 c 0.612,1.008 0.973,2.269 1.08,3.78 0,1.404 -0.144,3.708 -0.432,5.112 -0.216,1.332 -0.72,2.304 -1.116,2.916 h -6.156 c 0.792,-2.017 1.296,-3.996 1.513,-5.94 0.107,-2.016 -0.072,-3.924 -0.54,-5.868 1.872,0 3.744,0 5.651,0 z"
         i:knockout="Off"
         stroke-miterlimit="10"
         id="path328"
         inkscape:connector-curvature="0"
         style="clip-rule:evenodd;fill:#c0c0c0;fill-rule:evenodd;stroke:#000000;stroke-width:0.036;stroke-miterlimit:10" />
      <path
         d="m 271.89,122.902 c 0.54,1.836 0.792,3.527 0.756,5.22 -0.107,1.728 -0.504,3.132 -1.188,4.752 -1.944,-0.072 -3.492,-0.504 -4.644,-1.296 -1.26,-0.937 -2.304,-2.304 -2.304,-3.564 0.036,-1.296 0.936,-2.987 2.304,-3.815 1.295,-0.901 2.808,-1.333 5.076,-1.297 z"
         i:knockout="Off"
         stroke-miterlimit="10"
         id="path330"
         inkscape:connector-curvature="0"
         style="clip-rule:evenodd;fill:#ffd600;fill-rule:evenodd;stroke:#000000;stroke-width:0.036;stroke-miterlimit:10" />
      <path
         d="m 404.802,48.526 c 1.944,-0.36 4.752,-0.252 8.28,0.468 3.636,0.648 8.64,0.828 12.924,3.456 4.104,2.52 8.748,5.256 11.556,11.7 2.736,6.408 4.284,18 4.356,26.604 -0.108,8.568 -2.088,17.784 -4.824,24.336 -2.771,6.336 -5.976,10.656 -11.7,13.932 -5.832,3.133 -13.392,4.788 -22.968,4.969 l -1.979,-11.845 c 7.199,0.864 13.067,-0.035 17.747,-2.556 4.608,-2.664 7.956,-7.668 10.045,-12.78 1.907,-5.256 2.231,-11.483 1.943,-17.855 -0.359,-6.408 -1.656,-15.516 -3.888,-19.98 -2.412,-4.572 -6.048,-5.58 -10.08,-7.056 -4.032,-1.476 -8.784,-2.124 -14.112,-1.8 0.9,-3.853 1.799,-7.705 2.7,-11.593 z"
         i:knockout="Off"
         stroke-miterlimit="10"
         id="path332"
         inkscape:connector-curvature="0"
         style="clip-rule:evenodd;fill-rule:evenodd;stroke:#000000;stroke-width:0.036;stroke-miterlimit:10" />
      <path
         d="m 405.702,49.138 c 3.924,0.144 7.452,0.648 10.979,1.512 3.456,0.756 6.336,0.936 9.756,3.456 3.313,2.412 7.92,4.968 10.368,11.556 2.412,6.588 4.176,19.044 3.888,27.792 -0.432,8.676 -3.312,17.784 -6.3,23.868 -3.06,5.939 -6.731,8.964 -11.844,11.699 -5.292,2.593 -11.664,3.996 -19.404,4.068 l -1.188,-9.756 c 3.06,0.252 5.868,0.252 8.567,-0.145 2.629,-0.359 4.752,-0.936 7.345,-2.268 2.483,-1.476 5.508,-3.492 7.668,-6.444 2.195,-3.06 3.672,-6.768 4.823,-11.411 0.864,-4.717 1.116,-11.053 0.9,-16.236 -0.396,-5.292 -1.296,-10.944 -2.556,-14.868 -1.332,-3.996 -2.34,-6.192 -5.112,-8.388 -2.952,-2.196 -8.532,-3.852 -11.88,-4.536 -3.384,-0.792 -5.904,-0.792 -7.956,0 0.65,-3.275 1.298,-6.587 1.946,-9.899 z"
         i:knockout="Off"
         stroke-miterlimit="10"
         id="path334"
         inkscape:connector-curvature="0"
         style="clip-rule:evenodd;fill:#ffd600;fill-rule:evenodd;stroke:#000000;stroke-width:0.036;stroke-miterlimit:10" />
      <path
         d="m 404.946,47.842 c 1.044,0.684 1.619,1.836 1.871,3.456 0.217,1.584 -0.071,4.356 -0.468,6.084 -0.468,1.692 -1.151,2.736 -2.195,3.672 h -10.98 c 0,0 1.98,-3.24 2.376,-6.48 0.396,-3.312 -0.792,-6.624 -0.792,-6.624 3.384,-0.036 6.767,-0.072 10.188,-0.108 z"
         i:knockout="Off"
         stroke-miterlimit="10"
         id="path336"
         inkscape:connector-curvature="0"
         style="clip-rule:evenodd;fill-rule:evenodd;stroke:#000000;stroke-width:0.036;stroke-miterlimit:10" />
      <path
         d="m 404.154,48.49 c 0.936,1.008 1.367,2.268 1.584,3.78 0.071,1.404 -0.288,3.708 -0.648,5.112 -0.432,1.332 -0.9,2.304 -1.548,2.916 h -8.928 c 1.26,-2.052 1.943,-3.996 2.195,-5.976 0.216,-2.088 0,-3.852 -0.792,-5.832 2.701,0 5.401,0 8.137,0 z"
         i:knockout="Off"
         stroke-miterlimit="10"
         id="path338"
         inkscape:connector-curvature="0"
         style="clip-rule:evenodd;fill:#c0c0c0;fill-rule:evenodd;stroke:#000000;stroke-width:0.036;stroke-miterlimit:10" />
      <path
         d="m 404.946,121.498 c 1.044,0.684 1.619,1.836 1.871,3.456 0.217,1.584 -0.071,4.355 -0.468,6.084 -0.468,1.691 -1.151,2.736 -2.195,3.672 h -10.98 c 0,0 1.98,-3.204 2.376,-6.48 0.396,-3.275 -0.792,-6.624 -0.792,-6.624 3.384,-0.036 6.767,-0.072 10.188,-0.108 z"
         i:knockout="Off"
         stroke-miterlimit="10"
         id="path340"
         inkscape:connector-curvature="0"
         style="clip-rule:evenodd;fill-rule:evenodd;stroke:#000000;stroke-width:0.036;stroke-miterlimit:10" />
      <path
         d="m 404.154,122.146 c 0.936,1.08 1.367,2.305 1.584,3.816 0.071,1.404 -0.288,3.744 -0.648,5.076 -0.432,1.332 -0.9,2.304 -1.548,2.916 h -8.928 c 1.26,-2.017 1.943,-3.996 2.195,-5.94 0.216,-2.016 0,-3.924 -0.792,-5.868 2.701,0 5.401,0 8.137,0 z"
         i:knockout="Off"
         stroke-miterlimit="10"
         id="path342"
         inkscape:connector-curvature="0"
         style="clip-rule:evenodd;fill:#c0c0c0;fill-rule:evenodd;stroke:#000000;stroke-width:0.036;stroke-miterlimit:10" />
      <path
         d="m 381.546,59.506 h 7.2 v 11.268 h -7.2 z"
         i:knockout="Off"
         stroke-miterlimit="10"
         id="path344"
         inkscape:connector-curvature="0"
         style="clip-rule:evenodd;fill-rule:evenodd;stroke:#000000;stroke-width:0.036;stroke-miterlimit:10" />
      <path
         d="m 381.546,111.778 h 7.2 v 11.268 h -7.2 z"
         i:knockout="Off"
         stroke-miterlimit="10"
         id="path346"
         inkscape:connector-curvature="0"
         style="clip-rule:evenodd;fill-rule:evenodd;stroke:#000000;stroke-width:0.036;stroke-miterlimit:10" />
      <path
         d="m 382.733,70.45 h 4.212 v 42.228 h -4.212 z"
         i:knockout="Off"
         stroke-miterlimit="10"
         id="path348"
         inkscape:connector-curvature="0"
         style="clip-rule:evenodd;fill-rule:evenodd;stroke:#000000;stroke-width:0.036;stroke-miterlimit:10" />
      <path
         d="m 433.817,120.346 c 0.612,0.685 1.261,1.225 2.089,1.62 0.72,0.396 1.619,0.504 2.556,0.612 0.864,0.864 0.756,2.016 -0.468,3.312 -1.225,1.261 -3.42,2.809 -6.732,4.5 0.108,-0.792 -0.144,-1.296 -0.612,-1.655 -0.54,-0.396 -1.296,-0.54 -2.411,-0.433 l -0.9,-0.468 -5.688,2.844 0.576,1.08 c -0.252,0.216 -0.396,0.612 -0.576,1.188 -0.252,0.504 -0.504,1.476 -0.323,2.088 0.107,0.54 0.468,1.08 1.224,1.224 0.648,0 1.692,-0.252 2.988,-0.899 2.195,0.863 4.896,0.504 7.956,-1.225 3.168,-1.836 7.092,-4.932 10.367,-9.144 3.061,-4.356 6.408,-11.845 7.956,-16.092 1.297,-4.32 1.08,-8.856 0.757,-9.145 -0.324,-0.324 -0.757,4.356 -2.557,7.524 -1.872,3.132 -4.68,6.731 -8.424,11.088 -0.54,-0.612 -1.332,-1.008 -2.232,-1.332 -0.972,-0.324 -2.123,-0.576 -3.455,-0.612 -0.686,1.297 -1.37,2.593 -2.091,3.925 z"
         i:knockout="Off"
         stroke-miterlimit="10"
         id="path350"
         inkscape:connector-curvature="0"
         style="clip-rule:evenodd;fill-rule:evenodd;stroke:#000000;stroke-width:0.036;stroke-miterlimit:10" />
      <path
         d="m 440.406,118.366 c -1.045,-0.324 -1.944,-0.576 -2.7,-0.756 -0.792,-0.217 -1.44,-0.36 -1.944,-0.433 l -1.224,2.232 c 0.252,0.756 0.756,1.26 1.512,1.656 0.612,0.396 2.16,0.972 2.844,0.611 0.684,-0.538 1.188,-1.51 1.512,-3.31 z"
         i:knockout="Off"
         stroke-miterlimit="10"
         id="path352"
         inkscape:connector-curvature="0"
         style="clip-rule:evenodd;fill:#ffd600;fill-rule:evenodd;stroke:#000000;stroke-width:0.036;stroke-miterlimit:10" />
      <path
         d="m 451.206,106.81 c -1.98,3.564 -3.78,6.517 -5.4,8.856 -1.8,2.268 -3.348,3.276 -4.355,4.968 -1.009,1.44 -0.252,2.988 -1.332,4.5 -1.225,1.584 -3.853,3.888 -5.4,4.968 -1.656,1.009 -2.88,1.404 -4.068,1.188 l -3.924,3.168 c 0.648,0.324 1.908,0.072 3.636,-0.612 1.801,-0.792 4.141,-1.584 6.732,-3.744 2.448,-2.304 5.4,-5.363 7.884,-9.323 2.375,-3.925 4.355,-8.533 6.227,-13.969 z"
         i:knockout="Off"
         stroke-miterlimit="10"
         id="path354"
         inkscape:connector-curvature="0"
         style="clip-rule:evenodd;fill:#ffd600;fill-rule:evenodd;stroke:#000000;stroke-width:0.036;stroke-miterlimit:10" />
      <path
         d="m 427.193,129.49 c -1.115,0.252 -2.88,1.224 -3.743,2.088 -0.792,0.792 -1.332,2.268 -1.225,2.88 0,0.54 0.036,1.008 1.368,0.432 1.26,-0.863 5.256,-3.563 6.3,-4.5 0.973,-0.972 -0.252,-0.432 -0.611,-0.611 -0.505,-0.289 -1.152,-0.577 -2.089,-0.289 z"
         i:knockout="Off"
         stroke-miterlimit="10"
         id="path356"
         inkscape:connector-curvature="0"
         style="clip-rule:evenodd;fill:#ffd600;fill-rule:evenodd;stroke:#000000;stroke-width:0.036;stroke-miterlimit:10" />
      <path
         d="m 383.094,60.154 -0.396,9.18 1.296,0.252 v 43.2 l -1.296,0.144 v 8.929 h 5.111 l -0.396,-9.072 -1.296,0.144 0.252,-43.2 1.439,-0.144 0.145,-9.18 z"
         i:knockout="Off"
         stroke-miterlimit="10"
         id="path358"
         inkscape:connector-curvature="0"
         style="clip-rule:evenodd;fill:#ffd600;fill-rule:evenodd;stroke:#000000;stroke-width:0.036;stroke-miterlimit:10" />
      <path
         d="m 227.106,51.874 c 15.804,0 11.412,-0.108 28.08,0.36 16.74,0.324 59.148,0.972 70.992,1.8 11.484,0.792 16.021,2.736 -1.8,2.916 -18.18,0 -78.516,-2.196 -105.192,-2.556 -26.568,-0.396 -31.068,0 -53.352,0.36 -22.644,0.252 -79.236,1.8 -80.352,1.44 -0.684,-0.54 51.444,-3.204 75.312,-3.96 23.796,-0.72 50.292,-0.468 66.312,-0.36 z"
         i:knockout="Off"
         stroke-miterlimit="10"
         id="path360"
         inkscape:connector-curvature="0"
         style="clip-rule:evenodd;fill-rule:evenodd;stroke:#000000;stroke-width:0.036;stroke-miterlimit:10" />
      <path
         d="m 325.458,128.626 c 3.852,-0.396 44.496,-0.396 49.032,0 4.248,0.252 -14.473,2.124 -22.717,2.16 -8.315,-0.036 -30.095,-1.908 -26.315,-2.16 z"
         i:knockout="Off"
         stroke-miterlimit="10"
         id="path362"
         inkscape:connector-curvature="0"
         style="clip-rule:evenodd;fill-rule:evenodd;stroke:#000000;stroke-width:0.036;stroke-miterlimit:10" />
      <path
         d="m 302.418,113.866 c 3.888,-0.396 44.424,-0.396 48.996,0 4.248,0.252 -14.473,2.124 -22.716,2.16 -8.352,-0.036 -30.024,-1.908 -26.28,-2.16 z"
         i:knockout="Off"
         stroke-miterlimit="10"
         id="path364"
         inkscape:connector-curvature="0"
         style="clip-rule:evenodd;fill-rule:evenodd;stroke:#000000;stroke-width:0.036;stroke-miterlimit:10" />
      <path
         d="m 168.318,114.478 c 2.16,-0.252 24.192,-0.252 26.784,0 2.304,0.108 -7.992,1.152 -12.42,1.188 -4.536,-0.036 -16.452,-1.08 -14.364,-1.188 z"
         i:knockout="Off"
         stroke-miterlimit="10"
         id="path366"
         inkscape:connector-curvature="0"
         style="clip-rule:evenodd;fill-rule:evenodd;stroke:#000000;stroke-width:0.036;stroke-miterlimit:10" />
      <path
         d="m 166.878,133.594 c 2.16,-0.252 24.192,-0.252 26.784,0 2.304,0.108 -7.992,1.152 -12.42,1.188 -4.536,-0.036 -16.452,-1.08 -14.364,-1.188 z"
         i:knockout="Off"
         stroke-miterlimit="10"
         id="path368"
         inkscape:connector-curvature="0"
         style="clip-rule:evenodd;fill-rule:evenodd;stroke:#000000;stroke-width:0.036;stroke-miterlimit:10" />
    </g>
  </g>
</svg>
