<?xml version="1.0" encoding="UTF-8" standalone="no"?>
<!-- Created with Inkscape (http://www.inkscape.org/) -->

<svg
   xmlns:dc="http://purl.org/dc/elements/1.1/"
   xmlns:cc="http://creativecommons.org/ns#"
   xmlns:rdf="http://www.w3.org/1999/02/22-rdf-syntax-ns#"
   xmlns:svg="http://www.w3.org/2000/svg"
   xmlns="http://www.w3.org/2000/svg"
   xmlns:sodipodi="http://sodipodi.sourceforge.net/DTD/sodipodi-0.dtd"
   xmlns:inkscape="http://www.inkscape.org/namespaces/inkscape"
   width="127.99992"
   height="81.249001"
   id="svg39019"
   sodipodi:version="0.32"
   inkscape:version="0.92.2 (5c3e80d, 2017-08-06)"
   version="1.0"
   sodipodi:docname="bicycle.svg"
   inkscape:output_extension="org.inkscape.output.svg.inkscape"
   inkscape:export-filename="/home/alexander/            /clipart/simple_vector_bike.png"
   inkscape:export-xdpi="32.795872"
   inkscape:export-ydpi="32.795872">
  <defs
     id="defs39021">
    <inkscape:perspective
       sodipodi:type="inkscape:persp3d"
       inkscape:vp_x="-50 : 600 : 1"
       inkscape:vp_y="0 : 1000 : 0"
       inkscape:vp_z="700 : 600 : 1"
       inkscape:persp3d-origin="300 : 400 : 1"
       id="perspective26198" />
    <inkscape:perspective
       sodipodi:type="inkscape:persp3d"
       inkscape:vp_x="-50 : 600 : 1"
       inkscape:vp_y="0 : 1000 : 0"
       inkscape:vp_z="700 : 600 : 1"
       inkscape:persp3d-origin="300 : 400 : 1"
       id="perspective39027" />
  </defs>
  <sodipodi:namedview
     id="base"
     pagecolor="#ffffff"
     bordercolor="#666666"
     borderopacity="1.0"
     gridtolerance="10000"
     guidetolerance="10"
     objecttolerance="10"
     inkscape:pageopacity="0.0"
     inkscape:pageshadow="2"
     inkscape:zoom="5.5999999"
     inkscape:cx="92.730269"
     inkscape:cy="19.249598"
     inkscape:document-units="px"
     inkscape:current-layer="layer1"
     showgrid="false"
     inkscape:window-width="1920"
     inkscape:window-height="1025"
     inkscape:window-x="-8"
     inkscape:window-y="-8"
     inkscape:window-maximized="1"
     fit-margin-top="0"
     fit-margin-left="0"
     fit-margin-right="0"
     fit-margin-bottom="0" />
  <metadata
     id="metadata39024">
    <rdf:RDF>
      <cc:Work
         rdf:about="">
        <dc:format>image/svg+xml</dc:format>
        <dc:type
           rdf:resource="http://purl.org/dc/dcmitype/StillImage" />
        <dc:title />
        <dc:date />
        <dc:creator>
          <cc:Agent>
            <dc:title />
          </cc:Agent>
        </dc:creator>
        <dc:rights>
          <cc:Agent>
            <dc:title />
          </cc:Agent>
        </dc:rights>
        <dc:publisher>
          <cc:Agent>
            <dc:title />
          </cc:Agent>
        </dc:publisher>
        <dc:identifier />
        <dc:source />
        <dc:relation />
        <dc:language />
        <dc:subject>
          <rdf:Bag />
        </dc:subject>
        <dc:coverage />
        <dc:description />
        <dc:contributor>
          <cc:Agent>
            <dc:title />
          </cc:Agent>
        </dc:contributor>
        <cc:license
           rdf:resource="http://creativecommons.org/publicdomain/zero/1.0/" />
      </cc:Work>
      <cc:License
         rdf:about="http://creativecommons.org/publicdomain/zero/1.0/">
        <cc:permits
           rdf:resource="http://creativecommons.org/ns#Reproduction" />
        <cc:permits
           rdf:resource="http://creativecommons.org/ns#Distribution" />
        <cc:permits
           rdf:resource="http://creativecommons.org/ns#DerivativeWorks" />
      </cc:License>
    </rdf:RDF>
  </metadata>
  <g
     inkscape:groupmode="layer"
     id="layer5"
     style="display:none"
     transform="translate(-261.57715,-142.67436)">
    <rect
       style="fill:#ffffff;fill-opacity:1;stroke:none"
       id="rect39180"
       width="823.27435"
       height="514.16766"
       x="-95.964493"
       y="-66.487038" />
  </g>
  <g
     inkscape:label="Layer 1"
     inkscape:groupmode="layer"
     id="layer1"
     transform="translate(-304.57227,-214.08311)">
    <g
       id="g1214">
      <rect
         ry="1.7849104"
         rx="0.89199257"
         y="258.04599"
         x="371.53973"
         height="1.7849104"
         width="3.8775642"
         id="rect20090"
         style="display:inline;opacity:1;fill:#666666;fill-opacity:1;stroke:#000000;stroke-width:0.4180876;stroke-miterlimit:4;stroke-dasharray:none;stroke-opacity:1" />
      <rect
         transform="rotate(-10.736823)"
         ry="1.8003651"
         rx="0.89199257"
         y="323.09726"
         x="317.43808"
         height="14.27504"
         width="2.4372017"
         id="rect20082"
         style="display:inline;opacity:1;fill:#666666;fill-opacity:1;stroke:#000000;stroke-width:0.4180876;stroke-miterlimit:4;stroke-dasharray:none;stroke-opacity:1" />
      <path
         d="m 381.62928,274.65429 c -0.0452,0.0782 -0.31536,0.0703 -0.36463,0.14601 -0.0493,0.0757 0.0675,0.31953 0.0142,0.39252 -0.0532,0.073 -0.32104,0.0364 -0.37808,0.10642 -0.057,0.0701 0.0331,0.32489 -0.0276,0.39181 -0.0607,0.0669 -0.32309,0.002 -0.38725,0.0656 -0.0642,0.0636 -0.002,0.32657 -0.0691,0.38666 -0.0675,0.0601 -0.32148,-0.0323 -0.39204,0.0241 -0.0706,0.0564 -0.0363,0.32454 -0.10977,0.37712 -0.0735,0.0526 -0.31623,-0.0663 -0.39238,-0.0177 -0.0762,0.0486 -0.0706,0.31884 -0.14924,0.36331 -0.0786,0.0445 -0.30738,-0.0995 -0.38827,-0.0593 -0.0809,0.0402 -0.1041,0.30953 -0.18702,0.3454 -0.0829,0.0359 -0.29506,-0.13165 -0.37976,-0.10025 -0.0847,0.0314 -0.13641,0.29671 -0.22267,0.32356 -0.0863,0.0269 -0.2794,-0.16227 -0.36696,-0.14005 -0.0876,0.0222 -0.16717,0.28054 -0.2558,0.29806 -0.0886,0.0175 -0.26056,-0.19104 -0.34999,-0.17826 -0.0894,0.0128 -0.19605,0.26118 -0.28603,0.26919 -0.09,0.008 -0.23878,-0.21766 -0.32907,-0.21446 -0.0903,0.003 -0.22269,0.23886 -0.31302,0.23726 -0.0903,-0.002 -0.21429,-0.24181 -0.3044,-0.24822 -0.0901,-0.006 -0.24683,0.21384 -0.33647,0.20264 -0.0896,-0.0112 -0.18738,-0.26321 -0.2763,-0.27916 -0.0889,-0.0159 -0.26816,0.18638 -0.3561,0.16572 -0.0879,-0.0207 -0.15834,-0.28164 -0.24506,-0.30695 -0.0867,-0.0253 -0.28645,0.15683 -0.3717,0.12694 -0.0853,-0.0299 -0.1275,-0.29688 -0.21104,-0.33126 -0.0835,-0.0344 -0.3015,0.12549 -0.38309,0.0867 -0.0816,-0.0388 -0.0952,-0.30874 -0.17463,-0.35181 -0.0794,-0.0431 -0.31313,0.0927 -0.39013,0.0455 -0.077,-0.0472 -0.0619,-0.31712 -0.13626,-0.36839 -0.0744,-0.0513 -0.32121,0.0589 -0.39275,0.004 -0.0716,-0.0551 -0.0278,-0.3219 -0.0963,-0.38078 -0.0685,-0.0589 -0.32565,0.0245 -0.39093,-0.038 -0.0653,-0.0625 0.007,-0.32303 -0.0553,-0.38886 -0.0619,-0.0658 -0.32641,-0.0103 -0.38468,-0.0793 -0.0583,-0.069 0.0409,-0.3205 -0.0137,-0.39254 -0.0545,-0.072 -0.32346,-0.0449 -0.37406,-0.11978 -0.0506,-0.0748 0.0747,-0.31434 0.0281,-0.39176 -0.0466,-0.0774 -0.31685,-0.0791 -0.35921,-0.15886 -0.0424,-0.0798 0.10768,-0.30462 0.0696,-0.38656 -0.038,-0.0819 -0.30665,-0.1123 -0.34029,-0.19614 -0.0336,-0.0838 0.13945,-0.29145 0.11032,-0.37696 -0.0291,-0.0855 -0.29298,-0.14426 -0.31752,-0.2312 -0.0245,-0.0869 0.16965,-0.27498 0.14977,-0.3631 -0.0199,-0.0881 -0.27599,-0.17459 -0.29115,-0.26364 -0.0152,-0.0891 0.19792,-0.25539 0.18752,-0.34513 -0.0104,-0.0897 -0.25587,-0.20293 -0.26148,-0.2931 -0.006,-0.0902 0.22394,-0.2329 0.22314,-0.32323 -8e-4,-0.0903 -0.23285,-0.22898 -0.22884,-0.31923 0.004,-0.0903 0.24743,-0.20778 0.25623,-0.29769 0.009,-0.0899 -0.20719,-0.25243 -0.19361,-0.34174 0.0136,-0.0893 0.26811,-0.18031 0.28642,-0.26877 0.0183,-0.0885 -0.17918,-0.27302 -0.15618,-0.36039 0.023,-0.0874 0.28575,-0.15078 0.31336,-0.2368 0.0276,-0.086 -0.14914,-0.29052 -0.11699,-0.37494 0.0322,-0.0844 0.30016,-0.11956 0.33676,-0.20215 0.0366,-0.0826 -0.11742,-0.30473 -0.0765,-0.38526 0.0409,-0.0805 0.31117,-0.087 0.35634,-0.16521 0.0452,-0.0782 -0.0844,-0.31549 -0.0351,-0.39121 0.0493,-0.0757 0.31866,-0.0534 0.37189,-0.12639 0.0532,-0.073 -0.0504,-0.32267 0.007,-0.39272 0.057,-0.0701 0.32253,-0.0192 0.38321,-0.0861 0.0607,-0.0669 -0.0158,-0.32619 0.0484,-0.38979 0.0642,-0.0636 0.32274,0.0152 0.39019,-0.0449 0.0675,-0.0601 0.019,-0.32601 0.0895,-0.38243 0.0706,-0.0564 0.3193,0.0494 0.39277,-0.003 0.0735,-0.0526 0.0535,-0.32215 0.12969,-0.37075 0.0761,-0.0486 0.31224,0.083 0.39088,0.0386 0.0786,-0.0445 0.0875,-0.31464 0.16836,-0.35486 0.0809,-0.0402 0.30165,0.11576 0.38456,0.0799 0.0829,-0.0359 0.12043,-0.30355 0.20513,-0.33495 0.0847,-0.0314 0.28764,0.14716 0.3739,0.12032 0.0863,-0.0269 0.15201,-0.28904 0.23957,-0.31125 0.0876,-0.0222 0.27036,0.1769 0.35899,0.15937 0.0886,-0.0175 0.18187,-0.27124 0.27129,-0.28402 0.0894,-0.0128 0.25003,0.20464 0.34002,0.19663 0.09,-0.008 0.20967,-0.25037 0.29995,-0.25357 0.0903,-0.003 0.22686,0.23006 0.31718,0.23166 0.0903,0.002 0.2351,-0.22667 0.32521,-0.22026 0.0901,0.006 0.20112,0.25287 0.29076,0.26406 0.0896,0.0112 0.25786,-0.20039 0.34678,-0.18444 0.0889,0.016 0.1731,0.27281 0.26104,0.29347 0.0879,0.0207 0.2777,-0.17185 0.36442,-0.14653 0.0867,0.0253 0.14313,0.28966 0.22838,0.31955 0.0853,0.0299 0.29439,-0.14135 0.37792,-0.10697 0.0835,0.0344 0.11153,0.30324 0.19312,0.34203 0.0816,0.0388 0.30774,-0.10927 0.38715,-0.0662 0.0794,0.0431 0.0787,0.31338 0.15567,0.36061 0.077,0.0472 0.31762,-0.0759 0.392,-0.0247 0.0744,0.0513 0.0449,0.31997 0.11645,0.37512 0.0716,0.0551 0.32389,-0.0418 0.3924,0.0171 0.0685,0.0589 0.0106,0.32292 0.0759,0.38537 0.0653,0.0624 0.3265,-0.007 0.38836,0.0588 0.0619,0.0658 -0.0238,0.32222 0.0345,0.39125 0.0583,0.069 0.32539,0.0277 0.37991,0.0997 0.0545,0.072 -0.0579,0.31787 -0.007,0.39271 0.0506,0.0748 0.32062,0.0621 0.36717,0.13951 0.0465,0.0774 -0.0913,0.30993 -0.049,0.38972 0.0424,0.0798 0.31219,0.0958 0.35025,0.17775 0.0381,0.0819 -0.12374,0.29846 -0.0901,0.3823 0.0336,0.0838 0.30024,0.12846 0.32937,0.21397 0.0291,0.0855 -0.15477,0.28362 -0.13023,0.37056 0.0245,0.0869 0.28489,0.15965 0.30477,0.24777 0.0199,0.0881 -0.18404,0.26556 -0.16888,0.35462 0.0152,0.0891 0.2663,0.18903 0.2767,0.27876 0.0104,0.0897 -0.21122,0.2445 -0.20562,0.33466 0.006,0.0902 0.24471,0.21626 0.24551,0.3066 8e-4,0.0903 -0.23602,0.22065 -0.24002,0.3109 -0.004,0.0902 0.22032,0.24105 0.21152,0.33096 -0.009,0.0899 -0.25813,0.19431 -0.27171,0.28363 -0.0136,0.0893 0.19346,0.2631 0.17514,0.35156 -0.0183,0.0885 -0.27732,0.16578 -0.30031,0.25314 -0.023,0.0874 0.16439,0.28217 0.13678,0.36819 -0.0276,0.086 -0.29337,0.13536 -0.32552,0.21979 -0.0322,0.0844 0.13347,0.29804 0.0969,0.38064 -0.0366,0.0826 -0.3061,0.10341 -0.34704,0.18394 -0.0409,0.0805 0.10103,0.31055 0.0559,0.38878 z"
         inkscape:randomized="0"
         inkscape:rounded="0.23"
         inkscape:flatsided="false"
         sodipodi:arg2="0.57684611"
         sodipodi:arg1="0.52359878"
         sodipodi:r2="5.8013873"
         sodipodi:r1="6.0359378"
         sodipodi:cy="271.63632"
         sodipodi:cx="376.40201"
         sodipodi:sides="59"
         id="path19089"
         style="display:inline;fill:none;fill-opacity:1;stroke:#000000;stroke-width:0.41808754;stroke-miterlimit:4;stroke-dasharray:none;stroke-opacity:1"
         sodipodi:type="star" />
      <path
         d="m 380.4346,273.96446 c -0.0348,0.0603 -0.24324,0.0542 -0.28125,0.11262 -0.038,0.0584 0.052,0.24646 0.011,0.30276 -0.041,0.0563 -0.24762,0.0281 -0.29162,0.0821 -0.044,0.054 0.0255,0.2506 -0.0213,0.30221 -0.0468,0.0516 -0.24921,0.002 -0.2987,0.0506 -0.0495,0.0491 -0.001,0.25189 -0.0533,0.29824 -0.052,0.0463 -0.24797,-0.0249 -0.30239,0.0186 -0.0544,0.0435 -0.028,0.25033 -0.0847,0.29089 -0.0567,0.0405 -0.24391,-0.0511 -0.30265,-0.0137 -0.0587,0.0375 -0.0545,0.24593 -0.11511,0.28024 -0.0607,0.0343 -0.23709,-0.0768 -0.29949,-0.0457 -0.0624,0.031 -0.0803,0.23875 -0.14424,0.26641 -0.064,0.0277 -0.22759,-0.10154 -0.29293,-0.0773 -0.0653,0.0242 -0.10521,0.22887 -0.17174,0.24958 -0.0665,0.0207 -0.21551,-0.12516 -0.28305,-0.10803 -0.0675,0.0171 -0.12895,0.21639 -0.1973,0.22991 -0.0684,0.0135 -0.20098,-0.14736 -0.26996,-0.1375 -0.069,0.01 -0.15122,0.20145 -0.22062,0.20763 -0.0694,0.006 -0.18418,-0.16789 -0.25382,-0.16542 -0.0696,0.002 -0.17177,0.18424 -0.24144,0.183 -0.0697,-0.001 -0.16529,-0.18651 -0.23479,-0.19145 -0.0695,-0.005 -0.19039,0.16494 -0.25953,0.1563 -0.0691,-0.009 -0.14453,-0.20302 -0.21311,-0.21533 -0.0686,-0.0123 -0.20684,0.14377 -0.27467,0.12783 -0.0678,-0.0159 -0.12213,-0.21723 -0.18902,-0.23676 -0.0669,-0.0195 -0.22095,0.12097 -0.2867,0.0979 -0.0658,-0.0231 -0.0984,-0.22898 -0.16279,-0.25551 -0.0644,-0.0265 -0.23255,0.0968 -0.29548,0.0669 -0.0629,-0.0299 -0.0734,-0.23814 -0.1347,-0.27136 -0.0612,-0.0332 -0.24152,0.0715 -0.30092,0.0351 -0.0594,-0.0364 -0.0477,-0.2446 -0.10509,-0.28414 -0.0574,-0.0396 -0.24776,0.0455 -0.30294,0.003 -0.0552,-0.0425 -0.0215,-0.24828 -0.0743,-0.2937 -0.0529,-0.0454 -0.25118,0.0189 -0.30154,-0.0293 -0.0503,-0.0482 0.005,-0.24916 -0.0426,-0.29994 -0.0477,-0.0508 -0.25177,-0.008 -0.29672,-0.0612 -0.0449,-0.0532 0.0315,-0.24722 -0.0105,-0.30278 -0.042,-0.0556 -0.24949,-0.0347 -0.28852,-0.0924 -0.039,-0.0577 0.0576,-0.24246 0.0217,-0.30217 -0.0359,-0.0597 -0.2444,-0.061 -0.27708,-0.12253 -0.0327,-0.0616 0.0831,-0.23497 0.0537,-0.29816 -0.0294,-0.0632 -0.23653,-0.0866 -0.26248,-0.15129 -0.0259,-0.0647 0.10757,-0.22481 0.0851,-0.29076 -0.0225,-0.066 -0.22599,-0.11127 -0.24492,-0.17833 -0.0189,-0.0671 0.13086,-0.2121 0.11552,-0.28007 -0.0153,-0.068 -0.21287,-0.13466 -0.22456,-0.20336 -0.0117,-0.0687 0.15265,-0.19698 0.14463,-0.2662 -0.008,-0.0692 -0.19735,-0.15652 -0.20168,-0.22607 -0.004,-0.0695 0.17273,-0.17964 0.17211,-0.24932 -6.2e-4,-0.0697 -0.1796,-0.17662 -0.17651,-0.24623 0.003,-0.0696 0.19085,-0.16027 0.19764,-0.22961 0.007,-0.0693 -0.15981,-0.19471 -0.14934,-0.2636 0.0105,-0.0689 0.2068,-0.13907 0.22093,-0.20731 0.0141,-0.0682 -0.13821,-0.21058 -0.12048,-0.27797 0.0177,-0.0674 0.22041,-0.1163 0.24171,-0.18265 0.0213,-0.0663 -0.11504,-0.22409 -0.0902,-0.2892 0.0248,-0.0651 0.23152,-0.0922 0.25975,-0.15593 0.0282,-0.0637 -0.0906,-0.23504 -0.059,-0.29716 0.0316,-0.0621 0.24002,-0.0671 0.27486,-0.12743 0.0348,-0.0603 -0.0651,-0.24334 -0.0271,-0.30174 0.038,-0.0584 0.24578,-0.0412 0.28684,-0.0975 0.041,-0.0563 -0.0388,-0.24888 0.005,-0.30292 0.044,-0.054 0.24878,-0.0148 0.29558,-0.0664 0.0468,-0.0516 -0.0122,-0.2516 0.0373,-0.30065 0.0495,-0.049 0.24894,0.0117 0.30097,-0.0346 0.052,-0.0463 0.0147,-0.25147 0.0691,-0.29498 0.0544,-0.0435 0.24629,0.0381 0.30295,-0.002 0.0567,-0.0406 0.0413,-0.24848 0.10003,-0.28597 0.0587,-0.0375 0.24084,0.0641 0.3015,0.0297 0.0607,-0.0343 0.0675,-0.24269 0.12986,-0.27371 0.0624,-0.031 0.23267,0.0893 0.29662,0.0616 0.064,-0.0277 0.0929,-0.23414 0.15822,-0.25836 0.0653,-0.0242 0.22186,0.11352 0.2884,0.0928 0.0665,-0.0207 0.11724,-0.22294 0.18478,-0.24008 0.0675,-0.0171 0.20854,0.13645 0.2769,0.12294 0.0684,-0.0135 0.14028,-0.20922 0.20926,-0.21908 0.069,-0.01 0.19285,0.15785 0.26226,0.15167 0.0694,-0.006 0.16172,-0.19312 0.23136,-0.19559 0.0696,-0.002 0.17498,0.17745 0.24465,0.17869 0.0697,0.001 0.18133,-0.17484 0.25084,-0.16989 0.0695,0.005 0.15513,0.19504 0.22427,0.20367 0.0691,0.009 0.19889,-0.15456 0.26748,-0.14226 0.0686,0.0123 0.13351,0.21043 0.20135,0.22636 0.0678,0.0159 0.21419,-0.13255 0.28108,-0.11303 0.0669,0.0195 0.1104,0.22343 0.17615,0.24649 0.0658,0.0231 0.22707,-0.10904 0.29151,-0.0825 0.0644,0.0265 0.086,0.23389 0.14895,0.26381 0.0629,0.0299 0.23737,-0.0843 0.29862,-0.0511 0.0613,0.0332 0.0607,0.24171 0.12007,0.27815 0.0594,0.0364 0.24499,-0.0586 0.30236,-0.019 0.0574,0.0395 0.0346,0.24679 0.0898,0.28933 0.0552,0.0426 0.24983,-0.0322 0.30267,0.0132 0.0528,0.0454 0.008,0.24908 0.0586,0.29725 0.0503,0.0482 0.25183,-0.005 0.29955,0.0453 0.0477,0.0508 -0.0183,0.24854 0.0266,0.30179 0.045,0.0532 0.25099,0.0213 0.29304,0.0769 0.0421,0.0556 -0.0446,0.24518 -0.006,0.3029 0.039,0.0577 0.24729,0.0479 0.2832,0.10761 0.0359,0.0597 -0.0704,0.23906 -0.0378,0.3006 0.0327,0.0615 0.2408,0.0739 0.27016,0.1371 0.0294,0.0632 -0.0954,0.23021 -0.0695,0.29488 0.026,0.0647 0.23158,0.0991 0.25405,0.16504 0.0225,0.066 -0.11938,0.21876 -0.10045,0.28582 0.0189,0.0671 0.21974,0.12315 0.23508,0.19112 0.0153,0.068 -0.14196,0.20483 -0.13027,0.27352 0.0117,0.0687 0.20541,0.1458 0.21343,0.21502 0.008,0.0692 -0.16292,0.18858 -0.1586,0.25813 0.004,0.0695 0.18875,0.1668 0.18937,0.23648 6.2e-4,0.0697 -0.18205,0.1702 -0.18514,0.23981 -0.003,0.0696 0.16995,0.18592 0.16315,0.25527 -0.007,0.0693 -0.1991,0.14988 -0.20957,0.21877 -0.0105,0.0689 0.14922,0.20294 0.13509,0.27117 -0.0141,0.0682 -0.21391,0.12787 -0.23164,0.19526 -0.0177,0.0674 0.1268,0.21764 0.1055,0.28399 -0.0213,0.0663 -0.22628,0.10441 -0.25108,0.16953 -0.0248,0.0651 0.10295,0.22989 0.0747,0.29359 -0.0282,0.0637 -0.2361,0.0798 -0.26768,0.14188 -0.0316,0.0621 0.0779,0.23953 0.0431,0.29988 z"
         inkscape:randomized="0"
         inkscape:rounded="0.23"
         inkscape:flatsided="false"
         sodipodi:arg2="0.57684611"
         sodipodi:arg1="0.52359878"
         sodipodi:r2="4.4747462"
         sodipodi:r1="4.6556606"
         sodipodi:cy="271.63663"
         sodipodi:cx="376.40268"
         sodipodi:sides="59"
         id="path20060"
         style="display:inline;fill:none;fill-opacity:1;stroke:#000000;stroke-width:0.32881743;stroke-miterlimit:4;stroke-dasharray:none;stroke-opacity:1"
         sodipodi:type="star" />
      <path
         d="m 379.23996,273.2747 c -0.0245,0.0425 -0.17113,0.0381 -0.19787,0.0792 -0.0267,0.0411 0.0366,0.1734 0.008,0.21301 -0.0289,0.0396 -0.17422,0.0197 -0.20517,0.0577 -0.031,0.038 0.018,0.1763 -0.015,0.21262 -0.0329,0.0363 -0.17532,0.001 -0.21014,0.0356 -0.0348,0.0345 -8.8e-4,0.17721 -0.0375,0.20982 -0.0366,0.0326 -0.17446,-0.0175 -0.21275,0.0131 -0.0383,0.0306 -0.0197,0.17611 -0.0596,0.20465 -0.0399,0.0285 -0.1716,-0.036 -0.21293,-0.01 -0.0413,0.0264 -0.0383,0.17302 -0.081,0.19716 -0.0427,0.0241 -0.16681,-0.054 -0.2107,-0.0322 -0.0439,0.0218 -0.0565,0.16797 -0.10149,0.18743 -0.045,0.0195 -0.16011,-0.0714 -0.20608,-0.0544 -0.046,0.017 -0.074,0.16102 -0.12083,0.17559 -0.0468,0.0146 -0.15162,-0.0881 -0.19914,-0.076 -0.0475,0.012 -0.0907,0.15223 -0.13881,0.16174 -0.0481,0.01 -0.1414,-0.10367 -0.18993,-0.0967 -0.0485,0.007 -0.10639,0.14173 -0.15522,0.14607 -0.0488,0.004 -0.12958,-0.11811 -0.17857,-0.11637 -0.049,0.002 -0.12085,0.12962 -0.16986,0.12875 -0.049,-8.7e-4 -0.11629,-0.13122 -0.16519,-0.1347 -0.0489,-0.003 -0.13395,0.11604 -0.18259,0.10997 -0.0487,-0.006 -0.10168,-0.14284 -0.14994,-0.1515 -0.0482,-0.009 -0.14551,0.10115 -0.19324,0.0899 -0.0477,-0.0112 -0.0859,-0.15284 -0.13298,-0.16657 -0.0471,-0.0137 -0.15545,0.0851 -0.20171,0.0689 -0.0463,-0.0162 -0.0692,-0.1611 -0.11452,-0.17976 -0.0453,-0.0187 -0.16361,0.0681 -0.20789,0.0471 -0.0443,-0.0211 -0.0517,-0.16754 -0.0948,-0.19092 -0.0431,-0.0234 -0.16992,0.0503 -0.21171,0.0247 -0.0418,-0.0256 -0.0336,-0.17209 -0.0739,-0.19991 -0.0404,-0.0278 -0.1743,0.032 -0.21313,0.002 -0.0388,-0.0299 -0.0151,-0.17468 -0.0523,-0.20664 -0.0372,-0.0319 -0.17672,0.0133 -0.21215,-0.0206 -0.0354,-0.0339 0.004,-0.17529 -0.03,-0.21102 -0.0336,-0.0357 -0.17713,-0.006 -0.20875,-0.043 -0.0316,-0.0375 0.0222,-0.17393 -0.007,-0.21302 -0.0296,-0.0391 -0.17553,-0.0244 -0.20299,-0.065 -0.0275,-0.0406 0.0405,-0.17059 0.0153,-0.2126 -0.0253,-0.042 -0.17194,-0.0429 -0.19493,-0.0862 -0.023,-0.0433 0.0584,-0.16531 0.0378,-0.20977 -0.0207,-0.0445 -0.16641,-0.0609 -0.18467,-0.10643 -0.0183,-0.0455 0.0757,-0.15816 0.0599,-0.20457 -0.0158,-0.0464 -0.15899,-0.0783 -0.17231,-0.12546 -0.0133,-0.0472 0.0921,-0.14922 0.0813,-0.19704 -0.0108,-0.0478 -0.14977,-0.0947 -0.158,-0.14307 -0.008,-0.0483 0.1074,-0.13859 0.10176,-0.18729 -0.006,-0.0487 -0.13885,-0.11012 -0.14189,-0.15905 -0.003,-0.0489 0.12152,-0.12639 0.12108,-0.17541 -4.3e-4,-0.049 -0.12635,-0.12426 -0.12418,-0.17323 0.002,-0.049 0.13427,-0.11276 0.13905,-0.16155 0.005,-0.0488 -0.11243,-0.13698 -0.10507,-0.18545 0.007,-0.0485 0.1455,-0.0978 0.15543,-0.14585 0.01,-0.048 -0.0972,-0.14816 -0.0847,-0.19556 0.0125,-0.0474 0.15507,-0.0818 0.17005,-0.12851 0.015,-0.0467 -0.0809,-0.15765 -0.0635,-0.20347 0.0174,-0.0458 0.16289,-0.0649 0.18275,-0.10969 0.0199,-0.0448 -0.0637,-0.16537 -0.0415,-0.20907 0.0222,-0.0437 0.16887,-0.0472 0.19338,-0.0897 0.0245,-0.0425 -0.0458,-0.1712 -0.019,-0.21229 0.0267,-0.0411 0.17292,-0.029 0.20181,-0.0686 0.0289,-0.0396 -0.0273,-0.1751 0.004,-0.21312 0.031,-0.038 0.17502,-0.0104 0.20795,-0.0468 0.0329,-0.0363 -0.009,-0.17701 0.0263,-0.21152 0.0348,-0.0345 0.17514,0.008 0.21175,-0.0244 0.0366,-0.0326 0.0103,-0.17692 0.0486,-0.20753 0.0383,-0.0306 0.17328,0.0268 0.21314,-0.002 0.0399,-0.0285 0.029,-0.17482 0.0704,-0.20119 0.0413,-0.0264 0.16944,0.0451 0.21211,0.0209 0.0427,-0.0241 0.0475,-0.17074 0.0914,-0.19257 0.0439,-0.0218 0.16369,0.0628 0.20869,0.0434 0.045,-0.0195 0.0653,-0.16472 0.11131,-0.18176 0.046,-0.017 0.15609,0.0799 0.2029,0.0653 0.0468,-0.0146 0.0825,-0.15685 0.13001,-0.1689 0.0475,-0.0121 0.14671,0.096 0.1948,0.0865 0.0481,-0.01 0.0987,-0.14719 0.14723,-0.15412 0.0485,-0.007 0.13568,0.11105 0.18451,0.1067 0.0488,-0.004 0.11378,-0.13587 0.16277,-0.13761 0.049,-0.002 0.12311,0.12485 0.17212,0.12572 0.049,8.7e-4 0.12758,-0.12301 0.17648,-0.11953 0.0489,0.003 0.10914,0.13722 0.15779,0.1433 0.0486,0.006 0.13993,-0.10875 0.18818,-0.10009 0.0482,0.009 0.0939,0.14805 0.14166,0.15926 0.0477,0.0112 0.1507,-0.0933 0.19776,-0.0795 0.0471,0.0137 0.0777,0.15719 0.12393,0.17341 0.0463,0.0162 0.15975,-0.0767 0.20508,-0.058 0.0453,0.0187 0.0605,0.16455 0.1048,0.1856 0.0443,0.0211 0.167,-0.0593 0.21009,-0.0359 0.0431,0.0234 0.0427,0.17006 0.0845,0.19569 0.0418,0.0256 0.17236,-0.0412 0.21272,-0.0134 0.0404,0.0278 0.0244,0.17363 0.0632,0.20356 0.0388,0.0299 0.17577,-0.0226 0.21295,0.009 0.0372,0.032 0.006,0.17524 0.0412,0.20913 0.0354,0.0339 0.17718,-0.004 0.21075,0.0319 0.0336,0.0357 -0.0129,0.17486 0.0187,0.21232 0.0316,0.0375 0.17658,0.015 0.20616,0.0541 0.0296,0.0391 -0.0314,0.1725 -0.004,0.21311 0.0275,0.0406 0.17399,0.0337 0.19925,0.0757 0.0253,0.042 -0.0496,0.16818 -0.0266,0.21148 0.023,0.0433 0.16942,0.052 0.19007,0.0965 0.0207,0.0445 -0.0671,0.16196 -0.0489,0.20746 0.0183,0.0455 0.16293,0.0697 0.17874,0.11612 0.0158,0.0464 -0.084,0.1539 -0.0707,0.20108 0.0133,0.0472 0.1546,0.0866 0.16539,0.13446 0.0108,0.0478 -0.0999,0.14411 -0.0916,0.19244 0.008,0.0483 0.14451,0.10257 0.15016,0.15127 0.006,0.0487 -0.11463,0.13268 -0.11158,0.18161 0.003,0.0489 0.13279,0.11735 0.13322,0.16637 4.4e-4,0.049 -0.12807,0.11975 -0.13025,0.16872 -0.002,0.049 0.11957,0.13081 0.11479,0.1796 -0.005,0.0488 -0.14008,0.10545 -0.14745,0.15391 -0.007,0.0485 0.10498,0.14278 0.095,0.19078 -0.01,0.048 -0.1505,0.09 -0.16298,0.13737 -0.0125,0.0474 0.0892,0.15313 0.0742,0.1998 -0.015,0.0467 -0.1592,0.0735 -0.17665,0.11927 -0.0174,0.0458 0.0724,0.16174 0.0526,0.20656 -0.0199,0.0448 -0.16611,0.0561 -0.18832,0.0998 -0.0222,0.0437 0.0548,0.16852 0.0303,0.21098 z"
         inkscape:randomized="0"
         inkscape:rounded="0.23"
         inkscape:flatsided="false"
         sodipodi:arg2="0.57684611"
         sodipodi:arg1="0.52359878"
         sodipodi:r2="3.1481903"
         sodipodi:r1="3.2754719"
         sodipodi:cy="271.63696"
         sodipodi:cx="376.40332"
         sodipodi:sides="59"
         id="path20062"
         style="display:inline;fill:none;fill-opacity:1;stroke:#000000;stroke-width:0.25695318;stroke-miterlimit:4;stroke-dasharray:none;stroke-opacity:1"
         sodipodi:type="star" />
      <path
         inkscape:connector-curvature="0"
         id="path15912"
         transform="translate(304.57227,214.08311)"
         d="m 25.287109,31.753906 c -0.96608,-0.01286 -0.32562,0.393067 -1.291015,0.431641 -0.965396,0.03857 -0.358338,-0.418025 -1.320313,-0.328125 -0.961974,0.0899 -0.280502,0.425435 -1.236328,0.566406 -0.955826,0.140971 -0.402641,-0.375236 -1.349609,-0.183594 -0.946969,0.191643 -0.234495,0.451589 -1.169922,0.69336 -0.935427,0.24177 -0.438141,-0.332229 -1.359375,-0.04102 -0.921234,0.291213 -0.185415,0.476576 -1.089844,0.816406 -0.904429,0.339831 -0.472361,-0.283968 -1.357422,0.103516 -0.88506,0.387484 -0.13291,0.491741 -0.996093,0.925781 -0.863184,0.43404 -0.499032,-0.231318 -1.337891,0.248047 -0.83886,0.479366 -0.08042,0.504012 -0.892578,1.027344 -0.812158,0.523332 -0.521534,-0.177143 -1.304688,0.388672 -0.7831536,0.565815 -0.02541,0.50854 -0.7773435,1.115234 -0.7519299,0.606694 -0.5372848,-0.120463 -1.2558594,0.525391 -0.7185747,0.645854 0.026933,0.510177 -0.65625,1.193359 -0.6831824,0.683183 -0.5455525,-0.06428 -1.1914062,0.654297 -0.6458538,0.718575 0.081304,0.503929 -0.5253907,1.255859 -0.6066942,0.75193 -0.5513724,-0.0039 -1.1171874,0.779297 -0.5658151,0.783154 0.1366132,0.490577 -0.3867188,1.302735 -0.5233319,0.812157 -0.5479783,0.05372 -1.0273438,0.892578 -0.4793654,0.838859 0.1859933,0.47666 -0.2480468,1.339844 -0.4340401,0.863183 -0.5382969,0.111033 -0.9257813,0.996093 -0.3874844,0.885061 0.2343617,0.452993 -0.1054687,1.357422 -0.3398304,0.904429 -0.5232401,0.166657 -0.8144532,1.087891 -0.291213,0.921233 0.282786,0.425901 0.041016,1.361328 -0.2417703,0.935427 -0.5036704,0.222953 -0.69531252,1.169922 -0.19164216,0.946969 0.32651762,0.39183 0.18554682,1.347656 -0.14097073,0.955826 -0.47650637,0.276307 -0.5664062,1.238281 -0.0898998,0.961975 0.36669906,0.354917 0.328125,1.320313 -0.0385741,0.965395 -0.44645482,0.324935 -0.43359375,1.291015 0.0128611,0.966081 0.40253714,0.313317 0.46679687,1.277344 0.0642597,0.964027 -0.40844499,0.370838 -0.29296874,1.330078 0.11547625,0.959241 0.43324392,0.268969 0.59960942,1.220703 0.1663654,0.951735 -0.36522058,0.411984 -0.1484376,1.353516 0.2167831,0.941532 0.4580233,0.221731 0.7246094,1.150391 0.2665862,0.928659 -0.3195398,0.448173 -0.00391,1.361328 0.3156336,0.913155 0.4799636,0.171344 0.84375,1.066406 0.3637863,0.895062 -0.2702829,0.481037 0.140625,1.355469 0.4109079,0.874432 0.4962603,0.11938 0.953125,0.970703 0.4568646,0.851323 -0.2183233,0.50623 0.2832031,1.332031 0.5015265,0.825801 0.5040615,0.06534 1.0488281,0.863281 0.5447666,0.797939 -0.1626343,0.527108 0.4238282,1.294922 0.5864625,0.767814 0.5102226,0.01253 1.1367187,0.748047 0.626496,0.735513 -0.1061599,0.539108 0.5585937,1.240234 0.6647538,0.701128 0.5078574,-0.04171 1.2089844,0.623047 0.701127,0.664754 -0.048013,0.549286 0.6875,1.175782 0.735513,0.626496 0.4997641,-0.09623 1.2675779,0.490234 0.767814,0.586462 0.01065,0.550937 0.808594,1.095703 0.797938,0.544767 0.488652,-0.148011 1.314453,0.353516 0.825801,0.501526 0.0686,0.547041 0.919921,1.003906 0.851324,0.456865 0.469318,-0.19997 1.34375,0.210938 0.874433,0.410907 0.126424,0.536604 1.021486,0.90039 0.895061,0.363786 0.446219,-0.249227 1.359375,0.06641 0.913154,0.315634 0.180714,0.520524 1.109375,0.78711 0.928658,0.266586 0.417843,-0.294908 1.359375,-0.07813 0.941531,0.216783 0.235765,0.497697 1.1875,0.664062 0.951734,0.166366 0.384509,-0.336179 1.34375,-0.220703 0.95924,0.115476 0.287925,0.468944 1.251953,0.533203 0.964027,0.06426 0.344467,-0.376142 1.310547,-0.363281 0.96608,0.01286 0.337339,0.437012 1.302734,0.398438 0.965395,-0.03857 0.30365,-0.410101 1.265625,-0.5 0.961975,-0.0899 0.380112,0.39683 1.335937,0.255859 0.955826,-0.140971 0.25811,-0.439217 1.205079,-0.630859 0.946968,-0.191643 0.420041,0.355051 1.355468,0.113281 0.935427,-0.241771 0.211578,-0.464647 1.132813,-0.75586 0.921233,-0.291213 0.454946,0.308581 1.359375,-0.03125 0.904429,-0.33983 0.159861,-0.485562 1.044922,-0.873047 0.885061,-0.387484 0.486426,0.258259 1.349609,-0.175781 0.863183,-0.43404 0.106453,-0.49915 0.945313,-0.978515 0.838858,-0.479366 0.512061,0.204972 1.324218,-0.31836 0.812157,-0.523332 0.05278,-0.50645 0.835938,-1.072265 0.783154,-0.565815 0.529319,0.147709 1.28125,-0.458985 0.75193,-0.606694 1.74e-4,-0.508443 0.71875,-1.154297 0.718575,-0.645853 0.541426,0.09139 1.224609,-0.591797 0.683183,-0.683182 -0.05406,-0.507987 0.591797,-1.226562 0.645854,-0.718575 0.549556,0.03513 1.15625,-0.716797 0.606695,-0.75193 -0.108784,-0.498096 0.457031,-1.28125 0.565816,-0.783154 0.548933,-0.02573 1.072266,-0.837891 0.523332,-0.812157 -0.159053,-0.483406 0.320312,-1.322265 0.479366,-0.83886 0.542522,-0.08408 0.976563,-0.947266 0.43404,-0.863183 -0.211703,-0.462595 0.175781,-1.347656 0.387484,-0.885061 0.533217,-0.140493 0.873047,-1.044922 0.33983,-0.904429 -0.259963,-0.440094 0.03125,-1.361328 0.291213,-0.921234 0.514088,-0.195432 0.755859,-1.130859 0.241771,-0.935427 -0.304923,-0.4085 -0.113281,-1.355469 0.191643,-0.946969 0.491842,-0.251205 0.632813,-1.207031 0.140971,-0.955827 -0.347713,-0.373964 -0.257813,-1.335938 0.0899,-0.961974 0.461425,-0.300229 0.5,-1.265625 0.03857,-0.965396 -0.383623,-0.334701 -0.396484,-1.300781 -0.01286,-0.96608 0.425587,-0.348474 0.361328,-1.3125 -0.06426,-0.964027 -0.417727,-0.292713 -0.533203,-1.251953 -0.115477,-0.95924 0.387068,-0.390062 0.220703,-1.341797 -0.166365,-0.951735 -0.445327,-0.247922 -0.662109,-1.189453 -0.216783,-0.941532 0.342758,-0.428763 0.07617,-1.357422 -0.266585,-0.92866 -0.469523,-0.198173 -0.785156,-1.111328 -0.315634,-0.913155 0.295426,-0.464313 -0.06836,-1.359375 -0.363785,-0.895062 -0.487529,-0.147053 -0.898437,-1.021485 -0.410908,-0.874432 0.243974,-0.492426 -0.212891,-1.34375 -0.456865,-0.851323 -0.500427,-0.09412 -1.001953,-0.919921 -0.501527,-0.825802 0.189298,-0.514562 -0.355469,-1.3125 -0.544766,-0.797939 -0.507286,-0.04078 -1.09375,-0.808594 -0.586461,-0.767814 0.13431,-0.534019 -0.492187,-1.269532 -0.626496,-0.735512 -0.509075,0.01558 -1.173829,-0.685546 -0.664752,-0.701127 0.07808,-0.546184 -0.623046,-1.210938 -0.701127,-0.664754 -0.506675,0.0679 -1.242188,-0.558594 -0.735512,-0.626496 0.01977,-0.548303 -0.748047,-1.134765 -0.767814,-0.586463 -0.49503,0.120938 -1.292969,-0.423828 -0.797938,-0.544767 -0.03943,-0.549255 -0.865234,-1.050782 -0.8258,-0.501526 -0.480708,0.173662 -1.332031,-0.283203 -0.851323,-0.456864 -0.09627,-0.542217 -0.970703,-0.953125 -0.874432,-0.410908 -0.458454,0.225115 -1.353516,-0.138672 -0.895062,-0.363786 -0.155203,-0.528116 -1.068359,-0.84375 -0.913155,-0.315633 -0.430715,0.270493 -1.359375,0.0039 -0.92866,-0.266587 -0.210812,-0.50978 -1.152344,-0.726563 -0.941532,-0.216783 -0.399828,0.316756 -1.351562,0.150391 -0.951735,-0.166366 -0.263417,-0.484133 -1.222657,-0.59961 -0.95924,-0.115476 -0.364098,0.357229 -1.328125,0.292969 -0.964026,-0.06426 -0.313216,-0.453936 -1.279297,-0.466797 z m -0.333984,4.279297 A 20.262964,20.262964 0 0 1 45.216797,56.294922 20.262964,20.262964 0 0 1 24.953125,76.558594 20.262964,20.262964 0 0 1 4.6894531,56.294922 20.262964,20.262964 0 0 1 24.953125,36.033203 Z"
         style="display:inline;opacity:1;fill:#333333;fill-opacity:1;stroke:#000000;stroke-width:0.82135427;stroke-miterlimit:4;stroke-dasharray:none;stroke-opacity:1" />
      <circle
         id="path15916"
         style="display:inline;opacity:1;fill:none;fill-opacity:0.12790695;stroke:#000000;stroke-width:0.82135427;stroke-miterlimit:4;stroke-dasharray:none;stroke-opacity:1"
         cx="329.52518"
         cy="270.37891"
         r="3.2005291" />
      <path
         id="path15918"
         d="m 329.16375,267.17733 -1.04451,-16.97337"
         style="display:inline;fill:none;fill-rule:evenodd;stroke:#000000;stroke-width:0.17233619px;stroke-linecap:butt;stroke-linejoin:miter;stroke-opacity:1"
         inkscape:connector-curvature="0" />
      <path
         id="path15920"
         d="m 329.8601,267.43846 2.17607,-16.97337"
         style="display:inline;fill:none;fill-rule:evenodd;stroke:#000000;stroke-width:0.17233619px;stroke-linecap:butt;stroke-linejoin:miter;stroke-opacity:1"
         inkscape:connector-curvature="0" />
      <path
         id="path15922"
         d="m 330.64348,267.5255 5.83188,-15.92885"
         style="display:inline;fill:none;fill-rule:evenodd;stroke:#000000;stroke-width:0.17233619px;stroke-linecap:butt;stroke-linejoin:miter;stroke-opacity:1"
         inkscape:connector-curvature="0" />
      <path
         id="path15926"
         d="m 331.42687,267.69959 8.96542,-14.10096"
         style="display:inline;fill:none;fill-rule:evenodd;stroke:#000000;stroke-width:0.17233619px;stroke-linecap:butt;stroke-linejoin:miter;stroke-opacity:1"
         inkscape:connector-curvature="0" />
      <path
         id="path15928"
         d="m 331.94913,268.22184 11.22853,-12.36009"
         style="display:inline;fill:none;fill-rule:evenodd;stroke:#000000;stroke-width:0.17233619px;stroke-linecap:butt;stroke-linejoin:miter;stroke-opacity:1"
         inkscape:connector-curvature="0" />
      <path
         id="path15930"
         d="m 332.55843,268.91819 13.31756,-10.5322"
         style="display:inline;fill:none;fill-rule:evenodd;stroke:#000000;stroke-width:0.17233619px;stroke-linecap:butt;stroke-linejoin:miter;stroke-opacity:1"
         inkscape:connector-curvature="0" />
      <path
         id="path15932"
         d="m 332.73251,269.78862 15.49364,-7.05048"
         style="display:inline;fill:none;fill-rule:evenodd;stroke:#000000;stroke-width:0.17233619px;stroke-linecap:butt;stroke-linejoin:miter;stroke-opacity:1"
         inkscape:connector-curvature="0" />
      <path
         id="path15934"
         d="m 332.81956,270.65905 16.79928,-1.47973"
         style="display:inline;fill:none;fill-rule:evenodd;stroke:#000000;stroke-width:0.17233619px;stroke-linecap:butt;stroke-linejoin:miter;stroke-opacity:1"
         inkscape:connector-curvature="0" />
      <path
         id="path15938"
         d="m 330.99166,250.291 -3.48172,17.32154"
         style="display:inline;fill:none;fill-rule:evenodd;stroke:#000000;stroke-width:0.17233619px;stroke-linecap:butt;stroke-linejoin:miter;stroke-opacity:1"
         inkscape:connector-curvature="0" />
      <path
         id="path15940"
         d="m 328.98967,267.35141 10.79332,-14.27504"
         style="display:inline;fill:none;fill-rule:evenodd;stroke:#000000;stroke-width:0.17233619px;stroke-linecap:butt;stroke-linejoin:miter;stroke-opacity:1"
         inkscape:connector-curvature="0" />
      <path
         id="path15942"
         d="M 332.38434,268.91819 348.9225,265.0883"
         style="display:inline;fill:none;fill-rule:evenodd;stroke:#000000;stroke-width:0.17233619px;stroke-linecap:butt;stroke-linejoin:miter;stroke-opacity:1"
         inkscape:connector-curvature="0" />
      <path
         id="path15944"
         d="m 332.55843,271.35539 16.36407,3.74284"
         style="display:inline;fill:none;fill-rule:evenodd;stroke:#000000;stroke-width:0.17233619px;stroke-linecap:butt;stroke-linejoin:miter;stroke-opacity:1"
         inkscape:connector-curvature="0" />
      <path
         id="path15946"
         d="m 332.21026,272.3999 15.05842,7.74682"
         style="display:inline;fill:none;fill-rule:evenodd;stroke:#000000;stroke-width:0.17233619px;stroke-linecap:butt;stroke-linejoin:miter;stroke-opacity:1"
         inkscape:connector-curvature="0" />
      <path
         id="path15948"
         d="m 331.42687,273.09625 12.62122,11.48966"
         style="display:inline;fill:none;fill-rule:evenodd;stroke:#000000;stroke-width:0.17233619px;stroke-linecap:butt;stroke-linejoin:miter;stroke-opacity:1"
         inkscape:connector-curvature="0" />
      <path
         id="path15950"
         d="m 330.99166,273.35738 9.05246,14.18799"
         style="display:inline;fill:none;fill-rule:evenodd;stroke:#000000;stroke-width:0.17233619px;stroke-linecap:butt;stroke-linejoin:miter;stroke-opacity:1"
         inkscape:connector-curvature="0" />
      <path
         id="path15952"
         d="m 330.20827,273.44442 4.43919,16.45111"
         style="display:inline;fill:none;fill-rule:evenodd;stroke:#000000;stroke-width:0.17233619px;stroke-linecap:butt;stroke-linejoin:miter;stroke-opacity:1"
         inkscape:connector-curvature="0" />
      <path
         id="path15954"
         d="m 329.42488,273.44442 -0.17408,17.06041"
         style="display:inline;fill:none;fill-rule:evenodd;stroke:#000000;stroke-width:0.17233619px;stroke-linecap:butt;stroke-linejoin:miter;stroke-opacity:1"
         inkscape:connector-curvature="0" />
      <path
         id="path15956"
         d="m 328.46741,273.35738 -5.22258,16.01589"
         style="display:inline;fill:none;fill-rule:evenodd;stroke:#000000;stroke-width:0.17233619px;stroke-linecap:butt;stroke-linejoin:miter;stroke-opacity:1"
         inkscape:connector-curvature="0" />
      <path
         id="path15958"
         d="m 327.50994,272.57399 -9.92289,14.27504"
         style="display:inline;fill:none;fill-rule:evenodd;stroke:#000000;stroke-width:0.17233619px;stroke-linecap:butt;stroke-linejoin:miter;stroke-opacity:1"
         inkscape:connector-curvature="0" />
      <path
         id="path15960"
         d="m 326.90064,272.22582 -13.75278,9.92289"
         style="display:inline;fill:none;fill-rule:evenodd;stroke:#000000;stroke-width:0.17233619px;stroke-linecap:butt;stroke-linejoin:miter;stroke-opacity:1"
         inkscape:connector-curvature="0" />
      <path
         id="path15962"
         d="m 326.55247,271.61652 -16.18999,4.2651"
         style="display:inline;fill:none;fill-rule:evenodd;stroke:#000000;stroke-width:0.17233619px;stroke-linecap:butt;stroke-linejoin:miter;stroke-opacity:1"
         inkscape:connector-curvature="0" />
      <path
         id="path15964"
         d="m 326.72655,270.83313 -17.40858,-1.2186"
         style="display:inline;fill:none;fill-rule:evenodd;stroke:#000000;stroke-width:0.17233619px;stroke-linecap:butt;stroke-linejoin:miter;stroke-opacity:1"
         inkscape:connector-curvature="0" />
      <path
         id="path15968"
         d="m 326.46543,269.44044 -16.10295,-6.00596"
         style="display:inline;fill:none;fill-rule:evenodd;stroke:#000000;stroke-width:0.17233619px;stroke-linecap:butt;stroke-linejoin:miter;stroke-opacity:1"
         inkscape:connector-curvature="0" />
      <path
         id="path15970"
         d="M 326.8136,268.39593 314.54054,256.81922"
         style="display:inline;fill:none;fill-rule:evenodd;stroke:#000000;stroke-width:0.17233619px;stroke-linecap:butt;stroke-linejoin:miter;stroke-opacity:1"
         inkscape:connector-curvature="0" />
      <path
         id="path15972"
         d="m 327.16177,267.96072 -6.70231,-15.4066"
         style="display:inline;fill:none;fill-rule:evenodd;stroke:#000000;stroke-width:0.17233619px;stroke-linecap:butt;stroke-linejoin:miter;stroke-opacity:1"
         inkscape:connector-curvature="0" />
      <path
         id="path15974"
         d="m 332.99364,270.13679 12.44714,12.44714"
         style="display:inline;fill:none;fill-rule:evenodd;stroke:#000000;stroke-width:0.17233619px;stroke-linecap:butt;stroke-linejoin:miter;stroke-opacity:1"
         inkscape:connector-curvature="0" />
      <path
         id="path15976"
         d="m 332.64547,271.26835 3.91693,18.01788"
         style="display:inline;fill:none;fill-rule:evenodd;stroke:#000000;stroke-width:0.17233619px;stroke-linecap:butt;stroke-linejoin:miter;stroke-opacity:1"
         inkscape:connector-curvature="0" />
      <path
         id="path15978"
         d="m 332.03617,272.48695 -10.18402,16.45111"
         style="display:inline;fill:none;fill-rule:evenodd;stroke:#000000;stroke-width:0.17233619px;stroke-linecap:butt;stroke-linejoin:miter;stroke-opacity:1"
         inkscape:connector-curvature="0" />
      <path
         id="path15980"
         d="m 332.55843,271.96469 -4.70032,18.62718"
         style="display:inline;fill:none;fill-rule:evenodd;stroke:#000000;stroke-width:0.17233619px;stroke-linecap:butt;stroke-linejoin:miter;stroke-opacity:1"
         inkscape:connector-curvature="0" />
      <path
         id="path15982"
         d="m 330.4694,273.27033 -15.66773,10.61924"
         style="display:inline;fill:none;fill-rule:evenodd;stroke:#000000;stroke-width:0.17233619px;stroke-linecap:butt;stroke-linejoin:miter;stroke-opacity:1"
         inkscape:connector-curvature="0" />
      <path
         id="path15984"
         d="m 328.6415,273.53146 -19.23649,-0.26113"
         style="display:inline;fill:none;fill-rule:evenodd;stroke:#000000;stroke-width:0.17233619px;stroke-linecap:butt;stroke-linejoin:miter;stroke-opacity:1"
         inkscape:connector-curvature="0" />
      <path
         id="path15986"
         d="m 329.68601,273.6185 -18.54014,5.57075"
         style="display:inline;fill:none;fill-rule:evenodd;stroke:#000000;stroke-width:0.17233619px;stroke-linecap:butt;stroke-linejoin:miter;stroke-opacity:1"
         inkscape:connector-curvature="0" />
      <path
         id="path15988"
         d="M 326.98768,272.31286 311.84221,260.64911"
         style="display:inline;fill:none;fill-rule:evenodd;stroke:#000000;stroke-width:0.17233619px;stroke-linecap:butt;stroke-linejoin:miter;stroke-opacity:1"
         inkscape:connector-curvature="0" />
      <path
         id="path15990"
         d="m 327.68402,273.0092 -17.93084,-6.96343"
         style="display:inline;fill:none;fill-rule:evenodd;stroke:#000000;stroke-width:0.17233619px;stroke-linecap:butt;stroke-linejoin:miter;stroke-opacity:1"
         inkscape:connector-curvature="0" />
      <path
         id="path15992"
         d="M 326.72655,269.00523 324.3764,250.9003"
         style="display:inline;fill:none;fill-rule:evenodd;stroke:#000000;stroke-width:0.17233619px;stroke-linecap:butt;stroke-linejoin:miter;stroke-opacity:1"
         inkscape:connector-curvature="0" />
      <path
         id="path15998"
         d="m 326.90064,272.13878 -4.61328,-20.45509"
         style="display:inline;fill:none;fill-rule:evenodd;stroke:#000000;stroke-width:0.17233619px;stroke-linecap:butt;stroke-linejoin:miter;stroke-opacity:1"
         inkscape:connector-curvature="0" />
      <path
         id="path16000"
         d="m 326.08554,269.24158 -8.95223,-15.05217"
         style="display:inline;fill:none;fill-rule:evenodd;stroke:#000000;stroke-width:0.13528824px;stroke-linecap:butt;stroke-linejoin:miter;stroke-opacity:1"
         inkscape:connector-curvature="0" />
      <path
         id="path16002"
         d="m 331.0787,267.69959 17.49562,9.92289"
         style="display:inline;fill:none;fill-rule:evenodd;stroke:#000000;stroke-width:0.17233619px;stroke-linecap:butt;stroke-linejoin:miter;stroke-opacity:1"
         inkscape:connector-curvature="0" />
      <path
         id="path16004"
         d="m 330.12123,267.43846 19.32352,4.17806"
         style="display:inline;fill:none;fill-rule:evenodd;stroke:#000000;stroke-width:0.17233619px;stroke-linecap:butt;stroke-linejoin:miter;stroke-opacity:1"
         inkscape:connector-curvature="0" />
      <rect
         transform="rotate(11.82255)"
         ry="2.5880795"
         rx="2.0091851"
         y="146.86075"
         x="375.81467"
         height="52.066051"
         width="4.0183697"
         id="rect16024"
         style="display:inline;opacity:1;fill:#555555;fill-opacity:1;stroke:#000000;stroke-width:0.63287342;stroke-miterlimit:4;stroke-dasharray:none;stroke-opacity:1" />
      <rect
         transform="rotate(5.5207652)"
         ry="2.669513"
         rx="1.5083071"
         y="187.53552"
         x="348.95923"
         height="3.2321415"
         width="12.284604"
         id="rect16995"
         style="display:inline;opacity:1;fill:#555555;fill-opacity:1;stroke:#000000;stroke-width:0.72275758;stroke-miterlimit:4;stroke-dasharray:none;stroke-opacity:1" />
      <circle
         id="path16997"
         style="display:inline;opacity:1;fill:#555555;fill-opacity:1;stroke:#000000;stroke-width:0.82135427;stroke-miterlimit:4;stroke-dasharray:none;stroke-opacity:1"
         cx="330.64349"
         cy="222.00206"
         r="2.0019872" />
      <rect
         transform="matrix(0.69696999,-0.7171003,0.6329165,0.77422006,0,0)"
         y="393.34436"
         x="111.03716"
         height="0.62419999"
         width="7.1849751"
         id="rect21161"
         style="display:inline;opacity:1;fill:#ffffff;fill-opacity:1;stroke:#000000;stroke-width:0.41945875;stroke-miterlimit:4;stroke-dasharray:none;stroke-opacity:1" />
      <rect
         transform="rotate(45.366674)"
         ry="2.2691081"
         rx="1.2820734"
         y="-80.782074"
         x="380.25302"
         height="2.7473469"
         width="10.442015"
         id="rect16999"
         style="display:inline;opacity:1;fill:#555555;fill-opacity:1;stroke:#000000;stroke-width:0.61434984;stroke-miterlimit:4;stroke-dasharray:none;stroke-opacity:1" />
      <rect
         transform="matrix(0.74007649,0.6725227,-0.5064378,0.86227649,0,0)"
         ry="1.9803183"
         rx="1.0695177"
         y="-54.340206"
         x="419.44925"
         height="3.0385995"
         width="53.00679"
         id="rect17003"
         style="display:inline;opacity:1;fill:#b59f55;fill-opacity:1;stroke:#000000;stroke-width:0.71944553;stroke-miterlimit:4;stroke-dasharray:none;stroke-opacity:1" />
      <path
         inkscape:connector-curvature="0"
         id="path17005"
         transform="translate(304.57227,214.08311)"
         d="m 103.38086,30.173828 c -0.96608,-0.01286 -0.32562,0.393067 -1.29102,0.431641 -0.96539,0.03857 -0.35833,-0.418025 -1.32031,-0.328125 -0.961973,0.0899 -0.2805,0.425435 -1.236327,0.566406 -0.955826,0.140971 -0.402641,-0.377189 -1.349609,-0.185547 -0.946969,0.191642 -0.234495,0.453542 -1.169922,0.695313 -0.935427,0.24177 -0.438141,-0.332229 -1.359375,-0.04102 -0.921234,0.291213 -0.185415,0.474623 -1.089844,0.814453 -0.904429,0.339831 -0.472361,-0.282016 -1.357422,0.105469 -0.88506,0.387484 -0.13291,0.491741 -0.996093,0.925781 -0.863184,0.43404 -0.499032,-0.231318 -1.337891,0.248047 -0.83886,0.479365 -0.08042,0.504012 -0.892578,1.027344 -0.812158,0.523332 -0.521534,-0.177143 -1.304688,0.388672 -0.783154,0.565815 -0.02541,0.50854 -0.777343,1.115234 -0.75193,0.606694 -0.537285,-0.120463 -1.25586,0.525391 -0.718575,0.645853 0.02693,0.508223 -0.65625,1.191406 -0.683182,0.683182 -0.545552,-0.06233 -1.191406,0.65625 -0.645854,0.718575 0.0813,0.503929 -0.525391,1.255859 -0.606694,0.75193 -0.551372,-0.0058 -1.117187,0.777344 -0.565815,0.783154 0.136613,0.49253 -0.386719,1.304688 -0.523332,0.812157 -0.547978,0.05372 -1.027344,0.892578 -0.479365,0.838859 0.185993,0.474707 -0.248047,1.33789 -0.43404,0.863184 -0.538296,0.111033 -0.925781,0.996094 -0.387484,0.885061 0.234362,0.452993 -0.105469,1.357422 -0.33983,0.904429 -0.52324,0.16861 -0.814453,1.089844 -0.291213,0.921233 0.282786,0.423948 0.04102,1.359375 -0.24177,0.935427 -0.50367,0.222953 -0.695313,1.169921 -0.191642,0.946969 0.326518,0.393784 0.185547,1.34961 -0.140971,0.955826 -0.476506,0.274354 -0.566406,1.236328 -0.0899,0.961974 0.366699,0.354917 0.328125,1.320312 -0.03857,0.965396 -0.446455,0.324936 -0.433594,1.291016 0.01286,0.96608 0.402537,0.31527 0.466797,1.279297 0.06426,0.964027 -0.408445,0.368885 -0.292969,1.328125 0.115477,0.95924 0.433244,0.270921 0.59961,1.222656 0.166365,0.951735 -0.365221,0.410031 -0.148438,1.351563 0.216783,0.941531 0.458023,0.223684 0.72461,1.152343 0.266586,0.92866 -0.31954,0.446221 -0.0039,1.359376 0.315634,0.913155 0.479964,0.173297 0.84375,1.068359 0.363787,0.895062 -0.270282,0.479084 0.140625,1.353515 0.410908,0.874433 0.496261,0.121333 0.953125,0.972657 0.456865,0.851323 -0.218323,0.504277 0.283203,1.330078 0.501527,0.825801 0.504062,0.0673 1.048829,0.865234 0.544766,0.797939 -0.162635,0.525155 0.423828,1.292969 0.586462,0.767814 0.510222,0.01253 1.136719,0.748047 0.626495,0.735513 -0.10616,0.54106 0.558593,1.242187 0.664754,0.701127 0.507858,-0.04171 1.208985,0.623047 0.701127,0.664754 -0.04801,0.547332 0.6875,1.173828 0.735513,0.626496 0.499764,-0.09427 1.267578,0.492188 0.767814,0.586462 0.01065,0.550936 0.808594,1.095703 0.797938,0.544767 0.488651,-0.148011 1.314453,0.353516 0.825801,0.501526 0.0686,0.545088 0.919921,1.001953 0.851324,0.456864 0.469318,-0.198018 1.34375,0.21289 0.874432,0.410908 0.126423,0.534652 1.021485,0.898438 0.895062,0.363786 0.44622,-0.247274 1.359375,0.06836 0.913155,0.315634 0.180715,0.51857 1.109375,0.785156 0.928659,0.266587 0.417843,-0.292954 1.359375,-0.07617 0.941531,0.216783 0.235765,0.497697 1.1875,0.664062 0.951735,0.166366 0.38451,-0.338132 1.343747,-0.222656 0.95924,0.115476 0.28793,0.470896 1.25196,0.535156 0.96402,0.06426 0.34446,-0.376142 1.31054,-0.363281 0.96608,0.01286 0.33734,0.435058 1.30274,0.396484 0.96539,-0.03857 0.30365,-0.4101 1.26562,-0.5 0.96198,-0.0899 0.38011,0.398784 1.33594,0.257813 0.95583,-0.140971 0.25811,-0.441171 1.20508,-0.632813 0.94697,-0.191642 0.42004,0.355052 1.35547,0.113282 0.93542,-0.241771 0.21157,-0.464647 1.13281,-0.75586 0.92123,-0.291213 0.45494,0.308581 1.35937,-0.03125 0.90443,-0.33983 0.15986,-0.483609 1.04493,-0.871094 0.88506,-0.387484 0.48642,0.256306 1.3496,-0.177734 0.86319,-0.43404 0.10646,-0.497197 0.94532,-0.976562 0.83886,-0.479366 0.51206,0.204972 1.32422,-0.31836 0.81215,-0.523332 0.0528,-0.508404 0.83593,-1.074219 0.78316,-0.565815 0.52932,0.149663 1.28125,-0.457031 0.75193,-0.606694 1.8e-4,-0.510396 0.71875,-1.15625 0.71858,-0.645854 0.54143,0.09334 1.22461,-0.589844 0.68319,-0.683182 -0.0541,-0.507987 0.5918,-1.226562 0.64585,-0.718575 0.54956,0.03318 1.15625,-0.71875 0.60669,-0.75193 -0.10878,-0.498096 0.45703,-1.28125 0.56582,-0.783154 0.55089,-0.02378 1.07422,-0.835938 0.52333,-0.812157 -0.16101,-0.485359 0.31836,-1.324218 0.47936,-0.83886 0.54252,-0.08213 0.97656,-0.945313 0.43404,-0.863183 -0.20975,-0.464549 0.17774,-1.349609 0.38748,-0.885061 0.53126,-0.140493 0.87109,-1.044922 0.33983,-0.904429 -0.25996,-0.438141 0.0312,-1.359375 0.29121,-0.921234 0.51409,-0.197386 0.75586,-1.132813 0.24177,-0.935427 -0.30492,-0.4085 -0.11328,-1.355468 0.19164,-0.946969 0.49184,-0.249252 0.63281,-1.205078 0.14097,-0.955827 -0.34771,-0.373964 -0.25781,-1.335938 0.0899,-0.961974 0.46142,-0.300229 0.5,-1.265625 0.0386,-0.965396 -0.38363,-0.336654 -0.39649,-1.302734 -0.0129,-0.966081 0.42559,-0.346521 0.36133,-1.310547 -0.0643,-0.964027 -0.41773,-0.292713 -0.5332,-1.251953 -0.11548,-0.959241 0.38902,-0.392016 0.22265,-1.34375 -0.16636,-0.951735 -0.44728,-0.245969 -0.66406,-1.1875 -0.21678,-0.941532 0.34276,-0.430716 0.0762,-1.359375 -0.26658,-0.92866 -0.46952,-0.19622 -0.78515,-1.109375 -0.31564,-0.913155 0.29542,-0.464313 -0.0684,-1.359375 -0.36379,-0.895062 -0.48753,-0.147053 -0.89844,-1.021485 -0.41091,-0.874432 0.24397,-0.492427 -0.21289,-1.34375 -0.45686,-0.851323 -0.50043,-0.09412 -1.00195,-0.919922 -0.50153,-0.825801 0.19125,-0.516514 -0.35352,-1.314453 -0.54477,-0.797938 -0.50924,-0.03883 -1.0957,-0.80664 -0.58646,-0.767814 0.13431,-0.534019 -0.49219,-1.269532 -0.6265,-0.735513 -0.50907,0.01363 -1.17383,-0.6875 -0.66475,-0.701127 0.0781,-0.54423 -0.62304,-1.208984 -0.70113,-0.664754 -0.50668,0.0679 -1.24219,-0.558594 -0.73551,-0.626496 0.0198,-0.550256 -0.74805,-1.136718 -0.76781,-0.586463 -0.49503,0.122891 -1.29297,-0.421876 -0.79794,-0.544766 -0.0394,-0.549254 -0.86523,-1.050781 -0.8258,-0.501526 -0.47876,0.173662 -1.33008,-0.283203 -0.85132,-0.456865 -0.0982,-0.542217 -0.97266,-0.953125 -0.87443,-0.410908 -0.45845,0.223161 -1.35351,-0.140625 -0.89506,-0.363786 -0.15521,-0.528116 -1.06836,-0.84375 -0.91316,-0.315633 -0.43072,0.272446 -1.35938,0.0059 -0.92866,-0.266587 -0.21081,-0.50978 -1.15234,-0.726563 -0.94153,-0.216783 -0.39983,0.314803 -1.35156,0.148437 -0.95174,-0.166365 -0.26342,-0.48218 -1.22266,-0.597656 -0.95924,-0.115476 -0.3641,0.355276 -1.32812,0.291016 -0.96403,-0.06426 -0.31322,-0.451983 -1.2793,-0.464844 z m -0.33398,4.277344 A 20.262964,20.262964 0 0 1 123.31055,54.714844 20.262964,20.262964 0 0 1 103.04688,74.978516 20.262964,20.262964 0 0 1 82.783203,54.714844 20.262964,20.262964 0 0 1 103.04688,34.451172 Z"
         style="display:inline;fill:#333333;fill-opacity:1;stroke:#000000;stroke-width:0.82135427;stroke-miterlimit:4;stroke-dasharray:none;stroke-opacity:1" />
      <path
         id="path20071"
         d="m 376.3981,265.65135 7.63439,0.51919"
         style="display:inline;fill:none;fill-rule:evenodd;stroke:#000000;stroke-width:0.37913957;stroke-linecap:butt;stroke-linejoin:miter;stroke-miterlimit:4;stroke-dasharray:none;stroke-opacity:1"
         inkscape:connector-curvature="0" />
      <circle
         id="path17009"
         style="display:inline;fill:none;fill-opacity:0.12790695;stroke:#000000;stroke-width:0.82135427;stroke-miterlimit:4;stroke-dasharray:none;stroke-opacity:1"
         cx="407.61899"
         cy="268.79794"
         r="3.2005291" />
      <path
         id="path17011"
         d="M 407.25755,265.59637 406.21303,248.623"
         style="display:inline;fill:none;fill-rule:evenodd;stroke:#000000;stroke-width:0.17233619px;stroke-linecap:butt;stroke-linejoin:miter;stroke-opacity:1"
         inkscape:connector-curvature="0" />
      <path
         id="path17013"
         d="m 407.95389,265.8575 2.17607,-16.97337"
         style="display:inline;fill:none;fill-rule:evenodd;stroke:#000000;stroke-width:0.17233619px;stroke-linecap:butt;stroke-linejoin:miter;stroke-opacity:1"
         inkscape:connector-curvature="0" />
      <path
         id="path17015"
         d="m 408.73728,265.94454 5.83187,-15.92885"
         style="display:inline;fill:none;fill-rule:evenodd;stroke:#000000;stroke-width:0.17233619px;stroke-linecap:butt;stroke-linejoin:miter;stroke-opacity:1"
         inkscape:connector-curvature="0" />
      <path
         id="path17017"
         d="m 409.52066,266.11863 8.96542,-14.10095"
         style="display:inline;fill:none;fill-rule:evenodd;stroke:#000000;stroke-width:0.17233619px;stroke-linecap:butt;stroke-linejoin:miter;stroke-opacity:1"
         inkscape:connector-curvature="0" />
      <path
         id="path17019"
         d="m 410.04292,266.64089 11.22854,-12.3601"
         style="display:inline;fill:none;fill-rule:evenodd;stroke:#000000;stroke-width:0.17233619px;stroke-linecap:butt;stroke-linejoin:miter;stroke-opacity:1"
         inkscape:connector-curvature="0" />
      <path
         id="path17021"
         d="m 410.65222,267.33723 13.31757,-10.53219"
         style="display:inline;fill:none;fill-rule:evenodd;stroke:#000000;stroke-width:0.17233619px;stroke-linecap:butt;stroke-linejoin:miter;stroke-opacity:1"
         inkscape:connector-curvature="0" />
      <path
         id="path17023"
         d="m 410.82631,268.20766 15.49364,-7.05048"
         style="display:inline;fill:none;fill-rule:evenodd;stroke:#000000;stroke-width:0.17233619px;stroke-linecap:butt;stroke-linejoin:miter;stroke-opacity:1"
         inkscape:connector-curvature="0" />
      <path
         id="path17025"
         d="m 410.91335,269.07809 16.79928,-1.47973"
         style="display:inline;fill:none;fill-rule:evenodd;stroke:#000000;stroke-width:0.17233619px;stroke-linecap:butt;stroke-linejoin:miter;stroke-opacity:1"
         inkscape:connector-curvature="0" />
      <path
         id="path17027"
         d="m 409.08545,248.71005 -3.48172,17.32154"
         style="display:inline;fill:none;fill-rule:evenodd;stroke:#000000;stroke-width:0.17233619px;stroke-linecap:butt;stroke-linejoin:miter;stroke-opacity:1"
         inkscape:connector-curvature="0" />
      <path
         id="path17029"
         d="m 407.08346,265.77046 10.79332,-14.27504"
         style="display:inline;fill:none;fill-rule:evenodd;stroke:#000000;stroke-width:0.17233619px;stroke-linecap:butt;stroke-linejoin:miter;stroke-opacity:1"
         inkscape:connector-curvature="0" />
      <path
         id="path17031"
         d="m 410.47813,267.33723 16.53816,-3.82989"
         style="display:inline;fill:none;fill-rule:evenodd;stroke:#000000;stroke-width:0.17233619px;stroke-linecap:butt;stroke-linejoin:miter;stroke-opacity:1"
         inkscape:connector-curvature="0" />
      <path
         id="path17033"
         d="m 410.65222,269.77443 16.36407,3.74285"
         style="display:inline;fill:none;fill-rule:evenodd;stroke:#000000;stroke-width:0.17233619px;stroke-linecap:butt;stroke-linejoin:miter;stroke-opacity:1"
         inkscape:connector-curvature="0" />
      <path
         id="path17035"
         d="m 410.30405,270.81895 15.05843,7.74682"
         style="display:inline;fill:none;fill-rule:evenodd;stroke:#000000;stroke-width:0.17233619px;stroke-linecap:butt;stroke-linejoin:miter;stroke-opacity:1"
         inkscape:connector-curvature="0" />
      <path
         id="path17037"
         d="m 409.52066,271.51529 12.62123,11.48966"
         style="display:inline;fill:none;fill-rule:evenodd;stroke:#000000;stroke-width:0.17233619px;stroke-linecap:butt;stroke-linejoin:miter;stroke-opacity:1"
         inkscape:connector-curvature="0" />
      <path
         id="path17039"
         d="m 409.08545,271.77642 9.05246,14.18799"
         style="display:inline;fill:none;fill-rule:evenodd;stroke:#000000;stroke-width:0.17233619px;stroke-linecap:butt;stroke-linejoin:miter;stroke-opacity:1"
         inkscape:connector-curvature="0" />
      <path
         id="path17041"
         d="m 408.30206,271.86346 4.43919,16.45111"
         style="display:inline;fill:none;fill-rule:evenodd;stroke:#000000;stroke-width:0.17233619px;stroke-linecap:butt;stroke-linejoin:miter;stroke-opacity:1"
         inkscape:connector-curvature="0" />
      <path
         id="path17043"
         d="m 407.51868,271.86346 -0.17409,17.06041"
         style="display:inline;fill:none;fill-rule:evenodd;stroke:#000000;stroke-width:0.17233619px;stroke-linecap:butt;stroke-linejoin:miter;stroke-opacity:1"
         inkscape:connector-curvature="0" />
      <path
         id="path17045"
         d="m 406.5612,271.77642 -5.22257,16.0159"
         style="display:inline;fill:none;fill-rule:evenodd;stroke:#000000;stroke-width:0.17233619px;stroke-linecap:butt;stroke-linejoin:miter;stroke-opacity:1"
         inkscape:connector-curvature="0" />
      <path
         id="path17047"
         d="m 405.60373,270.99303 -9.92289,14.27504"
         style="display:inline;fill:none;fill-rule:evenodd;stroke:#000000;stroke-width:0.17233619px;stroke-linecap:butt;stroke-linejoin:miter;stroke-opacity:1"
         inkscape:connector-curvature="0" />
      <path
         id="path17049"
         d="m 404.99443,270.64486 -13.75278,9.92289"
         style="display:inline;fill:none;fill-rule:evenodd;stroke:#000000;stroke-width:0.17233619px;stroke-linecap:butt;stroke-linejoin:miter;stroke-opacity:1"
         inkscape:connector-curvature="0" />
      <path
         id="path17051"
         d="m 404.64626,270.03556 -16.18998,4.2651"
         style="display:inline;fill:none;fill-rule:evenodd;stroke:#000000;stroke-width:0.17233619px;stroke-linecap:butt;stroke-linejoin:miter;stroke-opacity:1"
         inkscape:connector-curvature="0" />
      <path
         id="path17053"
         d="m 404.82035,269.25217 -17.40859,-1.2186"
         style="display:inline;fill:none;fill-rule:evenodd;stroke:#000000;stroke-width:0.17233619px;stroke-linecap:butt;stroke-linejoin:miter;stroke-opacity:1"
         inkscape:connector-curvature="0" />
      <path
         id="path17055"
         d="m 404.55922,267.85949 -16.10294,-6.00596"
         style="display:inline;fill:none;fill-rule:evenodd;stroke:#000000;stroke-width:0.17233619px;stroke-linecap:butt;stroke-linejoin:miter;stroke-opacity:1"
         inkscape:connector-curvature="0" />
      <path
         id="path17057"
         d="M 404.90739,266.81497 392.63434,255.23826"
         style="display:inline;fill:none;fill-rule:evenodd;stroke:#000000;stroke-width:0.17233619px;stroke-linecap:butt;stroke-linejoin:miter;stroke-opacity:1"
         inkscape:connector-curvature="0" />
      <path
         id="path17059"
         d="m 405.25556,266.37976 -6.70231,-15.4066"
         style="display:inline;fill:none;fill-rule:evenodd;stroke:#000000;stroke-width:0.17233619px;stroke-linecap:butt;stroke-linejoin:miter;stroke-opacity:1"
         inkscape:connector-curvature="0" />
      <path
         id="path17061"
         d="m 411.08744,268.55583 12.44713,12.44714"
         style="display:inline;fill:none;fill-rule:evenodd;stroke:#000000;stroke-width:0.17233619px;stroke-linecap:butt;stroke-linejoin:miter;stroke-opacity:1"
         inkscape:connector-curvature="0" />
      <path
         id="path17063"
         d="m 410.73926,269.68739 3.91694,18.01788"
         style="display:inline;fill:none;fill-rule:evenodd;stroke:#000000;stroke-width:0.17233619px;stroke-linecap:butt;stroke-linejoin:miter;stroke-opacity:1"
         inkscape:connector-curvature="0" />
      <path
         id="path17065"
         d="M 410.12996,270.90599 399.94594,287.3571"
         style="display:inline;fill:none;fill-rule:evenodd;stroke:#000000;stroke-width:0.17233619px;stroke-linecap:butt;stroke-linejoin:miter;stroke-opacity:1"
         inkscape:connector-curvature="0" />
      <path
         id="path17067"
         d="m 410.65222,270.38373 -4.70032,18.62719"
         style="display:inline;fill:none;fill-rule:evenodd;stroke:#000000;stroke-width:0.17233619px;stroke-linecap:butt;stroke-linejoin:miter;stroke-opacity:1"
         inkscape:connector-curvature="0" />
      <path
         id="path17069"
         d="m 408.56319,271.68937 -15.66772,10.61924"
         style="display:inline;fill:none;fill-rule:evenodd;stroke:#000000;stroke-width:0.17233619px;stroke-linecap:butt;stroke-linejoin:miter;stroke-opacity:1"
         inkscape:connector-curvature="0" />
      <path
         id="path17071"
         d="m 406.73529,271.95051 -19.23648,-0.26114"
         style="display:inline;fill:none;fill-rule:evenodd;stroke:#000000;stroke-width:0.17233619px;stroke-linecap:butt;stroke-linejoin:miter;stroke-opacity:1"
         inkscape:connector-curvature="0" />
      <path
         id="path17073"
         d="m 407.77981,272.03755 -18.54015,5.57074"
         style="display:inline;fill:none;fill-rule:evenodd;stroke:#000000;stroke-width:0.17233619px;stroke-linecap:butt;stroke-linejoin:miter;stroke-opacity:1"
         inkscape:connector-curvature="0" />
      <path
         id="path17075"
         d="M 405.08147,270.7319 389.93601,259.06815"
         style="display:inline;fill:none;fill-rule:evenodd;stroke:#000000;stroke-width:0.17233619px;stroke-linecap:butt;stroke-linejoin:miter;stroke-opacity:1"
         inkscape:connector-curvature="0" />
      <path
         id="path17077"
         d="m 405.77782,271.42825 -17.93084,-6.96344"
         style="display:inline;fill:none;fill-rule:evenodd;stroke:#000000;stroke-width:0.17233619px;stroke-linecap:butt;stroke-linejoin:miter;stroke-opacity:1"
         inkscape:connector-curvature="0" />
      <path
         id="path17079"
         d="m 404.82035,267.42427 -2.35016,-18.10492"
         style="display:inline;fill:none;fill-rule:evenodd;stroke:#000000;stroke-width:0.17233619px;stroke-linecap:butt;stroke-linejoin:miter;stroke-opacity:1"
         inkscape:connector-curvature="0" />
      <path
         id="path17081"
         d="m 404.99443,270.55782 -4.61327,-20.45509"
         style="display:inline;fill:none;fill-rule:evenodd;stroke:#000000;stroke-width:0.17233619px;stroke-linecap:butt;stroke-linejoin:miter;stroke-opacity:1"
         inkscape:connector-curvature="0" />
      <path
         id="path17083"
         d="M 404.17933,267.66062 395.2271,252.60845"
         style="display:inline;fill:none;fill-rule:evenodd;stroke:#000000;stroke-width:0.13528824px;stroke-linecap:butt;stroke-linejoin:miter;stroke-opacity:1"
         inkscape:connector-curvature="0" />
      <path
         id="path17085"
         d="m 409.17249,266.11863 17.49563,9.92289"
         style="display:inline;fill:none;fill-rule:evenodd;stroke:#000000;stroke-width:0.17233619px;stroke-linecap:butt;stroke-linejoin:miter;stroke-opacity:1"
         inkscape:connector-curvature="0" />
      <path
         id="path17087"
         d="m 408.21502,265.8575 19.32353,4.17806"
         style="display:inline;fill:none;fill-rule:evenodd;stroke:#000000;stroke-width:0.17233619px;stroke-linecap:butt;stroke-linejoin:miter;stroke-opacity:1"
         inkscape:connector-curvature="0" />
      <rect
         inkscape:transform-center-x="-3.2904899e-005"
         inkscape:transform-center-y="-6.199204"
         transform="rotate(99.808414)"
         ry="1.7978464"
         rx="1.015805"
         y="-418.64822"
         x="154.75015"
         height="2.7586136"
         width="50.3447"
         id="rect17133"
         style="display:inline;opacity:1;fill:#555555;fill-opacity:1;stroke:#000000;stroke-width:0.6507706;stroke-miterlimit:4;stroke-dasharray:none;stroke-opacity:1" />
      <rect
         inkscape:transform-center-x="0.94018645"
         inkscape:transform-center-y="-9.2357961"
         transform="matrix(-0.66580691,-0.7461241,0.72892309,-0.6845956,0,0)"
         ry="1.4025238"
         rx="0.78915483"
         y="124.61747"
         x="-476.35181"
         height="2.1520309"
         width="39.11161"
         id="rect17135"
         style="display:inline;opacity:1;fill:#555555;fill-opacity:1;stroke:#000000;stroke-width:0.50662047;stroke-miterlimit:4;stroke-dasharray:none;stroke-opacity:1" />
      <rect
         inkscape:transform-center-x="-3.9984825"
         inkscape:transform-center-y="-1.1714172"
         transform="matrix(-0.9954284,0.09551078,-0.10592972,-0.99437362,0,0)"
         ry="1.3350912"
         rx="0.68183255"
         y="-307.74933"
         x="-378.4646"
         height="2.0485623"
         width="33.792557"
         id="rect17137"
         style="display:inline;opacity:1;fill:#555555;fill-opacity:1;stroke:#000000;stroke-width:0.45945269;stroke-miterlimit:4;stroke-dasharray:none;stroke-opacity:1" />
      <rect
         transform="matrix(0.98532661,0.17067942,-0.13042862,0.9914577,0,0)"
         ry="1.8003649"
         rx="0.89199257"
         y="169.17377"
         x="365.89838"
         height="2.7624781"
         width="44.208389"
         id="rect17001"
         style="display:inline;opacity:1;fill:#b79f55;fill-opacity:1;stroke:#000000;stroke-width:0.6102494;stroke-miterlimit:4;stroke-dasharray:none;stroke-opacity:1" />
      <path
         id="path18108"
         d="m 331.68699,250.07545 3.69292,0.43084 -3.38518,-1.90801 3.87757,0.1231 -3.56982,-1.72336 4.06221,-0.2462 -3.44673,-1.47716 3.87757,-0.2462 -3.50827,-1.53871 4.00066,-0.73859 -3.93912,-1.29252"
         style="display:inline;fill:none;fill-rule:evenodd;stroke:#000000;stroke-width:0.17233619px;stroke-linecap:butt;stroke-linejoin:miter;stroke-opacity:1"
         inkscape:connector-curvature="0" />
      <path
         id="path18110"
         d="m 337.41101,242.13567 c 0,-0.0205 0,-0.041 0,0 z"
         style="display:inline;fill:none;fill-rule:evenodd;stroke:#000000;stroke-width:0.17233619px;stroke-linecap:butt;stroke-linejoin:miter;stroke-opacity:1"
         inkscape:connector-curvature="0" />
      <path
         sodipodi:nodetypes="csc"
         id="path22144"
         d="m 330.98747,222.11206 c 0,0 -12.51137,3.37357 -3.80968,13.47273 8.7017,10.09916 4.43191,7.53344 4.43191,7.53344"
         style="display:inline;fill:none;fill-rule:evenodd;stroke:#000000;stroke-width:0.25850427;stroke-linecap:butt;stroke-linejoin:miter;stroke-miterlimit:4;stroke-dasharray:none;stroke-opacity:1"
         inkscape:connector-curvature="0" />
      <path
         id="path18114"
         d="m 337.41101,241.95103 -4.1853,0.73858 3.56982,1.66182 -3.87757,0.18464 3.63137,1.29252 -3.93911,0.43084 3.63137,1.60027 -3.87756,-0.0616 3.44672,2.03111 -3.93911,-0.43084 3.44672,1.47716"
         style="display:inline;fill:none;fill-rule:evenodd;stroke:#000000;stroke-width:0.17233619px;stroke-linecap:butt;stroke-linejoin:miter;stroke-opacity:1"
         inkscape:connector-curvature="0" />
      <path
         sodipodi:nodetypes="ccccc"
         id="path18118"
         d="m 374.591,224.43524 19.32297,-0.56901 0.66631,-3.0347 -20.20965,2.93491 z"
         style="display:inline;fill:#000000;fill-opacity:1;fill-rule:evenodd;stroke:#000000;stroke-width:0.14230934px;stroke-linecap:butt;stroke-linejoin:miter;stroke-opacity:1"
         inkscape:connector-curvature="0" />
      <circle
         id="path20092"
         style="display:inline;opacity:1;fill:#666666;fill-opacity:1;stroke:#000000;stroke-width:0.41808763;stroke-miterlimit:4;stroke-dasharray:none;stroke-opacity:1"
         cx="373.47852"
         cy="259.12311"
         r="0.52316344" />
      <path
         id="path20073"
         d="m 376.51511,277.70952 8.77792,0.36961"
         style="display:inline;fill:none;fill-rule:evenodd;stroke:#000000;stroke-width:0.37913969;stroke-linecap:butt;stroke-linejoin:miter;stroke-miterlimit:4;stroke-opacity:1"
         inkscape:connector-curvature="0" />
      <rect
         transform="rotate(-10.736823)"
         ry="1.8003651"
         rx="0.89199257"
         y="335.96335"
         x="318.01065"
         height="14.27504"
         width="2.4372017"
         id="rect20080"
         style="display:inline;opacity:1;fill:#666666;fill-opacity:1;stroke:#000000;stroke-width:0.4180876;stroke-miterlimit:4;stroke-dasharray:none;stroke-opacity:1" />
      <circle
         id="path20084"
         style="display:inline;opacity:1;fill:#666666;fill-opacity:1;stroke:#000000;stroke-width:0.41808763;stroke-miterlimit:4;stroke-dasharray:none;stroke-opacity:1"
         cx="376.46362"
         cy="271.95599"
         r="0.52316344" />
      <rect
         ry="1.7849104"
         rx="0.89199257"
         y="283.31171"
         x="376.86368"
         height="1.7849104"
         width="3.8775642"
         id="rect20086"
         style="display:inline;opacity:1;fill:#666666;fill-opacity:1;stroke:#000000;stroke-width:0.4180876;stroke-miterlimit:4;stroke-dasharray:none;stroke-opacity:1" />
      <circle
         id="path20088"
         style="display:inline;opacity:1;fill:#666666;fill-opacity:1;stroke:#000000;stroke-width:0.41808763;stroke-miterlimit:4;stroke-dasharray:none;stroke-opacity:1"
         cx="378.7717"
         cy="284.23495"
         r="0.52316344" />
      <path
         id="path20182"
         d="m 387.79217,266.46216 16.87574,0.51919"
         style="display:inline;fill:none;fill-rule:evenodd;stroke:#000000;stroke-width:0.37913957;stroke-linecap:butt;stroke-linejoin:miter;stroke-miterlimit:4;stroke-dasharray:none;stroke-opacity:1"
         inkscape:connector-curvature="0" />
      <circle
         inkscape:transform-center-y="-6.9496489"
         inkscape:transform-center-x="15.752576"
         id="path20184"
         style="display:inline;opacity:1;fill:#666666;fill-opacity:1;stroke:#000000;stroke-width:0.41808763;stroke-miterlimit:4;stroke-dasharray:none;stroke-opacity:1"
         cx="407.89468"
         cy="268.99268"
         r="0.52316344" />
      <circle
         id="path20186"
         style="display:inline;opacity:1;fill:#666666;fill-opacity:1;stroke:#000000;stroke-width:0.41808763;stroke-miterlimit:4;stroke-dasharray:none;stroke-opacity:1"
         cx="329.57028"
         cy="270.26773"
         r="0.52316344" />
      <rect
         y="269.72125"
         x="329.61581"
         height="1.0018237"
         width="4.6903563"
         id="rect20188"
         style="display:inline;opacity:1;fill:#ffffff;fill-opacity:1;stroke:#000000;stroke-width:0.4180876;stroke-miterlimit:4;stroke-dasharray:none;stroke-opacity:1" />
      <rect
         y="268.26404"
         x="407.59869"
         height="1.0018237"
         width="4.6903563"
         id="rect21159"
         style="display:inline;opacity:1;fill:#ffffff;fill-opacity:1;stroke:#000000;stroke-width:0.4180876;stroke-miterlimit:4;stroke-dasharray:none;stroke-opacity:1" />
      <rect
         transform="rotate(11.863553)"
         ry="0.45079765"
         rx="0.45079765"
         y="169.17195"
         x="373.8537"
         height="9.1447554"
         width="0.90159529"
         id="rect21163"
         style="display:inline;opacity:1;fill:#000000;fill-opacity:1;stroke:#000000;stroke-width:0.4180876;stroke-miterlimit:4;stroke-dasharray:none;stroke-opacity:1" />
      <rect
         inkscape:transform-center-x="50.77967"
         inkscape:transform-center-y="-79.937002"
         ry="0.45079765"
         rx="0.45079765"
         y="249.75244"
         x="328.3367"
         height="0.96599489"
         width="2.7691858"
         id="rect22134"
         style="display:inline;opacity:1;fill:#000000;fill-opacity:1;stroke:#000000;stroke-width:0.4180876;stroke-miterlimit:4;stroke-dasharray:none;stroke-opacity:1" />
      <rect
         ry="0.45079765"
         rx="2.4343071"
         y="244.40727"
         x="330.91269"
         height="0.45079765"
         width="1.7387909"
         id="rect22136"
         style="display:inline;opacity:1;fill:#000000;fill-opacity:1;stroke:#000000;stroke-width:0.4180876;stroke-miterlimit:4;stroke-dasharray:none;stroke-opacity:1" />
      <rect
         transform="matrix(-0.73533746,0.67770112,0.67770112,0.73533746,0,0)"
         ry="0.45079747"
         rx="0.45079747"
         y="446.0405"
         x="-121.40097"
         height="9.1447535"
         width="0.90159494"
         id="rect22148"
         style="display:inline;opacity:1;fill:#000000;fill-opacity:1;stroke:#000000;stroke-width:0.41808748;stroke-miterlimit:4;stroke-dasharray:none;stroke-opacity:1" />
      <rect
         transform="matrix(-0.85895356,0.5120535,0.5120535,0.85895356,0,0)"
         inkscape:transform-center-x="-2.6854054"
         inkscape:transform-center-y="-94.664068"
         ry="0.45079765"
         rx="0.45079765"
         y="418.89185"
         x="-213.25844"
         height="0.96599501"
         width="2.769186"
         id="rect22150"
         style="display:inline;opacity:1;fill:#000000;fill-opacity:1;stroke:#000000;stroke-width:0.4180876;stroke-miterlimit:4;stroke-dasharray:none;stroke-opacity:1" />
      <rect
         transform="matrix(-0.89537073,0.44532152,0.58136983,0.81363943,0,0)"
         ry="0.39704934"
         rx="2.3352976"
         y="401.42514"
         x="-177.96872"
         height="0.39704934"
         width="1.6680695"
         id="rect22152"
         style="display:inline;opacity:1;fill:#000000;fill-opacity:1;stroke:#000000;stroke-width:0.42074555;stroke-miterlimit:4;stroke-dasharray:none;stroke-opacity:1" />
      <path
         id="path23134"
         d="m 389.76419,278.2255 21.14266,0.6272"
         style="display:inline;fill:none;fill-rule:evenodd;stroke:#000000;stroke-width:0.37913969;stroke-linecap:butt;stroke-linejoin:miter;stroke-miterlimit:4;stroke-opacity:1"
         inkscape:connector-curvature="0" />
      <path
         id="path23138"
         d="m 411.29224,276.36147 -3.33843,-0.87428"
         style="display:inline;fill:none;fill-rule:evenodd;stroke:#000000;stroke-width:0.37913963;stroke-linecap:butt;stroke-linejoin:miter;stroke-miterlimit:4;stroke-opacity:1"
         inkscape:connector-curvature="0" />
      <path
         id="path23142"
         d="m 410.42907,270.70972 -3.20169,2.98811"
         style="display:inline;fill:none;fill-rule:evenodd;stroke:#000000;stroke-width:0.37913963;stroke-linecap:butt;stroke-linejoin:miter;stroke-miterlimit:4;stroke-opacity:1"
         inkscape:connector-curvature="0" />
      <path
         id="path23146"
         d="m 410.77145,276.6305 -3.61331,-2.79842"
         style="display:inline;fill:none;fill-rule:evenodd;stroke:#000000;stroke-width:0.37913963;stroke-linecap:butt;stroke-linejoin:miter;stroke-miterlimit:4;stroke-opacity:1"
         inkscape:connector-curvature="0" />
      <circle
         id="path23130"
         style="opacity:1;fill:#000000;fill-opacity:1;stroke:#000000;stroke-width:0.25850427;stroke-miterlimit:4;stroke-dasharray:none;stroke-opacity:1"
         cx="410.76828"
         cy="277.63751"
         r="1.4167928" />
      <circle
         id="path23132"
         style="opacity:1;fill:#000000;fill-opacity:1;stroke:#000000;stroke-width:0.25850427;stroke-miterlimit:4;stroke-dasharray:none;stroke-opacity:1"
         cx="408.44989"
         cy="274.28873"
         r="1.4167928" />
    </g>
  </g>
</svg>
