<?xml version="1.0" encoding="UTF-8" standalone="no"?>
<!-- Generator: Adobe Illustrator 10.0, SVG Export Plug-In . SVG Version: 3.0.0 Build 77)  -->

<svg
   xmlns:i="http://ns.adobe.com/AdobeIllustrator/10.0/"
   xmlns:dc="http://purl.org/dc/elements/1.1/"
   xmlns:cc="http://creativecommons.org/ns#"
   xmlns:rdf="http://www.w3.org/1999/02/22-rdf-syntax-ns#"
   xmlns:svg="http://www.w3.org/2000/svg"
   xmlns="http://www.w3.org/2000/svg"
   xmlns:sodipodi="http://sodipodi.sourceforge.net/DTD/sodipodi-0.dtd"
   xmlns:inkscape="http://www.inkscape.org/namespaces/inkscape"
   enable-background="new 0 0 403.329 319.664"
   height="101.457"
   i:pageBounds="0 792 612 0"
   i:rulerOrigin="0 0"
   i:viewOrigin="104 556"
   overflow="visible"
   space="preserve"
   viewBox="0 0 128.00059 101.457"
   width="128.0006"
   version="1.1"
   id="svg55"
   sodipodi:docname="hat.svg"
   inkscape:version="0.92.2 (5c3e80d, 2017-08-06)"
   style="overflow:visible">
  <title
     id="title840">Baseball Cap</title>
  <defs
     id="defs59" />
  <sodipodi:namedview
     pagecolor="#ffffff"
     bordercolor="#666666"
     borderopacity="1"
     objecttolerance="10"
     gridtolerance="10"
     guidetolerance="10"
     inkscape:pageopacity="0"
     inkscape:pageshadow="2"
     inkscape:window-width="1920"
     inkscape:window-height="1025"
     id="namedview57"
     showgrid="false"
     inkscape:zoom="2.0881576"
     inkscape:cx="-57.351915"
     inkscape:cy="3.9134318"
     inkscape:window-x="-8"
     inkscape:window-y="-8"
     inkscape:window-maximized="1"
     inkscape:current-layer="svg55"
     fit-margin-top="0"
     fit-margin-left="0"
     fit-margin-right="0"
     fit-margin-bottom="0" />
  <metadata
     id="metadata2">
    <rdf:RDF>
      <cc:Work
         rdf:about="">
        <dc:title>Baseball Cap</dc:title>
        <dc:description>Baseball Cap</dc:description>
        <dc:subject>
          <rdf:Bag>
            <rdf:li>sports</rdf:li>
            <rdf:li>clothing</rdf:li>
            <rdf:li>baseball</rdf:li>
          </rdf:Bag>
        </dc:subject>
        <dc:publisher>
          <cc:Agent
             rdf:about="http://www.openclipart.org/">
            <dc:title>Open Clip Art Project</dc:title>
          </cc:Agent>
        </dc:publisher>
        <dc:creator>
          <cc:Agent
             rdf:about="http://web.resource.org/cc/PublicDomain">
            <dc:title>Gerald G.</dc:title>
          </cc:Agent>
        </dc:creator>
        <dc:rights>
          <cc:Agent
             rdf:about="http://web.resource.org/cc/PublicDomain">
            <dc:title>Public Domain</dc:title>
          </cc:Agent>
        </dc:rights>
        <dc:date>2005/05/05</dc:date>
        <dc:format>image/svg+xml</dc:format>
        <dc:type
           rdf:resource="http://purl.org/dc/dcmitype/StillImage" />
        <cc:license
           rdf:resource="http://creativecommons.org/publicdomain/zero/1.0/" />
        <dc:language>en</dc:language>
      </cc:Work>
      <cc:License
         rdf:about="http://creativecommons.org/publicdomain/zero/1.0/">
        <cc:permits
           rdf:resource="http://creativecommons.org/ns#Reproduction" />
        <cc:permits
           rdf:resource="http://creativecommons.org/ns#Distribution" />
        <cc:permits
           rdf:resource="http://creativecommons.org/ns#DerivativeWorks" />
      </cc:License>
    </rdf:RDF>
  </metadata>
  <g
     i:dimmedPercent="50"
     i:layer="yes"
     i:rgbTrio="#4F008000FFFF"
     id="Layer_1"
     transform="matrix(0.31725393,0,0,0.31725393,0.04214559,0.02932884)">
    <path
       d="m 262.102,6.763 c 0,0 0.972,-4.608 3.384,-5.688 2.412,-1.116 7.416,-1.44 10.944,-0.937 3.563,0.504 8.567,2.34 10.116,3.96 1.548,1.584 0.468,4.356 -0.9,5.616 -1.368,1.224 -3.24,2.196 -7.2,1.692 -3.997,-0.503 -16.344,-4.643 -16.344,-4.643 z"
       i:knockout="Off"
       id="path4"
       inkscape:connector-curvature="0"
       style="clip-rule:evenodd;fill:#259b5e;fill-rule:evenodd" />
    <path
       d="m 264.766,2.515 -1.944,3.528 c 1.836,0.972 4.14,1.764 7.2,2.664 2.988,0.792 8.172,2.34 10.836,2.304 2.448,-0.18 4.824,-2.304 4.356,-2.916 -0.54,-0.576 -5.005,-0.828 -7.561,-1.044 -2.736,-0.324 -6.156,-0.648 -8.316,-1.26 C 267.142,5 265.665,3.956 264.766,2.515 Z"
       i:knockout="Off"
       id="path6"
       inkscape:connector-curvature="0"
       style="clip-rule:evenodd;fill:#215b4d;fill-rule:evenodd" />
    <path
       d="m 96.573,160.231 c -22.248,21.384 -40.788,38.735 -56.592,53.173 -15.912,14.326 -31.5,24.875 -37.44,32.326 -5.904,7.346 -0.648,8.137 2.556,11.521 3.132,3.203 8.064,3.996 16.596,8.063 8.532,4.033 22.464,10.441 34.452,16.164 11.844,5.689 20.844,12.025 36.576,17.893 15.732,5.869 38.952,13.572 57.024,16.992 17.856,3.275 32.04,4.176 49.788,2.557 17.748,-1.801 38.269,-3.277 55.729,-12.744 17.279,-9.756 31.644,-25.344 47.664,-44.244 16.02,-18.936 31.571,-41.256 47.628,-68.076 C 265.917,182.66 181.246,171.463 96.573,160.231 Z"
       i:knockout="Off"
       id="path8"
       inkscape:connector-curvature="0"
       style="clip-rule:evenodd;fill:#259b5e;fill-rule:evenodd" />
    <path
       d="m 109.317,221.072 c 15.264,3.996 28.8,6.406 41.292,7.234 12.348,0.793 21.78,-0.107 32.76,-2.555 10.908,-2.521 21.492,-6.588 32.328,-12.348 -7.775,6.623 -16.956,11.447 -28.08,14.471 -11.232,2.953 -25.164,4.465 -38.304,3.42 -13.176,-1.222 -26.315,-4.499 -39.996,-10.222 z"
       i:knockout="Off"
       id="path10"
       inkscape:connector-curvature="0"
       style="clip-rule:evenodd;fill:#5ebb84;fill-rule:evenodd" />
    <path
       d="m 113.169,232.555 c 10.044,3.277 21.06,5.4 33.588,6.373 12.636,0.9 27.504,2.016 40.86,-0.828 13.176,-2.953 25.38,-8.389 37.44,-16.596 -13.104,6.912 -26.388,11.592 -40.428,14.039 -14.22,2.268 -31.32,0.973 -43.38,0.432 -12.023,-0.577 -21.24,-1.584 -28.08,-3.42 z"
       i:knockout="Off"
       id="path12"
       inkscape:connector-curvature="0"
       style="clip-rule:evenodd;fill:#5ebb84;fill-rule:evenodd" />
    <path
       d="m 80.841,232.555 c 7.596,3.924 17.568,7.236 30.6,10.225 12.924,2.881 30.42,7.236 46.8,7.236 16.308,-0.145 34.812,-2.232 50.652,-7.668 15.804,-5.58 29.988,-13.717 43.38,-25.092 -15.228,9.504 -28.8,16.416 -41.688,21.275 -12.959,4.645 -22.644,5.977 -34.884,7.199 -12.348,1.152 -22.428,2.125 -38.304,0 -15.948,-2.302 -34.523,-6.55 -56.556,-13.175 z"
       i:knockout="Off"
       id="path14"
       inkscape:connector-curvature="0"
       style="clip-rule:evenodd;fill:#5ebb84;fill-rule:evenodd" />
    <path
       d="m 86.781,245.336 c 7.56,3.924 17.64,7.271 30.636,10.188 12.924,2.881 30.42,7.236 46.8,7.236 16.38,-0.18 34.74,-2.125 50.616,-7.633 15.805,-5.543 29.952,-13.787 43.416,-25.127 -15.228,9.504 -28.8,16.416 -41.688,21.275 -12.888,4.717 -22.716,5.977 -34.92,7.236 -12.384,1.152 -22.356,2.123 -38.268,0 -15.983,-2.304 -34.523,-6.552 -56.592,-13.175 z"
       i:knockout="Off"
       id="path16"
       inkscape:connector-curvature="0"
       style="clip-rule:evenodd;fill:#5ebb84;fill-rule:evenodd" />
    <path
       d="m 81.237,251.707 c 11.268,5.652 23.616,10.008 37.872,13.607 14.292,3.422 30.312,7.273 46.8,7.236 16.308,-0.143 32.112,-0.432 50.616,-7.668 18.504,-7.379 38.088,-19.008 59.58,-35.711 -14.94,10.439 -28.656,18.611 -42.12,25.092 -13.464,6.371 -23.04,10.764 -37.872,13.176 -15.048,2.305 -31.788,3.42 -51.048,0.863 -19.403,-2.698 -40.211,-8.099 -63.828,-16.595 z"
       i:knockout="Off"
       id="path18"
       inkscape:connector-curvature="0"
       style="clip-rule:evenodd;fill:#5ebb84;fill-rule:evenodd" />
    <path
       d="m 69.321,258.08 c 17.208,9.504 33.48,16.416 49.788,21.275 16.056,4.752 30.492,7.164 46.8,7.236 16.272,-0.037 32.22,-0.504 50.616,-7.668 18.396,-7.381 37.836,-19.297 59.148,-36.145 -15.732,11.34 -30.816,20.088 -46.368,26.783 -15.48,6.66 -29.304,11.053 -45.936,12.781 -16.812,1.477 -34.452,0.611 -53.604,-3.42 -19.26,-4.174 -38.952,-10.943 -60.444,-20.842 z"
       i:knockout="Off"
       id="path20"
       inkscape:connector-curvature="0"
       style="clip-rule:evenodd;fill:#5ebb84;fill-rule:evenodd" />
    <path
       d="m 90.598,167.467 c -11.016,7.236 -51.588,47.557 -65.916,60.84 -14.364,12.996 -16.632,12.744 -19.584,17.029 -2.988,4.176 -2.556,5.471 2.124,8.063 4.752,2.484 16.92,4.43 25.956,7.236 9.036,2.773 24.732,12.602 27.648,9.361 2.628,-3.529 -14.58,-21.781 -11.484,-29.34 3.096,-7.525 24.912,-9.072 29.772,-15.336 4.608,-6.445 -3.456,-15.949 -1.692,-22.537 1.764,-6.588 10.044,-10.691 12.348,-16.596 2.195,-6.048 11.591,-25.667 0.828,-18.72 z"
       i:knockout="Off"
       id="path22"
       inkscape:connector-curvature="0"
       style="clip-rule:evenodd;fill:#215b4d;fill-rule:evenodd" />
    <path
       d="m 88.474,167.898 c 0,0 5.976,4.861 17.46,8.496 11.556,3.674 34.56,9.396 51.048,13.213 16.452,3.744 30.204,6.408 46.8,9.359 16.596,2.916 32.4,5.4 51.912,8.064 19.512,2.629 43.56,6.229 64.224,7.668 20.7,1.404 45.792,2.736 58.717,0.828 12.815,-1.943 13.716,0.107 17.892,-12.313 4.104,-12.635 6.84,-42.587 6.804,-62.135 C 403.224,121.53 400.56,99.714 396.096,87.042 391.56,74.514 381.984,73.146 376.512,66.198 371.112,59.25 371.364,53.058 363.768,45.786 356.064,38.478 342.996,28.974 331.008,22.818 318.947,16.662 305.447,11.91 292.272,9.21 279.132,6.474 268.332,6.726 252.708,6.654 237.013,6.582 215.376,5.79 199.104,8.778 182.868,11.802 166.38,19.434 156.12,24.51 c -10.188,5.076 -12.276,9.324 -17.856,14.472 -5.58,5.148 -10.044,4.968 -15.3,16.164 -5.328,11.268 -10.404,31.68 -16.2,50.616 -5.799,19.009 -18.29,62.136 -18.29,62.136 z"
       i:knockout="Off"
       id="path24"
       inkscape:connector-curvature="0"
       style="clip-rule:evenodd;fill:#f6f4e8;fill-rule:evenodd" />
    <path
       d="m 88.042,168.727 c 2.376,-4.428 5.544,-13.067 9.792,-26.351 4.176,-13.5 11.052,-38.88 15.336,-53.208 4.176,-14.364 6.66,-24.948 9.792,-31.896 3.024,-6.912 5.112,-6.048 8.496,-9.36 3.276,-3.492 6.876,-7.272 11.484,-11.052 4.536,-3.78 7.884,-7.416 15.732,-11.484 7.848,-4.248 21.672,-10.404 31.068,-13.212 9.288,-2.88 14.868,-2.664 24.66,-3.384 9.792,-0.792 31.968,-1.26 33.624,-0.864 1.26,0.324 -17.424,-0.072 -24.66,2.988 -7.128,2.952 -10.872,8.064 -17.892,14.904 -7.2,6.876 -17.64,16.308 -24.66,25.524 -7.056,9.036 -11.16,17.928 -17.028,28.476 -6.012,10.476 -13.176,21.456 -18.288,34.056 -5.148,12.672 -9.216,29.196 -12.348,40.824 -3.204,11.447 -5.472,20.305 -6.804,27.252 -4.14,-0.648 -8.388,-1.512 -13.176,-2.988 -4.86,-1.547 -11.124,-3.816 -15.336,-5.543 -4.249,-1.729 -7.417,-3.241 -9.792,-4.682 z"
       i:knockout="Off"
       id="path26"
       inkscape:connector-curvature="0"
       style="clip-rule:evenodd;fill:#d0cdba;fill-rule:evenodd" />
    <path
       d="m 133.149,183.631 c -0.036,-6.875 1.62,-16.344 5.112,-28.943 3.456,-12.708 10.368,-33.804 15.732,-46.368 5.328,-12.672 11.232,-19.908 16.164,-28.512 4.716,-8.604 6.984,-15.336 12.78,-22.968 5.904,-7.92 14.616,-16.596 22.104,-23.4 7.272,-6.804 12.564,-13.068 21.708,-16.992 9.181,-3.888 29.124,-5.328 32.761,-6.408 3.239,-1.152 -6.66,-1.332 -11.916,-0.828 -5.328,0.36 -13.464,1.476 -18.721,2.952 -5.184,1.332 -7.812,2.664 -11.916,5.544 -4.319,2.88 -8.748,8.244 -12.743,11.916 -3.889,3.564 -7.165,6.084 -10.656,9.792 -3.672,3.528 -6.84,7.164 -10.62,12.312 -3.816,5.148 -6.444,9.216 -11.916,18.72 -5.58,9.54 -15.588,26.1 -20.844,37.872 -5.292,11.664 -7.128,18.828 -10.656,31.5 -3.6,12.6 -7.092,26.784 -10.62,43.38 1.404,0.144 2.807,0.288 4.247,0.431 z"
       i:knockout="Off"
       id="path28"
       inkscape:connector-curvature="0"
       style="clip-rule:evenodd;fill:#bbbda8;fill-rule:evenodd" />
    <path
       d="m 285.466,14.288 c 9.863,7.668 17.892,15.012 24.659,22.572 6.589,7.452 11.557,11.304 15.337,22.104 3.743,10.764 6.947,26.892 7.235,41.724 0.145,14.58 -2.268,26.928 -5.976,45.936 -3.816,19.08 -9.252,41.255 -16.597,67.644 h 4.681 c 2.268,-10.873 4.824,-22.176 7.668,-34.453 2.844,-12.348 7.128,-25.307 9.359,-38.735 2.089,-13.716 3.276,-30.528 3.42,-41.688 0,-11.088 -0.863,-15.336 -2.987,-24.264 -2.196,-9.108 -4.212,-20.376 -9.792,-29.34 -5.76,-9.036 -17.641,-18.504 -23.832,-23.832 -6.192,-5.292 -10.583,-7.849 -13.175,-7.668 z"
       i:knockout="Off"
       id="path30"
       inkscape:connector-curvature="0"
       style="clip-rule:evenodd;fill:#bbbda8;fill-rule:evenodd" />
    <path
       d="m 199.533,41.971 c 4.645,-6.156 8.568,-9.072 12.744,-12.78 4.104,-3.744 5.616,-6.732 11.916,-9.36 6.336,-2.736 18.684,-4.86 25.524,-6.372 6.624,-1.62 9.504,-3.024 14.472,-2.556 4.896,0.432 11.484,4.5 14.904,5.544 3.348,0.936 1.764,-1.98 5.111,0.396 3.24,2.376 10.188,9.792 14.437,13.644 4.14,3.636 7.56,4.572 10.656,8.496 3.023,3.924 11.88,13.14 7.668,14.868 -4.429,1.512 -26.929,-6.156 -33.624,-5.076 -6.696,1.188 -1.692,13.392 -6.372,11.916 -4.86,-1.764 -13.393,-20.664 -22.141,-21.708 -8.855,-0.972 -22.212,9.864 -30.204,15.3 -8.027,5.256 -12.491,14.112 -17.424,16.164 -4.968,1.836 -8.064,-3.888 -11.916,-4.68 -3.888,-0.792 -11.844,3.924 -11.088,0 0.721,-4.103 10.513,-17.676 15.337,-23.796 z"
       i:knockout="Off"
       id="path32"
       inkscape:connector-curvature="0"
       style="clip-rule:evenodd;fill:#d0cdba;fill-rule:evenodd" />
    <path
       d="m 293.962,12.164 c 16.451,5.796 30.168,11.844 42.119,18.288 11.845,6.444 28.009,17.1 28.513,20.016 0.216,2.664 -22.788,-5.652 -26.389,-3.42 -3.6,2.268 6.624,15.444 5.112,17.028 -1.656,1.512 -6.336,-1.224 -14.472,-8.064 -1.08,-4.716 -3.204,-9.396 -6.372,-14.04 -3.313,-4.824 -8.028,-9.648 -12.744,-14.04 -4.824,-4.464 -12.672,-9.216 -15.336,-11.916 -2.664,-2.701 -2.808,-3.889 -0.431,-3.852 z"
       i:knockout="Off"
       id="path34"
       inkscape:connector-curvature="0"
       style="clip-rule:evenodd;fill:#d0cdba;fill-rule:evenodd" />
    <path
       d="m 247.737,53.312 c -0.9,0.72 -1.152,1.224 -0.9,2.34 0.181,1.116 0.576,3.636 2.593,4.5 1.943,0.756 7.02,0.828 9.252,0.36 2.195,-0.612 3.708,-1.872 3.708,-3.24 -0.145,-1.404 -2.34,-3.744 -4.068,-4.788 -1.872,-1.188 -4.68,-1.8 -6.479,-1.692 -1.873,0.071 -3.241,1.655 -4.106,2.52 z"
       i:knockout="Off"
       id="path36"
       inkscape:connector-curvature="0"
       style="clip-rule:evenodd;fill:#215b4d;fill-rule:evenodd" />
    <path
       d="m 249.394,53.491 c -0.756,0.54 -1.152,0.864 -1.188,1.656 -0.107,0.648 0.324,1.764 0.756,2.52 0.253,0.648 0.324,1.26 1.332,1.692 0.937,0.36 2.772,0.72 4.536,0.792 1.729,-0.072 4.141,-0.252 5.437,-0.828 1.08,-0.648 2.088,-1.692 1.368,-2.736 -0.864,-1.152 -4.5,-3.24 -6.049,-3.924 -1.584,-0.72 -2.447,-0.936 -3.42,-0.648 -1.225,0.145 -2.017,0.864 -2.772,1.476 z"
       i:knockout="Off"
       id="path38"
       inkscape:connector-curvature="0"
       style="clip-rule:evenodd;fill:#259b5e;fill-rule:evenodd" />
    <path
       d="m 251.949,55.219 c -0.359,0.36 0.108,1.368 0.576,1.764 0.36,0.252 1.044,0.36 1.764,0.324 0.576,-0.036 2.017,-0.324 2.088,-0.72 -0.071,-0.468 -1.044,-1.584 -1.8,-1.8 -0.828,-0.216 -2.304,-0.072 -2.628,0.432 z"
       i:knockout="Off"
       id="path40"
       inkscape:connector-curvature="0"
       style="clip-rule:evenodd;fill:#bbbda8;fill-rule:evenodd" />
    <path
       d="m 161.733,34.987 c -1.008,0.324 -1.548,0.756 -2.304,1.872 -0.864,1.152 -2.916,3.492 -2.808,4.932 0.072,1.332 1.728,3.06 3.024,3.384 1.116,0.18 2.88,-0.432 4.032,-1.692 1.116,-1.404 2.16,-4.104 2.556,-5.724 0.144,-1.584 -0.216,-3.276 -0.936,-3.672 -0.9,-0.576 -2.556,0.468 -3.564,0.9 z"
       i:knockout="Off"
       id="path42"
       inkscape:connector-curvature="0"
       style="clip-rule:evenodd;fill:#215b4d;fill-rule:evenodd" />
    <path
       d="m 162.166,35.744 c -0.72,0.108 -1.224,0.468 -1.8,1.08 -0.756,0.612 -1.368,1.692 -1.836,2.556 -0.54,0.756 -0.9,1.188 -0.936,1.98 -0.036,0.72 0.288,1.548 0.972,2.196 0.54,0.504 1.692,1.188 2.628,1.08 0.9,-0.18 2.016,-0.864 2.808,-2.052 0.612,-1.368 0.972,-4.32 1.08,-5.544 -0.036,-1.296 -0.216,-1.548 -0.684,-1.728 -0.613,-0.325 -1.548,0.144 -2.232,0.432 z"
       i:knockout="Off"
       id="path44"
       inkscape:connector-curvature="0"
       style="clip-rule:evenodd;fill:#259b5e;fill-rule:evenodd" />
    <path
       d="m 161.662,38.155 c -0.468,0.252 -1.224,1.224 -1.296,1.8 -0.288,0.432 0.108,0.72 0.36,0.864 0.288,0.108 0.936,0.396 1.368,0.036 0.324,-0.432 0.936,-1.764 0.864,-2.196 -0.145,-0.504 -0.9,-0.72 -1.296,-0.504 z"
       i:knockout="Off"
       id="path46"
       inkscape:connector-curvature="0"
       style="clip-rule:evenodd;fill:#bbbda8;fill-rule:evenodd" />
    <path
       d="m 361.533,73.615 c 0.108,0.972 0.181,1.62 1.044,2.772 0.828,1.152 2.376,3.708 3.816,4.212 1.439,0.36 3.348,-0.792 4.176,-1.8 0.576,-1.116 0.504,-2.952 -0.36,-4.392 -0.936,-1.512 -3.275,-3.456 -4.644,-4.176 -1.44,-0.756 -3.204,-0.9 -3.78,-0.288 -0.647,0.612 -0.504,2.484 -0.252,3.672 z"
       i:knockout="Off"
       id="path48"
       inkscape:connector-curvature="0"
       style="clip-rule:evenodd;fill:#215b4d;fill-rule:evenodd" />
    <path
       d="m 362.361,73.471 c 0,0.648 0.036,1.224 0.504,2.016 0.324,0.684 1.26,1.908 1.836,2.556 0.396,0.576 0.973,1.26 1.584,1.512 0.685,0.18 1.584,0.144 2.412,-0.252 0.685,-0.432 1.62,-1.296 1.836,-2.16 0.145,-1.008 -0.216,-2.34 -1.08,-3.312 -1.116,-1.08 -3.779,-2.268 -4.932,-2.736 -1.188,-0.54 -1.584,-0.324 -1.872,0.108 -0.396,0.288 -0.36,1.548 -0.288,2.268 z"
       i:knockout="Off"
       id="path50"
       inkscape:connector-curvature="0"
       style="clip-rule:evenodd;fill:#259b5e;fill-rule:evenodd" />
    <path
       d="m 364.485,74.695 c 0.036,0.396 0.937,1.44 1.332,1.764 0.36,0.288 0.72,0.036 0.936,-0.072 0.181,-0.36 0.612,-0.792 0.469,-1.296 -0.324,-0.576 -1.404,-1.44 -1.836,-1.476 -0.469,-0.035 -1.044,0.468 -0.901,1.08 z"
       i:knockout="Off"
       id="path52"
       inkscape:connector-curvature="0"
       style="clip-rule:evenodd;fill:#bbbda8;fill-rule:evenodd" />
  </g>
</svg>
