<?xml version="1.0" encoding="UTF-8" standalone="no"?>
<!-- Generator: Adobe Illustrator 10.0, SVG Export Plug-In . SVG Version: 3.0.0 Build 77)  -->

<svg
   xmlns:i="http://ns.adobe.com/AdobeIllustrator/10.0/"
   xmlns:dc="http://purl.org/dc/elements/1.1/"
   xmlns:cc="http://creativecommons.org/ns#"
   xmlns:rdf="http://www.w3.org/1999/02/22-rdf-syntax-ns#"
   xmlns:svg="http://www.w3.org/2000/svg"
   xmlns="http://www.w3.org/2000/svg"
   xmlns:sodipodi="http://sodipodi.sourceforge.net/DTD/sodipodi-0.dtd"
   xmlns:inkscape="http://www.inkscape.org/namespaces/inkscape"
   enable-background="new 0 0 403.329 319.664"
   height="101.457"
   i:pageBounds="0 792 612 0"
   i:rulerOrigin="0 0"
   i:viewOrigin="104 556"
   overflow="visible"
   space="preserve"
   viewBox="0 0 128.00059 101.457"
   width="128.0006"
   version="1.1"
   id="svg55"
   sodipodi:docname="hat.svg"
   inkscape:version="0.92.2 (5c3e80d, 2017-08-06)"
   style="overflow:visible">
  <title
     id="title840">Baseball Cap</title>
  <defs
     id="defs59" />
  <sodipodi:namedview
     pagecolor="#ffffff"
     bordercolor="#666666"
     borderopacity="1"
     objecttolerance="10"
     gridtolerance="10"
     guidetolerance="10"
     inkscape:pageopacity="0"
     inkscape:pageshadow="2"
     inkscape:window-width="1920"
     inkscape:window-height="1025"
     id="namedview57"
     showgrid="false"
     inkscape:zoom="4.1763152"
     inkscape:cx="120.18413"
     inkscape:cy="33.198915"
     inkscape:window-x="-8"
     inkscape:window-y="-8"
     inkscape:window-maximized="1"
     inkscape:current-layer="svg55"
     fit-margin-top="0"
     fit-margin-left="0"
     fit-margin-right="0"
     fit-margin-bottom="0" />
  <metadata
     id="metadata2">
    <rdf:RDF>
      <cc:Work
         rdf:about="">
        <dc:title>Baseball Cap</dc:title>
        <dc:description>Baseball Cap</dc:description>
        <dc:subject>
          <rdf:Bag>
            <rdf:li>sports</rdf:li>
            <rdf:li>clothing</rdf:li>
            <rdf:li>baseball</rdf:li>
          </rdf:Bag>
        </dc:subject>
        <dc:publisher>
          <cc:Agent
             rdf:about="http://www.openclipart.org/">
            <dc:title>Open Clip Art Project</dc:title>
          </cc:Agent>
        </dc:publisher>
        <dc:creator>
          <cc:Agent
             rdf:about="http://web.resource.org/cc/PublicDomain">
            <dc:title>Gerald G.</dc:title>
          </cc:Agent>
        </dc:creator>
        <dc:rights>
          <cc:Agent
             rdf:about="http://web.resource.org/cc/PublicDomain">
            <dc:title>Public Domain</dc:title>
          </cc:Agent>
        </dc:rights>
        <dc:date>2005/05/05</dc:date>
        <dc:format>image/svg+xml</dc:format>
        <dc:type
           rdf:resource="http://purl.org/dc/dcmitype/StillImage" />
        <cc:license
           rdf:resource="http://creativecommons.org/publicdomain/zero/1.0/" />
        <dc:language>en</dc:language>
      </cc:Work>
      <cc:License
         rdf:about="http://creativecommons.org/publicdomain/zero/1.0/">
        <cc:permits
           rdf:resource="http://creativecommons.org/ns#Reproduction" />
        <cc:permits
           rdf:resource="http://creativecommons.org/ns#Distribution" />
        <cc:permits
           rdf:resource="http://creativecommons.org/ns#DerivativeWorks" />
      </cc:License>
    </rdf:RDF>
  </metadata>
  <g
     id="g888">
    <path
       d="m 83.195035,2.1749172 c 0,0 0.308371,-1.46190614 1.073587,-1.80454039 0.765217,-0.35405538 2.352756,-0.45684565 3.472027,-0.29726693 1.130376,0.15989598 2.717915,0.7423742 3.209341,1.25632552 0.491109,0.5025303 0.148475,1.3819582 -0.285528,1.7816981 -0.434004,0.3883188 -1.027903,0.6966896 -2.284229,0.5367937 -1.268064,-0.1595788 -5.185198,-1.47301 -5.185198,-1.47301 z"
       i:knockout="Off"
       id="path4"
       inkscape:connector-curvature="0"
       style="clip-rule:evenodd;fill:#259b5e;fill-rule:evenodd;stroke-width:0.31725392" />
    <path
       d="M 84.0402,0.82722247 83.423458,1.9464943 c 0.582478,0.3083709 1.313431,0.559636 2.284228,0.8451645 0.947955,0.2512651 2.592599,0.7423742 3.437764,0.7309531 0.776637,-0.057106 1.530433,-0.7309531 1.381958,-0.9251125 C 90.356091,2.4147611 88.939552,2.3348131 88.128651,2.2662863 87.260644,2.163496 86.175636,2.0607058 85.490367,1.8665463 84.793995,1.6155985 84.325411,1.2843854 84.0402,0.82722247 Z"
       i:knockout="Off"
       id="path6"
       inkscape:connector-curvature="0"
       style="clip-rule:evenodd;fill:#215b4d;fill-rule:evenodd;stroke-width:0.31725392" />
    <path
       d="M 30.680309,50.863243 C 23.622044,57.647401 17.740156,63.152074 12.726275,67.732587 7.6781304,72.277566 2.7327762,75.624278 0.84828783,77.988137 -1.0247794,80.318684 0.64270728,80.569632 1.6591889,81.64322 c 0.9936393,1.016164 2.5583357,1.267746 5.2651462,2.558018 2.7068105,1.279485 7.1267919,3.312448 10.9300319,5.128093 3.757556,1.804857 6.612841,3.814978 11.60388,5.676624 4.991039,1.861963 12.357675,4.30577 18.091088,5.390775 5.664887,1.03901 10.164816,1.32486 15.795439,0.81122 5.630623,-0.57137 12.140991,-1.03964 17.680244,-4.043082 5.481831,-3.095129 10.039184,-8.040483 15.121592,-14.036583 5.08241,-6.00752 10.01602,-13.088628 15.11017,-21.597378 C 84.405359,57.978932 57.543151,54.426639 30.680309,50.863243 Z"
       i:knockout="Off"
       id="path8"
       inkscape:connector-curvature="0"
       style="clip-rule:evenodd;fill:#259b5e;fill-rule:evenodd;stroke-width:0.31725392" />
    <path
       d="m 34.723393,70.16529 c 4.842564,1.267746 9.136914,2.032328 13.10005,2.295015 3.917451,0.251582 6.90979,-0.03395 10.393238,-0.810584 3.460606,-0.799797 6.818422,-2.090069 10.256186,-3.917452 -2.46665,2.101173 -5.379358,3.631606 -8.908491,4.590982 -3.563396,0.936851 -7.983378,1.416539 -12.152094,1.085008 -4.180138,-0.387684 -8.348538,-1.427325 -12.688889,-3.242969 z"
       i:knockout="Off"
       id="path10"
       inkscape:connector-curvature="0"
       style="clip-rule:evenodd;fill:#5ebb84;fill-rule:evenodd;stroke-width:0.31725392" />
    <path
       d="m 35.945456,73.808317 c 3.186498,1.039641 6.681367,1.713171 10.655925,2.021859 4.00882,0.285528 8.725752,0.639584 12.962995,-0.262686 4.180138,-0.936851 8.051905,-2.661444 11.877987,-5.265147 -4.157295,2.19286 -8.371696,3.677608 -12.825942,4.453928 -4.51135,0.719532 -9.936393,0.308688 -13.762475,0.137054 -3.814344,-0.183056 -6.738474,-0.50253 -8.90849,-1.085008 z"
       i:knockout="Off"
       id="path12"
       inkscape:connector-curvature="0"
       style="clip-rule:evenodd;fill:#5ebb84;fill-rule:evenodd;stroke-width:0.31725392" />
    <path
       d="m 25.689271,73.808317 c 2.40986,1.244904 5.573517,2.295649 9.70797,3.243921 4.10019,0.914009 9.650864,2.295649 14.847484,2.295649 5.173777,-0.046 11.044244,-0.70811 16.069546,-2.432703 5.013881,-1.770277 9.513811,-4.351772 13.762475,-7.960535 -4.831143,3.015181 -9.136913,5.20804 -13.225682,6.749577 -4.111293,1.473645 -7.183898,1.896227 -11.067086,2.283911 -3.917451,0.365477 -7.115371,0.674165 -12.152094,0 -5.059566,-0.730318 -10.952558,-2.078013 -17.942613,-4.17982 z"
       i:knockout="Off"
       id="path14"
       inkscape:connector-curvature="0"
       style="clip-rule:evenodd;fill:#5ebb84;fill-rule:evenodd;stroke-width:0.31725392" />
    <path
       d="m 27.573759,77.863139 c 2.39844,1.244904 5.596359,2.306753 9.719391,3.232183 4.10019,0.914009 9.650865,2.295649 14.847484,2.295649 5.19662,-0.0571 11.021402,-0.674164 16.058125,-2.421599 5.014198,-1.758538 9.50239,-4.37398 13.773897,-7.971639 -4.831143,3.015181 -9.136913,5.20804 -13.225682,6.749577 -4.088769,1.496487 -7.20674,1.896227 -11.078507,2.29565 -3.928873,0.365476 -7.092529,0.67353 -12.140674,0 -5.070669,-0.730954 -10.952557,-2.078648 -17.954034,-4.179821 z"
       i:knockout="Off"
       id="path16"
       inkscape:connector-curvature="0"
       style="clip-rule:evenodd;fill:#5ebb84;fill-rule:evenodd;stroke-width:0.31725392" />
    <path
       d="m 25.814903,79.884364 c 3.574817,1.793119 7.492269,3.175077 12.015041,4.316874 4.534193,1.085643 9.616601,2.307388 14.847484,2.295649 5.173777,-0.04537 10.187658,-0.137053 16.058125,-2.432703 5.870467,-2.341016 12.083567,-6.030362 18.901989,-11.329455 -4.739774,3.311814 -9.091229,5.904413 -13.362736,7.960536 -4.271507,2.021225 -7.30953,3.414921 -12.01504,4.180138 -4.774038,0.73127 -10.084868,1.085008 -16.195179,0.27379 -6.155678,-0.855951 -12.757098,-2.56944 -20.249684,-5.264829 z"
       i:knockout="Off"
       id="path18"
       inkscape:connector-curvature="0"
       style="clip-rule:evenodd;fill:#5ebb84;fill-rule:evenodd;stroke-width:0.31725392" />
    <path
       d="m 22.034505,81.906223 c 5.459306,3.015181 10.621662,5.208041 15.795439,6.749577 5.093829,1.507591 9.673707,2.272808 14.847484,2.29565 5.162356,-0.01174 10.221921,-0.159896 16.058125,-2.432703 5.836203,-2.341651 12.003619,-6.122049 18.764935,-11.467144 -4.991039,3.59766 -9.776497,6.372997 -14.71043,8.497012 -4.911091,2.112912 -9.296809,3.506608 -14.573377,4.054823 C 52.883008,90.072022 47.286649,89.79728 41.210602,88.51843 35.100291,87.194212 28.852927,85.04672 22.034505,81.906223 Z"
       i:knockout="Off"
       id="path20"
       inkscape:connector-curvature="0"
       style="clip-rule:evenodd;fill:#5ebb84;fill-rule:evenodd;stroke-width:0.31725392" />
    <path
       d="m 28.784717,53.158893 c -3.494869,2.295649 -16.366496,15.087645 -20.9121099,19.301729 -4.5570355,4.123032 -5.2765674,4.043084 -6.213101,5.402517 -0.94795472,1.324852 -0.81090102,1.735696 0.6738474,2.558018 1.5075906,0.788059 5.3679365,1.405435 8.2346425,2.29565 2.866707,0.879745 7.846325,3.998034 8.771437,2.969814 0.833743,-1.119589 -4.625562,-6.910108 -3.643344,-9.30823 0.982218,-2.387336 7.90343,-2.878128 9.445284,-4.865407 1.461906,-2.044701 -1.09643,-5.059883 -0.536794,-7.149951 0.559636,-2.090069 3.186499,-3.391762 3.917452,-5.265147 0.696372,-1.918751 3.67729,-8.142956 0.262686,-5.938993 z"
       i:knockout="Off"
       id="path22"
       inkscape:connector-curvature="0"
       style="clip-rule:evenodd;fill:#215b4d;fill-rule:evenodd;stroke-width:0.31725392" />
    <path
       d="m 28.11087,53.295629 c 0,0 1.895909,1.542172 5.539253,2.69539 3.666187,1.165591 10.964296,2.980917 16.195179,4.191876 5.219462,1.187798 9.582338,2.032963 14.847484,2.969179 5.265146,0.925113 10.279027,1.713171 16.469286,2.558336 6.190259,0.834061 13.819581,1.976175 20.375318,2.432703 6.56715,0.445425 14.52769,0.868007 18.6282,0.262686 4.06561,-0.616424 4.35145,0.03395 5.6763,-3.906347 1.30201,-4.008504 2.17002,-13.510893 2.1586,-19.712573 -0.034,-6.20168 -0.87911,-13.122892 -2.29533,-17.143134 -1.43907,-3.974557 -4.47709,-4.40856 -6.2131,-6.612841 -1.71317,-2.20428 -1.63323,-4.168716 -4.04309,-6.475787 -2.44412,-2.318491 -6.59,-5.3336728 -10.39324,-7.286688 C 101.22933,5.3154138 96.946407,3.8078231 92.766586,2.9512375 88.59787,2.0832308 85.171527,2.1631788 80.214752,2.1403365 75.235451,2.1174942 68.371028,1.8662291 63.208672,2.8141838 58.057737,3.7735597 52.826854,6.1948417 49.571829,7.8052227 46.339646,9.4156036 45.67722,10.763298 43.906943,12.396522 c -1.770277,1.633223 -3.186499,1.576117 -4.853985,5.128092 -1.690329,3.574817 -3.30071,10.050605 -5.139514,16.058125 -1.839755,6.03068 -5.802574,19.71289 -5.802574,19.71289 z"
       i:knockout="Off"
       id="path24"
       inkscape:connector-curvature="0"
       style="clip-rule:evenodd;fill:#f6f48d;fill-opacity:1;fill-rule:evenodd;stroke-width:0.31725392" />
    <path
       d="m 27.973816,53.558633 c 0.753795,-1.404801 1.758856,-4.145557 3.106551,-8.359959 1.324852,-4.282928 3.50629,-12.334832 4.865406,-16.880447 1.324852,-4.557035 2.112911,-7.914851 3.10655,-10.119131 0.959376,-2.192859 1.621802,-1.918752 2.69539,-2.969497 1.039324,-1.107851 2.181438,-2.30707 3.643344,-3.50629 1.439064,-1.19922 2.50123,-2.3527554 4.991039,-3.6433444 2.489809,-1.3476947 6.875527,-3.3007099 9.856445,-4.191559 2.946654,-0.9136913 4.716931,-0.8451644 7.823482,-1.0735873 3.10655,-0.2512651 10.141973,-0.3997399 10.667346,-0.2741074 0.39974,0.1027903 -5.527833,-0.022842 -7.823482,0.9479548 -2.261386,0.9365336 -3.449185,2.5583357 -5.676307,4.7283526 -2.284229,2.1814377 -5.59636,5.1737767 -7.823482,8.0975897 -2.238544,2.866706 -3.540554,5.687728 -5.4022,9.034122 -1.907331,3.323553 -4.180138,6.807001 -5.80194,10.8044 -1.633223,4.020242 -2.923812,9.262546 -3.917452,12.951575 -1.016481,3.631606 -1.736013,6.441841 -2.158595,8.645804 -1.313432,-0.205581 -2.661126,-0.479688 -4.180138,-0.947955 -1.541854,-0.490792 -3.529133,-1.210641 -4.865406,-1.758538 -1.348012,-0.548532 -2.353073,-1.02822 -3.106551,-1.485383 z"
       i:knockout="Off"
       id="path26"
       inkscape:connector-curvature="0"
       style="clip-rule:evenodd;fill:#d0cd55;fill-opacity:1;fill-rule:evenodd;stroke-width:0.31725392" />
    <path
       d="m 42.284189,58.286985 c -0.01142,-2.181121 0.513951,-5.185198 1.621802,-9.18228 1.09643,-4.031663 3.289289,-10.724452 4.991039,-14.71043 1.690329,-4.020242 3.563396,-6.315892 5.128093,-9.045545 1.496169,-2.729652 2.215701,-4.865406 4.054505,-7.286688 1.873067,-2.512651 4.636983,-5.265146 7.012581,-7.423742 2.30707,-2.1585955 3.985978,-4.1458741 6.886948,-5.3907785 C 74.891865,4.0140382 81.21886,3.5571925 82.372713,3.2145583 83.400298,2.8490818 80.259802,2.7919761 78.592315,2.951872 76.901986,3.0660835 74.320808,3.4201388 72.653004,3.8884056 71.00836,4.3109879 70.174617,4.7335701 68.872606,5.6472614 67.502387,6.5609528 66.097269,8.2627028 64.82984,9.4276593 63.596039,10.558352 62.556715,11.357832 61.449182,12.53421 c -1.164957,1.119272 -2.170017,2.272807 -3.369237,3.90603 -1.210641,1.633223 -2.044384,2.923812 -3.780398,5.938994 -1.770277,3.026602 -4.945354,8.280327 -6.612841,12.015041 -1.678908,3.700449 -2.261386,5.973257 -3.380658,9.993498 -1.142114,3.9974 -2.249964,8.49733 -3.369236,13.762476 0.445424,0.04568 0.890531,0.09137 1.347377,0.136736 z"
       i:knockout="Off"
       id="path28"
       inkscape:connector-curvature="0"
       style="clip-rule:evenodd;fill:#bbbda8;fill-rule:evenodd;stroke-width:0.31725392" />
    <path
       d="m 90.607356,4.562253 c 3.129075,2.4327031 5.676307,4.762616 7.823165,7.161056 2.090389,2.364176 3.666499,3.586238 4.865719,7.012581 1.18749,3.414921 2.20397,8.531592 2.29534,13.237103 0.046,4.625562 -0.71954,8.543013 -1.89591,14.573376 -1.21064,6.053205 -2.93524,13.088311 -5.265467,21.460325 h 1.485066 c 0.719531,-3.449502 1.530431,-7.035423 2.432701,-10.93035 0.90227,-3.917451 2.26139,-8.028745 2.96918,-12.288831 0.66275,-4.351455 1.03933,-9.685128 1.08501,-13.225682 0,-3.517711 -0.27379,-4.865406 -0.94764,-7.697849 -0.69669,-2.889549 -1.33627,-6.464366 -3.10655,-9.30823 C 100.52059,11.689045 96.751296,8.6852851 94.787176,6.9949561 92.82274,5.3160483 91.429678,4.50483 90.607356,4.562253 Z"
       i:knockout="Off"
       id="path30"
       inkscape:connector-curvature="0"
       style="clip-rule:evenodd;fill:#bbbda8;fill-rule:evenodd;stroke-width:0.31725392" />
    <path
       d="m 63.344774,13.344794 c 1.473645,-1.953016 2.718232,-2.878128 4.043084,-4.0545057 1.30201,-1.1877987 1.781698,-2.1357534 3.780398,-2.9694968 2.010121,-0.8680067 5.927572,-1.5418541 8.097589,-2.021542 2.10149,-0.5139514 3.015182,-0.9593759 4.591299,-0.8109011 1.553275,0.1370537 3.643344,1.4276427 4.728353,1.7588558 1.062166,0.2969497 0.559636,-0.6281628 1.621485,0.1256326 1.027902,0.7537953 3.232183,3.1065505 4.580194,4.3286126 1.313432,1.1535356 2.39844,1.4504846 3.380658,2.6953896 0.959059,1.244904 3.768976,4.168716 2.432706,4.716931 -1.40512,0.479688 -8.543334,-1.953015 -10.667349,-1.610381 -2.124332,0.376898 -0.536793,4.248665 -2.021542,3.780398 -1.541854,-0.559636 -4.248982,-6.555735 -7.024319,-6.886948 -2.809283,-0.308371 -7.046844,3.129393 -9.582338,4.853985 -2.546597,1.667487 -3.962818,4.477087 -5.527832,5.128092 -1.576118,0.582479 -2.558336,-1.233483 -3.780398,-1.484748 -1.233483,-0.251265 -3.757555,1.244904 -3.517712,0 0.228741,-1.301693 3.335291,-5.60778 4.865724,-7.549374 z"
       i:knockout="Off"
       id="path32"
       inkscape:connector-curvature="0"
       style="clip-rule:evenodd;fill:#d0cd55;fill-opacity:1;fill-rule:evenodd;stroke-width:0.31725392" />
    <path
       d="m 93.302745,3.8884056 c 5.219145,1.8388038 9.570915,3.7575556 13.362415,5.8019399 3.75788,2.0443845 8.88597,5.4250425 9.04586,6.3501545 0.0685,0.845165 -7.22958,-1.793119 -8.37201,-1.085008 -1.14211,0.719532 2.10149,4.899669 1.6218,5.4022 -0.52537,0.479688 -2.01012,-0.388319 -4.5913,-2.558336 -0.34263,-1.49617 -1.01648,-2.980918 -2.02154,-4.454245 C 101.29691,11.814678 99.801058,10.284245 98.304888,8.8908656 96.774455,7.4746441 94.284646,5.9670534 93.439482,5.1104678 92.594317,4.2535649 92.548633,3.8766672 93.302745,3.8884056 Z"
       i:knockout="Off"
       id="path34"
       inkscape:connector-curvature="0"
       style="clip-rule:evenodd;fill:#d0cd55;fill-opacity:1;fill-rule:evenodd;stroke-width:0.31725392" />
    <path
       d="m 78.637682,16.94277 c -0.285528,0.228423 -0.365476,0.388319 -0.285528,0.742375 0.05742,0.354055 0.182738,1.153535 0.822639,1.427642 0.616425,0.239844 2.227123,0.262686 2.935234,0.114212 0.696372,-0.19416 1.176377,-0.5939 1.176377,-1.027903 -0.046,-0.445425 -0.742374,-1.187799 -1.290589,-1.519012 -0.593899,-0.376898 -1.484748,-0.571057 -2.055488,-0.536794 -0.594217,0.02252 -1.02822,0.525056 -1.302645,0.79948 z"
       i:knockout="Off"
       id="path36"
       inkscape:connector-curvature="0"
       style="clip-rule:evenodd;fill:#215b4d;fill-rule:evenodd;stroke-width:0.31725392" />
    <path
       d="m 79.163372,16.999559 c -0.239844,0.171317 -0.365476,0.274107 -0.376897,0.525372 -0.03395,0.205581 0.10279,0.559636 0.239844,0.79948 0.08026,0.205581 0.10279,0.39974 0.422582,0.536794 0.297267,0.114211 0.879428,0.228423 1.439064,0.251265 0.548532,-0.02284 1.313748,-0.07995 1.724909,-0.262686 C 82.955508,18.644203 83.2753,18.31299 83.046878,17.981777 82.77277,17.6163 81.619235,16.953874 81.127809,16.736873 80.625278,16.50845 80.351488,16.439923 80.0428,16.531292 c -0.388636,0.046 -0.639901,0.274107 -0.879428,0.468267 z"
       i:knockout="Off"
       id="path38"
       inkscape:connector-curvature="0"
       style="clip-rule:evenodd;fill:#259b5e;fill-rule:evenodd;stroke-width:0.31725392" />
    <path
       d="m 79.973956,17.547774 c -0.113894,0.114211 0.03426,0.434003 0.182738,0.559636 0.114212,0.07995 0.331213,0.114211 0.559636,0.10279 0.182738,-0.01142 0.639901,-0.10279 0.662426,-0.228423 -0.02253,-0.148475 -0.331213,-0.50253 -0.571057,-0.571057 -0.262686,-0.06853 -0.730953,-0.02284 -0.833743,0.137054 z"
       i:knockout="Off"
       id="path40"
       inkscape:connector-curvature="0"
       style="clip-rule:evenodd;fill:#bbbda8;fill-rule:evenodd;stroke-width:0.31725392" />
    <path
       d="m 51.352575,11.129092 c -0.319792,0.10279 -0.491109,0.239844 -0.730953,0.593899 -0.274107,0.365477 -0.925112,1.107851 -0.890849,1.564697 0.02284,0.422582 0.548215,0.970797 0.959376,1.073587 0.354056,0.05711 0.913692,-0.137054 1.279168,-0.536794 0.354055,-0.445424 0.685269,-1.30201 0.810901,-1.815961 0.04568,-0.50253 -0.06853,-1.039324 -0.29695,-1.164956 -0.285528,-0.182739 -0.810901,0.148474 -1.130693,0.285528 z"
       i:knockout="Off"
       id="path42"
       inkscape:connector-curvature="0"
       style="clip-rule:evenodd;fill:#215b4d;fill-rule:evenodd;stroke-width:0.31725392" />
    <path
       d="m 51.489946,11.369253 c -0.228422,0.03426 -0.388318,0.148475 -0.571057,0.342635 -0.239844,0.194159 -0.434003,0.536793 -0.582478,0.810901 -0.171317,0.239844 -0.285528,0.376897 -0.29695,0.628162 -0.01142,0.228423 0.09137,0.491109 0.308371,0.69669 0.171317,0.159896 0.536794,0.376898 0.833744,0.342634 0.285528,-0.0571 0.639584,-0.274107 0.890849,-0.651005 0.194159,-0.434003 0.30837,-1.370537 0.342634,-1.758856 -0.01142,-0.411161 -0.06853,-0.491109 -0.217002,-0.548214 -0.194476,-0.103108 -0.491109,0.04568 -0.708111,0.137053 z"
       i:knockout="Off"
       id="path44"
       inkscape:connector-curvature="0"
       style="clip-rule:evenodd;fill:#259b5e;fill-rule:evenodd;stroke-width:0.31725392" />
    <path
       d="m 51.33005,12.134153 c -0.148474,0.07995 -0.388318,0.388318 -0.411161,0.571057 -0.09137,0.137053 0.03426,0.228422 0.114212,0.274107 0.09137,0.03426 0.296949,0.125633 0.434003,0.01142 0.10279,-0.137054 0.29695,-0.559636 0.274108,-0.696689 -0.046,-0.159896 -0.285529,-0.228423 -0.411162,-0.159895 z"
       i:knockout="Off"
       id="path46"
       inkscape:connector-curvature="0"
       style="clip-rule:evenodd;fill:#bbbda8;fill-rule:evenodd;stroke-width:0.31725392" />
    <path
       d="m 114.73991,23.383977 c 0.0343,0.308371 0.0574,0.513951 0.33121,0.879428 0.26269,0.365476 0.7538,1.176377 1.21064,1.336273 0.45653,0.114212 1.06217,-0.251265 1.32486,-0.571057 0.18274,-0.354055 0.15989,-0.936533 -0.11421,-1.393379 -0.29695,-0.479688 -1.03901,-1.09643 -1.47333,-1.324852 -0.45685,-0.239844 -1.01648,-0.285529 -1.19922,-0.09137 -0.20526,0.19416 -0.1599,0.788059 -0.08,1.164957 z"
       i:knockout="Off"
       id="path48"
       inkscape:connector-curvature="0"
       style="clip-rule:evenodd;fill:#215b4d;fill-rule:evenodd;stroke-width:0.31725392" />
    <path
       d="m 115.0026,23.338292 c 0,0.205581 0.0114,0.388319 0.15989,0.639584 0.10279,0.217002 0.39974,0.605321 0.58248,0.810901 0.12563,0.182739 0.30869,0.39974 0.50253,0.479688 0.21732,0.05711 0.50253,0.04569 0.76522,-0.07995 0.21732,-0.137053 0.51395,-0.411161 0.58248,-0.685268 0.046,-0.319792 -0.0685,-0.742374 -0.34264,-1.050745 -0.35405,-0.342634 -1.1989,-0.719532 -1.56469,-0.868007 -0.3769,-0.171317 -0.50253,-0.10279 -0.5939,0.03426 -0.12564,0.09137 -0.11422,0.49111 -0.0914,0.719532 z"
       i:knockout="Off"
       id="path50"
       inkscape:connector-curvature="0"
       style="clip-rule:evenodd;fill:#259b5e;fill-rule:evenodd;stroke-width:0.31725392" />
    <path
       d="m 115.67644,23.726611 c 0.0114,0.125633 0.29727,0.456846 0.42259,0.559636 0.11421,0.09137 0.22842,0.01142 0.29695,-0.02284 0.0574,-0.114212 0.19416,-0.251265 0.14879,-0.411161 -0.10279,-0.182739 -0.44543,-0.456846 -0.58248,-0.468267 -0.14879,-0.0111 -0.33121,0.148475 -0.28585,0.342634 z"
       i:knockout="Off"
       id="path52"
       inkscape:connector-curvature="0"
       style="clip-rule:evenodd;fill:#bbbda8;fill-rule:evenodd;stroke-width:0.31725392" />
  </g>
</svg>
