<?xml version="1.0" encoding="UTF-8" standalone="no"?>
<!-- Created with Inkscape (http://www.inkscape.org/) -->

<svg
   xmlns:dc="http://purl.org/dc/elements/1.1/"
   xmlns:cc="http://creativecommons.org/ns#"
   xmlns:rdf="http://www.w3.org/1999/02/22-rdf-syntax-ns#"
   xmlns:svg="http://www.w3.org/2000/svg"
   xmlns="http://www.w3.org/2000/svg"
   xmlns:xlink="http://www.w3.org/1999/xlink"
   xmlns:sodipodi="http://sodipodi.sourceforge.net/DTD/sodipodi-0.dtd"
   xmlns:inkscape="http://www.inkscape.org/namespaces/inkscape"
   width="127.9999"
   height="112.416"
   id="svg3586"
   sodipodi:version="0.32"
   inkscape:version="0.92.2 (5c3e80d, 2017-08-06)"
   version="1.0"
   sodipodi:docname="ladybug.svg"
   inkscape:output_extension="org.inkscape.output.svg.inkscape">
  <defs
     id="defs3588">
    <linearGradient
       id="linearGradient17633">
      <stop
         style="stop-color:#7a7a7a;stop-opacity:1;"
         offset="0"
         id="stop17635" />
      <stop
         style="stop-color:#4a4a4a;stop-opacity:1;"
         offset="0"
         id="stop17643" />
      <stop
         style="stop-color:#1a1a1a;stop-opacity:0;"
         offset="1"
         id="stop17637" />
    </linearGradient>
    <radialGradient
       inkscape:collect="always"
       xlink:href="#linearGradient17633"
       id="radialGradient28461"
       gradientUnits="userSpaceOnUse"
       gradientTransform="matrix(0.603732,0.587415,-0.720928,0.758633,101.0532,-231.5532)"
       cx="849.10327"
       cy="207.73383"
       fx="849.10327"
       fy="207.73383"
       r="59.488682" />
    <linearGradient
       id="linearGradient20312">
      <stop
         id="stop20314"
         offset="0"
         style="stop-color:#0f0f0f;stop-opacity:1;" />
      <stop
         id="stop20318"
         offset="1"
         style="stop-color:black;stop-opacity:0;" />
    </linearGradient>
    <radialGradient
       inkscape:collect="always"
       xlink:href="#linearGradient20312"
       id="radialGradient28459"
       gradientUnits="userSpaceOnUse"
       gradientTransform="matrix(-0.471705,0.280075,-0.512445,-0.863065,996.2253,169.5516)"
       cx="886.07147"
       cy="109.63275"
       fx="886.07147"
       fy="109.63275"
       r="52.248867" />
    <radialGradient
       inkscape:collect="always"
       xlink:href="#linearGradient13082"
       id="radialGradient28457"
       gradientUnits="userSpaceOnUse"
       gradientTransform="matrix(0.547103,2.18904,-2.461508,0.615202,710.6204,-781.8558)"
       cx="395.13608"
       cy="215.9915"
       fx="395.13608"
       fy="215.9915"
       r="144.92441" />
    <radialGradient
       inkscape:collect="always"
       xlink:href="#linearGradient13082"
       id="radialGradient28455"
       gradientUnits="userSpaceOnUse"
       gradientTransform="matrix(0.547103,2.18904,-2.461508,0.615202,710.6204,-781.8558)"
       cx="395.13608"
       cy="215.9915"
       fx="395.13608"
       fy="215.9915"
       r="144.92441" />
    <radialGradient
       inkscape:collect="always"
       xlink:href="#linearGradient13082"
       id="radialGradient28453"
       gradientUnits="userSpaceOnUse"
       gradientTransform="matrix(0.547103,2.18904,-2.461508,0.615202,710.6204,-781.8558)"
       cx="395.13608"
       cy="215.9915"
       fx="395.13608"
       fy="215.9915"
       r="144.92441" />
    <radialGradient
       inkscape:collect="always"
       xlink:href="#linearGradient13082"
       id="radialGradient28451"
       gradientUnits="userSpaceOnUse"
       gradientTransform="matrix(0.547103,2.18904,-2.461508,0.615202,710.6204,-781.8558)"
       cx="395.13608"
       cy="215.9915"
       fx="395.13608"
       fy="215.9915"
       r="144.92441" />
    <radialGradient
       inkscape:collect="always"
       xlink:href="#linearGradient13082"
       id="radialGradient28449"
       gradientUnits="userSpaceOnUse"
       gradientTransform="matrix(0.547103,2.18904,-2.461508,0.615202,710.6204,-781.8558)"
       cx="395.13608"
       cy="215.9915"
       fx="395.13608"
       fy="215.9915"
       r="144.92441" />
    <radialGradient
       inkscape:collect="always"
       xlink:href="#linearGradient13082"
       id="radialGradient28447"
       gradientUnits="userSpaceOnUse"
       gradientTransform="matrix(0.547103,2.18904,-2.461508,0.615202,710.6204,-781.8558)"
       cx="395.13608"
       cy="215.9915"
       fx="395.13608"
       fy="215.9915"
       r="144.92441" />
    <radialGradient
       inkscape:collect="always"
       xlink:href="#linearGradient13082"
       id="radialGradient28445"
       gradientUnits="userSpaceOnUse"
       gradientTransform="matrix(0.162318,0.625126,-0.67962,0.176468,471.2818,-104.7413)"
       cx="380.40387"
       cy="251.11987"
       fx="380.40387"
       fy="251.11987"
       r="144.92441" />
    <radialGradient
       inkscape:collect="always"
       xlink:href="#linearGradient13082"
       id="radialGradient28443"
       gradientUnits="userSpaceOnUse"
       gradientTransform="matrix(0.547103,2.18904,-2.461508,0.615202,710.6204,-781.8558)"
       cx="395.13608"
       cy="215.9915"
       fx="395.13608"
       fy="215.9915"
       r="144.92441" />
    <radialGradient
       inkscape:collect="always"
       xlink:href="#linearGradient13082"
       id="radialGradient28441"
       gradientUnits="userSpaceOnUse"
       gradientTransform="matrix(0.547103,2.18904,-2.461508,0.615202,710.6204,-781.8558)"
       cx="395.13608"
       cy="215.9915"
       fx="395.13608"
       fy="215.9915"
       r="144.92441" />
    <radialGradient
       inkscape:collect="always"
       xlink:href="#linearGradient13082"
       id="radialGradient28439"
       gradientUnits="userSpaceOnUse"
       gradientTransform="matrix(0.547103,2.18904,-2.461508,0.615202,710.6204,-781.8558)"
       cx="395.13608"
       cy="215.9915"
       fx="395.13608"
       fy="215.9915"
       r="144.92441" />
    <linearGradient
       id="linearGradient13082">
      <stop
         style="stop-color:#404040;stop-opacity:1;"
         offset="0"
         id="stop13084" />
      <stop
         id="stop13090"
         offset="0.125"
         style="stop-color:#202020;stop-opacity:1;" />
      <stop
         style="stop-color:black;stop-opacity:1;"
         offset="1"
         id="stop13086" />
    </linearGradient>
    <radialGradient
       inkscape:collect="always"
       xlink:href="#linearGradient13082"
       id="radialGradient28437"
       gradientUnits="userSpaceOnUse"
       gradientTransform="matrix(0.547103,2.18904,-2.461508,0.615202,710.6204,-781.8558)"
       cx="395.13608"
       cy="215.9915"
       fx="395.13608"
       fy="215.9915"
       r="144.92441" />
    <radialGradient
       inkscape:collect="always"
       xlink:href="#linearGradient12030"
       id="radialGradient28435"
       gradientUnits="userSpaceOnUse"
       gradientTransform="matrix(0.68297,2.946505,-3.257574,0.755046,707.1618,-896.7226)"
       cx="327.97757"
       cy="175.01067"
       fx="327.97757"
       fy="175.01067"
       r="170.34988" />
    <radialGradient
       inkscape:collect="always"
       xlink:href="#linearGradient12030"
       id="radialGradient28433"
       gradientUnits="userSpaceOnUse"
       gradientTransform="matrix(0.68297,2.946505,-3.257574,0.755046,707.1618,-896.7226)"
       cx="327.97757"
       cy="175.01067"
       fx="327.97757"
       fy="175.01067"
       r="170.34988" />
    <linearGradient
       id="linearGradient12030">
      <stop
         style="stop-color:#ff9696;stop-opacity:1;"
         offset="0"
         id="stop12032" />
      <stop
         id="stop12038"
         offset="0.33333334"
         style="stop-color:#a20000;stop-opacity:1;" />
      <stop
         style="stop-color:#690000;stop-opacity:1;"
         offset="1"
         id="stop12034" />
    </linearGradient>
    <radialGradient
       inkscape:collect="always"
       xlink:href="#linearGradient12030"
       id="radialGradient28431"
       gradientUnits="userSpaceOnUse"
       gradientTransform="matrix(0.68297,2.946505,-3.257574,0.755046,707.1618,-896.7226)"
       cx="327.97757"
       cy="175.01067"
       fx="327.97757"
       fy="175.01067"
       r="170.34988" />
  </defs>
  <sodipodi:namedview
     id="base"
     pagecolor="#ffffff"
     bordercolor="#666666"
     borderopacity="1.0"
     gridtolerance="10000"
     guidetolerance="10"
     objecttolerance="10"
     inkscape:pageopacity="0.0"
     inkscape:pageshadow="2"
     inkscape:zoom="2.8"
     inkscape:cx="-2.5048353"
     inkscape:cy="61.437315"
     inkscape:document-units="px"
     inkscape:current-layer="layer1"
     inkscape:window-width="1920"
     inkscape:window-height="1025"
     inkscape:window-x="-8"
     inkscape:window-y="-8"
     showgrid="false"
     inkscape:window-maximized="1"
     fit-margin-top="0"
     fit-margin-left="0"
     fit-margin-right="0"
     fit-margin-bottom="0" />
  <metadata
     id="metadata3591">
    <rdf:RDF>
      <cc:Work
         rdf:about="">
        <dc:format>image/svg+xml</dc:format>
        <dc:type
           rdf:resource="http://purl.org/dc/dcmitype/StillImage" />
        <dc:title></dc:title>
        <cc:license
           rdf:resource="http://creativecommons.org/publicdomain/zero/1.0/" />
      </cc:Work>
      <cc:License
         rdf:about="http://creativecommons.org/publicdomain/zero/1.0/">
        <cc:permits
           rdf:resource="http://creativecommons.org/ns#Reproduction" />
        <cc:permits
           rdf:resource="http://creativecommons.org/ns#Distribution" />
        <cc:permits
           rdf:resource="http://creativecommons.org/ns#DerivativeWorks" />
      </cc:License>
    </rdf:RDF>
  </metadata>
  <g
     inkscape:label="Layer 1"
     inkscape:groupmode="layer"
     id="layer1"
     transform="translate(-299.53509,-284.72072)">
    <g
       id="g28363"
       transform="matrix(0.25980637,0,0,0.25980637,259.87773,263.60023)">
      <path
         sodipodi:nodetypes="cssssssssssssss"
         id="path28365"
         d="m 458.59907,453.57788 c -1.45989,5.56145 1.04945,11.88332 3.36468,17.21217 2.31523,5.32885 2.79619,-0.58703 5.89625,4.10324 3.10008,4.69028 3.68342,11.91422 6.50403,14.65786 2.8206,2.74364 2.34414,-5.79496 4.77841,-3.68331 2.43426,2.11163 4.05749,7.31297 4.95866,12.12987 0.90119,4.81689 -2.78202,7.1743 -1.35392,7.13771 1.42811,-0.0366 3.24433,-5.22297 7.06632,-7.28407 3.822,-2.06109 8.14477,0.61126 8.22165,-0.96031 0.0769,-1.57157 -4.60783,-1.54525 -7.91417,-5.32596 -3.30634,-3.78071 -4.50942,-5.38508 -5.31121,-9.79689 -0.8018,-4.41182 3.93166,-4.91262 2.10406,-7.85037 -1.82761,-2.93775 -4.63684,2.44275 -9.41445,-3.90065 -4.77762,-6.3434 -4.97094,-17.36312 -9.69601,-21.47294 -4.72508,-4.10982 -7.74439,-0.5278 -9.2043,5.03365 z"
         style="display:inline;fill:#1a1a1a;fill-rule:evenodd;stroke:#000000;stroke-width:1.00000024px;stroke-linecap:butt;stroke-linejoin:miter;stroke-opacity:1"
         inkscape:connector-curvature="0" />
      <path
         inkscape:transform-center-x="-7.2105286"
         inkscape:transform-center-y="-8.8383769"
         sodipodi:nodetypes="cssssssssssssss"
         id="path28367"
         d="m 550.74742,335.1256 c 3.70562,-4.39654 10.31891,-5.98622 16.00864,-7.16267 5.68971,-1.17644 1.13055,2.62395 6.75026,2.45689 5.61971,-0.16706 11.86118,-3.85077 15.72859,-3.12515 3.8674,0.72563 -3.38722,5.25389 -0.25897,6.02769 3.12824,0.77379 8.31517,-0.89492 12.77195,-2.93247 4.45679,-2.03756 4.26262,-6.40627 5.05522,-5.21775 0.7926,1.18853 -2.40117,5.66035 -1.88484,9.97186 0.51634,4.31152 5.19062,6.30621 3.95016,7.27419 -1.24047,0.96798 -3.91706,-2.87687 -8.91202,-3.40229 -4.99497,-0.52541 -6.99942,-0.58489 -11.06782,1.30061 -4.0684,1.88549 -1.75159,6.04348 -5.20577,6.24141 -3.45417,0.19795 -0.67364,-5.19743 -8.61094,-5.44964 -7.93729,-0.25221 -17.05715,5.9365 -23.13825,4.44082 -6.08112,-1.49566 -4.89181,-6.02696 -1.18621,-10.4235 z"
         style="display:inline;fill:#1a1a1a;fill-rule:evenodd;stroke:#000000;stroke-width:1.00000024px;stroke-linecap:butt;stroke-linejoin:miter;stroke-opacity:1"
         inkscape:connector-curvature="0" />
      <path
         sodipodi:nodetypes="cssssssssssssss"
         id="path28369"
         d="m 411.53973,441.69405 c -3.07311,4.85975 -2.59268,11.64443 -1.99703,17.42389 0.59565,5.77946 2.8428,0.28589 4.37964,5.69396 1.53683,5.40807 -0.0913,12.47028 1.76769,15.93833 1.85902,3.46805 3.98656,-4.81496 5.66843,-2.06613 1.68186,2.74882 1.65644,8.1975 1.05902,13.06142 -0.59741,4.86392 -4.821,5.99734 -3.44868,6.39426 1.37231,0.39692 4.67167,-3.99756 8.93796,-4.80658 4.26629,-0.80902 7.57874,3.04526 8.12719,1.5705 0.54845,-1.47477 -3.92494,-2.86613 -5.9334,-7.46958 -2.00847,-4.60345 -2.67014,-6.49648 -2.10046,-10.94423 0.56968,-4.44775 5.23299,-3.49391 4.37919,-6.84675 -0.85381,-3.35283 -5.15839,0.92644 -7.79442,-6.5646 -2.63603,-7.49104 0.51159,-18.05344 -2.74969,-23.39956 -3.26129,-5.34612 -7.22233,-2.84467 -10.29544,2.01507 z"
         style="display:inline;fill:#1a1a1a;fill-rule:evenodd;stroke:#000000;stroke-width:1.00000024px;stroke-linecap:butt;stroke-linejoin:miter;stroke-opacity:1"
         inkscape:connector-curvature="0" />
      <path
         inkscape:transform-center-x="-4.5392762"
         inkscape:transform-center-y="-9.0785524"
         sodipodi:nodetypes="cssssssssssssss"
         id="path28371"
         d="m 522.72772,287.66282 c 1.34987,-5.58918 6.55535,-9.96706 11.11933,-13.56248 4.56398,-3.59541 2.18412,1.84199 7.13661,-0.81919 4.95251,-2.66117 8.88943,-8.74609 12.67338,-9.82551 3.78394,-1.07941 -0.68185,6.21383 2.46241,5.50787 3.14424,-0.70596 7.03842,-4.51701 10.1146,-8.33169 3.07618,-3.81466 0.94989,-7.63596 2.19013,-6.927 1.24023,0.70895 0.3819,6.13672 2.77081,9.76284 2.38892,3.62613 7.46187,3.32134 6.78484,4.74168 -0.67703,1.42034 -4.78986,-0.8228 -9.49298,0.93968 -4.70313,1.76247 -6.52282,2.60516 -9.31952,6.11021 -2.7967,3.50506 1.13423,6.18913 -1.86726,7.91004 -3.0015,1.7209 -2.92561,-4.34834 -10.13872,-1.02639 -7.2131,3.32196 -12.60531,12.93423 -18.71372,14.31421 -6.1084,1.37999 -7.06976,-3.20508 -5.71991,-8.79427 z"
         style="display:inline;fill:#1a1a1a;fill-rule:evenodd;stroke:#000000;stroke-width:1.00000024px;stroke-linecap:butt;stroke-linejoin:miter;stroke-opacity:1"
         inkscape:connector-curvature="0" />
      <path
         sodipodi:nodetypes="cssssssssssssss"
         id="path28373"
         d="m 374.68762,138.78925 c 3.63822,-4.45247 3.98174,-11.24546 4.08934,-17.05453 0.1076,-5.80909 -2.78737,-0.62757 -3.65896,-6.1818 -0.87158,-5.55422 1.59863,-12.36771 0.17262,-16.03512 -1.42602,-3.6674 -4.53956,4.29755 -5.87668,1.36551 -1.33711,-2.93202 -0.65302,-8.33764 0.5282,-13.09363 1.18119,-4.75598 5.51085,-5.37036 4.19659,-5.93031 -1.31425,-0.55995 -5.12079,3.40331 -9.4536,3.69049 -4.33282,0.28719 -7.15488,-3.93937 -7.87764,-2.54175 -0.72276,1.39763 3.54956,3.31972 4.9866,8.13226 1.43706,4.81254 1.86497,6.77169 0.76163,11.11792 -1.10335,4.34621 -5.6171,2.83547 -5.175,6.26695 0.4421,3.43147 5.23257,-0.29586 6.9434,7.45896 1.71083,7.75484 -2.69094,17.85909 -0.10006,23.56035 2.59087,5.70126 6.82532,3.69716 10.46356,-0.7553 z"
         style="display:inline;fill:#1a1a1a;fill-rule:evenodd;stroke:#000000;stroke-width:1.00000024px;stroke-linecap:butt;stroke-linejoin:miter;stroke-opacity:1"
         inkscape:connector-curvature="0" />
      <path
         inkscape:transform-center-x="7.473055"
         inkscape:transform-center-y="8.2206244"
         sodipodi:nodetypes="cssssssssssssss"
         id="path28375"
         d="m 210.97316,347.22642 c -3.95448,4.17412 -10.64886,5.3774 -16.39726,6.22173 -5.7484,0.84432 -0.9764,-2.68513 -6.59634,-2.84441 -5.61993,-0.1593 -12.06462,3.15605 -15.88341,2.20726 -3.81878,-0.94881 3.68635,-5.04849 0.60827,-6.00252 -3.07806,-0.954 -8.35308,0.41094 -12.92058,2.18648 -4.56751,1.77551 -4.62715,6.14814 -5.34945,4.91563 -0.7223,-1.23251 2.72555,-5.51149 2.46025,-9.84569 -0.2653,-4.33421 -4.81596,-6.59677 -3.52142,-7.49115 1.29453,-0.89436 3.74354,3.09931 8.69959,3.91366 4.95606,0.81437 6.95369,0.99005 11.12465,-0.65621 4.17093,-1.64627 2.09929,-5.93167 5.55913,-5.92885 3.45983,0.003 0.37093,5.22778 8.28022,5.9401 7.90928,0.71233 17.37287,-4.9368 23.35695,-3.0908 5.98408,1.846 4.53386,6.30065 0.5794,10.47477 z"
         style="display:inline;fill:#1a1a1a;fill-rule:evenodd;stroke:#000000;stroke-width:1.00000024px;stroke-linecap:butt;stroke-linejoin:miter;stroke-opacity:1"
         inkscape:connector-curvature="0" />
      <g
         transform="rotate(-97.497849,377.8442,267.39585)"
         style="display:inline;fill:url(#radialGradient28431);fill-opacity:1"
         id="g28377">
        <path
           style="fill:url(#radialGradient28433);fill-opacity:1;fill-rule:evenodd;stroke:#000000;stroke-width:1px;stroke-linecap:butt;stroke-linejoin:miter;stroke-opacity:1"
           d="m 231.00839,285.38938 c -28.44752,-20.95915 -24.72286,-37.31709 -24.72286,-37.31709 0,0 16.97158,-81.59674 61.88604,-129.89938 39.96502,-42.979834 77.65983,-57.821981 130.917,-57.485591 60.84296,0.384304 111.46178,29.74904 109.98234,30.38308 1.26329,3.36877 -35.18836,58.904001 -85.02484,118.020821 -52.68605,62.49702 -119.11553,126.65567 -119.37106,126.1446 0,0 -15.0666,-5.64453 -27.39063,-17.9187 -14.76266,-14.70293 -31.98711,-21.40019 -46.27599,-31.92774 z"
           id="path28379"
           sodipodi:nodetypes="ccsscscss"
           inkscape:connector-curvature="0" />
        <path
           style="fill:url(#radialGradient28435);fill-opacity:1;fill-rule:evenodd;stroke:#000000;stroke-width:1px;stroke-linecap:butt;stroke-linejoin:miter;stroke-opacity:1"
           d="m 306.5608,336.19534 c 0,0 13.04618,24.3782 29.70324,41.97197 23.53702,24.86063 25.88691,30.04011 32.18934,30.39185 28.25409,1.59911 59.63896,-11.93225 89.78099,-31.0362 45.01116,-28.52797 77.55383,-86.23987 85.69385,-146.2251 4.24743,-31.30009 1.25927,-58.57819 -7.94228,-88.17361 -10.33647,-33.24574 -25.27998,-49.720641 -25.27998,-49.720641 0,0 -32.36148,54.240701 -83.69643,114.938631 -51.33496,60.69793 -120.44873,127.8531 -120.44873,127.8531 z"
           id="path28381"
           sodipodi:nodetypes="cssssscsc"
           inkscape:connector-curvature="0" />
      </g>
      <path
         sodipodi:nodetypes="csssssssssssssssc"
         id="path28383"
         d="m 502.54321,446.38883 c 6.15929,6.72407 10.00007,10.48825 11.83878,13.00898 1.83871,2.52073 8.39975,7.18267 11.42731,7.28652 3.02756,0.10384 9.71947,3.24161 14.61153,0.33733 4.89207,-2.90429 13.81864,-7.59536 16.74872,-8.23215 2.93008,-0.6368 9.22743,1.79942 16.85288,-1.71577 3.89064,-1.79351 16.94802,-16.92883 17.48233,-23.64931 0.77141,-9.70261 -4.52722,-16.73039 -1.69634,-18.61354 3.48319,-2.31708 6.45107,-10.14188 5.57376,-16.80766 -0.87731,-6.66579 -2.64358,-10.81952 -8.32854,-15.84793 -5.68496,-5.0284 -9.34759,-6.53097 -14.45539,-12.64649 -3.50141,-4.1922 -16.27499,-5.87924 -18.06609,-3.88308 -6.13284,6.83495 -5.82454,7.87932 -9.33916,13.6162 -3.51462,5.73689 -9.47829,19.58198 -13.33727,24.61071 -3.85898,5.02874 -13.78566,16.38653 -19.26912,19.6148 -7.69217,4.5286 -11.34937,11.70067 -11.5182,14.23447 -0.16883,2.53378 1.13044,7.97877 1.4748,8.68692 z"
         style="display:inline;fill:#1a1a1a;fill-rule:evenodd;stroke:#000000;stroke-width:1.00000024px;stroke-linecap:butt;stroke-linejoin:miter;stroke-opacity:1"
         inkscape:connector-curvature="0" />
      <path
         sodipodi:nodetypes="cssssssss"
         id="path28385"
         d="m 512.2355,509.08431 c -0.83019,5.55876 1.31901,4.31369 3.64302,4.20336 2.324,-0.11033 3.94137,0.35993 5.65298,-4.64468 1.7116,-5.00463 -2.49258,-7.98938 1.19342,-15.37378 3.68601,-7.38442 5.11165,-6.28316 13.55064,-14.16385 8.43898,-7.88069 20.07924,-16.07171 20.20528,-17.35891 0.12604,-1.28721 -10.38074,4.88354 -19.70114,12.21008 -9.32039,7.32653 -11.4444,8.31416 -17.58044,17.0961 -6.13607,8.78194 -6.13357,12.47292 -6.96376,18.03168 z"
         style="display:inline;fill:#1a1a1a;fill-rule:evenodd;stroke:#000000;stroke-width:1.00000024px;stroke-linecap:butt;stroke-linejoin:miter;stroke-opacity:1"
         inkscape:connector-curvature="0" />
      <path
         inkscape:transform-center-x="-2.6774334"
         sodipodi:nodetypes="cssssssss"
         id="path28387"
         d="m 591.61169,418.40514 c 0.60611,1.27013 5.93796,-2.7914 12.95113,-8.5403 7.01317,-5.7489 6.36907,-10.49891 15.1016,-14.45529 8.73252,-3.95638 13.70019,1.5963 19.82849,-1.37023 6.12831,-2.96654 5.78575,-7.92365 4.68472,-10.4959 -1.10103,-2.57224 -1.64777,-1.75292 -9.08881,0.20693 -7.44105,1.95985 -12.43776,2.37398 -20.67536,7.63248 -8.2376,5.2585 -6.5746,6.64591 -12.27504,13.4015 -5.70045,6.75556 -11.13282,12.35067 -10.52673,13.62081 z"
         style="display:inline;fill:#1a1a1a;fill-rule:evenodd;stroke:#000000;stroke-width:1.00000024px;stroke-linecap:butt;stroke-linejoin:miter;stroke-opacity:1"
         inkscape:connector-curvature="0" />
      <path
         sodipodi:nodetypes="csssssssss"
         id="path28389"
         d="m 425.42075,381.3979 c 1.65047,-2.95193 5.62208,-10.36855 6.54847,-11.99072 1.79376,-3.14097 5.1058,-8.54677 6.47574,-9.79057 2.25637,-2.0486 7.08168,-10.03182 7.28913,-12.38842 0.20747,-2.3566 -1.1524,-7.09924 -3.33234,-6.86609 -4.78586,0.51186 -11.10344,3.81137 -12.78381,4.80896 -1.68037,0.9976 -5.54044,4.67346 -8.16393,9.07691 -1.39609,2.34331 -2.62412,7.59207 -3.23993,10.77884 -0.61582,3.18678 -1.42564,10.79886 -0.20713,12.19135 1.21852,1.39249 6.11981,6.49406 7.4138,4.17974 z"
         style="display:inline;fill:#e6e6e6;fill-rule:evenodd;stroke:#eaeaea;stroke-width:1.00000024px;stroke-linecap:butt;stroke-linejoin:miter;stroke-opacity:1"
         inkscape:connector-curvature="0" />
      <g
         transform="rotate(-97.497849,377.8442,267.39585)"
         style="display:inline;fill:url(#radialGradient28437);fill-opacity:1"
         id="g28391">
        <g
           style="fill:url(#radialGradient28439);fill-opacity:1"
           id="g28393">
          <g
             style="display:inline;fill:url(#radialGradient28441);fill-opacity:1"
             id="g28395">
            <path
               sodipodi:nodetypes="cssss"
               id="path28397"
               d="m 250.79685,175.42975 c -0.54433,7.62055 1.45153,13.78958 7.98344,13.06381 6.5319,-0.72577 17.59985,-8.34632 18.14418,-15.96687 0.54433,-7.62055 -9.43498,-15.24112 -15.96688,-14.51535 -6.53191,0.72577 -9.61641,9.79786 -10.16074,17.41841 z"
               style="display:inline;fill:url(#radialGradient28443);fill-opacity:1;fill-rule:evenodd;stroke:#000000;stroke-width:1px;stroke-linecap:butt;stroke-linejoin:miter;stroke-opacity:1"
               inkscape:connector-curvature="0" />
            <path
               sodipodi:nodetypes="csssss"
               id="path28399"
               d="m 339.34045,175.42975 c -4.65859,7.82051 6.78523,15.61405 12.04049,19.2841 8.93041,6.23662 19.17458,7.6042 25.6994,2.48892 4.32746,-3.39261 8.04738,-6.52755 8.70921,-16.69265 0.41416,-6.36101 -0.38397,-19.89726 -11.61227,-23.95031 -3.41328,-1.23208 -22.98397,-1.02779 -34.83683,18.86994 z"
               style="display:inline;fill:url(#radialGradient28445);fill-opacity:1;fill-rule:evenodd;stroke:#000000;stroke-width:1px;stroke-linecap:butt;stroke-linejoin:miter;stroke-opacity:1"
               inkscape:connector-curvature="0" />
            <path
               sodipodi:nodetypes="csssss"
               id="path28401"
               d="m 360.7535,76.709829 c 7.90491,10.29728 22.89162,16.10749 38.74227,10.0684 7.62381,-2.90466 11.25542,-3.55743 13.7194,-8.29089 2.46397,-4.73346 -1.6216,-7.97815 -5.94673,-10.48097 -6.28174,-3.63506 -23.55114,-2.92306 -35.43017,0.45514 -7.09882,2.01879 -13.46357,5.14959 -11.08477,8.24832 z"
               style="display:inline;fill:url(#radialGradient28447);fill-opacity:1;fill-rule:evenodd;stroke:#000000;stroke-width:1px;stroke-linecap:butt;stroke-linejoin:miter;stroke-opacity:1"
               inkscape:connector-curvature="0" />
            <path
               sodipodi:nodetypes="csssss"
               id="path28403"
               d="m 528.72946,184.87191 c 8.69276,6.78099 13.81094,19.93403 9.12806,34.10933 -2.25236,6.818 -2.71967,10.04994 -6.59199,12.33572 -3.87231,2.28578 -6.64373,-1.26393 -8.80527,-5.04196 -3.1394,-5.48715 -2.89941,-20.80409 -0.34089,-31.4027 1.52895,-6.33365 3.99421,-12.04097 6.61009,-10.00039 z"
               style="display:inline;fill:url(#radialGradient28449);fill-opacity:1;fill-rule:evenodd;stroke:#000000;stroke-width:0.85711044px;stroke-linecap:butt;stroke-linejoin:miter;stroke-opacity:1"
               inkscape:connector-curvature="0" />
            <path
               sodipodi:nodetypes="csssss"
               id="path28405"
               d="m 474.41121,259.68758 c 1.6766,-8.66625 -10.79114,-12.62753 -16.54478,-14.5318 -9.77731,-3.23597 -19.20392,-1.53748 -23.35719,5.14168 -2.75456,4.42984 -5.05483,8.44217 -2.49372,18.1391 1.60266,6.06805 6.48923,18.49278 17.61109,19.01925 3.38092,0.16004 20.51879,-5.7187 24.7846,-27.76823 z"
               style="display:inline;fill:url(#radialGradient28451);fill-opacity:1;fill-rule:evenodd;stroke:#000000;stroke-width:0.95480955px;stroke-linecap:butt;stroke-linejoin:miter;stroke-opacity:1"
               inkscape:connector-curvature="0" />
            <path
               sodipodi:nodetypes="cssss"
               id="path28407"
               d="m 457.94989,357.52801 c 4.34213,-5.67956 6.07949,-11.63454 0.938,-14.70324 -5.14148,-3.0687 -17.16179,-3.25115 -21.50392,2.42841 -4.34213,5.67957 -1.00608,17.22118 4.1354,20.28988 5.14149,3.0687 12.08838,-2.33548 16.43052,-8.01505 z"
               style="display:inline;opacity:1;fill:url(#radialGradient28453);fill-opacity:1;fill-rule:evenodd;stroke:#000000;stroke-width:0.92799342px;stroke-linecap:butt;stroke-linejoin:miter;stroke-opacity:1"
               inkscape:connector-curvature="0" />
          </g>
          <path
             sodipodi:nodetypes="cssssscssssss"
             id="path28409"
             d="m 297.04149,309.44848 c 0.59591,3.70877 3.43506,11.27456 1.89547,14.35373 -1.53958,3.07917 -4.85963,1.71753 -4.34643,3.25711 0.51319,1.53959 8.51491,4.85962 9.7979,5.37282 1.28299,0.51319 6.03249,-5.67661 7.31547,-6.703 1.28299,-1.02639 9.15435,-8.33609 16.39078,-15.66818 7.23315,-7.32876 11.99716,-12.55754 11.99716,-12.55754 0,0 -4.22247,-2.74134 -7.0068,-4.40936 -4.44081,-2.66036 -7.39902,-4.79668 -9.4518,-5.82307 -2.05278,-1.02639 -4.92805,-3.54341 -8.85017,-6.18981 -4.34642,-2.93269 -8.75577,-5.4672 -13.37453,-1.61824 -4.61875,3.84897 -3.0477,11.88214 -3.0477,16.75749 0,4.87535 -2.14909,8.06391 -1.31935,13.22805 z"
             style="display:inline;fill:url(#radialGradient28455);fill-opacity:1;fill-rule:evenodd;stroke:#000000;stroke-width:1px;stroke-linecap:butt;stroke-linejoin:miter;stroke-opacity:1"
             inkscape:connector-curvature="0" />
          <path
             sodipodi:nodetypes="cssssscssssss"
             id="path28411"
             d="m 332.40626,344.22639 c -3.70689,-0.60754 -10.17442,-4.01504 -13.2584,-2.48511 -3.08398,1.52992 -2.27741,5.67121 -3.81538,5.15319 -1.53797,-0.51801 -5.37757,-8.80243 -5.88674,-10.08702 -0.50917,-1.28459 5.69549,-6.01467 6.72589,-7.29443 1.03041,-1.27976 7.82008,-8.58351 15.17481,-15.79693 7.3514,-7.21015 12.32275,-11.95774 12.32275,-11.95774 0,0 3.54509,3.68637 5.20436,6.47592 2.64643,4.44913 4.77347,7.41401 5.79343,9.47 1.01995,2.05599 3.52794,4.93913 6.16204,8.86953 2.91905,4.35559 5.43974,8.77286 1.57631,13.37953 -3.86342,4.60666 -11.89162,3.01045 -16.76695,2.99517 -4.87533,-0.0153 -8.07061,2.1238 -13.23212,1.27789 z"
             style="display:inline;opacity:1;fill:url(#radialGradient28457);fill-opacity:1;fill-rule:evenodd;stroke:#000000;stroke-width:1px;stroke-linecap:butt;stroke-linejoin:miter;stroke-opacity:1"
             inkscape:connector-curvature="0" />
        </g>
      </g>
      <path
         sodipodi:nodetypes="csssssssss"
         id="path28413"
         d="m 497.10127,286.02116 c -2.36348,3.71752 -8.5656,10.17849 -9.64938,11.70001 -2.55978,3.59371 -6.53439,6.70661 -8.68711,8.45662 -2.36481,1.92242 -8.41287,8.9449 -10.68037,9.61946 -2.2675,0.67457 -7.18629,0.29067 -7.39382,-1.89186 -0.45562,-4.79154 1.51377,-11.64136 2.15515,-13.4873 0.64138,-1.84594 3.471,-6.36317 7.26081,-9.8143 2.01676,-1.83654 6.91388,-4.08947 9.91312,-5.33017 2.99923,-1.24071 10.29557,-3.55652 11.90363,-2.64112 1.60804,0.91542 6.60054,1.15109 5.17797,3.38866 z"
         style="display:inline;fill:#e6e6e6;fill-rule:evenodd;stroke:#eaeaea;stroke-width:1.00000024px;stroke-linecap:butt;stroke-linejoin:miter;stroke-opacity:1"
         inkscape:connector-curvature="0" />
      <path
         sodipodi:nodetypes="cssss"
         id="path28415"
         d="m 571.47438,420.32926 c 2.68919,-3.20579 9.46246,-10.838 7.5309,-13.69489 -1.93157,-2.85689 -7.33725,-10.44172 -10.63674,-7.93338 -3.29949,2.50833 -5.33135,8.73872 -3.94958,15.2976 1.38175,6.55889 4.36624,9.53646 7.05542,6.33067 z"
         style="display:inline;fill:#e6e6e6;fill-rule:evenodd;stroke:#000000;stroke-width:1.00000024px;stroke-linecap:butt;stroke-linejoin:miter;stroke-opacity:1"
         inkscape:connector-curvature="0" />
      <path
         sodipodi:nodetypes="cssss"
         id="path28417"
         d="m 577.89005,443.56566 c 5.98672,-7.38742 4.28124,-20.75537 3.39603,-19.60183 -0.88521,1.15354 -4.87691,11.80193 -8.1404,15.3177 -4.30295,4.63557 -11.71104,9.93916 -13.0724,11.41463 -1.36136,1.47547 11.91026,0.15794 17.81677,-7.1305 z"
         style="display:inline;fill:#e6e6e6;fill-rule:evenodd;stroke:#000000;stroke-width:1.00000024px;stroke-linecap:butt;stroke-linejoin:miter;stroke-opacity:1"
         inkscape:connector-curvature="0" />
      <path
         sodipodi:nodetypes="cssss"
         id="path28419"
         d="m 557.09924,441.53567 c -2.85572,3.05837 -9.6095,10.70784 -12.67968,9.13727 -3.0702,-1.57057 -11.25501,-6.01578 -9.16565,-9.5953 2.08935,-3.57951 8.0271,-6.3525 14.70521,-5.77694 6.67809,0.57554 9.99586,3.17661 7.14012,6.23497 z"
         style="display:inline;fill:#e6e6e6;fill-rule:evenodd;stroke:#000000;stroke-width:1.00000024px;stroke-linecap:butt;stroke-linejoin:miter;stroke-opacity:1"
         inkscape:connector-curvature="0" />
      <path
         sodipodi:nodetypes="ccsssssssscsssc"
         id="path28421"
         d="m 457.43212,330.43412 c -5.29575,16.99387 -17.51064,33.49301 -24.35822,44.8842 -14.59506,44.77707 -26.55977,42.97775 -28.10681,61.81667 -0.86493,10.53257 14.39696,23.92785 19.63038,25.90519 8.3595,3.15848 40.11605,0.90814 58.83653,-3.84732 17.07752,-4.3381 13.30985,-10.96886 14.99672,-18.90769 1.36016,-6.40132 2.49427,-10.95371 9.55814,-16.54763 11.21129,-8.87829 17.97875,-14.06188 24.92438,-25.70639 10.13889,-16.99808 9.53315,-20.50855 18.1176,-32.23137 8.58446,-11.7228 18.5173,-10.63244 17.50021,-16.77653 -2.46693,-14.90226 -4.53987,-28.99066 -12.8638,-49.364 -0.78438,-10.45572 -1.73768,-18.82296 -8.0645,-24.01607 -4.73515,-3.88667 -18.85334,-9.55308 -26.24809,-4.12792 -21.59384,15.84234 -18.24571,13.93587 -33.7258,31.82498 -8.62051,9.96202 -16.38391,15.60293 -30.19674,27.09388 z"
         style="display:inline;fill:#1a1a1a;fill-rule:evenodd;stroke:#000000;stroke-width:1.00000024px;stroke-linecap:butt;stroke-linejoin:miter;stroke-opacity:1"
         inkscape:connector-curvature="0" />
      <path
         sodipodi:nodetypes="ccsscsssc"
         id="path28423"
         d="m 532.85191,393.18324 c 9.6102,-16.11172 7.98439,-17.68637 16.12121,-28.79791 8.13682,-11.11152 17.55172,-10.07802 16.58767,-15.90173 -2.3383,-14.12519 -4.30314,-27.47896 -12.19303,-46.78994 -0.74348,-9.91052 -1.64707,-17.84145 -7.64398,-22.76377 -4.48824,-3.684 -17.87024,-9.05494 -24.8794,-3.91267 -20.46784,15.01625 -17.2943,13.20919 -31.96719,30.16548 -8.171,9.44256 -14.65319,14.35114 -27.74576,25.2429"
         style="display:inline;fill:url(#radialGradient28459);fill-opacity:1;fill-rule:evenodd;stroke:none;stroke-width:0.94785589px;stroke-linecap:butt;stroke-linejoin:miter;stroke-opacity:1"
         inkscape:connector-curvature="0" />
      <path
         sodipodi:nodetypes="ccssssss"
         id="path28425"
         d="m 458.17185,334.46199 c -4.75042,15.8819 -15.70747,31.30146 -21.84992,41.9473 -13.09212,41.84717 -23.82476,40.16558 -25.21249,57.77182 -0.77586,9.84339 12.91442,22.36218 17.60893,24.21013 7.49867,2.95181 35.98508,0.84873 52.77781,-3.59557 15.31894,-4.05425 11.93925,-10.25114 13.45242,-17.67051 1.2201,-5.98246 2.23741,-10.23698 8.57388,-15.46487 10.0568,-8.29735 16.12738,-13.14177 22.35778,-24.02434"
         style="display:inline;fill:url(#radialGradient28461);fill-opacity:1;fill-rule:evenodd;stroke:none;stroke-width:0.92243791px;stroke-linecap:butt;stroke-linejoin:miter;stroke-opacity:1"
         inkscape:connector-curvature="0" />
      <path
         sodipodi:nodetypes="csssssssss"
         id="path28427"
         d="m 445.51374,450.59181 c 2.58511,3.09777 7.81269,6.62553 18.44456,7.31592 10.63186,0.69038 19.99498,-4.8218 27.23817,-5.97225 4.4765,-0.71455 3.3474,-8.82895 5.06656,-15.99517 1.71916,-7.16621 5.45969,-8.17258 3.60978,-10.90871 -1.84992,-2.73613 -11.08489,1.0536 -15.49607,-1.11624 -4.41119,-2.16983 -7.70323,-6.98683 -13.04757,-4.92564 -7.4055,2.85612 -8.25248,6.81224 -8.00293,10.31439 0.27601,3.87326 -2.82655,9.46156 -8.11509,11.07442 -5.28853,1.61284 -12.28253,7.11552 -9.69741,10.21328 z"
         style="display:inline;fill:#ececec;fill-rule:evenodd;stroke:#cccccc;stroke-width:1.00000024px;stroke-linecap:butt;stroke-linejoin:miter;stroke-opacity:1"
         inkscape:connector-curvature="0" />
      <path
         sodipodi:nodetypes="cccccccccccccc"
         id="path28429"
         d="m 542.33927,358.27093 c 0.14851,-3.42145 0.47266,-7.24047 -1.8209,-10.09607 -1.74465,-2.34991 -4.30704,-4.19227 -5.17564,-7.10547 -1.2764,-2.26868 -3.44384,-6.15133 -2.29195,-8.88455 0.99049,-3.24718 3.10854,-5.04259 6.23957,-6.58361 2.91823,-1.69152 5.8512,-3.87223 6.93446,-7.22086 1.05629,-2.91015 -0.24388,-8.04236 0.63814,-10.97284 1.32995,-2.48999 4.94269,1.43819 6.11476,3.64251 3.04487,5.04682 4.6625,12.90883 5.64898,18.63661 0.7954,5.48065 1.85333,7.92336 3.10141,13.32287 0.21038,2.34344 1.52258,5.28103 -0.26706,7.28193 -2.45236,2.61651 -6.67645,1.74975 -9.17217,4.31368 -2.57631,2.34804 -4.25765,5.46612 -6.59421,8.02282 -2.61473,0.95898 -2.79318,-2.74859 -3.35539,-4.35702 z"
         style="display:inline;fill:#cccccc;fill-opacity:1;fill-rule:evenodd;stroke:#000000;stroke-width:1.00000024px;stroke-linecap:butt;stroke-linejoin:miter;stroke-opacity:1"
         inkscape:connector-curvature="0" />
    </g>
  </g>
</svg>
