<?xml version="1.0" encoding="UTF-8" standalone="no"?>
<!-- Generator: Adobe Illustrator 12.0.0, SVG Export Plug-In . SVG Version: 6.00 Build 51448)  -->

<svg
   xmlns:dc="http://purl.org/dc/elements/1.1/"
   xmlns:cc="http://creativecommons.org/ns#"
   xmlns:rdf="http://www.w3.org/1999/02/22-rdf-syntax-ns#"
   xmlns:svg="http://www.w3.org/2000/svg"
   xmlns="http://www.w3.org/2000/svg"
   xmlns:sodipodi="http://sodipodi.sourceforge.net/DTD/sodipodi-0.dtd"
   xmlns:inkscape="http://www.inkscape.org/namespaces/inkscape"
   height="102.972"
   id="Layer_1"
   inkscape:version="0.92.2 (5c3e80d, 2017-08-06)"
   sodipodi:docname="ice_skate.svg"
   sodipodi:version="0.32"
   style="overflow:visible"
   version="1.0"
   viewBox="0 0 128.00005 102.972"
   width="128.00005"
   xml:space="preserve"><title
     id="title858">Pattino</title><metadata
     id="metadata2"><rdf:RDF><cc:Work
         rdf:about=""><dc:title>Pattino</dc:title><dc:description /><dc:subject><rdf:Bag><rdf:li>clothing</rdf:li></rdf:Bag></dc:subject><dc:publisher><cc:Agent
             rdf:about="http://www.openclipart.org"><dc:title>Architetto Francesco Rollandin</dc:title></cc:Agent></dc:publisher><dc:creator><cc:Agent><dc:title>Architetto Francesco Rollandin</dc:title></cc:Agent></dc:creator><dc:rights><cc:Agent><dc:title>Architetto Francesco Rollandin</dc:title></cc:Agent></dc:rights><dc:date /><dc:format>image/svg+xml</dc:format><dc:type
           rdf:resource="http://purl.org/dc/dcmitype/StillImage" /><cc:license
           rdf:resource="http://creativecommons.org/publicdomain/zero/1.0/" /><dc:language>en</dc:language></cc:Work><cc:License
         rdf:about="http://creativecommons.org/publicdomain/zero/1.0/"><cc:permits
           rdf:resource="http://creativecommons.org/ns#Reproduction" /><cc:permits
           rdf:resource="http://creativecommons.org/ns#Distribution" /><cc:permits
           rdf:resource="http://creativecommons.org/ns#DerivativeWorks" /></cc:License></rdf:RDF></metadata><defs
     id="defs96" /><sodipodi:namedview
     bordercolor="#666666"
     borderopacity="1.0"
     id="base"
     inkscape:current-layer="Layer_1"
     inkscape:cx="-10.474455"
     inkscape:cy="51.486871"
     inkscape:pageopacity="0.0"
     inkscape:pageshadow="2"
     inkscape:window-height="1025"
     inkscape:window-width="1920"
     inkscape:window-x="-8"
     inkscape:window-y="-8"
     inkscape:zoom="1.7858493"
     pagecolor="#ffffff"
     showgrid="false"
     inkscape:window-maximized="1"
     fit-margin-top="0"
     fit-margin-left="0"
     fit-margin-right="0"
     fit-margin-bottom="0" /><g
     id="g906"
     transform="matrix(0.48648834,0,0,0.48648834,0,-4.5827448e-4)"><path
       style="fill:#bfbfbf"
       id="path3"
       d="m 62.445,193.382 c 4.851,-0.307 9.849,-1.784 13.081,-5.68 1.502,-1.81 1.619,-4.481 2.962,-6.171 1.945,-2.443 0.39,-1.709 4.196,-2.223 3.67,-0.496 8.428,-0.185 12.093,0.249 5.369,0.637 2.78,0.251 4.936,4.197 6.473,11.844 18.818,9.378 30.645,9.378 14.901,0 29.802,0 44.7,0 5.79,0 10.476,0.173 15.733,-2.469 7.602,-3.82 8.201,-15.948 5.43,-22.953 6.621,0.954 14.11,0.473 20.732,-0.246 -3.209,9.097 -1.308,20.349 7.898,24.929 9.251,4.601 31.112,-4.532 35.543,8.144 1.694,4.847 0.183,4.964 -4.567,5.802 -4.652,0.819 -9.261,1.366 -13.968,1.776 -10.497,0.914 -21.104,0.947 -31.634,1.261 -23.916,0.706 -47.942,0.048 -71.864,0.048 -20.552,0 -41.101,0.128 -61.648,-0.313 -11.398,-0.243 -22.764,-0.436 -34.125,-1.47 -4.992,-0.455 -10.372,-1.056 -15.148,-2.646 -3.597,-1.198 -7.855,-4.822 -10.904,-1.248 0.034,-1.401 -0.899,-2.797 -0.988,-4.195 -1.11,0.546 -2.642,0.345 -3.702,0.986 0.554,-1.22 0.099,-2.767 0.494,-3.95 -1.19,0.388 -2.729,-0.061 -3.951,0.496 0.691,-1.286 0.727,-2.929 1.482,-4.198 -1.349,0.243 -2.861,-0.302 -4.196,0 0.87,-0.954 1.121,-2.467 1.974,-3.455 -1.272,-0.05 -2.463,-0.939 -3.702,-0.985 1.142,-0.728 1.707,-2.157 2.717,-2.965 -1.359,-0.463 -2.372,-1.786 -3.703,-2.219 3.713,-3.411 6.615,-8.579 10.366,-12.959 3.238,-3.782 5.379,-8.128 10.243,-7.158 3.095,0.616 6.139,1.709 9.256,2.345 -5.852,4.647 -11.798,11.804 -7.405,19.255 6.252,10.598 26.468,10.089 37.024,8.637"
       inkscape:connector-curvature="0" /><path
       id="path5"
       d="m 256.939,193.627 c 3.512,1.251 6.159,5.939 6.171,9.627 0.017,4.681 -1.085,3.935 -6.047,4.812 -4.672,0.826 -9.326,1.386 -14.056,1.778 -10.82,0.896 -21.635,1.195 -32.484,1.504 -24.019,0.683 -48.138,0.049 -72.16,0.049 -20.573,0 -41.144,0.118 -61.712,-0.309 -11.398,-0.238 -22.769,-0.412 -34.126,-1.473 -4.818,-0.449 -9.717,-1.109 -14.388,-2.413 -5.886,-1.642 -7.573,-3.786 -13.081,-0.494 -0.043,-1.576 -0.927,-3.117 -0.986,-4.689 -1.388,0.587 -3.073,0.44 -4.444,0.987 0.468,-1.343 0.136,-2.852 0.494,-4.197 -1.508,0.359 -3.187,0.039 -4.688,0.494 0.744,-1.371 0.885,-3.095 1.726,-4.441 -1.61,0.236 -3.327,-0.246 -4.936,0 1.095,-1.212 1.504,-2.912 2.468,-4.197 -1.521,-0.233 -2.922,-1.246 -4.442,-1.482 1.144,-0.961 1.88,-2.374 3.208,-3.205 C 2.172,185.559 1.222,184.2 0,183.755 c 2.965,-3.378 5.348,-5.966 7.899,-9.627 2.483,-3.563 5.567,-7.97 8.884,-10.736 2.419,-2.018 0.854,-3.132 0.494,-6.048 -0.265,-2.152 0.651,-6.395 -0.001,-8.022 -1.148,-2.868 -1.971,-5.623 -1.727,-8.762 0.324,-4.189 1.947,-7.915 4.937,-10.86 11.292,14.518 22.801,27.731 29.124,38.503 -8.619,-0.808 -14.179,-4.177 -20.24,3.457 -4.268,5.375 -4.924,9.884 0.125,14.934 6.54,6.54 20.651,5.058 29.125,5.058 6.153,0 11.732,-1.052 15.795,-5.922 1.364,-1.638 1.678,-7.384 2.024,-8.965 0.078,-0.849 0.708,0.282 1.582,0.425 2.738,16.12 -13.062,16.438 -23.135,16.438 -7.798,0 -18.687,0.28 -25.267,-4.445 -10.128,-7.27 -4.813,-17.323 3.208,-23.693 -2.999,-0.612 -6.858,-2.507 -9.874,-2.468 -4.511,0.058 -7.21,4.136 -10.367,8.146 -3.369,4.281 -6.144,8.896 -9.625,12.094 1.331,0.433 2.343,1.756 3.703,2.219 -1.01,0.808 -1.575,2.237 -2.717,2.965 1.239,0.046 2.43,0.936 3.702,0.985 -0.853,0.988 -1.104,2.501 -1.974,3.455 1.335,-0.302 2.847,0.243 4.196,0 -0.755,1.27 -0.792,2.912 -1.482,4.198 1.223,-0.557 2.761,-0.108 3.951,-0.496 -0.395,1.184 0.06,2.73 -0.494,3.95 1.061,-0.642 2.592,-0.44 3.702,-0.986 0.089,1.398 1.022,2.794 0.988,4.195 3.187,-3.734 7.805,0.416 11.599,1.479 5.319,1.489 10.934,2.094 16.415,2.594 11.207,1.022 22.465,1.085 33.708,1.325 21.348,0.459 42.707,0.279 64.058,0.279 23.754,0 47.588,0.553 71.335,-0.149 10.07,-0.299 20.17,-0.441 30.207,-1.333 5.03,-0.448 10.021,-1.104 14.966,-2.166 3.369,-0.724 2.67,-3.477 1.077,-6.473 -5.856,-11.02 -26.021,-2.514 -35.543,-7.156 -8.98,-4.377 -10.446,-16.058 -7.404,-24.682 -6.622,0.719 -14.111,1.2 -20.732,0.246 2.271,5.736 2.131,14.196 -1.481,19.251 -5.773,8.074 -16.895,6.171 -25.505,6.171 -18.771,0 -37.543,0 -56.315,0 -6.949,0 -14.045,-6.475 -13.946,-13.575 0.845,-0.101 1.417,0.179 1.837,0.684 1.075,1.298 1.171,4.071 2.359,5.735 2.551,3.569 6.493,4.659 10.613,5.182 20.894,2.649 43.454,0.245 64.54,0.245 7.274,0 15.103,-2.107 16.913,-10.24 0.653,-2.941 1.102,-9.569 -0.742,-12.344 -1.934,-2.907 -9.063,-1.446 -12.341,-3.086 -8.929,-4.461 -7.899,-9.713 -7.899,-18.511 -14.573,5.091 -30.193,10.806 -45.413,15.058 -5.144,1.437 -10.272,2.885 -15.48,4.068 -2.877,0.653 -9.735,0.998 -11.425,2.842 -1.945,2.121 -1.063,9.634 -0.545,12.086 -0.917,0.123 -1.766,-0.314 -2.16,-0.887 -1.234,-4.552 -0.099,-9.433 0.73,-11.444 -7.369,0.399 -14.708,0.987 -22.213,0.987 0.51,1.656 1.516,12.375 -0.988,8.885 -0.917,-1.274 -0.032,-5.524 -0.618,-7.282 -1.123,-3.369 -15.114,-2.224 -18.88,-2.59 -11.611,-1.129 -6.487,-0.35 -9.873,-3.703 -2.351,-2.328 -4.317,-5.82 -6.295,-8.516 -4.478,-6.104 -9.073,-12.144 -13.699,-18.142 -3.077,-3.99 -10.599,-4.946 -6.926,-8.748 2.414,-2.5 10.85,-5.498 14.083,-6.308 11.521,-2.884 26.584,-5.129 36.776,-11.107 10.366,-6.08 20.749,-15.159 30.361,-22.461 7.925,-6.021 16.148,-13.007 21.718,-21.349 2.754,-4.125 5.005,-7.878 6.417,-12.217 1.152,-3.538 2.073,-7.522 4.443,-10.49 1.122,-1.403 -0.03,-4.989 0.74,-6.912 1.849,-4.617 2.46,-9.767 3.455,-14.685 1.164,-5.753 -0.483,-13.177 1.482,-19.005 4.541,-13.464 16.714,2.962 24.312,2.962 16.504,0 32.257,4.905 47.483,10.998 5.958,2.383 4.271,16.935 5.339,23.337 1.604,9.607 4.687,18.572 8.805,27.399 3.794,8.125 9.263,16.094 11.308,24.9 2.283,9.84 0.092,19.189 -3.453,28.385 -3.492,9.048 -2.718,19.257 -2.718,28.963 0,2.269 1.827,11.214 0.741,12.752 -0.792,1.118 -5.003,1.043 -6.171,1.233 -5.553,0.899 -7.896,1.237 -7.896,7.403 0,4.883 0.024,9.404 3.208,13.328 8.081,9.956 25.053,2.625 36.036,6.664"
       inkscape:connector-curvature="0" /><path
       style="fill:#bfbfbf"
       id="path7"
       d="m 98.728,177.584 c 0.171,0.711 0.718,5.517 0.986,6.171 -3.852,0 -12.874,-0.18 -20.671,-0.563 -1.592,-0.077 -0.709,-11.357 -1.294,-13.26 7.505,0 14.845,-0.588 22.213,-0.987 -1.1,2.675 -1.366,5.743 -1.234,8.639"
       inkscape:connector-curvature="0" /><path
       style="fill:#bfbfff"
       id="path9"
       d="m 180.919,162.528 c -5.388,-5.105 -4.69,-6.874 -4.69,-14.366 0,-2.258 2.947,-2.041 4.937,-2.665 0,5.389 0.778,12.146 -0.247,17.031"
       inkscape:connector-curvature="0" /><path
       id="path11"
       d="m 182.893,163.762 c 0.089,-6.909 0.227,-13.822 0.248,-20.733 -33.971,7.494 -65.054,24.929 -100.775,24.929 -11.021,0 -22.188,-0.316 -33.126,-1.729 -4.65,-0.6 -28.091,-2.234 -29.618,-6.785 -0.573,-1.708 -0.864,-3.88 -0.864,-5.678 0,-4.759 5.213,-0.847 8.342,-0.097 10.278,2.466 20.808,3.977 31.324,4.965 31.407,2.953 60.093,-3.058 89.668,-13.136 25.576,-8.716 54.44,-19.22 81.945,-18.019 -0.635,6.743 -0.988,13.431 -0.988,20.202 0,3.283 -0.155,6.609 0.063,9.882 0.34,5.11 1.254,5.501 -3.765,6.938 -11.646,3.333 -31.087,3.335 -42.454,-0.739"
       inkscape:connector-curvature="0" /><path
       style="fill:#e4bc96"
       id="path13"
       d="m 83.425,105.512 c 3.754,-2.259 7.104,-4.935 10.736,-7.529 6.086,-4.346 15.705,-9.313 19.869,-15.549 2.417,-3.62 5.931,-6.808 8.64,-10.243 2.063,-2.617 3.784,-7.379 6.786,-9.379 2.709,-1.805 4.641,-11.563 6.047,-15.55 1.154,-3.278 2.342,-8.609 3.211,-12.835 0.74,-3.605 2.175,-8.631 2.714,-11.847 0.895,-5.339 -2.172,-12.839 0.74,-18.018 3.671,-6.53 12.869,1.409 17.277,4.442 -9.321,3.151 -6.562,11.824 -7.402,20.24 -1.512,15.085 -4.517,28.636 -13.329,41.218 -14.436,20.607 -38.031,42.397 -64.916,42.207 3.134,-1.936 7.359,-5.235 9.627,-7.157"
       inkscape:connector-curvature="0" /><path
       style="fill:#d59758"
       id="path15"
       d="m 62.691,117.358 c 16.673,-3.261 32.405,-5.557 47.022,-15.302 8.737,-5.825 16.331,-12.439 23.03,-20.571 3.357,-4.075 6.413,-8.276 9.457,-12.588 3.302,-4.678 2.531,-9.3 8.498,-6.516 3.291,1.535 6.583,3.072 9.873,4.608 2.104,0.982 -0.311,3.608 -1.113,5.376 -1.986,4.368 -4.515,8.572 -7.487,12.336 -6.413,8.124 -12.994,15.249 -20.825,22.036 -15.554,13.479 -37.618,19.013 -57.685,19.013 -8.798,0 -19.429,0.825 -27.553,-3.208 4.943,-1.173 13.251,-2.771 16.783,-5.184"
       inkscape:connector-curvature="0" /><path
       style="fill:#8b5c29"
       id="path17"
       d="m 18.264,136.856 c 3.32,-8.038 16.53,-14.404 25.176,-13.574 3.167,0.303 7.088,2.854 10.642,3.328 4.199,0.561 8.379,0.842 12.607,1.076 7.474,0.416 15.589,0.613 22.938,-0.857 34.975,-6.993 59.448,-28.743 74.755,-60.316 -4.967,-1.655 -9.701,-4.396 -14.436,-6.648 -3.547,-1.689 0.275,-8.106 1.232,-11.739 2.637,-10.025 1.814,-20.404 3.579,-30.483 1.514,-8.649 10.521,-7.696 18.354,-7.093 9.489,0.73 19.319,3.507 28.293,6.599 2.628,0.906 11.847,3.496 11.847,6.048 0,4.665 0.668,9.107 1.052,13.726 0.756,9.106 3.08,17.943 6.464,26.41 3.729,9.33 8.778,18.059 13.017,27.15 3.74,8.024 3.858,24.302 -1.525,31.813 -3.11,4.336 -7.283,3.444 -12.836,3.949 -5.115,0.465 -10.232,1.376 -15.302,2.221 -10.389,1.731 -20.757,3.71 -30.902,6.551 -18.244,5.105 -35.715,13.099 -54.214,17.365 -20.782,4.794 -41.199,6.094 -62.482,4.098 -10.479,-0.981 -21.179,-2.533 -31.346,-5.306 -6.64,-1.811 -9.879,-7.307 -6.913,-14.318"
       inkscape:connector-curvature="0" /><path
       id="path19"
       d="m 150.806,69.97 c 2.823,-0.398 2.934,-4.355 0,-4.197 -3.224,0.174 -2.128,4.029 0,4.197"
       inkscape:connector-curvature="0" /><path
       id="path21"
       d="m 145.871,79.101 c 2.832,-0.308 3.327,-4.244 0.248,-4.195 -3.494,0.054 -1.938,3.964 -0.248,4.195"
       inkscape:connector-curvature="0" /><path
       id="path23"
       d="m 139.205,88.234 c 2.835,-0.383 3.015,-4.296 0,-4.196 -3.127,0.103 -2.003,4.1 0,4.196"
       inkscape:connector-curvature="0" /><path
       id="path25"
       d="m 130.075,97.859 c 2.766,-0.377 3.006,-4.479 0,-4.196 -2.874,0.272 -2.415,3.62 0,4.196"
       inkscape:connector-curvature="0" /><path
       id="path27"
       d="m 118.72,106.746 c 2.61,-0.474 2.994,-4.199 0,-4.197 -2.991,0.003 -2.61,3.724 0,4.197"
       inkscape:connector-curvature="0" /><path
       id="path29"
       d="m 104.899,114.15 c 2.621,-0.061 3.156,-4.025 0.246,-4.196 -3.27,-0.193 -2.219,4.336 -0.246,4.196"
       inkscape:connector-curvature="0" /><path
       id="path31"
       d="m 89.101,119.579 c 2.558,-0.27 3.057,-4.172 0,-4.194 -3.19,-0.025 -2.244,4.058 0,4.194"
       inkscape:connector-curvature="0" /><path
       id="path33"
       d="m 74.786,121.802 c 3.16,-0.531 2.36,-3.838 -0.246,-3.209 -2.923,0.706 -1.721,3.064 0.246,3.209"
       inkscape:connector-curvature="0" /><path
       id="path35"
       d="m 61.706,121.802 c 2.452,-0.52 2.991,-2.962 0,-2.962 -2.958,0 -2.396,2.439 0,2.962"
       inkscape:connector-curvature="0" /><path
       id="path37"
       d="m 159.2,60.342 c 4.016,-0.16 5.15,-5.89 1.234,-7.158 -5.209,-1.684 -6.816,7.02 -1.234,7.158"
       inkscape:connector-curvature="0" /><path
       style="fill:#808080"
       id="path39"
       d="m 156.731,56.64 c 0.432,-2.129 3.828,-3.482 4.688,-0.987 1.258,3.641 -4.005,4.553 -4.688,0.987"
       inkscape:connector-curvature="0" /><path
       id="path41"
       d="m 162.162,48.99 c 4.259,0.444 5.332,-6.309 0.986,-7.159 -6,-1.174 -5.098,8.235 -0.986,7.159"
       inkscape:connector-curvature="0" /><path
       style="fill:#808080"
       id="path43"
       d="m 159.94,45.287 c 0.65,-2.326 4.485,-3.383 4.69,0 0.21,3.46 -4.55,3.065 -4.69,0"
       inkscape:connector-curvature="0" /><path
       id="path45"
       d="m 164.136,37.636 c 3.753,-0.247 5.341,-5.647 1.479,-7.158 -5.138,-2.01 -7.31,6.681 -1.479,7.158"
       inkscape:connector-curvature="0" /><path
       style="fill:#808080"
       id="path47"
       d="m 161.667,33.934 c 0.451,-2.044 3.951,-3.704 4.688,-0.987 1.109,4.079 -4.29,4.068 -4.688,0.987"
       inkscape:connector-curvature="0" /><path
       id="path49"
       d="m 164.136,25.788 c 3.948,0.295 5.206,-6.196 0.985,-7.157 -5.722,-1.305 -5.828,7.764 -0.985,7.157"
       inkscape:connector-curvature="0" /><path
       style="fill:#808080"
       id="path51"
       d="m 161.667,22.085 c 0.6,-2.359 4.337,-3.212 4.688,-0.246 0.394,3.311 -4.095,3.61 -4.688,0.246"
       inkscape:connector-curvature="0" /><path
       id="path53"
       d="m 76.02,119.087 c 0.208,-2.169 4.705,-13.895 1.729,-11.849 -2.771,1.907 -4.559,15.356 -1.729,11.849"
       inkscape:connector-curvature="0" /><path
       id="path55"
       d="m 63.186,119.826 c 0.607,-1.833 6.616,-6.972 1.604,-5.306 -2.372,0.787 -5.056,7.412 -1.604,5.306"
       inkscape:connector-curvature="0" /><path
       id="path57"
       d="m 90.089,115.138 c -0.704,-4.269 0.029,-8.404 -0.248,-12.589 -0.043,-0.656 1.482,-5.513 -0.986,-3.456 -2.445,2.039 -1.894,11.407 -0.988,14.07 0.672,1.975 0.457,4.747 2.222,1.975"
       inkscape:connector-curvature="0" /><path
       id="path59"
       d="m 85.153,111.682 c -1.298,-1.801 -7.406,-7.281 -5.431,-2.715 0.926,2.138 5.705,6.221 5.431,2.715"
       inkscape:connector-curvature="0" /><path
       id="path61"
       d="m 105.145,109.954 c -1.42,-5.14 -2.714,-11.183 -2.714,-16.538 0,-1.571 -0.634,-4.132 -1.974,-1.974 -2.128,3.426 1.874,13.288 2.344,17.031 0.343,2.73 1.764,3.76 2.344,1.481"
       inkscape:connector-curvature="0" /><path
       id="path63"
       d="m 98.728,106.746 c -1.458,-1.588 -11.039,-10.168 -9.133,-5.678 0.949,2.234 9.352,9.82 9.133,5.678"
       inkscape:connector-curvature="0" /><path
       id="path65"
       d="M 118.72,102.056 C 116.074,97.232 114.873,91.874 112.549,87 c -0.621,-1.302 -4.019,-5.884 -2.715,-1.975 1.82,5.454 3.781,10.626 6.048,15.919 1.042,2.435 2.515,3.685 2.838,1.112"
       inkscape:connector-curvature="0" /><path
       id="path67"
       d="m 111.809,98.846 c -1.646,-1.72 -12.284,-10.809 -10.118,-6.17 0.984,2.108 10.289,10.21 10.118,6.17"
       inkscape:connector-curvature="0" /><path
       id="path69"
       d="m 110.575,85.271 c 1.999,1.019 12.581,8.493 11.601,5.677 -0.9,-2.587 -13.075,-9.908 -11.601,-5.677"
       inkscape:connector-curvature="0" /><path
       id="path71"
       d="m 118.968,76.879 c 2.311,0.43 14.343,6.665 12.587,3.456 -1.351,-2.469 -8.287,-4.415 -10.86,-5.059 -2.961,-0.743 -2.419,0.884 -1.727,1.603"
       inkscape:connector-curvature="0" /><path
       id="path73"
       d="m 129.827,93.17 c -3.705,-4.609 -5.891,-10.033 -8.884,-15.056 -0.361,-0.605 -2.817,-6.336 -3.208,-2.469 -0.353,3.498 6.226,13.152 8.39,15.797 1.361,1.664 3.883,5.406 3.702,1.728"
       inkscape:connector-curvature="0" /><path
       id="path75"
       d="m 138.465,84.038 c -4.102,-3.889 -7.307,-8.73 -11.352,-12.588 -0.696,-0.664 -5.609,-4.351 -3.087,-0.987 3.552,4.737 7.273,9.126 11.478,13.329 1.695,1.693 3.531,3.084 2.961,0.246"
       inkscape:connector-curvature="0" /><path
       id="path77"
       d="m 136.246,73.917 c -1.74,-0.97 -14.264,-7.42 -11.85,-3.455 1.094,1.795 13.416,7.698 11.85,3.455"
       inkscape:connector-curvature="0" /><path
       id="path79"
       d="m 142.663,65.279 c -1.857,-0.744 -15.42,-6.804 -12.342,-2.961 1.437,1.793 14.176,7.132 12.342,2.961"
       inkscape:connector-curvature="0" /><path
       id="path81"
       d="m 144.636,74.659 c -4.228,-3.543 -7.477,-8.571 -11.847,-11.848 -0.543,-0.407 -5.644,-3.895 -3.085,-0.493 3.334,4.432 7.71,8.917 11.972,12.464 1.998,1.664 3.347,2.44 2.96,-0.123"
       inkscape:connector-curvature="0" /><path
       id="path83"
       d="m 149.327,65.773 c -5.431,-2.823 -9.297,-7.982 -14.315,-11.354 -1.048,-0.704 -6.382,-3.424 -3.209,-0.247 3.96,3.965 8.969,8.79 13.822,11.6 2.193,1.271 5.304,3.116 3.702,10e-4"
       inkscape:connector-curvature="0" /><path
       id="path85"
       d="m 155.992,55.9 c -6.028,-1.959 -12.924,-5.424 -19.254,-5.924 -2.093,-0.165 -7.001,0.935 -2.962,1.604 6.111,1.013 12.251,2.753 18.019,5.061 2.304,0.921 6.149,2.625 4.197,-0.741"
       inkscape:connector-curvature="0" /><path
       id="path87"
       d="m 159.694,46.274 c -2.994,-0.359 -24.767,-3.292 -24.931,-0.494 -0.109,1.867 14.083,6.727 16.292,7.282 4.324,1.083 9.788,2.828 2.96,-0.864 -4.122,-2.228 -8.799,-3.51 -13.081,-5.43 5.589,0.552 11.391,0.253 16.908,1.358 2.387,0.477 3.119,-0.17 1.852,-1.852"
       inkscape:connector-curvature="0" /><path
       id="path89"
       d="m 161.667,34.426 c -4.08,0.02 -19.894,-4.385 -23.447,-1.479 -3.194,2.611 7.22,5.861 9.908,7.085 1.321,0.6 14.633,5.704 12.551,2.788 -1.13,-1.583 -6.094,-2.06 -7.898,-2.963 -3.556,-1.781 -7.337,-3.047 -10.858,-4.936 5.373,0.084 11.502,1.785 16.783,1.234 2.236,-0.234 4.854,0.902 2.961,-1.729"
       inkscape:connector-curvature="0" /><path
       id="path91"
       d="m 161.914,23.319 c -3.809,-0.24 -18.501,-4.024 -21.226,-1.48 -2.712,2.534 6.879,5.574 9.379,6.664 1.268,0.553 14.568,5.909 11.847,2.468 -2.37,-2.997 -13.377,-4.899 -17.277,-7.157 5.096,0.476 10.398,0.351 15.426,1.358 2.343,0.469 3.021,-0.418 1.851,-1.853"
       inkscape:connector-curvature="0" /><path
       id="path93"
       d="m 161.419,19.125 c -6.082,-0.372 -12.315,-0.553 -18.388,0.123 -2.008,0.224 -5.309,1.117 -2.592,2.345 2.956,1.336 13.72,-0.522 17.277,-0.741 2.103,-0.13 6.386,0.723 3.703,-1.727"
       inkscape:connector-curvature="0" /></g></svg>