<?xml version="1.0" encoding="UTF-8" standalone="no"?>
<!-- Generator: Adobe Illustrator 12.0.1, SVG Export Plug-In . SVG Version: 6.00 Build 51448)  -->

<svg
   xmlns:dc="http://purl.org/dc/elements/1.1/"
   xmlns:cc="http://creativecommons.org/ns#"
   xmlns:rdf="http://www.w3.org/1999/02/22-rdf-syntax-ns#"
   xmlns:svg="http://www.w3.org/2000/svg"
   xmlns="http://www.w3.org/2000/svg"
   xmlns:sodipodi="http://sodipodi.sourceforge.net/DTD/sodipodi-0.dtd"
   xmlns:inkscape="http://www.inkscape.org/namespaces/inkscape"
   version="1.1"
   id="Layer_1"
   width="75.576019"
   height="128"
   viewBox="0 0 75.576017 128"
   overflow="visible"
   enable-background="new 0 0 243.389 412.216"
   xml:space="preserve"
   sodipodi:docname="jump_rope.svg"
   inkscape:version="0.92.2 (5c3e80d, 2017-08-06)"
   style="overflow:visible"><metadata
     id="metadata163"><rdf:RDF><cc:Work
         rdf:about=""><dc:format>image/svg+xml</dc:format><dc:type
           rdf:resource="http://purl.org/dc/dcmitype/StillImage" /><dc:title></dc:title><cc:license
           rdf:resource="http://creativecommons.org/publicdomain/zero/1.0/" /></cc:Work><cc:License
         rdf:about="http://creativecommons.org/publicdomain/zero/1.0/"><cc:permits
           rdf:resource="http://creativecommons.org/ns#Reproduction" /><cc:permits
           rdf:resource="http://creativecommons.org/ns#Distribution" /><cc:permits
           rdf:resource="http://creativecommons.org/ns#DerivativeWorks" /></cc:License></rdf:RDF></metadata><defs
     id="defs161" /><sodipodi:namedview
     pagecolor="#ffffff"
     bordercolor="#666666"
     borderopacity="1"
     objecttolerance="10"
     gridtolerance="10"
     guidetolerance="10"
     inkscape:pageopacity="0"
     inkscape:pageshadow="2"
     inkscape:window-width="1920"
     inkscape:window-height="1025"
     id="namedview159"
     showgrid="false"
     inkscape:zoom="3.238636"
     inkscape:cx="71.522483"
     inkscape:cy="61.792195"
     inkscape:window-x="-8"
     inkscape:window-y="-8"
     inkscape:window-maximized="1"
     inkscape:current-layer="Layer_1"
     fit-margin-top="0"
     fit-margin-left="0"
     fit-margin-right="0"
     fit-margin-bottom="0" /><g
     id="g156"
     transform="matrix(0.31051673,0,0,0.31051673,-3.3962557e-4,-3.4531558e-5)"><polyline
       points="129.163,381.662 136.577,376.983 145.5,378.423 150.973,379.288 154.426,381.015 146.94,390.227    140.319,387.925 135.137,387.061 127.651,385.908  "
       id="polyline2"
       style="fill:#ffffff" /><polyline
       points="39.191,176.889 45.827,177.946 43.15,182.646 38.112,183.726 39.191,176.889  "
       id="polyline4"
       style="fill:#fccbaf" /><polyline
       points="13.064,161.485 19.182,157.886 25.66,159.326 31.418,161.485 36.457,162.925 43.294,164.004    47.973,167.603 47.973,172.642 46.893,175.161 43.294,178.04 38.976,177.32 32.498,175.161 21.341,172.282 15.943,171.562    13.784,169.402 11.984,164.004 13.064,161.485  "
       id="polyline6"
       style="fill:#00a650" /><polyline
       points="18.678,170.051 23.356,170.411 26.955,170.051 31.274,171.13 34.513,175.809 32.713,182.287    29.834,184.086 25.156,182.646 20.837,183.511 19.686,182.072 19.397,178.903 19.038,171.13  "
       id="polyline8"
       style="fill:#fccbaf" /><path
       d="m 122.325,349.992 8.277,2.52 7.559,2.159 11.156,-0.72 3.959,-1.079 1.439,6.117 3.598,7.558 -0.359,8.277 -0.721,4.319 -2.158,1.079 c 0,0 -12.271,-6.745 -25.912,1.439 -3.598,2.159 -1.439,0.72 -1.439,0.72 l -2.952,-3.672 0.793,-6.045 v -7.197 l -2.159,-3.959 -1.44,-5.398 0.72,-4.679"
       id="path10"
       inkscape:connector-curvature="0"
       style="fill:#f26649" /><polyline
       points="194.663,161.773 192.502,154.936 200.538,146.177 207.401,144.354 222.012,138.741    230.651,145.579 228.491,150.977 223.452,157.095 200.78,165.659  "
       id="polyline12"
       style="fill:#00a650" /><path
       d="m 114.228,104.912 c -5.758,-0.09 -6.507,2.959 -9.357,2.969 -5.635,0.02 -6.478,-3.239 -14.575,-0.45 -2.827,0.975 -9.177,5.758 -9.177,5.758 l -7.019,19.074 -7.917,19.614 -2.159,7.018 23.212,12.146 -6.117,30.68 0.539,6.838 12.597,5.758 7.197,2.879 11.517,2.591 20.154,1.728 18.715,-4.319 13.242,-7.198 -0.646,-34.369 -2.34,-5.398 0.721,-6.298 h 10.076 l 6.658,-8.097 -7.199,-20.874 -4.139,-19.254 -9.355,-8.277 -8.998,-1.259 -7.377,-0.18 -15.115,14.036 -5.758,0.72 -7.774,-6.911 c -0.003,-0.001 4.712,-8.859 0.394,-8.925"
       id="path14"
       inkscape:connector-curvature="0"
       style="fill:#fec87b" /><path
       d="m 87.775,154.756 c 0,0 36.35,14.575 75.397,1.979 l -1.08,8.817 -0.18,7.737 -0.541,3.599 c 0,0 -36.527,10.796 -73.236,-0.9 l -1.8,-6.478 0.54,-7.558 0.9,-7.196"
       id="path16"
       inkscape:connector-curvature="0"
       style="fill:#6098d1" /><polyline
       points="80.578,209.818 101.451,216.116 121.965,220.435 141.758,220.254 156.155,215.756    162.631,213.776 165.331,232.49 161.733,265.239 161.624,292.338 164.252,320.842 163.532,346.034 148.057,354.491 134.92,354.671    118.007,347.113 116.207,333.438 114.407,316.523 119.878,302.415 117.287,288.595 110.27,294.391 98.393,299.789 84.356,297.449    72.84,291.331 63.843,272.077 66.902,258.942 70.934,254.335 74.46,235.189 78.958,223.133 80.578,209.818  "
       id="polyline18"
       style="fill:#6098d1" /><polyline
       points="103.61,50.929 119.446,40.133 136.721,37.253 153.995,44.451 160.473,56.688 165.51,69.643    166.709,77.799 159.034,84.758 158.313,83.798 151.116,98.434 144.637,103.472 140.319,107.071 139.6,112.829 131.106,119.019    127.364,120.027 120.166,119.307 115.848,115.708 113.688,109.95 116.424,106.351 108.889,101.072 104.33,94.835 101.451,88.355    100.252,85.237 94.254,81.159 92.335,75.64 96.893,67.243 100.731,61.726 103.61,50.929  "
       id="polyline20"
       style="fill:#fccbaf" /><path
       d="m 139.838,71.081 c 3.375,0 6.35,-0.979 6.35,-2.758 0,-1.78 -2.736,-3.479 -6.111,-3.479 -3.371,0 -7.348,2.449 -6.234,3.839 0.956,1.199 2.624,2.398 5.995,2.398"
       id="path22"
       inkscape:connector-curvature="0"
       style="fill:#ffffff" /><path
       d="m 116.356,71.353 c 3.374,0 6.347,-0.98 6.347,-2.76 0,-1.779 -2.734,-3.478 -6.106,-3.478 -3.373,0 -7.351,2.449 -6.237,3.837 0.957,1.201 2.623,2.401 5.996,2.401"
       id="path24"
       inkscape:connector-curvature="0"
       style="fill:#ffffff" /><polyline
       points="68.342,162.493 76.89,166.092 85.041,167.963 86.876,181.117 83.313,191.859 74.819,194.163    61.864,191.284 46.749,182.646 45.022,179.768 46.749,172.57 45.31,167.531 38.112,163.933 34.945,162.205 29.475,158.354    29.115,152.866 32.713,151.337 35.232,154.576 40.451,157.185 48.908,159.614 52.22,162.493 56.826,163.933 66.902,167.711    66.183,161.773  "
       id="polyline26"
       style="fill:#fccbaf" /><polyline
       points="199.051,166.812 200.78,165.659 207.401,162.396 204.522,156.16 200.78,156.447 197.038,162.205    198.62,163.933  "
       id="polyline28"
       style="fill:#fccbaf" /><polyline
       points="215.174,153.856 218.055,152.417 219.495,154.576 221.653,158.894 218.34,163.357    214.022,161.054 212.872,156.16  "
       id="polyline30"
       style="fill:#fccbaf" /><polyline
       points="200.204,144.931 198.764,142.051 214.887,133.702 217.573,135.381 214.456,140.66    200.538,146.177  "
       id="polyline32"
       style="fill:#fccbaf" /><polyline
       points="176.883,161.628 177.747,164.219 191.422,157.455 195.022,163.933 205.385,165.084    202.219,172.57 193.583,184.086 183.983,191.763 174.149,197.042 166.231,198.481 164.792,189.844 161.67,180.487 161.913,166.571    176.883,161.628  "
       id="polyline34"
       style="fill:#fccbaf" /><path
       d="m 111.528,0.977 c 0.287,0.863 0,1.439 -0.576,1.728 -9.213,-1.728 -17.274,3.741 -22.744,10.077 -0.864,0.287 -1.439,0 -1.728,-0.575 3.167,-7.775 11.229,-10.655 18.714,-12.094 2.016,0.287 5.182,-0.863 6.334,0.864"
       id="path36"
       inkscape:connector-curvature="0" /><path
       d="m 110.665,11.342 c -1.439,4.03 -7.198,1.151 -9.789,4.03 -2.592,2.015 -5.471,5.182 -7.773,6.046 -1.729,-0.864 -0.288,-2.304 0.288,-3.167 4.03,-4.895 9.788,-7.487 16.122,-7.774 l 1.152,0.865"
       id="path38"
       inkscape:connector-curvature="0" /><path
       d="m 196.809,23.557 c -0.713,0.562 -1.354,0.488 -1.82,0.042 -1.49,-9.254 -9.367,-14.987 -17.178,-17.992 -0.561,-0.715 -0.486,-1.356 -0.043,-1.822 8.387,0.35 13.824,6.961 17.711,13.518 0.412,1.996 2.566,4.585 1.33,6.254"
       id="path40"
       inkscape:connector-curvature="0" /><path
       d="m 186.764,26.252 c -4.279,0.008 -3.518,-6.384 -7.105,-7.847 -2.771,-1.756 -6.729,-3.395 -8.318,-5.271 0.227,-1.917 2.068,-1.049 3.076,-0.8 5.971,2.135 10.357,6.677 12.771,12.541 l -0.424,1.377"
       id="path42"
       inkscape:connector-curvature="0" /><path
       d="m 141.471,18.251 c 5.758,-1.727 8.926,2.592 13.82,4.894 4.318,2.879 4.893,7.486 6.332,11.516 4.895,1.153 6.623,6.046 8.639,10.077 1.439,4.894 0.863,10.365 -0.865,14.109 3.744,5.47 -5.758,8.637 -1.439,14.107 -0.287,4.319 -2.016,10.077 -7.197,11.805 -1.727,0.287 -3.455,-0.865 -2.016,-2.592 2.879,0.864 4.031,-2.301 5.758,-4.03 0.865,-2.59 1.439,-4.032 0.576,-6.908 -0.287,-1.442 -2.016,-2.879 -3.455,-3.744 -4.605,-1.439 -4.605,6.62 -8.924,4.894 1.439,-4.029 1.439,-9.5 2.592,-13.531 -0.289,-2.879 -4.033,-4.319 -4.609,-6.911 -1.148,0.288 -2.588,2.015 -3.742,0.288 1.439,-4.894 -4.318,-6.046 -6.045,-8.637 -3.742,2.304 -7.197,9.501 -12.381,8.062 0.865,-2.304 1.729,-5.471 -0.287,-7.486 -4.031,3.454 -8.349,9.5 -13.82,8.061 0,-0.575 -0.288,-1.439 0.287,-1.728 -1.439,-0.864 -3.454,0.865 -5.182,1.728 -2.303,1.727 -4.606,3.456 -5.183,6.335 0.576,3.742 2.017,9.5 -2.015,12.091 -2.304,1.728 -3.455,-3.741 -5.759,-0.864 -2.015,2.592 -3.742,5.471 -2.591,8.637 1.151,1.729 2.591,4.608 4.895,4.896 2.591,-0.578 2.879,0.864 4.03,2.304 -0.575,8.06 5.759,14.682 12.669,18.136 1.728,1.153 5.183,0.865 5.47,3.457 -2.017,0.862 -2.879,0 -4.605,-0.865 -1.729,2.304 -0.576,4.894 -0.29,7.485 3.456,5.183 9.214,5.758 14.972,5.183 3.168,-2.016 7.486,-4.031 8.061,-8.349 h 1.729 c 1.439,2.304 -0.576,4.03 -1.729,5.758 -4.318,4.605 -11.227,6.045 -17.561,4.319 -3.455,-0.865 -6.621,-3.454 -7.774,-6.911 -0.863,-2.879 -0.576,-5.47 0.288,-8.06 -8.062,-3.169 -12.668,-11.517 -13.531,-19.58 -3.167,-0.863 -6.91,-2.303 -8.35,-5.757 -2.016,-4.894 -0.287,-8.637 2.879,-12.669 0.288,-5.758 -4.318,-8.349 -5.47,-13.531 -0.864,-2.879 0.287,-4.608 0.864,-7.198 0.287,-2.591 5.182,-2.016 3.166,-4.605 -0.575,-3.457 2.592,-7.775 5.758,-9.79 2.88,-1.729 8.351,-0.576 8.062,-5.183 5.758,-8.062 15.835,-12.38 25.335,-9.789 2.88,2.016 5.183,2.304 8.638,0.576"
       id="path44"
       inkscape:connector-curvature="0" /><path
       d="m 147.516,62.013 c -0.287,0 -0.287,0.578 -0.287,0.864 -2.879,-0.576 -5.758,-3.744 -9.789,-2.016 -1.152,0.287 -2.303,1.729 -3.742,0.576 -0.289,-1.151 1.439,-2.591 2.59,-2.591 4.031,-1.152 8.925,-1.727 11.228,3.167"
       id="path46"
       inkscape:connector-curvature="0" /><path
       d="m 122.469,62.301 c -3.166,-0.288 -8.35,-3.167 -11.229,0.29 -0.575,0 -1.728,0.287 -1.728,-0.578 0.863,-2.015 3.742,-3.744 6.621,-3.454 2.305,1.152 6.049,-0.29 6.336,3.742"
       id="path48"
       inkscape:connector-curvature="0" /><path
       d="m 146.077,67.484 v 2.014 c -2.016,-0.863 -3.455,0.577 -5.471,1.44 -1.727,0 -3.166,-1.153 -3.166,-3.167 -1.727,0 -1.727,2.879 -3.742,1.439 -0.576,-2.591 2.59,-4.03 4.318,-4.894 2.59,-1.151 6.334,0.864 8.061,3.168"
       id="path50"
       inkscape:connector-curvature="0" /><path
       d="m 122.564,67.723 v 2.016 c -2.015,-0.865 -3.454,0.575 -5.469,1.439 -1.729,0 -3.169,-1.151 -3.169,-3.167 -1.727,0 -1.727,2.879 -3.742,1.44 -0.576,-2.591 2.593,-4.031 4.318,-4.895 2.594,-1.152 6.336,0.864 8.062,3.167"
       id="path52"
       inkscape:connector-curvature="0" /><path
       d="m 160.76,77.847 c -1.15,1.153 -2.016,0 -2.879,-0.288 0.863,-1.726 0,-4.318 1.729,-5.182 2.59,0.864 1.15,3.744 1.15,5.47"
       id="path54"
       inkscape:connector-curvature="0" /><path
       d="M 99.436,79.287 C 98.573,79 97.421,79.575 97.133,78.422 c 0.576,-1.437 -0.288,-4.029 2.016,-4.319 1.727,1.443 -0.289,3.456 0.287,5.184"
       id="path56"
       inkscape:connector-curvature="0" /><path
       d="m 135.713,79.865 c -1.439,2.301 -4.32,3.454 -7.199,3.454 -2.303,0 -5.469,-0.865 -6.622,-3.454 v -1.153 c 3.168,0.575 5.471,4.029 9.213,2.303 1.44,-1.15 5.183,-5.759 4.608,-1.15"
       id="path58"
       inkscape:connector-curvature="0" /><path
       d="m 119.878,87.924 c -0.288,0.289 -1.728,0.865 -0.575,1.728 5.469,2.591 12.379,2.016 17.561,-0.863 0.863,-1.151 -0.576,-4.895 2.016,-4.03 0.287,2.591 1.727,5.183 4.318,6.623 0,0.575 -0.287,1.15 -0.863,1.727 -1.729,0.288 -2.592,-1.727 -4.031,-1.727 -0.863,4.029 -5.471,6.908 -8.924,7.484 -6.334,0.575 -9.79,-4.605 -13.246,-8.35 -1.439,0.288 -3.454,0.866 -4.894,0 0.575,-2.013 3.454,-1.151 4.894,-2.591 1.439,-0.864 2.593,-4.318 4.608,-2.591 l -0.864,2.59"
       id="path60"
       inkscape:connector-curvature="0" /><path
       d="m 133.409,93.396 c -1.727,2.879 -5.758,3.166 -8.348,2.304 l -2.016,-1.729 c 0.576,-0.863 2.016,-0.288 3.166,0 2.592,-0.575 4.608,0.289 7.198,-0.575"
       id="path62"
       inkscape:connector-curvature="0"
       style="fill:#ffffff" /><path
       d="m 104.33,107.502 c -1.727,2.015 -3.166,-0.576 -5.182,0 -5.758,0.575 -11.805,0.863 -15.835,5.758 -0.863,0.288 -1.152,-0.287 -1.728,-0.576 0.288,-2.879 3.743,-3.167 5.183,-5.182 5.183,-1.726 12.668,-3.743 17.562,0"
       id="path64"
       inkscape:connector-curvature="0" /><path
       d="m 109.226,112.109 c -1.152,6.333 2.303,12.091 7.484,14.97 2.303,2.016 7.774,0.29 7.774,4.031 -3.742,1.439 -6.911,-1.44 -10.365,-2.591 -6.333,-4.318 -8.35,-10.94 -7.772,-17.562 0.287,-2.014 1.439,-3.454 2.59,-5.18 3.168,1.149 -0.288,4.028 0.289,6.332"
       id="path66"
       inkscape:connector-curvature="0" /><path
       d="m 168.247,114.7 c 1.439,4.894 5.469,9.212 3.742,14.108 -0.287,0.862 -0.863,0.287 -1.152,0.575 -2.014,-2.015 -1.15,-3.744 -1.727,-6.046 -2.016,-6.045 -5.471,-13.243 -12.668,-14.682 -2.881,-0.864 -5.76,0.287 -8.062,-1.439 l 0.289,-1.439 c 8.062,-0.865 15.833,1.725 19.578,8.923"
       id="path68"
       inkscape:connector-curvature="0" /><path
       d="m 144.924,120.747 c -2.59,5.183 -8.061,8.924 -13.242,10.364 -1.439,0 -3.168,0.288 -4.031,-1.151 0,-2.59 3.455,-0.575 4.607,-1.728 3.742,-1.726 7.773,-3.741 9.787,-7.484 0.289,-2.879 2.592,-5.758 0.576,-8.637 l 1.729,-1.439 c 2.879,2.302 0.863,6.907 0.574,10.075"
       id="path70"
       inkscape:connector-curvature="0" /><path
       d="m 81.874,114.988 c -6.046,7.773 -6.91,17.85 -9.501,27.063 -0.864,-0.287 -1.439,-0.287 -1.728,-1.151 2.015,-9.501 3.167,-19.867 9.789,-27.064 l 1.44,1.152"
       id="path72"
       inkscape:connector-curvature="0" /><path
       d="m 174.292,138.021 c 1.439,4.605 3.455,9.212 4.607,13.82 -0.289,0.287 -1.152,1.439 -2.016,0.575 -2.592,-6.623 -6.047,-12.956 -6.047,-20.729 l 0.865,-1.153 c 2.303,2.016 1.151,5.183 2.591,7.487"
       id="path74"
       inkscape:connector-curvature="0" /><path
       d="m 218.631,135.142 v 2.304 c 7.484,-2.304 9.5,7.197 16.408,6.333 7.773,4.894 7.199,14.395 7.486,22.168 -0.287,1.151 -1.727,0.864 -2.303,0.29 l -0.863,-0.578 c 0.287,-7.485 0.863,-16.122 -6.334,-20.154 -0.576,0 -1.152,0.288 -1.439,-0.287 0.287,4.318 -2.879,7.772 -6.047,10.651 -0.863,0.29 -1.727,-0.288 -2.303,-1.149 2.592,-2.304 6.334,-5.758 4.895,-9.79 -0.863,-1.727 -2.016,-3.744 -3.742,-4.319 -4.033,0.288 -8.637,-0.865 -11.23,2.592 -2.016,-0.29 -3.455,2.879 -5.758,1.15 -4.318,2.879 -10.363,4.608 -12.379,9.789 -0.576,2.592 -1.152,6.623 2.016,8.062 1.15,-2.016 1.439,-4.605 3.742,-5.758 2.016,1.153 -0.576,3.167 -0.576,4.607 0,1.44 -0.863,3.454 0.576,4.605 2.016,0 2.303,-2.015 3.166,-3.166 1.439,-2.304 -1.727,-4.607 0.576,-6.333 2.303,1.726 4.607,-2.304 6.91,-1.439 l 1.439,1.439 c 0.576,-1.439 2.016,-3.169 3.166,-4.032 1.154,-0.864 2.879,-0.287 3.742,0.863 -0.863,1.439 -3.453,0.865 -3.742,3.169 -0.576,1.726 -0.576,3.741 1.439,4.894 4.32,0 0.578,-9.502 4.607,-4.032 1.439,3.167 -2.014,4.896 -3.744,6.336 -1.727,0 -3.166,-0.864 -4.318,-2.304 -1.727,2.014 -1.439,4.894 -4.029,6.333 -2.016,0.29 -3.455,-0.575 -4.607,-2.303 -1.15,2.592 -4.318,4.032 -6.334,1.728 -2.303,-2.592 -6.045,-2.879 -6.908,-6.333 -3.168,-8.062 6.334,-11.516 6.621,-18.427 2.016,-4.605 6.91,-3.744 10.076,-6.909 0.576,0.287 1.152,0.287 1.729,1.151 -2.592,3.742 -9.213,3.167 -10.365,8.637 2.303,0 5.182,-1.727 7.773,-2.304 2.879,-1.727 6.91,-1.439 8.35,-5.47 0,-1.439 0,-2.879 -1.439,-3.454 -1.729,-0.288 -2.879,3.166 -4.318,1.151 0.287,-1.726 1.439,-2.591 2.879,-3.166 2.589,-0.577 4.317,1.727 5.182,3.455"
       id="path76"
       inkscape:connector-curvature="0" /><path
       d="m 164.502,135.142 c 1.439,10.651 0.289,17.849 -0.287,28.215 5.182,1.44 9.789,-1.729 12.955,-5.758 0.863,-1.153 -0.287,-2.879 1.152,-3.744 1.439,0.865 2.303,2.879 1.439,4.318 -1.439,1.151 -1.729,3.166 0.287,4.031 3.457,-0.577 6.336,-5.184 9.215,-3.456 -1.154,3.456 -6.047,3.456 -8.639,6.048 -4.318,3.166 -8.637,7.198 -12.955,9.787 l -0.863,-0.863 c 3.166,-4.03 7.197,-6.334 10.939,-9.502 -0.863,-0.575 0,-1.726 -0.863,-2.591 -3.455,3.456 -8.061,5.183 -12.955,4.895 -3.168,2.015 2.014,8.061 -3.168,6.911 -1.727,-4.608 1.729,-9.79 0.863,-15.548 1.439,-7.774 0.865,-14.972 0,-23.033 l 0.865,-1.726 c 1.152,0.001 1.441,1.151 2.015,2.016"
       id="path78"
       inkscape:connector-curvature="0" /><path
       d="m 91.374,139.747 c -3.454,8.926 -4.03,20.154 -3.454,29.944 -2.016,1.151 0.575,1.726 0.288,3.166 0.863,8.637 -1.439,16.7 -3.455,24.472 -0.576,0.288 -1.151,0.865 -1.728,0.578 -1.439,-1.729 -0.288,-4.318 0.288,-6.047 2.591,-7.198 4.03,-14.97 1.439,-22.457 0.576,-0.287 0.288,-0.864 0.288,-1.439 l -0.288,-0.287 c -1.151,2.015 -3.167,0.287 -4.895,0.287 -0.863,-1.151 -2.016,-1.439 -3.167,-0.576 l -7.773,-3.167 c -0.864,0.865 -0.864,1.728 -0.864,2.592 4.606,2.879 8.925,5.758 13.532,8.349 l -1.151,1.153 c -8.925,-3.457 -16.411,-10.654 -26.775,-10.654 -0.576,0.288 -0.288,1.152 -1.152,1.728 -2.303,0 -1.439,-2.589 -2.015,-4.029 -4.606,-6.623 -13.531,-3.457 -17.274,-10.654 -0.576,-0.575 -1.727,-0.287 -2.303,-0.287 -0.863,1.439 -1.727,3.166 -0.863,4.605 0.863,3.457 6.621,0.865 4.895,5.184 4.318,2.014 10.077,0.863 12.667,6.046 1.728,2.879 1.439,5.758 0.576,8.638 l -3.167,2.879 c 9.789,9.789 23.32,14.396 36.852,10.652 -0.288,0.864 0.576,1.151 0.863,1.729 -8.349,5.468 -18.138,2.015 -26.487,-1.153 -3.743,-3.456 -8.637,-4.895 -11.516,-9.502 0,-0.575 0,-1.151 0.576,-1.439 -0.863,-0.575 -2.303,-0.862 -2.016,-2.014 3.167,-1.44 2.879,-5.47 2.304,-8.349 -2.304,-5.183 -8.637,-2.592 -12.38,-5.183 -5.47,-1.44 -10.94,-6.046 -16.986,-2.879 -2.303,1.439 -2.303,4.031 -3.167,6.334 0.576,2.015 1.439,4.032 4.031,3.742 l 0.287,0.29 c 0.864,-2.018 2.015,-4.896 5.183,-3.457 1.151,0 1.728,1.439 3.167,1.153 2.591,-3.744 6.045,1.439 8.637,-0.575 1.727,-0.578 3.167,0.575 4.606,1.15 1.728,3.456 2.591,8.349 0.864,11.806 -1.439,2.301 -4.03,4.605 -6.91,3.166 -1.152,-2.879 -4.895,1.439 -4.895,-2.304 2.016,-0.575 3.743,-1.727 4.031,-4.031 -0.288,-2.879 1.439,-7.486 -2.591,-8.061 -1.151,-0.287 -2.591,0 -2.591,1.153 1.151,2.879 1.151,7.197 -0.289,9.787 -1.439,1.439 -3.742,2.591 -5.758,1.729 -0.288,-0.29 -1.151,-0.865 -1.151,-1.439 1.439,-1.153 5.47,0 5.47,-3.457 -0.576,-2.591 0.577,-6.91 -2.879,-7.772 -2.879,-0.865 -1.727,2.303 -2.303,3.742 0,1.439 1.439,3.456 -0.577,4.318 -0.863,0 -1.439,-0.575 -1.727,-1.728 v -3.741 c -1.44,1.15 -4.031,0 -5.183,-1.729 -2.304,-2.303 -1.151,-5.182 -1.151,-8.348 -2.592,-0.864 -4.607,2.879 -5.758,4.605 -5.182,17.274 -2.303,37.428 1.439,54.991 0.288,2.015 2.303,4.605 0.576,6.045 -1.728,0.865 -2.015,-0.865 -2.303,-2.015 0,-3.456 -2.591,-6.334 -2.015,-9.501 -1.152,-9.212 -3.743,-19.001 -3.167,-27.352 0,-9.212 -1.727,-23.032 8.637,-29.077 5.471,0.575 10.365,-4.894 15.835,-2.304 1.439,0.29 3.455,1.151 4.895,0.865 -2.015,-2.304 -2.303,-4.894 -1.151,-7.773 0.864,-2.017 4.318,-1.729 6.046,-0.865 3.742,8.062 13.819,3.744 17.85,11.517 4.318,1.151 8.637,1.726 12.667,3.454 5.183,-4.029 -3.743,-6.046 -1.727,-10.365 l 5.758,-11.803 h 0.863 c 2.304,6.045 -8.637,10.941 -1.727,16.122 2.591,4.032 7.774,2.592 10.653,6.336 2.303,-0.29 4.318,-1.729 6.334,0.287 1.151,-9.502 -0.576,-21.018 5.471,-27.928 l 0.861,1.147"
       id="path80"
       inkscape:connector-curvature="0" /><path
       d="m 210.569,157.6 c 0.574,2.301 0.574,5.18 -1.439,6.908 -1.152,0.29 -1.152,-1.44 -1.439,-2.015 0.286,-1.727 0.286,-5.183 2.878,-4.893"
       id="path82"
       inkscape:connector-curvature="0"
       style="fill:#fccbaf" /><path
       d="m 243.389,169.691 c -2.879,33.684 -13.242,64.491 -27.352,93.281 -12.955,19.003 -25.91,39.443 -44.049,54.991 l -4.607,2.591 c -2.59,-4.03 3.168,-3.743 4.607,-5.758 25.912,-26.488 47.791,-55.279 56.719,-89.251 5.758,-17.851 11.227,-36.565 11.803,-56.142 -0.576,-2.88 2.879,-1.44 2.879,0.288"
       id="path84"
       inkscape:connector-curvature="0" /><path
       d="m 203.659,170.266 c -2.016,6.623 -6.621,13.532 -12.955,16.7 -0.289,0 -0.576,-0.289 -0.576,-0.289 4.605,-5.183 9.5,-10.653 11.229,-17.274 0.862,-0.001 2.015,-0.001 2.302,0.863"
       id="path86"
       inkscape:connector-curvature="0" /><path
       d="m 38.112,176.024 c 0.288,2.591 -0.288,4.895 -2.591,6.91 h -2.016 c 2.304,-2.015 0.865,-19.001 4.607,-6.91"
       id="path88"
       inkscape:connector-curvature="0"
       style="fill:#fccbaf" /><path
       d="m 163.063,182.072 c 2.879,4.605 -0.863,17.561 8.639,13.531 5.758,-1.153 10.941,-3.744 15.26,-8.637 0.863,-0.289 1.439,0.575 2.014,1.151 -2.014,3.742 -6.623,5.182 -10.076,7.772 -4.031,1.153 -7.773,3.457 -12.668,2.592 -1.729,4.03 0.863,6.91 -0.576,11.228 -0.863,0.288 -1.727,1.439 -2.592,0.288 0.576,-10.365 -0.574,-20.728 -3.166,-30.23 l 1.152,-4.319 c 2.589,1.152 0.574,4.894 2.013,6.624"
       id="path90"
       inkscape:connector-curvature="0" /><path
       d="m 82.737,206.544 c 6.622,7.484 16.987,8.059 26.488,9.499 1.15,0.865 0,1.728 -0.576,2.304 -9.501,-0.864 -18.715,-2.016 -25.912,-7.484 -3.167,3.454 -3.455,10.363 -1.151,14.396 l -1.151,1.15 c 0,-0.575 -0.576,-0.288 -0.864,-0.288 -7.197,13.244 -7.197,31.669 -2.879,46.065 l -0.863,1.152 c -3.743,-5.471 -4.319,-12.381 -4.895,-19.002 -4.895,5.758 -6.334,13.819 -4.607,21.304 1.152,9.502 10.077,18.139 18.714,20.731 8.35,2.304 18.138,2.591 24.472,-3.744 3.455,-2.589 5.758,-6.908 8.638,-9.5 3.455,3.167 0.576,8.925 2.592,12.669 0.287,4.029 3.166,7.484 2.59,11.517 -0.287,0.574 -1.15,0.861 -1.727,0.286 -1.728,-1.439 -0.863,-3.455 -1.728,-5.183 -4.318,10.364 -3.744,24.76 -1.728,35.413 6.91,6.908 16.698,9.79 26.2,8.351 1.439,0.575 0.287,1.439 0,2.015 -3.744,1.726 -8.062,1.151 -12.092,0.575 -4.895,-1.729 -9.79,-3.454 -14.108,-6.908 -0.863,5.758 6.621,7.484 10.364,9.499 10.941,3.743 25.912,3.456 33.686,-6.623 0,-0.575 -0.287,-1.15 0.289,-1.727 1.727,-0.288 1.727,1.727 2.59,2.591 -5.758,9.215 -16.121,10.654 -26.486,10.654 -8.926,-1.152 -17.85,-4.318 -23.033,-12.094 0.574,-7.772 -1.152,-16.121 -1.44,-24.184 -0.864,-10.652 6.91,-20.441 3.168,-31.383 -4.319,6.048 -10.94,9.215 -16.987,12.094 2.879,3.166 -1.151,6.909 0.576,10.363 -1.151,5.759 -2.304,13.244 -8.925,14.684 -0.577,1.151 -1.729,2.591 -3.168,2.879 7.486,2.305 15.835,3.744 23.896,4.031 0.575,0.864 0.288,2.017 0.288,2.879 C 83.89,335.813 59.129,321.129 40.703,297.522 25.444,278.521 14.791,257.215 7.306,234.757 c 0.288,-1.727 -0.864,-3.166 1.152,-4.031 1.727,1.44 0.576,4.031 1.727,5.758 12.092,30.807 29.079,63.629 58.734,83.493 -2.016,-6.047 -6.046,-15.835 -0.577,-21.304 0.577,-3.169 0.288,-6.623 1.728,-9.215 -6.622,-9.788 -9.501,-23.607 -2.591,-34.549 l 3.167,-2.591 0.288,0.29 c 1.439,-10.655 2.015,-20.443 7.485,-29.369 -0.576,-4.605 -0.576,-10.651 2.016,-14.97 -0.576,-2.879 -1.728,-6.623 1.151,-8.924 1.727,1.441 0,5.181 1.151,7.199"
       id="path92"
       inkscape:connector-curvature="0" /><path
       d="m 164.37,212.247 c -0.238,-0.839 1.08,1.799 0.781,1.889 4.605,17.85 -1.402,36.168 -2.555,53.73 -0.576,0.578 -1.152,0.864 -1.727,0.578 -2.016,-3.17 0.863,-6.912 0.287,-10.655 2.16,-12.423 4.414,-32.741 1.295,-44.013 -14.971,6.623 -33.252,11.192 -49.664,6.01 -0.576,-0.864 -1.728,-1.439 -0.576,-2.304 15.835,4.032 32.246,1.439 46.927,-4.605 1.782,-1.08 3.554,-1.495 5.232,-0.63"
       id="path94"
       inkscape:connector-curvature="0" /><path
       d="m 114.694,235.621 c -2.015,2.592 -4.318,-0.864 -6.908,-0.576 -4.319,-1.728 -7.198,3.455 -10.653,0.576 2.016,-3.455 7.773,-3.168 12.093,-2.591 2.014,0.287 3.742,1.727 5.468,2.591"
       id="path96"
       inkscape:connector-curvature="0" /><path
       d="m 126.5,253.759 c -0.576,10.076 -2.304,19.865 -7.197,28.216 -1.152,0.575 -1.152,-0.575 -1.439,-1.153 4.894,-11.803 8.061,-25.623 4.029,-38.579 l -4.319,-4.607 c 0.577,-0.865 1.729,-1.151 2.593,-0.575 6.044,4.029 5.469,10.651 6.333,16.698"
       id="path98"
       inkscape:connector-curvature="0" /><path
       d="m 162.256,292.158 c 1.439,4.031 1.148,9.215 1.148,13.533 -0.574,0.575 -1.148,1.439 -2.014,0.862 l -1.152,-0.862 c 1.439,-11.516 -3.166,-23.035 0.287,-34.262 3.743,6.909 0.29,13.531 1.731,20.729"
       id="path100"
       inkscape:connector-curvature="0" /><path
       d="m 98.572,300.688 c 0,5.758 -1.151,12.381 -6.909,15.547 -4.607,2.589 -11.229,2.879 -15.547,-0.287 -6.622,-5.761 -4.895,-16.124 -4.319,-23.897 8.061,5.18 16.411,10.077 26.775,8.637"
       id="path102"
       inkscape:connector-curvature="0"
       style="fill:#f26649" /><path
       d="m 144.924,308.173 c 0.576,-0.575 1.439,-1.439 2.305,-0.575 0.574,0.575 1.729,1.439 0.574,2.015 -3.166,2.018 -6.621,1.728 -10.65,1.728 -0.576,-1.728 -4.607,-2.015 -2.305,-4.028 2.592,2.875 6.623,1.724 10.076,0.86"
       id="path104"
       inkscape:connector-curvature="0" /><path
       d="m 78.131,320.267 c 6.334,1.15 13.82,1.439 18.426,-4.031 -1.151,3.454 -2.879,7.772 -6.909,8.925 -6.046,2.302 -11.229,-0.864 -16.123,-3.743 -2.591,-4.029 -4.319,-8.638 -5.183,-13.531 0.576,5.758 5.182,10.076 9.789,12.38"
       id="path106"
       inkscape:connector-curvature="0"
       style="fill:#bfbfbf" /><path
       d="m 165.655,319.402 c -0.863,7.484 0.287,15.26 -2.592,21.593 -4.605,-2.015 0.289,-6.333 -0.287,-10.076 0,-6.623 -0.576,-14.684 -1.439,-21.594 3.742,1.727 2.591,6.91 4.318,10.077"
       id="path108"
       inkscape:connector-curvature="0" /><path
       d="m 74.964,340.995 c 5.183,1.151 10.365,2.015 15.259,3.454 -3.742,2.017 -8.637,0.576 -12.667,0 -4.031,-0.575 -8.35,-3.742 -9.501,-7.772 l 1.151,-1.439 c 2.303,1.439 2.879,4.893 5.758,5.757"
       id="path110"
       inkscape:connector-curvature="0" /><path
       d="m 160.76,342.435 c -1.15,3.166 -5.469,3.166 -8.061,4.894 -2.018,0 -4.605,1.727 -6.045,-0.288 1.725,-2.879 5.758,-1.726 8.061,-3.454 1.727,-0.865 4.895,-4.319 6.045,-1.152"
       id="path112"
       inkscape:connector-curvature="0" /><path
       d="m 72.949,352.224 c 4.031,1.439 8.637,1.149 12.667,0.288 l 0.864,0.575 c -2.591,2.304 -5.471,3.168 -8.638,2.879 -5.47,0 -10.364,-3.742 -12.956,-8.348 -0.288,-1.152 0.864,-2.304 1.728,-1.729 1.728,2.304 3.456,5.47 6.335,6.335"
       id="path114"
       inkscape:connector-curvature="0" /><path
       d="m 126.5,364.893 c -1.152,4.029 -1.152,8.06 0,12.091 l -1.729,1.727 c 4.608,4.032 8.35,10.365 15.547,9.215 5.471,0 11.518,-1.729 14.107,-6.91 -0.865,-2.88 2.879,-0.865 3.744,-2.88 1.15,-0.286 1.727,0.863 2.303,1.729 0,5.758 -2.592,11.228 -7.773,14.395 -8.35,4.605 -17.562,2.305 -24.76,-3.454 -3.168,-3.743 -5.471,-7.486 -5.183,-12.381 2.015,-2.014 0.288,-5.758 0.288,-8.062 3.166,-5.759 -1.439,-10.94 -1.439,-16.988 l 1.151,-0.861 c 2.305,3.452 2.305,8.346 3.744,12.379"
       id="path116"
       inkscape:connector-curvature="0" /><path
       d="m 157.018,356.83 c -0.287,6.91 6.621,13.243 1.727,19.579 -2.59,-2.305 0.289,-5.472 -1.15,-8.062 l -3.742,-11.805 c 0.573,-1.727 2.302,-0.576 3.165,0.288"
       id="path118"
       inkscape:connector-curvature="0" /><path
       d="m 145.79,360.86 c 0,0.575 0,1.15 -0.576,1.729 -4.607,-1.729 -8.061,-1.439 -12.092,0.864 -0.863,0 -2.592,-0.578 -1.439,-1.729 3.165,-4.032 11.228,-4.319 14.107,-0.864"
       id="path120"
       inkscape:connector-curvature="0" /><path
       d="m 145.213,367.194 c 0.576,1.152 1.441,2.879 -0.289,3.167 -2.014,-1.439 -4.605,-1.728 -6.908,-0.863 -1.439,0 -1.729,2.592 -3.455,1.728 -1.439,-0.578 -0.576,-2.015 0.287,-2.592 2.305,-2.88 7.197,-2.88 10.365,-1.44"
       id="path122"
       inkscape:connector-curvature="0" /><path
       d="m 150.973,379.288 c -1.439,2.015 -3.744,0 -5.473,-0.865 -5.182,-2.304 -10.076,0.865 -14.395,2.302 -1.439,-0.575 -0.287,-1.437 0,-2.015 5.182,-4.03 12.668,-4.03 18.428,-1.439 0.575,0.864 1.725,1.152 1.44,2.017"
       id="path124"
       inkscape:connector-curvature="0" /><path
       d="m 150.682,391.954 c -6.045,2.879 -13.529,2.016 -19,-1.439 l -4.031,-4.606 c 4.607,4.606 12.381,6.046 19.289,4.318 4.033,-1.439 7.199,-3.741 10.078,-6.909 -0.863,3.454 -2.592,7.197 -6.336,8.636"
       id="path126"
       inkscape:connector-curvature="0"
       style="fill:#bfbfbf" /><path
       d="m 163.063,406.062 c -3.453,1.728 -7.771,2.018 -11.227,3.743 -3.168,0 -6.912,1.728 -9.502,-0.286 -3.455,0.861 -6.91,3.74 -10.941,2.301 -2.59,-4.894 -8.061,3.167 -11.515,-1.439 -0.575,-1.151 0.864,-1.439 1.439,-2.301 -2.305,0 -4.607,2.301 -7.198,3.165 -1.728,0 -3.167,0 -4.318,-1.439 -2.304,-0.286 -4.318,2.593 -6.334,0.575 0.288,-1.727 2.88,-1.727 4.319,-2.591 2.015,-0.288 5.469,-2.59 6.621,0.576 3.743,-0.286 6.622,-5.47 10.653,-3.166 0.575,1.727 -0.864,2.59 -1.439,3.454 4.606,0.865 8.061,-4.031 12.956,-2.304 0.863,0.864 -0.289,1.729 -0.289,2.304 4.031,-0.864 8.637,-2.017 12.67,-4.031 0.576,0.577 1.439,1.152 1.15,2.015 l -0.574,0.289 c 4.318,0.575 8.348,-1.727 12.09,-3.455 0.576,0.863 2.015,1.438 1.439,2.59"
       id="path128"
       inkscape:connector-curvature="0" /><path
       d="m 158.17,88.502 c -2.879,6.908 -6.912,14.396 -14.396,17.849 -1.729,-0.575 -3.168,0.865 -4.031,2.591 -4.895,3.742 -10.939,4.318 -16.698,2.302 -0.576,-0.863 -2.593,-1.439 -2.016,-3.167 3.455,1.439 7.198,2.304 11.229,1.728 3.166,-0.575 5.758,-4.029 8.348,-3.742 2.592,-2.304 6.91,-4.318 8.928,-6.91 3.166,-3.743 6.045,-7.772 6.332,-12.669 1.152,-3.454 4.031,0.288 2.304,2.018"
       id="path130"
       inkscape:connector-curvature="0" /><path
       d="m 142.479,109.015 c 0.246,-0.495 0.652,-0.875 0.91,-1.359 -0.012,0.011 -0.021,0.032 -0.033,0.045 0.404,-0.688 0.18,-1.576 -0.494,-1.979 -0.688,-0.405 -1.564,-0.193 -1.98,0.495 -0.102,0.607 -0.832,0.808 -0.922,1.428 -0.383,0.696 -0.123,1.563 0.574,1.946 0.697,0.38 1.562,0.121 1.945,-0.576"
       id="path132"
       inkscape:connector-curvature="0" /><path
       d="m 157.594,212.877 c 0,0 5.037,-1.26 5.938,-1.979 0.901,-0.719 -2.16,-2.699 -2.16,-2.699 l -2.158,1.799 -1.62,2.879"
       id="path134"
       inkscape:connector-curvature="0"
       style="fill:#fec87b" /><path
       d="m 91.015,156.285 c 7.108,2.519 14.486,3.779 21.953,4.409 0.54,0 1.08,-0.45 1.08,-1.08 0,-0.63 -0.54,-1.08 -1.08,-1.08 -7.378,0.9 -14.216,-2.429 -21.233,-4.229 -0.54,-0.27 -1.169,0.09 -1.349,0.63 -0.271,0.541 0.089,1.17 0.629,1.35"
       id="path136"
       inkscape:connector-curvature="0" /><path
       d="m 127.094,162.133 c 8.637,0.72 17.905,1.08 25.731,-2.969 0.539,-0.18 0.811,-0.81 0.539,-1.35 -0.178,-0.54 -0.898,-0.81 -1.438,-0.63 -7.379,3.329 -16.105,4.049 -24.293,2.789 -0.54,-0.09 -1.169,0.18 -1.349,0.81 -0.09,0.54 0.18,1.17 0.81,1.35"
       id="path138"
       inkscape:connector-curvature="0" /><path
       d="m 128.803,182.287 c 9.627,1.62 17.994,-2.519 27.172,-4.318 0.627,0 1.078,-0.54 1.078,-1.08 0,-0.63 -0.539,-1.08 -1.168,-1.08 -9,2.16 -17.545,5.848 -27.082,4.319 -0.631,0 -1.08,0.45 -1.08,1.08 0,0.63 0.449,1.079 1.08,1.079"
       id="path140"
       inkscape:connector-curvature="0" /><path
       d="m 71.941,311.125 c 0,0 7.087,15.898 24.832,1.439 0,0 -8.28,-10.719 -20.081,-4.104 -4.751,2.665 -4.751,2.665 -4.751,2.665"
       id="path142"
       inkscape:connector-curvature="0"
       style="fill:#ffffff" /><path
       d="m 91.951,308.173 c -2.017,3.167 -3.456,-1.151 -5.471,-0.861 -3.743,-1.442 -6.334,1.149 -9.789,1.149 0.288,-0.288 -0.288,-0.575 -0.575,-0.863 2.303,-2.591 6.045,-4.03 10.076,-2.879 2.016,0.863 4.895,1.15 5.759,3.454"
       id="path144"
       inkscape:connector-curvature="0" /><path
       d="m 40.271,184.086 c 0.269,-0.022 0.54,-0.022 0.809,-0.046 l 0.114,0.046 c 0.225,0 0.426,-0.067 0.607,-0.18 l 0.405,-0.27 c 1.799,-0.945 3.261,-2.339 4.048,-4.229 0.292,-0.519 0.091,-1.169 -0.427,-1.462 -0.54,-0.271 -1.192,-0.068 -1.461,0.448 -0.586,1.147 -1.215,2.318 -2.452,2.879 l -1.305,0.834 0.585,-0.18 -0.923,1.08 c 0,-0.36 0,-0.72 0,-1.08 -0.607,0 -1.08,0.473 -1.08,1.08 0,0.606 0.473,1.08 1.08,1.08"
       id="path146"
       inkscape:connector-curvature="0" /><path
       d="m 117.287,161.414 c 0.585,-0.046 1.214,-0.114 1.731,0.18 0.99,0.561 2.137,0.9 3.239,0.45 0.54,-0.225 0.81,-0.877 0.562,-1.417 -0.227,-0.54 -0.878,-0.787 -1.417,-0.562 -0.54,0.043 -0.99,-0.136 -1.62,-0.518 -0.742,-0.472 -1.642,-0.292 -2.496,-0.292 -0.607,0 -1.08,0.473 -1.08,1.08 10e-4,0.604 0.474,1.079 1.081,1.079"
       id="path148"
       inkscape:connector-curvature="0" /><path
       d="m 121.313,182.017 c 0.584,-0.045 1.214,-0.112 1.731,0.18 0.989,0.562 2.137,0.9 3.239,0.45 0.539,-0.226 0.81,-0.878 0.562,-1.418 -0.226,-0.54 -0.878,-0.787 -1.418,-0.561 -0.539,0.045 -0.989,-0.135 -1.619,-0.519 -0.742,-0.471 -1.642,-0.291 -2.496,-0.291 -0.607,0 -1.08,0.471 -1.08,1.08 0.001,0.606 0.474,1.079 1.081,1.079"
       id="path150"
       inkscape:connector-curvature="0" /><path
       d="m 156.897,158.827 c 1.529,-0.562 3.104,-1.035 4.43,-2.071 0.496,-0.336 0.607,-1.011 0.248,-1.507 -0.338,-0.472 -1.012,-0.607 -1.484,-0.248 -1.146,0.9 -2.496,1.531 -3.959,1.799 -0.562,0.227 -0.832,0.834 -0.629,1.395 0.224,0.564 0.831,0.833 1.394,0.632"
       id="path152"
       inkscape:connector-curvature="0" /><path
       d="m 90.363,176.821 c 0.988,0.741 1.866,1.641 3.059,2 2.879,0.856 5.668,1.327 8.569,2.138 1.484,0.427 3.059,0.585 4.656,0.673 0.36,0 0.675,0.384 1.058,0.452 2.946,0.472 5.78,0.112 8.659,0.202 0.585,0 1.08,-0.474 1.08,-1.08 0,-0.607 -0.495,-1.08 -1.08,-1.08 -2.654,-0.022 -5.285,0.133 -7.939,-0.067 -0.607,-0.046 -1.192,-0.54 -1.777,-0.562 -1.237,-0.069 -2.429,-0.27 -3.6,-0.563 -3.171,-0.786 -6.117,-1.326 -9.222,-2.226 -0.877,-0.27 -1.395,-1.126 -2.159,-1.62 -0.495,-0.36 -1.169,-0.27 -1.507,0.225 -0.36,0.473 -0.269,1.148 0.203,1.508"
       id="path154"
       inkscape:connector-curvature="0" /></g></svg>