<?xml version="1.0" encoding="UTF-8" standalone="no"?>
<!-- Created with Inkscape (http://www.inkscape.org/) -->

<svg
   xmlns:dc="http://purl.org/dc/elements/1.1/"
   xmlns:cc="http://creativecommons.org/ns#"
   xmlns:rdf="http://www.w3.org/1999/02/22-rdf-syntax-ns#"
   xmlns:svg="http://www.w3.org/2000/svg"
   xmlns="http://www.w3.org/2000/svg"
   xmlns:sodipodi="http://sodipodi.sourceforge.net/DTD/sodipodi-0.dtd"
   xmlns:inkscape="http://www.inkscape.org/namespaces/inkscape"
   width="128.00072"
   height="53.917999"
   id="svg2"
   version="1.1"
   inkscape:version="0.92.2 (5c3e80d, 2017-08-06)"
   sodipodi:docname="zipline.svg">
  <title
     id="title3644">Zip-Line</title>
  <defs
     id="defs4">
    <inkscape:perspective
       sodipodi:type="inkscape:persp3d"
       inkscape:vp_x="0 : 526.18109 : 1"
       inkscape:vp_y="0 : 1000 : 0"
       inkscape:vp_z="744.09448 : 526.18109 : 1"
       inkscape:persp3d-origin="372.04724 : 350.78739 : 1"
       id="perspective10" />
    <inkscape:perspective
       id="perspective3604"
       inkscape:persp3d-origin="0.5 : 0.33333333 : 1"
       inkscape:vp_z="1 : 0.5 : 1"
       inkscape:vp_y="0 : 1000 : 0"
       inkscape:vp_x="0 : 0.5 : 1"
       sodipodi:type="inkscape:persp3d" />
    <inkscape:perspective
       id="perspective3626"
       inkscape:persp3d-origin="0.5 : 0.33333333 : 1"
       inkscape:vp_z="1 : 0.5 : 1"
       inkscape:vp_y="0 : 1000 : 0"
       inkscape:vp_x="0 : 0.5 : 1"
       sodipodi:type="inkscape:persp3d" />
  </defs>
  <sodipodi:namedview
     id="base"
     pagecolor="#ffffff"
     bordercolor="#666666"
     borderopacity="1.0"
     inkscape:pageopacity="0.0"
     inkscape:pageshadow="2"
     inkscape:zoom="6.0210824"
     inkscape:cx="31.100358"
     inkscape:cy="30.184143"
     inkscape:document-units="px"
     inkscape:current-layer="layer1"
     showgrid="false"
     inkscape:window-width="1920"
     inkscape:window-height="1025"
     inkscape:window-x="-8"
     inkscape:window-y="-8"
     inkscape:window-maximized="1"
     fit-margin-top="0"
     fit-margin-left="0"
     fit-margin-right="0"
     fit-margin-bottom="0" />
  <metadata
     id="metadata7">
    <rdf:RDF>
      <cc:Work
         rdf:about="">
        <dc:format>image/svg+xml</dc:format>
        <dc:type
           rdf:resource="http://purl.org/dc/dcmitype/StillImage" />
        <dc:title>Zip-Line</dc:title>
        <dc:date>2010-06-13</dc:date>
        <dc:creator>
          <cc:Agent>
            <dc:title>Jordan Irwin (AntumDeluge)</dc:title>
          </cc:Agent>
        </dc:creator>
        <dc:subject>
          <rdf:Bag>
            <rdf:li>zip</rdf:li>
            <rdf:li>line</rdf:li>
            <rdf:li>toy</rdf:li>
            <rdf:li>play</rdf:li>
          </rdf:Bag>
        </dc:subject>
        <cc:license
           rdf:resource="http://creativecommons.org/publicdomain/zero/1.0/" />
      </cc:Work>
      <cc:License
         rdf:about="http://creativecommons.org/publicdomain/zero/1.0/">
        <cc:permits
           rdf:resource="http://creativecommons.org/ns#Reproduction" />
        <cc:permits
           rdf:resource="http://creativecommons.org/ns#Distribution" />
        <cc:permits
           rdf:resource="http://creativecommons.org/ns#DerivativeWorks" />
      </cc:License>
    </rdf:RDF>
  </metadata>
  <g
     inkscape:label="Layer 1"
     inkscape:groupmode="layer"
     id="layer1"
     transform="translate(-387.50892,-517.07263)">
    <g
       id="g830"
       transform="matrix(0.24112742,0,0,0.24112742,342.63801,412.85069)">
      <path
         sodipodi:nodetypes="ccacaacac"
         id="path2818-7"
         d="m 399.65378,540.11387 127.65108,42.17697 c 0,0 -6.86631,26.51617 -16.91139,34.42496 -10.02925,7.89632 -37.37312,8.34809 -37.37312,8.34809 -3.76236,9.58047 -7.85331,24.8193 -18.56532,28.70783 -14.95318,5.42811 -36.95021,-0.75904 -45.58781,-14.11771 -6.10416,-9.44054 4.1222,-33.47342 4.1222,-33.47342 0,0 -19.95724,-15.86338 -22.62521,-27.40494 -2.98511,-12.91352 9.28957,-38.66178 9.28957,-38.66178 z"
         style="fill:#bb8600;fill-opacity:1;stroke:#000000;stroke-width:0.2;stroke-linecap:butt;stroke-linejoin:miter;stroke-miterlimit:4;stroke-dasharray:none;stroke-opacity:1"
         inkscape:connector-curvature="0" />
      <path
         sodipodi:nodetypes="cccccccc"
         transform="translate(0,308.2677)"
         id="path2816"
         d="m 186.33856,124.39337 c 0,0 216.10855,124.32982 218.47279,125.20018 39.9499,14.70688 91.06127,29.56875 91.06127,29.56875 0,0 219.14877,52.06452 219.14877,52.06452 2.17013,0.78914 1.70024,2.60502 -0.49893,1.80532 0,0 -214.66514,-51.40716 -219.75692,-54.0752 -8.05255,-1.64573 -89.42378,-27.72471 -89.42378,-27.72471 0,0 -219.0032,-126.83886 -219.0032,-126.83886 z"
         style="fill:#000000;fill-opacity:1;stroke:#000000;stroke-width:1px;stroke-linecap:butt;stroke-linejoin:miter;stroke-opacity:1"
         inkscape:connector-curvature="0" />
      <path
         sodipodi:nodetypes="ccacaacac"
         transform="translate(-86.214286,366.1479)"
         id="path2818"
         d="m 479.07175,170.90095 127.65108,42.17697 c 0,0 -6.86631,26.51617 -16.91139,34.42496 -10.02925,7.89632 -37.37312,8.34809 -37.37312,8.34809 -3.76236,9.58047 -7.85331,24.8193 -18.56532,28.70783 -14.95318,5.42811 -36.95021,-0.75904 -45.58781,-14.11771 -6.10416,-9.44054 4.1222,-33.47342 4.1222,-33.47342 0,0 -19.95724,-15.86338 -22.62521,-27.40494 -2.98511,-12.91352 9.28957,-38.66178 9.28957,-38.66178 z"
         style="fill:#dead00;fill-opacity:1;stroke:#000000;stroke-width:0.2;stroke-linecap:butt;stroke-linejoin:miter;stroke-miterlimit:4;stroke-dasharray:none;stroke-opacity:1"
         inkscape:connector-curvature="0" />
      <ellipse
         transform="translate(-96.78718,353.65266)"
         id="path3594"
         style="fill:#999999;fill-opacity:1;stroke:#000000;stroke-width:0.2;stroke-linecap:round;stroke-linejoin:round;stroke-miterlimit:4;stroke-dasharray:none;stroke-opacity:1"
         cx="503.40588"
         cy="200.57335"
         rx="3.7936506"
         ry="3.5651484" />
      <ellipse
         id="path3594-1"
         style="fill:#999999;fill-opacity:1;stroke:#000000;stroke-width:0.2;stroke-linecap:round;stroke-linejoin:round;stroke-miterlimit:4;stroke-dasharray:none;stroke-opacity:1"
         transform="translate(-6.3488706,383.32765)"
         cx="503.40588"
         cy="200.57335"
         rx="3.7936506"
         ry="3.5651484" />
      <path
         sodipodi:nodetypes="ccccc"
         transform="translate(185.83856,432.16107)"
         id="path3640"
         d="m 244.21044,195.23355 -21.65557,-7.86391 c -5.29302,-1.00545 -8.19814,8.07484 -3.92046,10.52924 l 21.82056,7.1063 c 5.42543,1.4429 8.26087,-7.44379 3.75547,-9.77163 z"
         style="fill:#999999;fill-opacity:1;stroke:#000000;stroke-width:0.2;stroke-linecap:butt;stroke-linejoin:miter;stroke-miterlimit:4;stroke-dasharray:none;stroke-opacity:1"
         inkscape:connector-curvature="0" />
      <path
         sodipodi:nodetypes="csscc"
         id="path3642"
         d="m 408.8436,620.73696 c -0.43197,-0.19456 -0.76388,-0.31291 -1.18768,-0.22204 -2.5544,0.54764 -4.67652,5.67865 -2.94185,8.14882 0.25898,0.36878 0.50012,0.57446 1.07737,0.6552 1.39644,-0.56749 3.96803,-7.15653 3.05216,-8.58198 z"
         style="fill:#faffff;fill-opacity:0.27380952;stroke:none"
         inkscape:connector-curvature="0" />
    </g>
  </g>
</svg>
