<?xml version="1.0" encoding="UTF-8" standalone="no"?>
<!-- Created with Inkscape (http://www.inkscape.org/) -->

<svg
   xmlns:dc="http://purl.org/dc/elements/1.1/"
   xmlns:cc="http://creativecommons.org/ns#"
   xmlns:rdf="http://www.w3.org/1999/02/22-rdf-syntax-ns#"
   xmlns:svg="http://www.w3.org/2000/svg"
   xmlns="http://www.w3.org/2000/svg"
   xmlns:xlink="http://www.w3.org/1999/xlink"
   xmlns:sodipodi="http://sodipodi.sourceforge.net/DTD/sodipodi-0.dtd"
   xmlns:inkscape="http://www.inkscape.org/namespaces/inkscape"
   width="128.00015"
   height="122.017"
   id="svg6255"
   sodipodi:version="0.32"
   inkscape:version="0.92.2 (5c3e80d, 2017-08-06)"
   version="1.0"
   sodipodi:docname="paint.svg"
   inkscape:output_extension="org.inkscape.output.svg.inkscape">
  <defs
     id="defs6257">
    <linearGradient
       inkscape:collect="always"
       xlink:href="#linearGradient5092"
       id="linearGradient5102"
       gradientUnits="userSpaceOnUse"
       gradientTransform="matrix(0.4435619,0,2.8962074,-0.4853568,-757.00285,470.49812)"
       x1="220.88396"
       y1="280.87924"
       x2="227.04086"
       y2="315.41315" />
    <linearGradient
       inkscape:collect="always"
       id="linearGradient5092">
      <stop
         style="stop-color:#d3d7cf;stop-opacity:1;"
         offset="0"
         id="stop5094" />
      <stop
         style="stop-color:#d3d7cf;stop-opacity:0;"
         offset="1"
         id="stop5096" />
    </linearGradient>
    <linearGradient
       inkscape:collect="always"
       xlink:href="#linearGradient5092"
       id="linearGradient5098"
       x1="220.88396"
       y1="280.87924"
       x2="220.43327"
       y2="306.23355"
       gradientUnits="userSpaceOnUse"
       gradientTransform="matrix(0.6178722,0,0,0.6178722,35.326106,152.13462)" />
    <linearGradient
       inkscape:collect="always"
       id="linearGradient2777">
      <stop
         style="stop-color:#e9b96e;stop-opacity:1;"
         offset="0"
         id="stop2779" />
      <stop
         style="stop-color:#eeeeec;stop-opacity:1"
         offset="1"
         id="stop2781" />
    </linearGradient>
    <linearGradient
       inkscape:collect="always"
       xlink:href="#linearGradient2777"
       id="linearGradient2783"
       x1="281.98495"
       y1="368.09149"
       x2="207.8797"
       y2="71.670456"
       gradientUnits="userSpaceOnUse"
       gradientTransform="matrix(0.5116282,0,0,0.5116282,63.091103,180.32737)" />
    <linearGradient
       inkscape:collect="always"
       id="linearGradient2839">
      <stop
         style="stop-color:#f57900;stop-opacity:1;"
         offset="0"
         id="stop2841" />
      <stop
         style="stop-color:#f57900;stop-opacity:0;"
         offset="1"
         id="stop2843" />
    </linearGradient>
    <linearGradient
       inkscape:collect="always"
       xlink:href="#linearGradient2839"
       id="linearGradient2845"
       x1="86.422699"
       y1="156.55286"
       x2="72.172005"
       y2="149.15596"
       gradientUnits="userSpaceOnUse" />
    <linearGradient
       inkscape:collect="always"
       id="linearGradient5034">
      <stop
         style="stop-color:#ad7fa8;stop-opacity:1;"
         offset="0"
         id="stop5036" />
      <stop
         style="stop-color:#ad7fa8;stop-opacity:0;"
         offset="1"
         id="stop5038" />
    </linearGradient>
    <linearGradient
       inkscape:collect="always"
       xlink:href="#linearGradient5034"
       id="linearGradient5040"
       x1="249.27664"
       y1="138.01442"
       x2="247.96304"
       y2="132.24878"
       gradientUnits="userSpaceOnUse"
       gradientTransform="matrix(0.6472898,0,0,0.6472898,35.290346,153.357)" />
    <linearGradient
       inkscape:collect="always"
       id="linearGradient5026">
      <stop
         style="stop-color:#ef2929;stop-opacity:1;"
         offset="0"
         id="stop5028" />
      <stop
         style="stop-color:#ef2929;stop-opacity:0;"
         offset="1"
         id="stop5030" />
    </linearGradient>
    <linearGradient
       inkscape:collect="always"
       xlink:href="#linearGradient5026"
       id="linearGradient5032"
       x1="217.7292"
       y1="158.29492"
       x2="210.51836"
       y2="147.47865"
       gradientUnits="userSpaceOnUse"
       gradientTransform="matrix(0.6472898,0,0,0.6472898,35.290346,153.357)" />
    <linearGradient
       inkscape:collect="always"
       id="linearGradient5018">
      <stop
         style="stop-color:#fcaf3e;stop-opacity:1;"
         offset="0"
         id="stop5020" />
      <stop
         style="stop-color:#fcaf3e;stop-opacity:0;"
         offset="1"
         id="stop5022" />
    </linearGradient>
    <linearGradient
       inkscape:collect="always"
       xlink:href="#linearGradient5018"
       id="linearGradient5024"
       x1="196.09668"
       y1="195.70117"
       x2="187.22038"
       y2="189.4845"
       gradientUnits="userSpaceOnUse"
       gradientTransform="matrix(0.6472898,0,0,0.6472898,35.290346,153.357)" />
    <linearGradient
       inkscape:collect="always"
       id="linearGradient5042">
      <stop
         style="stop-color:#729fcf;stop-opacity:1;"
         offset="0"
         id="stop5044" />
      <stop
         style="stop-color:#729fcf;stop-opacity:0;"
         offset="1"
         id="stop5046" />
    </linearGradient>
    <linearGradient
       inkscape:collect="always"
       xlink:href="#linearGradient5042"
       id="linearGradient5048"
       x1="205.11023"
       y1="238.06487"
       x2="187.08311"
       y2="234.03421"
       gradientUnits="userSpaceOnUse"
       gradientTransform="matrix(0.6472898,0,0,0.6472898,35.290346,153.357)" />
    <linearGradient
       inkscape:collect="always"
       id="linearGradient5058">
      <stop
         style="stop-color:#fce94f;stop-opacity:1;"
         offset="0"
         id="stop5060" />
      <stop
         style="stop-color:#fce94f;stop-opacity:0;"
         offset="1"
         id="stop5062" />
    </linearGradient>
    <linearGradient
       inkscape:collect="always"
       xlink:href="#linearGradient5058"
       id="linearGradient5064"
       x1="245.58508"
       y1="258.65234"
       x2="219.97372"
       y2="255.19063"
       gradientUnits="userSpaceOnUse"
       gradientTransform="matrix(0.6472898,0,0,0.6472898,35.290346,153.357)" />
    <linearGradient
       inkscape:collect="always"
       id="linearGradient5066">
      <stop
         style="stop-color:#8ae234;stop-opacity:1;"
         offset="0"
         id="stop5068" />
      <stop
         style="stop-color:#8ae234;stop-opacity:0;"
         offset="1"
         id="stop5070" />
    </linearGradient>
    <linearGradient
       inkscape:collect="always"
       xlink:href="#linearGradient5066"
       id="linearGradient5072"
       x1="274.06393"
       y1="244.82504"
       x2="261.44495"
       y2="225.44589"
       gradientUnits="userSpaceOnUse"
       gradientTransform="matrix(0.6472898,0,0,0.6472898,35.290346,153.357)" />
    <linearGradient
       inkscape:collect="always"
       id="linearGradient5074">
      <stop
         style="stop-color:#555753;stop-opacity:1;"
         offset="0"
         id="stop5076" />
      <stop
         style="stop-color:#555753;stop-opacity:0;"
         offset="1"
         id="stop5078" />
    </linearGradient>
    <linearGradient
       inkscape:collect="always"
       xlink:href="#linearGradient5074"
       id="linearGradient5080"
       x1="314.62491"
       y1="212.37624"
       x2="308.02252"
       y2="193.89845"
       gradientUnits="userSpaceOnUse"
       gradientTransform="matrix(0.6472898,0,0,0.6472898,35.290346,153.357)" />
  </defs>
  <sodipodi:namedview
     id="base"
     pagecolor="#ffffff"
     bordercolor="#666666"
     borderopacity="1.0"
     inkscape:pageopacity="0.0"
     inkscape:pageshadow="2"
     inkscape:zoom="2"
     inkscape:cx="-16.69308"
     inkscape:cy="67.827782"
     inkscape:document-units="px"
     inkscape:current-layer="layer1"
     inkscape:window-width="1920"
     inkscape:window-height="1025"
     inkscape:window-x="-8"
     inkscape:window-y="-8"
     showgrid="false"
     inkscape:window-maximized="1"
     fit-margin-top="0"
     fit-margin-left="0"
     fit-margin-right="0"
     fit-margin-bottom="0" />
  <metadata
     id="metadata6260">
    <rdf:RDF>
      <cc:Work
         rdf:about="">
        <dc:format>image/svg+xml</dc:format>
        <dc:type
           rdf:resource="http://purl.org/dc/dcmitype/StillImage" />
        <dc:title></dc:title>
        <cc:license
           rdf:resource="http://creativecommons.org/publicdomain/zero/1.0/" />
      </cc:Work>
      <cc:License
         rdf:about="http://creativecommons.org/publicdomain/zero/1.0/">
        <cc:permits
           rdf:resource="http://creativecommons.org/ns#Reproduction" />
        <cc:permits
           rdf:resource="http://creativecommons.org/ns#Distribution" />
        <cc:permits
           rdf:resource="http://creativecommons.org/ns#DerivativeWorks" />
      </cc:License>
    </rdf:RDF>
  </metadata>
  <g
     inkscape:label="Camada 1"
     inkscape:groupmode="layer"
     id="layer1"
     transform="translate(-137.1013,-223.23413)">
    <g
       id="g6323"
       transform="matrix(1.1090655,0,0,1.1090655,-21.933226,-31.001069)">
      <path
         style="fill:#2e3436;fill-rule:evenodd;stroke:#2e3436;stroke-width:0.51162815px;stroke-linecap:butt;stroke-linejoin:miter;stroke-opacity:1"
         d="m 211.16574,229.98402 c -2.79829,-0.0279 -6.45077,0.2224 -11.14391,0.79941 -60.07208,7.38591 -53.67299,70.41282 -53.67299,70.41282 11.32507,104.87991 171.8349,-42.34948 88.12793,-36.93315 -77.16736,4.99318 9.70852,-33.94994 -23.31103,-34.27908 z m -14.85321,33.016 c 0.63605,-0.0269 1.24293,0.0637 1.80669,0.28779 3.00666,1.19483 3.53374,5.69292 1.18314,10.04069 -2.35062,4.34777 -6.69829,6.9027 -9.70497,5.70785 -3.00665,-1.19483 -3.53372,-5.69293 -1.18312,-10.0407 1.90985,-3.53254 5.14206,-5.87886 7.89826,-5.99563 z"
         id="path2775"
         inkscape:connector-curvature="0" />
      <path
         id="path2176"
         d="m 208.66529,229.49162 c -2.79827,-0.0279 -6.45077,0.22238 -11.14389,0.79941 -60.07206,7.38591 -53.673,70.41283 -53.673,70.41283 11.32507,104.87989 171.83492,-42.34949 88.12794,-36.93317 -77.16735,4.9932 9.70851,-33.94993 -23.31105,-34.27907 z m -14.8532,33.016 c 0.63605,-0.027 1.24294,0.0638 1.80668,0.2878 3.00665,1.19483 3.53373,5.69293 1.18313,10.04069 -2.3506,4.34776 -6.69827,6.9027 -9.70493,5.70785 -3.00667,-1.19486 -3.53372,-5.69294 -1.18315,-10.04071 1.90986,-3.53254 5.14205,-5.87884 7.89827,-5.99563 z"
         style="fill:url(#linearGradient2783);fill-opacity:1;fill-rule:evenodd;stroke:#2e3436;stroke-width:0.51162815px;stroke-linecap:butt;stroke-linejoin:miter;stroke-opacity:1"
         inkscape:connector-curvature="0" />
      <path
         id="path2178"
         d="m 192.29318,234.09627 c -0.96392,0.13516 -0.42225,0.98131 -0.048,1.77471 -1.14081,0.38774 -2.18534,0.87457 -3.06976,1.42297 -2.31339,-0.16209 -5.10467,-0.47384 -5.56395,0.0799 -0.40651,0.49013 1.82951,0.91289 3.74127,1.37501 -0.70663,0.74684 -1.11919,1.52383 -1.11919,2.27033 0,0.0947 0.003,0.18141 0.016,0.27181 -1.55813,0.42816 -2.98445,0.84222 -2.76599,1.27907 0.22662,0.45317 1.83982,0.27872 3.58139,0.064 0.96507,0.77663 2.69249,1.1726 4.79652,1.07122 -0.14533,1.00173 -0.77546,2.23024 0.33573,2.43022 1.02656,0.18477 1.34611,-1.38666 1.8227,-2.68603 0.0981,-0.0186 0.18887,-0.0434 0.28779,-0.064 1.01265,-0.20998 1.98434,-0.50784 2.87791,-0.86338 2.06282,1.304 4.80368,3.92828 5.94766,3.48547 1.27299,-0.49275 -2.43617,-3.38927 -3.30957,-4.86047 0.4816,-0.32501 0.9188,-0.65487 1.27905,-1.00724 1.99429,-0.0284 5.30807,0.52726 5.27618,-0.19189 -0.0339,-0.76535 -3.19399,-0.0258 -4.97239,-0.12789 0.63167,-0.70691 0.99128,-1.45567 0.99128,-2.15844 0,-0.21836 -0.0452,-0.41239 -0.11193,-0.60756 0.98216,-0.83581 1.8181,-1.60257 1.05524,-1.85465 -0.55542,-0.18355 -1.41532,0.0643 -2.36627,0.46367 -1.45932,-0.75252 -3.90914,-0.92365 -6.66716,-0.35175 -0.17559,0.0364 -0.33883,0.0866 -0.51164,0.1279 -0.36646,-0.77921 -0.76051,-1.44712 -1.50291,-1.34302 z"
         style="color:#000000;display:inline;overflow:visible;visibility:visible;opacity:1;fill:#5c3566;fill-opacity:1;fill-rule:evenodd;stroke:none;stroke-width:1.05552018;stroke-linecap:butt;stroke-linejoin:miter;stroke-miterlimit:4;stroke-dasharray:none;stroke-dashoffset:0;stroke-opacity:1;marker:none;marker-start:none;marker-mid:none;marker-end:none;enable-background:accumulate"
         inkscape:connector-curvature="0" />
      <path
         id="path2760"
         d="m 172.33969,241.56283 c -0.92248,0.1077 0.85544,2.6869 0.0959,3.48548 -0.94808,0.99685 -5.53049,0.36797 -6.15553,1.50289 -0.33346,0.60552 0.79245,1.50087 1.61482,2.36629 -2.88759,2.91476 -4.40691,6.17655 -3.5654,8.18606 0.80419,1.92043 3.54985,2.15285 6.84305,0.89536 0.30772,0.87496 0.65258,1.64383 1.10317,1.91859 0.63216,0.38548 1.30235,-2.12787 2.01453,-3.45348 0.002,-0.004 -0.002,-0.0122 0,-0.016 0.2909,-0.1799 0.58759,-0.35953 0.87936,-0.55961 0.0603,-0.0413 0.11615,-0.0861 0.17589,-0.1279 1.30926,0.57534 3.53663,4.57119 4.55668,3.96511 0.8886,-0.52796 -2.95857,-4.2777 -2.55814,-5.37208 0.0561,-0.15329 0.16604,-0.29995 0.30378,-0.44768 0.0128,-0.0137 0.0345,-0.0183 0.048,-0.032 0.0563,-0.0519 0.10442,-0.10765 0.15987,-0.15988 0.0361,-0.034 0.0762,-0.0618 0.11192,-0.0959 1.30586,-1.04868 4.07861,-2.0027 4.20496,-3.13373 0.0574,-0.51379 -0.55442,-0.51472 -1.2631,-0.47965 1.14243,-1.89807 1.59502,-3.69939 1.05525,-4.98836 -0.31356,-0.74874 -0.93742,-1.23578 -1.75873,-1.48693 -0.0368,-0.11186 -0.0837,-0.21134 -0.15988,-0.28779 -0.22565,-0.22622 -0.5828,-0.12987 -1.00727,0.0959 -1.17221,-0.0509 -2.59315,0.22268 -4.125,0.83139 -0.8604,-1.08476 -1.77605,-2.69927 -2.57414,-2.60612 z"
         style="color:#000000;display:inline;overflow:visible;visibility:visible;opacity:1;fill:#cc0000;fill-opacity:1;fill-rule:evenodd;stroke:none;stroke-width:0.89999998;stroke-linecap:butt;stroke-linejoin:miter;stroke-miterlimit:4;stroke-dasharray:none;stroke-dashoffset:0;stroke-opacity:1;marker:none;marker-start:none;marker-mid:none;marker-end:none;enable-background:accumulate"
         inkscape:connector-curvature="0" />
      <ellipse
         transform="matrix(0.3478201,-0.7302535,0.841701,0.5200168,-28.22619,407.96749)"
         id="path2762"
         style="color:#000000;display:inline;overflow:visible;visibility:visible;opacity:1;fill:#ce5c00;fill-opacity:1;fill-rule:evenodd;stroke:none;stroke-width:0.89999998;stroke-linecap:butt;stroke-linejoin:miter;stroke-miterlimit:4;stroke-dasharray:none;stroke-dashoffset:0;stroke-opacity:1;marker:none;marker-start:none;marker-mid:none;marker-end:none;enable-background:accumulate"
         cx="263.69925"
         cy="114.01632"
         rx="13.473684"
         ry="6.7368422" />
      <path
         id="path2764"
         d="m 165.00103,290.27944 c -0.45093,0.0849 -1.07871,0.74887 -1.77471,1.61482 -2.06084,-0.86042 -4.33508,-0.52605 -6.37937,0.75144 -0.30493,-1.05671 -0.66962,-1.86857 -1.37499,-1.66278 -0.78075,0.22776 -0.48881,1.45955 -0.11193,2.78199 -0.98474,0.89405 -1.87394,2.03368 -2.62208,3.35754 -2.53918,-0.60751 -5.77505,-1.75253 -6.23547,-0.59157 -0.62566,1.57756 4.13104,3.49221 4.50872,5.10029 -0.0565,0.24667 -0.11479,0.48906 -0.15989,0.73546 -0.91485,1.6672 -5.44016,3.68741 -4.68459,5.21223 0.4068,0.82097 2.49014,0.52928 4.60465,0.19186 0.46491,2.89365 1.76594,5.35535 3.77326,6.71512 -0.0747,0.71498 0.0318,1.21682 0.49563,1.29505 0.33568,0.0566 0.62265,-0.1789 0.86339,-0.59157 2.81357,1.05881 5.97844,-0.0792 8.42587,-2.74999 0.61316,0.34838 1.13809,0.51021 1.51889,0.28779 0.60006,-0.35051 0.50305,-1.45027 0.23982,-2.71804 0.44167,-0.76104 0.85178,-1.57421 1.18314,-2.4622 0.54269,-1.45423 0.87127,-2.94071 1.00729,-4.39681 2.0399,-0.82785 4.33051,-1.62989 4.2689,-2.68604 -0.0597,-1.02265 -2.34124,-0.5419 -4.2849,-0.33577 -0.24361,-2.50447 -1.08682,-4.75844 -2.46222,-6.34738 0.10259,-1.51218 0.0769,-2.84846 -0.41569,-3.37355 -0.10749,-0.11457 -0.23341,-0.15621 -0.38372,-0.12789 z"
         style="color:#000000;display:inline;overflow:visible;visibility:visible;opacity:1;fill:#3465a4;fill-opacity:1;fill-rule:evenodd;stroke:none;stroke-width:0.89999998;stroke-linecap:butt;stroke-linejoin:miter;stroke-miterlimit:4;stroke-dasharray:none;stroke-dashoffset:0;stroke-opacity:1;marker:none;marker-start:none;marker-mid:none;marker-end:none;enable-background:accumulate"
         inkscape:connector-curvature="0" />
      <path
         id="path2766"
         d="m 187.06499,303.38991 c -0.90569,0.084 -1.25971,1.5287 -1.43894,3.35755 -2.98202,0.188 -5.98145,1.84694 -8.23403,4.5567 -1.44917,-0.87888 -2.66543,-1.41216 -3.1497,-0.75146 -0.42809,0.584 0.48292,1.49399 1.87063,2.52616 -0.38067,0.6209 -0.72063,1.28763 -1.02326,1.98255 -1.10956,2.54795 -1.4916,5.19185 -1.2311,7.61048 -1.2226,0.43399 -2.05005,0.92564 -1.98254,1.53488 0.0748,0.67587 1.02568,0.68509 2.35028,0.43169 0.78003,2.88724 2.56541,5.25461 5.16423,6.41134 1.13407,0.50476 2.32597,0.73034 3.53344,0.71947 0.0126,0.96368 0.22676,1.69029 0.84739,1.91862 0.98042,0.36063 1.76276,-0.98113 2.52617,-2.57415 1.83447,-0.6905 3.57678,-1.90503 5.03631,-3.54941 1.76951,1.70613 3.37559,5.01939 5.08432,4.28488 1.5605,-0.67078 -2.47046,-3.07419 -4.3968,-5.10029 0.67001,-0.87311 1.24761,-1.85068 1.74275,-2.90989 3.31969,-0.21565 8.53314,0.56012 8.87354,-1.11918 0.40577,-2.00192 -5.71851,-1.28099 -7.67442,-2.52615 0.16457,-0.83125 0.24856,-1.65025 0.27179,-2.46223 1.95542,-2.21643 6.53153,-5.08311 5.54796,-6.49128 -0.79596,-1.13961 -3.5004,0.97061 -5.97966,2.55813 -0.78902,-2.85796 -2.56877,-5.18329 -5.14824,-6.33139 -0.27329,-0.12164 -0.55157,-0.22925 -0.83141,-0.31976 -0.33829,-2.1347 -0.78501,-3.84763 -1.75871,-3.75726 z"
         style="color:#000000;display:inline;overflow:visible;visibility:visible;opacity:1;fill:#edd400;fill-opacity:1;fill-rule:evenodd;stroke:none;stroke-width:0.89999998;stroke-linecap:butt;stroke-linejoin:miter;stroke-miterlimit:4;stroke-dasharray:none;stroke-dashoffset:0;stroke-opacity:1;marker:none;marker-start:none;marker-mid:none;marker-end:none;enable-background:accumulate"
         inkscape:connector-curvature="0" />
      <path
         id="path2768"
         d="m 213.38185,290.10354 c -0.97828,0.0265 -0.91439,1.56233 -0.78341,3.21367 -2.04388,0.18752 -4.08997,1.13276 -5.81978,2.68606 -1.94896,-0.69612 -3.7742,-1.2713 -4.26889,-0.57557 -0.51605,0.72571 0.7016,2.01513 1.96656,3.30958 -0.38522,0.60672 -0.73932,1.26188 -1.03926,1.95059 -0.51515,1.18297 -0.83386,2.39148 -1.00725,3.58138 -0.87602,0.36348 -1.51646,0.7845 -1.45493,1.37502 0.0473,0.45388 0.56638,0.69211 1.31103,0.84738 0.10363,3.76215 1.8958,7.06539 4.98837,8.44186 3.47305,1.54583 7.60309,0.23194 10.52036,-2.95785 1.20202,1.18026 2.34011,2.12366 3.10175,1.74274 1.09578,-0.54807 -0.0674,-3.1268 -0.76745,-5.27617 0.0421,-0.0914 0.0875,-0.17898 0.12791,-0.2718 0.39348,-0.90357 0.67082,-1.82069 0.86337,-2.73402 2.08439,0.37621 5.75073,2.73574 5.97965,1.39099 0.26011,-1.52793 -4.61662,-2.6319 -5.69186,-4.141 -8.2e-4,-0.4329 -0.0192,-0.85946 -0.064,-1.27906 0.69811,-1.79052 3.80004,-4.17949 2.57413,-5.34013 -0.72364,-0.6851 -2.30173,0.2631 -3.86919,1.21513 -0.84846,-1.47985 -2.07282,-2.66475 -3.62936,-3.35755 -0.48481,-0.21579 -0.98151,-0.37252 -1.48692,-0.47966 -0.26291,-1.80004 -0.60863,-3.36712 -1.55088,-3.34159 z"
         style="color:#000000;display:inline;overflow:visible;visibility:visible;opacity:1;fill:#73d216;fill-opacity:1;fill-rule:evenodd;stroke:none;stroke-width:0.89999998;stroke-linecap:butt;stroke-linejoin:miter;stroke-miterlimit:4;stroke-dasharray:none;stroke-dashoffset:0;stroke-opacity:1;marker:none;marker-start:none;marker-mid:none;marker-end:none;enable-background:accumulate"
         inkscape:connector-curvature="0" />
      <path
         id="path2770"
         d="m 236.88478,267.24018 c -0.69996,-0.0389 -1.18496,1.68861 -1.74275,3.24565 -1.33754,0.22253 -2.6616,0.74901 -3.90114,1.5189 -2.25162,-1.20401 -5.20176,-3.09458 -6.34739,-2.31834 -1.45032,0.98269 3.95175,3.15149 3.54941,4.65262 -0.15,0.16461 -0.28777,0.33808 -0.43168,0.51162 -1.94187,1.32006 -9.83843,1.72824 -9.96077,3.53346 -0.11429,1.68652 5.33694,2.47812 6.60322,3.90115 -0.091,0.58522 -0.14067,1.16858 -0.15989,1.74273 -1.08294,1.52135 -3.72955,3.18354 -2.71803,4.23692 0.46787,0.48725 1.67672,0.0536 3.08576,-0.63953 0.72619,2.93716 2.48375,5.35866 5.10029,6.52326 5.09323,2.26697 11.47297,-1.06765 14.24565,-7.4346 1.57926,-3.62649 1.65418,-7.45666 0.47965,-10.50436 0.15094,-0.23228 0.22905,-0.45411 0.20784,-0.68752 -0.0342,-0.37718 -0.33087,-0.5262 -0.76745,-0.54359 -0.93426,-1.73278 -2.32002,-3.10489 -4.109,-3.90117 -0.74651,-0.33225 -1.53179,-0.55556 -2.3183,-0.65551 0.10352,-1.40841 0.0896,-2.66646 -0.54362,-3.08576 -0.0923,-0.0611 -0.18622,-0.0912 -0.2718,-0.0959 z"
         style="color:#000000;display:inline;overflow:visible;visibility:visible;opacity:1;fill:#2e3436;fill-opacity:1;fill-rule:evenodd;stroke:none;stroke-width:0.89999998;stroke-linecap:butt;stroke-linejoin:miter;stroke-miterlimit:4;stroke-dasharray:none;stroke-dashoffset:0;stroke-opacity:1;marker:none;marker-start:none;marker-mid:none;marker-end:none;enable-background:accumulate"
         inkscape:connector-curvature="0" />
      <path
         transform="matrix(0.4491797,0,0,0.4572851,125.70494,206.46354)"
         d="m 101.77944,164.73238 c -1.801632,3.44085 -9.879822,-8.06008 -13.00428,-5.97741 -2.971198,1.98052 -0.425283,16.442 -3.987205,16.27588 -3.745653,-0.1747 -7.655987,-13.89574 -11.005599,-15.52252 -3.185307,-1.54697 -8.760829,10.52748 -10.880725,7.5606 -2.229245,-3.11993 6.078133,-10.65646 4.691845,-13.9879 -1.318288,-3.16802 -11.172863,0.30797 -11.150651,-3.21081 0.02336,-3.7003 10.400559,-3.01956 12.571418,-6.09694 2.064375,-2.92642 -7.876828,-15.828 -4.776284,-17.32265 3.260476,-1.57174 13.560188,10.34531 17.053524,9.55959 3.321983,-0.74717 1.802405,-13.33614 5.258899,-12.7078 3.634785,0.66075 -4.148627,13.00269 -1.143719,15.1625 2.857513,2.05388 15.666337,-0.37783 16.654757,3.1151 1.03939,3.6731 -7.064045,4.93674 -7.766936,8.55559 -0.668414,3.44133 9.198226,11.3247 7.484956,14.59677 z"
         inkscape:randomized="-0.115"
         inkscape:rounded="0.22"
         inkscape:flatsided="false"
         sodipodi:arg2="1.0033808"
         sodipodi:arg1="0.50229464"
         sodipodi:r2="11.650877"
         sodipodi:r1="26.32341"
         sodipodi:cy="149.62534"
         sodipodi:cx="79.8797"
         sodipodi:sides="7"
         id="path2789"
         style="color:#000000;display:inline;overflow:visible;visibility:visible;opacity:1;fill:url(#linearGradient2845);fill-opacity:1;fill-rule:evenodd;stroke:none;stroke-width:0.89999998;stroke-linecap:butt;stroke-linejoin:miter;stroke-miterlimit:4;stroke-dasharray:none;stroke-dashoffset:0;stroke-opacity:1;marker:none;marker-start:none;marker-mid:none;marker-end:none;enable-background:accumulate"
         sodipodi:type="star" />
      <path
         id="path4968"
         d="m 198.33287,238.98001 c -2.59332,0.34557 -6.59097,0.86198 -7.70679,3.23645 3.59903,1.11859 7.85253,-0.62734 10.33641,-2.93305 -0.7954,-0.34152 -1.74006,-0.34869 -2.62962,-0.3034 z"
         style="color:#000000;display:inline;overflow:visible;visibility:visible;fill:url(#linearGradient5040);fill-opacity:1;fill-rule:evenodd;stroke:none;stroke-width:1.05552018;stroke-linecap:butt;stroke-linejoin:miter;stroke-miterlimit:4;stroke-dashoffset:0;stroke-opacity:1;marker:none;marker-start:none;marker-mid:none;marker-end:none;enable-background:accumulate"
         inkscape:connector-curvature="0" />
      <path
         id="path4970"
         d="m 179.62216,247.31386 c -2.27144,0.50557 -4.11708,0.99596 -6.10881,2.06323 -2.39931,-0.47803 -1.2403,1.95347 -2.67007,3.07462 -1.15646,1.31766 -3.41646,3.33433 -2.56893,5.17831 1.51223,-0.49292 3.40336,-0.44675 4.83445,-0.62705 1.06937,-2.04212 3.56932,-2.15509 4.69285,-4.12647 1.80829,-0.88404 2.30243,-3.20578 3.13531,-4.97604 0.19255,-0.77244 -0.85265,-0.62802 -1.3148,-0.5866 z"
         style="color:#000000;display:inline;overflow:visible;visibility:visible;fill:url(#linearGradient5032);fill-opacity:1;fill-rule:evenodd;stroke:none;stroke-width:0.89999998;stroke-linecap:butt;stroke-linejoin:miter;stroke-miterlimit:4;stroke-dashoffset:0;stroke-opacity:1;marker:none;marker-start:none;marker-mid:none;marker-end:none;enable-background:accumulate"
         inkscape:connector-curvature="0" />
      <path
         id="path4972"
         d="m 163.05557,268.79579 c -4.41653,1.7672 -6.41018,7.3666 -6.57402,11.77257 -0.1007,1.76434 1.22758,3.57709 2.99372,2.16439 4.63831,-2.50627 6.3771,-8.97264 4.91533,-13.61332 -0.33919,-0.30026 -0.87884,-0.38236 -1.33503,-0.32364 z"
         style="color:#000000;display:inline;overflow:visible;visibility:visible;fill:url(#linearGradient5024);fill-opacity:1;fill-rule:evenodd;stroke:none;stroke-width:0.89999998;stroke-linecap:butt;stroke-linejoin:miter;stroke-miterlimit:4;stroke-dashoffset:0;stroke-opacity:1;marker:none;marker-start:none;marker-mid:none;marker-end:none;enable-background:accumulate"
         inkscape:connector-curvature="0" />
      <path
         id="path4974"
         d="m 161.3969,295.37512 c -2.85594,0.76264 -4.67714,3.41798 -5.96721,5.92673 -2.30315,-0.57506 0.37719,2.32617 -0.89001,3.53988 -0.27004,1.23589 -2.37227,1.75733 -0.62706,2.60939 1.47104,2.3964 1.39355,6.49038 4.97604,6.81677 2.38119,0.37932 4.59076,-1.37755 6.08855,-2.93306 1.10523,-2.69049 2.04207,-5.8387 2.36666,-8.53611 -0.55497,-2.41634 -1.11286,-5.24065 -2.85212,-6.9786 -1.05462,0.0268 -2.03022,-0.50975 -3.09485,-0.445 z"
         style="color:#000000;display:inline;overflow:visible;visibility:visible;fill:url(#linearGradient5048);fill-opacity:1;fill-rule:evenodd;stroke:none;stroke-width:0.89999998;stroke-linecap:butt;stroke-linejoin:miter;stroke-miterlimit:4;stroke-dashoffset:0;stroke-opacity:1;marker:none;marker-start:none;marker-mid:none;marker-end:none;enable-background:accumulate"
         inkscape:connector-curvature="0" />
      <path
         id="path4976"
         d="m 187.6526,310.56619 c -7.91864,0.57526 -12.88935,11.30791 -8.09113,17.71957 1.31722,2.24235 4.10513,2.13311 6.25037,2.71051 2.54218,-2.03244 5.82936,-3.38243 6.8977,-6.79653 1.27926,-0.99167 1.23249,-1.61254 0.89001,-3.03418 -0.0337,-1.2491 0.87188,-2.84888 0.60683,-3.76238 -1.21378,-2.20852 -1.43505,-5.24367 -4.34897,-6.23014 -0.67629,-0.29653 -1.60105,-0.64185 -2.20481,-0.60685 z"
         style="color:#000000;display:inline;overflow:visible;visibility:visible;fill:url(#linearGradient5064);fill-opacity:1;fill-rule:evenodd;stroke:none;stroke-width:0.89999998;stroke-linecap:butt;stroke-linejoin:miter;stroke-miterlimit:4;stroke-dashoffset:0;stroke-opacity:1;marker:none;marker-start:none;marker-mid:none;marker-end:none;enable-background:accumulate"
         inkscape:connector-curvature="0" />
      <path
         id="path4978"
         d="m 214.53534,297.23607 c -2.28308,-0.0421 -4.43867,1.95503 -6.16949,2.81166 -0.68292,3.01848 -2.99153,5.78428 -2.10369,9.14298 0.32209,4.66419 6.58162,7.00302 9.83072,3.45895 3.19655,-2.29869 4.5542,-6.46557 3.88375,-10.27573 1.27775,-1.63779 -1.35189,-2.0453 -1.82052,-3.641 -0.77423,-1.09336 -2.3739,-1.50978 -3.62077,-1.49686 z"
         style="color:#000000;display:inline;overflow:visible;visibility:visible;fill:url(#linearGradient5072);fill-opacity:1;fill-rule:evenodd;stroke:none;stroke-width:0.89999998;stroke-linecap:butt;stroke-linejoin:miter;stroke-miterlimit:4;stroke-dashoffset:0;stroke-opacity:1;marker:none;marker-start:none;marker-mid:none;marker-end:none;enable-background:accumulate"
         inkscape:connector-curvature="0" />
      <path
         id="path4980"
         d="m 238.36368,274.33821 c -2.18115,-0.26836 -4.18624,1.29089 -5.96719,1.73958 -0.65868,3.10889 -4.69235,3.49619 -7.28202,4.08602 2.49393,0.72277 4.31993,3.47051 3.15555,5.94697 -0.53271,5.27654 5.8236,9.86326 10.31618,6.39198 5.63617,-3.34113 8.11379,-12.8492 2.36664,-17.31498 -0.79232,-0.27118 -1.84957,-0.9772 -2.58916,-0.84957 z"
         style="color:#000000;display:inline;overflow:visible;visibility:visible;fill:url(#linearGradient5080);fill-opacity:1;fill-rule:evenodd;stroke:none;stroke-width:0.89999998;stroke-linecap:butt;stroke-linejoin:miter;stroke-miterlimit:4;stroke-dashoffset:0;stroke-opacity:1;marker:none;marker-start:none;marker-mid:none;marker-end:none;enable-background:accumulate"
         inkscape:connector-curvature="0" />
    </g>
  </g>
</svg>
