<?xml version="1.0" encoding="UTF-8" standalone="no"?>
<!-- Created with Inkscape (http://www.inkscape.org/) -->

<svg
   xmlns:dc="http://purl.org/dc/elements/1.1/"
   xmlns:cc="http://creativecommons.org/ns#"
   xmlns:rdf="http://www.w3.org/1999/02/22-rdf-syntax-ns#"
   xmlns:svg="http://www.w3.org/2000/svg"
   xmlns="http://www.w3.org/2000/svg"
   xmlns:sodipodi="http://sodipodi.sourceforge.net/DTD/sodipodi-0.dtd"
   xmlns:inkscape="http://www.inkscape.org/namespaces/inkscape"
   id="svg2"
   sodipodi:docname="airplane.svg"
   viewBox="0 0 128 51.346832"
   sodipodi:version="0.32"
   version="1.0"
   inkscape:output_extension="org.inkscape.output.svg.inkscape"
   y="0"
   x="0"
   inkscape:version="0.92.2 (5c3e80d, 2017-08-06)"
   width="128"
   height="51.346836">
  <title
     id="title844">Single engine Cessna</title>
  <defs
     id="defs39" />
  <sodipodi:namedview
     id="base"
     bordercolor="#666666"
     inkscape:pageshadow="2"
     guidetolerance="10.0"
     pagecolor="#ffffff"
     gridtolerance="10.0"
     objecttolerance="10.0"
     borderopacity="1.0"
     inkscape:window-height="1025"
     showgrid="false"
     inkscape:pageopacity="0.0"
     inkscape:window-width="1920"
     fit-margin-top="0"
     fit-margin-left="0"
     fit-margin-right="0"
     fit-margin-bottom="0"
     inkscape:zoom="3.5139952"
     inkscape:cx="-65.167847"
     inkscape:cy="39.843049"
     inkscape:window-x="-8"
     inkscape:window-y="-8"
     inkscape:window-maximized="1"
     inkscape:current-layer="svg2" />
  <g
     id="layer1"
     transform="matrix(0.12784061,0,0,0.12784061,-3.2409516,-20.924049)">
    <g
       id="g2412">
      <path
         id="path2154"
         style="fill:#bcccdc;fill-rule:evenodd;stroke:#000000;stroke-width:3.7671001"
         d="m 220.23,279.24 85.39,119.14 15.88,-7.94 -93.33,-123.12 z"
         inkscape:connector-curvature="0" />
      <path
         id="path2142"
         style="fill:#ebf3ff;fill-rule:evenodd;stroke:#000000;stroke-width:3.7671001"
         d="m 663.06,314.98 -39.72,-15.89 c 0,0 15.89,-7.94 33.76,-7.94 17.87,0 33.76,1.99 33.76,1.99 l 29.78,7.94 z"
         inkscape:connector-curvature="0" />
      <path
         id="path1381"
         style="fill:#ebf3ff;fill-rule:evenodd;stroke:#000000;stroke-width:4.23799992"
         d="m 236.11,418.24 c 0,0 25.82,-13.9 49.65,-23.83 23.83,-9.93 45.67,-17.87 45.67,-17.87 l 25.82,-47.66 c 0,0 -111.21,-35.74 -176.74,-59.57 -65.53,-23.83 -150.92,-59.58 -150.92,-59.58 0.002,0 -5.955,-1.98 1.988,-7.94 7.943,-5.96 95.322,-7.94 95.322,-7.94 l 369.35,119.14 c 0,0 25.82,3.98 41.7,9.93 15.89,5.96 29.79,11.92 29.79,11.92 0,0 41.7,-3.97 67.52,-11.92 25.81,-7.94 95.31,-31.77 107.23,-39.71 11.91,-7.95 73.47,-113.19 73.47,-113.19 l 45.67,-3.97 -37.73,133.04 v 21.85 c 0,0 -9.92,-1.99 0,0 9.93,1.98 123.12,37.73 123.12,37.73 l -47.66,11.91 -148.93,-27.8 39.72,7.94 -55.61,21.85 c 0,0 291.96,59.57 289.96,63.54 -2,3.97 -13.9,11.92 -39.75,19.86 -25.81,7.94 -57.58,9.93 -57.58,9.93 l -266.1,-59.57 -139,63.54 27.8,51.63 c 0,0 15.88,-11.91 31.77,-13.9 15.89,-1.98 29.79,1.99 29.79,1.99 0,0 -1.99,29.78 -25.82,43.68 -23.83,13.9 -39.71,11.92 -47.66,1.99 -7.94,-9.93 1.99,-25.82 1.99,-25.82 l -37.73,-53.61 -71.49,23.83 c 0,0 -23.83,7.94 -55.6,11.91 -31.77,3.97 -33.76,1.99 -33.76,1.99 l -25.96,-0.09 c 0,0 19.86,1.99 21.85,5.96 1.98,3.97 5.95,19.86 -1.99,23.83 -7.94,3.97 -19.86,13.9 -33.76,15.89 -13.9,1.98 -31.77,0 -33.76,-5.96 -1.98,-5.96 1.99,-17.87 9.93,-23.83 7.95,-5.96 19.86,-9.93 19.86,-9.93 l 25.96,-5.87 c 0,0 -45.67,-13.9 -59.58,-25.82 -13.9,-11.91 -19.85,-15.88 -25.81,-35.74 -5.96,-19.86 -1.99,-33.76 -1.99,-33.76 z"
         inkscape:connector-curvature="0" />
      <path
         id="path2176"
         style="fill:#000000;fill-opacity:0.36216;fill-rule:evenodd"
         d="m 462.1,306.44 c 1.22,-3.67 53.79,8.56 68.46,13.45 14.66,4.89 36.67,17.11 36.67,17.11 v 3.67 z"
         inkscape:connector-curvature="0" />
      <path
         id="path2144"
         style="fill:#000035;fill-opacity:0.60540999;fill-rule:evenodd;stroke:#000000;stroke-width:2.35439992px"
         d="m 339.37,374.55 c 0,0 33.76,7.95 47.66,13.9 13.9,5.96 31.78,15.89 31.78,15.89 l 31.77,1.99 7.94,-45.68 c 0,0 -7.94,3.97 -11.91,-3.97 -3.98,-7.94 9.93,-15.88 9.93,-15.88 l -85.39,-25.82 z"
         inkscape:connector-curvature="0" />
      <path
         id="path2146"
         style="fill:none;stroke:#000000;stroke-width:2.35439992px"
         d="m 458.52,360.65 202.55,45.68"
         inkscape:connector-curvature="0" />
      <path
         id="path2148"
         style="fill:#5d6085;fill-rule:evenodd;stroke:#000000;stroke-width:2.35439992px"
         d="m 464.48,402.35 5.96,-37.73 57.58,11.92 v 15.89 z"
         inkscape:connector-curvature="0" />
      <path
         id="path2150"
         style="fill:#5d6085;fill-rule:evenodd;stroke:#000000;stroke-width:2.35439992px"
         d="m 537.95,380.51 3.97,9.93 17.88,-5.96 z"
         inkscape:connector-curvature="0" />
      <path
         id="path2152"
         style="fill:#000000;fill-opacity:0.52432;fill-rule:evenodd;stroke:#000000;stroke-width:2.35439992px"
         d="m 240.09,424.2 c 0,0 5.95,-1.99 25.81,5.96 19.86,7.94 27.8,15.88 27.8,15.88 0,0 9.93,7.94 0,7.94 -9.93,0 -9.93,3.98 -27.8,-3.97 -17.87,-7.94 -25.81,-9.93 -25.81,-17.87 z"
         inkscape:connector-curvature="0" />
      <path
         id="path2170"
         style="fill:#000000;fill-opacity:0.15135001;fill-rule:evenodd"
         d="m 311.75,505.69 c 0,0 12.64,2.3 15.09,-5.04 2.44,-7.33 21.58,-9.63 21.58,-9.63 0,0 19.56,2.45 85.57,-12.22 66.01,-14.67 222.77,-83.86 218.45,-71.76 l -131.85,62.4 c -21.61,4.32 -82.58,24.3 -123.27,38.7 -35.52,2.29 -50.78,3.73 -67.89,3.87 -17.11,-2.44 -17.68,-6.32 -17.68,-6.32 z"
         inkscape:connector-curvature="0" />
      <path
         id="path2156"
         style="fill:#f4fbfe;fill-rule:evenodd;stroke:#000000;stroke-width:2.82529998"
         d="m 441.32,493.47 187.39,-92.76 15.53,2.3 -176.03,83.12 z"
         inkscape:connector-curvature="0" />
      <path
         id="path2162"
         style="fill:#000000;fill-opacity:0.03783803;fill-rule:evenodd"
         d="m 632.01,322.69 176.03,-14.66 c 0,0 -14.67,-19.56 -41.56,-19.56 -26.9,0 -33.02,-2.09 -59.91,12.58 -26.9,14.67 -74.56,21.64 -74.56,21.64 z"
         inkscape:connector-curvature="0" />
      <path
         id="path2166"
         style="fill:#000000;fill-opacity:0.10270003;fill-rule:evenodd"
         d="m 748.48,286.54 71.07,-112.62 35.09,-3.31 c -4.32,7.78 -15.26,7.65 -31.93,22.15 -24.45,31.78 -74.23,93.78 -74.23,93.78 z"
         inkscape:connector-curvature="0" />
      <path
         id="path2168"
         style="fill:#000000;fill-opacity:0.10270003;fill-rule:evenodd"
         d="m 421.76,410.35 -112.46,44 c 0,0 9.78,7.34 9.78,24.45 0,17.11 9.78,19.56 9.78,19.56 0,0 -7.33,-26.9 -2.44,-34.23 4.89,-7.33 95.34,-53.78 95.34,-53.78 z"
         inkscape:connector-curvature="0" />
      <path
         id="path2172"
         style="fill:#000000;fill-opacity:0.17838003;fill-rule:evenodd"
         d="m 757.02,338.29 60.51,-15.56 65.69,19.88 c 0,0 -42.36,-12.97 -63.1,-12.1 -20.74,0.86 -63.1,7.78 -63.1,7.78 z"
         inkscape:connector-curvature="0" />
      <path
         id="path2174"
         style="fill:#b8b8b8;fill-rule:evenodd"
         d="m 922.11,413.13 c 0,0 -320.67,-59.64 -400.19,-87.3 -79.53,-27.66 -364.61,-120.24 -364.61,-120.24 0,0 262.86,93.64 377.52,130.22 109.78,34.13 387.28,77.32 387.28,77.32 z"
         inkscape:connector-curvature="0" />
      <path
         id="path2178"
         style="fill:#000000;fill-opacity:0.25946003;fill-rule:evenodd"
         d="m 927.83,460.46 c 0,0 0,-6.11 9.78,-12.22 9.78,-6.11 14.67,-11 36.67,-12.22 22.01,-1.23 34.22,0 34.22,0 0,0 -15.88,0 -39.11,4.89 -23.22,4.88 -30.56,8.55 -34.22,13.44 -3.67,4.89 -7.34,6.11 -7.34,6.11 z"
         inkscape:connector-curvature="0" />
      <path
         id="path2180"
         style="fill:#000000;fill-opacity:0.52973005;fill-rule:evenodd"
         d="m 450.52,361.29 -87.26,-31.93 c 0,0 -3.19,0 0,-6.38 3.19,-6.39 7.45,-8.52 7.45,-8.52 l 85.13,26.61 c 0,0 -4.25,0 -7.45,5.32 -3.19,5.32 -4.25,6.38 -2.12,10.64 2.12,4.26 4.25,4.26 4.25,4.26 z"
         inkscape:connector-curvature="0" />
      <path
         id="path2182"
         style="fill:#000000;fill-opacity:0.2;fill-rule:evenodd"
         d="m 280.51,555.36 c 15.89,-4.99 35.88,-13.4 45.22,-19.32 6.86,-6.54 2.86,-17.16 8.18,-16.09 5.32,1.06 5.18,14.33 2.64,18.02 -3.17,5.86 -25.7,18.58 -37.33,18.63 -12.25,0.06 -15.59,1.56 -18.71,-1.24 z"
         inkscape:connector-curvature="0" />
      <path
         id="path2184"
         style="fill:#000000;fill-opacity:0.15135001;fill-rule:evenodd"
         d="m 542.04,530.49 c 0,0 1.06,8.51 5.32,8.51 4.26,0 11.71,3.19 27.67,-2.13 15.96,-5.32 30.86,-19.15 30.86,-19.15 0,0 -2.13,10.64 -4.26,15.96 -2.13,5.32 -14.9,18.09 -21.28,21.28 -6.39,3.2 -18.09,11.71 -29.8,6.39 -11.7,-5.32 -13.83,-4.26 -13.83,-11.71 0,-7.45 5.32,-19.15 5.32,-19.15 z"
         inkscape:connector-curvature="0" />
      <path
         id="path2186"
         style="fill:#000000;fill-opacity:0.09189202;fill-rule:evenodd"
         d="m 542.04,530.49 8.51,-6.39 c 0,0 11.71,-8.51 11.71,-5.32 0,3.19 -4.26,8.52 -8.51,10.64 -4.26,2.13 -11.71,1.07 -11.71,1.07 z"
         inkscape:connector-curvature="0" />
      <path
         id="path2188"
         style="fill:#000000;fill-opacity:0.17296998;fill-rule:evenodd"
         d="m 781.48,351.71 -53.21,21.28 -17.03,-3.19 c 0,0 51.08,-18.09 59.59,-19.15 8.52,-1.07 10.65,1.06 10.65,1.06 z"
         inkscape:connector-curvature="0" />
      <path
         id="path2190"
         style="fill:none;stroke:#000000;stroke-width:2.35439992px"
         d="m 320.58,512.8 h 21.06"
         inkscape:connector-curvature="0" />
      <path
         id="path2192"
         style="fill:none;stroke:#000000;stroke-width:2.35439992px"
         d="M 540.3,533.87 Z"
         inkscape:connector-curvature="0" />
      <path
         id="path2194"
         style="fill:none;stroke:#000000;stroke-width:2.35439992px;stroke-opacity:0.42162003"
         d="m 537.29,530.86 18.06,-12.04"
         inkscape:connector-curvature="0" />
      <path
         id="path2196"
         d="m 194.32,372.08 c 0.57,0.62 -0.56,1.09 -1.03,0.96 -1.3,-0.34 -1.45,-2.02 -0.89,-3.02 1,-1.78 3.45,-1.91 5,-0.81 2.29,1.6 2.39,4.9 0.75,6.99 -2.18,2.8 -6.36,2.87 -8.98,0.68 -3.31,-2.76 -3.35,-7.82 -0.61,-10.98 3.32,-3.82 9.28,-3.83 12.96,-0.53 4.34,3.89 4.32,10.74 0.47,14.95 -4.46,4.86 -12.21,4.81 -16.94,0.39 -5.38,-5.01 -5.3,-13.67 -0.32,-18.92 5.58,-5.9 15.13,-5.79 20.91,-0.25 6.42,6.14 6.27,16.59 0.18,22.9 -6.7,6.94 -18.06,6.76 -24.89,0.11 -7.46,-7.27 -7.25,-19.53 -0.04,-26.88 7.83,-7.99 21,-7.74 28.87,0.03 8.51,8.39 8.23,22.46 -0.1,30.86 -8.96,9.03 -23.93,8.72 -32.85,-0.18 -9.55,-9.51 -9.21,-25.39 0.25,-34.83 10.07,-10.07 26.85,-9.7 36.82,0.32 10.59,10.63 10.18,28.32 -0.39,38.81 -11.2,11.11 -29.79,10.67 -40.8,-0.46 -11.64,-11.76 -11.16,-31.26 0.53,-42.79 12.32,-12.16 32.72,-11.65 44.78,0.6 12.68,12.88 12.14,34.19 -0.67,46.77 -13.45,13.2 -35.65,12.63 -48.76,-0.75 -13.72,-14 -13.12,-37.11 0.82,-50.74 14.56,-14.25 38.58,-13.61 52.73,0.89 14.77,15.12 14.1,40.04 -0.96,54.72 -15.69,15.29 -41.51,14.59 -56.71,-1.03 -15.81,-16.25 -15.08,-42.98 1.1,-58.7 16.81,-16.33 44.45,-15.57 60.69,1.17 16.85,17.37 16.06,45.91 -1.24,62.68 -17.94,17.37 -47.38,16.55 -64.67,-1.32 -17.9,-18.49 -17.04,-48.84 1.39,-66.65 19.05,-18.42 50.31,-17.53 68.64,1.46 18.94,19.61 18.02,51.77 -1.53,70.63"
         style="fill:none;stroke:#000000;stroke-width:1px"
         transform="matrix(1.7966,0.80067,-0.17741,2.1956,-22.161,-531.8)"
         inkscape:connector-curvature="0" />
      <path
         id="path2198"
         style="fill:#ebf3ff;fill-rule:evenodd;stroke:#000000;stroke-width:3.67289996"
         d="m 261.21,424.53 c 0,0 11.08,8.14 11.08,19.66 0,11.53 -11.08,14.24 -11.08,14.24 0,0 -16.89,-4.07 -22.17,-6.78 -3.69,-4.07 -6.33,-10.85 0,-16.27 6.34,-5.43 22.17,-10.85 22.17,-10.85 z"
         inkscape:connector-curvature="0" />
      <path
         id="path2204"
         style="fill:#00004c;fill-opacity:0.61621997;fill-rule:evenodd"
         d="m 608.87,396.65 11.54,1.92 c 0,0 -113.46,48.08 -130.76,51.93 -17.31,3.84 -92.31,23.07 -92.31,23.07 0,0 -5.77,3.85 -3.85,-3.84 1.93,-7.7 50,-13.47 101.92,-26.93 21.16,-5.77 101.92,-40.38 101.92,-40.38 z"
         inkscape:connector-curvature="0" />
      <path
         id="path2206"
         style="fill:#00004c;fill-opacity:0.61621997;fill-rule:evenodd"
         d="m 681.95,363.96 9.61,1.92 42.31,-15.38 -1.92,-3.85 z"
         inkscape:connector-curvature="0" />
      <path
         id="path2208"
         style="fill:none;stroke:#000000;stroke-width:3.06080008"
         d="M 758.87,377.42 578.1,340.88"
         inkscape:connector-curvature="0" />
      <path
         id="path2278"
         style="fill:#000000;fill-opacity:0.08648598;fill-rule:evenodd"
         d="m 614.64,331.27 203.84,-13.46 -19.23,-9.62 c 0,0 -19.23,-9.61 -82.69,1.93 -63.46,11.53 -101.92,21.15 -101.92,21.15 z"
         inkscape:connector-curvature="0" />
    </g>
  </g>
  <metadata
     id="metadata37">
    <rdf:RDF>
      <cc:Work>
        <dc:format>image/svg+xml</dc:format>
        <dc:type
           rdf:resource="http://purl.org/dc/dcmitype/StillImage" />
        <cc:license
           rdf:resource="http://creativecommons.org/publicdomain/zero/1.0/" />
        <dc:publisher>
          <cc:Agent
             rdf:about="http://openclipart.org/">
            <dc:title>Openclipart</dc:title>
          </cc:Agent>
        </dc:publisher>
        <dc:title>Single engine Cessna</dc:title>
        <dc:date>2008-05-08T16:59:24</dc:date>
        <dc:description>Single engine Cessna plane.</dc:description>
        <dc:source>https://openclipart.org/detail/16692/single-engine-cessna-by-jarno</dc:source>
        <dc:creator>
          <cc:Agent>
            <dc:title>Jarno</dc:title>
          </cc:Agent>
        </dc:creator>
        <dc:subject>
          <rdf:Bag>
            <rdf:li>cessna</rdf:li>
            <rdf:li>plane</rdf:li>
          </rdf:Bag>
        </dc:subject>
      </cc:Work>
      <cc:License
         rdf:about="http://creativecommons.org/publicdomain/zero/1.0/">
        <cc:permits
           rdf:resource="http://creativecommons.org/ns#Reproduction" />
        <cc:permits
           rdf:resource="http://creativecommons.org/ns#Distribution" />
        <cc:permits
           rdf:resource="http://creativecommons.org/ns#DerivativeWorks" />
      </cc:License>
    </rdf:RDF>
  </metadata>
</svg>
