<?xml version="1.0" encoding="UTF-8" standalone="no"?>
<!-- Created with Inkscape (http://www.inkscape.org/) -->

<svg
   xmlns:dc="http://purl.org/dc/elements/1.1/"
   xmlns:cc="http://creativecommons.org/ns#"
   xmlns:rdf="http://www.w3.org/1999/02/22-rdf-syntax-ns#"
   xmlns:svg="http://www.w3.org/2000/svg"
   xmlns="http://www.w3.org/2000/svg"
   xmlns:xlink="http://www.w3.org/1999/xlink"
   xmlns:sodipodi="http://sodipodi.sourceforge.net/DTD/sodipodi-0.dtd"
   xmlns:inkscape="http://www.inkscape.org/namespaces/inkscape"
   width="128"
   height="106.485"
   id="svg2"
   sodipodi:version="0.32"
   inkscape:version="0.92.2 (5c3e80d, 2017-08-06)"
   sodipodi:docname="onion.svg"
   inkscape:output_extension="org.inkscape.output.svg.inkscape"
   sodipodi:modified="true"
   version="1.0">
  <sodipodi:namedview
     id="base"
     pagecolor="#ffffff"
     bordercolor="#666666"
     borderopacity="1.0"
     inkscape:pageopacity="0.0"
     inkscape:pageshadow="2"
     inkscape:zoom="4.0463474"
     inkscape:cx="-0.82768843"
     inkscape:cy="42.358829"
     inkscape:document-units="px"
     inkscape:current-layer="layer1"
     inkscape:window-width="1920"
     inkscape:window-height="1025"
     inkscape:window-x="-8"
     inkscape:window-y="-8"
     inkscape:showpageshadow="false"
     showgrid="false"
     inkscape:window-maximized="1"
     fit-margin-top="0"
     fit-margin-left="0"
     fit-margin-right="0"
     fit-margin-bottom="0" />
  <defs
     id="defs4">
    <linearGradient
       inkscape:collect="always"
       id="linearGradient13297">
      <stop
         style="stop-color:#784421;stop-opacity:1;"
         offset="0"
         id="stop13299" />
      <stop
         style="stop-color:#784421;stop-opacity:0;"
         offset="1"
         id="stop13301" />
    </linearGradient>
    <linearGradient
       id="linearGradient12320">
      <stop
         style="stop-color:#a05b2c;stop-opacity:1;"
         offset="0"
         id="stop12322" />
      <stop
         style="stop-color:#784421;stop-opacity:0;"
         offset="1"
         id="stop12324" />
    </linearGradient>
    <linearGradient
       id="linearGradient8335">
      <stop
         style="stop-color:#943f00;stop-opacity:0.88947368;"
         offset="0"
         id="stop8337" />
      <stop
         style="stop-color:#723100;stop-opacity:1;"
         offset="1"
         id="stop8339" />
    </linearGradient>
    <linearGradient
       id="linearGradient8327">
      <stop
         style="stop-color:#e3a63d;stop-opacity:1;"
         offset="0"
         id="stop8329" />
      <stop
         style="stop-color:#a96b00;stop-opacity:1;"
         offset="1"
         id="stop8331" />
    </linearGradient>
    <linearGradient
       id="linearGradient8319">
      <stop
         style="stop-color:#b46b18;stop-opacity:1;"
         offset="0"
         id="stop8321" />
      <stop
         style="stop-color:#875012;stop-opacity:1;"
         offset="1"
         id="stop8323" />
    </linearGradient>
    <linearGradient
       id="linearGradient7344">
      <stop
         style="stop-color:#381600;stop-opacity:0;"
         offset="0"
         id="stop7346" />
      <stop
         style="stop-color:#381600;stop-opacity:1;"
         offset="1"
         id="stop7348" />
    </linearGradient>
    <linearGradient
       id="linearGradient7336">
      <stop
         style="stop-color:#381600;stop-opacity:0.16842106;"
         offset="0"
         id="stop7338" />
      <stop
         style="stop-color:#381600;stop-opacity:1;"
         offset="1"
         id="stop7340" />
    </linearGradient>
    <linearGradient
       id="linearGradient16983">
      <stop
         style="stop-color:#c87137;stop-opacity:1"
         offset="0"
         id="stop16985" />
      <stop
         style="stop-color:#804000;stop-opacity:1;"
         offset="1"
         id="stop16987" />
    </linearGradient>
    <linearGradient
       id="linearGradient12054">
      <stop
         style="stop-color:#ffffff;stop-opacity:1;"
         offset="0"
         id="stop12056" />
      <stop
         style="stop-color:#c98500;stop-opacity:0;"
         offset="1"
         id="stop12058" />
    </linearGradient>
    <radialGradient
       inkscape:collect="always"
       xlink:href="#linearGradient12054"
       id="radialGradient12060"
       cx="-240.68752"
       cy="513.11395"
       fx="-240.68752"
       fy="513.11395"
       r="47.055763"
       gradientTransform="matrix(1.0000001,3.5993226e-7,-2.3581766e-7,0.6551724,1.4296527e-4,176.93592)"
       gradientUnits="userSpaceOnUse" />
    <filter
       inkscape:collect="always"
       id="filter18945">
      <feGaussianBlur
         inkscape:collect="always"
         stdDeviation="1.2116008"
         id="feGaussianBlur18947" />
    </filter>
    <filter
       inkscape:collect="always"
       id="filter20002">
      <feGaussianBlur
         inkscape:collect="always"
         stdDeviation="3.2821945"
         id="feGaussianBlur20004" />
    </filter>
    <filter
       inkscape:collect="always"
       x="-0.097465552"
       width="1.1949311"
       y="-0.11112069"
       height="1.2222414"
       id="filter20026">
      <feGaussianBlur
         inkscape:collect="always"
         stdDeviation="11.707601"
         id="feGaussianBlur20028" />
    </filter>
    <filter
       inkscape:collect="always"
       id="filter21009">
      <feGaussianBlur
         inkscape:collect="always"
         stdDeviation="0.42681587"
         id="feGaussianBlur21011" />
    </filter>
    <clipPath
       clipPathUnits="userSpaceOnUse"
       id="clipPath21015">
      <path
         id="path21017"
         d="m -239.19951,416.41587 c -46.82992,0.30933 -90.69145,36.78563 -98.23753,83.32831 -3.14941,17.26631 0.40033,35.05636 -3.07396,52.34707 -1.11536,8.83094 -5.31774,17.74418 -1.25501,26.46334 5.69465,16.43595 23.78417,24.34383 40.21971,24.78292 6.05453,0.56909 12.50488,-0.55321 17.50304,3.64086 40.23915,21.36817 93.91044,11.9571 124.00024,-22.2572 24.48331,-26.87801 33.07898,-67.53088 19.81784,-101.62311 -3.23319,-9.83056 -4.64432,-23.03554 4.83817,-29.96344 5.40072,-5.04589 13.2621,-5.23487 19.21875,-9.125 2.1375,-1.83525 5.25336,-5.59044 4.5,-7.65625 -4.88128,0.16187 -6.74646,-6.04591 -11.875,-5.53125 -9.15347,-0.8243 -15.10227,7.93501 -23.9375,8.75 -7.67669,1.46577 -16.01451,1.53006 -23.625,0.125 -18.98594,-15.66547 -43.52069,-23.95495 -68.09375,-23.28125 z"
         style="color:#000000;display:inline;overflow:visible;visibility:visible;fill:#a85d24;fill-opacity:1;fill-rule:evenodd;stroke:none;stroke-width:0.50202721;stroke-linecap:round;stroke-linejoin:miter;stroke-miterlimit:4;stroke-dashoffset:0;stroke-opacity:1;marker:none;marker-start:none;marker-mid:none;marker-end:none;enable-background:accumulate"
         inkscape:connector-curvature="0" />
    </clipPath>
    <clipPath
       clipPathUnits="userSpaceOnUse"
       id="clipPath21019">
      <path
         id="path21021"
         d="m -234.3481,422.40211 c -42.82457,0.25407 -82.93464,30.21345 -89.8353,68.44073 -2.88004,14.18149 0.36609,28.79313 -2.81105,42.99466 -1.01996,7.25319 -4.86291,14.57397 -1.14767,21.73535 5.20759,13.49948 21.74992,19.99452 36.77973,20.35516 5.53669,0.46742 11.43534,-0.45437 16.00601,2.99038 36.79751,17.5505 85.8783,9.82083 113.39453,-18.28069 22.38926,-22.07594 30.24974,-55.4657 18.12283,-83.46695 -2.95666,-8.07422 -4.2471,-18.91997 4.42436,-24.61012 4.9388,-4.14439 12.12779,-4.2996 17.57497,-7.49472 1.95468,-1.50736 4.80404,-4.59164 4.11512,-6.28837 -4.46379,0.13295 -6.16944,-4.96573 -10.85934,-4.54302 -8.37057,-0.67703 -13.81057,6.51732 -21.89013,7.18671 -7.0201,1.20389 -14.64479,1.25669 -21.60436,0.10266 -17.36207,-12.86665 -39.79837,-19.67511 -62.2697,-19.12178 z"
         style="color:#000000;display:inline;overflow:visible;visibility:visible;fill:#a85d24;fill-opacity:1;fill-rule:evenodd;stroke:none;stroke-width:0.50202721;stroke-linecap:round;stroke-linejoin:miter;stroke-miterlimit:4;stroke-dashoffset:0;stroke-opacity:1;marker:none;marker-start:none;marker-mid:none;marker-end:none;enable-background:accumulate"
         inkscape:connector-curvature="0" />
    </clipPath>
    <clipPath
       clipPathUnits="userSpaceOnUse"
       id="clipPath21023">
      <path
         id="path21025"
         d="m -239.19951,416.41587 c -46.82992,0.30933 -90.69145,36.78563 -98.23753,83.32831 -3.14941,17.26631 0.40033,35.05636 -3.07396,52.34707 -1.11536,8.83094 -5.31774,17.74418 -1.25501,26.46334 5.69465,16.43595 23.78417,24.34383 40.21971,24.78292 6.05453,0.56909 12.50488,-0.55321 17.50304,3.64086 40.23915,21.36817 93.91044,11.9571 124.00024,-22.2572 24.48331,-26.87801 33.07898,-67.53088 19.81784,-101.62311 -3.23319,-9.83056 -4.64432,-23.03554 4.83817,-29.96344 5.40072,-5.04589 13.2621,-5.23487 19.21875,-9.125 2.1375,-1.83525 5.25336,-5.59044 4.5,-7.65625 -4.88128,0.16187 -6.74646,-6.04591 -11.875,-5.53125 -9.15347,-0.8243 -15.10227,7.93501 -23.9375,8.75 -7.67669,1.46577 -16.01451,1.53006 -23.625,0.125 -18.98594,-15.66547 -43.52069,-23.95495 -68.09375,-23.28125 z"
         style="color:#000000;display:inline;overflow:visible;visibility:visible;fill:#a85d24;fill-opacity:1;fill-rule:evenodd;stroke:none;stroke-width:0.50202721;stroke-linecap:round;stroke-linejoin:miter;stroke-miterlimit:4;stroke-dashoffset:0;stroke-opacity:1;marker:none;marker-start:none;marker-mid:none;marker-end:none;enable-background:accumulate"
         inkscape:connector-curvature="0" />
    </clipPath>
    <clipPath
       clipPathUnits="userSpaceOnUse"
       id="clipPath21027">
      <path
         id="path21029"
         d="m -251.09867,441.29593 c -46.82992,0.30933 -90.69145,36.78563 -98.23753,83.32831 -3.14941,17.26631 0.40033,35.05636 -3.07396,52.34707 -1.11536,8.83094 -5.31774,17.74418 -1.25501,26.46334 5.69465,16.43595 23.78417,24.34383 40.21971,24.78292 6.05453,0.56909 12.50488,-0.55321 17.50304,3.64086 40.23915,21.36817 93.91044,11.9571 124.00024,-22.2572 24.48331,-26.87801 33.07898,-67.53088 19.81784,-101.62311 -3.23319,-9.83056 -4.64432,-23.03554 4.83817,-29.96344 5.40072,-5.04589 13.2621,-5.23487 19.21875,-9.125 2.1375,-1.83525 5.25336,-5.59044 4.5,-7.65625 -4.88128,0.16187 -6.74646,-6.04591 -11.875,-5.53125 -9.15347,-0.8243 -15.10227,7.93501 -23.9375,8.75 -7.67669,1.46577 -16.01451,1.53006 -23.625,0.125 -18.98594,-15.66547 -43.52069,-23.95495 -68.09375,-23.28125 z"
         style="color:#000000;display:inline;overflow:visible;visibility:visible;fill:#a85d24;fill-opacity:1;fill-rule:evenodd;stroke:none;stroke-width:0.50202721;stroke-linecap:round;stroke-linejoin:miter;stroke-miterlimit:4;stroke-dashoffset:0;stroke-opacity:1;marker:none;marker-start:none;marker-mid:none;marker-end:none;enable-background:accumulate"
         inkscape:connector-curvature="0" />
    </clipPath>
    <clipPath
       clipPathUnits="userSpaceOnUse"
       id="clipPath21031">
      <path
         id="path21033"
         d="m -239.19951,416.41587 c -46.82992,0.30933 -90.69145,36.78563 -98.23753,83.32831 -3.14941,17.26631 0.40033,35.05636 -3.07396,52.34707 -1.11536,8.83094 -5.31774,17.74418 -1.25501,26.46334 5.69465,16.43595 23.78417,24.34383 40.21971,24.78292 6.05453,0.56909 12.50488,-0.55321 17.50304,3.64086 40.23915,21.36817 93.91044,11.9571 124.00024,-22.2572 24.48331,-26.87801 33.07898,-67.53088 19.81784,-101.62311 -3.23319,-9.83056 -4.64432,-23.03554 4.83817,-29.96344 5.40072,-5.04589 13.2621,-5.23487 19.21875,-9.125 2.1375,-1.83525 5.25336,-5.59044 4.5,-7.65625 -4.88128,0.16187 -6.74646,-6.04591 -11.875,-5.53125 -9.15347,-0.8243 -15.10227,7.93501 -23.9375,8.75 -7.67669,1.46577 -16.01451,1.53006 -23.625,0.125 -18.98594,-15.66547 -43.52069,-23.95495 -68.09375,-23.28125 z"
         style="color:#000000;display:inline;overflow:visible;visibility:visible;fill:#a85d24;fill-opacity:1;fill-rule:evenodd;stroke:none;stroke-width:0.50202721;stroke-linecap:round;stroke-linejoin:miter;stroke-miterlimit:4;stroke-dashoffset:0;stroke-opacity:1;marker:none;marker-start:none;marker-mid:none;marker-end:none;enable-background:accumulate"
         inkscape:connector-curvature="0" />
    </clipPath>
    <clipPath
       clipPathUnits="userSpaceOnUse"
       id="clipPath21035">
      <path
         id="path21037"
         d="m -239.19951,416.41587 c -46.82992,0.30933 -90.69145,36.78563 -98.23753,83.32831 -3.14941,17.26631 0.40033,35.05636 -3.07396,52.34707 -1.11536,8.83094 -5.31774,17.74418 -1.25501,26.46334 5.69465,16.43595 23.78417,24.34383 40.21971,24.78292 6.05453,0.56909 12.50488,-0.55321 17.50304,3.64086 40.23915,21.36817 93.91044,11.9571 124.00024,-22.2572 24.48331,-26.87801 33.07898,-67.53088 19.81784,-101.62311 -3.23319,-9.83056 -4.64432,-23.03554 4.83817,-29.96344 5.40072,-5.04589 13.2621,-5.23487 19.21875,-9.125 2.1375,-1.83525 5.25336,-5.59044 4.5,-7.65625 -4.88128,0.16187 -6.74646,-6.04591 -11.875,-5.53125 -9.15347,-0.8243 -15.10227,7.93501 -23.9375,8.75 -7.67669,1.46577 -16.01451,1.53006 -23.625,0.125 -18.98594,-15.66547 -43.52069,-23.95495 -68.09375,-23.28125 z"
         style="color:#000000;display:inline;overflow:visible;visibility:visible;fill:#a85d24;fill-opacity:1;fill-rule:evenodd;stroke:none;stroke-width:0.50202721;stroke-linecap:round;stroke-linejoin:miter;stroke-miterlimit:4;stroke-dashoffset:0;stroke-opacity:1;marker:none;marker-start:none;marker-mid:none;marker-end:none;enable-background:accumulate"
         inkscape:connector-curvature="0" />
    </clipPath>
    <clipPath
       clipPathUnits="userSpaceOnUse"
       id="clipPath21039">
      <path
         id="path21041"
         d="m -239.19951,416.41587 c -46.82992,0.30933 -90.69145,36.78563 -98.23753,83.32831 -3.14941,17.26631 0.40033,35.05636 -3.07396,52.34707 -1.11536,8.83094 -5.31774,17.74418 -1.25501,26.46334 5.69465,16.43595 23.78417,24.34383 40.21971,24.78292 6.05453,0.56909 12.50488,-0.55321 17.50304,3.64086 40.23915,21.36817 93.91044,11.9571 124.00024,-22.2572 24.48331,-26.87801 33.07898,-67.53088 19.81784,-101.62311 -3.23319,-9.83056 -4.64432,-23.03554 4.83817,-29.96344 5.40072,-5.04589 13.2621,-5.23487 19.21875,-9.125 2.1375,-1.83525 5.25336,-5.59044 4.5,-7.65625 -4.88128,0.16187 -6.74646,-6.04591 -11.875,-5.53125 -9.15347,-0.8243 -15.10227,7.93501 -23.9375,8.75 -7.67669,1.46577 -16.01451,1.53006 -23.625,0.125 -18.98594,-15.66547 -43.52069,-23.95495 -68.09375,-23.28125 z"
         style="color:#000000;display:inline;overflow:visible;visibility:visible;fill:#a85d24;fill-opacity:1;fill-rule:evenodd;stroke:none;stroke-width:0.50202721;stroke-linecap:round;stroke-linejoin:miter;stroke-miterlimit:4;stroke-dashoffset:0;stroke-opacity:1;marker:none;marker-start:none;marker-mid:none;marker-end:none;enable-background:accumulate"
         inkscape:connector-curvature="0" />
    </clipPath>
    <radialGradient
       inkscape:collect="always"
       xlink:href="#linearGradient7344"
       id="radialGradient7342"
       cx="-334.99622"
       cy="595.7356"
       fx="-334.99622"
       fy="595.7356"
       r="13.375"
       gradientTransform="matrix(0.3715293,-0.2017657,0.3951167,0.7275633,-2.8107793,-269.82059)"
       gradientUnits="userSpaceOnUse" />
    <radialGradient
       inkscape:collect="always"
       xlink:href="#linearGradient8327"
       id="radialGradient8333"
       cx="-247.0377"
       cy="498.89249"
       fx="-247.0377"
       fy="498.89249"
       r="115.97327"
       gradientTransform="matrix(0.8206583,-0.1041272,0.08213825,0.6473518,-87.20684,152.9067)"
       gradientUnits="userSpaceOnUse" />
    <radialGradient
       inkscape:collect="always"
       xlink:href="#linearGradient8335"
       id="radialGradient8341"
       cx="-227.52658"
       cy="516.25616"
       fx="-227.52658"
       fy="516.25616"
       r="115.97327"
       gradientTransform="matrix(1,0,0,0.8612186,0,71.64674)"
       gradientUnits="userSpaceOnUse" />
    <filter
       inkscape:collect="always"
       id="filter11253">
      <feGaussianBlur
         inkscape:collect="always"
         stdDeviation="0.045227149"
         id="feGaussianBlur11255" />
    </filter>
    <filter
       inkscape:collect="always"
       x="-0.21278279"
       width="1.4255656"
       y="-0.044113509"
       height="1.088227"
       id="filter12312">
      <feGaussianBlur
         inkscape:collect="always"
         stdDeviation="2.1133543"
         id="feGaussianBlur12314" />
    </filter>
    <linearGradient
       inkscape:collect="always"
       xlink:href="#linearGradient12320"
       id="linearGradient12326"
       x1="-227.82248"
       y1="423.13821"
       x2="-175.38715"
       y2="444.38354"
       gradientUnits="userSpaceOnUse"
       gradientTransform="translate(440.61386,-352.16947)" />
    <linearGradient
       inkscape:collect="always"
       xlink:href="#linearGradient13297"
       id="linearGradient13303"
       x1="-330.88501"
       y1="527.55682"
       x2="-339.70441"
       y2="560.55493"
       gradientUnits="userSpaceOnUse"
       gradientTransform="translate(440.61386,-352.16947)" />
  </defs>
  <metadata
     id="metadata7">
    <rdf:RDF>
      <cc:Work
         rdf:about="">
        <dc:format>image/svg+xml</dc:format>
        <dc:type
           rdf:resource="http://purl.org/dc/dcmitype/StillImage" />
        <dc:title></dc:title>
        <cc:license
           rdf:resource="http://creativecommons.org/publicdomain/zero/1.0/" />
      </cc:Work>
      <cc:License
         rdf:about="http://creativecommons.org/publicdomain/zero/1.0/">
        <cc:permits
           rdf:resource="http://creativecommons.org/ns#Reproduction" />
        <cc:permits
           rdf:resource="http://creativecommons.org/ns#Distribution" />
        <cc:permits
           rdf:resource="http://creativecommons.org/ns#DerivativeWorks" />
      </cc:License>
    </rdf:RDF>
  </metadata>
  <g
     inkscape:label="Ebene 1"
     id="layer1"
     inkscape:groupmode="layer"
     transform="translate(-144.04374,-106.17091)">
    <g
       id="g930"
       transform="matrix(0.52578179,0,0,0.52578179,98.658192,72.411554)">
      <path
         transform="translate(440.61386,-352.16947)"
         clip-path="url(#clipPath21039)"
         id="path4216"
         d="m -237.625,411.84375 c -58.76221,-10e-6 -106.4375,47.061 -106.4375,105.03125 -2e-5,3.77274 0.19984,7.48596 0.59375,11.15625 -0.44056,6.28124 -1.0589,14.30594 -1.75,21.5625 -1.01729,10.6813 -7.60596,17.78664 0.25,33.21875 1.0077,1.97956 2.25606,4.09634 3.78125,6.375 6.58068,9.83169 18.9202,14.32949 29.25,16.625 7.49851,1.66633 13.18204,0.63578 20.125,1.46875 15.87589,9.28631 34.40473,14.59375 54.1875,14.59375 58.76217,-2e-5 106.46875,-47.02976 106.46875,-105 -2e-5,-13.51756 -2.62181,-26.44072 -7.34375,-38.3125 -0.70616,-3.7829 -1.28125,-7.80319 -1.28125,-11.03125 -2e-5,-8.60818 6.89184,-14.36073 15.5,-16.65625 8.60817,-2.29553 11.48284,-4.59071 15.5,-12.625 4.01714,-8.0343 -4.59376,-6.31249 -4.59375,-6.3125 0,-10e-6 -0.09,-0.0798 -0.25,-0.25 -1.5308,-1.62756 -10.17513,-9.89883 -22.125,-2.625 -13.19921,8.03427 -17.79233,6.90625 -29.84375,6.90625 -1.6004,-2e-5 -3.12136,-0.12891 -4.5625,-0.3125 -18.36845,-14.8681 -41.87244,-23.8125 -67.46875,-23.8125 z"
         style="color:#000000;display:inline;overflow:visible;visibility:visible;fill:url(#radialGradient8333);fill-opacity:1;fill-rule:evenodd;stroke:none;stroke-width:0.50202721;stroke-linecap:round;stroke-linejoin:miter;stroke-miterlimit:4;stroke-dashoffset:0;stroke-opacity:1;marker:none;marker-start:none;marker-mid:none;marker-end:none;enable-background:accumulate"
         inkscape:connector-curvature="0" />
      <path
         transform="translate(440.61386,-352.16947)"
         clip-path="url(#clipPath21035)"
         id="path4226"
         style="fill:none;fill-opacity:1;fill-rule:evenodd;stroke:url(#radialGradient8341);stroke-width:3.5999999;stroke-linecap:butt;stroke-linejoin:miter;stroke-miterlimit:4;stroke-dasharray:none;stroke-opacity:1;filter:url(#filter20002)"
         d="m -353.91629,588.69326 c 0,0 22.24835,-24.42293 52.48346,-49.58705 10.92455,-9.09231 22.26818,-19.02765 34.97925,-26.69987 81.91804,-49.44456 47.45868,-29.36715 112.72971,-61.22389 1.15015,-0.56135 2.28066,-1.11305 3.39187,-1.65525 54.950507,-26.81264 62.691069,-30.41441 62.691069,-30.41441 M -353.89387,587.72383 c 1.99695,-2.01212 20.66055,-26.09692 48.83562,-52.87693 10.15624,-9.54015 21.84792,-19.35886 34.42927,-27.94335 76.96102,-50.30981 50.05127,-31.23732 115.06916,-57.16556 1.16294,-0.44767 2.30857,-0.88449 3.43719,-1.31057 52.555912,-23.98137 61.855119,-28.66056 63.356699,-30.72753 M -353.87146,586.75441 c 3.9939,-4.02426 19.55866,-27.28503 45.6737,-55.68091 9.38791,-9.98801 20.74058,-20.49978 33.39339,-29.67275 72.00399,-48.25963 52.64385,-33.10749 117.40859,-53.10722 1.17574,-0.33399 2.33649,-0.65594 3.48252,-0.96589 50.16131,-21.1501 61.019167,-26.90671 64.022339,-31.04066 m -263.958119,169.498 c 5.99085,-6.03638 18.45676,-28.47312 42.51176,-58.48488 8.61959,-10.43587 19.63326,-21.64071 32.35751,-31.40214 67.04698,-46.20946 55.23644,-34.97766 119.74804,-49.04889 1.18853,-0.22031 2.3644,-0.42738 3.52784,-0.62121 47.76671,-18.31883 60.183217,-25.15285 64.687967,-31.35378 M -353.82662,584.81556 c 7.9878,-8.04851 17.35486,-29.66122 39.34983,-61.28887 7.85126,-10.88371 18.52593,-22.78162 31.32163,-33.13153 62.08995,-44.15928 57.82902,-36.84782 122.08747,-44.99055 1.20133,-0.10663 2.39233,-0.19883 3.57317,-0.27653 45.37211,-15.48757 59.347267,-23.399 65.353597,-31.66691 M -353.80421,583.84613 c 9.98475,-10.06063 16.25297,-30.84931 36.1879,-64.09284 7.08295,-11.33157 17.4186,-23.92254 30.28576,-34.86092 57.13292,-42.10911 60.4216,-38.71799 124.4269,-40.93222 1.21412,0.007 2.42025,0.0297 3.6185,0.0681 42.97751,-12.65629 58.51132,-21.64514 66.019237,-31.98002 M -353.78179,582.87671 c 11.9817,-12.07277 15.15107,-32.03742 33.02597,-66.89682 6.31462,-11.77943 16.31127,-25.06347 29.24987,-36.59032 52.1759,-40.05893 63.01419,-40.58816 126.76635,-36.87388 1.22692,0.12072 2.44815,0.25829 3.66382,0.41282 40.58291,-9.82502 57.67538,-19.89129 66.684867,-32.29315 M -353.75938,581.90728 c 13.97866,-14.08489 14.04918,-33.22551 29.86405,-69.7008 5.54629,-12.22727 15.20394,-26.20438 28.21398,-38.3197 47.21889,-38.00876 65.60678,-42.45833 129.1058,-32.81555 1.23972,0.2344 2.47607,0.48684 3.70913,0.7575 38.18832,-6.99375 56.83944,-18.13744 67.350517,-32.60627 m -258.221057,171.7154 c 15.9756,-16.09702 12.94728,-34.41361 26.70211,-72.50478 4.77798,-12.67513 14.09662,-27.3453 27.17811,-40.0491 42.26186,-35.95858 68.19936,-44.32849 131.44523,-28.75721 1.25252,0.34808 2.50399,0.7154 3.75447,1.10218 35.7937,-4.16248 56.00348,-16.38359 68.016137,-32.9194 M -353.71454,579.96843 c 17.97255,-18.10914 11.84538,-35.6017 23.54018,-75.30875 4.00965,-13.12299 12.98928,-28.48623 26.14222,-41.77849 37.30484,-33.90841 70.79195,-46.19866 133.78468,-24.69888 1.26531,0.46176 2.5319,0.94395 3.79979,1.44686 33.3991,-1.33121 55.16753,-14.62973 68.681767,-33.23252 M -353.69213,578.99901 c 19.96951,-20.12128 10.74349,-36.78981 20.37826,-78.11274 3.24132,-13.57083 11.88196,-29.62714 25.10634,-43.50788 32.34781,-31.85823 73.38453,-48.06883 136.12411,-20.64054 1.27811,0.57544 2.55982,1.17251 3.84512,1.79154 31.0045,1.50006 54.33158,-12.87588 69.347407,-33.54565 M -353.66971,578.02958 c 21.96645,-22.1334 9.64158,-37.9779 17.21632,-80.91671 2.47301,-14.01869 10.77463,-30.76807 24.07046,-45.23727 27.3908,-29.80806 75.97712,-49.939 138.46356,-16.58221 1.2909,0.68912 2.58774,1.40106 3.89044,2.13622 28.6099,4.33133 53.49563,-11.12203 70.01304,-33.85877 m -244.66823,196.29822 c 0,0 34.01328,-3.40133 51.99172,2.91542 16.54371,5.81265 54.107,19.51644 89.11694,5.3186 3.03622,-1.23129 6.05323,-2.67244 9.03566,-4.34679 27.69653,-15.54893 58.58679,-48.99416 56.36486,-89.40633 -0.63306,-11.36221 -1.88311,-20.93252 -3.00126,-28.95998 -2.46064,-17.66545 -4.28252,-27.8593 2.51536,-33.23572 10.3823,-8.21132 51.019629,-13.12026 51.505809,-11.6617 M -345.78844,598.85308 c 0,0 32.22166,-4.0896 50.43092,0.30599 16.66327,4.11185 52.86309,15.1327 86.68429,0.95108 2.98071,-1.2603 5.93518,-2.70588 8.84989,-4.35823 30.64179,-17.63262 58.1816,-47.76397 58.273,-85.78931 -0.11053,-10.61271 -0.65326,-19.67211 -0.85491,-27.46154 -1.36602,-16.58507 -2.2781,-26.2898 4.537,-31.54179 12.46872,-9.2029 49.962029,-13.7363 50.404009,-12.41034 M -346.89277,597.8371 c 0,0 30.43006,-4.77787 48.87013,-2.30344 16.78283,2.41104 51.61918,10.74897 84.25164,-3.41645 2.92519,-1.28931 5.81712,-2.73931 8.66411,-4.36965 33.58705,-19.71631 57.77642,-46.53379 60.18116,-82.1723 0.41199,-9.86322 0.57657,-18.4117 1.29144,-25.9631 -0.2714,-15.50468 -0.27368,-24.7203 6.55863,-29.84785 14.55514,-10.19448 48.904419,-14.35235 49.302209,-13.15898 M -347.9971,596.82111 c 0,0 28.63847,-5.46613 47.30934,-4.91285 16.90238,0.71022 50.37528,6.36522 81.81899,-7.78398 2.86968,-1.31832 5.69907,-2.77274 8.47834,-4.38109 36.53231,-21.8 57.37123,-45.3036 62.0893,-78.55528 0.93452,-9.11373 1.80642,-17.1513 3.4378,-24.46466 0.82321,-14.4243 1.73073,-23.1508 8.58026,-28.15392 16.64155,-11.18606 47.846819,-14.96839 48.200409,-13.90762 M -349.10142,595.80513 c 0,0 26.84685,-6.15439 45.74854,-7.52228 17.02194,-0.99058 49.13137,1.98149 79.38634,-12.15151 2.81416,-1.34732 5.58101,-2.80617 8.29256,-4.39251 39.47758,-23.8837 56.96605,-44.07343 63.99745,-74.93828 1.45705,-8.36423 3.03626,-15.89088 5.58416,-22.96621 1.91782,-13.34391 3.73515,-21.58129 10.60189,-26.45998 18.72797,-12.17764 46.789219,-15.58444 47.098609,-14.65626 M -350.20575,594.78915 c 0,0 25.05524,-6.84266 44.18774,-10.13171 17.14151,-2.69139 47.88747,-2.40224 76.9537,-16.51903 2.75865,-1.37633 5.46296,-2.83961 8.10679,-4.40395 42.42283,-25.96739 56.56087,-42.84324 65.9056,-71.32126 1.97957,-7.61473 4.2661,-14.63047 7.7305,-21.46777 3.01245,-12.26353 5.73957,-20.01179 12.62353,-24.76605 20.81439,-13.16922 45.731619,-16.20048 45.996809,-15.4049 M -351.31008,593.77317 c 0,0 23.26364,-7.53093 42.62695,-12.74114 17.26107,-4.3922 46.64356,-6.78598 74.52105,-20.88656 2.70314,-1.40533 5.34491,-2.87303 7.92101,-4.41538 45.3681,-28.05107 56.15569,-41.61305 67.81375,-67.70424 2.5021,-6.86524 5.49594,-13.37007 9.87686,-19.96933 4.10706,-11.18315 7.74399,-18.44229 14.64516,-23.07211 22.90081,-14.1608 44.674009,-16.81652 44.894999,-16.15354 M -352.41441,592.75719 c 0,0 21.47204,-8.2192 41.06616,-15.35057 17.38062,-6.093 45.39965,-11.16971 72.0884,-25.25408 2.64762,-1.43434 5.22685,-2.90647 7.73524,-4.42681 48.31336,-30.13477 55.7505,-40.38287 69.72188,-64.08723 3.02464,-6.11575 6.7258,-12.10966 12.02323,-18.47089 5.20167,-10.10276 9.7484,-16.87279 16.66678,-21.37818 24.98724,-15.15238 43.616419,-17.43256 43.793209,-16.90218 M -353.51873,591.74121 c 0,0 19.68043,-8.90747 39.50536,-17.95999 17.50018,-7.79382 44.15574,-15.55345 69.65575,-29.62162 2.59211,-1.46334 5.1088,-2.9399 7.54946,-4.43824 51.25862,-32.21846 55.34532,-39.15268 71.63005,-60.47021 3.54715,-5.36626 7.95562,-10.84926 14.16957,-16.97245 6.29629,-9.02238 11.75281,-15.30329 18.68841,-19.68424 27.07365,-16.14396 42.558819,-18.04861 42.691409,-17.65082 M -354.62306,590.72522 c 0,0 17.88882,-9.59573 37.94457,-20.56941 17.61974,-9.49462 42.91183,-19.93719 67.2231,-33.98914 2.5366,-1.49235 4.99075,-2.97333 7.36369,-4.44967 54.20388,-34.30215 54.94013,-37.9225 73.53819,-56.8532 4.06968,-4.61677 9.18547,-9.58885 16.31592,-15.47401 7.39091,-7.94199 13.75724,-13.73378 20.71005,-17.99031 29.16007,-17.13554 41.501219,-18.66465 41.589609,-18.39946 M -355.72739,589.70924 c 0,0 16.09722,-10.284 36.38379,-23.17884 17.73929,-11.19543 41.66792,-24.32092 64.79044,-38.35667 2.48108,-1.52135 4.8727,-3.00676 7.17791,-4.4611 57.14915,-36.38584 54.53495,-36.69231 75.44634,-53.23618 4.59221,-3.86727 10.41532,-8.32844 18.46228,-13.97557 8.48552,-6.86161 15.76165,-12.16428 22.73168,-16.29637 31.246492,-18.12712 40.443609,-19.2807 40.487809,-19.1481 M -356.83171,588.69326 c 0,0 14.30561,-10.97226 34.82298,-25.78827 17.85886,-12.89624 40.42402,-28.70465 62.3578,-42.72419 2.42557,-1.55036 4.75464,-3.0402 6.99214,-4.47254 60.0944,-38.46953 54.12976,-35.46213 77.35448,-49.61917 5.11474,-3.11777 11.64516,-7.06803 20.60864,-12.47712 9.58014,-5.78122 17.76607,-10.59478 24.75331,-14.60244 33.332907,-19.1187 39.386009,-19.89674 39.386009,-19.89674"
         sodipodi:nodetypes="cssssccccccccccccccccccccccccccccccccccccccccccccccccccccccccccccccssscccssscssccccccccccccccccccccccccccccccccccccccccccccccccccccccccccccccccccccccccccccccccccssssssc"
         inkscape:connector-curvature="0" />
      <path
         transform="translate(440.61386,-352.16947)"
         clip-path="url(#clipPath21031)"
         sodipodi:nodetypes="cssssccccccccccccccccccccccccccccccccccccccccccccccccccccccccccccccssscccssscssccccccccccccccccccccccccccccccccccccccccccccccccccccccccccccccccccccccccccccccccccssssssc"
         d="m -353.37542,587.61152 c 0,0 22.24835,-24.42293 52.48346,-49.58705 10.92455,-9.09231 22.26818,-19.02765 34.97925,-26.69987 81.91804,-49.44456 47.45868,-29.36715 112.7297,-61.22389 1.15015,-0.56135 2.28066,-1.11305 3.39187,-1.65525 54.950517,-26.81264 62.691079,-30.41441 62.691079,-30.41441 M -353.353,586.64209 c 1.99695,-2.01212 20.66055,-26.09692 48.83562,-52.87693 10.15624,-9.54015 21.84792,-19.35886 34.42927,-27.94335 76.96102,-50.30981 50.05127,-31.23732 115.06915,-57.16556 1.16294,-0.44767 2.30857,-0.88449 3.43719,-1.31057 52.555914,-23.98137 61.855129,-28.66056 63.356709,-30.72753 M -353.33059,585.67267 c 3.9939,-4.02426 19.55866,-27.28503 45.6737,-55.68091 9.38791,-9.98801 20.74058,-20.49978 33.39339,-29.67275 72.00399,-48.25963 52.64385,-33.10749 117.40858,-53.10722 1.17574,-0.33399 2.33649,-0.65594 3.48252,-0.96589 50.16133,-21.1501 61.019177,-26.90671 64.022349,-31.04066 m -263.958119,169.498 c 5.99085,-6.03638 18.45676,-28.47312 42.51176,-58.48488 8.61959,-10.43587 19.63326,-21.64071 32.35751,-31.40214 67.04698,-46.20946 55.23644,-34.97766 119.74803,-49.04889 1.18853,-0.22031 2.3644,-0.42738 3.52784,-0.62121 47.76673,-18.31883 60.183227,-25.15285 64.687977,-31.35378 M -353.28575,583.73382 c 7.9878,-8.04851 17.35486,-29.66122 39.34983,-61.28887 7.85126,-10.88371 18.52593,-22.78162 31.32163,-33.13153 62.08995,-44.15928 57.82902,-36.84782 122.08746,-44.99055 1.20133,-0.10663 2.39233,-0.19883 3.57317,-0.27653 45.37212,-15.48757 59.347274,-23.399 65.353607,-31.66691 M -353.26334,582.76439 c 9.98475,-10.06063 16.25297,-30.84931 36.1879,-64.09284 7.08295,-11.33157 17.4186,-23.92254 30.28576,-34.86092 57.13292,-42.10911 60.4216,-38.71799 124.4269,-40.93222 1.21412,0.007 2.42024,0.0297 3.61849,0.0681 42.97753,-12.65629 58.51133,-21.64514 66.019247,-31.98002 M -353.24092,581.79497 c 11.9817,-12.07277 15.15107,-32.03742 33.02597,-66.89682 6.31462,-11.77943 16.31127,-25.06347 29.24987,-36.59032 52.1759,-40.05893 63.01419,-40.58816 126.76635,-36.87388 1.22692,0.12072 2.44815,0.25829 3.66381,0.41282 40.58293,-9.82502 57.6754,-19.89129 66.684877,-32.29315 M -353.21851,580.82554 c 13.97866,-14.08489 14.04918,-33.22551 29.86405,-69.7008 5.54629,-12.22727 15.20394,-26.20438 28.21398,-38.3197 47.21889,-38.00876 65.60678,-42.45833 129.1058,-32.81555 1.23972,0.2344 2.47607,0.48684 3.70913,0.7575 38.18833,-6.99375 56.83945,-18.13744 67.350517,-32.60627 m -258.221057,171.7154 c 15.9756,-16.09702 12.94728,-34.41361 26.70211,-72.50478 4.77798,-12.67513 14.09662,-27.3453 27.17811,-40.0491 42.26186,-35.95858 68.19936,-44.32849 131.44523,-28.75721 1.25252,0.34808 2.50399,0.7154 3.75447,1.10218 35.7937,-4.16248 56.00349,-16.38359 68.016137,-32.9194 M -353.17367,578.88669 c 17.97255,-18.10914 11.84538,-35.6017 23.54018,-75.30875 4.00965,-13.12299 12.98928,-28.48623 26.14222,-41.77849 37.30484,-33.90841 70.79195,-46.19866 133.78468,-24.69888 1.26531,0.46176 2.5319,0.94395 3.79979,1.44686 33.39909,-1.33121 55.16753,-14.62973 68.681767,-33.23252 M -353.15126,577.91727 c 19.96951,-20.12128 10.74349,-36.78981 20.37826,-78.11274 3.24132,-13.57083 11.88196,-29.62714 25.10634,-43.50788 32.34781,-31.85823 73.38453,-48.06883 136.12411,-20.64054 1.27811,0.57544 2.55982,1.17251 3.84512,1.79154 31.00449,1.50006 54.33159,-12.87588 69.347404,-33.54565 M -353.12884,576.94784 c 21.96645,-22.1334 9.64158,-37.9779 17.21632,-80.91671 2.47301,-14.01869 10.77463,-30.76807 24.07046,-45.23727 27.3908,-29.80806 75.97712,-49.939 138.46356,-16.58221 1.2909,0.68912 2.58774,1.40106 3.89044,2.13622 28.60989,4.33133 53.49564,-11.12203 70.013044,-33.85877 M -344.14325,598.78732 c 0,0 34.01328,-3.40133 51.99172,2.91542 16.54371,5.81265 54.107,19.51644 89.11694,5.3186 3.03622,-1.23129 6.05323,-2.67244 9.03566,-4.34679 27.69653,-15.54893 58.58678,-48.99416 56.36485,-89.40633 -0.63306,-11.36221 -1.88311,-20.93252 -3.00126,-28.95998 -2.46064,-17.66545 -4.28252,-27.8593 2.51536,-33.23572 10.38231,-8.21132 51.019639,-13.12026 51.505819,-11.6617 M -345.24757,597.77134 c 0,0 32.22166,-4.0896 50.43092,0.30599 16.66327,4.11185 52.86309,15.1327 86.68429,0.95108 2.98071,-1.2603 5.93518,-2.70588 8.84989,-4.35823 30.64179,-17.63262 58.18159,-47.76397 58.27299,-85.78931 -0.11053,-10.61271 -0.65326,-19.67211 -0.85491,-27.46154 -1.36602,-16.58507 -2.2781,-26.2898 4.537,-31.54179 12.46874,-9.2029 49.962039,-13.7363 50.404019,-12.41034 M -346.3519,596.75536 c 0,0 30.43006,-4.77787 48.87013,-2.30344 16.78283,2.41104 51.61918,10.74897 84.25164,-3.41645 2.92519,-1.28931 5.81712,-2.73931 8.66411,-4.36965 33.58705,-19.71631 57.77641,-46.53379 60.18115,-82.1723 0.41199,-9.86322 0.57657,-18.4117 1.29144,-25.9631 -0.2714,-15.50468 -0.27368,-24.7203 6.55863,-29.84785 14.55516,-10.19448 48.904429,-14.35235 49.302219,-13.15898 M -347.45623,595.73937 c 0,0 28.63847,-5.46613 47.30934,-4.91285 16.90238,0.71022 50.37528,6.36522 81.81899,-7.78398 2.86968,-1.31832 5.69907,-2.77274 8.47834,-4.38109 36.53231,-21.8 57.37122,-45.3036 62.08929,-78.55528 0.93452,-9.11373 1.80642,-17.1513 3.4378,-24.46466 0.82321,-14.4243 1.73073,-23.1508 8.58026,-28.15392 16.64157,-11.18606 47.846829,-14.96839 48.200419,-13.90762 M -348.56055,594.72339 c 0,0 26.84685,-6.15439 45.74854,-7.52228 17.02194,-0.99058 49.13137,1.98149 79.38634,-12.15151 2.81416,-1.34732 5.58101,-2.80617 8.29256,-4.39251 39.47758,-23.8837 56.96604,-44.07343 63.99744,-74.93828 1.45705,-8.36423 3.03626,-15.89088 5.58416,-22.96621 1.91782,-13.34391 3.73515,-21.58129 10.60189,-26.45998 18.72799,-12.17764 46.789229,-15.58444 47.098619,-14.65626 M -349.66488,593.70741 c 0,0 25.05524,-6.84266 44.18774,-10.13171 17.14151,-2.69139 47.88747,-2.40224 76.9537,-16.51903 2.75865,-1.37633 5.46296,-2.83961 8.10679,-4.40395 42.42283,-25.96739 56.56087,-42.84324 65.90559,-71.32126 1.97957,-7.61473 4.2661,-14.63047 7.7305,-21.46777 3.01245,-12.26353 5.73957,-20.01179 12.62353,-24.76605 20.81441,-13.16922 45.731629,-16.20048 45.996819,-15.4049 M -350.76921,592.69143 c 0,0 23.26364,-7.53093 42.62695,-12.74114 17.26107,-4.3922 46.64356,-6.78598 74.52105,-20.88656 2.70314,-1.40533 5.34491,-2.87303 7.92101,-4.41538 45.3681,-28.05107 56.15569,-41.61305 67.81374,-67.70424 2.5021,-6.86524 5.49594,-13.37007 9.87686,-19.96933 4.10706,-11.18315 7.74399,-18.44229 14.64516,-23.07211 22.90082,-14.1608 44.674019,-16.81652 44.895009,-16.15354 M -351.87354,591.67545 c 0,0 21.47204,-8.2192 41.06616,-15.35057 17.38062,-6.093 45.39965,-11.16971 72.0884,-25.25408 2.64762,-1.43434 5.22685,-2.90647 7.73524,-4.42681 48.31336,-30.13477 55.7505,-40.38287 69.72188,-64.08723 3.02463,-6.11575 6.72579,-12.10966 12.02322,-18.47089 5.20167,-10.10276 9.7484,-16.87279 16.66678,-21.37818 24.98726,-15.15238 43.616429,-17.43256 43.793219,-16.90218 M -352.97786,590.65947 c 0,0 19.68043,-8.90747 39.50536,-17.95999 17.50018,-7.79382 44.15574,-15.55345 69.65575,-29.62162 2.59211,-1.46334 5.1088,-2.9399 7.54946,-4.43824 51.25862,-32.21846 55.34532,-39.15268 71.63005,-60.47021 3.54714,-5.36626 7.95561,-10.84926 14.16956,-16.97245 6.29629,-9.02238 11.75281,-15.30329 18.68842,-19.68424 27.07366,-16.14396 42.558819,-18.04861 42.691409,-17.65082 M -354.08219,589.64348 c 0,0 17.88882,-9.59573 37.94457,-20.56941 17.61974,-9.49462 42.91183,-19.93719 67.2231,-33.98914 2.5366,-1.49235 4.99075,-2.97333 7.36369,-4.44967 54.20388,-34.30215 54.94013,-37.9225 73.53819,-56.8532 4.06968,-4.61677 9.18546,-9.58885 16.31591,-15.47401 7.39091,-7.94199 13.75724,-13.73378 20.71006,-17.99031 29.16008,-17.13554 41.501219,-18.66465 41.589609,-18.39946 M -355.18652,588.6275 c 0,0 16.09722,-10.284 36.38379,-23.17884 17.73929,-11.19543 41.66792,-24.32092 64.79044,-38.35667 2.48108,-1.52135 4.8727,-3.00676 7.17791,-4.4611 57.14915,-36.38584 54.53495,-36.69231 75.44634,-53.23618 4.59221,-3.86727 10.41531,-8.32844 18.46227,-13.97557 8.48552,-6.86161 15.76165,-12.16428 22.73169,-16.29637 31.246484,-18.12712 40.443609,-19.2807 40.487809,-19.1481 M -356.29084,587.61152 c 0,0 14.30561,-10.97226 34.82298,-25.78827 17.85886,-12.89624 40.42402,-28.70465 62.3578,-42.72419 2.42557,-1.55036 4.75464,-3.0402 6.99214,-4.47254 60.0944,-38.46953 54.12976,-35.46213 77.35448,-49.61917 5.11474,-3.11777 11.64516,-7.06803 20.60863,-12.47712 9.58014,-5.78122 17.76607,-10.59478 24.75332,-14.60244 33.332907,-19.1187 39.386009,-19.89674 39.386009,-19.89674"
         style="opacity:0.19230772;fill:none;fill-opacity:1;fill-rule:evenodd;stroke:#ee8128;stroke-width:2.0999999;stroke-linecap:butt;stroke-linejoin:miter;stroke-miterlimit:4;stroke-dasharray:none;stroke-opacity:1;filter:url(#filter18945)"
         id="path3214"
         inkscape:connector-curvature="0" />
      <ellipse
         clip-path="url(#clipPath21027)"
         transform="translate(440.22593,-391.96957)"
         id="path11083"
         style="color:#000000;display:inline;overflow:visible;visibility:visible;opacity:0.83846154;fill:url(#radialGradient12060);fill-opacity:1;fill-rule:evenodd;stroke:none;stroke-width:2.0999999;stroke-linecap:round;stroke-linejoin:miter;stroke-miterlimit:4;stroke-dasharray:none;stroke-dashoffset:0;stroke-opacity:1;marker:none;marker-start:none;marker-mid:none;marker-end:none;enable-background:accumulate"
         cx="-240.68752"
         cy="513.11395"
         rx="47.055763"
         ry="34.615734" />
      <path
         transform="translate(440.61386,-352.16947)"
         clip-path="url(#clipPath21023)"
         id="path20030"
         d="m -345.61646,496.34697 c 0,0 5.94958,36.77922 -1.08174,48.13751 -7.03132,11.35828 -1.08174,38.9427 -1.08174,38.9427 0,0 24.33919,23.25744 38.40183,25.42093 14.06264,2.16348 50.84186,17.84873 50.84186,17.84873 0,0 -13.52178,-18.38961 -37.32009,-36.23834 -23.79832,-17.84874 -26.50267,-30.28877 -30.28877,-40.56531 -3.78609,-10.27655 -9.73567,-8.65394 -11.89916,-19.47135 -2.16348,-10.81742 -7.03132,-34.07487 -7.57219,-34.07487 z"
         style="opacity:0.18846154;fill:#7d2900;fill-opacity:1;fill-rule:evenodd;stroke:none;stroke-width:1px;stroke-linecap:butt;stroke-linejoin:miter;stroke-opacity:1;filter:url(#filter21009)"
         inkscape:connector-curvature="0" />
      <path
         clip-path="url(#clipPath21019)"
         sodipodi:nodetypes="csscccc"
         transform="matrix(1.0935293,0,0,1.2175251,457.68087,-450.03877)"
         id="path21013"
         d="m -187.68218,422.24767 c 0,0 -10.58262,18.00307 5.70402,37.37779 18.67216,22.21254 32.69781,26.98583 41.35174,24.82235 8.65394,-2.16348 25.9618,-11.89916 25.9618,-11.89916 l 18.930484,-25.9618 -19.471354,-26.50267 z"
         style="color:#000000;display:inline;overflow:visible;visibility:visible;opacity:0.18846154;fill:#7d2900;fill-opacity:1;fill-rule:evenodd;stroke:none;stroke-width:1px;stroke-linecap:butt;stroke-linejoin:miter;stroke-miterlimit:4;stroke-dasharray:none;stroke-dashoffset:0;stroke-opacity:1;marker:none;marker-start:none;marker-mid:none;marker-end:none;filter:url(#filter21009);enable-background:accumulate"
         inkscape:connector-curvature="0" />
      <path
         transform="translate(440.61386,-352.16947)"
         clip-path="url(#clipPath21015)"
         id="path13031"
         d="m -240.25,417.875 c -49.47216,0.0617 -95.56417,42.40661 -97.49861,92.24813 -0.34986,17.6257 0.68271,35.69252 -4.03399,52.73388 -4.25245,16.10545 9.41204,31.39334 24.31385,35.39299 9.89892,4.24141 21.55096,0.64248 31.375,5.09375 40.45108,23.69464 97.62863,12.70691 126.78125,-24.3125 22.06351,-26.82883 28.50727,-65.61425 15.53125,-97.78125 -3.53013,-10.53561 -3.02106,-24.51514 7.1875,-31.1875 6.37742,-5.49966 17.6613,-4.31117 21.5625,-12.5625 -4.40395,-1.51818 -7.27765,-6.98436 -12.625,-5.125 -8.29773,1.99437 -14.59412,9.1339 -23.53125,9.09375 -7.53843,0.79068 -16.06651,1.69278 -23.02951,-1.37639 -18.41674,-14.96409 -42.31732,-22.87573 -66.03299,-22.21736 z"
         style="color:#000000;display:inline;overflow:visible;visibility:visible;fill:none;fill-opacity:1;fill-rule:evenodd;stroke:#3b0606;stroke-width:12.70199966;stroke-linecap:round;stroke-linejoin:miter;stroke-miterlimit:4;stroke-dasharray:none;stroke-dashoffset:0;stroke-opacity:1;marker:none;marker-start:none;marker-mid:none;marker-end:none;filter:url(#filter20026);enable-background:accumulate"
         inkscape:connector-curvature="0" />
      <path
         id="path3187"
         d="m 98.113861,216.79928 -0.84375,1.375 c -0.005,0.27526 -0.03869,0.54087 -0.0625,0.8125 l -0.46875,0.75 c -0.29398,0.91806 -0.61615,1.83355 -0.90625,2.75 -0.08352,0.11481 -0.16548,0.22965 -0.25,0.34375 -0.01435,0.0174 -0.01692,0.045 -0.03125,0.0625 -1.26329,0.15415 -2.53084,0.29946 -3.8125,0.125 -0.637,-0.15275 -1.16859,-0.46352 -1.6875,-0.84375 l -0.71875,1.46875 c 0.54263,0.39066 1.12046,0.71331 1.78125,0.875 0.29968,0.043 0.57761,0.0516 0.875,0.0625 -0.02177,0.0244 -0.04072,0.0693 -0.0625,0.0937 l -0.21875,0.75 c -0.08234,0.0129 -0.16775,0.0177 -0.25,0.0312 -0.14164,-0.0817 -0.29617,-0.15886 -0.4375,-0.25 -0.21475,-0.17924 -0.45707,-0.31084 -0.6875,-0.46875 l 0.09375,-0.28125 c -0.06407,0.0713 -0.12272,0.1481 -0.1875,0.21875 -0.07446,-0.0509 -0.14488,-0.10461 -0.21875,-0.15625 -0.2478,-0.17327 -0.51228,-0.3312 -0.78125,-0.46875 -0.38304,-0.2528 -0.80579,-0.30916 -1.25,-0.34375 -0.2628,0.001 -0.51866,0.0209 -0.78125,0.0312 -0.0789,0.002 -0.1711,-7.3e-4 -0.25,0 l -0.625,1.5 c 0.07981,-3.8e-4 0.1702,0.001 0.25,0 0.25989,-0.01 0.52136,-0.022 0.78125,-0.0312 0.42357,0.0247 0.82319,0.0687 1.1875,0.3125 0.26041,0.13356 0.54253,0.26717 0.78125,0.4375 0.04278,0.0298 0.08202,0.0642 0.125,0.0937 l -0.21875,0.6875 c 0.15147,-0.16887 0.3166,-0.33129 0.46875,-0.5 0.06193,0.0427 0.12614,0.0815 0.1875,0.125 l -0.34375,0.84375 c 0.42085,-0.0918 0.85776,-0.14747 1.28125,-0.21875 0.27104,0.15225 0.53757,0.26086 0.8125,0.375 -0.05432,0.0492 -0.1011,0.10788 -0.15625,0.15625 -0.32138,0.22734 -0.43156,0.13919 -0.75,0 -0.27648,-0.12929 -0.5199,-0.0464 -0.78125,0 -0.37567,0.19644 -0.78325,0.31516 -1.1875,0.4375 -0.43808,0.14384 -0.89695,0.24953 -1.34375,0.34375 l -0.59375,1.5 c 0.46368,-0.0687 0.92519,-0.17212 1.375,-0.34375 0.41557,-0.12251 0.82185,-0.23519 1.21875,-0.40625 0.22294,-0.0726 0.36279,-0.21101 0.625,-0.0937 0.33335,0.15841 0.54887,0.30244 0.90625,0.0937 0.52402,-0.44049 1.01056,-0.93063 1.46875,-1.4375 0.41048,0.10678 0.81863,0.19106 1.25,0.1875 -0.03742,0.10978 -0.07122,0.22948 -0.09375,0.34375 -1.05719,1.41399 -2.22822,2.751 -3.625,3.84375 -0.49086,0.36127 -0.18418,-0.0136 -0.53125,-0.0625 -0.19833,-0.0698 -0.4311,-0.0241 -0.625,0 l -0.65625,1.46875 c 0.18302,-0.0124 0.39876,-0.001 0.59375,-0.0312 0.29497,0.18049 0.30134,0.40535 0.71875,0.15625 0.27148,-0.20393 0.52498,-0.43589 0.78125,-0.65625 l -0.5625,1.5 c 1.74335,-0.68601 2.10087,-0.85746 2.625,-1.15625 0.0025,0.0208 -0.0027,0.0417 0,0.0625 l 0.0625,-0.0937 c 0.25114,-0.14443 0.64237,-0.37636 1.28125,-0.75 -0.12529,0.48267 -0.23578,0.98347 -0.3125,1.46875 0.11635,-0.16517 0.22798,-0.3032 0.34375,-0.46875 -0.10008,0.24371 -0.39628,0.95007 -0.375,0.6875 0.01039,-0.0711 0.01998,-0.14746 0.03125,-0.21875 -0.05895,0.0837 -0.0974,0.16625 -0.15625,0.25 -0.05693,0.11906 -0.1944,0.1933 -0.28125,0.28125 l -0.5625,1.5 c 0.10524,-0.0752 0.29224,-0.0609 0.34375,-0.21875 0.17685,-0.25066 0.36875,-0.51571 0.5625,-0.75 0.34425,-0.71495 0.91287,-1.39708 0.9375,-2.21875 0.05648,-0.35195 0.04903,-0.5186 0.0625,-0.71875 0.47805,-0.41681 0.94967,-0.85818 1.375,-1.3125 0.04916,0.17654 0.10238,0.34506 0.1875,0.5 -0.15978,0.25288 -0.28512,0.50268 -0.4375,0.75 -0.15834,0.0636 -0.33433,0.10328 -0.5,0.15625 l -0.5625,1.53125 c 0.02272,-0.007 0.03991,-0.0246 0.0625,-0.0312 -0.12938,0.29439 -0.11918,0.24705 -0.21875,0.46875 -0.03304,0.0267 -0.06083,0.0674 -0.09375,0.0937 l -0.1875,0.5625 c -0.0269,0.0582 -0.07007,0.13651 -0.09375,0.1875 -0.14639,0.0587 -0.17488,0.0746 -0.53125,0.21875 l -0.5625,1.5 c 0.28659,-0.11083 0.29438,-0.10219 0.4375,-0.15625 -0.07932,0.25774 -0.16958,0.61099 -0.375,1.34375 l 0.875,-1.34375 c 0.02375,-0.0809 0.03875,-0.16907 0.0625,-0.25 0.17995,-0.088 0.37516,-0.19947 1.125,-0.625 0.26384,-0.20064 0.52163,-0.4168 0.78125,-0.625 l -0.34375,1.0625 c 0.10317,-0.10522 0.20882,-0.20749 0.3125,-0.3125 -0.16271,0.35773 -0.11161,0.22526 -0.4375,0.9375 l 0.46875,-0.6875 c 0.83035,-0.0304 0.93302,-0.0352 1.3125,-0.0937 -0.58384,1.23529 -0.8002,1.64928 -0.90625,1.9375 -0.01861,0.0139 -0.04402,0.0171 -0.0625,0.0312 l -0.46875,1.53125 c 0.10409,-0.0994 0.23058,-0.16291 0.34375,-0.25 l -0.15625,0.53125 c 0.09939,-0.22265 0.19644,-0.44613 0.3125,-0.65625 0.35381,-0.24882 0.72768,-0.49456 1.125,-0.6875 -0.0019,0.0416 0.0014,0.0833 0,0.125 0.03564,0.39769 0.08937,0.78982 0.125,1.1875 l 0.8125,-1.375 c -0.0095,-0.12453 -0.02179,-0.25047 -0.03125,-0.375 0.18618,-0.0918 0.3825,-0.17926 0.5625,-0.28125 0.11209,-0.0706 0.20393,-0.14484 0.3125,-0.21875 0.12119,0.18101 0.23084,0.35122 0.3125,0.5 -0.20088,0.39056 -0.45651,0.88187 -0.5625,1.125 -0.01784,0.12846 0.0073,0.24968 0,0.375 -0.8811,0.75789 -1.7658,1.50247 -2.6875,2.21875 -0.25273,0.18651 -0.52852,0.37597 -0.78125,0.5625 l -0.5,1.53125 c 0.25403,-0.18607 0.49598,-0.37643 0.75,-0.5625 1.11414,-0.86199 2.19037,-1.76921 3.25,-2.6875 0.07876,0.50396 0.22113,1.00384 0.40625,1.5 -0.32618,0.26504 -0.69265,0.47526 -1.125,0.625 l -0.59375,1.5 c 0.86201,-0.24746 1.46158,-0.72544 2.03125,-1.4375 0.5525,-0.93485 1.070339,-1.99785 1.562499,-3.0625 0.0304,0.0793 0.10595,0.2013 0.125,0.25 l -0.46875,1.5 c 0.0951,-0.0961 0.1861,-0.18513 0.28125,-0.28125 0.15212,-0.19779 0.26418,-0.42128 0.40625,-0.625 10e-4,0.003 0.0297,-0.004 0.0312,0 v 0.0625 c 0.0435,0.10204 0.0473,0.0978 0.125,0.28125 l 0.46875,-0.8125 c 0.15908,0.0716 0.33693,0.14536 0.53125,0.1875 -0.009,0.0228 -0.0224,0.0398 -0.0312,0.0625 -0.11555,0.15333 -0.22234,0.30691 -0.34375,0.46875 l -0.28125,0.90625 c -1.63037,0.79789 -1.18541,0.47716 -2.781249,1.6875 l -0.5,1.53125 c 1.709919,-1.34308 0.73557,-0.6874 3.031249,-1.875 0.15746,-0.0381 0.30991,-0.058 0.46875,-0.0937 0.0476,0.10739 0.10356,0.20712 0.15625,0.3125 l -0.5,1.375 c 0.86639,-0.5761 0.41347,-0.21845 1.375,-1.125 0.21851,-0.26445 0.43874,-0.55197 0.65625,-0.875 0.11453,-0.0182 0.22885,-0.0459 0.34375,-0.0625 0.004,0.0406 -0.005,0.0844 0,0.125 l 0.0937,-0.125 c 0.0732,-0.0103 0.14539,-0.0217 0.21875,-0.0312 -0.21952,0.53494 -0.43198,1.06318 -0.625,1.625 0.0107,0.33255 0.0206,0.66749 0.0312,1 l 0.8125,-1.375 c -6.1e-4,-0.32625 6.2e-4,-0.64248 0,-0.96875 -0.19391,0.11007 -0.12981,-0.0312 0.0625,-0.3125 0.52925,-0.0626 1.06131,-0.13358 1.59375,-0.15625 -0.11039,1.10634 -0.13428,2.24249 -0.21875,3.375 l 0.84375,-1.375 c 0.0414,-0.63238 0.0664,-1.33687 0.0937,-2.03125 1.87158,-0.0101 3.71692,0.27066 5.46875,0.96875 l 0.6875,-1.4375 c -0.90326,-0.36269 -1.83308,-0.62334 -2.78125,-0.78125 l 0.28125,-0.6875 c -0.18518,-0.0334 -0.37701,-0.0642 -0.5625,-0.0937 -0.15878,-0.0946 -0.31955,-0.20533 -0.46875,-0.3125 -0.0739,-0.0953 -0.14343,-0.18552 -0.25,-0.28125 -0.1865,-0.11404 -0.37694,-0.22825 -0.5625,-0.34375 l 0.28125,-0.59375 c -0.38311,0.002 -0.73705,0.0272 -1.0625,0.0937 0.0766,-0.31439 0.16226,-0.64494 0.1875,-0.96875 l -0.46875,0.78125 c -0.0703,-0.0451 -0.14859,-0.0798 -0.21875,-0.125 l 0.25,-0.75 c -0.14829,0.20922 -0.25366,0.44238 -0.375,0.65625 -0.0507,-0.0328 -0.10557,-0.0609 -0.15625,-0.0937 -0.0817,-0.36285 -0.1746,-0.72913 -0.25,-1.09375 l -0.28125,0.5 c -0.0749,-0.34076 -0.14465,-0.6903 -0.21875,-1.03125 l 0.125,-0.46875 c 0.1585,-0.35472 0.3058,-0.69768 0.4375,-1.0625 l -0.6875,1.09375 c -0.0508,-0.23808 -0.10759,-0.48021 -0.15625,-0.71875 l -0.59375,0.96875 c -0.0216,-0.0419 -0.0415,-0.0829 -0.0625,-0.125 l 0.0312,-0.0625 0.0312,-0.0625 0.0625,-0.0937 c -0.1718,-0.65038 -0.35347,-1.30944 -0.5,-1.96875 0.12282,-0.26853 0.13174,-0.29025 0.40625,-0.875 l -0.46875,0.6875 c -0.0641,-0.30978 -0.092,-0.62281 -0.125,-0.9375 l -0.71875,1.1875 c -0.37196,-0.72478 -0.41378,-0.8209 -0.625,-1.125 l 0.4375,-1.03125 c -0.0643,0.0396 -0.12446,0.0837 -0.1875,0.125 0.10678,-0.29168 0.20673,-0.58288 0.3125,-0.875 l -0.78125,1.1875 c -0.1469,0.10929 -0.29551,0.22745 -0.4375,0.34375 -0.0534,-0.10298 -0.10213,-0.20993 -0.15625,-0.3125 0.0296,-0.0616 0.0661,-0.12722 0.0937,-0.1875 0.18293,-0.20883 0.3757,-0.41471 0.59375,-0.59375 l 0.5625,-1.5 c -0.66251,0.44904 -1.14934,1.0721 -1.5625,1.75 -0.0444,-0.0815 -0.0801,-0.16884 -0.125,-0.25 0.0996,-0.23735 0.18113,-0.48162 0.28125,-0.71875 0.19575,-0.0934 0.38894,-0.16574 0.59375,-0.25 l 0.5625,-1.53125 c -0.61209,0.24435 -1.18118,0.55103 -1.71875,0.875 0.0154,-0.69672 0.0319,-1.39627 0.0312,-2.09375 l 0.34375,-1.0625 c -0.34997,0.5347 -0.67966,1.08652 -0.96875,1.65625 -0.0383,-0.34365 -0.13714,-0.33085 -0.375,0.40625 l 0.25,-0.78125 c 0.0677,-0.0466 0.11822,-0.11064 0.1875,-0.15625 l 0.53125,-1.5 c -0.56896,0.37759 -1.08549,0.77699 -1.5625,1.21875 -0.0265,-0.13335 -0.0406,-0.272 -0.0625,-0.40625 l 0.5,-1.53125 c -0.29521,0.41415 -0.55338,0.83 -0.78125,1.28125 l 0.4375,-1.125 c -0.43293,0.29723 -0.880359,0.57397 -1.343749,0.8125 -0.0446,-0.071 -0.08069,-0.14749 -0.125,-0.21875 0.11689,-0.24407 0.2367,-0.46881 0.34375,-0.71875 l -0.40625,0.625 c -0.09111,-0.14729 -0.1922,-0.289 -0.28125,-0.4375 0.03419,-0.071 0.06041,-0.14734 0.09375,-0.21875 0.44468,-0.39414 0.87216,-0.78213 1.281249,-1.21875 l 0.53125,-1.53125 c -0.34609,0.35363 -0.728239,0.67107 -1.093749,1 0.521319,-1.46468 0.924459,-2.97085 1.124999,-4.5625 l -0.874999,1.34375 c -0.09563,1.37667 -0.37641,2.5712 -0.78125,3.6875 -0.08447,0.0719 -0.16469,0.14791 -0.25,0.21875 l 0.0625,-0.21875 0.25,-0.46875 c -0.02627,-0.0443 -0.06758,-0.0806 -0.09375,-0.125 l 0.21875,-0.46875 c -0.12395,0.047 -0.25164,0.0784 -0.375,0.125 -0.02579,-0.0447 -0.06818,-0.0801 -0.09375,-0.125 l 0.34375,-0.75 c -0.07318,-0.008 -0.14572,-0.0252 -0.21875,-0.0312 l 0.0625,-0.21875 c -0.04171,0.0739 -0.08267,0.14548 -0.125,0.21875 -0.16576,-0.0126 -0.33495,-0.0276 -0.5,-0.0312 -0.07022,-0.13731 -0.15301,-0.26688 -0.21875,-0.40625 -0.01808,-0.3496 -0.03785,-0.7138 -0.09375,-1.0625 l -0.21875,0.34375 c -0.08925,-0.22877 -0.17938,-0.48287 -0.25,-0.71875 l 0.40625,-1.3125 c -0.07076,0.0956 -0.14869,0.18518 -0.21875,0.28125 0.23115,-0.97484 0.3678,-1.98136 0.375,-3 z m -1,3.0625 c -0.0095,0.0608 0.01029,0.12682 0,0.1875 l -0.09375,0.125 c 0.0369,-0.10263 0.05697,-0.20982 0.09375,-0.3125 z m -3.75,1.34375 c -0.0079,0.003 -0.42212,0.15825 -0.4375,0.125 l -0.5625,1.5 c 0.14557,-0.0302 0.29776,-0.0776 0.4375,-0.125 z m 3.0625,1.34375 c 0.0012,0.0207 -0.0013,0.0418 0,0.0625 -0.02042,0.0622 -0.04158,0.12539 -0.0625,0.1875 -0.0029,-0.0618 -3.4e-4,-0.12545 0,-0.1875 0.01677,-0.0238 0.04574,-0.0387 0.0625,-0.0625 z m -1.1875,1.78125 c 0.06147,-0.007 0.126,0.007 0.1875,0 -0.05315,0.20547 -0.08161,0.31101 -0.125,0.46875 -0.03222,0.008 -0.06146,0.0231 -0.09375,0.0312 0.0116,-0.0417 0.021,-0.0829 0.03125,-0.125 l -0.09375,0.125 c -0.07324,0.0182 -0.14512,0.0451 -0.21875,0.0625 0.0029,-0.0358 0.03011,-0.10167 0.03125,-0.125 -9.4e-4,-0.0208 9.5e-4,-0.0417 0,-0.0625 -0.02995,0.0607 -0.0874,0.12475 -0.125,0.1875 -0.06075,0.014 -0.12646,0.0179 -0.1875,0.0312 0.15315,-0.18931 0.31302,-0.37646 0.46875,-0.5625 l -0.15625,0.28125 c 9.5e-4,0.0208 -9.5e-4,0.0417 0,0.0625 0.09346,-0.12969 0.18174,-0.25051 0.28125,-0.375 z m 1.21875,0 c 0.0163,0.0443 0.04572,0.0809 0.0625,0.125 -0.044,0.0141 -0.08093,0.0486 -0.125,0.0625 z m -2.1875,0.125 c -0.18473,0.2307 -0.37444,0.45959 -0.5625,0.6875 -0.04261,0.007 -0.08221,0.025 -0.125,0.0312 -0.46205,0.0527 -0.91598,0.12165 -1.375,0.1875 0.07523,-0.0809 0.14311,-0.16924 0.21875,-0.25 l 0.15625,-0.53125 c 0.56667,-0.0108 1.1239,-0.0613 1.6875,-0.125 z m 1.34375,0.1875 c 0.0063,0.0216 0.02444,0.0411 0.03125,0.0625 -0.0222,0.006 -0.04027,0.0252 -0.0625,0.0312 0.01298,-0.0295 0.01959,-0.0641 0.03125,-0.0937 z m 1.5625,1.34375 c 0.0065,0.0126 0.02474,0.0186 0.03125,0.0312 -0.03024,0.022 -0.06344,0.0406 -0.09375,0.0625 0.02448,-0.0277 0.03839,-0.0657 0.0625,-0.0937 z m -2.75,1.71875 c 0.0302,-0.005 0.06341,0.006 0.09375,0 -0.05375,0.0906 -0.07901,0.17022 -0.125,0.25 -0.03379,0.0405 -0.0595,0.0845 -0.09375,0.125 v 0.0312 c -0.05965,0.0559 -0.12991,0.0982 -0.1875,0.15625 0.11351,-0.18206 0.20329,-0.37786 0.3125,-0.5625 z m 2.4375,0.0312 c 0.0089,0.0528 0.02172,0.10358 0.03125,0.15625 -0.0846,0.0392 -0.16573,0.0851 -0.25,0.125 0.0773,-0.0907 0.13965,-0.19204 0.21875,-0.28125 z m 4.218749,0.65625 c -0.0841,0.20586 -0.15637,0.416 -0.21875,0.625 -0.0268,0.0349 -0.0667,0.059 -0.0937,0.0937 -0.0245,-0.10404 -0.0377,-0.20852 -0.0625,-0.3125 l 0.0625,-0.15625 c 0.10388,-0.0814 0.20464,-0.17131 0.3125,-0.25 z m -5.968749,0.21875 c 0.12189,0.002 0.20888,0.0878 0.25,0.28125 -0.51466,0.59998 -0.91122,1.29792 -1.21875,2.03125 -0.5084,0.30329 -0.83142,0.48688 -1.0625,0.625 -0.10743,-1.12505 -0.1148,-1.21424 0.75,-1.9375 v -0.0312 c 0.0099,-0.0114 0.02144,-0.0198 0.03125,-0.0312 0.19851,-0.16607 0.38418,-0.29384 0.6875,-0.5625 0.19281,-0.1229 0.37091,-0.25015 0.5625,-0.375 z m 1.96875,0.4375 -0.03125,0.0625 c -0.0086,-0.0118 -0.02272,-0.0194 -0.03125,-0.0312 0.02141,-0.009 0.0411,-0.0218 0.0625,-0.0312 z m -1.625,0.75 c 0.0013,0.0102 -0.0013,0.021 0,0.0312 -0.17321,0.16643 -0.34853,0.33486 -0.53125,0.5 0.12873,-0.15431 0.2138,-0.23509 0.40625,-0.46875 0.04087,-0.0218 0.08391,-0.0411 0.125,-0.0625 z m -2.5625,0.21875 c -0.30553,0.61864 -0.4847,1.28723 -0.5625,1.96875 -0.3595,0.18538 -0.67941,0.31945 -2.0625,0.875 0.98504,-0.84958 1.8413,-1.80435 2.625,-2.84375 z m 9.343749,1.15625 c -0.0339,0.0721 -0.0605,0.14633 -0.0937,0.21875 -0.0258,-0.0456 -0.0678,-0.0796 -0.0937,-0.125 0.0608,-0.0331 0.12579,-0.0616 0.1875,-0.0937 z m -5.249999,1.21875 c 0.02055,0.0415 0.04337,0.0833 0.0625,0.125 -0.0662,0.13762 -0.07165,0.17043 -0.125,0.28125 -0.32903,0.28617 -0.69223,0.54044 -1.03125,0.8125 0.38591,-0.39118 0.74262,-0.80122 1.09375,-1.21875 z m 0.5,1.375 c 0.04945,0.1972 0.0758,0.38745 0.125,0.59375 -0.31107,0.0505 -0.66927,0.0845 -0.84375,0.0937 0.23452,-0.23656 0.48576,-0.44923 0.71875,-0.6875 z m 1.21875,0.21875 c 0.01048,0.0203 0.02064,0.0422 0.03125,0.0625 -0.04021,0.0133 -0.08449,0.0183 -0.125,0.0312 0.02873,-0.0338 0.06472,-0.0603 0.09375,-0.0937 z m 5.437499,0.78125 c 0.0189,0.10543 0.0409,0.20756 0.0625,0.3125 -0.0297,0.0426 -0.0644,0.0821 -0.0937,0.125 -0.0182,-0.0412 -0.044,-0.0845 -0.0625,-0.125 z m -4.156249,0.3125 c 0.03464,0.0786 0.086,0.14459 0.124999,0.21875 v 0.0312 c -0.113,0.0933 -0.227309,0.19144 -0.343749,0.28125 l 0.1875,-0.28125 c -8.1e-4,-0.0733 -8e-5,-0.1455 0,-0.21875 z m -0.71875,0.0937 -0.09375,0.125 c -0.01638,0.10157 -0.02104,0.21077 -0.03125,0.3125 -0.21181,0.0575 -0.41747,0.13335 -0.53125,0.21875 0.15984,-0.18191 0.31356,-0.37798 0.46875,-0.5625 0.06616,-0.0258 0.122,-0.0669 0.1875,-0.0937 z m -1.78125,0.59375 c -0.02694,0.11075 -0.03771,0.23234 -0.0625,0.34375 -0.27991,0.31352 -0.52265,0.65299 -0.75,1 0.04469,-0.13283 0.1188,-0.34871 0.125,-0.375 0.18032,-0.32081 0.36742,-0.6327 0.5625,-0.9375 0.03701,-0.005 0.02184,0.006 0.0625,0 0.0229,-0.006 0.03967,-0.0253 0.0625,-0.0312 z m 1,0.1875 c -0.10395,0.14308 -0.12665,0.32414 -0.09375,0.5 -0.13656,0.0685 -0.26936,0.15172 -0.40625,0.21875 0.0056,-0.063 -0.0066,-0.12484 0,-0.1875 0.16506,-0.18176 0.33783,-0.34822 0.5,-0.53125 z m 1.906249,0.375 c -1.7e-4,0.15841 -0.008,0.30887 0,0.46875 -0.047,-0.0738 -0.10801,-0.14614 -0.15625,-0.21875 0.0543,-0.0792 0.0968,-0.16331 0.15625,-0.25 z m -0.906249,0.625 c 0.03185,0.0507 0.06068,0.10642 0.09375,0.15625 -0.09484,0.17609 -0.13227,0.27323 -0.21875,0.4375 -0.10445,0.0483 -0.19125,-0.0445 -0.34375,-0.25 0.15883,-0.11185 0.3163,-0.22596 0.46875,-0.34375 z m 3.656249,1.15625 c 0.029,0.0948 0.0608,0.1877 0.0937,0.28125 -0.0132,0.0246 -0.0494,0.0378 -0.0625,0.0625 -0.0213,-0.008 -0.0762,-0.0546 -0.0937,-0.0625 -0.0233,-0.0289 -0.0396,-0.0645 -0.0625,-0.0937 z m -3.687499,0.0625 c 0.10644,0.0499 0.22531,0.10748 0.34375,0.15625 -0.12268,0.10894 -0.25183,0.20408 -0.375,0.3125 -0.005,-0.15232 0.02035,-0.3127 0.03125,-0.46875 z m 1.156249,0.53125 c 0.0322,0.0525 0.0608,0.10583 0.0937,0.15625 0.0259,0.10463 0.0334,0.20703 0.0625,0.3125 0.0103,0.0266 0.0217,0.006 0.0312,0.0312 -0.2909,0.64574 -0.61028,1.289 -0.968749,1.90625 -0.13188,0.17532 -0.26523,0.35154 -0.40625,0.5 l 0.46875,-0.875 c -0.13364,-0.36682 -0.22901,-0.73028 -0.3125,-1.09375 0.34699,-0.3087 0.688129,-0.62431 1.031249,-0.9375 z m 3.96875,0.9375 c 0.0303,0.0229 0.0633,0.0399 0.0937,0.0625 0.0301,0.0547 0.0626,0.10247 0.0937,0.15625 -0.0399,0.074 -0.084,0.14541 -0.125,0.21875 -0.0336,-0.17333 -0.0398,-0.30832 -0.0625,-0.4375 z m 0.40625,0.5625 c 0.013,0.0197 0.0181,0.0429 0.0312,0.0625 -0.0213,-0.003 -0.0415,0.003 -0.0625,0 0.0105,-0.0206 0.0208,-0.0419 0.0312,-0.0625 z m -2.125,0.21875 c 0.12147,0.11555 0.24137,0.2077 0.375,0.3125 0.0306,0.0398 0.0647,0.0909 0.0937,0.125 0.008,0.10628 0.0292,0.19667 0.0625,0.28125 -0.22431,0.042 -0.43408,0.10921 -0.65625,0.15625 -0.0658,-0.1941 -0.0955,-0.39696 -0.0937,-0.59375 0.0662,-0.0991 0.15428,-0.18115 0.21875,-0.28125 z"
         style="color:#000000;display:inline;overflow:visible;visibility:visible;opacity:1;fill:url(#radialGradient7342);fill-opacity:1;fill-rule:evenodd;stroke:none;stroke-width:0.60000002;stroke-linecap:butt;stroke-linejoin:miter;stroke-miterlimit:4;stroke-dasharray:none;stroke-dashoffset:0;stroke-opacity:1;marker:none;marker-start:none;marker-mid:none;marker-end:none;enable-background:accumulate"
         inkscape:connector-curvature="0" />
      <path
         id="path4342"
         d="m 94.981331,223.8652 c -0.50789,-0.007 -0.99324,0.12378 -1.46875,0.28125 l -0.71875,1.875 c -0.27144,0.0567 -0.54294,0.0957 -0.8125,0.15625 l -0.71875,1.875 c 1.0675,-0.24671 2.14584,-0.5133 3.25,-0.46875 l 0.78125,-1.875 c -0.78565,-0.0326 -1.57639,0.12626 -2.34375,0.28125 0.40252,-0.14528 0.81284,-0.28178 1.25,-0.28125 z m 2.625,0.25 c -0.2892,0.29674 -0.55454,0.6095 -0.84375,0.90625 l -0.625,1.90625 c 0.29598,-0.29458 0.57903,-0.58044 0.875,-0.875 z m 1.0625,1.84375 c -0.97125,0.67413 -1.88354,1.44871 -2.78125,2.21875 l 0.34375,-0.875 c -1.39435,0.4478 -2.75819,0.96304 -4.09375,1.5625 l -0.6875,1.90625 c 0.66109,-0.30018 1.32509,-0.58014 2,-0.84375 l -0.59375,1.4375 c 1.03409,0.0553 2.07714,-0.0558 3.09375,-0.25 l -0.90625,1.78125 c 0.99349,0.65497 2.04476,0.87589 3.15625,0.6875 l -0.34375,1.03125 c 1.46678,-1.42098 2.667599,-2.73381 3.343749,-4.75 l -1.125,1.6875 c 1.20977,-2.10102 0.29925,-1.05222 -0.593749,0 -0.89654,0.2667 -1.74767,0.3107 -2.5625,0.0312 0.50792,-0.67598 1.06203,-1.32791 1.75,-1.84375 l 0.65625,-1.90625 c -1.09188,0.80734 -1.93138,1.86553 -2.65625,3 l -0.15625,0.5625 c -0.18087,-0.0863 -0.3541,-0.19442 -0.53125,-0.3125 0.09289,-0.0179 0.18874,-0.0123 0.28125,-0.0312 l 0.75,-1.875 c -0.27629,0.0554 -0.56495,0.079 -0.84375,0.125 0.60327,-0.4931 1.21324,-0.95275 1.84375,-1.40625 z m 2.343749,6.25 c -0.73831,0.81924 -1.241559,1.77407 -1.687499,2.75 -0.24828,-0.0271 -0.51447,-0.0686 -0.78125,-0.15625 l -0.84375,1.84375 c 0.27869,0.0939 0.55372,0.15201 0.8125,0.1875 -0.03014,0.0734 -0.06335,0.14532 -0.09375,0.21875 l 0.15625,-0.21875 c 0.32554,0.0386 0.64616,0.0561 0.96875,0 l -0.375,1.28125 c 0.32673,-0.60655 0.6858,-1.12188 1.156249,-1.5 0.0449,-0.0173 0.0795,-0.0435 0.125,-0.0625 l 0.0312,-0.0625 c 0.30199,-0.21054 0.63628,-0.37651 1.0625,-0.46875 l 0.75,-1.875 c -0.52089,0.0997 -0.94763,0.29544 -1.3125,0.5625 -0.41684,0.16229 -0.82065,0.2673 -1.218749,0.28125 0.239999,-0.38321 0.470789,-0.7047 0.624999,-0.84375 z m 2.1875,3.5625 c -0.79657,0.52935 -1.65149,0.7605 -2.59375,0.78125 l -0.781249,1.875 c 0.807889,0.002 1.568299,-0.16355 2.281249,-0.5 -0.34784,0.69754 -0.61097,1.46626 -0.90625,2.125 l 1.09375,-1.6875 c -1.28189,2.44243 -0.025,-0.18013 0.875,-0.4375 -0.16286,0.30373 -0.32132,0.59383 -0.46875,0.90625 -0.0709,0.0455 -0.14827,0.0787 -0.21875,0.125 l -0.53125,1.5625 c -0.0601,0.13459 -0.12647,0.27276 -0.1875,0.40625 l 0.0625,-0.0625 c 0.16447,-0.11139 0.33308,-0.20626 0.5,-0.3125 -0.042,0.11582 -0.083,0.228 -0.125,0.34375 l 0.28125,-0.4375 c 0.74507,-0.46438 1.49623,-0.88297 2.3125,-1.21875 -0.40917,0.42854 -0.83314,0.85735 -1.28125,1.25 l -0.65625,1.90625 c 0.95696,-0.60937 1.57304,-1.56018 2.34375,-2.375 l 0.65625,-1.90625 c -0.27136,0.29894 -0.53902,0.58271 -0.8125,0.875 l 0.65625,-1.71875 c -0.70882,0.26775 -1.37692,0.59884 -2.03125,0.96875 0.11307,-0.30451 0.24412,-0.59702 0.34375,-0.90625 l -0.5625,0.875 0.53125,-1.625 c -0.21677,0.29954 -0.40865,0.61787 -0.59375,0.9375 l 0.59375,-1.5 c -0.42061,0.14907 -0.77278,0.36394 -1.0625,0.65625 z m 3.90625,3.375 c -0.69951,0.48585 -1.37199,1.00251 -2.125,1.40625 l -0.6875,1.90625 c 0.75783,-0.38018 1.46146,-0.86844 2.09375,-1.4375 z"
         style="color:#000000;display:inline;overflow:visible;visibility:visible;opacity:0.93461537;fill:#552200;fill-opacity:1;fill-rule:evenodd;stroke:none;stroke-width:0.60000002;stroke-linecap:butt;stroke-linejoin:miter;stroke-miterlimit:4;stroke-dasharray:none;stroke-dashoffset:0;stroke-opacity:1;marker:none;marker-start:none;marker-mid:none;marker-end:none;enable-background:accumulate"
         inkscape:connector-curvature="0" />
      <path
         sodipodi:nodetypes="cscscc"
         id="path10282"
         d="m 313.9684,80.165767 c 0,0 0.4034,-1.11646 -12.78268,5.7391 -10.76336,5.59596 -20.49924,3.47515 -20.49924,3.47515 0,0 9.35012,3.00401 23.69022,-3.02972 7.73271,-3.25361 13.07607,-3.43276 13.07607,-3.43276 0.59349,-1.72422 -2.32917,-3.65254 -3.48437,-2.75177 z"
         style="fill:#a05a2c;fill-rule:evenodd;stroke:none;stroke-width:1px;stroke-linecap:butt;stroke-linejoin:miter;stroke-opacity:1;filter:url(#filter11253)"
         inkscape:connector-curvature="0" />
      <path
         sodipodi:nodetypes="csscsc"
         id="path11257"
         d="m 120.77342,121.59199 c 0,0 -10.51622,19.27972 -11.68468,42.06485 -1.16847,22.78513 -3.04414,26.38103 -3.50541,35.05404 -0.43501,8.17928 -4.67387,18.69549 -4.67387,18.69549 0,0 14.92106,-23.68993 12.32432,-42.54219 -0.93809,-6.81053 0.52883,-28.90016 7.53964,-53.27219 z"
         style="color:#000000;display:inline;overflow:visible;visibility:visible;opacity:0.85769228;fill:url(#linearGradient13303);fill-opacity:1;fill-rule:evenodd;stroke:none;stroke-width:1px;stroke-linecap:butt;stroke-linejoin:miter;stroke-miterlimit:4;stroke-dasharray:none;stroke-dashoffset:0;stroke-opacity:1;marker:none;marker-start:none;marker-mid:none;marker-end:none;filter:url(#filter12312);enable-background:accumulate"
         inkscape:connector-curvature="0" />
      <path
         sodipodi:nodetypes="csssscc"
         id="path12316"
         d="m 209.17516,68.708587 c 0,0 14.01289,-2.26014 33.45012,7.68449 19.43724,9.94463 23.05347,16.27303 28.47781,16.27303 5.42434,0 -0.45203,5.42435 -9.4926,1.80812 -9.04058,-3.61623 -27.99754,-18.06069 -32.9981,-18.98521 -26.16113,-4.83674 -44.29881,-3.1642 -44.29881,-3.1642 z"
         style="color:#000000;display:inline;overflow:visible;visibility:visible;opacity:0.85769228;fill:url(#linearGradient12326);fill-opacity:1;fill-rule:evenodd;stroke:none;stroke-width:1px;stroke-linecap:butt;stroke-linejoin:miter;stroke-miterlimit:4;stroke-dasharray:none;stroke-dashoffset:0;stroke-opacity:1;marker:none;marker-start:none;marker-mid:none;marker-end:none;filter:url(#filter12312);enable-background:accumulate"
         inkscape:connector-curvature="0" />
      <path
         transform="matrix(1.040273,0,0,1,453.86038,-352.16947)"
         sodipodi:nodetypes="csscssc"
         id="path12318"
         d="m -148.10698,505.72742 c 13.37161,-2.67432 -2.06626,91.13324 -66.90025,104.41864 -61.48764,12.59968 -60.11982,-8.58855 -78.653,-10.8487 -18.53317,-2.26014 -35.25823,-0.90405 -35.25823,-0.90405 0,0 11.93828,-1.34815 23.50549,-3.61623 23.05347,-4.52028 72.93822,7.61887 93.56994,-3.61623 45.6549,-24.86158 64.18808,-85.43343 63.73605,-85.43343 z"
         style="color:#000000;display:inline;overflow:visible;visibility:visible;opacity:0.40769228;fill:#552200;fill-opacity:1;fill-rule:evenodd;stroke:none;stroke-width:1px;stroke-linecap:butt;stroke-linejoin:miter;stroke-miterlimit:4;stroke-dasharray:none;stroke-dashoffset:0;stroke-opacity:1;marker:none;marker-start:none;marker-mid:none;marker-end:none;filter:url(#filter12312);enable-background:accumulate"
         inkscape:connector-curvature="0" />
    </g>
  </g>
</svg>
