<?xml version="1.0" encoding="UTF-8" standalone="no"?>
<!-- Created with Inkscape (http://www.inkscape.org/) -->

<svg
   xmlns:dc="http://purl.org/dc/elements/1.1/"
   xmlns:cc="http://creativecommons.org/ns#"
   xmlns:rdf="http://www.w3.org/1999/02/22-rdf-syntax-ns#"
   xmlns:svg="http://www.w3.org/2000/svg"
   xmlns="http://www.w3.org/2000/svg"
   xmlns:xlink="http://www.w3.org/1999/xlink"
   xmlns:sodipodi="http://sodipodi.sourceforge.net/DTD/sodipodi-0.dtd"
   xmlns:inkscape="http://www.inkscape.org/namespaces/inkscape"
   height="111.452"
   id="svg1"
   version="1.0"
   width="127.99953"
   x="0.0000000"
   y="0.0000000"
   sodipodi:docname="bananas.svg"
   inkscape:version="0.92.2 (5c3e80d, 2017-08-06)">
  <sodipodi:namedview
     pagecolor="#ffffff"
     bordercolor="#666666"
     borderopacity="1"
     objecttolerance="10"
     gridtolerance="10"
     guidetolerance="10"
     inkscape:pageopacity="0"
     inkscape:pageshadow="2"
     inkscape:window-width="1920"
     inkscape:window-height="1025"
     id="namedview43"
     showgrid="false"
     inkscape:zoom="1.5733333"
     inkscape:cx="-21.496307"
     inkscape:cy="53.722688"
     inkscape:window-x="-8"
     inkscape:window-y="-8"
     inkscape:window-maximized="1"
     inkscape:current-layer="svg1"
     fit-margin-top="0"
     fit-margin-left="0"
     fit-margin-right="0"
     fit-margin-bottom="0" />
  <metadata
     id="metadata2">
    <rdf:RDF>
      <cc:Work
         rdf:about="">
        <dc:title></dc:title>
        <dc:description />
        <dc:subject>
          <rdf:Bag>
            <rdf:li>food</rdf:li>
            <rdf:li>fruit</rdf:li>
          </rdf:Bag>
        </dc:subject>
        <dc:publisher>
          <cc:Agent
             rdf:about="http://www.openclipart.org/">
            <dc:title>Open Clip Art Library</dc:title>
          </cc:Agent>
        </dc:publisher>
        <dc:creator>
          <cc:Agent>
            <dc:title>Nicu Buculei</dc:title>
          </cc:Agent>
        </dc:creator>
        <dc:rights>
          <cc:Agent>
            <dc:title>Nicu Buculei</dc:title>
          </cc:Agent>
        </dc:rights>
        <dc:date />
        <dc:format>image/svg+xml</dc:format>
        <dc:type
           rdf:resource="http://purl.org/dc/dcmitype/StillImage" />
        <cc:license
           rdf:resource="http://creativecommons.org/publicdomain/zero/1.0/" />
        <dc:language>en</dc:language>
      </cc:Work>
      <cc:License
         rdf:about="http://creativecommons.org/publicdomain/zero/1.0/">
        <cc:permits
           rdf:resource="http://creativecommons.org/ns#Reproduction" />
        <cc:permits
           rdf:resource="http://creativecommons.org/ns#Distribution" />
        <cc:permits
           rdf:resource="http://creativecommons.org/ns#DerivativeWorks" />
      </cc:License>
    </rdf:RDF>
  </metadata>
  <defs
     id="defs3">
    <linearGradient
       id="linearGradient855">
      <stop
         id="stop856"
         offset="0.0000000"
         style="stop-color:#ffffff;stop-opacity:0.0000000;" />
      <stop
         id="stop857"
         offset="1.0000000"
         style="stop-color:#5f0e00;stop-opacity:0.41666666;" />
    </linearGradient>
    <linearGradient
       id="linearGradient829">
      <stop
         id="stop830"
         offset="0.0000000"
         style="stop-color:#ffffff;stop-opacity:0.52499998;" />
      <stop
         id="stop831"
         offset="1.0000000"
         style="stop-color:#ffffff;stop-opacity:0.0000000;" />
    </linearGradient>
    <radialGradient
       id="radialGradient832"
       xlink:href="#linearGradient829" />
    <linearGradient
       gradientTransform="scale(1.532982,0.652323)"
       gradientUnits="userSpaceOnUse"
       id="linearGradient850"
       x1="62.831093"
       x2="312.91138"
       xlink:href="#linearGradient829"
       y1="339.76996"
       y2="191.31802" />
    <linearGradient
       gradientTransform="scale(1.221106,0.81893)"
       gradientUnits="userSpaceOnUse"
       id="linearGradient854"
       x1="109.53184"
       x2="370.90094"
       xlink:href="#linearGradient855"
       y1="332.16705"
       y2="332.16705" />
    <linearGradient
       gradientTransform="matrix(0.355996,-0.04394554,0.02947191,0.238748,-12.35522,9.060914)"
       gradientUnits="userSpaceOnUse"
       id="linearGradient1374"
       x1="109.53184"
       x2="370.90094"
       xlink:href="#linearGradient855"
       y1="332.16705"
       y2="332.16705" />
    <linearGradient
       gradientTransform="matrix(0.446919,-0.05516943,0.023476,0.190176,-12.35522,9.060914)"
       gradientUnits="userSpaceOnUse"
       id="linearGradient1379"
       x1="62.831093"
       x2="312.91138"
       xlink:href="#linearGradient829"
       y1="339.76996"
       y2="191.31802" />
    <linearGradient
       gradientTransform="matrix(0.446919,-0.05516943,0.023476,0.190176,-12.35522,9.060914)"
       gradientUnits="userSpaceOnUse"
       id="linearGradient2164"
       x1="62.831093"
       x2="312.91138"
       xlink:href="#linearGradient829"
       y1="339.76996"
       y2="191.31802" />
    <linearGradient
       gradientTransform="matrix(0.355996,-0.04394554,0.02947191,0.238748,-12.35522,9.060914)"
       gradientUnits="userSpaceOnUse"
       id="linearGradient2166"
       x1="109.53184"
       x2="370.90094"
       xlink:href="#linearGradient855"
       y1="332.16705"
       y2="332.16705" />
    <linearGradient
       gradientTransform="matrix(0.446919,-0.05516943,0.023476,0.190176,-12.35522,9.060914)"
       gradientUnits="userSpaceOnUse"
       id="linearGradient2180"
       x1="62.831093"
       x2="312.91138"
       xlink:href="#linearGradient829"
       y1="339.76996"
       y2="191.31802" />
    <linearGradient
       gradientTransform="matrix(0.355996,-0.04394554,0.02947191,0.238748,-12.35522,9.060914)"
       gradientUnits="userSpaceOnUse"
       id="linearGradient2182"
       x1="109.53184"
       x2="370.90094"
       xlink:href="#linearGradient855"
       y1="332.16705"
       y2="332.16705" />
  </defs>
  <noimage
     xlink:href="euembl2.gif"
     y="1.7665182"
     x="22.061697"
     width="67.732307"
     style="display:none"
     id="sheet"
     height="46.881878" />
  <g
     id="g872"
     transform="matrix(0.89875845,0,0,0.89875845,-4.2718801,-9.8803912)">
    <g
       transform="matrix(0.101093,0,0,0.101093,3.7249,-7.984)"
       id="layer1" />
    <g
       id="g2145">
      <path
         style="fill:#ffe200;fill-rule:evenodd;stroke:none;stroke-width:2.93748879;stroke-linejoin:round"
         id="path847"
         d="m 104.3533,22.401958 c -6.096091,-4.427099 8.03085,-9.870714 10.07788,-8.273541 3.0953,1.097797 -2.23604,2.865838 -1.55672,5.371792 0.67931,2.505955 1.97935,16.03448 4.98468,16.403437 3.00534,0.368957 6.96443,2.470043 7.41429,6.114243 C 137.17302,63.487294 109.10738,129.84726 20.738179,109.30817 19.145543,108.39485 10.003668,100.27403 8.2760761,98.267454 7.2323384,95.806485 5.3743268,89.746301 9.4774545,87.019956 45.798109,72.547121 91.548315,86.50812 105.78376,39.984089 108.11885,31.926401 104.3533,22.401958 104.3533,22.401958 Z"
         inkscape:connector-curvature="0" />
      <path
         style="fill:url(#linearGradient1379);fill-rule:evenodd;stroke-width:1.00000003pt"
         id="path849"
         d="m 10.83609,92.031865 0.278986,-3.73417 C 36.822565,74.765016 89.402243,90.102798 107.74082,40.852422 99.763644,75.13474 81.10148,97.786993 10.83609,92.031865 Z"
         inkscape:connector-curvature="0" />
      <path
         style="fill:#442400;fill-rule:evenodd;stroke-width:1.00000003pt"
         id="path852"
         d="M 8.1063239,96.850314 C 7.1733125,91.528407 6.6833672,89.795735 9.5583265,87.647685 11.153513,89.500474 11.672566,95.783559 8.1063239,96.850314 Z"
         inkscape:connector-curvature="0" />
      <path
         style="fill:url(#linearGradient1374);fill-opacity:1;fill-rule:evenodd;stroke-width:1.00000003pt"
         id="path853"
         d="M 39.818439,111.02254 C 105.5713,119.18457 122.24427,76.245258 124.9177,66.110058 130.03773,53.638881 124.40963,41.0146 124.40963,41.0146 c 4.494,39.402345 -32.771728,76.19023 -84.591191,70.00794 z"
         inkscape:connector-curvature="0" />
    </g>
    <g
       transform="rotate(-9.4090086,118.12984,2.8775755)"
       id="g2152">
      <path
         style="fill:#ffe200;fill-rule:evenodd;stroke:none;stroke-width:2.93748879;stroke-linejoin:round"
         id="path2154"
         d="m 104.3533,22.401958 c -6.096091,-4.427099 8.03085,-9.870714 10.07788,-8.273541 3.0953,1.097797 -2.23604,2.865838 -1.55672,5.371792 0.67931,2.505955 1.97935,16.03448 4.98468,16.403437 3.00534,0.368957 6.96443,2.470043 7.41429,6.114243 C 137.17302,63.487294 109.10738,129.84726 20.738179,109.30817 19.145543,108.39485 10.003668,100.27403 8.2760761,98.267454 7.2323384,95.806485 5.3743268,89.746301 9.4774545,87.019956 45.798109,72.547121 91.548315,86.50812 105.78376,39.984089 108.11885,31.926401 104.3533,22.401958 104.3533,22.401958 Z"
         inkscape:connector-curvature="0" />
      <path
         style="fill:url(#linearGradient2164);fill-rule:evenodd;stroke-width:1.00000003pt"
         id="path2156"
         d="m 10.83609,92.031865 0.278986,-3.73417 C 36.822565,74.765016 89.402243,90.102798 107.74082,40.852422 99.763644,75.13474 81.10148,97.786993 10.83609,92.031865 Z"
         inkscape:connector-curvature="0" />
      <path
         style="fill:#442400;fill-rule:evenodd;stroke-width:1.00000003pt"
         id="path2160"
         d="M 8.1063239,96.850314 C 7.1733125,91.528407 6.6833672,89.795735 9.5583265,87.647685 11.153513,89.500474 11.672566,95.783559 8.1063239,96.850314 Z"
         inkscape:connector-curvature="0" />
      <path
         style="fill:url(#linearGradient2166);fill-opacity:1;fill-rule:evenodd;stroke-width:1.00000003pt"
         id="path2162"
         d="M 39.818439,111.02254 C 105.5713,119.18457 122.24427,76.245258 124.9177,66.110058 130.03773,53.638881 124.40963,41.0146 124.40963,41.0146 c 4.494,39.402345 -32.771728,76.19023 -84.591191,70.00794 z"
         inkscape:connector-curvature="0" />
    </g>
    <g
       transform="rotate(-17.917368,121.44614,-1.4084372)"
       id="g2168">
      <path
         style="fill:#ffe200;fill-rule:evenodd;stroke:none;stroke-width:2.93748879;stroke-linejoin:round"
         id="path2170"
         d="m 104.3533,22.401958 c -6.096091,-4.427099 5.85815,-10.018115 7.90518,-8.420942 3.0953,1.097797 -2.14725,3.449636 -1.46793,5.95559 0.67931,2.505955 4.06326,15.598083 7.06859,15.96704 3.00534,0.368957 6.96443,2.470043 7.41429,6.114243 C 137.17302,63.487294 109.10738,129.84726 20.738179,109.30817 19.145543,108.39485 10.003668,100.27403 8.2760761,98.267454 7.2323384,95.806485 5.3743268,89.746301 9.4774545,87.019956 45.798109,72.547121 91.548315,86.50812 105.78376,39.984089 108.11885,31.926401 104.3533,22.401958 104.3533,22.401958 Z"
         inkscape:connector-curvature="0" />
      <path
         style="fill:url(#linearGradient2180);fill-rule:evenodd;stroke-width:1.00000003pt"
         id="path2172"
         d="m 10.83609,92.031865 0.278986,-3.73417 C 36.822565,74.765016 89.402243,90.102798 107.74082,40.852422 99.763644,75.13474 81.10148,97.786993 10.83609,92.031865 Z"
         inkscape:connector-curvature="0" />
      <path
         style="fill:#442400;fill-rule:evenodd;stroke-width:1.00000003pt"
         id="path2176"
         d="M 8.1063239,96.850314 C 7.1733125,91.528407 6.6833672,89.795735 9.5583265,87.647685 11.153513,89.500474 11.672566,95.783559 8.1063239,96.850314 Z"
         inkscape:connector-curvature="0" />
      <path
         style="fill:url(#linearGradient2182);fill-opacity:1;fill-rule:evenodd;stroke-width:1.00000003pt"
         id="path2178"
         d="M 39.818439,111.02254 C 105.5713,119.18457 122.24427,76.245258 124.9177,66.110058 130.03773,53.638881 124.40963,41.0146 124.40963,41.0146 c 4.494,39.402345 -32.771728,76.19023 -84.591191,70.00794 z"
         inkscape:connector-curvature="0" />
    </g>
    <path
       style="fill:#442400;fill-rule:evenodd;stroke-width:1.00000003pt"
       id="path3021"
       d="m 103.60252,18.558719 c -1.40502,-5.048642 13.70012,-7.10093 13.96038,-1.375495 -2.15969,1.836717 -6.4844,6.046041 -13.96038,1.375495 z"
       inkscape:connector-curvature="0" />
    <path
       style="fill:#000000;fill-opacity:1;fill-rule:evenodd;stroke:none;stroke-width:2.93748879;stroke-linejoin:round;stroke-opacity:1"
       id="path2186"
       d="m 112.4375,11 c -4.20056,0.314061 -8.70576,2.088334 -11.2129,5.600216 -1.793017,3.424065 2.49195,5.921557 2.31743,9.445149 1.27037,5.216052 1.07878,10.796298 -1.09558,15.748729 C 98.878993,52.000008 91.953695,61.248593 82.299862,66.378186 69.476928,73.300687 54.677084,74.584175 40.513827,76.701841 29.472269,78.306487 18.302915,80.123764 7.9375,84.40625 3.8315142,87.147382 4.2950838,92.879362 5.9965621,96.894585 c 1.8733676,3.218945 5.2856089,5.288595 7.8944789,7.912045 2.128023,2.36915 5.391684,4.14081 7.616646,5.5689 0.744056,3.88676 4.123353,5.92098 7.227879,7.80955 3.251539,1.95267 6.36567,4.27631 9.889434,5.68992 2.989993,0.28757 3.405346,5.31215 7.087057,5.68255 4.390788,1.94519 8.735305,4.22938 13.381693,5.44245 21.763036,-1.83037 43.90182,-7.86677 61.26912,-21.6028 15.03116,-11.74284 25.58584,-29.645094 26.71805,-48.864678 0.50139,-9.500379 -0.96067,-19.949158 -7.5164,-27.296606 -2.03185,-3.32092 -5.71929,-5.535827 -9.70541,-5.037043 -3.51065,0.486398 -4.72122,-5.143738 -6.62856,-7.570429 -1.0846,-2.870087 -6.64767,-3.130904 -3.94695,-6.111957 0.84116,-3.9687 -1.61483,-5.223482 -3.43985,-6.766487 -1.23147,0.112588 -2.10666,-0.844859 -3.40625,-0.75 z m 0.375,2.90625 c 1.75874,0.794862 5.3464,2.076064 3.49738,4.92713 -1.32246,3.340313 5.19652,7.631142 6.17596,10.592485 2.12246,3.314133 1.74677,4.719748 5.92346,5.867279 3.36691,-0.763522 7.10496,0.362696 8.74667,3.540097 5.82094,6.439833 7.23404,15.588846 7.06278,23.979259 -0.63203,19.466043 -11.46676,37.68999 -26.88697,49.23117 -16.69124,12.66688 -37.631712,18.21556 -58.23803,19.98758 C 54.17864,130.27319 49.401464,128.11498 44.75,125.75 42.91995,123.62919 42.297951,120.03012 38.776142,120.79777 34.272064,118.32726 29.925028,115.55436 25.75,112.5625 24.129568,110.05189 24.199073,106.13652 20.333642,106.34494 16.28421,103.15482 12.423712,99.710449 8.8125,96.03125 7.4740773,92.986284 6.5302815,87.579145 10.753126,86.455336 30.76019,78.941097 52.685103,79.910165 72.968917,73.502931 83.91377,70.091733 94.022202,63.258763 100.05538,53.359697 c 3.272,-5.438457 6.04624,-11.369727 7.07916,-17.669836 0.55777,-5.260817 -0.32021,-10.683219 -2.33752,-15.553811 -3.28448,-2.142721 1.90414,-4.625715 3.84919,-5.275419 1.27753,-0.488034 3.06475,-0.971552 4.16629,-0.954381 z"
       inkscape:connector-curvature="0" />
    <path
       style="fill:#000000;fill-opacity:1;fill-rule:evenodd;stroke:none;stroke-width:1px;stroke-linecap:butt;stroke-linejoin:miter;stroke-opacity:1"
       id="path3023"
       d="M 113.05942,46.184419 C 112.2115,56.946501 106.7801,64.53004 99.59375,70.96875 92.407398,77.40746 82.925017,82.146832 73,86.03125 c -9.925017,3.884418 -20.291718,6.924337 -29.25,10 -8.958282,3.075663 -17.817489,4.32098 -22.164173,10.3125 l 3.856515,-0.0735 c 3.311766,-4.96798 9.990303,-5.70903 18.915493,-8.773331 C 53.283025,94.432618 63.922817,91.13891 73.903169,87.232835 83.883521,83.32676 92.919957,78.286202 100.25,71.71875 c 7.33004,-6.567452 12.41262,-14.97511 13.28125,-26 z"
       inkscape:connector-curvature="0" />
    <path
       style="fill:#000000;fill-opacity:1;fill-rule:evenodd;stroke:none;stroke-width:1px;stroke-linecap:butt;stroke-linejoin:miter;stroke-opacity:1"
       id="path3025"
       d="m 121.14525,49.464349 c -1.57943,-0.371408 0.0144,-1.563921 -0.11031,-0.600552 0.21864,8.258742 -3.4891,15.11266 -8.49652,21.638391 -6.83745,9.006699 -15.626808,16.196103 -25.313566,21.776999 -11.383622,6.557407 -23.513389,11.711153 -34.847697,18.355243 -4.012529,2.4533 -9.366612,6.16864 -12.32258,9.89066 0.986756,1.41076 3.423391,-0.96804 4.293784,-1.51322 5.382795,-5.15707 11.61307,-9.31875 18.143363,-12.76977 14.047131,-7.218645 28.408006,-12.672716 40.552226,-23.933431 7.63555,-6.137935 13.32859,-12.954131 16.0266,-22.547594 1.20046,-4.19064 2.39043,-5.953378 2.0747,-10.296726 z"
       inkscape:connector-curvature="0" />
    <path
       style="fill:#000000;fill-opacity:1;fill-rule:evenodd;stroke:none;stroke-width:1px;stroke-linecap:butt;stroke-linejoin:miter;stroke-opacity:1"
       id="path3034"
       d="m 113.19058,26.167254 -0.34683,-0.323504 c 0,0 1.72536,3.095684 3.5,6.875 1.77464,3.779316 3.59572,8.301888 3.84375,10.90625 l 0.47183,-0.09375 c -0.28014,-2.941413 -1.61882,-7.405637 -3.40933,-11.21875 -1.79051,-3.813113 -4.05942,-6.145246 -4.05942,-6.145246 z"
       inkscape:connector-curvature="0" />
    <path
       style="fill:#000000;fill-opacity:1;fill-rule:evenodd;stroke:none;stroke-width:1px;stroke-linecap:butt;stroke-linejoin:miter;stroke-opacity:1"
       id="path3036"
       d="m 111.65625,27.84375 c -0.32292,0.09375 0.14642,-0.340669 -0.1765,-0.246919 0.79535,2.723718 0.72423,6.000599 1.26353,8.787432 0.24008,1.310695 0.48526,2.638245 0.41529,3.976716 0.0392,0.144954 -0.16804,0.13326 0.0381,0.162686 0.27818,0.102 0.99667,-0.981048 0.91498,-1.74895 -0.37757,-3.081078 -1.13685,-6.098488 -1.93962,-9.091832 -0.16717,-0.614365 -0.33781,-1.227815 -0.51582,-1.839133 z"
       inkscape:connector-curvature="0" />
  </g>
</svg>
