<?xml version="1.0" encoding="UTF-8" standalone="no"?>
<!-- Created with Inkscape (http://www.inkscape.org/) -->

<svg
   xmlns:dc="http://purl.org/dc/elements/1.1/"
   xmlns:cc="http://creativecommons.org/ns#"
   xmlns:rdf="http://www.w3.org/1999/02/22-rdf-syntax-ns#"
   xmlns:svg="http://www.w3.org/2000/svg"
   xmlns="http://www.w3.org/2000/svg"
   xmlns:xlink="http://www.w3.org/1999/xlink"
   xmlns:sodipodi="http://sodipodi.sourceforge.net/DTD/sodipodi-0.dtd"
   xmlns:inkscape="http://www.inkscape.org/namespaces/inkscape"
   height="128"
   id="svg6462"
   inkscape:export-filename="/home/Krug/Desktop/openClipImg/svg/png/fastfood2.png"
   inkscape:export-xdpi="72.000000"
   inkscape:export-ydpi="72.000000"
   inkscape:version="0.92.2 (5c3e80d, 2017-08-06)"
   sodipodi:docname="fries.svg"
   sodipodi:version="0.32"
   width="97.625389"
   version="1.1">
  <metadata
     id="metadata2">
    <rdf:RDF>
      <cc:Work
         rdf:about="">
        <dc:title></dc:title>
        <dc:description />
        <dc:subject>
          <rdf:Bag>
            <rdf:li>food</rdf:li>
          </rdf:Bag>
        </dc:subject>
        <dc:publisher>
          <cc:Agent
             rdf:about="http://www.openclipart.org/">
            <dc:title>Open Clip Art Library</dc:title>
          </cc:Agent>
        </dc:publisher>
        <dc:creator>
          <cc:Agent>
            <dc:title>Juliane Krug</dc:title>
          </cc:Agent>
        </dc:creator>
        <dc:rights>
          <cc:Agent>
            <dc:title>Juliane Krug</dc:title>
          </cc:Agent>
        </dc:rights>
        <dc:date />
        <dc:format>image/svg+xml</dc:format>
        <dc:type
           rdf:resource="http://purl.org/dc/dcmitype/StillImage" />
        <cc:license
           rdf:resource="http://creativecommons.org/publicdomain/zero/1.0/" />
        <dc:language>en</dc:language>
      </cc:Work>
      <cc:License
         rdf:about="http://creativecommons.org/publicdomain/zero/1.0/">
        <cc:permits
           rdf:resource="http://creativecommons.org/ns#Reproduction" />
        <cc:permits
           rdf:resource="http://creativecommons.org/ns#Distribution" />
        <cc:permits
           rdf:resource="http://creativecommons.org/ns#DerivativeWorks" />
      </cc:License>
    </rdf:RDF>
  </metadata>
  <defs
     id="defs6464">
    <linearGradient
       id="linearGradient7775">
      <stop
         id="stop7776"
         offset="0.0000000"
         style="stop-color:#000000;stop-opacity:0.37037036;" />
      <stop
         id="stop7777"
         offset="1.0000000"
         style="stop-color:#000000;stop-opacity:0.0000000;" />
    </linearGradient>
    <linearGradient
       id="linearGradient7778"
       inkscape:collect="always"
       x1="309.62729"
       x2="158.92148"
       xlink:href="#linearGradient7775"
       y1="234.34528"
       y2="242.73216"
       gradientTransform="scale(1.0027668,0.99724079)"
       gradientUnits="userSpaceOnUse" />
  </defs>
  <sodipodi:namedview
     bordercolor="#666666"
     borderopacity="1.0"
     id="base"
     inkscape:cx="-279.94128"
     inkscape:cy="0.066399681"
     inkscape:pageopacity="0.0"
     inkscape:pageshadow="2"
     inkscape:window-height="1025"
     inkscape:window-width="1920"
     inkscape:window-x="-8"
     inkscape:window-y="-8"
     inkscape:zoom="1"
     pagecolor="#ffffff"
     showgrid="false"
     inkscape:window-maximized="1"
     inkscape:current-layer="svg6462"
     fit-margin-top="0"
     fit-margin-left="0"
     fit-margin-right="0"
     fit-margin-bottom="0"
     units="px" />
  <g
     id="g1026"
     transform="matrix(0.34757838,0,0,0.34757838,-16.103086,-1.2433494)">
    <path
       style="fill:#ffdf00;fill-opacity:1;fill-rule:evenodd;stroke:none;stroke-width:1.00000003pt;stroke-linecap:butt;stroke-linejoin:miter;stroke-opacity:1"
       id="path9813"
       d="M 58.905768,110.27371 46.329365,83.618963 65.717988,91.981234 76.198324,110.27371 73.054223,95.11709 73.57824,86.754814 60.477819,65.326495 52.09355,58.009506 l 3.144101,-0.522642 13.10042,1.567926 6.288203,4.703777 9.432303,1.045285 4.716151,-4.703778 -8.384269,-19.860394 5.764184,-2.61321 7.336236,0.522643 -7.336236,-11.498125 15.196487,-0.522641 11.00436,11.498123 h 7.86025 l -6.2882,-6.271704 5.24016,1.045284 5.24017,-3.658493 -4.71615,-11.498123 12.05239,-4.181136 10.48033,25.609456 3.66812,2.090567 11.52837,27.177382 -3.66811,-30.835876 4.71614,-4.181134 -5.76418,-12.020766 13.62445,-7.839629 2.09605,-6.7943455 14.67247,-0.5226421 5.7642,14.6339746 -1.57206,5.22642 1.57206,3.135852 6.28819,-21.4283203 11.00436,-3.1358526 5.76418,1.0452852 -1.57205,16.2018997 9.43229,2.090569 -4.19212,13.066047 6.2882,2.090569 1.57206,-13.066049 4.71614,-4.181136 10.48035,16.724544 2.09605,-0.522643 V 22.469853 l 14.14845,-11.498123 6.81223,5.226419 -2.09607,28.222667 8.38426,-17.247186 7.86026,-4.181135 10.48033,6.794346 -5.76417,8.362272 6.28819,2.090567 -0.52402,5.749061 -9.43231,13.588691 6.28822,-1.045284 7.33623,-6.794345 h 8.38427 l 3.14411,6.794345 9.95631,-4.181135 11.00436,-0.522643 -1.04805,7.316989 -11.52835,22.473604 16.76853,-1.045285 -14.14846,22.473602 h -27.77288 l -12.57641,14.63398 -18.34058,21.95095 -22.53273,11.49813 -22.53272,7.83963 -23.05675,4.18114 -28.82092,-1.56793 -20.96067,-5.74906 -26.20084,-14.63397 -17.292557,-13.5887 -13.100421,-13.58869 -4.192135,-5.74905 z"
       inkscape:connector-curvature="0" />
    <path
       style="fill:#ff0000;fill-opacity:1;fill-rule:evenodd;stroke:none;stroke-width:1.00000003pt;stroke-linecap:butt;stroke-linejoin:miter;stroke-opacity:1"
       id="path6515"
       d="m 49.328246,109.27239 c 15.268837,0.018 32.859255,-4.22711 38.285693,14.07799 12.913541,14.31104 30.202481,24.50958 47.424401,33.01744 14.61521,3.93857 29.37779,7.63975 44.65779,7.1715 15.3738,1.0243 30.20504,-4.68774 45.07891,-7.90894 11.05927,-5.78378 24.60461,-8.84084 33.29573,-17.98424 10.13462,-10.19654 18.79895,-24.2532 27.87217,-33.44641 9.74922,3.39728 33.50948,-5.225216 32.47539,7.42285 -9.16688,83.96987 -18.3338,167.93975 -27.50071,251.90963 -17.24798,16.04054 -36.36957,-10.19821 -57.19476,-6.76186 -23.14655,-4.00687 -46.71418,-3.94557 -70.11841,-4.91123 -22.80208,6.54406 -46.66272,10.52015 -68.420916,19.97329 C 78.037841,372.29638 84.381498,349.67169 79.957309,338.43151 71.635545,287.44122 63.027427,236.47533 58.044099,185.02555 55.138816,159.7745 52.233531,134.52344 49.328246,109.27239 Z"
       inkscape:connector-curvature="0" />
    <path
       style="fill:url(#linearGradient7778);fill-opacity:1;fill-rule:evenodd;stroke:none;stroke-width:1.00000003pt;stroke-linecap:butt;stroke-linejoin:miter;stroke-opacity:1"
       id="path7774"
       d="m 49.641897,109.13335 c 15.268842,0.018 32.859257,-4.22711 38.285694,14.07799 12.913549,14.31104 30.202479,24.50958 47.424399,33.01745 14.61522,3.93857 29.37778,7.63974 44.65779,7.1715 15.3738,1.02428 30.20505,-4.68776 45.07891,-7.90895 11.05926,-5.78378 24.60461,-8.84084 33.29574,-17.98423 10.13462,-10.19654 18.79895,-24.25321 27.87216,-33.44642 9.74922,3.39728 33.50947,-5.22521 32.47539,7.42285 -9.16689,83.96987 -18.33381,167.93975 -27.50071,251.90963 -17.24798,16.04054 -36.36958,-10.19821 -57.19476,-6.76186 -23.14655,-4.00686 -46.71418,-3.94558 -70.11842,-4.91122 -22.80206,6.54406 -46.66271,10.52015 -68.42091,19.97328 C 78.351491,372.15733 84.695154,349.53266 80.27096,338.29248 71.949197,287.30218 63.341081,236.33628 58.357757,184.88651 55.45247,159.63545 52.547185,134.3844 49.641897,109.13335 Z"
       inkscape:connector-curvature="0" />
    <path
       style="fill:#000000;fill-opacity:0.1625;fill-rule:evenodd;stroke:none;stroke-width:0.625;stroke-linecap:butt;stroke-linejoin:miter;stroke-miterlimit:4;stroke-opacity:1"
       id="path7797"
       d="M 59.70325,110.01152 46.36396,83.402929 65.631824,92.272457 77.48897,108.53326 Z"
       inkscape:connector-curvature="0" />
    <path
       style="fill:#000000;fill-opacity:0.10625;fill-rule:evenodd;stroke:none;stroke-width:0.625;stroke-linecap:butt;stroke-linejoin:miter;stroke-miterlimit:4;stroke-opacity:1"
       id="path7798"
       d="m 109.35505,140.31574 -1.48214,-16.99993 11.85715,-14.78255 5.92857,-1.47826 3.70535,45.08678 -12.5982,-5.91302 z"
       inkscape:connector-curvature="0" />
    <path
       style="fill:#ffdf00;fill-opacity:1;fill-rule:evenodd;stroke:none;stroke-width:0.625;stroke-linecap:butt;stroke-linejoin:miter;stroke-miterlimit:4;stroke-opacity:1"
       id="path7799"
       d="m 161.23007,160.27217 -2.96428,-14.04341 11.85715,-5.91302 5.92857,1.47825 0.74107,19.2173 -8.89287,0.73914 z"
       inkscape:connector-curvature="0" />
    <path
       style="fill:#ffdf00;fill-opacity:1;fill-rule:evenodd;stroke:none;stroke-width:0.625;stroke-linecap:butt;stroke-linejoin:miter;stroke-miterlimit:4;stroke-opacity:1"
       id="path7800"
       d="m 198.28366,162.48956 v -27.34771 l 15.56251,0.73912 5.92857,1.47825 -2.96428,19.95644 -11.11608,4.43477 z"
       inkscape:connector-curvature="0" />
    <path
       style="fill:#ffdf00;fill-opacity:1;fill-rule:evenodd;stroke:none;stroke-width:0.625;stroke-linecap:butt;stroke-linejoin:miter;stroke-miterlimit:4;stroke-opacity:1"
       id="path7801"
       d="m 221.99794,154.35916 4.44643,-31.04335 3.70537,-17.73907 14.08035,-5.91301 4.44644,-0.739122 -2.22322,8.869532 -7.4107,30.30421 -2.22322,9.60866 z"
       inkscape:connector-curvature="0" />
    <path
       style="fill:#ffdf00;fill-opacity:1;fill-rule:evenodd;stroke:none;stroke-width:0.625;stroke-linecap:butt;stroke-linejoin:miter;stroke-miterlimit:4;stroke-opacity:1"
       id="path7802"
       d="m 245.71224,144.7505 4.44644,-19.95644 7.41072,-6.65214 8.15178,-0.73914 h 2.22321 l 0.74108,5.91303 -8.89286,10.34778 -6.66964,7.39127 z"
       inkscape:connector-curvature="0" />
    <path
       style="fill:#ffdf00;fill-opacity:1;fill-rule:evenodd;stroke:none;stroke-width:0.625;stroke-linecap:butt;stroke-linejoin:miter;stroke-miterlimit:4;stroke-opacity:1"
       id="path7803"
       d="m 297.58728,101.88112 11.85713,-18.478191 6.66965,-0.739126 h 10.37499 l -11.85713,19.956437 -11.11608,1.47825 z"
       inkscape:connector-curvature="0" />
    <path
       style="fill:#000000;fill-opacity:0.11249994;fill-rule:evenodd;stroke:none;stroke-width:0.625;stroke-linecap:butt;stroke-linejoin:miter;stroke-miterlimit:4;stroke-opacity:1"
       id="path7804"
       d="m 91.569333,124.79406 0.741072,-25.869452 6.669637,-2.217386 6.669658,1.478254 4.44643,18.478174 -2.22322,6.65216 0.74108,16.26079 -10.375013,-7.39126 z"
       inkscape:connector-curvature="0" />
    <path
       style="fill:#ffdf00;fill-opacity:1;fill-rule:evenodd;stroke:none;stroke-width:0.625;stroke-linecap:butt;stroke-linejoin:miter;stroke-miterlimit:4;stroke-opacity:1"
       id="path7805"
       d="m 125.65863,104.83762 0.74107,-8.130398 14.08035,0.739132 4.44644,5.173886 v 22.17382 31.78247 l -10.37499,-2.21737 -5.92858,-3.69563 -2.22322,-26.6086 z"
       inkscape:connector-curvature="0" />
    <path
       style="fill:#ffdf00;fill-opacity:1;fill-rule:evenodd;stroke:none;stroke-width:0.625;stroke-linecap:butt;stroke-linejoin:miter;stroke-miterlimit:4;stroke-opacity:1"
       id="path7806"
       d="m 146.40863,157.31566 2.96429,-31.78248 5.92859,-11.0869 6.66963,-4.43476 h 11.11609 l 2.96428,8.86953 -5.18751,3.69563 v 15.52167 l -12.59821,8.13041 2.96428,14.78253 -7.41071,-0.73912 z"
       inkscape:connector-curvature="0" />
    <path
       style="fill:#000000;fill-opacity:0.18125;fill-rule:evenodd;stroke:none;stroke-width:0.625;stroke-linecap:butt;stroke-linejoin:miter;stroke-miterlimit:4;stroke-opacity:1"
       id="path7807"
       d="m 170.864,138.09835 v -16.26079 l 4.44644,-3.69564 6.66963,0.73913 11.11609,1.47825 -0.74108,22.91295 1.48214,18.47818 h -8.89286 l -7.4107,-0.73914 -1.48215,-20.69555 z"
       inkscape:connector-curvature="0" />
    <path
       style="fill:#ffdf00;fill-opacity:1;fill-rule:evenodd;stroke:none;stroke-width:0.625;stroke-linecap:butt;stroke-linejoin:miter;stroke-miterlimit:4;stroke-opacity:1"
       id="path7808"
       d="m 181.23901,118.14192 -0.74108,-36.956372 5.92858,-8.869529 14.08035,1.478255 5.92858,2.956509 -2.22321,22.173825 -2.96429,35.478112 -3.70534,-0.73913 0.74106,28.08684 -5.1875,-0.73914 -0.74108,-18.47817 V 120.3593 Z"
       inkscape:connector-curvature="0" />
    <path
       style="fill:#ffdf00;fill-opacity:1;fill-rule:evenodd;stroke:none;stroke-width:0.625;stroke-linecap:butt;stroke-linejoin:miter;stroke-miterlimit:4;stroke-opacity:1"
       id="path7809"
       d="m 204.95329,93.750715 11.85717,-10.347786 8.15178,0.739128 1.48213,34.738993 -5.1875,34.73898 -3.70534,2.21738 2.22321,-18.47819 -6.66965,-1.47825 -12.59823,-1.47825 2.96429,-28.82598 z"
       inkscape:connector-curvature="0" />
    <path
       style="fill:#000000;fill-opacity:0.14375;fill-rule:evenodd;stroke:none;stroke-width:0.625;stroke-linecap:butt;stroke-linejoin:miter;stroke-miterlimit:4;stroke-opacity:1"
       id="path7810"
       d="m 225.70331,81.924675 4.44643,-17.739056 17.04464,-5.173892 5.18751,2.217383 -3.70536,14.043419 -5.18751,5.913019 -2.22321,18.478182 -10.375,5.91301 -2.96429,11.82604 -2.96428,-19.956426 z"
       inkscape:connector-curvature="0" />
    <path
       style="fill:#ffdf00;fill-opacity:1;fill-rule:evenodd;stroke:none;stroke-width:0.625;stroke-linecap:butt;stroke-linejoin:miter;stroke-miterlimit:4;stroke-opacity:1"
       id="path7811"
       d="m 241.26581,96.707222 1.48215,-14.782547 4.44642,-6.652146 2.9643,-1.478255 10.37501,2.217382 -0.74108,12.565165 v 6.652148 l -8.89286,5.913011 -2.22322,1.47826 v -3.695632 z"
       inkscape:connector-curvature="0" />
    <path
       style="fill:#000000;fill-opacity:0.13125;fill-rule:evenodd;stroke:none;stroke-width:0.625;stroke-linecap:butt;stroke-linejoin:miter;stroke-miterlimit:4;stroke-opacity:1"
       id="path7812"
       d="m 248.67653,101.88112 11.85716,-8.869535 10.37499,0.73913 -5.1875,16.260805 -0.74108,7.39126 h -7.4107 l -7.41072,6.65215 -2.9643,18.47819 -5.92857,3.69564 -5.18749,0.73912 6.66964,-19.95644 z"
       inkscape:connector-curvature="0" />
    <path
       style="fill:#000000;fill-opacity:0.146875;fill-rule:evenodd;stroke:none;stroke-width:0.625;stroke-linecap:butt;stroke-linejoin:miter;stroke-miterlimit:4;stroke-opacity:1"
       id="path7813"
       d="m 270.16762,93.011585 3.70535,-11.826037 11.85714,-6.652146 9.63394,1.478254 v 14.782548 l -2.96429,11.826036 -7.41072,2.21738 -14.82142,16.99994 -2.22323,-4.43478 -2.96429,-0.73913 0.74108,-10.34777 z"
       inkscape:connector-curvature="0" />
    <path
       style="fill:#ffdf00;fill-opacity:1;fill-rule:evenodd;stroke:none;stroke-width:0.625;stroke-linecap:butt;stroke-linejoin:miter;stroke-miterlimit:4;stroke-opacity:1"
       id="path7814"
       d="m 290.17655,74.533402 8.89286,-14.04342 17.78571,-6.652146 5.92858,-0.739127 -0.74107,8.130401 -10.375,19.956438 -2.96429,2.217381 -11.11606,18.478191 -5.18752,0.73912 2.96429,-11.086909 -0.74107,-16.260802 z"
       inkscape:connector-curvature="0" />
    <path
       style="fill:#ffdf00;fill-opacity:1;fill-rule:evenodd;stroke:none;stroke-width:0.625;stroke-linecap:butt;stroke-linejoin:miter;stroke-miterlimit:4;stroke-opacity:1"
       id="path7815"
       d="m 300.55156,58.2726 -1.48215,-7.391274 -8.89286,2.217383 -6.66964,8.130401 v 11.826037 l 5.18749,1.478255 z"
       inkscape:connector-curvature="0" />
    <path
       style="fill:#000400;fill-opacity:0.134375;fill-rule:evenodd;stroke:none;stroke-width:0.625;stroke-linecap:butt;stroke-linejoin:miter;stroke-miterlimit:4;stroke-opacity:1"
       id="path7816"
       d="m 283.50691,59.011727 -11.85716,1.478255 -8.1518,10.347783 -3.70534,4.434764 v 18.478186 h 9.63392 l 4.44644,-13.304294 11.11607,-5.173892 -1.48213,-2.95651 z"
       inkscape:connector-curvature="0" />
    <path
       style="fill:#ffdf00;fill-opacity:1;fill-rule:evenodd;stroke:none;stroke-width:0.625;stroke-linecap:butt;stroke-linejoin:miter;stroke-miterlimit:4;stroke-opacity:1"
       id="path7817"
       d="m 275.35512,59.011727 11.85714,-14.043419 -0.74107,-4.434764 -5.1875,-1.478255 -11.11607,-1.478255 -18.5268,21.434693 0.74107,2.956511 -2.96429,11.826036 10.37501,2.217382 11.85714,-16.999929 z"
       inkscape:connector-curvature="0" />
    <path
       style="fill:#000400;fill-opacity:0.1625;fill-rule:evenodd;stroke:none;stroke-width:0.625;stroke-linecap:butt;stroke-linejoin:miter;stroke-miterlimit:4;stroke-opacity:1"
       id="path7818"
       d="m 279.80154,37.577034 7.41072,-8.869527 -10.375,-6.652147 -9.63393,6.652147 -11.11607,23.652075 13.33927,-14.782548 z"
       inkscape:connector-curvature="0" />
    <path
       style="fill:#ffdf00;fill-opacity:1;fill-rule:evenodd;stroke:none;stroke-width:0.625;stroke-linecap:butt;stroke-linejoin:miter;stroke-miterlimit:4;stroke-opacity:1"
       id="path7819"
       d="m 257.5694,42.750926 -4.44643,-3.695637 -15.56251,0.739127 -2.96428,22.173822 12.5982,-3.695638 3.70537,2.217382 5.92857,-8.1304 z"
       inkscape:connector-curvature="0" />
    <path
       style="fill:#ffdf00;fill-opacity:1;fill-rule:evenodd;stroke:none;stroke-width:0.625;stroke-linecap:butt;stroke-linejoin:miter;stroke-miterlimit:4;stroke-opacity:1"
       id="path7820"
       d="m 257.5694,42.011798 3.70535,-25.869456 -6.66964,-3.695638 h -5.18751 l -8.89286,10.347784 v 15.521674 l 9.63394,-0.739128 h 3.70535 z"
       inkscape:connector-curvature="0" />
    <path
       style="fill:#ffdf00;fill-opacity:1;fill-rule:evenodd;stroke:none;stroke-width:0.625;stroke-linecap:butt;stroke-linejoin:miter;stroke-miterlimit:4;stroke-opacity:1"
       id="path7821"
       d="m 88.605046,124.05493 -7.410718,-11.82603 -3.705358,-4.43476 -5.187501,-13.304303 1.482143,-7.39127 15.562505,0.739126 5.928573,7.391276 -2.223214,2.956507 z"
       inkscape:connector-curvature="0" />
    <path
       style="fill:#000000;fill-opacity:0.196875;fill-rule:evenodd;stroke:none;stroke-width:0.625;stroke-linecap:butt;stroke-linejoin:miter;stroke-miterlimit:4;stroke-opacity:1"
       id="path7822"
       d="M 73.783612,86.359439 60.444321,65.663874 51.551461,58.2726 l 2.964287,-1.478254 14.080361,1.478254 7.410719,6.652146 h -4.446431 l 8.89286,21.434693 z"
       inkscape:connector-curvature="0" />
    <path
       style="fill:#ffdf00;fill-opacity:1;fill-rule:evenodd;stroke:none;stroke-width:0.625;stroke-linecap:butt;stroke-linejoin:miter;stroke-miterlimit:4;stroke-opacity:1"
       id="path7823"
       d="m 72.301469,64.185619 h 12.598218 l 8.89286,16.999929 h -3.705358 l 7.410714,14.782542 -2.964287,0.739132 0.741074,-1.478253 -5.928573,-7.391276 -9.633931,-2.217381 z"
       inkscape:connector-curvature="0" />
    <path
       style="fill:#ffdf00;fill-opacity:1;fill-rule:evenodd;stroke:none;stroke-width:0.625;stroke-linecap:butt;stroke-linejoin:miter;stroke-miterlimit:4;stroke-opacity:1"
       id="path7824"
       d="m 97.497903,96.707222 -8.151786,-16.260801 17.044643,0.739127 8.1518,4.434764 9.63392,21.434688 h -2.96429 l -11.85714,13.3043 0.74108,-5.1739 -4.44643,-16.999924 z"
       inkscape:connector-curvature="0" />
    <path
       style="fill:#000000;fill-opacity:0.115625;fill-rule:evenodd;stroke:none;stroke-width:0.625;stroke-linecap:butt;stroke-linejoin:miter;stroke-miterlimit:4;stroke-opacity:1"
       id="path7825"
       d="m 85.640758,64.924746 3.705359,-5.173891 14.080353,-1.478255 14.82144,27.347712 0.74107,8.869525 -5.18749,-8.130398 -6.66965,-5.913018 -14.080364,-0.739128 z"
       inkscape:connector-curvature="0" />
    <path
       style="fill:#ffdf00;fill-opacity:1;fill-rule:evenodd;stroke:none;stroke-width:0.625;stroke-linecap:butt;stroke-linejoin:miter;stroke-miterlimit:4;stroke-opacity:1"
       id="path7826"
       d="m 88.605046,59.011727 -8.89286,-18.478183 4.44643,-2.95651 14.080361,3.695638 14.821433,31.782475 -9.63394,-15.521673 z"
       inkscape:connector-curvature="0" />
    <path
       style="fill:#ffdf00;fill-opacity:1;fill-rule:evenodd;stroke:none;stroke-width:0.625;stroke-linecap:butt;stroke-linejoin:miter;stroke-miterlimit:4;stroke-opacity:1"
       id="path7827"
       d="m 118.98898,95.228969 v -8.130402 l -7.4107,-15.521675 3.70535,-2.956509 17.04464,0.739127 4.44644,11.086911 -3.70535,2.956508 4.44641,14.043425 -10.37499,-1.478264 -3.70537,10.34779 z"
       inkscape:connector-curvature="0" />
    <path
       style="fill:#000000;fill-opacity:0.14062494;fill-rule:evenodd;stroke:none;stroke-width:0.625;stroke-linecap:butt;stroke-linejoin:miter;stroke-miterlimit:4;stroke-opacity:1"
       id="path7828"
       d="m 133.81042,82.663803 12.59821,-13.304293 8.1518,7.391273 0.74108,17.739054 1.48213,16.260813 -5.92857,14.78253 -2.22322,11.08691 -2.22322,19.95644 -0.74106,-31.78247 -0.74108,-22.91294 -4.44644,-4.434766 -3.70534,-0.739132 z"
       inkscape:connector-curvature="0" />
    <path
       style="fill:#ffdf00;fill-opacity:1;fill-rule:evenodd;stroke:none;stroke-width:0.625;stroke-linecap:butt;stroke-linejoin:miter;stroke-miterlimit:4;stroke-opacity:1"
       id="path7829"
       d="m 154.56043,77.489911 14.08036,-16.260801 9.63394,3.695636 2.2232,14.04342 v 38.434614 h -4.44642 l -3.70536,-6.65213 -11.11608,-2.21739 -5.18749,4.43476 0.74106,-2.9565 z"
       inkscape:connector-curvature="0" />
    <path
       style="fill:#ffdf00;fill-opacity:1;fill-rule:evenodd;stroke:none;stroke-width:0.625;stroke-linecap:butt;stroke-linejoin:miter;stroke-miterlimit:4;stroke-opacity:1"
       id="path7830"
       d="m 204.21223,74.533402 2.22321,-9.608656 14.08037,-6.652146 8.15179,3.695638 -4.44644,22.173819 -6.66963,-0.739128 -11.11609,10.347786 V 78.968166 Z"
       inkscape:connector-curvature="0" />
    <path
       style="fill:#ffdf00;fill-opacity:1;fill-rule:evenodd;stroke:none;stroke-width:0.625;stroke-linecap:butt;stroke-linejoin:miter;stroke-miterlimit:4;stroke-opacity:1"
       id="path7831"
       d="m 207.17652,64.185619 2.22321,-27.347711 8.89286,1.478254 6.66965,2.217382 -2.9643,16.99993 z"
       inkscape:connector-curvature="0" />
    <path
       style="fill:#ffdf00;fill-opacity:1;fill-rule:evenodd;stroke:none;stroke-width:0.625;stroke-linecap:butt;stroke-linejoin:miter;stroke-miterlimit:4;stroke-opacity:1"
       id="path7832"
       d="M 222.73902,38.316162 V 26.490124 l 4.44643,-5.173892 11.11608,18.478184 -2.96429,22.173822 -6.66964,2.217381 v -2.217381 l -6.66966,-5.173892 z"
       inkscape:connector-curvature="0" />
    <path
       style="fill:#ffdf00;fill-opacity:1;fill-rule:evenodd;stroke:none;stroke-width:0.625;stroke-linecap:butt;stroke-linejoin:miter;stroke-miterlimit:4;stroke-opacity:1"
       id="path7833"
       d="m 203.47115,73.055147 2.22323,-8.869528 -0.74109,-10.347783 -5.92855,-7.391274 h -14.08038 l 1.48215,25.869457 z"
       inkscape:connector-curvature="0" />
    <path
       style="fill:#ffdf00;fill-opacity:1;fill-rule:evenodd;stroke:none;stroke-width:0.625;stroke-linecap:butt;stroke-linejoin:miter;stroke-miterlimit:4;stroke-opacity:1"
       id="path7834"
       d="M 173.82829,61.968238 V 27.229252 h 11.11607 l 8.89286,4.434764 -1.48214,14.04342 h -7.41072 l 2.22322,25.130329 -5.18751,8.869528 -3.70534,-16.99993 z"
       inkscape:connector-curvature="0" />
    <path
       style="fill:#000000;fill-opacity:0.15;fill-rule:evenodd;stroke:none;stroke-width:0.625;stroke-linecap:butt;stroke-linejoin:miter;stroke-miterlimit:4;stroke-opacity:1"
       id="path7835"
       d="m 193.83722,30.18576 1.48215,-7.391272 24.45537,0.739127 -3.70536,13.304293 h -6.66965 l -2.96429,26.608583 -1.48215,-10.347782 -5.92855,-7.391273 h -5.92858 z"
       inkscape:connector-curvature="0" />
    <path
       style="fill:#ffdf00;fill-opacity:1;fill-rule:evenodd;stroke:none;stroke-width:0.625;stroke-linecap:butt;stroke-linejoin:miter;stroke-miterlimit:4;stroke-opacity:1"
       id="path7836"
       d="m 188.64973,27.968379 5.18749,-19.9564379 11.85716,-4.4347641 6.66964,2.2173815 -2.22322,16.9999295 -14.08035,-0.739128 -2.22323,8.869528 z"
       inkscape:connector-curvature="0" />
    <path
       style="fill:#000600;fill-opacity:0.12499994;fill-rule:evenodd;stroke:none;stroke-width:0.625;stroke-linecap:butt;stroke-linejoin:miter;stroke-miterlimit:4;stroke-opacity:1"
       id="path7838"
       d="m 159.00686,70.098638 -5.92857,-33.999858 11.11607,-5.91302 6.66964,4.434764 2.96429,14.782548 V 61.22911 l -4.44643,-1.478255 z"
       inkscape:connector-curvature="0" />
    <path
       style="fill:#ffdf00;fill-opacity:1;fill-rule:evenodd;stroke:none;stroke-width:0.625;stroke-linecap:butt;stroke-linejoin:miter;stroke-miterlimit:4;stroke-opacity:1"
       id="path7839"
       d="m 159.00686,71.576892 -13.33929,-30.30422 -9.63392,-0.739128 -5.18752,-1.478255 7.41072,34.738985 1.48214,4.434765 7.41072,-8.869529 7.41072,7.391273 z"
       inkscape:connector-curvature="0" />
    <path
       style="fill:#ffdf00;fill-opacity:1;fill-rule:evenodd;stroke:none;stroke-width:0.625;stroke-linecap:butt;stroke-linejoin:miter;stroke-miterlimit:4;stroke-opacity:1"
       id="path7840"
       d="m 114.54256,68.620383 -5.92857,-30.304221 h 11.85713 l 16.30359,32.521603 1.48214,5.913018 -2.2232,0.739128 -2.22323,-8.130401 z"
       inkscape:connector-curvature="0" />
    <path
       style="fill:#ffdf00;fill-opacity:1;fill-rule:evenodd;stroke:none;stroke-width:0.625;stroke-linecap:butt;stroke-linejoin:miter;stroke-miterlimit:4;stroke-opacity:1"
       id="path7841"
       d="m 93.051476,39.055289 -8.151789,-13.304293 14.080355,1.478256 14.080368,9.608656 -4.44642,0.739126 6.66964,29.565094 -3.70535,3.695637 -12.598238,-29.565093 z"
       inkscape:connector-curvature="0" />
    <path
       style="fill:#000000;fill-opacity:0.190625;fill-rule:evenodd;stroke:none;stroke-width:0.625;stroke-linecap:butt;stroke-linejoin:miter;stroke-miterlimit:4;stroke-opacity:1"
       id="path7842"
       d="m 116.76578,36.09878 -2.22322,-3.695637 h 16.30357 l 3.70537,6.652146 h -3.70537 l 8.89286,36.21724 -18.5268,-36.956367 z"
       inkscape:connector-curvature="0" />
    <path
       style="fill:#ffdf00;fill-opacity:1;fill-rule:evenodd;stroke:none;stroke-width:0.625;stroke-linecap:butt;stroke-linejoin:miter;stroke-miterlimit:4;stroke-opacity:1"
       id="path7843"
       d="m 124.17648,30.18576 -5.1875,-12.565164 13.33929,-4.434764 10.37501,27.347712 -7.41072,-1.478255 -3.70535,-5.913018 z"
       inkscape:connector-curvature="0" />
    <path
       style="fill:#ffdf00;fill-opacity:1;fill-rule:evenodd;stroke:none;stroke-width:0.625;stroke-linecap:butt;stroke-linejoin:miter;stroke-miterlimit:4;stroke-opacity:1"
       id="path7844"
       d="M 172.34615,29.446634 168.64079,6.5336864 h 14.08035 l 5.92859,14.0434196 -0.74108,6.652146 z"
       inkscape:connector-curvature="0" />
    <path
       style="fill:#ffdf00;fill-opacity:1;fill-rule:evenodd;stroke:none;stroke-width:0.625;stroke-linecap:butt;stroke-linejoin:miter;stroke-miterlimit:4;stroke-opacity:1"
       id="path7845"
       d="m 156.04258,32.403143 -4.44644,-11.826037 17.78572,-4.434764 2.96429,11.08691 0.74108,2.956508 v 15.521676 l -2.96429,-10.347784 -5.18752,-4.434764 z"
       inkscape:connector-curvature="0" />
    <path
       style="fill:#000000;fill-opacity:0.43125;fill-rule:evenodd;stroke:none;stroke-width:1.00000003pt;stroke-linecap:butt;stroke-linejoin:miter;stroke-opacity:1"
       id="path9758"
       d="m 67.814055,95.639728 3.144101,10.975472 -9.432303,3.65851 15.720505,-1.0453 z"
       inkscape:connector-curvature="0" />
    <path
       style="fill:#000000;fill-opacity:0.46875;fill-rule:evenodd;stroke:none;stroke-width:1.00000003pt;stroke-linecap:butt;stroke-linejoin:miter;stroke-opacity:1"
       id="path9759"
       d="m 88.774728,88.32274 3.668118,6.79435 -4.192136,28.22266 3.668118,2.61321 3.144105,-26.132107 3.668114,-2.090552 -8.908286,-17.769833 3.144102,10.452839 z"
       inkscape:connector-curvature="0" />
    <path
       style="fill:#000000;fill-opacity:0.46875;fill-rule:evenodd;stroke:none;stroke-width:1.00000003pt;stroke-linecap:butt;stroke-linejoin:miter;stroke-opacity:1"
       id="path9760"
       d="m 114.45154,114.97749 7.33626,-3.65851 2.09604,1.0453 2.09608,33.97171 -5.24017,1.04529 7.86025,5.22642 -2.62008,-53.309485 1.57206,-2.090562 6.81221,-0.522649 -8.38427,-1.567914 -1.04803,4.703763 -1.04805,4.703787 -4.19212,-7.316987 -4.71616,-8.884913 5.24018,13.06605 0.52401,3.65849 -3.66811,5.22643 z"
       inkscape:connector-curvature="0" />
    <path
       style="fill:#000000;fill-opacity:0.46875;fill-rule:evenodd;stroke:none;stroke-width:1.00000003pt;stroke-linecap:butt;stroke-linejoin:miter;stroke-opacity:1"
       id="path9761"
       d="m 107.63934,105.04728 0.52401,9.40755 -0.52401,5.22643 -1.57206,3.65849 0.52402,7.31699 v 6.79435 l 2.62009,3.65848 -1.04804,-16.72454 2.62008,-8.8849 z"
       inkscape:connector-curvature="0" />
    <path
       style="fill:#000000;fill-opacity:0.48125;fill-rule:evenodd;stroke:none;stroke-width:1.00000003pt;stroke-linecap:butt;stroke-linejoin:miter;stroke-opacity:1"
       id="path9762"
       d="m 83.010542,64.803852 -8.384268,0.522643 3.668118,18.815109 -7.860254,-19.860395 -1.572049,-5.226419 5.240168,4.703777 z"
       inkscape:connector-curvature="0" />
    <path
       style="fill:#000000;fill-opacity:0.428125;fill-rule:evenodd;stroke:none;stroke-width:1.00000003pt;stroke-linecap:butt;stroke-linejoin:miter;stroke-opacity:1"
       id="path9763"
       d="m 84.582593,66.371778 6.288203,13.58869 h 3.144099 L 90.870796,77.8699 Z"
       inkscape:connector-curvature="0" />
    <path
       style="fill:#000000;fill-opacity:0.428125;fill-rule:evenodd;stroke:none;stroke-width:1.00000003pt;stroke-linecap:butt;stroke-linejoin:miter;stroke-opacity:1"
       id="path9764"
       d="m 89.822761,60.100074 12.576399,-1.567926 13.10043,25.609456 -2.62009,-12.543407 2.09606,-3.135852 h -2.62007 l -6.28821,-10.975481 -3.66812,-12.020765 5.24018,-6.271703 -7.33624,4.703778 -3.144112,-4.181136 -9.956311,-1.567925 7.860256,4.703776 6.288197,14.111334 z"
       inkscape:connector-curvature="0" />
    <path
       style="fill:#000000;fill-opacity:0.428125;fill-rule:evenodd;stroke:none;stroke-width:1.00000003pt;stroke-linecap:butt;stroke-linejoin:miter;stroke-opacity:1"
       id="path9765"
       d="M 112.35549,79.960468 H 95.586949 l 17.816571,5.749062 4.19213,3.658494 -0.52401,-7.316988 11.00435,-10.97548 -9.95632,7.316986 z"
       inkscape:connector-curvature="0" />
    <path
       style="fill:#000000;fill-opacity:0.50625;fill-rule:evenodd;stroke:none;stroke-width:1.00000003pt;stroke-linecap:butt;stroke-linejoin:miter;stroke-opacity:1"
       id="path9767"
       d="m 138.03231,98.775577 3.66811,3.135853 3.66813,54.87742 0.52401,-55.9227 z"
       inkscape:connector-curvature="0" />
    <path
       style="fill:#000000;fill-opacity:0.50625;fill-rule:evenodd;stroke:none;stroke-width:1.00000003pt;stroke-linecap:butt;stroke-linejoin:miter;stroke-opacity:1"
       id="path9768"
       d="m 159.51699,155.74355 -0.52402,-9.93019 11.00437,-4.18115 3.66811,1.0453 2.62009,17.76982 v -21.95097 l -4.19215,-1.56791 -13.10042,7.83962 z"
       inkscape:connector-curvature="0" />
    <path
       style="fill:#000000;fill-opacity:0.50625;fill-rule:evenodd;stroke:none;stroke-width:1.00000003pt;stroke-linecap:butt;stroke-linejoin:miter;stroke-opacity:1"
       id="path9770"
       d="m 158.99297,143.72278 -3.6681,-29.26795 8.90828,-7.31698 7.86024,4.18113 v 5.22642 l -2.09605,-4.70378 -5.76419,-1.56791 -7.33623,4.70378 z"
       inkscape:connector-curvature="0" />
    <path
       style="fill:#000000;fill-opacity:0.50625;fill-rule:evenodd;stroke:none;stroke-width:1.00000003pt;stroke-linecap:butt;stroke-linejoin:miter;stroke-opacity:1"
       id="path9771"
       d="m 173.14144,134.31523 2.62009,-17.76983 14.67247,6.27171 -13.62445,-8.36228 -4.19213,1.0453 z"
       inkscape:connector-curvature="0" />
    <path
       style="fill:#000000;fill-opacity:0.50625;fill-rule:evenodd;stroke:none;stroke-width:1.00000003pt;stroke-linecap:butt;stroke-linejoin:miter;stroke-opacity:1"
       id="path9772"
       d="m 198.81825,160.44733 -3.1441,-29.26795 c 0,0 23.58077,5.22642 21.48469,4.70378 -2.09605,-0.52265 -17.29254,-1.04528 -17.29254,-1.04528 z"
       inkscape:connector-curvature="0" />
    <path
       style="fill:#000000;fill-opacity:0.50625;fill-rule:evenodd;stroke:none;stroke-width:1.00000003pt;stroke-linecap:butt;stroke-linejoin:miter;stroke-opacity:1"
       id="path9773"
       d="m 193.57809,158.8794 -3.66812,-60.626461 11.00436,-5.226421 9.95631,2.61321 -13.10042,0.522638 -3.66812,4.703784 z"
       inkscape:connector-curvature="0" />
    <path
       style="fill:#000000;fill-opacity:0.56875;fill-rule:evenodd;stroke:none;stroke-width:1.00000003pt;stroke-linecap:butt;stroke-linejoin:miter;stroke-opacity:1"
       id="path9774"
       d="m 169.47332,62.190642 6.81222,3.658494 3.14411,21.950962 1.04802,27.177392 2.62008,-33.971737 4.19214,-9.407556 -6.28821,2.613209 -2.09605,-10.97548 -8.90829,-4.181136 -4.19214,4.703777 z"
       inkscape:connector-curvature="0" />
    <path
       style="fill:#000000;fill-opacity:0.50625;fill-rule:evenodd;stroke:none;stroke-width:1.00000003pt;stroke-linecap:butt;stroke-linejoin:miter;stroke-opacity:1"
       id="path9775"
       d="m 163.70913,30.309483 5.24017,1.045283 3.66812,25.609457 0.52402,-27.177382 3.66811,-1.567925 -4.19213,-1.567928 -2.09607,-12.020764 -0.52401,11.498123 z"
       inkscape:connector-curvature="0" />
    <path
       style="fill:#000000;fill-opacity:0.50625;fill-rule:evenodd;stroke:none;stroke-width:1.00000003pt;stroke-linecap:butt;stroke-linejoin:miter;stroke-opacity:1"
       id="path9776"
       d="M 155.84888,19.856644 171.04537,18.81136 168.9493,7.3132367 166.32923,14.107582 Z"
       inkscape:connector-curvature="0" />
    <path
       style="fill:#000000;fill-opacity:0.50625;fill-rule:evenodd;stroke:none;stroke-width:1.00000003pt;stroke-linecap:butt;stroke-linejoin:miter;stroke-opacity:1"
       id="path9777"
       d="m 182.04972,26.128347 8.90829,6.271703 v 12.543407 l -6.28821,0.522642 12.0524,2.090568 6.2882,7.316988 v 18.815109 l 3.1441,-19.860394 -6.2882,-9.407554 -4.71616,-1.045285 -1.04804,-12.020765 z"
       inkscape:connector-curvature="0" />
    <path
       style="fill:#000000;fill-opacity:0.50625;fill-rule:evenodd;stroke:none;stroke-width:1.00000003pt;stroke-linecap:butt;stroke-linejoin:miter;stroke-opacity:1"
       id="path9778"
       d="m 184.6698,46.511384 1.57205,24.564172 0.52402,-22.996247 z"
       inkscape:connector-curvature="0" />
    <path
       style="fill:#000000;fill-opacity:0.50625;fill-rule:evenodd;stroke:none;stroke-width:1.00000003pt;stroke-linecap:butt;stroke-linejoin:miter;stroke-opacity:1"
       id="path9779"
       d="m 194.1021,72.120839 7.86026,3.658494 3.1441,14.111333 2.09606,-28.745307 -1.04802,2.090567 -3.1441,10.452838 z"
       inkscape:connector-curvature="0" />
    <path
       style="fill:#000000;fill-opacity:0.50625;fill-rule:evenodd;stroke:none;stroke-width:1.00000003pt;stroke-linecap:butt;stroke-linejoin:miter;stroke-opacity:1"
       id="path9780"
       d="m 212.4427,62.190642 8.38427,-1.567925 4.71615,1.045283 -1.57204,32.403804 5.76417,-29.790595 -7.33623,-8.36227 z"
       inkscape:connector-curvature="0" />
    <path
       style="fill:#000000;fill-opacity:0.50625;fill-rule:evenodd;stroke:none;stroke-width:1.00000003pt;stroke-linecap:butt;stroke-linejoin:miter;stroke-opacity:1"
       id="path9781"
       d="m 231.3073,63.758567 14.67248,-3.658493 4.71615,2.61321 -2.62008,32.403806 5.76418,-36.0623 -5.24017,-2.613209 z"
       inkscape:connector-curvature="0" />
    <path
       style="fill:#000000;fill-opacity:0.50625;fill-rule:evenodd;stroke:none;stroke-width:1.00000003pt;stroke-linecap:butt;stroke-linejoin:miter;stroke-opacity:1"
       id="path9782"
       d="m 207.72654,130.1341 2.09608,-27.70003 H 221.875 l -14.14846,-1.56792 z"
       inkscape:connector-curvature="0" />
    <path
       style="fill:#000000;fill-opacity:0.50625;fill-rule:evenodd;stroke:none;stroke-width:1.00000003pt;stroke-linecap:butt;stroke-linejoin:miter;stroke-opacity:1"
       id="path9783"
       d="m 221.35098,104.52464 2.6201,9.40755 -2.09608,40.76608 6.2882,-43.37929 -1.04802,-8.36226 z"
       inkscape:connector-curvature="0" />
    <path
       style="fill:#000000;fill-opacity:0.50625;fill-rule:evenodd;stroke:none;stroke-width:1.00000003pt;stroke-linecap:butt;stroke-linejoin:miter;stroke-opacity:1"
       id="path9784"
       d="m 216.63482,137.45109 -0.52401,17.24718 3.66811,-15.15661 z"
       inkscape:connector-curvature="0" />
    <path
       style="fill:#000000;fill-opacity:0.50625;fill-rule:evenodd;stroke:none;stroke-width:1.00000003pt;stroke-linecap:butt;stroke-linejoin:miter;stroke-opacity:1"
       id="path9785"
       d="m 232.35534,102.43407 12.05239,-2.613217 -5.24017,43.901927 9.95632,-44.947203 -7.33624,-3.658487 -7.33624,6.79434 z"
       inkscape:connector-curvature="0" />
    <path
       style="fill:#000000;fill-opacity:0.50625;fill-rule:evenodd;stroke:none;stroke-width:1.00000003pt;stroke-linecap:butt;stroke-linejoin:miter;stroke-opacity:1"
       id="path9786"
       d="m 127.55198,72.120839 5.24016,1.045284 1.04804,21.428319 2.62008,-13.066047 4.71615,-5.22642 h -4.19214 l -2.62008,-4.703778 z"
       inkscape:connector-curvature="0" />
    <path
       style="fill:#000000;fill-opacity:0.50625;fill-rule:evenodd;stroke:none;stroke-width:1.00000003pt;stroke-linecap:butt;stroke-linejoin:miter;stroke-opacity:1"
       id="path9787"
       d="m 144.84453,74.734049 5.24016,4.703778 6.81223,31.358513 -0.52402,-35.017007 8.90828,-10.452838 -10.48033,9.407554 -7.33624,-3.658493 z"
       inkscape:connector-curvature="0" />
    <path
       style="fill:#000000;fill-opacity:0.50625;fill-rule:evenodd;stroke:none;stroke-width:1.00000003pt;stroke-linecap:butt;stroke-linejoin:miter;stroke-opacity:1"
       id="path9788"
       d="m 247.55183,140.58693 3.1441,-17.24718 8.38427,-3.65849 8.90827,4.70377 2.09608,-6.27169 -10.48034,-2.61321 -7.33624,2.61321 z"
       inkscape:connector-curvature="0" />
    <path
       style="fill:#000000;fill-opacity:0.50625;fill-rule:evenodd;stroke:none;stroke-width:1.00000003pt;stroke-linecap:butt;stroke-linejoin:miter;stroke-opacity:1"
       id="path9789"
       d="m 299.9535,99.820853 20.96068,-38.675494 -0.52401,-7.839631 -10.48035,1.567927 6.2882,5.226419 z"
       inkscape:connector-curvature="0" />
    <path
       style="fill:#000000;fill-opacity:0.50625;fill-rule:evenodd;stroke:none;stroke-width:1.00000003pt;stroke-linecap:butt;stroke-linejoin:miter;stroke-opacity:1"
       id="path9790"
       d="m 310.95786,83.618963 9.43231,2.090567 -4.71616,14.63398 11.52837,-17.769832 z"
       inkscape:connector-curvature="0" />
    <path
       style="fill:#000000;fill-opacity:0.50625;fill-rule:evenodd;stroke:none;stroke-width:1.00000003pt;stroke-linecap:butt;stroke-linejoin:miter;stroke-opacity:1"
       id="path9791"
       d="m 284.23301,75.256692 8.90828,6.271703 -2.62009,21.428325 7.33624,-27.700028 -4.19213,-2.090569 z"
       inkscape:connector-curvature="0" />
    <path
       style="fill:#000000;fill-opacity:0.50625;fill-rule:evenodd;stroke:none;stroke-width:1.00000003pt;stroke-linecap:butt;stroke-linejoin:miter;stroke-opacity:1"
       id="path9792"
       d="m 273.22865,80.48311 -8.9083,33.44908 5.24018,-31.358512 12.05239,-5.226419 z"
       inkscape:connector-curvature="0" />
    <path
       style="fill:#000000;fill-opacity:0.50625;fill-rule:evenodd;stroke:none;stroke-width:1.00000003pt;stroke-linecap:butt;stroke-linejoin:miter;stroke-opacity:1"
       id="path9793"
       d="m 272.70463,60.622717 7.33624,2.090567 1.57205,8.362272 2.62009,-11.498124 6.28819,-6.794345 -8.38427,5.749061 z"
       inkscape:connector-curvature="0" />
    <path
       style="fill:#000000;fill-opacity:0.50625;fill-rule:evenodd;stroke:none;stroke-width:1.00000003pt;stroke-linecap:butt;stroke-linejoin:miter;stroke-opacity:1"
       id="path9794"
       d="m 298.38146,53.305728 -5.24017,19.860395 9.4323,-13.066049 z"
       inkscape:connector-curvature="0" />
    <path
       style="fill:#000000;fill-opacity:0.50625;fill-rule:evenodd;stroke:none;stroke-width:1.00000003pt;stroke-linecap:butt;stroke-linejoin:miter;stroke-opacity:1"
       id="path9797"
       d="m 270.08455,38.671754 9.95632,6.794345 -2.09607,10.975482 8.90828,-12.543407 v -4.181136 z"
       inkscape:connector-curvature="0" />
    <path
       style="fill:#000000;fill-opacity:0.50625;fill-rule:evenodd;stroke:none;stroke-width:1.00000003pt;stroke-linecap:butt;stroke-linejoin:miter;stroke-opacity:1"
       id="path9798"
       d="m 256.98413,39.717038 1.57205,56.445328 -6.81223,-55.922686 -16.24451,-0.522642 16.24451,-4.181136 z"
       inkscape:connector-curvature="0" />
    <path
       style="fill:#000000;fill-opacity:0.50625;fill-rule:evenodd;stroke:none;stroke-width:1.00000003pt;stroke-linecap:butt;stroke-linejoin:miter;stroke-opacity:1"
       id="path9799"
       d="m 234.97542,40.762321 -0.52402,18.815111 3.66812,-21.950962 -10.48033,-14.111332 -3.14411,2.613209 z"
       inkscape:connector-curvature="0" />
    <path
       style="fill:#000000;fill-opacity:0.50625;fill-rule:evenodd;stroke:none;stroke-width:1.00000003pt;stroke-linecap:butt;stroke-linejoin:miter;stroke-opacity:1"
       id="path9800"
       d="m 248.59986,14.630224 6.81221,3.658493 2.62009,31.358518 2.62009,-33.971727 -4.71616,-2.090568 -4.19214,-1.567926 z"
       inkscape:connector-curvature="0" />
    <path
       style="fill:#000000;fill-opacity:0.50625;fill-rule:evenodd;stroke:none;stroke-width:1.00000003pt;stroke-linecap:butt;stroke-linejoin:miter;stroke-opacity:1"
       id="path9801"
       d="m 276.37275,23.515138 3.66812,4.703778 v 8.884911 l 7.33623,-8.36227 z"
       inkscape:connector-curvature="0" />
    <path
       style="fill:#000000;fill-opacity:0.50625;fill-rule:evenodd;stroke:none;stroke-width:1.00000003pt;stroke-linecap:butt;stroke-linejoin:miter;stroke-opacity:1"
       id="path9802"
       d="m 212.96672,38.671754 11.00436,4.703777 3.1441,14.111333 -1.57206,-17.247184 z"
       inkscape:connector-curvature="0" />
    <path
       style="fill:#000000;fill-opacity:0.50625;fill-rule:evenodd;stroke:none;stroke-width:1.00000003pt;stroke-linecap:butt;stroke-linejoin:miter;stroke-opacity:1"
       id="path9803"
       d="m 196.19817,22.469853 18.34061,4.181135 v 12.020766 l 5.24014,-14.633974 z"
       inkscape:connector-curvature="0" />
    <path
       style="fill:#000000;fill-opacity:0.50625;fill-rule:evenodd;stroke:none;stroke-width:1.00000003pt;stroke-linecap:butt;stroke-linejoin:miter;stroke-opacity:1"
       id="path9804"
       d="m 195.67415,7.8358778 9.95633,2.0905684 3.1441,10.9754808 2.09606,-15.1566166 -4.71614,-2.0905684 -9.95633,2.0905684 z"
       inkscape:connector-curvature="0" />
    <path
       style="fill:#000000;fill-opacity:0.50625;fill-rule:evenodd;stroke:none;stroke-width:1.00000003pt;stroke-linecap:butt;stroke-linejoin:miter;stroke-opacity:1"
       id="path9805"
       d="m 174.18947,6.7905946 6.81221,3.1358516 3.66812,7.3169878 -5.76417,1.567926 6.28819,2.090567 2.09607,4.703778 1.57206,-6.271703 -6.28821,-13.0660495 -11.00437,1.0452842 z"
       inkscape:connector-curvature="0" />
    <path
       style="fill:#000000;fill-opacity:0.48125;fill-rule:evenodd;stroke:none;stroke-width:1.00000003pt;stroke-linecap:butt;stroke-linejoin:miter;stroke-opacity:1"
       id="path9807"
       d="m 132.79214,40.762321 10.48034,4.181136 14.14845,25.609457 -11.52837,-29.267951 -10.48034,-2.613209 z"
       inkscape:connector-curvature="0" />
    <path
       style="fill:#000000;fill-opacity:0.48125;fill-rule:evenodd;stroke:none;stroke-width:1.00000003pt;stroke-linecap:butt;stroke-linejoin:miter;stroke-opacity:1"
       id="path9808"
       d="m 112.8795,40.23968 5.24017,2.090568 20.43665,33.971727 -17.81657,-38.152862 -10.48033,-0.522643 z"
       inkscape:connector-curvature="0" />
    <path
       style="fill:#000000;fill-opacity:0.48125;fill-rule:evenodd;stroke:none;stroke-width:1.00000003pt;stroke-linecap:butt;stroke-linejoin:miter;stroke-opacity:1"
       id="path9809"
       d="m 120.21574,17.766076 9.95631,1.045284 11.00436,20.905678 -8.90829,-26.65474 z"
       inkscape:connector-curvature="0" />
    <path
       style="fill:#000000;fill-opacity:0.48125;fill-rule:evenodd;stroke:none;stroke-width:1.00000003pt;stroke-linecap:butt;stroke-linejoin:miter;stroke-opacity:1"
       id="path9810"
       d="m 117.59565,33.445335 7.33624,-3.658494 5.76419,2.090567 1.57204,6.271705 -5.24017,-4.703778 z"
       inkscape:connector-curvature="0" />
    <path
       style="fill:#000000;fill-opacity:0.48125;fill-rule:evenodd;stroke:none;stroke-width:1.00000003pt;stroke-linecap:butt;stroke-linejoin:miter;stroke-opacity:1"
       id="path9811"
       d="M 86.678661,26.650988 100.3031,24.560421 110.78343,38.149113 96.634982,27.17363 Z"
       inkscape:connector-curvature="0" />
    <path
       style="fill:#ffffff;fill-opacity:0.25625;fill-rule:evenodd;stroke:none;stroke-width:1.00000003pt;stroke-linecap:butt;stroke-linejoin:miter;stroke-opacity:1"
       sodipodi:nodetypes="cccccccc"
       id="path11077"
       d="m 62.049869,109.75105 45.065451,258.18514 14.67248,-6.27171 -28.820938,-234.66625 -7.860252,-8.36227 -5.764185,-7.31698 -6.288202,-2.61321 z"
       inkscape:connector-curvature="0" />
    <path
       style="fill:#ffffff;fill-opacity:0.25625;fill-rule:evenodd;stroke:none;stroke-width:1.00000003pt;stroke-linecap:butt;stroke-linejoin:miter;stroke-opacity:1"
       id="path11699"
       d="m 127.55198,153.13034 14.67246,204.35302 15.19649,-4.18115 2.09606,-191.28695 -16.76852,-3.6585 -8.90829,-2.61321 z"
       inkscape:connector-curvature="0" />
    <path
       style="fill:#ffffff;fill-opacity:0.25625;fill-rule:evenodd;stroke:none;stroke-width:1.00000003pt;stroke-linecap:butt;stroke-linejoin:miter;stroke-opacity:1"
       id="path11700"
       d="m 183.09775,164.10582 -3.14409,188.15111 15.19648,0.52264 4.19214,0.52264 17.29254,-195.46809 -11.00434,4.18114 -11.52838,1.56792 z"
       inkscape:connector-curvature="0" />
    <path
       style="fill:#ffffff;fill-opacity:0.25625;fill-rule:evenodd;stroke:none;stroke-width:1.00000003pt;stroke-linecap:butt;stroke-linejoin:miter;stroke-opacity:1"
       id="path11702"
       d="m 310.43385,105.04728 -43.4934,259.75306 4.19213,2.61321 4.71615,1.04528 7.33624,-0.52264 5.24016,-3.13585 2.09607,-2.61321 27.24888,-250.34551 -1.57206,-5.74905 z"
       inkscape:connector-curvature="0" />
    <path
       style="fill:#ffffff;fill-opacity:0.25625;fill-rule:evenodd;stroke:none;stroke-width:1.00000003pt;stroke-linecap:butt;stroke-linejoin:miter;stroke-opacity:1"
       id="path11701"
       d="m 244.40773,147.38128 -24.62881,206.96622 7.86027,1.56792 8.90829,1.56794 3.66811,-0.52266 51.35364,-251.91342 -5.76418,-1.04528 -8.38427,9.93019 -8.90828,10.97549 -7.86025,9.40755 -6.2882,6.79434 -5.24017,3.6585 z"
       inkscape:connector-curvature="0" />
  </g>
</svg>
