<?xml version="1.0" encoding="UTF-8" standalone="no"?>
<!-- Created with Inkscape (http://www.inkscape.org/) -->

<svg
   xmlns:dc="http://purl.org/dc/elements/1.1/"
   xmlns:cc="http://creativecommons.org/ns#"
   xmlns:rdf="http://www.w3.org/1999/02/22-rdf-syntax-ns#"
   xmlns:svg="http://www.w3.org/2000/svg"
   xmlns="http://www.w3.org/2000/svg"
   xmlns:xlink="http://www.w3.org/1999/xlink"
   xmlns:sodipodi="http://sodipodi.sourceforge.net/DTD/sodipodi-0.dtd"
   xmlns:inkscape="http://www.inkscape.org/namespaces/inkscape"
   height="128"
   id="svg1"
   inkscape:export-filename="P:\tmp\Cliparts Stocker\grape.png"
   inkscape:export-xdpi="72.000000"
   inkscape:export-ydpi="72.000000"
   inkscape:version="0.92.2 (5c3e80d, 2017-08-06)"
   sodipodi:docname="grapes.svg"
   sodipodi:version="0.32"
   width="126.55849"
   version="1.1">
  <metadata
     id="metadata2">
    <rdf:RDF>
      <cc:Work
         rdf:about="">
        <dc:title></dc:title>
        <dc:description />
        <dc:subject>
          <rdf:Bag>
            <rdf:li>hash</rdf:li>
            <rdf:li />
            <rdf:li>food</rdf:li>
            <rdf:li>wine</rdf:li>
            <rdf:li>fruit</rdf:li>
            <rdf:li>grape</rdf:li>
          </rdf:Bag>
        </dc:subject>
        <dc:publisher>
          <cc:Agent
             rdf:about="http://www.openclipart.org">
            <dc:title>Jean-Victor Balin (balin_j@epita.fr)</dc:title>
          </cc:Agent>
        </dc:publisher>
        <dc:creator>
          <cc:Agent>
            <dc:title>Jean-Victor Balin (balin_j@epita.fr)</dc:title>
          </cc:Agent>
        </dc:creator>
        <dc:rights>
          <cc:Agent>
            <dc:title>Jean-Victor Balin (balin_j@epita.fr)</dc:title>
          </cc:Agent>
        </dc:rights>
        <dc:date />
        <dc:format>image/svg+xml</dc:format>
        <dc:type
           rdf:resource="http://purl.org/dc/dcmitype/StillImage" />
        <cc:license
           rdf:resource="http://creativecommons.org/publicdomain/zero/1.0/" />
        <dc:language>en</dc:language>
      </cc:Work>
      <cc:License
         rdf:about="http://creativecommons.org/publicdomain/zero/1.0/">
        <cc:permits
           rdf:resource="http://creativecommons.org/ns#Reproduction" />
        <cc:permits
           rdf:resource="http://creativecommons.org/ns#Distribution" />
        <cc:permits
           rdf:resource="http://creativecommons.org/ns#DerivativeWorks" />
      </cc:License>
    </rdf:RDF>
  </metadata>
  <defs
     id="defs3">
    <linearGradient
       id="linearGradient5521">
      <stop
         id="stop5522"
         offset="0.00000000"
         style="stop-color:#373620;stop-opacity:0.78350514;" />
      <stop
         id="stop5523"
         offset="1.0000000"
         style="stop-color:#6c3620;stop-opacity:0.00000000;" />
    </linearGradient>
    <linearGradient
       id="linearGradient4886">
      <stop
         id="stop4887"
         offset="0.00000000"
         style="stop-color:#a67e0d;stop-opacity:0.88627452;" />
      <stop
         id="stop4888"
         offset="1.0000000"
         style="stop-color:#4b9636;stop-opacity:0.35051546;" />
    </linearGradient>
    <linearGradient
       id="linearGradient3606">
      <stop
         id="stop3607"
         offset="0.00000000"
         style="stop-color:#993c0d;stop-opacity:0.54639173;" />
      <stop
         id="stop3608"
         offset="1.0000000"
         style="stop-color:#91713c;stop-opacity:0.26804122;" />
    </linearGradient>
    <linearGradient
       id="linearGradient3602">
      <stop
         id="stop3603"
         offset="0.00000000"
         style="stop-color:#a67e0d;stop-opacity:0.56701028;" />
      <stop
         id="stop3604"
         offset="1.0000000"
         style="stop-color:#4b9636;stop-opacity:0.21649484;" />
    </linearGradient>
    <linearGradient
       id="linearGradient3592">
      <stop
         id="stop3593"
         offset="0.00000000"
         style="stop-color:#a67e0d;stop-opacity:0.88659793;" />
      <stop
         id="stop3594"
         offset="1.0000000"
         style="stop-color:#4b9636;stop-opacity:0.35051546;" />
    </linearGradient>
    <linearGradient
       id="linearGradient1536">
      <stop
         id="stop1537"
         offset="0.00000000"
         style="stop-color:#7e930d;stop-opacity:0.61855668;" />
      <stop
         id="stop1538"
         offset="1.0000000"
         style="stop-color:#4b9636;stop-opacity:0.32989690;" />
    </linearGradient>
    <linearGradient
       id="linearGradient1532">
      <stop
         id="stop1533"
         offset="0"
         style="stop-color:#000;stop-opacity:1;" />
      <stop
         id="stop1534"
         offset="1"
         style="stop-color:#fff;stop-opacity:1;" />
    </linearGradient>
    <linearGradient
       id="linearGradient2623">
      <stop
         id="stop2624"
         offset="0"
         style="stop-color:#000;stop-opacity:1;" />
      <stop
         id="stop2625"
         offset="1"
         style="stop-color:#fff;stop-opacity:1;" />
    </linearGradient>
    <linearGradient
       id="linearGradient6743">
      <stop
         id="stop6744"
         offset="0.00000000"
         style="stop-color:#000000;stop-opacity:0.35051546;" />
      <stop
         id="stop6745"
         offset="1.0000000"
         style="stop-color:#ffffff;stop-opacity:0.010309278;" />
    </linearGradient>
    <radialGradient
       cx="368.87253"
       cy="67.735809"
       fx="368.87253"
       fy="67.735809"
       id="radialGradient3590"
       inkscape:collect="always"
       r="173.74844"
       xlink:href="#linearGradient3592"
       gradientTransform="scale(1.1424869,0.87528359)"
       gradientUnits="userSpaceOnUse" />
    <linearGradient
       id="linearGradient4897"
       inkscape:collect="always"
       x1="476.08044"
       x2="215.71841"
       xlink:href="#linearGradient6743"
       y1="120.73062"
       y2="0.12174316"
       gradientTransform="scale(1.1424868,0.8752836)"
       gradientUnits="userSpaceOnUse" />
    <linearGradient
       id="linearGradient6149"
       inkscape:collect="always"
       x1="191.51221"
       x2="263.30365"
       xlink:href="#linearGradient5521"
       y1="137.63773"
       y2="85.967514"
       gradientTransform="scale(1.4453413,0.69187809)"
       gradientUnits="userSpaceOnUse" />
    <radialGradient
       cx="427.88702"
       cy="42.520786"
       fx="427.88702"
       fy="42.520786"
       id="radialGradient6779"
       inkscape:collect="always"
       r="162.69978"
       xlink:href="#linearGradient3606"
       gradientTransform="scale(1.0917359,0.91597246)"
       gradientUnits="userSpaceOnUse" />
    <radialGradient
       inkscape:collect="always"
       xlink:href="#linearGradient3606"
       id="radialGradient902"
       cx="253.76488"
       cy="26.301306"
       fx="253.76488"
       fy="26.301306"
       r="24.058947"
       gradientTransform="scale(0.31042395,3.2214009)"
       gradientUnits="userSpaceOnUse" />
    <radialGradient
       inkscape:collect="always"
       xlink:href="#linearGradient3606"
       id="radialGradient904"
       cx="93.081703"
       cy="85.561729"
       fx="93.081703"
       fy="85.561729"
       r="43.414352"
       gradientTransform="scale(1.1580164,0.86354561)"
       gradientUnits="userSpaceOnUse" />
    <radialGradient
       inkscape:collect="always"
       xlink:href="#linearGradient3606"
       id="radialGradient906"
       cx="42.078205"
       cy="147.22231"
       fx="42.078205"
       fy="147.22231"
       r="19.713684"
       gradientTransform="scale(2.5691412,0.38923512)"
       gradientUnits="userSpaceOnUse" />
    <radialGradient
       inkscape:collect="always"
       xlink:href="#linearGradient3606"
       id="radialGradient908"
       cx="17.187889"
       cy="175.17583"
       fx="17.187889"
       fy="175.17583"
       r="17.125454"
       gradientTransform="scale(2.8587196,0.34980695)"
       gradientUnits="userSpaceOnUse" />
    <radialGradient
       inkscape:collect="always"
       xlink:href="#linearGradient3606"
       id="radialGradient910"
       cx="62.222973"
       cy="67.77076"
       fx="62.222973"
       fy="67.77076"
       r="45.740662"
       gradientTransform="scale(0.87101196,1.1480899)"
       gradientUnits="userSpaceOnUse" />
  </defs>
  <sodipodi:namedview
     bordercolor="#666666"
     borderopacity="1.0"
     id="base"
     inkscape:cx="-85.502979"
     inkscape:cy="-30.93465"
     inkscape:pageopacity="0.0"
     inkscape:pageshadow="2"
     inkscape:window-height="1025"
     inkscape:window-width="1920"
     inkscape:window-x="-8"
     inkscape:window-y="-8"
     inkscape:zoom="0.93901296"
     pagecolor="#ffffff"
     showgrid="false"
     inkscape:window-maximized="1"
     inkscape:current-layer="svg1"
     fit-margin-top="0"
     fit-margin-left="0"
     fit-margin-right="0"
     fit-margin-bottom="0"
     units="px" />
  <g
     id="g6787"
     transform="matrix(0.3353351,0,0,0.3353351,-69.170919,4.2552136)">
    <path
       d="M 69.422363,61.246391 C 60.230472,56.902415 60.900621,46.257096 57.455903,37.502217 54.760939,34.407102 50.475581,32.660149 47.842687,34.474455 43.756392,33.723058 36.893643,29.584941 34.598109,31.017927 c 2.253206,5.454964 -0.321623,9.972077 -6.55036,9.285449 -5.034304,0.168631 -10.926956,-0.228731 -6.82464,5.964553 -0.52609,3.319629 -10.163998,7.018019 -8.522849,8.920792 4.778794,2.715923 -2.9784295,4.853273 -1.911619,8.731144 -1.5060347,2.675854 -8.6789489,6.26314 -1.3906083,6.822515 6.1859733,0.425317 16.0417753,3.252712 18.3724503,7.35688 -4.758488,0.732568 -10.288656,-0.328605 -13.937223,3.518561 -3.522676,1.570216 -2.732527,2.631346 -2.131687,5.488655 -3.7326726,2.40467 -9.6975056,13.231234 -1.528282,13.034684 4.708071,2.25609 -4.3494691,8.90945 0.569431,12.56701 5.963903,1.9617 2.435615,9.21517 4.472482,12.36063 5.466318,-1.73413 5.865508,2.63593 5.257905,6.94913 5.737441,0.73119 4.544518,12.7875 8.728589,11.07935 3.407097,-2.9226 5.886821,-9.34421 10.131021,-6.98598 0.636331,-5.34447 1.843585,-10.67756 5.447804,-14.96895 3.834151,-3.64126 -3.428756,5.51007 2.315752,4.15822 2.029093,3.42223 -0.722868,11.33159 2.751834,12.59236 3.605884,0.45283 11.573084,-3.48857 9.3125,2.875 -0.171486,4.18788 -2.497135,10.50292 3.922995,7.44142 -1.409421,4.02779 1.338417,10.5577 6.506966,8.13161 2.176815,2.85763 1.891101,12.78483 6.320035,9.17697 4.56816,-3.11259 10.575505,-5.06606 12.244464,-10.35022 4.598009,1.46791 4.293673,-7.12858 8.255536,-9.21228 1.773983,-4.41447 5.130835,-3.77184 9.039635,-3.28046 0.14754,-4.52474 -1.66178,-11.44207 -0.28963,-14.46954 4.21747,0.2715 11.69495,6.0221 11.3125,-1.4375 1.38869,-3.61363 1.48774,-10.91275 3.68717,-12.2095 3.84935,4.25112 9.21765,2.92095 13.37564,2.22521 3.55254,0.17987 10.89822,5.07858 8.75123,-1.71059 -0.17726,-12.65929 3.18142,-26.18759 -2.81404,-38.055122 6.78378,-2.447354 0.13722,-13.949935 -5.08668,-12.473736 -5.75206,0.689848 4.90976,-6.782473 6.15483,-9.418788 4.72642,-3.389924 -4.80932,-1.542088 -5.99147,-5.474763 -1.63178,-3.766425 -5.04026,-3.450946 -7.93893,-4.194622 3.11827,-6.719464 -8.17786,-2.682343 -9.94543,-4.598901 2.80507,-4.183295 0.58281,-5.925249 -4.01543,-5.324448 -3.09544,-0.24485 -6.39118,0.05787 -6.07619,-2.262521 -5.23409,3.262299 -7.245914,0.265853 -7.318253,-4.891004 -4.720083,0.539185 -9.090054,3.953034 -12.060274,6.172652 -5.136714,-3.556458 -9.48686,6.577123 -6.454034,10.784396 1.966834,4.900023 2.147139,11.880728 -2.536641,14.95861 -3.617598,1.377882 -5.271515,1.707076 -8.782245,0.951588 z m 30.050742,34.771538 c 4.798105,-1.996709 12.604965,11.164821 4.983765,7.598421 -2.84525,-1.4341 -4.951514,-4.354439 -4.983765,-7.598421 z m -48.999996,6.000001 c 2.952069,1.09989 8.638593,1.75604 3,4.25 -2.180992,1.40113 -6.507283,6.03326 -4.25,0.75 0.416667,-1.66667 0.833334,-3.33333 1.25,-5 z"
       id="path5"
       sodipodi:nodetypes="ccccccccccccccccccccccccccccccccccccccccccccccccccccc"
       style="fill:#587f4a;fill-opacity:1;stroke:none"
       transform="matrix(1.252639,-1.080705,1.492837,0.906816,228.8822,92.10369)"
       inkscape:connector-curvature="0" />
    <path
       d="m 407.27423,72.617803 c -17.99897,5.994535 -33.05124,-4.383043 -50.43583,-8.599383 -7.99632,0.105761 -15.97224,3.152804 -16.56185,7.643427 -6.24036,3.7347 -21.01444,7.398797 -21.75071,11.179046 10.96583,2.511598 14.48381,9.390419 5.65643,15.499201 -6.05443,5.593516 -14.02899,11.601396 0.3553,12.784176 4.29666,3.57884 -2.25507,17.34833 2.64123,17.3002 10.04053,-2.70162 3.51425,7.61983 10.63961,9.98344 2.10809,4.05409 -1.52175,15.0589 8.44297,7.6896 8.38372,-6.29953 24.95032,-14.38681 33.99667,-13.18386 -4.86706,5.80683 -13.37853,10.82102 -12.20567,18.25271 -2.06857,5.23087 0.5053,5.33921 5.52343,7.28093 -1.08591,6.21451 7.6046,22.47844 17.54428,13.47168 9.26548,-3.04218 7.85204,12.77973 19.47378,10.78058 10.39912,-4.66632 16.8077,5.72428 24.05482,6.37538 4.25855,-7.48001 11.28237,-3.94858 16.96017,0.61934 8.27849,-5.53743 24.78229,6.68463 27.47344,0.6139 -0.0951,-6.33232 -6.57533,-14.83539 2.26158,-17.28364 -7.18133,-5.53414 -13.63051,-11.67495 -15.52207,-19.46155 -0.633,-7.44554 3.93064,8.70209 9.10834,1.26809 7.65056,0.91048 16.01073,11.05688 22.2454,8.44504 5.19287,-3.48627 9.28903,-15.67059 15.95711,-7.45697 6.03701,3.98296 12.55113,12.22288 16.02292,2.50839 4.24734,5.17564 17.43748,8.12746 20.29005,0.34177 6.99274,0.23885 21.45453,9.54976 21.61644,1.49173 1.07567,-7.75938 5.68449,-16.02299 -0.1133,-22.6184 7.951,-3.63797 -5.26338,-11.10451 -3.41122,-17.27564 -4.36793,-5.92027 0.79634,-8.96529 6.4262,-12.74396 -6.56988,-4.26255 -19.16275,-8.579954 -21.96346,-12.808202 5.68827,-4.31164 23.63956,-7.177854 12.02452,-13.529023 -3.65503,-4.777662 -14.42735,-11.503664 -13.6081,-15.056512 11.16808,-0.305029 15.90689,-7.312797 20.07673,-12.437265 4.71856,-3.676139 21.23302,-7.172424 8.4085,-11.008689 -19.1203,-11.288081 -35.10864,-27.185502 -60.33508,-31.467847 4.84413,-9.5505636 -20.65309,-12.7983176 -24.99302,-5.8141826 -6.17543,6.8418456 -3.97497,-11.456457 -6.35094,-15.192663 0.8599,-8.1819034 -8.32643,3.799066 -15.67808,1.510409 -7.66669,-1.651981 -11.46532,2.317661 -16.2065,4.775891 -6.12499,-9.4632474 -14.2482,6.405463 -19.32344,6.577719 -2.73124,-6.824932 -8.11538,-6.002956 -12.97842,-0.488799 -4.24299,3.123223 -7.91945,6.959455 -10.98884,4.514878 -1.68635,8.6148126 -8.67964,8.0717756 -16.46861,3.4736316 -5.10764,5.589959 -5.48532,13.408342 -5.8924,18.631058 -11.74366,2.32622 -2.06504,16.216738 8.01477,16.75437 9.77867,2.317852 20.42558,8.453211 19.15327,16.306068 -2.47459,5.159042 -4.05492,7.244956 -9.58042,10.353931 z m 89.55097,-0.9446 c 3.02954,-6.995984 32.45673,-3.49781 17.58607,1.50439 -5.70495,1.774411 -12.70293,1.402451 -17.58607,-1.50439 z m -52.42228,58.395437 c 5.33983,-2.19292 13.44252,-7.74336 10.10247,0.61185 -0.64033,3.62758 0.8554,12.50351 -4.20408,5.27311 -1.96614,-1.96166 -3.93225,-3.9233 -5.89839,-5.88496 z"
       id="path2960"
       sodipodi:nodetypes="ccccccccccccccccccccccccccccccccccccccccccccccccccccc"
       style="fill:url(#radialGradient3590);fill-opacity:1;stroke:none"
       inkscape:connector-curvature="0" />
    <path
       d="m 407.27423,72.617802 c -17.99897,5.99454 -33.05124,-4.38304 -50.43583,-8.59938 -7.99632,0.10576 -15.97224,3.1528 -16.56185,7.64343 -6.24036,3.7347 -21.01444,7.39879 -21.75071,11.17905 10.96583,2.5116 14.48381,9.39042 5.65643,15.4992 -6.05443,5.593508 -14.02899,11.601388 0.3553,12.784168 4.29666,3.57884 -2.25507,17.34833 2.64123,17.3002 10.04053,-2.70162 3.51425,7.61983 10.63961,9.98344 2.10809,4.05409 -1.52175,15.0589 8.44297,7.6896 8.38372,-6.29953 24.95032,-14.38681 33.99667,-13.18386 -4.86706,5.80683 -13.37853,10.82102 -12.20567,18.25271 -2.06857,5.23087 0.5053,5.33921 5.52343,7.28093 -1.08591,6.21451 7.6046,22.47844 17.54428,13.47168 9.26548,-3.04218 7.85204,12.77973 19.47378,10.78058 10.39912,-4.66632 16.8077,5.72428 24.05482,6.37538 4.25855,-7.48001 11.28237,-3.94858 16.96017,0.61934 8.27849,-5.53743 24.78229,6.68463 27.47344,0.6139 -0.0951,-6.33232 -6.57533,-14.83539 2.26158,-17.28364 -7.18133,-5.53414 -13.63051,-11.67495 -15.52207,-19.46155 -0.633,-7.44554 3.93064,8.70209 9.10834,1.26809 7.65056,0.91048 16.01073,11.05688 22.2454,8.44504 5.19287,-3.48627 9.28903,-15.67059 15.95711,-7.45697 6.03701,3.98296 12.55113,12.22288 16.02292,2.50839 4.24734,5.17564 17.43748,8.12746 20.29005,0.34177 6.99274,0.23885 21.45453,9.54976 21.61644,1.49173 1.07567,-7.75938 5.68449,-16.02299 -0.1133,-22.6184 7.951,-3.63797 -5.26338,-11.10451 -3.41122,-17.27564 -4.36793,-5.92027 0.79634,-8.96529 6.4262,-12.74396 -6.56988,-4.26255 -19.16275,-8.579938 -21.96346,-12.808198 5.68827,-4.31164 23.63956,-7.17785 12.02452,-13.52902 -3.65503,-4.77767 -14.42735,-11.50367 -13.6081,-15.05652 11.16808,-0.30503 15.90689,-7.3128 20.07673,-12.43726 4.71856,-3.67614 21.23302,-7.17243 8.4085,-11.00869 -19.1203,-11.28808 -35.10864,-27.1855 -60.33508,-31.46785 4.84413,-9.5505598 -20.65309,-12.7983198 -24.99302,-5.8141798 -6.17543,6.8418398 -3.97497,-11.45646 -6.35094,-15.19267 0.8599,-8.1819002 -8.32643,3.79907 -15.67808,1.51041 -7.66669,-1.65198 -11.46532,2.31766 -16.2065,4.7759 -6.12499,-9.4632502 -14.2482,6.40546 -19.32344,6.57771 -2.73124,-6.82493 -8.11538,-6.00295 -12.97842,-0.48879 -4.24299,3.12322 -7.91945,6.95945 -10.98884,4.51487 -1.68635,8.6148198 -8.67964,8.0717798 -16.46861,3.4736298 -5.10764,5.58996 -5.48532,13.40835 -5.8924,18.63106 -11.74366,2.32622 -2.06504,16.21674 8.01477,16.75437 9.77867,2.31785 20.42558,8.45321 19.15327,16.30607 -2.47459,5.15904 -4.05492,7.24496 -9.58042,10.35393 z m 89.55097,-0.9446 c 3.02954,-6.99598 32.45673,-3.49781 17.58607,1.50439 -5.70495,1.77441 -12.70293,1.40245 -17.58607,-1.50439 z m -52.42228,58.395438 c 5.33983,-2.19292 13.44252,-7.74336 10.10247,0.61185 -0.64033,3.62758 0.8554,12.50351 -4.20408,5.27311 -1.96614,-1.96166 -3.93225,-3.9233 -5.89839,-5.88496 z"
       id="path4264"
       sodipodi:nodetypes="ccccccccccccccccccccccccccccccccccccccccccccccccccccc"
       style="fill:url(#linearGradient4897);fill-opacity:1;stroke:none"
       inkscape:connector-curvature="0" />
    <path
       d="m 349.08629,121.43046 140.34373,67.14985 v 0 l 28.48304,151.70892 -175.55912,-61.67838 11.91109,-15.41959 -24.34005,-10.94294 -60.07333,-32.82882 z"
       id="path4322"
       style="fill:#000000;fill-opacity:1;fill-rule:evenodd;stroke:none;stroke-width:1.00000003pt;stroke-linecap:butt;stroke-linejoin:miter;stroke-opacity:1"
       inkscape:connector-curvature="0" />
    <g
       id="g3595"
       style="fill:none;stroke:url(#radialGradient6779);stroke-width:1.25;stroke-miterlimit:4;stroke-opacity:1;marker-end:none">
      <path
         d="M 74.371752,63.677965 C 80.41677,88.831674 85.732776,130.43197 78.88938,155.76695"
         id="path1321"
         sodipodi:nodetypes="cc"
         style="fill-opacity:0.75;fill-rule:evenodd;stroke:url(#radialGradient902);stroke-linecap:round;stroke-linejoin:round;marker-end:none"
         transform="matrix(1.252639,-1.080705,1.492837,0.906816,228.8822,92.10369)"
         inkscape:connector-curvature="0" />
      <path
         d="m 74.563191,64.026225 c 22.558372,8.63812 45.170479,24.076998 59.294279,43.898125"
         id="path1322"
         sodipodi:nodetypes="cc"
         style="fill-opacity:0.75;fill-rule:evenodd;stroke:url(#radialGradient904);stroke-linecap:round;stroke-linejoin:round;marker-end:none"
         transform="matrix(1.252639,-1.080705,1.492837,0.906816,228.8822,92.10369)"
         inkscape:connector-curvature="0" />
      <path
         d="M 74.626813,63.771745 C 93.63425,56.011699 114.21431,54.674957 134.36643,56.51901"
         id="path1323"
         sodipodi:nodetypes="cc"
         style="fill-opacity:0.75;fill-rule:evenodd;stroke:url(#radialGradient906);stroke-linecap:round;stroke-linejoin:round;marker-end:none"
         transform="matrix(1.252639,-1.080705,1.492837,0.906816,228.8822,92.10369)"
         inkscape:connector-curvature="0" />
      <path
         d="M 74.499569,63.708125 C 55.87896,58.561114 34.805032,58.911691 16.795804,66.189321"
         id="path1324"
         sodipodi:nodetypes="cc"
         style="fill-opacity:0.75;fill-rule:evenodd;stroke:url(#radialGradient908);stroke-linecap:round;stroke-linejoin:round;marker-end:none"
         transform="matrix(1.252639,-1.080705,1.492837,0.906816,228.8822,92.10369)"
         inkscape:connector-curvature="0" />
      <path
         d="m 74.720016,63.742161 c -18.41173,3.928648 -34.669721,27.460117 -40.24814,45.027259 -3.101117,7.84587 -3.898126,11.83618 -6.47887,16.96866"
         id="path1325"
         sodipodi:nodetypes="ccc"
         style="fill-opacity:0.75;fill-rule:evenodd;stroke:url(#radialGradient910);stroke-linecap:round;stroke-linejoin:round;marker-end:none"
         transform="matrix(1.252639,-1.080705,1.492837,0.906816,228.8822,92.10369)"
         inkscape:connector-curvature="0" />
    </g>
    <circle
       id="path4228"
       style="fill:#8b0065;fill-opacity:1;fill-rule:evenodd;stroke:#4b0136;stroke-width:2.5;stroke-linecap:round;stroke-linejoin:round;stroke-miterlimit:4;stroke-opacity:1"
       transform="matrix(1,0,0,0.864417,367.0684,244.0589)"
       cx="141.31409"
       cy="111.86508"
       r="31.137001" />
    <circle
       id="path4245"
       style="fill:#8b0065;fill-opacity:1;fill-rule:evenodd;stroke:#4b0136;stroke-width:2.5;stroke-linecap:round;stroke-linejoin:round;stroke-miterlimit:4;stroke-opacity:1"
       transform="matrix(0.950563,0,0,0.876707,375.4142,201.1851)"
       cx="141.31409"
       cy="111.86508"
       r="31.137001" />
    <circle
       id="path4248"
       style="fill:#8b0065;fill-opacity:1;fill-rule:evenodd;stroke:#4b0136;stroke-width:2.5;stroke-linecap:round;stroke-linejoin:round;stroke-miterlimit:4;stroke-opacity:1"
       transform="matrix(0.888767,0,0,0.778388,346.1172,256.7342)"
       cx="141.31409"
       cy="111.86508"
       r="31.137001" />
    <circle
       id="path4254"
       style="fill:#8b0065;fill-opacity:1;fill-rule:evenodd;stroke:#4b0136;stroke-width:2.5;stroke-linecap:round;stroke-linejoin:round;stroke-miterlimit:4;stroke-opacity:1"
       transform="matrix(0.913486,0,0,0.864417,373.5553,158.3453)"
       cx="141.31409"
       cy="111.86508"
       r="31.137001" />
    <circle
       id="path4251"
       style="fill:#8b0065;fill-opacity:1;fill-rule:evenodd;stroke:#4b0136;stroke-width:2.5;stroke-linecap:round;stroke-linejoin:round;stroke-miterlimit:4;stroke-opacity:1"
       transform="matrix(0.93817,0,0,0.802987,340.6925,214.1739)"
       cx="141.31409"
       cy="111.86508"
       r="31.137001" />
    <circle
       id="path4260"
       style="fill:#8b0065;fill-opacity:1;fill-rule:evenodd;stroke:#4b0136;stroke-width:2.5;stroke-linecap:round;stroke-linejoin:round;stroke-miterlimit:4;stroke-opacity:1"
       transform="matrix(0.987641,0,0,0.827547,282.4085,231.9436)"
       cx="141.31409"
       cy="111.86508"
       r="31.137001" />
    <circle
       id="path4263"
       style="fill:#8b0065;fill-opacity:1;fill-rule:evenodd;stroke:#4b0136;stroke-width:2.5;stroke-linecap:round;stroke-linejoin:round;stroke-miterlimit:4;stroke-opacity:1"
       transform="matrix(1,0,0,0.864417,286.5529,191.1924)"
       cx="141.31409"
       cy="111.86508"
       r="31.137001" />
    <circle
       id="path4257"
       style="fill:#8b0065;fill-opacity:1;fill-rule:evenodd;stroke:#4b0136;stroke-width:2.5;stroke-linecap:round;stroke-linejoin:round;stroke-miterlimit:4;stroke-opacity:1"
       transform="matrix(1,0,0,0.864417,332.4745,161.933)"
       cx="141.31409"
       cy="111.86508"
       r="31.137001" />
    <circle
       id="path4269"
       style="fill:#8b0065;fill-opacity:1;fill-rule:evenodd;stroke:#4b0136;stroke-width:2.5;stroke-linecap:round;stroke-linejoin:round;stroke-miterlimit:4;stroke-opacity:1"
       transform="matrix(1,0,0,0.864417,347.5167,113.3422)"
       cx="141.31409"
       cy="111.86508"
       r="31.137001" />
    <circle
       id="path4290"
       style="fill:#8b0065;fill-opacity:1;fill-rule:evenodd;stroke:#4b0136;stroke-width:2.5;stroke-linecap:round;stroke-linejoin:round;stroke-miterlimit:4;stroke-opacity:1"
       transform="matrix(0.950565,0,0,0.79068,237.375,213.0299)"
       cx="141.31409"
       cy="111.86508"
       r="31.137001" />
    <circle
       id="path4293"
       style="fill:#8b0065;fill-opacity:1;fill-rule:evenodd;stroke:#4b0136;stroke-width:2.5;stroke-linecap:round;stroke-linejoin:round;stroke-miterlimit:4;stroke-opacity:1"
       transform="matrix(1,0,0,0.864417,237.6314,175.2316)"
       cx="141.31409"
       cy="111.86508"
       r="31.137001" />
    <circle
       id="path4287"
       style="fill:#8b0065;fill-opacity:1;fill-rule:evenodd;stroke:#4b0136;stroke-width:2.5;stroke-linecap:round;stroke-linejoin:round;stroke-miterlimit:4;stroke-opacity:1"
       transform="matrix(0.975198,0,0,0.90139,189.7628,167.7767)"
       cx="141.31409"
       cy="111.86508"
       r="31.137001" />
    <circle
       id="path4296"
       style="fill:#8b0065;fill-opacity:1;fill-rule:evenodd;stroke:#4b0136;stroke-width:2.5;stroke-linecap:round;stroke-linejoin:round;stroke-miterlimit:4;stroke-opacity:1"
       transform="matrix(0.950479,0,0,0.852122,283.0185,149.1097)"
       cx="141.31409"
       cy="111.86508"
       r="31.137001" />
    <circle
       id="path2330"
       style="fill:#b33283;fill-opacity:1;fill-rule:evenodd;stroke:none;stroke-width:2.5;stroke-linecap:round;stroke-linejoin:round;stroke-miterlimit:4;stroke-opacity:1"
       transform="matrix(0.220662,-0.146375,0.263461,0.268034,359.6312,225.5531)"
       cx="141.31409"
       cy="111.86508"
       r="31.137001" />
    <circle
       id="path4299"
       style="fill:#8b0065;fill-opacity:1;fill-rule:evenodd;stroke:#4b0136;stroke-width:2.5;stroke-linecap:round;stroke-linejoin:round;stroke-miterlimit:4;stroke-opacity:1"
       transform="matrix(0.938204,0,0,0.839837,320.0736,119.5593)"
       cx="141.31409"
       cy="111.86508"
       r="31.137001" />
    <circle
       id="path4266"
       style="fill:#8b0065;fill-opacity:1;fill-rule:evenodd;stroke:#4b0136;stroke-width:2.5;stroke-linecap:round;stroke-linejoin:round;stroke-miterlimit:4;stroke-opacity:1"
       transform="matrix(0.962922,0,0,0.802967,344.3485,74.4214)"
       cx="141.31409"
       cy="111.86508"
       r="31.137001" />
    <circle
       id="path2325"
       style="fill:#b33283;fill-opacity:1;fill-rule:evenodd;stroke:none;stroke-width:2.5;stroke-linecap:round;stroke-linejoin:round;stroke-miterlimit:4;stroke-opacity:1"
       transform="matrix(0.241608,-0.108363,0.216138,0.307471,408.0637,188.4724)"
       cx="141.31409"
       cy="111.86508"
       r="31.137001" />
    <circle
       id="path4302"
       style="fill:#8b0065;fill-opacity:1;fill-rule:evenodd;stroke:#4b0136;stroke-width:2.5;stroke-linecap:round;stroke-linejoin:round;stroke-miterlimit:4;stroke-opacity:1"
       transform="matrix(0.925791,0,0,0.864497,315.5024,74.08752)"
       cx="141.31409"
       cy="111.86508"
       r="31.137001" />
    <circle
       id="path4305"
       style="fill:#8b0065;fill-opacity:1;fill-rule:evenodd;stroke:#4b0136;stroke-width:2.5;stroke-linecap:round;stroke-linejoin:round;stroke-miterlimit:4;stroke-opacity:1"
       transform="matrix(1,0,0,0.864417,256.592,102.5425)"
       cx="141.31409"
       cy="111.86508"
       r="31.137001" />
    <circle
       id="path4308"
       style="fill:#8b0065;fill-opacity:1;fill-rule:evenodd;stroke:#4b0136;stroke-width:2.5;stroke-linecap:round;stroke-linejoin:round;stroke-miterlimit:4;stroke-opacity:1"
       transform="matrix(0.889039,0,0,0.900865,238.8389,126.0994)"
       cx="141.31409"
       cy="111.86508"
       r="31.137001" />
    <circle
       id="path4284"
       style="fill:#8b0065;fill-opacity:1;fill-rule:evenodd;stroke:#4b0136;stroke-width:2.5;stroke-linecap:round;stroke-linejoin:round;stroke-miterlimit:4;stroke-opacity:1"
       transform="matrix(0.913486,0,0,0.815258,153.1549,148.6888)"
       cx="141.31409"
       cy="111.86508"
       r="31.137001" />
    <circle
       id="path4317"
       style="fill:#8b0065;fill-opacity:1;fill-rule:evenodd;stroke:#4b0136;stroke-width:2.5;stroke-linecap:round;stroke-linejoin:round;stroke-miterlimit:4;stroke-opacity:1"
       transform="matrix(0.962922,0,0,0.839837,184.0899,124.8574)"
       cx="141.31409"
       cy="111.86508"
       r="31.137001" />
    <circle
       id="path4311"
       style="fill:#8b0065;fill-opacity:1;fill-rule:evenodd;stroke:#4b0136;stroke-width:2.5;stroke-linecap:round;stroke-linejoin:round;stroke-miterlimit:4;stroke-opacity:1"
       transform="matrix(1,0,0,0.864417,141.9897,94.58214)"
       cx="141.31409"
       cy="111.86508"
       r="31.137001" />
    <circle
       id="path4314"
       style="fill:#8b0065;fill-opacity:1;fill-rule:evenodd;stroke:#4b0136;stroke-width:2.5;stroke-linecap:round;stroke-linejoin:round;stroke-miterlimit:4;stroke-opacity:1"
       transform="matrix(1.036969,0,0,0.901336,198.426,75.33489)"
       cx="141.31409"
       cy="111.86508"
       r="31.137001" />
    <circle
       id="path2324"
       style="fill:#b33283;fill-opacity:1;fill-rule:evenodd;stroke:none;stroke-width:2.5;stroke-linecap:round;stroke-linejoin:round;stroke-miterlimit:4;stroke-opacity:1"
       transform="matrix(0.259886,-0.05075679,0.140791,0.348471,408.6592,135.0468)"
       cx="141.31409"
       cy="111.86508"
       r="31.137001" />
    <circle
       id="path4272"
       style="fill:#8b0065;fill-opacity:1;fill-rule:evenodd;stroke:#4b0136;stroke-width:2.5;stroke-linecap:round;stroke-linejoin:round;stroke-miterlimit:4;stroke-opacity:1"
       transform="matrix(1,0,0,0.864417,307.04,31.3916)"
       cx="141.31409"
       cy="111.86508"
       r="31.137001" />
    <circle
       id="path4275"
       style="fill:#8b0065;fill-opacity:1;fill-rule:evenodd;stroke:#4b0136;stroke-width:2.5;stroke-linecap:round;stroke-linejoin:round;stroke-miterlimit:4;stroke-opacity:1"
       transform="matrix(1,0,0,0.864417,255.2859,55.49168)"
       cx="141.31409"
       cy="111.86508"
       r="31.137001" />
    <circle
       id="path2321"
       style="fill:#b33283;fill-opacity:1;fill-rule:evenodd;stroke:none;stroke-width:2.5;stroke-linecap:round;stroke-linejoin:round;stroke-miterlimit:4;stroke-opacity:1"
       transform="matrix(0.189081,-0.185379,0.309301,0.213511,344.9967,147.494)"
       cx="141.31409"
       cy="111.86508"
       r="31.137001" />
    <circle
       id="path7375"
       style="fill:#8b0065;fill-opacity:1;fill-rule:evenodd;stroke:#4b0136;stroke-width:2.5;stroke-linecap:round;stroke-linejoin:round;stroke-miterlimit:4;stroke-opacity:1"
       transform="matrix(1,0,0,0.864417,269.222,11.05715)"
       cx="141.31409"
       cy="111.86508"
       r="31.137001" />
    <path
       d="m 301.69881,130.79049 v 1 h 44 v -1 c -3.453,-1.946 -7.94,-3.042 -10.566,-6.144 -4.337,-5.121 -5.31538,-16.78519 -7.57738,-23.25519 -2.736,-7.8272 -6.22162,-14.773008 -10.88562,-21.600808 -2,-2.9289 -11.58115,-13.193494 -10.48705,-16.98857 0.77379,-6.302203 10.19001,-11.119556 15.17901,-12.938556 24.594,-8.9667 44.60058,1.497717 65.93021,10.656895 3.25023,1.069711 32.50583,17.579331 35.96383,8.991731 1.371,-3.4056 -2.58244,-3.765657 -8.5657,-2.680441 -9.80117,2.291961 -24.79781,-7.698889 -33.10222,-11.272781 -24.90925,-11.665273 -59.94508,-22.904877 -80.88908,4.231723 -16.7345,-16.016 -43.1367,-31.3992 -67,-31.9853 -5.9497,-0.1462 -31.6404,0.7242 -26.8279,12.8804 3.2951,8.3235 22.3802,9.6143 29.8279,10.858 26.9924,4.5074 50.5493,7.0159 67.56,31.246899 6.122,8.7202 16.997,31.013998 10.261,41.720998 -2.239,3.559 -9.09,4.757 -12.821,6.279 z"
       id="path14"
       sodipodi:nodetypes="cccccccccccccccccccc"
       style="fill:#6c3620;fill-opacity:1;stroke:none"
       inkscape:connector-curvature="0" />
    <path
       d="m 301.69881,130.79049 v 1 h 44 v -1 c -3.453,-1.946 -7.94,-3.042 -10.566,-6.14399 -4.337,-5.12101 -5.31538,-16.7852 -7.57738,-23.2552 -2.736,-7.827197 -6.22162,-14.773005 -10.88562,-21.600805 -2,-2.9289 -11.58115,-13.193494 -10.48705,-16.98857 0.77379,-6.302203 10.19001,-11.119556 15.17901,-12.938556 24.594,-8.9667 44.60058,1.497717 65.93021,10.656895 3.25023,1.069711 32.50583,17.579331 35.96383,8.991731 1.371,-3.4056 -2.58244,-3.765657 -8.5657,-2.680441 -9.80117,2.291961 -24.79781,-7.698889 -33.10222,-11.272781 -24.90925,-11.665273 -59.94508,-22.904877 -80.88908,4.231723 -16.7345,-16.016 -43.1367,-31.3992 -67,-31.9853 -5.9497,-0.1462 -31.6404,0.7242 -26.8279,12.8804 3.2951,8.3235 22.3802,9.6143 29.8279,10.858 26.9924,4.5074 50.5493,7.0159 67.56,31.246899 6.122,8.7202 16.997,31.013995 10.261,41.721005 -2.239,3.55899 -9.09,4.75699 -12.821,6.27899 z"
       id="path5525"
       sodipodi:nodetypes="cccccccccccccccccccc"
       style="fill:url(#linearGradient6149);fill-opacity:1;stroke:none"
       inkscape:connector-curvature="0" />
    <circle
       id="path4281"
       style="fill:#8b0065;fill-opacity:1;fill-rule:evenodd;stroke:#4b0136;stroke-width:2.5;stroke-linecap:round;stroke-linejoin:round;stroke-miterlimit:4;stroke-opacity:1"
       transform="matrix(1,0,0,0.864417,165.7974,54.08864)"
       cx="141.31409"
       cy="111.86508"
       r="31.137001" />
    <circle
       id="path4278"
       style="fill:#8b0065;fill-opacity:1;fill-rule:evenodd;stroke:#4b0136;stroke-width:2.5;stroke-linecap:round;stroke-linejoin:round;stroke-miterlimit:4;stroke-opacity:1"
       transform="matrix(1,0,0,0.864417,215.2434,26.95044)"
       cx="141.31409"
       cy="111.86508"
       r="31.137001" />
    <circle
       id="path1077"
       style="fill:#b33283;fill-opacity:1;fill-rule:evenodd;stroke:none;stroke-width:2.5;stroke-linecap:round;stroke-linejoin:round;stroke-miterlimit:4;stroke-opacity:1"
       transform="matrix(0.189081,-0.185379,0.309301,0.213511,359.9075,96.91214)"
       cx="141.31409"
       cy="111.86508"
       r="31.137001" />
    <circle
       id="path2320"
       style="fill:#b33283;fill-opacity:1;fill-rule:evenodd;stroke:none;stroke-width:2.5;stroke-linecap:round;stroke-linejoin:round;stroke-miterlimit:4;stroke-opacity:1"
       transform="matrix(0.223863,-0.14143,0.257434,0.273828,400.3285,106.0741)"
       cx="141.31409"
       cy="111.86508"
       r="31.137001" />
    <circle
       id="path2322"
       style="fill:#b33283;fill-opacity:1;fill-rule:evenodd;stroke:none;stroke-width:2.5;stroke-linecap:round;stroke-linejoin:round;stroke-miterlimit:4;stroke-opacity:1"
       transform="matrix(0.226516,-0.0845553,0.24015,0.260993,433.891,136.4185)"
       cx="141.31409"
       cy="111.86508"
       r="31.137001" />
    <circle
       id="path2323"
       style="fill:#b33283;fill-opacity:1;fill-rule:evenodd;stroke:none;stroke-width:2.5;stroke-linecap:round;stroke-linejoin:round;stroke-miterlimit:4;stroke-opacity:1"
       transform="matrix(0.189081,-0.185379,0.309301,0.213511,304.3713,112.4432)"
       cx="141.31409"
       cy="111.86508"
       r="31.137001" />
    <circle
       id="path2326"
       style="fill:#b33283;fill-opacity:1;fill-rule:evenodd;stroke:none;stroke-width:2.5;stroke-linecap:round;stroke-linejoin:round;stroke-miterlimit:4;stroke-opacity:1"
       transform="matrix(0.244902,-0.100699,0.206345,0.314127,444.7103,178.8668)"
       cx="141.31409"
       cy="111.86508"
       r="31.137001" />
    <circle
       id="path2327"
       style="fill:#b33283;fill-opacity:1;fill-rule:evenodd;stroke:none;stroke-width:2.5;stroke-linecap:round;stroke-linejoin:round;stroke-miterlimit:4;stroke-opacity:1"
       transform="matrix(0.220662,-0.146375,0.263461,0.268034,425.0509,239.2018)"
       cx="141.31409"
       cy="111.86508"
       r="31.137001" />
    <circle
       id="path2328"
       style="fill:#b33283;fill-opacity:1;fill-rule:evenodd;stroke:none;stroke-width:2.5;stroke-linecap:round;stroke-linejoin:round;stroke-miterlimit:4;stroke-opacity:1"
       transform="matrix(0.246513,-0.0966879,0.201191,0.317453,458.0142,223.8282)"
       cx="141.31409"
       cy="111.86508"
       r="31.137001" />
    <circle
       id="path2329"
       style="fill:#b33283;fill-opacity:1;fill-rule:evenodd;stroke:none;stroke-width:2.5;stroke-linecap:round;stroke-linejoin:round;stroke-miterlimit:4;stroke-opacity:1"
       transform="matrix(0.220662,-0.146375,0.263461,0.268034,348.8064,181.3125)"
       cx="141.31409"
       cy="111.86508"
       r="31.137001" />
    <circle
       id="path2331"
       style="fill:#b33283;fill-opacity:1;fill-rule:evenodd;stroke:none;stroke-width:2.5;stroke-linecap:round;stroke-linejoin:round;stroke-miterlimit:4;stroke-opacity:1"
       transform="matrix(0.241711,-0.108134,0.215847,0.307675,464.113,271.7214)"
       cx="141.31409"
       cy="111.86508"
       r="31.137001" />
    <circle
       id="path2332"
       style="fill:#b33283;fill-opacity:1;fill-rule:evenodd;stroke:none;stroke-width:2.5;stroke-linecap:round;stroke-linejoin:round;stroke-miterlimit:4;stroke-opacity:1"
       transform="matrix(0.189081,-0.185379,0.309301,0.213511,290.7226,165.1554)"
       cx="141.31409"
       cy="111.86508"
       r="31.137001" />
    <circle
       id="path2333"
       style="fill:#b33283;fill-opacity:1;fill-rule:evenodd;stroke:none;stroke-width:2.5;stroke-linecap:round;stroke-linejoin:round;stroke-miterlimit:4;stroke-opacity:1"
       transform="matrix(0.220662,-0.146375,0.263461,0.268034,425.0265,288.1489)"
       cx="141.31409"
       cy="111.86508"
       r="31.137001" />
    <circle
       id="path2334"
       style="fill:#b33283;fill-opacity:1;fill-rule:evenodd;stroke:none;stroke-width:2.5;stroke-linecap:round;stroke-linejoin:round;stroke-miterlimit:4;stroke-opacity:1"
       transform="matrix(0.249534,-0.08860086,0.190736,0.323842,468.1454,313.7708)"
       cx="141.31409"
       cy="111.86508"
       r="31.137001" />
    <circle
       id="path2335"
       style="fill:#b33283;fill-opacity:1;fill-rule:evenodd;stroke:none;stroke-width:2.5;stroke-linecap:round;stroke-linejoin:round;stroke-miterlimit:4;stroke-opacity:1"
       transform="matrix(0.189081,-0.185379,0.309301,0.213511,250.0502,140.524)"
       cx="141.31409"
       cy="111.86508"
       r="31.137001" />
    <circle
       id="path2337"
       style="fill:#b33283;fill-opacity:1;fill-rule:evenodd;stroke:none;stroke-width:2.5;stroke-linecap:round;stroke-linejoin:round;stroke-miterlimit:4;stroke-opacity:1"
       transform="matrix(0.220662,-0.146375,0.263461,0.268034,377.6584,270.5409)"
       cx="141.31409"
       cy="111.86508"
       r="31.137001" />
    <circle
       id="path2338"
       style="fill:#b33283;fill-opacity:1;fill-rule:evenodd;stroke:none;stroke-width:2.5;stroke-linecap:round;stroke-linejoin:round;stroke-miterlimit:4;stroke-opacity:1"
       transform="matrix(0.220662,-0.146375,0.263461,0.268034,311.4971,204.4843)"
       cx="141.31409"
       cy="111.86508"
       r="31.137001" />
  </g>
</svg>
