<?xml version="1.0" encoding="UTF-8" standalone="no"?>
<svg
   xmlns:dc="http://purl.org/dc/elements/1.1/"
   xmlns:cc="http://creativecommons.org/ns#"
   xmlns:rdf="http://www.w3.org/1999/02/22-rdf-syntax-ns#"
   xmlns:svg="http://www.w3.org/2000/svg"
   xmlns="http://www.w3.org/2000/svg"
   xmlns:xlink="http://www.w3.org/1999/xlink"
   xmlns:sodipodi="http://sodipodi.sourceforge.net/DTD/sodipodi-0.dtd"
   xmlns:inkscape="http://www.inkscape.org/namespaces/inkscape"
   version="1.1"
   viewBox="0 0 256.00065 184.413"
   id="svg556"
   sodipodi:docname="vegetables.svg"
   inkscape:version="0.92.2 (5c3e80d, 2017-08-06)"
   width="256.00064"
   height="184.41299">
  <sodipodi:namedview
     pagecolor="#ffffff"
     bordercolor="#666666"
     borderopacity="1"
     objecttolerance="10"
     gridtolerance="10"
     guidetolerance="10"
     inkscape:pageopacity="0"
     inkscape:pageshadow="2"
     inkscape:window-width="1920"
     inkscape:window-height="1025"
     id="namedview558"
     showgrid="false"
     inkscape:zoom="1.2496421"
     inkscape:cx="80.462967"
     inkscape:cy="91.385254"
     inkscape:window-x="-8"
     inkscape:window-y="-8"
     inkscape:window-maximized="1"
     inkscape:current-layer="svg556"
     showguides="false"
     fit-margin-top="0"
     fit-margin-left="0"
     fit-margin-right="0"
     fit-margin-bottom="0" />
  <title
     id="title2">Basket</title>
  <defs
     id="defs56">
    <linearGradient
       id="b"
       x1="375.01999"
       x2="394.82999"
       y1="812.82001"
       y2="741.46997"
       gradientTransform="matrix(-0.6769,0.62278,-0.64593,-0.70206,1207.2,-108.62)"
       gradientUnits="userSpaceOnUse"
       xlink:href="#j" />
    <linearGradient
       id="j">
      <stop
         stop-color="#3a2d49"
         offset="0"
         id="stop5" />
      <stop
         stop-color="#3a2d49"
         stop-opacity="0"
         offset="1"
         id="stop7" />
    </linearGradient>
    <linearGradient
       id="c"
       x1="823.32001"
       x2="814.02002"
       y1="820.46997"
       y2="881.89001"
       gradientTransform="matrix(0.55552,-0.021564,0.012734,0.58027,44.125,-295.36)"
       gradientUnits="userSpaceOnUse"
       xlink:href="#i" />
    <linearGradient
       id="i">
      <stop
         stop-color="#97bf0f"
         offset="0"
         id="stop11" />
      <stop
         stop-color="#97bf0f"
         stop-opacity="0"
         offset="1"
         id="stop13" />
    </linearGradient>
    <radialGradient
       id="a"
       cx="827.69"
       cy="802.44"
       r="10.848"
       gradientTransform="matrix(0.54978,0.076109,-0.29966,2.1386,299.55,-1626.6)"
       gradientUnits="userSpaceOnUse"
       xlink:href="#h" />
    <linearGradient
       id="h">
      <stop
         stop-color="#358721"
         offset="0"
         id="stop17" />
      <stop
         stop-color="#358721"
         stop-opacity="0"
         offset="1"
         id="stop19" />
    </linearGradient>
    <filter
       id="k"
       style="color-interpolation-filters:sRGB">
      <feGaussianBlur
         in="SourceGraphic"
         result="result0"
         stdDeviation="6"
         id="feGaussianBlur22" />
      <feDiffuseLighting
         lighting-color="#ffffff"
         result="result5"
         surfaceScale="4"
         id="feDiffuseLighting26">
        <feDistantLight
           azimuth="235"
           elevation="45"
           id="feDistantLight24" />
      </feDiffuseLighting>
      <feComposite
         in="result5"
         in2="SourceGraphic"
         k1="1.4"
         operator="arithmetic"
         result="fbSourceGraphic"
         id="feComposite28"
         k2="0"
         k3="0"
         k4="0" />
      <feGaussianBlur
         in="fbSourceGraphic"
         result="result0"
         stdDeviation="6"
         id="feGaussianBlur30" />
      <feSpecularLighting
         lighting-color="#ffffff"
         in="result0"
         result="result1"
         specularExponent="25"
         surfaceScale="4"
         id="feSpecularLighting34">
        <feDistantLight
           azimuth="235"
           elevation="45"
           id="feDistantLight32" />
      </feSpecularLighting>
      <feComposite
         in="fbSourceGraphic"
         in2="result1"
         k2="1"
         k3="1"
         operator="arithmetic"
         result="result4"
         id="feComposite36"
         k1="0"
         k4="0" />
      <feComposite
         in="result4"
         in2="SourceGraphic"
         operator="in"
         result="result2"
         id="feComposite38" />
    </filter>
    <linearGradient
       id="e"
       x1="828.13"
       x2="631.53998"
       y1="403.42001"
       y2="518.48999"
       gradientTransform="translate(2.7397,-6.2192)"
       gradientUnits="userSpaceOnUse"
       xlink:href="#g" />
    <linearGradient
       id="g">
      <stop
         stop-color="#2f7022"
         offset="0"
         id="stop42" />
      <stop
         stop-color="#2f7022"
         stop-opacity="0"
         offset="1"
         id="stop44" />
    </linearGradient>
    <linearGradient
       id="d"
       x1="706.98999"
       x2="809.57001"
       y1="526.10999"
       y2="311.88"
       gradientTransform="translate(-114.94,39.935)"
       gradientUnits="userSpaceOnUse"
       xlink:href="#f" />
    <linearGradient
       id="f">
      <stop
         stop-color="#2fb022"
         offset="0"
         id="stop48" />
      <stop
         stop-color="#2f7022"
         stop-opacity="0"
         offset="1"
         id="stop50" />
    </linearGradient>
    <filter
       id="l"
       x="-0.052799001"
       y="-0.25966001"
       width="1.1056"
       height="1.5193">
      <feGaussianBlur
         stdDeviation="7.9787694"
         id="feGaussianBlur53" />
    </filter>
    <linearGradient
       inkscape:collect="always"
       xlink:href="#j"
       id="linearGradient1369"
       gradientUnits="userSpaceOnUse"
       gradientTransform="matrix(-0.6769,0.62278,-0.64593,-0.70206,1207.2,-108.62)"
       x1="375.01999"
       y1="812.82001"
       x2="394.82999"
       y2="741.46997" />
    <linearGradient
       inkscape:collect="always"
       xlink:href="#i"
       id="linearGradient1371"
       gradientUnits="userSpaceOnUse"
       gradientTransform="matrix(0.55552,-0.021564,0.012734,0.58027,44.125,-295.36)"
       x1="823.32001"
       y1="820.46997"
       x2="814.02002"
       y2="881.89001" />
    <radialGradient
       inkscape:collect="always"
       xlink:href="#h"
       id="radialGradient1373"
       gradientUnits="userSpaceOnUse"
       gradientTransform="matrix(0.54978,0.076109,-0.29966,2.1386,299.55,-1626.6)"
       cx="827.69"
       cy="802.44"
       r="10.848" />
    <radialGradient
       id="a-1"
       cx="827.69"
       cy="802.44"
       r="10.848"
       gradientTransform="matrix(0.54978,0.076109,-0.29966,2.1386,299.55,-1626.6)"
       gradientUnits="userSpaceOnUse"
       xlink:href="#h" />
    <linearGradient
       inkscape:collect="always"
       xlink:href="#g"
       id="linearGradient3793"
       gradientUnits="userSpaceOnUse"
       gradientTransform="translate(2.7397,-6.2192)"
       x1="828.13"
       y1="403.42001"
       x2="631.53998"
       y2="518.48999" />
    <linearGradient
       inkscape:collect="always"
       xlink:href="#f"
       id="linearGradient3795"
       gradientUnits="userSpaceOnUse"
       gradientTransform="translate(-114.94,39.935)"
       x1="706.98999"
       y1="526.10999"
       x2="809.57001"
       y2="311.88" />
    <linearGradient
       inkscape:collect="always"
       xlink:href="#j"
       id="linearGradient3797"
       gradientUnits="userSpaceOnUse"
       gradientTransform="matrix(-0.6769,0.62278,-0.64593,-0.70206,1207.2,-108.62)"
       x1="375.01999"
       y1="812.82001"
       x2="394.82999"
       y2="741.46997" />
    <linearGradient
       inkscape:collect="always"
       xlink:href="#i"
       id="linearGradient3799"
       gradientUnits="userSpaceOnUse"
       gradientTransform="matrix(0.55552,-0.021564,0.012734,0.58027,44.125,-295.36)"
       x1="823.32001"
       y1="820.46997"
       x2="814.02002"
       y2="881.89001" />
  </defs>
  <metadata
     id="metadata58">
    <rdf:RDF>
      <cc:Work
         rdf:about="">
        <dc:format>image/svg+xml</dc:format>
        <dc:type
           rdf:resource="http://purl.org/dc/dcmitype/StillImage" />
        <dc:title>Basket</dc:title>
        <dc:date>05/12/2013</dc:date>
        <dc:creator>
          <cc:Agent>
            <dc:title>edited by Paul Sherman</dc:title>
          </cc:Agent>
        </dc:creator>
        <dc:rights>
          <cc:Agent>
            <dc:title>PD</dc:title>
          </cc:Agent>
        </dc:rights>
        <dc:publisher>
          <cc:Agent>
            <dc:title>WPClipart</dc:title>
          </cc:Agent>
        </dc:publisher>
        <dc:subject>
          <rdf:Bag>
            <rdf:li>vegetable</rdf:li>
            <rdf:li>food</rdf:li>
            <rdf:li>lettuce</rdf:li>
            <rdf:li>eggplant</rdf:li>
            <rdf:li>tomato</rdf:li>
            <rdf:li>pepper</rdf:li>
            <rdf:li>onion</rdf:li>
          </rdf:Bag>
        </dc:subject>
        <cc:license
           rdf:resource="http://creativecommons.org/publicdomain/zero/1.0/" />
        <dc:source>https://www.wpclipart.com/food/vegetables/vegetable_basket.png.html</dc:source>
      </cc:Work>
      <cc:License
         rdf:about="http://creativecommons.org/publicdomain/zero/1.0/">
        <cc:permits
           rdf:resource="http://creativecommons.org/ns#Reproduction" />
        <cc:permits
           rdf:resource="http://creativecommons.org/ns#Distribution" />
        <cc:permits
           rdf:resource="http://creativecommons.org/ns#DerivativeWorks" />
      </cc:License>
    </rdf:RDF>
  </metadata>
  <g
     transform="matrix(0.46422609,0,0,0.46422609,3.5470481e-4,-24.319279)"
     style="display:inline"
     id="g3257">
    <g
       transform="matrix(0.93926,-0.019679,0.019679,0.93926,-377.052,-219.891)"
       id="g76">
      <g
         transform="translate(211.36,24.351)"
         id="g70">
        <g
           transform="matrix(-0.81058,0.58563,-0.58563,-0.81058,1309.5,375.13)"
           id="g68">
          <path
             d="m 891.22,346.99 c -30.335,-11.056 -18.122,38.445 -123.11,32.687 -11.334,-0.32919 -13.002,-1.3185 -16.47,0 -3.468,1.3185 -1.7023,3.1277 -6.1764,5.4901 -4.4741,2.3624 -16.775,3.0647 -24.706,6.1764 -7.931,3.1117 -18.952,12.243 -27.451,15.098 -8.499,2.855 -19.438,1.2934 -28.137,4.1176 -8.699,2.8242 -22.675,12.757 -28.823,15.098 -6.148,2.341 -7.3706,-0.10371 -10.98,2.7451 -3.6094,2.84881 -8.3393,12.494 -8.9214,17.157 -0.5821,4.663 3.3208,5.6107 2.7451,11.667 -0.5757,6.0563 -11.627,15.386 -11.667,26.078 -0.04,10.692 10.892,31.65 17.157,39.117 6.265,7.467 11.356,8.5064 18.529,12.353 7.173,3.8466 20.188,9.6469 29.509,12.353 9.321,2.7061 23.681,4.6456 32.254,5.4901 8.573,0.8445 24.706,0.68627 24.706,0.68627 0,0 28.187,-7.4561 35,-11.667 6.813,-4.2109 9.6809,-8.4537 11.667,-11.667 1.9861,-3.2133 0.13302,-6.4605 2.7451,-8.2352 2.61208,-1.7747 6.0299,3.2091 12.353,0.68627 6.3231,-2.52283 15.945,-16.403 22.647,-24.019 6.702,-7.616 16.75,-20.038 21.96,-26.764 19.007,-17.817 21.1,-42.578 23.901,-57.517 2.7343,-14.579 85.972,-28.367 31.265,-67.13 z"
             id="path64"
             inkscape:connector-curvature="0"
             style="fill:#1e3621;fill-rule:evenodd" />
          <path
             d="m 841.43,387.24 c 1.3247,-4.9384 -8.8642,1.6721 -19.891,1.8683 -11.026,0.19617 -43.188,-2.8096 -53.453,-3.1077 -10.265,-0.29814 -11.776,-1.1942 -14.917,0 -3.1409,1.1942 -1.5418,2.8328 -5.5939,4.9724 -4.0521,2.1396 -15.193,2.7757 -22.376,5.5939 -7.1826,2.8182 -17.165,11.088 -24.862,13.674 -7.6967,2.5855 -17.604,1.1714 -25.483,3.7293 -7.8788,2.5578 -20.537,11.554 -26.105,13.674 -5.5682,2.1197 -6.6755,-0.0939 -9.9447,2.4862 -3.2692,2.5801 -7.5529,11.316 -8.0801,15.539 -0.52722,4.2225 3.0076,5.0816 2.4862,10.566 -0.52143,5.4847 -10.531,13.935 -10.566,23.619 -0.0355,9.684 9.8644,28.665 15.539,35.428 5.6742,6.7632 10.285,7.7042 16.782,11.188 6.4963,3.4836 18.284,8.7371 26.726,11.188 8.4424,2.4507 21.448,4.2075 29.213,4.9724 7.765,0.7649 22.376,0.62155 22.376,0.62155 0,0 25.529,-6.7529 31.699,-10.566 6.1702,-3.8134 8.7679,-7.6564 10.566,-10.566 1.7984,-2.9098 0.12048,-5.8512 2.4862,-7.4585 2.3657,-1.6073 5.4612,2.9065 11.188,0.62154 5.7268,-2.28496 14.442,-14.856 20.511,-21.754 6.0693,-6.8983 15.17,-18.149 19.889,-24.24 4.719,-6.0916 9.2193,-12.95 11.809,-16.16 2.5901,-3.2104 2.3346,1.1884 4.9724,-5.5939 2.6377,-6.7823 11.006,-34.387 0.62275,-41.026 -10.38325,-6.639 -29.046,18.84 -37.068,17.825 -8.0222,-1.0145 -10.195,1.2297 -9.773,-8.2288 0.42231,-9.4585 39.766,-23.345 41.247,-28.864 z"
             id="path66"
             inkscape:connector-curvature="0"
             style="fill:url(#linearGradient3793);fill-rule:evenodd" />
        </g>
      </g>
      <path
         d="m 613.58,575.61 c 1.8182,4.7787 6.2059,-6.5465 15.029,-13.163 8.823,-6.6164 36.653,-23.015 45.148,-28.784 8.495,-5.7696 10.245,-5.9285 12.091,-8.7358 1.8466,-2.8073 -0.40919,-3.1991 1.6224,-7.3064 2.0316,-4.1073 10.69,-11.147 14.861,-17.638 4.1717,-6.4907 7.42,-19.04 12.145,-25.644 4.7247,-6.6031 13.584,-11.259 18.472,-17.947 4.8885,-6.6874 9.8802,-21.392 13.152,-26.372 3.2721,-4.9791 5.466,-3.8332 6.605,-7.8391 1.139,-4.0059 -0.50479,-13.596 -2.5503,-17.327 -2.0455,-3.7314 -5.4138,-2.3577 -8.2031,-7.1088 -2.7893,-4.7511 0.37551,-17.462 -5.2669,-25.333 -5.64241,-7.871 -24.783,-17.458 -33.343,-19.617 -8.5601,-2.1592 -12.849,-0.22148 -20.155,0.75917 -7.3059,0.98066 -19.937,3.6254 -28.216,6.5831 -8.2785,2.9576 -19.849,9.1498 -26.591,13.077 -6.7421,3.9274 -18.501,12.6 -18.501,12.6 0,0 -16.738,20.424 -19.507,27.128 -2.7682,6.7044 -2.6233,11.341 -2.3769,14.753 0.24634,3.4118 3.329,4.8135 2.3526,7.5017 -0.97632,2.6882 -6.1289,0.8423 -9.4326,6.048 -3.3037,5.2058 -3.0062,20.499 -3.8861,29.645 -0.87985,9.1459 -1.6686,23.595 -1.9263,31.296 -0.25771,7.7013 0.11075,15.896 -0.10863,20.015 -0.21938,4.1191 -2.5884,0.4039 -0.75456,7.4463 1.8338,7.0424 11.216,34.319 23.521,33.619 12.304,-0.69944 12.511,-32.281 19.608,-36.157 7.097,-3.876 7.544,-6.9674 12.741,0.94679 5.1968,7.9142 -18.562,42.211 -16.53,47.552 z"
         id="path72"
         inkscape:connector-curvature="0"
         style="fill:url(#linearGradient3795);fill-rule:evenodd" />
      <path
         d="m 624.57,550.52 c 0,0 32.6,-15.932 31.485,-18.552 -1.4575,-3.4229 -29.285,11.867 -29.285,11.867 l 6.6459,-8.464 c 0,0 24.107,-14.074 32.742,-20.263 8.635,-6.189 27.096,-18.123 24.933,-20.558 -1.8242,-2.0544 -25.563,17.951 -34.933,23.128 -9.3694,5.1761 -26.348,12.703 -26.348,12.703 l 9.4164,-12.74 c 0,0 78.327,-48.328 75.979,-50.652 -3.2206,-3.1869 -77.682,45.946 -77.682,45.946 l 7.3896,-21.415 24.708,-31.383 c 0,0 16.58,2.7613 26.492,0.32913 9.912,-2.43217 38.921,-14.352 36.588,-19.688 -0.62118,-1.4212 -28.82,14.404 -38.447,15.941 -9.6269,1.5368 -23.303,-1.785 -23.303,-1.785 l 12.976,-19.553 c 0,0 55.215,-50.305 53.815,-53.26 -1.6156,-3.4107 -55.809,48.311 -54.87,49.781 0.0577,0.0902 -2.2741,-15.739 -1.0368,-23.987 1.2372,-8.2478 11.355,-28.54 11.355,-28.54 0,0 16.001,-23.063 14.952,-24.136 -1.486,-1.5202 -14.143,13.779 -19.329,22.446 -5.186,8.667 -12.6,25.532 -13.549,35.195 -0.94915,9.6634 3.2182,16.045 2.6006,22.029 -0.61725,5.9821 -22.131,31.236 -22.131,31.236 l -5.3675,-14.216 c -2.2127,-5.8603 -2.4634,3.8156 1.2231,19.537 l -19.779,31.214 15.782,-58.692 2.8575,-8.3088 c 0,0 -0.52513,2.0238 0.95011,-1.539 1.4752,-3.5628 3.3108,-14.365 5.9111,-23.558 2.6003,-9.1932 11.429,-35.755 11.429,-35.755 0,0 13.473,-20.267 11.86,-20.661 -2.314,-0.56608 -12.114,15.341 -12.114,15.341 l -9.2522,27.002 -9.6992,-16.919 c 0,0 -0.9608,-15.992 -2.3795,-15.936 -2.1322,0.0844 0.0505,22.076 0.0505,22.076 l 8.9326,14.712 -4.3553,20.919 -9.6739,-3.9983 c 0,0 -5.3881,-24.85 -7.9433,-23.908 -3.1642,1.1669 5.1569,25.921 5.1569,25.921 l 9.9219,5.5155 c 0,0 -8.8362,27.589 -8.8749,27.577 -0.72833,-0.22954 -7.8803,-16.189 -11.351,-25.648 -3.4706,-9.4593 -6.9339,-37.094 -9.4812,-37.177 -2.1655,-0.0709 2.7946,33.522 6.2014,43.749 3.4068,10.227 13.303,21.724 13.325,24.26 0.006,0.69488 -5.1931,20.86 -7.1306,21.228 -2.6171,0.49673 -7.1852,-7.6642 -9.6237,-5.7309 -3.7134,2.9441 8.6846,13.195 8.6846,13.195 0,0 -2.9879,14.753 -3.582,16.12 -0.72175,1.6609 -5.1122,-8.925 -7.6928,-7.1259 -2.9474,2.0547 4.5971,11.059 4.5971,11.059 l -6.9257,18.536 -0.92433,-39.967 c 0,0 -0.14042,-25.667 -2.1616,-32.287 -2.0212,-6.6204 -4.5702,-17.41 -4.5702,-17.41 l -2.5774,-20.605 c 0,0 -2.7793,-6.8583 -4.9861,-5.7274 -2.2068,1.1309 2.045,8.7004 2.045,8.7004 0,0 2.9119,21.475 0.0415,21.135 -2.4757,-0.29335 -9.0863,-14.866 -12.772,-15.33 -3.6858,-0.46413 -4.6413,-1.1573 -1.9425,2.0346 3.0361,3.5908 14.096,17.135 14.096,17.135 0,0 5.1366,7.5968 7.5837,19.889 2.4471,12.292 1.7894,62.242 1.7894,62.242 l 0.88024,3.5663 -2.4559,4.7925 c 0,0 -6.7515,-26.598 -10.054,-34.693 -3.3025,-8.095 -6.4912,-19.553 -10.481,-19.53 -4.4159,0.0249 7.2927,21.178 9.3378,30.534 2.045,9.3561 4.2515,31.632 4.2515,31.632 l -31.673,68.523 c 0,0 -7.1729,22.34 -0.82894,28.104 6.34396,5.764 17.717,2.4036 23.849,-3.7374 6.132,-6.141 4.9858,-18.227 8.9459,-30.912 3.9602,-12.685 19.784,-52.502 19.784,-52.502 z"
         id="path74"
         inkscape:connector-curvature="0"
         style="fill:#fbeee6;fill-rule:evenodd" />
    </g>
    <g
       transform="matrix(1.0494,1.1052,1.1052,-1.0494,-383.352,504.73)"
       id="g108">
      <g
         transform="translate(-28.217,203.16)"
         id="g106">
        <g
           transform="matrix(0.38929,0.12586,0.13758,-0.42554,264.98,-94.759)"
           id="g104">
          <g
             transform="matrix(-0.9319,0.36271,-0.36271,-0.9319,931.87,36.433)"
             id="g78" />
          <g
             transform="matrix(2.1954,0,0,2.1954,-976.17,200.6)"
             id="g102">
            <path
               d="m 488.9,-320.14 c 0.93856,-1.4559 -2.3552,-12.083 -2.6663,-13.364 -0.31104,-1.282 -0.0454,-0.24006 -0.0903,-0.33168 -0.0449,-0.0916 0.28377,0.37617 -0.20269,-0.2687 -0.48646,-0.64487 -1.8299,-3.8621 -3.0404,-4.0304 -1.2105,-0.16833 -2.307,0.70623 -2.4704,1.8708 -0.1634,1.16457 2.0486,2.0427 2.8459,3.7919 0.79734,1.7492 0.28648,6.9872 1.6956,7.8943 1.4091,0.90707 2.99,5.8942 3.9285,4.4383 z"
               id="path80"
               inkscape:connector-curvature="0"
               style="fill:#829a6b;fill-rule:evenodd" />
            <path
               d="m 478.71,-318.17 c 1.5212,-1.7135 -1.2062,-15.175 -3.0761,-16.653 -1.8699,-1.4787 -1.5994,-1.5178 -3.0781,0.35211 -1.4787,1.8699 2.041,12.885 3.0786,11.307 1.0376,-1.5785 1.5543,6.7078 3.0756,4.9943 z"
               id="path82"
               inkscape:connector-curvature="0"
               style="fill:#829a6b;fill-rule:evenodd" />
            <path
               d="m 478.57,-297.41 0.41795,-12.746 c 0,0 -4.3848,3.1788 -5.3613,4.6994 -0.9765,1.5206 0.36648,7.7401 1.887,8.7167 1.52052,0.9766 3.0563,-0.67005 3.0563,-0.67005 z"
               id="path84"
               inkscape:connector-curvature="0"
               style="fill:#829a6b;fill-rule:evenodd" />
            <path
               d="m 479.26,-300.47 c 0.3482,-2.4652 -4.7167,-5.8695 -4.9695,-8.1716 -0.25276,-2.3021 0.206,-4.2539 1.8909,-5.5629 1.6849,-1.309 6.335,0.63028 8.3235,-0.64898 1.9885,-1.2792 2.981,-4.5211 3.5888,-6.4878 0.60777,-1.9666 -0.48378,-4.1098 0.59339,-6.2806 1.07717,-2.1708 6.7707,-4.3489 7.2467,-6.6673 0.47599,-2.3184 -1.6478,-0.54739 -2.4296,-5.4109 -0.7818,-4.86351 2.953,-16.311 2.7738,-26.765 -0.1792,-10.454 -3.2213,-31.979 -5.8676,-42.391 -2.6463,-10.411 -5.5097,-20.124 -10.16,-26.972 -4.6504,-6.8481 -12.61,-15.078 -19.505,-17.737 -6.8947,-2.6588 -16.632,-2.8608 -22.9,0.042 -6.2677,2.9028 -12.544,10.582 -15.004,17.628 -2.4602,7.0451 -0.5566,19.488 0.88413,26.586 1.4407,7.0976 4.8027,13.709 7.7857,20.236 2.983,6.5267 9.1182,14.328 12.313,23.079 3.1952,8.7508 5.0958,29.389 7.4962,35.157 2.4005,5.7683 2.5535,3.3662 3.1197,4.7759 0.5662,1.4098 -0.49711,2.2707 0.81453,4.3481 1.3116,2.0774 8.3246,4.588 9.6627,7.0396 1.3381,2.4515 1.3667,5.038 0.38667,6.6533 -0.98003,1.6153 -4.8358,0.19905 -5.4109,2.4296 -0.5751,2.23055 3.3937,5.9945 5.6596,7.5366 2.2659,1.5421 6.2155,2.9073 8.5306,2.3464 2.3152,-0.56089 4.828,-2.2972 5.1762,-4.7624 z"
               id="path86"
               inkscape:connector-curvature="0"
               style="fill:#552f53;fill-rule:evenodd;stroke:#000039;stroke-width:1.81669998" />
            <path
               d="m 479.12,-308.75 c 0.28374,-2.3072 -4.5124,-5.5878 -4.788,-7.7522 -0.27566,-2.1644 0.12025,-3.988 1.6742,-5.1876 1.554,-1.1995 5.937,0.69929 7.7755,-0.4672 1.8384,-1.1665 2.7116,-4.1915 3.2467,-6.0265 0.53507,-1.835 -0.52257,-3.8646 0.44813,-5.8832 0.9707,-2.0186 6.2598,-3.9654 6.6656,-6.1327 0.40579,-2.1673 -1.5508,-0.54169 -2.365,-5.1186 -0.8142,-4.57691 2.4847,-15.255 2.139,-25.067 -0.34568,-9.8122 -3.5582,-30.062 -6.211,-39.876 -2.6529,-9.8144 -5.497,-18.976 -9.964,-25.481 -4.467,-6.505 -12.053,-14.363 -18.549,-16.975 -6.4951,-2.6123 -15.608,-2.9676 -21.422,-0.35059 -5.8139,2.6171 -11.554,9.7161 -13.736,16.285 -2.1815,6.5687 -0.1888,18.277 1.2799,24.961 1.4687,6.6844 4.7264,12.945 7.6281,19.12 2.9017,6.175 8.7739,13.6 11.912,21.866 3.1381,8.2656 5.2675,27.663 7.6114,33.117 2.3439,5.454 2.4461,3.202 2.9998,4.5345 0.5537,1.3325 -0.42636,2.1222 0.83603,4.0938 1.26239,1.9716 7.8657,4.4468 9.1592,6.77 1.2935,2.3231 1.3644,4.7505 0.47503,6.2495 -0.88932,1.499 -4.5205,0.10441 -5.0204,2.1876 -0.49999,2.0832 3.2769,5.6826 5.4229,7.1681 2.146,1.4856 5.864,2.8338 8.0202,2.347 2.1563,-0.48686 4.4774,-2.0733 4.7612,-4.3805 z"
               id="path88"
               inkscape:connector-curvature="0"
               style="fill:url(#linearGradient3797);fill-rule:evenodd" />
            <path
               d="m 484.93,-412.05 c -8.6419,-34.13 -26.676,-36.257 -41.789,-39.51 20.937,21.414 32.499,24.666 45.394,101.21 2.4959,-36.636 1.2346,-41.245 -3.605,-61.697 z"
               id="path90"
               inkscape:connector-curvature="0"
               style="fill:#774666" />
            <path
               d="m 494.24,-333.36 c 0.47598,-2.3184 0.91343,-4.6761 -2.4296,-5.4109 -3.343,-0.73484 -8.6707,11.404 -12.74,11.085 -4.0696,-0.31896 -4.3765,-5.759 -6.6397,-7.9092 -2.2632,-2.1502 -5.7665,-6 -8.3651,-6.3218 -2.5986,-0.32177 -5.7088,0.84718 -6.4186,2.7195 -0.7098,1.87232 4.5003,4.2084 2.7471,5.756 -1.7532,1.5476 -5.8387,-5.3772 -7.7577,-4.9691 -1.919,0.40809 -1.9178,1.0132 -2.1257,3.2301 -0.20791,2.2168 3.1848,8.508 4.2242,10.132 1.0394,1.6237 1.0364,0.74253 1.27,1.3803 0.2336,0.63777 0.12943,0.61008 1.2148,2.7055 1.0854,2.0954 8.3433,4.3369 9.6627,7.0396 1.3194,2.7027 0.6452,5.4089 -0.62097,6.9432 -1.2662,1.5343 -5.2822,-0.78064 -6.0459,1.7394 -0.76372,2.52 4.79,7.4558 7.2747,8.5994 2.4847,1.1436 5.31,0.51807 6.9708,-0.0416 1.6608,-0.55966 3.3534,-0.51784 3.7683,-2.8298 0.41485,-2.312 -5.603,-6.5453 -5.922,-9.2068 -0.31893,-2.6615 0.17224,-5.1181 2.2636,-6.5429 2.09136,-1.4248 7.3283,2.4447 9.9386,0.41385 2.6103,-2.03085 0.85736,-8.9813 2.4843,-11.844 1.627,-2.8622 6.7707,-4.3489 7.2467,-6.6673 z"
               id="path92"
               inkscape:connector-curvature="0"
               style="fill:#93b279;fill-rule:evenodd" />
            <path
               d="m 483.14,-316.46 c 1.7134,-1.2307 0.0963,-6.6021 0.98775,-8.8496 0.89144,-2.2475 4.5574,-4.24 4.3317,-5.7689 -0.22571,-1.5289 2.0964,-2.2726 0.50603,-2.0358 -1.5904,0.23674 -6.8249,5.3657 -7.5626,6.3201 -0.7377,0.9544 -0.2099,0.20544 -0.25665,0.32106 -0.0468,0.11562 0.26549,-0.96373 -0.0395,0.41856 -0.30504,1.3823 -0.4133,7.1254 0.62177,8.9829 1.0351,1.8575 -0.30188,1.8425 1.4115,0.61179 z"
               id="path94"
               inkscape:connector-curvature="0"
               style="fill:#829a6b;fill-rule:evenodd" />
            <path
               d="m 475.15,-325.24 c 0.16362,-1.7245 -7.6493,-9.6448 -8.5152,-10.64 -0.86588,-0.99517 -0.15069,-0.19229 -0.23274,-0.25297 -0.0821,-0.0607 0.425,0.20348 -0.30358,-0.14533 -0.72858,-0.34882 -3.4014,-2.5874 -4.5536,-2.1801 -1.1522,0.4073 -1.7235,1.6883 -1.3329,2.7975 0.39062,1.1092 2.7586,0.87142 4.2712,2.0577 1.5126,1.1863 3.4686,6.0723 5.137,6.2295 1.6684,0.15721 5.3662,3.8581 5.5298,2.1336 z"
               id="path96"
               inkscape:connector-curvature="0"
               style="fill:#829a6b;fill-rule:evenodd" />
            <path
               d="m 467.01,-318.82 c 0.56253,-2.2212 -8.0514,-12.919 -10.392,-13.372 -2.3406,-0.453 -2.1183,-0.6119 -2.5711,1.7286 -0.45278,2.3405 7.7396,10.502 7.9348,8.6233 0.1952,-1.8787 4.4657,5.241 5.0283,3.0198 z"
               id="path98"
               inkscape:connector-curvature="0"
               style="fill:#829a6b;fill-rule:evenodd" />
            <path
               d="m 476.43,-300.31 -5.4921,-11.51 c 0,0 -2.431,4.8395 -2.5986,6.6389 -0.1676,1.7994 3.8859,6.704 5.6852,6.8716 1.7993,0.16762 2.4055,-2.0009 2.4055,-2.0009 z"
               id="path100"
               inkscape:connector-curvature="0"
               style="fill:#829a6b;fill-rule:evenodd" />
          </g>
        </g>
      </g>
    </g>
    <g
       transform="matrix(-0.93926,-0.019679,-0.019679,0.93926,725.268,-253.891)"
       id="g122">
      <g
         transform="translate(211.36,24.351)"
         id="g116">
        <g
           transform="matrix(-0.81058,0.58563,-0.58563,-0.81058,1309.5,375.13)"
           id="g114">
          <path
             d="m 891.22,346.99 c -30.335,-11.056 -18.122,38.445 -123.11,32.687 -11.334,-0.32919 -13.002,-1.3185 -16.47,0 -3.468,1.3185 -1.7023,3.1277 -6.1764,5.4901 -4.4741,2.3624 -16.775,3.0647 -24.706,6.1764 -7.931,3.1117 -18.952,12.243 -27.451,15.098 -8.499,2.855 -19.438,1.2934 -28.137,4.1176 -8.699,2.8242 -22.675,12.757 -28.823,15.098 -6.148,2.341 -7.3706,-0.10371 -10.98,2.7451 -3.6094,2.84881 -8.3393,12.494 -8.9214,17.157 -0.5821,4.663 3.3208,5.6107 2.7451,11.667 -0.5757,6.0563 -11.627,15.386 -11.667,26.078 -0.04,10.692 10.892,31.65 17.157,39.117 6.265,7.467 11.356,8.5064 18.529,12.353 7.173,3.8466 20.188,9.6469 29.509,12.353 9.321,2.7061 23.681,4.6456 32.254,5.4901 8.573,0.8445 24.706,0.68627 24.706,0.68627 0,0 28.187,-7.4561 35,-11.667 6.813,-4.2109 9.6809,-8.4537 11.667,-11.667 1.9861,-3.2133 0.13302,-6.4605 2.7451,-8.2352 2.61208,-1.7747 6.0299,3.2091 12.353,0.68627 6.3231,-2.52283 15.945,-16.403 22.647,-24.019 6.702,-7.616 16.75,-20.038 21.96,-26.764 19.007,-17.817 21.1,-42.578 23.901,-57.517 2.7343,-14.579 85.972,-28.367 31.265,-67.13 z"
             id="path110"
             inkscape:connector-curvature="0"
             style="fill:#1e3621;fill-rule:evenodd" />
          <path
             d="m 841.43,387.24 c 1.3247,-4.9384 -8.8642,1.6721 -19.891,1.8683 -11.026,0.19617 -43.188,-2.8096 -53.453,-3.1077 -10.265,-0.29814 -11.776,-1.1942 -14.917,0 -3.1409,1.1942 -1.5418,2.8328 -5.5939,4.9724 -4.0521,2.1396 -15.193,2.7757 -22.376,5.5939 -7.1826,2.8182 -17.165,11.088 -24.862,13.674 -7.6967,2.5855 -17.604,1.1714 -25.483,3.7293 -7.8788,2.5578 -20.537,11.554 -26.105,13.674 -5.5682,2.1197 -6.6755,-0.0939 -9.9447,2.4862 -3.2692,2.5801 -7.5529,11.316 -8.0801,15.539 -0.52722,4.2225 3.0076,5.0816 2.4862,10.566 -0.52143,5.4847 -10.531,13.935 -10.566,23.619 -0.0355,9.684 9.8644,28.665 15.539,35.428 5.6742,6.7632 10.285,7.7042 16.782,11.188 6.4963,3.4836 18.284,8.7371 26.726,11.188 8.4424,2.4507 21.448,4.2075 29.213,4.9724 7.765,0.7649 22.376,0.62155 22.376,0.62155 0,0 25.529,-6.7529 31.699,-10.566 6.1702,-3.8134 8.7679,-7.6564 10.566,-10.566 1.7984,-2.9098 0.12048,-5.8512 2.4862,-7.4585 2.3657,-1.6073 5.4612,2.9065 11.188,0.62154 5.7268,-2.28496 14.442,-14.856 20.511,-21.754 6.0693,-6.8983 15.17,-18.149 19.889,-24.24 4.719,-6.0916 9.2193,-12.95 11.809,-16.16 2.5901,-3.2104 2.3346,1.1884 4.9724,-5.5939 2.6377,-6.7823 11.006,-34.387 0.62275,-41.026 -10.38325,-6.639 -29.046,18.84 -37.068,17.825 -8.0222,-1.0145 -10.195,1.2297 -9.773,-8.2288 0.42231,-9.4585 39.766,-23.345 41.247,-28.864 z"
             id="path112"
             inkscape:connector-curvature="0"
             style="fill:url(#e);fill-rule:evenodd" />
        </g>
      </g>
      <path
         d="m 613.58,575.61 c 1.8182,4.7787 6.2059,-6.5465 15.029,-13.163 8.823,-6.6164 36.653,-23.015 45.148,-28.784 8.495,-5.7696 10.245,-5.9285 12.091,-8.7358 1.8466,-2.8073 -0.40919,-3.1991 1.6224,-7.3064 2.0316,-4.1073 10.69,-11.147 14.861,-17.638 4.1717,-6.4907 7.42,-19.04 12.145,-25.644 4.7247,-6.6031 13.584,-11.259 18.472,-17.947 4.8885,-6.6874 9.8802,-21.392 13.152,-26.372 3.2721,-4.9791 5.466,-3.8332 6.605,-7.8391 1.139,-4.0059 -0.50479,-13.596 -2.5503,-17.327 -2.0455,-3.7314 -5.4138,-2.3577 -8.2031,-7.1088 -2.7893,-4.7511 0.37551,-17.462 -5.2669,-25.333 -5.64241,-7.871 -24.783,-17.458 -33.343,-19.617 -8.5601,-2.1592 -12.849,-0.22148 -20.155,0.75917 -7.3059,0.98066 -19.937,3.6254 -28.216,6.5831 -8.2785,2.9576 -19.849,9.1498 -26.591,13.077 -6.7421,3.9274 -18.501,12.6 -18.501,12.6 0,0 -16.738,20.424 -19.507,27.128 -2.7682,6.7044 -2.6233,11.341 -2.3769,14.753 0.24634,3.4118 3.329,4.8135 2.3526,7.5017 -0.97632,2.6882 -6.1289,0.8423 -9.4326,6.048 -3.3037,5.2058 -3.0062,20.499 -3.8861,29.645 -0.87985,9.1459 -1.6686,23.595 -1.9263,31.296 -0.25771,7.7013 0.11075,15.896 -0.10863,20.015 -0.21938,4.1191 -2.5884,0.4039 -0.75456,7.4463 1.8338,7.0424 11.216,34.319 23.521,33.619 12.304,-0.69944 12.511,-32.281 19.608,-36.157 7.097,-3.876 7.544,-6.9674 12.741,0.94679 5.1968,7.9142 -18.562,42.211 -16.53,47.552 z"
         id="path118"
         inkscape:connector-curvature="0"
         style="fill:url(#d);fill-rule:evenodd" />
      <path
         d="m 624.57,550.52 c 0,0 32.6,-15.932 31.485,-18.552 -1.4575,-3.4229 -29.285,11.867 -29.285,11.867 l 6.6459,-8.464 c 0,0 24.107,-14.074 32.742,-20.263 8.635,-6.189 27.096,-18.123 24.933,-20.558 -1.8242,-2.0544 -25.563,17.951 -34.933,23.128 -9.3694,5.1761 -26.348,12.703 -26.348,12.703 l 9.4164,-12.74 c 0,0 78.327,-48.328 75.979,-50.652 -3.2206,-3.1869 -77.682,45.946 -77.682,45.946 l 7.3896,-21.415 24.708,-31.383 c 0,0 16.58,2.7613 26.492,0.32913 9.912,-2.43217 38.921,-14.352 36.588,-19.688 -0.62118,-1.4212 -28.82,14.404 -38.447,15.941 -9.6269,1.5368 -23.303,-1.785 -23.303,-1.785 l 12.976,-19.553 c 0,0 55.215,-50.305 53.815,-53.26 -1.6156,-3.4107 -55.809,48.311 -54.87,49.781 0.0577,0.0902 -2.2741,-15.739 -1.0368,-23.987 1.2372,-8.2478 11.355,-28.54 11.355,-28.54 0,0 16.001,-23.063 14.952,-24.136 -1.486,-1.5202 -14.143,13.779 -19.329,22.446 -5.186,8.667 -12.6,25.532 -13.549,35.195 -0.94915,9.6634 3.2182,16.045 2.6006,22.029 -0.61725,5.9821 -22.131,31.236 -22.131,31.236 l -5.3675,-14.216 c -2.2127,-5.8603 -2.4634,3.8156 1.2231,19.537 l -19.779,31.214 15.782,-58.692 2.8575,-8.3088 c 0,0 -0.52513,2.0238 0.95011,-1.539 1.4752,-3.5628 3.3108,-14.365 5.9111,-23.558 2.6003,-9.1932 11.429,-35.755 11.429,-35.755 0,0 13.473,-20.267 11.86,-20.661 -2.314,-0.56608 -12.114,15.341 -12.114,15.341 l -9.2522,27.002 -9.6992,-16.919 c 0,0 -0.9608,-15.992 -2.3795,-15.936 -2.1322,0.0844 0.0505,22.076 0.0505,22.076 l 8.9326,14.712 -4.3553,20.919 -9.6739,-3.9983 c 0,0 -5.3881,-24.85 -7.9433,-23.908 -3.1642,1.1669 5.1569,25.921 5.1569,25.921 l 9.9219,5.5155 c 0,0 -8.8362,27.589 -8.8749,27.577 -0.72833,-0.22954 -7.8803,-16.189 -11.351,-25.648 -3.4706,-9.4593 -6.9339,-37.094 -9.4812,-37.177 -2.1655,-0.0709 2.7946,33.522 6.2014,43.749 3.4068,10.227 13.303,21.724 13.325,24.26 0.006,0.69488 -5.1931,20.86 -7.1306,21.228 -2.6171,0.49673 -7.1852,-7.6642 -9.6237,-5.7309 -3.7134,2.9441 8.6846,13.195 8.6846,13.195 0,0 -2.9879,14.753 -3.582,16.12 -0.72175,1.6609 -5.1122,-8.925 -7.6928,-7.1259 -2.9474,2.0547 4.5971,11.059 4.5971,11.059 l -6.9257,18.536 -0.92433,-39.967 c 0,0 -0.14042,-25.667 -2.1616,-32.287 -2.0212,-6.6204 -4.5702,-17.41 -4.5702,-17.41 l -2.5774,-20.605 c 0,0 -2.7793,-6.8583 -4.9861,-5.7274 -2.2068,1.1309 2.045,8.7004 2.045,8.7004 0,0 2.9119,21.475 0.0415,21.135 -2.4757,-0.29335 -9.0863,-14.866 -12.772,-15.33 -3.6858,-0.46413 -4.6413,-1.1573 -1.9425,2.0346 3.0361,3.5908 14.096,17.135 14.096,17.135 0,0 5.1366,7.5968 7.5837,19.889 2.4471,12.292 1.7894,62.242 1.7894,62.242 l 0.88024,3.5663 -2.4559,4.7925 c 0,0 -6.7515,-26.598 -10.054,-34.693 -3.3025,-8.095 -6.4912,-19.553 -10.481,-19.53 -4.4159,0.0249 7.2927,21.178 9.3378,30.534 2.045,9.3561 4.2515,31.632 4.2515,31.632 l -31.673,68.523 c 0,0 -7.1729,22.34 -0.82894,28.104 6.34396,5.764 17.717,2.4036 23.849,-3.7374 6.132,-6.141 4.9858,-18.227 8.9459,-30.912 3.9602,-12.685 19.784,-52.502 19.784,-52.502 z"
         id="path120"
         inkscape:connector-curvature="0"
         style="fill:#fbeee6;fill-rule:evenodd" />
    </g>
    <g
       transform="matrix(1.2166,0.1368,0.029881,1.2056,-216.982,-337.93)"
       id="g138">
      <path
         d="m 426.1,393.97 c -0.3586,2.0728 -0.22757,6.9741 -0.29365,8.2225 1.9896,2.1295 6.9931,-0.35719 8.8098,1.1746 1.8167,1.53179 2.4687,5.4292 1.4683,7.0479 -0.41309,-0.43692 -2.1256,1.6092 -4.6986,2.3493 -2.8453,0.81842 -7.9135,-1.6749 -11.159,-0.88098 -3.2455,0.79392 -7.5812,3.3949 -9.3972,5.8732 -1.816,2.4783 -2.1411,3.6706 -2.3493,9.1035 -0.2082,5.4329 3.1686,19.383 4.6986,26.43 1.53,7.047 2.427,16.823 5.2859,20.556 2.8589,3.733 5.6394,3.947 8.8099,4.9922 3.1705,1.0452 9.268,0.8044 12.04,1.4683 2.772,0.6639 4.4783,2.9484 6.4606,2.3493 1.9823,-0.5991 3.6682,-3.108 4.4049,-4.4049 1.2847,-0.97556 3.6143,1.9836 5.5796,2.3493 1.9653,0.3657 3.1541,-0.26474 7.0479,-2.3493 3.8938,-2.08456 9.8153,-11.134 12.334,-16.151 2.5187,-5.017 4.0943,-10.24 4.6986,-16.445 0.6043,-6.205 -0.0112,-19.039 -2.0556,-24.374 -2.0444,-5.3346 -5.2486,-9.3866 -8.2225,-10.865 -2.9739,-1.4784 -6.4102,-0.49716 -8.5162,0 -2.106,0.49716 -3.8599,-0.55977 -5.2859,-0.88099 -1.1677,-0.26304 -5.3794,-1.3236 -8.8099,-1.4683 -2.0374,-1.9747 -1.8174,-5.4493 -3.5239,-7.9289 -1.7065,-2.4796 -3.6034,-5.9266 -6.4606,-7.0479 -2.8572,-1.1213 -10.495,-1.2602 -10.866,0.88099 z"
         id="path124"
         inkscape:connector-curvature="0"
         style="fill:#1a8025;fill-rule:evenodd;stroke:#00582a;stroke-width:2.8111999;stroke-linejoin:round" />
      <path
         d="m 433.23,414.1 c -6.4251,4.8428 -10.071,16.154 -10.071,32.294 0,17.912 11.176,30.088 19.688,32.438 -14.335,-18.736 -15.639,-26.57 -14.974,-36.688 0.66425,-10.118 2.3211,-20.295 5.3575,-28.044 z"
         id="path126"
         inkscape:connector-curvature="0"
         style="fill:#00652b" />
      <path
         d="m 448.88,411.21 c 7.1869,3.6171 12.795,14.095 15.678,29.975 3.2001,17.624 -5.6209,31.601 -13.576,35.433 6.0584,-21.877 6.8226,-29.23 5.2424,-39.066 -1.5734,-9.7945 -2.9728,-19.26 -7.3448,-26.342 z"
         id="path128"
         inkscape:connector-curvature="0"
         style="fill:#00652b" />
      <path
         d="m 413.75,439.17 c -5.6287,-10.871 -0.72797,-28.605 15.338,-22.739 -7.5643,1.7261 -11.177,8.2407 -15.338,22.739 z"
         id="path130"
         inkscape:connector-curvature="0"
         style="opacity:0.34350999;fill:#fce94f" />
      <path
         d="m 434.81,417.98 c -1.6916,-3.2119 9.8934,-6.6177 13.262,-3.8316 3.3682,2.786 0.64873,15.034 -1.4189,15.271 -1.5481,0.1777 -10.271,-8.4547 -11.843,-11.439 z"
         id="path132"
         inkscape:connector-curvature="0"
         style="opacity:0.34350999;fill:#fce94f;fill-rule:evenodd" />
      <path
         d="m 427.57,393.38 c -1.375,1.4289 -2.2067,6.6642 -0.58732,8.2225 1.61938,1.5583 5.8458,-1.4712 7.9289,0 2.083,1.4712 1.4504,10.047 3.5239,8.5162 2.2051,-1.628 4.3294,-1.1037 6.7542,-0.88099 2.4157,0.22186 -3.766,-11.688 -6.1669,-13.802 -2.4009,-2.114 -4.1279,-1.759 -5.8732,-2.0556 -1.7453,-0.2966 -4.2046,-1.4289 -5.5796,0 z"
         id="path134"
         inkscape:connector-curvature="0"
         style="fill:#4e9a06;fill-rule:evenodd" />
      <path
         d="m 426.98,399.55 c 0,0 4.6843,1.307 7.9289,-1.4683 2.93,-2.5063 5.2859,10.278 5.2859,10.278"
         id="path136"
         inkscape:connector-curvature="0"
         style="fill:none;stroke:#2d8f20;stroke-width:2.14980006" />
    </g>
    <g
       transform="matrix(-1.1339,0.43807,0.40977,1.2123,708.648,-468.39)"
       id="g154">
      <path
         d="m 426.1,393.97 c -0.3586,2.0728 -0.22757,6.9741 -0.29365,8.2225 1.9896,2.1295 6.9931,-0.35719 8.8098,1.1746 1.8167,1.53179 2.4687,5.4292 1.4683,7.0479 -0.41309,-0.43692 -2.1256,1.6092 -4.6986,2.3493 -2.8453,0.81842 -7.9135,-1.6749 -11.159,-0.88098 -3.2455,0.79392 -7.5812,3.3949 -9.3972,5.8732 -1.816,2.4783 -2.1411,3.6706 -2.3493,9.1035 -0.2082,5.4329 3.1686,19.383 4.6986,26.43 1.53,7.047 2.427,16.823 5.2859,20.556 2.8589,3.733 5.6394,3.947 8.8099,4.9922 3.1705,1.0452 9.268,0.8044 12.04,1.4683 2.772,0.6639 4.4783,2.9484 6.4606,2.3493 1.9823,-0.5991 3.6682,-3.108 4.4049,-4.4049 1.2847,-0.97556 3.6143,1.9836 5.5796,2.3493 1.9653,0.3657 3.1541,-0.26474 7.0479,-2.3493 3.8938,-2.08456 9.8153,-11.134 12.334,-16.151 2.5187,-5.017 4.0943,-10.24 4.6986,-16.445 0.6043,-6.205 -0.0112,-19.039 -2.0556,-24.374 -2.0444,-5.3346 -5.2486,-9.3866 -8.2225,-10.865 -2.9739,-1.4784 -6.4102,-0.49716 -8.5162,0 -2.106,0.49716 -3.8599,-0.55977 -5.2859,-0.88099 -1.1677,-0.26304 -5.3794,-1.3236 -8.8099,-1.4683 -2.0374,-1.9747 -1.8174,-5.4493 -3.5239,-7.9289 -1.7065,-2.4796 -3.6034,-5.9266 -6.4606,-7.0479 -2.8572,-1.1213 -10.495,-1.2602 -10.866,0.88099 z"
         id="path140"
         inkscape:connector-curvature="0"
         style="fill:#e3001b;fill-rule:evenodd;stroke:#d40000;stroke-width:2.72729993;stroke-linejoin:round" />
      <path
         d="m 433.23,414.1 c -6.4251,4.8428 -10.071,16.154 -10.071,32.294 0,17.912 11.176,30.088 19.688,32.438 -14.335,-18.736 -15.639,-26.57 -14.974,-36.688 0.66425,-10.118 2.3211,-20.295 5.3575,-28.044 z"
         id="path142"
         inkscape:connector-curvature="0"
         style="fill:#d00018" />
      <path
         d="m 448.88,411.21 c 7.1869,3.6171 12.795,14.095 15.678,29.975 3.2001,17.624 -5.6209,31.601 -13.576,35.433 6.0584,-21.877 6.8226,-29.23 5.2424,-39.066 -1.5734,-9.7945 -2.9728,-19.26 -7.3448,-26.342 z"
         id="path144"
         inkscape:connector-curvature="0"
         style="fill:#d00018" />
      <path
         d="m 413.75,439.17 c -5.6287,-10.871 -0.72797,-28.605 15.338,-22.739 -7.5643,1.7261 -11.177,8.2407 -15.338,22.739 z"
         id="path146"
         inkscape:connector-curvature="0"
         style="fill:#ea3d25" />
      <path
         d="m 434.81,417.98 c -1.6916,-3.2119 9.8934,-6.6177 13.262,-3.8316 3.3682,2.786 0.64873,15.034 -1.4189,15.271 -1.5481,0.1777 -10.271,-8.4547 -11.843,-11.439 z"
         id="path148"
         inkscape:connector-curvature="0"
         style="fill:#ea3d25;fill-rule:evenodd" />
      <path
         d="m 427.57,393.38 c -1.375,1.4289 -2.2067,6.6642 -0.58732,8.2225 1.61938,1.5583 5.8458,-1.4712 7.9289,0 2.083,1.4712 1.4504,10.047 3.5239,8.5162 2.2051,-1.628 4.3294,-1.1037 6.7542,-0.88099 2.4157,0.22186 -3.766,-11.688 -6.1669,-13.802 -2.4009,-2.114 -4.1279,-1.759 -5.8732,-2.0556 -1.7453,-0.2966 -4.2046,-1.4289 -5.5796,0 z"
         id="path150"
         inkscape:connector-curvature="0"
         style="fill:#4e9a06;fill-rule:evenodd" />
      <path
         d="m 426.98,399.55 c 0,0 4.6843,1.307 7.9289,-1.4683 2.93,-2.5063 5.2859,10.278 5.2859,10.278"
         id="path152"
         inkscape:connector-curvature="0"
         style="fill:none;stroke:#2d8f20;stroke-width:2.0855999" />
    </g>
    <g
       transform="matrix(-1.2166,0.1368,-0.029881,1.2056,903.508,-260.141)"
       id="g170">
      <path
         d="m 426.1,393.97 c -0.3586,2.0728 -0.22757,6.9741 -0.29365,8.2225 1.9896,2.1295 6.9931,-0.35719 8.8098,1.1746 1.8167,1.53179 2.4687,5.4292 1.4683,7.0479 -0.41309,-0.43692 -2.1256,1.6092 -4.6986,2.3493 -2.8453,0.81842 -7.9135,-1.6749 -11.159,-0.88098 -3.2455,0.79392 -7.5812,3.3949 -9.3972,5.8732 -1.816,2.4783 -2.1411,3.6706 -2.3493,9.1035 -0.2082,5.4329 3.1686,19.383 4.6986,26.43 1.53,7.047 2.427,16.823 5.2859,20.556 2.8589,3.733 5.6394,3.947 8.8099,4.9922 3.1705,1.0452 9.268,0.8044 12.04,1.4683 2.772,0.6639 4.4783,2.9484 6.4606,2.3493 1.9823,-0.5991 3.6682,-3.108 4.4049,-4.4049 1.2847,-0.97556 3.6143,1.9836 5.5796,2.3493 1.9653,0.3657 3.1541,-0.26474 7.0479,-2.3493 3.8938,-2.08456 9.8153,-11.134 12.334,-16.151 2.5187,-5.017 4.0943,-10.24 4.6986,-16.445 0.6043,-6.205 -0.0112,-19.039 -2.0556,-24.374 -2.0444,-5.3346 -5.2486,-9.3866 -8.2225,-10.865 -2.9739,-1.4784 -6.4102,-0.49716 -8.5162,0 -2.106,0.49716 -3.8599,-0.55977 -5.2859,-0.88099 -1.1677,-0.26304 -5.3794,-1.3236 -8.8099,-1.4683 -2.0374,-1.9747 -1.8174,-5.4493 -3.5239,-7.9289 -1.7065,-2.4796 -3.6034,-5.9266 -6.4606,-7.0479 -2.8572,-1.1213 -10.495,-1.2602 -10.866,0.88099 z"
         id="path156"
         inkscape:connector-curvature="0"
         style="fill:#1a8025;fill-rule:evenodd;stroke:#00582a;stroke-width:2.8111999;stroke-linejoin:round" />
      <path
         d="m 433.23,414.1 c -6.4251,4.8428 -10.071,16.154 -10.071,32.294 0,17.912 11.176,30.088 19.688,32.438 -14.335,-18.736 -15.639,-26.57 -14.974,-36.688 0.66425,-10.118 2.3211,-20.295 5.3575,-28.044 z"
         id="path158"
         inkscape:connector-curvature="0"
         style="fill:#00652b" />
      <path
         d="m 448.88,411.21 c 7.1869,3.6171 12.795,14.095 15.678,29.975 3.2001,17.624 -5.6209,31.601 -13.576,35.433 6.0584,-21.877 6.8226,-29.23 5.2424,-39.066 -1.5734,-9.7945 -2.9728,-19.26 -7.3448,-26.342 z"
         id="path160"
         inkscape:connector-curvature="0"
         style="fill:#00652b" />
      <path
         d="m 413.75,439.17 c -5.6287,-10.871 -0.72797,-28.605 15.338,-22.739 -7.5643,1.7261 -11.177,8.2407 -15.338,22.739 z"
         id="path162"
         inkscape:connector-curvature="0"
         style="opacity:0.34350999;fill:#fce94f" />
      <path
         d="m 434.81,417.98 c -1.6916,-3.2119 9.8934,-6.6177 13.262,-3.8316 3.3682,2.786 0.64873,15.034 -1.4189,15.271 -1.5481,0.1777 -10.271,-8.4547 -11.843,-11.439 z"
         id="path164"
         inkscape:connector-curvature="0"
         style="opacity:0.34350999;fill:#fce94f;fill-rule:evenodd" />
      <path
         d="m 427.57,393.38 c -1.375,1.4289 -2.2067,6.6642 -0.58732,8.2225 1.61938,1.5583 5.8458,-1.4712 7.9289,0 2.083,1.4712 1.4504,10.047 3.5239,8.5162 2.2051,-1.628 4.3294,-1.1037 6.7542,-0.88099 2.4157,0.22186 -3.766,-11.688 -6.1669,-13.802 -2.4009,-2.114 -4.1279,-1.759 -5.8732,-2.0556 -1.7453,-0.2966 -4.2046,-1.4289 -5.5796,0 z"
         id="path166"
         inkscape:connector-curvature="0"
         style="fill:#4e9a06;fill-rule:evenodd" />
      <path
         d="m 426.98,399.55 c 0,0 4.6843,1.307 7.9289,-1.4683 2.93,-2.5063 5.2859,10.278 5.2859,10.278"
         id="path168"
         inkscape:connector-curvature="0"
         style="fill:none;stroke:#2d8f20;stroke-width:2.14980006" />
    </g>
    <g
       transform="matrix(1.1339,0.43807,-0.40977,1.2123,-52.302,-407.78)"
       id="g186">
      <path
         d="m 426.1,393.97 c -0.3586,2.0728 -0.22757,6.9741 -0.29365,8.2225 1.9896,2.1295 6.9931,-0.35719 8.8098,1.1746 1.8167,1.53179 2.4687,5.4292 1.4683,7.0479 -0.41309,-0.43692 -2.1256,1.6092 -4.6986,2.3493 -2.8453,0.81842 -7.9135,-1.6749 -11.159,-0.88098 -3.2455,0.79392 -7.5812,3.3949 -9.3972,5.8732 -1.816,2.4783 -2.1411,3.6706 -2.3493,9.1035 -0.2082,5.4329 3.1686,19.383 4.6986,26.43 1.53,7.047 2.427,16.823 5.2859,20.556 2.8589,3.733 5.6394,3.947 8.8099,4.9922 3.1705,1.0452 9.268,0.8044 12.04,1.4683 2.772,0.6639 4.4783,2.9484 6.4606,2.3493 1.9823,-0.5991 3.6682,-3.108 4.4049,-4.4049 1.2847,-0.97556 3.6143,1.9836 5.5796,2.3493 1.9653,0.3657 3.1541,-0.26474 7.0479,-2.3493 3.8938,-2.08456 9.8153,-11.134 12.334,-16.151 2.5187,-5.017 4.0943,-10.24 4.6986,-16.445 0.6043,-6.205 -0.0112,-19.039 -2.0556,-24.374 -2.0444,-5.3346 -5.2486,-9.3866 -8.2225,-10.865 -2.9739,-1.4784 -6.4102,-0.49716 -8.5162,0 -2.106,0.49716 -3.8599,-0.55977 -5.2859,-0.88099 -1.1677,-0.26304 -5.3794,-1.3236 -8.8099,-1.4683 -2.0374,-1.9747 -1.8174,-5.4493 -3.5239,-7.9289 -1.7065,-2.4796 -3.6034,-5.9266 -6.4606,-7.0479 -2.8572,-1.1213 -10.495,-1.2602 -10.866,0.88099 z"
         id="path172"
         inkscape:connector-curvature="0"
         style="fill:#e3001b;fill-rule:evenodd;stroke:#d40000;stroke-width:2.72729993;stroke-linejoin:round" />
      <path
         d="m 433.23,414.1 c -6.4251,4.8428 -10.071,16.154 -10.071,32.294 0,17.912 11.176,30.088 19.688,32.438 -14.335,-18.736 -15.639,-26.57 -14.974,-36.688 0.66425,-10.118 2.3211,-20.295 5.3575,-28.044 z"
         id="path174"
         inkscape:connector-curvature="0"
         style="fill:#d00018" />
      <path
         d="m 448.88,411.21 c 7.1869,3.6171 12.795,14.095 15.678,29.975 3.2001,17.624 -5.6209,31.601 -13.576,35.433 6.0584,-21.877 6.8226,-29.23 5.2424,-39.066 -1.5734,-9.7945 -2.9728,-19.26 -7.3448,-26.342 z"
         id="path176"
         inkscape:connector-curvature="0"
         style="fill:#d00018" />
      <path
         d="m 413.75,439.17 c -5.6287,-10.871 -0.72797,-28.605 15.338,-22.739 -7.5643,1.7261 -11.177,8.2407 -15.338,22.739 z"
         id="path178"
         inkscape:connector-curvature="0"
         style="fill:#ea3d25" />
      <path
         d="m 434.81,417.98 c -1.6916,-3.2119 9.8934,-6.6177 13.262,-3.8316 3.3682,2.786 0.64873,15.034 -1.4189,15.271 -1.5481,0.1777 -10.271,-8.4547 -11.843,-11.439 z"
         id="path180"
         inkscape:connector-curvature="0"
         style="fill:#ea3d25;fill-rule:evenodd" />
      <path
         d="m 427.57,393.38 c -1.375,1.4289 -2.2067,6.6642 -0.58732,8.2225 1.61938,1.5583 5.8458,-1.4712 7.9289,0 2.083,1.4712 1.4504,10.047 3.5239,8.5162 2.2051,-1.628 4.3294,-1.1037 6.7542,-0.88099 2.4157,0.22186 -3.766,-11.688 -6.1669,-13.802 -2.4009,-2.114 -4.1279,-1.759 -5.8732,-2.0556 -1.7453,-0.2966 -4.2046,-1.4289 -5.5796,0 z"
         id="path182"
         inkscape:connector-curvature="0"
         style="fill:#4e9a06;fill-rule:evenodd" />
      <path
         d="m 426.98,399.55 c 0,0 4.6843,1.307 7.9289,-1.4683 2.93,-2.5063 5.2859,10.278 5.2859,10.278"
         id="path184"
         inkscape:connector-curvature="0"
         style="fill:none;stroke:#2d8f20;stroke-width:2.0855999" />
    </g>
    <g
       transform="matrix(2.3871,0.52956,-0.52956,2.3871,-714.792,-384.88)"
       id="g212">
      <path
         d="m 520.66,73.951 c 0.956,-1.3837 5.6769,-0.11245 6.5887,1.5988 0.91187,1.7113 0.19306,5.0267 0.57768,6.0958 0.31328,0.87098 3.982,0.5639 4.2903,1.1698 0.40757,0.80113 -10.123,41.204 -12.84,56.181 -2.7176,14.976 -4.3808,35.13 -5.8701,43.437 -1.4894,8.3078 -2.7293,9.4608 -2.719,12.133 0.009,2.5172 -1.0942,8.6717 -1.6827,11.365 -0.58851,2.6937 -1.1233,4.4186 -1.2448,6.7302 -0.1215,2.3116 0.5175,6.6443 0.095,8.2964 -0.4224,1.6521 -1.4521,1.2668 -1.6555,2.2916 -0.2034,1.0248 1.9228,2.7048 0.9401,3.9726 -0.98268,1.2678 -5.1723,0.41841 -6.4012,-0.19698 -1.229,-0.6154 -1.7142,-0.37893 -1.7533,-2.1592 -0.0393,-1.7803 0.79308,-2.4672 0.76431,-4.0388 -0.0291,-1.5716 -1.6033,-2.8588 -1.415,-6.1815 0.18819,-3.3228 3.9036,-10.973 5.217,-14.903 1.3133,-3.93 1.1122,-4.343 2.495,-11.233 1.3828,-6.8903 3.1937,-23.978 4.1687,-34.908 0.97509,-10.929 2.513,-27.471 3.4307,-37.997 0.91776,-10.527 1.4598,-31.082 2.7056,-32.178 1.1489,-1.0112 2.5616,1.2081 3.4088,-0.13232 0.79436,-1.2569 -0.11447,-7.8755 0.90023,-9.3441 z"
         id="path192"
         inkscape:connector-curvature="0"
         style="fill:#ffffff;stroke:#7b9c11;stroke-width:0.89973998" />
      <path
         d="m 521.1,73.279 -6.2458,43.77 -2.8229,28.419 -2.6712,21.049 -2.9556,22.37 -2.2712,10.725 5.23,2.7425 4.9856,-29.812 2.5326,-20.226 4.6021,-25.87 2.0177,-15.133 3.9042,-29.115 -0.46735,-7.0183 -5.8382,-1.9007 z"
         id="path194"
         inkscape:connector-curvature="0"
         style="fill:url(#linearGradient3799);fill-rule:evenodd" />
      <path
         d="m 519.62,84.464 -3.6216,-0.84125 -6.6261,83.549 6.5073,-53.271 3.7405,-29.436 z"
         id="path196"
         inkscape:connector-curvature="0"
         style="fill:#318827;fill-rule:evenodd" />
      <path
         d="m 527.24,81.877 4.8774,0.95613 -14.1,64.203 9.2229,-65.159 z"
         id="path198"
         inkscape:connector-curvature="0"
         style="fill:#799c0c;fill-rule:evenodd" />
      <path
         d="m 499.86,226.45 0.86381,-3.4699"
         id="path200"
         inkscape:connector-curvature="0"
         style="fill:#7a9a13;fill-rule:evenodd;stroke:#7fa019;stroke-width:0.57256001;stroke-linecap:round" />
      <path
         d="m 501.59,226.71 0.0812,-3.4396"
         id="path202"
         inkscape:connector-curvature="0"
         style="fill:#7a9a13;fill-rule:evenodd;stroke:#7fa019;stroke-width:0.57256001;stroke-linecap:round" />
      <path
         d="m 503.33,227.13 -0.22108,-2.9369"
         id="path204"
         inkscape:connector-curvature="0"
         style="fill:#7a9a13;fill-rule:evenodd;stroke:#7fa019;stroke-width:0.57256001;stroke-linecap:round" />
      <path
         d="m 504.59,227.58 -0.39201,-3.5848"
         id="path206"
         inkscape:connector-curvature="0"
         style="fill:#7a9a13;fill-rule:evenodd;stroke:#7fa019;stroke-width:0.57256001;stroke-linecap:round" />
      <path
         d="m 506.47,227.5 -1.1638,-3.0639"
         id="path208"
         inkscape:connector-curvature="0"
         style="fill:#7a9a13;fill-rule:evenodd;stroke:#7fa019;stroke-width:0.57256001;stroke-linecap:round" />
      <path
         d="m 513.14,131.84 -7.0293,58.037 8.5596,-16.86 7.6783,-49.88 z"
         id="path210"
         inkscape:connector-curvature="0"
         style="fill:url(#radialGradient1373);fill-rule:evenodd" />
    </g>
    <g
       transform="matrix(-1.8247,-1.6276,-1.6276,1.8247,1620.748,823.84)"
       id="g234">
      <path
         d="m 520.66,73.951 c 0.956,-1.3837 5.6769,-0.11245 6.5887,1.5988 0.91187,1.7113 0.19306,5.0267 0.57768,6.0958 0.31328,0.87098 3.982,0.5639 4.2903,1.1698 0.40757,0.80113 -10.123,41.204 -12.84,56.181 -2.7176,14.976 -4.3808,35.13 -5.8701,43.437 -1.4894,8.3078 -2.7293,9.4608 -2.719,12.133 0.009,2.5172 -1.0942,8.6717 -1.6827,11.365 -0.58851,2.6937 -1.1233,4.4186 -1.2448,6.7302 -0.1215,2.3116 0.5175,6.6443 0.095,8.2964 -0.4224,1.6521 -1.4521,1.2668 -1.6555,2.2916 -0.2034,1.0248 1.9228,2.7048 0.9401,3.9726 -0.98268,1.2678 -5.1723,0.41841 -6.4012,-0.19698 -1.229,-0.6154 -1.7142,-0.37893 -1.7533,-2.1592 -0.0393,-1.7803 0.79308,-2.4672 0.76431,-4.0388 -0.0291,-1.5716 -1.6033,-2.8588 -1.415,-6.1815 0.18819,-3.3228 3.9036,-10.973 5.217,-14.903 1.3133,-3.93 1.1122,-4.343 2.495,-11.233 1.3828,-6.8903 3.1937,-23.978 4.1687,-34.908 0.97509,-10.929 2.513,-27.471 3.4307,-37.997 0.91776,-10.527 1.4598,-31.082 2.7056,-32.178 1.1489,-1.0112 2.5616,1.2081 3.4088,-0.13232 0.79436,-1.2569 -0.11447,-7.8755 0.90023,-9.3441 z"
         id="path214"
         inkscape:connector-curvature="0"
         style="fill:#ffffff;stroke:#7b9c11;stroke-width:0.89973998" />
      <path
         d="m 521.1,73.279 -6.2458,43.77 -2.8229,28.419 -2.6712,21.049 -2.9556,22.37 -2.2712,10.725 5.23,2.7425 4.9856,-29.812 2.5326,-20.226 4.6021,-25.87 2.0177,-15.133 3.9042,-29.115 -0.46735,-7.0183 -5.8382,-1.9007 z"
         id="path216"
         inkscape:connector-curvature="0"
         style="fill:url(#linearGradient1371);fill-rule:evenodd" />
      <path
         d="m 519.62,84.464 -3.6216,-0.84125 -6.6261,83.549 6.5073,-53.271 3.7405,-29.436 z"
         id="path218"
         inkscape:connector-curvature="0"
         style="fill:#318827;fill-rule:evenodd" />
      <path
         d="m 527.24,81.877 4.8774,0.95613 -14.1,64.203 9.2229,-65.159 z"
         id="path220"
         inkscape:connector-curvature="0"
         style="fill:#799c0c;fill-rule:evenodd" />
      <path
         d="m 499.86,226.45 0.86381,-3.4699"
         id="path222"
         inkscape:connector-curvature="0"
         style="fill:#7a9a13;fill-rule:evenodd;stroke:#7fa019;stroke-width:0.57256001;stroke-linecap:round" />
      <path
         d="m 501.59,226.71 0.0812,-3.4396"
         id="path224"
         inkscape:connector-curvature="0"
         style="fill:#7a9a13;fill-rule:evenodd;stroke:#7fa019;stroke-width:0.57256001;stroke-linecap:round" />
      <path
         d="m 503.33,227.13 -0.22108,-2.9369"
         id="path226"
         inkscape:connector-curvature="0"
         style="fill:#7a9a13;fill-rule:evenodd;stroke:#7fa019;stroke-width:0.57256001;stroke-linecap:round" />
      <path
         d="m 504.59,227.58 -0.39201,-3.5848"
         id="path228"
         inkscape:connector-curvature="0"
         style="fill:#7a9a13;fill-rule:evenodd;stroke:#7fa019;stroke-width:0.57256001;stroke-linecap:round" />
      <path
         d="m 506.47,227.5 -1.1638,-3.0639"
         id="path230"
         inkscape:connector-curvature="0"
         style="fill:#7a9a13;fill-rule:evenodd;stroke:#7fa019;stroke-width:0.57256001;stroke-linecap:round" />
      <path
         d="m 513.14,131.84 -7.0293,58.037 8.5596,-16.86 7.6783,-49.88 z"
         id="path232"
         inkscape:connector-curvature="0"
         style="fill:url(#a-1);fill-rule:evenodd" />
    </g>
    <g
       transform="matrix(0.81528,-0.031647,0.018689,0.85159,71.488,160.97)"
       id="g254">
      <path
         d="m 206.82,249.85 c 1.2346,3.5205 -0.45876,12.323 0.84261,14.476 1.3807,2.2842 18.946,-1.206 29,5.8646 10.053,7.0705 21.749,26.015 13.926,42.498 -7.8228,16.482 -32.406,29.075 -46.113,29.082 -24.728,-0.19329 -39.526,-6.8984 -48.273,-31.387 -2.2319,-9.4043 -2.7478,-12.117 -0.15347,-22.368 6.4031,-20.223 22.771,-22.875 41.515,-25.282 7.6622,-1.2139 -2.5708,-11.765 0.9081,-13.187 2.9268,-0.26974 8.3872,-0.96528 8.3475,0.30437 z"
         id="path236"
         inkscape:connector-curvature="0"
         style="fill:#9c151c;fill-rule:evenodd" />
      <path
         d="m 205.1,251 c 1.1755,3.3521 -0.43682,12.05 3.0183,14.417 3.0928,2.1184 18.04,-1.1483 27.613,5.5841 9.5726,6.7324 20.709,24.771 13.26,40.465 -7.4486,15.694 -30.856,27.684 -43.908,27.691 -23.545,-0.18405 -37.635,-6.5684 -45.964,-29.886 -2.1251,-8.9545 -2.6163,-11.537 -0.14613,-21.298 6.0968,-19.255 21.682,-21.781 39.529,-24.073 7.2957,-1.1559 -2.4478,-11.202 0.86467,-12.556 2.7868,-0.25684 5.77,-1.5522 5.7322,-0.34333 z"
         id="path238"
         inkscape:connector-curvature="0"
         style="fill:#e10119;fill-rule:evenodd" />
      <path
         d="m 190.14,267.6 c -17.373,2.1804 -29.729,19.251 -27.609,38.077 2.12,18.826 17.919,32.334 35.292,30.154 0.3874,1.9793 -20.65,-15.411 -24.125,-31.346 -1.9189,-17.041 4.0453,-32.649 18.837,-37.068 -0.78772,0.035 -1.5991,0.0835 -2.3945,0.18329 z"
         id="path240"
         inkscape:connector-curvature="0"
         style="opacity:0.34733001;fill:#9c151c" />
      <path
         d="m 219.38,271.37 c -2.2312,0 -4.3909,0.27149 -6.4688,0.75 7.643,6.123 12.812,17.837 12.812,31.25 0,7.6363 -1.6776,14.688 -4.5312,20.5 14.365,-0.88557 25.75,-12.292 25.75,-26.219 0,-14.504 -12.36,-26.281 -27.562,-26.281 z"
         id="path242"
         inkscape:connector-curvature="0"
         style="opacity:0.34733001;fill:#fcaf3e" />
      <path
         d="m 199.98,251.48 c -0.17537,1.3153 1.3412,6.9714 1.5784,9.2072 0.2372,2.2358 0.83808,3.1007 -1.5247,3.4984 -2.36278,0.3977 -4.2244,0.79392 -6.3588,0.79337 -2.1344,-5.5e-4 -4.1631,-0.32438 -5.3008,1.2872 -1.1377,1.61158 -2.3964,2.8948 -3.3158,4.4399 -0.91947,1.5451 1.397,0.54306 3.1084,0.41185 1.7114,-0.13121 6.2492,-2.9049 7.3412,-1.2236 1.092,1.6814 -2.1045,10.917 -0.78919,11.312 1.3153,0.39459 5.9628,-8.8564 8.6811,-8.9441 2.7183,-0.0877 6.182,8.2865 7.6288,8.418 1.4468,0.1315 2e-5,-7.3658 1.0523,-7.6288 1.0522,-0.26306 4.4721,6.1381 5.2612,6.0504 0.78919,-0.0877 -0.7404,-6.004 -0.52612,-6.5766 0.21428,-0.5726 3.3674,1.0827 1.8894,-0.46768 -1.478,-1.55038 -1.2273,-3.8418 -4.0021,-4.4894 -2.7748,-0.6476 -6.9722,-0.80901 -8.7684,-3.3588 -1.7962,-2.5498 -0.72437,-10.29 -1.4697,-12.614 -0.74535,-0.43652 -3.9054,-0.48692 -4.4851,-0.11521 z"
         id="path244"
         inkscape:connector-curvature="0"
         style="fill:#639f1b;fill-rule:evenodd" />
      <path
         d="m 199.44,266.32 c 2.1862,1.2893 -2.4798,-4.4848 -8.864,0 -6.4573,4.5361 -3.3269,6.2964 -2.8491,4.1154 0.41183,-1.8801 9.6554,-5.329 11.713,-4.1154 z"
         id="path246"
         inkscape:connector-curvature="0"
         style="opacity:0.50762999;fill:#8ae234;fill-rule:evenodd" />
      <path
         d="m 204.52,267.41 c -2.1527,1.3445 2.3393,-2.9234 8.8356,1.3974 8.9763,9.0107 -5.9078,-1.985 -8.8356,-1.3974 z"
         id="path248"
         inkscape:connector-curvature="0"
         style="opacity:0.50762999;fill:#8ae234;fill-rule:evenodd" />
      <path
         d="m 201.02,266 -3.4823,4.1154 -1.2663,8.2308 4.7486,-12.346 z"
         id="path250"
         inkscape:connector-curvature="0"
         style="fill:#77c127;fill-rule:evenodd" />
      <path
         d="m 202.06,266.74 4.596,2.8177 3.7804,7.4201 -8.3764,-10.238 z"
         id="path252"
         inkscape:connector-curvature="0"
         style="fill:#77c127;fill-rule:evenodd" />
    </g>
    <g
       transform="matrix(0.81528,-0.031647,0.018689,0.85159,136.138,165.01)"
       id="g274">
      <path
         d="m 206.82,249.85 c 1.2346,3.5205 -0.45876,12.323 0.84261,14.476 1.3807,2.2842 18.946,-1.206 29,5.8646 10.053,7.0705 21.749,26.015 13.926,42.498 -7.8228,16.482 -32.406,29.075 -46.113,29.082 -24.728,-0.19329 -39.526,-6.8984 -48.273,-31.387 -2.2319,-9.4043 -2.7478,-12.117 -0.15347,-22.368 6.4031,-20.223 22.771,-22.875 41.515,-25.282 7.6622,-1.2139 -2.5708,-11.765 0.9081,-13.187 2.9268,-0.26974 8.3872,-0.96528 8.3475,0.30437 z"
         id="path256"
         inkscape:connector-curvature="0"
         style="fill:#9c151c;fill-rule:evenodd" />
      <path
         d="m 205.1,251 c 1.1755,3.3521 -0.43682,12.05 3.0183,14.417 3.0928,2.1184 18.04,-1.1483 27.613,5.5841 9.5726,6.7324 20.709,24.771 13.26,40.465 -7.4486,15.694 -30.856,27.684 -43.908,27.691 -23.545,-0.18405 -37.635,-6.5684 -45.964,-29.886 -2.1251,-8.9545 -2.6163,-11.537 -0.14613,-21.298 6.0968,-19.255 21.682,-21.781 39.529,-24.073 7.2957,-1.1559 -2.4478,-11.202 0.86467,-12.556 2.7868,-0.25684 5.77,-1.5522 5.7322,-0.34333 z"
         id="path258"
         inkscape:connector-curvature="0"
         style="fill:#e10119;fill-rule:evenodd" />
      <path
         d="m 190.14,267.6 c -17.373,2.1804 -29.729,19.251 -27.609,38.077 2.12,18.826 17.919,32.334 35.292,30.154 0.3874,1.9793 -20.65,-15.411 -24.125,-31.346 -1.9189,-17.041 4.0453,-32.649 18.837,-37.068 -0.78772,0.035 -1.5991,0.0835 -2.3945,0.18329 z"
         id="path260"
         inkscape:connector-curvature="0"
         style="opacity:0.34733001;fill:#9c151c" />
      <path
         d="m 219.38,271.37 c -2.2312,0 -4.3909,0.27149 -6.4688,0.75 7.643,6.123 12.812,17.837 12.812,31.25 0,7.6363 -1.6776,14.688 -4.5312,20.5 14.365,-0.88557 25.75,-12.292 25.75,-26.219 0,-14.504 -12.36,-26.281 -27.562,-26.281 z"
         id="path262"
         inkscape:connector-curvature="0"
         style="opacity:0.34733001;fill:#fcaf3e" />
      <path
         d="m 199.98,251.48 c -0.17537,1.3153 1.3412,6.9714 1.5784,9.2072 0.2372,2.2358 0.83808,3.1007 -1.5247,3.4984 -2.36278,0.3977 -4.2244,0.79392 -6.3588,0.79337 -2.1344,-5.5e-4 -4.1631,-0.32438 -5.3008,1.2872 -1.1377,1.61158 -2.3964,2.8948 -3.3158,4.4399 -0.91947,1.5451 1.397,0.54306 3.1084,0.41185 1.7114,-0.13121 6.2492,-2.9049 7.3412,-1.2236 1.092,1.6814 -2.1045,10.917 -0.78919,11.312 1.3153,0.39459 5.9628,-8.8564 8.6811,-8.9441 2.7183,-0.0877 6.182,8.2865 7.6288,8.418 1.4468,0.1315 2e-5,-7.3658 1.0523,-7.6288 1.0522,-0.26306 4.4721,6.1381 5.2612,6.0504 0.78919,-0.0877 -0.7404,-6.004 -0.52612,-6.5766 0.21428,-0.5726 3.3674,1.0827 1.8894,-0.46768 -1.478,-1.55038 -1.2273,-3.8418 -4.0021,-4.4894 -2.7748,-0.6476 -6.9722,-0.80901 -8.7684,-3.3588 -1.7962,-2.5498 -0.72437,-10.29 -1.4697,-12.614 -0.74535,-0.43652 -3.9054,-0.48692 -4.4851,-0.11521 z"
         id="path264"
         inkscape:connector-curvature="0"
         style="fill:#639f1b;fill-rule:evenodd" />
      <path
         d="m 199.44,266.32 c 2.1862,1.2893 -2.4798,-4.4848 -8.864,0 -6.4573,4.5361 -3.3269,6.2964 -2.8491,4.1154 0.41183,-1.8801 9.6554,-5.329 11.713,-4.1154 z"
         id="path266"
         inkscape:connector-curvature="0"
         style="opacity:0.50762999;fill:#8ae234;fill-rule:evenodd" />
      <path
         d="m 204.52,267.41 c -2.1527,1.3445 2.3393,-2.9234 8.8356,1.3974 8.9763,9.0107 -5.9078,-1.985 -8.8356,-1.3974 z"
         id="path268"
         inkscape:connector-curvature="0"
         style="opacity:0.50762999;fill:#8ae234;fill-rule:evenodd" />
      <path
         d="m 201.02,266 -3.4823,4.1154 -1.2663,8.2308 4.7486,-12.346 z"
         id="path270"
         inkscape:connector-curvature="0"
         style="fill:#77c127;fill-rule:evenodd" />
      <path
         d="m 202.06,266.74 4.596,2.8177 3.7804,7.4201 -8.3764,-10.238 z"
         id="path272"
         inkscape:connector-curvature="0"
         style="fill:#77c127;fill-rule:evenodd" />
    </g>
    <g
       transform="matrix(0.81528,-0.031647,0.018689,0.85159,110.888,107.43)"
       id="g294">
      <path
         d="m 206.82,249.85 c 1.2346,3.5205 -0.45876,12.323 0.84261,14.476 1.3807,2.2842 18.946,-1.206 29,5.8646 10.053,7.0705 21.749,26.015 13.926,42.498 -7.8228,16.482 -32.406,29.075 -46.113,29.082 -24.728,-0.19329 -39.526,-6.8984 -48.273,-31.387 -2.2319,-9.4043 -2.7478,-12.117 -0.15347,-22.368 6.4031,-20.223 22.771,-22.875 41.515,-25.282 7.6622,-1.2139 -2.5708,-11.765 0.9081,-13.187 2.9268,-0.26974 8.3872,-0.96528 8.3475,0.30437 z"
         id="path276"
         inkscape:connector-curvature="0"
         style="fill:#9c151c;fill-rule:evenodd" />
      <path
         d="m 205.1,251 c 1.1755,3.3521 -0.43682,12.05 3.0183,14.417 3.0928,2.1184 18.04,-1.1483 27.613,5.5841 9.5726,6.7324 20.709,24.771 13.26,40.465 -7.4486,15.694 -30.856,27.684 -43.908,27.691 -23.545,-0.18405 -37.635,-6.5684 -45.964,-29.886 -2.1251,-8.9545 -2.6163,-11.537 -0.14613,-21.298 6.0968,-19.255 21.682,-21.781 39.529,-24.073 7.2957,-1.1559 -2.4478,-11.202 0.86467,-12.556 2.7868,-0.25684 5.77,-1.5522 5.7322,-0.34333 z"
         id="path278"
         inkscape:connector-curvature="0"
         style="fill:#e10119;fill-rule:evenodd" />
      <path
         d="m 190.14,267.6 c -17.373,2.1804 -29.729,19.251 -27.609,38.077 2.12,18.826 17.919,32.334 35.292,30.154 0.3874,1.9793 -20.65,-15.411 -24.125,-31.346 -1.9189,-17.041 4.0453,-32.649 18.837,-37.068 -0.78772,0.035 -1.5991,0.0835 -2.3945,0.18329 z"
         id="path280"
         inkscape:connector-curvature="0"
         style="opacity:0.34733001;fill:#9c151c" />
      <path
         d="m 219.38,271.37 c -2.2312,0 -4.3909,0.27149 -6.4688,0.75 7.643,6.123 12.812,17.837 12.812,31.25 0,7.6363 -1.6776,14.688 -4.5312,20.5 14.365,-0.88557 25.75,-12.292 25.75,-26.219 0,-14.504 -12.36,-26.281 -27.562,-26.281 z"
         id="path282"
         inkscape:connector-curvature="0"
         style="opacity:0.34733001;fill:#fcaf3e" />
      <path
         d="m 199.98,251.48 c -0.17537,1.3153 1.3412,6.9714 1.5784,9.2072 0.2372,2.2358 0.83808,3.1007 -1.5247,3.4984 -2.36278,0.3977 -4.2244,0.79392 -6.3588,0.79337 -2.1344,-5.5e-4 -4.1631,-0.32438 -5.3008,1.2872 -1.1377,1.61158 -2.3964,2.8948 -3.3158,4.4399 -0.91947,1.5451 1.397,0.54306 3.1084,0.41185 1.7114,-0.13121 6.2492,-2.9049 7.3412,-1.2236 1.092,1.6814 -2.1045,10.917 -0.78919,11.312 1.3153,0.39459 5.9628,-8.8564 8.6811,-8.9441 2.7183,-0.0877 6.182,8.2865 7.6288,8.418 1.4468,0.1315 2e-5,-7.3658 1.0523,-7.6288 1.0522,-0.26306 4.4721,6.1381 5.2612,6.0504 0.78919,-0.0877 -0.7404,-6.004 -0.52612,-6.5766 0.21428,-0.5726 3.3674,1.0827 1.8894,-0.46768 -1.478,-1.55038 -1.2273,-3.8418 -4.0021,-4.4894 -2.7748,-0.6476 -6.9722,-0.80901 -8.7684,-3.3588 -1.7962,-2.5498 -0.72437,-10.29 -1.4697,-12.614 -0.74535,-0.43652 -3.9054,-0.48692 -4.4851,-0.11521 z"
         id="path284"
         inkscape:connector-curvature="0"
         style="fill:#639f1b;fill-rule:evenodd" />
      <path
         d="m 199.44,266.32 c 2.1862,1.2893 -2.4798,-4.4848 -8.864,0 -6.4573,4.5361 -3.3269,6.2964 -2.8491,4.1154 0.41183,-1.8801 9.6554,-5.329 11.713,-4.1154 z"
         id="path286"
         inkscape:connector-curvature="0"
         style="opacity:0.50762999;fill:#8ae234;fill-rule:evenodd" />
      <path
         d="m 204.52,267.41 c -2.1527,1.3445 2.3393,-2.9234 8.8356,1.3974 8.9763,9.0107 -5.9078,-1.985 -8.8356,-1.3974 z"
         id="path288"
         inkscape:connector-curvature="0"
         style="opacity:0.50762999;fill:#8ae234;fill-rule:evenodd" />
      <path
         d="m 201.02,266 -3.4823,4.1154 -1.2663,8.2308 4.7486,-12.346 z"
         id="path290"
         inkscape:connector-curvature="0"
         style="fill:#77c127;fill-rule:evenodd" />
      <path
         d="m 202.06,266.74 4.596,2.8177 3.7804,7.4201 -8.3764,-10.238 z"
         id="path292"
         inkscape:connector-curvature="0"
         style="fill:#77c127;fill-rule:evenodd" />
    </g>
    <g
       transform="matrix(0.81528,-0.031647,0.018689,0.85159,163.418,116.52)"
       id="g314">
      <path
         d="m 206.82,249.85 c 1.2346,3.5205 -0.45876,12.323 0.84261,14.476 1.3807,2.2842 18.946,-1.206 29,5.8646 10.053,7.0705 21.749,26.015 13.926,42.498 -7.8228,16.482 -32.406,29.075 -46.113,29.082 -24.728,-0.19329 -39.526,-6.8984 -48.273,-31.387 -2.2319,-9.4043 -2.7478,-12.117 -0.15347,-22.368 6.4031,-20.223 22.771,-22.875 41.515,-25.282 7.6622,-1.2139 -2.5708,-11.765 0.9081,-13.187 2.9268,-0.26974 8.3872,-0.96528 8.3475,0.30437 z"
         id="path296"
         inkscape:connector-curvature="0"
         style="fill:#9c151c;fill-rule:evenodd" />
      <path
         d="m 205.1,251 c 1.1755,3.3521 -0.43682,12.05 3.0183,14.417 3.0928,2.1184 18.04,-1.1483 27.613,5.5841 9.5726,6.7324 20.709,24.771 13.26,40.465 -7.4486,15.694 -30.856,27.684 -43.908,27.691 -23.545,-0.18405 -37.635,-6.5684 -45.964,-29.886 -2.1251,-8.9545 -2.6163,-11.537 -0.14613,-21.298 6.0968,-19.255 21.682,-21.781 39.529,-24.073 7.2957,-1.1559 -2.4478,-11.202 0.86467,-12.556 2.7868,-0.25684 5.77,-1.5522 5.7322,-0.34333 z"
         id="path298"
         inkscape:connector-curvature="0"
         style="fill:#e10119;fill-rule:evenodd" />
      <path
         d="m 190.14,267.6 c -17.373,2.1804 -29.729,19.251 -27.609,38.077 2.12,18.826 17.919,32.334 35.292,30.154 0.3874,1.9793 -20.65,-15.411 -24.125,-31.346 -1.9189,-17.041 4.0453,-32.649 18.837,-37.068 -0.78772,0.035 -1.5991,0.0835 -2.3945,0.18329 z"
         id="path300"
         inkscape:connector-curvature="0"
         style="opacity:0.34733001;fill:#9c151c" />
      <path
         d="m 219.38,271.37 c -2.2312,0 -4.3909,0.27149 -6.4688,0.75 7.643,6.123 12.812,17.837 12.812,31.25 0,7.6363 -1.6776,14.688 -4.5312,20.5 14.365,-0.88557 25.75,-12.292 25.75,-26.219 0,-14.504 -12.36,-26.281 -27.562,-26.281 z"
         id="path302"
         inkscape:connector-curvature="0"
         style="opacity:0.34733001;fill:#fcaf3e" />
      <path
         d="m 199.98,251.48 c -0.17537,1.3153 1.3412,6.9714 1.5784,9.2072 0.2372,2.2358 0.83808,3.1007 -1.5247,3.4984 -2.36278,0.3977 -4.2244,0.79392 -6.3588,0.79337 -2.1344,-5.5e-4 -4.1631,-0.32438 -5.3008,1.2872 -1.1377,1.61158 -2.3964,2.8948 -3.3158,4.4399 -0.91947,1.5451 1.397,0.54306 3.1084,0.41185 1.7114,-0.13121 6.2492,-2.9049 7.3412,-1.2236 1.092,1.6814 -2.1045,10.917 -0.78919,11.312 1.3153,0.39459 5.9628,-8.8564 8.6811,-8.9441 2.7183,-0.0877 6.182,8.2865 7.6288,8.418 1.4468,0.1315 2e-5,-7.3658 1.0523,-7.6288 1.0522,-0.26306 4.4721,6.1381 5.2612,6.0504 0.78919,-0.0877 -0.7404,-6.004 -0.52612,-6.5766 0.21428,-0.5726 3.3674,1.0827 1.8894,-0.46768 -1.478,-1.55038 -1.2273,-3.8418 -4.0021,-4.4894 -2.7748,-0.6476 -6.9722,-0.80901 -8.7684,-3.3588 -1.7962,-2.5498 -0.72437,-10.29 -1.4697,-12.614 -0.74535,-0.43652 -3.9054,-0.48692 -4.4851,-0.11521 z"
         id="path304"
         inkscape:connector-curvature="0"
         style="fill:#639f1b;fill-rule:evenodd" />
      <path
         d="m 199.44,266.32 c 2.1862,1.2893 -2.4798,-4.4848 -8.864,0 -6.4573,4.5361 -3.3269,6.2964 -2.8491,4.1154 0.41183,-1.8801 9.6554,-5.329 11.713,-4.1154 z"
         id="path306"
         inkscape:connector-curvature="0"
         style="opacity:0.50762999;fill:#8ae234;fill-rule:evenodd" />
      <path
         d="m 204.52,267.41 c -2.1527,1.3445 2.3393,-2.9234 8.8356,1.3974 8.9763,9.0107 -5.9078,-1.985 -8.8356,-1.3974 z"
         id="path308"
         inkscape:connector-curvature="0"
         style="opacity:0.50762999;fill:#8ae234;fill-rule:evenodd" />
      <path
         d="m 201.02,266 -3.4823,4.1154 -1.2663,8.2308 4.7486,-12.346 z"
         id="path310"
         inkscape:connector-curvature="0"
         style="fill:#77c127;fill-rule:evenodd" />
      <path
         d="m 202.06,266.74 4.596,2.8177 3.7804,7.4201 -8.3764,-10.238 z"
         id="path312"
         inkscape:connector-curvature="0"
         style="fill:#77c127;fill-rule:evenodd" />
    </g>
    <g
       transform="matrix(1.0494,-1.1052,1.1052,1.0494,-470.022,52.5)"
       id="g346">
      <g
         transform="translate(-28.217,203.16)"
         id="g344">
        <g
           transform="matrix(0.38929,0.12586,0.13758,-0.42554,264.98,-94.759)"
           id="g342">
          <g
             transform="matrix(-0.9319,0.36271,-0.36271,-0.9319,931.87,36.433)"
             id="g316" />
          <g
             transform="matrix(2.1954,0,0,2.1954,-976.17,200.6)"
             id="g340">
            <path
               d="m 488.9,-320.14 c 0.93856,-1.4559 -2.3552,-12.083 -2.6663,-13.364 -0.31104,-1.282 -0.0454,-0.24006 -0.0903,-0.33168 -0.0449,-0.0916 0.28377,0.37617 -0.20269,-0.2687 -0.48646,-0.64487 -1.8299,-3.8621 -3.0404,-4.0304 -1.2105,-0.16833 -2.307,0.70623 -2.4704,1.8708 -0.1634,1.16457 2.0486,2.0427 2.8459,3.7919 0.79734,1.7492 0.28648,6.9872 1.6956,7.8943 1.4091,0.90707 2.99,5.8942 3.9285,4.4383 z"
               id="path318"
               inkscape:connector-curvature="0"
               style="fill:#829a6b;fill-rule:evenodd" />
            <path
               d="m 478.71,-318.17 c 1.5212,-1.7135 -1.2062,-15.175 -3.0761,-16.653 -1.8699,-1.4787 -1.5994,-1.5178 -3.0781,0.35211 -1.4787,1.8699 2.041,12.885 3.0786,11.307 1.0376,-1.5785 1.5543,6.7078 3.0756,4.9943 z"
               id="path320"
               inkscape:connector-curvature="0"
               style="fill:#829a6b;fill-rule:evenodd" />
            <path
               d="m 478.57,-297.41 0.41795,-12.746 c 0,0 -4.3848,3.1788 -5.3613,4.6994 -0.9765,1.5206 0.36648,7.7401 1.887,8.7167 1.52052,0.9766 3.0563,-0.67005 3.0563,-0.67005 z"
               id="path322"
               inkscape:connector-curvature="0"
               style="fill:#829a6b;fill-rule:evenodd" />
            <path
               d="m 479.26,-300.47 c 0.3482,-2.4652 -4.7167,-5.8695 -4.9695,-8.1716 -0.25276,-2.3021 0.206,-4.2539 1.8909,-5.5629 1.6849,-1.309 6.335,0.63028 8.3235,-0.64898 1.9885,-1.2792 2.981,-4.5211 3.5888,-6.4878 0.60777,-1.9666 -0.48378,-4.1098 0.59339,-6.2806 1.07717,-2.1708 6.7707,-4.3489 7.2467,-6.6673 0.47599,-2.3184 -1.6478,-0.54739 -2.4296,-5.4109 -0.7818,-4.86351 2.953,-16.311 2.7738,-26.765 -0.1792,-10.454 -3.2213,-31.979 -5.8676,-42.391 -2.6463,-10.411 -5.5097,-20.124 -10.16,-26.972 -4.6504,-6.8481 -12.61,-15.078 -19.505,-17.737 -6.8947,-2.6588 -16.632,-2.8608 -22.9,0.042 -6.2677,2.9028 -12.544,10.582 -15.004,17.628 -2.4602,7.0451 -0.5566,19.488 0.88413,26.586 1.4407,7.0976 4.8027,13.709 7.7857,20.236 2.983,6.5267 9.1182,14.328 12.313,23.079 3.1952,8.7508 5.0958,29.389 7.4962,35.157 2.4005,5.7683 2.5535,3.3662 3.1197,4.7759 0.5662,1.4098 -0.49711,2.2707 0.81453,4.3481 1.3116,2.0774 8.3246,4.588 9.6627,7.0396 1.3381,2.4515 1.3667,5.038 0.38667,6.6533 -0.98003,1.6153 -4.8358,0.19905 -5.4109,2.4296 -0.5751,2.23055 3.3937,5.9945 5.6596,7.5366 2.2659,1.5421 6.2155,2.9073 8.5306,2.3464 2.3152,-0.56089 4.828,-2.2972 5.1762,-4.7624 z"
               id="path324"
               inkscape:connector-curvature="0"
               style="fill:#552f53;fill-rule:evenodd;stroke:#000039;stroke-width:1.81669998" />
            <path
               d="m 479.12,-308.75 c 0.28374,-2.3072 -4.5124,-5.5878 -4.788,-7.7522 -0.27566,-2.1644 0.12025,-3.988 1.6742,-5.1876 1.554,-1.1995 5.937,0.69929 7.7755,-0.4672 1.8384,-1.1665 2.7116,-4.1915 3.2467,-6.0265 0.53507,-1.835 -0.52257,-3.8646 0.44813,-5.8832 0.9707,-2.0186 6.2598,-3.9654 6.6656,-6.1327 0.40579,-2.1673 -1.5508,-0.54169 -2.365,-5.1186 -0.8142,-4.57691 2.4847,-15.255 2.139,-25.067 -0.34568,-9.8122 -3.5582,-30.062 -6.211,-39.876 -2.6529,-9.8144 -5.497,-18.976 -9.964,-25.481 -4.467,-6.505 -12.053,-14.363 -18.549,-16.975 -6.4951,-2.6123 -15.608,-2.9676 -21.422,-0.35059 -5.8139,2.6171 -11.554,9.7161 -13.736,16.285 -2.1815,6.5687 -0.1888,18.277 1.2799,24.961 1.4687,6.6844 4.7264,12.945 7.6281,19.12 2.9017,6.175 8.7739,13.6 11.912,21.866 3.1381,8.2656 5.2675,27.663 7.6114,33.117 2.3439,5.454 2.4461,3.202 2.9998,4.5345 0.5537,1.3325 -0.42636,2.1222 0.83603,4.0938 1.26239,1.9716 7.8657,4.4468 9.1592,6.77 1.2935,2.3231 1.3644,4.7505 0.47503,6.2495 -0.88932,1.499 -4.5205,0.10441 -5.0204,2.1876 -0.49999,2.0832 3.2769,5.6826 5.4229,7.1681 2.146,1.4856 5.864,2.8338 8.0202,2.347 2.1563,-0.48686 4.4774,-2.0733 4.7612,-4.3805 z"
               id="path326"
               inkscape:connector-curvature="0"
               style="fill:url(#linearGradient1369);fill-rule:evenodd" />
            <path
               d="m 484.93,-412.05 c -8.6419,-34.13 -26.676,-36.257 -41.789,-39.51 20.937,21.414 32.499,24.666 45.394,101.21 2.4959,-36.636 1.2346,-41.245 -3.605,-61.697 z"
               id="path328"
               inkscape:connector-curvature="0"
               style="fill:#774666" />
            <path
               d="m 494.24,-333.36 c 0.47598,-2.3184 0.91343,-4.6761 -2.4296,-5.4109 -3.343,-0.73484 -8.6707,11.404 -12.74,11.085 -4.0696,-0.31896 -4.3765,-5.759 -6.6397,-7.9092 -2.2632,-2.1502 -5.7665,-6 -8.3651,-6.3218 -2.5986,-0.32177 -5.7088,0.84718 -6.4186,2.7195 -0.7098,1.87232 4.5003,4.2084 2.7471,5.756 -1.7532,1.5476 -5.8387,-5.3772 -7.7577,-4.9691 -1.919,0.40809 -1.9178,1.0132 -2.1257,3.2301 -0.20791,2.2168 3.1848,8.508 4.2242,10.132 1.0394,1.6237 1.0364,0.74253 1.27,1.3803 0.2336,0.63777 0.12943,0.61008 1.2148,2.7055 1.0854,2.0954 8.3433,4.3369 9.6627,7.0396 1.3194,2.7027 0.6452,5.4089 -0.62097,6.9432 -1.2662,1.5343 -5.2822,-0.78064 -6.0459,1.7394 -0.76372,2.52 4.79,7.4558 7.2747,8.5994 2.4847,1.1436 5.31,0.51807 6.9708,-0.0416 1.6608,-0.55966 3.3534,-0.51784 3.7683,-2.8298 0.41485,-2.312 -5.603,-6.5453 -5.922,-9.2068 -0.31893,-2.6615 0.17224,-5.1181 2.2636,-6.5429 2.09136,-1.4248 7.3283,2.4447 9.9386,0.41385 2.6103,-2.03085 0.85736,-8.9813 2.4843,-11.844 1.627,-2.8622 6.7707,-4.3489 7.2467,-6.6673 z"
               id="path330"
               inkscape:connector-curvature="0"
               style="fill:#93b279;fill-rule:evenodd" />
            <path
               d="m 483.14,-316.46 c 1.7134,-1.2307 0.0963,-6.6021 0.98775,-8.8496 0.89144,-2.2475 4.5574,-4.24 4.3317,-5.7689 -0.22571,-1.5289 2.0964,-2.2726 0.50603,-2.0358 -1.5904,0.23674 -6.8249,5.3657 -7.5626,6.3201 -0.7377,0.9544 -0.2099,0.20544 -0.25665,0.32106 -0.0468,0.11562 0.26549,-0.96373 -0.0395,0.41856 -0.30504,1.3823 -0.4133,7.1254 0.62177,8.9829 1.0351,1.8575 -0.30188,1.8425 1.4115,0.61179 z"
               id="path332"
               inkscape:connector-curvature="0"
               style="fill:#829a6b;fill-rule:evenodd" />
            <path
               d="m 475.15,-325.24 c 0.16362,-1.7245 -7.6493,-9.6448 -8.5152,-10.64 -0.86588,-0.99517 -0.15069,-0.19229 -0.23274,-0.25297 -0.0821,-0.0607 0.425,0.20348 -0.30358,-0.14533 -0.72858,-0.34882 -3.4014,-2.5874 -4.5536,-2.1801 -1.1522,0.4073 -1.7235,1.6883 -1.3329,2.7975 0.39062,1.1092 2.7586,0.87142 4.2712,2.0577 1.5126,1.1863 3.4686,6.0723 5.137,6.2295 1.6684,0.15721 5.3662,3.8581 5.5298,2.1336 z"
               id="path334"
               inkscape:connector-curvature="0"
               style="fill:#829a6b;fill-rule:evenodd" />
            <path
               d="m 467.01,-318.82 c 0.56253,-2.2212 -8.0514,-12.919 -10.392,-13.372 -2.3406,-0.453 -2.1183,-0.6119 -2.5711,1.7286 -0.45278,2.3405 7.7396,10.502 7.9348,8.6233 0.1952,-1.8787 4.4657,5.241 5.0283,3.0198 z"
               id="path336"
               inkscape:connector-curvature="0"
               style="fill:#829a6b;fill-rule:evenodd" />
            <path
               d="m 476.43,-300.31 -5.4921,-11.51 c 0,0 -2.431,4.8395 -2.5986,6.6389 -0.1676,1.7994 3.8859,6.704 5.6852,6.8716 1.7993,0.16762 2.4055,-2.0009 2.4055,-2.0009 z"
               id="path338"
               inkscape:connector-curvature="0"
               style="fill:#829a6b;fill-rule:evenodd" />
          </g>
        </g>
      </g>
    </g>
  </g>
</svg>
