<?xml version="1.0" encoding="UTF-8" standalone="no"?>
<!-- Generator: Adobe Illustrator 10.0, SVG Export Plug-In . SVG Version: 3.0.0 Build 77)  -->

<svg
   xmlns:ns5="http://ns.adobe.com/SaveForWeb/1.0/"
   xmlns:ns4="http://ns.adobe.com/Variables/1.0/"
   xmlns:a="http://ns.adobe.com/AdobeSVGViewerExtensions/3.0/"
   xmlns:ns3="http://ns.adobe.com/AdobeIllustrator/10.0/"
   xmlns:dc="http://purl.org/dc/elements/1.1/"
   xmlns:cc="http://creativecommons.org/ns#"
   xmlns:rdf="http://www.w3.org/1999/02/22-rdf-syntax-ns#"
   xmlns:svg="http://www.w3.org/2000/svg"
   xmlns="http://www.w3.org/2000/svg"
   xmlns:sodipodi="http://sodipodi.sourceforge.net/DTD/sodipodi-0.dtd"
   xmlns:inkscape="http://www.inkscape.org/namespaces/inkscape"
   ns3:viewOrigin="59.2236 540.0425"
   ns3:rulerOrigin="0 0"
   ns3:pageBounds="0 792 612 0"
   width="127.9995"
   height="71.537003"
   viewBox="0 0 127.9995 71.537008"
   overflow="visible"
   enable-background="new 0 0 507.713 283.735"
   xml:space="preserve"
   version="1.1"
   id="svg150"
   sodipodi:docname="whale.svg"
   inkscape:version="0.92.2 (5c3e80d, 2017-08-06)"
   style="overflow:visible"><defs
     id="defs154"><linearGradient
       id="XMLID_1_"
       gradientUnits="userSpaceOnUse"
       x1="-418.5444"
       y1="1246.4409"
       x2="-418.54449"
       y2="640.30029"
       gradientTransform="matrix(0.5821,-0.2154,0.2154,0.5821,293.4364,-527.0979)"><stop
         offset="0.12"
         style="stop-color:#000000"
         id="stop4" /><stop
         offset="0.88"
         style="stop-color:#000000"
         id="stop6" /><a:midPointStop
         offset="0.12"
         style="stop-color:#000000" /><a:midPointStop
         offset="0.5"
         style="stop-color:#000000" /><a:midPointStop
         offset="0.88"
         style="stop-color:#000000" /></linearGradient><linearGradient
       id="XMLID_2_"
       gradientUnits="userSpaceOnUse"
       x1="-619.65869"
       y1="939.41357"
       x2="-619.65869"
       y2="643.0249"
       gradientTransform="matrix(0.5821,-0.2154,0.2154,0.5821,293.4364,-527.0979)"><stop
         offset="0.1"
         style="stop-color:#64777D"
         id="stop11" /><stop
         offset="0.9"
         style="stop-color:#6FABBC"
         id="stop13" /><a:midPointStop
         offset="0.1"
         style="stop-color:#64777D" /><a:midPointStop
         offset="0.5"
         style="stop-color:#64777D" /><a:midPointStop
         offset="0.9"
         style="stop-color:#6FABBC" /></linearGradient><linearGradient
       id="XMLID_3_"
       gradientUnits="userSpaceOnUse"
       x1="-587.04437"
       y1="789.4751"
       x2="-587.04437"
       y2="691.32178"
       gradientTransform="matrix(0.5821,-0.2154,0.2154,0.5821,293.4364,-527.0979)"><stop
         offset="0.09"
         style="stop-color:#7A97A3"
         id="stop18" /><stop
         offset="0.91"
         style="stop-color:#59BBD2"
         id="stop20" /><a:midPointStop
         offset="0.09"
         style="stop-color:#7A97A3" /><a:midPointStop
         offset="0.5"
         style="stop-color:#7A97A3" /><a:midPointStop
         offset="0.91"
         style="stop-color:#59BBD2" /></linearGradient><linearGradient
       id="XMLID_4_"
       gradientUnits="userSpaceOnUse"
       x1="-538.75928"
       y1="824.74658"
       x2="-538.75928"
       y2="701.35992"
       gradientTransform="matrix(0.5821,-0.2154,0.2154,0.5821,293.4364,-527.0979)"><stop
         offset="0.11"
         style="stop-color:#7A97A3"
         id="stop25" /><stop
         offset="0.89"
         style="stop-color:#59BBD2"
         id="stop27" /><a:midPointStop
         offset="0.11"
         style="stop-color:#7A97A3" /><a:midPointStop
         offset="0.5"
         style="stop-color:#7A97A3" /><a:midPointStop
         offset="0.89"
         style="stop-color:#59BBD2" /></linearGradient><linearGradient
       id="XMLID_5_"
       gradientUnits="userSpaceOnUse"
       x1="-381.88281"
       y1="1179.98"
       x2="-381.88281"
       y2="705.5874"
       gradientTransform="matrix(0.5821,-0.2154,0.2154,0.5821,293.4364,-527.0979)"><stop
         offset="0.1"
         style="stop-color:#6F838B"
         id="stop32" /><stop
         offset="0.9"
         style="stop-color:#4EBDD7"
         id="stop34" /><a:midPointStop
         offset="0.1"
         style="stop-color:#6F838B" /><a:midPointStop
         offset="0.5"
         style="stop-color:#6F838B" /><a:midPointStop
         offset="0.9"
         style="stop-color:#4EBDD7" /></linearGradient><linearGradient
       id="XMLID_6_"
       gradientUnits="userSpaceOnUse"
       x1="-543.06927"
       y1="755.49072"
       x2="-543.06927"
       y2="740.90192"
       gradientTransform="matrix(0.5821,-0.2154,0.2154,0.5821,293.4364,-527.0979)"><stop
         offset="0.1"
         style="stop-color:#000000"
         id="stop39" /><stop
         offset="0.9"
         style="stop-color:#000000"
         id="stop41" /><a:midPointStop
         offset="0.1"
         style="stop-color:#000000" /><a:midPointStop
         offset="0.5"
         style="stop-color:#000000" /><a:midPointStop
         offset="0.9"
         style="stop-color:#000000" /></linearGradient><linearGradient
       id="XMLID_7_"
       gradientUnits="userSpaceOnUse"
       x1="-540.7832"
       y1="754.19678"
       x2="-540.7832"
       y2="741.90479"
       gradientTransform="matrix(0.5821,-0.2154,0.2154,0.5821,293.4364,-527.0979)"><stop
         offset="0.07"
         style="stop-color:#7A97A3"
         id="stop46" /><stop
         offset="0.93"
         style="stop-color:#59BBD2"
         id="stop48" /><a:midPointStop
         offset="0.07"
         style="stop-color:#7A97A3" /><a:midPointStop
         offset="0.5"
         style="stop-color:#7A97A3" /><a:midPointStop
         offset="0.93"
         style="stop-color:#59BBD2" /></linearGradient><linearGradient
       id="XMLID_8_"
       gradientUnits="userSpaceOnUse"
       x1="-543.21832"
       y1="751.59332"
       x2="-543.21832"
       y2="744.42822"
       gradientTransform="matrix(0.5821,-0.2154,0.2154,0.5821,293.4364,-527.0979)"><stop
         offset="0.11"
         style="stop-color:#F0E8B4"
         id="stop53" /><stop
         offset="0.89"
         style="stop-color:#BEA458"
         id="stop55" /><a:midPointStop
         offset="0.11"
         style="stop-color:#F0E8B4" /><a:midPointStop
         offset="0.5"
         style="stop-color:#F0E8B4" /><a:midPointStop
         offset="0.89"
         style="stop-color:#BEA458" /></linearGradient><linearGradient
       id="XMLID_9_"
       gradientUnits="userSpaceOnUse"
       x1="-365.37061"
       y1="1109.8296"
       x2="-365.37061"
       y2="815.47607"
       gradientTransform="matrix(0.5821,-0.2154,0.2154,0.5821,293.4364,-527.0979)"><stop
         offset="0.11"
         style="stop-color:#64777D"
         id="stop60" /><stop
         offset="0.89"
         style="stop-color:#6FABBC"
         id="stop62" /><a:midPointStop
         offset="0.11"
         style="stop-color:#64777D" /><a:midPointStop
         offset="0.5"
         style="stop-color:#64777D" /><a:midPointStop
         offset="0.89"
         style="stop-color:#6FABBC" /></linearGradient><linearGradient
       id="XMLID_10_"
       gradientUnits="userSpaceOnUse"
       x1="-473.2363"
       y1="884.32758"
       x2="-473.2363"
       y2="832.67432"
       gradientTransform="matrix(0.5821,-0.2154,0.2154,0.5821,293.4364,-527.0979)"><stop
         offset="0.14"
         style="stop-color:#64777D"
         id="stop67" /><stop
         offset="0.86"
         style="stop-color:#59BBD2"
         id="stop69" /><a:midPointStop
         offset="0.14"
         style="stop-color:#64777D" /><a:midPointStop
         offset="0.5"
         style="stop-color:#64777D" /><a:midPointStop
         offset="0.86"
         style="stop-color:#59BBD2" /></linearGradient><linearGradient
       id="XMLID_11_"
       gradientUnits="userSpaceOnUse"
       x1="-454.62451"
       y1="1069.6851"
       x2="-454.62451"
       y2="842.51898"
       gradientTransform="matrix(0.5821,-0.2154,0.2154,0.5821,293.4364,-527.0979)"><stop
         offset="0.05"
         style="stop-color:#64777D"
         id="stop74" /><stop
         offset="0.95"
         style="stop-color:#59BBD2"
         id="stop76" /><a:midPointStop
         offset="0.05"
         style="stop-color:#64777D" /><a:midPointStop
         offset="0.5"
         style="stop-color:#64777D" /><a:midPointStop
         offset="0.95"
         style="stop-color:#59BBD2" /></linearGradient><linearGradient
       id="XMLID_12_"
       gradientUnits="userSpaceOnUse"
       x1="-303.87451"
       y1="900.57568"
       x2="-303.87451"
       y2="848.92432"
       gradientTransform="matrix(0.5821,-0.2154,0.2154,0.5821,293.4364,-527.0979)"><stop
         offset="0.13"
         style="stop-color:#64777D"
         id="stop81" /><stop
         offset="0.87"
         style="stop-color:#59BBD2"
         id="stop83" /><a:midPointStop
         offset="0.13"
         style="stop-color:#64777D" /><a:midPointStop
         offset="0.5"
         style="stop-color:#64777D" /><a:midPointStop
         offset="0.87"
         style="stop-color:#59BBD2" /></linearGradient><linearGradient
       id="XMLID_13_"
       gradientUnits="userSpaceOnUse"
       x1="-642.66022"
       y1="1136.73"
       x2="-642.66022"
       y2="931.88232"
       gradientTransform="matrix(0.5821,-0.2154,0.2154,0.5821,293.4364,-527.0979)"><stop
         offset="0.06"
         style="stop-color:#64777D"
         id="stop88" /><stop
         offset="0.94"
         style="stop-color:#6FABBC"
         id="stop90" /><a:midPointStop
         offset="0.06"
         style="stop-color:#64777D" /><a:midPointStop
         offset="0.5"
         style="stop-color:#64777D" /><a:midPointStop
         offset="0.94"
         style="stop-color:#6FABBC" /></linearGradient><linearGradient
       id="XMLID_14_"
       gradientUnits="userSpaceOnUse"
       x1="-143.021"
       y1="1243.3101"
       x2="-143.021"
       y2="1132.0239"
       gradientTransform="matrix(0.5821,-0.2154,0.2154,0.5821,293.4364,-527.0979)"><stop
         offset="0.09"
         style="stop-color:#4F5C60"
         id="stop95" /><stop
         offset="0.91"
         style="stop-color:#759DAA"
         id="stop97" /><a:midPointStop
         offset="0.09"
         style="stop-color:#4F5C60" /><a:midPointStop
         offset="0.5"
         style="stop-color:#4F5C60" /><a:midPointStop
         offset="0.91"
         style="stop-color:#759DAA" /></linearGradient><linearGradient
       id="XMLID_15_"
       gradientUnits="userSpaceOnUse"
       x1="-234.7856"
       y1="1196.2573"
       x2="-234.7856"
       y2="1133.4771"
       gradientTransform="matrix(0.5821,-0.2154,0.2154,0.5821,293.4364,-527.0979)"><stop
         offset="0.16"
         style="stop-color:#4F5C60"
         id="stop102" /><stop
         offset="0.84"
         style="stop-color:#759DAA"
         id="stop104" /><a:midPointStop
         offset="0.16"
         style="stop-color:#4F5C60" /><a:midPointStop
         offset="0.5"
         style="stop-color:#4F5C60" /><a:midPointStop
         offset="0.84"
         style="stop-color:#759DAA" /></linearGradient></defs><sodipodi:namedview
     pagecolor="#ffffff"
     bordercolor="#666666"
     borderopacity="1"
     objecttolerance="10"
     gridtolerance="10"
     guidetolerance="10"
     inkscape:pageopacity="0"
     inkscape:pageshadow="2"
     inkscape:window-width="1920"
     inkscape:window-height="1025"
     id="namedview152"
     showgrid="false"
     inkscape:zoom="2.4344462"
     inkscape:cx="16.489095"
     inkscape:cy="0.5242451"
     inkscape:window-x="-8"
     inkscape:window-y="-8"
     inkscape:window-maximized="1"
     inkscape:current-layer="svg150"
     fit-margin-top="0"
     fit-margin-left="0"
     fit-margin-right="0"
     fit-margin-bottom="0" /><metadata
     id="metadata2"><rdf:RDF><cc:Work
         rdf:about=""><dc:title></dc:title><dc:description>Animal</dc:description><dc:subject><rdf:Bag><rdf:li>animal</rdf:li><rdf:li>mammal</rdf:li><rdf:li>whale</rdf:li></rdf:Bag></dc:subject><dc:publisher><cc:Agent
             rdf:about="http://www.openclipart.org/"><dc:title>Open Clip Art Project</dc:title></cc:Agent></dc:publisher><dc:creator><cc:Agent
             rdf:about=""><dc:title>ArtFavor</dc:title></cc:Agent></dc:creator><dc:rights><cc:Agent
             rdf:about="http://web.resource.org/cc/PublicDomain"><dc:title>Public Domain</dc:title></cc:Agent></dc:rights><dc:date>2005/10/03</dc:date><dc:format>image/svg+xml</dc:format><dc:type
           rdf:resource="http://purl.org/dc/dcmitype/StillImage">http://purl.org/dc/dcmitype/StillImage</dc:type><cc:license
           rdf:resource="http://creativecommons.org/publicdomain/zero/1.0/" /></cc:Work><cc:License
         rdf:about="http://creativecommons.org/publicdomain/zero/1.0/"><cc:permits
           rdf:resource="http://creativecommons.org/ns#Reproduction" /><cc:permits
           rdf:resource="http://creativecommons.org/ns#Distribution" /><cc:permits
           rdf:resource="http://creativecommons.org/ns#DerivativeWorks" /></cc:License></rdf:RDF><ns4:variableSets><ns4:variableSet
         varSetName="binding1"
         locked="none"><ns4:variables /><ns4:sampleDataSets /></ns4:variableSet></ns4:variableSets><ns5:sfw><ns5:slices /><ns5:sliceSourceBounds
         y="256.308"
         x="59.224"
         width="507.713"
         height="283.735"
         bottomLeftOrigin="true" /></ns5:sfw></metadata><g
     id="g1307"
     transform="matrix(0.25209066,0,0,0.25209066,0.00758573,-1.2901329e-4)"><path
       inkscape:connector-curvature="0"
       style="clip-rule:evenodd;fill:url(#XMLID_1_);fill-rule:evenodd;stroke:#000000;stroke-width:0;stroke-linejoin:bevel;stroke-miterlimit:2.41420007"
       id="path9"
       d="m 6.611,2.997 c 5.712,-0.629 7.182,-4.931 25.854,-1.962 58.343,12.596 83.67,-0.71 131.538,15.237 5.854,2.118 13.309,2.417 20.707,2.566 30.264,1.216 60.644,6.76 91.777,17.884 3.025,1.328 16.787,-0.704 30.285,2.695 13.42,3.428 26.549,12.208 19.149,14.42 -3.404,1.435 -2.823,4.894 0.909,7.184 43.39,30.543 77.044,57.696 108.498,107.257 1.371,2.29 2.365,3.322 5.27,4.083 22.012,7.503 35.563,20.501 51.475,35.857 7.555,6.472 15,4.855 15.64,7.766 0.513,7.765 -21.569,3.607 -28.351,-2.187 -4.68,-5.089 -27.118,-5.003 -37.516,-12.786 -0.929,-0.617 -1.76,0.917 -2.901,0.898 -7.043,21.843 -38.172,16.398 -43.136,23.308 -4.064,8.149 -10.494,12.278 -10.342,-0.545 1.127,-18.688 10.224,-31.671 23.948,-47.507 1.208,-1.932 -1.334,-4.314 -4.313,-5.748 -18.824,-7.633 -33.001,-18.298 -51.42,-24.598 -27.38,-6.656 -65.85,1.373 -90.059,-4.269 10.569,21.706 29.33,30.586 28.003,33.614 -6.588,11.967 -22.912,16.521 -35.256,16.718 -9.622,-0.724 -5.782,-5.465 -12.554,-6.282 -6.286,-0.211 -1.844,-6.4 -8.843,-10.191 -6.675,-3.391 -0.444,-10.418 -7.073,-13.209 -17.263,-5.064 -3.259,-11.647 -9.35,-16.997 -10.663,-8.732 1.219,-8.758 -8.795,-14.319 -5.155,-2.116 -15.353,-5.336 -19.229,-7.311 -6.569,-3.34 0.751,30.147 -6.347,44.751 -22.942,34.632 -28.816,74.052 -41.187,111.5 -1.028,2.655 -2.257,3.11 -4.082,2.91 -7.19,-1.709 -10.394,-8.479 -12.528,-14.248 -9.136,-28.705 10.224,-57.9 6.167,-67.681 -5.327,-12.977 8.551,-4.301 6.461,-9.472 -5.983,-16.408 5.536,-10.793 2.625,-16.534 -4.083,-9.854 5.775,-17 1.016,-26.078 -1.891,-2.275 -1.428,-4.805 3.53,-6.292 8,-3.66 5.413,-13.018 7.122,-20.207 0.875,-6.619 5.293,-14.288 1.262,-16.205 C 107.131,93.183 79.86,52.567 32.7,41.603 28.645,40.567 23.738,43.608 20.831,38.826 17.923,34.744 13.279,34.714 11.34,30.186 7.292,23.027 2.673,21.415 0.525,14.429 -1.354,9.352 1.752,3.568 6.611,2.997 Z"
       stroke-miterlimit="2.4142"
       ns3:knockout="Off" /><path
       inkscape:connector-curvature="0"
       style="clip-rule:evenodd;fill:url(#XMLID_2_);fill-rule:evenodd;stroke:#000000;stroke-width:0;stroke-linejoin:bevel;stroke-miterlimit:2.41420007"
       id="path16"
       d="m 8.161,4.346 c 4.146,-0.136 7.933,-3.372 12.487,-2.872 18.869,1.848 33.191,3.455 55.3,8.387 20.839,5.753 33.873,27.51 46.362,35.74 16.497,11.032 35.525,5.04 50.412,19.989 3.387,6.791 3.046,8.23 1.483,9.681 3.042,0.186 1.054,2.845 8.843,10.192 8.546,9.864 8.676,15.411 15.162,31.284 2.258,3.973 7.154,5.396 8.805,9.855 -19.069,-2.385 -37.974,-18.035 -56.259,-25.866 C 138.887,95.597 121.833,91.329 109.939,83.052 83.976,64.158 62.184,43.543 29.985,39.46 18.988,38.807 24.081,35.088 18.521,33.997 11.658,31.992 16.141,29.458 8.92,23.649 -4.057,13.15 3.026,4.41 8.161,4.346 Z"
       stroke-miterlimit="2.4142"
       ns3:knockout="Off" /><path
       inkscape:connector-curvature="0"
       style="clip-rule:evenodd;fill:url(#XMLID_3_);fill-rule:evenodd;stroke:#000000;stroke-width:0;stroke-linejoin:bevel;stroke-miterlimit:2.41420007"
       id="path23"
       d="m 79.828,9.476 c 4.251,-0.088 8.989,0.432 14.239,0.675 22.49,5.492 22.25,33.908 48.506,41.066 C 111.865,48.329 104.517,17.126 79.828,9.476 Z"
       stroke-miterlimit="2.4142"
       ns3:knockout="Off" /><path
       inkscape:connector-curvature="0"
       style="clip-rule:evenodd;fill:url(#XMLID_4_);fill-rule:evenodd;stroke:#000000;stroke-width:0;stroke-linejoin:bevel;stroke-miterlimit:2.41420007"
       id="path30"
       d="m 96.755,9.855 c 24.855,2.432 29.724,37.088 58.66,36.608 5.508,0.237 17.791,-5.794 34.298,4.794 C 185.951,51.25 174.939,52.44 174.01,62.926 160.033,52.8 140.728,51.9 128.208,41.931 117.074,31.452 112.612,15.616 96.755,9.855 Z"
       stroke-miterlimit="2.4142"
       ns3:knockout="Off" /><path
       inkscape:connector-curvature="0"
       style="clip-rule:evenodd;fill:url(#XMLID_5_);fill-rule:evenodd;stroke:#000000;stroke-width:0;stroke-linejoin:bevel;stroke-miterlimit:2.41420007"
       id="path37"
       d="m 103.818,10.04 c 36.664,-2.989 56.744,8.99 65.707,9.346 46.291,1.053 104.41,12.334 141.457,33.771 49.33,30.533 94.515,67.582 123.369,116.966 -1.79,-0.82 -3.94,-3.085 -5.366,-1.508 -3.303,4.544 3.654,19.803 11.995,30.531 -9.188,7.773 -35.255,-42.82 -57.652,-54.205 C 371.429,140.427 335.779,102.209 317.861,91.355 286.973,70.262 262.67,68.85 256.316,68.929 228.536,68.279 202.619,51.642 176.624,44.474 163.963,40.503 155.606,46.743 142.888,42.618 124.03,33.948 119.858,15.821 103.818,10.04 Z"
       stroke-miterlimit="2.4142"
       ns3:knockout="Off" /><path
       inkscape:connector-curvature="0"
       style="clip-rule:evenodd;fill:url(#XMLID_6_);fill-rule:evenodd;stroke:#000000;stroke-width:0;stroke-linejoin:bevel;stroke-miterlimit:2.41420007"
       id="path44"
       d="m 133.494,22.665 c 1.938,0.507 3.295,-3.144 7.388,-1.774 3.234,2.127 2.495,4.849 3.196,6.512 0.533,1.203 -0.638,1.111 -2.227,0.125 -0.865,0.494 -3.343,0.889 -5.03,0.113 -1.875,-1.056 -2.051,-2.477 -2.721,-3.102 -1.07,-1.003 -3.342,-1.475 -0.606,-1.874 z"
       stroke-miterlimit="2.4142"
       ns3:knockout="Off" /><path
       inkscape:connector-curvature="0"
       style="clip-rule:evenodd;fill:url(#XMLID_7_);fill-rule:evenodd;stroke:#000000;stroke-width:0;stroke-linejoin:bevel;stroke-miterlimit:2.41420007"
       id="path51"
       d="m 135.981,22.533 c 2.263,-2.15 6.427,-1.769 7.429,4.244 0.475,3.409 -2.082,-4.913 -7.429,-4.244 z"
       stroke-miterlimit="2.4142"
       ns3:knockout="Off" /><path
       inkscape:connector-curvature="0"
       style="clip-rule:evenodd;fill:url(#XMLID_8_);fill-rule:evenodd;stroke:#000000;stroke-width:0;stroke-linejoin:bevel;stroke-miterlimit:2.41420007"
       id="path58"
       d="m 136.638,23.601 c 0,0 1.122,0.195 1.755,0.485 -1.801,1.279 0.501,3.487 1.548,1.351 0.498,0.165 1.005,0.589 1.204,1.129 -0.676,0.774 -2.711,1.177 -4.012,0.26 -1.188,-0.609 -1.802,-2.742 -0.495,-3.225 z"
       stroke-miterlimit="2.4142"
       ns3:knockout="Off" /><path
       inkscape:connector-curvature="0"
       style="clip-rule:evenodd;fill:url(#XMLID_9_);fill-rule:evenodd;stroke:#000000;stroke-width:0;stroke-linejoin:bevel;stroke-miterlimit:2.41420007"
       id="path65"
       d="m 196.519,53.111 c 13.843,3.621 35.187,14.519 50.267,16.284 7.653,0.84 29.982,3.768 40.169,7.43 54.038,20.572 58.723,48.827 96.965,71.134 9.299,4.34 18.182,16.527 19.681,18.682 -10.072,-3.354 -23.659,-10.304 -29.024,-14.876 -35.385,-28.521 -75.226,-3.638 -112.74,-12.398 -8.504,-14.952 -12.048,-43.191 -32.945,-50.76 -10.739,-4.682 4.398,-2.763 2.38,-8.923 -6.675,-12.13 -51.44,-24.418 -54.284,-10.601 -4.338,-8.887 3.784,-20.724 19.531,-15.972 z"
       stroke-miterlimit="2.4142"
       ns3:knockout="Off" /><path
       inkscape:connector-curvature="0"
       style="clip-rule:evenodd;fill:url(#XMLID_10_);fill-rule:evenodd;stroke:#000000;stroke-width:0;stroke-linejoin:bevel;stroke-miterlimit:2.41420007"
       id="path72"
       d="m 181.792,65.294 c 12.515,-4.456 33.871,1.979 46.618,12.562 2.37,1.921 1.404,3.327 0.268,4.273 -3.003,1.81 -6.353,0.077 -8.036,-1.399 -27.452,-25.512 -44.107,-8.857 -40.507,-2.669 -4.492,-4.109 -2.802,-11.117 1.657,-12.767 z"
       stroke-miterlimit="2.4142"
       ns3:knockout="Off" /><path
       inkscape:connector-curvature="0"
       style="clip-rule:evenodd;fill:url(#XMLID_11_);fill-rule:evenodd;stroke:#000000;stroke-width:0;stroke-linejoin:bevel;stroke-miterlimit:2.41420007"
       id="path79"
       d="m 220.64,85.453 c 5.28,8.363 16.303,-6.033 35.671,44.416 4.044,10.22 14.796,31.246 28.082,41.632 4.37,3.54 4.518,4.884 2.789,7.536 -6.215,9.904 -25.871,12.546 -32.203,11.739 -5.649,-0.619 -5.171,-6.654 -9.885,-6.396 -5.596,0.233 -3.736,-7.974 -7.771,-9.188 -6.838,-1.229 -2.938,-12.901 -8.471,-13.915 -14.764,-3.279 -1.697,-11.438 -8.451,-16.456 -8.775,-5.76 0.453,-9.175 -6.823,-13.477 -5.534,-2.671 -3.49,-7.539 -11.24,-12.889 -5.241,-4.007 -5.961,-17.291 -11.904,-25.321 -4.236,-5.777 -6.462,-8.013 -9.245,-14.589 -3.649,-8.442 22.018,-20.827 39.451,6.908 z"
       stroke-miterlimit="2.4142"
       ns3:knockout="Off" /><path
       inkscape:connector-curvature="0"
       style="clip-rule:evenodd;fill:url(#XMLID_12_);fill-rule:evenodd;stroke:#000000;stroke-width:0;stroke-linejoin:bevel;stroke-miterlimit:2.41420007"
       id="path86"
       d="m 282.649,38.727 c 12.549,0.6 34.207,1.242 42.32,11.354 2.009,3.541 -5.711,2.288 -2.588,8.126 -10.937,-7.581 -29.374,-16.058 -39.732,-19.48 z"
       stroke-miterlimit="2.4142"
       ns3:knockout="Off" /><path
       inkscape:connector-curvature="0"
       style="clip-rule:evenodd;fill:url(#XMLID_13_);fill-rule:evenodd;stroke:#000000;stroke-width:0;stroke-linejoin:bevel;stroke-miterlimit:2.41420007"
       id="path93"
       d="m 150.873,142.394 c -0.747,1.764 -2.161,4.559 -0.67,8.118 19.593,43.023 4.893,86.231 -8.799,130.03 -1.411,4.458 -9.825,-0.563 -13.172,-10.076 -5.033,-16.672 -1.74,-30.222 2.118,-45.548 2.283,-8.716 7.11,-15.048 3.78,-24.042 -3.376,-7.232 6.202,-4.745 8.011,-1.742 0.708,-6.121 -6.25,-14.998 -1.649,-17.926 3.009,-1.551 3.167,0.054 4.971,4.455 0.629,-7.751 -4.237,-12.156 -2.506,-17.169 2.711,-9.923 4.927,-14.324 2.317,-18.782 -3.588,-4.967 2.104,-3.049 5.599,-7.318 z"
       stroke-miterlimit="2.4142"
       ns3:knockout="Off" /><path
       inkscape:connector-curvature="0"
       style="clip-rule:evenodd;fill:url(#XMLID_14_);fill-rule:evenodd;stroke:#000000;stroke-width:0;stroke-linejoin:bevel;stroke-miterlimit:2.41420007"
       id="path100"
       d="m 493.031,211.275 c 4.78,4.174 11.424,3.465 10.711,6.264 -0.798,2.569 -16.517,0.254 -23.94,-5.394 -6.665,-5.486 -23.374,-3.15 -35.619,-11.908 -10.079,-8.335 -17.103,-26.372 -13.041,-29.099 3.383,-1.251 35.839,12.267 61.889,40.137 z"
       stroke-miterlimit="2.4142"
       ns3:knockout="Off" /><path
       inkscape:connector-curvature="0"
       style="clip-rule:evenodd;fill:url(#XMLID_15_);fill-rule:evenodd;stroke:#000000;stroke-width:0;stroke-linejoin:bevel;stroke-miterlimit:2.41420007"
       id="path107"
       d="m 437.393,201.261 c -8.977,20.635 -38.467,16.072 -41.233,21.119 -12.527,20.72 -16.744,-11.465 14.379,-42.656 5.211,-2.454 20.176,21.211 26.854,21.537 z"
       stroke-miterlimit="2.4142"
       ns3:knockout="Off" /><path
       style="clip-rule:evenodd;fill:none;fill-rule:evenodd;stroke:#000000;stroke-width:0.86400002;stroke-linejoin:bevel;stroke-miterlimit:2.41420007"
       inkscape:connector-curvature="0"
       id="path109"
       d="m 145.38,184.73 c 7.193,25.58 -5.274,43.398 -6.239,57.568 -0.507,10.679 6.411,15.2 4.678,29.653"
       stroke-miterlimit="2.4142"
       ns3:knockout="Off" /><path
       style="clip-rule:evenodd;fill:none;fill-rule:evenodd;stroke:#000000;stroke-width:0.86400002;stroke-linejoin:bevel;stroke-miterlimit:2.41420007"
       inkscape:connector-curvature="0"
       id="path111"
       d="m 142.123,198.614 c 0,0 5.429,9.708 1.213,25.955"
       stroke-miterlimit="2.4142"
       ns3:knockout="Off" /><path
       style="clip-rule:evenodd;fill:none;fill-rule:evenodd;stroke:#000000;stroke-width:0.86400002;stroke-linejoin:bevel;stroke-miterlimit:2.41420007"
       inkscape:connector-curvature="0"
       id="path113"
       d="m 205.121,121.01 c 17.594,19.193 53.64,19.495 71.284,42.603"
       stroke-miterlimit="2.4142"
       ns3:knockout="Off" /><path
       style="clip-rule:evenodd;fill:none;fill-rule:evenodd;stroke:#000000;stroke-width:0.86400002;stroke-linejoin:bevel;stroke-miterlimit:2.41420007"
       inkscape:connector-curvature="0"
       id="path115"
       d="m 214.496,132.404 c 13.57,11.151 23.27,7.125 35.686,12.323"
       stroke-miterlimit="2.4142"
       ns3:knockout="Off" /><path
       style="clip-rule:evenodd;fill:none;fill-rule:evenodd;stroke:#000000;stroke-width:0.86400002;stroke-linejoin:bevel;stroke-miterlimit:2.41420007"
       inkscape:connector-curvature="0"
       id="path117"
       d="m 53.75,5.399 c 44.713,6.71 42.619,44.992 65.627,48.106 53.089,7.372 34.533,27.875 55.558,21.844"
       stroke-miterlimit="2.4142"
       ns3:knockout="Off" /><path
       style="clip-rule:evenodd;fill:none;fill-rule:evenodd;stroke:#000000;stroke-width:0.86400002;stroke-linejoin:bevel;stroke-miterlimit:2.41420007"
       inkscape:connector-curvature="0"
       id="path119"
       d="m 33.167,2.699 c 36.293,3.095 52.899,48.444 76.786,52.982 41.587,7.955 31.795,21.896 48.597,24.771 16.78,3.057 20.882,15.791 33.24,18.473"
       stroke-miterlimit="2.4142"
       ns3:knockout="Off" /><path
       style="clip-rule:evenodd;fill:none;fill-rule:evenodd;stroke:#000000;stroke-width:0.86400002;stroke-linejoin:bevel;stroke-miterlimit:2.41420007"
       inkscape:connector-curvature="0"
       id="path121"
       d="m 20.62,1.396 c 26.257,0.076 62.001,47.524 84.039,55.808 35.583,13.937 28.533,19.692 40.762,25.571 12.23,5.879 14.824,1.072 24.112,5.854 9.441,4.723 16.403,16.923 26.573,22.428"
       stroke-miterlimit="2.4142"
       ns3:knockout="Off" /><path
       style="clip-rule:evenodd;fill:none;fill-rule:evenodd;stroke:#000000;stroke-width:0.86400002;stroke-linejoin:bevel;stroke-miterlimit:2.41420007"
       inkscape:connector-curvature="0"
       id="path123"
       d="M 12.917,3.023 C 7.764,7.29 26.436,21.364 36.758,24.452 49.17,27.989 71.231,40.11 79.459,45.808 c 15.062,9.989 28.057,27.388 43.68,36.292 15.653,8.984 36.085,11.042 49.329,17.768 13.292,6.623 19.613,9.529 26.478,17.918"
       stroke-miterlimit="2.4142"
       ns3:knockout="Off" /><path
       style="clip-rule:evenodd;fill:none;fill-rule:evenodd;stroke:#000000;stroke-width:0.86400002;stroke-linejoin:bevel;stroke-miterlimit:2.41420007"
       inkscape:connector-curvature="0"
       id="path125"
       d="m 1.58,10.191 c -1.052,3.537 17.205,18.376 37.604,23.417 12.291,2.971 31.76,10.455 42.013,18.552 11.152,8.637 17.203,20.737 27.646,27.452 10.518,6.687 20.833,8.814 34.137,14.996 13.485,6.2 35.505,9.943 47.138,20.588 8.47,7.533 8.234,6.658 15.785,9.109"
       stroke-miterlimit="2.4142"
       ns3:knockout="Off" /><path
       style="clip-rule:evenodd;fill:none;fill-rule:evenodd;stroke:#000000;stroke-width:0.86400002;stroke-linejoin:bevel;stroke-miterlimit:2.41420007"
       inkscape:connector-curvature="0"
       id="path127"
       d="m 9.148,24.263 c 2.58,2.718 8.14,6.17 13.695,8.66 5.527,2.413 15.308,4.739 21.332,7.318 6.054,2.657 11.232,5.549 15.203,8.713"
       stroke-miterlimit="2.4142"
       ns3:knockout="Off" /><path
       style="clip-rule:evenodd;fill:none;fill-rule:evenodd;stroke:#000000;stroke-width:0.86400002;stroke-linejoin:bevel;stroke-miterlimit:2.41420007"
       inkscape:connector-curvature="0"
       id="path129"
       d="m 18.72,34.536 c 4.8,1.634 10.894,1.564 13.532,2.075 2.714,0.482 5.991,1.542 6.049,1.695"
       stroke-miterlimit="2.4142"
       ns3:knockout="Off" /><path
       style="clip-rule:evenodd;fill:none;fill-rule:evenodd;stroke:#000000;stroke-width:0.86400002;stroke-linejoin:bevel;stroke-miterlimit:2.41420007"
       inkscape:connector-curvature="0"
       id="path131"
       d="m 234.462,91.617 c 8.09,4.612 16.347,8.027 24.784,9.801 8.411,1.697 21.67,-2.163 30.857,1.871"
       stroke-miterlimit="2.4142"
       ns3:knockout="Off" /><path
       style="clip-rule:evenodd;fill:none;fill-rule:evenodd;stroke:#000000;stroke-width:0.86400002;stroke-linejoin:bevel;stroke-miterlimit:2.41420007"
       inkscape:connector-curvature="0"
       id="path133"
       d="m 246.629,105.125 c 11.412,6.268 30.224,1.581 40.689,2.689 10.514,1.007 38.538,7.511 47.954,16.18"
       stroke-miterlimit="2.4142"
       ns3:knockout="Off" /><path
       style="clip-rule:evenodd;fill:none;fill-rule:evenodd;stroke:#000000;stroke-width:0.86400002;stroke-linejoin:bevel;stroke-miterlimit:2.41420007"
       inkscape:connector-curvature="0"
       id="path135"
       d="m 362.371,144.304 c -7.16,-6.356 -16.733,-9.546 -34.662,-15.938 -10.493,-3.549 -22.956,-11.001 -38.211,-14.188 -15.255,-3.188 -22.259,0.805 -39.456,-1.487"
       stroke-miterlimit="2.4142"
       ns3:knockout="Off" /><path
       style="clip-rule:evenodd;fill:none;fill-rule:evenodd;stroke:#000000;stroke-width:0.86400002;stroke-linejoin:bevel;stroke-miterlimit:2.41420007"
       inkscape:connector-curvature="0"
       id="path137"
       d="m 334.96,138.273 c -21.231,0.513 -44.237,-14.408 -54.063,-16.627 -9.829,-2.222 -18.637,-2.634 -27.272,-0.925"
       stroke-miterlimit="2.4142"
       ns3:knockout="Off" /><path
       style="clip-rule:evenodd;fill:none;fill-rule:evenodd;stroke:#000000;stroke-width:0.86400002;stroke-linejoin:bevel;stroke-miterlimit:2.41420007"
       inkscape:connector-curvature="0"
       id="path139"
       d="m 257.221,129.969 c 3.47,1.34 29.782,8.653 51.649,9.389"
       stroke-miterlimit="2.4142"
       ns3:knockout="Off" /><path
       style="clip-rule:evenodd;fill:none;fill-rule:evenodd;stroke:#000000;stroke-width:0.86400002;stroke-linejoin:bevel;stroke-miterlimit:2.41420007"
       inkscape:connector-curvature="0"
       id="path141"
       d="m 259.789,135.489 c 6.639,3.052 17.633,6.065 28.008,5.984"
       stroke-miterlimit="2.4142"
       ns3:knockout="Off" /></g></svg>