<?xml version="1.0" encoding="UTF-8" standalone="no"?>
<!-- Generator: Adobe Illustrator 12.0.1, SVG Export Plug-In . SVG Version: 6.00 Build 51448)  -->

<svg
   xmlns:dc="http://purl.org/dc/elements/1.1/"
   xmlns:cc="http://creativecommons.org/ns#"
   xmlns:rdf="http://www.w3.org/1999/02/22-rdf-syntax-ns#"
   xmlns:svg="http://www.w3.org/2000/svg"
   xmlns="http://www.w3.org/2000/svg"
   xmlns:sodipodi="http://sodipodi.sourceforge.net/DTD/sodipodi-0.dtd"
   xmlns:inkscape="http://www.inkscape.org/namespaces/inkscape"
   version="1.1"
   id="Layer_1"
   width="115.80051"
   height="128"
   viewBox="0 0 115.80051 128"
   overflow="visible"
   enable-background="new 0 0 246.433 272.398"
   xml:space="preserve"
   sodipodi:docname="zebra.svg"
   inkscape:version="0.92.2 (5c3e80d, 2017-08-06)"
   style="overflow:visible"><metadata
     id="metadata237"><rdf:RDF><cc:Work
         rdf:about=""><dc:format>image/svg+xml</dc:format><dc:type
           rdf:resource="http://purl.org/dc/dcmitype/StillImage" /><dc:title></dc:title><cc:license
           rdf:resource="http://creativecommons.org/publicdomain/zero/1.0/" /></cc:Work><cc:License
         rdf:about="http://creativecommons.org/publicdomain/zero/1.0/"><cc:permits
           rdf:resource="http://creativecommons.org/ns#Reproduction" /><cc:permits
           rdf:resource="http://creativecommons.org/ns#Distribution" /><cc:permits
           rdf:resource="http://creativecommons.org/ns#DerivativeWorks" /></cc:License></rdf:RDF></metadata><defs
     id="defs235" /><sodipodi:namedview
     pagecolor="#ffffff"
     bordercolor="#666666"
     borderopacity="1"
     objecttolerance="10"
     gridtolerance="10"
     guidetolerance="10"
     inkscape:pageopacity="0"
     inkscape:pageshadow="2"
     inkscape:window-width="1920"
     inkscape:window-height="1025"
     id="namedview233"
     showgrid="false"
     inkscape:zoom="0.86637931"
     inkscape:cx="-95.612709"
     inkscape:cy="64.000028"
     inkscape:window-x="-8"
     inkscape:window-y="-8"
     inkscape:window-maximized="1"
     inkscape:current-layer="Layer_1"
     fit-margin-top="0"
     fit-margin-left="0"
     fit-margin-right="0"
     fit-margin-bottom="0" /><g
     id="g230"
     transform="matrix(0.46990054,0,0,0.46990054,5.078625e-4,0)"><path
       d="m 15.097,5.204 c 3.208,2.343 4.465,6.638 6.245,10.409 -4.951,1.322 -6.67,-6.139 -6.245,-10.409 z"
       id="path2"
       inkscape:connector-curvature="0"
       style="clip-rule:evenodd;fill:#ffffff;fill-rule:evenodd" /><path
       d="m 27.587,13.531 c -0.12,3.488 -2.282,7.665 -5.204,9.888 1.738,-4.382 0.563,-9.857 -2.082,-14.572 2.296,-0.258 5.238,2.994 7.286,4.684 z"
       id="path4"
       inkscape:connector-curvature="0"
       style="clip-rule:evenodd;fill:#ffffff;fill-rule:evenodd" /><path
       d="m 57.251,10.929 c -1.203,3.654 -2.473,7.242 -4.164,10.409 2.81,3.871 -0.139,9.598 -1.041,15.092 -0.788,4.795 1.101,10.498 -2.602,12.49 -0.77,-12.159 2.116,-17.766 3.123,-26.542 -4.103,-3.048 -1.534,-9.55 0.52,-13.531 2.475,-0.392 2.852,1.312 4.164,2.082 z"
       id="path6"
       inkscape:connector-curvature="0"
       style="clip-rule:evenodd;fill:#ffffff;fill-rule:evenodd" /><path
       d="m 28.107,19.255 c 0.539,2.571 1.123,6.456 -1.562,7.286 -0.031,-2.98 1.484,-4.415 1.562,-7.286 z"
       id="path8"
       inkscape:connector-curvature="0"
       style="clip-rule:evenodd;fill:#ffffff;fill-rule:evenodd" /><path
       d="m 74.945,21.337 c -1.724,3.133 -4.623,5.091 -5.725,8.847 -1.42,0.379 -1.047,-1.034 -2.082,-1.041 -0.693,2.256 -0.878,5.021 -1.041,7.807 -1.787,-2.203 -2.528,-5.452 -2.602,-9.368 4.907,-1.36 5.226,-10.745 11.45,-6.245 z"
       id="path10"
       inkscape:connector-curvature="0"
       style="clip-rule:evenodd;fill:#ffffff;fill-rule:evenodd" /><path
       d="m 57.251,23.939 c 0.521,0 1.041,0 1.562,0 1.468,13.073 -0.352,31.454 -8.327,38.511 3.49,-11.731 8.722,-25.341 6.765,-38.511 z"
       id="path12"
       inkscape:connector-curvature="0"
       style="clip-rule:evenodd;fill-rule:evenodd" /><path
       d="m 79.109,24.46 c 0.463,0.23 0.931,0.457 1.041,1.041 1.037,3.811 -1.914,4.711 -2.602,8.847 -0.133,0.799 1.072,1.329 1.041,2.603 -0.022,0.918 -1.127,1.378 -1.041,2.082 0.408,3.328 2.165,5.943 1.562,9.368 -0.427,2.425 -3.506,6.247 -4.164,8.847 -3.372,13.33 -3.275,25.549 -15.092,28.623 -2.425,-1.392 -5.245,-2.387 -7.286,-4.163 0.193,-1.334 2.918,0.218 4.684,0 4.227,-2.996 8.051,-8.336 10.929,-14.052 2.456,-4.876 3.104,-9.498 4.684,-15.092 1.185,-4.194 4.28,-8.21 3.643,-12.49 -0.587,-3.947 -4.246,-4.463 -5.725,-6.765 2.537,-3.189 5.823,-5.627 8.326,-8.849 z"
       id="path14"
       inkscape:connector-curvature="0"
       style="clip-rule:evenodd;fill:#ffffff;fill-rule:evenodd" /><path
       d="m 36.434,27.583 c 2.372,-1.535 2.792,1.955 2.082,4.163 -0.323,2.194 2.832,2.632 1.562,4.164 -4.212,-0.491 -3.191,-5.233 -3.644,-8.327 z"
       id="path16"
       inkscape:connector-curvature="0"
       style="clip-rule:evenodd;fill-rule:evenodd" /><path
       d="m 41.638,29.144 c 3.345,-1.774 2.81,6.062 2.082,7.286 -3.606,-0.288 -0.24,-4.847 -2.082,-7.286 z"
       id="path18"
       inkscape:connector-curvature="0"
       style="clip-rule:evenodd;fill-rule:evenodd" /><path
       d="m 68.18,32.787 c 4.147,11.683 -4.319,23.601 -7.806,32.787 -1.737,2.08 -4.842,2.791 -5.204,6.245 4.021,2.971 6.781,-2.845 8.327,-5.204 5.903,-9.014 6.016,-18.791 8.327,-30.705 3.749,18.688 -5.389,33.455 -15.613,41.634 -3.329,0.554 -3.796,-1.755 -7.286,-1.041 1.411,-2.059 2.265,-4.674 3.123,-7.286 1.642,-0.614 2.891,-1.619 4.163,-2.602 4.495,-10.771 9.485,-21.047 11.969,-33.828 z"
       id="path20"
       inkscape:connector-curvature="0"
       style="clip-rule:evenodd;fill:#ffffff;fill-rule:evenodd" /><path
       d="m 20.821,37.47 c 0.463,0.231 0.931,0.457 1.041,1.041 -5.211,8.32 -7.052,20.01 -13.531,27.062 -1.1,-0.884 1.936,-6.295 3.643,-7.807 1.905,-7.809 5.665,-13.764 8.847,-20.296 z"
       id="path22"
       inkscape:connector-curvature="0"
       style="clip-rule:evenodd;fill-rule:evenodd" /><path
       d="m 27.587,40.593 c -1.62,6.188 -7.006,13.115 -9.888,19.776 1.403,-6.406 4.576,-15.545 9.888,-19.776 z"
       id="path24"
       inkscape:connector-curvature="0"
       style="clip-rule:evenodd;fill-rule:evenodd" /><path
       d="m 84.833,44.236 c 0.672,-1.3 2.523,0.55 2.082,2.082 -1.222,-0.167 -1.165,-1.611 -2.082,-2.082 z"
       id="path26"
       inkscape:connector-curvature="0"
       style="clip-rule:evenodd;fill:#ffffff;fill-rule:evenodd" /><path
       d="m 41.118,44.236 c 1.71,3.849 -7.053,6.088 -8.847,9.888 -4.456,-1.659 -7.766,0.871 -10.408,2.602 0.704,-3.287 3.547,-4.433 4.684,-7.286 6.953,1.843 11.835,-1.273 14.571,-5.204 z"
       id="path28"
       inkscape:connector-curvature="0"
       style="clip-rule:evenodd;fill-rule:evenodd" /><path
       d="m 94.721,54.645 c 1.394,0.341 1.979,1.49 3.123,2.082 -6.334,16.044 -1.81,42.947 -18.735,48.399 1.612,-6.246 5.585,-10.064 8.327,-16.133 4.396,-9.731 2.899,-23.33 7.286,-32.787 -10e-4,-0.521 -10e-4,-1.041 -10e-4,-1.561 z"
       id="path30"
       inkscape:connector-curvature="0"
       style="clip-rule:evenodd;fill:#ffffff;fill-rule:evenodd" /><path
       d="m 106.691,56.206 c 3.81,8.905 20.695,11.059 24.46,20.817 0.596,1.544 0.157,3.942 0.521,5.725 2.09,10.246 4.089,19.748 2.603,31.746 -1.346,-18.691 -2.841,-39.182 -16.134,-47.358 -4.681,-0.951 -12.2,-4.627 -11.45,-10.93 z"
       id="path32"
       inkscape:connector-curvature="0"
       style="clip-rule:evenodd;fill:#ffffff;fill-rule:evenodd" /><path
       d="m 99.405,61.41 c 4.949,2.108 1.739,7.393 1.041,11.97 -3.131,-1.603 -1.853,-8.363 -1.041,-11.97 z"
       id="path34"
       inkscape:connector-curvature="0"
       style="clip-rule:evenodd;fill:#ffffff;fill-rule:evenodd" /><path
       d="m 193.602,66.614 c 0.66,2.213 -0.119,3.378 -1.041,5.204 -1.459,0.623 -3.591,0.572 -5.725,0.521 0,-1.908 0,-3.816 0,-5.725 2.205,-1.242 4.198,-0.656 6.766,0 z"
       id="path36"
       inkscape:connector-curvature="0"
       style="clip-rule:evenodd;fill:#ffffff;fill-rule:evenodd" /><path
       d="m 105.65,66.614 c 0.841,-0.147 0.896,0.492 1.562,0.521 1.48,11.996 -2.394,27.316 -8.326,39.552 -2.527,5.211 -11.974,16.567 -18.215,16.654 -3.3,0.045 -5.499,-3.496 -8.847,-3.643 -0.834,-4.89 -7.025,-4.424 -6.245,-10.929 4.711,0.117 6.436,4.999 12.49,4.684 11.01,-0.572 21.129,-19.211 22.898,-30.705 0.92,-5.98 3.112,-11.593 4.683,-16.134 z"
       id="path38"
       inkscape:connector-curvature="0"
       style="clip-rule:evenodd;fill:#ffffff;fill-rule:evenodd" /><path
       d="m 109.293,66.614 c 5.558,5.748 8.283,19.714 6.766,31.746 -0.422,3.342 -4.28,10.097 -6.766,15.092 -2.448,4.921 -4.185,11.267 -6.766,14.572 -0.815,1.044 -3.345,2.093 -4.684,3.643 -3.671,4.248 -5.423,9.888 -9.368,10.408 -4.697,0.621 -13.554,-4.571 -17.694,-8.847 -2.517,-2.599 -6.08,-7.79 -4.684,-10.929 3.704,2.403 9.177,7.45 13.531,10.929 1.51,-0.462 2.337,-0.587 3.643,-1.561 0.942,-0.703 1.257,-2.459 2.082,-3.123 1.375,-1.105 3.649,-1.338 5.204,-2.602 3.303,-2.685 8.45,-7.383 11.449,-10.929 3.155,-3.73 5.599,-9.7 8.327,-16.654 4.657,-11.866 0.884,-19.704 -1.04,-31.745 z"
       id="path40"
       inkscape:connector-curvature="0"
       style="clip-rule:evenodd;fill:#ffffff;fill-rule:evenodd" /><path
       d="m 179.55,67.655 c 2.074,-0.166 3.845,-0.028 4.684,1.041 0.208,2.115 -2.215,1.602 -2.602,3.123 0.276,2.499 3.376,2.175 3.643,4.684 -3.841,6.912 -4.617,18.734 -1.562,27.583 -4.461,-2.306 -7.005,-11.035 -7.806,-18.735 4.579,-3.797 1.981,-12.981 3.643,-17.696 z"
       id="path42"
       inkscape:connector-curvature="0"
       style="clip-rule:evenodd;fill:#ffffff;fill-rule:evenodd" /><path
       d="m 113.977,68.696 c 10.751,-1.317 7.805,17.788 8.848,27.583 0.736,6.922 -0.776,12.648 -4.164,19.255 -0.537,1.048 -2.028,1.593 -2.602,2.602 -3.419,6.012 -5.183,13.236 -9.368,18.735 -4.549,5.978 -9.831,9.145 -13.53,14.052 7.711,-0.639 12.558,-8.589 18.215,-13.011 -0.468,-1.523 -0.468,-1.599 0,-3.123 9.36,-13.553 17.839,-31.449 14.571,-53.083 2.317,4.482 4.253,8.858 4.684,13.531 0.533,5.776 -0.54,17.802 -3.643,22.898 -2.003,3.289 -5.888,5.585 -7.807,8.848 -3.487,5.93 -5.101,12.392 -8.326,16.653 -4.033,5.328 -12.426,7.029 -16.654,11.449 -2.391,-0.211 -3.964,-1.239 -6.245,-1.561 -0.138,-1.699 2.019,-1.104 2.082,-2.602 -5.088,-2.354 -10.537,-0.828 -14.572,-4.164 -4.003,-3.309 -5.053,-9.231 -9.368,-11.97 4.286,2.135 9.432,7.914 13.011,12.49 1.458,-0.511 -0.756,-1.389 0.521,-2.082 12.787,7.267 18.928,-6.888 24.46,-15.612 6.067,-9.569 14.35,-17.542 15.092,-28.624 0.355,-5.298 -0.667,-11.133 -1.041,-16.133 -0.443,-5.911 -0.686,-12.644 -4.164,-16.131 z"
       id="path44"
       inkscape:connector-curvature="0"
       style="clip-rule:evenodd;fill:#ffffff;fill-rule:evenodd" /><path
       d="m 172.785,69.216 c 1.215,0 2.429,0 3.644,0 -0.089,3.213 -3.429,2.846 -3.644,0 z"
       id="path46"
       inkscape:connector-curvature="0"
       style="clip-rule:evenodd;fill:#ffffff;fill-rule:evenodd" /><path
       d="m 130.11,70.777 c 1.596,0.66 2.738,1.772 4.164,2.602 4.103,7.714 3.149,15.105 5.204,27.062 2.206,12.838 6.479,20.378 5.204,34.869 -0.806,9.151 -2.616,20.984 -11.97,23.939 -0.611,-3.826 2.935,-7.509 4.163,-11.97 0.81,-2.94 0.484,-7.096 1.041,-10.929 2.406,-16.567 -0.686,-39.266 -5.725,-55.685 -0.228,-1.789 0.206,-2.917 0.521,-4.164 -0.905,-1.869 -2.21,-3.34 -2.602,-5.724 z"
       id="path48"
       inkscape:connector-curvature="0"
       style="clip-rule:evenodd;fill:#ffffff;fill-rule:evenodd" /><path
       d="m 169.663,71.818 c 0.368,1.93 -0.89,2.233 -0.521,4.163 -5.708,4.165 -4.397,-6.731 0.521,-4.163 z"
       id="path50"
       inkscape:connector-curvature="0"
       style="clip-rule:evenodd;fill:#ffffff;fill-rule:evenodd" /><path
       d="m 136.875,72.859 c 0.605,-0.085 0.926,0.115 1.041,0.52 6.69,3.066 7.502,10.771 10.929,20.817 2.875,8.427 6.771,14.689 7.807,23.939 2.052,18.34 0.777,40.999 -16.653,42.675 12.005,-12.555 14.103,-34.925 6.766,-52.562 -1.375,-3.303 -3.64,-6.49 -4.164,-10.409 -0.367,-2.747 0.338,-4.94 0,-7.286 -0.923,-6.417 -4.789,-11.852 -5.726,-17.694 z"
       id="path52"
       inkscape:connector-curvature="0"
       style="clip-rule:evenodd;fill:#ffffff;fill-rule:evenodd" /><path
       d="m 145.723,74.941 c 0.219,-1.158 2.761,-0.408 3.122,0 6.739,5.08 8.805,14.744 13.011,23.419 2.956,6.096 6.266,10.491 7.807,16.133 2.79,10.214 1.824,31.23 -5.204,40.593 -1.882,2.507 -6.058,6.47 -10.929,6.245 12.681,-12.896 13.017,-41.638 4.163,-59.328 -2.001,-3.997 -5.346,-7.955 -6.245,-12.49 -1.041,-5.246 -2.355,-11.916 -5.725,-14.572 z"
       id="path54"
       inkscape:connector-curvature="0"
       style="clip-rule:evenodd;fill:#ffffff;fill-rule:evenodd" /><path
       d="m 150.927,74.42 c 1.998,2.104 4.021,0.998 7.807,1.041 3.55,1.184 3.392,4.17 5.204,8.327 1.079,2.474 3.812,4.445 6.245,7.806 3.321,4.59 5.528,10.787 8.326,16.133 2.17,4.145 3.825,6.68 3.644,13.531 -0.205,7.688 2.021,15.505 -0.521,23.939 -1.529,5.072 -4.836,14.359 -11.97,14.572 -2.438,-0.309 1.657,-1.819 2.081,-2.602 3.797,-6.452 5.587,-14.007 6.245,-21.337 2.18,-24.26 -13.157,-39.84 -21.337,-56.206 -2.631,-1.01 -5.078,-2.206 -5.724,-5.204 z"
       id="path56"
       inkscape:connector-curvature="0"
       style="clip-rule:evenodd;fill:#ffffff;fill-rule:evenodd" /><path
       d="m 16.138,74.941 c -0.023,3.62 -1.854,5.432 -5.204,5.725 -1.799,-3.512 1.233,-6.289 5.204,-5.725 z"
       id="path58"
       inkscape:connector-curvature="0"
       style="clip-rule:evenodd;fill-rule:evenodd" /><path
       d="m 175.908,74.941 c 1.346,5.015 -4.731,7.673 -3.644,12.49 -2.713,-0.062 -3.3,-2.251 -4.163,-4.164 2.122,-3.255 2.012,-8.743 7.807,-8.326 z"
       id="path60"
       inkscape:connector-curvature="0"
       style="clip-rule:evenodd;fill:#ffffff;fill-rule:evenodd" /><path
       d="m 198.806,146.759 c -2.278,-0.049 0.976,-2.104 1.041,-3.123 2.698,-6.356 1.391,-12.484 2.602,-18.735 1.182,-6.096 5.241,-10.337 7.286,-15.613 1.468,-3.785 1.178,-8.245 3.123,-11.449 1.283,-2.114 5.98,-5.582 7.806,-8.327 1.496,-2.25 2.624,-5.196 2.082,-7.806 1.067,-0.494 1.442,-1.68 2.082,-2.602 0.228,-1.79 -0.206,-2.917 -0.521,-4.164 3.556,1.301 5.5,4.215 8.326,6.245 -2.416,14.237 -11.446,21.86 -18.735,31.225 0.21,2.465 -0.929,3.582 -0.521,6.245 -5.767,8.458 -5.603,22.847 -14.571,28.104 z"
       id="path62"
       inkscape:connector-curvature="0"
       style="clip-rule:evenodd;fill:#ffffff;fill-rule:evenodd" /><path
       d="m 239.919,88.472 c 2.73,3.253 5.617,8.567 5.204,12.49 -0.613,5.828 -7.319,6.651 -10.929,10.409 -2.676,2.785 -3.483,7.319 -6.245,9.888 -5.139,4.781 -12.701,6.752 -17.174,11.97 -0.129,-4.465 2.437,-6.237 2.082,-10.929 6.14,-7.759 19.018,-15.147 24.979,-23.939 1.993,-2.937 2.869,-6.629 2.083,-9.889 z"
       id="path64"
       inkscape:connector-curvature="0"
       style="clip-rule:evenodd;fill:#ffffff;fill-rule:evenodd" /><path
       d="m 79.629,93.156 c 4.898,10.152 -13.654,18.275 -15.092,5.204 7.363,2.275 8.201,-5.388 15.092,-5.204 z"
       id="path66"
       inkscape:connector-curvature="0"
       style="clip-rule:evenodd;fill:#ffffff;fill-rule:evenodd" /><path
       d="m 129.59,117.616 c 5.932,3.308 4.919,12.228 4.684,19.776 -0.825,-6.857 -6.332,-13.833 -4.684,-19.776 z"
       id="path68"
       inkscape:connector-curvature="0"
       style="clip-rule:evenodd;fill:#ffffff;fill-rule:evenodd" /><path
       d="m 241.481,118.656 c 0.604,-0.084 0.926,0.115 1.041,0.521 -2.152,6.464 -1.981,11.377 -6.245,15.092 -6.738,5.87 -18.577,3.975 -23.939,11.449 -1.978,-1.156 -2.398,-6.608 -2.082,-8.327 11.37,-3.249 21.662,-11.953 31.225,-18.735 z"
       id="path70"
       inkscape:connector-curvature="0"
       style="clip-rule:evenodd;fill:#ffffff;fill-rule:evenodd" /><path
       d="m 126.467,122.299 c 3.273,2.075 -1.23,5.523 0,7.286 -1.911,0.517 -2.94,1.917 -5.204,2.082 0.604,-4.254 3.788,-5.926 5.204,-9.368 z"
       id="path72"
       inkscape:connector-curvature="0"
       style="clip-rule:evenodd;fill:#ffffff;fill-rule:evenodd" /><path
       d="m 128.029,131.146 c 3.523,1.207 6.393,10.056 3.122,13.011 0.637,-5.723 -4.211,-8.55 -3.122,-13.011 z"
       id="path74"
       inkscape:connector-curvature="0"
       style="clip-rule:evenodd;fill:#ffffff;fill-rule:evenodd" /><path
       d="m 126.988,139.473 c -10.261,-2.107 -11.163,5.144 -16.653,7.807 0.718,-3.464 14.144,-21.999 16.653,-7.807 z"
       id="path76"
       inkscape:connector-curvature="0"
       style="clip-rule:evenodd;fill:#ffffff;fill-rule:evenodd" /><path
       d="m 206.613,140.514 c -0.473,6.467 -4.576,9.302 -10.93,9.888 3.72,-3.219 6.746,-7.132 10.93,-9.888 z"
       id="path78"
       inkscape:connector-curvature="0"
       style="clip-rule:evenodd;fill:#ffffff;fill-rule:evenodd" /><path
       d="m 237.317,141.555 c 0.891,1.27 -0.521,3.716 0,6.245 -2.627,3.283 -8.118,3.596 -13.01,2.082 -2.455,1.537 -8.983,3.732 -11.449,0.521 3.41,-7.693 15.837,-6.369 24.459,-8.848 z"
       id="path80"
       inkscape:connector-curvature="0"
       style="clip-rule:evenodd;fill:#ffffff;fill-rule:evenodd" /><path
       d="m 207.653,149.361 c 0.51,2.765 -2.589,1.921 -3.643,3.123 -3.652,4.567 -11.227,7.766 -19.256,6.245 5.921,-5.624 17.835,-2.203 21.858,-9.888 0.605,-0.085 0.927,0.115 1.041,0.52 z"
       id="path82"
       inkscape:connector-curvature="0"
       style="clip-rule:evenodd;fill:#ffffff;fill-rule:evenodd" /><path
       d="m 75.466,150.402 c 6.622,-0.547 12.075,4.576 16.133,8.327 -5.618,-0.457 -13.829,-2.822 -16.133,-8.327 z"
       id="path84"
       inkscape:connector-curvature="0"
       style="clip-rule:evenodd;fill:#ffffff;fill-rule:evenodd" /><path
       d="m 126.467,156.127 c -3.41,-1.447 -8.324,-1.391 -11.449,-3.123 2.398,-3.858 11.418,-1.669 11.449,3.123 z"
       id="path86"
       inkscape:connector-curvature="0"
       style="clip-rule:evenodd;fill:#ffffff;fill-rule:evenodd" /><path
       d="m 236.277,152.484 c -2.372,5.852 -18.86,12.004 -20.817,1.561 5.87,2.218 14.557,-0.799 20.817,-1.561 z"
       id="path88"
       inkscape:connector-curvature="0"
       style="clip-rule:evenodd;fill:#ffffff;fill-rule:evenodd" /><path
       d="m 100.446,154.045 c 0.069,1.674 1.602,3.45 0.521,4.684 -1.778,-1.273 -4.483,0.398 -5.725,-0.521 2.045,-1.077 1.597,-4.646 5.204,-4.163 z"
       id="path90"
       inkscape:connector-curvature="0"
       style="clip-rule:evenodd;fill:#ffffff;fill-rule:evenodd" /><path
       d="m 208.173,154.045 c -4.896,5.866 -14.198,12.461 -22.378,7.807 1.16,-1.797 4.879,0.202 6.766,0 5.614,-0.6 10.372,-5.117 14.052,-7.807 0.52,0 1.04,0 1.56,0 z"
       id="path92"
       inkscape:connector-curvature="0"
       style="clip-rule:evenodd;fill:#ffffff;fill-rule:evenodd" /><path
       d="m 74.425,155.086 c 1.384,-1.349 3.609,0.876 3.123,3.123 -1.422,-0.661 -2.075,-2.089 -3.123,-3.123 z"
       id="path94"
       inkscape:connector-curvature="0"
       style="clip-rule:evenodd;fill:#ffffff;fill-rule:evenodd" /><path
       d="m 125.947,160.811 c -7.064,-3.234 -12.68,-1.856 -21.337,-1.561 -0.782,-3.766 5.63,-4.501 9.888,-4.164 4.396,0.349 12.009,1.872 11.449,5.725 z"
       id="path96"
       inkscape:connector-curvature="0"
       style="clip-rule:evenodd;fill:#ffffff;fill-rule:evenodd" /><path
       d="m 236.277,158.208 c -2.906,3.86 -15.035,9.775 -18.735,3.123 7.627,2.305 13.102,-1.728 18.735,-3.123 z"
       id="path98"
       inkscape:connector-curvature="0"
       style="clip-rule:evenodd;fill:#ffffff;fill-rule:evenodd" /><path
       d="m 93.161,162.372 c -0.377,1.184 -0.465,2.658 -1.041,3.643 -3.114,-3.305 -10.204,-2.633 -14.052,-5.204 4.355,-3.666 9.979,1.239 15.093,1.561 z"
       id="path100"
       inkscape:connector-curvature="0"
       style="clip-rule:evenodd;fill:#ffffff;fill-rule:evenodd" /><path
       d="m 72.864,161.331 c 6.831,2.016 13.747,3.947 19.256,7.286 0.08,1.294 -0.818,1.611 -1.041,2.602 -5.627,-3.741 -15.416,-3.32 -18.215,-9.888 z"
       id="path102"
       inkscape:connector-curvature="0"
       style="clip-rule:evenodd;fill:#ffffff;fill-rule:evenodd" /><path
       d="m 124.385,166.535 c -6.451,-2.928 -14.497,0.819 -19.775,-2.082 0.099,-0.421 0.521,-0.519 0.521,-1.041 6.241,-1.329 17.627,-4.223 19.254,3.123 z"
       id="path104"
       inkscape:connector-curvature="0"
       style="clip-rule:evenodd;fill:#ffffff;fill-rule:evenodd" /><path
       d="m 207.133,162.893 c 0.463,0.23 0.931,0.457 1.04,1.041 0.28,2.015 -1.326,2.143 -1.561,3.643 -4.43,0.688 -11.958,3.228 -15.613,2.082 -1.225,-0.384 -4.003,-1.256 -3.122,-3.643 6.936,0.438 15.452,1.47 19.256,-3.123 z"
       id="path106"
       inkscape:connector-curvature="0"
       style="clip-rule:evenodd;fill:#ffffff;fill-rule:evenodd" /><path
       d="m 235.236,163.933 c -0.029,7.125 -14,9.568 -15.613,2.082 5.701,3.404 11.752,-2.151 15.613,-2.082 z"
       id="path108"
       inkscape:connector-curvature="0"
       style="clip-rule:evenodd;fill:#ffffff;fill-rule:evenodd" /><path
       d="m 89.517,175.382 c -5.238,-0.697 -11.627,-4.652 -17.174,-6.765 3.578,-3.216 7.213,1.496 9.888,2.602 2.9,1.199 8.677,-0.382 7.286,4.163 z"
       id="path110"
       inkscape:connector-curvature="0"
       style="clip-rule:evenodd;fill:#ffffff;fill-rule:evenodd" /><path
       d="m 123.344,172.78 c -3.145,-0.672 -7.11,-0.522 -10.408,-1.041 0.035,5.169 6.668,3.741 8.848,6.765 -6.412,2.214 -9.798,-7.524 -16.653,-8.327 1.298,-2.832 6.019,-2.467 8.847,-2.082 3.73,0.51 7.92,3.225 9.366,4.685 z"
       id="path112"
       inkscape:connector-curvature="0"
       style="clip-rule:evenodd;fill:#ffffff;fill-rule:evenodd" /><path
       d="m 208.694,169.137 c 0,1.041 0,2.082 0,3.123 -3.225,0.418 -6.279,1.006 -9.367,1.562 0.841,3.716 8.439,-0.031 9.367,0.521 -1.586,5.87 -12.65,1.273 -17.174,0.521 5.686,-1.949 11.068,-4.199 17.174,-5.727 z"
       id="path114"
       inkscape:connector-curvature="0"
       style="clip-rule:evenodd;fill:#ffffff;fill-rule:evenodd" /><path
       d="m 234.715,171.219 c -0.901,4.302 -4.36,6.048 -9.367,6.245 2.005,3.655 7.507,-0.156 10.408,-0.521 -2.03,3.192 -6.385,6.548 -10.929,4.163 -0.304,-3.339 -1.779,-5.507 -2.082,-8.847 4.777,1.384 8.894,-0.583 11.97,-1.04 z"
       id="path116"
       inkscape:connector-curvature="0"
       style="clip-rule:evenodd;fill:#ffffff;fill-rule:evenodd" /><path
       d="m 72.343,172.26 c 2.497,-0.241 4.083,0.427 4.164,2.603 -1.5,-0.062 -3.407,0.284 -4.164,-0.521 0,-0.694 0,-1.388 0,-2.082 z"
       id="path118"
       inkscape:connector-curvature="0"
       style="clip-rule:evenodd;fill:#ffffff;fill-rule:evenodd" /><path
       d="m 111.895,176.944 c -0.452,2.67 -4.499,1.746 -6.765,2.602 -1.739,-6.096 4.565,-6.081 6.765,-2.602 z"
       id="path120"
       inkscape:connector-curvature="0"
       style="clip-rule:evenodd;fill:#ffffff;fill-rule:evenodd" /><path
       d="m 71.823,177.464 c 5.083,0.045 12.519,2.408 10.929,8.847 -3.109,-1.132 -4.621,-6.377 -8.327,-5.205 0.723,3.802 6.541,4.649 4.684,9.368 -2.139,-2.371 -2.862,-6.158 -7.807,-5.725 0.5,1.756 1.847,2.664 3.123,3.643 -0.282,2.172 -4.348,0.102 -5.204,-0.521 0.166,-1.222 0.822,-1.954 0.521,-3.643 0.671,-0.717 2.26,-0.515 3.643,-0.52 0.022,-1.931 -1.952,-1.865 -2.602,-3.123 0.721,-0.664 0.318,-2.456 1.04,-3.121 z"
       id="path122"
       inkscape:connector-curvature="0"
       style="clip-rule:evenodd;fill:#ffffff;fill-rule:evenodd" /><path
       d="m 209.735,181.627 c -3.858,1.102 -6.822,0.911 -9.367,-1.041 -2.158,-0.445 -6.401,1.196 -6.245,-1.562 4.353,-1.235 10.688,2.086 15.092,-0.521 -0.377,1.592 0.532,1.898 0.52,3.124 z"
       id="path124"
       inkscape:connector-curvature="0"
       style="clip-rule:evenodd;fill:#ffffff;fill-rule:evenodd" /><path
       d="m 209.735,180.587 c -0.146,-1.361 0.19,-2.239 1.562,-2.082 0.145,1.36 0.175,2.604 -1.562,2.082 z"
       id="path126"
       inkscape:connector-curvature="0"
       style="clip-rule:evenodd;fill:#ffffff;fill-rule:evenodd" /><path
       d="m 236.277,182.148 c -1.683,2.134 -3.818,3.814 -4.685,6.766 -3.312,0.363 -4.74,-1.157 -7.285,-1.562 -0.302,-1.689 0.354,-2.421 0.521,-3.643 4.785,1.386 7.576,-0.672 11.449,-1.561 z"
       id="path128"
       inkscape:connector-curvature="0"
       style="clip-rule:evenodd;fill:#ffffff;fill-rule:evenodd" /><path
       d="m 212.858,183.189 c -0.378,1.592 0.897,1.531 0.52,3.123 -6.39,-0.779 -11.708,1.548 -18.734,-0.521 0.065,-0.934 -0.638,-1.098 -0.521,-2.082 6.979,-1.056 11.9,1.491 18.735,-0.52 z"
       id="path130"
       inkscape:connector-curvature="0"
       style="clip-rule:evenodd;fill:#ffffff;fill-rule:evenodd" /><path
       d="m 236.277,186.312 c 1.863,-0.303 1.582,1.54 1.561,3.123 -3.12,0.001 -3.032,3.212 -4.684,4.684 -3.118,-0.177 -6.094,-0.498 -7.286,-2.602 1.769,-0.67 9.75,-0.391 10.409,-5.205 z"
       id="path132"
       inkscape:connector-curvature="0"
       style="clip-rule:evenodd;fill:#ffffff;fill-rule:evenodd" /><path
       d="m 212.858,189.954 c -1.632,1.163 -3.928,-1.706 -6.245,0 0.526,1.729 3.787,0.723 4.684,2.082 -4.053,2.899 -8.892,-2.521 -15.093,-0.521 0.376,-1.59 -0.531,-1.896 -0.521,-3.123 6.036,3.137 12.419,-4.235 17.175,1.562 z"
       id="path134"
       inkscape:connector-curvature="0"
       style="clip-rule:evenodd;fill:#ffffff;fill-rule:evenodd" /><path
       d="m 105.13,188.393 c 0.947,-0.744 4.813,0.021 4.163,2.602 -1.215,0 -2.429,0 -3.644,0 -0.283,-0.756 0.609,-2.69 -0.519,-2.602 z"
       id="path136"
       inkscape:connector-curvature="0"
       style="clip-rule:evenodd;fill:#ffffff;fill-rule:evenodd" /><path
       d="m 78.068,195.159 c -2.606,-2.251 -8.958,-0.757 -9.888,-4.684 2.043,0.824 10.361,-0.368 9.888,4.684 z"
       id="path138"
       inkscape:connector-curvature="0"
       style="clip-rule:evenodd;fill:#ffffff;fill-rule:evenodd" /><path
       d="m 117.1,195.679 c -2.195,-0.409 -5.397,-1.996 -7.807,-0.521 1.183,2.097 4.642,3.566 7.286,2.602 0.478,1.894 2.1,3.219 1.04,5.204 -3.247,-2.802 -7.062,-2.79 -11.97,-3.123 1.969,4.277 9.724,2.767 11.45,7.286 -2.976,0.275 -6.221,-3.422 -11.97,-2.081 -1.75,-4.132 0.971,-8.926 0.52,-11.97 4.226,1.132 11.943,-4.487 11.451,2.603 z"
       id="path140"
       inkscape:connector-curvature="0"
       style="clip-rule:evenodd;fill:#ffffff;fill-rule:evenodd" /><path
       d="m 210.776,194.638 c -2.133,2.514 -10.102,1.5 -13.531,0 3.011,-3.904 8.948,1.95 13.531,0 z"
       id="path142"
       inkscape:connector-curvature="0"
       style="clip-rule:evenodd;fill:#ffffff;fill-rule:evenodd" /><path
       d="m 236.277,194.638 c 1.898,0.355 -0.111,2.072 0.521,4.164 -2.498,2.081 -5.861,-0.02 -7.807,1.041 0.012,-1.226 -0.896,-1.532 -0.521,-3.123 3.284,-0.012 5.974,-0.619 7.807,-2.082 z"
       id="path144"
       inkscape:connector-curvature="0"
       style="clip-rule:evenodd;fill:#ffffff;fill-rule:evenodd" /><path
       d="m 208.694,198.802 c -2.22,0.957 -7.519,1.994 -11.449,1.041 0,-0.867 0,-1.735 0,-2.602 2.656,0.489 11.977,-1.594 11.449,1.561 z"
       id="path146"
       inkscape:connector-curvature="0"
       style="clip-rule:evenodd;fill:#ffffff;fill-rule:evenodd" /><path
       d="m 66.098,198.281 c 4,-1.386 7.898,2.174 10.409,2.602 -2.375,3.764 -6.264,-3.078 -10.409,-2.602 z"
       id="path148"
       inkscape:connector-curvature="0"
       style="clip-rule:evenodd;fill:#ffffff;fill-rule:evenodd" /><path
       d="m 69.741,203.485 c -1.992,-0.263 -4.038,-0.472 -4.164,-2.602 0.947,-0.437 4.995,-0.378 4.164,2.602 z"
       id="path150"
       inkscape:connector-curvature="0"
       style="clip-rule:evenodd;fill:#ffffff;fill-rule:evenodd" /><path
       d="m 207.133,201.404 c -0.303,1.433 -1.296,2.173 -1.562,3.643 -2.354,-0.587 -6.993,0.718 -9.889,-0.521 -0.249,-1.637 0.741,-2.035 1.041,-3.123 3.648,2.469 6.656,-1.52 10.41,0.001 z"
       id="path152"
       inkscape:connector-curvature="0"
       style="clip-rule:evenodd;fill:#ffffff;fill-rule:evenodd" /><path
       d="m 229.511,201.404 c 2.774,1.215 5.079,0.164 7.286,0.52 0.254,1.643 -0.938,1.838 -0.521,3.644 -3.104,-0.652 -6.547,0.243 -6.765,-4.164 z"
       id="path154"
       inkscape:connector-curvature="0"
       style="clip-rule:evenodd;fill:#ffffff;fill-rule:evenodd" /><path
       d="m 72.343,206.607 c -1.584,-0.149 -3.552,0.083 -3.643,-1.561 2.305,-0.093 3.296,-0.941 3.643,1.561 z"
       id="path156"
       inkscape:connector-curvature="0"
       style="clip-rule:evenodd;fill:#ffffff;fill-rule:evenodd" /><path
       d="m 236.277,206.607 c -0.263,2.376 0.903,2.95 0,4.685 -3.129,0.525 -3.746,-1.459 -6.245,-1.562 0,-0.867 0,-1.734 0,-2.603 2.581,1.005 4.002,0.075 6.245,-0.52 z"
       id="path158"
       inkscape:connector-curvature="0"
       style="clip-rule:evenodd;fill:#ffffff;fill-rule:evenodd" /><path
       d="m 203.49,207.648 c -0.213,1.935 -8.93,3.73 -9.888,0 3.698,1.664 6.849,-0.491 9.888,0 z"
       id="path160"
       inkscape:connector-curvature="0"
       style="clip-rule:evenodd;fill:#ffffff;fill-rule:evenodd" /><path
       d="m 71.302,211.812 c -2.132,0.894 -4.13,-2.318 -7.286,-2.082 0,-0.521 0,-1.041 0,-1.562 3.557,-0.84 6.621,0.698 7.286,3.644 z"
       id="path162"
       inkscape:connector-curvature="0"
       style="clip-rule:evenodd;fill:#ffffff;fill-rule:evenodd" /><path
       d="m 115.018,210.771 c -1.531,3.469 -8.875,1.021 -9.888,-1.041 0,-0.521 0,-1.041 0,-1.562 4.323,-2.119 5.592,2.994 9.888,2.603 z"
       id="path164"
       inkscape:connector-curvature="0"
       style="clip-rule:evenodd;fill:#ffffff;fill-rule:evenodd" /><path
       d="m 192.041,211.812 c 2.615,2.53 5.487,0.602 8.848,0 -0.072,1.836 -1.489,2.327 -1.562,4.163 -3.109,-0.846 -6.246,0.803 -8.848,-1.041 -0.022,-1.583 1.1,-2.023 1.562,-3.122 z"
       id="path166"
       inkscape:connector-curvature="0"
       style="clip-rule:evenodd;fill:#ffffff;fill-rule:evenodd" /><path
       d="m 63.496,212.332 c 2.243,0.36 3.196,2.009 5.204,2.603 -1.064,2.376 -3.283,-1.036 -5.725,-0.521 -0.22,-1.088 0.358,-1.378 0.521,-2.082 z"
       id="path168"
       inkscape:connector-curvature="0"
       style="clip-rule:evenodd;fill:#ffffff;fill-rule:evenodd" /><path
       d="m 231.073,212.332 c 1.182,0.9 2.907,1.256 5.204,1.041 0.846,1.706 -0.118,1.99 0,4.164 -2.176,1.085 -5.038,0.352 -6.245,-1.041 0.128,-1.606 0.527,-2.942 1.041,-4.164 z"
       id="path170"
       inkscape:connector-curvature="0"
       style="clip-rule:evenodd;fill:#ffffff;fill-rule:evenodd" /><path
       d="m 113.457,214.414 c 0.919,0.871 -0.462,1.744 0,3.644 -4.592,0.255 -6.142,-2.532 -8.326,-4.685 1.937,-0.078 4.827,3.724 8.326,1.041 z"
       id="path172"
       inkscape:connector-curvature="0"
       style="clip-rule:evenodd;fill:#ffffff;fill-rule:evenodd" /><path
       d="m 70.262,218.058 c -0.277,1.457 -0.764,2.705 -1.041,4.163 -2.202,-1.795 -7.081,-3.665 -7.286,-5.725 2.417,-1.022 4.053,2.754 8.327,1.562 z"
       id="path174"
       inkscape:connector-curvature="0"
       style="clip-rule:evenodd;fill:#ffffff;fill-rule:evenodd" /><path
       d="m 105.13,217.017 c 2.056,-0.1 2.871,2.555 0,2.081 0,-0.694 0,-1.388 0,-2.081 z"
       id="path176"
       inkscape:connector-curvature="0"
       style="clip-rule:evenodd;fill:#ffffff;fill-rule:evenodd" /><path
       d="m 188.398,218.058 c 2.658,1.321 4.958,0.703 8.326,0.52 -0.53,3.98 -2.81,6.211 -4.163,9.368 -2.515,-0.955 -4.706,-2.233 -7.807,-2.603 -0.412,-1.8 0.579,-2.196 1.041,-3.122 2.637,0.312 3.426,2.473 6.766,2.082 0.762,-0.453 1.649,-0.779 1.562,-2.082 -2.149,-1.148 -5.959,-0.634 -5.725,-4.163 z"
       id="path178"
       inkscape:connector-curvature="0"
       style="clip-rule:evenodd;fill:#ffffff;fill-rule:evenodd" /><path
       d="m 60.374,220.139 c 3.5,1.531 6.963,3.099 7.286,7.807 -2.324,-1.666 -5.055,-2.926 -7.807,-4.163 -0.302,-1.69 0.355,-2.423 0.521,-3.644 z"
       id="path180"
       inkscape:connector-curvature="0"
       style="clip-rule:evenodd;fill:#ffffff;fill-rule:evenodd" /><path
       d="m 112.416,220.659 c 0.115,1.676 -0.92,2.202 -0.521,4.163 -2.15,-0.624 -4.085,-1.465 -7.285,-1.04 0.043,-5.648 3.155,-2.487 7.806,-3.123 z"
       id="path182"
       inkscape:connector-curvature="0"
       style="clip-rule:evenodd;fill:#ffffff;fill-rule:evenodd" /><path
       d="m 230.032,220.139 c 1.863,1.577 4.744,1.337 6.766,1.562 0.437,4.896 -4.752,4.429 -7.286,2.603 -0.401,-1.963 0.634,-2.49 0.52,-4.165 z"
       id="path184"
       inkscape:connector-curvature="0"
       style="clip-rule:evenodd;fill:#ffffff;fill-rule:evenodd" /><path
       d="m 58.292,225.343 c 2.658,2.372 6.803,3.259 7.806,7.286 -3.041,-1.296 -6.949,-1.725 -9.368,-3.643 0.136,-1.599 1.13,-2.34 1.562,-3.643 z"
       id="path186"
       inkscape:connector-curvature="0"
       style="clip-rule:evenodd;fill:#ffffff;fill-rule:evenodd" /><path
       d="m 103.569,225.863 c 3.45,1.047 6.905,-0.193 7.286,3.123 -2.151,-0.625 -4.086,-1.466 -7.286,-1.041 0,-0.694 0,-1.387 0,-2.082 z"
       id="path188"
       inkscape:connector-curvature="0"
       style="clip-rule:evenodd;fill:#ffffff;fill-rule:evenodd" /><path
       d="m 228.47,226.904 c 1.796,1.53 5.646,2.231 7.807,0.521 1.351,7.012 -4.608,10.725 -1.041,18.215 -4.956,1.322 -6.646,-1.018 -10.408,-2.082 3.065,-5.272 4.004,-10.094 3.642,-16.654 z"
       id="path190"
       inkscape:connector-curvature="0"
       style="clip-rule:evenodd;fill:#ffffff;fill-rule:evenodd" /><path
       d="m 191,230.547 c -0.594,2.009 -2.242,2.962 -2.602,5.205 -1.608,-0.127 -0.88,-2.591 -3.123,-2.082 -1.823,1.523 0.914,2.868 2.603,2.602 -2.084,5.202 -9.344,5.229 -9.368,12.49 -4.637,-1.435 -7.596,-4.547 -11.449,-6.765 3.104,-1.755 6.032,-3.683 8.848,-5.726 2.209,-0.127 2.802,1.361 5.204,1.041 -0.01,-2.245 -2.593,-1.918 -2.603,-4.163 1.686,-1.306 3.548,0.689 5.725,0.521 -0.11,-2.614 -4.024,-2.59 -2.602,-5.204 2.131,-0.257 7.664,0.212 9.367,2.081 z"
       id="path192"
       inkscape:connector-curvature="0"
       style="clip-rule:evenodd;fill:#ffffff;fill-rule:evenodd" /><path
       d="m 103.048,229.507 c 2.486,0.81 4.469,2.123 7.286,2.602 -0.531,0.684 -0.511,1.919 -1.041,2.603 -1.802,-0.975 -3.687,-1.865 -6.766,-1.562 -0.254,-1.643 0.938,-1.838 0.521,-3.643 z"
       id="path194"
       inkscape:connector-curvature="0"
       style="clip-rule:evenodd;fill:#ffffff;fill-rule:evenodd" /><path
       d="m 58.812,237.833 c -2.315,-0.521 -2.959,-2.228 -5.725,-1.041 -0.006,-6.509 5.776,-3.477 5.725,1.041 z"
       id="path196"
       inkscape:connector-curvature="0"
       style="clip-rule:evenodd;fill:#ffffff;fill-rule:evenodd" /><path
       d="m 60.374,233.67 c 1.841,0.588 4.336,0.521 4.684,2.602 -0.506,0.015 -0.404,0.638 -0.52,1.041 -2.85,0.247 -3.629,-1.577 -4.164,-3.643 z"
       id="path198"
       inkscape:connector-curvature="0"
       style="clip-rule:evenodd;fill:#ffffff;fill-rule:evenodd" /><path
       d="m 108.773,236.792 c 0.543,1.475 0.543,2.169 0,3.644 -2.917,-0.206 -4.951,-1.295 -6.766,-2.603 0,-0.521 0,-1.041 0,-1.562 2.217,-1.571 3.875,1.115 6.766,0.521 z"
       id="path200"
       inkscape:connector-curvature="0"
       style="clip-rule:evenodd;fill:#ffffff;fill-rule:evenodd" /><path
       d="m 52.047,237.833 c 2.823,0.474 4.069,2.523 6.245,3.644 -1.468,4.083 -5.945,5.156 -6.766,9.888 -3.061,-0.756 -6.029,-1.604 -7.806,-3.643 2.411,-3.661 6.627,-5.517 8.327,-9.889 z"
       id="path202"
       inkscape:connector-curvature="0"
       style="clip-rule:evenodd;fill:#ffffff;fill-rule:evenodd" /><path
       d="m 99.925,240.956 c 4.23,-0.437 4.325,4.33 8.848,2.081 0.314,1.247 0.748,2.375 0.521,4.164 -2.785,-1.779 -5.581,-4.345 -9.889,-3.123 -0.377,-1.592 0.898,-1.53 0.52,-3.122 z"
       id="path204"
       inkscape:connector-curvature="0"
       style="clip-rule:evenodd;fill:#ffffff;fill-rule:evenodd" /><path
       d="m 98.885,245.119 c 3.659,0.086 7.306,2.093 9.367,5.204 -2.854,1.434 -4.432,-1.422 -7.286,-1.562 0.007,2.77 2.412,3.14 3.644,4.685 -0.956,3.033 -2.875,5.104 -3.123,8.847 -5.038,-0.073 -6.122,-1.395 -9.367,-3.643 2.688,-4.498 8.143,-7.927 6.765,-13.531 z"
       id="path206"
       inkscape:connector-curvature="0"
       style="clip-rule:evenodd;fill:#ffffff;fill-rule:evenodd" /><path
       d="m 61.415,9.888 c 0.988,1.192 -1.954,2.881 -2.082,4.684 1.332,0.958 2.433,-2.751 4.164,-3.123 3.24,-0.107 5.12,3.886 7.286,3.123 1.676,1.543 -1.57,2.563 -1.562,4.164 1.227,-0.681 2.208,-1.608 3.123,-2.603 5.486,3.112 11.335,7.714 14.572,11.45 -1.261,2.948 -5.084,5.041 -5.725,8.327 -1.184,6.08 2.471,11.649 0.521,17.694 -0.917,2.841 -3.723,4.779 -4.684,7.286 -2.532,6.606 -1.7,13.333 -4.684,20.296 3.396,-1.93 6.91,-5.388 7.806,-11.449 0.329,-2.22 -0.409,-4.911 0,-7.286 1.151,-6.677 8.807,-12.232 3.123,-19.256 0.694,0 1.388,0 2.082,0 2.042,-5.518 1.146,-10.338 3.123,-14.051 2.638,2.313 5.931,4.672 8.847,9.368 2.754,4.436 2.199,7.512 -1.562,12.49 0.585,1.324 1.278,2.538 2.082,3.643 3.211,-2.339 2.542,-6.027 2.602,-9.368 2.643,0.48 2.547,3.698 3.644,5.725 -1.259,1.343 -1.35,3.854 -2.603,5.204 0.657,1.599 1.774,2.736 3.123,3.643 0.552,-1 -0.453,-3.951 1.561,-4.684 2.636,0.1 7.64,4.718 8.327,6.765 3.366,-0.286 6.603,4.597 10.408,5.205 9.888,1.577 18.098,7.577 29.664,5.204 1.635,-0.335 3.075,-1.684 4.685,-2.082 4.214,-1.044 9.857,0.26 13.53,-3.122 10.387,-0.47 20.142,-5.921 31.746,-4.164 -8.599,5.626 -14.22,14.229 -19.256,23.419 0.366,21.216 11.529,55.406 -5.204,70.257 3.846,0.999 7.404,-2.51 9.367,-4.684 2.879,-3.186 5.002,-9.702 5.726,-15.613 1.005,-8.224 -0.807,-15.205 3.122,-20.817 0.318,-0.454 1.775,-0.456 2.082,-1.041 2.856,-5.466 1.694,-11.628 4.163,-16.133 1.063,-0.498 2.06,-1.063 3.122,-1.561 1.553,-9.138 14.679,-19.424 6.766,-28.103 -1.893,3.658 -2.072,9.03 -6.245,10.409 0.983,7.619 -7.446,12.085 -9.888,18.735 -2.204,6.002 0.985,14.876 -4.684,19.256 -0.631,-6.062 -6.015,-16.317 -2.082,-21.337 -2.712,-14.662 16.792,-19.06 14.052,-31.746 5.114,0.053 8.407,2.339 13.011,4.684 10.432,5.314 18.418,11.453 24.46,21.337 4.508,7.376 3.976,15.566 1.561,25.5 -1.031,4.246 -0.854,9.039 -2.081,13.011 -0.898,2.905 -3.186,5.541 -3.644,9.368 -0.422,3.529 0.927,6.963 0.521,10.408 -0.86,7.311 -2.932,13.19 -3.122,19.776 -0.174,5.965 2.728,11.656 3.122,18.735 0.239,4.281 -1.376,8.871 -1.562,13.531 -0.383,9.674 0.401,18.313 1.041,28.103 0.187,2.857 -1.589,5.244 -3.122,7.806 -0.482,5.759 2.839,13.056 -0.521,17.695 -3.527,4.869 -13.835,4.629 -19.256,1.04 0.882,-3.376 3.575,-4.25 5.204,-7.806 0.366,-0.799 0.164,-2.527 0.521,-3.123 1.937,-3.233 5.437,-5.148 5.725,-9.888 0.119,-1.95 -1.167,-4.008 -1.041,-6.245 0.159,-2.817 2.239,-5.604 2.603,-7.807 0.838,-5.076 -0.171,-10.255 -0.521,-14.571 -0.575,-7.105 -5.621,-11.993 -6.245,-19.776 -0.183,-2.284 0.822,-4.494 0.521,-6.766 -0.512,-3.851 -3.086,-8.397 -4.684,-12.49 -3.603,-9.229 -8.06,-18.067 -9.889,-27.582 0.706,14.891 1.518,30.613 5.725,43.715 0.682,2.123 2.126,3.629 2.082,5.725 -0.094,4.516 -5.95,12.636 -8.327,16.654 -6.521,11.025 -14.162,23.635 -19.775,35.389 -5.255,1.24 -8.273,5.432 -7.286,11.449 -5.036,5.798 -18.068,3.413 -24.98,4.684 0.822,-6.984 6.925,-8.688 8.327,-15.092 16.988,-7.248 22.942,-25.452 31.226,-40.073 1.212,-17.058 -8.585,-27.672 -12.49,-43.195 -16.896,5.286 -39.327,7.731 -55.165,3.123 -1.595,12.109 -7.981,23.788 -7.807,34.348 0.063,3.81 1.22,7.918 -0.521,11.969 -4.654,10.837 -9.799,26.564 -7.286,39.553 -3.048,5.732 -10.516,9.841 -7.806,18.215 -2.733,9.362 -17.541,7.95 -24.46,3.643 3.291,-8.505 12.179,-11.413 16.653,-18.735 2.624,-12.276 7.904,-23.891 7.286,-39.552 -0.656,-16.621 1.17,-32.41 0,-49.961 -1.796,1.386 -4.652,-0.035 -6.766,0.521 -3.243,6.311 -4.438,13.268 -7.807,19.256 -1.89,3.361 -5.151,5.87 -7.286,9.367 -3.555,5.825 -1.383,15.032 -7.286,18.735 -0.741,7.851 -5.124,14.455 -5.725,23.939 -1.424,1.699 -1.962,4.282 -2.602,6.766 -6.979,2.417 -13.317,9.531 -10.408,17.174 -0.684,1.398 -2.294,1.869 -3.123,3.123 -7.23,-1.214 -14.36,2.08 -21.858,-2.082 2.062,-4.01 4.957,-7.187 7.806,-10.408 1.217,-0.161 2.15,-1.02 3.123,0 1.229,-2.652 5.935,-6.161 8.847,-8.848 3.795,-9.909 8.782,-18.627 11.97,-29.144 -0.71,-9.764 4.5,-17.674 6.245,-24.98 2.728,-11.417 1.411,-24.672 4.684,-35.909 -5.225,-7.785 -11.894,-14.127 -11.449,-27.582 1.608,-1.617 0.879,1.762 3.122,1.041 1.329,-1.708 -2.194,-2.043 -3.122,-3.123 0.242,-4.788 0.391,-9.67 2.602,-12.49 C 59.239,93.076 48.466,85.46 44.24,71.298 c 1.095,-1.143 2.314,-0.107 3.123,0.521 1.963,-2.201 3.618,-4.709 6.245,-6.245 0.594,-2.009 2.185,-5.208 3.643,-4.684 1.429,-9.486 8.54,-19.7 3.643,-30.705 1.292,-2.536 2.206,-4.84 1.041,-7.286 1.993,-1.649 2.69,-4.596 4.684,-6.245 -0.865,-1.043 -1.397,-2.419 -3.123,-2.602 -3.4,2.151 -4.224,6.879 -7.806,8.847 -0.116,9.413 -1.481,21.648 -5.725,28.624 -1.326,5.969 -1.106,12.684 -4.164,17.174 -4.93,7.24 -16.729,8.306 -21.337,15.613 0.308,2.215 -0.375,3.442 -0.521,5.204 -4.067,4.683 -9.62,3.437 -16.653,2.082 C 4.195,88.231 2.522,86.563 1.565,80.147 1.215,77.801 -0.083,76.462 0.003,74.943 0.126,72.809 2.242,70.551 3.646,67.137 4.694,64.589 5.285,61.285 6.248,58.81 8.585,52.803 13.488,46.703 13.534,39.555 13.547,37.469 12.209,35.357 12.493,33.31 13.336,27.234 21.55,24.406 21.861,19.258 15.883,16.909 12.111,12.355 13.014,3.125 18.585,2.709 22.023,8.597 27.065,10.411 28.884,7.2 30.553,3.837 33.831,2.084 36.365,1.458 35.241,4.49 37.995,3.646 38.879,2.887 36.62,0.876 38.516,0 c 1.908,0.694 3.773,1.431 5.725,2.082 0.377,1.592 -0.897,1.531 -0.52,3.123 -1.349,1.082 -1.935,-1.16 -3.643,0 -0.188,3.055 4.574,5.42 5.725,8.847 1.041,-1.699 1.419,-5.875 2.602,-8.847 -1.192,-2.032 -1.446,2.329 -2.602,0.521 -0.253,-1.185 -1.033,-2.659 0,-3.643 4.281,3.156 13.784,3.355 13.011,9.888 0.921,-0.64 1.506,-1.616 2.601,-2.083 z m -40.073,5.725 c -1.78,-3.771 -3.037,-8.066 -6.245,-10.409 -0.425,4.27 1.294,11.731 6.245,10.409 z m -5.204,71.818 c 2.079,-2.611 3.697,-8.438 6.766,-8.327 -2.059,5.401 -5.44,9.478 -11.45,10.929 8.556,5.172 10.932,-4.95 14.052,-9.888 0.171,-2.253 -2.882,-1.281 -2.602,-3.643 2.641,-2.669 3.351,2.999 4.684,1.562 -0.486,-1.595 -1.945,-2.219 -2.082,-4.164 0.471,-1.09 2.938,-0.185 3.123,-1.561 -1.794,-3.154 -11.763,1.845 -9.368,-5.204 1.26,0.648 2.528,1.288 4.163,1.561 3.885,-1.966 7.824,3.093 9.368,1.561 -1.27,-1.97 -0.102,-5.012 -1.041,-6.245 -3.88,-0.401 -9.493,2.15 -11.45,-1.041 1.693,-4.426 7.045,-1.607 11.97,-1.562 1.088,1.688 2.636,2.916 2.082,6.245 -0.377,1.882 0.898,1.882 0.521,0 0.869,-2.211 2.292,-6.201 1.561,-8.327 -3.159,-2.225 -10.503,2.634 -11.449,-2.082 4.796,-1.343 11.686,-3.567 15.092,0.52 -0.099,7.185 -4.502,8.478 -3.643,15.613 4.247,0.084 1.84,-6.487 4.164,-8.327 1.583,1.373 0.577,2.97 0.52,5.204 1.81,-0.271 1.362,-2.801 2.082,-4.163 -0.324,-11.417 0.17,-25.77 3.643,-35.389 1.966,6.371 -1.765,11.097 -2.082,15.612 3.295,5.419 -3.561,14.395 1.041,18.215 2.41,-10.167 0.567,-22.367 3.123,-32.266 0.962,-3.725 2.271,-7.413 0,-11.449 -2.81,-0.729 -1.718,2.445 -3.643,2.602 2.489,-8.684 -3.671,-14.14 -9.368,-17.694 -5.069,7.762 2.228,13.208 2.602,19.256 -2.355,-1.114 -1.917,-5.022 -5.725,-4.684 1.188,5.678 -0.36,12.098 3.123,16.133 -1.11,2.216 -6.064,0.957 -5.725,-1.562 2.734,-3.688 0.966,-9.667 0,-13.531 -0.47,4.602 -1.985,11.106 -1.041,15.613 -5.985,5.29 -9.359,13.192 -13.01,20.816 -0.894,4.311 -1.879,8.53 -5.725,9.888 5.683,-10.171 7.496,-23.973 16.653,-31.746 0.044,-3.179 0.054,-7.874 -0.521,-8.847 -2.162,2.348 0.298,9.318 -4.163,9.368 -1.755,-3.767 3.088,-7.934 1.561,-11.449 -2.041,3.337 -3.326,7.43 -5.204,10.929 -0.672,-1.41 -2.313,-1.85 -2.082,-4.164 1.832,-2.165 6.013,-4.733 5.204,-7.806 -1.332,3.179 -3.736,5.285 -6.766,6.766 -1.031,3.256 0.185,7.711 0.521,9.367 0.921,-0.334 2.201,-2.947 3.123,-1.561 C 15.6,44.366 12.216,52.266 9.372,58.285 8.288,60.58 6.82,62.34 5.729,64.53 2.208,71.6 1.892,77.666 4.168,86.39 c 5.21,1.569 5.749,1.383 11.97,1.041 z M 20.301,8.847 c 2.645,4.714 3.82,10.189 2.082,14.572 2.922,-2.224 5.084,-6.4 5.204,-9.888 -2.048,-1.69 -4.99,-4.942 -7.286,-4.684 z m 32.786,0 c -2.054,3.981 -4.623,10.482 -0.52,13.531 -1.006,8.776 -3.893,14.383 -3.123,26.542 3.703,-1.993 1.814,-7.695 2.602,-12.49 0.902,-5.494 3.851,-11.222 1.041,-15.092 1.691,-3.167 2.96,-6.754 4.164,-10.409 -1.312,-0.77 -1.689,-2.474 -4.164,-2.082 z M 26.546,26.542 c 2.685,-0.831 2.101,-4.715 1.562,-7.286 -0.079,2.87 -1.594,4.305 -1.562,7.286 z m 36.95,1.041 c 0.074,3.916 0.815,7.165 2.602,9.368 0.163,-2.786 0.348,-5.55 1.041,-7.807 1.034,0.007 0.662,1.42 2.082,1.041 1.102,-3.756 4,-5.714 5.725,-8.847 -6.225,-4.501 -6.544,4.884 -11.45,6.245 z m 7.286,5.724 c 1.479,2.302 5.137,2.818 5.725,6.765 0.637,4.28 -2.458,8.296 -3.643,12.49 -1.581,5.595 -2.229,10.216 -4.684,15.092 -2.877,5.715 -6.702,11.056 -10.929,14.052 -1.766,0.218 -4.491,-1.334 -4.684,0 2.041,1.776 4.861,2.771 7.286,4.163 11.817,-3.074 11.721,-15.293 15.092,-28.623 0.658,-2.6 3.736,-6.422 4.164,-8.847 0.603,-3.424 -1.154,-6.04 -1.562,-9.368 -0.086,-0.703 1.019,-1.164 1.041,-2.082 0.031,-1.274 -1.174,-1.803 -1.041,-2.603 0.688,-4.136 3.639,-5.036 2.602,-8.847 -0.11,-0.583 -0.577,-0.81 -1.041,-1.041 -2.502,3.224 -5.788,5.662 -8.326,8.849 z M 56.21,66.614 c -1.272,0.983 -2.521,1.988 -4.163,2.602 -0.858,2.612 -1.712,5.227 -3.123,7.286 3.489,-0.714 3.957,1.595 7.286,1.041 10.224,-8.179 19.362,-22.946 15.613,-41.634 -2.311,11.915 -2.424,21.691 -8.327,30.705 -1.545,2.359 -4.306,8.175 -8.327,5.204 0.362,-3.454 3.467,-4.166 5.204,-6.245 C 63.86,56.387 72.327,44.469 68.179,32.786 65.696,45.568 60.706,55.844 56.21,66.614 Z m 28.623,6.765 c 0.584,-0.053 0.81,0.757 1.041,0 -1.998,-10.388 9.015,-16.195 3.643,-27.062 2.214,0.562 1.066,4.486 4.163,4.164 0.741,-5.96 6.097,-11.114 -1.04,-14.051 -1.385,3.473 -2.932,6.783 -5.205,9.367 3.512,5.335 -2.187,11.059 -3.643,16.133 -2.319,8.085 0.245,17.437 -6.766,21.337 -4.191,3.109 -9.444,2.244 -13.01,6.245 -1.024,0.71 -2.973,0.497 -4.164,1.041 7.763,12.698 24.177,-6.572 24.981,-17.174 z m 2.082,-27.062 c 0.441,-1.531 -1.409,-3.381 -2.082,-2.082 0.917,0.472 0.86,1.916 2.082,2.082 z m 7.806,9.889 c -4.386,9.457 -2.89,23.055 -7.286,32.787 -2.741,6.069 -6.715,9.887 -8.327,16.133 16.927,-5.453 12.402,-32.356 18.736,-48.4 -1.144,-0.591 -1.729,-1.741 -3.123,-2.082 0,0.521 0,1.041 0,1.562 z m 23.419,10.929 c 13.293,8.177 14.788,28.667 16.134,47.358 1.486,-11.998 -0.513,-21.5 -2.603,-31.746 -0.363,-1.783 0.075,-4.181 -0.521,-5.725 -3.765,-9.758 -20.65,-11.912 -24.46,-20.817 -0.749,6.304 6.77,9.98 11.45,10.93 z m -17.694,6.244 c 0.698,-4.577 3.908,-9.862 -1.041,-11.97 -0.812,3.608 -2.09,10.368 1.041,11.97 z m 86.39,-6.765 c 0,1.908 0,3.816 0,5.725 2.134,0.052 4.266,0.102 5.725,-0.521 0.922,-1.826 1.701,-2.991 1.041,-5.204 -2.568,-0.656 -4.561,-1.242 -6.766,0 z m -85.87,16.133 c -1.77,11.494 -11.889,30.133 -22.898,30.705 -6.054,0.315 -7.779,-4.566 -12.49,-4.684 -0.78,6.505 5.411,6.039 6.245,10.929 3.348,0.147 5.547,3.688 8.847,3.643 6.242,-0.086 15.688,-11.442 18.215,-16.654 5.933,-12.235 9.807,-27.556 8.326,-39.552 -0.665,-0.029 -0.721,-0.667 -1.562,-0.521 -1.57,4.542 -3.762,10.155 -4.683,16.134 z m 9.368,15.613 c -2.729,6.954 -5.172,12.923 -8.327,16.654 -2.999,3.545 -8.146,8.244 -11.449,10.929 -1.555,1.264 -3.829,1.497 -5.204,2.602 -0.825,0.663 -1.14,2.419 -2.082,3.123 -1.305,0.974 -2.132,1.099 -3.643,1.561 -4.354,-3.479 -9.827,-8.525 -13.531,-10.929 -1.396,3.139 2.167,8.33 4.684,10.929 4.141,4.276 12.998,9.468 17.694,8.847 3.945,-0.521 5.697,-6.16 9.368,-10.408 1.339,-1.55 3.868,-2.599 4.684,-3.643 2.581,-3.305 4.317,-9.65 6.766,-14.572 2.485,-4.996 6.344,-11.75 6.766,-15.092 1.518,-12.031 -1.208,-25.998 -6.766,-31.746 1.923,12.04 5.696,19.878 1.04,31.745 z m 65.574,-13.011 c 0.801,7.701 3.345,16.429 7.806,18.735 -3.056,-8.849 -2.279,-20.67 1.562,-27.583 -0.267,-2.509 -3.366,-2.185 -3.643,-4.684 0.387,-1.521 2.81,-1.007 2.602,-3.123 -0.839,-1.069 -2.609,-1.207 -4.684,-1.041 -1.663,4.717 0.935,13.901 -3.643,17.696 z m -57.768,-0.52 c 0.374,5 1.396,10.835 1.041,16.133 -0.742,11.082 -9.024,19.055 -15.092,28.624 -5.532,8.725 -11.673,22.879 -24.46,15.612 -1.276,0.693 0.938,1.571 -0.521,2.082 -3.579,-4.577 -8.725,-10.355 -13.011,-12.49 4.315,2.738 5.364,8.661 9.368,11.97 4.035,3.335 9.484,1.81 14.572,4.164 -0.062,1.499 -2.219,0.903 -2.082,2.602 2.28,0.322 3.854,1.35 6.245,1.561 4.229,-4.42 12.621,-6.122 16.654,-11.449 3.226,-4.262 4.839,-10.724 8.326,-16.653 1.919,-3.262 5.804,-5.559 7.807,-8.848 3.103,-5.096 4.176,-17.123 3.643,-22.898 -0.431,-4.672 -2.366,-9.048 -4.684,-13.531 3.268,21.634 -5.211,39.53 -14.571,53.083 -0.468,1.523 -0.468,1.599 0,3.123 -5.657,4.422 -10.504,12.372 -18.215,13.011 3.699,-4.907 8.981,-8.074 13.53,-14.052 4.186,-5.5 5.949,-12.724 9.368,-18.735 0.573,-1.009 2.064,-1.554 2.602,-2.602 3.388,-6.607 4.9,-12.333 4.164,-19.255 -1.043,-9.795 1.903,-28.899 -8.848,-27.583 3.479,3.485 3.722,10.218 4.164,16.131 z m 58.288,-15.613 c -1.215,0 -2.429,0 -3.644,0 0.216,2.846 3.556,3.213 3.644,0 z m -43.716,7.286 c -0.314,1.247 -0.748,2.375 -0.521,4.164 5.039,16.419 8.131,39.118 5.725,55.685 -0.557,3.833 -0.231,7.989 -1.041,10.929 -1.229,4.46 -4.774,8.144 -4.163,11.97 9.354,-2.956 11.164,-14.789 11.97,-23.939 1.275,-14.491 -2.998,-22.031 -5.204,-34.869 -2.055,-11.957 -1.102,-19.348 -5.204,-27.062 -1.426,-0.83 -2.568,-1.942 -4.164,-2.602 0.392,2.383 1.697,3.854 2.602,5.724 z m 36.43,-0.521 c -0.369,-1.93 0.889,-2.233 0.521,-4.163 -4.918,-2.568 -6.229,8.328 -0.521,4.163 z M 142.6,90.554 c 0.338,2.345 -0.367,4.539 0,7.286 0.524,3.919 2.789,7.105 4.164,10.409 7.337,17.638 5.239,40.007 -6.766,52.562 17.431,-1.676 18.705,-24.334 16.653,-42.675 -1.035,-9.25 -4.932,-15.512 -7.807,-23.939 -3.427,-10.045 -4.238,-17.751 -10.929,-20.817 -0.115,-0.405 -0.436,-0.605 -1.041,-0.52 0.938,5.841 4.804,11.276 5.726,17.694 z m 8.848,-1.041 c 0.899,4.535 4.244,8.494 6.245,12.49 8.854,17.69 8.518,46.433 -4.163,59.328 4.871,0.225 9.047,-3.738 10.929,-6.245 7.028,-9.363 7.994,-30.379 5.204,-40.593 -1.541,-5.642 -4.851,-10.037 -7.807,-16.133 -4.206,-8.675 -6.271,-18.339 -13.011,-23.419 -0.361,-0.408 -2.903,-1.158 -3.122,0 3.37,2.656 4.684,9.326 5.725,14.572 z m 5.204,-9.888 c 8.18,16.365 23.517,31.945 21.337,56.206 -0.658,7.33 -2.448,14.886 -6.245,21.337 -0.424,0.783 -4.519,2.293 -2.081,2.602 7.134,-0.212 10.44,-9.5 11.97,-14.572 2.542,-8.434 0.315,-16.252 0.521,-23.939 0.182,-6.851 -1.474,-9.386 -3.644,-13.531 -2.798,-5.346 -5.005,-11.543 -8.326,-16.133 -2.433,-3.361 -5.166,-5.333 -6.245,-7.806 -1.812,-4.156 -1.654,-7.143 -5.204,-8.327 -3.786,-0.043 -5.809,1.062 -7.807,-1.041 0.645,2.997 3.092,4.193 5.724,5.204 z m 11.449,3.643 c 0.863,1.913 1.45,4.101 4.163,4.164 -1.088,-4.817 4.989,-7.475 3.644,-12.49 -5.795,-0.418 -5.685,5.07 -7.807,8.326 z m 27.582,67.134 c 6.354,-0.586 10.457,-3.421 10.93,-9.888 -4.184,2.756 -7.21,6.669 -10.93,9.888 z m 17.694,-31.746 c -0.408,-2.664 0.73,-3.78 0.521,-6.245 7.289,-9.365 16.319,-16.988 18.735,-31.225 -2.826,-2.03 -4.771,-4.944 -8.326,-6.245 0.314,1.247 0.748,2.374 0.521,4.164 -0.64,0.922 -1.015,2.108 -2.082,2.602 0.542,2.61 -0.586,5.556 -2.082,7.806 -1.825,2.745 -6.522,6.212 -7.806,8.327 -1.945,3.205 -1.655,7.664 -3.123,11.449 -2.045,5.275 -6.104,9.517 -7.286,15.613 -1.211,6.251 0.097,12.379 -2.602,18.735 -0.065,1.019 -3.319,3.073 -1.041,3.123 8.968,-5.258 8.804,-19.647 14.571,-28.104 z m 24.46,-20.296 c -5.962,8.792 -18.84,16.18 -24.979,23.939 0.354,4.692 -2.211,6.463 -2.082,10.929 4.473,-5.217 12.035,-7.188 17.174,-11.97 2.762,-2.569 3.569,-7.103 6.245,-9.888 3.609,-3.757 10.315,-4.581 10.929,-10.409 0.413,-3.923 -2.474,-9.237 -5.204,-12.49 0.785,3.261 -0.091,6.953 -2.083,9.889 z m -173.3,0 c 1.438,13.071 19.99,4.948 15.092,-5.204 -6.891,-0.184 -7.729,7.479 -15.092,5.204 z m 69.737,39.032 c 0.235,-7.548 1.248,-16.468 -4.684,-19.776 -1.648,5.943 3.859,12.919 4.684,19.776 z m 75.981,0 c -0.316,1.718 0.104,7.17 2.082,8.327 5.362,-7.475 17.201,-5.579 23.939,-11.449 4.264,-3.715 4.093,-8.628 6.245,-15.092 -0.115,-0.405 -0.437,-0.605 -1.041,-0.521 -9.562,6.781 -19.854,15.485 -31.225,18.735 z m -88.992,-5.725 c 2.264,-0.165 3.293,-1.564 5.204,-2.082 -1.23,-1.763 3.273,-5.211 0,-7.286 -1.416,3.442 -4.6,5.114 -5.204,9.368 z m 9.888,12.49 c 3.271,-2.955 0.401,-11.804 -3.122,-13.011 -1.089,4.461 3.759,7.288 3.122,13.011 z m -20.817,3.123 c 5.49,-2.663 6.393,-9.914 16.653,-7.807 -2.508,-14.192 -15.934,4.343 -16.653,7.807 z m 102.524,3.122 c 2.466,3.211 8.994,1.017 11.449,-0.521 4.892,1.514 10.383,1.201 13.01,-2.082 -0.521,-2.529 0.891,-4.975 0,-6.245 -8.622,2.48 -21.049,1.156 -24.459,8.848 z m -85.35,-1.561 c 0.807,1.306 2.11,1.743 1.041,3.643 1.609,0.048 1.551,-1.572 1.561,-3.123 -2.932,0.33 -2.496,-2.708 -4.163,-3.643 -7.701,-4.242 -11.519,3.841 -17.694,2.602 -0.845,2.798 -5.492,1.794 -5.204,5.725 8.274,1.78 13.612,-9.956 24.459,-5.204 z m 79.105,0 c -4.023,7.686 -15.938,4.264 -21.858,9.888 8.029,1.521 15.604,-1.678 19.256,-6.245 1.054,-1.201 4.152,-0.358 3.643,-3.123 -0.115,-0.405 -0.437,-0.605 -1.041,-0.52 z m -115.014,9.888 c -4.059,-3.75 -9.512,-8.874 -16.133,-8.327 2.304,5.505 10.515,7.87 16.133,8.327 z m 23.419,-5.725 c 3.125,1.731 8.039,1.676 11.449,3.123 -0.031,-4.792 -9.051,-6.981 -11.449,-3.123 z m 100.441,1.041 c 1.957,10.443 18.445,4.291 20.817,-1.561 -6.259,0.762 -14.946,3.779 -20.817,1.561 z m -120.217,4.163 c 1.241,0.918 3.946,-0.752 5.725,0.521 1.081,-1.234 -0.451,-3.01 -0.521,-4.684 -3.607,-0.483 -3.159,3.086 -5.204,4.163 z m 111.371,-4.163 c -3.68,2.689 -8.438,7.207 -14.052,7.807 -1.887,0.202 -5.605,-1.797 -6.766,0 8.18,4.655 17.481,-1.94 22.378,-7.807 -0.52,0 -1.04,0 -1.56,0 z m -129.066,4.163 c 0.486,-2.247 -1.739,-4.472 -3.123,-3.123 1.049,1.035 1.702,2.463 3.123,3.123 z m 36.951,-3.122 c -4.258,-0.338 -10.67,0.397 -9.888,4.164 8.657,-0.295 14.272,-1.673 21.337,1.561 0.56,-3.853 -7.053,-5.376 -11.449,-5.725 z m 103.044,6.245 c 3.7,6.652 15.829,0.738 18.735,-3.123 -5.633,1.395 -11.108,5.428 -18.735,3.123 z m -9.889,0 c -1.415,-0.476 1.387,-0.967 0.521,-2.602 -3.528,0.809 -6.372,2.301 -7.806,5.204 3.509,0.23 5.681,-2.526 7.285,-2.602 z m -129.585,-0.52 c 3.848,2.571 10.938,1.899 14.052,5.204 0.576,-0.984 0.664,-2.458 1.041,-3.643 -5.114,-0.322 -10.738,-5.227 -15.093,-1.561 z m 13.011,10.408 c 0.223,-0.991 1.121,-1.308 1.041,-2.602 -5.509,-3.339 -12.425,-5.27 -19.256,-7.286 2.799,6.568 12.588,6.147 18.215,9.888 z m 14.051,-7.806 c 0.001,0.522 -0.422,0.62 -0.521,1.041 5.278,2.9 13.324,-0.846 19.775,2.082 -1.626,-7.347 -13.012,-4.453 -19.254,-3.123 z m 82.747,2.602 c -0.881,2.387 1.897,3.259 3.122,3.643 3.655,1.146 11.184,-1.393 15.613,-2.082 0.234,-1.5 1.841,-1.628 1.561,-3.643 -0.109,-0.584 -0.577,-0.81 -1.04,-1.041 -3.804,4.594 -12.32,3.562 -19.256,3.123 z m 31.746,0 c 1.613,7.486 15.584,5.043 15.613,-2.082 -3.861,-0.069 -9.912,5.486 -15.613,2.082 z m -137.392,5.204 c -2.675,-1.106 -6.311,-5.818 -9.888,-2.602 5.547,2.113 11.936,6.068 17.174,6.765 1.391,-4.545 -4.386,-2.964 -7.286,-4.163 z m 31.746,-3.122 c -2.828,-0.386 -7.549,-0.75 -8.847,2.082 6.855,0.803 10.241,10.541 16.653,8.327 -2.18,-3.024 -8.812,-1.596 -8.848,-6.765 3.298,0.518 7.264,0.369 10.408,1.041 -1.445,-1.462 -5.635,-4.177 -9.366,-4.685 z m 77.543,6.765 c 4.523,0.753 15.588,5.349 17.174,-0.521 -0.928,-0.552 -8.526,3.195 -9.367,-0.521 3.088,-0.555 6.143,-1.144 9.367,-1.562 0,-1.041 0,-2.082 0,-3.123 -6.106,1.53 -11.488,3.78 -17.174,5.727 z m 31.226,-2.602 c 0.303,3.34 1.778,5.508 2.082,8.847 4.544,2.385 8.898,-0.971 10.929,-4.163 -2.901,0.364 -8.403,4.176 -10.408,0.521 5.007,-0.197 8.466,-1.943 9.367,-6.245 -3.077,0.456 -7.194,2.423 -11.97,1.04 z m -150.403,2.082 c 0.757,0.805 2.664,0.458 4.164,0.521 -0.08,-2.175 -1.667,-2.844 -4.164,-2.603 0,0.694 0,1.388 0,2.082 z m 9.368,4.163 c 1.473,-1.099 2.06,3.125 4.164,3.123 0.432,-1.302 1.425,-2.043 1.561,-3.643 -3.195,-0.164 -6.167,-5.301 -8.327,-3.122 1.991,0.38 2.471,2.846 2.602,3.642 z m 23.419,1.041 c 2.266,-0.856 6.312,0.068 6.765,-2.602 -2.2,-3.479 -8.504,-3.494 -6.765,2.602 z m -34.348,1.041 c 0.65,1.257 2.624,1.192 2.602,3.123 -1.383,0.005 -2.972,-0.197 -3.643,0.52 0.302,1.689 -0.354,2.421 -0.521,3.643 0.856,0.623 4.922,2.692 5.204,0.521 -1.276,-0.979 -2.623,-1.887 -3.123,-3.643 4.944,-0.434 5.667,3.354 7.807,5.725 1.856,-4.719 -3.961,-5.565 -4.684,-9.368 3.706,-1.172 5.218,4.073 8.327,5.205 1.589,-6.439 -5.846,-8.802 -10.929,-8.847 -0.721,0.663 -0.318,2.455 -1.04,3.121 z m 140.514,-2.082 c -1.371,-0.157 -1.708,0.721 -1.562,2.082 1.738,0.522 1.708,-0.722 1.562,-2.082 z m -2.082,0 c -4.403,2.607 -10.739,-0.715 -15.092,0.521 -0.156,2.758 4.087,1.117 6.245,1.562 2.545,1.952 5.509,2.142 9.367,1.041 0.013,-1.228 -0.896,-1.534 -0.52,-3.124 z m -89.512,4.684 c -3.836,-4.444 -9.726,-0.592 -14.571,0 0,0.867 0,1.735 0,2.602 5.524,0.027 7.414,3.688 13.01,3.643 -0.012,-1.226 0.896,-1.532 0.521,-3.123 -3.652,-0.236 -3.787,-1.319 -6.245,0.521 -0.29,-1.271 -2.014,-1.109 -1.561,-3.123 1.65,-1.821 10.36,2.764 9.888,-1.562 -0.112,0.585 -0.579,0.811 -1.042,1.042 z m 105.126,0.52 c -0.166,1.222 -0.822,1.953 -0.521,3.643 2.545,0.404 3.974,1.924 7.285,1.562 0.866,-2.951 3.002,-4.631 4.685,-6.766 -3.873,0.889 -6.664,2.947 -11.449,1.561 z m -30.705,0 c -0.117,0.984 0.586,1.148 0.521,2.082 7.026,2.069 12.345,-0.259 18.734,0.521 0.378,-1.592 -0.897,-1.531 -0.52,-3.123 -6.835,2.011 -11.756,-0.536 -18.735,0.52 z m 31.745,7.807 c 1.192,2.104 4.168,2.425 7.286,2.602 1.651,-1.471 1.563,-4.682 4.684,-4.684 0.021,-1.583 0.303,-3.425 -1.561,-3.123 -0.659,4.815 -8.64,4.536 -10.409,5.205 z m -30.185,-3.123 c -0.011,1.226 0.896,1.532 0.521,3.123 6.201,-2.001 11.04,3.42 15.093,0.521 -0.896,-1.359 -4.157,-0.353 -4.684,-2.082 2.317,-1.706 4.613,1.163 6.245,0 -4.756,-5.798 -11.139,1.574 -17.175,-1.562 z m -90.033,2.602 c 1.215,0 2.429,0 3.644,0 0.65,-2.581 -3.216,-3.346 -4.163,-2.602 1.127,-0.088 0.235,1.846 0.519,2.602 z m -37.47,-0.52 c 0.93,3.927 7.282,2.433 9.888,4.684 0.473,-5.052 -7.845,-3.86 -9.888,-4.684 z m 37.47,2.602 c 0.451,3.044 -2.27,7.838 -0.52,11.97 5.749,-1.341 8.994,2.356 11.97,2.081 -1.727,-4.519 -9.481,-3.009 -11.45,-7.286 4.908,0.333 8.723,0.32 11.97,3.123 1.06,-1.985 -0.562,-3.31 -1.04,-5.204 -2.645,0.964 -6.104,-0.505 -7.286,-2.602 2.409,-1.476 5.611,0.112 7.807,0.521 0.491,-7.091 -7.226,-1.472 -11.451,-2.603 z m -32.786,4.163 c -0.923,-2.373 -4.905,-1.688 -5.725,-4.164 -0.581,0.476 -0.164,0.968 -0.521,2.603 3.048,-0.446 4.259,0.946 6.246,1.561 z m 124.381,-2.602 c 3.43,1.5 11.398,2.514 13.531,0 -4.583,1.95 -10.52,-3.904 -13.531,0 z m 31.225,2.082 c -0.376,1.59 0.532,1.896 0.521,3.123 1.945,-1.061 5.309,1.041 7.807,-1.041 -0.632,-2.092 1.378,-3.809 -0.521,-4.164 -1.833,1.463 -4.523,2.07 -7.807,2.082 z m -31.225,0.52 c 0,0.867 0,1.735 0,2.602 3.931,0.954 9.229,-0.083 11.449,-1.041 0.528,-3.154 -8.793,-1.071 -11.449,-1.561 z m -120.738,3.643 c -2.51,-0.428 -6.409,-3.988 -10.409,-2.602 4.145,-0.476 8.034,6.366 10.409,2.602 z m -10.929,0 c 0.125,2.13 2.172,2.339 4.164,2.602 0.83,-2.98 -3.218,-3.039 -4.164,-2.602 z m 131.146,0.521 c -0.3,1.088 -1.29,1.485 -1.041,3.123 2.896,1.238 7.535,-0.066 9.889,0.521 0.266,-1.47 1.259,-2.21 1.562,-3.643 -3.755,-1.522 -6.763,2.467 -10.41,-0.001 z m 39.553,4.163 c -0.418,-1.806 0.774,-2.001 0.521,-3.644 -2.207,-0.356 -4.512,0.695 -7.286,-0.52 0.217,4.408 3.66,3.513 6.765,4.164 z M 68.7,205.047 c 0.091,1.644 2.059,1.411 3.643,1.561 -0.347,-2.503 -1.338,-1.655 -3.643,-1.561 z m 161.332,2.081 c 0,0.868 0,1.735 0,2.603 2.499,0.103 3.116,2.087 6.245,1.562 0.903,-1.734 -0.263,-2.309 0,-4.685 -2.243,0.594 -3.664,1.524 -6.245,0.52 z m -36.43,0.52 c 0.958,3.73 9.675,1.935 9.888,0 -3.039,-0.491 -6.19,1.664 -9.888,0 z m -129.585,0.521 c 0,0.521 0,1.041 0,1.562 3.156,-0.236 5.154,2.976 7.286,2.082 -0.666,-2.947 -3.73,-4.485 -7.286,-3.644 z m 41.113,0 c 0,0.521 0,1.041 0,1.562 1.013,2.062 8.356,4.51 9.888,1.041 -4.296,0.39 -5.565,-4.723 -9.888,-2.603 z m 85.349,6.766 c 2.602,1.844 5.738,0.195 8.848,1.041 0.072,-1.836 1.489,-2.327 1.562,-4.163 -3.36,0.602 -6.232,2.53 -8.848,0 -0.462,1.098 -1.584,1.538 -1.562,3.122 z M 62.976,214.414 c 2.442,-0.516 4.66,2.896 5.725,0.521 -2.008,-0.594 -2.961,-2.242 -5.204,-2.603 -0.164,0.704 -0.742,0.994 -0.521,2.082 z m 167.056,2.082 c 1.207,1.393 4.069,2.126 6.245,1.041 -0.118,-2.174 0.846,-2.458 0,-4.164 -2.297,0.215 -4.022,-0.141 -5.204,-1.041 -0.514,1.222 -0.913,2.558 -1.041,4.164 z M 105.13,213.373 c 2.185,2.152 3.734,4.939 8.326,4.685 -0.462,-1.899 0.919,-2.772 0,-3.644 -3.498,2.683 -6.388,-1.119 -8.326,-1.041 z m -43.195,3.123 c 0.205,2.06 5.084,3.93 7.286,5.725 0.277,-1.458 0.764,-2.706 1.041,-4.163 -4.274,1.192 -5.91,-2.584 -8.327,-1.562 z m 43.195,2.602 c 2.871,0.474 2.056,-2.181 0,-2.081 0,0.693 0,1.387 0,2.081 z m 88.993,3.123 c 0.088,1.303 -0.8,1.629 -1.562,2.082 -3.34,0.391 -4.129,-1.77 -6.766,-2.082 -0.462,0.926 -1.453,1.322 -1.041,3.122 3.101,0.369 5.292,1.647 7.807,2.603 1.354,-3.157 3.633,-5.388 4.163,-9.368 -3.368,0.184 -5.668,0.802 -8.326,-0.52 -0.234,3.529 3.576,3.015 5.725,4.163 z m -134.27,1.561 c 2.752,1.237 5.482,2.497 7.807,4.163 -0.323,-4.708 -3.786,-6.275 -7.286,-7.807 -0.166,1.222 -0.823,1.955 -0.521,3.644 z m 44.757,0 c 3.2,-0.425 5.135,0.416 7.285,1.04 -0.399,-1.961 0.636,-2.487 0.521,-4.163 -4.651,0.636 -7.763,-2.525 -7.806,3.123 z m 124.901,0.521 c 2.534,1.826 7.723,2.293 7.286,-2.603 -2.021,-0.225 -4.902,0.016 -6.766,-1.562 0.115,1.676 -0.92,2.203 -0.52,4.165 z M 56.73,228.986 c 2.419,1.918 6.327,2.347 9.368,3.643 -1.003,-4.027 -5.148,-4.914 -7.806,-7.286 -0.432,1.303 -1.426,2.044 -1.562,3.643 z m 46.839,-1.041 c 3.2,-0.425 5.135,0.416 7.286,1.041 -0.381,-3.316 -3.836,-2.076 -7.286,-3.123 0,0.695 0,1.388 0,2.082 z m 121.259,15.613 c 3.762,1.064 5.452,3.404 10.408,2.082 -3.567,-7.49 2.392,-11.203 1.041,-18.215 -2.161,1.711 -6.011,1.01 -7.807,-0.521 0.362,6.56 -0.577,11.382 -3.642,16.654 z m -43.196,-15.092 c -1.423,2.614 2.491,2.59 2.602,5.204 -2.177,0.169 -4.039,-1.826 -5.725,-0.521 0.01,2.245 2.593,1.918 2.603,4.163 -2.402,0.32 -2.995,-1.168 -5.204,-1.041 -2.815,2.043 -5.744,3.971 -8.848,5.726 3.854,2.218 6.812,5.33 11.449,6.765 0.024,-7.262 7.284,-7.288 9.368,-12.49 -1.688,0.267 -4.426,-1.078 -2.603,-2.602 2.243,-0.509 1.515,1.955 3.123,2.082 0.359,-2.243 2.008,-3.196 2.602,-5.205 -1.702,-1.869 -7.235,-2.338 -9.367,-2.081 z m -79.104,4.683 c 3.079,-0.304 4.964,0.587 6.766,1.562 0.53,-0.684 0.51,-1.919 1.041,-2.603 -2.817,-0.479 -4.8,-1.792 -7.286,-2.602 0.416,1.806 -0.776,2.001 -0.521,3.643 z m -49.441,3.643 c 2.766,-1.187 3.41,0.52 5.725,1.041 0.051,-4.518 -5.731,-7.55 -5.725,-1.041 z m 11.45,0.52 c 0.116,-0.403 0.014,-1.026 0.52,-1.041 -0.348,-2.08 -2.843,-2.014 -4.684,-2.602 0.536,2.067 1.315,3.891 4.164,3.643 z m 37.47,-1.041 c 0,0.521 0,1.041 0,1.562 1.814,1.308 3.849,2.396 6.766,2.603 0.543,-1.475 0.543,-2.169 0,-3.644 -2.891,0.594 -4.549,-2.092 -6.766,-0.521 z M 43.72,247.722 c 1.777,2.038 4.746,2.887 7.806,3.643 0.82,-4.731 5.298,-5.805 6.766,-9.888 -2.176,-1.12 -3.422,-3.17 -6.245,-3.644 -1.7,4.372 -5.916,6.228 -8.327,9.889 z m 55.685,-3.644 c 4.308,-1.222 7.104,1.344 9.889,3.123 0.228,-1.789 -0.206,-2.917 -0.521,-4.164 -4.522,2.249 -4.617,-2.518 -8.848,-2.081 0.378,1.592 -0.897,1.53 -0.52,3.122 z M 92.12,258.65 c 3.245,2.248 4.329,3.569 9.367,3.643 0.248,-3.742 2.167,-5.813 3.123,-8.847 -1.231,-1.545 -3.637,-1.915 -3.644,-4.685 2.854,0.14 4.432,2.995 7.286,1.562 -2.062,-3.111 -5.708,-5.118 -9.367,-5.204 1.378,5.604 -4.077,9.033 -6.765,13.531 z"
       id="path208"
       inkscape:connector-curvature="0"
       style="clip-rule:evenodd;fill-rule:evenodd" /><path
       d="M 4.168,86.39 C 1.892,77.666 2.208,71.6 5.729,64.532 6.82,62.342 8.288,60.582 9.372,58.287 12.216,52.268 15.6,44.369 18.74,38.511 c -0.921,-1.386 -2.201,1.227 -3.123,1.561 -0.336,-1.656 -1.551,-6.111 -0.521,-9.367 3.03,-1.481 5.434,-3.587 6.766,-6.766 0.809,3.073 -3.372,5.641 -5.204,7.806 -0.232,2.313 1.41,2.754 2.082,4.164 1.878,-3.499 3.164,-7.592 5.204,-10.929 1.527,3.515 -3.316,7.682 -1.561,11.449 4.461,-0.049 2.001,-7.02 4.163,-9.368 0.574,0.974 0.565,5.668 0.521,8.847 -9.157,7.773 -10.97,21.574 -16.653,31.746 3.846,-1.358 4.831,-5.577 5.725,-9.888 3.651,-7.625 7.025,-15.526 13.01,-20.816 -0.944,-4.507 0.571,-11.011 1.041,-15.613 0.966,3.863 2.734,9.843 0,13.531 -0.339,2.518 4.614,3.777 5.725,1.562 -3.483,-4.036 -1.934,-10.456 -3.123,-16.133 3.808,-0.338 3.369,3.57 5.725,4.684 -0.375,-6.048 -7.671,-11.494 -2.602,-19.256 5.696,3.554 11.857,9.01 9.368,17.694 1.925,-0.157 0.833,-3.331 3.643,-2.602 2.271,4.036 0.962,7.724 0,11.449 -2.556,9.899 -0.713,22.1 -3.123,32.266 -4.602,-3.82 2.254,-12.796 -1.041,-18.215 0.317,-4.515 4.048,-9.241 2.082,-15.612 -3.473,9.619 -3.967,23.972 -3.643,35.389 -0.72,1.362 -0.272,3.892 -2.082,4.163 0.057,-2.234 1.062,-3.832 -0.52,-5.204 -2.324,1.84 0.083,8.411 -4.164,8.327 -0.859,-7.135 3.544,-8.428 3.643,-15.613 -3.406,-4.087 -10.296,-1.863 -15.092,-0.52 0.946,4.716 8.29,-0.143 11.449,2.082 0.731,2.125 -0.692,6.116 -1.561,8.327 0.377,1.882 -0.898,1.882 -0.521,0 0.554,-3.33 -0.994,-4.557 -2.082,-6.245 -4.925,-0.046 -10.276,-2.864 -11.97,1.562 1.957,3.191 7.569,0.639 11.45,1.041 0.939,1.233 -0.229,4.275 1.041,6.245 -1.544,1.532 -5.483,-3.527 -9.368,-1.561 -1.635,-0.273 -2.903,-0.913 -4.163,-1.561 -2.396,7.049 7.574,2.05 9.368,5.204 -0.185,1.376 -2.652,0.471 -3.123,1.561 0.137,1.945 1.595,2.568 2.082,4.164 -1.333,1.437 -2.043,-4.231 -4.684,-1.562 -0.28,2.362 2.773,1.39 2.602,3.643 -3.12,4.938 -5.496,15.061 -14.052,9.888 6.009,-1.451 9.391,-5.528 11.45,-10.929 -3.068,-0.112 -4.687,5.716 -6.766,8.327 -6.221,0.34 -6.76,0.526 -11.97,-1.043 z M 17.699,60.369 c 2.882,-6.661 8.268,-13.588 9.888,-19.776 -5.312,4.231 -8.485,13.37 -9.888,19.776 z m 24.46,-41.634 c -0.12,-3.697 -0.97,-6.663 -4.163,-7.286 -2.421,2.772 0.921,6.909 4.163,7.286 z m -2.082,17.174 c 1.271,-1.531 -1.884,-1.969 -1.562,-4.164 0.71,-2.208 0.291,-5.698 -2.082,-4.163 0.454,3.095 -0.567,7.837 3.644,8.327 z m 3.643,0.521 c 0.728,-1.224 1.263,-9.06 -2.082,-7.286 1.842,2.439 -1.524,6.998 2.082,7.286 z M 11.974,57.767 c -1.707,1.512 -4.743,6.923 -3.643,7.807 6.479,-7.052 8.32,-18.742 13.531,-27.062 -0.11,-0.584 -0.578,-0.81 -1.041,-1.041 -3.182,6.531 -6.942,12.486 -8.847,20.296 z M 30.189,44.756 c 1.59,1.012 4.016,1.188 6.766,1.041 0.984,-2.218 5.524,-5.572 3.643,-7.286 -2.96,2.034 -12.93,-1.608 -10.409,6.245 z m -3.643,4.684 c -1.136,2.854 -3.98,4 -4.684,7.286 2.642,-1.731 5.953,-4.261 10.408,-2.602 1.794,-3.8 10.557,-6.04 8.847,-9.888 -2.735,3.931 -7.617,7.047 -14.571,5.204 z m 9.888,2.082 c 1.508,2.482 4.567,3.412 5.725,6.245 1.682,-2.655 0.106,-4.468 -1.041,-6.765 -1.896,-0.162 -3.387,0.082 -4.684,0.52 z m -25.5,29.144 c 3.35,-0.293 5.181,-2.105 5.204,-5.725 -3.971,-0.564 -7.003,2.213 -5.204,5.725 z"
       id="path210"
       inkscape:connector-curvature="0"
       style="clip-rule:evenodd;fill:#ffffff;fill-rule:evenodd" /><path
       d="m 59.853,90.554 c 1.191,-0.544 3.139,-0.331 4.164,-1.041 3.566,-4.001 8.819,-3.136 13.01,-6.245 7.01,-3.9 4.446,-13.252 6.766,-21.337 1.456,-5.075 7.155,-10.798 3.643,-16.133 2.272,-2.584 3.82,-5.895 5.205,-9.367 7.137,2.938 1.781,8.091 1.04,14.051 -3.097,0.322 -1.949,-3.601 -4.163,-4.164 5.372,10.867 -5.64,16.674 -3.643,27.062 -0.231,0.757 -0.457,-0.053 -1.041,0 -0.805,10.601 -17.219,29.871 -24.981,17.174 z"
       id="path212"
       inkscape:connector-curvature="0"
       style="clip-rule:evenodd;fill:#ffffff;fill-rule:evenodd" /><path
       d="m 103.048,154.045 c -0.288,-3.931 4.359,-2.926 5.204,-5.725 6.176,1.239 9.993,-6.844 17.694,-2.602 1.667,0.935 1.231,3.973 4.163,3.643 -0.01,1.551 0.049,3.171 -1.561,3.123 1.069,-1.9 -0.234,-2.337 -1.041,-3.643 -10.846,-4.752 -16.184,6.984 -24.459,5.204 z"
       id="path214"
       inkscape:connector-curvature="0"
       style="clip-rule:evenodd;fill:#ffffff;fill-rule:evenodd" /><path
       d="m 200.368,163.933 c 1.434,-2.903 4.277,-4.396 7.806,-5.204 0.866,1.635 -1.936,2.126 -0.521,2.602 -1.604,0.076 -3.776,2.832 -7.285,2.602 z"
       id="path216"
       inkscape:connector-curvature="0"
       style="clip-rule:evenodd;fill:#ffffff;fill-rule:evenodd" /><path
       d="m 79.109,174.862 c 2.159,-2.179 5.132,2.958 8.327,3.122 -0.136,1.6 -1.129,2.341 -1.561,3.643 -2.104,0.002 -2.69,-4.222 -4.164,-3.123 -0.131,-0.795 -0.611,-3.261 -2.602,-3.642 z"
       id="path218"
       inkscape:connector-curvature="0"
       style="clip-rule:evenodd;fill:#ffffff;fill-rule:evenodd" /><path
       d="m 120.743,182.148 c 0.473,4.325 -8.237,-0.259 -9.888,1.562 -0.453,2.014 1.271,1.851 1.561,3.123 2.458,-1.84 2.593,-0.757 6.245,-0.521 0.376,1.59 -0.532,1.896 -0.521,3.123 -5.596,0.045 -7.485,-3.616 -13.01,-3.643 0,-0.867 0,-1.735 0,-2.602 4.846,-0.592 10.735,-4.444 14.571,0 0.464,-0.232 0.931,-0.458 1.042,-1.042 z"
       id="path220"
       inkscape:connector-curvature="0"
       style="clip-rule:evenodd;fill:#ffffff;fill-rule:evenodd" /><path
       d="m 66.619,195.679 c 0.356,-1.635 -0.06,-2.127 0.521,-2.603 0.82,2.476 4.801,1.791 5.725,4.164 -1.988,-0.615 -3.199,-2.007 -6.246,-1.561 z"
       id="path222"
       inkscape:connector-curvature="0"
       style="clip-rule:evenodd;fill:#ffffff;fill-rule:evenodd" /><path
       d="m 37.996,11.449 c 3.193,0.623 4.043,3.589 4.163,7.286 -3.242,-0.377 -6.584,-4.514 -4.163,-7.286 z"
       id="path224"
       inkscape:connector-curvature="0"
       style="clip-rule:evenodd;fill-rule:evenodd" /><path
       d="m 40.598,38.511 c 1.881,1.713 -2.659,5.068 -3.643,7.286 -2.75,0.148 -5.175,-0.029 -6.766,-1.041 -2.521,-7.853 7.449,-4.211 10.409,-6.245 z"
       id="path226"
       inkscape:connector-curvature="0"
       style="clip-rule:evenodd;fill-rule:evenodd" /><path
       d="m 41.118,51.001 c 1.147,2.297 2.723,4.11 1.041,6.765 -1.157,-2.833 -4.217,-3.763 -5.725,-6.245 1.297,-0.437 2.788,-0.681 4.684,-0.52 z"
       id="path228"
       inkscape:connector-curvature="0"
       style="clip-rule:evenodd;fill-rule:evenodd" /></g></svg>