<?xml version="1.0" encoding="UTF-8" standalone="no"?>
<!-- Created with Inkscape (http://www.inkscape.org/) -->

<svg
   xmlns:dc="http://purl.org/dc/elements/1.1/"
   xmlns:cc="http://creativecommons.org/ns#"
   xmlns:rdf="http://www.w3.org/1999/02/22-rdf-syntax-ns#"
   xmlns:svg="http://www.w3.org/2000/svg"
   xmlns="http://www.w3.org/2000/svg"
   xmlns:xlink="http://www.w3.org/1999/xlink"
   xmlns:sodipodi="http://sodipodi.sourceforge.net/DTD/sodipodi-0.dtd"
   xmlns:inkscape="http://www.inkscape.org/namespaces/inkscape"
   height="121.71301"
   id="svg2"
   inkscape:export-filename="/home/petri/Desktop/Omat Open ClipArt kuvat/ABC_Block.png"
   inkscape:export-xdpi="50.415062"
   inkscape:export-ydpi="50.415062"
   inkscape:version="0.92.2 (5c3e80d, 2017-08-06)"
   sodipodi:docname="myabcs.svg"
   sodipodi:version="0.32"
   width="127.99974"
   version="1.1">
  <title
     id="title940">ABC Blocks</title>
  <metadata
     id="metadata2">
    <rdf:RDF>
      <cc:Work
         rdf:about="">
        <dc:title>ABC Blocks</dc:title>
        <dc:description>ABC blocks</dc:description>
        <dc:subject>
          <rdf:Bag>
            <rdf:li>hash(0x897d730)</rdf:li>
            <rdf:li>toys</rdf:li>
            <rdf:li />
            <rdf:li>hash(0x897d6dc)</rdf:li>
            <rdf:li>toy</rdf:li>
            <rdf:li>entertainment</rdf:li>
            <rdf:li>hash(0x897d760)</rdf:li>
            <rdf:li>recreation</rdf:li>
          </rdf:Bag>
        </dc:subject>
        <dc:publisher>
          <cc:Agent
             rdf:about="http://www.openclipart.org">
            <dc:title>Petri Lummemaki</dc:title>
          </cc:Agent>
        </dc:publisher>
        <dc:creator>
          <cc:Agent>
            <dc:title>Petri Lummemaki</dc:title>
          </cc:Agent>
        </dc:creator>
        <dc:rights>
          <cc:Agent>
            <dc:title>Petri Lummemaki</dc:title>
          </cc:Agent>
        </dc:rights>
        <dc:date />
        <dc:format>image/svg+xml</dc:format>
        <dc:type
           rdf:resource="http://purl.org/dc/dcmitype/StillImage" />
        <cc:license
           rdf:resource="http://creativecommons.org/publicdomain/zero/1.0/" />
        <dc:language>en</dc:language>
      </cc:Work>
      <cc:License
         rdf:about="http://creativecommons.org/publicdomain/zero/1.0/">
        <cc:permits
           rdf:resource="http://creativecommons.org/ns#Reproduction" />
        <cc:permits
           rdf:resource="http://creativecommons.org/ns#Distribution" />
        <cc:permits
           rdf:resource="http://creativecommons.org/ns#DerivativeWorks" />
      </cc:License>
    </rdf:RDF>
  </metadata>
  <defs
     id="defs3">
    <linearGradient
       id="linearGradient6186"
       inkscape:collect="always">
      <stop
         id="stop6188"
         offset="0"
         style="stop-color:#000000;stop-opacity:1;" />
      <stop
         id="stop6190"
         offset="1"
         style="stop-color:#000000;stop-opacity:0;" />
    </linearGradient>
    <linearGradient
       gradientTransform="matrix(0.998892,0,0,1.001109,506.9933,258.4776)"
       gradientUnits="userSpaceOnUse"
       id="linearGradient3937"
       inkscape:collect="always"
       spreadMethod="repeat"
       x1="24.243052"
       x2="30.87134"
       xlink:href="#linearGradient3791"
       y1="596.61749"
       y2="596.61786" />
    <linearGradient
       gradientTransform="matrix(1.518764,0,0,0.65843,-63.05059,85.43143)"
       gradientUnits="userSpaceOnUse"
       id="linearGradient3934"
       inkscape:collect="always"
       spreadMethod="repeat"
       x1="1013.8867"
       x2="1020.39"
       xlink:href="#linearGradient3791"
       y1="1627.9573"
       y2="1628.3989" />
    <linearGradient
       gradientTransform="matrix(1.512397,0,0,0.661202,656.2972,644.4512)"
       gradientUnits="userSpaceOnUse"
       id="linearGradient3931"
       inkscape:collect="always"
       spreadMethod="repeat"
       x1="467.7955"
       x2="470.80038"
       xlink:href="#linearGradient3791"
       y1="613.11975"
       y2="593.36243" />
    <linearGradient
       id="linearGradient3791">
      <stop
         id="stop3793"
         offset="0.0000000"
         style="stop-color:#cdb16a;stop-opacity:1.0000000;" />
      <stop
         id="stop3805"
         offset="0.094398789"
         style="stop-color:#ad9d5f;stop-opacity:1.0000000;" />
      <stop
         id="stop3807"
         offset="0.14159818"
         style="stop-color:#b7a154;stop-opacity:1.0000000;" />
      <stop
         id="stop3809"
         offset="0.16519788"
         style="stop-color:#c28947;stop-opacity:1.0000000;" />
      <stop
         id="stop3825"
         offset="0.18879758"
         style="stop-color:#c9ac46;stop-opacity:1.0000000;" />
      <stop
         id="stop3811"
         offset="0.18879758"
         style="stop-color:#c0891f;stop-opacity:1.0000000;" />
      <stop
         id="stop3821"
         offset="0.18879758"
         style="stop-color:#ba883a;stop-opacity:1.0000000;" />
      <stop
         id="stop3797"
         offset="0.18879758"
         style="stop-color:#bda976;stop-opacity:1.0000000;" />
      <stop
         id="stop3803"
         offset="0.71323532"
         style="stop-color:#c5ad4a;stop-opacity:1.0000000;" />
      <stop
         id="stop3823"
         offset="0.72631919"
         style="stop-color:#cda955;stop-opacity:1.0000000;" />
      <stop
         id="stop3819"
         offset="0.72631919"
         style="stop-color:#d5ad43;stop-opacity:1.0000000;" />
      <stop
         id="stop3815"
         offset="0.73940313"
         style="stop-color:#d7a13c;stop-opacity:1.0000000;" />
      <stop
         id="stop3817"
         offset="0.75248706"
         style="stop-color:#b5955b;stop-opacity:1.0000000;" />
      <stop
         id="stop3799"
         offset="0.76557094"
         style="stop-color:#beb459;stop-opacity:1.0000000;" />
      <stop
         id="stop3813"
         offset="0.81728327"
         style="stop-color:#b8a46c;stop-opacity:1.0000000;" />
      <stop
         id="stop3801"
         offset="0.86899555"
         style="stop-color:#a39e35;stop-opacity:1.0000000;" />
      <stop
         id="stop3795"
         offset="1.0000000"
         style="stop-color:#a8a056;stop-opacity:1.0000000;" />
    </linearGradient>
    <linearGradient
       gradientTransform="matrix(1.518764,0,0,0.65843,833.0301,415.1128)"
       gradientUnits="userSpaceOnUse"
       id="linearGradient1386"
       inkscape:collect="always"
       spreadMethod="repeat"
       x1="423.88007"
       x2="435.6506"
       xlink:href="#linearGradient3791"
       y1="1127.2489"
       y2="1132.7515" />
    <linearGradient
       gradientTransform="matrix(1.518764,0,0,0.65843,150.1615,-9.842838)"
       gradientUnits="userSpaceOnUse"
       id="linearGradient3099"
       inkscape:collect="always"
       spreadMethod="repeat"
       x1="1013.8867"
       x2="1020.39"
       xlink:href="#linearGradient3791"
       y1="1627.9573"
       y2="1628.3989" />
    <linearGradient
       gradientTransform="matrix(1.512397,0,0,0.661202,823.7307,1010.583)"
       gradientUnits="userSpaceOnUse"
       id="linearGradient3103"
       inkscape:collect="always"
       spreadMethod="repeat"
       x1="467.7955"
       x2="470.80038"
       xlink:href="#linearGradient3791"
       y1="613.11975"
       y2="593.36243" />
    <linearGradient
       gradientTransform="matrix(1.518764,0,0,0.65843,1046.242,319.8379)"
       gradientUnits="userSpaceOnUse"
       id="linearGradient3106"
       inkscape:collect="always"
       spreadMethod="repeat"
       x1="423.88007"
       x2="435.6506"
       xlink:href="#linearGradient3791"
       y1="1127.2489"
       y2="1132.7515" />
    <linearGradient
       gradientTransform="matrix(0.998892,0,0,1.001109,795.0351,199.8985)"
       gradientUnits="userSpaceOnUse"
       id="linearGradient3109"
       inkscape:collect="always"
       spreadMethod="repeat"
       x1="24.243052"
       x2="30.87134"
       xlink:href="#linearGradient3791"
       y1="596.61749"
       y2="596.61786" />
    <linearGradient
       gradientTransform="matrix(1.518764,0,0,0.65843,-337.2098,-355.5674)"
       gradientUnits="userSpaceOnUse"
       id="linearGradient3880"
       inkscape:collect="always"
       spreadMethod="repeat"
       x1="1013.8867"
       x2="1020.39"
       xlink:href="#linearGradient3791"
       y1="1627.9573"
       y2="1628.3989" />
    <linearGradient
       gradientTransform="matrix(1.512397,0,0,0.661202,439.4805,736.228)"
       gradientUnits="userSpaceOnUse"
       id="linearGradient3884"
       inkscape:collect="always"
       spreadMethod="repeat"
       x1="467.7955"
       x2="470.80038"
       xlink:href="#linearGradient3791"
       y1="613.11975"
       y2="593.36243" />
    <linearGradient
       gradientTransform="matrix(1.518764,0,0,0.65843,558.8706,-25.88625)"
       gradientUnits="userSpaceOnUse"
       id="linearGradient3887"
       inkscape:collect="always"
       spreadMethod="repeat"
       x1="423.88007"
       x2="435.6506"
       xlink:href="#linearGradient3791"
       y1="1127.2489"
       y2="1132.7515" />
    <linearGradient
       gradientTransform="matrix(0.998892,0,0,1.001109,579.2013,-14.99281)"
       gradientUnits="userSpaceOnUse"
       id="linearGradient3890"
       inkscape:collect="always"
       spreadMethod="repeat"
       x1="24.243052"
       x2="30.87134"
       xlink:href="#linearGradient3791"
       y1="596.61749"
       y2="596.61786" />
    <radialGradient
       cx="507.46054"
       cy="1510.8291"
       fx="505.95682"
       fy="1510.8287"
       gradientTransform="matrix(1.901402,0,0,1.340453,-233.5715,-1113.983)"
       gradientUnits="userSpaceOnUse"
       id="radialGradient6194"
       inkscape:collect="always"
       r="119.88471"
       xlink:href="#linearGradient6186" />
  </defs>
  <sodipodi:namedview
     bordercolor="#666666"
     borderopacity="1.0"
     id="base"
     inkscape:current-layer="g1370"
     inkscape:cx="-172.81243"
     inkscape:cy="-44.274398"
     inkscape:document-units="px"
     inkscape:pageopacity="0.0"
     inkscape:pageshadow="2"
     inkscape:window-height="1025"
     inkscape:window-width="1920"
     inkscape:window-x="-8"
     inkscape:window-y="-8"
     inkscape:zoom="0.60938539"
     pagecolor="#ffffff"
     showborder="true"
     showgrid="false"
     inkscape:window-maximized="1"
     fit-margin-top="0"
     fit-margin-left="0"
     fit-margin-right="0"
     fit-margin-bottom="0"
     units="px" />
  <g
     id="layer1"
     inkscape:groupmode="layer"
     inkscape:label="Layer 1"
     transform="translate(-295.58607,-446.98962)">
    <g
       id="g1370"
       inkscape:groupmode="layer"
       inkscape:label="Layer 1"
       transform="translate(-459.8974,-181.9364)">
      <g
         id="g938"
         transform="matrix(0.22198537,0,0,0.22198537,637.57003,536.66089)">
        <rect
           y="747.92828"
           x="531.20953"
           width="215.18022"
           style="fill:url(#linearGradient3937);fill-opacity:1;fill-rule:nonzero;stroke:none;stroke-linecap:butt;stroke-linejoin:miter;stroke-opacity:1"
           id="rect1291"
           height="215.65778" />
        <rect
           y="1110.6721"
           x="1476.8033"
           width="215.23103"
           transform="matrix(0.999998,0.00184273,-0.785414,0.61897,0,0)"
           style="fill:url(#linearGradient1386);fill-opacity:1;fill-rule:nonzero;stroke:none;stroke-linecap:butt;stroke-linejoin:miter;stroke-opacity:1"
           id="rect1293"
           height="93.309158" />
        <rect
           y="947.95557"
           x="1333.7333"
           width="215.13086"
           transform="matrix(-2.199067e-5,1,0.786728,-0.6173,0,0)"
           style="fill:url(#linearGradient3931);fill-opacity:1;fill-rule:nonzero;stroke:none;stroke-linecap:butt;stroke-linejoin:miter;stroke-opacity:1"
           id="rect1295"
           height="94.052788" />
        <path
           inkscape:connector-curvature="0"
           style="fill:#009815;fill-opacity:1;fill-rule:nonzero;stroke:none;stroke-linecap:butt;stroke-linejoin:miter;stroke-opacity:1"
           id="rect2844"
           d="m 557.36513,758.04648 c -8.61223,0 -15.5625,6.919 -15.5625,15.53125 v 161.0625 c 0,8.61223 6.95027,15.53123 15.5625,15.53125 h 162.90625 c 8.61223,0 15.5625,-6.91905 15.5625,-15.53125 v -161.0625 c 0,-8.61223 -6.95026,-15.53125 -15.5625,-15.53125 z m 15.53125,17.09375 h 129.96875 c 8.61223,0 15.5625,6.91902 15.5625,15.53125 v 126.25 c -10e-6,8.61223 -6.95027,15.53125 -15.5625,15.53125 H 572.89638 c -8.61223,2e-5 -15.53125,-6.91902 -15.53125,-15.53125 v -126.25 c 0,-8.61222 6.91902,-15.53125 15.53125,-15.53125 z" />
        <rect
           y="1110.6721"
           x="1476.8033"
           width="215.23103"
           transform="matrix(0.999998,0.00184273,-0.785414,0.61897,0,0)"
           style="fill:url(#linearGradient3934);fill-opacity:1;fill-rule:nonzero;stroke:none;stroke-linecap:butt;stroke-linejoin:miter;stroke-opacity:1"
           id="rect4707"
           height="93.309158" />
        <path
           inkscape:connector-curvature="0"
           style="fill:#009815;fill-opacity:1;fill-rule:nonzero;stroke:none;stroke-linecap:butt;stroke-linejoin:miter;stroke-opacity:1"
           id="path3607"
           d="m 622.30075,696.1779 c -8.49885,0 -17.31487,1.6341 -19.75119,3.66809 l -45.56222,38.03887 c -2.43627,2.03399 2.46522,3.66808 10.96408,3.66809 h 160.76185 c 8.49886,0 17.31491,-1.63411 19.75119,-3.66809 l 45.56223,-38.03887 c 2.43628,-2.03399 -2.46522,-3.66809 -10.9641,-3.66809 z m 10.49124,4.03711 h 128.25792 c 8.49886,0 13.40038,1.6341 10.96406,3.66809 l -35.71423,29.81705 c -2.4363,2.03399 -11.25236,3.66808 -19.75122,3.66808 H 588.2906 c -8.49889,0 -13.36948,-1.63409 -10.9332,-3.66808 l 35.71426,-29.81705 c 2.43625,-2.03399 11.22148,-3.66809 19.72033,-3.66809 z" />
        <path
           inkscape:connector-curvature="0"
           style="fill:#009815;fill-opacity:1;fill-rule:nonzero;stroke:none;stroke-linecap:butt;stroke-linejoin:miter;stroke-opacity:1"
           id="path1305"
           d="m 755.06278,767.18738 c -0.0181,-8.67483 2.06268,-17.31721 4.67085,-19.3606 l 48.77665,-38.21418 c 2.60816,-2.04338 4.71813,3.3158 4.73623,11.99065 l 0.34238,164.09054 c 0.0181,8.67483 -2.06268,17.31724 -4.67084,19.36061 l -48.77666,38.21418 c -2.60815,2.04338 -4.71814,-3.31579 -4.73622,-11.99066 z m 5.20937,11.58845 0.27315,130.9136 c 0.0181,8.67484 2.1281,14.03403 4.73625,11.99063 l 38.23393,-29.95442 c 2.60816,-2.04339 4.68894,-10.6858 4.67082,-19.36064 l -0.27315,-130.9136 c -0.0181,-8.67485 -2.12801,-14.00249 -4.73617,-11.95913 l -38.23393,29.95446 c -2.60816,2.04332 -4.689,10.65427 -4.6709,19.3291 z" />
        <text
           y="965.58972"
           xml:space="preserve"
           x="543.00092"
           transform="scale(1.054873,0.947981)"
           style="font-style:normal;font-weight:normal;line-height:0%;font-family:'Bitstream Vera Sans';fill:#009815;fill-opacity:1;stroke:none;stroke-width:1px;stroke-linecap:butt;stroke-linejoin:miter;stroke-opacity:1"
           id="text2831"><tspan
             style="font-size:175.51856995px;line-height:1.25"
             y="965.58972"
             x="543.00092"
             sodipodi:role="line"
             id="tspan2833">A</tspan></text>
        <text
           y="1659.0939"
           xml:space="preserve"
           x="658.50757"
           transform="matrix(2.271519,0,-0.544193,0.440234,0,0)"
           style="font-style:normal;font-weight:normal;line-height:0%;font-family:'Bitstream Vera Sans';fill:#009815;fill-opacity:1;stroke:none;stroke-width:1px;stroke-linecap:butt;stroke-linejoin:miter;stroke-opacity:1"
           id="text2835"><tspan
             style="font-size:81.50923157px;line-height:1.25"
             y="1659.0939"
             x="658.50757"
             sodipodi:role="line"
             id="tspan2837">A</tspan></text>
        <text
           y="935.13464"
           xml:space="preserve"
           x="1332.2489"
           transform="matrix(0.599276,-0.515171,-0.03822711,1.701543,0,0)"
           style="font-style:normal;font-weight:normal;line-height:0%;font-family:'Bitstream Vera Sans';fill:#009815;fill-opacity:1;stroke:none;stroke-width:1px;stroke-linecap:butt;stroke-linejoin:miter;stroke-opacity:1"
           id="text2839"><tspan
             style="font-size:97.78666687px;line-height:1.25"
             y="935.13464"
             x="1332.2489"
             sodipodi:role="line"
             id="tspan2841">A</tspan></text>
        <rect
           y="947.26501"
           x="1333.5448"
           width="215.13086"
           transform="matrix(-2.199067e-5,1,0.786728,-0.6173,0,0)"
           style="opacity:0.38983053;fill:#000000;fill-opacity:1;fill-rule:nonzero;stroke:none;stroke-linecap:butt;stroke-linejoin:miter;stroke-opacity:1"
           id="rect3939"
           height="94.052811" />
        <rect
           y="1108.2791"
           x="1476.0784"
           width="215.23091"
           transform="matrix(0.999998,0.00184273,-0.785414,0.61897,0,0)"
           style="opacity:0.15254235;fill:#000000;fill-opacity:1;fill-rule:nonzero;stroke:none;stroke-linecap:butt;stroke-linejoin:miter;stroke-opacity:1"
           id="rect2194"
           height="93.309067" />
        <rect
           y="689.34912"
           x="819.25128"
           width="215.18022"
           style="fill:url(#linearGradient3109);fill-opacity:1;fill-rule:nonzero;stroke:none;stroke-linecap:butt;stroke-linejoin:miter;stroke-opacity:1"
           id="rect2962"
           height="215.65778" />
        <rect
           y="1015.3963"
           x="1690.014"
           width="215.23085"
           transform="matrix(0.999998,0.00184273,-0.785414,0.61897,0,0)"
           style="fill:url(#linearGradient3106);fill-opacity:1;fill-rule:nonzero;stroke:none;stroke-linecap:butt;stroke-linejoin:miter;stroke-opacity:1"
           id="rect2964"
           height="93.309021" />
        <rect
           y="1314.087"
           x="1501.1669"
           width="215.13086"
           transform="matrix(-2.199067e-5,1,0.786728,-0.6173,0,0)"
           style="fill:url(#linearGradient3103);fill-opacity:1;fill-rule:nonzero;stroke:none;stroke-linecap:butt;stroke-linejoin:miter;stroke-opacity:1"
           id="rect2966"
           height="94.052811" />
        <path
           inkscape:connector-curvature="0"
           style="fill:#ca1800;fill-opacity:1;fill-rule:nonzero;stroke:none;stroke-linecap:butt;stroke-linejoin:miter;stroke-opacity:1"
           id="path2968"
           d="m 845.40689,699.46735 c -8.61223,0 -15.5625,6.919 -15.5625,15.53125 v 161.0625 c 0,8.61223 6.95027,15.53123 15.5625,15.53125 h 162.90621 c 8.6123,0 15.5625,-6.91905 15.5625,-15.53125 V 714.9986 c 0,-8.61223 -6.9502,-15.53125 -15.5625,-15.53125 z m 15.53125,17.09375 H 990.9069 c 8.6122,0 15.5625,6.91902 15.5625,15.53125 v 126.25 c 0,8.61223 -6.9503,15.53125 -15.5625,15.53125 H 860.93814 c -8.61223,2e-5 -15.53125,-6.91902 -15.53125,-15.53125 v -126.25 c 0,-8.61222 6.91902,-15.53125 15.53125,-15.53125 z" />
        <rect
           y="1015.3963"
           x="1690.014"
           width="215.23085"
           transform="matrix(0.999998,0.00184273,-0.785414,0.61897,0,0)"
           style="fill:url(#linearGradient3099);fill-opacity:1;fill-rule:nonzero;stroke:none;stroke-linecap:butt;stroke-linejoin:miter;stroke-opacity:1"
           id="rect2970"
           height="93.309021" />
        <path
           inkscape:connector-curvature="0"
           style="fill:#ca1800;fill-opacity:1;fill-rule:nonzero;stroke:none;stroke-linecap:butt;stroke-linejoin:miter;stroke-opacity:1"
           id="path2972"
           d="m 910.3425,637.59877 c -8.4988,0 -17.3149,1.6341 -19.7512,3.66809 l -45.5622,38.03887 c -2.43627,2.03399 2.46522,3.66808 10.96408,3.66809 H 1016.755 c 8.4989,0 17.3149,-1.63411 19.7512,-3.66809 l 45.5622,-38.03887 c 2.4363,-2.03399 -2.4652,-3.66809 -10.9641,-3.66809 z m 10.4913,4.03711 h 128.2579 c 8.4988,0 13.4004,1.6341 10.964,3.66809 l -35.7142,29.81705 c -2.4363,2.03399 -11.2524,3.66808 -19.7512,3.66808 H 876.3324 c -8.49893,0 -13.36952,-1.63409 -10.93324,-3.66808 l 35.71424,-29.81705 c 2.4363,-2.03399 11.2215,-3.66809 19.7204,-3.66809 z" />
        <path
           inkscape:connector-curvature="0"
           style="fill:#ca1800;fill-opacity:1;fill-rule:nonzero;stroke:none;stroke-linecap:butt;stroke-linejoin:miter;stroke-opacity:1"
           id="path2974"
           d="m 1043.1045,708.60825 c -0.018,-8.67483 2.0627,-17.31721 4.6709,-19.3606 l 48.7766,-38.21418 c 2.6082,-2.04338 4.7182,3.3158 4.7363,11.99065 l 0.3423,164.09054 c 0.018,8.67483 -2.0626,17.31724 -4.6708,19.36061 l -48.7766,38.21418 c -2.6082,2.04338 -4.7182,-3.31579 -4.7363,-11.99066 z m 5.2094,11.58845 0.2732,130.9136 c 0.018,8.67484 2.1281,14.03403 4.7362,11.99063 l 38.2339,-29.95442 c 2.6082,-2.04339 4.689,-10.6858 4.6709,-19.36064 l -0.2732,-130.9136 c -0.018,-8.67485 -2.128,-14.00249 -4.7362,-11.95913 l -38.2339,29.95446 c -2.6081,2.04332 -4.689,10.65427 -4.6709,19.3291 z" />
        <text
           y="903.79553"
           xml:space="preserve"
           x="816.05847"
           transform="scale(1.054873,0.947981)"
           style="font-style:normal;font-weight:normal;line-height:0%;font-family:'Bitstream Vera Sans';fill:#ca1800;fill-opacity:1;stroke:none;stroke-width:1px;stroke-linecap:butt;stroke-linejoin:miter;stroke-opacity:1"
           id="text2976"><tspan
             style="font-size:175.51843262px;line-height:1.25"
             y="903.79553"
             x="816.05847"
             sodipodi:role="line"
             id="tspan2978">B</tspan></text>
        <text
           y="1526.03"
           xml:space="preserve"
           x="753.43488"
           transform="matrix(2.271519,0,-0.544193,0.440234,0,0)"
           style="font-style:normal;font-weight:normal;line-height:0%;font-family:'Bitstream Vera Sans';fill:#ca1800;fill-opacity:1;stroke:none;stroke-width:1px;stroke-linecap:butt;stroke-linejoin:miter;stroke-opacity:1"
           id="text2980"><tspan
             style="font-size:81.50920868px;line-height:1.25"
             y="1526.03"
             x="753.43488"
             sodipodi:role="line"
             id="tspan2982">B</tspan></text>
        <text
           y="1048.4209"
           xml:space="preserve"
           x="1820.126"
           transform="matrix(0.599276,-0.515171,-0.03822708,1.701543,0,0)"
           style="font-style:normal;font-weight:normal;line-height:0%;font-family:'Bitstream Vera Sans';fill:#ca1800;fill-opacity:1;stroke:none;stroke-width:1px;stroke-linecap:butt;stroke-linejoin:miter;stroke-opacity:1"
           id="text2984"><tspan
             style="font-size:97.78672028px;line-height:1.25"
             y="1048.4209"
             x="1820.126"
             sodipodi:role="line"
             id="tspan2986">B</tspan></text>
        <rect
           y="1313.4677"
           x="1500.4172"
           width="215.13086"
           transform="matrix(-2.199067e-5,1,0.786728,-0.6173,0,0)"
           style="opacity:0.38983053;fill:#000000;fill-opacity:1;fill-rule:nonzero;stroke:none;stroke-linecap:butt;stroke-linejoin:miter;stroke-opacity:1"
           id="rect2988"
           height="94.052856" />
        <rect
           y="1014.853"
           x="1688.5154"
           width="215.23061"
           transform="matrix(0.999998,0.00184273,-0.785414,0.61897,0,0)"
           style="opacity:0.15254235;fill:#000000;fill-opacity:1;fill-rule:nonzero;stroke:none;stroke-linecap:butt;stroke-linejoin:miter;stroke-opacity:1"
           id="rect2990"
           height="93.308838" />
        <rect
           y="474.45789"
           x="603.41754"
           width="215.18022"
           style="fill:url(#linearGradient3890);fill-opacity:1;fill-rule:nonzero;stroke:none;stroke-linecap:butt;stroke-linejoin:miter;stroke-opacity:1"
           id="rect3017"
           height="215.65778" />
        <rect
           y="669.67285"
           x="1202.6436"
           width="215.23097"
           transform="matrix(0.999998,0.00184273,-0.785414,0.61897,0,0)"
           style="fill:url(#linearGradient3887);fill-opacity:1;fill-rule:nonzero;stroke:none;stroke-linecap:butt;stroke-linejoin:miter;stroke-opacity:1"
           id="rect3019"
           height="93.309113" />
        <rect
           y="1039.7323"
           x="1116.9166"
           width="215.13086"
           transform="matrix(-2.199067e-5,1,0.786728,-0.6173,0,0)"
           style="fill:url(#linearGradient3884);fill-opacity:1;fill-rule:nonzero;stroke:none;stroke-linecap:butt;stroke-linejoin:miter;stroke-opacity:1"
           id="rect3021"
           height="94.052795" />
        <path
           inkscape:connector-curvature="0"
           style="fill:#2448a3;fill-opacity:1;fill-rule:nonzero;stroke:none;stroke-linecap:butt;stroke-linejoin:miter;stroke-opacity:1"
           id="path3023"
           d="m 629.57313,484.57604 c -8.61223,0 -15.5625,6.919 -15.5625,15.53125 v 161.0625 c 0,8.61223 6.95027,15.53123 15.5625,15.53125 h 162.90625 c 8.61223,0 15.5625,-6.91905 15.5625,-15.53125 v -161.0625 c 0,-8.61223 -6.95026,-15.53125 -15.5625,-15.53125 z m 15.53125,17.09375 h 129.96875 c 8.61223,0 15.5625,6.91902 15.5625,15.53125 v 126.25 c -10e-6,8.61223 -6.95027,15.53125 -15.5625,15.53125 H 645.10438 c -8.61223,2e-5 -15.53125,-6.91902 -15.53125,-15.53125 v -126.25 c 0,-8.61222 6.91902,-15.53125 15.53125,-15.53125 z" />
        <rect
           y="669.67285"
           x="1202.6436"
           width="215.23097"
           transform="matrix(0.999998,0.00184273,-0.785414,0.61897,0,0)"
           style="fill:url(#linearGradient3880);fill-opacity:1;fill-rule:nonzero;stroke:none;stroke-linecap:butt;stroke-linejoin:miter;stroke-opacity:1"
           id="rect3025"
           height="93.309113" />
        <path
           inkscape:connector-curvature="0"
           style="fill:#2448a3;fill-opacity:1;fill-rule:nonzero;stroke:none;stroke-linecap:butt;stroke-linejoin:miter;stroke-opacity:1"
           id="path3027"
           d="m 694.50875,422.70746 c -8.49885,0 -17.31487,1.6341 -19.75119,3.66809 l -45.56222,38.03887 c -2.43627,2.03399 2.46522,3.66808 10.96408,3.66809 h 160.76185 c 8.49886,0 17.31491,-1.63411 19.75119,-3.66809 l 45.56223,-38.03887 c 2.43628,-2.03399 -2.46522,-3.66809 -10.9641,-3.66809 z m 10.49124,4.03711 h 128.25792 c 8.49886,0 13.40038,1.6341 10.96406,3.66809 l -35.71423,29.81705 c -2.4363,2.03399 -11.25236,3.66808 -19.75122,3.66808 H 660.4986 c -8.49889,0 -13.36948,-1.63409 -10.9332,-3.66808 l 35.71426,-29.81705 c 2.43625,-2.03399 11.22148,-3.66809 19.72033,-3.66809 z" />
        <path
           inkscape:connector-curvature="0"
           style="fill:#2448a3;fill-opacity:1;fill-rule:nonzero;stroke:none;stroke-linecap:butt;stroke-linejoin:miter;stroke-opacity:1"
           id="path3029"
           d="m 827.27078,493.71694 c -0.0181,-8.67483 2.06268,-17.31721 4.67085,-19.3606 l 48.77665,-38.21418 c 2.60816,-2.04338 4.71813,3.3158 4.73623,11.99065 l 0.34238,164.09054 c 0.0181,8.67483 -2.06268,17.31724 -4.67084,19.36061 l -48.77666,38.21418 c -2.60815,2.04338 -4.71814,-3.31579 -4.73622,-11.99066 z m 5.20937,11.58845 0.27315,130.9136 c 0.0181,8.67484 2.1281,14.03403 4.73625,11.99063 l 38.23393,-29.95442 c 2.60816,-2.04339 4.68894,-10.6858 4.67082,-19.36064 l -0.27315,-130.9136 c -0.0181,-8.67485 -2.12801,-14.00249 -4.73617,-11.95913 l -38.23393,29.95446 c -2.60816,2.04332 -4.689,10.65427 -4.6709,19.3291 z" />
        <text
           y="677.11285"
           xml:space="preserve"
           x="611.45264"
           transform="scale(1.054873,0.947981)"
           style="font-style:normal;font-weight:normal;line-height:0%;font-family:'Bitstream Vera Sans';fill:#2448a3;fill-opacity:1;stroke:none;stroke-width:1px;stroke-linecap:butt;stroke-linejoin:miter;stroke-opacity:1"
           id="text3031"><tspan
             style="font-size:175.51852417px;line-height:1.25"
             y="677.11285"
             x="611.45264"
             sodipodi:role="line"
             id="tspan3033">C</tspan></text>
        <text
           y="1037.9005"
           xml:space="preserve"
           x="541.47528"
           transform="matrix(2.271519,0,-0.544193,0.440234,0,0)"
           style="font-style:normal;font-weight:normal;line-height:0%;font-family:'Bitstream Vera Sans';fill:#2448a3;fill-opacity:1;stroke:none;stroke-width:1px;stroke-linecap:butt;stroke-linejoin:miter;stroke-opacity:1"
           id="text3035"><tspan
             style="font-size:81.50922394px;line-height:1.25"
             y="1037.9005"
             x="541.47528"
             sodipodi:role="line"
             id="tspan3037">C</tspan></text>
        <text
           y="808.45001"
           xml:space="preserve"
           x="1444.6602"
           transform="matrix(0.599276,-0.515171,-0.0382271,1.701543,0,0)"
           style="font-style:normal;font-weight:normal;line-height:0%;font-family:'Bitstream Vera Sans';fill:#2448a3;fill-opacity:1;stroke:none;stroke-width:1px;stroke-linecap:butt;stroke-linejoin:miter;stroke-opacity:1"
           id="text3039"><tspan
             style="font-size:97.78668213px;line-height:1.25"
             y="808.45001"
             x="1444.6602"
             sodipodi:role="line"
             id="tspan3041">C</tspan></text>
        <rect
           y="1038.6888"
           x="1116.265"
           width="215.13086"
           transform="matrix(-2.199067e-5,1,0.786728,-0.6173,0,0)"
           style="opacity:0.38983053;fill:#000000;fill-opacity:1;fill-rule:nonzero;stroke:none;stroke-linecap:butt;stroke-linejoin:miter;stroke-opacity:1"
           id="rect3043"
           height="94.052834" />
        <rect
           y="667.91614"
           x="1202.5719"
           width="215.23073"
           transform="matrix(0.999998,0.00184273,-0.785414,0.61897,0,0)"
           style="opacity:0.15254235;fill:#000000;fill-opacity:1;fill-rule:nonzero;stroke:none;stroke-linecap:butt;stroke-linejoin:miter;stroke-opacity:1"
           id="rect3045"
           height="93.308929" />
      </g>
    </g>
  </g>
</svg>
