<?xml version="1.0" encoding="UTF-8" standalone="no"?>
<!-- Created with Inkscape (http://www.inkscape.org/) -->

<svg
   xmlns:dc="http://purl.org/dc/elements/1.1/"
   xmlns:cc="http://creativecommons.org/ns#"
   xmlns:rdf="http://www.w3.org/1999/02/22-rdf-syntax-ns#"
   xmlns:svg="http://www.w3.org/2000/svg"
   xmlns="http://www.w3.org/2000/svg"
   xmlns:xlink="http://www.w3.org/1999/xlink"
   xmlns:sodipodi="http://sodipodi.sourceforge.net/DTD/sodipodi-0.dtd"
   xmlns:inkscape="http://www.inkscape.org/namespaces/inkscape"
   version="1.0"
   width="125.73235"
   height="128"
   id="svg2"
   sodipodi:docname="apple.svg"
   inkscape:version="0.92.2 (5c3e80d, 2017-08-06)">
  <metadata
     id="metadata100">
    <rdf:RDF>
      <cc:Work
         rdf:about="">
        <dc:format>image/svg+xml</dc:format>
        <dc:type
           rdf:resource="http://purl.org/dc/dcmitype/StillImage" />
        <dc:title></dc:title>
        <cc:license
           rdf:resource="http://creativecommons.org/publicdomain/zero/1.0/" />
      </cc:Work>
      <cc:License
         rdf:about="http://creativecommons.org/publicdomain/zero/1.0/">
        <cc:permits
           rdf:resource="http://creativecommons.org/ns#Reproduction" />
        <cc:permits
           rdf:resource="http://creativecommons.org/ns#Distribution" />
        <cc:permits
           rdf:resource="http://creativecommons.org/ns#DerivativeWorks" />
      </cc:License>
    </rdf:RDF>
  </metadata>
  <sodipodi:namedview
     pagecolor="#ffffff"
     bordercolor="#666666"
     borderopacity="1"
     objecttolerance="10"
     gridtolerance="10"
     guidetolerance="10"
     inkscape:pageopacity="0"
     inkscape:pageshadow="2"
     inkscape:window-width="1920"
     inkscape:window-height="1025"
     id="namedview98"
     showgrid="false"
     inkscape:zoom="2.36"
     inkscape:cx="11.097451"
     inkscape:cy="63.222957"
     inkscape:window-x="-8"
     inkscape:window-y="-8"
     inkscape:window-maximized="1"
     inkscape:current-layer="svg2"
     fit-margin-top="0"
     fit-margin-left="0"
     fit-margin-right="0"
     fit-margin-bottom="0" />
  <defs
     id="defs4">
    <linearGradient
       id="linearGradient37696">
      <stop
         id="stop37698"
         style="stop-color:#f8f8f8;stop-opacity:1"
         offset="0" />
      <stop
         id="stop37700"
         style="stop-color:#f8f8f8;stop-opacity:0"
         offset="1" />
    </linearGradient>
    <pattern
       patternTransform="matrix(0.589994, 0, 0, 0.413556, 1.72435, 5.43911)"
       id="pattern30614"
       xlink:href="#pattern30609" />
    <pattern
       patternTransform="matrix(0.589994, 0, 0, 0.413556, 162.616, -160.559)"
       id="pattern30609"
       xlink:href="#pattern26663" />
    <linearGradient
       id="linearGradient30593">
      <stop
         id="stop30595"
         style="stop-color:#000000;stop-opacity:1"
         offset="0" />
      <stop
         id="stop30597"
         style="stop-color:#000000;stop-opacity:0"
         offset="1" />
    </linearGradient>
    <linearGradient
       id="linearGradient28622">
      <stop
         id="stop28624"
         style="stop-color:#ffffff;stop-opacity:1"
         offset="0" />
      <stop
         id="stop28626"
         style="stop-color:#ffffff;stop-opacity:0"
         offset="1" />
    </linearGradient>
    <linearGradient
       id="linearGradient21653">
      <stop
         id="stop21655"
         style="stop-color:#ffffff;stop-opacity:1"
         offset="0" />
      <stop
         id="stop21657"
         style="stop-color:#ffffff;stop-opacity:0"
         offset="1" />
    </linearGradient>
    <linearGradient
       id="linearGradient15314">
      <stop
         id="stop15316"
         style="stop-color:#1d3300;stop-opacity:1"
         offset="0" />
      <stop
         id="stop15318"
         style="stop-color:#68a02c;stop-opacity:0.23684201"
         offset="0.49645391" />
      <stop
         id="stop15320"
         style="stop-color:#61a334;stop-opacity:0"
         offset="1" />
    </linearGradient>
    <linearGradient
       id="linearGradient13303">
      <stop
         id="stop13305"
         style="stop-color:#ffffff;stop-opacity:1"
         offset="0" />
      <stop
         id="stop13307"
         style="stop-color:#ffffff;stop-opacity:0"
         offset="1" />
    </linearGradient>
    <linearGradient
       id="linearGradient13291">
      <stop
         id="stop13293"
         style="stop-color:#fff44b;stop-opacity:1"
         offset="0" />
      <stop
         id="stop15283"
         style="stop-color:#d68565;stop-opacity:1"
         offset="0.73758864" />
      <stop
         id="stop13295"
         style="stop-color:#c0161b;stop-opacity:1"
         offset="1" />
    </linearGradient>
    <linearGradient
       id="linearGradient8740">
      <stop
         id="stop8742"
         style="stop-color:#daa238;stop-opacity:1"
         offset="0" />
      <stop
         id="stop8744"
         style="stop-color:#a3a827;stop-opacity:0"
         offset="1" />
    </linearGradient>
    <filter
       id="filter7541"
       height="1.2376411"
       y="-0.11882053"
       width="1.1844473"
       x="-0.092223659">
      <feGaussianBlur
         id="feGaussianBlur7543"
         stdDeviation="10.987584"
         inkscape:collect="always" />
    </filter>
    <filter
       id="filter12154">
      <feGaussianBlur
         id="feGaussianBlur12156"
         stdDeviation="2.9395372"
         inkscape:collect="always" />
    </filter>
    <filter
       id="filter13287">
      <feGaussianBlur
         id="feGaussianBlur13289"
         stdDeviation="5.8071908"
         inkscape:collect="always" />
    </filter>
    <clipPath
       id="clipPath14282">
      <path
         d="M 100.84271,272.89235 C 79.36216,377.49483 35.88312,391.59016 -4.98119,389.88503 c -7.88444,-0.32898 -7.53147,1.2321 -16.44968,0.10179 -7.77566,-0.98551 -21.32657,-6.02005 -29.17224,-5.43819 -46.97446,3.48375 -91.99218,-58.48044 -91.99218,-117.48015 0,-66.54593 44.03337,-110.22627 113.13273,-111.82065 95.30491,-2.18227 130.30527,51.09859 130.30527,117.64452 z"
         id="path14284"
         style="display:inline;overflow:visible;visibility:visible;opacity:1;fill:#6ea827;fill-opacity:1;fill-rule:nonzero;stroke:none;stroke-width:1px;stroke-linecap:butt;stroke-linejoin:miter;stroke-miterlimit:4;stroke-dashoffset:0;stroke-opacity:1;marker:none"
         inkscape:connector-curvature="0" />
    </clipPath>
    <clipPath
       id="clipPath14286">
      <path
         d="m 95.241756,274.24608 c -20.494248,98.94105 -61.976902,112.2735 -100.9648843,110.66066 -7.5224177,-0.31118 -7.1856547,1.16541 -15.6943757,0.0963 -7.418632,-0.93217 -20.347338,-5.69423 -27.832766,-5.14386 -44.817578,3.2952 -87.76826,-55.31529 -87.76826,-111.12174 0,-62.94425 42.01153,-104.26047 107.93812,-105.76856 90.928884,-2.06415 124.322166,48.33297 124.322166,111.27722 z"
         id="path14288"
         style="display:inline;overflow:visible;visibility:visible;opacity:1;fill:#6ea827;fill-opacity:1;fill-rule:nonzero;stroke:none;stroke-width:1px;stroke-linecap:butt;stroke-linejoin:miter;stroke-miterlimit:4;stroke-dashoffset:0;stroke-opacity:1;marker:none"
         inkscape:connector-curvature="0" />
    </clipPath>
    <clipPath
       id="clipPath14290">
      <path
         d="M 97.161922,268.95702 C 76.144197,373.5595 33.601966,387.65483 -6.3818716,385.9497 c -7.7145604,-0.32898 -7.3691954,1.2321 -16.0952514,0.10179 -7.608124,-0.98551 -20.867063,-6.02005 -28.543688,-5.43819 -45.962337,3.48375 -90.010099,-58.48044 -90.010099,-117.48015 0,-66.54593 43.084621,-110.22627 110.69515,-111.82065 93.251448,-2.18227 127.497682,51.09859 127.497682,117.64452 z"
         id="path14292"
         style="display:inline;overflow:visible;visibility:visible;opacity:1;fill:#6ea827;fill-opacity:1;fill-rule:nonzero;stroke:none;stroke-width:1px;stroke-linecap:butt;stroke-linejoin:miter;stroke-miterlimit:4;stroke-dashoffset:0;stroke-opacity:1;marker:none"
         inkscape:connector-curvature="0" />
    </clipPath>
    <clipPath
       id="clipPath14294">
      <path
         d="M 100.84271,272.89235 C 79.36216,377.49483 35.88312,391.59016 -4.98119,389.88503 c -7.88444,-0.32898 -7.53147,1.2321 -16.44968,0.10179 -7.77566,-0.98551 -21.32657,-6.02005 -29.17224,-5.43819 -46.97446,3.48375 -91.99218,-58.48044 -91.99218,-117.48015 0,-66.54593 44.03337,-110.22627 113.13273,-111.82065 95.30491,-2.18227 130.30527,51.09859 130.30527,117.64452 z"
         id="path14296"
         style="display:inline;overflow:visible;visibility:visible;opacity:1;fill:#6ea827;fill-opacity:1;fill-rule:nonzero;stroke:none;stroke-width:1px;stroke-linecap:butt;stroke-linejoin:miter;stroke-miterlimit:4;stroke-dashoffset:0;stroke-opacity:1;marker:none"
         inkscape:connector-curvature="0" />
    </clipPath>
    <linearGradient
       x1="-24.923763"
       y1="174.78334"
       x2="-28.859095"
       y2="272.92316"
       id="linearGradient14306"
       xlink:href="#linearGradient8740"
       gradientUnits="userSpaceOnUse" />
    <radialGradient
       cx="-44.642391"
       cy="283.90643"
       r="121.719"
       fx="-44.642391"
       fy="283.90643"
       id="radialGradient15285"
       xlink:href="#linearGradient13291"
       gradientUnits="userSpaceOnUse"
       gradientTransform="matrix(0.187522,0.978122,-0.909029,0.174276,237.704,251.613)" />
    <filter
       id="filter18604"
       height="1.2674038"
       y="-0.13370194"
       width="1.050679"
       x="-0.02533951">
      <feGaussianBlur
         id="feGaussianBlur18606"
         stdDeviation="0.99192556"
         inkscape:collect="always" />
    </filter>
    <radialGradient
       cx="203.99533"
       cy="148.6814"
       r="41.193069"
       fx="203.99533"
       fy="148.6814"
       id="radialGradient21659"
       xlink:href="#linearGradient21653"
       gradientUnits="userSpaceOnUse"
       gradientTransform="matrix(-1.33662,-0.103508,0.0270529,-0.217599,472.637,188.555)" />
    <filter
       id="filter24623">
      <feGaussianBlur
         id="feGaussianBlur24625"
         stdDeviation="0.21459882"
         inkscape:collect="always" />
    </filter>
    <pattern
       id="pattern26663"
       patternTransform="translate(163.814, -152.846)"
       height="46.659165"
       width="55.732779"
       patternUnits="userSpaceOnUse">
      <path
         sodipodi:type="arc"
         style="overflow: visible; marker: none; opacity: 1; color: rgb(0, 0, 0); fill: rgb(215, 235, 144); fill-opacity: 1; fill-rule: evenodd; stroke: none; stroke-width: 1.58397px; stroke-linecap: butt; stroke-linejoin: miter; stroke-miterlimit: 4; stroke-dasharray: none; stroke-dashoffset: 0pt; stroke-opacity: 1; visibility: visible; display: inline;"
         id="path26661"
         sodipodi:cx="-281.60489"
         sodipodi:cy="-209.70604"
         sodipodi:rx="2.8861411"
         sodipodi:ry="7.8338113"
         d="M -278.71875 -209.70604 A 2.8861411 7.8338113 0 1 1  -284.49103,-209.70604 A 2.8861411 7.8338113 0 1 1  -278.71875 -209.70604 z"
         transform="matrix(0.740922, 0, 0, 0.459741, 262.242, 100.965)" />
      <path
         sodipodi:type="arc"
         style="overflow: visible; marker: none; opacity: 1; color: rgb(0, 0, 0); fill: rgb(215, 235, 144); fill-opacity: 1; fill-rule: evenodd; stroke: none; stroke-width: 1.58397px; stroke-linecap: butt; stroke-linejoin: miter; stroke-miterlimit: 4; stroke-dasharray: none; stroke-dashoffset: 0pt; stroke-opacity: 1; visibility: visible; display: inline;"
         id="path26657"
         sodipodi:cx="-281.60489"
         sodipodi:cy="-209.70604"
         sodipodi:rx="2.8861411"
         sodipodi:ry="7.8338113"
         d="M -278.71875 -209.70604 A 2.8861411 7.8338113 0 1 1  -284.49103,-209.70604 A 2.8861411 7.8338113 0 1 1  -278.71875 -209.70604 z"
         transform="matrix(0.740922, 0, 0, 0.459741, 253.164, 126.803)" />
      <path
         transform="matrix(0.740922, 0, 0, 0.459741, 241.636, 111.216)"
         d="M -278.71875 -209.70604 A 2.8861411 7.8338113 0 1 1  -284.49103,-209.70604 A 2.8861411 7.8338113 0 1 1  -278.71875 -209.70604 z"
         sodipodi:ry="7.8338113"
         sodipodi:rx="2.8861411"
         sodipodi:cy="-209.70604"
         sodipodi:cx="-281.60489"
         id="path26655"
         style="overflow: visible; marker: none; opacity: 1; color: rgb(0, 0, 0); fill: rgb(215, 235, 144); fill-opacity: 1; fill-rule: evenodd; stroke: none; stroke-width: 1.58397px; stroke-linecap: butt; stroke-linejoin: miter; stroke-miterlimit: 4; stroke-dasharray: none; stroke-dashoffset: 0pt; stroke-opacity: 1; visibility: visible; display: inline;"
         sodipodi:type="arc" />
      <path
         sodipodi:type="arc"
         style="overflow: visible; marker: none; opacity: 1; color: rgb(0, 0, 0); fill: rgb(215, 235, 144); fill-opacity: 1; fill-rule: evenodd; stroke: none; stroke-width: 1.58397px; stroke-linecap: butt; stroke-linejoin: miter; stroke-miterlimit: 4; stroke-dasharray: none; stroke-dashoffset: 0pt; stroke-opacity: 1; visibility: visible; display: inline;"
         id="path26649"
         sodipodi:cx="-281.60489"
         sodipodi:cy="-209.70604"
         sodipodi:rx="2.8861411"
         sodipodi:ry="7.8338113"
         d="M -278.71875 -209.70604 A 2.8861411 7.8338113 0 1 1  -284.49103,-209.70604 A 2.8861411 7.8338113 0 1 1  -278.71875 -209.70604 z"
         transform="matrix(0.740922, 0, 0, 0.459741, 219.229, 100.012)" />
      <path
         transform="matrix(0.740922, 0, 0, 0.459741, 236.44, 139.468)"
         d="M -278.71875 -209.70604 A 2.8861411 7.8338113 0 1 1  -284.49103,-209.70604 A 2.8861411 7.8338113 0 1 1  -278.71875 -209.70604 z"
         sodipodi:ry="7.8338113"
         sodipodi:rx="2.8861411"
         sodipodi:cy="-209.70604"
         sodipodi:cx="-281.60489"
         id="path26647"
         style="overflow: visible; marker: none; opacity: 1; color: rgb(0, 0, 0); fill: rgb(215, 235, 144); fill-opacity: 1; fill-rule: evenodd; stroke: none; stroke-width: 1.58397px; stroke-linecap: butt; stroke-linejoin: miter; stroke-miterlimit: 4; stroke-dasharray: none; stroke-dashoffset: 0pt; stroke-opacity: 1; visibility: visible; display: inline;"
         sodipodi:type="arc" />
      <path
         sodipodi:type="arc"
         style="overflow: visible; marker: none; opacity: 1; color: rgb(0, 0, 0); fill: rgb(215, 235, 144); fill-opacity: 1; fill-rule: evenodd; stroke: none; stroke-width: 1.58397px; stroke-linecap: butt; stroke-linejoin: miter; stroke-miterlimit: 4; stroke-dasharray: none; stroke-dashoffset: 0pt; stroke-opacity: 1; visibility: visible; display: inline;"
         id="path26645"
         sodipodi:cx="-281.60489"
         sodipodi:cy="-209.70604"
         sodipodi:rx="2.8861411"
         sodipodi:ry="7.8338113"
         d="M -278.71875 -209.70604 A 2.8861411 7.8338113 0 1 1  -284.49103,-209.70604 A 2.8861411 7.8338113 0 1 1  -278.71875 -209.70604 z"
         transform="matrix(0.740922, 0, 0, 0.459741, 210.786, 125.504)" />
      <path
         transform="matrix(0.740922, 0, 0, 0.459741, 210.786, 125.504)"
         d="M -278.71875 -209.70604 A 2.8861411 7.8338113 0 1 1  -284.49103,-209.70604 A 2.8861411 7.8338113 0 1 1  -278.71875 -209.70604 z"
         sodipodi:ry="7.8338113"
         sodipodi:rx="2.8861411"
         sodipodi:cy="-209.70604"
         sodipodi:cx="-281.60489"
         id="path26643"
         style="overflow: visible; marker: none; opacity: 1; color: rgb(0, 0, 0); fill: rgb(215, 235, 144); fill-opacity: 1; fill-rule: evenodd; stroke: none; stroke-width: 1.58397px; stroke-linecap: butt; stroke-linejoin: miter; stroke-miterlimit: 4; stroke-dasharray: none; stroke-dashoffset: 0pt; stroke-opacity: 1; visibility: visible; display: inline;"
         sodipodi:type="arc" />
    </pattern>
    <clipPath
       id="clipPath29604">
      <path
         d="m 214.7035,131.11718 6.077,0.24534 c -2.53429,1.7204 4.83381,-35.34914 16.01425,-42.739397 4.8322,-3.194089 -1.20324,-12.315046 -3.82058,-10.933345 0,0 -6.4702,4.671083 -7.23014,8.093979 -0.75993,3.422886 -6.71906,17.603403 -8.13123,27.845723 -1.41218,10.24232 -2.56255,14.88784 -2.9093,17.4877 z"
         id="path29606"
         style="fill:#372a07;fill-opacity:1;fill-rule:evenodd;stroke:none;stroke-width:1px;stroke-linecap:butt;stroke-linejoin:miter;stroke-opacity:1"
         inkscape:connector-curvature="0" />
    </clipPath>
    <linearGradient
       x1="220.90099"
       y1="99.833923"
       x2="225.37206"
       y2="101.95313"
       id="linearGradient29608"
       xlink:href="#linearGradient28622"
       gradientUnits="userSpaceOnUse" />
    <filter
       id="filter30589">
      <feGaussianBlur
         id="feGaussianBlur30591"
         stdDeviation="0.5767807"
         inkscape:collect="always" />
    </filter>
    <linearGradient
       x1="211.02544"
       y1="147.26143"
       x2="243.94995"
       y2="109.28474"
       id="linearGradient30599"
       xlink:href="#linearGradient30593"
       gradientUnits="userSpaceOnUse"
       gradientTransform="translate(-0.134796,-0.808775)" />
    <clipPath
       id="clipPath30603">
      <path
         d="m 172.54666,119.65383 c 0,0 20.11621,15.239 54.07792,11.76129 34.14803,-3.51943 40.78441,-10.05479 40.78441,-10.05479 28.52258,-31.58159 -136.19804,-25.141294 -94.86233,-1.7065 z"
         id="path30605"
         style="fill:url(#radialGradient30607) #000000;fill-opacity:1;fill-rule:evenodd;stroke:none;stroke-width:1px;stroke-linecap:butt;stroke-linejoin:miter;stroke-opacity:1"
         inkscape:connector-curvature="0" />
    </clipPath>
    <radialGradient
       cx="-81.081718"
       cy="44.942459"
       r="44.555969"
       fx="-81.081718"
       fy="44.942459"
       id="radialGradient30607"
       xlink:href="#linearGradient15314"
       gradientUnits="userSpaceOnUse"
       gradientTransform="matrix(-0.0146025,-0.960198,1.93539,-0.0281315,127.596,52.0179)" />
    <pattern
       id="pattern30611"
       patternTransform="translate(160.892, -165.998)"
       height="24.735281"
       width="39.501228"
       patternUnits="userSpaceOnUse">
      <rect
         style="fill: url(#pattern30614) rgb(0, 0, 0); stroke: none;"
         width="32.881989"
         height="19.296179"
         x="1.72435"
         y="5.4391022"
         id="rect26672" />
      <rect
         style="fill: none; stroke: none;"
         width="39.501228"
         height="24.735281"
         x="0"
         y="0"
         id="rect25640" />
    </pattern>
    <filter
       id="filter35726"
       height="1.8775307"
       y="-0.43876535"
       width="1.1250638"
       x="-0.062531874">
      <feGaussianBlur
         id="feGaussianBlur35728"
         stdDeviation="5.1544931"
         inkscape:collect="always" />
    </filter>
    <linearGradient
       x1="-134.76347"
       y1="343.27988"
       x2="-66.758102"
       y2="311.95261"
       id="linearGradient37702"
       xlink:href="#linearGradient37696"
       gradientUnits="userSpaceOnUse" />
    <filter
       id="filter38751"
       height="2.1931019"
       y="-0.59655094"
       width="1.1481797"
       x="-0.074089833">
      <feGaussianBlur
         id="feGaussianBlur38753"
         stdDeviation="9.8808712"
         inkscape:collect="always" />
    </filter>
    <filter
       id="filter3417">
      <feGaussianBlur
         id="feGaussianBlur3419"
         stdDeviation="0.95731779"
         inkscape:collect="always" />
    </filter>
    <radialGradient
       cx="-81.081718"
       cy="44.942459"
       r="44.555969"
       fx="-81.081718"
       fy="44.942459"
       id="radialGradient2502"
       xlink:href="#linearGradient15314"
       gradientUnits="userSpaceOnUse"
       gradientTransform="matrix(-0.017898,-1.17689,2.37216,-0.03448,62.6053,-16.5888)" />
    <linearGradient
       x1="-47.223972"
       y1="206.26599"
       x2="-51.159306"
       y2="295.46683"
       id="linearGradient2511"
       xlink:href="#linearGradient13303"
       gradientUnits="userSpaceOnUse" />
  </defs>
  <g
     id="g935"
     transform="matrix(0.41881807,0,0,0.41881807,-8.6364604,-6.4346411)">
    <path
       d="M 100.84271,272.89235 C 79.362165,377.49483 35.883125,391.59016 -4.9811852,389.88503 c -7.8844398,-0.32898 -7.5314698,1.2321 -16.4496798,0.10179 -7.77566,-0.98551 -21.32657,-6.02005 -29.17224,-5.43819 -46.97446,3.48375 -91.992185,-58.48044 -91.992185,-117.48015 0,-66.54593 44.033375,-110.22627 113.132735,-111.82065 95.30491,-2.18227 130.305265,51.09859 130.305265,117.64452 z"
       transform="matrix(1.22567,0,0,1.22567,197.2283,-157.5207)"
       clip-path="url(#clipPath14294)"
       id="path2416"
       style="display:inline;overflow:visible;visibility:visible;fill:url(#radialGradient15285);fill-opacity:1;fill-rule:nonzero;stroke:url(#linearGradient37702);stroke-width:2.0999999;stroke-linecap:butt;stroke-linejoin:miter;stroke-miterlimit:4;stroke-dasharray:none;stroke-dashoffset:0;stroke-opacity:0.30084803;marker:none"
       inkscape:connector-curvature="0" />
    <path
       d="M 100.84271,272.89235 C 79.362165,377.49483 35.883125,391.59016 -4.9811852,389.88503 c -7.8844398,-0.32898 -7.5314698,1.2321 -16.4496798,0.10179 -7.77566,-0.98551 -21.32657,-6.02005 -29.17224,-5.43819 -46.97446,3.48375 -91.992185,-58.48044 -91.992185,-117.48015 0,-66.54593 44.033375,-110.22627 113.132735,-111.82065 95.30491,-2.18227 130.305265,51.09859 130.305265,117.64452 z"
       transform="matrix(1.22567,0,0,1.22567,195.3958,-157.5207)"
       clip-path="url(#clipPath14294)"
       id="path30619"
       style="display:inline;overflow:visible;visibility:visible;opacity:0.24230772;fill:url(#pattern30611) #000000;fill-opacity:1;fill-rule:nonzero;stroke:url(#pattern26663) #000000;stroke-width:1px;stroke-linecap:butt;stroke-linejoin:miter;stroke-miterlimit:4;stroke-dashoffset:0;stroke-opacity:1;marker:none;filter:url(#filter3417)"
       inkscape:connector-curvature="0" />
    <path
       d="m 92.377658,214.65037 c 3.100284,12.06886 4.53125,25.04536 4.53125,38.5625 -21.480548,104.6025 -64.94819,118.70513 -105.8124997,117 -7.8844403,-0.32895 -7.5505403,1.22406 -16.4687503,0.0937 -7.77566,-0.9855 -21.31058,-6.01936 -29.15625,-5.4375 -29.22413,2.16733 -57.690478,-21.00927 -75.031248,-53.03125 13.12085,45.79255 49.337778,84.68548 86.812498,81.90625 7.84567,-0.58186 21.41185,4.45202 29.1875,5.4375 8.9182103,1.13031 8.5530503,-0.45399 16.4375003,-0.125 40.8643097,1.70513 84.3632067,-12.36629 105.8437517,-116.96875 0,-25.12504 -5.00316,-48.36552 -16.343752,-67.4375 z"
       transform="matrix(1.25266,0,0,1.22567,199.1173,-152.6973)"
       clip-path="url(#clipPath14290)"
       id="path6441"
       style="display:inline;overflow:visible;visibility:visible;opacity:0.47692297;fill:#241f1c;fill-opacity:1;fill-rule:nonzero;stroke:none;stroke-width:1px;stroke-linecap:butt;stroke-linejoin:miter;stroke-miterlimit:4;stroke-dashoffset:0;stroke-opacity:1;marker:none;filter:url(#filter7541)"
       inkscape:connector-curvature="0" />
    <path
       d="m -86.577286,173.47156 c -6.700742,-0.91218 -11.022016,5.7749 -15.741324,10.49422 -5.62676,5.62676 -12.10011,9.77067 -15.74132,17.0531 -3.48237,6.96473 -6.97342,8.69972 -10.49422,15.74132 -2.55549,5.11099 -1.31178,13.58959 -1.31178,19.67666 0,6.55888 0,13.11777 0,19.67665 0,8.2013 -0.67162,12.44615 3.93533,17.05311 6.86889,6.86889 5.24711,-8.80618 5.24711,-14.42955 0,-8.49511 0.48199,-12.28798 5.24711,-17.0531 5.78764,-5.78765 14.35082,-8.86754 11.80599,1.31177 -1.89244,7.56979 -1.57316,12.595 1.31178,18.36488 3.070818,6.14163 6.139268,8.29028 11.805993,2.62356 5.334037,-5.33404 -1.396437,-10.57888 6.558886,-2.62356 5.25525,5.25525 8.413519,11.01439 15.741324,9.18244 6.967553,-1.74189 5.096528,-9.18244 17.053102,-9.18244 8.96494,0 8.049616,3.93533 15.741324,3.93533 11.333054,0 10.820265,0.6521 14.429548,7.87067 3.952359,7.90471 7.301901,8.61367 11.8059932,13.11777 5.6638027,5.6638 8.7085566,2.75062 11.8059939,10.49421 1.8372775,4.5932 8.2818409,-6.06946 10.4942169,-10.49421 3.541472,-7.08295 11.390498,-11.49438 17.053101,-15.74133 3.63561,-2.72671 7.665372,2.82885 14.429548,-3.93533 6.522196,-6.5222 13.33559,-1.09396 17.053101,2.62355 1.960306,1.96031 16.55976,0 19.676656,0 5.102503,0 6.558885,-9.14615 6.558885,-14.42954 0,-5.68348 -2.994406,-12.5477 -5.247108,-17.0531 -2.814915,-5.62983 -3.962016,-13.17114 -6.558885,-18.36488 -2.846126,-5.69226 -5.591317,-11.18264 -7.870663,-15.74133 -3.377768,-6.75554 -8.218113,-9.52989 -11.805993,-13.11777 -3.751934,-3.75193 -5.893422,-8.51697 -9.182439,-11.80599 -5.401258,-5.40126 -7.408431,-6.55889 -15.741325,-6.55889 -6.266244,0 -14.08375,-0.24149 -18.364878,-1.31177 -7.1681912,-1.79205 -9.5344423,-2.14367 -15.7413251,-5.24711 -5.7283797,-2.86419 -5.6731877,-5.24711 -14.4295479,-5.24711 -6.558885,0 -13.11777,0 -19.676656,0 -6.558885,0 -13.11777,0 -19.676655,0 -7.807498,0 -10.689447,5.44234 -14.429548,9.18244 -3.34556,3.34556 -11.329587,3.93533 -15.741325,3.93533 z"
       transform="matrix(1.28466,0,0,1.29581,198.4753,-178.4134)"
       clip-path="url(#clipPath14286)"
       id="path7549"
       style="display:inline;overflow:visible;visibility:visible;fill:url(#linearGradient14306);fill-opacity:1;fill-rule:nonzero;stroke:none;stroke-width:1px;stroke-linecap:butt;stroke-linejoin:miter;stroke-miterlimit:4;stroke-dasharray:none;stroke-dashoffset:0;stroke-opacity:1;marker:none;filter:url(#filter13287)"
       inkscape:connector-curvature="0" />
    <path
       d="m -97.071505,237.74864 c -2.43613,2.89007 -5.360555,11.35221 -3.935335,17.0531 2.487635,9.95052 1.562805,10.0266 9.182445,15.74132 4.88811,3.66609 4.65038,8.88408 10.49422,11.806 2.43166,1.21583 2.62355,-14.62085 2.62355,-17.0531 0,-4.12811 5.24711,-6.53836 5.24711,-14.42955 0,-8.83492 0.19591,-11.61009 -3.93533,-15.74133 -2.87485,-2.87484 -17.74502,1.8509 -19.67666,2.62356 z m 52.47109,-3.93533 c -3.65088,-3.65088 -4.70563,15.28368 -3.93534,18.36488 2.47606,9.9042 7.87067,6.7327 7.87067,18.36487 0,9.43993 0.88945,10.07189 5.2471,14.42955 4.41031,4.4103 10.10636,3.51042 17.05311,5.24711 7.33006,1.83251 12.2099597,5.24711 19.6766497,5.24711 8.53414,0 13.3275103,-4.0402 20.9884403,-7.87066 2.25856,-1.12929 6.37336,-14.24403 7.87066,-15.74133 3.33844,-3.33844 -2.62356,-15.13217 -2.62356,-18.36488 0,-7.50999 1.31178,-10.86628 1.31178,-18.36488 0,-4.64745 -10.87306,-9.27715 -15.74132,-10.49421 -5.6231503,-1.40579 -15.6063303,1.31177 -22.3002103,1.31177 -7.0742297,0 -12.4518197,2.62356 -19.6766597,2.62356 -8.65742,0 -8.43431,1.5936 -15.74132,5.24711 z"
       transform="matrix(1.22567,0,0,1.22567,189.89831,-157.5207)"
       clip-path="url(#clipPath14282)"
       id="path10686"
       style="opacity:0.35769222;fill:url(#linearGradient2511);fill-opacity:1;fill-rule:evenodd;stroke:none;stroke-width:1px;stroke-linecap:butt;stroke-linejoin:miter;stroke-opacity:1;filter:url(#filter12154)"
       inkscape:connector-curvature="0" />
    <path
       d="m 117.70018,66.31087 c 0,0 24.65592,18.67805 66.28192,14.41551 41.85436,-4.31367 49.9884,-12.3239 49.9884,-12.3239 C 268.92989,29.693741 67.03606,37.58745 117.70018,66.31087 Z"
       id="path15302"
       style="fill:url(#radialGradient2502);fill-opacity:1;fill-rule:evenodd;stroke:none;stroke-width:1px;stroke-linecap:butt;stroke-linejoin:miter;stroke-opacity:1"
       inkscape:connector-curvature="0" />
    <path
       d="m 207.50217,98.428603 c 0,0 -30.54893,10.951497 -18.44464,9.798707 22.78886,-7.79131 52.04318,-6.13066 74.93134,1.72919 -17.05106,-14.483841 -33.60675,-12.764649 -56.4867,-11.527897 z"
       transform="matrix(1.43899,0.167911,-0.13347,1.81032,-123.4014,-175.9044)"
       id="path18608"
       style="display:inline;overflow:visible;visibility:visible;opacity:0.18461501;fill:#ffffff;fill-opacity:1;fill-rule:evenodd;stroke:none;stroke-width:1.58396995px;stroke-linecap:butt;stroke-linejoin:miter;stroke-miterlimit:4;stroke-dasharray:none;stroke-dashoffset:0;stroke-opacity:1;marker:none;filter:url(#filter18604)"
       inkscape:connector-curvature="0" />
    <path
       d="m 186.03125,121.65625 c -6.70591,-1.04375 -15.3789,6.99089 -7.40625,12.0625 10.90386,5.91232 23.63032,7.12692 35.90572,6.70221 14.62828,0.42983 30.15573,-1.11447 42.62553,-9.07721 2.8147,-6.06863 -4.01497,-2.73125 -7.59375,-1.53125 -12.97406,3.43809 -26.75918,3.77735 -40.18339,3.53446 -7.02399,-0.74023 -15.23264,-1.98364 -21.09786,-5.19071 1.27377,-2.35561 0.95986,-6.47901 -2.25,-6.5 z"
       transform="matrix(1.72473,0,0,2.18535,-204.0647,-205.5664)"
       id="path16291"
       style="opacity:0.46538499;fill:url(#radialGradient21659);fill-opacity:1;fill-rule:evenodd;stroke:none;stroke-width:1px;stroke-linecap:butt;stroke-linejoin:miter;stroke-opacity:1;filter:url(#filter18604)"
       inkscape:connector-curvature="0" />
    <path
       d="m 223.08699,127.66322 c 6.60499,-11.18805 6.60499,-11.18805 6.60499,-11.18805 0,0 2.96551,-7.81816 10.10969,-11.05325 7.14417,-3.2351 12.8056,-2.29153 12.8056,-2.29153 l 7.41376,6.3354 c 0,0 -10.78366,-2.69592 -22.51089,9.30091 -11.72723,11.99682 -19.0062,16.17549 -19.0062,16.17549 -1.85716,-2.81722 -3.50852,4.88001 4.58305,-7.27897 z"
       transform="matrix(1.22307,-0.0798802,0.0798802,1.22307,-109.0496,-62.234145)"
       clip-path="url(#clipPath30603)"
       id="path29610"
       style="fill:url(#linearGradient30599);fill-opacity:1;fill-rule:evenodd;stroke:none;stroke-width:1px;stroke-linecap:butt;stroke-linejoin:miter;stroke-opacity:1;filter:url(#filter30589)"
       inkscape:connector-curvature="0" />
    <g
       transform="matrix(1.22567,0,0,1.22567,-96.4293,-79.6849)"
       clip-path="url(#clipPath29604)"
       id="g29599">
      <path
         d="m 214.7035,131.11718 6.077,0.24534 c -2.53429,1.7204 4.83381,-35.34914 16.01425,-42.739397 4.8322,-3.194089 -1.20324,-12.315046 -3.82058,-10.933345 0,0 -6.4702,4.671083 -7.23014,8.093979 -0.75993,3.422886 -6.71906,17.603403 -8.13123,27.845723 -1.41218,10.24232 -2.56255,14.88784 -2.9093,17.4877 z"
         id="path2419"
         style="fill:#372a07;fill-opacity:1;fill-rule:evenodd;stroke:none;stroke-width:1px;stroke-linecap:butt;stroke-linejoin:miter;stroke-opacity:1"
         inkscape:connector-curvature="0" />
      <path
         d="m 233.12929,78.205201 c -0.12825,0.09394 -1.51429,1.100852 -3.08961,2.576782 -1.64764,1.543701 -3.28325,3.574044 -3.54319,4.744882 -0.44268,1.993879 -2.09435,6.278994 -3.85104,11.509312 -1.75669,5.230313 -3.61028,11.288573 -4.29705,16.269673 -1.31859,9.56365 -2.49196,14.88804 -2.90271,17.47904 l 2.64173,0.13885 c -0.008,-0.98025 0.78354,-3.48685 1.03047,-5.11698 0.51738,-3.4156 1.54186,-8.16772 3.01392,-13.20004 1.47206,-5.03233 3.38143,-10.34998 5.64558,-14.923097 2.26416,-4.573114 4.87226,-8.406904 7.98816,-10.466513 0.90562,-0.598618 1.24693,-1.355516 1.3051,-2.37653 0.0582,-1.021014 -0.006,-2.83184 -0.55751,-3.957282 -0.55191,-1.125441 -1.59275,-1.588807 -2.28556,-2.163744 -0.34641,-0.287468 -0.67743,-0.461001 -0.87465,-0.521145 -0.19722,-0.06014 -0.21045,-1.63e-4 -0.22364,0.0068 z"
         id="path5464"
         style="fill:#db9b1e;fill-opacity:0.41101703;fill-rule:evenodd;stroke:none;stroke-width:1px;stroke-linecap:butt;stroke-linejoin:miter;stroke-opacity:1;filter:url(#filter24623)"
         inkscape:connector-curvature="0" />
      <path
         d="m 233.00867,80.086464 c -1.93358,1.568024 -4.24549,3.000519 -5.28679,5.348955 -4.08455,10.784493 -3.95203,12.263057 -6.10929,18.326241 -1.22229,4.92851 -2.08035,9.94211 -3.06811,14.92257 -0.73452,3.87631 -1.44728,7.75671 -2.15147,11.63864 1.23671,0.79578 0.81692,-3.06276 1.54251,-4.40948 1.84043,-14.18161 5.3311,-27.655925 10.86012,-39.626906 1.28987,-2.309855 3.60641,-3.781173 5.55546,-5.454053 -0.13849,-0.508243 -1.00803,-0.385929 -1.34243,-0.745967 z"
         id="path24627"
         style="opacity:0.26153798;fill:url(#linearGradient29608);fill-opacity:1;fill-rule:evenodd;stroke:none;stroke-width:1px;stroke-linecap:butt;stroke-linejoin:miter;stroke-opacity:1"
         inkscape:connector-curvature="0" />
    </g>
  </g>
</svg>
