<?xml version="1.0" encoding="UTF-8" standalone="no"?>
<!-- Created with Inkscape (http://www.inkscape.org/) -->
<svg
   xmlns:svg="http://www.w3.org/2000/svg"
   xmlns="http://www.w3.org/2000/svg"
   xmlns:xlink="http://www.w3.org/1999/xlink"
   xmlns:sodipodi="http://sodipodi.sourceforge.net/DTD/sodipodi-0.dtd"
   xmlns:inkscape="http://www.inkscape.org/namespaces/inkscape"
   version="1.0"
   width="350"
   height="400"
   id="svg2">
  <defs
     id="defs4">
    <linearGradient
       id="linearGradient37696">
      <stop
         id="stop37698"
         style="stop-color:#f8f8f8;stop-opacity:1"
         offset="0" />
      <stop
         id="stop37700"
         style="stop-color:#f8f8f8;stop-opacity:0"
         offset="1" />
    </linearGradient>
    <pattern
       patternTransform="matrix(0.589994, 0, 0, 0.413556, 1.72435, 5.43911)"
       id="pattern30614"
       xlink:href="#pattern30609" />
    <pattern
       patternTransform="matrix(0.589994, 0, 0, 0.413556, 162.616, -160.559)"
       id="pattern30609"
       xlink:href="#pattern26663" />
    <linearGradient
       id="linearGradient30593">
      <stop
         id="stop30595"
         style="stop-color:#000000;stop-opacity:1"
         offset="0" />
      <stop
         id="stop30597"
         style="stop-color:#000000;stop-opacity:0"
         offset="1" />
    </linearGradient>
    <linearGradient
       id="linearGradient28622">
      <stop
         id="stop28624"
         style="stop-color:#ffffff;stop-opacity:1"
         offset="0" />
      <stop
         id="stop28626"
         style="stop-color:#ffffff;stop-opacity:0"
         offset="1" />
    </linearGradient>
    <linearGradient
       id="linearGradient21653">
      <stop
         id="stop21655"
         style="stop-color:#ffffff;stop-opacity:1"
         offset="0" />
      <stop
         id="stop21657"
         style="stop-color:#ffffff;stop-opacity:0"
         offset="1" />
    </linearGradient>
    <linearGradient
       id="linearGradient15314">
      <stop
         id="stop15316"
         style="stop-color:#1d3300;stop-opacity:1"
         offset="0" />
      <stop
         id="stop15318"
         style="stop-color:#68a02c;stop-opacity:0.23684201"
         offset="0.49645391" />
      <stop
         id="stop15320"
         style="stop-color:#61a334;stop-opacity:0"
         offset="1" />
    </linearGradient>
    <linearGradient
       id="linearGradient13303">
      <stop
         id="stop13305"
         style="stop-color:#ffffff;stop-opacity:1"
         offset="0" />
      <stop
         id="stop13307"
         style="stop-color:#ffffff;stop-opacity:0"
         offset="1" />
    </linearGradient>
    <linearGradient
       id="linearGradient13291">
      <stop
         id="stop13293"
         style="stop-color:#fff44b;stop-opacity:1"
         offset="0" />
      <stop
         id="stop15283"
         style="stop-color:#d68565;stop-opacity:1"
         offset="0.73758864" />
      <stop
         id="stop13295"
         style="stop-color:#c0161b;stop-opacity:1"
         offset="1" />
    </linearGradient>
    <linearGradient
       id="linearGradient8740">
      <stop
         id="stop8742"
         style="stop-color:#daa238;stop-opacity:1"
         offset="0" />
      <stop
         id="stop8744"
         style="stop-color:#a3a827;stop-opacity:0"
         offset="1" />
    </linearGradient>
    <filter
       id="filter7541"
       height="1.2376411"
       y="-0.11882053"
       width="1.1844473"
       x="-0.092223659">
      <feGaussianBlur
         id="feGaussianBlur7543"
         stdDeviation="10.987584"
         inkscape:collect="always" />
    </filter>
    <filter
       id="filter12154">
      <feGaussianBlur
         id="feGaussianBlur12156"
         stdDeviation="2.9395372"
         inkscape:collect="always" />
    </filter>
    <filter
       id="filter13287">
      <feGaussianBlur
         id="feGaussianBlur13289"
         stdDeviation="5.8071908"
         inkscape:collect="always" />
    </filter>
    <clipPath
       id="clipPath14282">
      <path
         d="M 100.84271,272.89235 C 79.36216,377.49483 35.88312,391.59016 -4.98119,389.88503 C -12.86563,389.55605 -12.51266,391.11713 -21.43087,389.98682 C -29.20653,389.00131 -42.75744,383.96677 -50.60311,384.54863 C -97.57757,388.03238 -142.59529,326.06819 -142.59529,267.06848 C -142.59529,200.52255 -98.56192,156.84221 -29.46256,155.24783 C 65.84235,153.06556 100.84271,206.34642 100.84271,272.89235 z"
         id="path14284"
         style="opacity:1;fill:#6ea827;fill-opacity:1;fill-rule:nonzero;stroke:none;stroke-width:1px;stroke-linecap:butt;stroke-linejoin:miter;marker:none;stroke-miterlimit:4;stroke-dashoffset:0;stroke-opacity:1;visibility:visible;display:inline;overflow:visible" />
    </clipPath>
    <clipPath
       id="clipPath14286">
      <path
         d="M 95.241756,274.24608 C 74.747508,373.18713 33.264854,386.51958 -5.7231283,384.90674 C -13.245546,384.59556 -12.908783,386.07215 -21.417504,385.00302 C -28.836136,384.07085 -41.764842,379.30879 -49.25027,379.85916 C -94.067848,383.15436 -137.01853,324.54387 -137.01853,268.73742 C -137.01853,205.79317 -95.007,164.47695 -29.08041,162.96886 C 61.848474,160.90471 95.241756,211.30183 95.241756,274.24608 z"
         id="path14288"
         style="opacity:1;fill:#6ea827;fill-opacity:1;fill-rule:nonzero;stroke:none;stroke-width:1px;stroke-linecap:butt;stroke-linejoin:miter;marker:none;stroke-miterlimit:4;stroke-dashoffset:0;stroke-opacity:1;visibility:visible;display:inline;overflow:visible" />
    </clipPath>
    <clipPath
       id="clipPath14290">
      <path
         d="M 97.161922,268.95702 C 76.144197,373.5595 33.601966,387.65483 -6.3818716,385.9497 C -14.096432,385.62072 -13.751067,387.1818 -22.477123,386.05149 C -30.085247,385.06598 -43.344186,380.03144 -51.020811,380.6133 C -96.983148,384.09705 -141.03091,322.13286 -141.03091,263.13315 C -141.03091,196.58722 -97.946289,152.90688 -30.33576,151.3125 C 62.915688,149.13023 97.161922,202.41109 97.161922,268.95702 z"
         id="path14292"
         style="opacity:1;fill:#6ea827;fill-opacity:1;fill-rule:nonzero;stroke:none;stroke-width:1px;stroke-linecap:butt;stroke-linejoin:miter;marker:none;stroke-miterlimit:4;stroke-dashoffset:0;stroke-opacity:1;visibility:visible;display:inline;overflow:visible" />
    </clipPath>
    <clipPath
       id="clipPath14294">
      <path
         d="M 100.84271,272.89235 C 79.36216,377.49483 35.88312,391.59016 -4.98119,389.88503 C -12.86563,389.55605 -12.51266,391.11713 -21.43087,389.98682 C -29.20653,389.00131 -42.75744,383.96677 -50.60311,384.54863 C -97.57757,388.03238 -142.59529,326.06819 -142.59529,267.06848 C -142.59529,200.52255 -98.56192,156.84221 -29.46256,155.24783 C 65.84235,153.06556 100.84271,206.34642 100.84271,272.89235 z"
         id="path14296"
         style="opacity:1;fill:#6ea827;fill-opacity:1;fill-rule:nonzero;stroke:none;stroke-width:1px;stroke-linecap:butt;stroke-linejoin:miter;marker:none;stroke-miterlimit:4;stroke-dashoffset:0;stroke-opacity:1;visibility:visible;display:inline;overflow:visible" />
    </clipPath>
    <linearGradient
       x1="-24.923763"
       y1="174.78334"
       x2="-28.859095"
       y2="272.92316"
       id="linearGradient14306"
       xlink:href="#linearGradient8740"
       gradientUnits="userSpaceOnUse" />
    <radialGradient
       cx="-44.642391"
       cy="283.90643"
       r="121.719"
       fx="-44.642391"
       fy="283.90643"
       id="radialGradient15285"
       xlink:href="#linearGradient13291"
       gradientUnits="userSpaceOnUse"
       gradientTransform="matrix(0.187522,0.978122,-0.909029,0.174276,237.704,251.613)" />
    <filter
       id="filter18604"
       height="1.2674038"
       y="-0.13370194"
       width="1.050679"
       x="-0.02533951">
      <feGaussianBlur
         id="feGaussianBlur18606"
         stdDeviation="0.99192556"
         inkscape:collect="always" />
    </filter>
    <radialGradient
       cx="203.99533"
       cy="148.6814"
       r="41.193069"
       fx="203.99533"
       fy="148.6814"
       id="radialGradient21659"
       xlink:href="#linearGradient21653"
       gradientUnits="userSpaceOnUse"
       gradientTransform="matrix(-1.33662,-0.103508,2.70529e-2,-0.217599,472.637,188.555)" />
    <filter
       id="filter24623">
      <feGaussianBlur
         id="feGaussianBlur24625"
         stdDeviation="0.21459882"
         inkscape:collect="always" />
    </filter>
    <pattern
       id="pattern26663"
       patternTransform="translate(163.814, -152.846)"
       height="46.659165"
       width="55.732779"
       patternUnits="userSpaceOnUse">
      <path
         sodipodi:type="arc"
         style="overflow: visible; marker: none; opacity: 1; color: rgb(0, 0, 0); fill: rgb(215, 235, 144); fill-opacity: 1; fill-rule: evenodd; stroke: none; stroke-width: 1.58397px; stroke-linecap: butt; stroke-linejoin: miter; stroke-miterlimit: 4; stroke-dasharray: none; stroke-dashoffset: 0pt; stroke-opacity: 1; visibility: visible; display: inline;"
         id="path26661"
         sodipodi:cx="-281.60489"
         sodipodi:cy="-209.70604"
         sodipodi:rx="2.8861411"
         sodipodi:ry="7.8338113"
         d="M -278.71875 -209.70604 A 2.8861411 7.8338113 0 1 1  -284.49103,-209.70604 A 2.8861411 7.8338113 0 1 1  -278.71875 -209.70604 z"
         transform="matrix(0.740922, 0, 0, 0.459741, 262.242, 100.965)" />
      <path
         sodipodi:type="arc"
         style="overflow: visible; marker: none; opacity: 1; color: rgb(0, 0, 0); fill: rgb(215, 235, 144); fill-opacity: 1; fill-rule: evenodd; stroke: none; stroke-width: 1.58397px; stroke-linecap: butt; stroke-linejoin: miter; stroke-miterlimit: 4; stroke-dasharray: none; stroke-dashoffset: 0pt; stroke-opacity: 1; visibility: visible; display: inline;"
         id="path26657"
         sodipodi:cx="-281.60489"
         sodipodi:cy="-209.70604"
         sodipodi:rx="2.8861411"
         sodipodi:ry="7.8338113"
         d="M -278.71875 -209.70604 A 2.8861411 7.8338113 0 1 1  -284.49103,-209.70604 A 2.8861411 7.8338113 0 1 1  -278.71875 -209.70604 z"
         transform="matrix(0.740922, 0, 0, 0.459741, 253.164, 126.803)" />
      <path
         transform="matrix(0.740922, 0, 0, 0.459741, 241.636, 111.216)"
         d="M -278.71875 -209.70604 A 2.8861411 7.8338113 0 1 1  -284.49103,-209.70604 A 2.8861411 7.8338113 0 1 1  -278.71875 -209.70604 z"
         sodipodi:ry="7.8338113"
         sodipodi:rx="2.8861411"
         sodipodi:cy="-209.70604"
         sodipodi:cx="-281.60489"
         id="path26655"
         style="overflow: visible; marker: none; opacity: 1; color: rgb(0, 0, 0); fill: rgb(215, 235, 144); fill-opacity: 1; fill-rule: evenodd; stroke: none; stroke-width: 1.58397px; stroke-linecap: butt; stroke-linejoin: miter; stroke-miterlimit: 4; stroke-dasharray: none; stroke-dashoffset: 0pt; stroke-opacity: 1; visibility: visible; display: inline;"
         sodipodi:type="arc" />
      <path
         sodipodi:type="arc"
         style="overflow: visible; marker: none; opacity: 1; color: rgb(0, 0, 0); fill: rgb(215, 235, 144); fill-opacity: 1; fill-rule: evenodd; stroke: none; stroke-width: 1.58397px; stroke-linecap: butt; stroke-linejoin: miter; stroke-miterlimit: 4; stroke-dasharray: none; stroke-dashoffset: 0pt; stroke-opacity: 1; visibility: visible; display: inline;"
         id="path26649"
         sodipodi:cx="-281.60489"
         sodipodi:cy="-209.70604"
         sodipodi:rx="2.8861411"
         sodipodi:ry="7.8338113"
         d="M -278.71875 -209.70604 A 2.8861411 7.8338113 0 1 1  -284.49103,-209.70604 A 2.8861411 7.8338113 0 1 1  -278.71875 -209.70604 z"
         transform="matrix(0.740922, 0, 0, 0.459741, 219.229, 100.012)" />
      <path
         transform="matrix(0.740922, 0, 0, 0.459741, 236.44, 139.468)"
         d="M -278.71875 -209.70604 A 2.8861411 7.8338113 0 1 1  -284.49103,-209.70604 A 2.8861411 7.8338113 0 1 1  -278.71875 -209.70604 z"
         sodipodi:ry="7.8338113"
         sodipodi:rx="2.8861411"
         sodipodi:cy="-209.70604"
         sodipodi:cx="-281.60489"
         id="path26647"
         style="overflow: visible; marker: none; opacity: 1; color: rgb(0, 0, 0); fill: rgb(215, 235, 144); fill-opacity: 1; fill-rule: evenodd; stroke: none; stroke-width: 1.58397px; stroke-linecap: butt; stroke-linejoin: miter; stroke-miterlimit: 4; stroke-dasharray: none; stroke-dashoffset: 0pt; stroke-opacity: 1; visibility: visible; display: inline;"
         sodipodi:type="arc" />
      <path
         sodipodi:type="arc"
         style="overflow: visible; marker: none; opacity: 1; color: rgb(0, 0, 0); fill: rgb(215, 235, 144); fill-opacity: 1; fill-rule: evenodd; stroke: none; stroke-width: 1.58397px; stroke-linecap: butt; stroke-linejoin: miter; stroke-miterlimit: 4; stroke-dasharray: none; stroke-dashoffset: 0pt; stroke-opacity: 1; visibility: visible; display: inline;"
         id="path26645"
         sodipodi:cx="-281.60489"
         sodipodi:cy="-209.70604"
         sodipodi:rx="2.8861411"
         sodipodi:ry="7.8338113"
         d="M -278.71875 -209.70604 A 2.8861411 7.8338113 0 1 1  -284.49103,-209.70604 A 2.8861411 7.8338113 0 1 1  -278.71875 -209.70604 z"
         transform="matrix(0.740922, 0, 0, 0.459741, 210.786, 125.504)" />
      <path
         transform="matrix(0.740922, 0, 0, 0.459741, 210.786, 125.504)"
         d="M -278.71875 -209.70604 A 2.8861411 7.8338113 0 1 1  -284.49103,-209.70604 A 2.8861411 7.8338113 0 1 1  -278.71875 -209.70604 z"
         sodipodi:ry="7.8338113"
         sodipodi:rx="2.8861411"
         sodipodi:cy="-209.70604"
         sodipodi:cx="-281.60489"
         id="path26643"
         style="overflow: visible; marker: none; opacity: 1; color: rgb(0, 0, 0); fill: rgb(215, 235, 144); fill-opacity: 1; fill-rule: evenodd; stroke: none; stroke-width: 1.58397px; stroke-linecap: butt; stroke-linejoin: miter; stroke-miterlimit: 4; stroke-dasharray: none; stroke-dashoffset: 0pt; stroke-opacity: 1; visibility: visible; display: inline;"
         sodipodi:type="arc" />
    </pattern>
    <clipPath
       id="clipPath29604">
      <path
         d="M 214.7035,131.11718 L 220.7805,131.36252 C 218.24621,133.08292 225.61431,96.01338 236.79475,88.623123 C 241.62695,85.429034 235.59151,76.308077 232.97417,77.689778 C 232.97417,77.689778 226.50397,82.360861 225.74403,85.783757 C 224.9841,89.206643 219.02497,103.38716 217.6128,113.62948 C 216.20062,123.8718 215.05025,128.51732 214.7035,131.11718 z"
         id="path29606"
         style="fill:#372a07;fill-opacity:1;fill-rule:evenodd;stroke:none;stroke-width:1px;stroke-linecap:butt;stroke-linejoin:miter;stroke-opacity:1" />
    </clipPath>
    <linearGradient
       x1="220.90099"
       y1="99.833923"
       x2="225.37206"
       y2="101.95313"
       id="linearGradient29608"
       xlink:href="#linearGradient28622"
       gradientUnits="userSpaceOnUse" />
    <filter
       id="filter30589">
      <feGaussianBlur
         id="feGaussianBlur30591"
         stdDeviation="0.5767807"
         inkscape:collect="always" />
    </filter>
    <linearGradient
       x1="211.02544"
       y1="147.26143"
       x2="243.94995"
       y2="109.28474"
       id="linearGradient30599"
       xlink:href="#linearGradient30593"
       gradientUnits="userSpaceOnUse"
       gradientTransform="translate(-0.134796,-0.808775)" />
    <clipPath
       id="clipPath30603">
      <path
         d="M 172.54666,119.65383 C 172.54666,119.65383 192.66287,134.89283 226.62458,131.41512 C 260.77261,127.89569 267.40899,121.36033 267.40899,121.36033 C 295.93157,89.77874 131.21095,96.219036 172.54666,119.65383 z"
         id="path30605"
         style="fill:url(#radialGradient30607) #000000;fill-opacity:1;fill-rule:evenodd;stroke:none;stroke-width:1px;stroke-linecap:butt;stroke-linejoin:miter;stroke-opacity:1" />
    </clipPath>
    <radialGradient
       cx="-81.081718"
       cy="44.942459"
       r="44.555969"
       fx="-81.081718"
       fy="44.942459"
       id="radialGradient30607"
       xlink:href="#linearGradient15314"
       gradientUnits="userSpaceOnUse"
       gradientTransform="matrix(-1.46025e-2,-0.960198,1.93539,-2.81315e-2,127.596,52.0179)" />
    <pattern
       id="pattern30611"
       patternTransform="translate(160.892, -165.998)"
       height="24.735281"
       width="39.501228"
       patternUnits="userSpaceOnUse">
      <rect
         style="fill: url(#pattern30614) rgb(0, 0, 0); stroke: none;"
         width="32.881989"
         height="19.296179"
         x="1.72435"
         y="5.4391022"
         id="rect26672" />
      <rect
         style="fill: none; stroke: none;"
         width="39.501228"
         height="24.735281"
         x="0"
         y="0"
         id="rect25640" />
    </pattern>
    <filter
       id="filter35726"
       height="1.8775307"
       y="-0.43876535"
       width="1.1250638"
       x="-0.062531874">
      <feGaussianBlur
         id="feGaussianBlur35728"
         stdDeviation="5.1544931"
         inkscape:collect="always" />
    </filter>
    <linearGradient
       x1="-134.76347"
       y1="343.27988"
       x2="-66.758102"
       y2="311.95261"
       id="linearGradient37702"
       xlink:href="#linearGradient37696"
       gradientUnits="userSpaceOnUse" />
    <filter
       id="filter38751"
       height="2.1931019"
       y="-0.59655094"
       width="1.1481797"
       x="-0.074089833">
      <feGaussianBlur
         id="feGaussianBlur38753"
         stdDeviation="9.8808712"
         inkscape:collect="always" />
    </filter>
    <filter
       id="filter3417">
      <feGaussianBlur
         id="feGaussianBlur3419"
         stdDeviation="0.95731779"
         inkscape:collect="always" />
    </filter>
    <radialGradient
       cx="-81.081718"
       cy="44.942459"
       r="44.555969"
       fx="-81.081718"
       fy="44.942459"
       id="radialGradient2502"
       xlink:href="#linearGradient15314"
       gradientUnits="userSpaceOnUse"
       gradientTransform="matrix(-1.7898e-2,-1.17689,2.37216,-3.448e-2,134.989,46.1346)" />
    <linearGradient
       x1="-47.223972"
       y1="206.26599"
       x2="-51.159306"
       y2="295.46683"
       id="linearGradient2511"
       xlink:href="#linearGradient13303"
       gradientUnits="userSpaceOnUse" />
  </defs>
  <g
     transform="translate(-72.3837,-62.7234)"
     id="layer1">
    <path
       d="M 411.79872,322.43326 A 133.36339,16.563332 0 1 1 145.07195,322.43326 A 133.36339,16.563332 0 1 1 411.79872,322.43326 z"
       transform="matrix(1.04786,0,0,4.07545,-28.3156,-978.339)"
       id="path32567"
       style="opacity:0.67692297;fill:#4d4d4d;fill-opacity:1;fill-rule:evenodd;stroke:none;stroke-width:1.58396995px;stroke-linecap:butt;stroke-linejoin:miter;marker:none;stroke-miterlimit:4;stroke-dasharray:none;stroke-dashoffset:0;stroke-opacity:1;visibility:visible;display:inline;overflow:visible;filter:url(#filter38751)" />
    <path
       d="M 304.26598,314.99686 A 82.429848,11.747722 0 1 1 139.40629,314.99686 A 82.429848,11.747722 0 1 1 304.26598,314.99686 z"
       transform="matrix(1.22567,0,0,1.55252,-21.4021,-116.738)"
       id="path34711"
       style="fill:#000000;fill-opacity:0.95339002;fill-rule:evenodd;stroke:none;stroke-width:1.58396995px;stroke-linecap:butt;stroke-linejoin:miter;marker:none;stroke-miterlimit:4;stroke-dasharray:none;stroke-dashoffset:0;stroke-opacity:1;visibility:visible;display:inline;overflow:visible;filter:url(#filter35726)" />
    <path
       d="M 100.84271,272.89235 C 79.362165,377.49483 35.883125,391.59016 -4.9811852,389.88503 C -12.865625,389.55605 -12.512655,391.11713 -21.430865,389.98682 C -29.206525,389.00131 -42.757435,383.96677 -50.603105,384.54863 C -97.577565,388.03238 -142.59529,326.06819 -142.59529,267.06848 C -142.59529,200.52255 -98.561915,156.84221 -29.462555,155.24783 C 65.842355,153.06556 100.84271,206.34642 100.84271,272.89235 z"
       transform="matrix(1.22567,0,0,1.22567,269.612,-94.7973)"
       clip-path="url(#clipPath14294)"
       id="path2416"
       style="fill:url(#radialGradient15285);fill-opacity:1;fill-rule:nonzero;stroke:url(#linearGradient37702);stroke-width:2.0999999;stroke-linecap:butt;stroke-linejoin:miter;marker:none;stroke-miterlimit:4;stroke-dasharray:none;stroke-dashoffset:0;stroke-opacity:0.30084803;visibility:visible;display:inline;overflow:visible" />
    <path
       d="M 100.84271,272.89235 C 79.362165,377.49483 35.883125,391.59016 -4.9811852,389.88503 C -12.865625,389.55605 -12.512655,391.11713 -21.430865,389.98682 C -29.206525,389.00131 -42.757435,383.96677 -50.603105,384.54863 C -97.577565,388.03238 -142.59529,326.06819 -142.59529,267.06848 C -142.59529,200.52255 -98.561915,156.84221 -29.462555,155.24783 C 65.842355,153.06556 100.84271,206.34642 100.84271,272.89235 z"
       transform="matrix(1.22567,0,0,1.22567,267.7795,-94.7973)"
       clip-path="url(#clipPath14294)"
       id="path30619"
       style="opacity:0.24230772;fill:url(#pattern30611) #000000;fill-opacity:1;fill-rule:nonzero;stroke:url(#pattern26663) #000000;stroke-width:1px;stroke-linecap:butt;stroke-linejoin:miter;marker:none;stroke-miterlimit:4;stroke-dashoffset:0;stroke-opacity:1;visibility:visible;display:inline;overflow:visible;filter:url(#filter3417)" />
    <path
       d="M 92.377658,214.65037 C 95.477942,226.71923 96.908908,239.69573 96.908908,253.21287 C 75.42836,357.81537 31.960718,371.918 -8.9035917,370.21287 C -16.788032,369.88392 -16.454132,371.43693 -25.372342,370.30662 C -33.148002,369.32112 -46.682922,364.28726 -54.528592,364.86912 C -83.752722,367.03645 -112.21907,343.85985 -129.55984,311.83787 C -116.43899,357.63042 -80.222062,396.52335 -42.747342,393.74412 C -34.901672,393.16226 -21.335492,398.19614 -13.559842,399.18162 C -4.6416317,400.31193 -5.0067917,398.72763 2.8776583,399.05662 C 43.741968,400.76175 87.240865,386.69033 108.72141,282.08787 C 108.72141,256.96283 103.71825,233.72235 92.377658,214.65037 z"
       transform="matrix(1.25266,0,0,1.22567,271.501,-89.9739)"
       clip-path="url(#clipPath14290)"
       id="path6441"
       style="opacity:0.47692297;fill:#241f1c;fill-opacity:1;fill-rule:nonzero;stroke:none;stroke-width:1px;stroke-linecap:butt;stroke-linejoin:miter;marker:none;stroke-miterlimit:4;stroke-dashoffset:0;stroke-opacity:1;visibility:visible;display:inline;overflow:visible;filter:url(#filter7541)" />
    <path
       d="M -86.577286,173.47156 C -93.278028,172.55938 -97.599302,179.24646 -102.31861,183.96578 C -107.94537,189.59254 -114.41872,193.73645 -118.05993,201.01888 C -121.5423,207.98361 -125.03335,209.7186 -128.55415,216.7602 C -131.10964,221.87119 -129.86593,230.34979 -129.86593,236.43686 C -129.86593,242.99574 -129.86593,249.55463 -129.86593,256.11351 C -129.86593,264.31481 -130.53755,268.55966 -125.9306,273.16662 C -119.06171,280.03551 -120.68349,264.36044 -120.68349,258.73707 C -120.68349,250.24196 -120.2015,246.44909 -115.43638,241.68397 C -109.64874,235.89632 -101.08556,232.81643 -103.63039,242.99574 C -105.52283,250.56553 -105.20355,255.59074 -102.31861,261.36062 C -99.247792,267.50225 -96.179342,269.6509 -90.512617,263.98418 C -85.17858,258.65014 -91.909054,253.4053 -83.953731,261.36062 C -78.698481,266.61587 -75.540212,272.37501 -68.212407,270.54306 C -61.244854,268.80117 -63.115879,261.36062 -51.159305,261.36062 C -42.194365,261.36062 -43.109689,265.29595 -35.417981,265.29595 C -24.084927,265.29595 -24.597716,265.94805 -20.988433,273.16662 C -17.036074,281.07133 -13.686532,281.78029 -9.1824398,286.28439 C -3.5186371,291.94819 -0.4738832,289.03501 2.6235541,296.7786 C 4.4608316,301.3718 10.905395,290.70914 13.117771,286.28439 C 16.659243,279.20144 24.508269,274.79001 30.170872,270.54306 C 33.806482,267.81635 37.836244,273.37191 44.60042,266.60773 C 51.122616,260.08553 57.93601,265.51377 61.653521,269.23128 C 63.613827,271.19159 78.213281,269.23128 81.330177,269.23128 C 86.43268,269.23128 87.889062,260.08513 87.889062,254.80174 C 87.889062,249.11826 84.894656,242.25404 82.641954,237.74864 C 79.827039,232.11881 78.679938,224.5775 76.083069,219.38376 C 73.236943,213.6915 70.491752,208.20112 68.212406,203.64243 C 64.834638,196.88689 59.994293,194.11254 56.406413,190.52466 C 52.654479,186.77273 50.512991,182.00769 47.223974,178.71867 C 41.822716,173.31741 39.815543,172.15978 31.482649,172.15978 C 25.216405,172.15978 17.398899,171.91829 13.117771,170.84801 C 5.9495798,169.05596 3.5833287,168.70434 -2.6235541,165.6009 C -8.3519338,162.73671 -8.2967418,160.35379 -17.053102,160.35379 C -23.611987,160.35379 -30.170872,160.35379 -36.729758,160.35379 C -43.288643,160.35379 -49.847528,160.35379 -56.406413,160.35379 C -64.213911,160.35379 -67.09586,165.79613 -70.835961,169.53623 C -74.181521,172.88179 -82.165548,173.47156 -86.577286,173.47156 z"
       transform="matrix(1.28466,0,0,1.29581,270.859,-115.69)"
       clip-path="url(#clipPath14286)"
       id="path7549"
       style="fill:url(#linearGradient14306);fill-opacity:1;fill-rule:nonzero;stroke:none;stroke-width:1px;stroke-linecap:butt;stroke-linejoin:miter;marker:none;stroke-miterlimit:4;stroke-dasharray:none;stroke-dashoffset:0;stroke-opacity:1;visibility:visible;display:inline;overflow:visible;filter:url(#filter13287)" />
    <path
       d="M -97.071505,237.74864 C -99.507635,240.63871 -102.43206,249.10085 -101.00684,254.80174 C -98.519205,264.75226 -99.444035,264.82834 -91.824395,270.54306 C -86.936285,274.20915 -87.174015,279.42714 -81.330175,282.34906 C -78.898515,283.56489 -78.706625,267.72821 -78.706625,265.29596 C -78.706625,261.16785 -73.459515,258.7576 -73.459515,250.86641 C -73.459515,242.03149 -73.263605,239.25632 -77.394845,235.12508 C -80.269695,232.25024 -95.139865,236.97598 -97.071505,237.74864 z M -44.600415,233.81331 C -48.251295,230.16243 -49.306045,249.09699 -48.535755,252.17819 C -46.059695,262.08239 -40.665085,258.91089 -40.665085,270.54306 C -40.665085,279.98299 -39.775635,280.61495 -35.417985,284.97261 C -31.007675,289.38291 -25.311625,288.48303 -18.364875,290.21972 C -11.034815,292.05223 -6.1549153,295.46683 1.3117747,295.46683 C 9.8459147,295.46683 14.639285,291.42663 22.300215,287.59617 C 24.558775,286.46688 28.673575,273.35214 30.170875,271.85484 C 33.509315,268.5164 27.547315,256.72267 27.547315,253.48996 C 27.547315,245.97997 28.859095,242.62368 28.859095,235.12508 C 28.859095,230.47763 17.986035,225.84793 13.117775,224.63087 C 7.4946247,223.22508 -2.4885553,225.94264 -9.1824353,225.94264 C -16.256665,225.94264 -21.634255,228.5662 -28.859095,228.5662 C -37.516515,228.5662 -37.293405,230.1598 -44.600415,233.81331 z"
       transform="matrix(1.22567,0,0,1.22567,262.28201,-94.7973)"
       clip-path="url(#clipPath14282)"
       id="path10686"
       style="opacity:0.35769199;fill:url(#linearGradient2511);fill-opacity:1;fill-rule:evenodd;stroke:none;stroke-width:1px;stroke-linecap:butt;stroke-linejoin:miter;stroke-opacity:1;filter:url(#filter12154)" />
    <path
       d="M 190.08388,129.03427 C 190.08388,129.03427 214.7398,147.71232 256.3658,143.44978 C 298.22016,139.13611 306.3542,131.12588 306.3542,131.12588 C 341.31359,92.417141 139.41976,100.31085 190.08388,129.03427 z"
       id="path15302"
       style="fill:url(#radialGradient2502);fill-opacity:1;fill-rule:evenodd;stroke:none;stroke-width:1px;stroke-linecap:butt;stroke-linejoin:miter;stroke-opacity:1" />
    <path
       d="M 207.50217,98.428603 C 207.50217,98.428603 176.95324,109.3801 189.05753,108.22731 C 211.84639,100.436 241.10071,102.09665 263.98887,109.9565 C 246.93781,95.472659 230.38212,97.191851 207.50217,98.428603 z"
       transform="matrix(1.43899,0.167911,-0.13347,1.81032,-51.0177,-113.181)"
       id="path18608"
       style="opacity:0.18461501;fill:#ffffff;fill-opacity:1;fill-rule:evenodd;stroke:none;stroke-width:1.58396995px;stroke-linecap:butt;stroke-linejoin:miter;marker:none;stroke-miterlimit:4;stroke-dasharray:none;stroke-dashoffset:0;stroke-opacity:1;visibility:visible;display:inline;overflow:visible;filter:url(#filter18604)" />
    <path
       d="M 186.03125,121.65625 C 179.32534,120.6125 170.65235,128.64714 178.625,133.71875 C 189.52886,139.63107 202.25532,140.84567 214.53072,140.42096 C 229.159,140.85079 244.68645,139.30649 257.15625,131.34375 C 259.97095,125.27512 253.14128,128.6125 249.5625,129.8125 C 236.58844,133.25059 222.80332,133.58985 209.37911,133.34696 C 202.35512,132.60673 194.14647,131.36332 188.28125,128.15625 C 189.55502,125.80064 189.24111,121.67724 186.03125,121.65625 z"
       transform="matrix(1.72473,0,0,2.18535,-131.681,-142.843)"
       id="path16291"
       style="opacity:0.46538499;fill:url(#radialGradient21659);fill-opacity:1;fill-rule:evenodd;stroke:none;stroke-width:1px;stroke-linecap:butt;stroke-linejoin:miter;stroke-opacity:1;filter:url(#filter18604)" />
    <path
       d="M 223.08699,127.66322 C 229.69198,116.47517 229.69198,116.47517 229.69198,116.47517 C 229.69198,116.47517 232.65749,108.65701 239.80167,105.42192 C 246.94584,102.18682 252.60727,103.13039 252.60727,103.13039 L 260.02103,109.46579 C 260.02103,109.46579 249.23737,106.76987 237.51014,118.7667 C 225.78291,130.76352 218.50394,134.94219 218.50394,134.94219 C 216.64678,132.12497 214.99542,139.8222 223.08699,127.66322 z"
       transform="matrix(1.22307,-7.98802e-2,7.98802e-2,1.22307,-36.6659,0.489255)"
       clip-path="url(#clipPath30603)"
       id="path29610"
       style="fill:url(#linearGradient30599);fill-opacity:1;fill-rule:evenodd;stroke:none;stroke-width:1px;stroke-linecap:butt;stroke-linejoin:miter;stroke-opacity:1;filter:url(#filter30589)" />
    <g
       transform="matrix(1.22567,0,0,1.22567,-24.0456,-16.9615)"
       clip-path="url(#clipPath29604)"
       id="g29599">
      <path
         d="M 214.7035,131.11718 L 220.7805,131.36252 C 218.24621,133.08292 225.61431,96.01338 236.79475,88.623123 C 241.62695,85.429034 235.59151,76.308077 232.97417,77.689778 C 232.97417,77.689778 226.50397,82.360861 225.74403,85.783757 C 224.9841,89.206643 219.02497,103.38716 217.6128,113.62948 C 216.20062,123.8718 215.05025,128.51732 214.7035,131.11718 z"
         id="path2419"
         style="fill:#372a07;fill-opacity:1;fill-rule:evenodd;stroke:none;stroke-width:1px;stroke-linecap:butt;stroke-linejoin:miter;stroke-opacity:1" />
      <path
         d="M 233.12929,78.205201 C 233.00104,78.299137 231.615,79.306053 230.03968,80.781983 C 228.39204,82.325684 226.75643,84.356027 226.49649,85.526865 C 226.05381,87.520744 224.40214,91.805859 222.64545,97.036177 C 220.88876,102.26649 219.03517,108.32475 218.3484,113.30585 C 217.02981,122.8695 215.85644,128.19389 215.44569,130.78489 L 218.08742,130.92374 C 218.07913,129.94349 218.87096,127.43689 219.11789,125.80676 C 219.63527,122.39116 220.65975,117.63904 222.13181,112.60672 C 223.60387,107.57439 225.51324,102.25674 227.77739,97.683623 C 230.04155,93.110509 232.64965,89.276719 235.76555,87.21711 C 236.67117,86.618492 237.01248,85.861594 237.07065,84.84058 C 237.12882,83.819566 237.06505,82.00874 236.51314,80.883298 C 235.96123,79.757857 234.92039,79.294491 234.22758,78.719554 C 233.88117,78.432086 233.55015,78.258553 233.35293,78.198409 C 233.15571,78.138264 233.14248,78.198246 233.12929,78.205201 z"
         id="path5464"
         style="fill:#db9b1e;fill-opacity:0.41101703;fill-rule:evenodd;stroke:none;stroke-width:1px;stroke-linecap:butt;stroke-linejoin:miter;stroke-opacity:1;filter:url(#filter24623)" />
      <path
         d="M 233.00867,80.086464 C 231.07509,81.654488 228.76318,83.086983 227.72188,85.435419 C 223.63733,96.219912 223.76985,97.698476 221.61259,103.76166 C 220.3903,108.69017 219.53224,113.70377 218.54448,118.68423 C 217.80996,122.56054 217.0972,126.44094 216.39301,130.32287 C 217.62972,131.11865 217.20993,127.26011 217.93552,125.91339 C 219.77595,111.73178 223.26662,98.257465 228.79564,86.286484 C 230.08551,83.976629 232.40205,82.505311 234.3511,80.832431 C 234.21261,80.324188 233.34307,80.446502 233.00867,80.086464 z"
         id="path24627"
         style="opacity:0.26153798;fill:url(#linearGradient29608);fill-opacity:1;fill-rule:evenodd;stroke:none;stroke-width:1px;stroke-linecap:butt;stroke-linejoin:miter;stroke-opacity:1" />
    </g>
  </g>
</svg>
