<?xml version="1.0" encoding="UTF-8" standalone="no"?>
<!-- Created with Inkscape (http://www.inkscape.org/) -->

<svg
   xmlns:dc="http://purl.org/dc/elements/1.1/"
   xmlns:cc="http://creativecommons.org/ns#"
   xmlns:rdf="http://www.w3.org/1999/02/22-rdf-syntax-ns#"
   xmlns:svg="http://www.w3.org/2000/svg"
   xmlns="http://www.w3.org/2000/svg"
   xmlns:xlink="http://www.w3.org/1999/xlink"
   xmlns:sodipodi="http://sodipodi.sourceforge.net/DTD/sodipodi-0.dtd"
   xmlns:inkscape="http://www.inkscape.org/namespaces/inkscape"
   version="1.0"
   width="127.99945"
   height="85.469002"
   id="svg2"
   sodipodi:version="0.32"
   inkscape:version="0.92.2 (5c3e80d, 2017-08-06)"
   sodipodi:docname="doughnut.svg"
   inkscape:output_extension="org.inkscape.output.svg.inkscape">
  <metadata
     id="metadata2232">
    <rdf:RDF>
      <cc:Work
         rdf:about="">
        <dc:format>image/svg+xml</dc:format>
        <dc:type
           rdf:resource="http://purl.org/dc/dcmitype/StillImage" />
        <dc:title></dc:title>
        <cc:license
           rdf:resource="http://creativecommons.org/publicdomain/zero/1.0/" />
      </cc:Work>
      <cc:License
         rdf:about="http://creativecommons.org/publicdomain/zero/1.0/">
        <cc:permits
           rdf:resource="http://creativecommons.org/ns#Reproduction" />
        <cc:permits
           rdf:resource="http://creativecommons.org/ns#Distribution" />
        <cc:permits
           rdf:resource="http://creativecommons.org/ns#DerivativeWorks" />
      </cc:License>
    </rdf:RDF>
  </metadata>
  <sodipodi:namedview
     inkscape:window-height="1025"
     inkscape:window-width="1920"
     inkscape:pageshadow="2"
     inkscape:pageopacity="0.0"
     guidetolerance="10.0"
     gridtolerance="10.0"
     objecttolerance="10.0"
     borderopacity="1.0"
     bordercolor="#666666"
     pagecolor="#ffffff"
     id="base"
     showborder="true"
     inkscape:showpageshadow="true"
     inkscape:zoom="0.7071068"
     inkscape:cx="-153.68904"
     inkscape:cy="-107.75211"
     inkscape:window-x="-8"
     inkscape:window-y="-8"
     inkscape:current-layer="svg2"
     showgrid="false"
     inkscape:window-maximized="1"
     fit-margin-top="0"
     fit-margin-left="0"
     fit-margin-right="0"
     fit-margin-bottom="0" />
  <defs
     id="defs4">
    <linearGradient
       id="linearGradient6556">
      <stop
         style="stop-color:#552200;stop-opacity:1"
         offset="0"
         id="stop6558" />
      <stop
         style="stop-color:#552200;stop-opacity:0"
         offset="1"
         id="stop6560" />
    </linearGradient>
    <linearGradient
       id="linearGradient6326">
      <stop
         style="stop-color:#000000;stop-opacity:1"
         offset="0"
         id="stop6328" />
      <stop
         style="stop-color:#000000;stop-opacity:0"
         offset="1"
         id="stop6330" />
    </linearGradient>
    <linearGradient
       id="linearGradient4337">
      <stop
         style="stop-color:#000000;stop-opacity:1"
         offset="0"
         id="stop4339" />
      <stop
         style="stop-color:#000000;stop-opacity:0"
         offset="1"
         id="stop4341" />
    </linearGradient>
    <linearGradient
       id="linearGradient3316">
      <stop
         style="stop-color:#502d16;stop-opacity:1"
         offset="0"
         id="stop3318" />
      <stop
         style="stop-color:#a05a2c;stop-opacity:0"
         offset="1"
         id="stop3320" />
    </linearGradient>
    <linearGradient
       id="linearGradient3290">
      <stop
         style="stop-color:#fff6d5;stop-opacity:1"
         offset="0"
         id="stop3292" />
      <stop
         style="stop-color:#fff6d5;stop-opacity:0"
         offset="1"
         id="stop3294" />
    </linearGradient>
    <linearGradient
       id="linearGradient3258">
      <stop
         style="stop-color:#c87137;stop-opacity:1"
         offset="0"
         id="stop3260" />
      <stop
         style="stop-color:#c87137;stop-opacity:0"
         offset="1"
         id="stop3262" />
    </linearGradient>
    <linearGradient
       id="linearGradient3210">
      <stop
         style="stop-color:#fff6d5;stop-opacity:1"
         offset="0"
         id="stop3212" />
      <stop
         style="stop-color:#fff6d5;stop-opacity:0"
         offset="1"
         id="stop3214" />
    </linearGradient>
    <clipPath
       id="clipPath2171">
      <path
         d="m 665.71429,516.64789 c 0,117.55776 -132.3958,212.85715 -295.71429,212.85715 -163.3185,0 -295.714294,-95.29939 -295.714294,-212.85715 0,-117.55776 132.395794,-212.85715 295.714294,-212.85715 163.31849,0 295.71429,95.29939 295.71429,212.85715 z"
         transform="matrix(1.1433115,-0.01274964,0.04550493,1.3307872,-134.49706,-391.96738)"
         style="fill:#cc00ff;stroke:#660080;stroke-width:5;stroke-miterlimit:4;stroke-dasharray:none;stroke-opacity:1"
         id="path2173"
         inkscape:connector-curvature="0" />
    </clipPath>
    <linearGradient
       x1="262.49438"
       y1="510.93362"
       x2="509.28214"
       y2="481.0336"
       id="linearGradient3216"
       xlink:href="#linearGradient3210"
       gradientUnits="userSpaceOnUse" />
    <filter
       id="filter3250">
      <feGaussianBlur
         id="feGaussianBlur3252"
         stdDeviation="6.4719674"
         inkscape:collect="always" />
    </filter>
    <linearGradient
       x1="393.93188"
       y1="608.39819"
       x2="434.8063"
       y2="416.47314"
       id="linearGradient3264"
       xlink:href="#linearGradient3258"
       gradientUnits="userSpaceOnUse" />
    <linearGradient
       x1="506.26096"
       y1="651.89423"
       x2="475.10852"
       y2="581.42969"
       id="linearGradient3296"
       xlink:href="#linearGradient3290"
       gradientUnits="userSpaceOnUse"
       gradientTransform="translate(4.1760404,6.9600673)" />
    <filter
       id="filter3310"
       height="1.526702"
       y="-0.26335102"
       width="1.1450356"
       x="-0.072517797">
      <feGaussianBlur
         id="feGaussianBlur3312"
         stdDeviation="9.3559915"
         inkscape:collect="always" />
    </filter>
    <linearGradient
       x1="430.2486"
       y1="537.36218"
       x2="295.39932"
       y2="392.10178"
       id="linearGradient3322"
       xlink:href="#linearGradient3316"
       gradientUnits="userSpaceOnUse" />
    <filter
       id="filter3344"
       height="1.3492135"
       y="-0.17460674"
       width="1.127377"
       x="-0.063688524">
      <feGaussianBlur
         id="feGaussianBlur3346"
         stdDeviation="6.475"
         inkscape:collect="always" />
    </filter>
    <linearGradient
       x1="405.95187"
       y1="502.75732"
       x2="423.61395"
       y2="381.75732"
       id="linearGradient4343"
       xlink:href="#linearGradient4337"
       gradientUnits="userSpaceOnUse" />
    <filter
       id="filter4369"
       height="1.7512553"
       y="-0.37562767"
       width="1.3384542"
       x="-0.16922712">
      <feGaussianBlur
         id="feGaussianBlur4371"
         stdDeviation="19.413469"
         inkscape:collect="always" />
    </filter>
    <linearGradient
       x1="138.70134"
       y1="420.38806"
       x2="145.26939"
       y2="696.53003"
       id="linearGradient6324"
       xlink:href="#linearGradient6326"
       gradientUnits="userSpaceOnUse" />
    <filter
       id="filter6376"
       height="1.2166047"
       y="-0.10830234"
       width="1.144472"
       x="-0.072236001">
      <feGaussianBlur
         id="feGaussianBlur6378"
         stdDeviation="10.600014"
         inkscape:collect="always" />
    </filter>
    <linearGradient
       x1="378.24182"
       y1="829.32166"
       x2="383.26941"
       y2="694.53003"
       id="linearGradient6382"
       xlink:href="#linearGradient4337"
       gradientUnits="userSpaceOnUse" />
    <filter
       id="filter6418"
       height="1.588719"
       y="-0.29435951"
       width="1.3512653"
       x="-0.17563263">
      <feGaussianBlur
         id="feGaussianBlur6420"
         stdDeviation="23.068266"
         inkscape:collect="always" />
    </filter>
    <linearGradient
       x1="181.26096"
       y1="462.93234"
       x2="268.82397"
       y2="575.01471"
       id="linearGradient6422"
       xlink:href="#linearGradient3290"
       gradientUnits="userSpaceOnUse"
       gradientTransform="translate(4.1760404,6.9600673)" />
    <filter
       id="filter6534"
       height="1.6061836"
       y="-0.30309179"
       width="1.3972982"
       x="-0.19864908">
      <feGaussianBlur
         id="feGaussianBlur6536"
         stdDeviation="15.010157"
         inkscape:collect="always" />
    </filter>
    <linearGradient
       x1="251.03001"
       y1="526.20966"
       x2="138.87038"
       y2="452.43295"
       id="linearGradient6562"
       xlink:href="#linearGradient6556"
       gradientUnits="userSpaceOnUse" />
    <filter
       id="filter6588"
       height="1.5717733"
       y="-0.28588665"
       width="1.4338191"
       x="-0.21690948">
      <feGaussianBlur
         id="feGaussianBlur6590"
         stdDeviation="10.508244"
         inkscape:collect="always" />
    </filter>
    <linearGradient
       x1="251.03001"
       y1="526.20966"
       x2="138.87038"
       y2="452.43295"
       id="linearGradient6594"
       xlink:href="#linearGradient6556"
       gradientUnits="userSpaceOnUse"
       gradientTransform="translate(-108.57705,114.1451)" />
    <linearGradient
       x1="358.70538"
       y1="398.4213"
       x2="362.22318"
       y2="408.62857"
       id="linearGradient6598"
       xlink:href="#linearGradient4337"
       gradientUnits="userSpaceOnUse" />
    <linearGradient
       x1="251.03001"
       y1="526.20966"
       x2="138.87038"
       y2="452.43295"
       id="linearGradient6602"
       xlink:href="#linearGradient6556"
       gradientUnits="userSpaceOnUse"
       gradientTransform="translate(-108.57705,114.1451)" />
  </defs>
  <g
     id="layer1"
     transform="matrix(0.19480152,0,0,0.19480152,-7.3574076,-67.612999)">
    <path
       d="M 361.52686,383.46707 C 198.20796,384.86331 69.449048,471.12238 74.127975,576.02539 78.806901,680.92836 215.15425,764.95595 378.47314,763.55971 541.79204,762.16347 670.55095,675.87647 665.87202,570.97349 661.1931,466.0705 524.84575,382.07083 361.52686,383.46707 Z m 14.19485,159.18576 c 29.82941,-2.87857 43.26607,-1.24521 57.6929,17.38501 6.08118,16.49341 37.13895,26.45285 -66.26433,26.45285 -89.11754,0 -60.59524,-17.36191 -52.83713,-36.61857 16.34201,-11.27673 23.72179,-6.48357 61.40856,-7.21929 z"
       style="fill:#ffdd55;stroke:none;stroke-width:4.72656441;stroke-miterlimit:4;stroke-opacity:1"
       id="path6314"
       inkscape:connector-curvature="0" />
    <path
       style="fill:#683717;fill-opacity:1;stroke:none;stroke-width:4.72656441;stroke-miterlimit:4;stroke-opacity:1"
       d="M 359.73703,377.02744 C 195.45806,378.46203 65.942236,449.69001 72.040681,570.00228 80.93852,681.36903 212.50397,768.99383 376.78293,767.55924 541.0619,766.12465 670.59229,699.84134 667.2633,550.8915 664.96379,448.00374 524.016,375.59285 359.73703,377.02744 Z m 14.9743,166.34179 c 30.00477,-2.95763 42.82441,-4.06344 57.33604,15.07846 6.11693,16.94639 37.35728,27.17937 -66.65386,27.17937 -89.64142,0 -58.16742,-15.05472 -50.3637,-34.84026 16.43807,-11.58645 23.86124,-7.35765 59.68152,-7.41757 z"
       id="path6312"
       sodipodi:nodetypes="ccsscccscc"
       inkscape:connector-curvature="0" />
    <path
       d="M 361.52686,349.46707 C 198.20796,350.86331 69.449048,437.12238 74.127975,542.02539 78.806901,646.92836 215.15425,730.95595 378.47314,729.55971 541.79204,728.16347 670.55095,641.87647 665.87202,536.97349 661.1931,432.0705 524.84575,348.07083 361.52686,349.46707 Z m 14.19485,159.18576 c 29.82941,-2.87857 43.26607,-1.24521 57.6929,17.38501 6.08118,16.49341 37.13895,26.45285 -66.26433,26.45285 -89.11754,0 -60.59524,-17.36191 -52.83713,-36.61857 16.34201,-11.27673 23.72179,-6.48357 61.40856,-7.21929 z"
       style="fill:#ffdd55;stroke:none;stroke-width:4.72656441;stroke-miterlimit:4;stroke-opacity:1"
       id="path2160"
       inkscape:connector-curvature="0" />
    <path
       d="M 361.52686,349.46707 C 198.20796,350.86331 69.449048,437.12238 74.127975,542.02539 78.806901,646.92836 215.15425,748.95595 378.47314,747.55971 541.79204,746.16347 670.55095,641.87647 665.87202,536.97349 661.1931,432.0705 524.84575,348.07083 361.52686,349.46707 Z m 14.19485,159.18576 c 29.82941,-2.87857 43.26607,-1.24521 57.6929,17.38501 6.08118,16.49341 37.13895,26.45285 -66.26433,26.45285 -89.11754,0 -60.59524,-17.36191 -52.83713,-36.61857 16.34201,-11.27673 23.72179,-6.48357 61.40856,-7.21929 z"
       style="opacity:1;fill:#683717;fill-opacity:1;stroke:#693717;stroke-width:4.72656441;stroke-miterlimit:4;stroke-opacity:1"
       id="path3348"
       inkscape:connector-curvature="0" />
    <path
       d="m 236,454.36218 c 0,0 -32.75,54.25 -2,75 30.75,20.75 119,32 119,32 0,0 -77.5,5.75 -107,-2 -29.5,-7.75 -68.34835,-34.8449 -72,-55 -16.78827,-92.66205 62,-50 62,-50 z"
       style="fill:#f9f9f9;fill-rule:evenodd;stroke:none;stroke-width:1px;stroke-linecap:butt;stroke-linejoin:miter;stroke-opacity:1;filter:url(#filter6534)"
       id="path6424"
       inkscape:connector-curvature="0" />
    <path
       d="m 416,402.36218 -158,32 c -0.0375,0.0961 -92.58851,127.13304 -30,58 30.01459,-33.15305 -54,8 24,40 78,32 78,32 78,32 h 88 l -175,-8 -3,20 L 209.03262,481.89761 190,496.36218 c 0,0 -27.79626,-4.28524 -8,-32 20,-28 2,-34 2,-34 0,0 120,-42 232,-28 z"
       style="color:#000000;display:inline;overflow:visible;visibility:visible;opacity:0.92222218;fill:#fff6d5;fill-opacity:1;fill-rule:evenodd;stroke:url(#linearGradient6422);stroke-width:11.2252388;stroke-linecap:round;stroke-linejoin:round;stroke-miterlimit:4;stroke-dasharray:none;stroke-dashoffset:0;stroke-opacity:1;marker:none;marker-start:none;marker-mid:none;marker-end:none;filter:url(#filter6418);enable-background:accumulate"
       id="path6384"
       inkscape:connector-curvature="0" />
    <path
       d="m 571.42856,510.93362 c 0,44.97176 -67.15729,81.42857 -150,81.42857 -82.84271,0 -150,-36.45681 -150,-81.42857 0,-44.97176 67.15729,-81.42857 150,-81.42857 82.84271,0 150,36.45681 150,81.42857 z"
       transform="matrix(0.9469088,0,0,0.9209606,-31.839858,17.366084)"
       style="opacity:0.89444448;fill:none;fill-opacity:1;stroke:url(#linearGradient3216);stroke-width:18.11831665;stroke-linecap:round;stroke-linejoin:round;stroke-miterlimit:4;stroke-dasharray:none;stroke-opacity:1;filter:url(#filter3250)"
       id="path3208"
       inkscape:connector-curvature="0" />
    <path
       d="m 571.42856,510.93362 c 0,44.97176 -67.15729,81.42857 -150,81.42857 -82.84271,0 -150,-36.45681 -150,-81.42857 0,-44.97176 67.15729,-81.42857 150,-81.42857 82.84271,0 150,36.45681 150,81.42857 z"
       transform="matrix(1.6425455,0,0,1.4778356,-319.00111,-247.16007)"
       style="opacity:0.89444448;fill:none;fill-opacity:1;stroke:url(#linearGradient3264);stroke-width:18.11831665;stroke-linecap:round;stroke-linejoin:round;stroke-miterlimit:4;stroke-dasharray:none;stroke-opacity:1;filter:url(#filter3250)"
       id="path3254"
       inkscape:connector-curvature="0" />
    <path
       d="m 305.38409,650.10671 c 0,0 136.04419,15.77148 185.46067,1.15534 49.41648,-14.61614 130.16506,-63.74134 130.16506,-63.74134 l -16.72999,-29.84146 c 0,0 11.95804,37.77972 -5.07497,56.32613 -17.03301,18.54641 3.10643,42.37116 -108.23516,56.32614 -59.39314,7.44403 -49.86933,13.73808 -185.58561,-20.22481 z"
       transform="matrix(0.8635973,0,-0.6141669,1.0132518,437.31567,-26.360294)"
       style="fill:#fff6d5;fill-rule:evenodd;stroke:url(#linearGradient3296);stroke-width:12;stroke-linecap:round;stroke-linejoin:round;stroke-miterlimit:4;stroke-dasharray:none;stroke-opacity:1;filter:url(#filter3310)"
       id="path3284"
       inkscape:connector-curvature="0" />
    <path
       d="m 308,537.36218 -53,-39 49,-49 125,-1 52,26 c 0,0 8.83091,-1.85994 18,22 -14.87144,5.72137 -59,34 -59,34 l -24,-24 -56,-2 c 0,0 -47,-16 -52,33 z"
       style="fill:url(#linearGradient3322);fill-opacity:1;fill-rule:evenodd;stroke:none;stroke-width:1px;stroke-linecap:butt;stroke-linejoin:miter;stroke-opacity:1;filter:url(#filter3344)"
       id="path3314"
       inkscape:connector-curvature="0" />
    <path
       d="m 315,435.36218 c 24,18 41.01454,72.4853 23.42384,100.49766 -14.95463,23.81456 23.76296,-15.26373 72.78023,0.0942 30.96563,9.70205 17.66798,10.86821 38.66798,1.36821 21,-9.5 35.12795,-52.96007 58.12795,-64.96007 23,-12 47.75,22.5 29,10 -18.75,-12.5 -54,-42.5 -104,-60 -50,-17.5 -55,-12.5 -96,-10 -41,2.5 -62.5,14.25 -68,20 -5.5,5.75 22,-15 46,3 z"
       style="fill:url(#linearGradient4343);fill-opacity:1;fill-rule:evenodd;stroke:none;stroke-width:1px;stroke-linecap:butt;stroke-linejoin:miter;stroke-opacity:1;filter:url(#filter4369)"
       id="path4319"
       sodipodi:nodetypes="cssssssssc"
       inkscape:connector-curvature="0" />
    <path
       d="m 144.7694,453.79639 c 0,0 -15.17853,-26.23701 -9.74409,38.97638 1.39201,16.70416 -13.59328,-3.46341 -1e-5,32.0163 9.11077,23.77995 23.66424,43.15243 23.66424,43.15243 l 103.00899,36.19234 167.04162,26.44826 -178.17773,2.78403 -91.87288,-20.8802 -24.2077,56.91693 -0.84855,14.07575 -54.85422,-86.06645 1.957711,-86.54322 30.624299,-52.89651 z"
       style="opacity:0.7;fill:url(#linearGradient6324);fill-opacity:1;fill-rule:evenodd;stroke:none;stroke-width:1px;stroke-linecap:butt;stroke-linejoin:miter;stroke-opacity:1;filter:url(#filter6376)"
       id="path6316"
       inkscape:connector-curvature="0" />
    <path
       d="m 125.42384,658.9587 c -5,7.25 76.32616,76.90348 144.57616,93.40348 68.25,16.5 75.5,21.75 155,10 79.5,-11.75 107.75,-27.5 163,-57 55.25,-29.5 72.09302,-90.46627 67.84302,-94.46627 -4.25,-4 -22.75,36.81162 -75,68.62325 -47.78686,29.09431 -82.61818,48.29334 -151.71744,63.54476 C 354.93838,759.43833 307.90262,741.92487 198.4599,690.88021 135.317,661.43003 130.42384,651.7087 125.42384,658.9587 Z"
       style="color:#000000;display:inline;overflow:visible;visibility:visible;opacity:0.7;fill:url(#linearGradient6382);fill-opacity:1;fill-rule:evenodd;stroke:none;stroke-width:1px;stroke-linecap:butt;stroke-linejoin:miter;stroke-miterlimit:4;stroke-dasharray:none;stroke-dashoffset:0;stroke-opacity:1;marker:none;marker-start:none;marker-mid:none;marker-end:none;filter:url(#filter6376);enable-background:accumulate"
       id="path6380"
       inkscape:connector-curvature="0" />
    <path
       d="m 340.34729,434.3082 c -19.61409,-11.12744 -97.04484,1.92269 -114.23953,23.32273 -17.19469,21.40004 -10.34567,51.14999 10.53453,62.2861 41.76041,22.27221 -22.96822,-4.17604 -22.96822,-4.17604 0,0 153.48867,16.1956 152.45426,-0.15383 -1.03441,-16.34944 16.70824,-57.174 -25.78104,-81.27896 z"
       style="fill:url(#linearGradient6562);fill-opacity:1;fill-rule:evenodd;stroke:none;stroke-width:1px;stroke-linecap:butt;stroke-linejoin:miter;stroke-opacity:1;filter:url(#filter6588)"
       id="path6538"
       inkscape:connector-curvature="0" />
    <path
       d="m 190.00984,573.50954 c -19.61409,-11.12744 -55.28444,-23.13355 -72.47913,-1.73351 -17.19469,21.40004 -10.34567,51.14999 10.53453,62.2861 41.76041,22.27221 96.74494,43.15242 96.74494,43.15242 0,0 287.12196,-28.34883 183.07855,-39.13021 -16.29487,-1.68854 -175.38961,-40.46984 -217.87889,-64.5748 z"
       style="fill:url(#linearGradient6594);fill-opacity:1;fill-rule:evenodd;stroke:none;stroke-width:1px;stroke-linecap:butt;stroke-linejoin:miter;stroke-opacity:1;filter:url(#filter6588)"
       id="path6592"
       inkscape:connector-curvature="0" />
    <path
       d="m 225.4052,424.3774 72.83836,-38.38778 118.11626,-6.89012 75.79126,19.68605 44.2936,27.56046 -74.80696,-20.67035 -100.39883,-14.76453 -103.35172,22.63895 -14.76454,24.60755 z"
       style="color:#000000;display:inline;overflow:visible;visibility:visible;opacity:1;fill:url(#linearGradient6598);fill-opacity:1;fill-rule:evenodd;stroke:none;stroke-width:1px;stroke-linecap:butt;stroke-linejoin:miter;stroke-miterlimit:4;stroke-dasharray:none;stroke-dashoffset:0;stroke-opacity:1;marker:none;marker-start:none;marker-mid:none;marker-end:none;filter:url(#filter4369);enable-background:accumulate"
       id="path6596"
       inkscape:connector-curvature="0" />
    <path
       d="m 231.77024,640.32618 c -19.61409,-11.12744 -59.46048,-14.78146 -114.23953,-68.55015 37.09384,65.94447 56.47098,60.89408 77.35118,72.03019 20.8802,11.1361 15.48615,-20.1842 52.2005,-23.66423 36.71436,-3.48003 115.53712,20.88021 115.53712,20.88021 0,0 16.29211,-13.16891 30.75251,-17.43059 14.4604,-4.26168 27.08909,0.38388 42.03449,-8.5316 29.89079,-17.83097 66.26434,-101.04223 -16.38166,-75.80863 -7.83406,2.39191 -78.77747,75.08685 -129.74085,78.43175 -73.56996,4.82865 -36.26912,34.69553 -57.51376,22.64305 z"
       transform="rotate(180,319.30941,514.87015)"
       style="fill:url(#linearGradient6602);fill-opacity:1;fill-rule:evenodd;stroke:none;stroke-width:1px;stroke-linecap:butt;stroke-linejoin:miter;stroke-opacity:1;filter:url(#filter6588)"
       id="path6600"
       inkscape:connector-curvature="0" />
  </g>
</svg>
