<?xml version="1.0" encoding="UTF-8" standalone="no"?>
<!-- Created with Inkscape (http://www.inkscape.org/) -->

<svg
   xmlns:dc="http://purl.org/dc/elements/1.1/"
   xmlns:cc="http://creativecommons.org/ns#"
   xmlns:rdf="http://www.w3.org/1999/02/22-rdf-syntax-ns#"
   xmlns:svg="http://www.w3.org/2000/svg"
   xmlns="http://www.w3.org/2000/svg"
   xmlns:xlink="http://www.w3.org/1999/xlink"
   xmlns:sodipodi="http://sodipodi.sourceforge.net/DTD/sodipodi-0.dtd"
   xmlns:inkscape="http://www.inkscape.org/namespaces/inkscape"
   height="326.50089"
   id="svg13339"
   inkscape:export-filename="/home/Krug/Desktop/openClipImg/svg/png/fastfood3.png"
   inkscape:export-xdpi="72.000000"
   inkscape:export-ydpi="72.000000"
   inkscape:version="0.47 r22583"
   sodipodi:docname="hot_dog_rounded.svg"
   sodipodi:version="0.32"
   width="336.71286"
   version="1.1">
  <title
     id="title2862">Hot Dog (rounded)</title>
  <metadata
     id="metadata3">
    <rdf:RDF>
      <cc:Work
         rdf:about="">
        <dc:title>Hot Dog (rounded)</dc:title>
        <dc:description>Juliane's Hot Dog with rounded edges</dc:description>
        <dc:subject>
          <rdf:Bag>
            <rdf:li>protein</rdf:li>
            <rdf:li>food</rdf:li>
            <rdf:li>hot</rdf:li>
            <rdf:li>dog</rdf:li>
            <rdf:li>lunch</rdf:li>
            <rdf:li>meat</rdf:li>
            <rdf:li>bun</rdf:li>
            <rdf:li>mustard</rdf:li>
            <rdf:li>ketchup</rdf:li>
            <rdf:li>relish</rdf:li>
          </rdf:Bag>
        </dc:subject>
        <dc:publisher>
          <cc:Agent
             rdf:about="http://www.openclipart.org/">
            <dc:title>Open Clip Art Library</dc:title>
          </cc:Agent>
        </dc:publisher>
        <dc:creator>
          <cc:Agent>
            <dc:title>Juliane Krug / edited by Jordan Irwin</dc:title>
          </cc:Agent>
        </dc:creator>
        <dc:rights>
          <cc:Agent>
            <dc:title>Juliane Krug</dc:title>
          </cc:Agent>
        </dc:rights>
        <dc:date />
        <dc:format>image/svg+xml</dc:format>
        <dc:type
           rdf:resource="http://purl.org/dc/dcmitype/StillImage" />
        <cc:license
           rdf:resource="http://web.resource.org/cc/PublicDomain" />
        <dc:language>en</dc:language>
        <dc:source>http://www.clker.com/clipart-4092.html</dc:source>
      </cc:Work>
      <cc:License
         rdf:about="http://web.resource.org/cc/PublicDomain">
        <cc:permits
           rdf:resource="http://web.resource.org/cc/Reproduction" />
        <cc:permits
           rdf:resource="http://web.resource.org/cc/Distribution" />
        <cc:permits
           rdf:resource="http://web.resource.org/cc/DerivativeWorks" />
      </cc:License>
    </rdf:RDF>
  </metadata>
  <defs
     id="defs13341">
    <inkscape:perspective
       sodipodi:type="inkscape:persp3d"
       inkscape:vp_x="0 : 187.5 : 1"
       inkscape:vp_y="0 : 1000 : 0"
       inkscape:vp_z="375 : 187.5 : 1"
       inkscape:persp3d-origin="187.5 : 125 : 1"
       id="perspective56" />
    <linearGradient
       id="linearGradient15294">
      <stop
         id="stop15295"
         offset="0.0000000"
         style="stop-color:#ffffff;stop-opacity:0.0000000;" />
      <stop
         id="stop15296"
         offset="1.0000000"
         style="stop-color:#7d4129;stop-opacity:0.73725492;" />
    </linearGradient>
    <linearGradient
       id="linearGradient14656">
      <stop
         id="stop14657"
         offset="0.0000000"
         style="stop-color:#c96b00;stop-opacity:1.0000000;" />
      <stop
         id="stop14658"
         offset="1.0000000"
         style="stop-color:#400000;stop-opacity:1.0000000;" />
    </linearGradient>
    <linearGradient
       id="linearGradient14652">
      <stop
         id="stop14653"
         offset="0.0000000"
         style="stop-color:#ffdba2;stop-opacity:1.0000000;" />
      <stop
         id="stop14654"
         offset="1.0000000"
         style="stop-color:#803900;stop-opacity:1.0000000;" />
    </linearGradient>
    <linearGradient
       id="linearGradient14646">
      <stop
         id="stop14647"
         offset="0.0000000"
         style="stop-color:#ffdba2;stop-opacity:1.0000000;" />
      <stop
         id="stop14648"
         offset="1.0000000"
         style="stop-color:#803900;stop-opacity:1.0000000;" />
    </linearGradient>
    <linearGradient
       id="linearGradient14650"
       inkscape:collect="always"
       x1="259.04215"
       x2="314.10806"
       xlink:href="#linearGradient14646"
       y1="105.08131"
       y2="158.42641"
       gradientTransform="matrix(0.98279938,0,0,1.0175017,-14.914106,-21.509163)"
       gradientUnits="userSpaceOnUse" />
    <linearGradient
       id="linearGradient14651"
       inkscape:collect="always"
       x1="111.98976"
       x2="53.129655"
       xlink:href="#linearGradient14652"
       y1="130.52087"
       y2="67.614137"
       gradientTransform="matrix(0.94085881,0,0,1.0628587,-14.914106,-21.509163)"
       gradientUnits="userSpaceOnUse" />
    <linearGradient
       id="linearGradient14655"
       inkscape:collect="always"
       spreadMethod="reflect"
       x1="237.38012"
       x2="290.16127"
       xlink:href="#linearGradient14656"
       y1="81.336987"
       y2="134.86039"
       gradientTransform="matrix(0.9537766,0,0,1.0484635,-14.914106,-21.509163)"
       gradientUnits="userSpaceOnUse" />
    <linearGradient
       id="linearGradient15293"
       inkscape:collect="always"
       x1="138.35977"
       x2="158.90715"
       xlink:href="#linearGradient15294"
       y1="176.1275"
       y2="197.67014"
       gradientTransform="matrix(0.96899845,0,0,1.0319934,-14.914106,-21.509163)"
       gradientUnits="userSpaceOnUse" />
  </defs>
  <sodipodi:namedview
     bordercolor="#666666"
     borderopacity="1.0"
     id="base"
     inkscape:cx="86.086295"
     inkscape:cy="136.41391"
     inkscape:pageopacity="0.0"
     inkscape:pageshadow="2"
     inkscape:window-height="937"
     inkscape:window-width="1272"
     inkscape:window-x="0"
     inkscape:window-y="0"
     inkscape:zoom="1.4986725"
     pagecolor="#ffffff"
     showgrid="false"
     inkscape:window-maximized="0"
     inkscape:current-layer="svg13339" />
  <path
     d="m 209.46093,47.50364 c 0,0 1.64313,-8.001101 0.67294,-11.829694 -1.91302,-7.549245 -5.84728,-15.482217 -12.27528,-19.878992 -6.21415,-4.250504 -14.74083,-5.018898 -22.21242,-4.092735 -7.44174,0.922463 -14.32458,5.041803 -20.45878,9.354821 -10.0327,7.054097 -25.71963,26.310431 -25.71963,26.310431 L 103.1636,83.617407 69.260442,116.35927 38.864529,144.42373 c 0,0 -16.665766,14.23413 -23.381479,22.80239 -4.742161,6.0503 -8.7365702,12.78201 -11.6907412,19.87899 -1.471445,3.53494 -2.431513,7.31151 -2.92268498,11.10884 -0.950016,7.34472 -1.351713,14.93621 0,22.21771 0.99087298,5.3377 2.96132698,10.60209 5.84537098,15.20157 2.270435,3.62089 5.2058822,6.99333 8.7680552,9.35483 3.288451,2.18004 11.106202,4.09273 11.106202,4.09273 l 27.37898,-25.35847 33.726362,-43.76232 37.356156,-40.71654 55.6536,-57.264223 20.41044,-22.46256 8.34614,-12.013037 z"
     id="path14024"
     style="fill:url(#linearGradient14651);fill-opacity:1;fill-rule:evenodd;stroke:none"
     sodipodi:nodetypes="caaaaccccaaaaaaccccccc" />
  <path
     d="m 44.613801,180.80229 c 0,0 -6.213238,9.81591 -5.769889,15.22498 0.2739,3.34171 5.048653,8.69997 5.048653,8.69997 0,0 -9.516683,1.39192 -11.539778,5.075 -1.530142,2.78565 -0.968895,7.35458 1.442471,9.42497 1.824034,1.56611 7.212362,0 7.212362,0 l 9.376071,-6.52498 14.926793,-4.95189 L 83.327257,184.72716 110.18978,153.55223 130.4409,129.32739 165.78147,90.902467 186.78932,75.42915 204.007,53.343534 c 0,0 1.99322,-4.829586 2.1637,-7.390978 0.21107,-3.171225 1.20488,-7.666355 -1.44247,-9.424982 -3.30368,-2.194629 -8.3019,0.609398 -11.53978,2.899994 -3.55101,2.512112 -7.21236,10.874979 -7.21236,10.874979 0,0 -13.67593,-2.204628 -19.47338,0.724998 -4.13491,2.089494 -7.97742,6.291901 -8.65483,10.874977 -0.38031,2.57301 2.88494,7.249982 2.88494,7.249982 0,0 -12.06891,0.54888 -18.0309,1.450002 -4.38427,0.662659 -9.32888,0.387251 -12.98225,2.899995 -3.5839,2.464963 -6.334,6.614826 -7.21236,10.874976 -0.54552,2.64581 1.44247,7.97498 1.44247,7.97498 0,0 -7.12211,3.14857 -10.81854,4.35 -3.77196,1.22598 -8.33585,0.56213 -11.53978,2.89998 -5.517076,4.025703 -9.136096,10.780783 -10.818546,17.399983 -1.01379,3.98853 2.03063,8.42348 0.72123,12.32497 -1.4147,4.21526 -4.537,8.4727 -8.654831,10.14999 -2.459355,1.00176 -7.933591,-0.725 -7.933591,-0.725 l -15.867197,-2.17501 c 0,0 -3.931682,7.03766 -5.048653,10.87498 -1.021993,3.51103 -1.824832,7.23829 -1.442473,10.87499 0.375434,3.57084 3.606181,10.14997 3.606181,10.14997 l -7.933597,5.075 c 0,0 -6.073723,-2.62047 -7.933599,-0.725 -1.532583,1.56192 -0.601819,4.78202 0.721236,6.52498 0.783342,1.03196 3.606181,1.45 3.606181,1.45 z"
     id="path15304"
     style="fill:#009c00;fill-opacity:1;fill-rule:evenodd;stroke:none"
     sodipodi:nodetypes="cacaacccccccccaaacaacaaacaaaaaccaaccaac" />
  <path
     d="m 275.01747,0.00869438 c -4.13316,0.03626 -8.31939,0.556008 -12.27528,1.75402802 -4.75458,1.439898 -9.20967,3.83398 -13.44435,6.43144 -6.27912,3.8514766 -12.12257,8.4520576 -17.5361,13.4475536 -11.96495,11.041018 -32.73408,36.249928 -32.73408,36.249928 L 148.17295,106.41977 82.120267,181.25835 22.497493,256.0969 c 0,0 -12.9120602,18.88108 -14.6134252,29.81849 -0.817639,5.25628 0.267191,10.88645 2.3381482,15.78626 1.62364,3.84147 4.778256,6.86759 7.598981,9.9395 1.959322,2.1338 4.146756,4.06372 6.429907,5.84677 2.768629,2.16219 5.462368,4.65814 8.768055,5.84675 7.188304,2.58467 15.4018,4.2529 22.796942,2.33871 7.588072,-1.96413 13.729947,-7.92255 19.289714,-13.44755 l 45.649545,-53.12893 26.52888,-23.72978 21.05777,-32.07655 91.36046,-99.22561 27.14593,-30.153168 8.52888,-10.693529 0.43124,-10.507776 c 0,0 7.95691,-9.475604 9.26987,-15.289122 1.0352,-4.583615 0.18798,-9.609735 -1.41861,-14.02562 -2.01432,-5.536575 -5.95268,-10.276932 -9.93712,-14.6169066 -2.71681,-2.959232 -5.65783,-6.023807 -9.35259,-7.600792 -2.88961,-1.23333402 -6.21091,-1.19691502 -9.3526,-1.16935202 z"
     id="path14022"
     style="fill:url(#linearGradient14655);fill-opacity:1;fill-rule:evenodd;stroke:none"
     sodipodi:nodetypes="caaaccccaaaaaaccccccccaaaaa" />
  <path
     d="m 50.765702,259.0086 c 0.670949,2.19492 0.18385,6.88307 0.18385,6.88307 l -10.495083,-18.67015 -4.16545,-12.34957 14.213199,-17.3895 36.123736,3.87904 c 0,0 -9.795424,-0.32485 -14.501268,0.8125 -4.700743,1.13612 -9.020704,3.56136 -13.257301,5.89353 -2.326532,1.28071 -4.575045,2.7362 -6.62865,4.42015 -1.611055,1.32106 -3.164649,2.75672 -4.4191,4.42016 -1.522183,2.01847 -3.292735,4.13237 -3.682583,6.63022 -0.386172,2.4743 0.539541,5.04317 1.473034,7.36693 1.193419,2.9708 4.219708,5.04193 5.155616,8.10362 z"
     id="path14666"
     style="fill:#000000;fill-opacity:0.521875;fill-rule:evenodd;stroke:none"
     sodipodi:nodetypes="ccccccaaaaaaa" />
  <path
     d="m 187.02127,133.03424 c -1.67246,2.05173 -6.24143,4.90969 -6.24143,4.90969 l -0.95463,-38.409223 1.5,-9.9653 4.48159,-7.70604 9.55267,-2.64757 10.81123,2.25 26.39443,-20.311177 c 0,0 -0.38474,4.862171 -1.35286,7.050717 -1.48999,3.368306 -3.97561,6.285524 -6.62865,8.840308 -2.79634,2.692772 -6.03854,5.028342 -9.57471,6.630222 -2.76619,1.25308 -5.80695,2.02699 -8.83821,2.21007 -3.95147,0.23866 -7.85803,-1.97911 -11.78426,-1.47338 -1.3113,0.1689 -2.73032,0.55621 -3.68259,1.47338 -1.74189,1.67769 -2.55181,4.24416 -2.94606,6.63024 -0.44216,2.67605 0.30214,5.42627 0.73651,8.103603 0.68679,4.23319 2.45176,8.26382 2.94607,12.52378 0.42456,3.65891 0.84611,7.46541 0,11.05037 -0.75675,3.20634 -2.33759,6.28676 -4.4191,8.84031 z"
     id="path14668"
     style="fill:#000000;fill-opacity:0.490625;fill-rule:evenodd;stroke:none"
     sodipodi:nodetypes="ccccccccaaaaaaaaaaa" />
  <path
     d="m 229.72575,46.653763 c -0.23085,-1.710913 -1.67959,-2.187927 -1.45955,-4.969344 0.16657,-2.105511 3.17894,-2.939373 5.15562,-3.683461 2.30912,-0.86923 4.90437,-0.915836 7.36516,-0.736692 3.02876,0.220492 5.82418,1.838948 8.8382,2.210076 4.14231,0.51006 8.89042,2.058964 12.52079,0 2.48884,-1.411544 3.65354,-4.606275 4.40561,-7.366921 0.77923,-2.860345 -0.0625,-8.893537 -0.0625,-8.893537 -13.51945,3.096635 -27.40101,2.439198 -39.69591,12.576998 l -4.45099,5.081037 c 0,0 3.63225,10.3949 7.32513,9.132974 1.0572,-0.361262 0.20783,-2.24395 0.0584,-3.35113 z"
     id="path14669"
     style="fill:#000000;fill-opacity:0.490625;fill-rule:evenodd;stroke:none"
     sodipodi:nodetypes="csaaaaacccaa" />
  <path
     d="m 89.801084,222.17399 c 2.93857,0.3231 5.9645,-0.0428 8.8382,-0.7367 4.387616,-1.05944 9.013226,-2.31593 12.520776,-5.15684 4.39277,-3.55789 7.20245,-8.86612 9.57471,-13.99715 2.34991,-5.08269 3.87428,-10.63416 4.4191,-16.20722 0.33535,-3.4303 0.61992,-7.14518 -0.73652,-10.31369 -1.43654,-3.35562 -5.47848,-4.97884 -7.36516,-8.10362 -1.48559,-2.46047 -3.56851,-5.29765 -2.94607,-8.10362 0.60159,-2.71199 3.60244,-4.32062 5.89214,-5.89353 1.99308,-1.36915 4.40574,-1.99511 6.62864,-2.94676 4.14946,-1.77642 8.09291,-4.28071 12.52079,-5.15685 4.81672,-0.95308 9.82446,0.20411 14.73033,0 2.95373,-0.12289 5.90745,-0.34899 8.8382,-0.7367 2.72115,-0.35999 5.65258,-0.23399 8.10169,-1.47338 2.09961,-1.06252 5.13118,-4.84838 5.13118,-4.84838 l -40.30996,1.97338 -14.61883,7.15684 -10.40069,4.96935 -0.19607,6.95603 -1.04537,6.41612 11.3566,11.2645 0.73652,7.36691 -7.3566,10.88547 -6.25365,11.39877 -24.748726,13.20199 c 0,0 4.36735,1.82984 6.68877,2.08508 z"
     id="path14667"
     style="fill:#000000;fill-opacity:0.490625;fill-rule:evenodd;stroke:none"
     sodipodi:nodetypes="caaaaaaaaaaaaaccccccccccca" />
  <path
     d="m 106.08628,268.37511 c 0.90638,3.46082 2.85493,6.7071 5.26084,9.35482 3.67158,4.0406 8.3876,7.29657 13.44434,9.35481 4.39103,1.78727 9.28814,2.36612 14.02889,2.33871 5.54193,-0.032 10.96174,-1.69995 16.36704,-2.92338 7.88387,-1.78443 15.84564,-3.50726 23.38148,-6.43144 9.99286,-3.87759 19.42683,-9.14264 28.64232,-14.61691 11.57057,-6.87326 22.92416,-14.25396 33.3186,-22.80237 11.60084,-9.54056 22.09396,-20.41512 32.14953,-31.57251 9.84114,-10.91947 19.13915,-22.38699 27.47323,-34.49591 7.82595,-11.37064 14.93698,-23.28586 21.04335,-35.66525 5.29912,-10.74287 11.04198,-21.5912 13.44435,-33.32655 1.91562,-9.357643 3.22819,-19.470583 0.58453,-28.649143 -2.25893,-7.842811 -7.19809,-15.210409 -13.44435,-20.463665 -4.87571,-4.100594 -11.33873,-6.124315 -17.53611,-7.600792 -3.22777,-0.76899 -6.75792,-1.534657 -9.93713,-0.584677 -9.07395,2.71139 -22.79695,16.955616 -22.79695,16.955616 l -28.6423,30.403168 -42.08666,43.266043 -22.79695,24.5564 -39.16398,41.51202 c 0,0 -11.90111,13.58864 -16.95158,21.04834 -6.01702,8.88732 -11.91973,18.13176 -15.78249,28.06446 -1.0369,3.95921 -1.0369,8.319 0,12.27821 z"
     id="path14023"
     style="fill:url(#linearGradient14650);fill-opacity:1;fill-rule:evenodd;stroke:none"
     sodipodi:nodetypes="caaaaaaaaaaaaaaacccccaca" />
  <path
     d="m 18.302908,312.17211 c -0.102082,-7.24794 0.61364,-14.49587 1.041593,-21.74381 1.536868,5.54003 3.328785,11.05171 4.166368,16.66944 4.728749,-6.72526 10.377834,-11.8728 15.623876,-17.71127 -3.772418,7.65886 -6.946487,15.55706 -11.45751,22.92048 4.223214,-0.73902 8.356122,-0.30405 12.4991,0 -3.585263,1.11722 -7.230632,2.09018 -10.415916,4.16735 l 8.332734,1.04184 c -4.732165,0.81588 -9.241115,0.18087 -13.819934,0 -2.065426,-1.61815 -4.080884,-3.34455 -5.970311,-5.34403 z"
     id="path14661"
     style="fill:#ffffff;fill-opacity:0.534375;fill-rule:evenodd;stroke:none"
     sodipodi:nodetypes="cccccccccc" />
  <path
     d="m 44.137052,206.70345 0,8.10362 8.101683,-3.68346 -8.101683,-4.42016 z"
     id="path15926"
     style="fill:#ffffff;fill-opacity:0.44999994;fill-rule:evenodd;stroke:none" />
  <path
     d="m 24.552454,262.29864 c 5.639655,7.61695 16.322122,13.01519 25.292905,7.96899 5.719847,-9.18954 -7.353389,-17.07021 -8.532287,-26.03028 -2.739164,-11.81436 11.8229,-19.91917 21.675258,-22.7149 9.284852,-2.00054 18.823212,0.91984 28.238624,0.21192 9.397896,-0.61465 17.740296,-8.85434 22.486826,-16.78012 3.80684,-7.42861 8.64834,-15.44745 8.28332,-23.97907 0.55044,-9.75448 -11.65141,-12.59089 -11.36264,-22.13537 -0.94562,-8.12924 11.94303,-8.15712 16.93233,-12.99569 7.98842,-2.76527 16.80431,-3.69505 25.28479,-4.17224 9.24226,0.24015 19.86337,3.00195 28.26499,-1.20732 6.39418,-7.80001 12.01507,-21.06431 5.9476,-30.54833 -3.66646,-7.5908 -6.56414,-22.898653 1.85697,-27.360523 9.17421,-3.66135 20.1534,3.25975 28.62841,-3.4599 8.6183,-4.571133 18.23307,-14.68296 15.23574,-25.19981 -1.93995,-7.916947 -14.22547,-17.714795 -0.0665,-19.683235 8.21584,-0.08785 16.77353,2.558378 24.82536,1.232828 9.93799,-0.515869 12.34951,-14.741551 4.03611,-19.598576 -10.08471,-8.8848246 -7.25158,10.891587 -16.98688,8.159531 -7.86385,2.528944 -16.75003,1.716274 -24.17623,5.258747 -13.76021,5.296589 -7.18707,18.527517 -2.82465,27.701387 -4.99563,8.967495 -18.10718,7.379085 -26.3664,12.68528 -9.6104,3.201871 -22.29211,8.831277 -21.48355,20.952438 -1.7143,11.247513 3.31739,23.052393 0.55237,33.886223 -3.50336,7.88709 -13.83324,4.35215 -20.77415,6.82423 -10.26075,1.53143 -20.41552,3.90247 -29.45305,9.1543 -9.49795,4.5467 -16.19032,13.26652 -22.860936,21.13245 -7.35109,9.94632 9.966886,20.11029 4.895006,28.97565 -10.104156,9.09384 -24.817445,8.14589 -36.766982,13.62251 -12.897687,4.11388 -23.513939,12.80425 -33.491239,21.63446 -4.445138,10.61048 -9.984922,21.8136 -7.527897,33.6227 0.03946,0.4736 0.197293,2.3681 0.236752,2.84172 l 0,0 z"
     id="path14662"
     style="fill:#d4c800;fill-opacity:1;fill-rule:evenodd;stroke:none" />
  <path
     d="m 24.427697,263.49952 c 5.639656,7.61695 16.322122,13.0152 25.292905,7.96901 5.719849,-9.18956 -7.353389,-17.07021 -8.532287,-26.03029 -2.739164,-11.81436 11.822901,-19.91918 21.675258,-22.7149 9.28484,-2.00055 18.8232,0.91985 28.238621,0.21193 9.397896,-0.61467 17.740296,-8.85435 22.486826,-16.78013 3.80685,-7.42861 8.64833,-15.44746 8.28332,-23.97907 0.55043,-9.75449 -11.6514,-12.59089 -11.36263,-22.13537 -0.94563,-8.12923 11.94302,-8.15711 16.93231,-12.99568 7.98843,-2.76527 16.80432,-3.69506 25.2848,-4.17225 9.24226,0.24015 19.86337,3.00196 28.26498,-1.20733 6.3942,-7.8 12.01508,-21.0643 5.94761,-30.54831 -3.66646,-7.59082 -6.56414,-22.898673 1.85697,-27.360533 9.17421,-3.66134 20.1534,3.25975 28.62841,-3.45991 8.6183,-4.571119 18.23307,-14.682957 15.23574,-25.199802 -1.93995,-7.916947 -14.22547,-17.714796 -0.0665,-19.683235 8.21583,-0.08785 16.77352,2.558378 24.82535,1.232829 9.938,-0.51587 12.3495,-14.741552 4.0361,-19.598576 -10.0847,-8.8848246 -7.25157,10.891585 -16.98687,8.159531 -7.86385,2.528944 -16.75002,1.716273 -24.17623,5.258746 -13.76021,5.29659 -7.18707,18.527518 -2.82465,27.701387 -4.99564,8.967501 -18.10717,7.37909 -26.3664,12.685286 -9.6104,3.20186 -22.29211,8.831274 -21.48356,20.952434 -1.7143,11.247513 3.3174,23.052403 0.55238,33.886223 -3.50336,7.88709 -13.83324,4.35215 -20.77414,6.82423 -10.26076,1.53144 -20.41552,3.90246 -29.45306,9.1543 -9.49795,4.5467 -16.19032,13.26651 -22.860936,21.13244 -7.35109,9.94634 9.966896,20.11031 4.895006,28.97566 -10.104146,9.09385 -24.817443,8.14589 -36.76698,13.62251 -12.897686,4.11388 -23.513936,12.80425 -33.491238,21.63445 -4.445138,10.61049 -9.984922,21.81362 -7.527897,33.62271 0.03946,0.47359 0.197293,2.3681 0.236752,2.84171 l 0,0 z"
     id="path15292"
     style="fill:url(#linearGradient15293);fill-opacity:1;fill-rule:evenodd;stroke:none" />
  <path
     d="m 29.40672,247.95821 -2.20955,8.8403 2.946067,8.10362 7.365166,1.47338 2.946066,-3.68346 -5.892133,-5.89354 -5.155616,-8.8403 z"
     id="path15297"
     style="fill:#ffffff;fill-opacity:0.446875;fill-rule:evenodd;stroke:none" />
  <path
     d="m 101.58534,156.60839 -4.419086,5.15685 1.47303,9.57699 4.419096,10.31369 0,8.84031 -2.94607,3.68345 6.62865,-8.1036 2.20955,-11.78708 -2.94607,-8.10361 -3.68258,-5.15685 -0.73652,-4.42015 z"
     id="path15300"
     style="fill:#ffffff;fill-opacity:0.43125;fill-rule:evenodd;stroke:none" />
  <path
     d="m 170.08138,89.569407 -0.7365,18.908433 0.7365,15.30683 -4.4191,5.4024 -5.15561,0 8.10168,0.9004 7.36517,-3.60161 2.20955,-11.70521 -0.73651,-8.10361 -2.94607,-11.705233 -4.41911,-5.4024 z"
     id="path15301"
     style="fill:#ffffff;fill-opacity:0.43125;fill-rule:evenodd;stroke:none" />
  <path
     d="m 213.53587,40.211035 0.73652,8.840305 1.47303,5.893537 -1.47303,6.630226 -5.15563,2.210074 -2.94606,0.736692 8.83821,0.736702 6.62864,-2.946777 2.20955,-8.840301 -3.68258,-8.103614 -2.20955,-5.156844 -1.47303,-7.366921 -2.94607,7.366921 z"
     id="path15302"
     style="fill:#ffffff;fill-opacity:0.43125;fill-rule:evenodd;stroke:none" />
  <path
     d="m 47.083119,183.86599 10.311233,9.577 0.736516,8.10362 0.736517,-13.99715 -5.155616,-13.99715 -8.838201,1.47339 -2.209549,1.47338 4.4191,7.36691 z"
     id="path15927"
     style="fill:#ffffff;fill-opacity:0.53125;fill-rule:evenodd;stroke:none" />
  <path
     d="m 64.759514,157.34508 11.047753,2.94677 2.946071,-8.10361 -5.892142,-9.577 -9.574712,-2.94677 -3.682583,8.8403 5.155613,8.84031 z"
     id="path15928"
     style="fill:#000000;fill-opacity:0.27812494;fill-rule:evenodd;stroke:none" />
  <path
     d="m 80.962878,158.08177 -10.311233,8.84031 -8.838194,-5.89354 -0.736517,-5.15684 19.885944,2.21007 z"
     id="path15929"
     style="fill:#ffffff;fill-opacity:0.446875;fill-rule:evenodd;stroke:none" />
  <path
     d="m 96.429734,155.13501 -4.4191,-8.84031 16.939876,-11.05039 2.20955,7.36693 -14.730326,12.52377 z"
     id="path15930"
     style="fill:#ffffff;fill-opacity:0.575;fill-rule:evenodd;stroke:none" />
  <path
     d="m 102.32186,107.25002 -8.838196,10.31369 11.784266,4.42015 10.31123,-16.20722 -13.2573,1.47338 z"
     id="path15931"
     style="fill:#000000;fill-opacity:0.5375;fill-rule:evenodd;stroke:none" />
  <path
     d="m 136.93814,101.35649 2.20955,13.26045 11.78427,-11.78707 -7.36517,-12.523773 -6.62865,11.050393 z"
     id="path15932"
     style="fill:#000000;fill-opacity:0.553125;fill-rule:evenodd;stroke:none" />
  <path
     d="m 157.5606,73.362177 -0.73651,8.10362 13.99382,-3.683461 -5.15563,-8.103617 -8.10168,3.683458 z"
     id="path15933"
     style="fill:#000000;fill-opacity:0.4625;fill-rule:evenodd;stroke:none" />
  <path
     d="m 164.92577,57.154953 9.57472,8.103618 5.15562,-3.683468 0,-5.893534 -14.73034,1.473384 z"
     id="path15934"
     style="fill:#ffffff;fill-opacity:0.609375;fill-rule:evenodd;stroke:none" />
  <path
     d="m 195.12295,42.421111 2.94607,6.630229 5.89213,-1.473384 0,-8.840305 -8.8382,3.68346 z"
     id="path15935"
     style="fill:#000000;fill-opacity:0.290625;fill-rule:evenodd;stroke:none" />
  <path
     d="m 53.711769,172.07892 10.311235,17.68062 8.101682,-5.89355 -5.155621,-7.36691 -2.946061,4.42015 -10.311235,-8.84031 z"
     id="path15936"
     style="fill:#000000;fill-opacity:0.27812494;fill-rule:evenodd;stroke:none" />
  <path
     d="m 42.664019,208.17683 -2.20955,5.15685 -2.946066,5.89353 -0.736516,-10.31369 5.892132,-0.73669 z"
     id="path16558"
     style="fill:#000000;fill-opacity:0.33125;fill-rule:evenodd;stroke:none" />
  <path
     d="m 77.280297,158.81846 9.574727,11.78708 5.89213,-13.99715 -7.36518,5.89354 -8.101677,-3.68347 z"
     id="path17180"
     style="fill:#000000;fill-opacity:0.33125;fill-rule:evenodd;stroke:none" />
  <path
     d="m 110.42354,115.35363 13.2573,5.89354 5.15562,5.89354 -2.20956,-10.31369 5.89214,-18.417313 -10.31124,16.207233 -11.78426,0.73669 z"
     id="path17181"
     style="fill:#ffffff;fill-opacity:0.5625;fill-rule:evenodd;stroke:none" />
  <path
     d="m 107.47748,135.98101 0.73651,6.63023 -11.047736,10.31369 0.73651,4.42015 17.676396,-16.20722 -4.4191,-3.68346 -3.68258,-1.47339 z"
     id="path17182"
     style="fill:#000000;fill-opacity:0.33125;fill-rule:evenodd;stroke:none" />
  <path
     d="m 125.15387,105.77664 19.14944,-1.47339 -14.73033,-20.627383 4.4191,9.577 -8.83821,12.523773 z"
     id="path17183"
     style="fill:#000000;fill-opacity:0.33125;fill-rule:evenodd;stroke:none" />
  <path
     d="m 156.08757,74.098868 -13.2573,0.736692 0,11.787077 5.89214,-1.47339 1.47303,-7.366911 5.89213,-3.683468 z"
     id="path17184"
     style="fill:#ffffff;fill-opacity:0.59375;fill-rule:evenodd;stroke:none" />
  <path
     d="m 170.81791,59.36503 6.62865,12.523764 12.52078,-11.050383 -8.10168,-5.893534 -2.94607,7.366917 -8.10168,-2.946764 z"
     id="path17186"
     style="fill:#000000;fill-opacity:0.484375;fill-rule:evenodd;stroke:none" />
</svg>
