<?xml version="1.0" encoding="UTF-8" standalone="no"?>
<!-- Generator: Adobe Illustrator 10.0, SVG Export Plug-In . SVG Version: 3.0.0 Build 77)  -->

<svg
   xmlns:i="http://ns.adobe.com/AdobeIllustrator/10.0/"
   xmlns:dc="http://purl.org/dc/elements/1.1/"
   xmlns:cc="http://creativecommons.org/ns#"
   xmlns:rdf="http://www.w3.org/1999/02/22-rdf-syntax-ns#"
   xmlns:svg="http://www.w3.org/2000/svg"
   xmlns="http://www.w3.org/2000/svg"
   xmlns:sodipodi="http://sodipodi.sourceforge.net/DTD/sodipodi-0.dtd"
   xmlns:inkscape="http://www.inkscape.org/namespaces/inkscape"
   enable-background="new 0 0 134.049 231.038"
   height="128"
   i:pageBounds="0 792 612 0"
   i:rulerOrigin="0 0"
   i:viewOrigin="238 511"
   overflow="visible"
   space="preserve"
   viewBox="0 0 74.188715 128"
   width="74.188713"
   version="1.1"
   id="svg73"
   sodipodi:docname="ice_cream.svg"
   inkscape:version="0.92.2 (5c3e80d, 2017-08-06)"
   style="overflow:visible">
  <defs
     id="defs77" />
  <sodipodi:namedview
     pagecolor="#ffffff"
     bordercolor="#666666"
     borderopacity="1"
     objecttolerance="10"
     gridtolerance="10"
     guidetolerance="10"
     inkscape:pageopacity="0"
     inkscape:pageshadow="2"
     inkscape:window-width="1920"
     inkscape:window-height="1025"
     id="namedview75"
     showgrid="false"
     inkscape:zoom="1.021477"
     inkscape:cx="-93.102954"
     inkscape:cy="63.98548"
     inkscape:window-x="-8"
     inkscape:window-y="-8"
     inkscape:window-maximized="1"
     inkscape:current-layer="svg73"
     fit-margin-top="0"
     fit-margin-left="0"
     fit-margin-right="0"
     fit-margin-bottom="0" />
  <metadata
     id="metadata2">
    <rdf:RDF>
      <cc:Work
         rdf:about="">
        <dc:title></dc:title>
        <dc:description>Ice Cream Cone (2 scoop)</dc:description>
        <dc:subject>
          <rdf:Bag>
            <rdf:li>dessert</rdf:li>
            <rdf:li>food</rdf:li>
            <rdf:li>icecream</rdf:li>
            <rdf:li>festive</rdf:li>
            <rdf:li>menu</rdf:li>
          </rdf:Bag>
        </dc:subject>
        <dc:publisher>
          <cc:Agent
             rdf:about="http://www.openclipart.org/">
            <dc:title>Open Clip Art Project</dc:title>
          </cc:Agent>
        </dc:publisher>
        <dc:creator>
          <cc:Agent
             rdf:about="http://web.resource.org/cc/PublicDomain">
            <dc:title>Gerald G.</dc:title>
          </cc:Agent>
        </dc:creator>
        <dc:rights>
          <cc:Agent
             rdf:about="http://web.resource.org/cc/PublicDomain">
            <dc:title>Public Domain</dc:title>
          </cc:Agent>
        </dc:rights>
        <dc:date>2005/05/31</dc:date>
        <dc:format>image/svg+xml</dc:format>
        <dc:type
           rdf:resource="http://purl.org/dc/dcmitype/StillImage" />
        <cc:license
           rdf:resource="http://creativecommons.org/publicdomain/zero/1.0/" />
        <dc:language>en</dc:language>
      </cc:Work>
      <cc:License
         rdf:about="http://creativecommons.org/publicdomain/zero/1.0/">
        <cc:permits
           rdf:resource="http://creativecommons.org/ns#Reproduction" />
        <cc:permits
           rdf:resource="http://creativecommons.org/ns#Distribution" />
        <cc:permits
           rdf:resource="http://creativecommons.org/ns#DerivativeWorks" />
      </cc:License>
    </rdf:RDF>
  </metadata>
  <g
     i:dimmedPercent="50"
     i:layer="yes"
     i:rgbTrio="#4F008000FFFF"
     id="Layer_1"
     transform="matrix(0.55338701,0,0,0.55338701,0.00735984,0.08132283)">
    <g
       id="g70">
      <path
         d="m 15.749,100.269 c -0.972,1.908 -1.368,3.78 -0.792,5.616 0.396,1.836 1.764,3.636 3.708,5.4 l 2.7,29.088 c -0.936,0.972 -1.44,2.052 -1.656,2.844 -0.216,0.792 -0.504,1.044 0.504,2.16 0.936,0.972 3.492,3.132 5.292,4.104 1.692,0.9 3.312,1.404 5.004,1.513 1.908,1.332 3.168,3.779 4.212,7.344 0.9,3.528 0.648,6.804 1.476,13.716 0.684,6.804 2.052,20.448 3.132,27.324 1.044,6.804 2.124,11.16 3.24,13.355 -0.792,2.952 -0.864,5.616 -0.072,7.992 0.72,2.269 0.972,4.32 4.644,6.012 3.708,1.729 11.196,3.709 17.172,4.284 5.868,0.469 13.14,-0.575 17.784,-1.332 4.465,-0.756 7.416,-1.08 9.433,-3.348 2.016,-2.484 2.664,-6.048 2.34,-11.088 0.576,-3.96 1.08,-7.2 1.512,-9.864 0.396,-2.736 0.576,-2.196 0.973,-6.156 0.288,-4.212 0.359,-11.951 1.044,-18.071 0.575,-6.156 1.872,-13.896 2.771,-18.36 0.72,-4.536 1.332,-6.444 2.269,-8.496 0.863,-2.16 1.367,-2.628 3.456,-4.176 2.088,-1.656 4.968,-3.492 8.928,-5.508 -0.36,-2.088 -0.576,-5.004 -0.648,-8.604 -0.18,-3.744 -0.324,-9.18 -0.144,-13.248 0.036,-4.14 0.396,-7.848 0.792,-11.268 1.26,-0.648 2.16,-1.692 2.844,-2.988 0.684,-1.332 1.008,-3.06 1.116,-5.04 -34.345,-1.045 -68.69,-2.125 -103.034,-3.205 z"
         i:knockout="Off"
         stroke-miterlimit="10"
         id="path4"
         inkscape:connector-curvature="0"
         style="clip-rule:evenodd;fill-rule:evenodd;stroke:#000000;stroke-width:0.036;stroke-miterlimit:10" />
      <path
         d="m 110.861,113.229 c -8.136,3.78 -17.353,6.228 -28.08,7.2 -10.836,0.864 -25.848,-0.072 -36.144,-1.439 -10.332,-1.404 -18.612,-3.601 -25.272,-6.732 -2.088,-2.16 -3.204,-4.284 -3.888,-5.976 -0.648,-1.728 -0.54,-3.42 0.18,-4.68 -0.252,1.296 2.484,2.772 8.208,4.572 5.76,1.692 15.84,4.932 26.064,5.976 10.152,1.008 23.328,1.152 34.272,0.036 10.872,-1.224 20.771,-3.6 30.384,-7.128 0.396,1.152 -0.036,2.196 -0.899,3.672 -1.044,1.331 -2.521,2.879 -4.825,4.499 z"
         i:knockout="Off"
         stroke-miterlimit="10"
         id="path6"
         inkscape:connector-curvature="0"
         style="clip-rule:evenodd;fill:#fbdf99;fill-rule:evenodd;stroke:#000000;stroke-width:0.036;stroke-miterlimit:10" />
      <path
         d="m 21.077,114.777 1.8,26.316 c 4.32,2.808 11.844,4.572 22.572,5.688 10.8,0.827 30.24,1.115 41.652,0.468 11.268,-0.576 19.728,-1.836 25.812,-3.78 -0.396,-4.932 -0.72,-9.647 -0.828,-14.436 -0.144,-4.788 -0.072,-9.36 0.072,-14.004 -5.4,2.952 -11.88,5.004 -19.872,6.3 -8.064,1.188 -18.612,1.691 -27.9,1.368 -9.504,-0.36 -20.304,-2.017 -27.684,-3.313 -7.272,-1.404 -12.384,-2.807 -15.624,-4.607 z"
         i:knockout="Off"
         stroke-miterlimit="10"
         id="path8"
         inkscape:connector-curvature="0"
         style="clip-rule:evenodd;fill:#fbdf99;fill-rule:evenodd;stroke:#000000;stroke-width:0.036;stroke-miterlimit:10" />
      <path
         d="m 105.749,148.473 c -2.484,1.98 -8.496,3.42 -18.036,4.032 -9.792,0.576 -29.16,0.468 -39.348,-0.18 -10.116,-0.685 -16.524,-2.448 -20.88,-3.637 -4.32,-1.296 -4.752,-2.808 -5.328,-3.708 -0.756,-0.899 -1.584,-2.052 1.404,-1.512 3.024,0.54 8.64,3.276 16.416,4.464 7.704,0.9 20.7,1.44 29.125,1.62 8.208,0.108 14.111,0 20.483,-0.468 6.372,-0.504 12.132,-1.224 17.568,-2.304 -0.467,0.541 -0.936,1.116 -1.404,1.693 z"
         i:knockout="Off"
         stroke-miterlimit="10"
         id="path10"
         inkscape:connector-curvature="0"
         style="clip-rule:evenodd;fill:#fbdf99;fill-rule:evenodd;stroke:#000000;stroke-width:0.036;stroke-miterlimit:10" />
      <path
         d="m 35.333,152.289 c 1.188,1.548 2.232,5.111 3.132,10.836 0.792,5.76 1.368,14.652 2.304,23.22 1.008,8.424 2.052,17.28 3.528,27 2.952,2.844 7.056,4.752 12.456,5.868 5.364,1.08 13.788,1.296 19.836,0.504 6.013,-0.828 11.196,-2.808 15.948,-5.652 0.324,-3.96 0.576,-9.107 1.152,-15.731 0.468,-6.732 1.115,-17.641 1.8,-23.688 0.647,-6.084 0.936,-8.64 1.979,-12.384 0.937,-3.78 2.16,-7.02 3.673,-10.008 -5.725,1.152 -11.557,2.088 -18.036,2.664 -6.517,0.576 -12.456,1.188 -20.448,0.864 -8.064,-0.469 -16.992,-1.585 -27.324,-3.493 z"
         i:knockout="Off"
         stroke-miterlimit="10"
         id="path12"
         inkscape:connector-curvature="0"
         style="clip-rule:evenodd;fill:#fbdf99;fill-rule:evenodd;stroke:#000000;stroke-width:0.036;stroke-miterlimit:10" />
      <path
         d="m 43.937,157.257 1.188,9.792 9.9,0.72 -8.892,-1.655 z"
         i:knockout="Off"
         stroke-miterlimit="10"
         id="path14"
         inkscape:connector-curvature="0"
         style="clip-rule:evenodd;fill-rule:evenodd;stroke:#000000;stroke-width:0.036;stroke-miterlimit:10" />
      <path
         d="m 46.133,171.729 1.944,17.604 9.864,1.691 -8.676,-2.808 z"
         i:knockout="Off"
         stroke-miterlimit="10"
         id="path16"
         inkscape:connector-curvature="0"
         style="clip-rule:evenodd;fill-rule:evenodd;stroke:#000000;stroke-width:0.036;stroke-miterlimit:10" />
      <path
         d="m 49.625,195.237 0.972,16.38 7.704,2.016 -6.12,-3.132 z"
         i:knockout="Off"
         stroke-miterlimit="10"
         id="path18"
         inkscape:connector-curvature="0"
         style="clip-rule:evenodd;fill-rule:evenodd;stroke:#000000;stroke-width:0.036;stroke-miterlimit:10" />
      <path
         d="m 60.785,159.417 0.288,8.388 6.228,0.216 -4.824,-1.151 -1.728,-6.301 z"
         i:knockout="Off"
         stroke-miterlimit="10"
         id="path20"
         inkscape:connector-curvature="0"
         style="clip-rule:evenodd;fill-rule:evenodd;stroke:#000000;stroke-width:0.036;stroke-miterlimit:10" />
      <path
         d="m 61.109,172.089 1.26,19.476 5.832,0.433 -4.428,-1.332 z"
         i:knockout="Off"
         stroke-miterlimit="10"
         id="path22"
         inkscape:connector-curvature="0"
         style="clip-rule:evenodd;fill-rule:evenodd;stroke:#000000;stroke-width:0.036;stroke-miterlimit:10" />
      <path
         d="m 62.621,196.064 0.54,17.532 5.436,0.396 -4.211,-1.513 z"
         i:knockout="Off"
         stroke-miterlimit="10"
         id="path24"
         inkscape:connector-curvature="0"
         style="clip-rule:evenodd;fill-rule:evenodd;stroke:#000000;stroke-width:0.036;stroke-miterlimit:10" />
      <path
         d="m 71.909,159.021 0.468,8.784 4.86,-0.216 -3.853,-0.72 -1.548,-6.301 z"
         i:knockout="Off"
         stroke-miterlimit="10"
         id="path26"
         inkscape:connector-curvature="0"
         style="clip-rule:evenodd;fill-rule:evenodd;stroke:#000000;stroke-width:0.036;stroke-miterlimit:10" />
      <path
         d="m 71.657,171.477 0.828,20.448 6.84,-0.324 -5.437,-0.972 z"
         i:knockout="Off"
         stroke-miterlimit="10"
         id="path28"
         inkscape:connector-curvature="0"
         style="clip-rule:evenodd;fill-rule:evenodd;stroke:#000000;stroke-width:0.036;stroke-miterlimit:10" />
      <path
         d="m 72.125,196.604 0.576,17.316 5.256,-0.18 -4.248,-0.757 z"
         i:knockout="Off"
         stroke-miterlimit="10"
         id="path30"
         inkscape:connector-curvature="0"
         style="clip-rule:evenodd;fill-rule:evenodd;stroke:#000000;stroke-width:0.036;stroke-miterlimit:10" />
      <path
         d="m 82.493,195.777 -1.188,17.1 4.32,-1.008 -3.132,-0.108 z"
         i:knockout="Off"
         stroke-miterlimit="10"
         id="path32"
         inkscape:connector-curvature="0"
         style="clip-rule:evenodd;fill-rule:evenodd;stroke:#000000;stroke-width:0.036;stroke-miterlimit:10" />
      <path
         d="m 82.349,171.261 -0.287,19.656 4.896,-1.008 -3.888,0.252 z"
         i:knockout="Off"
         stroke-miterlimit="10"
         id="path34"
         inkscape:connector-curvature="0"
         style="clip-rule:evenodd;fill-rule:evenodd;stroke:#000000;stroke-width:0.036;stroke-miterlimit:10" />
      <path
         d="m 83.213,158.445 -0.504,8.136 7.236,-0.9 -5.832,-0.216 z"
         i:knockout="Off"
         stroke-miterlimit="10"
         id="path36"
         inkscape:connector-curvature="0"
         style="clip-rule:evenodd;fill-rule:evenodd;stroke:#000000;stroke-width:0.036;stroke-miterlimit:10" />
      <path
         d="m 91.565,158.553 -0.036,6.588 2.735,-0.288 -1.548,-0.647 z"
         i:knockout="Off"
         stroke-miterlimit="10"
         id="path38"
         inkscape:connector-curvature="0"
         style="clip-rule:evenodd;fill-rule:evenodd;stroke:#000000;stroke-width:0.036;stroke-miterlimit:10" />
      <path
         d="m 90.521,171.549 -0.792,17.496 3.348,-1.26 -2.34,-0.288 z"
         i:knockout="Off"
         stroke-miterlimit="10"
         id="path40"
         inkscape:connector-curvature="0"
         style="clip-rule:evenodd;fill-rule:evenodd;stroke:#000000;stroke-width:0.036;stroke-miterlimit:10" />
      <path
         d="m 89.117,195.417 -1.152,16.523 4.141,-2.195 -3.313,0.684 z"
         i:knockout="Off"
         stroke-miterlimit="10"
         id="path42"
         inkscape:connector-curvature="0"
         style="clip-rule:evenodd;fill-rule:evenodd;stroke:#000000;stroke-width:0.036;stroke-miterlimit:10" />
      <path
         d="m 27.845,118.701 4.896,-5.041 c -3.24,-1.728 -5.976,-3.6 -8.208,-5.76 -2.304,-2.196 -3.132,-5.364 -5.4,-7.128 -2.484,-1.836 -7.74,-0.468 -8.676,-3.816 -0.864,-3.492 1.404,-13.248 3.6,-17.064 2.124,-3.96 6.192,-3.708 9,-6.444 2.7,-2.808 2.52,-6.228 7.236,-10.26 4.608,-4.14 9.828,-12.708 20.52,-14.472 10.692,-1.872 32.616,-0.396 42.984,3.312 10.044,3.636 14.473,12.888 17.856,18.468 3.456,5.508 4.104,10.332 2.483,14.616 5.328,2.844 9,5.364 11.16,7.992 2.088,2.412 0.54,4.752 1.477,7.164 0.863,2.304 3.239,3.96 3.924,7.488 0.576,3.6 1.584,11.016 -0.18,13.896 -1.908,2.699 -5.509,4.5 -10.801,2.628 -5.363,-1.908 -12.239,-6.553 -21.023,-13.933 -5.473,7.164 -9.9,11.557 -13.284,13.572 -3.492,1.872 -3.996,-3.024 -7.2,-1.908 -3.312,1.044 -7.632,6.192 -11.988,8.353 -4.464,2.016 -10.008,2.34 -14.112,4.176 -4.284,1.872 -8.208,7.2 -10.512,6.804 -2.304,-0.54 -3.096,-3.852 -2.772,-9.936 -5.256,0 -8.712,-1.044 -10.512,-3.132 -1.8,-2.195 -2.052,-5.255 -0.468,-9.575 z"
         i:knockout="Off"
         stroke-miterlimit="10"
         id="path44"
         inkscape:connector-curvature="0"
         style="clip-rule:evenodd;fill-rule:evenodd;stroke:#000000;stroke-width:0.036;stroke-miterlimit:10" />
      <path
         d="m 34.541,112.617 c -2.736,-1.44 -5.4,-3.492 -7.848,-5.76 -2.592,-2.412 -4.716,-6.768 -7.056,-8.352 -2.448,-1.512 -5.868,0.9 -6.912,-1.224 -1.08,-2.412 -0.576,-9.18 0.684,-12.528 1.26,-3.312 4.464,-5.472 6.552,-7.308 1.98,-1.944 3.312,-1.656 5.4,-3.996 2.016,-2.484 3.06,-6.552 6.732,-10.26 3.6,-3.744 8.892,-9.828 14.76,-12.024 5.724,-2.376 13.068,-1.692 19.548,-1.548 6.372,0.072 13.571,1.476 18.684,2.412 4.933,0.864 7.452,0.036 11.304,2.772 3.853,2.664 8.604,9.108 11.484,13.068 2.7,3.816 4.572,6.552 4.788,9.756 0,3.204 -1.188,6.588 -3.96,9.036 -2.772,2.124 -10.944,3.636 -12.313,4.536 -1.367,0.864 0.973,1.296 4.104,0.864 3.024,-0.54 10.044,-4.464 13.968,-3.996 3.853,0.396 7.128,4.212 8.856,6.444 1.476,2.16 -0.072,4.104 0.647,6.264 0.685,1.944 2.664,3.6 3.601,6.084 0.792,2.556 2.124,5.832 1.655,8.712 -0.54,2.628 -1.151,7.524 -4.607,7.488 -3.636,-0.144 -11.772,-5.399 -16.236,-7.992 -4.428,-2.628 -7.812,-5.076 -10.151,-7.488 -5.797,7.164 -10.188,11.736 -13.465,13.572 -3.348,1.872 -2.412,-3.852 -6.084,-2.447 -3.815,1.367 -11.304,7.812 -16.056,10.296 -4.752,2.231 -8.928,2.16 -12.132,3.815 -3.312,1.692 -5.976,6.696 -7.56,6.265 -1.764,-0.612 -2.448,-3.601 -2.448,-9.396 -4.392,0.036 -7.524,-0.504 -9.54,-1.764 -2.196,-1.332 -3.168,-3.349 -2.628,-5.904 0.54,-2.555 2.665,-5.69 6.229,-9.397 z"
         i:knockout="Off"
         stroke-miterlimit="10"
         id="path46"
         inkscape:connector-curvature="0"
         style="clip-rule:evenodd;fill:#edd4a8;fill-rule:evenodd;stroke:#000000;stroke-width:0.036;stroke-miterlimit:10" />
      <path
         d="m 21.941,90.873 c 2.556,3.204 7.956,10.476 12.6,13.896 4.464,3.312 6.084,7.38 14.436,5.94 8.46,-1.656 28.512,-11.052 35.28,-15.156 6.48,-4.104 6.444,-9.9 3.78,-9.216 -2.88,0.648 -12.996,10.08 -20.196,12.888 -7.236,2.592 -14.544,5.148 -22.608,2.952 -8.172,-2.412 -21.852,-14.4 -25.776,-16.38 -3.96,-1.836 -0.036,1.8 2.484,5.076 z"
         i:knockout="Off"
         id="path48"
         inkscape:connector-curvature="0"
         style="clip-rule:evenodd;fill:#dec599;fill-rule:evenodd" />
      <path
         d="m 45.881,125.505 c 2.196,-1.908 8.28,-4.176 11.16,-4.716 2.7,-0.648 1.908,3.132 5.4,1.224 3.492,-2.052 12.276,-11.16 15.264,-12.888 2.808,-1.728 -0.468,2.7 1.98,2.448 2.447,-0.504 12.852,-5.112 12.6,-4.536 -0.504,0.72 -9.684,4.608 -14.904,8.172 -5.328,3.384 -12.132,10.116 -16.236,12.023 -3.996,1.801 -5.184,-1.836 -7.884,-1.044 -2.88,0.721 -8.028,5.832 -9.18,5.761 -1.26,-0.18 -0.432,-4.644 1.8,-6.444 z"
         i:knockout="Off"
         id="path50"
         inkscape:connector-curvature="0"
         style="clip-rule:evenodd;fill:#dec599;fill-rule:evenodd" />
      <path
         d="m 93.293,80.073 c 1.692,-3.096 7.884,-8.568 10.656,-9.072 2.664,-0.54 4.896,3.996 5.436,6.264 0.433,2.196 0.108,5.184 -2.483,7.164 -2.736,1.908 -11.053,4.968 -13.284,4.32 -2.233,-0.864 -2.197,-5.652 -0.325,-8.676 z"
         i:knockout="Off"
         id="path52"
         inkscape:connector-curvature="0"
         style="clip-rule:evenodd;fill:#dec599;fill-rule:evenodd" />
      <path
         d="m 57.113,78.993 c -5.004,-3.168 -9.756,-4.968 -14.256,-5.544 -4.608,-0.648 -8.46,2.88 -12.96,1.98 -4.572,-0.936 -9.144,-2.88 -14.112,-7.632 -5.112,-4.932 -16.2,-16.2 -15.768,-21.024 0.468,-4.824 6.48,-7.308 18.432,-7.596 -4.212,-5.184 -4.5,-10.836 -0.576,-17.1 3.96,-6.48 11.844,-17.244 23.652,-20.484 11.736,-3.204 34.128,-1.476 45.936,1.44 11.628,2.988 18.396,11.052 23.796,16.02 5.364,4.752 7.956,9 8.172,12.744 4.177,-0.9 6.805,-0.54 8.028,1.08 1.188,1.548 0.937,4.392 -0.756,8.388 6.444,3.456 8.676,7.92 6.552,13.392 -2.16,5.472 -8.424,11.736 -19.188,19.188 -3.744,-1.944 -8.604,-2.808 -14.58,-2.736 -6.12,0.036 -16.021,1.908 -21.384,3.132 -5.4,1.08 -6.984,2.952 -10.44,3.816 -3.6,0.828 -6.984,1.044 -10.548,0.936 z"
         i:knockout="Off"
         stroke-miterlimit="10"
         id="path54"
         inkscape:connector-curvature="0"
         style="clip-rule:evenodd;fill-rule:evenodd;stroke:#000000;stroke-width:0.036;stroke-miterlimit:10" />
      <path
         d="m 21.437,40.365 c -2.952,-0.54 -5.976,-0.36 -8.928,0.396 -3.168,0.684 -7.632,2.268 -9.072,4.068 -1.512,1.692 -2.052,2.124 0.756,6.3 2.772,4.14 11.268,14.796 16.344,18.504 5.076,3.492 9.828,2.52 13.824,2.916 3.816,0.288 5.22,-1.512 9.216,-0.684 3.924,0.828 10.08,4.932 14.436,5.652 4.284,0.576 6.84,-1.044 11.16,-2.088 4.212,-1.188 8.46,-3.564 14.112,-4.608 5.544,-1.188 14.112,-1.944 19.332,-1.692 5.147,0.324 8.964,1.332 11.592,3.42 6.48,-4.68 11.017,-8.712 14.148,-12.636 3.023,-3.96 4.355,-7.56 3.996,-10.512 -0.576,-2.916 -2.772,-5.328 -6.984,-7.092 0.756,-2.088 1.152,-3.744 1.044,-5.256 -0.144,-1.584 -0.612,-3.132 -1.8,-3.672 -1.404,-0.684 -4.536,-1.008 -5.94,0.144 -1.403,1.152 -1.224,4.896 -2.376,6.948 -1.368,1.98 -4.896,6.012 -4.896,4.86 0.107,-1.404 4.68,-9.216 5.363,-12.6 0.612,-3.276 0.793,-3.78 -1.943,-7.344 C 111.797,21.537 105.388,14.409 99.485,10.665 93.617,6.813 88.829,4.545 79.865,3.033 70.613,1.413 55.133,-0.927 45.233,1.845 c -9.936,2.916 -20.232,11.376 -24.228,18 -3.996,6.48 -3.852,13.176 0.432,20.52 z"
         i:knockout="Off"
         stroke-miterlimit="10"
         id="path56"
         inkscape:connector-curvature="0"
         style="clip-rule:evenodd;fill:#f5aabb;fill-rule:evenodd;stroke:#000000;stroke-width:0.036;stroke-miterlimit:10" />
      <path
         d="M 56.825,72.405 C 53.117,71.073 42.785,62.397 39.437,61.497 c -3.42,-0.9 -0.432,5.328 -2.7,5.652 -2.34,0.18 -7.02,-1.224 -10.98,-4.212 -4.14,-3.204 -12.996,-13.068 -12.816,-14.04 0.252,-0.936 11.448,8.712 14.292,8.388 2.628,-0.504 -3.528,-12.384 2.088,-10.512 5.652,1.908 26.892,17.604 31.644,21.96 4.5,4.212 -0.576,4.788 -4.14,3.672 z"
         i:knockout="Off"
         id="path58"
         inkscape:connector-curvature="0"
         style="clip-rule:evenodd;fill:#ecbac4;fill-rule:evenodd" />
      <path
         d="m 71.981,16.317 c 2.735,-2.016 13.571,-4.176 19.332,-3.708 5.651,0.432 10.691,3.564 14.436,6.336 3.636,2.628 6.66,5.688 7.272,9.72 0.432,3.924 -3.637,10.368 -4.141,13.896 -0.432,3.348 4.356,2.952 1.044,6.588 -3.6,3.672 -20.483,15.84 -21.888,15.12 -1.368,-0.936 12.492,-16.2 13.824,-20.232 1.188,-3.96 -6.588,-1.116 -6.229,-3.672 0.324,-2.772 9.252,-8.964 8.46,-12.348 -0.899,-3.456 -8.64,-7.236 -13.5,-7.884 -4.896,-0.648 -12.744,4.5 -15.768,3.924 -3.13,-0.756 -5.65,-5.832 -2.842,-7.74 z"
         i:knockout="Off"
         id="path60"
         inkscape:connector-curvature="0"
         style="clip-rule:evenodd;fill:#ecbac4;fill-rule:evenodd" />
      <path
         d="m 122.417,44.037 c 2.556,0.252 7.848,5.58 7.416,9.036 -0.72,3.492 -6.984,8.928 -11.016,11.304 -4.104,2.16 -11.376,2.592 -13.068,1.98 -1.728,-0.756 0.324,-4.212 2.952,-6.048 2.592,-1.872 11.196,-3.708 12.348,-5.112 0.973,-1.584 -6.336,-1.836 -6.084,-3.672 0.252,-2.016 4.824,-7.704 7.452,-7.488 z"
         i:knockout="Off"
         id="path62"
         inkscape:connector-curvature="0"
         style="clip-rule:evenodd;fill:#ecbac4;fill-rule:evenodd" />
      <path
         d="m 48.797,28.125 c -4.212,1.8 -18.144,9.9 -16.956,9.864 1.296,-0.252 21.42,-9.072 24.408,-10.764 2.664,-1.656 -3.384,-0.936 -7.452,0.9 z"
         i:knockout="Off"
         id="path64"
         inkscape:connector-curvature="0"
         style="clip-rule:evenodd;fill:#ecbac4;fill-rule:evenodd" />
      <path
         d="m 63.377,31.293 c -3.672,1.8 -15.336,10.08 -14.148,9.864 1.188,-0.288 18.792,-9.576 21.276,-11.196 2.232,-1.584 -3.528,-0.684 -7.128,1.332 z"
         i:knockout="Off"
         id="path66"
         inkscape:connector-curvature="0"
         style="clip-rule:evenodd;fill:#ecbac4;fill-rule:evenodd" />
      <path
         d="m 79.721,35.217 c -2.592,1.8 -11.771,12.564 -11.159,13.284 0.611,0.396 13.067,-8.064 15.012,-10.26 1.763,-2.268 -1.333,-4.752 -3.853,-3.024 z"
         i:knockout="Off"
         id="path68"
         inkscape:connector-curvature="0"
         style="clip-rule:evenodd;fill:#ecbac4;fill-rule:evenodd" />
    </g>
  </g>
</svg>
