<?xml version="1.0" encoding="utf-8"?>
<!-- Generator: Adobe Illustrator 12.0.1, SVG Export Plug-In . SVG Version: 6.00 Build 51448)  -->
<!DOCTYPE svg PUBLIC "-//W3C//DTD SVG 1.1//EN" "http://www.w3.org/Graphics/SVG/1.1/DTD/svg11.dtd" [
	<!ENTITY ns_svg "http://www.w3.org/2000/svg">
	<!ENTITY ns_xlink "http://www.w3.org/1999/xlink">
]>
<svg  version="1.1" id="Layer_1" xmlns="&ns_svg;" xmlns:xlink="&ns_xlink;" width="187.086" height="231.379"
	 viewBox="0 0 187.086 231.379" overflow="visible" enable-background="new 0 0 187.086 231.379" xml:space="preserve">
<g>
	<g>
		<path stroke="#6A737B" stroke-width="2.7648" d="M156.101,26.232c-4.277-6.068-8.332-12.092-17.762-16.425
			c-11.322-5.206-26.955-8.424-44.22-8.424c-19.224,0-36.416,3.993-47.897,10.272c-6.341,3.468-9.491,7.852-13.157,12.213
			C13.663,45.41,1.382,77.113,1.382,112.492c0,64.898,41.262,117.506,92.162,117.506c50.899,0,92.161-52.607,92.161-117.506
			C185.705,78.391,174.3,47.698,156.101,26.232z"/>
		<ellipse fill="#A19789" stroke="#6A737B" stroke-width="2.8332" cx="93.95" cy="32.887" rx="48.997" ry="21.48"/>
	</g>
	<g>
		<path fill="#949383" d="M33.835,32.917C18.022,53.196,8.265,80.912,8.265,111.494c0,62.16,40.241,112.547,89.883,112.547
			c3.908,0,7.748-0.346,11.527-0.955c-48.796-1.215-88.064-51.09-88.064-112.486c0-25.699,6.889-49.374,18.473-68.313L33.835,32.917
			z"/>
	</g>
</g>
</svg>
