<?xml version="1.0" encoding="UTF-8" standalone="no"?>
<!-- Created with Inkscape (http://www.inkscape.org/) -->
<svg
   xmlns:dc="http://purl.org/dc/elements/1.1/"
   xmlns:cc="http://web.resource.org/cc/"
   xmlns:rdf="http://www.w3.org/1999/02/22-rdf-syntax-ns#"
   xmlns:svg="http://www.w3.org/2000/svg"
   xmlns="http://www.w3.org/2000/svg"
   xmlns:xlink="http://www.w3.org/1999/xlink"
   xmlns:sodipodi="http://sodipodi.sourceforge.net/DTD/sodipodi-0.dtd"
   xmlns:inkscape="http://www.inkscape.org/namespaces/inkscape"
   width="263.7251"
   height="234.77965"
   id="svg2"
   sodipodi:version="0.32"
   inkscape:version="0.45"
   sodipodi:docname="Chrisdesign_Onion.svg"
   inkscape:output_extension="org.inkscape.output.svg.inkscape"
   sodipodi:docbase="/home/evans/Desktop"
   sodipodi:modified="true"
   version="1.0">
  <sodipodi:namedview
     id="base"
     pagecolor="#ffffff"
     bordercolor="#666666"
     borderopacity="1.0"
     inkscape:pageopacity="0.0"
     inkscape:pageshadow="2"
     inkscape:zoom="2.0231737"
     inkscape:cx="131.86255"
     inkscape:cy="117.38982"
     inkscape:document-units="px"
     inkscape:current-layer="layer1"
     inkscape:window-width="1020"
     inkscape:window-height="694"
     inkscape:window-x="0"
     inkscape:window-y="24"
     inkscape:showpageshadow="false" />
  <defs
     id="defs4">
    <linearGradient
       inkscape:collect="always"
       id="linearGradient13297">
      <stop
         style="stop-color:#784421;stop-opacity:1;"
         offset="0"
         id="stop13299" />
      <stop
         style="stop-color:#784421;stop-opacity:0;"
         offset="1"
         id="stop13301" />
    </linearGradient>
    <linearGradient
       id="linearGradient12320">
      <stop
         style="stop-color:#a05b2c;stop-opacity:1;"
         offset="0"
         id="stop12322" />
      <stop
         style="stop-color:#784421;stop-opacity:0;"
         offset="1"
         id="stop12324" />
    </linearGradient>
    <linearGradient
       id="linearGradient8335">
      <stop
         style="stop-color:#943f00;stop-opacity:0.88947368;"
         offset="0"
         id="stop8337" />
      <stop
         style="stop-color:#723100;stop-opacity:1;"
         offset="1"
         id="stop8339" />
    </linearGradient>
    <linearGradient
       id="linearGradient8327">
      <stop
         style="stop-color:#e3a63d;stop-opacity:1;"
         offset="0"
         id="stop8329" />
      <stop
         style="stop-color:#a96b00;stop-opacity:1;"
         offset="1"
         id="stop8331" />
    </linearGradient>
    <linearGradient
       id="linearGradient8319">
      <stop
         style="stop-color:#b46b18;stop-opacity:1;"
         offset="0"
         id="stop8321" />
      <stop
         style="stop-color:#875012;stop-opacity:1;"
         offset="1"
         id="stop8323" />
    </linearGradient>
    <linearGradient
       id="linearGradient7344">
      <stop
         style="stop-color:#381600;stop-opacity:0;"
         offset="0"
         id="stop7346" />
      <stop
         style="stop-color:#381600;stop-opacity:1;"
         offset="1"
         id="stop7348" />
    </linearGradient>
    <linearGradient
       id="linearGradient7336">
      <stop
         style="stop-color:#381600;stop-opacity:0.16842106;"
         offset="0"
         id="stop7338" />
      <stop
         style="stop-color:#381600;stop-opacity:1;"
         offset="1"
         id="stop7340" />
    </linearGradient>
    <linearGradient
       id="linearGradient16983">
      <stop
         style="stop-color:#c87137;stop-opacity:1"
         offset="0"
         id="stop16985" />
      <stop
         style="stop-color:#804000;stop-opacity:1;"
         offset="1"
         id="stop16987" />
    </linearGradient>
    <linearGradient
       id="linearGradient12054">
      <stop
         style="stop-color:#ffffff;stop-opacity:1;"
         offset="0"
         id="stop12056" />
      <stop
         style="stop-color:#c98500;stop-opacity:0;"
         offset="1"
         id="stop12058" />
    </linearGradient>
    <radialGradient
       inkscape:collect="always"
       xlink:href="#linearGradient12054"
       id="radialGradient12060"
       cx="-240.68752"
       cy="513.11395"
       fx="-240.68752"
       fy="513.11395"
       r="47.055763"
       gradientTransform="matrix(1.0000001,3.5993226e-7,-2.3581766e-7,0.6551724,1.4296527e-4,176.93592)"
       gradientUnits="userSpaceOnUse" />
    <filter
       inkscape:collect="always"
       id="filter18945">
      <feGaussianBlur
         inkscape:collect="always"
         stdDeviation="1.2116008"
         id="feGaussianBlur18947" />
    </filter>
    <filter
       inkscape:collect="always"
       id="filter20002">
      <feGaussianBlur
         inkscape:collect="always"
         stdDeviation="3.2821945"
         id="feGaussianBlur20004" />
    </filter>
    <filter
       inkscape:collect="always"
       x="-0.097465552"
       width="1.1949311"
       y="-0.11112069"
       height="1.2222414"
       id="filter20026">
      <feGaussianBlur
         inkscape:collect="always"
         stdDeviation="11.707601"
         id="feGaussianBlur20028" />
    </filter>
    <filter
       inkscape:collect="always"
       id="filter21009">
      <feGaussianBlur
         inkscape:collect="always"
         stdDeviation="0.42681587"
         id="feGaussianBlur21011" />
    </filter>
    <clipPath
       clipPathUnits="userSpaceOnUse"
       id="clipPath21015">
      <path
         id="path21017"
         d="M -239.19951,416.41587 C -286.02943,416.7252 -329.89096,453.2015 -337.43704,499.74418 C -340.58645,517.01049 -337.03671,534.80054 -340.511,552.09125 C -341.62636,560.92219 -345.82874,569.83543 -341.76601,578.55459 C -336.07136,594.99054 -317.98184,602.89842 -301.5463,603.33751 C -295.49177,603.9066 -289.04142,602.7843 -284.04326,606.97837 C -243.80411,628.34654 -190.13282,618.93547 -160.04302,584.72117 C -135.55971,557.84316 -126.96404,517.19029 -140.22518,483.09806 C -143.45837,473.2675 -144.8695,460.06252 -135.38701,453.13462 C -129.98629,448.08873 -122.12491,447.89975 -116.16826,444.00962 C -114.03076,442.17437 -110.9149,438.41918 -111.66826,436.35337 C -116.54954,436.51524 -118.41472,430.30746 -123.54326,430.82212 C -132.69673,429.99782 -138.64553,438.75713 -147.48076,439.57212 C -155.15745,441.03789 -163.49527,441.10218 -171.10576,439.69712 C -190.0917,424.03165 -214.62645,415.74217 -239.19951,416.41587 z "
         style="color:#000000;fill:#a85d24;fill-opacity:1;fill-rule:evenodd;stroke:none;stroke-width:0.50202721;stroke-linecap:round;stroke-linejoin:miter;marker:none;marker-start:none;marker-mid:none;marker-end:none;stroke-miterlimit:4;stroke-dashoffset:0;stroke-opacity:1;visibility:visible;display:inline;overflow:visible;enable-background:accumulate" />
    </clipPath>
    <clipPath
       clipPathUnits="userSpaceOnUse"
       id="clipPath21019">
      <path
         id="path21021"
         d="M -234.3481,422.40211 C -277.17267,422.65618 -317.28274,452.61556 -324.1834,490.84284 C -327.06344,505.02433 -323.81731,519.63597 -326.99445,533.8375 C -328.01441,541.09069 -331.85736,548.41147 -328.14212,555.57285 C -322.93453,569.07233 -306.3922,575.56737 -291.36239,575.92801 C -285.8257,576.39543 -279.92705,575.47364 -275.35638,578.91839 C -238.55887,596.46889 -189.47808,588.73922 -161.96185,560.6377 C -139.57259,538.56176 -131.71211,505.172 -143.83902,477.17075 C -146.79568,469.09653 -148.08612,458.25078 -139.41466,452.56063 C -134.47586,448.41624 -127.28687,448.26103 -121.83969,445.06591 C -119.88501,443.55855 -117.03565,440.47427 -117.72457,438.77754 C -122.18836,438.91049 -123.89401,433.81181 -128.58391,434.23452 C -136.95448,433.55749 -142.39448,440.75184 -150.47404,441.42123 C -157.49414,442.62512 -165.11883,442.67792 -172.0784,441.52389 C -189.44047,428.65724 -211.87677,421.84878 -234.3481,422.40211 z "
         style="color:#000000;fill:#a85d24;fill-opacity:1;fill-rule:evenodd;stroke:none;stroke-width:0.50202721;stroke-linecap:round;stroke-linejoin:miter;marker:none;marker-start:none;marker-mid:none;marker-end:none;stroke-miterlimit:4;stroke-dashoffset:0;stroke-opacity:1;visibility:visible;display:inline;overflow:visible;enable-background:accumulate" />
    </clipPath>
    <clipPath
       clipPathUnits="userSpaceOnUse"
       id="clipPath21023">
      <path
         id="path21025"
         d="M -239.19951,416.41587 C -286.02943,416.7252 -329.89096,453.2015 -337.43704,499.74418 C -340.58645,517.01049 -337.03671,534.80054 -340.511,552.09125 C -341.62636,560.92219 -345.82874,569.83543 -341.76601,578.55459 C -336.07136,594.99054 -317.98184,602.89842 -301.5463,603.33751 C -295.49177,603.9066 -289.04142,602.7843 -284.04326,606.97837 C -243.80411,628.34654 -190.13282,618.93547 -160.04302,584.72117 C -135.55971,557.84316 -126.96404,517.19029 -140.22518,483.09806 C -143.45837,473.2675 -144.8695,460.06252 -135.38701,453.13462 C -129.98629,448.08873 -122.12491,447.89975 -116.16826,444.00962 C -114.03076,442.17437 -110.9149,438.41918 -111.66826,436.35337 C -116.54954,436.51524 -118.41472,430.30746 -123.54326,430.82212 C -132.69673,429.99782 -138.64553,438.75713 -147.48076,439.57212 C -155.15745,441.03789 -163.49527,441.10218 -171.10576,439.69712 C -190.0917,424.03165 -214.62645,415.74217 -239.19951,416.41587 z "
         style="color:#000000;fill:#a85d24;fill-opacity:1;fill-rule:evenodd;stroke:none;stroke-width:0.50202721;stroke-linecap:round;stroke-linejoin:miter;marker:none;marker-start:none;marker-mid:none;marker-end:none;stroke-miterlimit:4;stroke-dashoffset:0;stroke-opacity:1;visibility:visible;display:inline;overflow:visible;enable-background:accumulate" />
    </clipPath>
    <clipPath
       clipPathUnits="userSpaceOnUse"
       id="clipPath21027">
      <path
         id="path21029"
         d="M -251.09867,441.29593 C -297.92859,441.60526 -341.79012,478.08156 -349.3362,524.62424 C -352.48561,541.89055 -348.93587,559.6806 -352.41016,576.97131 C -353.52552,585.80225 -357.7279,594.71549 -353.66517,603.43465 C -347.97052,619.8706 -329.881,627.77848 -313.44546,628.21757 C -307.39093,628.78666 -300.94058,627.66436 -295.94242,631.85843 C -255.70327,653.2266 -202.03198,643.81553 -171.94218,609.60123 C -147.45887,582.72322 -138.8632,542.07035 -152.12434,507.97812 C -155.35753,498.14756 -156.76866,484.94258 -147.28617,478.01468 C -141.88545,472.96879 -134.02407,472.77981 -128.06742,468.88968 C -125.92992,467.05443 -122.81406,463.29924 -123.56742,461.23343 C -128.4487,461.3953 -130.31388,455.18752 -135.44242,455.70218 C -144.59589,454.87788 -150.54469,463.63719 -159.37992,464.45218 C -167.05661,465.91795 -175.39443,465.98224 -183.00492,464.57718 C -201.99086,448.91171 -226.52561,440.62223 -251.09867,441.29593 z "
         style="color:#000000;fill:#a85d24;fill-opacity:1;fill-rule:evenodd;stroke:none;stroke-width:0.50202721;stroke-linecap:round;stroke-linejoin:miter;marker:none;marker-start:none;marker-mid:none;marker-end:none;stroke-miterlimit:4;stroke-dashoffset:0;stroke-opacity:1;visibility:visible;display:inline;overflow:visible;enable-background:accumulate" />
    </clipPath>
    <clipPath
       clipPathUnits="userSpaceOnUse"
       id="clipPath21031">
      <path
         id="path21033"
         d="M -239.19951,416.41587 C -286.02943,416.7252 -329.89096,453.2015 -337.43704,499.74418 C -340.58645,517.01049 -337.03671,534.80054 -340.511,552.09125 C -341.62636,560.92219 -345.82874,569.83543 -341.76601,578.55459 C -336.07136,594.99054 -317.98184,602.89842 -301.5463,603.33751 C -295.49177,603.9066 -289.04142,602.7843 -284.04326,606.97837 C -243.80411,628.34654 -190.13282,618.93547 -160.04302,584.72117 C -135.55971,557.84316 -126.96404,517.19029 -140.22518,483.09806 C -143.45837,473.2675 -144.8695,460.06252 -135.38701,453.13462 C -129.98629,448.08873 -122.12491,447.89975 -116.16826,444.00962 C -114.03076,442.17437 -110.9149,438.41918 -111.66826,436.35337 C -116.54954,436.51524 -118.41472,430.30746 -123.54326,430.82212 C -132.69673,429.99782 -138.64553,438.75713 -147.48076,439.57212 C -155.15745,441.03789 -163.49527,441.10218 -171.10576,439.69712 C -190.0917,424.03165 -214.62645,415.74217 -239.19951,416.41587 z "
         style="color:#000000;fill:#a85d24;fill-opacity:1;fill-rule:evenodd;stroke:none;stroke-width:0.50202721;stroke-linecap:round;stroke-linejoin:miter;marker:none;marker-start:none;marker-mid:none;marker-end:none;stroke-miterlimit:4;stroke-dashoffset:0;stroke-opacity:1;visibility:visible;display:inline;overflow:visible;enable-background:accumulate" />
    </clipPath>
    <clipPath
       clipPathUnits="userSpaceOnUse"
       id="clipPath21035">
      <path
         id="path21037"
         d="M -239.19951,416.41587 C -286.02943,416.7252 -329.89096,453.2015 -337.43704,499.74418 C -340.58645,517.01049 -337.03671,534.80054 -340.511,552.09125 C -341.62636,560.92219 -345.82874,569.83543 -341.76601,578.55459 C -336.07136,594.99054 -317.98184,602.89842 -301.5463,603.33751 C -295.49177,603.9066 -289.04142,602.7843 -284.04326,606.97837 C -243.80411,628.34654 -190.13282,618.93547 -160.04302,584.72117 C -135.55971,557.84316 -126.96404,517.19029 -140.22518,483.09806 C -143.45837,473.2675 -144.8695,460.06252 -135.38701,453.13462 C -129.98629,448.08873 -122.12491,447.89975 -116.16826,444.00962 C -114.03076,442.17437 -110.9149,438.41918 -111.66826,436.35337 C -116.54954,436.51524 -118.41472,430.30746 -123.54326,430.82212 C -132.69673,429.99782 -138.64553,438.75713 -147.48076,439.57212 C -155.15745,441.03789 -163.49527,441.10218 -171.10576,439.69712 C -190.0917,424.03165 -214.62645,415.74217 -239.19951,416.41587 z "
         style="color:#000000;fill:#a85d24;fill-opacity:1;fill-rule:evenodd;stroke:none;stroke-width:0.50202721;stroke-linecap:round;stroke-linejoin:miter;marker:none;marker-start:none;marker-mid:none;marker-end:none;stroke-miterlimit:4;stroke-dashoffset:0;stroke-opacity:1;visibility:visible;display:inline;overflow:visible;enable-background:accumulate" />
    </clipPath>
    <clipPath
       clipPathUnits="userSpaceOnUse"
       id="clipPath21039">
      <path
         id="path21041"
         d="M -239.19951,416.41587 C -286.02943,416.7252 -329.89096,453.2015 -337.43704,499.74418 C -340.58645,517.01049 -337.03671,534.80054 -340.511,552.09125 C -341.62636,560.92219 -345.82874,569.83543 -341.76601,578.55459 C -336.07136,594.99054 -317.98184,602.89842 -301.5463,603.33751 C -295.49177,603.9066 -289.04142,602.7843 -284.04326,606.97837 C -243.80411,628.34654 -190.13282,618.93547 -160.04302,584.72117 C -135.55971,557.84316 -126.96404,517.19029 -140.22518,483.09806 C -143.45837,473.2675 -144.8695,460.06252 -135.38701,453.13462 C -129.98629,448.08873 -122.12491,447.89975 -116.16826,444.00962 C -114.03076,442.17437 -110.9149,438.41918 -111.66826,436.35337 C -116.54954,436.51524 -118.41472,430.30746 -123.54326,430.82212 C -132.69673,429.99782 -138.64553,438.75713 -147.48076,439.57212 C -155.15745,441.03789 -163.49527,441.10218 -171.10576,439.69712 C -190.0917,424.03165 -214.62645,415.74217 -239.19951,416.41587 z "
         style="color:#000000;fill:#a85d24;fill-opacity:1;fill-rule:evenodd;stroke:none;stroke-width:0.50202721;stroke-linecap:round;stroke-linejoin:miter;marker:none;marker-start:none;marker-mid:none;marker-end:none;stroke-miterlimit:4;stroke-dashoffset:0;stroke-opacity:1;visibility:visible;display:inline;overflow:visible;enable-background:accumulate" />
    </clipPath>
    <radialGradient
       inkscape:collect="always"
       xlink:href="#linearGradient7344"
       id="radialGradient7342"
       cx="-334.99622"
       cy="595.7356"
       fx="-334.99622"
       fy="595.7356"
       r="13.375"
       gradientTransform="matrix(0.3715293,-0.2017657,0.3951167,0.7275633,-2.8107793,-269.82059)"
       gradientUnits="userSpaceOnUse" />
    <radialGradient
       inkscape:collect="always"
       xlink:href="#linearGradient8327"
       id="radialGradient8333"
       cx="-247.0377"
       cy="498.89249"
       fx="-247.0377"
       fy="498.89249"
       r="115.97327"
       gradientTransform="matrix(0.8206583,-0.1041272,8.2138247e-2,0.6473518,-87.20684,152.9067)"
       gradientUnits="userSpaceOnUse" />
    <radialGradient
       inkscape:collect="always"
       xlink:href="#linearGradient8335"
       id="radialGradient8341"
       cx="-227.52658"
       cy="516.25616"
       fx="-227.52658"
       fy="516.25616"
       r="115.97327"
       gradientTransform="matrix(1,0,0,0.8612186,0,71.64674)"
       gradientUnits="userSpaceOnUse" />
    <filter
       inkscape:collect="always"
       id="filter11253">
      <feGaussianBlur
         inkscape:collect="always"
         stdDeviation="0.045227149"
         id="feGaussianBlur11255" />
    </filter>
    <filter
       inkscape:collect="always"
       x="-0.21278279"
       width="1.4255656"
       y="-0.044113509"
       height="1.088227"
       id="filter12312">
      <feGaussianBlur
         inkscape:collect="always"
         stdDeviation="2.1133543"
         id="feGaussianBlur12314" />
    </filter>
    <linearGradient
       inkscape:collect="always"
       xlink:href="#linearGradient12320"
       id="linearGradient12326"
       x1="-227.82248"
       y1="423.13821"
       x2="-175.38715"
       y2="444.38354"
       gradientUnits="userSpaceOnUse"
       gradientTransform="translate(440.61386,-352.16947)" />
    <linearGradient
       inkscape:collect="always"
       xlink:href="#linearGradient13297"
       id="linearGradient13303"
       x1="-330.88501"
       y1="527.55682"
       x2="-339.70441"
       y2="560.55493"
       gradientUnits="userSpaceOnUse"
       gradientTransform="translate(440.61386,-352.16947)" />
    <filter
       inkscape:collect="always"
       id="filter18275">
      <feGaussianBlur
         inkscape:collect="always"
         stdDeviation="1.1920812"
         id="feGaussianBlur18277" />
    </filter>
  </defs>
  <metadata
     id="metadata7">
    <rdf:RDF>
      <cc:Work
         rdf:about="">
        <dc:format>image/svg+xml</dc:format>
        <dc:type
           rdf:resource="http://purl.org/dc/dcmitype/StillImage" />
      </cc:Work>
    </rdf:RDF>
  </metadata>
  <g
     inkscape:label="Ebene 1"
     id="layer1"
     inkscape:groupmode="layer"
     transform="translate(-77.187828,-47.312313)">
    <path
       transform="matrix(0.7224787,0,0,1.6666666,342.4365,-775.80112)"
       style="opacity:0.93846154;color:#000000;fill:#2b1100;fill-opacity:1;fill-rule:evenodd;stroke:none;stroke-width:1px;stroke-linecap:butt;stroke-linejoin:miter;marker:none;marker-start:none;marker-mid:none;marker-end:none;stroke-miterlimit:4;stroke-dashoffset:0;stroke-opacity:1;visibility:visible;display:inline;overflow:visible;filter:url(#filter18275);enable-background:accumulate"
       d="M -75.433281,614.46558 C -75.433281,621.87594 -129.84753,627.89014 -196.89366,627.89014 C -234.36682,627.89014 -267.89395,622.85184 -290.17991,619.90063 C -307.76748,617.57159 -329.28702,617.73417 -329.28702,614.46558 C -329.28702,607.05521 -263.93979,601.04101 -196.89366,601.04101 C -129.84753,601.04101 -75.433281,607.05521 -75.433281,614.46558 z "
       id="path15263"
       sodipodi:nodetypes="cssssc" />
    <path
       style="color:#000000;fill:url(#radialGradient8333);fill-opacity:1;fill-rule:evenodd;stroke:none;stroke-width:0.50202721;stroke-linecap:round;stroke-linejoin:miter;marker:none;marker-start:none;marker-mid:none;marker-end:none;stroke-miterlimit:4;stroke-dashoffset:0;stroke-opacity:1;visibility:visible;display:inline;overflow:visible;enable-background:accumulate"
       d="M -237.625,411.84375 C -296.38721,411.84374 -344.0625,458.90475 -344.0625,516.875 C -344.06252,520.64774 -343.86266,524.36096 -343.46875,528.03125 C -343.90931,534.31249 -344.52765,542.33719 -345.21875,549.59375 C -346.23604,560.27505 -352.82471,567.38039 -344.96875,582.8125 C -343.96105,584.79206 -342.71269,586.90884 -341.1875,589.1875 C -334.60682,599.01919 -322.2673,603.51699 -311.9375,605.8125 C -304.43899,607.47883 -298.75546,606.44828 -291.8125,607.28125 C -275.93661,616.56756 -257.40777,621.875 -237.625,621.875 C -178.86283,621.87498 -131.15625,574.84524 -131.15625,516.875 C -131.15627,503.35744 -133.77806,490.43428 -138.5,478.5625 C -139.20616,474.7796 -139.78125,470.75931 -139.78125,467.53125 C -139.78127,458.92307 -132.88941,453.17052 -124.28125,450.875 C -115.67308,448.57947 -112.79841,446.28429 -108.78125,438.25 C -104.76411,430.2157 -113.37501,431.93751 -113.375,431.9375 C -113.375,431.93749 -113.46496,431.85766 -113.625,431.6875 C -115.1558,430.05994 -123.80013,421.78867 -135.75,429.0625 C -148.94921,437.09677 -153.54233,435.96875 -165.59375,435.96875 C -167.19415,435.96873 -168.71511,435.83984 -170.15625,435.65625 C -188.5247,420.78815 -212.02869,411.84375 -237.625,411.84375 z "
       id="path4216"
       clip-path="url(#clipPath21039)"
       transform="translate(440.61386,-352.16947)" />
    <path
       sodipodi:nodetypes="cssssccccccccccccccccccccccccccccccccccccccccccccccccccccccccccccccssscccssscssccccccccccccccccccccccccccccccccccccccccccccccccccccccccccccccccccccccccccccccccccssssssc"
       d="M -353.91629,588.69326 C -353.91629,588.69326 -331.66794,564.27033 -301.43283,539.10621 C -290.50828,530.0139 -279.16465,520.07856 -266.45358,512.40634 C -184.53554,462.96178 -218.9949,483.03919 -153.72387,451.18245 C -152.57372,450.6211 -151.44321,450.0694 -150.332,449.5272 C -95.381493,422.71456 -87.640931,419.11279 -87.640931,419.11279 M -353.89387,587.72383 C -351.89692,585.71171 -333.23332,561.62691 -305.05825,534.8469 C -294.90201,525.30675 -283.21033,515.48804 -270.62898,506.90355 C -193.66796,456.59374 -220.57771,475.66623 -155.55982,449.73799 C -154.39688,449.29032 -153.25125,448.8535 -152.12263,448.42742 C -99.566718,424.44605 -90.267511,419.76686 -88.765931,417.69989 M -353.87146,586.75441 C -349.87756,582.73015 -334.3128,559.46938 -308.19776,531.0735 C -298.80985,521.08549 -287.45718,510.57372 -274.80437,501.40075 C -202.80038,453.14112 -222.16052,468.29326 -157.39578,448.29353 C -156.22004,447.95954 -155.05929,447.63759 -153.91326,447.32764 C -103.75195,426.17754 -92.894093,420.42093 -89.890921,416.28698 M -353.84904,585.78498 C -347.85819,579.7486 -335.39228,557.31186 -311.33728,527.3001 C -302.71769,516.86423 -291.70402,505.65939 -278.97977,495.89796 C -211.93279,449.6885 -223.74333,460.9203 -159.23173,446.84907 C -158.0432,446.62876 -156.86733,446.42169 -155.70389,446.22786 C -107.93718,427.90903 -95.520673,421.07501 -91.015923,414.87408 M -353.82662,584.81556 C -345.83882,576.76705 -336.47176,555.15434 -314.47679,523.52669 C -306.62553,512.64298 -295.95086,500.74507 -283.15516,490.39516 C -221.06521,446.23588 -225.32614,453.54734 -161.06769,445.40461 C -159.86636,445.29798 -158.67536,445.20578 -157.49452,445.12808 C -112.12241,429.64051 -98.147253,421.72908 -92.140923,413.46117 M -353.80421,583.84613 C -343.81946,573.7855 -337.55124,552.99682 -317.61631,519.75329 C -310.53336,508.42172 -300.19771,495.83075 -287.33055,484.89237 C -230.19763,442.78326 -226.90895,446.17438 -162.90365,443.96015 C -161.68953,443.96719 -160.4834,443.98988 -159.28515,444.02829 C -116.30764,431.372 -100.77383,422.38315 -93.265913,412.04827 M -353.78179,582.87671 C -341.80009,570.80394 -338.63072,550.83929 -320.75582,515.97989 C -314.4412,504.20046 -304.44455,490.91642 -291.50595,479.38957 C -239.33005,439.33064 -228.49176,438.80141 -164.7396,442.51569 C -163.51268,442.63641 -162.29145,442.77398 -161.07578,442.92851 C -120.49287,433.10349 -103.4004,423.03722 -94.390913,410.63536 M -353.75938,581.90728 C -339.78072,567.82239 -339.7102,548.68177 -323.89533,512.20648 C -318.34904,499.97921 -308.69139,486.0021 -295.68135,473.88678 C -248.46246,435.87802 -230.07457,431.42845 -166.57555,441.07123 C -165.33583,441.30563 -164.09948,441.55807 -162.86642,441.82873 C -124.6781,434.83498 -106.02698,423.69129 -95.515903,409.22246 M -353.73696,580.93786 C -337.76136,564.84084 -340.78968,546.52425 -327.03485,508.43308 C -322.25687,495.75795 -312.93823,481.08778 -299.85674,468.38398 C -257.59488,432.4254 -231.65738,424.05549 -168.41151,439.62677 C -167.15899,439.97485 -165.90752,440.34217 -164.65704,440.72895 C -128.86334,436.56647 -108.65356,424.34536 -96.640903,407.80955 M -353.71454,579.96843 C -335.74199,561.85929 -341.86916,544.36673 -330.17436,504.65968 C -326.16471,491.53669 -317.18508,476.17345 -304.03214,462.88119 C -266.7273,428.97278 -233.24019,416.68253 -170.24746,438.18231 C -168.98215,438.64407 -167.71556,439.12626 -166.44767,439.62917 C -133.04857,438.29796 -111.28014,424.99944 -97.765903,406.39665 M -353.69213,578.99901 C -333.72262,558.87773 -342.94864,542.2092 -333.31387,500.88627 C -330.07255,487.31544 -321.43191,471.25913 -308.20753,457.37839 C -275.85972,425.52016 -234.823,409.30956 -172.08342,436.73785 C -170.80531,437.31329 -169.5236,437.91036 -168.2383,438.52939 C -137.2338,440.02945 -113.90672,425.65351 -98.890893,404.98374 M -353.66971,578.02958 C -331.70326,555.89618 -344.02813,540.05168 -336.45339,497.11287 C -333.98038,483.09418 -325.67876,466.3448 -312.38293,451.8756 C -284.99213,422.06754 -236.40581,401.9366 -173.91937,435.29339 C -172.62847,435.98251 -171.33163,436.69445 -170.02893,437.42961 C -141.41903,441.76094 -116.5333,426.30758 -100.01589,403.57084 M -344.68412,599.86906 C -344.68412,599.86906 -310.67084,596.46773 -292.6924,602.78448 C -276.14869,608.59713 -238.5854,622.30092 -203.57546,608.10308 C -200.53924,606.87179 -197.52223,605.43064 -194.5398,603.75629 C -166.84327,588.20736 -135.95301,554.76213 -138.17494,514.34996 C -138.808,502.98775 -140.05805,493.41744 -141.1762,485.38998 C -143.63684,467.72453 -145.45872,457.53068 -138.66084,452.15426 C -128.27854,443.94294 -87.641211,439.034 -87.155031,440.49256 M -345.78844,598.85308 C -345.78844,598.85308 -313.56678,594.76348 -295.35752,599.15907 C -278.69425,603.27092 -242.49443,614.29177 -208.67323,600.11015 C -205.69252,598.84985 -202.73805,597.40427 -199.82334,595.75192 C -169.18155,578.1193 -141.64174,547.98795 -141.55034,509.96261 C -141.66087,499.3499 -142.2036,490.2905 -142.40525,482.50107 C -143.77127,465.916 -144.68335,456.21127 -137.86825,450.95928 C -125.39953,441.75638 -87.906221,437.22298 -87.464241,438.54894 M -346.89277,597.8371 C -346.89277,597.8371 -316.46271,593.05923 -298.02264,595.53366 C -281.23981,597.9447 -246.40346,606.28263 -213.771,592.11721 C -210.84581,590.8279 -207.95388,589.3779 -205.10689,587.74756 C -171.51984,568.03125 -147.33047,541.21377 -144.92573,505.57526 C -144.51374,495.71204 -144.34916,487.16356 -143.63429,479.61216 C -143.90569,464.10748 -143.90797,454.89186 -137.07566,449.76431 C -122.52052,439.56983 -88.171241,435.41196 -87.773451,436.60533 M -347.9971,596.82111 C -347.9971,596.82111 -319.35863,591.35498 -300.68776,591.90826 C -283.78538,592.61848 -250.31248,598.27348 -218.86877,584.12428 C -215.99909,582.80596 -213.1697,581.35154 -210.39043,579.74319 C -173.85812,557.94319 -153.0192,534.43959 -148.30113,501.18791 C -147.36661,492.07418 -146.49471,484.03661 -144.86333,476.72325 C -144.04012,462.29895 -143.1326,453.57245 -136.28307,448.56933 C -119.64152,437.38327 -88.436251,433.60094 -88.082661,434.66171 M -349.10142,595.80513 C -349.10142,595.80513 -322.25457,589.65074 -303.35288,588.28285 C -286.33094,587.29227 -254.22151,590.26434 -223.96654,576.13134 C -221.15238,574.78402 -218.38553,573.32517 -215.67398,571.73883 C -176.1964,547.85513 -158.70793,527.6654 -151.67653,496.80055 C -150.21948,488.43632 -148.64027,480.90967 -146.09237,473.83434 C -144.17455,460.49043 -142.35722,452.25305 -135.49048,447.37436 C -116.76251,435.19672 -88.701261,431.78992 -88.391871,432.7181 M -350.20575,594.78915 C -350.20575,594.78915 -325.15051,587.94649 -306.01801,584.65744 C -288.8765,581.96605 -258.13054,582.2552 -229.06431,568.13841 C -226.30566,566.76208 -223.60135,565.2988 -220.95752,563.73446 C -178.53469,537.76707 -164.39665,520.89122 -155.05192,492.4132 C -153.07235,484.79847 -150.78582,477.78273 -147.32142,470.94543 C -144.30897,458.6819 -141.58185,450.93364 -134.69789,446.17938 C -113.8835,433.01016 -88.966271,429.9789 -88.701081,430.77448 M -351.31008,593.77317 C -351.31008,593.77317 -328.04644,586.24224 -308.68313,581.03203 C -291.42206,576.63983 -262.03957,574.24605 -234.16208,560.14547 C -231.45894,558.74014 -228.81717,557.27244 -226.24107,555.73009 C -180.87297,527.67902 -170.08538,514.11704 -158.42732,488.02585 C -155.92522,481.16061 -152.93138,474.65578 -148.55046,468.05652 C -144.4434,456.87337 -140.80647,449.61423 -133.9053,444.98441 C -111.00449,430.82361 -89.231291,428.16789 -89.010301,428.83087 M -352.41441,592.75719 C -352.41441,592.75719 -330.94237,584.53799 -311.34825,577.40662 C -293.96763,571.31362 -265.9486,566.23691 -239.25985,552.15254 C -236.61223,550.7182 -234.033,549.24607 -231.52461,547.72573 C -183.21125,517.59096 -175.77411,507.34286 -161.80273,483.6385 C -158.77809,477.52275 -155.07693,471.52884 -149.7795,465.16761 C -144.57783,455.06485 -140.0311,448.29482 -133.11272,443.78943 C -108.12548,428.63705 -89.496301,426.35687 -89.319511,426.88725 M -353.51873,591.74121 C -353.51873,591.74121 -333.8383,582.83374 -314.01337,573.78122 C -296.51319,565.9874 -269.85763,558.22777 -244.35762,544.1596 C -241.76551,542.69626 -239.24882,541.2197 -236.80816,539.72136 C -185.54954,507.5029 -181.46284,500.56868 -165.17811,479.25115 C -161.63096,473.88489 -157.22249,468.40189 -151.00854,462.2787 C -144.71225,453.25632 -139.25573,446.97541 -132.32013,442.59446 C -105.24648,426.4505 -89.761311,424.54585 -89.628721,424.94364 M -354.62306,590.72522 C -354.62306,590.72522 -336.73424,581.12949 -316.67849,570.15581 C -299.05875,560.66119 -273.76666,550.21862 -249.45539,536.16667 C -246.91879,534.67432 -244.46464,533.19334 -242.0917,531.717 C -187.88782,497.41485 -187.15157,493.7945 -168.55351,474.8638 C -164.48383,470.24703 -159.36804,465.27495 -152.23759,459.38979 C -144.84668,451.4478 -138.48035,445.65601 -131.52754,441.39948 C -102.36747,424.26394 -90.026321,422.73483 -89.937931,423.00002 M -355.72739,589.70924 C -355.72739,589.70924 -339.63017,579.42524 -319.3436,566.5304 C -301.60431,555.33497 -277.67568,542.20948 -254.55316,528.17373 C -252.07208,526.65238 -249.68046,525.16697 -247.37525,523.71263 C -190.2261,487.32679 -192.8403,487.02032 -171.92891,470.47645 C -167.3367,466.60918 -161.51359,462.14801 -153.46663,456.50088 C -144.98111,449.63927 -137.70498,444.3366 -130.73495,440.20451 C -99.488458,422.07739 -90.291341,420.92381 -90.247141,421.05641 M -356.83171,588.69326 C -356.83171,588.69326 -342.5261,577.721 -322.00873,562.90499 C -304.14987,550.00875 -281.58471,534.20034 -259.65093,520.1808 C -257.22536,518.63044 -254.89629,517.1406 -252.65879,515.70826 C -192.56439,477.23873 -198.52903,480.24613 -175.30431,466.08909 C -170.18957,462.97132 -163.65915,459.02106 -154.69567,453.61197 C -145.11553,447.83075 -136.9296,443.01719 -129.94236,439.00953 C -96.609453,419.89083 -90.556351,419.11279 -90.556351,419.11279"
       style="fill:none;fill-opacity:1;fill-rule:evenodd;stroke:url(#radialGradient8341);stroke-width:3.5999999;stroke-linecap:butt;stroke-linejoin:miter;stroke-miterlimit:4;stroke-dasharray:none;stroke-opacity:1;filter:url(#filter20002)"
       id="path4226"
       clip-path="url(#clipPath21035)"
       transform="translate(440.61386,-352.16947)" />
    <path
       id="path3214"
       style="opacity:0.19230772;fill:none;fill-opacity:1;fill-rule:evenodd;stroke:#ee8128;stroke-width:2.0999999;stroke-linecap:butt;stroke-linejoin:miter;stroke-miterlimit:4;stroke-dasharray:none;stroke-opacity:1;filter:url(#filter18945)"
       d="M -353.37542,587.61152 C -353.37542,587.61152 -331.12707,563.18859 -300.89196,538.02447 C -289.96741,528.93216 -278.62378,518.99682 -265.91271,511.3246 C -183.99467,461.88004 -218.45403,481.95745 -153.18301,450.10071 C -152.03286,449.53936 -150.90235,448.98766 -149.79114,448.44546 C -94.840623,421.63282 -87.100061,418.03105 -87.100061,418.03105 M -353.353,586.64209 C -351.35605,584.62997 -332.69245,560.54517 -304.51738,533.76516 C -294.36114,524.22501 -282.66946,514.4063 -270.08811,505.82181 C -193.12709,455.512 -220.03684,474.58449 -155.01896,448.65625 C -153.85602,448.20858 -152.71039,447.77176 -151.58177,447.34568 C -99.025856,423.36431 -89.726641,418.68512 -88.225061,416.61815 M -353.33059,585.67267 C -349.33669,581.64841 -333.77193,558.38764 -307.65689,529.99176 C -298.26898,520.00375 -286.91631,509.49198 -274.2635,500.31901 C -202.25951,452.05938 -221.61965,467.21152 -156.85492,447.21179 C -155.67918,446.8778 -154.51843,446.55585 -153.3724,446.2459 C -103.21107,425.0958 -92.353223,419.33919 -89.350051,415.20524 M -353.30817,584.70324 C -347.31732,578.66686 -334.85141,556.23012 -310.79641,526.21836 C -302.17682,515.78249 -291.16315,504.57765 -278.4389,494.81622 C -211.39192,448.60676 -223.20246,459.83856 -158.69087,445.76733 C -157.50234,445.54702 -156.32647,445.33995 -155.16303,445.14612 C -107.3963,426.82729 -94.979803,419.99327 -90.475053,413.79234 M -353.28575,583.73382 C -345.29795,575.68531 -335.93089,554.0726 -313.93592,522.44495 C -306.08466,511.56124 -295.40999,499.66333 -282.61429,489.31342 C -220.52434,445.15414 -224.78527,452.4656 -160.52683,444.32287 C -159.3255,444.21624 -158.1345,444.12404 -156.95366,444.04634 C -111.58154,428.55877 -97.606386,420.64734 -91.600053,412.37943 M -353.26334,582.76439 C -343.27859,572.70376 -337.01037,551.91508 -317.07544,518.67155 C -309.99249,507.33998 -299.65684,494.74901 -286.78968,483.81063 C -229.65676,441.70152 -226.36808,445.09264 -162.36278,442.87841 C -161.14866,442.88545 -159.94254,442.90814 -158.74429,442.94655 C -115.76676,430.29026 -100.23296,421.30141 -92.725043,410.96653 M -353.24092,581.79497 C -341.25922,569.7222 -338.08985,549.75755 -320.21495,514.89815 C -313.90033,503.11872 -303.90368,489.83468 -290.96508,478.30783 C -238.78918,438.2489 -227.95089,437.71967 -164.19873,441.43395 C -162.97181,441.55467 -161.75058,441.69224 -160.53492,441.84677 C -119.95199,432.02175 -102.85952,421.95548 -93.850043,409.55362 M -353.21851,580.82554 C -339.23985,566.74065 -339.16933,547.60003 -323.35446,511.12474 C -317.80817,498.89747 -308.15052,484.92036 -295.14048,472.80504 C -247.92159,434.79628 -229.5337,430.34671 -166.03468,439.98949 C -164.79496,440.22389 -163.55861,440.47633 -162.32555,440.74699 C -124.13722,433.75324 -105.4861,422.60955 -94.975033,408.14072 M -353.19609,579.85612 C -337.22049,563.7591 -340.24881,545.44251 -326.49398,507.35134 C -321.716,494.67621 -312.39736,480.00604 -299.31587,467.30224 C -257.05401,431.34366 -231.11651,422.97375 -167.87064,438.54503 C -166.61812,438.89311 -165.36665,439.26043 -164.11617,439.64721 C -128.32247,435.48473 -108.11268,423.26362 -96.100033,406.72781 M -353.17367,578.88669 C -335.20112,560.77755 -341.32829,543.28499 -329.63349,503.57794 C -325.62384,490.45495 -316.64421,475.09171 -303.49127,461.79945 C -266.18643,427.89104 -232.69932,415.60079 -169.70659,437.10057 C -168.44128,437.56233 -167.17469,438.04452 -165.9068,438.54743 C -132.50771,437.21622 -110.73927,423.9177 -97.225033,405.31491 M -353.15126,577.91727 C -333.18175,557.79599 -342.40777,541.12746 -332.773,499.80453 C -329.53168,486.2337 -320.89104,470.17739 -307.66666,456.29665 C -275.31885,424.43842 -234.28213,408.22782 -171.54255,435.65611 C -170.26444,436.23155 -168.98273,436.82862 -167.69743,437.44765 C -136.69294,438.94771 -113.36584,424.57177 -98.350026,403.902 M -353.12884,576.94784 C -331.16239,554.81444 -343.48726,538.96994 -335.91252,496.03113 C -333.43951,482.01244 -325.13789,465.26306 -311.84206,450.79386 C -284.45126,420.9858 -235.86494,400.85486 -173.3785,434.21165 C -172.0876,434.90077 -170.79076,435.61271 -169.48806,436.34787 C -140.87817,440.6792 -115.99242,425.22584 -99.475016,402.4891 M -344.14325,598.78732 C -344.14325,598.78732 -310.12997,595.38599 -292.15153,601.70274 C -275.60782,607.51539 -238.04453,621.21918 -203.03459,607.02134 C -199.99837,605.79005 -196.98136,604.3489 -193.99893,602.67455 C -166.3024,587.12562 -135.41215,553.68039 -137.63408,513.26822 C -138.26714,501.90601 -139.51719,492.3357 -140.63534,484.30824 C -143.09598,466.64279 -144.91786,456.44894 -138.11998,451.07252 C -127.73767,442.8612 -87.100341,437.95226 -86.614161,439.41082 M -345.24757,597.77134 C -345.24757,597.77134 -313.02591,593.68174 -294.81665,598.07733 C -278.15338,602.18918 -241.95356,613.21003 -208.13236,599.02841 C -205.15165,597.76811 -202.19718,596.32253 -199.28247,594.67018 C -168.64068,577.03756 -141.10088,546.90621 -141.00948,508.88087 C -141.12001,498.26816 -141.66274,489.20876 -141.86439,481.41933 C -143.23041,464.83426 -144.14249,455.12953 -137.32739,449.87754 C -124.85865,440.67464 -87.365351,436.14124 -86.923371,437.4672 M -346.3519,596.75536 C -346.3519,596.75536 -315.92184,591.97749 -297.48177,594.45192 C -280.69894,596.86296 -245.86259,605.20089 -213.23013,591.03547 C -210.30494,589.74616 -207.41301,588.29616 -204.56602,586.66582 C -170.97897,566.94951 -146.78961,540.13203 -144.38487,504.49352 C -143.97288,494.6303 -143.8083,486.08182 -143.09343,478.53042 C -143.36483,463.02574 -143.36711,453.81012 -136.5348,448.68257 C -121.97964,438.48809 -87.630371,434.33022 -87.232581,435.52359 M -347.45623,595.73937 C -347.45623,595.73937 -318.81776,590.27324 -300.14689,590.82652 C -283.24451,591.53674 -249.77161,597.19174 -218.3279,583.04254 C -215.45822,581.72422 -212.62883,580.2698 -209.84956,578.66145 C -173.31725,556.86145 -152.47834,533.35785 -147.76027,500.10617 C -146.82575,490.99244 -145.95385,482.95487 -144.32247,475.64151 C -143.49926,461.21721 -142.59174,452.49071 -135.74221,447.48759 C -119.10064,436.30153 -87.895381,432.5192 -87.541791,433.57997 M -348.56055,594.72339 C -348.56055,594.72339 -321.7137,588.569 -302.81201,587.20111 C -285.79007,586.21053 -253.68064,589.1826 -223.42567,575.0496 C -220.61151,573.70228 -217.84466,572.24343 -215.13311,570.65709 C -175.65553,546.77339 -158.16707,526.58366 -151.13567,495.71881 C -149.67862,487.35458 -148.09941,479.82793 -145.55151,472.7526 C -143.63369,459.40869 -141.81636,451.17131 -134.94962,446.29262 C -116.22163,434.11498 -88.160391,430.70818 -87.851001,431.63636 M -349.66488,593.70741 C -349.66488,593.70741 -324.60964,586.86475 -305.47714,583.5757 C -288.33563,580.88431 -257.58967,581.17346 -228.52344,567.05667 C -225.76479,565.68034 -223.06048,564.21706 -220.41665,562.65272 C -177.99382,536.68533 -163.85578,519.80948 -154.51106,491.33146 C -152.53149,483.71673 -150.24496,476.70099 -146.78056,469.86369 C -143.76811,457.60016 -141.04099,449.8519 -134.15703,445.09764 C -113.34262,431.92842 -88.425401,428.89716 -88.160211,429.69274 M -350.76921,592.69143 C -350.76921,592.69143 -327.50557,585.1605 -308.14226,579.95029 C -290.88119,575.55809 -261.4987,573.16431 -233.62121,559.06373 C -230.91807,557.6584 -228.2763,556.1907 -225.7002,554.64835 C -180.3321,526.59728 -169.54451,513.0353 -157.88646,486.94411 C -155.38436,480.07887 -152.39052,473.57404 -148.0096,466.97478 C -143.90254,455.79163 -140.26561,448.53249 -133.36444,443.90267 C -110.46362,429.74187 -88.690421,427.08615 -88.469431,427.74913 M -351.87354,591.67545 C -351.87354,591.67545 -330.4015,583.45625 -310.80738,576.32488 C -293.42676,570.23188 -265.40773,565.15517 -238.71898,551.0708 C -236.07136,549.63646 -233.49213,548.16433 -230.98374,546.64399 C -182.67038,516.50922 -175.23324,506.26112 -161.26186,482.55676 C -158.23723,476.44101 -154.53607,470.4471 -149.23864,464.08587 C -144.03697,453.98311 -139.49024,447.21308 -132.57186,442.70769 C -107.5846,427.55531 -88.955431,425.27513 -88.778641,425.80551 M -352.97786,590.65947 C -352.97786,590.65947 -333.29743,581.752 -313.4725,572.69948 C -295.97232,564.90566 -269.31676,557.14603 -243.81675,543.07786 C -241.22464,541.61452 -238.70795,540.13796 -236.26729,538.63962 C -185.00867,506.42116 -180.92197,499.48694 -164.63724,478.16941 C -161.0901,472.80315 -156.68163,467.32015 -150.46768,461.19696 C -144.17139,452.17458 -138.71487,445.89367 -131.77926,441.51272 C -104.7056,425.36876 -89.220441,423.46411 -89.087851,423.8619 M -354.08219,589.64348 C -354.08219,589.64348 -336.19337,580.04775 -316.13762,569.07407 C -298.51788,559.57945 -273.22579,549.13688 -248.91452,535.08493 C -246.37792,533.59258 -243.92377,532.1116 -241.55083,530.63526 C -187.34695,496.33311 -186.6107,492.71276 -168.01264,473.78206 C -163.94296,469.16529 -158.82718,464.19321 -151.69673,458.30805 C -144.30582,450.36606 -137.93949,444.57427 -130.98667,440.31774 C -101.82659,423.1822 -89.485451,421.65309 -89.397061,421.91828 M -355.18652,588.6275 C -355.18652,588.6275 -339.0893,578.3435 -318.80273,565.44866 C -301.06344,554.25323 -277.13481,541.12774 -254.01229,527.09199 C -251.53121,525.57064 -249.13959,524.08523 -246.83438,522.63089 C -189.68523,486.24505 -192.29943,485.93858 -171.38804,469.39471 C -166.79583,465.52744 -160.97273,461.06627 -152.92577,455.41914 C -144.44025,448.55753 -137.16412,443.25486 -130.19408,439.12277 C -98.947596,420.99565 -89.750471,419.84207 -89.706271,419.97467 M -356.29084,587.61152 C -356.29084,587.61152 -341.98523,576.63926 -321.46786,561.82325 C -303.609,548.92701 -281.04384,533.1186 -259.11006,519.09906 C -256.68449,517.5487 -254.35542,516.05886 -252.11792,514.62652 C -192.02352,476.15699 -197.98816,479.16439 -174.76344,465.00735 C -169.6487,461.88958 -163.11828,457.93932 -154.15481,452.53023 C -144.57467,446.74901 -136.38874,441.93545 -129.40149,437.92779 C -96.068583,418.80909 -90.015481,418.03105 -90.015481,418.03105"
       sodipodi:nodetypes="cssssccccccccccccccccccccccccccccccccccccccccccccccccccccccccccccccssscccssscssccccccccccccccccccccccccccccccccccccccccccccccccccccccccccccccccccccccccccccccccccssssssc"
       clip-path="url(#clipPath21031)"
       transform="translate(440.61386,-352.16947)" />
    <path
       sodipodi:type="arc"
       style="opacity:0.83846154;color:#000000;fill:url(#radialGradient12060);fill-opacity:1;fill-rule:evenodd;stroke:none;stroke-width:2.0999999;stroke-linecap:round;stroke-linejoin:miter;marker:none;marker-start:none;marker-mid:none;marker-end:none;stroke-miterlimit:4;stroke-dasharray:none;stroke-dashoffset:0;stroke-opacity:1;visibility:visible;display:inline;overflow:visible;enable-background:accumulate"
       id="path11083"
       sodipodi:cx="-240.68752"
       sodipodi:cy="513.11395"
       sodipodi:rx="47.055763"
       sodipodi:ry="34.615734"
       d="M -193.63175 513.11395 A 47.055763 34.615734 0 1 1  -287.74328,513.11395 A 47.055763 34.615734 0 1 1  -193.63175 513.11395 z"
       transform="translate(440.22593,-391.96957)"
       clip-path="url(#clipPath21027)" />
    <path
       style="opacity:0.18846154;fill:#7d2900;fill-opacity:1;fill-rule:evenodd;stroke:none;stroke-width:1px;stroke-linecap:butt;stroke-linejoin:miter;stroke-opacity:1;filter:url(#filter21009)"
       d="M -345.61646,496.34697 C -345.61646,496.34697 -339.66688,533.12619 -346.6982,544.48448 C -353.72952,555.84276 -347.77994,583.42718 -347.77994,583.42718 C -347.77994,583.42718 -323.44075,606.68462 -309.37811,608.84811 C -295.31547,611.01159 -258.53625,626.69684 -258.53625,626.69684 C -258.53625,626.69684 -272.05803,608.30723 -295.85634,590.4585 C -319.65466,572.60976 -322.35901,560.16973 -326.14511,549.89319 C -329.9312,539.61664 -335.88078,541.23925 -338.04427,530.42184 C -340.20775,519.60442 -345.07559,496.34697 -345.61646,496.34697 z "
       id="path20030"
       clip-path="url(#clipPath21023)"
       transform="translate(440.61386,-352.16947)" />
    <path
       style="opacity:0.18846154;color:#000000;fill:#7d2900;fill-opacity:1;fill-rule:evenodd;stroke:none;stroke-width:1px;stroke-linecap:butt;stroke-linejoin:miter;marker:none;marker-start:none;marker-mid:none;marker-end:none;stroke-miterlimit:4;stroke-dasharray:none;stroke-dashoffset:0;stroke-opacity:1;visibility:visible;display:inline;overflow:visible;filter:url(#filter21009);enable-background:accumulate"
       d="M -187.68218,422.24767 C -187.68218,422.24767 -198.2648,440.25074 -181.97816,459.62546 C -163.306,481.838 -149.28035,486.61129 -140.62642,484.44781 C -131.97248,482.28433 -114.66462,472.54865 -114.66462,472.54865 L -95.734136,446.58685 L -115.20549,420.08418 L -187.68218,422.24767 z "
       id="path21013"
       transform="matrix(1.0935293,0,0,1.2175251,457.68087,-450.03877)"
       sodipodi:nodetypes="csscccc"
       clip-path="url(#clipPath21019)" />
    <path
       style="color:#000000;fill:none;fill-opacity:1;fill-rule:evenodd;stroke:#3b0606;stroke-width:12.70199966;stroke-linecap:round;stroke-linejoin:miter;marker:none;marker-start:none;marker-mid:none;marker-end:none;stroke-miterlimit:4;stroke-dasharray:none;stroke-dashoffset:0;stroke-opacity:1;visibility:visible;display:inline;overflow:visible;filter:url(#filter20026);enable-background:accumulate"
       d="M -240.25,417.875 C -289.72216,417.93671 -335.81417,460.28161 -337.74861,510.12313 C -338.09847,527.74883 -337.0659,545.81565 -341.7826,562.85701 C -346.03505,578.96246 -332.37056,594.25035 -317.46875,598.25 C -307.56983,602.49141 -295.91779,598.89248 -286.09375,603.34375 C -245.64267,627.03839 -188.46512,616.05066 -159.3125,579.03125 C -137.24899,552.20242 -130.80523,513.417 -143.78125,481.25 C -147.31138,470.71439 -146.80231,456.73486 -136.59375,450.0625 C -130.21633,444.56284 -118.93245,445.75133 -115.03125,437.5 C -119.4352,435.98182 -122.3089,430.51564 -127.65625,432.375 C -135.95398,434.36937 -142.25037,441.5089 -151.1875,441.46875 C -158.72593,442.25943 -167.25401,443.16153 -174.21701,440.09236 C -192.63375,425.12827 -216.53433,417.21663 -240.25,417.875 z "
       id="path13031"
       clip-path="url(#clipPath21015)"
       transform="translate(440.61386,-352.16947)" />
    <path
       style="opacity:1;color:#000000;fill:url(#radialGradient7342);fill-opacity:1;fill-rule:evenodd;stroke:none;stroke-width:0.60000002;stroke-linecap:butt;stroke-linejoin:miter;marker:none;marker-start:none;marker-mid:none;marker-end:none;stroke-miterlimit:4;stroke-dasharray:none;stroke-dashoffset:0;stroke-opacity:1;visibility:visible;display:inline;overflow:visible;enable-background:accumulate"
       d="M 98.113861,216.79928 L 97.270111,218.17428 C 97.265061,218.44954 97.231421,218.71515 97.207611,218.98678 L 96.738861,219.73678 C 96.444881,220.65484 96.122711,221.57033 95.832611,222.48678 C 95.749091,222.60159 95.667131,222.71643 95.582611,222.83053 C 95.568261,222.84797 95.565691,222.87556 95.551361,222.89303 C 94.288071,223.04718 93.020521,223.19249 91.738861,223.01803 C 91.101861,222.86528 90.570271,222.55451 90.051361,222.17428 L 89.332611,223.64303 C 89.875241,224.03369 90.453071,224.35634 91.113861,224.51803 C 91.413541,224.56104 91.691471,224.56962 91.988861,224.58053 C 91.967091,224.60492 91.948141,224.64986 91.926361,224.67428 L 91.707611,225.42428 C 91.625271,225.43723 91.539861,225.44199 91.457611,225.45553 C 91.315971,225.37387 91.161441,225.29667 91.020111,225.20553 C 90.805361,225.02629 90.563041,224.89469 90.332611,224.73678 L 90.426361,224.45553 C 90.362291,224.52685 90.303641,224.60363 90.238861,224.67428 C 90.164401,224.62334 90.093981,224.56967 90.020111,224.51803 C 89.772311,224.34476 89.507831,224.18683 89.238861,224.04928 C 88.855821,223.79648 88.433071,223.74012 87.988861,223.70553 C 87.726061,223.70654 87.470201,223.72644 87.207611,223.73678 C 87.128711,223.73885 87.036511,223.73605 86.957611,223.73678 L 86.332611,225.23678 C 86.412421,225.2364 86.502811,225.23816 86.582611,225.23678 C 86.842501,225.22716 87.103971,225.2148 87.363861,225.20553 C 87.787431,225.23028 88.187051,225.27427 88.551361,225.51803 C 88.811771,225.65159 89.093891,225.7852 89.332611,225.95553 C 89.375391,225.98531 89.414631,226.01976 89.457611,226.04928 L 89.238861,226.73678 C 89.390331,226.56791 89.555461,226.40549 89.707611,226.23678 C 89.769541,226.27946 89.833751,226.3183 89.895111,226.36178 L 89.551361,227.20553 C 89.972211,227.11369 90.409121,227.05806 90.832611,226.98678 C 91.103651,227.13903 91.370181,227.24764 91.645111,227.36178 C 91.590791,227.41098 91.544011,227.46966 91.488861,227.51803 C 91.167481,227.74537 91.057301,227.65722 90.738861,227.51803 C 90.462381,227.38874 90.218961,227.4716 89.957611,227.51803 C 89.581941,227.71447 89.174361,227.83319 88.770111,227.95553 C 88.332031,228.09937 87.873161,228.20506 87.426361,228.29928 L 86.832611,229.79928 C 87.296291,229.73054 87.757801,229.62716 88.207611,229.45553 C 88.623181,229.33302 89.029461,229.22034 89.426361,229.04928 C 89.649301,228.97668 89.789151,228.83827 90.051361,228.95553 C 90.384711,229.11394 90.600231,229.25797 90.957611,229.04928 C 91.481631,228.60879 91.968171,228.11865 92.426361,227.61178 C 92.836841,227.71856 93.244991,227.80284 93.676361,227.79928 C 93.638941,227.90906 93.605141,228.02876 93.582611,228.14303 C 92.525421,229.55702 91.354391,230.89403 89.957611,231.98678 C 89.466751,232.34805 89.773431,231.97315 89.426361,231.92428 C 89.228031,231.8545 88.995261,231.90021 88.801361,231.92428 L 88.145111,233.39303 C 88.328131,233.38066 88.543871,233.39179 88.738861,233.36178 C 89.033831,233.54227 89.040201,233.76713 89.457611,233.51803 C 89.729091,233.3141 89.982591,233.08214 90.238861,232.86178 L 89.676361,234.36178 C 91.419711,233.67577 91.777231,233.50432 92.301361,233.20553 C 92.303821,233.22634 92.298641,233.24723 92.301361,233.26803 L 92.363861,233.17428 C 92.615001,233.02985 93.006231,232.79792 93.645111,232.42428 C 93.519821,232.90695 93.409331,233.40775 93.332611,233.89303 C 93.448961,233.72786 93.560591,233.58983 93.676361,233.42428 C 93.576281,233.66799 93.280081,234.37435 93.301361,234.11178 C 93.311751,234.04069 93.321341,233.96432 93.332611,233.89303 C 93.273661,233.97672 93.235211,234.05928 93.176361,234.14303 C 93.119431,234.26209 92.981961,234.33633 92.895111,234.42428 L 92.332611,235.92428 C 92.437851,235.84911 92.624851,235.86343 92.676361,235.70553 C 92.853211,235.45487 93.045111,235.18982 93.238861,234.95553 C 93.583111,234.24058 94.151731,233.55845 94.176361,232.73678 C 94.232841,232.38483 94.225391,232.21818 94.238861,232.01803 C 94.716911,231.60122 95.188531,231.15985 95.613861,230.70553 C 95.663021,230.88207 95.716241,231.05059 95.801361,231.20553 C 95.641581,231.45841 95.516241,231.70821 95.363861,231.95553 C 95.205521,232.01912 95.029531,232.05881 94.863861,232.11178 L 94.301361,233.64303 C 94.324081,233.63652 94.341271,233.61848 94.363861,233.61178 C 94.234481,233.90617 94.244681,233.85883 94.145111,234.08053 C 94.112071,234.10719 94.084281,234.14797 94.051361,234.17428 L 93.863861,234.73678 C 93.836961,234.79502 93.793791,234.87329 93.770111,234.92428 C 93.623721,234.98295 93.595231,234.9989 93.238861,235.14303 L 92.676361,236.64303 C 92.962951,236.5322 92.970741,236.54084 93.113861,236.48678 C 93.034541,236.74452 92.944281,237.09777 92.738861,237.83053 L 93.613861,236.48678 C 93.637611,236.40585 93.652611,236.31771 93.676361,236.23678 C 93.856311,236.14877 94.051521,236.03731 94.801361,235.61178 C 95.065201,235.41114 95.322991,235.19498 95.582611,234.98678 L 95.238861,236.04928 C 95.342031,235.94406 95.447681,235.84179 95.551361,235.73678 C 95.388651,236.09451 95.439751,235.96204 95.113861,236.67428 L 95.582611,235.98678 C 96.412961,235.95635 96.515631,235.95159 96.895111,235.89303 C 96.311271,237.12832 96.094911,237.54231 95.988861,237.83053 C 95.970251,237.84445 95.944841,237.84763 95.926361,237.86178 L 95.457611,239.39303 C 95.561701,239.29365 95.688191,239.23012 95.801361,239.14303 L 95.645111,239.67428 C 95.744501,239.45163 95.841551,239.22815 95.957611,239.01803 C 96.311421,238.76921 96.685291,238.52347 97.082611,238.33053 C 97.080741,238.37208 97.084021,238.41381 97.082611,238.45553 C 97.118251,238.85322 97.171981,239.24535 97.207611,239.64303 L 98.020111,238.26803 C 98.010661,238.1435 97.998321,238.01756 97.988861,237.89303 C 98.175041,237.80122 98.371361,237.71377 98.551361,237.61178 C 98.663451,237.54119 98.755291,237.46694 98.863861,237.39303 C 98.985051,237.57404 99.094701,237.74425 99.176361,237.89303 C 98.975481,238.28359 98.719851,238.7749 98.613861,239.01803 C 98.596021,239.14649 98.621171,239.26771 98.613861,239.39303 C 97.732761,240.15092 96.848061,240.8955 95.926361,241.61178 C 95.673631,241.79829 95.397841,241.98775 95.145111,242.17428 L 94.645111,243.70553 C 94.899141,243.51946 95.141091,243.3291 95.395111,243.14303 C 96.509251,242.28104 97.585481,241.37382 98.645111,240.45553 C 98.723871,240.95949 98.866241,241.45937 99.051361,241.95553 C 98.725181,242.22057 98.358711,242.43079 97.926361,242.58053 L 97.332611,244.08053 C 98.194621,243.83307 98.794191,243.35509 99.363861,242.64303 C 99.916361,241.70818 100.4342,240.64518 100.92636,239.58053 C 100.95677,239.65988 101.03231,239.78183 101.05136,239.83053 L 100.58261,241.33053 C 100.67775,241.23439 100.76871,241.1454 100.86386,241.04928 C 101.01598,240.85149 101.12804,240.628 101.27011,240.42428 C 101.27157,240.42771 101.29986,240.42077 101.30136,240.42428 L 101.30136,240.48678 C 101.34485,240.58882 101.34864,240.5846 101.42636,240.76803 L 101.89511,239.95553 C 102.05419,240.0271 102.23204,240.10089 102.42636,240.14303 C 102.41742,240.16583 102.40397,240.18284 102.39511,240.20553 C 102.27956,240.35886 102.17277,240.51244 102.05136,240.67428 L 101.77011,241.58053 C 100.13974,242.37842 100.5847,242.05769 98.988861,243.26803 L 98.488861,244.79928 C 100.19878,243.4562 99.224431,244.11188 101.52011,242.92428 C 101.67757,242.88615 101.83002,242.86626 101.98886,242.83053 C 102.03644,242.93792 102.09242,243.03765 102.14511,243.14303 L 101.64511,244.51803 C 102.5115,243.94193 102.05858,244.29958 103.02011,243.39303 C 103.23862,243.12858 103.45885,242.84106 103.67636,242.51803 C 103.79089,242.49987 103.90521,242.47209 104.02011,242.45553 C 104.02452,242.49614 104.0153,242.53995 104.02011,242.58053 L 104.11386,242.45553 C 104.18709,242.44526 104.25925,242.43387 104.33261,242.42428 C 104.11309,242.95922 103.90063,243.48746 103.70761,244.04928 C 103.71829,244.38183 103.72819,244.71677 103.73886,245.04928 L 104.55136,243.67428 C 104.55075,243.34803 104.55198,243.0318 104.55136,242.70553 C 104.35745,242.8156 104.42155,242.67437 104.61386,242.39303 C 105.14311,242.3304 105.67517,242.25945 106.20761,242.23678 C 106.09722,243.34312 106.07333,244.47927 105.98886,245.61178 L 106.83261,244.23678 C 106.87405,243.6044 106.89898,242.89991 106.92636,242.20553 C 108.79794,242.19546 110.64328,242.47619 112.39511,243.17428 L 113.08261,241.73678 C 112.17935,241.37409 111.24953,241.11344 110.30136,240.95553 L 110.58261,240.26803 C 110.39743,240.23463 110.2056,240.20379 110.02011,240.17428 C 109.86133,240.07964 109.70056,239.96895 109.55136,239.86178 C 109.47749,239.76643 109.40793,239.67626 109.30136,239.58053 C 109.11486,239.46649 108.92442,239.35228 108.73886,239.23678 L 109.02011,238.64303 C 108.637,238.64461 108.28306,238.67026 107.95761,238.73678 C 108.03419,238.42239 108.11987,238.09184 108.14511,237.76803 L 107.67636,238.54928 C 107.60609,238.50423 107.52777,238.4695 107.45761,238.42428 L 107.70761,237.67428 C 107.55932,237.8835 107.45395,238.11666 107.33261,238.33053 C 107.28188,238.29774 107.22704,238.26966 107.17636,238.23678 C 107.09465,237.87393 107.00176,237.50765 106.92636,237.14303 L 106.64511,237.64303 C 106.57018,237.30227 106.50046,236.95273 106.42636,236.61178 L 106.55136,236.14303 C 106.70986,235.78831 106.85716,235.44535 106.98886,235.08053 L 106.30136,236.17428 C 106.25052,235.9362 106.19377,235.69407 106.14511,235.45553 L 105.55136,236.42428 C 105.52979,236.38243 105.50988,236.34139 105.48886,236.29928 L 105.52011,236.23678 L 105.55136,236.17428 L 105.61386,236.08053 C 105.44206,235.43015 105.26039,234.77109 105.11386,234.11178 C 105.23668,233.84325 105.2456,233.82153 105.52011,233.23678 L 105.05136,233.92428 C 104.98727,233.6145 104.95937,233.30147 104.92636,232.98678 L 104.20761,234.17428 C 103.83565,233.4495 103.79383,233.35338 103.58261,233.04928 L 104.02011,232.01803 C 103.95584,232.0576 103.89565,232.10178 103.83261,232.14303 C 103.93939,231.85135 104.03934,231.56015 104.14511,231.26803 L 103.36386,232.45553 C 103.21696,232.56482 103.06835,232.68298 102.92636,232.79928 C 102.87295,232.6963 102.82423,232.58935 102.77011,232.48678 C 102.7997,232.42523 102.83625,232.35956 102.86386,232.29928 C 103.04679,232.09045 103.23956,231.88457 103.45761,231.70553 L 104.02011,230.20553 C 103.3576,230.65457 102.87077,231.27763 102.45761,231.95553 C 102.41321,231.87407 102.37753,231.78669 102.33261,231.70553 C 102.43223,231.46818 102.51374,231.22391 102.61386,230.98678 C 102.80961,230.89343 103.0028,230.82104 103.20761,230.73678 L 103.77011,229.20553 C 103.15802,229.44988 102.58893,229.75656 102.05136,230.08053 C 102.06676,229.38381 102.08326,228.68426 102.08261,227.98678 L 102.42636,226.92428 C 102.07639,227.45898 101.7467,228.0108 101.45761,228.58053 C 101.41928,228.23688 101.32047,228.24968 101.08261,228.98678 L 101.33261,228.20553 C 101.40031,228.15888 101.45083,228.09489 101.52011,228.04928 L 102.05136,226.54928 C 101.4824,226.92687 100.96587,227.32627 100.48886,227.76803 C 100.46234,227.63468 100.4483,227.49603 100.42636,227.36178 L 100.92636,225.83053 C 100.63115,226.24468 100.37298,226.66053 100.14511,227.11178 L 100.58261,225.98678 C 100.14968,226.28401 99.702251,226.56075 99.238861,226.79928 C 99.194261,226.72825 99.158171,226.65179 99.113861,226.58053 C 99.230751,226.33646 99.350561,226.11172 99.457611,225.86178 L 99.051361,226.48678 C 98.960251,226.33949 98.859161,226.19778 98.770111,226.04928 C 98.804301,225.97832 98.830521,225.90194 98.863861,225.83053 C 99.308541,225.43639 99.736021,225.0484 100.14511,224.61178 L 100.67636,223.08053 C 100.33027,223.43416 99.948121,223.7516 99.582611,224.08053 C 100.10393,222.61585 100.50707,221.10968 100.70761,219.51803 L 99.832611,220.86178 C 99.736981,222.23845 99.456201,223.43298 99.051361,224.54928 C 98.966891,224.62119 98.886671,224.69719 98.801361,224.76803 L 98.863861,224.54928 L 99.113861,224.08053 C 99.087591,224.03627 99.046281,223.99992 99.020111,223.95553 L 99.238861,223.48678 C 99.114911,223.53377 98.987221,223.56514 98.863861,223.61178 C 98.838071,223.56705 98.795681,223.53167 98.770111,223.48678 L 99.113861,222.73678 C 99.040681,222.72872 98.968141,222.71162 98.895111,222.70553 L 98.957611,222.48678 C 98.915901,222.56066 98.874941,222.63226 98.832611,222.70553 C 98.666851,222.6929 98.497661,222.67798 98.332611,222.67428 C 98.262391,222.53697 98.179601,222.4074 98.113861,222.26803 C 98.095781,221.91843 98.076011,221.55423 98.020111,221.20553 L 97.801361,221.54928 C 97.712111,221.32051 97.621981,221.06641 97.551361,220.83053 L 97.957611,219.51803 C 97.886851,219.61359 97.808921,219.70321 97.738861,219.79928 C 97.970011,218.82444 98.106661,217.81792 98.113861,216.79928 z M 97.113861,219.86178 C 97.104371,219.92262 97.124151,219.9886 97.113861,220.04928 L 97.020111,220.17428 C 97.057011,220.07165 97.077081,219.96446 97.113861,219.86178 z M 93.363861,221.20553 C 93.355991,221.20832 92.941741,221.36378 92.926361,221.33053 L 92.363861,222.83053 C 92.509431,222.80035 92.661621,222.75294 92.801361,222.70553 L 93.363861,221.20553 z M 96.426361,222.54928 C 96.427601,222.56995 96.425031,222.59112 96.426361,222.61178 C 96.405941,222.67402 96.384781,222.73717 96.363861,222.79928 C 96.360961,222.73747 96.363521,222.67383 96.363861,222.61178 C 96.380631,222.58798 96.409601,222.57308 96.426361,222.54928 z M 95.238861,224.33053 C 95.300331,224.32316 95.364861,224.33774 95.426361,224.33053 C 95.373211,224.536 95.344751,224.64154 95.301361,224.79928 C 95.269141,224.8076 95.239901,224.82238 95.207611,224.83053 C 95.219211,224.78887 95.228611,224.74767 95.238861,224.70553 L 95.145111,224.83053 C 95.071871,224.84877 94.999991,224.87568 94.926361,224.89303 C 94.929311,224.85724 94.956471,224.79136 94.957611,224.76803 C 94.956671,224.74719 94.958561,224.72637 94.957611,224.70553 C 94.927661,224.76624 94.870211,224.83028 94.832611,224.89303 C 94.771861,224.90702 94.706151,224.91093 94.645111,224.92428 C 94.798261,224.73497 94.958131,224.54782 95.113861,224.36178 L 94.957611,224.64303 C 94.958561,224.66387 94.956661,224.68469 94.957611,224.70553 C 95.051071,224.57584 95.139351,224.45502 95.238861,224.33053 z M 96.457611,224.33053 C 96.473911,224.37483 96.503331,224.41145 96.520111,224.45553 C 96.476111,224.46963 96.439181,224.50417 96.395111,224.51803 L 96.457611,224.33053 z M 94.270111,224.45553 C 94.085381,224.68623 93.895671,224.91512 93.707611,225.14303 C 93.665001,225.14967 93.625401,225.168 93.582611,225.17428 C 93.120561,225.22696 92.666631,225.29593 92.207611,225.36178 C 92.282841,225.28085 92.350721,225.19254 92.426361,225.11178 L 92.582611,224.58053 C 93.149281,224.56975 93.706511,224.51919 94.270111,224.45553 z M 95.613861,224.64303 C 95.620121,224.66459 95.638301,224.68418 95.645111,224.70553 C 95.622911,224.71169 95.604841,224.73069 95.582611,224.73678 C 95.595591,224.70726 95.602201,224.67265 95.613861,224.64303 z M 97.176361,225.98678 C 97.182851,225.99941 97.201101,226.00541 97.207611,226.01803 C 97.177371,226.04001 97.144171,226.05864 97.113861,226.08053 C 97.138341,226.05282 97.152251,226.01488 97.176361,225.98678 z M 94.426361,227.70553 C 94.456561,227.70054 94.489771,227.71113 94.520111,227.70553 C 94.466361,227.79615 94.441101,227.87575 94.395111,227.95553 C 94.361321,227.99606 94.335611,228.04004 94.301361,228.08053 L 94.301361,228.11178 C 94.241711,228.16773 94.171451,228.20995 94.113861,228.26803 C 94.227371,228.08597 94.317151,227.89017 94.426361,227.70553 z M 96.863861,227.73678 C 96.872811,227.78957 96.885581,227.84036 96.895111,227.89303 C 96.810511,227.93221 96.729381,227.97818 96.645111,228.01803 C 96.722411,227.92734 96.784761,227.82599 96.863861,227.73678 z M 101.08261,228.39303 C 100.99848,228.59889 100.92624,228.80903 100.86386,229.01803 C 100.83705,229.05292 100.79713,229.07704 100.77011,229.11178 C 100.74561,229.00774 100.7324,228.90326 100.70761,228.79928 L 100.77011,228.64303 C 100.87399,228.56163 100.97475,228.47172 101.08261,228.39303 z M 95.113861,228.61178 C 95.235751,228.61402 95.322741,228.69956 95.363861,228.89303 C 94.849201,229.49301 94.452641,230.19095 94.145111,230.92428 C 93.636711,231.22757 93.313691,231.41116 93.082611,231.54928 C 92.975181,230.42423 92.967811,230.33504 93.832611,229.61178 L 93.832611,229.58053 C 93.842471,229.56909 93.854051,229.56072 93.863861,229.54928 C 94.062371,229.38321 94.248041,229.25544 94.551361,228.98678 C 94.744171,228.86388 94.922271,228.73663 95.113861,228.61178 z M 97.082611,229.04928 L 97.051361,229.11178 C 97.042801,229.09998 97.028641,229.09236 97.020111,229.08053 C 97.041521,229.07109 97.061211,229.05873 97.082611,229.04928 z M 95.457611,229.79928 C 95.458871,229.80948 95.456341,229.82032 95.457611,229.83053 C 95.284401,229.99696 95.109081,230.16539 94.926361,230.33053 C 95.055091,230.17622 95.140161,230.09544 95.332611,229.86178 C 95.373481,229.83995 95.416521,229.82066 95.457611,229.79928 z M 92.895111,230.01803 C 92.589581,230.63667 92.410411,231.30526 92.332611,231.98678 C 91.973111,232.17216 91.653201,232.30623 90.270111,232.86178 C 91.255151,232.0122 92.111411,231.05743 92.895111,230.01803 z M 102.23886,231.17428 C 102.20492,231.24638 102.17834,231.32061 102.14511,231.39303 C 102.11936,231.34747 102.07729,231.31348 102.05136,231.26803 C 102.11216,231.23492 102.17715,231.20647 102.23886,231.17428 z M 96.988861,232.39303 C 97.009411,232.4345 97.032231,232.47634 97.051361,232.51803 C 96.985161,232.65565 96.979711,232.68846 96.926361,232.79928 C 96.597331,233.08545 96.234131,233.33972 95.895111,233.61178 C 96.281021,233.2206 96.637731,232.81056 96.988861,232.39303 z M 97.488861,233.76803 C 97.538311,233.96523 97.564661,234.15548 97.613861,234.36178 C 97.302791,234.41232 96.944591,234.44626 96.770111,234.45553 C 97.004631,234.21897 97.255871,234.0063 97.488861,233.76803 z M 98.707611,233.98678 C 98.718091,234.0071 98.728251,234.02901 98.738861,234.04928 C 98.698651,234.06254 98.654371,234.06761 98.613861,234.08053 C 98.642591,234.04676 98.678581,234.02024 98.707611,233.98678 z M 104.14511,234.76803 C 104.16396,234.87346 104.18606,234.97559 104.20761,235.08053 C 104.17792,235.12315 104.14318,235.16268 104.11386,235.20553 C 104.09563,235.16432 104.06981,235.12103 104.05136,235.08053 L 104.14511,234.76803 z M 99.988861,235.08053 C 100.0235,235.15917 100.07486,235.22512 100.11386,235.29928 L 100.11386,235.33053 C 100.00086,235.42385 99.886551,235.52197 99.770111,235.61178 L 99.957611,235.33053 C 99.956801,235.25727 99.957531,235.18503 99.957611,235.11178 L 99.988861,235.08053 z M 99.270111,235.17428 L 99.176361,235.29928 C 99.159981,235.40085 99.155321,235.51005 99.145111,235.61178 C 98.933301,235.66931 98.727641,235.74513 98.613861,235.83053 C 98.773701,235.64862 98.927421,235.45255 99.082611,235.26803 C 99.148771,235.24227 99.204611,235.20113 99.270111,235.17428 z M 97.488861,235.76803 C 97.461921,235.87878 97.451151,236.00037 97.426361,236.11178 C 97.146451,236.4253 96.903711,236.76477 96.676361,237.11178 C 96.721051,236.97895 96.795161,236.76307 96.801361,236.73678 C 96.981681,236.41597 97.168781,236.10408 97.363861,235.79928 C 97.400871,235.79389 97.385701,235.80512 97.426361,235.79928 C 97.449261,235.79344 97.466031,235.77395 97.488861,235.76803 z M 98.488861,235.95553 C 98.384911,236.09861 98.362211,236.27967 98.395111,236.45553 C 98.258551,236.52406 98.125751,236.60725 97.988861,236.67428 C 97.994431,236.61128 97.982291,236.54944 97.988861,236.48678 C 98.153921,236.30502 98.326691,236.13856 98.488861,235.95553 z M 100.39511,236.33053 C 100.39494,236.48894 100.38725,236.6394 100.39511,236.79928 C 100.3481,236.72549 100.2871,236.65314 100.23886,236.58053 C 100.2932,236.50137 100.33561,236.41722 100.39511,236.33053 z M 99.488861,236.95553 C 99.520711,237.0062 99.549541,237.06195 99.582611,237.11178 C 99.487771,237.28787 99.450341,237.38501 99.363861,237.54928 C 99.259411,237.59762 99.172611,237.50477 99.020111,237.29928 C 99.178941,237.18743 99.336411,237.07332 99.488861,236.95553 z M 103.14511,238.11178 C 103.1741,238.20654 103.20588,238.29948 103.23886,238.39303 C 103.22561,238.41761 103.18942,238.43079 103.17636,238.45553 C 103.15505,238.44715 103.10013,238.40092 103.08261,238.39303 C 103.05934,238.36414 103.04297,238.32853 103.02011,238.29928 L 103.14511,238.11178 z M 99.457611,238.17428 C 99.564051,238.22417 99.682921,238.28176 99.801361,238.33053 C 99.678681,238.43947 99.549531,238.53461 99.426361,238.64303 C 99.421331,238.49071 99.446711,238.33033 99.457611,238.17428 z M 100.61386,238.70553 C 100.64605,238.75808 100.6747,238.81136 100.70761,238.86178 C 100.73356,238.96641 100.741,239.06881 100.77011,239.17428 C 100.78039,239.20088 100.79179,239.18075 100.80136,239.20553 C 100.51046,239.85127 100.19108,240.49453 99.832611,241.11178 C 99.700731,241.2871 99.567381,241.46332 99.426361,241.61178 L 99.895111,240.73678 C 99.761471,240.36996 99.666101,240.0065 99.582611,239.64303 C 99.929601,239.33433 100.27074,239.01872 100.61386,238.70553 z M 104.58261,239.64303 C 104.61287,239.66594 104.64593,239.68288 104.67636,239.70553 C 104.7065,239.76027 104.73895,239.808 104.77011,239.86178 C 104.73026,239.93574 104.68608,240.00719 104.64511,240.08053 C 104.6115,239.9072 104.60533,239.77221 104.58261,239.64303 z M 104.98886,240.20553 C 105.00186,240.22528 105.00693,240.24846 105.02011,240.26803 C 104.99876,240.2655 104.97857,240.27126 104.95761,240.26803 C 104.96816,240.24741 104.97839,240.22613 104.98886,240.20553 z M 102.86386,240.42428 C 102.98533,240.53983 103.10523,240.63198 103.23886,240.73678 C 103.26942,240.77654 103.30359,240.82769 103.33261,240.86178 C 103.34076,240.96806 103.36181,241.05845 103.39511,241.14303 C 103.1708,241.18503 102.96103,241.25224 102.73886,241.29928 C 102.67301,241.10518 102.64336,240.90232 102.64511,240.70553 C 102.71128,240.60646 102.79939,240.52438 102.86386,240.42428 z "
       id="path3187" />
    <path
       style="opacity:0.93461537;color:#000000;fill:#552200;fill-opacity:1;fill-rule:evenodd;stroke:none;stroke-width:0.60000002;stroke-linecap:butt;stroke-linejoin:miter;marker:none;marker-start:none;marker-mid:none;marker-end:none;stroke-miterlimit:4;stroke-dasharray:none;stroke-dashoffset:0;stroke-opacity:1;visibility:visible;display:inline;overflow:visible;enable-background:accumulate"
       d="M 94.981331,223.8652 C 94.473441,223.85773 93.988091,223.98898 93.512581,224.14645 L 92.793831,226.02145 C 92.522391,226.07816 92.250891,226.11718 91.981331,226.1777 L 91.262581,228.0527 C 92.330081,227.80599 93.408421,227.5394 94.512581,227.58395 L 95.293831,225.70895 C 94.508181,225.67638 93.717441,225.83521 92.950081,225.9902 C 93.352601,225.84492 93.762921,225.70842 94.200081,225.70895 L 94.981331,223.8652 z M 97.606331,224.1152 C 97.317131,224.41194 97.051791,224.7247 96.762581,225.02145 L 96.137581,226.9277 C 96.433561,226.63312 96.716611,226.34726 97.012581,226.0527 L 97.606331,224.1152 z M 98.668831,225.95895 C 97.697581,226.63308 96.785291,227.40766 95.887581,228.1777 L 96.231331,227.3027 C 94.836981,227.7505 93.473141,228.26574 92.137581,228.8652 L 91.450081,230.77145 C 92.111171,230.47127 92.775171,230.19131 93.450081,229.9277 L 92.856331,231.3652 C 93.890421,231.42051 94.933471,231.30936 95.950081,231.1152 L 95.043831,232.89645 C 96.037321,233.55142 97.088591,233.77234 98.200081,233.58395 L 97.856331,234.6152 C 99.323111,233.19422 100.52393,231.88139 101.20008,229.8652 L 100.07508,231.5527 C 101.28485,229.45168 100.37433,230.50048 99.481331,231.5527 C 98.584791,231.8194 97.733661,231.8634 96.918831,231.58395 C 97.426751,230.90797 97.980861,230.25604 98.668831,229.7402 L 99.325081,227.83395 C 98.233201,228.64129 97.393701,229.69948 96.668831,230.83395 L 96.512581,231.39645 C 96.331711,231.31016 96.158481,231.20203 95.981331,231.08395 C 96.074221,231.06606 96.170071,231.07162 96.262581,231.0527 L 97.012581,229.1777 C 96.736291,229.23311 96.447631,229.2567 96.168831,229.3027 C 96.772101,228.8096 97.382071,228.34995 98.012581,227.89645 L 98.668831,225.95895 z M 101.01258,232.20895 C 100.27427,233.02819 99.771021,233.98302 99.325081,234.95895 C 99.076801,234.93185 98.810611,234.89037 98.543831,234.8027 L 97.700081,236.64645 C 97.978771,236.74039 98.253801,236.79846 98.512581,236.83395 C 98.482441,236.90739 98.449231,236.97927 98.418831,237.0527 L 98.575081,236.83395 C 98.900621,236.87258 99.221241,236.89005 99.543831,236.83395 L 99.168831,238.1152 C 99.495561,237.50865 99.854631,236.99332 100.32508,236.6152 C 100.36996,236.59792 100.40455,236.57166 100.45008,236.5527 L 100.48133,236.4902 C 100.78332,236.27966 101.11761,236.11369 101.54383,236.02145 L 102.29383,234.14645 C 101.77294,234.24611 101.3462,234.44189 100.98133,234.70895 C 100.56449,234.87124 100.16068,234.97625 99.762581,234.9902 C 100.00258,234.60699 100.23337,234.2855 100.38758,234.14645 L 101.01258,232.20895 z M 103.20008,235.77145 C 102.40351,236.3008 101.54859,236.53195 100.60633,236.5527 L 99.825081,238.4277 C 100.63297,238.42976 101.39338,238.26415 102.10633,237.9277 C 101.75849,238.62524 101.49536,239.39396 101.20008,240.0527 L 102.29383,238.3652 C 101.01194,240.80763 102.26884,238.18507 103.16883,237.9277 C 103.00597,238.23143 102.84751,238.52153 102.70008,238.83395 C 102.6292,238.87946 102.55181,238.91264 102.48133,238.95895 L 101.95008,240.52145 C 101.88993,240.65604 101.82361,240.79421 101.76258,240.9277 L 101.82508,240.8652 C 101.98955,240.75381 102.15816,240.65894 102.32508,240.5527 C 102.28311,240.66852 102.24212,240.7807 102.20008,240.89645 L 102.48133,240.45895 C 103.2264,239.99457 103.97756,239.57598 104.79383,239.2402 C 104.38466,239.66874 103.96069,240.09755 103.51258,240.4902 L 102.85633,242.39645 C 103.81329,241.78708 104.42937,240.83627 105.20008,240.02145 L 105.85633,238.1152 C 105.58497,238.41414 105.31731,238.69791 105.04383,238.9902 L 105.70008,237.27145 C 104.99126,237.5392 104.32316,237.87029 103.66883,238.2402 C 103.7819,237.93569 103.91295,237.64318 104.01258,237.33395 L 103.45008,238.20895 L 103.98133,236.58395 C 103.76456,236.88349 103.57268,237.20182 103.38758,237.52145 L 103.98133,236.02145 C 103.56072,236.17052 103.20855,236.38539 102.91883,236.6777 L 103.20008,235.77145 z M 107.10633,239.14645 C 106.40682,239.6323 105.73434,240.14896 104.98133,240.5527 L 104.29383,242.45895 C 105.05166,242.07877 105.75529,241.59051 106.38758,241.02145 L 107.10633,239.14645 z "
       id="path4342" />
    <path
       style="fill:#a05a2c;fill-rule:evenodd;stroke:none;stroke-width:1px;stroke-linecap:butt;stroke-linejoin:miter;stroke-opacity:1;filter:url(#filter11253)"
       d="M 313.9684,80.165767 C 313.9684,80.165767 314.3718,79.049307 301.18572,85.904867 C 290.42236,91.500827 280.68648,89.380017 280.68648,89.380017 C 280.68648,89.380017 290.0366,92.384027 304.3767,86.350297 C 312.10941,83.096687 317.45277,82.917537 317.45277,82.917537 C 318.04626,81.193317 315.1236,79.264997 313.9684,80.165767 z "
       id="path10282"
       sodipodi:nodetypes="cscscc" />
    <path
       style="opacity:0.85769228;color:#000000;fill:url(#linearGradient13303);fill-opacity:1;fill-rule:evenodd;stroke:none;stroke-width:1px;stroke-linecap:butt;stroke-linejoin:miter;marker:none;marker-start:none;marker-mid:none;marker-end:none;stroke-miterlimit:4;stroke-dasharray:none;stroke-dashoffset:0;stroke-opacity:1;visibility:visible;display:inline;overflow:visible;filter:url(#filter12312);enable-background:accumulate"
       d="M 120.77342,121.59199 C 120.77342,121.59199 110.2572,140.87171 109.08874,163.65684 C 107.92027,186.44197 106.0446,190.03787 105.58333,198.71088 C 105.14832,206.89016 100.90946,217.40637 100.90946,217.40637 C 100.90946,217.40637 115.83052,193.71644 113.23378,174.86418 C 112.29569,168.05365 113.76261,145.96402 120.77342,121.59199 z "
       id="path11257"
       sodipodi:nodetypes="csscsc" />
    <path
       style="opacity:0.85769228;color:#000000;fill:url(#linearGradient12326);fill-opacity:1;fill-rule:evenodd;stroke:none;stroke-width:1px;stroke-linecap:butt;stroke-linejoin:miter;marker:none;marker-start:none;marker-mid:none;marker-end:none;stroke-miterlimit:4;stroke-dasharray:none;stroke-dashoffset:0;stroke-opacity:1;visibility:visible;display:inline;overflow:visible;filter:url(#filter12312);enable-background:accumulate"
       d="M 209.17516,68.708587 C 209.17516,68.708587 223.18805,66.448447 242.62528,76.393077 C 262.06252,86.337707 265.67875,92.666107 271.10309,92.666107 C 276.52743,92.666107 270.65106,98.090457 261.61049,94.474227 C 252.56991,90.857997 233.61295,76.413537 228.61239,75.489017 C 202.45126,70.652277 184.31358,72.324817 184.31358,72.324817 L 209.17516,68.708587 z "
       id="path12316"
       sodipodi:nodetypes="csssscc" />
    <path
       style="opacity:0.40769228;color:#000000;fill:#552200;fill-opacity:1;fill-rule:evenodd;stroke:none;stroke-width:1px;stroke-linecap:butt;stroke-linejoin:miter;marker:none;marker-start:none;marker-mid:none;marker-end:none;stroke-miterlimit:4;stroke-dasharray:none;stroke-dashoffset:0;stroke-opacity:1;visibility:visible;display:inline;overflow:visible;filter:url(#filter12312);enable-background:accumulate"
       d="M -148.10698,505.72742 C -134.73537,503.0531 -150.17324,596.86066 -215.00723,610.14606 C -276.49487,622.74574 -275.12705,601.55751 -293.66023,599.29736 C -312.1934,597.03722 -328.91846,598.39331 -328.91846,598.39331 C -328.91846,598.39331 -316.98018,597.04516 -305.41297,594.77708 C -282.3595,590.2568 -232.47475,602.39595 -211.84303,591.16085 C -166.18813,566.29927 -147.65495,505.72742 -148.10698,505.72742 z "
       id="path12318"
       sodipodi:nodetypes="csscssc"
       transform="matrix(1.040273,0,0,1,453.86038,-352.16947)" />
  </g>
</svg>
