<?xml version="1.0" encoding="UTF-8" standalone="no"?>
<!-- Generator: Adobe Illustrator 12.0.0, SVG Export Plug-In . SVG Version: 6.00 Build 51448)  -->

<svg
   xmlns:dc="http://purl.org/dc/elements/1.1/"
   xmlns:cc="http://creativecommons.org/ns#"
   xmlns:rdf="http://www.w3.org/1999/02/22-rdf-syntax-ns#"
   xmlns:svg="http://www.w3.org/2000/svg"
   xmlns="http://www.w3.org/2000/svg"
   xmlns:sodipodi="http://sodipodi.sourceforge.net/DTD/sodipodi-0.dtd"
   xmlns:inkscape="http://www.inkscape.org/namespaces/inkscape"
   height="128"
   id="Layer_1"
   inkscape:version="0.92.2 (5c3e80d, 2017-08-06)"
   sodipodi:docname="radishes.svg"
   sodipodi:version="0.32"
   style="overflow:visible"
   version="1.0"
   viewBox="0 0 106.59146 127.99999"
   width="106.59146"
   xml:space="preserve"><metadata
     id="metadata2"><rdf:RDF><cc:Work
         rdf:about=""><dc:title></dc:title><dc:description /><dc:subject><rdf:Bag><rdf:li>vegetable</rdf:li></rdf:Bag></dc:subject><dc:publisher><cc:Agent
             rdf:about="http://www.openclipart.org"><dc:title>Architetto Francesco Rollandin</dc:title></cc:Agent></dc:publisher><dc:creator><cc:Agent><dc:title>Architetto Francesco Rollandin</dc:title></cc:Agent></dc:creator><dc:rights><cc:Agent><dc:title>Architetto Francesco Rollandin</dc:title></cc:Agent></dc:rights><dc:date /><dc:format>image/svg+xml</dc:format><dc:type
           rdf:resource="http://purl.org/dc/dcmitype/StillImage" /><cc:license
           rdf:resource="http://creativecommons.org/publicdomain/zero/1.0/" /><dc:language>en</dc:language></cc:Work><cc:License
         rdf:about="http://creativecommons.org/publicdomain/zero/1.0/"><cc:permits
           rdf:resource="http://creativecommons.org/ns#Reproduction" /><cc:permits
           rdf:resource="http://creativecommons.org/ns#Distribution" /><cc:permits
           rdf:resource="http://creativecommons.org/ns#DerivativeWorks" /></cc:License></rdf:RDF></metadata><defs
     id="defs152" /><sodipodi:namedview
     bordercolor="#666666"
     borderopacity="1.0"
     id="base"
     inkscape:current-layer="Layer_1"
     inkscape:cx="59.007711"
     inkscape:cy="56.904699"
     inkscape:pageopacity="0.0"
     inkscape:pageshadow="2"
     inkscape:window-height="1025"
     inkscape:window-width="1920"
     inkscape:window-x="-8"
     inkscape:window-y="-8"
     inkscape:zoom="3.9276636"
     pagecolor="#ffffff"
     showgrid="false"
     inkscape:window-maximized="1"
     fit-margin-top="0"
     fit-margin-left="0"
     fit-margin-right="0"
     fit-margin-bottom="0" /><g
     id="g3"
     transform="matrix(0.4702261,0,0,0.4702261,1.3679201e-4,-2.4760385e-4)"><path
       d="M 116.361,104.419 C 111.048,93.19 95.987,73.838 118.459,69.6 c 6.978,-1.316 21.245,1.054 25.797,7.132 6.833,9.125 -0.309,18.461 -8.104,24.037 -4.59,3.283 -13.813,6.34 -16.436,11.618 -4.056,8.158 -8.017,16.454 -12.126,24.672 -5.874,11.748 -15.948,42.495 -31.502,44.123 1.046,-5.715 10.17,-12.116 13.426,-17.408 4.524,-7.352 8.397,-15.275 12.048,-23.096 3.619,-7.753 6.976,-15.61 10.812,-23.257 1.869,-3.723 5.586,-8.767 3.987,-13.002"
       id="path5"
       inkscape:connector-curvature="0" /><path
       d="m 117.619,104.837 c -0.947,-5.259 -5.022,-10.465 -8.179,-14.682 -6.393,-8.54 0.797,-17.344 9.858,-18.876 7.188,-1.216 18.999,0.017 23.699,6.292 6.295,8.404 -0.384,18.249 -8.104,22.667 -5.801,3.319 -12.94,6.225 -17.063,11.731 -5.313,7.094 -8.498,16.963 -11.984,25.09 -5.807,13.538 -14.301,36.68 -28.917,42.865 10.821,-11.707 18.387,-23.746 25.59,-38.175 2.854,-5.717 18.632,-31.911 15.1,-36.912"
       id="path7"
       style="fill:#42cb2c"
       inkscape:connector-curvature="0" /><path
       d="m 73.991,30.171 c 2.427,-4.509 6.381,-7.681 10.7,-10.278 4.92,-2.958 7.486,-0.67 12.371,-1.048 8.122,-0.629 16.776,-13.761 23.911,-6.71 6.146,6.074 5.725,18.83 6.604,26.705 1.108,9.922 -12.318,15.811 -16.857,23.38 -10.882,18.147 -8.214,45.111 -11.977,65.418 -3.732,20.146 -7.037,47.58 -25.588,60.254 -1.668,-5.244 6.495,-16.428 8.876,-21.489 3.479,-7.394 5.259,-16.04 7.379,-23.91 4.489,-16.667 7.895,-34.585 9.393,-51.794 0.975,-11.193 4.364,-41.272 -11.418,-45.224 -4.267,-1.068 -18.086,6.008 -18.636,5.459 -3.482,-3.484 3.945,-16.805 5.242,-20.763"
       id="path9"
       inkscape:connector-curvature="0" /><path
       d="m 73.991,30.171 c 4.444,-8.032 12.518,-11.602 21.187,-9.858 8.889,1.788 16.154,-14.373 24.12,-6.921 5.791,5.417 6.709,18.874 6.709,26.287 0,10.224 -12.371,15.418 -17.196,23.628 -5.306,9.027 -5.743,20.841 -6.964,31.025 -1.407,11.735 -3.29,23.405 -5.024,35.097 -3.12,21.036 -8.919,42.651 -24.09,58.463 5.712,-14.617 13.332,-27.397 17.361,-42.935 4.605,-17.753 7.735,-35.565 9.835,-53.78 1.569,-13.607 3.874,-35.69 -7.822,-45.719 -8.933,-7.66 -12.158,1.397 -20,2.958 -6.417,1.278 0.929,-15.617 1.884,-18.245"
       id="path11"
       style="fill:#42cb2c"
       inkscape:connector-curvature="0" /><path
       d="m 118.876,43.595 c 0.867,-6.648 6.846,-28.217 -2.098,-31.882 -9.408,-3.856 -22.737,22.985 -32.301,25.168 2.182,-5.469 14.93,-17.889 1.262,-15.1 -8.515,1.737 -14.435,11.54 -15.104,19.716 -0.366,4.476 -1.186,6.675 3.986,3.564 4.894,-2.943 8.822,-5.662 14.681,-5.662 4.927,10e-4 29.595,18.483 29.574,4.196"
       id="path13"
       style="fill:#b3faa9"
       inkscape:connector-curvature="0" /><path
       d="m 226.681,121.616 c -3.7,-14.133 -10.379,-17.778 -24.697,-15.39 -11.037,1.841 -17.43,3.938 -25.008,-5.164 -7.45,-8.948 -20.847,2.823 -25.485,8.625 -7.558,9.455 -12.274,22.769 -13.87,34.726 -0.337,2.52 -1.936,29.78 5.166,27.958 1.13,-0.29 -1.063,-26.363 -0.222,-29.728 2.463,-9.858 6.649,-24.611 15.321,-31.096 11.178,-8.359 7.271,9.47 13.215,13.426 4.627,3.08 9.455,-2.673 12.793,1.255 2.103,2.475 1.472,7.054 3.986,10.069 2.42,2.902 6.962,4.768 10.695,4.613 10.385,-0.429 10.975,-9.199 15.521,-15.518 3.912,-5.434 7.099,-1.841 12.585,-3.776"
       id="path15"
       inkscape:connector-curvature="0" /><path
       d="m 225.423,120.358 c -3.928,-19.019 -19.805,-13.902 -34.45,-11.458 -5.066,0.846 -9.666,0.825 -12.11,-4.063 -2.337,-4.674 -8.592,-7.473 -13.637,-5.455 -24.762,9.908 -31.366,51.471 -22.439,72.988 -1.221,-16.56 -4.791,-31.69 3.704,-47.632 2.766,-5.189 7.593,-16.547 14.753,-16.547 8.703,0 4.965,10.838 9.438,15.311 4.533,4.534 11.205,-2.509 14.471,1.891 1.711,2.305 0.623,6.966 2.938,9.855 2.386,2.979 6.658,5.113 10.486,4.826 9.691,-0.728 9.577,-9.624 13.424,-15.521 3.992,-6.122 8.642,-1.333 13.422,-4.195"
       id="path17"
       style="fill:#42cb2c"
       inkscape:connector-curvature="0" /><path
       d="m 175.505,100.225 c 1.707,1.854 3.745,7.397 6.082,8.178 4.389,1.467 8.411,0.66 12.847,-0.08 9.199,-1.535 22.055,-5.929 28.054,3.646 9.526,15.205 -6.52,2.977 -11.746,7.968 -5.274,5.038 1.173,13.887 -7.131,18.039 -3.221,1.61 -9.512,-0.684 -11.744,-3.357 -4.014,-4.806 -0.562,-7.422 0.629,-12.163 1.643,-6.542 -8.396,1.258 -11.537,1.258 -3.604,0 -11.498,-1.408 -7.549,-7.341 3.833,-5.759 -2.102,-10.849 2.095,-16.148"
       id="path19"
       style="fill:#b3faa9"
       inkscape:connector-curvature="0" /><path
       d="m 20.721,116.164 c -5.154,2.577 -10.463,5.304 -15.941,7.13 -6.429,2.143 -4.359,-5.422 -3.884,-9.197 1.685,-13.395 10.729,-14.76 21.501,-17.44 3.81,-0.948 5.419,-4.821 10.069,-4.821 5.744,0 12.104,4.167 17.367,6.274 4.156,1.664 8.705,4.337 13.254,4.63 2.824,0.182 5.541,-2.382 7.552,0.629 6.037,9.037 14.919,14.018 22.797,21.286 9.807,9.049 17.954,18.896 23.936,30.859 1.653,3.306 8.865,26.89 4.024,24.41 -2.934,-1.502 -3.877,-9.986 -4.708,-12.758 -1.789,-5.966 -3.907,-12.039 -7.041,-17.445 -5.633,-9.719 -13.142,-18.887 -22.231,-25.59 -3.329,-2.455 -7.35,-5.583 -11.327,-5.453 -3.155,0.104 -5.095,2.795 -8.807,2.098 -9.395,-1.765 -11.331,-9.716 -21.813,-7.132 -7.974,1.966 -17.877,-0.073 -24.748,2.52"
       id="path21"
       inkscape:connector-curvature="0" /><path
       d="m 21.139,114.484 c -5.145,2.573 -17.849,11.412 -20.556,4.617 -3.414,-8.567 8.976,-19.459 15.943,-20.974 3.565,-0.775 5.942,-0.6 9.225,-2.097 3.978,-1.814 4.702,-3.852 9.79,-2.72 8.862,1.973 16.845,9.91 26.288,9.847 7.537,-0.05 6.699,-1.587 12.163,5.035 6.312,7.649 15.518,13.192 22.926,20.033 13.657,12.61 27.113,32.63 25.734,52.118 -2.868,-3.708 -3.363,-9.113 -4.707,-13.594 -1.997,-6.66 -4.873,-12.531 -8.269,-18.564 -4.067,-7.225 -8.657,-13.322 -14.711,-19.019 -3.231,-3.041 -12.427,-12.788 -17.197,-12.584 -4.38,0.188 -5.174,5.138 -10.696,2.937 -5.198,-2.072 -9.334,-7.972 -15.313,-7.972 -4.686,0 -8.682,2.458 -13.424,2.52 -5.793,0.074 -12.187,-0.057 -17.196,0.417"
       id="path23"
       style="fill:#42cb2c"
       inkscape:connector-curvature="0" /><path
       d="m 74.831,111.969 c -3.106,-8.481 -4.453,-9.696 -11.745,-7.132 -7.834,2.755 -10.98,-0.076 -16.359,-5.455 -6.816,-6.816 -13.183,-6.906 -20.976,-3.353 -9.148,4.172 -20.491,2.707 -23.707,15.551 -2.421,9.674 0.727,8.451 8.607,6.469 3.158,-0.794 9.868,-6.625 11.325,-8.808 2.036,-3.05 10.101,-6.998 13.635,-6.294 8.639,1.72 16.438,6.219 24.959,8.18 6.113,1.407 14.731,2.484 20.134,5.453 -2.169,-1.517 -4.648,-2.103 -5.873,-4.611"
       id="path25"
       style="fill:#b3faa9"
       inkscape:connector-curvature="0" /><path
       d="m 45.468,174.468 c -2.467,11.289 -12.46,-6.028 -13.842,-8.808 -4.57,-9.189 6.128,-20.929 11.327,-27.684 11.045,-14.351 27.979,-14.036 43.205,-10.487 8.248,1.923 18.312,14.474 22.272,21.826 2.055,3.815 15.004,29.124 8.349,32.284 -2.411,1.145 -8.567,-22.203 -10.16,-25.705 -2.962,-6.515 -12.832,-24.21 -21.092,-24.21 -11.465,0 -18.911,1.899 -21.812,13.422 -1.212,4.813 -8.293,7.939 -11.116,12.165 -3.106,4.651 -3.877,14.454 -7.131,17.197"
       id="path27"
       inkscape:connector-curvature="0" /><path
       d="m 45.05,172.792 c -2.958,10.764 -11.608,-4.747 -12.375,-8.599 -2.048,-10.272 6.1,-20.784 13.002,-27.688 4.782,-4.781 15.582,-12.06 22.862,-11.535 2.951,0.213 4.368,2.195 7.132,2.937 4.188,1.125 9.047,-0.722 13.004,1.259 8.891,4.454 17.326,18.736 21.812,27.264 2.728,5.186 4.862,10.891 5.453,16.779 0.253,2.519 1.294,8.854 -1.678,4.405 -2.278,-3.408 -1.929,-9.778 -3.261,-13.773 -2.176,-6.526 -5.144,-11.772 -8.669,-17.649 -5.93,-9.888 -13.125,-17.391 -24.981,-14.508 -3.726,0.906 -8.746,2.443 -11.327,5.452 -2.441,2.846 -2.426,7.153 -5.034,10.065 -3.426,3.825 -7.332,4.977 -10.052,9.726 -2.788,4.868 -3.479,10.803 -5.888,15.865"
       id="path29"
       style="fill:#42cb2c"
       inkscape:connector-curvature="0" /><path
       d="m 79.865,129.587 c -8.927,1.285 -18.679,0.753 -24.329,9.228 -3.337,5.006 -5.793,10.876 -8.812,15.941 -2.82,4.733 -3.873,8.718 -5.03,14.26 -0.495,2.368 0.59,5.874 -2.728,5.874 -1.731,0 -4.229,-3.501 -4.615,-5.034 -4.208,-16.754 5.045,-28.885 18.248,-38.802 3.295,-2.476 13.46,-7.333 17.828,-5.872 3.747,1.253 5.522,5.321 9.438,4.405"
       id="path31"
       style="fill:#b3faa9"
       inkscape:connector-curvature="0" /><path
       d="m 175.087,90.573 c 0.95,-9.643 -18.809,-10.526 -25.029,-11.214 -11.329,-1.254 -24.555,-2.092 -31.6,8.699 -5.885,9.014 -3.725,20.261 -8.39,29.363 -5.515,10.76 -12.46,21.007 -18.347,31.603 -5.699,10.256 -11.899,22.143 -13.222,33.976 -0.505,4.521 -1.146,8.368 2.625,4.474 3.65,-3.771 3.415,-12.451 4.878,-17.213 3.839,-12.494 9.962,-23.781 16.935,-34.803 5.521,-8.727 13.555,-23.774 23.101,-28.541 9.897,-4.941 17.885,4.54 27.235,-2.081 8.094,-5.73 12.97,-13.554 21.814,-14.263"
       id="path33"
       inkscape:connector-curvature="0" /><path
       d="m 175.087,90.573 c 0.95,-9.643 -18.809,-10.526 -25.029,-11.214 -11.329,-1.254 -24.555,-2.092 -31.6,8.699 -5.885,9.014 -3.725,20.261 -8.39,29.363 -5.515,10.76 -12.46,21.007 -18.347,31.603 -5.699,10.256 -11.899,22.143 -13.222,33.976 -0.505,4.521 -1.146,8.368 2.625,4.474 3.65,-3.771 3.415,-12.451 4.878,-17.213 3.839,-12.494 9.962,-23.781 16.935,-34.803 5.521,-8.727 13.555,-23.774 23.101,-28.541 9.897,-4.941 17.885,4.54 27.235,-2.081 8.094,-5.73 12.97,-13.554 21.814,-14.263"
       id="path35"
       inkscape:connector-curvature="0" /><path
       d="M 174.248,90.155 C 168.55,78.533 150.804,79.668 139.71,79.668 c -17.629,0 -25.446,12.83 -25.446,29.572 0,6.34 -5.959,12.719 -9.229,17.828 -4.367,6.822 -8.338,13.75 -12.273,20.836 -6.957,12.527 -15.254,26.833 -14.574,41.667 6.895,-4.258 8.039,-25.725 11.955,-33.558 6.452,-12.904 13.861,-24.561 22.391,-36.195 4.117,-5.615 8.311,-11.125 14.284,-14.856 6.161,-3.847 11.478,1.617 17.65,1.554 12.219,-0.125 17.641,-19.198 29.78,-16.361"
       id="path37"
       style="fill:#42cb2c"
       inkscape:connector-curvature="0" /><path
       d="m 112.583,115.324 c 3.601,-5.608 1.031,-13.649 3.791,-19.855 3.758,-8.45 7.579,-14.508 17.431,-15.49 11.184,-1.115 35.792,-2.458 40.442,10.595 -5.407,-4.371 -16.607,-3.463 -23.01,-2.297 -3.964,0.722 -15.464,6.979 -18.518,5.445 -5.767,-2.896 -21.667,26.768 -25.171,30.832 1.456,-2.976 3.518,-6.249 5.035,-9.23"
       id="path39"
       style="fill:#b3faa9"
       inkscape:connector-curvature="0" /><path
       d="m 112.583,99.802 c -1.634,-11.449 -4.977,-69.037 -24.12,-65.228 -6.262,1.247 -10.342,7.783 -16.568,9.858 -6.712,2.238 -11.876,4.062 -16.593,9.571 -6.687,7.81 -14.021,20.644 -16.127,30.699 3.681,0.094 9.797,-2.666 12.795,-5.664 7.096,-7.096 8.612,-4.433 15.729,0.629 8.723,6.205 17.025,13.163 28.105,10.905 10.869,-2.215 12.845,6.228 13.467,16.22 1.542,24.769 3.312,49.138 3.312,73.969 0,2.342 2.38,5.591 4.615,3.355 2.197,-2.197 0.534,-10.52 0.376,-13.368 -0.73,-13.21 -0.87,-26.491 -1.965,-39.672 -0.865,-10.439 -1.801,-20.87 -3.026,-31.274"
       id="path41"
       inkscape:connector-curvature="0" /><path
       d="m 110.908,98.963 c -1.78,-11.836 -4.622,-22.928 -7.972,-34.394 -2.595,-8.883 -1.458,-24.797 -12.793,-27.057 -5.5,-1.096 -9.497,4.358 -14.055,6.501 -5.248,2.468 -11.919,2.161 -16.566,5.872 -8.297,6.626 -12.88,17.453 -16.15,27.266 -2.529,7.59 2.009,5.402 6.712,1.678 7.274,-5.761 7.134,-11.734 15.728,-3.144 5.898,5.896 17.657,15.048 26.219,13.63 6.404,-1.06 9.44,-4.763 14.26,1.68 2.959,3.956 3.282,9.63 4.063,14.313 2.319,13.9 2.462,28.518 3.099,42.578 0.175,3.873 0.872,37.974 2.485,37.491 3.268,-0.977 -0.578,-36.138 -0.836,-40.272 -0.892,-14.298 0.544,-32.679 -4.194,-46.142"
       id="path43"
       style="fill:#42cb2c"
       inkscape:connector-curvature="0" /><path
       d="M 104.194,83.445 C 98.644,75.158 89.372,66.52 80.705,61.632 c 1.758,5.524 15.543,22.433 -0.031,14.665 -7.635,-3.808 -13.646,-7.334 -22.201,-6.275 0.469,-3.406 3.202,-6.279 5.453,-8.812 0.813,-0.915 8.145,-7.55 5.241,-7.55 -5.861,0 -11.601,0.855 -16.15,4.195 2.317,-8.007 11.176,-10.026 18.041,-12.162 8.062,-2.508 18.047,-13.822 25.586,-4.408 5.015,6.261 5.283,19.262 7.55,27.057 2.989,10.277 5.129,20.536 7.132,31.043 -1.592,-5.792 -3.613,-11.143 -7.132,-15.94"
       id="path45"
       style="fill:#b3faa9"
       inkscape:connector-curvature="0" /><path
       d="m 149.08,77.989 c 8.36,-8.355 14.379,-15.67 18.035,-26.844 2.542,-7.769 3.359,-10.284 10.908,-14.053 2.961,-1.479 10.485,-6.117 9.438,-10.278 -0.393,-1.561 -2.979,-3.856 -2.518,-5.243 0.584,-1.757 3.313,-3.796 3.568,-5.241 1.872,-10.628 -21.854,-15.487 -29.537,-16.253 -10.787,-1.075 -6.175,9.539 -14.93,9.539 -9.552,0 -8.186,5.571 -13.002,11.745 -2.852,3.654 -6.276,4.789 -8.376,9.509 -2.228,5.006 -1.225,11.982 1.174,16.779 2.728,5.454 5.686,10.787 10.04,15.143 5.002,5.002 9.222,8.215 9.324,15.62 0.117,8.449 -2.113,17.494 -2.56,25.998 -0.563,10.757 -0.374,21.53 -0.374,32.3 0,9.817 0.204,19.716 2.098,29.37 0.451,2.301 5.804,23.414 7.759,15.521 1.888,-7.622 -3.259,-17.849 -4.072,-25.576 -1.126,-10.687 -1.875,-21.557 -1.589,-32.311 0.374,-14.027 -1.014,-33.697 4.614,-45.725"
       id="path47"
       inkscape:connector-curvature="0" /><path
       d="m 147.4,79.25 c 7.39,-7.392 16.111,-15.917 18.248,-26.639 1.292,-6.483 2.035,-12.766 8.391,-15.311 4.04,-1.618 10.171,-5.067 11.324,-9.647 0.653,-2.595 -0.801,-3.279 -1.889,-5.454 -1.35,-2.7 1.387,-2.994 1.678,-5.035 0.682,-4.78 1.717,-6.87 -4.691,-9.619 -5.548,-2.38 -13.042,-6.32 -19.154,-6.32 -8.059,0 -6.842,2.036 -10.549,6.714 -2.082,2.627 -0.292,4.012 -5.453,2.724 -10.245,-2.555 -7.416,5.035 -11.324,10.696 -2.47,3.577 -6.905,4.583 -9.217,9.199 -2.942,5.876 -1.643,12.061 1.021,17.766 4.826,10.338 19.684,18.228 18.152,30.535 -2.176,17.489 -2.407,34.647 -2.407,52.272 0,14.931 -2.065,40.545 7.967,52.988 2.321,-7.01 -2.913,-17.222 -4.169,-24.338 -1.821,-10.326 -2.122,-21.115 -2.122,-31.584 -10e-4,-13.628 -3.363,-36.885 4.194,-48.947"
       id="path49"
       style="fill:#42cb2c"
       inkscape:connector-curvature="0" /><path
       d="m 141.947,66.667 c -7.951,-7.957 -19.43,-19.012 -18.037,-31.461 0.709,-6.335 4.453,-7.903 7.973,-12.166 2.329,-2.821 2.598,-4.079 3.563,-7.97 2.334,-9.403 11.346,-0.782 15.312,-4.615 2.291,-2.214 -0.916,-6.583 4.195,-8.807 5.45,-2.372 14.65,1.807 19.768,3.511 5.452,1.816 7.688,3.177 7.076,8.233 -0.197,1.634 -2.482,2.974 -2.514,4.613 -0.044,2.302 2.547,4.06 3.354,6.083 3.673,9.215 -13.73,14.265 -18.459,18.245 -6.085,5.122 -5.874,12.227 -7.338,19.507 -0.67,3.331 -8.047,16.823 -11.537,17.41 -0.14,0.279 -0.278,0.557 -0.418,0.836 0.974,-4.515 0.981,-10.296 -2.938,-13.419"
       id="path51"
       style="fill:#b3faa9"
       inkscape:connector-curvature="0" /><path
       d="m 167.115,29.332 c -6.564,8.864 -13.256,15.516 -16.779,26.426 -4.705,-2.69 -1.734,-14.428 -0.416,-18.876 -4.218,6.158 -8.164,14.395 -6.293,21.813 1.643,6.513 4.754,9.028 2.938,16.361 11.585,-12.225 9.531,-33.836 20.55,-45.724"
       id="path53"
       style="fill:#42cb2c"
       inkscape:connector-curvature="0" /><path
       d="m 198.158,96.447 c 10.473,0 9.594,0.066 10.904,-8.807 0.465,-3.144 2.082,-3.194 1.258,-7.132 -1.127,-5.387 -6.319,-10.317 -9.646,-14.473 -13.835,-17.278 -44.603,-11.837 -58.305,2.306 -8.726,9.006 -8.688,22.462 -9.712,34.272 -1.15,13.27 -1.043,26.54 0.016,39.812 0.601,7.545 1.625,26.958 8.646,31.624 6.765,4.496 -1.867,-19.15 -2.307,-22.44 -2.281,-17.091 -2.523,-33.494 -1.478,-50.734 0.577,-9.509 -0.433,-28.483 12.802,-28.757 3.326,-0.069 9.201,-0.326 12.586,0 5.438,0.523 8.32,6.706 13.842,9.647 4.872,2.595 12.535,1.44 16.777,5.034 2.886,2.447 3.006,8.078 4.617,9.648"
       id="path55"
       inkscape:connector-curvature="0" /><path
       d="m 198.576,95.19 c 2.065,0.177 7.41,0.626 8.813,-1.258 1.108,-1.489 -1.304,-4.893 -0.631,-6.923 2.787,-8.413 0.231,-9.954 -4.615,-18.037 -8.766,-14.618 -33.631,-15.943 -46.632,-8.725 -21.283,11.817 -21.15,32.424 -22.061,54.33 -0.771,18.581 -1.264,44.46 10.177,60.312 1.097,-5.858 -3.632,-14.502 -5.035,-20.556 -2.222,-9.587 -2.938,-19.453 -2.938,-29.27 0,-9.657 0.292,-19.032 1.305,-28.646 0.81,-7.684 -0.147,-17.437 6.246,-23.042 5.057,-4.433 8.421,-1.9 14.264,-1.68 2.081,0.079 5.229,-0.092 7.129,-1.046 2.89,-1.452 5.731,4.608 7.971,6.503 6.271,5.306 13.423,2.879 19.717,6.71 4.448,2.709 4.796,8.49 6.29,11.328"
       id="path57"
       style="fill:#42cb2c"
       inkscape:connector-curvature="0" /><path
       d="m 136.494,81.766 c 3.822,-11.955 13.99,-20.356 25.588,-24.751 10.865,-4.118 18.403,0.38 28.527,3.777 -5.81,-1.02 -6.2,4.48 -10.91,5.664 -4.771,1.198 -8.782,-3.589 -13.213,-0.631 -10.331,6.898 -25.778,1.237 -29.992,15.941"
       id="path59"
       style="fill:#b3faa9"
       inkscape:connector-curvature="0" /><path
       d="m 150.757,149.299 c 3.749,-1.866 7.27,-3.579 9.648,-7.127 1.557,-2.322 1.255,-5.669 3.775,-6.923 2.724,-1.355 8.105,-7.644 6.711,-11.118 -0.85,-2.118 -7.478,-3.106 -9.616,-4.177 -5.793,-2.9 -11.667,-3.791 -18.069,-3.791 -11.531,0 -24.049,6.399 -28.525,17.197 -4.504,10.865 -4.531,24.286 -1.676,35.656 0.817,3.253 2.071,10.032 4.613,12.586 3.339,3.354 1.846,-7.299 1.476,-8.779 -2.749,-10.994 -4.743,-22.81 -2.864,-34.06 2.801,-16.776 11.07,-1.819 16.07,3.409 4.94,5.165 11.152,10.291 18.457,7.127"
       id="path61"
       inkscape:connector-curvature="0" /><path
       d="m 150.757,149.299 c 3.749,-1.866 7.27,-3.579 9.648,-7.127 1.557,-2.322 1.255,-5.669 3.775,-6.923 2.724,-1.355 8.105,-7.644 6.711,-11.118 -0.85,-2.118 -7.478,-3.106 -9.616,-4.177 -5.793,-2.9 -11.667,-3.791 -18.069,-3.791 -11.531,0 -24.049,6.399 -28.525,17.197 -4.504,10.865 -4.531,24.286 -1.676,35.656 0.817,3.253 2.071,10.032 4.613,12.586 3.339,3.354 1.846,-7.299 1.476,-8.779 -2.749,-10.994 -4.743,-22.81 -2.864,-34.06 2.801,-16.776 11.07,-1.819 16.07,3.409 4.94,5.165 11.152,10.291 18.457,7.127"
       id="path63"
       inkscape:connector-curvature="0" /><path
       d="m 150.335,146.785 c 6.609,-1.469 6.742,-6.252 9.648,-10.905 0.427,-0.683 0.028,-2.992 0.422,-3.359 0.513,-0.478 2.269,-0.163 2.098,0 1.59,-1.514 3.325,0.938 4.402,-2.304 0.666,-2.005 3.603,-7.343 -0.42,-7.343 -6.697,0 -13.104,-6.279 -20.344,-6.71 -33.304,-1.984 -43.154,43.348 -27.266,66.276 -0.395,-17.247 -12.082,-35.964 0.42,-51.595 5.549,-6.937 20.858,28.039 31.04,15.94"
       id="path65"
       style="fill:#42cb2c"
       inkscape:connector-curvature="0" /><path
       d="m 120.973,128.326 c 5.746,3.29 9.838,13.397 16.36,14.264 1.707,0.227 2.557,-4.969 4.615,-1.886 1.469,2.2 1.909,5.663 5.242,5.663 5.03,0 12.215,-4.962 12.793,-10.487 0.7,-6.691 -7.882,-8.499 -12.162,-13.006 4.846,1.037 8.652,3.081 13.004,5.243 3.976,1.977 6.94,-1.992 2.516,-4.194 -8.3,-4.131 -20.526,-11.887 -29.361,-4.404 16.588,1.8 -7.98,9.771 -13.007,8.807"
       id="path67"
       style="fill:#b3faa9"
       inkscape:connector-curvature="0" /><path
       d="M 75.253,100.642 C 73.159,99.788 49.972,92.925 55.117,90.364 62.024,86.926 70,94.188 72.525,86.589 c 3.324,-10.003 23.183,1.269 26.848,5.663 4.995,5.989 5.064,15.5 6.079,23.071 1.467,10.949 -3.064,22.735 -5.696,33.277 -2.716,10.878 -6.614,23.138 -13.412,32.193 -0.63,0.839 -8.391,10.106 -7.107,5 1.447,-5.754 5.346,-10.685 7.97,-15.938 5.7,-11.416 9.284,-23.123 11.535,-35.656 0.974,-5.423 1.68,-10.646 1.68,-16.15 0,-2.257 -4.047,1.783 -5.457,1.886 -8.84,0.648 -13.466,-15.028 -19.712,-19.293"
       id="path69"
       inkscape:connector-curvature="0" /><path
       d="m 78.186,100.642 c -6.34,-2.675 -17.251,-2.574 -22.229,-7.552 -4.342,-4.342 13.051,-1.57 13.84,-1.677 5.376,-0.728 0.856,-0.707 3.777,-2.938 2.659,-2.031 2.841,-4.045 7.52,-3.463 8.313,1.035 17.579,3.276 20.583,12.275 1.642,4.918 1.398,11.896 2.1,17.196 1.063,8.037 -1.556,16.162 -3.133,24.054 -3.259,16.303 -9.007,38.5 -21.618,50.194 2.175,-9.928 9.824,-18.498 13.424,-28.105 4.024,-10.74 6.526,-21.746 7.972,-33.136 0.207,-1.627 2.097,-11.007 0.835,-12.167 -0.693,-0.637 -4.664,1.68 -6.29,1.68 -9.293,0 -9.388,-13.147 -16.781,-16.361"
       id="path71"
       style="fill:#42cb2c"
       inkscape:connector-curvature="0" /><path
       d="m 70.218,93.092 c -4.371,-0.636 -8.552,-2.776 -12.584,-1.257 4.012,3.722 13.281,5.887 18.876,5.87 -1.049,-2.279 -3.924,-3.388 -6.292,-4.613"
       id="path73"
       style="fill:#b3faa9"
       inkscape:connector-curvature="0" /><path
       d="M 88.673,97.705 C 85.03,89.604 81.66,89.79 74.831,86.8 c 6.725,-4.127 18.822,0.128 23.493,5.87 8.793,10.811 -3.211,11.279 -9.651,5.035"
       id="path75"
       style="fill:#b3faa9"
       inkscape:connector-curvature="0" /><path
       d="m 159.566,90.573 c 7.166,-7.219 -2.608,-20.265 -6.713,-26.426 -7.071,-10.613 -21.654,-10.755 -32.686,-6.618 -10.156,3.81 -17.986,10.522 -23.941,19.625 -7.213,11.025 -4.136,20.566 -1.479,32.579 2.677,12.102 7.207,23.782 10.286,35.794 1.515,5.911 3.316,11.814 4.071,17.884 0.436,3.5 -0.757,14.688 1.803,16.932 5.539,4.855 2.619,-19.597 1.922,-22.556 -3.005,-12.763 -5.727,-25.694 -9.476,-38.268 -2.157,-7.234 -9.251,-20.164 -5.031,-27.684 3.702,-6.595 17.376,-5.875 23.908,-5.875 8.368,0 14.844,5.453 22.652,5.453 5.26,0 11.174,-3.903 14.684,-0.84"
       id="path77"
       inkscape:connector-curvature="0" /><path
       d="m 157.886,88.058 c 8.315,-9.658 -7.636,-29.702 -17.867,-30.73 -17.975,-1.808 -35.922,5.606 -44.214,22.341 -7.393,14.919 1.248,35.612 6.136,50.282 3.174,9.525 5.773,19.25 7.953,29.051 1.497,6.728 -0.49,15.759 2.272,21.759 5.692,-11.229 -2.157,-31.172 -5.136,-42.497 -2.075,-7.885 -4.11,-15.781 -6.292,-23.637 -2.093,-7.535 -5.889,-14.327 -3.893,-22.344 2.695,-10.821 28.608,-8.468 36.295,-5.902 5.614,1.874 9.702,5.17 15.728,3.146 3.51,-1.18 6.075,-4.409 9.018,-1.469"
       id="path79"
       style="fill:#42cb2c"
       inkscape:connector-curvature="0" /><path
       d="m 94.965,106.517 c -1.882,-11.206 -3.25,-20.142 2.937,-30.203 5.896,-9.588 14.409,-15.413 25.309,-17.836 10.499,-2.335 22.668,-3.245 28.176,7.768 3.07,6.139 11.602,14.484 6.922,21.813 -1.479,-15.997 -26.412,-20.032 -38.646,-16.976 -7.416,1.853 -15.958,6.049 -20.503,12.363 -5.442,7.558 -1.8,17.634 -4.195,23.071"
       id="path81"
       style="fill:#b3faa9"
       inkscape:connector-curvature="0" /><path
       d="m 143.626,89.315 c 10.108,1.26 -2.896,-8.217 -5.844,-9.321 -7.536,-2.822 -20.389,-0.121 -27.296,3.451 6.39,-1.831 13.101,-1.772 19.298,0.418 4.319,1.527 10.629,5.13 13.842,5.452"
       id="path83"
       style="fill:#b3faa9"
       inkscape:connector-curvature="0" /><path
       d="m 93.707,171.953 c -9.359,-9.871 -28.029,-17.479 -37.124,-2.306 -6.797,11.34 -3.053,21.094 7.132,27.895 8.916,5.953 -1.13,19.655 -6.501,23.7 -9.277,6.987 -2.539,22.929 -15.941,27.057 13.219,-2.433 11.865,-15.259 18.037,-23.071 2.38,-3.013 6.153,-3.99 8.392,-7.343 2.286,-3.423 3.812,-5.7 6.71,-8.599 2.623,-2.623 6.275,-0.457 9.231,-0.42 5.986,0.076 10.403,-1.572 14.182,-6.432 8.922,-11.475 6.373,-21.467 -4.118,-30.481"
       id="path85"
       inkscape:connector-curvature="0" /><path
       d="m 92.868,172.792 c -11.213,-8.765 -24.784,-15.095 -34.394,0 -3.022,4.747 -4.754,12.249 -1.05,17.197 2.663,3.558 7.423,4.424 9.858,7.55 6.932,8.901 -4.132,19.194 -9.647,24.75 -7.796,7.854 -2.895,21.503 -16.361,26.009 13.249,-2.422 10.328,-16.447 16.361,-23.911 2.487,-3.077 7.702,-3.642 9.647,-7.55 1.715,-3.446 3.338,-6.375 6.71,-8.39 7.75,-4.631 13.385,1.299 20.742,-6.061 11.275,-11.276 7.405,-19.627 -1.866,-29.594"
       id="path87"
       style="fill:#d90000"
       inkscape:connector-curvature="0" /><path
       d="m 77.768,205.511 c 11.271,-0.858 13,-6.895 15.939,-16.779 4.414,-14.842 -9.275,-24.356 -23.04,-19.202 -5.303,1.985 -10.936,7.57 -10.936,13.539 0,7.506 6.58,9.678 9.229,15.732 0.953,2.177 -0.288,8.036 1.675,9.225 1.262,0.764 5.715,-2.173 7.133,-2.515"
       id="path89"
       style="fill:#d90000"
       inkscape:connector-curvature="0" /><path
       d="m 61.829,179.502 c -2.407,8.048 3.086,12.191 7.13,18.248 1.934,2.896 -0.166,8.929 2.935,9.857 2.634,0.789 16.122,-4.964 17.41,-7.552 3.474,-6.979 5.815,-18.152 2.308,-25.166 -6.72,-13.439 -23.867,-2.602 -29.783,4.613"
       id="path91"
       style="fill:#dd1a1a"
       inkscape:connector-curvature="0" /><path
       d="m 63.504,179.924 c -3.33,7.403 3.269,11.268 5.874,17.197 0.868,1.976 0.629,9.725 2.098,10.486 1.826,0.947 15.266,-5.482 16.779,-7.55 3.458,-4.727 5.925,-18.706 2.937,-23.91 -7.505,-13.07 -21.933,-4.036 -27.688,3.777"
       id="path93"
       style="fill:#e03333"
       inkscape:connector-curvature="0" /><path
       d="m 64.766,180.76 c -2.502,7.244 3.255,10.432 5.452,16.361 0.846,2.283 -0.098,8.778 1.258,9.646 0.971,0.622 14.686,-4.191 15.73,-6.29 2.697,-5.419 5.633,-16.212 3.986,-22.233 -3.819,-13.96 -21.217,-7.434 -26.426,2.516"
       id="path95"
       style="fill:#e44d4d"
       inkscape:connector-curvature="0" /><path
       d="m 66.023,181.182 c -1.898,6.729 3.104,10.28 5.035,15.939 0.476,1.396 -0.613,8.629 0,9.229 1.438,1.409 13.808,-4.582 15.52,-6.295 3.624,-3.626 4.34,-17.059 3.146,-21.812 -3.912,-15.563 -18.651,-2.603 -23.701,2.939"
       id="path97"
       style="fill:#e86666"
       inkscape:connector-curvature="0" /><path
       d="m 67.699,182.022 c -1.988,4.886 1.108,10.021 3.777,14.051 1.616,2.44 -1.137,8.782 0,9.856 1.184,1.118 13.726,-4.382 14.891,-6.71 2.491,-4.984 3.661,-15.469 2.306,-20.975 -3.154,-12.814 -16.566,-4.976 -20.974,3.778"
       id="path99"
       style="fill:#ec8080"
       inkscape:connector-curvature="0" /><path
       d="m 68.961,182.44 c -1.812,5.33 2.01,8.944 3.563,13.633 0.91,2.747 -1.442,6.79 -0.631,8.599 1.042,2.322 3.06,0.039 5.875,-1.258 2.135,-0.983 5.798,-1.615 7.55,-3.777 2.483,-3.064 4.041,-17.233 2.728,-21.181 -4.621,-13.896 -13.86,-1.052 -19.085,3.984"
       id="path101"
       style="fill:#f09999"
       inkscape:connector-curvature="0" /><path
       d="m 79.448,201.734 c 13.573,0.868 8.814,-48.849 -7.132,-21.392 -4.412,7.596 1.409,12.239 1.258,19.716 -0.046,2.313 -2.898,4.575 -0.418,5.453 0.769,0.273 6.711,-4.06 6.292,-3.777"
       id="path103"
       style="fill:#f4b3b3"
       inkscape:connector-curvature="0" /><path
       d="m 73.155,201.316 c -2.953,7.357 -7.86,17.019 -14.682,21.392 6.562,-3.281 8.959,-8.713 13.002,-14.26 1.011,-1.387 6.112,-5.046 6.292,-6.292 0.444,-3.061 -3.041,-2.866 -4.612,-0.84"
       id="path105"
       style="fill:#f4b3b3"
       inkscape:connector-curvature="0" /><path
       d="m 174.248,176.566 c 0.541,-21.965 -23.604,-20.589 -37.336,-13.842 -8.438,4.146 -18.533,10.487 -15.19,21.644 2.691,8.983 5.704,17.378 14.984,21.354 7.55,3.234 16.65,0.136 21.601,7.55 2.845,4.261 -1.954,9.85 -1.256,14.471 0.935,6.18 7.44,10.207 9.436,16.15 2.327,6.934 1.274,10.347 9.02,14.892 -6.72,-4.182 -4.979,-11.694 -7.133,-18.036 -2.726,-8.021 -7.108,-10.186 -5.451,-18.459 1.142,-5.698 -1.051,-12.905 0.84,-18.036 3.527,-9.575 14.269,-15.302 10.485,-27.688"
       id="path107"
       inkscape:connector-curvature="0" /><path
       d="m 173.408,177.406 c 0.554,-9.641 -6.581,-17.595 -15.909,-18.768 -7.355,-0.925 -11.498,1.918 -17.649,4.925 -9.469,4.628 -17.197,7.188 -17.197,19.156 0,9.694 6.942,19.595 16.357,21.952 7.463,1.869 17.4,-0.512 20.975,7.972 2.354,5.589 -2.139,9.587 -1.258,15.1 0.931,5.828 6.681,10.432 8.6,16.15 2.051,6.11 0.997,10.961 8.18,14.892 -8.027,-3.227 -5.595,-11.214 -7.969,-17.618 -3.061,-8.257 -7.915,-10.12 -5.873,-18.877 0.774,-3.321 2.39,-5.561 1.469,-9.229 -0.775,-3.086 -2.509,-6.513 -1.469,-9.647 1.126,-3.395 6.32,-6.551 8.389,-9.647 2.899,-4.343 5.076,-11.82 3.354,-16.361"
       id="path109"
       style="fill:#d90000"
       inkscape:connector-curvature="0" /><path
       d="m 172.568,182.44 c 2.054,-10.284 -4.88,-23.307 -16.357,-22.653 -13.479,0.767 -17.056,15.022 -17.972,26.062 -0.912,10.98 2.352,19.807 15.034,18.405 9.659,-1.068 21.217,-12.127 19.295,-21.814"
       id="path111"
       style="fill:#d90000"
       inkscape:connector-curvature="0" /><path
       d="m 159.148,160.626 c -18.271,-1.503 -28.902,39.075 -10.486,42.787 24.31,4.9 34.822,-39.069 10.486,-42.787"
       id="path113"
       style="fill:#dd1a1a"
       inkscape:connector-curvature="0" /><path
       d="m 159.566,161.466 c -16.861,-1.13 -26.823,38.026 -9.23,41.107 22.887,4.01 32.019,-38.913 9.23,-41.107"
       id="path115"
       style="fill:#e03333"
       inkscape:connector-curvature="0" /><path
       d="m 159.566,162.306 c -11.566,0.45 -14.244,13.692 -15.73,22.651 -1.471,8.859 0.271,13.033 7.34,16.567 17.494,8.749 33.723,-36.417 8.39,-39.218"
       id="path117"
       style="fill:#e44d4d"
       inkscape:connector-curvature="0" /><path
       d="m 159.566,163.146 c -13.155,2.147 -22.186,35.873 -5.875,37.752 21.59,2.487 25.214,-39.557 5.875,-37.752"
       id="path119"
       style="fill:#e86666"
       inkscape:connector-curvature="0" /><path
       d="m 159.984,163.981 c -12.1,1.079 -19.911,34.603 -5.031,36.077 19.344,1.916 24.307,-36.896 5.031,-36.077"
       id="path121"
       style="fill:#ec8080"
       inkscape:connector-curvature="0" /><path
       d="m 159.984,164.821 c -10.202,2.447 -17.737,33.748 -3.355,34.815 17.424,1.293 22.425,-35.249 3.355,-34.815"
       id="path123"
       style="fill:#f09999"
       inkscape:connector-curvature="0" /><path
       d="m 171.732,183.28 c 1.348,-6.518 -1.316,-17.509 -9.65,-17.619 -7.892,-0.104 -10.488,11.743 -10.488,18.037 0,5.401 -2.703,11.987 3.777,14.682 9.399,3.908 14.992,-8.235 16.361,-15.1"
       id="path125"
       style="fill:#f4b3b3"
       inkscape:connector-curvature="0" /><path
       d="m 160.406,205.511 c -2.619,4.962 2.397,11.058 -0.422,17.196 4.587,-6.171 1.215,-11.07 0.422,-17.196"
       id="path127"
       style="fill:#f4b3b3"
       inkscape:connector-curvature="0" /><path
       d="m 139.431,189.572 c 0.822,-8.438 -4.377,-17.287 -12.166,-20.556 -5.403,-2.267 -11.968,-0.897 -17.616,-2.307 -19.441,-4.851 -35.664,20.734 -20.789,35.633 10.533,10.549 25.276,1.979 22.775,22.075 -1.055,8.479 -7.816,13.22 -9.328,20.734 -1.948,9.685 11.73,15.843 6.503,27.058 6.526,-9.532 -4.788,-17.062 -1.68,-26.429 2.616,-7.884 9.512,-13.118 10.487,-21.812 0.621,-5.53 -1.668,-13.54 5.451,-15.313 8.601,-2.139 15.73,-10.349 16.363,-19.083"
       id="path129"
       inkscape:connector-curvature="0" /><path
       d="m 137.751,189.99 c 0.405,-8.052 -3.207,-16.832 -11.326,-19.717 -5.105,-1.813 -10.741,-0.172 -15.939,-1.466 -18.617,-4.633 -33.664,19.354 -19.505,33.558 4.41,4.424 11.116,2.456 16.361,4.194 6.677,2.214 6.527,14.187 5.663,19.508 -1.201,7.398 -8.873,13.074 -9.229,20.134 -0.494,9.784 10.058,15.229 5.035,26.009 7.254,-9.645 -6.021,-18.022 -2.939,-27.269 2.517,-7.551 9.062,-12.596 10.067,-20.972 0.749,-6.239 -1.146,-13.202 4.616,-17.201 7.634,-5.299 16.35,-4.775 17.196,-16.778"
       id="path131"
       style="fill:#d90000"
       inkscape:connector-curvature="0" /><path
       d="m 112.166,207.608 c 2.615,3.929 20.957,-7.463 23.072,-11.326 5.986,-10.933 -2.085,-27.175 -15.104,-26.426 -5.55,0.319 -11.996,4.366 -16.986,6.503 -8.188,3.506 -13.948,8.055 -8.601,17.407 3.974,6.952 16.05,8.131 17.619,13.842"
       id="path133"
       style="fill:#d90000"
       inkscape:connector-curvature="0" /><path
       d="m 94.965,188.314 c 1.023,5.359 4.468,9.582 9.231,11.953 3.443,1.714 5.835,5.998 8.387,7.341 3.549,1.866 6.449,-2.551 10.486,-3.565 7.438,-1.869 12.906,-7.187 13.424,-14.893 0.685,-10.194 -7.256,-20.493 -18.035,-18.037 -6.416,1.462 -25.454,10.378 -23.493,17.201"
       id="path135"
       style="fill:#dd1a1a"
       inkscape:connector-curvature="0" /><path
       d="m 97.484,188.732 c 0.833,5.966 5.415,8.174 9.229,11.326 1.729,1.43 5.785,8.529 7.128,8.808 1.75,0.362 7.432,-4.717 9.02,-5.243 7.041,-2.334 12.094,-5.544 13.217,-13.211 1.275,-8.713 -4.558,-19.278 -14.683,-18.877 -4.703,0.187 -6.569,3.56 -10.487,5.871 -5.061,2.986 -13.886,3.242 -13.424,11.326"
       id="path137"
       style="fill:#e03333"
       inkscape:connector-curvature="0" /><path
       d="m 100,189.15 c 0.983,5.243 5.076,7.129 8.389,10.486 1.395,1.414 3.972,7.987 5.035,8.39 2.214,0.839 6.652,-4.034 9.018,-4.821 7.374,-2.452 10.107,-4.963 13.425,-11.537 3.762,-7.453 -5.218,-20.13 -13.214,-19.715 -4.339,0.226 -6.261,3.953 -9.646,6.292 -4.439,3.065 -13.678,3.531 -13.007,10.905"
       id="path139"
       style="fill:#e44d4d"
       inkscape:connector-curvature="0" /><path
       d="m 102.519,189.15 c 1.063,5.154 5.202,6.317 7.968,10.069 1.557,2.112 1.384,7.561 3.355,8.389 1.177,0.494 6.896,-3.952 9.229,-5.034 5.742,-2.665 11.104,-4.104 12.584,-10.904 1.564,-7.186 -3.47,-19.874 -12.584,-18.877 -4.383,0.479 -5.001,4.739 -8.389,7.132 -4.795,3.385 -11.657,3.228 -12.163,9.225"
       id="path141"
       style="fill:#e86666"
       inkscape:connector-curvature="0" /><path
       d="m 105.034,189.572 c 1.391,4.731 5.727,5.812 7.55,9.229 0.969,1.817 -0.502,8.002 1.258,8.807 0.966,0.441 7.22,-4.72 8.811,-5.452 5.587,-2.571 10.638,-3.285 12.586,-9.646 2.606,-8.51 -2.575,-15.534 -9.65,-19.088 -4.16,-2.09 -5.977,5.378 -8.387,7.339 -4.207,3.422 -11.705,2.357 -12.168,8.811"
       id="path143"
       style="fill:#ec8080"
       inkscape:connector-curvature="0" /><path
       d="m 107.549,189.572 c 0.917,4.486 5.815,5.703 7.132,9.229 0.595,1.593 -2.536,7.978 -0.418,8.807 0.82,0.321 6.214,-5.1 7.968,-5.874 5.177,-2.286 10.8,-2.428 13.007,-8.39 3.071,-8.297 -3.012,-16.199 -9.65,-19.503 -3.212,-1.599 -4.302,6.75 -5.872,8.181 -3.805,3.466 -11.206,2.235 -12.167,7.55"
       id="path145"
       style="fill:#f09999"
       inkscape:connector-curvature="0" /><path
       d="m 113.841,206.768 c 2.613,1.798 3.379,-2.94 5.874,-4.612 4.26,-2.854 10.132,-1.212 13.634,-5.874 5.485,-7.303 -2.022,-27.997 -9.439,-18.454 -2.809,3.613 -1.59,4.474 -5.873,6.71 -2.653,1.385 -9.898,2.036 -7.339,7.13 1.449,2.884 4.903,3.947 6.292,6.714 0.995,1.98 -2.686,6.213 -3.149,8.386"
       id="path147"
       style="fill:#f4b3b3"
       inkscape:connector-curvature="0" /><path
       d="m 118.458,202.156 c -4.39,7.747 -1.598,14.121 -2.938,22.649 -1.258,8.002 -10.682,14.823 -10.487,22.235 0.171,-4.967 3.896,-8.679 5.875,-13.006 2.346,-5.13 3.026,-10.263 2.933,-15.939 -0.081,-4.984 -1.178,-9.987 1.262,-14.682 2.098,-4.034 4.755,-4.626 3.355,-1.257"
       id="path149"
       style="fill:#f4b3b3"
       inkscape:connector-curvature="0" /></g></svg>