<?xml version="1.0" encoding="utf-8"?>
<!-- Generator: Adobe Illustrator 12.0.1, SVG Export Plug-In . SVG Version: 6.00 Build 51448)  -->
<!DOCTYPE svg PUBLIC "-//W3C//DTD SVG 1.1//EN" "http://www.w3.org/Graphics/SVG/1.1/DTD/svg11.dtd" [
	<!ENTITY ns_svg "http://www.w3.org/2000/svg">
	<!ENTITY ns_xlink "http://www.w3.org/1999/xlink">
]>
<svg  version="1.1" id="Layer_1" xmlns="&ns_svg;" xmlns:xlink="&ns_xlink;" width="595.576" height="420.318"
	 viewBox="0 0 595.576 420.318" overflow="visible" enable-background="new 0 0 595.576 420.318" xml:space="preserve">
<g>
	<path fill-rule="evenodd" clip-rule="evenodd" fill="#D4891C" d="M264.576,74.318c-1.117,1.23-0.871,2.054,1,2
		c0.826,2.826-1.409,2.591-1,5c-3.223-2.11-5.89-4.777-8-8c-2.876,0.157-5.318,2.231-9,4c-1.877-1.907,0.593-1.81,0-5
		C255.218,70.312,255.896,71.555,264.576,74.318z"/>
	<path fill-rule="evenodd" clip-rule="evenodd" fill="#D4891C" d="M271.576,244.318c5.675,2.325,9.859,6.141,10,14
		c-2.092,1.859-3.758,2.591-5,3c-2.739-3.226,8.604-12.671-6-12C270.257,246.999,270.737,245.479,271.576,244.318z"/>
	<path fill-rule="evenodd" clip-rule="evenodd" fill="#D4891C" d="M275.576,254.318c-5.875,4.149-8.161,11.295-12,15
		C264.511,263.836,268.151,250.756,275.576,254.318z"/>
	<path fill-rule="evenodd" clip-rule="evenodd" d="M324.576,88.318c17.442-7.006,44.868,15.895,51,29
		c16.229,13.598,47.997,13.023,48,38c9.275,2,21.623,7.042,30,13c1.162,7.557,6.651,12.412,13,21c4.637,6.271,7.463,15.251,12,22
		c2.458,3.655,6.348,5.622,9,9c10.945,13.939,20.084,42.26,18,61c8.987,9.631,5.011,14.296,8,24c10.379,0.767,11.968-4.41,15-9
		c2.078,0.56,2.119,1.56,1,3c4.836-0.729,8.154-1.768,10,4c-10.423-5.115-12.624,4.865-16,14c22.689,3.832,6.193,20.489,26,29
		c15.643,1.542,24.981,11.415,28,22c-5.1,0.767-2.282-6.384-7-6c-1.97,2.072,4.313,7.957,0,10c-4.548-7.451-0.578-19.563-18-19
		c-3.057,2.632,4.057,3.368,1,6c17.219,12.769,9.161,33.986,22,48c8.281,4.646,14.531-1.411,20-3c-2.668,7.571-15.404,9.101-20,6
		c3.637,6.252,10.723,3.183,13,10c-4.535-0.798-8.048-2.619-10-6c-1.135,0.19-0.555,1.003,0,1c-20.299-7.977-24.022-30.221-41-43
		c-7.516,10.834,8.785,19.008,10,31c-6.937-4.506-9.519-17.23-20-23c-3.166-13.521-7.192-25.165-21-30
		c-13.839,7.972-14.494,23.086-1,27c-2.815,4.512-9.279-2.062-7,5c-12.58-10.281-2.56-19.44-7-35c-10.372,1.681-20.438,3.668-31-3
		c-4.649,6.899-16.716,1.545-18,2c-2.301,0.815-3.377,4.328-4,5c-14.914,16.081-29.103,10.344-51,5c-7.035,3.094-14.009,5.727-23,4
		c-5.928-1.138-15.784-4.312-19-6c-1.344-0.706-1.643-3.308-3-4c-2.973-1.516-11.673-2.054-10-6c-8.009-1.324-11.544-7.123-16-12
		c-18.118,3.454-29.394-16.214-46-14c-2.432,5.415,1.168,21.056,15,21c-6.762,8.058-17.202-6.742-22-13
		c-3.845,4.586-0.197,6.651-3,10c-4.318-8.241,0.655-16.702,3-21c-0.125-2.209-4.242-0.425-6-1c-6.715-4.455-13.856-10.437-21-16
		c-7.916-6.165-14.582-15.061-22-20c-4.943-3.291-12.131-4.269-17-8c-7.91-6.062-12.306-14.021-18-24
		c-8.693-2.289-17.344-7.507-22-12c-0.647-0.624-0.289-3.563-1-4c-7.705-4.729-12.993-18.281-18-25
		c-8.096-10.863-19.263-13.432-27-23c-0.325-0.402,1.464-1.358,1-2c-1.516-2.095-5.205-3.314-7-6c-1.23-1.841-3.151-9.821-7-13
		c-5.902-4.875-17.491-11.404-16-22c-23.14-9.182-31.926-36.136-38-54c-2.509-7.38-9.301-5.866-18-16
		c-3.861-4.499-6.385-10.921-10-13c-3.062-1.761-7.601-0.303-10-2c-7.975-5.641-10.227-21.525,2-27c-2.599-2.63,1.616-0.787,1-4
		c23.349-11.935,50.79-28.058,85-22c6.793,1.203,17.992,9.13,25,8c26.22-4.228,55.086-3.467,74,16c4.015,0.652,6.823,2.51,10,4
		c0.614-1.386,3.85-0.15,4-2c1.135,0.19,0.555,1.003,0,1c9.783,1.454,23.112,1.74,32,9c7.4,1.396,16.839,5.651,18,10
		c17.115,14.799,36.967,15.027,57,26C315.224,77.594,321.522,80.164,324.576,88.318z M125.576,14.318
		c-15.352,3.039-37.004-4.28-49-6c-16.69-2.393-36.4,5.034-51,11c-5.442,2.652-15.058,10.174-19,15
		c5.033,17.864,19.954,17.365,31,30c5.21-3.682-2.153-13.939,3-17c5.477,25.151,10.665,48.445,25,66c5.79,7.09,11.103,9.474,17,14
		c6.783,5.206,7.353,15.617,15,21c6.007-6.194,5.785-9.721,10-18c0.521,10.101-9.969,24.636,3,35c1.566,8.134,15.533,16.677,22,20
		c7.108-19.838,11.953-33.408,25-48c-9.147,18.993-16.924,28.085-18,52c3.288,12.08,12.475,22.928,19,33
		c1.675,2.586,8.465,4.541,12,7c0.42,0.293-1.21,1.904-1,2c7.447,3.398,11.478,2.101,16,8c1.079,1.407-0.636,2.548,0,4
		c3.38,7.718,11.65,13.258,21,18c0.003,1.003-0.81,1.19-1,2c18.988,3.482,18.817,21.762,37,30c-0.792,0.998,12.629,10.321,12,10
		c3.418,1.743,10.37,3.88,13,2c-5.538-22.623-13.67-34.622,1-54c-2.141-5.886-0.759-10.299,5-12c7.495,2.868,18.193,28.065,0,23
		c-5.006,4.57-4.35,13.233-8,21c3.904,9.028,11.595,14.132,9,25c5.209-1.208,10.441,3.719,15,6c6.235,3.119,20.814,8.213,23,4
		c2.825-5.446-9.357-14.374,1-21c-3.823,27.001,28.013,57.864,65,51c-7.681-10.503-10.556-20.834-15-39c1.427-0.239,1.687-1.646,3-2
		c0.212,15.059,10.599,29.167,17,38c14.451,5.049,28.21,11.773,40,7c6.01-2.434,8.337-7.396,14-10c7.525-3.459,16.549,0.449,25-5
		c16.911,10.733,35.343-2.79,56,10c5.211,7.258,11.827,10.831,15,18c5.932-0.265,5.312,6.021,11,6c7.905,11.611,15.157,22.71,22,32
		c0.737-5.865-4.973-8.578-7-14c-3.642-9.738-2.512-26.363-16-34c2.578-0.241-1.373-1.721,0-4c4.568,0.011,10.335,0.115,11-1
		c-5.417-3.2-9.207-0.671-17,0c-8.143-6.8-3.148-26.789-18-28c-3.193-3.482-8.129-13.092-10-18c-2.838,5.287-3.457,11.471-9,11
		c3.688-5.193,6.992-14.325,5-22c-0.887-3.415-5.738-5.966-7-9c-2.338-5.621,1.701-14.62-2-14c-3.151-19.252-5.07-42.608-24-53
		c-7.041-3.865-18.04-1.469-29-6c4.636,0.857,1.048-1.574,3-2c5.243,0.901,17.858,4.564,24,1c-5.485-6.73-9.973-16.768-15-21
		c-19.718-32.935-59.057-40.397-84-19c-0.212-1.208-1.109-0.615-2,0c-0.721-4.447,5.724-5.756,9-9c0.102,1.122-1.453,1.557,0,2
		c11.242-11.024,19.945-8.75,35-8c-1.506-3.145-3.285-10.471-9-15c-7.042-5.581-16.385-6.066-23-10c-2.569-1.528-3.218-5.66-4-2
		c-13.322-10.207-19.412-21.761-33-32c-15.863-5.579-37.863,1.414-52,2c6.494-5.883,18.712-4.664,23-7
		c-14.607-20.754-31.506-25.538-56-27c-9.266-11.117-11.873-17.266-26-22c1.701-4.506-9.47-3.855-15-5
		c-34.158-7.072-75.412,7.975-96,32c0.075-1.742-0.223-3.11-1-4c9.938-4.875,14.449-16.595,29-28c12.038-0.895,21.25,0.722,33-3
		C171.302,15.655,145.395,10.395,125.576,14.318z M147.576,45.318c5.118-0.882,8.813-3.187,13-5
		C154.236,39.978,151.768,43.51,147.576,45.318z M270.576,249.318c14.604-0.671,3.261,8.774,6,12c1.242-0.409,2.908-1.141,5-3
		c-0.141-7.859-4.325-11.675-10-14C270.737,245.479,270.257,246.999,270.576,249.318z M263.576,269.318
		c3.839-3.705,6.125-10.851,12-15C268.151,250.756,264.511,263.836,263.576,269.318z M262.576,323.318c3.108-1.195,2.763-2.35,5,1
		c-0.03-10.427,3.805-12.479,6-20c-2.644-2.952-2.35-9.567-6-9C273.443,311.436,264.147,316.485,262.576,323.318z M515.576,309.318
		c3.101,0.282,3.815,8.118,7,5c-0.559-1.69,3.649-6.219,2-9C521.197,308.505,518.955,306.794,515.576,309.318z M495.576,355.318
		c2.939-0.727,4.216-3.117,4-7c-2.933-0.267-3.714-1.38-5,0C497.528,350.23,495.937,352.564,495.576,355.318z M531.576,378.318
		c-2.109-3.579,0.865-17.502-6-13C527.153,368.3,527.744,378.564,531.576,378.318z"/>
	<path fill-rule="evenodd" clip-rule="evenodd" fill="#D4891C" d="M183.576,34.318c-11.75,3.722-20.962,2.105-33,3
		c-14.551,11.405-19.062,23.125-29,28c0.777,0.89,1.075,2.258,1,4c20.588-24.025,61.842-39.072,96-32c5.53,1.145,16.701,0.494,15,5
		c14.127,4.734,16.734,10.883,26,22c24.494,1.462,41.393,6.246,56,27c-4.288,2.336-16.506,1.117-23,7
		c14.137-0.586,36.137-7.579,52-2c13.588,10.239,19.678,21.793,33,32c0.782-3.66,1.431,0.472,4,2c6.615,3.934,15.958,4.419,23,10
		c5.715,4.529,7.494,11.855,9,15c-15.055-0.75-23.758-3.024-35,8c-1.453-0.443,0.102-0.878,0-2c-3.276,3.244-9.721,4.553-9,9
		c0.891-0.615,1.788-1.208,2,0c24.943-21.397,64.282-13.935,84,19c5.027,4.232,9.515,14.27,15,21c-6.142,3.564-18.757-0.099-24-1
		c-1.952,0.426,1.636,2.857-3,2c10.96,4.531,21.959,2.135,29,6c18.93,10.392,20.849,33.748,24,53c3.701-0.62-0.338,8.379,2,14
		c1.262,3.034,6.113,5.585,7,9c1.992,7.675-1.312,16.807-5,22c5.543,0.471,6.162-5.713,9-11c1.871,4.908,6.807,14.518,10,18
		c14.852,1.211,9.857,21.2,18,28c7.793-0.671,11.583-3.2,17,0c-0.665,1.115-6.432,1.011-11,1c-1.373,2.279,2.578,3.759,0,4
		c13.488,7.637,12.358,24.262,16,34c2.027,5.422,7.737,8.135,7,14c-6.843-9.29-14.095-20.389-22-32c-5.688,0.021-5.068-6.265-11-6
		c-3.173-7.169-9.789-10.742-15-18c-20.657-12.79-39.089,0.733-56-10c-8.451,5.449-17.475,1.541-25,5c-5.663,2.604-7.99,7.566-14,10
		c-11.79,4.773-25.549-1.951-40-7c-6.401-8.833-16.788-22.941-17-38c-1.313,0.354-1.573,1.761-3,2c4.444,18.166,7.319,28.497,15,39
		c-36.987,6.864-68.823-23.999-65-51c-10.357,6.626,1.825,15.554-1,21c-2.186,4.213-16.765-0.881-23-4
		c-4.559-2.281-9.791-7.208-15-6c2.595-10.868-5.096-15.972-9-25c3.65-7.767,2.994-16.43,8-21c18.193,5.065,7.495-20.132,0-23
		c-5.759,1.701-7.141,6.114-5,12c-14.67,19.378-6.538,31.377-1,54c-2.63,1.88-9.582-0.257-13-2c0.629,0.321-12.792-9.002-12-10
		c-18.183-8.238-18.012-26.518-37-30c0.19-0.81,1.003-0.997,1-2c-9.35-4.742-17.62-10.282-21-18c-0.636-1.452,1.079-2.593,0-4
		c-4.522-5.899-8.553-4.602-16-8c-0.21-0.096,1.42-1.707,1-2c-3.535-2.459-10.325-4.414-12-7c-6.525-10.072-15.712-20.92-19-33
		c1.076-23.915,8.853-33.007,18-52c-13.047,14.592-17.892,28.162-25,48c-6.467-3.323-20.434-11.866-22-20
		c-12.969-10.364-2.479-24.899-3-35c-4.215,8.279-3.993,11.806-10,18c-7.647-5.383-8.217-15.794-15-21
		c-5.897-4.526-11.21-6.91-17-14c-14.335-17.555-19.523-40.849-25-66c-5.153,3.061,2.21,13.318-3,17
		c-11.046-12.635-25.967-12.136-31-30c3.942-4.826,13.558-12.348,19-15c14.6-5.966,34.31-13.393,51-11
		c11.996,1.72,33.648,9.039,49,6C145.395,10.395,171.302,15.655,183.576,34.318z M263.576,110.318c-5.981-6.809-6.273-22.782,5-31
		c1.635-3.466-5.192-7.938-7-10c-4.803,0.449-7.424-1.247-14,0c-1.544,2.123-2.877,4.456-4,7c1.422,1.912,3.088,3.578,5,5
		c-2.141,8.071,0.73,27.834,14,37c5.814-0.799,12.245,6.41,16,11c-0.604,2.159-0.892,6.646-1,10c4.631-0.858,2.222-11.276,3-13
		c6.695,4.043,4.917,8.831,8,14C292.886,124.224,272.394,120.355,263.576,110.318z"/>
	<path fill-rule="evenodd" clip-rule="evenodd" fill="#D4891C" d="M160.576,40.318c-4.187,1.813-7.882,4.118-13,5
		C151.768,43.51,154.236,39.978,160.576,40.318z"/>
	<path fill-rule="evenodd" clip-rule="evenodd" d="M288.576,140.318c-3.083-5.169-1.305-9.957-8-14c-0.778,1.724,1.631,12.142-3,13
		c0.108-3.354,0.396-7.841,1-10c-3.755-4.59-10.186-11.799-16-11c-13.27-9.166-16.141-28.929-14-37c-1.912-1.422-3.578-3.088-5-5
		c1.123-2.544,2.456-4.877,4-7c6.576-1.247,9.197,0.449,14,0c1.808,2.062,8.635,6.534,7,10c-11.273,8.218-10.981,24.191-5,31
		C272.394,120.355,292.886,124.224,288.576,140.318z M247.576,72.318c0.593,3.19-1.877,3.093,0,5c3.682-1.769,6.124-3.843,9-4
		c2.11,3.223,4.777,5.89,8,8c-0.409-2.409,1.826-2.174,1-5c-1.871,0.054-2.117-0.77-1-2
		C255.896,71.555,255.218,70.312,247.576,72.318z M249.576,87.318c-0.064,8.249,9.073,25.903,12,25c-7.126-9.759-7.281-17.466-3-30
		C255.416,73.878,249.651,77.598,249.576,87.318z"/>
	<path fill-rule="evenodd" clip-rule="evenodd" fill="#D4891C" d="M258.576,82.318c-4.281,12.534-4.126,20.241,3,30
		c-2.927,0.903-12.064-16.751-12-25C249.651,77.598,255.416,73.878,258.576,82.318z"/>
	<path fill-rule="evenodd" clip-rule="evenodd" fill="#D4891C" d="M267.576,295.318c3.65-0.567,3.356,6.048,6,9
		c-2.195,7.521-6.03,9.573-6,20c-2.237-3.35-1.892-2.195-5-1C264.147,316.485,273.443,311.436,267.576,295.318z"/>
	<path fill-rule="evenodd" clip-rule="evenodd" fill="#D4891C" d="M524.576,305.318c1.649,2.781-2.559,7.31-2,9
		c-3.185,3.118-3.899-4.718-7-5C518.955,306.794,521.197,308.505,524.576,305.318z"/>
	<path fill-rule="evenodd" clip-rule="evenodd" fill="#D4891C" d="M494.576,348.318c1.286-1.38,2.067-0.267,5,0
		c0.216,3.883-1.061,6.273-4,7C495.937,352.564,497.528,350.23,494.576,348.318z"/>
	<path fill-rule="evenodd" clip-rule="evenodd" fill="#D4891C" d="M525.576,365.318c6.865-4.502,3.891,9.421,6,13
		C527.744,378.564,527.153,368.3,525.576,365.318z"/>
</g>
</svg>
