<?xml version="1.0" encoding="UTF-8" standalone="no"?>
<!-- Created with Inkscape (http://www.inkscape.org/) -->

<svg
   xmlns:dc="http://purl.org/dc/elements/1.1/"
   xmlns:cc="http://creativecommons.org/ns#"
   xmlns:rdf="http://www.w3.org/1999/02/22-rdf-syntax-ns#"
   xmlns:svg="http://www.w3.org/2000/svg"
   xmlns="http://www.w3.org/2000/svg"
   xmlns:xlink="http://www.w3.org/1999/xlink"
   xmlns:sodipodi="http://sodipodi.sourceforge.net/DTD/sodipodi-0.dtd"
   xmlns:inkscape="http://www.inkscape.org/namespaces/inkscape"
   height="128"
   id="svg7364"
   version="1.0"
   width="76.819382"
   x="0.0000000"
   y="0.0000000"
   sodipodi:docname="angelfish.svg"
   inkscape:version="0.92.2 (5c3e80d, 2017-08-06)">
  <sodipodi:namedview
     pagecolor="#ffffff"
     bordercolor="#666666"
     borderopacity="1"
     objecttolerance="10"
     gridtolerance="10"
     guidetolerance="10"
     inkscape:pageopacity="0"
     inkscape:pageshadow="2"
     inkscape:window-width="1920"
     inkscape:window-height="1025"
     id="namedview42"
     showgrid="false"
     inkscape:zoom="4.9445096"
     inkscape:cx="47.502494"
     inkscape:cy="58.233143"
     inkscape:window-x="-8"
     inkscape:window-y="-8"
     inkscape:window-maximized="1"
     inkscape:current-layer="svg7364"
     fit-margin-top="0"
     fit-margin-left="0"
     fit-margin-right="0"
     fit-margin-bottom="0" />
  <metadata
     id="metadata2">
    <rdf:RDF>
      <cc:Work
         rdf:about="">
        <dc:title>Altum Angelfish</dc:title>
        <dc:description />
        <dc:subject>
          <rdf:Bag>
            <rdf:li>animal</rdf:li>
            <rdf:li>fish</rdf:li>
          </rdf:Bag>
        </dc:subject>
        <dc:publisher>
          <cc:Agent
             rdf:about="http://www.openclipart.org">
            <dc:title>Jonathon Love</dc:title>
          </cc:Agent>
        </dc:publisher>
        <dc:creator>
          <cc:Agent>
            <dc:title>Jonathon Love</dc:title>
          </cc:Agent>
        </dc:creator>
        <dc:rights>
          <cc:Agent>
            <dc:title>Jonathon Love</dc:title>
          </cc:Agent>
        </dc:rights>
        <dc:date />
        <dc:format>image/svg+xml</dc:format>
        <dc:type
           rdf:resource="http://purl.org/dc/dcmitype/StillImage" />
        <cc:license
           rdf:resource="http://creativecommons.org/publicdomain/zero/1.0/" />
        <dc:language>en</dc:language>
      </cc:Work>
      <cc:License
         rdf:about="http://creativecommons.org/publicdomain/zero/1.0/">
        <cc:permits
           rdf:resource="http://creativecommons.org/ns#Reproduction" />
        <cc:permits
           rdf:resource="http://creativecommons.org/ns#Distribution" />
        <cc:permits
           rdf:resource="http://creativecommons.org/ns#DerivativeWorks" />
      </cc:License>
    </rdf:RDF>
  </metadata>
  <defs
     id="defs7366">
    <linearGradient
       id="linearGradient8439">
      <stop
         id="stop8440"
         offset="0.0000000"
         style="stop-color:#ffffff;stop-opacity:1.0000000;" />
      <stop
         id="stop8441"
         offset="1.0000000"
         style="stop-color:#ababab;stop-opacity:1.0000000;" />
    </linearGradient>
    <linearGradient
       id="linearGradient7486">
      <stop
         id="stop7487"
         offset="0.0000000"
         style="stop-color:#e1e1e1;stop-opacity:1.0000000;" />
      <stop
         id="stop7488"
         offset="1.0000000"
         style="stop-color:#a6a6a6;stop-opacity:1.0000000;" />
    </linearGradient>
    <linearGradient
       id="linearGradient7439">
      <stop
         id="stop7440"
         offset="0.0000000"
         style="stop-color:#000000;stop-opacity:1.0000000;" />
      <stop
         id="stop7443"
         offset="1.0000000"
         style="stop-color:#696969;stop-opacity:1.0000000;" />
    </linearGradient>
    <linearGradient
       id="linearGradient7428">
      <stop
         id="stop7429"
         offset="0.0000000"
         style="stop-color:#000000;stop-opacity:1.0000000;" />
      <stop
         id="stop7434"
         offset="0.50000000"
         style="stop-color:#232323;stop-opacity:1.0000000;" />
      <stop
         id="stop7435"
         offset="0.65222222"
         style="stop-color:#a6a6a6;stop-opacity:1.0000000;" />
      <stop
         id="stop7430"
         offset="1.0000000"
         style="stop-color:#696969;stop-opacity:1.0000000;" />
    </linearGradient>
    <radialGradient
       cx="630.09698"
       cy="284.33594"
       fx="630.09698"
       fy="284.33594"
       id="radialGradient7433"
       r="9.3190498"
       xlink:href="#linearGradient7428"
       gradientUnits="userSpaceOnUse" />
    <linearGradient
       id="linearGradient7456"
       xlink:href="#linearGradient7439"
       gradientTransform="scale(0.58139418,1.7200035)"
       x1="211.52969"
       y1="47.257568"
       x2="259.73529"
       y2="47.257568"
       gradientUnits="userSpaceOnUse" />
    <linearGradient
       id="linearGradient7466"
       xlink:href="#linearGradient7439"
       gradientTransform="scale(0.43071212,2.3217364)"
       x1="225.05241"
       y1="24.769785"
       x2="273.90457"
       y2="24.769785"
       gradientUnits="userSpaceOnUse" />
    <linearGradient
       id="linearGradient7483"
       xlink:href="#linearGradient7439"
       gradientTransform="scale(0.38043973,2.6285372)"
       x1="183.32222"
       y1="24.874851"
       x2="238.47122"
       y2="24.874851"
       gradientUnits="userSpaceOnUse" />
    <linearGradient
       id="linearGradient7489"
       x1="110.83935"
       x2="116.88523"
       xlink:href="#linearGradient7486"
       y1="58.604572"
       y2="138.12212"
       gradientTransform="scale(0.83852261,1.1925737)"
       gradientUnits="userSpaceOnUse" />
    <pattern
       height="94.757693"
       id="pattern7584"
       patternTransform="translate(368.6280,13.05793)"
       patternUnits="userSpaceOnUse"
       width="74.505979">
      <path
         d="M 38.451945,0.69356471 C 50.280435,22.487185 59.912235,46.125655 67.766335,70.365069 C 69.755055,78.273599 71.329095,86.349649 73.812415,94.064129 M 35.934725,0.69356471 C 47.763215,22.487185 57.395015,46.125655 65.249115,70.365069 C 67.237825,78.273599 68.811865,86.349649 71.295195,94.064129 M 33.417495,0.69356471 C 45.245985,22.487185 54.877785,46.125655 62.731885,70.365069 C 64.720605,78.273599 66.294645,86.349649 68.777965,94.064129 M 30.900275,0.69356471 C 42.728765,22.487185 52.360565,46.125655 60.214655,70.365069 C 62.203375,78.273599 63.777415,86.349649 66.260745,94.064129 M 28.383045,0.69356471 C 40.211535,22.487185 49.843335,46.125655 57.697435,70.365069 C 59.686155,78.273599 61.260195,86.349649 63.743515,94.064129 M 25.865825,0.69356471 C 37.694315,22.487185 47.326115,46.125655 55.180205,70.365069 C 57.168925,78.273599 58.742965,86.349649 61.226295,94.064129 M 23.348595,0.69356471 C 35.177085,22.487185 44.808885,46.125655 52.662985,70.365069 C 54.651705,78.273599 56.225745,86.349649 58.709065,94.064129 M 20.831375,0.69356471 C 32.659865,22.487185 42.291665,46.125655 50.145755,70.365069 C 52.134475,78.273599 53.708515,86.349649 56.191845,94.064129 M 18.314145,0.69356471 C 30.142635,22.487185 39.774435,46.125655 47.628535,70.365069 C 49.617255,78.273599 51.191295,86.349649 53.674615,94.064129 M 15.796915,0.69356471 C 27.625415,22.487185 37.257215,46.125655 45.111305,70.365069 C 47.100025,78.273599 48.674065,86.349649 51.157395,94.064129 M 13.279695,0.69356471 C 25.108185,22.487185 34.739985,46.125655 42.594085,70.365069 C 44.582805,78.273599 46.156845,86.349649 48.640165,94.064129 M 10.762465,0.69356471 C 22.590965,22.487185 32.222765,46.125655 40.076855,70.365069 C 42.065575,78.273599 43.639615,86.349649 46.122945,94.064129 M 8.2452447,0.69356471 C 20.073735,22.487185 29.705535,46.125655 37.559635,70.365069 C 39.548355,78.273599 41.122395,86.349649 43.605715,94.064129 M 5.7280147,0.69356471 C 17.556515,22.487185 27.188315,46.125655 35.042405,70.365069 C 37.031125,78.273599 38.605165,86.349649 41.088485,94.064129 M 3.2107947,0.69356471 C 15.039285,22.487185 24.671085,46.125655 32.525185,70.365069 C 34.513895,78.273599 36.087945,86.349649 38.571265,94.064129 M 0.69356471,0.69356471 C 12.522055,22.487185 22.153865,46.125655 30.007955,70.365069 C 31.996675,78.273599 33.570715,86.349649 36.054035,94.064129"
         id="path7490"
         style="fill:none;fill-opacity:0.75000000;fill-rule:evenodd;stroke:#000000;stroke-width:1.1097035pt;stroke-linecap:butt;stroke-linejoin:miter;stroke-opacity:1.0000000;" />
    </pattern>
    <linearGradient
       id="linearGradient8427"
       x1="-11.367734"
       x2="101.93861"
       xlink:href="#linearGradient7486"
       y1="39.105705"
       y2="183.44846"
       gradientTransform="scale(0.80800213,1.2376205)"
       gradientUnits="userSpaceOnUse" />
    <linearGradient
       id="linearGradient8438"
       x1="131.83669"
       x2="129.63635"
       xlink:href="#linearGradient7486"
       y1="188.7123"
       y2="124.08595"
       gradientTransform="scale(0.75337466,1.3273608)"
       gradientUnits="userSpaceOnUse" />
    <linearGradient
       inkscape:collect="always"
       xlink:href="#linearGradient7486"
       id="linearGradient863"
       x1="187.99484"
       y1="151.96294"
       x2="186.14911"
       y2="97.751602"
       gradientTransform="scale(0.60332907,1.6574703)"
       gradientUnits="userSpaceOnUse" />
  </defs>
  <g
     id="g861"
     transform="matrix(0.48368784,0,0,0.48368784,-3.6907684,-2.267461)">
    <path
       style="fill:url(#linearGradient8427);fill-opacity:1;fill-rule:evenodd;stroke:#000000;stroke-width:0.91589382pt;stroke-linecap:butt;stroke-linejoin:miter;stroke-opacity:1"
       id="path7409"
       d="M 51.201303,5.6545334 C 45.882177,23.098546 63.310665,39.931227 61.70546,58.175323 c -1.364425,8.753143 4.210666,18.449362 7.727854,27.419571 -0.590605,4.304784 -1.170768,8.594451 -3.377358,12.364563 -2.381535,4.979093 -10.232283,4.985703 -13.080109,7.699233 -11.158316,-6.199283 -19.053,-21.988482 -31.712823,-26.217457 -31.456052,-11.040926 4.89418,17.516932 -2.261113,33.287007 6.261692,7.93232 -22.3478909,39.84835 -2.461464,32.25664 16.983867,-0.93704 27.42448,-13.58094 35.433642,-18.60409 -0.02726,0.13205 -0.02886,0.26885 -0.05724,0.4007 4.57826,-1.28246 9.273315,0.23731 12.793892,3.20563 0.101582,0.17548 0.213238,0.27305 0.314838,0.45795 -5.670765,14.41099 -5.337664,35.13015 -3.92117,50.4314 2.288599,21.47934 -1.896651,46.76175 -22.12456,58.58858 -6.901186,2.48326 -14.263333,13.36243 -2.604573,4.3505 14.996433,-7.5261 31.111466,-15.74409 40.299328,-29.85242 0.07807,0.3322 0.117674,0.66767 0.228973,1.00176 6.617036,-5.26767 10.128894,-13.28438 14.453945,-20.35001 4.911151,-8.73138 9.100608,-18.49296 17.058518,-24.92949 8.38977,-5.68154 19.11817,-3.24983 28.2496,-6.38263 12.18013,-6.28749 16.93867,-20.05866 25.33019,-30.05277 2.5655,-3.89453 6.36534,-10.04915 1.51695,-13.85289 C 150.8008,111.56332 146.42991,102.16809 137.32394,92.378229 130.64275,86.991248 117.56903,78.528041 112.27997,71.742001 105.74637,65.754665 98.033184,60.658586 93.590009,52.765821 93.443841,52.72325 93.35543,52.766636 93.217927,52.737199 87.081586,34.516243 63.764463,14.099285 51.201303,5.6545334 Z"
       inkscape:connector-curvature="0" />
    <path
       style="fill:none;fill-opacity:0.75;fill-rule:evenodd;stroke:#000000;stroke-width:0.68692034;stroke-linecap:butt;stroke-linejoin:miter;stroke-miterlimit:4;stroke-opacity:0.21568627"
       id="path7516"
       d="m 50.915086,6.856644 c -0.138584,0.5624321 -0.277525,1.1273554 -0.372082,1.6886793 1.143219,2.4945007 2.999928,6.1337957 5.667093,11.0479687 10.833623,19.960642 19.653616,41.625629 26.847134,63.826355 1.821429,7.243392 3.249518,14.629586 5.523985,21.695233 2.274448,7.06565 4.592812,7.06564 2.318356,0 C 88.625105,98.049242 87.168422,90.663029 85.346966,83.419647 78.153435,61.21893 69.333473,39.553934 58.499832,19.593292 54.69618,12.585193 52.416676,8.9437096 50.915086,6.856644 Z m 4.293253,1.8317877 c 1.147157,2.4930623 2.949828,6.0565853 5.581227,10.9048603 10.833623,19.960642 19.653613,41.625629 26.847134,63.826355 1.821429,7.243392 3.249518,14.629586 5.523984,21.695233 2.274448,7.06565 4.592813,7.06564 2.318356,0 C 93.204573,98.049242 91.74789,90.663029 89.926435,83.419647 82.732904,61.21893 73.912942,39.553934 63.079301,19.593292 60.97738,15.720563 59.4967,13.262268 58.070507,10.892301 57.073492,10.117702 56.142917,9.3755991 55.208339,8.6884317 Z m -4.894308,4.6080903 c 0.03998,1.531173 0.158083,3.051822 0.429325,4.579469 0.376872,0.706374 0.472061,0.952292 0.887272,1.717301 10.833623,19.960642 19.653616,41.625629 26.847134,63.826355 1.821429,7.243392 3.249518,14.629586 5.523985,21.695233 2.274448,7.06565 4.592813,7.06564 2.318356,0 C 84.045636,98.049242 82.588953,90.663029 80.767497,83.419647 73.573969,61.21893 64.754004,39.553934 53.920363,19.593292 52.401161,16.794211 51.48512,15.310573 50.314031,13.296522 Z m 12.450432,1.202111 c 0.897585,1.750713 1.375489,2.830121 2.604573,5.094659 10.833622,19.960642 19.653612,41.625629 26.847132,63.826355 1.821429,7.243392 3.249518,14.629586 5.523985,21.695233 2.274447,7.06565 4.592817,7.06564 2.318357,0 C 97.784042,98.049242 96.327359,90.663029 94.505903,83.419647 87.312373,61.21893 78.492407,39.553934 67.65877,19.593292 67.272281,18.881194 67.107448,18.651762 66.742876,17.990478 65.408291,16.790593 64.069071,15.599565 62.764463,14.498633 Z m 8.557882,7.813719 c 10.182089,19.215022 18.599419,39.893069 25.473292,61.107295 1.821429,7.243392 3.249523,14.629586 5.523983,21.695233 2.27445,7.06565 4.59282,7.06564 2.31836,0 C 102.36351,98.049242 100.90683,90.663029 99.085372,83.419647 92.776924,63.950474 85.116518,44.975018 76.044923,27.120794 74.489405,25.464217 72.928457,23.87309 71.322345,22.312352 Z m -17.37336,6.382635 c 2.501022,6.513965 5.43452,13.074448 6.897825,19.777582 4.837632,11.38472 9.204073,23.073155 13.051487,34.947078 1.821428,7.243392 3.249518,14.629586 5.523981,21.695233 2.274448,7.06565 4.592813,7.06564 2.318356,0 C 79.466167,98.049242 78.009484,90.663029 76.188031,83.419647 70.064924,64.522486 62.668092,46.091968 53.948985,28.694987 Z m 27.505432,4.579469 c 7.726627,16.038537 14.336164,32.910166 19.920693,50.145191 1.82143,7.243392 3.24951,14.629586 5.52398,21.695233 2.27445,7.06565 4.59281,7.06564 2.31836,0 C 106.94298,98.049242 105.4863,90.663029 103.66484,83.419647 99.067668,69.23181 93.721211,55.330489 87.693943,41.889582 85.840761,38.978066 83.776821,36.102388 81.454417,33.274456 Z m -19.8062,22.696993 c -0.0052,0.736333 0.122427,1.463022 0.05724,2.203874 -0.174807,1.121448 -0.234441,2.257083 -0.200351,3.405981 2.75913,7.202964 5.427055,14.472596 7.813719,21.838343 1.821428,7.243392 3.249518,14.629586 5.523984,21.695233 2.274448,7.06565 4.59281,7.06564 2.318356,0 C 74.886702,98.049242 73.430018,90.663029 71.608562,83.419647 68.60008,74.134856 65.254329,64.980378 61.648217,55.971449 Z"
       inkscape:connector-curvature="0" />
    <path
       style="fill:url(#linearGradient863);fill-opacity:1;fill-rule:evenodd;stroke:#000000;stroke-width:0.87912861pt;stroke-linecap:butt;stroke-linejoin:miter;stroke-opacity:1"
       id="path8443"
       d="m 136.22421,157.70943 c -2.53625,29.10348 -16.33573,56.53526 -24.85465,83.39377 -2.56545,8.08836 -9.5427,20.48661 -14.461268,26.40369 0.547503,-6.29407 4.325078,-14.21683 6.065528,-17.2056 3.41298,-5.86098 5.17833,-11.18356 7.53131,-17.35775 4.88375,-12.81492 5.63719,-25.54445 9.60072,-36.76221 4.10411,-11.61566 5.89377,-20.43325 5.67459,-32.52471"
       inkscape:connector-curvature="0" />
    <path
       style="fill:none;fill-opacity:0.75;fill-rule:evenodd;stroke:#000000;stroke-width:0.72620195;stroke-linecap:butt;stroke-linejoin:miter;stroke-miterlimit:4;stroke-opacity:0.21568627"
       id="path7639"
       d="m 68.259825,128.61328 c -0.576381,0 -1.731662,1.97627 -2.890789,5.92469 -2.007979,6.84 -3.404057,13.93625 -4.951551,20.97969 -0.140508,2.87228 -0.07979,5.71405 -0.05724,8.55788 0.541541,-1.76929 1.135306,-3.51894 1.660058,-5.29501 1.866326,-8.0955 3.348846,-16.34571 5.667093,-24.24256 1.159109,-3.94843 1.148814,-5.92469 0.572433,-5.92469 z m 4.579469,0 c -0.576381,0 -1.731662,1.97627 -2.890789,5.92469 -2.318228,7.89684 -3.800758,16.14705 -5.667093,24.24256 -1.200151,4.062 -2.517792,8.08353 -3.806684,12.10697 0.09679,2.12746 0.248445,4.1441 0.400704,6.15366 2.013345,-6.03083 3.914667,-12.13568 5.724336,-18.26063 1.866326,-8.0955 3.348846,-16.34571 5.667093,-24.24256 1.159109,-3.94843 1.148815,-5.92469 0.572433,-5.92469 z m 4.579469,0 c -0.576381,0 -1.731662,1.97627 -2.890789,5.92469 -2.318228,7.89684 -3.800758,16.14705 -5.667093,24.24256 -2.356504,7.97578 -4.937208,15.86376 -7.641989,23.67013 0.164558,1.80708 0.277854,3.6225 0.34346,5.46674 3.445565,-9.57562 6.70688,-19.28777 9.616885,-29.13687 1.866326,-8.0955 3.348847,-16.34571 5.667093,-24.24256 1.159106,-3.94843 1.148811,-5.92469 0.572433,-5.92469 z m 4.579466,0 c -0.576381,0 -1.731662,1.97627 -2.89079,5.92469 -2.318224,7.89684 -3.800754,16.14705 -5.667089,24.24256 -3.573204,12.09378 -7.546434,24.03717 -11.935241,35.69124 -0.08467,2.412 -0.27835,4.81663 -0.572434,7.21266 5.524259,-13.93129 10.506786,-28.28514 14.826031,-42.9039 1.866326,-8.0955 3.348843,-16.34571 5.667089,-24.24256 1.15911,-3.94843 1.148815,-5.92469 0.572434,-5.92469 z m 4.579469,0 c -0.576381,0 -1.731662,1.97627 -2.89079,5.92469 -2.318228,7.89684 -3.800758,16.14705 -5.667093,24.24256 -5.456342,18.46742 -11.822005,36.60509 -19.233766,53.86601 -1.421989,4.86362 -3.526521,9.42061 -6.239527,13.59529 -0.607613,1.27495 -1.154173,2.60087 -1.774544,3.86393 -1.800052,3.66488 -2.702052,5.78229 -3.806684,8.24305 0.895305,-0.48283 1.744925,-1.01961 2.633195,-1.51695 1.146809,-2.18881 2.022962,-3.73548 3.491845,-6.7261 10.957277,-22.30882 19.916789,-46.51281 27.247837,-71.32523 1.866326,-8.0955 3.348847,-16.34571 5.667093,-24.24256 1.15911,-3.94843 1.148815,-5.92469 0.572434,-5.92469 z m 4.579468,0 c -0.57638,0 -1.731661,1.97627 -2.890789,5.92469 -2.318228,7.89684 -3.800758,16.14705 -5.667093,24.24256 -7.331021,24.81242 -16.290551,49.0164 -27.247837,71.32523 -0.987608,2.01076 -1.313886,2.87394 -2.089383,4.52223 0.998251,-0.59644 1.998535,-1.18067 2.976655,-1.80317 0.543693,-1.08072 0.835533,-1.50653 1.431084,-2.71906 10.957277,-22.30882 19.916789,-46.51281 27.247837,-71.32523 1.866326,-8.0955 3.348847,-16.34571 5.667093,-24.24256 1.159109,-3.94843 1.148814,-5.92469 0.572433,-5.92469 z m 4.579469,0 c -0.576381,0 -1.731662,1.97627 -2.89079,5.92469 -2.318227,7.89684 -3.800757,16.14705 -5.667092,24.24256 -7.331025,24.81242 -16.290551,49.0164 -27.247837,71.32523 -0.119295,0.24288 -0.141441,0.30622 -0.257595,0.54381 1.179204,-0.81729 2.361641,-1.64957 3.491845,-2.51871 10.527293,-21.76741 19.213397,-45.25716 26.331943,-69.35033 1.866325,-8.0955 3.348846,-16.34571 5.667092,-24.24256 1.15911,-3.94843 1.148815,-5.92469 0.572434,-5.92469 z m 4.579465,0 c -0.576377,0 -1.731658,1.97627 -2.890786,5.92469 -2.318228,7.89684 -3.800758,16.14705 -5.667093,24.24256 -6.787166,22.9717 -15.058077,45.35244 -24.92948,66.25919 1.46173,-1.28563 2.852094,-2.62462 4.178766,-4.03565 9.03919,-19.75065 16.715681,-40.72007 23.069071,-62.22354 1.866326,-8.0955 3.348846,-16.34571 5.667092,-24.24256 1.15911,-3.94843 1.14882,-5.92469 0.57243,-5.92469 z M 46.879429,233.25415 c -1.089877,1.07598 -2.314317,2.04058 -3.549088,3.00527 -0.806527,1.74704 -1.866161,3.94289 -2.404222,5.20915 0.766924,-0.39092 1.522253,-0.80428 2.289735,-1.20211 1.016157,-1.85656 2.284551,-4.28188 3.663575,-7.01231 z m -7.756475,6.12504 c -0.04926,0.0291 -0.09366,0.057 -0.143109,0.0859 -0.739392,0.26606 -1.477859,0.66361 -2.203869,1.08762 -0.90549,2.09247 -1.285512,3.1537 -1.574193,4.09291 0.421146,-0.30848 0.687708,-0.45454 1.173489,-0.83003 0.120257,-0.0603 0.251688,-0.11129 0.372082,-0.17173 0.641941,-1.05827 1.432082,-2.51915 2.3756,-4.26463 z"
       inkscape:connector-curvature="0" />
    <path
       style="fill:none;fill-opacity:0.75;fill-rule:evenodd;stroke:#000000;stroke-width:0.68692034;stroke-linecap:butt;stroke-linejoin:miter;stroke-miterlimit:4;stroke-opacity:0.21568627"
       id="path7673"
       d="m 8.354646,79.670206 c 0.1505271,1.112005 0.8663438,2.652933 1.688679,4.293253 26.026121,2.680812 18.503986,20.201361 46.166772,22.868721 l 0.314839,-1.45971 c -0.957924,-0.023 -1.77241,-0.13744 -2.633195,-0.22897 -0.278981,0.18281 -0.693121,0.30292 -0.915894,0.51519 -0.395913,-0.21996 -0.756812,-0.52963 -1.144867,-0.77279 C 33.554539,101.5768 38.066177,81.828913 8.354646,79.670206 Z m 4.579469,9.788615 c 1.036627,1.828738 1.97158,3.704714 2.976655,5.695711 18.766875,2.997684 9.712293,13.324118 40.442436,14.940518 v -1.45971 C 27.66503,106.22228 34.964182,92.526357 12.934115,89.458821 Z m 5.752958,11.992479 c 0.560957,1.67656 1.005651,3.33825 1.173489,4.95155 12.409262,1.47673 8.162107,5.13799 36.177805,6.61161 l 0.314839,-1.28797 C 27.815448,110.2254 32.459258,103.97794 18.687073,101.4513 Z m 0.744164,9.78862 c -0.139747,0.49771 -0.213413,1.01245 -0.429326,1.48832 0.491698,0.62289 0.699386,1.43045 0.801407,2.31836 h 36.120563 l 0.114486,-0.88727 c -28.149941,-1.48069 -23.635793,-2.29253 -36.60713,-2.91941 z m 36.635752,4.92293 c -28.471164,1.49757 -23.42936,2.41709 -36.836104,3.09114 -0.416347,1.63412 -0.954948,3.32568 -1.745923,5.18052 15.455855,-1.34323 8.85684,-5.56325 38.582027,-7.1268 z m 0.34346,2.43284 c -30.502112,2.78765 -21.463532,9.91182 -41.558681,11.6204 -0.946622,1.92536 -1.850765,3.77533 -2.690438,5.55261 24.326176,-1.62438 12.724998,-11.17895 44.249119,-15.54157 z m 0,3.09114 C 27.666597,128.09094 35.448562,139.45671 9.95746,141.14957 9.5147628,142.57434 9.3429228,143.7577 9.5567565,144.6128 35.964814,143.07996 30.04401,131.89111 56.238719,123.49 Z"
       inkscape:connector-curvature="0" />
    <path
       style="fill:url(#linearGradient8438);fill-opacity:1;fill-rule:evenodd;stroke:#000000;stroke-width:0.91589382pt;stroke-linecap:butt;stroke-linejoin:miter;stroke-opacity:1"
       id="path8428"
       d="m 133.54179,160.6926 c -7.36905,29.08289 -22.42225,55.86553 -37.247339,81.08715 -4.427,7.53156 -15.510945,18.4863 -21.605079,23.66375 1.59263,-6.28977 8.344385,-12.77989 10.646008,-15.51934 4.51346,-5.37206 7.766503,-9.71834 11.224296,-15.58501 7.176874,-12.17663 7.958484,-26.62312 13.915684,-37.33419 6.1685,-11.09098 9.46714,-19.73176 11.20003,-32.02727"
       inkscape:connector-curvature="0" />
    <path
       style="fill:url(#linearGradient7489);fill-opacity:1;fill-rule:evenodd;stroke:#000000;stroke-width:0.91589382pt;stroke-linecap:butt;stroke-linejoin:miter;stroke-opacity:1"
       id="path7384"
       d="M 163.52122,119.39388 C 150.80925,111.5601 146.43892,102.15914 137.33295,92.369281 130.65175,86.9823 117.5703,78.524506 112.28123,71.738465 105.74765,65.75113 98.028623,60.649098 93.585448,52.756332 c -6.562607,-1.911241 -4.21257,9.663967 -8.724144,12.447158 -5.092965,2.641108 -11.808991,3.899344 -13.19799,10.574974 -2.97518,7.101062 -1.670425,15.480556 -5.593894,22.184061 -2.611772,5.460465 -11.88538,4.898575 -13.824071,8.535265 1.102974,6.70155 1.114056,13.62019 -0.318392,20.27385 8.19964,-2.29689 16.894037,4.24441 18.234685,12.38596 3.465339,9.07184 8.4823,17.63964 10.207038,27.32252 2.145399,9.65875 1.74519,19.72399 -0.403241,29.33097 -0.775222,6.41419 -5.255312,12.59095 -3.070979,19.14765 6.617036,-5.26767 10.141112,-13.28584 14.466163,-20.35148 4.911178,-8.73137 9.083687,-18.48137 17.041597,-24.91789 8.38978,-5.68156 19.14363,-3.25279 28.27506,-6.3856 12.18012,-6.28749 16.92654,-20.05016 25.31806,-30.04426 2.56549,-3.89454 6.37428,-10.06188 1.52588,-13.86563 z"
       inkscape:connector-curvature="0" />
    <path
       style="fill:none;fill-opacity:0.75;fill-rule:evenodd;stroke:#000000;stroke-width:0.91589382pt;stroke-linecap:butt;stroke-linejoin:miter;stroke-opacity:0.2216749"
       id="path7392"
       d="m 111.24959,70.854728 c -15.844426,1.3646 -31.852802,6.8699 -42.445953,18.518228 -0.50441,2.997012 -1.193867,5.931701 -2.747681,8.586501 -2.611781,5.460463 -11.885582,4.892563 -13.824272,8.529263 1.103001,6.70154 1.11761,13.63911 -0.314839,20.29277 8.199631,-2.29688 16.891363,4.22302 18.232011,12.36457 1.286602,3.36818 2.826778,6.67688 4.293253,9.98896 11.640667,7.75397 23.833475,14.83565 37.208181,18.77583 7.80369,-3.38415 17.02535,-1.86689 25.01535,-4.60809 12.18013,-6.28749 16.93867,-20.05866 25.33019,-30.05277 2.5655,-3.89453 6.36534,-10.04915 1.51695,-13.85289 -12.71198,-7.83378 -17.08287,-17.22901 -26.18884,-27.018871 -6.68119,-5.386981 -19.75491,-13.850188 -25.04397,-20.636228 -0.33122,-0.303519 -0.69366,-0.587821 -1.03038,-0.887273 z"
       inkscape:connector-curvature="0" />
    <path
       style="fill:url(#linearGradient7456);fill-opacity:1;fill-rule:evenodd;stroke:#000000;stroke-width:0.91589382pt;stroke-linecap:butt;stroke-linejoin:miter;stroke-opacity:1"
       id="path7445"
       d="m 123.98623,82.360644 c -0.68948,3.361486 -0.47808,6.932016 0.68693,10.10345 5.91085,10.578616 13.17112,20.840976 15.39846,33.000796 2.50774,12.82779 -4.03453,25.11741 -3.6922,37.89511 0.0923,-0.0304 0.19428,-0.0257 0.28622,-0.0572 2.81956,-1.45549 5.2231,-3.3489 7.38439,-5.46675 7.19991,-11.93661 8.50348,-27.36815 2.71906,-40.12759 -2.33351,-7.8296 -5.17636,-15.51547 -7.72785,-23.298051 -0.59545,-0.680967 -1.07993,-1.346905 -1.7173,-2.03214 -3.41058,-2.749912 -8.48142,-6.296739 -13.33771,-10.017585 z"
       inkscape:connector-curvature="0" />
    <path
       transform="matrix(0.915894,0,0,0.915894,-431.761,-139.629)"
       style="fill:url(#radialGradient7433);fill-opacity:1;fill-rule:evenodd;stroke:#000000;stroke-width:1.00000003pt;stroke-linecap:butt;stroke-linejoin:miter;stroke-opacity:1"
       id="path7427"
       d="m 638.74949,284.33588 a 8.652385,8.652385 0 1 0 -17.30477,0 8.652385,8.652385 0 1 0 17.30477,0 z"
       inkscape:connector-curvature="0" />
    <path
       style="fill:url(#linearGradient7466);fill-opacity:1;fill-rule:evenodd;stroke:#000000;stroke-width:0.91589382pt;stroke-linecap:butt;stroke-linejoin:miter;stroke-opacity:1"
       id="path7457"
       d="m 97.940505,58.719135 c -0.316103,1.010607 -0.488355,2.009105 -0.343461,2.862169 2.869506,16.898158 6.655866,33.626588 8.700996,50.774856 1.04855,18.72643 5.855,37.48694 2.80492,56.24161 -0.14189,0.36654 -0.14034,0.52828 -0.25759,0.85865 2.01947,-1.29227 4.15574,-2.16706 6.38263,-2.74768 0.45474,-1.20591 0.76648,-2.4068 0.74416,-3.49185 4.68692,-18.53575 -4.23135,-36.73317 -1.23073,-55.41157 2.06094,-13.135396 -2.72975,-25.51966 -4.95155,-38.209946 -4.06048,-3.500646 -8.29574,-6.891899 -11.849375,-10.876239 z"
       inkscape:connector-curvature="0" />
    <path
       style="fill:url(#linearGradient7483);fill-opacity:1;fill-rule:evenodd;stroke:#000000;stroke-width:0.91589382pt;stroke-linecap:butt;stroke-linejoin:miter;stroke-opacity:1"
       id="path7469"
       d="m 82.599284,66.275259 c -4.647117,2.048269 -9.74104,3.771459 -10.933479,9.502399 -0.470403,1.122757 -0.707756,2.316854 -1.001758,3.491845 0.536063,4.319648 0.72209,8.682737 0.143108,13.022861 -1.557377,13.045256 1.111639,26.080596 4.779821,38.553406 1.143676,6.58152 0.614272,13.05146 -0.629677,19.46274 2.292409,5.22506 4.400591,10.50716 5.409494,16.17125 2.14538,9.65874 1.747727,19.73025 -0.400704,29.33723 -0.551331,4.56185 -2.922805,8.99429 -3.491841,13.53805 0.594928,-0.26068 1.154338,-0.57969 1.660054,-1.03038 8.93132,-11.08954 12.418164,-25.72185 11.935241,-39.75551 -5.238079,-26.27072 -5.969915,-53.13679 -8.042692,-79.768627 1.106674,-7.403903 1.47762,-15.057194 0.572433,-22.525264 z"
       inkscape:connector-curvature="0" />
  </g>
</svg>
