<?xml version="1.0" encoding="UTF-8" standalone="no"?>
<!-- Generator: Adobe Illustrator 10.0, SVG Export Plug-In . SVG Version: 3.0.0 Build 76)  -->

<svg
   xmlns:a="http://ns.adobe.com/AdobeSVGViewerExtensions/3.0/"
   xmlns:i="http://ns.adobe.com/AdobeIllustrator/10.0/"
   xmlns:dc="http://purl.org/dc/elements/1.1/"
   xmlns:cc="http://creativecommons.org/ns#"
   xmlns:rdf="http://www.w3.org/1999/02/22-rdf-syntax-ns#"
   xmlns:svg="http://www.w3.org/2000/svg"
   xmlns="http://www.w3.org/2000/svg"
   xmlns:sodipodi="http://sodipodi.sourceforge.net/DTD/sodipodi-0.dtd"
   xmlns:inkscape="http://www.inkscape.org/namespaces/inkscape"
   i:rulerOrigin="0 0"
   overflow="visible"
   i:viewOrigin="132.1914 743.2256"
   i:pageBounds="0 792 612 0"
   enable-background="new 0 0 348.53 421.009"
   xml:space="preserve"
   viewBox="0 0 105.87839 128"
   version="1.1"
   id="svg137"
   sodipodi:docname="rooster.svg"
   inkscape:version="0.92.2 (5c3e80d, 2017-08-06)"
   width="105.87839"
   height="128"
   style="overflow:visible"><title
     id="title1267">Rooster</title><defs
     id="defs141"><linearGradient
       id="XMLID_1_"
       y2="1025.9"
       gradientUnits="userSpaceOnUse"
       x2="178.53999"
       gradientTransform="matrix(0.7509,0,0,0.7509,84.579,-449.56)"
       y1="1124.5"
       x1="178.53999"><stop
         style="stop-color:#E4B880"
         offset="0"
         id="stop2" /><stop
         style="stop-color:#F4D797"
         offset="1"
         id="stop4" /><a:midPointStop
         style="stop-color:#E4B880"
         offset="0" /><a:midPointStop
         style="stop-color:#E4B880"
         offset="0.5" /><a:midPointStop
         style="stop-color:#F4D797"
         offset="1" /></linearGradient><linearGradient
       id="XMLID_2_"
       y2="1045.8"
       gradientUnits="userSpaceOnUse"
       x2="221.99001"
       gradientTransform="matrix(0.7509,0,0,0.7509,84.579,-449.56)"
       y1="1159.2"
       x1="221.99001"><stop
         style="stop-color:#E4B880"
         offset="0"
         id="stop11" /><stop
         style="stop-color:#F4D797"
         offset="1"
         id="stop13" /><a:midPointStop
         style="stop-color:#E4B880"
         offset="0" /><a:midPointStop
         style="stop-color:#E4B880"
         offset="0.5" /><a:midPointStop
         style="stop-color:#F4D797"
         offset="1" /></linearGradient><linearGradient
       id="XMLID_3_"
       y2="709.51001"
       gradientUnits="userSpaceOnUse"
       x2="139.62"
       gradientTransform="matrix(0.7509,0,0,0.7509,84.579,-449.56)"
       y1="1052.5"
       x1="139.62"><stop
         style="stop-color:#665C3A"
         offset="0"
         id="stop22" /><stop
         style="stop-color:#252421"
         offset="1"
         id="stop24" /><a:midPointStop
         style="stop-color:#665C3A"
         offset="0" /><a:midPointStop
         style="stop-color:#665C3A"
         offset="0.5" /><a:midPointStop
         style="stop-color:#252421"
         offset="1" /></linearGradient><linearGradient
       id="XMLID_4_"
       y2="675.08002"
       gradientUnits="userSpaceOnUse"
       x2="-2.5796001"
       gradientTransform="matrix(0.7509,0,0,0.7509,84.579,-449.56)"
       y1="830.63"
       x1="-2.5796001"><stop
         style="stop-color:#5A5A80"
         offset="0"
         id="stop29" /><stop
         style="stop-color:#606B57"
         offset="1"
         id="stop31" /><a:midPointStop
         style="stop-color:#5A5A80"
         offset="0" /><a:midPointStop
         style="stop-color:#5A5A80"
         offset="0.5" /><a:midPointStop
         style="stop-color:#606B57"
         offset="1" /></linearGradient><linearGradient
       id="XMLID_5_"
       y2="754.47998"
       gradientUnits="userSpaceOnUse"
       x2="-23.775"
       gradientTransform="matrix(0.7509,0,0,0.7509,84.579,-449.56)"
       y1="709.51001"
       x1="-23.775"><stop
         style="stop-color:#665C3A"
         offset="0"
         id="stop40" /><stop
         style="stop-color:#252421"
         offset="1"
         id="stop42" /><a:midPointStop
         style="stop-color:#665C3A"
         offset="0" /><a:midPointStop
         style="stop-color:#665C3A"
         offset="0.5" /><a:midPointStop
         style="stop-color:#252421"
         offset="1" /></linearGradient><linearGradient
       id="XMLID_6_"
       y2="723.19"
       gradientUnits="userSpaceOnUse"
       x2="11.776"
       gradientTransform="matrix(0.7509,0,0,0.7509,84.579,-449.56)"
       y1="958.47998"
       x1="11.776"><stop
         style="stop-color:#5A5A80"
         offset="0"
         id="stop47" /><stop
         style="stop-color:#606B57"
         offset="1"
         id="stop49" /><a:midPointStop
         style="stop-color:#5A5A80"
         offset="0" /><a:midPointStop
         style="stop-color:#5A5A80"
         offset="0.5" /><a:midPointStop
         style="stop-color:#606B57"
         offset="1" /></linearGradient><linearGradient
       id="XMLID_7_"
       y2="812.34998"
       gradientUnits="userSpaceOnUse"
       x2="160.59"
       gradientTransform="matrix(0.7509,0,0,0.7509,84.579,-449.56)"
       y1="973.39001"
       x1="160.59"><stop
         style="stop-color:#597877"
         offset="0"
         id="stop56" /><stop
         style="stop-color:#BE8F57"
         offset="1"
         id="stop58" /><a:midPointStop
         style="stop-color:#597877"
         offset="0" /><a:midPointStop
         style="stop-color:#597877"
         offset="0.5" /><a:midPointStop
         style="stop-color:#BE8F57"
         offset="1" /></linearGradient><linearGradient
       id="XMLID_8_"
       y2="774.44"
       gradientUnits="userSpaceOnUse"
       x2="78.054001"
       gradientTransform="matrix(0.7509,0,0,0.7509,84.579,-449.56)"
       y1="889.72998"
       x1="78.054001"><stop
         style="stop-color:#F2F2F2"
         offset="0"
         id="stop75" /><stop
         style="stop-color:#FEE6A7"
         offset="1"
         id="stop77" /><a:midPointStop
         style="stop-color:#F2F2F2"
         offset="0" /><a:midPointStop
         style="stop-color:#F2F2F2"
         offset="0.5" /><a:midPointStop
         style="stop-color:#FEE6A7"
         offset="1" /></linearGradient><linearGradient
       id="XMLID_9_"
       y2="661.06"
       gradientUnits="userSpaceOnUse"
       x2="266.45999"
       gradientTransform="matrix(0.7509,0,0,0.7509,84.579,-449.56)"
       y1="876.39001"
       x1="266.45999"><stop
         style="stop-color:#F2F2F2"
         offset="0"
         id="stop90" /><stop
         style="stop-color:#FEE6A7"
         offset="1"
         id="stop92" /><a:midPointStop
         style="stop-color:#F2F2F2"
         offset="0" /><a:midPointStop
         style="stop-color:#F2F2F2"
         offset="0.5" /><a:midPointStop
         style="stop-color:#FEE6A7"
         offset="1" /></linearGradient><linearGradient
       id="XMLID_10_"
       y2="598.48999"
       gradientUnits="userSpaceOnUse"
       x2="284.51999"
       gradientTransform="matrix(0.7509,0,0,0.7509,84.579,-449.56)"
       y1="759.08002"
       x1="284.51999"><stop
         style="stop-color:#F29464"
         offset="0"
         id="stop97" /><stop
         style="stop-color:#E42B17"
         offset="1"
         id="stop99" /><a:midPointStop
         style="stop-color:#F29464"
         offset="0" /><a:midPointStop
         style="stop-color:#F29464"
         offset="0.5" /><a:midPointStop
         style="stop-color:#E42B17"
         offset="1" /></linearGradient><linearGradient
       id="XMLID_11_"
       y2="672.04999"
       gradientUnits="userSpaceOnUse"
       x2="301.39001"
       gradientTransform="matrix(0.7509,0,0,0.7509,84.579,-449.56)"
       y1="682.47998"
       x1="301.39001"><stop
         style="stop-color:#000000"
         offset="0"
         id="stop104" /><stop
         style="stop-color:#000000"
         offset="1"
         id="stop106" /><a:midPointStop
         style="stop-color:#000000"
         offset="0" /><a:midPointStop
         style="stop-color:#000000"
         offset="0.5" /><a:midPointStop
         style="stop-color:#000000"
         offset="1" /></linearGradient><linearGradient
       id="XMLID_12_"
       y2="675.97998"
       gradientUnits="userSpaceOnUse"
       x2="303.85999"
       gradientTransform="matrix(0.7509,0,0,0.7509,84.579,-449.56)"
       y1="678.66998"
       x1="303.85999"><stop
         style="stop-color:#FFFFFF"
         offset="0"
         id="stop117" /><stop
         style="stop-color:#FFFFFF"
         offset="1"
         id="stop119" /><a:midPointStop
         style="stop-color:#FFFFFF"
         offset="0" /><a:midPointStop
         style="stop-color:#FFFFFF"
         offset="0.5" /><a:midPointStop
         style="stop-color:#FFFFFF"
         offset="1" /></linearGradient></defs><sodipodi:namedview
     pagecolor="#ffffff"
     bordercolor="#666666"
     borderopacity="1"
     objecttolerance="10"
     gridtolerance="10"
     guidetolerance="10"
     inkscape:pageopacity="0"
     inkscape:pageshadow="2"
     inkscape:window-width="1920"
     inkscape:window-height="1025"
     id="namedview139"
     showgrid="false"
     inkscape:zoom="3.1709954"
     inkscape:cx="46.899232"
     inkscape:cy="89.504316"
     inkscape:window-x="-8"
     inkscape:window-y="-8"
     inkscape:window-maximized="1"
     inkscape:current-layer="svg137"
     fit-margin-top="0"
     fit-margin-left="0"
     fit-margin-right="0"
     fit-margin-bottom="0" /><g
     id="g1265"
     transform="matrix(0.30371926,0,0,0.30371926,0.00273347,0.130903)"><path
       style="clip-rule:evenodd;fill:url(#XMLID_1_);fill-rule:evenodd;stroke:#000000;stroke-width:0.50400001;stroke-linejoin:bevel;stroke-miterlimit:2.41420007"
       inkscape:connector-curvature="0"
       id="path7"
       i:knockout="Off"
       d="m 199.06,323.42 -1.011,2.104 -0.59,3.872 0.59,8.337 1.011,12.8 0.252,7.242 -0.672,2.357 -1.686,1.768 -3.62,1.433 -1.516,0.926 -0.843,0.926 0.253,1.096 1.263,1.01 2.61,1.179 h 3.2 v 1.095 l -0.253,3.62 -1.684,3.285 -2.441,1.515 -7.158,3.621 -3.032,2.443 -2.357,1.936 -0.841,2.694 -0.338,3.622 -0.337,1.095 1.853,-1.433 2.357,-0.927 3.538,-0.252 1.854,-1.179 3.282,-1.853 2.609,-2.022 1.853,-2.02 2.105,-2.357 v 3.788 l 1.434,3.201 1.514,1.515 3.201,1.179 4.546,1.265 4.127,1.095 2.694,1.347 h 4.127 l 1.43,-1.601 -0.253,-1.768 -1.177,-2.105 -1.77,-0.926 h 3.199 l 2.695,0.336 3.368,-0.336 6.23,0.336 8.085,0.927 3.284,0.252 2.61,1.853 2.441,0.591 1.853,-0.927 h 0.843 l 1.515,0.927 1.853,0.252 0.254,-1.179 -1.18,-2.442 -3.622,-2.274 -2.946,-2.356 -3.873,-1.011 -7.831,-1.432 -6.568,-0.505 -13.726,-0.337 -4.717,-0.674 -3.282,-1.515 -2.357,-2.021 -0.676,-2.357 1.181,-18.778 0.591,-20.882 2.862,-14.064 -12.16,2.68 z" /><path
       style="clip-rule:evenodd;fill:none;fill-rule:evenodd;stroke:#000000;stroke-width:0.50400001;stroke-linejoin:bevel;stroke-miterlimit:2.41420007"
       inkscape:connector-curvature="0"
       id="path9"
       i:knockout="Off"
       d="m 219.18,388.34 -2.946,-2.021 -2.948,-1.517" /><path
       style="clip-rule:evenodd;fill:url(#XMLID_2_);fill-rule:evenodd;stroke:#000000;stroke-width:0.50400001;stroke-linejoin:bevel;stroke-miterlimit:2.41420007"
       inkscape:connector-curvature="0"
       id="path16"
       i:knockout="Off"
       d="m 221.96,337.9 3.536,19.451 2.105,10.104 v 1.685 l -1.012,1.601 -1.515,1.6 -2.02,0.758 -0.591,1.853 1.433,1.179 h 4.04 l 0.506,1.01 0.759,7.747 -0.252,4.294 -0.507,1.264 -2.947,1.096 -3.789,0.336 -3.705,0.843 -1.853,1.601 -1.096,2.104 -1.348,1.348 -0.587,1.853 3.03,-0.757 1.853,-0.591 h 3.368 l 3.285,-1.684 h 3.451 l 1.854,0.842 1.179,2.694 2.947,2.693 7.747,4.044 7.747,2.947 2.609,1.516 1.348,1.431 1.347,1.263 1.012,2.696 0.589,3.45 0.589,0.674 0.674,-2.693 0.589,-3.368 0.589,-2.021 0.255,-1.852 v -2.442 l -0.844,-1.6 5.053,0.505 10.525,0.843 h 5.053 l 2.696,-0.591 1.935,-0.505 1.517,-0.757 2.692,0.167 1.602,0.843 v -0.843 l -1.854,-2.357 -1.934,-1.852 -1.854,-0.843 -0.758,-0.505 -1.347,-1.095 -3.875,-1.01 -6.398,-0.338 -8.001,0.759 -7.157,-0.421 3.789,-1.096 h 4.8 l 3.116,-0.591 1.6,-0.588 1.685,1.431 0.757,0.506 h 1.096 l -0.337,-1.349 -0.506,-1.599 -1.347,-1.852 -1.348,-1.011 -0.504,-0.59 -1.518,-1.853 -2.188,-0.589 -3.453,0.336 -4.547,1.853 -6.146,1.854 -5.39,0.59 -3.454,0.42 -2.946,-1.347 -1.431,-2.106 -0.673,-4.714 -2.443,-19.621 -1.6,-17.263 v -13.977 l -11.3,2.21 z" /><path
       style="clip-rule:evenodd;fill:none;fill-rule:evenodd;stroke:#000000;stroke-width:0.50400001;stroke-linejoin:bevel;stroke-miterlimit:2.41420007"
       inkscape:connector-curvature="0"
       id="path18"
       i:knockout="Off"
       d="m 256.23,398.87 -6.904,-1.096 -7.242,-2.695" /><path
       style="clip-rule:evenodd;fill:none;fill-rule:evenodd;stroke:#000000;stroke-width:0.50400001;stroke-linejoin:bevel;stroke-miterlimit:2.41420007"
       inkscape:connector-curvature="0"
       id="path20"
       i:knockout="Off"
       d="m 257.75,406.36 -2.021,-1.686 -2.947,-1.516 -5.896,-2.188" /><path
       style="clip-rule:evenodd;fill:url(#XMLID_3_);fill-rule:evenodd;stroke:#000000;stroke-width:0.50400001;stroke-linejoin:bevel;stroke-miterlimit:2.41420007"
       inkscape:connector-curvature="0"
       id="path27"
       i:knockout="Off"
       d="m 66.264,83.6 -4.126,2.274 -0.421,9.094 -8.083,5.978 -1.433,6.232 1.011,7.41 -7.832,34.777 6.4,10.61 -3.115,9.092 3.115,8.591 2.695,6.399 -1.601,5.135 2.105,9.853 5.389,10.021 12.715,9.009 13.136,8.084 9.6,8.167 1.347,17.768 4.126,12.8 11.704,-7.409 7.663,9.176 6.736,-2.694 0.59,5.306 5.389,-3.115 1.348,8.25 4.631,-5.136 3.031,7.326 6.821,-5.895 0.504,8.673 7.242,-5.473 7.747,15.998 4.463,-5.136 3.2,10.946 9.767,5.389 14.147,6.484 0.925,5.559 1.77,10.693 5.475,3.705 6.313,-1.853 4.97,-5.978 0.42,12.377 5.473,6.484 8.084,2.105 9.179,-2.612 3.958,-10.103 8.252,-11.369 12.294,-13.641 7.577,-18.609 9.602,-3.116 16.757,-12.716 13.641,-13.725 10.021,-16.251 8.082,-17.263 4.38,-24.841 -0.337,-25.093 -4.968,-11.874 -90.773,31.411 -66.439,2.272 -42.608,-83.616 -49.344,-8.59 -10.503,-17.78 -2.189,0.42 z" /><path
       style="clip-rule:evenodd;fill:url(#XMLID_4_);fill-rule:evenodd;stroke:#000000;stroke-width:0.50400001;stroke-linejoin:bevel;stroke-miterlimit:2.41420007"
       inkscape:connector-curvature="0"
       id="path34"
       i:knockout="Off"
       d="m 165.04,154.92 -5.641,-17.852 -13.81,-31.323 -10.19,-14.57 L 123.947,78.544 113.001,69.197 101.297,62.208 86.476,58.588 70.225,57.324 50.767,60.187 38.136,65.491 24.747,75.681 13.295,87.889 8.496,96.395 2.77,110.203 0.243,121.572 v 19.199 l 1.263,12.462 4.884,10.695 5.305,6.568 5.305,3.284 2.442,0.336 1.179,-0.336 0.337,-2.105 -4.378,-8.168 -3.285,-12.126 -0.758,-13.894 2.021,-12.21 3.285,-11.368 3.536,-4.968 -1.095,8.927 v 16.335 l 3.199,15.913 6.99,10.611 6.82,8.673 -0.589,-21.219 -1.431,-10.695 -1.263,-10.609 2.021,-12.127 6.232,-9.009 6.484,-6.484 8.167,-4.126 10.021,-2.356 h 6.988 l 10.948,3.199 9.431,4.968 70.735,53.99 z" /><path
       style="clip-rule:evenodd;fill:none;fill-rule:evenodd;stroke:#000000;stroke-width:0.50400001;stroke-linejoin:bevel;stroke-miterlimit:2.41420007"
       inkscape:connector-curvature="0"
       id="path36"
       i:knockout="Off"
       d="m 127.31,133.2 -6.989,-8.926 -5.726,-4.968 -19.199,-3.791 -11.706,2.022 -10.609,3.705 -8.925,7.158 -7.579,7.073 -7.411,9.767 -0.758,5.221" /><path
       style="clip-rule:evenodd;fill:none;fill-rule:evenodd;stroke:#000000;stroke-width:0.50400001;stroke-linejoin:bevel;stroke-miterlimit:2.41420007"
       inkscape:connector-curvature="0"
       id="path38"
       i:knockout="Off"
       d="m 120.32,135.81 -14.568,-1.937 -11.537,0.504 -11.199,3.874 -11.789,9.6 -7.916,10.945 -3.537,9.6 -3.453,11.116" /><path
       style="clip-rule:evenodd;fill:url(#XMLID_5_);fill-rule:evenodd;stroke:#000000;stroke-width:0.50400001;stroke-linejoin:bevel;stroke-miterlimit:2.41420007"
       inkscape:connector-curvature="0"
       id="path45"
       i:knockout="Off"
       d="m 53.212,116.95 v -4.801 l -0.758,-8.167 1.938,-4.211 3.873,-3.285 1.179,-4.968 1.937,-5.39 4.209,-2.946 4.21,0.42 2.863,4.968 3.537,7.411 3.874,5.979 0.926,8.76 z" /><path
       style="clip-rule:evenodd;fill:url(#XMLID_6_);fill-rule:evenodd;stroke:#000000;stroke-width:0.50400001;stroke-linejoin:bevel;stroke-miterlimit:2.41420007"
       inkscape:connector-curvature="0"
       id="path52"
       i:knockout="Off"
       d="m 137.84,201.57 -5.979,6.568 -5.473,7.833 -5.053,10.103 -3.537,12.547 -2.021,13.473 -0.421,13.473 v 4.042 l -1.6,0.505 -2.527,-1.01 -2.442,-4.463 -1.01,-13.052 0.421,-15.999 3.031,-14.063 4.126,-12.377 4.547,-9.516 4.379,-6.989 -6.989,1.515 -8.506,5.474 -5.978,7.073 -4.547,9.264 -1.853,10.524 -0.589,10.526 1.01,10.611 1.432,5.473 v 4.967 l -0.926,1.012 -1.937,-2.527 -3.537,-11.958 -2.526,-16.587 0.926,-16.925 3.621,-11.957 3.873,-6.99 5.558,-6.484 7.915,-6.063 7.495,-3.032 -4.378,-1.43 -8,1.009 -10.947,5.979 -7.495,9.514 -3.621,9.517 -2.526,13.472 v 12.377 l 1.011,9.6 v 4.546 l -1.011,3.453 -1.852,-0.927 -3.622,-9.093 -2.021,-16 v -12.42 l 3.116,-13.979 2.946,-10.526 5.979,-8.421 6.484,-6.568 13.557,-6.568 6.989,-2.441 8,-1.517 -5.979,-2.441 -7.579,-1.094 -11.957,1.515 -10.02,3.032 -8,7.073 -6.063,9.009 -3.453,8.926 -2.021,12.547 -0.505,12.461 1.094,11.452 1.011,8.928 v 2.524 h -2.105 l -3.452,-4.461 -4.127,-10.526 -1.853,-13.894 v -11.537 l 1.853,-18.021 4.547,-13.051 7.073,-10.526 7.579,-6.904 8.42,-4.548 10.02,-2.526 9.431,-0.927 10.526,1.433 9.094,2.525 5.474,1.517 -2.526,-4.967 -2.948,-7.074 -6.567,-5.979 -10.105,-3.958 -10.862,-2.021 -11.031,1.433 -13.979,4.041 -11.03,7.915 -9.516,12.043 -5.978,15.072 -1.601,12.547 0.505,18.02 2.527,12.378 1.516,6.147 -0.506,1.517 -2.021,0.421 -4.547,-4.548 -5.474,-12.967 -2.863,-10.864 -0.842,-13.808 2.442,-17.937 6.736,-16.925 11.115,-14.484 7.496,-7.157 13.977,-7.411 12.042,-4.461 12.546,-2.105 h 10.947 l 12.547,3.03 9.515,5.475 8,8.083 5.053,5.473 4.968,13.558 4.463,12.968 -16.5,59.54 z" /><path
       style="clip-rule:evenodd;fill:none;fill-rule:evenodd;stroke:#000000;stroke-width:0.50400001;stroke-linejoin:bevel;stroke-miterlimit:2.41420007"
       inkscape:connector-curvature="0"
       id="path54"
       i:knockout="Off"
       d="m 20.961,109.79 4.126,-6.568 10.863,-11.788 13.304,-7.832 9.768,-4.968 10.44,-2.272 h 10.442 l 4.799,0.167" /><path
       style="clip-rule:evenodd;fill:url(#XMLID_7_);fill-rule:evenodd;stroke:#000000;stroke-width:0.50400001;stroke-linejoin:bevel;stroke-miterlimit:2.41420007"
       inkscape:connector-curvature="0"
       id="path61"
       i:knockout="Off"
       d="m 221.79,160.4 -2.021,4.295 -4.799,4.63 -5.052,3.874 -5.137,2.947 -6.737,1.264 -6.735,0.843 h -7.243 l -6.821,-1.769 -2.525,-0.758 -31.829,10.946 -18.947,20.042 -3.03,4.125 3.03,-2.946 4.968,-2.863 -3.368,4.21 -2.021,6.989 -0.927,9.429 0.927,12.716 2.442,10.609 1.684,5.979 3.874,-8.168 4.716,-4.969 1.262,10.947 2.105,6.821 4.716,8.084 0.421,-10.188 2.106,-7.244 1.263,-3.452 1.683,6.399 3.369,7.242 3.452,-8.084 3.789,-6.398 -1.263,10.693 0.506,8.506 1.599,7.578 4.211,-3.452 3.032,-4.548 v 6.737 l 0.42,7.663 0.338,2.189 3.536,-3.875 1.517,-2.946 h 3.368 l 5.979,-1.769 9.769,-4.632 14.313,-4.63 20.042,-5.558 13.136,-3.453 13.978,-3.873 6.822,-3.367 6.82,-3.791 6.314,-6.821 6.905,-9.347 4.713,-10.104 2.107,-7.915 0.842,-6.401 -6.147,-25.43 -61.48,-17.03 z" /><path
       style="clip-rule:evenodd;fill:none;fill-rule:evenodd;stroke:#000000;stroke-width:0.50400001;stroke-linejoin:bevel;stroke-miterlimit:2.41420007"
       inkscape:connector-curvature="0"
       id="path63"
       i:knockout="Off"
       d="m 160.91,227 -0.757,4.464 v 11.788 l 1.432,5.811 3.706,4.294 0.336,-8.673 3.116,-8.673" /><path
       style="clip-rule:evenodd;fill:none;fill-rule:evenodd;stroke:#000000;stroke-width:0.50400001;stroke-linejoin:bevel;stroke-miterlimit:2.41420007"
       inkscape:connector-curvature="0"
       id="path65"
       i:knockout="Off"
       d="m 175.48,255.38 -0.422,4.632 1.517,5.137 2.357,2.61 0.085,-5.304 3.704,-10.695 6.821,-11.789 6.567,-6.399" /><path
       style="clip-rule:evenodd;fill:none;fill-rule:evenodd;stroke:#000000;stroke-width:0.50400001;stroke-linejoin:bevel;stroke-miterlimit:2.41420007"
       inkscape:connector-curvature="0"
       id="path67"
       i:knockout="Off"
       d="m 132.62,217.91 -0.673,6.063 0.673,6.062 2.106,4.632 1.599,1.601 -0.083,-4.884 1.262,-5.054 2.358,-3.704" /><path
       style="clip-rule:evenodd;fill:none;fill-rule:evenodd;stroke:#000000;stroke-width:0.50400001;stroke-linejoin:bevel;stroke-miterlimit:2.41420007"
       inkscape:connector-curvature="0"
       id="path69"
       i:knockout="Off"
       d="m 148.03,233.82 -0.169,6.991 0.841,7.829" /><path
       style="clip-rule:evenodd;fill:none;fill-rule:evenodd;stroke:#000000;stroke-width:0.50400001;stroke-linejoin:bevel;stroke-miterlimit:2.41420007"
       inkscape:connector-curvature="0"
       id="path71"
       i:knockout="Off"
       d="m 148.95,207.21 -1.937,4.211 -0.758,6.651 1.179,7.411 2.021,3.116 0.758,-5.052 3.2,-4.379 2.358,-2.779" /><path
       style="clip-rule:evenodd;fill:none;fill-rule:evenodd;stroke:#000000;stroke-width:0.50400001;stroke-linejoin:bevel;stroke-miterlimit:2.41420007"
       inkscape:connector-curvature="0"
       id="path73"
       i:knockout="Off"
       d="m 120.49,194.16 -7.41,4.716 -7.663,9.515 -4.126,8.673 -2.442,11.283 0.842,11.537" /><path
       style="clip-rule:evenodd;fill:url(#XMLID_8_);fill-rule:evenodd;stroke:#000000;stroke-width:0.50400001;stroke-linejoin:bevel;stroke-miterlimit:2.41420007"
       inkscape:connector-curvature="0"
       id="path80"
       i:knockout="Off"
       d="m 177.33,176.82 -3.621,-2.694 -2.947,-5.809 -5.558,-14.82 -3.032,-6.822 -4.8,-5.473 -7.578,-5.81 -9.6,-3.032 -8.841,-0.422 -9.6,1.686 -9.009,3.789 -3.032,2.105 6.232,-0.338 h 6.063 l 7.242,1.348 6.484,2.021 2.442,1.768 -10.189,1.684 -6.231,2.021 -6.82,5.811 -3.452,5.22 -2.442,7.158 v 1.682 l 5.558,-4.799 4.799,-3.369 4.715,-1.768 h 5.473 l 3.79,1.433 -9.263,4.377 -6.146,5.222 -3.368,6.147 -1.095,6.483 0.673,6.821 1.432,2.779 2.358,-4.126 3.789,-3.789 3.115,-2.694 -3.789,7.831 -1.01,7.578 -0.673,10.189 -0.421,6.146 3.874,-5.726 4.379,-8.589 4.715,-4.715 1.769,-1.431 -4.126,6.821 -1.346,5.558 3.115,-3.116 4.126,-1.433 v 9.262 l 0.253,5.053 1.431,4.463 1.768,-6.483 5.138,-11.621 3.705,-6.484 5.726,-5.726 6.569,-5.811 4.548,-1.767 5.81,-2.105 6.904,-1.347 v -0.35 z" /><path
       style="clip-rule:evenodd;fill:none;fill-rule:evenodd;stroke:#000000;stroke-width:0.50400001;stroke-linejoin:bevel;stroke-miterlimit:2.41420007"
       inkscape:connector-curvature="0"
       id="path82"
       i:knockout="Off"
       d="m 133.38,159.72 5.221,-1.094 h 7.157 l 5.306,1.094" /><path
       style="clip-rule:evenodd;fill:none;fill-rule:evenodd;stroke:#000000;stroke-width:0.50400001;stroke-linejoin:bevel;stroke-miterlimit:2.41420007"
       inkscape:connector-curvature="0"
       id="path84"
       i:knockout="Off"
       d="m 138.18,144.56 5.221,1.096 5.472,2.02 4.968,2.779" /><path
       style="clip-rule:evenodd;fill:none;fill-rule:evenodd;stroke:#000000;stroke-width:0.50400001;stroke-linejoin:bevel;stroke-miterlimit:2.41420007"
       inkscape:connector-curvature="0"
       id="path86"
       i:knockout="Off"
       d="m 124.87,180.94 4.379,-3.368 6.484,-3.201 6.568,-1.262" /><path
       style="clip-rule:evenodd;fill:none;fill-rule:evenodd;stroke:#000000;stroke-width:0.50400001;stroke-linejoin:bevel;stroke-miterlimit:2.41420007"
       inkscape:connector-curvature="0"
       id="path88"
       i:knockout="Off"
       d="m 133.71,191.89 5.22,-5.558 6.484,-3.37" /><path
       style="clip-rule:evenodd;fill:url(#XMLID_9_);fill-rule:evenodd;stroke:#000000;stroke-width:0.50400001;stroke-linejoin:bevel;stroke-miterlimit:2.41420007"
       inkscape:connector-curvature="0"
       id="path95"
       i:knockout="Off"
       d="m 298.42,49.833 -11.704,4.801 -7.494,4.379 -6.906,4.379 -7.408,5.22 -7.073,6.652 -4.799,6.989 -6.063,10.862 -5.726,15.747 -5.223,17.094 -6.567,17.937 -7.074,14.82 -1.43,3.368 0.59,6.232 v 6.988 l 6.987,-6.063 2.273,-2.61 v 5.137 l 2.104,6.23 2.695,4.379 h 1.263 l 1.769,-4.884 1.771,-3.116 1.766,8.842 0.929,6.146 4.208,-7.916 0.506,6.063 2.527,9.683 2.271,-9.093 1.265,-4.042 3.031,10.524 4.041,6.569 5.728,6.483 -1.769,-9.6 v -6.567 l 4.21,7.914 6.232,6.148 4.799,2.948 -1.685,-7.326 v -5.222 l 0.758,-1.769 6.146,9.515 5.643,4.801 -0.758,-4.801 -1.263,-7.747 4.21,2.61 3.03,2.105 -0.842,-4.294 0.842,-10.021 4.886,6.484 3.45,4.041 V 190.2 l 0.927,-3.874 6.568,5.137 2.526,1.852 -2.526,-8.84 -2.272,-10.442 -0.338,-1.769 5.558,6.906 2.694,2.272 -0.421,-7.409 v -4.801 l 3.958,3.958 2.273,1.179 -1.432,-5.642 v -7.411 l 3.454,6.991 3.115,4.882 v -6.146 l -0.423,-4.884 2.611,6.148 2.61,3.115 -0.841,-5.728 -2.611,-7.494 -4.462,-9.093 -4.717,-10.947 -1.347,-4.799 -0.843,-6.568 0.085,-7.158 0.758,-43.534 2.188,-3.453 h 3.875 l 7.914,1.179 6.567,1.01 4.379,0.843 1.264,1.768 1.769,0.421 h 0.504 l 0.422,-0.421 -0.422,-1.768 -1.769,-4.8 -1.348,-3.537 -1.262,-1.348 -2.272,-2.189 -2.695,-2.19 -2.526,-1.346 -23.915,-13.474 -13.72,3.042 z" /><path
       style="clip-rule:evenodd;fill:url(#XMLID_10_);fill-rule:evenodd;stroke:#000000;stroke-width:0.50400001;stroke-linejoin:bevel;stroke-miterlimit:2.41420007"
       inkscape:connector-curvature="0"
       id="path102"
       i:knockout="Off"
       d="m 259.85,12.532 -1.938,3.03 -1.937,5.727 v 4.799 l 1.6,6.485 3.285,5.22 4.546,4.884 6.737,4.125 10.526,2.696 7.916,0.336 h 12.041 l 4.462,-0.336 -2.273,1.852 -5.221,4.125 -4.465,4.127 -2.692,5.22 -1.18,5.644 v 4.882 l 1.517,5.221 2.355,3.032 2.191,0.759 h 2.609 l 3.706,-0.759 3.031,-1.515 -1.853,7.916 v 5.64 l 1.853,7.494 3.368,7.074 3.03,4.969 3.368,2.948 3.369,2.273 h 2.273 l 1.854,-0.758 2.272,-1.179 1.853,-2.189 1.938,-4.465 0.337,-10.103 -1.432,-9.516 -1.938,-6.736 -2.273,-4.547 -2.273,-3.368 -1.095,-2.191 -0.336,-2.273 V 71.14 l 1.431,-2.19 2.273,-1.096 3.79,-2.357 2.693,-1.768 2.609,-1.853 1.854,-1.936 1.938,-2.191 1.852,-4.125 0.673,-4.884 -0.673,-5.306 L 339,38.128 v -1.515 l 1.432,-3.032 v -6.316 l -1.011,-3.368 -1.517,-2.272 -0.757,0.419 v 1.853 l -0.76,2.188 -2.61,2.694 -2.609,1.519 -1.178,-0.674 v -2.688 l 0.337,-5.304 -0.76,-4.548 -1.515,-3.369 -0.673,-1.852 -1.938,-0.757 h -0.758 l -0.337,1.179 0.757,2.609 0.338,2.948 -0.758,3.453 -1.095,2.61 -1.179,0.336 -1.431,-0.756 v -9.347 l -1.18,-4.548 -1.094,-2.189 -1.853,-1.516 -1.517,-0.842 -1.093,0.842 0.335,2.274 0.254,2.948 v 3.451 l -1.013,2.526 -1.515,2.61 -1.432,0.419 -1.18,-0.419 -0.756,-2.188 -1.854,-4.127 -1.179,-3.789 -3.031,-4.547 -2.948,-3.705 -2.947,-1.096 -1.6,-0.421 h -1.431 l -0.421,1.517 1.852,1.095 2.358,3.452 1.093,4.884 -1.093,5.642 -0.759,1.853 -1.178,0.422 -1.433,-1.179 -2.694,-2.948 -2.526,-3.451 -3.114,-2.191 -2.948,-1.515 -3.031,-1.516 -3.369,-0.842 -5.727,-0.252 -1.43,0.252 -0.421,1.599 2.274,1.095 4.124,2.274 1.854,2.274 1.6,2.946 0.253,3.453 v 7.409 l -0.59,1.179 h -2.358 l -5.306,-1.179 -3.704,-2.609 -3.704,-2.947 -1.937,-1.853 -1.096,-2.695 v -1.851 l -0.66,-1.601 z" /><path
       style="clip-rule:evenodd;fill:url(#XMLID_11_);fill-rule:evenodd;stroke:#000000;stroke-width:0.43200001;stroke-linejoin:bevel;stroke-miterlimit:2.41420007"
       inkscape:connector-curvature="0"
       id="path109"
       i:knockout="Off"
       d="m 314.25,59.013 c 0,2.02 -1.518,3.873 -3.37,3.873 -1.852,0 -3.369,-1.853 -3.369,-3.873 0,-2.19 1.517,-3.958 3.369,-3.958 1.852,0 3.37,1.768 3.37,3.958 z" /><path
       style="clip-rule:evenodd;fill:none;fill-rule:evenodd;stroke:#000000;stroke-width:0.50400001;stroke-linejoin:bevel;stroke-miterlimit:2.41420007"
       inkscape:connector-curvature="0"
       id="path111"
       i:knockout="Off"
       d="m 325.79,63.055 -1.348,-1.6 -0.843,-3.115 -0.252,-3.538 -1.264,-3.199 -0.673,-0.843 -2.779,-1.853 -3.201,-0.672 -5.051,-0.422 -5.895,0.422 -5.644,1.515" /><path
       style="clip-rule:evenodd;fill:none;fill-rule:evenodd;stroke:#000000;stroke-width:0.50400001;stroke-linejoin:bevel;stroke-miterlimit:2.41420007"
       inkscape:connector-curvature="0"
       id="path113"
       i:knockout="Off"
       d="m 335.55,60.023 -3.955,1.01 -3.875,1.095 -3.874,1.6 -3.285,3.62 -2.945,2.61 -3.115,3.2 -1.348,2.105 -1.18,2.863 -2.106,-5.137 -1.262,-2.105 -1.854,2.358 -1.01,-4.211 -1.684,-2.357 -1.431,3.031 -1.011,-4.379 -0.843,-2.02 -3.114,2.862 -0.254,-4.715 -2.021,-1.263" /><path
       style="clip-rule:evenodd;fill:none;fill-rule:evenodd;stroke:#000000;stroke-width:0.50400001;stroke-linejoin:bevel;stroke-miterlimit:2.41420007"
       inkscape:connector-curvature="0"
       id="path115"
       i:knockout="Off"
       d="m 303.81,55.055 0.59,4.125 2.611,4.212 3.369,1.515 4.464,-0.674 2.021,-0.674" /><path
       style="clip-rule:evenodd;fill:url(#XMLID_12_);fill-rule:evenodd;stroke:#000000;stroke-width:0.43200001;stroke-linejoin:bevel;stroke-miterlimit:2.41420007"
       inkscape:connector-curvature="0"
       id="path122"
       i:knockout="Off"
       d="m 313.74,59.013 c 0,0.505 -0.422,1.01 -1.011,1.01 -0.59,0 -1.011,-0.505 -1.011,-1.01 0,-0.421 0.421,-1.011 1.011,-1.011 0.59,0 1.01,0.59 1.01,1.011 z" /><path
       style="clip-rule:evenodd;fill:none;fill-rule:evenodd;stroke:#000000;stroke-width:0.50400001;stroke-linejoin:bevel;stroke-miterlimit:2.41420007"
       inkscape:connector-curvature="0"
       id="path124"
       i:knockout="Off"
       d="m 303.89,55.055 2.61,-0.843 3.285,-0.674 h 2.525 l 2.527,0.927 2.692,1.852 2.021,2.527 1.264,1.853 0.169,1.179" /><path
       style="clip-rule:evenodd;fill:none;fill-rule:evenodd;stroke:#000000;stroke-width:0.50400001;stroke-linejoin:bevel;stroke-miterlimit:2.41420007"
       inkscape:connector-curvature="0"
       id="path126"
       i:knockout="Off"
       d="m 321.41,70.127 5.22,-0.757 h 5.222 l 5.389,1.431 3.62,1.601 3.285,3.284" /></g><metadata
     id="metadata135"><rdf:RDF><cc:Work><dc:format>image/svg+xml</dc:format><dc:type
           rdf:resource="http://purl.org/dc/dcmitype/StillImage" /><cc:license
           rdf:resource="http://creativecommons.org/publicdomain/zero/1.0/" /><dc:publisher><cc:Agent
             rdf:about="http://openclipart.org/"><dc:title>Openclipart</dc:title></cc:Agent></dc:publisher><dc:title>Rooster</dc:title><dc:date>2013-02-23T07:24:28</dc:date><dc:description /><dc:source>https://openclipart.org/detail/175282/ayam-jantan-by-andinuryadin-175282</dc:source><dc:creator><cc:Agent><dc:title>andinuryadin</dc:title></cc:Agent></dc:creator><dc:subject><rdf:Bag><rdf:li>chicken</rdf:li></rdf:Bag></dc:subject></cc:Work><cc:License
         rdf:about="http://creativecommons.org/publicdomain/zero/1.0/"><cc:permits
           rdf:resource="http://creativecommons.org/ns#Reproduction" /><cc:permits
           rdf:resource="http://creativecommons.org/ns#Distribution" /><cc:permits
           rdf:resource="http://creativecommons.org/ns#DerivativeWorks" /></cc:License></rdf:RDF></metadata></svg>