<?xml version="1.0" encoding="UTF-8" standalone="no"?>
<!-- Created with Inkscape (http://www.inkscape.org/) -->

<svg
   xmlns:dc="http://purl.org/dc/elements/1.1/"
   xmlns:cc="http://creativecommons.org/ns#"
   xmlns:rdf="http://www.w3.org/1999/02/22-rdf-syntax-ns#"
   xmlns:svg="http://www.w3.org/2000/svg"
   xmlns="http://www.w3.org/2000/svg"
   xmlns:xlink="http://www.w3.org/1999/xlink"
   xmlns:sodipodi="http://sodipodi.sourceforge.net/DTD/sodipodi-0.dtd"
   xmlns:inkscape="http://www.inkscape.org/namespaces/inkscape"
   height="128"
   id="svg4688"
   inkscape:version="0.92.2 (5c3e80d, 2017-08-06)"
   sodipodi:docname="fire.svg"
   sodipodi:version="0.32"
   width="88.878571"
   version="1.1">
  <metadata
     id="metadata2">
    <rdf:RDF>
      <cc:Work
         rdf:about="">
        <dc:title></dc:title>
        <dc:description />
        <dc:subject>
          <rdf:Bag>
            <rdf:li>festive</rdf:li>
            <rdf:li>fire</rdf:li>
          </rdf:Bag>
        </dc:subject>
        <dc:publisher>
          <cc:Agent
             rdf:about="http://www.openclipart.org">
            <dc:title>Open Clip Art Library</dc:title>
          </cc:Agent>
        </dc:publisher>
        <dc:creator>
          <cc:Agent>
            <dc:title>Valessio Soares de Brito</dc:title>
          </cc:Agent>
        </dc:creator>
        <dc:rights>
          <cc:Agent>
            <dc:title>Valessio Soares de Brito</dc:title>
          </cc:Agent>
        </dc:rights>
        <dc:date />
        <dc:format>image/svg+xml</dc:format>
        <dc:type
           rdf:resource="http://purl.org/dc/dcmitype/StillImage" />
        <cc:license
           rdf:resource="http://creativecommons.org/publicdomain/zero/1.0/" />
        <dc:language>en</dc:language>
      </cc:Work>
      <cc:License
         rdf:about="http://creativecommons.org/publicdomain/zero/1.0/">
        <cc:permits
           rdf:resource="http://creativecommons.org/ns#Reproduction" />
        <cc:permits
           rdf:resource="http://creativecommons.org/ns#Distribution" />
        <cc:permits
           rdf:resource="http://creativecommons.org/ns#DerivativeWorks" />
      </cc:License>
    </rdf:RDF>
  </metadata>
  <defs
     id="defs3">
    <linearGradient
       id="linearGradient19763">
      <stop
         id="stop19764"
         offset="0.0000000"
         style="stop-color:#000000;stop-opacity:0.74117649;" />
      <stop
         id="stop19765"
         offset="1.0000000"
         style="stop-color:#ffffff;stop-opacity:0.0000000;" />
    </linearGradient>
    <linearGradient
       gradientTransform="matrix(-1.29476,-1.051738,-0.377976,0.465313,868.9073,-65.60104)"
       gradientUnits="userSpaceOnUse"
       id="linearGradient30513"
       inkscape:collect="always"
       x1="82.560005"
       x2="94.621376"
       xlink:href="#linearGradient14630"
       y1="1126.6776"
       y2="1102.4946" />
    <linearGradient
       gradientTransform="matrix(-0.51745769,-0.40670264,0.36243237,-0.74685227,-330.6396,386.2502)"
       gradientUnits="userSpaceOnUse"
       id="linearGradient30514"
       inkscape:collect="always"
       x1="-960.98315"
       x2="-928.93262"
       xlink:href="#linearGradient26051"
       y1="563.04645"
       y2="563.04645" />
    <linearGradient
       gradientTransform="matrix(1.668101,0,0,0.599484,25.93912,-307.5058)"
       gradientUnits="userSpaceOnUse"
       id="linearGradient30515"
       inkscape:collect="always"
       x1="82.560005"
       x2="94.621376"
       xlink:href="#linearGradient14630"
       y1="1126.6776"
       y2="1102.4946" />
    <linearGradient
       gradientTransform="matrix(1.155963,0,0,0.86508,23.54412,-308.1045)"
       gradientUnits="userSpaceOnUse"
       id="linearGradient30516"
       inkscape:collect="always"
       x1="96.398148"
       x2="142.51085"
       xlink:href="#linearGradient14625"
       y1="789.25323"
       y2="733.95215" />
    <linearGradient
       gradientTransform="matrix(1.553052,0.608761,-0.218777,0.558138,243.1239,-351.0916)"
       gradientUnits="userSpaceOnUse"
       id="linearGradient30517"
       inkscape:collect="always"
       x1="82.560005"
       x2="94.621376"
       xlink:href="#linearGradient14630"
       y1="1126.6776"
       y2="1102.4946" />
    <linearGradient
       gradientTransform="matrix(1.170077,-1.188899,0.427268,0.420504,-455.5714,3.795962)"
       gradientUnits="userSpaceOnUse"
       id="linearGradient30518"
       inkscape:collect="always"
       x1="82.560005"
       x2="94.621376"
       xlink:href="#linearGradient14630"
       y1="1126.6776"
       y2="1102.4946" />
    <linearGradient
       gradientTransform="matrix(0.690893,-1.518297,0.545648,0.248294,-493.9369,251.9762)"
       gradientUnits="userSpaceOnUse"
       id="linearGradient30519"
       inkscape:collect="always"
       x1="82.560005"
       x2="94.621376"
       xlink:href="#linearGradient14630"
       y1="1126.6776"
       y2="1102.4946" />
    <linearGradient
       gradientTransform="matrix(-0.702859,-1.512796,0.543671,-0.252595,-289.296,798.2902)"
       gradientUnits="userSpaceOnUse"
       id="linearGradient30520"
       inkscape:collect="always"
       x1="82.560005"
       x2="94.621376"
       xlink:href="#linearGradient14630"
       y1="1126.6776"
       y2="1102.4946" />
    <linearGradient
       gradientTransform="matrix(0.256408,-1.648277,-0.592361,-0.09214863,852.0974,636.5332)"
       gradientUnits="userSpaceOnUse"
       id="linearGradient30521"
       inkscape:collect="always"
       x1="82.560005"
       x2="94.621376"
       xlink:href="#linearGradient14630"
       y1="1126.6776"
       y2="1102.4946" />
    <linearGradient
       gradientTransform="matrix(-0.748755,-1.490612,-0.535699,0.269089,945.9269,223.5442)"
       gradientUnits="userSpaceOnUse"
       id="linearGradient30522"
       inkscape:collect="always"
       x1="82.560005"
       x2="94.621376"
       xlink:href="#linearGradient14630"
       y1="1126.6776"
       y2="1102.4946" />
    <linearGradient
       gradientTransform="matrix(0.57690335,-0.25828124,0.26130147,1.0001426,491.3578,-452.3346)"
       gradientUnits="userSpaceOnUse"
       id="linearGradient30523"
       inkscape:collect="always"
       x1="-961.27472"
       x2="-929.41113"
       xlink:href="#linearGradient26051"
       y1="562.81714"
       y2="562.81714" />
    <linearGradient
       gradientTransform="matrix(0.42510819,-0.53050643,0.57537629,0.6866279,220.6343,-493.3961)"
       gradientUnits="userSpaceOnUse"
       id="linearGradient30524"
       inkscape:collect="always"
       x1="-961.11877"
       x2="-929.15558"
       xlink:href="#linearGradient26051"
       y1="562.93964"
       y2="562.93964" />
    <linearGradient
       gradientTransform="matrix(-0.01958315,-0.86239269,1.1799241,-0.02524823,-444.8447,-392.4982)"
       gradientUnits="userSpaceOnUse"
       id="linearGradient30525"
       inkscape:collect="always"
       x1="-961.33478"
       x2="-929.5094"
       xlink:href="#linearGradient26051"
       y1="562.77002"
       y2="562.77002" />
    <linearGradient
       gradientTransform="matrix(-0.58019724,-0.42152637,0.40645177,-0.7742162,-465.1677,429.5162)"
       gradientUnits="userSpaceOnUse"
       id="linearGradient30526"
       inkscape:collect="always"
       x1="-961.0495"
       x2="-929.04175"
       xlink:href="#linearGradient26051"
       y1="562.9942"
       y2="562.9942" />
    <linearGradient
       gradientTransform="matrix(0.939411,0,0,1.446184,1126.611,-347.4257)"
       gradientUnits="userSpaceOnUse"
       id="linearGradient30527"
       inkscape:collect="always"
       x1="-1006.61"
       x2="-953.87994"
       xlink:href="#linearGradient17250"
       y1="448.68289"
       y2="299.88538" />
    <linearGradient
       gradientTransform="matrix(0.701579,0,0,1.93643,1126.611,-347.4257)"
       gradientUnits="userSpaceOnUse"
       id="linearGradient30528"
       inkscape:collect="always"
       x1="-1308.2009"
       x2="-1335.0436"
       xlink:href="#linearGradient17250"
       y1="330.19891"
       y2="272.82257" />
    <linearGradient
       gradientTransform="matrix(1.155963,0,0,0.86508,23.84342,-308.1045)"
       gradientUnits="userSpaceOnUse"
       id="linearGradient30529"
       inkscape:collect="always"
       x1="78.645653"
       x2="122.41663"
       xlink:href="#linearGradient14625"
       y1="743.14014"
       y2="713.54688" />
    <linearGradient
       gradientTransform="matrix(0.601918,0,0,1.661356,25.19792,-313.5225)"
       gradientUnits="userSpaceOnUse"
       id="linearGradient30530"
       inkscape:collect="always"
       x1="110.44791"
       x2="239.46423"
       xlink:href="#linearGradient14625"
       y1="244.048"
       y2="376.90421" />
    <linearGradient
       gradientTransform="matrix(0.606945,0,0,1.647595,1.494316,-282.3691)"
       gradientUnits="userSpaceOnUse"
       id="linearGradient30531"
       inkscape:collect="always"
       x1="468.40564"
       x2="502.45129"
       xlink:href="#linearGradient26051"
       y1="232.90141"
       y2="232.90141" />
    <linearGradient
       id="linearGradient29186">
      <stop
         id="stop29187"
         offset="0.0000000"
         style="stop-color:#ffffff;stop-opacity:1.0000000;" />
      <stop
         id="stop29188"
         offset="1"
         style="stop-color:#ffffff;stop-opacity:0;" />
    </linearGradient>
    <linearGradient
       gradientTransform="matrix(0.805965,0,0,1.240749,19.10272,-295.9141)"
       gradientUnits="userSpaceOnUse"
       id="linearGradient30532"
       inkscape:collect="always"
       x1="9.6549549"
       x2="323.10443"
       xlink:href="#linearGradient29186"
       y1="256.78357"
       y2="500.80176" />
    <linearGradient
       gradientTransform="matrix(1.318507,0,0,0.758434,24.14282,-309.302)"
       gradientUnits="userSpaceOnUse"
       id="linearGradient30533"
       inkscape:collect="always"
       x1="230.94295"
       x2="163.65744"
       xlink:href="#linearGradient14630"
       y1="927.5675"
       y2="832.44" />
    <linearGradient
       id="linearGradient13377"
       inkscape:collect="always">
      <stop
         id="stop13378"
         offset="0"
         style="stop-color:#fdffff;stop-opacity:1;" />
      <stop
         id="stop13379"
         offset="1"
         style="stop-color:#fdffff;stop-opacity:0;" />
    </linearGradient>
    <linearGradient
       gradientTransform="matrix(1.331709,0,0,0.750915,23.84342,-308.1045)"
       gradientUnits="userSpaceOnUse"
       id="linearGradient30534"
       inkscape:collect="always"
       x1="124.57172"
       x2="153.33653"
       xlink:href="#linearGradient13377"
       y1="931.4588"
       y2="853.09821" />
    <linearGradient
       gradientTransform="matrix(-0.345461,-1.103135,0.825546,-0.25853,-265.0855,1483.115)"
       gradientUnits="userSpaceOnUse"
       id="linearGradient30536"
       inkscape:collect="always"
       x1="78.645653"
       x2="122.41663"
       xlink:href="#linearGradient14625"
       y1="743.14014"
       y2="713.54688" />
    <linearGradient
       id="linearGradient14630"
       inkscape:collect="always">
      <stop
         id="stop14631"
         offset="0"
         style="stop-color:#ffffff;stop-opacity:1;" />
      <stop
         id="stop14632"
         offset="1"
         style="stop-color:#ffffff;stop-opacity:0;" />
    </linearGradient>
    <linearGradient
       gradientTransform="matrix(1.100206,-1.253837,0.450605,0.395393,-311.0192,864.0529)"
       gradientUnits="userSpaceOnUse"
       id="linearGradient30535"
       inkscape:collect="always"
       x1="82.560005"
       x2="94.621376"
       xlink:href="#linearGradient14630"
       y1="1126.6776"
       y2="1102.4946" />
    <linearGradient
       gradientTransform="matrix(0.926747,0,0,1.465945,1126.611,-347.4257)"
       gradientUnits="userSpaceOnUse"
       id="linearGradient30537"
       inkscape:collect="always"
       x1="-916.89685"
       x2="-857.95917"
       xlink:href="#linearGradient17250"
       y1="438.47348"
       y2="362.15622" />
    <linearGradient
       gradientTransform="matrix(0.7951,0,0,1.257703,25.19792,-310.8135)"
       gradientUnits="userSpaceOnUse"
       id="linearGradient30538"
       inkscape:collect="always"
       x1="501.40482"
       x2="317.13544"
       xlink:href="#linearGradient14625"
       y1="384.39618"
       y2="485.78278" />
    <linearGradient
       gradientTransform="matrix(0.602527,0,0,1.659677,1.494316,-284.4009)"
       gradientUnits="userSpaceOnUse"
       id="linearGradient30539"
       inkscape:collect="always"
       x1="533.78339"
       x2="572.40991"
       xlink:href="#linearGradient26051"
       y1="294.8653"
       y2="294.8653" />
    <linearGradient
       id="linearGradient17250">
      <stop
         id="stop17251"
         offset="0.0000000"
         style="stop-color:#dc0000;stop-opacity:1.0000000;" />
      <stop
         id="stop17252"
         offset="1.0000000"
         style="stop-color:#ffb200;stop-opacity:1.0000000;" />
    </linearGradient>
    <linearGradient
       gradientTransform="matrix(0.796212,0,0,1.70628,1126.611,-347.4257)"
       gradientUnits="userSpaceOnUse"
       id="linearGradient30540"
       inkscape:collect="always"
       x1="-1131.0251"
       x2="-1102.728"
       xlink:href="#linearGradient17250"
       y1="404.58243"
       y2="306.75836" />
    <linearGradient
       id="linearGradient26051">
      <stop
         id="stop26052"
         offset="0.0000000"
         style="stop-color:#ffffff;stop-opacity:0.44927537;" />
      <stop
         id="stop26053"
         offset="1"
         style="stop-color:#ffffff;stop-opacity:0;" />
    </linearGradient>
    <linearGradient
       gradientTransform="matrix(0.544121,0,0,1.837828,1.494316,-282.3691)"
       gradientUnits="userSpaceOnUse"
       id="linearGradient30541"
       inkscape:collect="always"
       x1="349.43204"
       x2="390.31766"
       xlink:href="#linearGradient26051"
       y1="179.97382"
       y2="179.97382" />
    <linearGradient
       id="linearGradient14625">
      <stop
         id="stop14626"
         offset="0.0000000"
         style="stop-color:#ffffff;stop-opacity:1.0000000;" />
      <stop
         id="stop14627"
         offset="1"
         style="stop-color:#ffffff;stop-opacity:0;" />
    </linearGradient>
    <linearGradient
       gradientTransform="matrix(0.683108,0,0,1.463898,23.84342,-315.5543)"
       gradientUnits="userSpaceOnUse"
       id="linearGradient30542"
       inkscape:collect="always"
       x1="198.88322"
       x2="342.54471"
       xlink:href="#linearGradient14625"
       y1="246.21246"
       y2="403.09412" />
  </defs>
  <sodipodi:namedview
     bordercolor="#666666"
     borderopacity="1.0"
     id="base"
     inkscape:current-layer="layer1"
     inkscape:cx="25.501618"
     inkscape:cy="63.21563"
     inkscape:pageopacity="0.0"
     inkscape:pageshadow="2"
     inkscape:window-height="1025"
     inkscape:window-width="1920"
     inkscape:window-x="-8"
     inkscape:window-y="-8"
     inkscape:zoom="0.86831672"
     pagecolor="#ffffff"
     showgrid="false"
     inkscape:window-maximized="1"
     fit-margin-top="0"
     fit-margin-left="0"
     fit-margin-right="0"
     fit-margin-bottom="0"
     units="px" />
  <g
     id="layer1"
     inkscape:groupmode="layer"
     inkscape:label="Layer 1"
     transform="translate(-202.68875,-149.59041)">
    <g
       id="g1048"
       transform="matrix(0.30600476,0,0,0.30600476,177.49135,148.23073)">
      <path
         d="m 351.25506,369.08426 -77.10237,-44.1822 12.99479,-10.3958 77.10236,19.059 z"
         id="path15367"
         style="fill:#924b00;fill-opacity:1;fill-rule:evenodd;stroke:#000000;stroke-width:1.90071011;stroke-linecap:butt;stroke-linejoin:bevel;stroke-miterlimit:4;stroke-opacity:0.34351142"
         inkscape:connector-curvature="0" />
      <path
         d="m 341.52305,341.53463 c 5.31051,-8.93258 15.72757,-12.26417 23.25238,-7.43659 7.52479,4.82757 9.3219,15.99522 4.01138,24.9278 -5.3105,8.93258 -15.72757,12.26417 -23.25237,7.4366 -7.5248,-4.82758 -9.3219,-15.99524 -4.01139,-24.92781 z"
         id="path15362"
         style="fill:#c15300;fill-opacity:1;stroke:#000000;stroke-width:1.90070975;stroke-linejoin:bevel;stroke-miterlimit:4;stroke-opacity:0.34351142"
         inkscape:connector-curvature="0" />
      <path
         d="m 355.99322,351.48176 c 0.58182,-0.48758 0.88939,0.62657 0.74269,1.06917 -0.39756,1.19943 -1.86285,1.18014 -2.67675,0.55162 -1.45589,-1.12425 -1.36367,-3.45754 -0.294,-4.82832 1.56975,-2.0117 4.42295,-1.78867 6.09619,-0.0341 2.23016,2.33861 1.9486,6.30563 -0.15469,8.58747 -2.64678,2.87145 -7.01754,2.42215 -9.51564,-0.48347 -3.02553,-3.5191 -2.54476,-9.16996 0.60338,-12.34663 3.70998,-3.74358 9.61996,-3.0625 12.93508,1.00103 3.82743,4.69151 3.14482,12.03954 -1.05207,16.10576 -4.76875,4.6203 -12.22551,3.70567 -16.35451,-1.51857 -4.63212,-5.86081 -3.74664,-14.91152 1.50075,-19.86491 5.82559,-5.49919 14.83263,-4.35022 19.77396,2.03612"
         id="path18511"
         style="fill:none;fill-opacity:0.75;fill-rule:evenodd;stroke:#000000;stroke-width:1.90070975;stroke-linecap:butt;stroke-linejoin:bevel;stroke-miterlimit:4;stroke-opacity:0.34351142"
         inkscape:connector-curvature="0" />
      <path
         d="m 307.49458,322.89156 c -7.11779,6.1617 -11.78437,4.6658 -24.02425,7.0473 17.03317,8.6308 38.84808,22.9886 56.69752,31.9128 -3.75537,-7.6019 -3.22318,-17.3404 0.0927,-25.408 -10.65952,-0.6612 -24.26907,-3.2597 -32.76597,-13.5521 z"
         id="path24798"
         style="fill:url(#linearGradient30513);fill-opacity:1;fill-rule:evenodd;stroke:none;stroke-width:1.42553258;stroke-linecap:butt;stroke-linejoin:miter;stroke-miterlimit:4;stroke-opacity:0.20229007"
         inkscape:connector-curvature="0" />
      <path
         d="m 354.56886,343.89749 c 3.05167,-6.28847 9.0378,-8.63389 13.3619,-5.23531 4.32409,3.39858 5.35679,11.26053 2.30512,17.54901 -3.05167,6.28846 -9.0378,8.63389 -13.36189,5.23531 -4.3241,-3.39858 -5.35679,-11.26054 -2.30513,-17.54901 z"
         id="path21020"
         style="fill:url(#linearGradient30514);fill-opacity:1;stroke:none;stroke-width:1.20892739;stroke-linejoin:bevel;stroke-miterlimit:4;stroke-opacity:0.34351142"
         inkscape:connector-curvature="0" />
      <path
         d="m 93.092056,334.43156 50.246504,-13.8611 39.85066,3.4653 -71.90447,51.9791 -6.93055,-15.5937 z"
         id="path15363"
         style="fill:#924b00;fill-opacity:1;fill-rule:evenodd;stroke:#000000;stroke-width:1.90071011;stroke-linecap:butt;stroke-linejoin:bevel;stroke-miterlimit:4;stroke-opacity:0.34351142"
         inkscape:connector-curvature="0" />
      <path
         d="m 148.53647,389.00966 18.19269,17.3263 32.92012,-48.5138 -9.52951,-9.5295 -14.72741,-1.7326 -41.58331,35.519 z"
         id="path15364"
         style="fill:#924b00;fill-opacity:1;fill-rule:evenodd;stroke:#000000;stroke-width:1.90071011;stroke-linecap:butt;stroke-linejoin:bevel;stroke-miterlimit:4;stroke-opacity:0.34351142"
         inkscape:connector-curvature="0" />
      <path
         d="m 243.83154,402.87076 13.86109,-5.1979 -26.85589,-97.0277 -16.46005,11.2621 1.73265,96.1614 z"
         id="path15365"
         style="fill:#924b00;fill-opacity:1;fill-rule:evenodd;stroke:#000000;stroke-width:1.90071011;stroke-linecap:butt;stroke-linejoin:bevel;stroke-miterlimit:4;stroke-opacity:0.34351142"
         inkscape:connector-curvature="0" />
      <path
         d="m 301.87488,405.46966 -10.39581,-3.4652 -50.2465,-66.7066 14.72742,-8.6632 64.10759,50.2465 -15.59373,11.2621 z"
         id="path15366"
         style="fill:#924b00;fill-opacity:1;fill-rule:evenodd;stroke:#000000;stroke-width:1.90071011;stroke-linecap:butt;stroke-linejoin:bevel;stroke-miterlimit:4;stroke-opacity:0.34351142"
         inkscape:connector-curvature="0" />
      <path
         d="m 116.88277,350.10102 c 4.02746,11.95713 0.12816,24.15067 -8.70379,27.21774 -8.831933,3.06706 -19.268538,-4.14806 -23.295993,-16.1052 -4.02745,-11.95712 -0.128158,-24.15067 8.703778,-27.21773 8.831945,-3.06707 19.268555,4.14806 23.296005,16.10519 z"
         id="path15358"
         style="fill:#c15300;fill-opacity:1;stroke:#000000;stroke-width:1.90070999;stroke-linejoin:bevel;stroke-miterlimit:4;stroke-opacity:0.34351142"
         inkscape:connector-curvature="0" />
      <path
         d="m 161.7419,383.15176 c 8.39743,8.21072 10.21345,19.98616 4.05361,26.28449 -6.15983,6.29832 -17.97441,4.74624 -26.37185,-3.46448 -8.39742,-8.21071 -10.21344,-19.98616 -4.05361,-26.28448 6.15984,-6.29833 17.97443,-4.74624 26.37185,3.46447 z"
         id="path15359"
         style="fill:#c15300;fill-opacity:1;stroke:#000000;stroke-width:1.90071023;stroke-linejoin:bevel;stroke-miterlimit:4;stroke-opacity:0.34351142"
         inkscape:connector-curvature="0" />
      <path
         d="m 236.73768,384.67151 c 12.13322,-0.30183 22.14281,7.76528 22.34286,18.00695 0.20005,10.24165 -9.48482,18.79868 -21.61804,19.10051 -12.1332,0.30183 -22.14281,-7.76528 -22.34286,-18.00693 -0.20005,-10.24167 9.48483,-18.7987 21.61804,-19.10053 z"
         id="path15360"
         style="fill:#c15300;fill-opacity:1;stroke:#000000;stroke-width:1.9007107;stroke-linejoin:bevel;stroke-miterlimit:4;stroke-opacity:0.34351142"
         inkscape:connector-curvature="0" />
      <path
         d="m 291.75605,380.63333 c 5.39848,-9.259 15.98809,-12.71232 23.63754,-7.70832 7.64943,5.004 9.4763,16.57975 4.07782,25.83875 -5.39848,9.25899 -15.9881,12.71233 -23.63753,7.70833 -7.64945,-5.004 -9.47631,-16.57977 -4.07783,-25.83876 z"
         id="path15361"
         style="fill:#c15300;fill-opacity:1;stroke:#000000;stroke-width:1.90070951;stroke-linejoin:bevel;stroke-miterlimit:4;stroke-opacity:0.34351142"
         inkscape:connector-curvature="0" />
      <path
         d="m 136.4825,309.62976 44.97408,-25.4447 24.25694,16.4601 -22.45412,30.9703 -18.26288,10.613 z"
         id="path16000"
         style="fill:#994200;fill-opacity:1;fill-rule:evenodd;stroke:#000000;stroke-width:1.42553258;stroke-linecap:butt;stroke-linejoin:miter;stroke-miterlimit:4;stroke-opacity:0.20229007"
         inkscape:connector-curvature="0" />
      <path
         d="m 167.66998,346.70896 29.38034,-46.9302 34.65275,-8.6632 v 19.9254 l -22.52429,50.2465 z"
         id="path16001"
         style="fill:#994200;fill-opacity:1;fill-rule:evenodd;stroke:#000000;stroke-width:1.42553258;stroke-linecap:butt;stroke-linejoin:miter;stroke-miterlimit:4;stroke-opacity:0.20229007"
         inkscape:connector-curvature="0" />
      <path
         d="m 136.408,309.30826 -5.09998,9.8275 33.6885,23.0927 3.7535,-14.0419 z"
         id="path15996"
         style="fill:#c15300;fill-opacity:1;fill-rule:evenodd;stroke:#000000;stroke-width:1.42553258;stroke-linecap:butt;stroke-linejoin:miter;stroke-miterlimit:4;stroke-opacity:0.20229007"
         inkscape:connector-curvature="0" />
      <path
         d="m 208.70837,349.57826 0.4386,10.7792 -42.4923,-2.5587 1.33673,-11.2387 z"
         id="path15997"
         style="fill:#c15300;fill-opacity:1;fill-rule:evenodd;stroke:#000000;stroke-width:1.42553258;stroke-linecap:butt;stroke-linejoin:miter;stroke-miterlimit:4;stroke-opacity:0.20229007"
         inkscape:connector-curvature="0" />
      <path
         d="m 98.464164,354.46778 c 0.127445,0.93639 -0.879284,0.42116 -1.16169,-0.0503 -0.765305,-1.27773 -0.109776,-2.71754 0.738038,-3.06234 1.51653,-0.61681 3.303018,1.19287 3.908718,3.26371 0.88893,3.03904 -0.53272,5.70604 -2.637763,6.07435 -2.805687,0.4909 -5.788522,-2.7097 -6.655754,-6.47709 -1.09132,-4.74086 1.170766,-8.74712 4.537489,-9.08636 4.077558,-0.41087 8.291638,4.22734 9.402788,9.69047 1.30945,6.4381 -1.80684,11.80105 -6.43721,12.09837 -5.345958,0.34326 -10.800581,-5.745 -12.149825,-12.90384 -1.533094,-8.13432 2.442095,-14.86015 8.336943,-15.11038 6.613132,-0.28071 13.312162,7.26267 14.896852,16.11722 1.7593,9.8302 -3.07694,17.92183 -10.23667,18.12237"
         id="path17886"
         style="fill:none;fill-opacity:0.75;fill-rule:evenodd;stroke:#000000;stroke-width:1.90071011;stroke-linecap:butt;stroke-linejoin:bevel;stroke-miterlimit:4;stroke-opacity:0.34351142"
         inkscape:connector-curvature="0" />
      <path
         d="m 148.34323,394.20754 c 0.61909,0.714 -0.50547,0.83367 -0.99986,0.59358 -1.33976,-0.65063 -1.579,-2.21445 -1.05809,-2.967 0.93177,-1.34615 3.41734,-0.8091 5.05753,0.59269 2.40708,2.05717 2.67666,5.06737 1.11632,6.52758 -2.07966,1.94624 -6.32771,0.8997 -9.1152,-1.77895 -3.50777,-3.37081 -3.8068,-7.96186 -1.17456,-10.08818 3.188,-2.57525 9.25328,-0.99924 13.17289,2.96524 4.61912,4.67199 4.94562,10.86601 1.23279,13.64875 -4.28662,3.21278 -12.18373,1.10196 -17.23056,-4.1515 -5.73453,-5.96931 -6.08797,-13.77405 -1.29103,-17.20934 5.38145,-3.85386 15.1164,-1.20612 21.28824,5.33777 6.8519,7.26495 7.23206,16.68404 1.34925,20.76992"
         id="path18508"
         style="fill:none;fill-opacity:0.75;fill-rule:evenodd;stroke:#000000;stroke-width:1.90071023;stroke-linecap:butt;stroke-linejoin:bevel;stroke-miterlimit:4;stroke-opacity:0.34351142"
         inkscape:connector-curvature="0" />
      <path
         d="m 235.79231,404.3064 c 0.80521,0.23972 0.0727,1.09963 -0.40017,1.21002 -1.2815,0.29915 -2.25648,-0.97113 -2.27648,-2.00688 -0.0358,-1.85273 1.99634,-3.0204 3.87717,-2.8332 2.7602,0.27469 4.50208,2.84729 4.15277,5.22378 -0.46556,3.16749 -4.00498,5.04548 -7.35416,4.45638 -4.21459,-0.74132 -6.79206,-4.73977 -6.02909,-8.44069 0.92408,-4.4823 6.01975,-7.08888 10.83118,-6.07956 5.67009,1.18946 9.09316,6.63532 7.90539,11.65759 -1.37135,5.79842 -8.03632,9.13845 -14.30817,7.70275 -7.12646,-1.63134 -11.39875,-8.53206 -9.78169,-14.8745 1.8141,-7.11525 10.05371,-11.19081 17.78516,-9.32592 8.58335,2.07037 13.70657,10.4294 11.65799,18.0914"
         id="path18509"
         style="fill:none;fill-opacity:0.75;fill-rule:evenodd;stroke:#000000;stroke-width:1.90071058;stroke-linecap:butt;stroke-linejoin:bevel;stroke-miterlimit:4;stroke-opacity:0.34351142"
         inkscape:connector-curvature="0" />
      <path
         d="m 306.08967,389.97328 c 0.57596,-0.25532 0.489,0.77348 0.25256,1.10902 -0.64073,0.90931 -1.73539,0.49431 -2.16715,-0.26028 -0.77233,-1.34977 -0.0373,-3.30399 1.15691,-4.1758 1.7526,-1.27945 3.8312,-0.31404 4.58686,1.62959 1.00718,2.59054 -0.33611,5.87913 -2.56638,7.24258 -2.80656,1.71576 -5.96001,0.14554 -7.00658,-2.99889 -1.26753,-3.80832 0.70578,-8.4711 3.97586,-10.30937 3.85367,-2.16634 8.09667,0.0192 9.42629,4.36819 1.5351,5.02104 -1.07402,11.06859 -5.38533,13.37616 -4.89877,2.622 -10.23648,-0.18251 -11.846,-5.7375 -1.80564,-6.23186 1.44161,-13.66859 6.7948,-16.44294 5.94303,-3.08004 12.37787,0.34502 14.26572,7.10681"
         id="path18510"
         style="fill:none;fill-opacity:0.75;fill-rule:evenodd;stroke:#000000;stroke-width:1.90071023;stroke-linecap:butt;stroke-linejoin:bevel;stroke-miterlimit:4;stroke-opacity:0.34351142"
         inkscape:connector-curvature="0" />
      <path
         d="m 209.3473,348.52166 1.33672,12.5755 -43.39042,-4.355 1.33673,-11.2387 z"
         id="path21024"
         style="fill:url(#linearGradient30515);fill-opacity:1;fill-rule:evenodd;stroke:none;stroke-width:1.42553258;stroke-linecap:butt;stroke-linejoin:miter;stroke-miterlimit:4;stroke-opacity:0.20229007"
         inkscape:connector-curvature="0" />
      <path
         d="m 169.50641,345.65246 18.90223,-31.6621 7.70904,0.9168 21.25559,12.7403 -9.05243,21.8059 z"
         id="path21022"
         style="fill:url(#linearGradient30516);fill-opacity:1;fill-rule:evenodd;stroke:none;stroke-width:1.42553258;stroke-linecap:butt;stroke-linejoin:miter;stroke-miterlimit:4;stroke-opacity:0.20229007"
         inkscape:connector-curvature="0" />
      <path
         d="m 166.38722,329.31746 -1.84793,11.5972 -32.22223,-21.9852 5.34601,-9.9757 z"
         id="path24782"
         style="fill:url(#linearGradient30517);fill-opacity:1;fill-rule:evenodd;stroke:none;stroke-width:1.42553258;stroke-linecap:butt;stroke-linejoin:miter;stroke-miterlimit:4;stroke-opacity:0.20229007"
         inkscape:connector-curvature="0" />
      <path
         d="m 141.14555,327.96206 c 6.50605,4.0813 13.01209,8.1627 19.51814,12.244 -14.4448,9.9133 -27.60247,18.8613 -43.33441,29.7399 2.88874,-7.9717 3.20321,-17.2305 -0.9873,-24.8804 10.52035,-1.8398 17.50107,-5.932 24.80357,-17.1035 z"
         id="path24788"
         style="fill:url(#linearGradient30518);fill-opacity:1;fill-rule:evenodd;stroke:none;stroke-width:1.42553258;stroke-linecap:butt;stroke-linejoin:miter;stroke-miterlimit:4;stroke-opacity:0.20229007"
         inkscape:connector-curvature="0" />
      <path
         d="m 172.64781,359.02316 c 9.1206,0.6348 15.02337,0.3042 24.46577,1.2608 -9.52084,13.9474 -15.26804,23.0067 -27.27538,38.9462 -0.0231,-8.4789 -4.83654,-16.9613 -11.3983,-22.7081 9.24966,-5.3391 11.18373,-4.4996 14.20791,-17.4989 z"
         id="path24790"
         style="fill:url(#linearGradient30519);fill-opacity:1;fill-rule:evenodd;stroke:none;stroke-width:1.42553258;stroke-linecap:butt;stroke-linejoin:miter;stroke-miterlimit:4;stroke-opacity:0.20229007"
         inkscape:connector-curvature="0" />
      <path
         d="m 225.21338,333.26856 c 7.71329,5.6363 12.20873,7.4113 16.70418,9.8298 4.21582,17.0044 7.97918,28.6035 12.64746,47.152 -6.45164,-5.5017 -15.01171,-9.0443 -23.64552,-7.8038 1.96786,-10.4972 2.19355,-38.4205 -5.70612,-49.178 z"
         id="path24792"
         style="fill:url(#linearGradient30520);fill-opacity:1;fill-rule:evenodd;stroke:none;stroke-width:1.42553258;stroke-linecap:butt;stroke-linejoin:miter;stroke-miterlimit:4;stroke-opacity:0.20229007"
         inkscape:connector-curvature="0" />
      <path
         d="m 224.73594,331.92996 c -4.2603,5.9003 -6.58991,10.8352 -9.56308,15.4484 0.65837,17.5069 0.68033,28.5781 1.33153,47.6939 5.31919,-8.3604 11.91977,-12.8479 20.55942,-14.047 -4.79801,-9.5416 -16.93932,-36.5708 -12.32787,-49.0953 z"
         id="path24794"
         style="fill:url(#linearGradient30521);fill-opacity:1;fill-rule:evenodd;stroke:none;stroke-width:1.42553258;stroke-linecap:butt;stroke-linejoin:miter;stroke-miterlimit:4;stroke-opacity:0.20229007"
         inkscape:connector-curvature="0" />
      <path
         d="m 264.04149,356.52226 c -3.72932,-2.0779 -0.45164,1.2645 -9.85028,-5.074 10.05003,13.5711 21.50141,29.2944 34.11269,44.7605 -2.983,-10.0051 4.18086,-17.1348 10.51683,-23.1296 -9.44809,-4.9795 -17.09146,-18.9981 -34.77924,-16.5569 z"
         id="path24796"
         style="fill:url(#linearGradient30522);fill-opacity:1;fill-rule:evenodd;stroke:none;stroke-width:1.42553258;stroke-linecap:butt;stroke-linejoin:miter;stroke-miterlimit:4;stroke-opacity:0.20229007"
         inkscape:connector-curvature="0" />
      <path
         d="m 101.78831,350.81561 c 2.19925,8.41774 0.07,17.0019 -4.752829,19.16109 -4.82281,2.15919 -10.521876,-2.92021 -12.721131,-11.33795 -2.199252,-8.41773 -0.06999,-17.00191 4.752823,-19.16109 4.822817,-2.15919 10.521885,2.92022 12.721137,11.33795 z"
         id="path21016"
         style="fill:url(#linearGradient30523);fill-opacity:1;stroke:none;stroke-width:1.17847991;stroke-linejoin:bevel;stroke-miterlimit:4;stroke-opacity:0.34351142"
         inkscape:connector-curvature="0" />
      <path
         d="m 149.18754,386.50258 c 4.84373,5.78029 5.89123,14.07012 2.33817,18.5041 -3.55306,4.43398 -10.36784,3.34133 -15.21157,-2.43896 -4.84372,-5.78028 -5.89122,-14.07012 -2.33817,-18.5041 3.55306,-4.43398 10.36785,-3.34132 15.21157,2.43896 z"
         id="path21017"
         style="fill:url(#linearGradient30524);fill-opacity:1;stroke:none;stroke-width:1.21120262;stroke-linejoin:bevel;stroke-miterlimit:4;stroke-opacity:0.34351142"
         inkscape:connector-curvature="0" />
      <path
         d="m 237.3989,395.55609 c 9.93005,-0.21249 18.12208,5.4667 18.28581,12.67676 0.16373,7.21006 -7.76255,13.23415 -17.6926,13.44663 -9.93003,0.21249 -18.12208,-5.4667 -18.2858,-12.67675 -0.16373,-7.21007 7.76256,-13.23416 17.69259,-13.44664 z"
         id="path21018"
         style="fill:url(#linearGradient30525);fill-opacity:1;stroke:none;stroke-width:1.44273937;stroke-linejoin:bevel;stroke-miterlimit:4;stroke-opacity:0.34351142"
         inkscape:connector-curvature="0" />
      <path
         d="m 303.19115,385.61694 c 3.42199,-6.51828 10.13453,-8.94939 14.98336,-5.42661 4.84883,3.52278 6.00684,11.67203 2.58485,18.1903 -3.42199,6.51827 -10.13454,8.94939 -14.98336,5.42661 -4.84883,-3.52278 -6.00684,-11.67204 -2.58485,-18.1903 z"
         id="path21019"
         style="fill:url(#linearGradient30526);fill-opacity:1;stroke:none;stroke-width:1.26970685;stroke-linejoin:bevel;stroke-miterlimit:4;stroke-opacity:0.34351142"
         inkscape:connector-curvature="0" />
      <path
         d="m 136.408,233.07226 c 19.34779,57.177 49.95772,87.4982 104.82457,90.9635 60.35355,19.3477 116.37549,-20.2141 100.49298,-82.3003 -7.21932,13.2835 -11.83968,20.5029 -24.25693,24.2569 4.90915,-34.364 -26.5671,-40.1394 -11.26214,-77.1024 10.68461,-22.813 17.03761,-50.824 -1.73263,-73.63705 -7.79687,25.98955 -17.32637,43.31595 -36.38539,62.37495 2.02141,-31.765 18.77023,-57.46582 8.66318,-87.498198 1.44387,-20.21411 -31.76502,-19.63656 -32.05379,-81.433974 -21.08042,26.56712 -30.03238,47.069994 -26.85588,87.498204 -7.79688,32.631328 -26.85587,44.471068 -23.3906,79.701368 -2.88773,-19.6366 -4.90914,-36.6742 -0.86633,-51.11285 -2.31018,-17.90391 -4.62037,-33.208888 -22.52428,-45.914898 5.48669,22.235518 11.83969,55.733178 -6.93055,64.107548 -5.19791,10.6846 -31.18748,47.3588 -2.59896,104.8246 -8.37441,-4.9091 -16.74884,-6.353 -25.12325,-14.7274 z"
         id="path15991"
         style="fill:url(#linearGradient30527);fill-opacity:1;fill-rule:evenodd;stroke:#ffff00;stroke-width:2.1563108;stroke-linecap:butt;stroke-linejoin:miter;stroke-miterlimit:4;stroke-opacity:0.50381679"
         inkscape:connector-curvature="0" />
      <path
         d="m 235.16834,315.37256 c -45.91489,-48.5139 -53.71176,-82.3003 -23.3906,-114.3541 34.0752,-60.6423 25.70078,-98.76034 0.86632,-135.145718 23.3906,80.567618 -27.72221,132.546718 -44.18226,155.937318 -9.81827,-30.3211 -1.44387,-43.3159 12.12847,-80.5676 -26.56712,28.8773 -42.73841,63.8188 -32.92012,97.0277 17.90392,49.9577 60.06476,60.9311 87.49819,77.1024 z"
         id="path15990"
         style="fill:url(#linearGradient30528);fill-opacity:1;fill-rule:evenodd;stroke:#ffff00;stroke-width:2.1563108;stroke-linecap:butt;stroke-linejoin:miter;stroke-miterlimit:4;stroke-opacity:0.50381679"
         inkscape:connector-curvature="0" />
      <path
         d="m 290.89046,132.07455 c -6.15481,-17.90098 -1.13221,-21.73459 4.25922,-29.55503 5.56163,-2.16613 3.85697,-9.718658 6.89186,-26.538448 4.59515,18.77349 16.93135,27.309488 -11.15108,56.093478 z"
         id="path15994"
         style="fill:#ffd700;fill-opacity:1;fill-rule:evenodd;stroke:#ffff00;stroke-width:2.1563108;stroke-linecap:butt;stroke-linejoin:miter;stroke-miterlimit:4;stroke-opacity:0.50381679"
         inkscape:connector-curvature="0" />
      <path
         d="m 169.27159,328.44966 13.06506,-5.9387"
         id="path20387"
         style="fill:none;fill-opacity:0.75;fill-rule:evenodd;stroke:#000000;stroke-width:1.08612013pt;stroke-linecap:butt;stroke-linejoin:miter;stroke-opacity:0.17938933"
         inkscape:connector-curvature="0" />
      <path
         d="m 138.52046,309.73126 26.98534,-14.8972 22.07902,17.6818 -5.38874,9.1479 -13.84243,5.939 z"
         id="path24159"
         style="fill:url(#linearGradient30529);fill-opacity:1;fill-rule:evenodd;stroke:none;stroke-width:1.42553258;stroke-linecap:butt;stroke-linejoin:miter;stroke-miterlimit:4;stroke-opacity:0.20229007"
         inkscape:connector-curvature="0" />
      <path
         d="m 215.10422,65.789952 c 0.63387,13.77775 4.55106,27.42117 2.75732,41.328308 -1.5823,32.4669 -15.84784,62.9987 -35.54194,88.4141 -3.65343,5.1912 -7.54448,10.2093 -11.30913,15.3201 -5.03417,-16.7728 -2.76155,-34.8581 4.01864,-50.7747 3.57049,-8.5047 6.07648,-17.3319 7.38761,-26.47531 -18.82095,17.16941 -32.10356,40.57371 -36.78125,65.62501 -3.79164,23.1694 4.35914,46.9902 19.73048,64.403 19.32727,22.8014 47.11664,35.6135 74.05077,47.0657 -15.26216,-21.468 -36.50831,-40.8391 -41.02033,-67.9622 -3.09495,-15.7494 3.10673,-31.5567 13.44976,-43.3319 11.83939,-16.266 19.21325,-35.6153 23.59367,-55.1462 5.68892,-25.43627 1.12856,-52.939688 -12.7731,-74.997158 -3.43037,-2.50771 -9.55995,-15.68449 -7.5625,-3.46875 z"
         id="path26054"
         style="fill:url(#linearGradient30530);fill-opacity:1;fill-rule:evenodd;stroke:none;stroke-width:2.1563108;stroke-linecap:butt;stroke-linejoin:miter;stroke-miterlimit:4;stroke-opacity:0.50381679"
         inkscape:connector-curvature="0" />
      <path
         d="m 297.8068,73.037092 c -1.8714,7.98026 -1.0254,16.77505 -4.5,24.21875 -8.14108,6.219368 -11.69097,17.776028 -8.12116,27.583498 1.10834,8.21993 3.67934,9.63805 8.23707,2.13192 9.73188,-10.01426 18.83749,-24.36261 13.29618,-38.711748 -2.50026,-7.31882 -4.68961,-14.74903 -7.47459,-21.97242 -0.47917,2.25 -0.95833,4.5 -1.4375,6.75 z"
         id="path28563"
         style="fill:url(#linearGradient30531);fill-opacity:1;fill-rule:evenodd;stroke:none;stroke-width:2.1563108;stroke-linecap:butt;stroke-linejoin:miter;stroke-miterlimit:4;stroke-opacity:0.50381679"
         inkscape:connector-curvature="0" />
      <path
         d="m 238.41622,21.137148 c -14.99272,19.6852 -21.35119,44.824274 -19.43988,69.336884 1.42824,11.986908 -4.94471,23.146478 -9.48162,33.854458 -8.34272,15.96187 -15.88957,33.39387 -13.60832,51.83627 -0.65803,10.6267 -5.37917,-0.0876 -4.88201,-5.4325 -2.26101,-15.0353 -3.22798,-30.6271 -0.14386,-45.52138 -1.55449,-14.49363 -5.22591,-30.204748 -17.19431,-39.729978 3.55402,17.204028 8.17212,36.594198 -0.40625,53.031258 -3.07779,5.5067 -9.96235,7.0124 -11.40127,13.6249 -14.44272,25.3005 -15.53094,56.8434 -4.56582,83.6283 2.28194,6.1006 5.25844,11.9243 7.84209,17.903 -8.0473,-4.5949 -16.87846,-7.7132 -24.65625,-12.75 10.77369,31.5464 31.25961,62.5809 63.599,74.8578 12.71752,5.4142 26.58607,6.4191 40.02243,8.5564 29.45045,9.1939 65.99724,3.1529 85.42735,-22.475 11.41608,-14.8269 14.58747,-34.8363 10.70122,-52.9079 -5.14255,10.4007 -14.05368,18.83 -25.5625,21.5 2.648,-13.3531 -1.38352,-26.7154 -8.28212,-38.1368 -7.44722,-12.1869 -9.19816,-27.5924 -3.25495,-40.7594 9.01742,-19.7648 15.83315,-43.6826 5.33139,-64.25316 -3.24996,-9.49614 -5.5378,-3.66685 -7.18432,3.05922 -6.86632,21.12134 -20.73135,39.08884 -36.4225,54.49634 1.08657,-21.5478 8.60459,-41.9354 11.79956,-63.11733 1.82434,-10.79074 -0.2714,-21.61899 -2.53052,-32.068728 -1.53783,-11.74214 -13.77556,-17.76553 -18.93886,-27.82073 -9.20134,-13.3735 -12.2617,-29.995394 -12.79893,-45.961924 -1.32292,1.75 -2.64583,3.5 -3.96875,5.25 z"
         id="path29198"
         style="fill:url(#linearGradient30532);fill-opacity:1;fill-rule:evenodd;stroke:none;stroke-width:2.1563108;stroke-linecap:butt;stroke-linejoin:miter;stroke-miterlimit:4;stroke-opacity:0.50381679"
         inkscape:connector-curvature="0" />
      <path
         d="m 199.64928,309.30826 64.10758,43.316 30.32116,-14.7274 -76.23605,-41.5833 -21.65796,6.0642 z"
         id="path16002"
         style="fill:#994200;fill-opacity:1;fill-rule:evenodd;stroke:#000000;stroke-width:1.42553258;stroke-linecap:butt;stroke-linejoin:miter;stroke-miterlimit:4;stroke-opacity:0.20229007"
         inkscape:connector-curvature="0" />
      <path
         d="m 208.46676,349.03706 10.29369,-20.9833"
         id="path20388"
         style="fill:none;fill-opacity:0.75;fill-rule:evenodd;stroke:#000000;stroke-width:1.08612013pt;stroke-linecap:butt;stroke-linejoin:miter;stroke-opacity:0.17938933"
         inkscape:connector-curvature="0" />
      <path
         d="m 196.62961,307.76766 64.10758,43.3159 30.32116,-14.7274 -76.23605,-41.5833 -21.65796,6.0642 z"
         id="path21027"
         style="fill:url(#linearGradient30533);fill-opacity:1;fill-rule:evenodd;stroke:none;stroke-width:1.42553258;stroke-linecap:butt;stroke-linejoin:miter;stroke-miterlimit:4;stroke-opacity:0.20229007"
         inkscape:connector-curvature="0" />
      <path
         d="m 196.18401,302.37776 v 10.3958 l 67.57285,44.1823 30.32116,-8.6632 v -11.2622 l -27.7222,8.6632 z"
         id="path15998"
         style="fill:#c15300;fill-opacity:1;fill-rule:evenodd;stroke:#000000;stroke-width:1.42553258;stroke-linecap:butt;stroke-linejoin:miter;stroke-miterlimit:4;stroke-opacity:0.20229007"
         inkscape:connector-curvature="0" />
      <path
         d="m 196.12112,302.22576 v 10.3958 l 67.57285,44.1823 30.32116,-8.6632 v -11.2621 l -27.7222,8.6631 z"
         id="path21028"
         style="fill:url(#linearGradient30534);fill-opacity:1;fill-rule:evenodd;stroke:none;stroke-width:1.42553258;stroke-linecap:butt;stroke-linejoin:miter;stroke-miterlimit:4;stroke-opacity:0.20229007"
         inkscape:connector-curvature="0" />
      <g
         id="g30446"
         transform="translate(31.19572,-862.6728)">
        <path
           d="m 307.13906,1158.9864 -58.98416,-3.4653 -20.66607,22.5243 67.89005,8.7611 z"
           id="path16003"
           sodipodi:nodetypes="ccccc"
           style="fill:#994200;fill-opacity:1;fill-rule:evenodd;stroke:#000000;stroke-width:1.42553258;stroke-linecap:butt;stroke-linejoin:miter;stroke-miterlimit:4;stroke-opacity:0.20229007"
           inkscape:connector-curvature="0" />
        <path
           d="m 288.12691,1180.3974 6.8092,7.1775 19.40808,-21.4856 -7.27961,-7.9693 z"
           id="path15999"
           sodipodi:nodetypes="ccccc"
           style="fill:#c15300;fill-opacity:1;fill-rule:evenodd;stroke:#000000;stroke-width:1.42553258;stroke-linecap:butt;stroke-linejoin:miter;stroke-miterlimit:4;stroke-opacity:0.20229007"
           inkscape:connector-curvature="0" />
        <path
           d="m 288.91794,1180.4329 -46.32158,-6.3346"
           id="path20389"
           style="fill:none;fill-opacity:0.75;fill-rule:evenodd;stroke:#000000;stroke-width:1.08612013pt;stroke-linecap:butt;stroke-linejoin:miter;stroke-opacity:0.17938933"
           inkscape:connector-curvature="0" />
        <path
           d="m 307.5461,1159.1791 5.84347,6.9901 -18.42002,20.7611 -6.36848,-7.2198 z"
           id="path24784"
           sodipodi:nodetypes="ccccc"
           style="fill:url(#linearGradient30535);fill-opacity:1;fill-rule:evenodd;stroke:none;stroke-width:1.42553258;stroke-linecap:butt;stroke-linejoin:miter;stroke-miterlimit:4;stroke-opacity:0.20229007"
           inkscape:connector-curvature="0" />
        <path
           d="m 287.84876,1179.7577 -39.04594,-5.7325 23.97761,-16.2565 15.79795,0.6934 16.39072,0.6574 z"
           id="path24786"
           sodipodi:nodetypes="cccccc"
           style="fill:url(#linearGradient30536);fill-opacity:1;fill-rule:evenodd;stroke:none;stroke-width:1.42553258;stroke-linecap:butt;stroke-linejoin:miter;stroke-miterlimit:4;stroke-opacity:0.20229007"
           inkscape:connector-curvature="0" />
      </g>
      <path
         d="m 330.46341,241.73546 c 15.88251,-15.305 12.70601,-21.9468 11.26214,-32.9201 -4.62036,-5.1979 1.15509,-12.1285 6.93055,-31.1875 -14.72742,17.0376 -32.0538,19.3478 -18.19269,64.1076 z"
         id="path15993"
         style="fill:#ffd700;fill-opacity:1;fill-rule:evenodd;stroke:#ffff00;stroke-width:2.1563108;stroke-linecap:butt;stroke-linejoin:miter;stroke-miterlimit:4;stroke-opacity:0.50381679"
         inkscape:connector-curvature="0" />
      <path
         d="m 255.95999,315.37256 c 17.90392,-10.1071 22.81305,-41.8721 25.12325,-77.1024 4.33159,-34.0752 12.99478,-68.1504 70.17182,-73.6371 -23.39062,18.7703 -42.44962,41.8721 -33.78644,84.8993 -2.31018,62.6637 -48.80262,60.3535 -61.50863,65.8402 z"
         id="path15992"
         style="fill:url(#linearGradient30537);fill-opacity:1;fill-rule:evenodd;stroke:#ffff00;stroke-width:2.1563108;stroke-linecap:butt;stroke-linejoin:miter;stroke-miterlimit:4;stroke-opacity:0.50381679"
         inkscape:connector-curvature="0" />
      <path
         d="m 344.66672,159.65516 c -24.38123,3.4569 -49.51237,18.1046 -56.66827,42.9832 -11.48365,31.097 -5.13799,66.4903 -20.80048,96.3606 -5.94812,2.585 -4.49399,13.6743 2.85181,11.5046 21.51646,-3.9012 41.93765,-18.849 47.38887,-40.7861 5.2576,-15.2337 2.27636,-31.3498 1.71705,-46.9973 0.71542,-22.6934 13.85513,-43.1578 31.10477,-57.1587 3.01956,-4.349 -2.01656,-5.8119 -5.59375,-5.9063 z"
         id="path26056"
         style="fill:url(#linearGradient30538);fill-opacity:1;fill-rule:evenodd;stroke:none;stroke-width:2.1563108;stroke-linecap:butt;stroke-linejoin:miter;stroke-miterlimit:4;stroke-opacity:0.50381679"
         inkscape:connector-curvature="0" />
      <path
         d="m 344.96305,171.53656 c -9.82497,10.4001 -24.0785,20.1331 -23.73462,36.1235 -0.72619,11.4565 3.35351,22.3796 5.89087,33.3765 8.52867,-8.1385 18.22308,-18.74 15.09898,-31.5746 -0.0222,-5.6554 -4.28458,-10.6025 -0.93838,-16.1128 3.2139,-8.7256 6.57589,-17.4081 8.80815,-26.4688 -1.70833,1.5521 -3.41667,3.1042 -5.125,4.6562 z"
         id="path28562"
         style="fill:url(#linearGradient30539);fill-opacity:1;fill-rule:evenodd;stroke:none;stroke-width:2.1563108;stroke-linecap:butt;stroke-linejoin:miter;stroke-miterlimit:4;stroke-opacity:0.50381679"
         inkscape:connector-curvature="0" />
      <path
         d="m 224.77252,291.98196 c -2.31019,-27.7222 -5.48669,-47.6476 29.45484,-72.7708 59.19844,-41.2945 30.03238,-65.2627 -6.93055,-108.28985 10.97337,42.73835 -6.64178,76.81355 -21.65798,99.62665 -9.81827,14.1499 -43.89347,43.0272 -0.86631,81.434 z"
         id="path15989"
         style="fill:url(#linearGradient30540);fill-opacity:1;fill-rule:evenodd;stroke:#ffff00;stroke-width:2.1563108;stroke-linecap:butt;stroke-linejoin:miter;stroke-miterlimit:4;stroke-opacity:0.50381679"
         inkscape:connector-curvature="0" />
      <path
         d="m 202.19105,88.631902 c 15.98844,-18.41045 11.88217,-25.9885 9.27078,-38.66424 -5.5549,-5.843464 0.13128,-14.122384 4.68167,-36.476504 -14.55919,20.37399 -33.34836,23.76285 -13.95245,75.140744 z"
         id="path15995"
         style="fill:#ffd700;fill-opacity:1;fill-rule:evenodd;stroke:#ffff00;stroke-width:2.1563108;stroke-linecap:butt;stroke-linejoin:miter;stroke-miterlimit:4;stroke-opacity:0.50381679"
         inkscape:connector-curvature="0" />
      <path
         d="m 212.3068,9.568338 c -9.30969,12.17423 -23.42746,23.40799 -22.6875,40.281254 -0.10028,14.02936 5.4291,27.11843 9.5625,40.28125 8.44026,-9.6347 17.42012,-21.86984 13.66358,-35.44614 0.0257,-5.37156 -3.737,-9.541874 -3.84544,-14.615204 2.05688,-11.97534 6.31265,-23.54307 7.99436,-35.62616 -1.5625,1.70833 -3.125,3.41667 -4.6875,5.125 z"
         id="path28564"
         style="fill:url(#linearGradient30541);fill-opacity:1;fill-rule:evenodd;stroke:none;stroke-width:2.1563108;stroke-linecap:butt;stroke-linejoin:miter;stroke-miterlimit:4;stroke-opacity:0.50381679"
         inkscape:connector-curvature="0" />
      <path
         d="m 246.40597,103.75821 c 6.40508,29.13536 -0.19164,59.82845 -14.93562,85.42475 -9.15363,17.5973 -27.2009,31.0743 -28.92062,52.011 -2.7585,18.2445 10.38732,33.4514 22.56898,45.241 4.96184,6.239 0.70889,-8.5105 1.38422,-11.9632 -1.97971,-17.9487 1.09873,-38.0878 15.5825,-50.3998 16.12514,-15.6874 39.12358,-26.5619 46.8475,-49.1093 5.22432,-19.9129 -8.69668,-37.76184 -20.83869,-51.90179 -7.32268,-8.88533 -15.04301,-17.40614 -22.71952,-25.990158 0.34375,2.22917 0.6875,4.458328 1.03125,6.687498 z"
         id="path26055"
         style="fill:url(#linearGradient30542);fill-opacity:1;fill-rule:evenodd;stroke:none;stroke-width:2.1563108;stroke-linecap:butt;stroke-linejoin:miter;stroke-miterlimit:4;stroke-opacity:0.50381679"
         inkscape:connector-curvature="0" />
    </g>
  </g>
</svg>
