<?xml version="1.0" encoding="UTF-8" standalone="no"?>
<!-- Created with Inkscape (http://www.inkscape.org/) -->
<svg
   xmlns:dc="http://purl.org/dc/elements/1.1/"
   xmlns:cc="http://web.resource.org/cc/"
   xmlns:rdf="http://www.w3.org/1999/02/22-rdf-syntax-ns#"
   xmlns:svg="http://www.w3.org/2000/svg"
   xmlns="http://www.w3.org/2000/svg"
   xmlns:xlink="http://www.w3.org/1999/xlink"
   xmlns:sodipodi="http://sodipodi.sourceforge.net/DTD/sodipodi-0.dtd"
   xmlns:inkscape="http://www.inkscape.org/namespaces/inkscape"
   width="48px"
   height="48px"
   id="svg3466"
   sodipodi:version="0.32"
   inkscape:version="0.44"
   sodipodi:docbase="/home/alex/media/misc/team-versicherung"
   sodipodi:docname="regenschirm.svg"
   inkscape:export-filename="/home/alex/media/misc/team-versicherung/Rentenreform.png"
   inkscape:export-xdpi="60"
   inkscape:export-ydpi="60">
  <defs
     id="defs3468">
    <linearGradient
       inkscape:collect="always"
       id="linearGradient5499">
      <stop
         style="stop-color:black;stop-opacity:1;"
         offset="0"
         id="stop5501" />
      <stop
         style="stop-color:black;stop-opacity:0;"
         offset="1"
         id="stop5503" />
    </linearGradient>
    <linearGradient
       inkscape:collect="always"
       id="linearGradient5493">
      <stop
         style="stop-color:black;stop-opacity:1;"
         offset="0"
         id="stop5495" />
      <stop
         style="stop-color:black;stop-opacity:0;"
         offset="1"
         id="stop5497" />
    </linearGradient>
    <linearGradient
       inkscape:collect="always"
       id="linearGradient5477">
      <stop
         style="stop-color:black;stop-opacity:1;"
         offset="0"
         id="stop5479" />
      <stop
         style="stop-color:black;stop-opacity:0;"
         offset="1"
         id="stop5481" />
    </linearGradient>
    <linearGradient
       inkscape:collect="always"
       id="linearGradient5445">
      <stop
         style="stop-color:black;stop-opacity:1;"
         offset="0"
         id="stop5447" />
      <stop
         style="stop-color:black;stop-opacity:0;"
         offset="1"
         id="stop5449" />
    </linearGradient>
    <linearGradient
       id="linearGradient5371">
      <stop
         style="stop-color:#b0b0b0;stop-opacity:1;"
         offset="0"
         id="stop5373" />
      <stop
         style="stop-color:#262626;stop-opacity:1;"
         offset="1"
         id="stop5375" />
    </linearGradient>
    <linearGradient
       id="linearGradient4476">
      <stop
         style="stop-color:#363535;stop-opacity:1;"
         offset="0"
         id="stop4478" />
      <stop
         id="stop4484"
         offset="0.63855422"
         style="stop-color:#3c3c3c;stop-opacity:1;" />
      <stop
         style="stop-color:#727272;stop-opacity:1;"
         offset="1"
         id="stop4480" />
    </linearGradient>
    <linearGradient
       inkscape:collect="always"
       xlink:href="#linearGradient4476"
       id="linearGradient6448"
       gradientUnits="userSpaceOnUse"
       x1="-92.5"
       y1="138.5"
       x2="53"
       y2="8.25" />
    <linearGradient
       inkscape:collect="always"
       xlink:href="#linearGradient4476"
       id="linearGradient6450"
       gradientUnits="userSpaceOnUse"
       x1="-33.5"
       y1="52.875"
       x2="6.8990211"
       y2="124.5" />
    <linearGradient
       inkscape:collect="always"
       xlink:href="#linearGradient4476"
       id="linearGradient6452"
       gradientUnits="userSpaceOnUse"
       spreadMethod="reflect"
       x1="-182.74063"
       y1="46.75"
       x2="-55.252308"
       y2="23.938099" />
    <linearGradient
       inkscape:collect="always"
       xlink:href="#linearGradient5371"
       id="linearGradient6454"
       gradientUnits="userSpaceOnUse"
       x1="-117.68681"
       y1="-32.276894"
       x2="-61.190495"
       y2="-25.205824" />
    <linearGradient
       inkscape:collect="always"
       xlink:href="#linearGradient4476"
       id="linearGradient6456"
       gradientUnits="userSpaceOnUse"
       x1="37.523125"
       y1="-47.98365"
       x2="-55.533638"
       y2="-11.567649" />
    <linearGradient
       inkscape:collect="always"
       xlink:href="#linearGradient5371"
       id="linearGradient6458"
       gradientUnits="userSpaceOnUse"
       x1="-31.492008"
       y1="-1.6681576"
       x2="-11.058135"
       y2="-42.680351" />
    <linearGradient
       inkscape:collect="always"
       xlink:href="#linearGradient4476"
       id="linearGradient6460"
       gradientUnits="userSpaceOnUse"
       x1="-18.270815"
       y1="15.070806"
       x2="17.5"
       y2="-26.429195" />
    <linearGradient
       inkscape:collect="always"
       xlink:href="#linearGradient5371"
       id="linearGradient6462"
       gradientUnits="userSpaceOnUse"
       x1="35.5"
       y1="-20.5"
       x2="11.114592"
       y2="-12.429193" />
    <linearGradient
       inkscape:collect="always"
       xlink:href="#linearGradient4476"
       id="linearGradient6464"
       gradientUnits="userSpaceOnUse"
       x1="-4.75"
       y1="96.279961"
       x2="74.745323"
       y2="70.279961" />
    <linearGradient
       inkscape:collect="always"
       xlink:href="#linearGradient5445"
       id="linearGradient6466"
       gradientUnits="userSpaceOnUse"
       x1="61"
       y1="30.5"
       x2="27"
       y2="132.30992" />
    <linearGradient
       inkscape:collect="always"
       xlink:href="#linearGradient4476"
       id="linearGradient6468"
       gradientUnits="userSpaceOnUse"
       x1="61.5"
       y1="57.5"
       x2="69.33326"
       y2="36.5" />
    <linearGradient
       inkscape:collect="always"
       xlink:href="#linearGradient5477"
       id="linearGradient6470"
       gradientUnits="userSpaceOnUse"
       x1="68.5"
       y1="64.5"
       x2="53.91663"
       y2="63.5" />
    <linearGradient
       inkscape:collect="always"
       xlink:href="#linearGradient4476"
       id="linearGradient6472"
       gradientUnits="userSpaceOnUse"
       x1="58.5"
       y1="45"
       x2="61.5"
       y2="24" />
    <linearGradient
       inkscape:collect="always"
       xlink:href="#linearGradient5493"
       id="linearGradient6474"
       gradientUnits="userSpaceOnUse"
       x1="52.5"
       y1="24.5"
       x2="74.5"
       y2="59.5" />
    <linearGradient
       inkscape:collect="always"
       xlink:href="#linearGradient4476"
       id="linearGradient6476"
       gradientUnits="userSpaceOnUse"
       x1="39.09798"
       y1="15.826642"
       x2="44.798988"
       y2="8.609127" />
    <linearGradient
       inkscape:collect="always"
       xlink:href="#linearGradient5499"
       id="linearGradient6478"
       gradientUnits="userSpaceOnUse"
       x1="51"
       y1="15"
       x2="22.5"
       y2="39" />
  </defs>
  <sodipodi:namedview
     id="base"
     pagecolor="white"
     bordercolor="#666666"
     borderopacity="1.0"
     inkscape:pageopacity="1"
     inkscape:pageshadow="2"
     inkscape:zoom="2.9851874"
     inkscape:cx="-6.675885"
     inkscape:cy="7.9371745"
     inkscape:current-layer="layer1"
     showgrid="true"
     inkscape:grid-bbox="true"
     inkscape:document-units="px"
     inkscape:window-width="948"
     inkscape:window-height="725"
     inkscape:window-x="-2"
     inkscape:window-y="0" />
  <metadata
     id="metadata3471">
    <rdf:RDF>
      <cc:Work
         rdf:about="">
        <dc:format>image/svg+xml</dc:format>
        <dc:type
           rdf:resource="http://purl.org/dc/dcmitype/StillImage" />
      </cc:Work>
    </rdf:RDF>
  </metadata>
  <g
     id="layer1"
     inkscape:label="Layer 1"
     inkscape:groupmode="layer">
    <g
       id="g6399"
       transform="matrix(0.235423,0,0,0.235423,27.22752,15.28538)">
      <path
         id="path3565"
         d="M 56.75,-6.5000001 L -55.5,76.5 L -53.5,78.5 L 59,-4.0000001 L 58.5,-6.0000001 L 56.75,-6.5000001 z "
         style="fill:#8f5902;fill-rule:evenodd;stroke:black;stroke-width:1px;stroke-linecap:butt;stroke-linejoin:miter;stroke-opacity:1" />
      <path
         sodipodi:nodetypes="ccscscsscc"
         id="path3567"
         d="M -56.5,76.5 L -71,87.5 C -75.037618,90.691119 -77.203142,96.824697 -76,100 C -73.525804,106.52984 -66.017886,101.27794 -62,97 C -62,97 -63,96.75 -63.5,96 C -64,95.25 -64,94 -64,94 C -66.289276,96.025397 -70.112844,101.88368 -73,98.5 C -74.055927,97.262477 -72.112754,93.743313 -70,91 C -68.420045,88.948502 -54,79 -54,79 L -56.5,76.5 z "
         style="fill:#8f5902;fill-rule:evenodd;stroke:black;stroke-width:1px;stroke-linecap:butt;stroke-linejoin:miter;stroke-opacity:1" />
      <path
         sodipodi:nodetypes="cccccc"
         id="path3589"
         d="M 56.75,-6.5000001 L 52.687338,-3.4030663 L 54.687338,-1.4030663 L 59,-4.0000001 L 58.5,-6.0000001 L 56.75,-6.5000001 z "
         style="fill:black;fill-opacity:1;fill-rule:evenodd;stroke:black;stroke-width:1px;stroke-linecap:butt;stroke-linejoin:miter;stroke-opacity:1" />
      <path
         sodipodi:nodetypes="cc"
         id="path5401"
         d="M 56.568599,-5.3865575 L -53.499951,76.5"
         style="fill:none;fill-rule:evenodd;stroke:white;stroke-width:1;stroke-linecap:butt;stroke-linejoin:miter;stroke-miterlimit:4;stroke-dasharray:none;stroke-opacity:0.54901961" />
      <path
         sodipodi:nodetypes="ccccsc"
         id="path3569"
         d="M 39,8.75 L 14.25,12 C -9.3327354,22.305954 -30.724568,34.07251 -51.5,46.25 C -20.653088,67.818652 3.1007219,93.947155 20.75,124 C 20.75,124 38.152706,82.859095 44.25,51.75 C 47.226413,36.564 39,8.75 39,8.75 z "
         style="fill:url(#linearGradient6448);fill-opacity:1;fill-rule:evenodd;stroke:url(#linearGradient6450);stroke-width:1px;stroke-linecap:butt;stroke-linejoin:miter;stroke-opacity:1" />
      <path
         sodipodi:nodetypes="cccccc"
         id="path3571"
         d="M 39,8.75 L 14.25,12 C -8.1057249,21.932603 -30.092878,33.488413 -51.5,46.25 C -53.834606,17.228606 -64.059102,-9.3271983 -81.477922,-33.634776 C -38.971699,-33.758416 -16.135811,-28.933316 -0.87132039,-21.414213 L 39,8.75 z "
         style="fill:url(#linearGradient6452);fill-opacity:1;fill-rule:evenodd;stroke:url(#linearGradient6454);stroke-width:1px;stroke-linecap:butt;stroke-linejoin:miter;stroke-opacity:1" />
      <path
         sodipodi:nodetypes="cccccc"
         id="path3573"
         d="M 39,8.75 L 2.2291847,-33.608387 C -15.07705,-42.673457 -33.404351,-50.104821 -55.389087,-51.684289 C -60.407888,-39.363538 -70.585851,-35.381988 -82.185029,-34.341883 C -52.447507,-35.103028 -14.018338,-30.20561 1.2499999,-20.707106 L 39,8.75 z "
         style="fill:url(#linearGradient6456);fill-opacity:1;fill-rule:evenodd;stroke:url(#linearGradient6458);stroke-width:1px;stroke-linecap:butt;stroke-linejoin:miter;stroke-opacity:1" />
      <path
         sodipodi:nodetypes="ccccsc"
         id="path3575"
         d="M 39,8.75 L 2.2291847,-33.608387 L 10.725397,-25.874891 L 16.809921,-18.785534 C 16.809921,-18.785534 21.158325,-20.519923 26.705845,-13.636039 C 32.253364,-6.7521556 39,8.75 39,8.75 z "
         style="fill:url(#linearGradient6460);fill-opacity:1;fill-rule:evenodd;stroke:url(#linearGradient6462);stroke-width:1px;stroke-linecap:butt;stroke-linejoin:miter;stroke-opacity:1" />
      <path
         sodipodi:nodetypes="csccsc"
         id="path3577"
         d="M 39,8.75 C 39,8.75 64.349689,51.862989 65.515242,60.790368 C 67.151524,73.323218 65.526172,131.80992 65.526172,131.80992 C 46.709353,117.90455 34.303519,122.05462 20.75,124 C 20.75,124 39.22618,80.485654 44.25,51.75 C 46.69118,37.786742 39,8.75 39,8.75 z "
         style="fill:url(#linearGradient6464);fill-opacity:1;fill-rule:evenodd;stroke:url(#linearGradient6466);stroke-width:1px;stroke-linecap:butt;stroke-linejoin:miter;stroke-opacity:1" />
      <path
         sodipodi:nodetypes="cscccc"
         id="path3579"
         d="M 39,8.75 C 39,8.75 64.196006,52.701514 65.515242,60.790368 C 67.843834,75.068049 65.526172,131.80992 65.526172,131.80992 L 68.833261,97.129942 L 67.938077,52.81066 L 39,8.75 z "
         style="fill:url(#linearGradient6468);fill-opacity:1;fill-rule:evenodd;stroke:url(#linearGradient6470);stroke-width:1px;stroke-linecap:butt;stroke-linejoin:miter;stroke-opacity:1" />
      <path
         sodipodi:nodetypes="cccc"
         id="path3581"
         d="M 39,8.75 L 66.222349,50.183766 L 65.10965,42.204058 L 39,8.75 z "
         style="fill:url(#linearGradient6472);fill-opacity:1;fill-rule:evenodd;stroke:url(#linearGradient6474);stroke-width:1px;stroke-linecap:butt;stroke-linejoin:miter;stroke-opacity:1" />
      <path
         sodipodi:nodetypes="csccc"
         id="path3583"
         d="M 41.7193,9.109127 C 41.7193,9.109127 45.305979,9.2859033 47.376154,12.644661 C 49.446329,16.003418 50,22.544156 50,22.544156 L 39.59798,9.8162338 L 41.7193,9.109127 z "
         style="fill:url(#linearGradient6476);fill-opacity:1;fill-rule:evenodd;stroke:url(#linearGradient6478);stroke-width:1px;stroke-linecap:butt;stroke-linejoin:miter;stroke-opacity:1" />
      <path
         sodipodi:nodetypes="cc"
         id="path5507"
         d="M -56.465725,78.056721 C -63.640211,84.076968 -74.976348,89.23694 -75.03428,96.44328"
         style="fill:none;fill-rule:evenodd;stroke:white;stroke-width:1;stroke-linecap:butt;stroke-linejoin:miter;stroke-miterlimit:4;stroke-dasharray:none;stroke-opacity:0.54901961" />
      <path
         sodipodi:nodetypes="cc"
         id="path5509"
         d="M -64.715723,96.80672 C -71.890209,102.82697 -70.726346,100.48694 -73.284278,100.19328"
         style="fill:none;fill-rule:evenodd;stroke:white;stroke-width:1;stroke-linecap:butt;stroke-linejoin:miter;stroke-miterlimit:4;stroke-dasharray:none;stroke-opacity:0.54901961" />
      <path
         transform="matrix(0.13424,-0.781287,0.606352,0.570479,-111.9321,-7.662643)"
         d="M -60 95.25 A 2 2.5 0 1 1  -64,95.25 A 2 2.5 0 1 1  -60 95.25 z"
         sodipodi:ry="2.5"
         sodipodi:rx="2"
         sodipodi:cy="95.25"
         sodipodi:cx="-62"
         id="path5511"
         style="fill:black;fill-opacity:1;stroke:none;stroke-width:1;stroke-miterlimit:4;stroke-dasharray:none;stroke-opacity:0.54901961"
         sodipodi:type="arc" />
    </g>
  </g>
</svg>
